<?xml version="1.0" encoding="utf-8"?>
<!-- Generator: Adobe Illustrator 19.0.0, SVG Export Plug-In . SVG Version: 6.00 Build 0)  -->
<svg version="1.1" id="Capa_1" xmlns="http://www.w3.org/2000/svg" xmlns:xlink="http://www.w3.org/1999/xlink" x="0px" y="0px"
	 viewBox="0 0 410 144" style="enable-background:new 0 0 410 144;" xml:space="preserve">
<style type="text/css">
	.st0{fill:#FFF8F9;}
	.st1{fill:#C92F41;}
	.st2{fill:#FFFFFF;}
</style>
<path id="XMLID_81_" class="st0" d="M33.8,93.8c0-2.7-0.1-4.9-0.2-6.8h5.5l0.3,2.8h0.1c1.5-2.1,3.8-3.3,6.8-3.3
	c4.5,0,8.5,3.9,8.5,10.4c0,7.4-4.7,10.9-9.3,10.9c-2.5,0-4.4-1-5.3-2.3h-0.1v10.1h-6.3V93.8z M40.1,98.6c0,0.5,0,0.9,0.1,1.3
	c0.4,1.7,1.9,3,3.7,3c2.8,0,4.4-2.3,4.4-5.8c0-3.3-1.5-5.7-4.3-5.7c-1.8,0-3.4,1.3-3.8,3.2c-0.1,0.3-0.1,0.8-0.1,1.1V98.6z"/>
<path id="XMLID_78_" class="st0" d="M74.7,102.4c0,1.9,0.1,3.8,0.3,4.9h-5.7l-0.4-2h-0.1c-1.3,1.6-3.4,2.5-5.8,2.5
	c-4.1,0-6.6-3-6.6-6.3c0-5.3,4.8-7.8,12-7.8v-0.3c0-1.1-0.6-2.7-3.7-2.7c-2.1,0-4.3,0.7-5.6,1.5l-1.2-4.1c1.4-0.8,4.2-1.8,7.9-1.8
	c6.8,0,8.9,4,8.9,8.8V102.4z M68.6,97.7c-3.3,0-5.9,0.8-5.9,3.2c0,1.6,1.1,2.4,2.5,2.4c1.5,0,2.9-1,3.3-2.3c0.1-0.3,0.1-0.7,0.1-1.1
	V97.7z"/>
<path id="XMLID_76_" class="st0" d="M78.7,93.7c0-3,0-5-0.2-6.7H84l0.2,3.8h0.2c1-3,3.5-4.3,5.5-4.3c0.6,0,0.9,0,1.3,0.1v6
	c-0.5-0.1-1-0.2-1.7-0.2c-2.3,0-3.9,1.3-4.3,3.2C85.1,96,85,96.5,85,97v10.4h-6.3V93.7z"/>
<path id="XMLID_72_" class="st0" d="M98.1,99.2c0.2,2.6,2.8,3.9,5.8,3.9c2.2,0,3.9-0.3,5.6-0.9l0.8,4.3c-2.1,0.9-4.6,1.3-7.4,1.3
	c-6.9,0-10.9-4-10.9-10.4c0-5.2,3.2-10.9,10.3-10.9c6.6,0,9.1,5.1,9.1,10.2c0,1.1-0.1,2-0.2,2.5H98.1z M105.5,94.9
	c0-1.5-0.7-4.1-3.6-4.1c-2.7,0-3.8,2.5-3.9,4.1H105.5z M109,78.1l-5.1,6.3h-4.3l3.6-6.3H109z"/>
<path id="XMLID_70_" class="st0" d="M114.2,93.5c0-2.5-0.1-4.7-0.2-6.5h5.5l0.3,2.8h0.1c0.8-1.3,2.9-3.3,6.3-3.3
	c4.2,0,7.3,2.8,7.3,8.8v12.1h-6.3V96.1c0-2.6-0.9-4.4-3.2-4.4c-1.8,0-2.8,1.2-3.3,2.4c-0.2,0.4-0.2,1-0.2,1.6v11.8h-6.3V93.5z"/>
<path id="XMLID_68_" class="st0" d="M144.4,81.5V87h4.5v4.7h-4.5V99c0,2.5,0.6,3.6,2.5,3.6c0.9,0,1.3,0,1.9-0.2l0,4.8
	c-0.8,0.3-2.3,0.5-4.1,0.5c-2,0-3.8-0.7-4.8-1.8c-1.2-1.2-1.8-3.2-1.8-6.1v-8.3h-2.7V87h2.7v-3.8L144.4,81.5z"/>
<path id="XMLID_65_" class="st0" d="M156.3,99.2c0.2,2.6,2.8,3.9,5.8,3.9c2.2,0,3.9-0.3,5.6-0.9l0.8,4.3c-2.1,0.9-4.6,1.3-7.4,1.3
	c-6.9,0-10.9-4-10.9-10.4c0-5.2,3.2-10.9,10.3-10.9c6.6,0,9.1,5.1,9.1,10.2c0,1.1-0.1,2-0.2,2.5H156.3z M163.8,94.9
	c0-1.5-0.7-4.1-3.6-4.1c-2.7,0-3.8,2.5-3.9,4.1H163.8z"/>
<path id="XMLID_63_" class="st0" d="M172.4,101.9c1.2,0.7,3.6,1.5,5.5,1.5c1.9,0,2.7-0.6,2.7-1.7c0-1.1-0.6-1.6-3-2.4
	c-4.3-1.4-5.9-3.7-5.8-6.1c0-3.8,3.3-6.7,8.3-6.7c2.4,0,4.5,0.6,5.7,1.2l-1.1,4.4c-0.9-0.5-2.7-1.2-4.4-1.2c-1.5,0-2.4,0.6-2.4,1.6
	c0,1,0.8,1.5,3.3,2.4c3.9,1.3,5.5,3.3,5.5,6.3c0,3.8-3,6.6-8.8,6.6c-2.7,0-5.1-0.6-6.6-1.5L172.4,101.9z"/>
<path id="XMLID_60_" class="st0" d="M196,81.3c0,1.8-1.3,3.2-3.4,3.2c-2,0-3.3-1.4-3.3-3.2c0-1.8,1.3-3.2,3.4-3.2
	C194.7,78.1,196,79.5,196,81.3z M189.5,107.4V87h6.3v20.4H189.5z"/>
<path id="XMLID_58_" class="st0" d="M199.8,101.9c1.2,0.7,3.6,1.5,5.5,1.5c1.9,0,2.7-0.6,2.7-1.7c0-1.1-0.6-1.6-3-2.4
	c-4.3-1.4-5.9-3.7-5.8-6.1c0-3.8,3.3-6.7,8.3-6.7c2.4,0,4.5,0.6,5.7,1.2l-1.1,4.4c-0.9-0.5-2.7-1.2-4.4-1.2c-1.5,0-2.4,0.6-2.4,1.6
	c0,1,0.8,1.5,3.3,2.4c3.9,1.3,5.5,3.3,5.5,6.3c0,3.8-3,6.6-8.8,6.6c-2.7,0-5.1-0.6-6.6-1.5L199.8,101.9z"/>
<path id="XMLID_56_" class="st1" d="M216,104c0-2.3,1.5-3.9,3.8-3.9c2.2,0,3.7,1.5,3.7,3.9c0,2.2-1.5,3.8-3.8,3.8
	C217.6,107.8,216,106.2,216,104z"/>
<path id="XMLID_54_" class="st1" d="M241.6,106.8c-1.1,0.5-3.3,1-5.7,1c-6.6,0-10.8-4-10.8-10.4c0-6,4.1-10.9,11.7-10.9
	c1.7,0,3.5,0.3,4.8,0.8l-1,4.7c-0.8-0.3-1.9-0.6-3.5-0.6c-3.3,0-5.5,2.4-5.5,5.7c0,3.7,2.5,5.7,5.6,5.7c1.5,0,2.7-0.3,3.6-0.7
	L241.6,106.8z"/>
<path id="XMLID_51_" class="st1" d="M263.8,96.9c0,7.5-5.3,10.9-10.8,10.9c-6,0-10.6-3.9-10.6-10.5c0-6.6,4.3-10.9,10.9-10.9
	C259.6,86.5,263.8,90.8,263.8,96.9z M249,97.1c0,3.5,1.5,6.1,4.2,6.1c2.5,0,4-2.5,4-6.2c0-3-1.2-6.1-4-6.1
	C250.2,91,249,94.1,249,97.1z"/>
<path id="XMLID_49_" class="st1" d="M266.7,93.5c0-2.5-0.1-4.7-0.2-6.5h5.4l0.3,2.8h0.1c0.9-1.3,2.7-3.3,6.2-3.3
	c2.7,0,4.7,1.4,5.6,3.5h0.1c0.8-1.1,1.7-1.9,2.7-2.5c1.1-0.6,2.4-1,3.9-1c3.9,0,6.9,2.8,6.9,8.9v12h-6.2V96.3c0-3-1-4.7-3-4.7
	c-1.5,0-2.5,1-3,2.2c-0.1,0.5-0.2,1.1-0.2,1.6v11.9H279V95.9c0-2.5-0.9-4.3-3-4.3c-1.6,0-2.6,1.3-3,2.3c-0.2,0.5-0.2,1.1-0.2,1.6
	v11.9h-6.2V93.5z"/>
<path id="XMLID_761_" class="st2" d="M344.6,26.2c-19.4,0-35.3,15.8-35.3,35.3c0,8.5,3.1,16.7,8.6,23.1c2.5,2.8,1.4,6.5,0.1,10.8
	c-0.3,1.1-0.6,2.2-0.9,3.4c0.6-0.3,1.2-0.6,1.7-0.9c7-3.7,9.7-4.9,11.9-4c4.4,1.9,9,2.8,13.8,2.8c19.4,0,35.3-15.8,35.3-35.3
	C379.8,42,364,26.2,344.6,26.2z M334.7,68.1c0.7,1.6,2.5,4.5,4,5.6c0.2,0.2,0.4,0.3,0.4,0.6c0,0.4-0.4,0.6-0.8,0.6
	c-2,0-5.7-4.1-6.8-5.6c-0.9-1.3-1.6-2.7-2-4.2c-0.3-1-0.6-2.7-0.6-3.7c0-2.7,1.1-5.7,2.7-7.9c0.9-1.3,2-2.4,3.3-3.4
	c0.7-0.6,2.3-2,3.4-2c0.3,0,0.8,0.2,0.8,0.6c0,0.2-0.3,0.5-0.4,0.6c-1.4,1-3.1,3.9-3.8,5.3c-0.9,1.9-1.7,4.7-1.7,6.8
	C333.2,63.5,333.9,66.2,334.7,68.1z M357.1,69.5c-0.9,1.3-2,2.4-3.3,3.4c-0.7,0.6-2.3,2-3.4,2c-0.3,0-0.8-0.2-0.8-0.6
	c0-0.2,0.3-0.5,0.4-0.6c1.4-1,3.1-3.9,3.8-5.3c0.9-1.9,1.7-4.7,1.7-6.8c0-2.1-0.6-4.7-1.5-6.6c-0.7-1.6-2.5-4.5-4-5.6
	c-0.2-0.2-0.4-0.3-0.4-0.6c0-0.4,0.4-0.6,0.8-0.6c2,0,5.7,4.1,6.8,5.6c0.9,1.3,1.6,2.7,2,4.2c0.3,1,0.6,2.7,0.6,3.7
	C359.8,64.2,358.8,67.2,357.1,69.5z"/>
<path id="XMLID_768_" class="st1" d="M344.6,19.8c-22.9,0-41.6,18.7-41.6,41.6c0,10,3.6,19.6,10.1,27.2c0.1,0.8-0.6,3.2-1.1,5
	c-0.7,2.5-1.7,5.7-2.2,9.4c-0.1,1,0.2,2,0.8,2.8c0.7,0.8,1.6,1.2,2.7,1.2c0,0,0,0,0,0c1.7,0,3.6-1,8.5-3.6c2.2-1.2,5.7-3.1,7-3.5
	c5,2,10.3,3.1,15.7,3.1c22.9,0,41.6-18.7,41.6-41.6C386.2,38.5,367.5,19.8,344.6,19.8z M344.6,96.7c-4.8,0-9.4-0.9-13.8-2.8
	c-2.3-1-5,0.2-11.9,4c-0.5,0.3-1.1,0.6-1.7,0.9c0.3-1.2,0.6-2.3,0.9-3.4c1.2-4.3,2.3-8-0.1-10.8c-5.6-6.4-8.6-14.6-8.6-23.1
	c0-19.4,15.8-35.3,35.3-35.3c19.4,0,35.3,15.8,35.3,35.3C379.8,80.9,364,96.7,344.6,96.7z"/>
<path id="XMLID_769_" class="st1" d="M338.7,49.4c0.2-0.1,0.4-0.4,0.4-0.6c0-0.4-0.4-0.6-0.8-0.6c-1.1,0-2.7,1.3-3.4,2
	c-1.3,1-2.3,2.1-3.3,3.4c-1.6,2.3-2.7,5.2-2.7,7.9c0,1,0.3,2.7,0.6,3.7c0.4,1.5,1.1,2.9,2,4.2c1.1,1.5,4.8,5.6,6.8,5.6
	c0.3,0,0.8-0.2,0.8-0.6c0-0.3-0.3-0.5-0.4-0.6c-1.5-1.1-3.3-4.1-4-5.6c-0.9-1.9-1.5-4.5-1.5-6.6c0-2.1,0.7-4.9,1.7-6.8
	C335.6,53.3,337.3,50.4,338.7,49.4z"/>
<path id="XMLID_770_" class="st1" d="M357.2,53.7c-1.1-1.5-4.8-5.6-6.8-5.6c-0.3,0-0.8,0.2-0.8,0.6c0,0.3,0.3,0.5,0.4,0.6
	c1.5,1.1,3.3,4.1,4,5.6c0.9,1.9,1.5,4.5,1.5,6.6c0,2.1-0.7,4.9-1.7,6.8c-0.7,1.4-2.4,4.2-3.8,5.3c-0.2,0.1-0.4,0.4-0.4,0.6
	c0,0.4,0.4,0.6,0.8,0.6c1.1,0,2.7-1.3,3.4-2c1.3-1,2.4-2.1,3.3-3.4c1.6-2.3,2.7-5.2,2.7-7.9c0-1-0.3-2.7-0.6-3.7
	C358.8,56.4,358.2,55,357.2,53.7z"/>
</svg>
