<?xml version="1.0" encoding="utf-8"?>
<!-- Generator: Adobe Illustrator 19.0.0, SVG Export Plug-In . SVG Version: 6.00 Build 0)  -->
<svg version="1.1" id="Capa_1" xmlns="http://www.w3.org/2000/svg" xmlns:xlink="http://www.w3.org/1999/xlink" x="0px" y="0px"
	 viewBox="0 0 30 40" style="enable-background:new 0 0 30 40;" xml:space="preserve">
<style type="text/css">
	.st0{opacity:0;fill:#FFFFFF;}
	.st1{opacity:3.846154e-02;fill:#F9F9F9;}
	.st2{opacity:7.692308e-02;fill:#F4F4F4;}
	.st3{opacity:0.1154;fill:#EEEEEE;}
	.st4{opacity:0.1538;fill:#E8E9E9;}
	.st5{opacity:0.1923;fill:#E3E3E3;}
	.st6{opacity:0.2308;fill:#DDDDDE;}
	.st7{opacity:0.2692;fill:#D7D8D8;}
	.st8{opacity:0.3077;fill:#D1D2D3;}
	.st9{opacity:0.3462;fill:#CCCCCD;}
	.st10{opacity:0.3846;fill:#C6C7C8;}
	.st11{opacity:0.4231;fill:#C0C1C2;}
	.st12{opacity:0.4615;fill:#BBBCBD;}
	.st13{opacity:0.5;fill:#B5B6B8;}
	.st14{opacity:0.5385;fill:#AFB0B2;}
	.st15{opacity:0.5769;fill:#AAABAD;}
	.st16{opacity:0.6154;fill:#A4A5A7;}
	.st17{opacity:0.6538;fill:#9EA0A2;}
	.st18{opacity:0.6923;fill:#999A9C;}
	.st19{opacity:0.7308;fill:#939497;}
	.st20{opacity:0.7692;fill:#8D8F91;}
	.st21{opacity:0.8077;fill:#87898C;}
	.st22{opacity:0.8462;fill:#828386;}
	.st23{opacity:0.8846;fill:#7C7E81;}
	.st24{opacity:0.9231;fill:#76787B;}
	.st25{opacity:0.9615;fill:#717376;}
	.st26{fill:#6B6D70;}
	.st27{fill:#BFC0C1;}
	.st28{fill:url(#XMLID_187_);}
	.st29{fill:url(#XMLID_189_);}
	.st30{opacity:0;fill:#E8E8E8;}
	.st31{opacity:9.090909e-02;fill:#E6D8D8;}
	.st32{opacity:0.1818;fill:#E4C9C8;}
	.st33{opacity:0.2727;fill:#E2B9B9;}
	.st34{opacity:0.3636;fill:#E0A9A9;}
	.st35{opacity:0.4545;fill:#DE9A99;}
	.st36{opacity:0.5455;fill:#DD8A89;}
	.st37{opacity:0.6364;fill:#DB7B79;}
	.st38{opacity:0.7273;fill:#D96B69;}
	.st39{opacity:0.8182;fill:#D75B5A;}
	.st40{opacity:0.9091;fill:#D54C4A;}
	.st41{fill:#D33C3A;}
	.st42{opacity:0.51;fill:url(#XMLID_190_);}
	.st43{fill:url(#XMLID_191_);}
	.st44{fill:url(#XMLID_192_);}
	.st45{fill:url(#XMLID_193_);}
	.st46{fill:url(#XMLID_194_);}
	.st47{fill:url(#XMLID_195_);}
	.st48{opacity:0.7;}
	.st49{opacity:0;fill:#C7C7C7;}
	.st50{opacity:9.090909e-02;fill:#CCCCCC;}
	.st51{opacity:0.1818;fill:#D1D1D1;}
	.st52{opacity:0.2727;fill:#D6D6D6;}
	.st53{opacity:0.3636;fill:#DBDBDB;}
	.st54{opacity:0.4545;fill:#E0E0E0;}
	.st55{opacity:0.5455;fill:#E6E6E6;}
	.st56{opacity:0.6364;fill:#EBEBEB;}
	.st57{opacity:0.7273;fill:#F0F0F0;}
	.st58{opacity:0.8182;fill:#F5F5F5;}
	.st59{opacity:0.9091;fill:#FAFAFA;}
	.st60{fill:#FFFFFF;}
	.st61{opacity:0.62;}
</style>
<g id="XMLID_139_">
	<path id="XMLID_110_" class="st0" d="M23.4,34.1c-2.7,5.3-8.2,5.7-13.9,2.7c-5.8-3-8.8-11.5-6-16.8c2.7-5.3,7.5-3,13.3-0.1
		C22.5,23,26.1,28.8,23.4,34.1z"/>
	<path id="XMLID_135_" class="st1" d="M23.3,33.9c-2.7,5.2-8.1,5.5-13.8,2.6c-5.7-2.9-8.7-11.2-6-16.4c2.6-5.2,7.4-2.9,13.1,0
		C22.3,23,26,28.7,23.3,33.9z"/>
	<path id="XMLID_134_" class="st2" d="M23.2,33.7c-2.6,5.1-8,5.4-13.6,2.5c-5.6-2.8-8.6-11-6-16.1c2.6-5.1,7.3-2.7,12.9,0.1
		C22.1,23.1,25.8,28.6,23.2,33.7z"/>
	<path id="XMLID_133_" class="st3" d="M23.1,33.5c-2.5,5-8,5.2-13.4,2.4c-5.5-2.8-8.5-10.8-6-15.7c2.5-5,7.3-2.6,12.7,0.2
		C21.9,23.2,25.7,28.5,23.1,33.5z"/>
	<path id="XMLID_132_" class="st4" d="M23.1,33.3c-2.5,4.8-7.9,5.1-13.2,2.3c-5.4-2.7-8.4-10.5-5.9-15.3c2.5-4.8,7.2-2.5,12.5,0.3
		C21.8,23.2,25.5,28.4,23.1,33.3z"/>
	<path id="XMLID_131_" class="st5" d="M23,33.1c-2.4,4.7-7.8,4.9-13.1,2.2C4.6,32.6,1.6,25,4,20.3c2.4-4.7,7.1-2.4,12.3,0.3
		C21.6,23.3,25.4,28.4,23,33.1z"/>
	<path id="XMLID_130_" class="st6" d="M22.9,32.9c-2.3,4.6-7.7,4.7-12.9,2.1c-5.2-2.6-8.3-10.1-5.9-14.6c2.4-4.6,7-2.2,12.1,0.4
		C21.4,23.4,25.3,28.3,22.9,32.9z"/>
	<path id="XMLID_129_" class="st7" d="M22.8,32.7c-2.3,4.5-7.7,4.6-12.7,2C5,32,1.9,24.8,4.2,20.3c2.3-4.5,6.9-2.1,11.9,0.5
		C21.2,23.4,25.1,28.2,22.8,32.7z"/>
	<path id="XMLID_128_" class="st8" d="M22.7,32.4c-2.2,4.4-7.6,4.4-12.5,1.9c-5-2.5-8.1-9.6-5.9-13.9c2.2-4.4,6.8-2,11.7,0.6
		C21,23.5,25,28.1,22.7,32.4z"/>
	<path id="XMLID_127_" class="st9" d="M22.7,32.2c-2.2,4.2-7.5,4.3-12.4,1.8c-4.9-2.5-8-9.4-5.8-13.6c2.2-4.2,6.7-1.8,11.5,0.7
		C20.9,23.6,24.8,28,22.7,32.2z"/>
	<path id="XMLID_126_" class="st10" d="M22.6,32c-2.1,4.1-7.4,4.1-12.2,1.6c-4.8-2.4-7.9-9.1-5.8-13.2c2.1-4.1,6.6-1.7,11.3,0.7
		C20.7,23.6,24.7,27.9,22.6,32z"/>
	<path id="XMLID_125_" class="st11" d="M22.5,31.8c-2,4-7.4,3.9-12,1.5C5.8,31,2.6,24.5,4.7,20.5c2-4,6.5-1.6,11.1,0.8
		C20.5,23.7,24.5,27.8,22.5,31.8z"/>
	<path id="XMLID_124_" class="st12" d="M22.4,31.6c-2,3.9-7.3,3.8-11.9,1.4C6,30.7,2.8,24.4,4.8,20.5c2-3.9,6.4-1.5,11,0.9
		C20.3,23.7,24.4,27.7,22.4,31.6z"/>
	<path id="XMLID_123_" class="st13" d="M22.3,31.4c-1.9,3.8-7.2,3.6-11.7,1.3C6.2,30.4,3,24.3,4.9,20.5c1.9-3.8,6.3-1.3,10.8,1
		C20.1,23.8,24.3,27.6,22.3,31.4z"/>
	<path id="XMLID_122_" class="st14" d="M22.2,31.2c-1.9,3.6-7.1,3.5-11.5,1.2C6.4,30.2,3.2,24.2,5,20.6c1.9-3.6,6.2-1.2,10.6,1
		C20,23.9,24.1,27.6,22.2,31.2z"/>
	<path id="XMLID_121_" class="st15" d="M22.2,31c-1.8,3.5-7.1,3.3-11.3,1.1c-4.3-2.2-7.5-8-5.7-11.5c1.8-3.5,6.1-1.1,10.4,1.1
		C19.8,23.9,24,27.5,22.2,31z"/>
	<path id="XMLID_120_" class="st16" d="M22.1,30.8c-1.7,3.4-7,3.2-11.2,1c-4.2-2.1-7.4-7.7-5.7-11.1c1.7-3.4,6-0.9,10.2,1.2
		C19.6,24,23.8,27.4,22.1,30.8z"/>
	<path id="XMLID_119_" class="st17" d="M22,30.6c-1.7,3.3-6.9,3-11,0.9C6.9,29.4,3.7,24,5.4,20.7c1.7-3.3,5.9-0.8,10,1.3
		C19.4,24.1,23.7,27.3,22,30.6z"/>
	<path id="XMLID_118_" class="st18" d="M21.9,30.4c-1.6,3.2-6.8,2.8-10.8,0.8c-4-2-7.2-7.3-5.6-10.4c1.6-3.2,5.8-0.7,9.8,1.4
		C19.2,24.1,23.5,27.2,21.9,30.4z"/>
	<path id="XMLID_117_" class="st19" d="M21.8,30.1c-1.6,3-6.8,2.7-10.6,0.7c-3.9-2-7.2-7-5.6-10.1c1.6-3,5.7-0.6,9.6,1.4
		C19.1,24.2,23.4,27.1,21.8,30.1z"/>
	<path id="XMLID_116_" class="st20" d="M21.7,29.9c-1.5,2.9-6.7,2.5-10.5,0.6c-3.8-1.9-7.1-6.8-5.6-9.7c1.5-2.9,5.6-0.4,9.4,1.5
		C18.9,24.3,23.2,27,21.7,29.9z"/>
	<path id="XMLID_115_" class="st21" d="M21.7,29.7c-1.4,2.8-6.6,2.4-10.3,0.5c-3.7-1.9-7-6.6-5.6-9.4c1.4-2.8,5.5-0.3,9.2,1.6
		C18.7,24.3,23.1,26.9,21.7,29.7z"/>
	<path id="XMLID_114_" class="st22" d="M21.6,29.5c-1.4,2.7-6.5,2.2-10.1,0.4c-3.6-1.8-6.9-6.3-5.5-9c1.4-2.7,5.4-0.2,9,1.7
		C18.5,24.4,23,26.8,21.6,29.5z"/>
	<path id="XMLID_113_" class="st23" d="M21.5,29.3c-1.3,2.6-6.4,2-9.9,0.3c-3.5-1.8-6.8-6.1-5.5-8.7c1.3-2.6,5.3,0,8.8,1.8
		C18.3,24.5,22.8,26.8,21.5,29.3z"/>
	<path id="XMLID_112_" class="st24" d="M21.4,29.1c-1.2,2.4-6.4,1.9-9.8,0.1c-3.4-1.7-6.7-5.9-5.5-8.3c1.3-2.4,5.2,0.1,8.6,1.8
		C18.2,24.5,22.7,26.7,21.4,29.1z"/>
	<path id="XMLID_111_" class="st25" d="M21.3,28.9c-1.2,2.3-6.3,1.7-9.6,0c-3.3-1.7-6.7-5.6-5.5-7.9c1.2-2.3,5.1,0.2,8.4,1.9
		C18,24.6,22.5,26.6,21.3,28.9z"/>
	<path id="XMLID_104_" class="st26" d="M21.3,28.7c-1.1,2.2-6.2,1.6-9.4-0.1C8.6,27,5.2,23.2,6.4,21c1.1-2.2,5,0.4,8.2,2
		C17.8,24.6,22.4,26.5,21.3,28.7z"/>
</g>
<g id="XMLID_202_">
	<path id="XMLID_106_" class="st27" d="M13.8,32.5c-0.1,0.2-0.7,0.2-1.3,0c-0.6-0.2-1-0.6-1-0.9c0.1-0.2,0.7-0.2,1.3,0
		C13.5,31.9,13.9,32.3,13.8,32.5z"/>
	<g id="XMLID_203_">
		
			<linearGradient id="XMLID_187_" gradientUnits="userSpaceOnUse" x1="875.8085" y1="667.7383" x2="877.6507" y2="667.7383" gradientTransform="matrix(1.312 0.4116 -0.2993 0.9542 -937.2463 -968.5256)">
			<stop  offset="0" style="stop-color:#C7C7C7"/>
			<stop  offset="2.747250e-02" style="stop-color:#ABABAB"/>
			<stop  offset="0.2143" style="stop-color:#929593"/>
			<stop  offset="0.3571" style="stop-color:#EDEDED"/>
			<stop  offset="0.4231" style="stop-color:#EDEDED"/>
			<stop  offset="0.6044" style="stop-color:#949AA1"/>
			<stop  offset="0.6209" style="stop-color:#8A8E97"/>
			<stop  offset="0.6777" style="stop-color:#6A6978"/>
			<stop  offset="0.7237" style="stop-color:#565265"/>
			<stop  offset="0.7527" style="stop-color:#4F4A5E"/>
			<stop  offset="0.8571" style="stop-color:#8799A6"/>
			<stop  offset="0.9341" style="stop-color:#A8A8A8"/>
			<stop  offset="0.9719" style="stop-color:#A6A6A6"/>
			<stop  offset="0.9901" style="stop-color:#9E9E9E"/>
			<stop  offset="1" style="stop-color:#969696"/>
		</linearGradient>
		<path id="XMLID_105_" class="st28" d="M15.3,27.3c0-0.1-0.4-0.3-0.9-0.5c-0.5-0.2-1-0.2-1-0.1l0,0l-1.6,5.1
			c0.2,0.3,0.7,0.5,1.1,0.6c0.3,0.1,0.6,0.1,0.8,0.1L15.3,27.3L15.3,27.3z"/>
	</g>
</g>
<radialGradient id="XMLID_189_" cx="12.1954" cy="127.8026" r="20.5711" gradientTransform="matrix(0.9575 0.2884 -0.2884 0.9575 41.5154 -108.4171)" gradientUnits="userSpaceOnUse">
	<stop  offset="0.1813" style="stop-color:#B1000A"/>
	<stop  offset="0.4817" style="stop-color:#D51103"/>
	<stop  offset="0.6758" style="stop-color:#E81900"/>
	<stop  offset="0.6795" style="stop-color:#E81A01"/>
	<stop  offset="0.8251" style="stop-color:#EC4A2B"/>
	<stop  offset="0.9366" style="stop-color:#EF6745"/>
	<stop  offset="1" style="stop-color:#F0724F"/>
</radialGradient>
<path id="XMLID_102_" class="st29" d="M5.4,20.7c0,0-0.1,3.1,2.4,5.5c2.4,2.3,5.2,3.2,5.9,3.4c0.7,0.2,3.5,1.1,6.8,0.4
	c3.7-0.7,5-3.2,5-3.2c0.5-1.7,1.4-4.8,0-7.4c-1.8-3.4-4-5.1-6.9-5.9c-0.1,0-0.1,0-0.2,0c0,0-0.1,0-0.1,0c-2.9-0.9-5.6-0.7-9,1.1
	C6.9,15.9,5.9,19,5.4,20.7"/>
<g id="XMLID_184_">
	<path id="XMLID_30_" class="st30" d="M24.6,21c-0.8,2.7-4.9,3.8-9.1,2.5c-4.2-1.3-7-4.5-6.2-7.1c0.8-2.7,4.9-3.8,9.1-2.5
		C22.7,15.1,25.5,18.3,24.6,21z"/>
	<path id="XMLID_88_" class="st31" d="M15.5,23.3c-4.1-1.2-6.8-4.4-6.1-7c0.8-2.6,4.8-3.7,8.9-2.4c4.1,1.3,6.9,4.4,6.1,7
		C23.7,23.5,19.7,24.6,15.5,23.3z"/>
	<path id="XMLID_87_" class="st32" d="M15.6,23.2c-4-1.2-6.6-4.3-5.9-6.8c0.8-2.5,4.7-3.6,8.7-2.3c4,1.2,6.7,4.2,5.9,6.8
		C23.6,23.3,19.6,24.4,15.6,23.2z"/>
	<path id="XMLID_86_" class="st33" d="M15.6,23c-3.9-1.2-6.5-4.2-5.7-6.6c0.7-2.4,4.5-3.4,8.5-2.2c3.9,1.2,6.6,4.1,5.8,6.5
		C23.5,23.1,19.6,24.2,15.6,23z"/>
	<path id="XMLID_85_" class="st34" d="M15.7,22.9c-3.8-1.2-6.3-4.1-5.6-6.4c0.7-2.3,4.4-3.3,8.2-2.1c3.9,1.2,6.4,4,5.7,6.3
		C23.4,23,19.5,24,15.7,22.9z"/>
	<path id="XMLID_84_" class="st35" d="M15.7,22.7c-3.7-1.1-6.1-4-5.4-6.3c0.7-2.3,4.3-3.2,8-2.1c3.8,1.1,6.2,3.9,5.6,6.1
		C23.2,22.8,19.5,23.8,15.7,22.7z"/>
	<path id="XMLID_46_" class="st36" d="M15.8,22.5c-3.7-1.1-5.9-3.9-5.2-6.1c0.7-2.2,4.2-3.1,7.8-2c3.7,1.1,6.1,3.8,5.4,5.9
		C23.1,22.6,19.4,23.6,15.8,22.5z"/>
	<path id="XMLID_45_" class="st37" d="M15.8,22.4c-3.6-1.1-5.7-3.8-5.1-5.9c0.6-2.1,4-2.9,7.6-1.9c3.6,1.1,5.9,3.6,5.3,5.7
		C23,22.4,19.4,23.4,15.8,22.4z"/>
	<path id="XMLID_39_" class="st38" d="M15.9,22.2c-3.5-1-5.5-3.7-4.9-5.7c0.6-2,3.9-2.8,7.4-1.8c3.5,1,5.8,3.5,5.2,5.5
		C22.9,22.2,19.3,23.2,15.9,22.2z"/>
	<path id="XMLID_37_" class="st39" d="M15.9,22c-3.4-1-5.3-3.6-4.7-5.6c0.6-1.9,3.8-2.7,7.1-1.7c3.4,1,5.6,3.4,5,5.3
		C22.8,22.1,19.3,23,15.9,22z"/>
	<path id="XMLID_31_" class="st40" d="M16,21.9c-3.3-1-5.1-3.5-4.6-5.4c0.6-1.8,3.7-2.6,6.9-1.6c3.3,1,5.5,3.3,4.9,5.1
		C22.7,21.9,19.2,22.8,16,21.9z"/>
	<path id="XMLID_29_" class="st41" d="M23.1,19.9c-0.5,1.8-3.9,2.7-7.1,1.8c-3.2-1-4.9-3.4-4.4-5.2c0.5-1.8,3.5-2.4,6.7-1.5
		C21.5,16,23.6,18.2,23.1,19.9z"/>
</g>
<radialGradient id="XMLID_190_" cx="14.4694" cy="83.9181" r="13.1704" gradientTransform="matrix(0.9717 0.2363 -0.2363 0.9717 19.9829 -61.0731)" gradientUnits="userSpaceOnUse">
	<stop  offset="0" style="stop-color:#E8E8E8"/>
	<stop  offset="0.2341" style="stop-color:#9B9B9B"/>
	<stop  offset="0.4564" style="stop-color:#585858"/>
	<stop  offset="0.6416" style="stop-color:#282828"/>
	<stop  offset="0.7825" style="stop-color:#0B0B0B"/>
	<stop  offset="0.8626" style="stop-color:#000000"/>
	<stop  offset="1" style="stop-color:#000000"/>
</radialGradient>
<path id="XMLID_182_" class="st42" d="M25,19.2c0.2,0.7,0.2,1.5,0,2.2c-0.9,3-5.3,4.4-9.7,3.1c-4.5-1.3-7.4-4.9-6.4-7.9
	c0.2-0.7,0.6-1.3,1.2-1.8c-1.1,0.6-1.9,1.6-2.3,2.7c-1,3.3,2.2,7.1,7.1,8.6c4.9,1.5,9.7,0,10.6-3.3C25.7,21.5,25.5,20.3,25,19.2z"/>
<g id="XMLID_178_">
	
		<linearGradient id="XMLID_191_" gradientUnits="userSpaceOnUse" x1="7.351" y1="135.3863" x2="17.854" y2="135.3863" gradientTransform="matrix(0.9575 0.2884 -0.2573 0.8544 40.8938 -104.9781)">
		<stop  offset="2.747250e-02" style="stop-color:#F33211"/>
		<stop  offset="0.1167" style="stop-color:#E0240D"/>
		<stop  offset="0.2712" style="stop-color:#C51007"/>
		<stop  offset="0.4077" style="stop-color:#B40403"/>
		<stop  offset="0.511" style="stop-color:#AE0002"/>
		<stop  offset="0.8166" style="stop-color:#D51601"/>
		<stop  offset="1" style="stop-color:#E82000"/>
	</linearGradient>
	<path id="XMLID_98_" class="st43" d="M15.8,7.3l-3.8,9.4c0,0,0,0.1,0,0.3c0.1,0.7,0.7,3,4.3,4.2c3.3,1.1,5.7-0.8,5.8-1.6
		c0.2-1,2.3-10.9,2.3-10.9L15.8,7.3z"/>
	
		<linearGradient id="XMLID_192_" gradientUnits="userSpaceOnUse" x1="619.072" y1="-574.5325" x2="621.767" y2="-567.8621" gradientTransform="matrix(0.6416 -0.6495 0.7561 0.6256 49.1379 774.0796)">
		<stop  offset="0.1099" style="stop-color:#E8E8E8"/>
		<stop  offset="0.3639" style="stop-color:#454545"/>
		<stop  offset="0.478" style="stop-color:#000000"/>
	</linearGradient>
	<path id="XMLID_97_" class="st44" d="M15.9,7.5c-1.1,2.4-3.9,9.1-4,9.5c0.1,0.3,0.4,2.4,3.3,3.7l4-12.7L15.9,7.5z"/>
	
		<linearGradient id="XMLID_193_" gradientUnits="userSpaceOnUse" x1="1386.22" y1="1047.2159" x2="1388.8497" y2="1053.7246" gradientTransform="matrix(-0.1814 -0.8951 -0.9747 0.1088 1296.4397 1142.8771)">
		<stop  offset="0" style="stop-color:#E8E8E8"/>
		<stop  offset="0.2881" style="stop-color:#454545"/>
		<stop  offset="0.4176" style="stop-color:#000000"/>
	</linearGradient>
	<path id="XMLID_96_" class="st45" d="M21.9,20c0.1-0.5,0.4-2.4,0.9-4.7c0.3-1.5,1.3-5.3,1.5-6.4l-3.2-0.5l-4,13.1
		C19.7,22,21.8,20.3,21.9,20z"/>
</g>
<image style="overflow:visible;" width="17" height="12" id="XMLID_95_" xlink:href="1F454B9D5CAADF8C.png"  transform="matrix(1 0 0 1 11.9078 0)">
</image>
<radialGradient id="XMLID_194_" cx="440.5453" cy="257.5622" r="0.9347" gradientTransform="matrix(2.1577 2.238 -1.0044 0.9684 -681.4836 -1213.3923)" gradientUnits="userSpaceOnUse">
	<stop  offset="0" style="stop-color:#E8E8E8"/>
	<stop  offset="0.1744" style="stop-color:#9B9B9B"/>
	<stop  offset="0.3401" style="stop-color:#585858"/>
	<stop  offset="0.4781" style="stop-color:#282828"/>
	<stop  offset="0.5832" style="stop-color:#0B0B0B"/>
	<stop  offset="0.6429" style="stop-color:#000000"/>
	<stop  offset="1" style="stop-color:#000000"/>
</radialGradient>
<path id="XMLID_94_" class="st46" d="M12.9,24.6c-0.4,0.3-1.8-0.5-3.1-2c-1.4-1.4-2.2-2.9-1.8-3.2c0.4-0.4,1.8,0.5,3.1,1.9
	C12.4,22.8,13.2,24.2,12.9,24.6z"/>
<radialGradient id="XMLID_195_" cx="833.4348" cy="-178.7946" r="0.9347" gradientTransform="matrix(-2.2096 0.509 0.2001 0.9841 1898.7247 -223.3585)" gradientUnits="userSpaceOnUse">
	<stop  offset="0" style="stop-color:#E8E8E8"/>
	<stop  offset="0.1655" style="stop-color:#9B9B9B"/>
	<stop  offset="0.3227" style="stop-color:#585858"/>
	<stop  offset="0.4536" style="stop-color:#282828"/>
	<stop  offset="0.5533" style="stop-color:#0B0B0B"/>
	<stop  offset="0.6099" style="stop-color:#000000"/>
	<stop  offset="1" style="stop-color:#000000"/>
</radialGradient>
<path id="XMLID_93_" class="st47" d="M18.8,25.5c0.1,0.4,1.3,0.4,2.7,0c1.4-0.3,2.5-0.9,2.4-1.2c-0.1-0.4-1.3-0.4-2.7-0.1
	C19.8,24.6,18.8,25.1,18.8,25.5z"/>
<g id="XMLID_158_" class="st48">
	<path id="XMLID_16_" class="st49" d="M15.9,8.9c0.6-0.5-0.6-1.3-1.6-2.6c-0.4-0.5-1.2,0.2-0.4,1.2C15,8.9,15.9,8.9,15.9,8.9z"/>
	<path id="XMLID_28_" class="st50" d="M14.3,6.4C14,5.9,13.3,6.6,14,7.5c1,1.3,1.9,1.3,1.9,1.3C16.4,8.4,15.2,7.6,14.3,6.4z"/>
	<path id="XMLID_27_" class="st51" d="M14.3,6.4C14,6,13.4,6.7,14,7.5c1,1.3,1.8,1.3,1.8,1.3C16.3,8.4,15.2,7.6,14.3,6.4z"/>
	<path id="XMLID_26_" class="st52" d="M14.3,6.5c-0.3-0.4-0.9,0.2-0.2,1.1c0.9,1.2,1.7,1.2,1.7,1.2C16.2,8.4,15.1,7.6,14.3,6.5z"/>
	<path id="XMLID_25_" class="st53" d="M14.3,6.5c-0.3-0.4-0.8,0.2-0.2,1c0.9,1.1,1.6,1.1,1.6,1.1C16.1,8.3,15,7.6,14.3,6.5z"/>
	<path id="XMLID_24_" class="st54" d="M14.3,6.6c-0.2-0.4-0.7,0.2-0.1,1c0.8,1.1,1.5,1.1,1.5,1.1C16,8.3,15,7.6,14.3,6.6z"/>
	<path id="XMLID_23_" class="st55" d="M14.3,6.6c-0.2-0.4-0.6,0.2-0.1,0.9c0.8,1,1.3,1,1.3,1C15.9,8.3,14.9,7.6,14.3,6.6z"/>
	<path id="XMLID_22_" class="st56" d="M14.3,6.7c-0.2-0.3-0.5,0.2,0,0.9c0.8,0.9,1.2,0.9,1.2,0.9C15.8,8.3,14.8,7.7,14.3,6.7z"/>
	<path id="XMLID_21_" class="st57" d="M14.3,6.7c-0.2-0.3-0.4,0.2,0.1,0.8c0.7,0.9,1.1,0.9,1.1,0.9C15.7,8.2,14.8,7.7,14.3,6.7z"/>
	<path id="XMLID_20_" class="st58" d="M14.3,6.8c-0.1-0.3-0.3,0.2,0.1,0.8c0.7,0.8,1,0.8,1,0.8C15.6,8.2,14.7,7.7,14.3,6.8z"/>
	<path id="XMLID_17_" class="st59" d="M14.3,6.8C14.1,6.6,14,7,14.4,7.6c0.6,0.8,0.9,0.7,0.9,0.7C15.5,8.2,14.6,7.7,14.3,6.8z"/>
	<path id="XMLID_15_" class="st60" d="M15.3,8.3c0.1-0.1-0.7-0.6-1.1-1.4c-0.1-0.2-0.2,0.2,0.2,0.7C15.1,8.3,15.3,8.3,15.3,8.3z"/>
</g>
<g id="XMLID_140_" class="st61">
	<path id="XMLID_2_" class="st49" d="M25.2,10.3c-0.6-0.6,0.9-0.6,2-3.1c0.3-0.6,1.1,0.5,0,2C26.2,10.5,25.2,10.3,25.2,10.3z"/>
	<path id="XMLID_14_" class="st50" d="M27.2,7.4c0.3-0.6,1,0.5,0,1.8c-0.9,1.2-1.9,1.1-1.9,1.1C24.7,9.7,26.1,9.6,27.2,7.4z"/>
	<path id="XMLID_13_" class="st51" d="M27.1,7.5c0.2-0.5,0.9,0.4,0,1.7c-0.9,1.2-1.8,1-1.8,1C24.8,9.7,26.2,9.6,27.1,7.5z"/>
	<path id="XMLID_11_" class="st52" d="M27.1,7.6C27.4,7,28,8,27.1,9.1c-0.8,1.1-1.7,1-1.7,1C24.9,9.7,26.2,9.5,27.1,7.6z"/>
	<path id="XMLID_9_" class="st53" d="M27.1,7.7C27.3,7.2,27.9,8,27,9.1c-0.8,1-1.5,0.9-1.5,0.9C25.1,9.6,26.3,9.5,27.1,7.7z"/>
	<path id="XMLID_8_" class="st54" d="M27.1,7.8c0.2-0.4,0.7,0.4-0.1,1.3c-0.8,1-1.4,0.9-1.4,0.9C25.2,9.6,26.4,9.4,27.1,7.8z"/>
	<path id="XMLID_7_" class="st55" d="M27.1,7.8c0.2-0.4,0.6,0.3-0.1,1.2c-0.7,0.9-1.3,0.9-1.3,0.9C25.3,9.6,26.4,9.3,27.1,7.8z"/>
	<path id="XMLID_6_" class="st56" d="M27.1,7.9c0.2-0.4,0.5,0.3-0.2,1.1c-0.7,0.8-1.2,0.8-1.2,0.8C25.4,9.6,26.5,9.3,27.1,7.9z"/>
	<path id="XMLID_5_" class="st57" d="M27.1,8c0.2-0.3,0.4,0.3-0.2,1c-0.7,0.8-1.1,0.8-1.1,0.8C25.6,9.6,26.5,9.2,27.1,8z"/>
	<path id="XMLID_4_" class="st58" d="M27.1,8.1c0.1-0.3,0.3,0.3-0.2,0.9c-0.7,0.7-1,0.8-1,0.8C25.7,9.5,26.6,9.1,27.1,8.1z"/>
	<path id="XMLID_3_" class="st59" d="M27.1,8.2C27.2,8,27.3,8.5,26.8,9c-0.6,0.6-0.9,0.7-0.9,0.7C25.8,9.5,26.6,9.1,27.1,8.2z"/>
	<path id="XMLID_1_" class="st60" d="M26,9.6c-0.1-0.1,0.7-0.6,1-1.3c0.1-0.2,0.1,0.2-0.3,0.6C26.2,9.5,26,9.6,26,9.6z"/>
</g>
</svg>
