<?xml version="1.0" encoding="utf-8"?>
<!-- Generator: Adobe Illustrator 19.0.0, SVG Export Plug-In . SVG Version: 6.00 Build 0)  -->
<svg version="1.1" id="Capa_1" xmlns="http://www.w3.org/2000/svg" xmlns:xlink="http://www.w3.org/1999/xlink" x="0px" y="0px"
	 viewBox="88 -87 475 475" style="enable-background:new 88 -87 475 475;" xml:space="preserve">
<style type="text/css">
	.st0{fill:#FFFFFF;}
</style>
<g>
	<path class="st0" d="M458.8,102.7h-0.7c-8.7-0.1-17,3.1-23.5,8.9c-5.2-14.5-18.5-24.8-34.1-24.8c-9.5,0.1-18.7,4-25.2,10.9
		C369.2,85.3,357,77,343.1,77h-0.7c-7.5-0.1-14.8,2.3-20.7,6.9V-3.6c0-21.1-16.5-38.4-36.5-38.4c-20,0-36.5,17.2-36.5,38.4
		l-0.2,173.8l-9.8-11.9c-8.7-10.8-21.3-17.4-35-18.4c-13.4-1-26.7,3.7-36.5,12.9l-8.6,7c-2.8,2.3-3.5,6.2-1.9,9.3l83.2,159.9
		c15.2,29.2,44.2,47.5,75.6,47.5h93.8v-0.1c47.5,0,86-41.2,86.1-91.8c0-22.7-0.1-39.6-0.1-53.2c0.1-36.6,0-50.2-0.1-90.5
		C495.2,119.7,478.8,102.7,458.8,102.7z M480,231.3c0,13.7,0,30.6-0.1,53.3c0,42.3-32,76.7-71.1,76.7h-93.3
		c-25.7,0-49.5-15.1-62.1-39.3l-80.3-154.4l4-3.3c0.1-0.1,0.2-0.2,0.3-0.3c6.9-6.4,16-9.7,25.3-9.1c9.5,0.8,18.4,5.4,24.4,12.8
		l23.3,28.4c2,2.5,5.4,3.4,8.5,2.4c3-1,5-3.9,5-7.1V-3.6c0-12.8,9.7-23.1,21.3-23.1c11.6,0,21.3,10.4,21.3,23.1v117.5
		c0,0.4,0,0.9,0,1.2c0,0.2,0,0.4,0,0.6V166c0,4.2,3.4,7.6,7.6,7.6c4.2,0,7.6-3.4,7.6-7.6v-51.8c0-12.3,9.4-22,20.7-22h0.7
		c11.6,0,21.3,10.2,21.3,22.9v46c0,4.2,3.4,7.6,7.6,7.6c4.2,0,7.6-3.4,7.6-7.6V125c0-12.8,9.2-23.1,20.9-23.1
		c11.6,0,20.8,10.4,20.8,23.1v34.1c0,4.2,3.4,7.6,7.6,7.6s7.6-3.4,7.6-7.6v-18.5c0-12.8,9.7-22.7,21.4-22.7h0.7
		c11.6,0,21.1,10.2,21.1,22.9C480,181.2,480,194.6,480,231.3z"/>
	<path class="st0" d="M224.6-0.3c4.2,0,7.6-3.4,7.6-7.6c0.1-29,23.7-52.4,52.7-52.4c29,0,52.5,23.4,52.7,52.4c0,4.2,3.4,7.6,7.6,7.6
		c4.2,0,7.6-3.4,7.6-7.6c-0.1-37.4-30.5-67.7-68-67.7c-37.4,0-67.8,30.3-68,67.7C217-3.7,220.5-0.3,224.6-0.3z"/>
</g>
</svg>
