<?xml version="1.0" encoding="utf-8"?>
<!-- Generator: Adobe Illustrator 18.0.0, SVG Export Plug-In . SVG Version: 6.00 Build 0)  -->
<!DOCTYPE svg PUBLIC "-//W3C//DTD SVG 1.1//EN" "http://www.w3.org/Graphics/SVG/1.1/DTD/svg11.dtd">
<svg version="1.1" xmlns="http://www.w3.org/2000/svg" xmlns:xlink="http://www.w3.org/1999/xlink" x="0px" y="0px"
	 viewBox="0 0 92.3 73" enable-background="new 0 0 92.3 73" xml:space="preserve">
<g id="Capa_1">
</g>
<g id="Capa_2">
	<g>
		<g>
			<path fill="#B9007C" d="M44.9,72.2c-0.4,0-0.7-0.1-1.1-0.2c-0.8-0.4-1.4-1.3-1.4-2.2V55.4H7.7c-1.3,0-2.4-1.1-2.4-2.4V20.1
				c0-1.3,1.1-2.4,2.4-2.4h34.8V3.4c0-0.9,0.5-1.8,1.4-2.2C44.1,1,44.5,1,44.9,1c0.5,0,1.1,0.2,1.5,0.5l43,33.2
				c0.6,0.5,0.9,1.2,0.9,1.9c0,0.8-0.3,1.5-0.9,1.9l-43,33.2C45.9,72,45.4,72.2,44.9,72.2"/>
		</g>
	</g>
</g>
</svg>
