<?xml version="1.0" encoding="utf-8"?>
<!-- Generator: Adobe Illustrator 18.0.0, SVG Export Plug-In . SVG Version: 6.00 Build 0)  -->
<!DOCTYPE svg PUBLIC "-//W3C//DTD SVG 1.1//EN" "http://www.w3.org/Graphics/SVG/1.1/DTD/svg11.dtd">
<svg version="1.1" xmlns="http://www.w3.org/2000/svg" xmlns:xlink="http://www.w3.org/1999/xlink" x="0px" y="0px"
	 viewBox="0 0 574.8 162.4" enable-background="new 0 0 574.8 162.4" xml:space="preserve">
<g id="Capa_1">
</g>
<g id="Capa_2">
	<g>
		<g>
			<path fill="#B9007C" d="M50.3,117.1c-0.4,0-0.7-0.1-1.1-0.2c-0.8-0.4-1.4-1.3-1.4-2.2v-14.3H13.1c-1.3,0-2.4-1.1-2.4-2.4V65.1
				c0-1.3,1.1-2.4,2.4-2.4h34.8V48.3c0-0.9,0.5-1.8,1.4-2.2c0.3-0.2,0.7-0.3,1.1-0.3c0.5,0,1.1,0.2,1.5,0.5l43,33.2
				c0.6,0.5,0.9,1.2,0.9,1.9c0,0.8-0.3,1.5-0.9,1.9l-43,33.2C51.4,116.9,50.9,117.1,50.3,117.1"/>
		</g>
		<path fill="#009ADA" d="M144.7,19.6v-3.4H143v1.1c-0.9-0.9-2.1-1.3-3.3-1.3c-3,0-5.5,2.6-5.5,5.6c0,1.5,0.6,2.9,1.6,4
			c1,1,2.5,1.6,3.9,1.6c2.3,0,4.5-1.5,5.2-3.7h-2.2c-0.7,1-1.8,1.6-3,1.6c-1.9,0-3.5-1.6-3.5-3.5c0-2,1.5-3.5,3.5-3.5
			c1.2,0,2.4,0.6,3,1.6H144.7z M150.5,27.1c2.4,0,4.2-1.9,4.2-4.3c0-2.3-1.9-4.2-4.2-4.2c-2.3,0-4.2,1.9-4.2,4.2
			C146.3,25.2,148.1,27.1,150.5,27.1 M150.5,25.3c-1.4,0-2.4-1.1-2.4-2.5c0-1.3,1.1-2.4,2.4-2.4c1.3,0,2.4,1.1,2.4,2.4
			C152.9,24.2,151.8,25.3,150.5,25.3 M156.8,25.2h-1v1.7h3.9v-1.7h-1v-2.3c0-0.5,0-1.2,0.3-1.7c0.3-0.5,0.9-0.7,1.5-0.7
			c0.5,0,1.1,0.2,1.4,0.6c0.3,0.4,0.3,0.9,0.3,1.4v2.6h-1v1.7h3.9v-1.7h-1v-3.1c0-0.9,0-1.6-0.7-2.4c-0.6-0.6-1.4-1-2.3-1
			c-1,0-1.9,0.4-2.4,1.3v-1.1h-2.9v1.7h1V25.2z M174.4,16.2h-2.9v1.7h1v7.3h-1.1v1.7h4v-1.7h-1V16.2z M183.3,26.9h2.9v-1.7h-1v-4.6
			h1v-1.7h-2.9V20c-0.6-0.9-1.5-1.4-2.5-1.4c-2.3,0-4.2,1.9-4.2,4.3c0,2.3,1.8,4.2,4.1,4.2c1,0,2-0.4,2.6-1.3V26.9z M180.9,25.3
			c-1.3,0-2.4-1.1-2.4-2.4c0-1.4,1-2.5,2.4-2.5c1.3,0,2.4,1.1,2.4,2.4C183.3,24.2,182.2,25.3,180.9,25.3 M195.5,18.9h-2.9v1.7h1v4.6
			h-1v1.7h3.9v-1.7h-1V18.9z M195.5,16.2h-1.8v1.9h1.8V16.2z M198.9,25.2h-1v1.7h3.9v-1.7h-1v-2.3c0-0.5,0-1.2,0.3-1.7
			c0.3-0.5,0.9-0.7,1.5-0.7c0.5,0,1.1,0.2,1.4,0.6c0.3,0.4,0.3,0.9,0.3,1.4v2.6h-1v1.7h3.9v-1.7h-1v-3.1c0-0.9,0-1.6-0.7-2.4
			c-0.6-0.6-1.4-1-2.3-1c-1,0-1.9,0.4-2.4,1.3v-1.1h-2.9v1.7h1V25.2z M211.2,20.6h1.4v-1.7h-1.4v-2.7h-1.8v2.7h-1.3v1.7h1.3v6.3h3.3
			v-1.7h-1.5V20.6z M220,24.6c-0.5,0.7-1.1,1-1.9,1c-1.1,0-2.2-0.8-2.4-1.9h6.5l0.1-0.6c0-1.1-0.3-2.2-1.1-3c-0.8-0.8-1.9-1.3-3-1.3
			c-2.4,0-4.2,1.9-4.2,4.3c0,2.4,1.9,4.2,4.2,4.2c1.7,0,3.1-1,3.8-2.6H220z M215.7,22.2c0.2-1.1,1.3-1.9,2.3-1.9
			c1.2,0,2.2,0.7,2.5,1.9H215.7z M224.5,25.2h-1v1.7h3.9v-1.7h-1v-2.3c0-0.5,0-1.2,0.3-1.7c0.3-0.5,0.9-0.7,1.5-0.7
			c0.5,0,1.1,0.2,1.4,0.6c0.3,0.4,0.3,0.9,0.3,1.4v2.6h-1v1.7h3.9v-1.7h-1v-3.1c0-0.9,0-1.6-0.7-2.4c-0.6-0.6-1.4-1-2.3-1
			c-1,0-1.9,0.4-2.4,1.3v-1.1h-2.9v1.7h1V25.2z M239.9,24.2c-0.3,0.7-1.1,1.1-1.9,1.1c-1.3,0-2.4-1.1-2.4-2.4c0-1.3,1-2.4,2.4-2.4
			c0.4,0,0.8,0.1,1.1,0.3c0.3,0.2,0.6,0.5,0.9,0.8h1.7v-2.7h-1.6v0.8c-0.6-0.6-1.4-1-2.3-1c-2.3,0-4,2-4,4.2c0,2.3,1.9,4.2,4.2,4.2
			c1.8,0,3.5-1.2,4-2.9H239.9z M246.2,18.9h-2.9v1.7h1v4.6h-1.1v1.7h3.9v-1.7h-1V18.9z M246.2,16.2h-1.8v1.9h1.8V16.2z M252.6,27.1
			c2.4,0,4.2-1.9,4.2-4.3c0-2.3-1.9-4.2-4.2-4.2c-2.3,0-4.2,1.9-4.2,4.2C248.4,25.2,250.3,27.1,252.6,27.1 M252.6,25.3
			c-1.4,0-2.4-1.1-2.4-2.5c0-1.3,1.1-2.4,2.4-2.4c1.3,0,2.4,1.1,2.4,2.4C255,24.2,254,25.3,252.6,25.3 M250.9,17.9L255,16l-0.8-1.6
			l-4,2.3L250.9,17.9z M259,25.2h-1v1.7h3.9v-1.7h-1v-2.3c0-0.5,0-1.2,0.3-1.7c0.3-0.5,0.9-0.7,1.5-0.7c0.5,0,1.1,0.2,1.4,0.6
			c0.3,0.4,0.3,0.9,0.3,1.4v2.6h-1v1.7h3.9v-1.7h-1v-3.1c0-0.9,0-1.6-0.7-2.4c-0.6-0.6-1.4-1-2.3-1c-1,0-1.9,0.4-2.4,1.3v-1.1H258
			v1.7h1V25.2z M280.2,26.9h2.9v-1.7h-1v-9h-2.9v1.7h1.1v2.2c-0.6-0.8-1.6-1.3-2.6-1.3c-2.3,0-4.1,1.9-4.1,4.1
			c0,2.2,1.8,4.1,4.1,4.1c1.1,0,2-0.4,2.6-1.3V26.9z M277.8,25.3c-1.3,0-2.4-1.1-2.4-2.4c0-1.4,1.1-2.5,2.4-2.5
			c1.3,0,2.4,1.1,2.4,2.4C280.2,24.2,279.2,25.3,277.8,25.3 M290.2,24.6c-0.5,0.7-1.1,1-1.9,1c-1.1,0-2.2-0.8-2.4-1.9h6.5l0.1-0.6
			c0-1.1-0.3-2.2-1.1-3c-0.8-0.8-1.9-1.3-3-1.3c-2.4,0-4.2,1.9-4.2,4.3c0,2.4,1.9,4.2,4.2,4.2c1.7,0,3.1-1,3.8-2.6H290.2z
			 M285.9,22.2c0.2-1.1,1.3-1.9,2.3-1.9c1.2,0,2.2,0.7,2.5,1.9H285.9z M305,24.2c-0.3,0.7-1.1,1.1-1.9,1.1c-1.3,0-2.4-1.1-2.4-2.4
			c0-1.3,1-2.4,2.4-2.4c0.4,0,0.8,0.1,1.1,0.3c0.3,0.2,0.6,0.5,0.9,0.8h1.7v-2.7h-1.6v0.8c-0.6-0.6-1.4-1-2.3-1c-2.3,0-4,2-4,4.2
			c0,2.3,1.9,4.2,4.2,4.2c1.8,0,3.5-1.2,4-2.9H305z M312.5,27.1c2.4,0,4.2-1.9,4.2-4.3c0-2.3-1.9-4.2-4.2-4.2
			c-2.3,0-4.2,1.9-4.2,4.2C308.3,25.2,310.1,27.1,312.5,27.1 M312.5,25.3c-1.4,0-2.4-1.1-2.4-2.5c0-1.3,1.1-2.4,2.4-2.4
			c1.3,0,2.4,1.1,2.4,2.4C314.9,24.2,313.8,25.3,312.5,25.3 M324.4,26.9h2.9v-1.7h-1v-4.6h1v-1.7h-2.9V20c-0.6-0.9-1.5-1.4-2.5-1.4
			c-2.3,0-4.2,1.9-4.2,4.3c0,2.3,1.8,4.2,4.1,4.2c1,0,2-0.4,2.6-1.3V26.9z M322,25.3c-1.3,0-2.4-1.1-2.4-2.4c0-1.4,1-2.5,2.4-2.5
			c1.3,0,2.4,1.1,2.4,2.4C324.5,24.2,323.4,25.3,322,25.3 M335.1,26.9h2.9v-1.7h-1v-9H334v1.7h1.1v2.2c-0.6-0.8-1.6-1.3-2.6-1.3
			c-2.3,0-4.1,1.9-4.1,4.1c0,2.2,1.8,4.1,4.1,4.1c1.1,0,2-0.4,2.6-1.3V26.9z M332.7,25.3c-1.3,0-2.4-1.1-2.4-2.4
			c0-1.4,1.1-2.5,2.4-2.5c1.3,0,2.4,1.1,2.4,2.4C335.1,24.2,334.1,25.3,332.7,25.3 M346.9,20.6h1v-1.7h-3.7v1.7h0.8l-1.5,3.9
			l-1.4-3.9h0.8v-1.7H339v1.7h1l2.4,6.2l-0.5,1.3h-1v1.7h3.9v-1.7h-1L346.9,20.6z M356.9,18.9H354v1.7h1v2.6c0,0.6,0,1.1-0.3,1.6
			c-0.3,0.4-0.8,0.7-1.4,0.7c-0.5,0-1-0.2-1.4-0.7c-0.3-0.4-0.3-1-0.3-1.5v-4.3h-2.9v1.7h1v3.2c0,0.9,0.1,1.6,0.7,2.3
			c0.6,0.7,1.4,1,2.2,1c0.9,0,1.9-0.4,2.4-1.2v1h2.7v-1.7h-1V18.9z M366.9,20.6h0.9v-1.7h-3.7v1.7h0.9l-1.6,4.1h0l-1.5-4.1h0.8v-1.7
			h-3.7v1.7h1l2.5,6.3h1.9L366.9,20.6z M375.6,26.9h2.9v-1.7h-1v-4.6h1v-1.7h-2.9V20c-0.6-0.9-1.5-1.4-2.5-1.4
			c-2.3,0-4.2,1.9-4.2,4.3c0,2.3,1.8,4.2,4.1,4.2c1,0,2-0.4,2.6-1.3V26.9z M373.2,25.3c-1.3,0-2.4-1.1-2.4-2.4c0-1.4,1-2.5,2.4-2.5
			c1.3,0,2.4,1.1,2.4,2.4C375.6,24.2,374.5,25.3,373.2,25.3 M382.3,18.9h-2.7v1.7h1v4.6h-1v1.7h3.9v-1.7h-1v-2
			c0-0.8,0.1-1.4,0.7-1.9c0.5-0.4,1-0.6,1.6-0.6v-1.9c-1,0-1.9,0.5-2.4,1.5V18.9z M397.4,24.2c-0.3,0.7-1.1,1.1-1.9,1.1
			c-1.3,0-2.4-1.1-2.4-2.4c0-1.3,1-2.4,2.4-2.4c0.4,0,0.8,0.1,1.1,0.3c0.3,0.2,0.6,0.5,0.9,0.8h1.7v-2.7h-1.6v0.8
			c-0.6-0.6-1.4-1-2.3-1c-2.3,0-4,2-4,4.2c0,2.3,1.9,4.2,4.2,4.2c1.8,0,3.5-1.2,4-2.9H397.4z M404.9,27.1c2.4,0,4.2-1.9,4.2-4.3
			c0-2.3-1.9-4.2-4.2-4.2c-2.3,0-4.2,1.9-4.2,4.2C400.7,25.2,402.5,27.1,404.9,27.1 M404.9,25.3c-1.4,0-2.4-1.1-2.4-2.5
			c0-1.3,1.1-2.4,2.4-2.4c1.3,0,2.4,1.1,2.4,2.4C407.3,24.2,406.2,25.3,404.9,25.3 M411.3,25.2h-1v1.7h3.9v-1.7h-1v-2.3
			c0-0.5,0-1.2,0.3-1.7c0.3-0.5,0.9-0.7,1.5-0.7c0.5,0,1.1,0.2,1.4,0.6c0.3,0.4,0.3,0.9,0.3,1.4v2.6h-1v1.7h3.9v-1.7h-1v-3.1
			c0-0.9,0-1.6-0.7-2.4c-0.6-0.6-1.4-1-2.3-1c-1,0-1.9,0.4-2.4,1.3v-1.1h-2.9v1.7h1V25.2z M428.8,16.2h-2.9v1.7h1v7.3h-1.1v1.7h4
			v-1.7h-1V16.2z M437.7,26.9h2.9v-1.7h-1v-4.6h1v-1.7h-2.9V20c-0.6-0.9-1.5-1.4-2.5-1.4c-2.3,0-4.2,1.9-4.2,4.3
			c0,2.3,1.8,4.2,4.1,4.2c1,0,2-0.4,2.6-1.3V26.9z M435.3,25.3c-1.3,0-2.4-1.1-2.4-2.4c0-1.4,1-2.5,2.4-2.5c1.3,0,2.4,1.1,2.4,2.4
			C437.7,24.2,436.6,25.3,435.3,25.3 M447.1,23.7v3.2h1.6v-0.7c0.5,0.6,1.2,0.9,2.1,0.9c2,0,3.4-1.4,3.4-3.4c0-0.9-0.4-1.7-1.1-2.3
			c-0.7-0.5-1.5-0.8-2.3-1c-0.8-0.2-1.8-0.5-1.8-1.5c0-0.8,0.7-1.3,1.5-1.3c0.8,0,1.4,0.6,1.4,1.4h1.8v-2.9h-1.6v0.6
			c-0.4-0.6-1.2-0.8-1.9-0.8c-1.7,0-3.2,1.3-3.2,3.1c0,1,0.4,1.8,1.2,2.3c0.7,0.5,1.3,0.7,2.1,0.9c0.8,0.2,1.8,0.5,1.8,1.6
			c0,0.9-0.7,1.5-1.6,1.5c-1,0-1.6-0.8-1.6-1.6H447.1z M455.6,26.9h7.9v-3.2h-2v1.5h-2.7v-2.8h3.1v-1.6h-3.1V18h2.7v1.4h2v-3.2h-7.9
			v1.7h1.2v7.3h-1.2V26.9z M465.1,16.2v1.7h1.2v7.3h-1.2v1.7h4.4v-1.7h-1.2v-2h1.5c1.1,0,1.9-0.2,2.7-1c0.7-0.7,1-1.6,1-2.5
			c0-1.1-0.4-2.1-1.3-2.8c-0.8-0.6-1.9-0.7-2.8-0.7H465.1z M468.3,21.4v-3.3h1.1c0.5,0,0.9,0,1.4,0.3c0.4,0.3,0.7,0.8,0.7,1.3
			c0,0.5-0.2,1-0.6,1.3c-0.4,0.3-0.9,0.4-1.4,0.4H468.3z M486,24.6c-0.5,0.7-1.1,1-1.9,1c-1.1,0-2.2-0.8-2.4-1.9h6.5l0.1-0.6
			c0-1.1-0.3-2.2-1.1-3c-0.8-0.8-1.9-1.3-3-1.3c-2.4,0-4.2,1.9-4.2,4.3c0,2.4,1.9,4.2,4.2,4.2c1.7,0,3.1-1,3.8-2.6H486z M481.6,22.2
			c0.2-1.1,1.3-1.9,2.3-1.9c1.2,0,2.2,0.7,2.5,1.9H481.6z M490.5,25.2h-1v1.7h3.9v-1.7h-1v-2.3c0-0.5,0-1.2,0.3-1.7
			c0.3-0.5,0.9-0.7,1.5-0.7c0.5,0,1.1,0.2,1.4,0.6c0.3,0.4,0.3,0.9,0.3,1.4v2.6h-1v1.7h3.9v-1.7h-1v-3.1c0-0.9,0-1.6-0.7-2.4
			c-0.6-0.6-1.4-1-2.3-1c-1,0-1.9,0.4-2.4,1.3v-1.1h-2.9v1.7h1V25.2z M511,24.6c-0.5,0.7-1.1,1-1.9,1c-1.1,0-2.2-0.8-2.4-1.9h6.5
			l0.1-0.6c0-1.1-0.3-2.2-1.1-3c-0.8-0.8-1.9-1.3-3-1.3c-2.4,0-4.2,1.9-4.2,4.3c0,2.4,1.9,4.2,4.2,4.2c1.7,0,3.1-1,3.8-2.6H511z
			 M506.7,22.2c0.2-1.1,1.3-1.9,2.3-1.9c1.2,0,2.2,0.7,2.5,1.9H506.7z M517.4,16.2h-2.9v1.7h1v7.3h-1.1v1.7h4v-1.7h-1V16.2z"/>
		<path fill="#009ADA" d="M140.8,46.9h2.9v-1.7h-1v-4.6h1v-1.7h-2.9V40c-0.6-0.9-1.5-1.4-2.5-1.4c-2.3,0-4.2,1.9-4.2,4.3
			c0,2.3,1.8,4.2,4.1,4.2c1,0,2-0.4,2.6-1.3V46.9z M138.4,45.3c-1.3,0-2.4-1.1-2.4-2.4c0-1.3,1-2.5,2.4-2.5c1.3,0,2.4,1.1,2.4,2.4
			C140.9,44.2,139.8,45.3,138.4,45.3 M145.9,45.2h-1v1.7h3.9v-1.7h-1v-2.3c0-0.5,0-1.2,0.3-1.7c0.3-0.4,0.9-0.7,1.5-0.7
			c0.5,0,1.1,0.2,1.4,0.6c0.3,0.4,0.3,0.9,0.3,1.4v2.6h-1v1.7h3.9v-1.7h-1v-3.1c0-0.9,0-1.6-0.7-2.4c-0.6-0.6-1.4-1-2.3-1
			c-1,0-1.9,0.4-2.4,1.3v-1.1h-2.9v1.7h1V45.2z M161.8,46.9h2.9v-1.7h-1v-4.6h1v-1.7h-2.9V40c-0.6-0.9-1.5-1.4-2.5-1.4
			c-2.3,0-4.2,1.9-4.2,4.3c0,2.3,1.8,4.2,4.1,4.2c1,0,2-0.4,2.6-1.3V46.9z M159.4,45.3c-1.3,0-2.4-1.1-2.4-2.4c0-1.3,1-2.5,2.4-2.5
			c1.3,0,2.4,1.1,2.4,2.4C161.9,44.2,160.8,45.3,159.4,45.3 M158.2,37.9l4.1-1.9l-0.8-1.6l-4,2.2L158.2,37.9z M168.8,36.2h-2.9v1.7
			h1v7.3h-1.1v1.7h4v-1.7h-1V36.2z M174,38.9h-2.9v1.7h1v4.6h-1.1v1.7h3.9v-1.7h-1V38.9z M174,36.2h-1.8v1.9h1.8V36.2z M176.5,44.6
			v2.3h1.4v-0.7c0.5,0.6,1.3,0.9,2.1,0.9c1.5,0,2.9-0.9,2.9-2.5c0-1.8-1.5-2.3-3-2.6c-0.6-0.1-1.3-0.3-1.3-1.1c0-0.6,0.5-0.8,1-0.8
			c0.6,0,1,0.4,1,0.9h1.8v-2.2H181v0.6c-0.4-0.6-1.1-0.7-1.8-0.7c-1.4,0-2.7,0.9-2.7,2.4c0,1.8,1.5,2.2,2.9,2.6
			c0.6,0.2,1.4,0.3,1.4,1.1c0,0.6-0.5,1-1.1,1c-0.8,0-1.2-0.5-1.3-1.2H176.5z M186.9,38.9h-2.9v1.7h1v4.6H184v1.7h3.9v-1.7h-1V38.9z
			 M186.9,36.2h-1.8v1.9h1.8V36.2z M189.4,44.6v2.3h1.4v-0.7c0.5,0.6,1.3,0.9,2.1,0.9c1.5,0,2.9-0.9,2.9-2.5c0-1.8-1.5-2.3-3-2.6
			c-0.6-0.1-1.3-0.3-1.3-1.1c0-0.6,0.5-0.8,1-0.8c0.6,0,1,0.4,1,0.9h1.8v-2.2h-1.4v0.6c-0.5-0.6-1.1-0.7-1.8-0.7
			c-1.4,0-2.7,0.9-2.7,2.4c0,1.8,1.5,2.2,2.9,2.6c0.6,0.2,1.4,0.3,1.4,1.1c0,0.6-0.5,1-1.1,1c-0.7,0-1.2-0.5-1.3-1.2H189.4z
			 M208.8,46.9h2.9v-1.7h-1v-9h-2.9v1.7h1v2.2c-0.6-0.8-1.6-1.3-2.6-1.3c-2.3,0-4.1,1.9-4.1,4.1c0,2.2,1.8,4.1,4.1,4.1
			c1.1,0,2-0.4,2.6-1.3V46.9z M206.4,45.3c-1.3,0-2.4-1.1-2.4-2.4c0-1.4,1.1-2.5,2.4-2.5c1.3,0,2.4,1.1,2.4,2.4
			C208.8,44.2,207.8,45.3,206.4,45.3 M218.8,44.6c-0.5,0.7-1.1,1-1.9,1c-1.1,0-2.2-0.8-2.4-1.9h6.5l0.1-0.6c0-1.1-0.3-2.2-1.1-3
			c-0.8-0.8-1.9-1.3-3-1.3c-2.4,0-4.2,1.9-4.2,4.3c0,2.4,1.9,4.2,4.2,4.2c1.7,0,3.1-1,3.8-2.6H218.8z M214.5,42.2
			c0.2-1,1.3-1.9,2.3-1.9c1.2,0,2.2,0.7,2.5,1.9H214.5z M234.1,46.9h2.9v-1.7h-1v-9h-2.9v1.7h1v2.2c-0.6-0.8-1.6-1.3-2.6-1.3
			c-2.3,0-4.1,1.9-4.1,4.1c0,2.2,1.8,4.1,4.1,4.1c1.1,0,2-0.4,2.6-1.3V46.9z M231.8,45.3c-1.3,0-2.4-1.1-2.4-2.4
			c0-1.4,1.1-2.5,2.4-2.5c1.3,0,2.4,1.1,2.4,2.4C234.2,44.2,233.1,45.3,231.8,45.3 M241.1,38.9h-2.9v1.7h1v4.6h-1.1v1.7h3.9v-1.7h-1
			V38.9z M241.1,36.2h-1.8v1.9h1.8V36.2z M251.1,40.6h0.9v-1.7h-3.7v1.7h0.9l-1.6,4.1h0l-1.5-4.1h0.8v-1.7h-3.7v1.7h1l2.5,6.3h1.9
			L251.1,40.6z M259.2,44.6c-0.5,0.7-1.1,1-1.9,1c-1.1,0-2.2-0.8-2.4-1.9h6.5l0.1-0.6c0-1.1-0.3-2.2-1.1-3c-0.8-0.8-1.9-1.3-3-1.3
			c-2.4,0-4.2,1.9-4.2,4.3c0,2.4,1.9,4.2,4.2,4.2c1.7,0,3.1-1,3.8-2.6H259.2z M254.8,42.2c0.2-1,1.3-1.9,2.3-1.9
			c1.2,0,2.2,0.7,2.5,1.9H254.8z M265.3,38.9h-2.7v1.7h1v4.6h-1v1.7h3.9v-1.7h-1v-2c0-0.8,0.1-1.4,0.7-1.9c0.5-0.4,1-0.6,1.6-0.6
			v-1.9c-1,0-1.9,0.5-2.4,1.5V38.9z M269.2,44.6v2.3h1.4v-0.7c0.5,0.6,1.3,0.9,2.1,0.9c1.5,0,2.9-0.9,2.9-2.5c0-1.8-1.5-2.3-3-2.6
			c-0.6-0.1-1.3-0.3-1.3-1.1c0-0.6,0.5-0.8,1-0.8c0.6,0,1,0.4,1,0.9h1.8v-2.2h-1.4v0.6c-0.5-0.6-1.1-0.7-1.8-0.7
			c-1.4,0-2.7,0.9-2.7,2.4c0,1.8,1.5,2.2,2.9,2.6c0.6,0.2,1.4,0.3,1.4,1.1c0,0.6-0.5,1-1.1,1c-0.8,0-1.2-0.5-1.3-1.2H269.2z
			 M280.8,47.1c2.4,0,4.2-1.9,4.2-4.3c0-2.3-1.9-4.2-4.2-4.2c-2.3,0-4.2,1.9-4.2,4.2C276.6,45.2,278.5,47.1,280.8,47.1 M280.8,45.3
			c-1.4,0-2.4-1.1-2.4-2.5c0-1.3,1.1-2.4,2.4-2.4c1.3,0,2.4,1.1,2.4,2.4C283.2,44.2,282.2,45.3,280.8,45.3 M286.3,44.6v2.3h1.4v-0.7
			c0.5,0.6,1.3,0.9,2.1,0.9c1.5,0,2.9-0.9,2.9-2.5c0-1.8-1.5-2.3-3-2.6c-0.6-0.1-1.3-0.3-1.3-1.1c0-0.6,0.5-0.8,1-0.8
			c0.6,0,1,0.4,1,0.9h1.8v-2.2h-1.3v0.6c-0.5-0.6-1.1-0.7-1.8-0.7c-1.4,0-2.7,0.9-2.7,2.4c0,1.8,1.5,2.2,2.9,2.6
			c0.6,0.2,1.4,0.3,1.4,1.1c0,0.6-0.5,1-1.1,1c-0.8,0-1.2-0.5-1.3-1.2H286.3z M302.1,40.6h1.4v-1.7h-1.4v-2.7h-1.8v2.7H299v1.7h1.3
			v6.3h3.3v-1.7h-1.5V40.6z M310.9,44.6c-0.5,0.7-1.1,1-1.9,1c-1.1,0-2.2-0.8-2.4-1.9h6.5l0.1-0.6c0-1.1-0.3-2.2-1.1-3
			c-0.8-0.8-1.9-1.3-3-1.3c-2.4,0-4.2,1.9-4.2,4.3c0,2.4,1.9,4.2,4.2,4.2c1.7,0,3.1-1,3.8-2.6H310.9z M306.6,42.2
			c0.2-1,1.3-1.9,2.3-1.9c1.2,0,2.2,0.7,2.5,1.9H306.6z M315.4,45.2h-1v1.7h3.9v-1.7h-1v-2.5c0-0.6,0-1.1,0.4-1.6
			c0.3-0.4,0.8-0.6,1.3-0.6c0.5,0,1.1,0.3,1.3,0.7c0.2,0.4,0.2,1,0.2,1.5v2.5h-1v1.7h3.9v-1.7h-1v-2.6c0-0.6,0-1,0.4-1.5
			c0.3-0.4,0.9-0.6,1.4-0.6c0.5,0,1,0.2,1.3,0.7c0.2,0.5,0.2,0.9,0.2,1.5v2.6h-1v1.7h3.9v-1.7h-1v-3c0-0.9,0-1.7-0.6-2.4
			c-0.6-0.7-1.4-1-2.3-1c-1.1,0-2.2,0.7-2.6,1.7c-0.5-1-1.4-1.7-2.5-1.7c-1,0-1.8,0.6-2.3,1.4v-1.2h-2.7v1.7h1V45.2z M336.4,46.9
			h2.9v-1.7h-1v-4.6h1v-1.7h-2.9V40c-0.6-0.9-1.5-1.4-2.5-1.4c-2.3,0-4.2,1.9-4.2,4.3c0,2.3,1.8,4.2,4.1,4.2c1,0,2-0.4,2.6-1.3V46.9
			z M334,45.3c-1.3,0-2.4-1.1-2.4-2.4c0-1.3,1-2.5,2.4-2.5c1.3,0,2.4,1.1,2.4,2.4C336.5,44.2,335.4,45.3,334,45.3 M340.6,44.6v2.3
			h1.4v-0.7c0.5,0.6,1.3,0.9,2.1,0.9c1.5,0,2.9-0.9,2.9-2.5c0-1.8-1.5-2.3-3-2.6c-0.6-0.1-1.3-0.3-1.3-1.1c0-0.6,0.5-0.8,1-0.8
			c0.6,0,1,0.4,1,0.9h1.8v-2.2h-1.4v0.6c-0.4-0.6-1.1-0.7-1.8-0.7c-1.4,0-2.7,0.9-2.7,2.4c0,1.8,1.5,2.2,2.9,2.6
			c0.6,0.2,1.4,0.3,1.4,1.1c0,0.6-0.5,1-1.1,1c-0.8,0-1.2-0.5-1.3-1.2H340.6z M356.1,38.9h-2.7v1.7h1v4.6h-1v1.7h3.9v-1.7h-1v-2
			c0-0.8,0.1-1.4,0.7-1.9c0.5-0.4,1-0.6,1.6-0.6v-1.9c-1,0-1.9,0.5-2.4,1.5V38.9z M366,44.6c-0.4,0.7-1.1,1-1.9,1
			c-1.1,0-2.2-0.8-2.4-1.9h6.5l0.1-0.6c0-1.1-0.3-2.2-1.1-3c-0.8-0.8-1.9-1.3-3-1.3c-2.4,0-4.2,1.9-4.2,4.3c0,2.4,1.9,4.2,4.2,4.2
			c1.7,0,3.1-1,3.8-2.6H366z M361.6,42.2c0.2-1,1.3-1.9,2.3-1.9c1.2,0,2.2,0.7,2.5,1.9H361.6z M372.3,36.2h-2.9v1.7h1v7.3h-1.1v1.7
			h4v-1.7h-1V36.2z M381.2,46.9h2.9v-1.7h-1v-4.6h1v-1.7h-2.9V40c-0.6-0.9-1.5-1.4-2.5-1.4c-2.3,0-4.2,1.9-4.2,4.3
			c0,2.3,1.8,4.2,4.1,4.2c1,0,2-0.4,2.6-1.3V46.9z M378.8,45.3c-1.3,0-2.4-1.1-2.4-2.4c0-1.3,1-2.5,2.4-2.5c1.3,0,2.4,1.1,2.4,2.4
			C381.3,44.2,380.2,45.3,378.8,45.3 M388.3,40.6h1.4v-1.7h-1.4v-2.7h-1.8v2.7h-1.3v1.7h1.3v6.3h3.3v-1.7h-1.5V40.6z M394,38.9h-2.9
			v1.7h1v4.6h-1v1.7h3.9v-1.7h-1V38.9z M394,36.2h-1.8v1.9h1.8V36.2z M404.1,40.6h0.9v-1.7h-3.7v1.7h0.9l-1.6,4.1h0l-1.5-4.1h0.8
			v-1.7h-3.7v1.7h1l2.5,6.3h1.9L404.1,40.6z M410.2,47.1c2.4,0,4.2-1.9,4.2-4.3c0-2.3-1.9-4.2-4.2-4.2c-2.3,0-4.2,1.9-4.2,4.2
			C406,45.2,407.9,47.1,410.2,47.1 M410.2,45.3c-1.4,0-2.4-1.1-2.4-2.5c0-1.3,1.1-2.4,2.4-2.4c1.3,0,2.4,1.1,2.4,2.4
			C412.6,44.2,411.6,45.3,410.2,45.3 M415.7,44.6v2.3h1.4v-0.7c0.5,0.6,1.3,0.9,2.1,0.9c1.5,0,2.9-0.9,2.9-2.5c0-1.8-1.5-2.3-3-2.6
			c-0.6-0.1-1.3-0.3-1.3-1.1c0-0.6,0.5-0.8,1-0.8c0.6,0,1,0.4,1,0.9h1.8v-2.2h-1.4v0.6c-0.4-0.6-1.1-0.7-1.8-0.7
			c-1.4,0-2.7,0.9-2.7,2.4c0,1.8,1.5,2.2,2.9,2.6c0.6,0.2,1.4,0.3,1.4,1.1c0,0.6-0.5,1-1.1,1c-0.8,0-1.2-0.5-1.3-1.2H415.7z
			 M435.1,46.9h2.9v-1.7h-1v-4.6h1v-1.7h-2.9V40c-0.6-0.9-1.5-1.4-2.5-1.4c-2.3,0-4.2,1.9-4.2,4.3c0,2.3,1.8,4.2,4.1,4.2
			c1.1,0,2-0.4,2.6-1.3V46.9z M432.7,45.3c-1.3,0-2.4-1.1-2.4-2.4c0-1.3,1-2.5,2.4-2.5c1.3,0,2.4,1.1,2.4,2.4
			C435.1,44.2,434.1,45.3,432.7,45.3 M447.3,36.2h-2.9v1.7h1v7.3h-1.1v1.7h4v-1.7h-1V36.2z M453.7,47.1c2.4,0,4.2-1.9,4.2-4.3
			c0-2.3-1.9-4.2-4.2-4.2c-2.3,0-4.2,1.9-4.2,4.2C449.5,45.2,451.4,47.1,453.7,47.1 M453.7,45.3c-1.4,0-2.4-1.1-2.4-2.5
			c0-1.3,1.1-2.4,2.4-2.4c1.3,0,2.4,1.1,2.4,2.4C456.1,44.2,455.1,45.3,453.7,45.3 M459.4,47.6c0.4,1.7,2.2,2.6,3.8,2.6
			c1.2,0,2.3-0.4,3.1-1.2c0.9-0.9,1-1.9,1-3.1v-5.2h1v-1.7h-2.7v1.2c-0.6-0.9-1.6-1.3-2.7-1.3c-2.2,0-4.1,1.9-4.1,4.1
			c0,2.2,1.8,4.1,4,4.1c1.1,0,2-0.4,2.6-1.3V46c0,0.8,0,1.3-0.6,1.9c-0.4,0.5-1.1,0.7-1.7,0.7c-0.7,0-1.5-0.3-1.8-1H459.4z
			 M460.9,42.9c0-1.3,1.1-2.4,2.4-2.4s2.4,1.1,2.4,2.4c0,1.4-1.1,2.5-2.4,2.5C462,45.3,460.9,44.2,460.9,42.9 M472.5,38.9h-2.7v1.7
			h1v4.6h-1v1.7h3.9v-1.7h-1v-2c0-0.8,0.1-1.4,0.7-1.9c0.5-0.4,1-0.6,1.6-0.6v-1.9c-1,0-1.9,0.5-2.4,1.5V38.9z M482.8,46.9h2.9v-1.7
			h-1v-4.6h1v-1.7h-2.9V40c-0.6-0.9-1.5-1.4-2.5-1.4c-2.3,0-4.2,1.9-4.2,4.3c0,2.3,1.8,4.2,4.1,4.2c1,0,2-0.4,2.6-1.3V46.9z
			 M480.4,45.3c-1.3,0-2.4-1.1-2.4-2.4c0-1.3,1.1-2.5,2.4-2.5c1.3,0,2.4,1.1,2.4,2.4C482.8,44.2,481.8,45.3,480.4,45.3 M489.6,38.9
			h-2.7v1.7h1v4.6h-1v1.7h3.9v-1.7h-1v-2c0-0.8,0.1-1.4,0.7-1.9c0.4-0.4,1-0.6,1.6-0.6v-1.9c-1,0-1.9,0.5-2.4,1.5V38.9z M501.5,36.2
			h-2.9v1.7h1v7.3h-1.1v1.7h4v-1.7h-1V36.2z M510.4,46.9h2.9v-1.7h-1v-4.6h1v-1.7h-2.9V40c-0.6-0.9-1.5-1.4-2.5-1.4
			c-2.3,0-4.2,1.9-4.2,4.3c0,2.3,1.8,4.2,4.1,4.2c1.1,0,2-0.4,2.6-1.3V46.9z M508,45.3c-1.3,0-2.4-1.1-2.4-2.4c0-1.3,1-2.5,2.4-2.5
			c1.3,0,2.4,1.1,2.4,2.4C510.4,44.2,509.4,45.3,508,45.3"/>
		<path fill="#009ADA" d="M135.3,65.2h-1v1.7h3.9v-1.7h-1v-2.5c0-0.6,0-1.1,0.4-1.6c0.3-0.4,0.8-0.6,1.3-0.6c0.5,0,1.1,0.3,1.3,0.7
			c0.2,0.4,0.2,1,0.2,1.5v2.5h-1v1.7h3.9v-1.7h-1v-2.6c0-0.6,0-1,0.4-1.5c0.3-0.4,0.9-0.6,1.4-0.6c0.5,0,1,0.2,1.3,0.7
			c0.2,0.5,0.2,0.9,0.2,1.5v2.6h-1v1.7h3.9v-1.7h-1v-3c0-0.9,0-1.7-0.6-2.4c-0.6-0.7-1.4-1-2.3-1c-1.1,0-2.2,0.7-2.6,1.7
			c-0.5-1-1.4-1.7-2.5-1.7c-1,0-1.8,0.6-2.3,1.4v-1.2h-2.7v1.7h1V65.2z M155.7,64.6c-0.5,0.7-1.1,1-1.9,1c-1.1,0-2.2-0.8-2.4-1.9
			h6.5l0.1-0.6c0-1.1-0.3-2.2-1.1-3c-0.8-0.8-1.9-1.3-3-1.3c-2.4,0-4.2,1.9-4.2,4.3c0,2.4,1.9,4.2,4.2,4.2c1.7,0,3.1-1,3.8-2.6
			H155.7z M151.3,62.2c0.2-1.1,1.3-1.9,2.3-1.9c1.2,0,2.2,0.7,2.5,1.9H151.3z M162.2,58.9h-2.9v1.7h1V66c0,1,0.1,2.1-1.3,2.2v1.7
			c2.1-0.1,3.1-1,3.1-3.1V58.9z M162.2,56.2h-1.8v1.9h1.8V56.2z M168.2,67.1c2.4,0,4.2-1.9,4.2-4.3c0-2.3-1.9-4.2-4.2-4.2
			c-2.3,0-4.2,1.9-4.2,4.2C164,65.2,165.8,67.1,168.2,67.1 M168.2,65.3c-1.4,0-2.4-1.1-2.4-2.5c0-1.3,1.1-2.4,2.4-2.4
			c1.3,0,2.4,1.1,2.4,2.4C170.6,64.2,169.5,65.3,168.2,65.3 M176.2,58.9h-2.7v1.7h1v4.6h-1v1.7h3.9v-1.7h-1v-2
			c0-0.8,0.1-1.4,0.7-1.9c0.4-0.4,1-0.6,1.6-0.6v-1.9c-1,0-1.9,0.5-2.4,1.5V58.9z M188.1,58.9h-2.9v1.7h1v4.6h-1.1v1.7h3.9v-1.7h-1
			V58.9z M188.1,56.2h-1.8v1.9h1.8V56.2z M191.5,65.2h-1v1.7h3.9v-1.7h-1v-2.5c0-0.6,0-1.1,0.4-1.6c0.3-0.4,0.8-0.6,1.3-0.6
			c0.5,0,1.1,0.3,1.3,0.7c0.2,0.4,0.2,1,0.2,1.5v2.5h-1v1.7h3.9v-1.7h-1v-2.6c0-0.6,0-1,0.4-1.5c0.3-0.4,0.9-0.6,1.4-0.6
			c0.5,0,1,0.2,1.3,0.7c0.2,0.5,0.2,0.9,0.2,1.5v2.6h-1v1.7h3.9v-1.7h-1v-3c0-0.9,0-1.7-0.6-2.4c-0.6-0.7-1.4-1-2.3-1
			c-1.1,0-2.2,0.7-2.6,1.7c-0.5-1-1.4-1.7-2.5-1.7c-1,0-1.8,0.6-2.3,1.4v-1.2h-2.7v1.7h1V65.2z M206.9,68.1h-1v1.7h3.9v-1.7h-1v-2.3
			c0.6,0.8,1.7,1.2,2.7,1.2c2.2,0,4-1.9,4-4.1c0-2.3-1.8-4.1-4.1-4.1c-1.1,0-2,0.4-2.6,1.4v-1.3h-2.9v1.7h1V68.1z M211.2,65.3
			c-1.3,0-2.4-1.1-2.4-2.4c0-1.4,1.1-2.4,2.5-2.4c1.3,0,2.4,1.1,2.4,2.4C213.6,64.3,212.5,65.3,211.2,65.3 M219.5,56.2h-2.9v1.7h1
			v7.3h-1.1v1.7h4v-1.7h-1V56.2z M227.8,64.6c-0.5,0.7-1.1,1-1.9,1c-1.1,0-2.2-0.8-2.4-1.9h6.5l0.1-0.6c0-1.1-0.3-2.2-1.1-3
			c-0.8-0.8-1.9-1.3-3-1.3c-2.4,0-4.2,1.9-4.2,4.3c0,2.4,1.9,4.2,4.2,4.2c1.7,0,3.1-1,3.8-2.6H227.8z M223.5,62.2
			c0.2-1.1,1.3-1.9,2.3-1.9c1.2,0,2.2,0.7,2.5,1.9H223.5z M232.3,65.2h-1v1.7h3.9v-1.7h-1v-2.5c0-0.6,0-1.1,0.4-1.6
			c0.3-0.4,0.8-0.6,1.3-0.6c0.5,0,1.1,0.3,1.3,0.7c0.2,0.4,0.2,1,0.2,1.5v2.5h-1v1.7h3.9v-1.7h-1v-2.6c0-0.6,0-1,0.4-1.5
			c0.3-0.4,0.9-0.6,1.4-0.6c0.5,0,1,0.2,1.3,0.7c0.2,0.5,0.2,0.9,0.2,1.5v2.6h-1v1.7h3.9v-1.7h-1v-3c0-0.9,0-1.7-0.6-2.4
			c-0.6-0.7-1.4-1-2.3-1c-1.1,0-2.2,0.7-2.6,1.7c-0.4-1-1.4-1.7-2.5-1.7c-1,0-1.8,0.6-2.3,1.4v-1.2h-2.7v1.7h1V65.2z M252.7,64.6
			c-0.4,0.7-1.1,1-1.9,1c-1.1,0-2.2-0.8-2.4-1.9h6.5l0.1-0.6c0-1.1-0.3-2.2-1.1-3c-0.8-0.8-1.9-1.3-3-1.3c-2.4,0-4.2,1.9-4.2,4.3
			c0,2.4,1.9,4.2,4.2,4.2c1.7,0,3.1-1,3.8-2.6H252.7z M248.4,62.2c0.2-1.1,1.3-1.9,2.3-1.9c1.2,0,2.2,0.7,2.5,1.9H248.4z
			 M257.2,65.2h-1v1.7h3.9v-1.7h-1v-2.3c0-0.5,0-1.2,0.3-1.7c0.3-0.5,0.9-0.7,1.5-0.7c0.5,0,1.1,0.2,1.4,0.6
			c0.3,0.4,0.3,0.9,0.3,1.4v2.6h-1v1.7h3.9v-1.7h-1v-3.1c0-0.9,0-1.6-0.7-2.4c-0.6-0.6-1.4-1-2.3-1c-1,0-1.9,0.4-2.4,1.3v-1.1h-2.9
			v1.7h1V65.2z M269.5,60.6h1.4v-1.7h-1.4v-2.7h-1.8v2.7h-1.3v1.7h1.3v6.3h3.3v-1.7h-1.5V60.6z M279,66.9h2.9v-1.7h-1v-4.6h1v-1.7
			H279V60c-0.6-0.9-1.5-1.4-2.5-1.4c-2.3,0-4.2,1.9-4.2,4.3c0,2.3,1.8,4.2,4.1,4.2c1.1,0,2-0.4,2.6-1.3V66.9z M276.6,65.3
			c-1.3,0-2.4-1.1-2.4-2.4c0-1.3,1.1-2.5,2.4-2.5c1.3,0,2.4,1.1,2.4,2.4C279,64.2,277.9,65.3,276.6,65.3 M289.1,64.2
			c-0.3,0.7-1.1,1.1-1.9,1.1c-1.3,0-2.4-1-2.4-2.4c0-1.3,1-2.4,2.4-2.4c0.4,0,0.8,0.1,1.1,0.3c0.3,0.2,0.6,0.5,0.9,0.8h1.7v-2.7
			h-1.6v0.8c-0.6-0.6-1.4-1-2.3-1c-2.3,0-4,2-4,4.2c0,2.3,1.9,4.2,4.2,4.2c1.8,0,3.5-1.2,4-2.9H289.1z M295.4,58.9h-2.9v1.7h1v4.6
			h-1.1v1.7h3.9v-1.7h-1V58.9z M295.4,56.2h-1.8v1.9h1.8V56.2z M301.8,67.1c2.4,0,4.2-1.9,4.2-4.3c0-2.3-1.9-4.2-4.2-4.2
			c-2.3,0-4.2,1.9-4.2,4.2C297.6,65.2,299.5,67.1,301.8,67.1 M301.8,65.3c-1.4,0-2.4-1.1-2.4-2.5c0-1.3,1.1-2.4,2.4-2.4
			c1.3,0,2.4,1.1,2.4,2.4C304.2,64.2,303.2,65.3,301.8,65.3 M300.1,57.9l4.1-2l-0.8-1.6l-4,2.3L300.1,57.9z M308.2,65.2h-1v1.7h3.9
			v-1.7h-1v-2.3c0-0.5,0-1.2,0.3-1.7c0.3-0.5,0.9-0.7,1.5-0.7c0.5,0,1.1,0.2,1.4,0.6c0.3,0.4,0.3,0.9,0.3,1.4v2.6h-1v1.7h3.9v-1.7
			h-1v-3.1c0-0.9,0-1.6-0.7-2.4c-0.6-0.6-1.4-1-2.3-1c-1,0-1.9,0.4-2.4,1.3v-1.1h-2.9v1.7h1V65.2z M329.4,66.9h2.9v-1.7h-1v-9h-2.9
			v1.7h1.1v2.2c-0.6-0.8-1.6-1.3-2.6-1.3c-2.3,0-4.1,1.9-4.1,4.1c0,2.2,1.8,4.1,4.1,4.1c1.1,0,2-0.4,2.6-1.3V66.9z M327,65.3
			c-1.3,0-2.4-1.1-2.4-2.4c0-1.4,1.1-2.5,2.4-2.5c1.3,0,2.4,1.1,2.4,2.4C329.4,64.2,328.4,65.3,327,65.3 M339.4,64.6
			c-0.5,0.7-1.1,1-1.9,1c-1.1,0-2.2-0.8-2.4-1.9h6.5l0.1-0.6c0-1.1-0.3-2.2-1.1-3c-0.8-0.8-1.9-1.3-3-1.3c-2.4,0-4.2,1.9-4.2,4.3
			c0,2.4,1.9,4.2,4.2,4.2c1.7,0,3.1-1,3.8-2.6H339.4z M335.1,62.2c0.2-1.1,1.3-1.9,2.3-1.9c1.2,0,2.2,0.7,2.5,1.9H335.1z
			 M345.8,56.2h-2.9v1.7h1v7.3h-1.1v1.7h4v-1.7h-1V56.2z M354.4,65.2h-1v1.7h3.9v-1.7h-1v-2.3c0-0.5,0-1.2,0.3-1.7
			c0.3-0.5,0.9-0.7,1.5-0.7c0.5,0,1.1,0.2,1.4,0.6c0.3,0.4,0.3,0.9,0.3,1.4v2.6h-1v1.7h3.9v-1.7h-1v-3.1c0-0.9,0-1.6-0.7-2.4
			c-0.6-0.6-1.4-1-2.3-1c-1,0-1.9,0.4-2.4,1.3v-1.1h-2.9v1.7h1V65.2z M371.7,58.9h-2.9v1.7h1v2.6c0,0.6,0,1.1-0.3,1.6
			c-0.3,0.4-0.8,0.7-1.4,0.7c-0.5,0-1-0.2-1.3-0.7c-0.3-0.4-0.3-1-0.3-1.5v-4.3h-2.9v1.7h1v3.2c0,0.9,0.1,1.6,0.7,2.3
			c0.6,0.7,1.4,1,2.2,1c0.9,0,1.9-0.4,2.4-1.2v1h2.7v-1.7h-1V58.9z M380.1,64.6c-0.4,0.7-1.1,1-1.9,1c-1.1,0-2.2-0.8-2.4-1.9h6.5
			l0.1-0.6c0-1.1-0.3-2.2-1.1-3c-0.8-0.8-1.9-1.3-3-1.3c-2.4,0-4.2,1.9-4.2,4.3c0,2.4,1.9,4.2,4.2,4.2c1.7,0,3.2-1,3.8-2.6H380.1z
			 M375.7,62.2c0.2-1.1,1.3-1.9,2.3-1.9c1.2,0,2.2,0.7,2.5,1.9H375.7z M391.2,60.6h0.9v-1.7h-3.7v1.7h0.9l-1.6,4.1h0l-1.5-4.1h0.8
			v-1.7h-3.7v1.7h1l2.5,6.3h1.9L391.2,60.6z M397.4,67.1c2.4,0,4.2-1.9,4.2-4.3c0-2.3-1.9-4.2-4.2-4.2c-2.3,0-4.2,1.9-4.2,4.2
			C393.2,65.2,395,67.1,397.4,67.1 M397.4,65.3c-1.4,0-2.4-1.1-2.4-2.5c0-1.3,1.1-2.4,2.4-2.4c1.3,0,2.4,1.1,2.4,2.4
			C399.8,64.2,398.7,65.3,397.4,65.3 M409,65.2h-1v1.7h3.9v-1.7h-1v-2.5c0-0.6,0-1.1,0.4-1.6c0.3-0.4,0.8-0.6,1.3-0.6
			c0.5,0,1.1,0.3,1.3,0.7c0.2,0.4,0.2,1,0.2,1.5v2.5h-1v1.7h3.9v-1.7h-1v-2.6c0-0.6,0-1,0.4-1.5c0.3-0.4,0.9-0.6,1.4-0.6
			c0.5,0,1,0.2,1.3,0.7c0.2,0.5,0.2,0.9,0.2,1.5v2.6h-1v1.7h3.9v-1.7h-1v-3c0-0.9,0-1.7-0.6-2.4c-0.6-0.7-1.4-1-2.3-1
			c-1.1,0-2.2,0.7-2.6,1.7c-0.4-1-1.4-1.7-2.5-1.7c-1,0-1.8,0.6-2.3,1.4v-1.2H408v1.7h1V65.2z M427.5,67.1c2.4,0,4.2-1.9,4.2-4.3
			c0-2.3-1.9-4.2-4.2-4.2c-2.3,0-4.2,1.9-4.2,4.2C423.3,65.2,425.2,67.1,427.5,67.1 M427.5,65.3c-1.4,0-2.4-1.1-2.4-2.5
			c0-1.3,1.1-2.4,2.4-2.4c1.3,0,2.4,1.1,2.4,2.4C429.9,64.2,428.9,65.3,427.5,65.3 M439.5,66.9h2.9v-1.7h-1v-9h-2.9v1.7h1.1v2.2
			c-0.6-0.8-1.6-1.3-2.6-1.3c-2.3,0-4.1,1.9-4.1,4.1c0,2.2,1.8,4.1,4.1,4.1c1.1,0,2-0.4,2.6-1.3V66.9z M437.1,65.3
			c-1.3,0-2.4-1.1-2.4-2.4c0-1.4,1.1-2.5,2.4-2.5c1.3,0,2.4,1.1,2.4,2.4C439.5,64.2,438.5,65.3,437.1,65.3 M449.5,64.6
			c-0.5,0.7-1.1,1-1.9,1c-1.1,0-2.2-0.8-2.4-1.9h6.5l0.1-0.6c0-1.1-0.3-2.2-1.1-3c-0.8-0.8-1.9-1.3-3-1.3c-2.4,0-4.2,1.9-4.2,4.3
			c0,2.4,1.9,4.2,4.2,4.2c1.7,0,3.1-1,3.8-2.6H449.5z M445.2,62.2c0.2-1.1,1.3-1.9,2.3-1.9c1.2,0,2.2,0.7,2.5,1.9H445.2z
			 M455.9,56.2H453v1.7h1v7.3H453v1.7h4v-1.7h-1V56.2z M462.3,67.1c2.4,0,4.2-1.9,4.2-4.3c0-2.3-1.9-4.2-4.2-4.2
			c-2.3,0-4.2,1.9-4.2,4.2C458.1,65.2,460,67.1,462.3,67.1 M462.3,65.3c-1.4,0-2.4-1.1-2.4-2.5c0-1.3,1.1-2.4,2.4-2.4
			c1.3,0,2.4,1.1,2.4,2.4C464.7,64.2,463.7,65.3,462.3,65.3 M478.9,64.6c-0.5,0.7-1.1,1-1.9,1c-1.1,0-2.2-0.8-2.4-1.9h6.5l0.1-0.6
			c0-1.1-0.3-2.2-1.1-3c-0.8-0.8-1.9-1.3-3-1.3c-2.4,0-4.2,1.9-4.2,4.3c0,2.4,1.9,4.2,4.2,4.2c1.7,0,3.1-1,3.8-2.6H478.9z
			 M474.6,62.2c0.2-1.1,1.3-1.9,2.3-1.9c1.2,0,2.2,0.7,2.5,1.9H474.6z M489,66.9h2.9v-1.7h-1v-9h-2.9v1.7h1v2.2
			c-0.6-0.8-1.6-1.3-2.6-1.3c-2.3,0-4.1,1.9-4.1,4.1c0,2.2,1.8,4.1,4.1,4.1c1.1,0,2-0.4,2.6-1.3V66.9z M486.6,65.3
			c-1.3,0-2.4-1.1-2.4-2.4c0-1.4,1.1-2.5,2.4-2.5c1.3,0,2.4,1.1,2.4,2.4C489,64.2,488,65.3,486.6,65.3 M501,58.9h-2.9v1.7h1v2.6
			c0,0.6,0,1.1-0.3,1.6c-0.3,0.4-0.8,0.7-1.4,0.7c-0.5,0-1-0.2-1.4-0.7c-0.3-0.4-0.3-1-0.3-1.5v-4.3H493v1.7h1v3.2
			c0,0.9,0.1,1.6,0.7,2.3c0.6,0.7,1.4,1,2.2,1c0.9,0,1.9-0.4,2.4-1.2v1h2.7v-1.7h-1V58.9z M509.5,64.2c-0.3,0.7-1.1,1.1-1.9,1.1
			c-1.3,0-2.4-1-2.4-2.4c0-1.3,1-2.4,2.4-2.4c0.4,0,0.8,0.1,1.1,0.3c0.3,0.2,0.6,0.5,0.9,0.8h1.7v-2.7h-1.6v0.8
			c-0.6-0.6-1.4-1-2.3-1c-2.3,0-4,2-4,4.2c0,2.3,1.9,4.2,4.2,4.2c1.8,0,3.5-1.2,4-2.9H509.5z M519.4,66.9h2.9v-1.7h-1v-4.6h1v-1.7
			h-2.9V60c-0.6-0.9-1.5-1.4-2.5-1.4c-2.3,0-4.2,1.9-4.2,4.3c0,2.3,1.8,4.2,4.1,4.2c1,0,2-0.4,2.6-1.3V66.9z M517,65.3
			c-1.3,0-2.4-1.1-2.4-2.4c0-1.3,1-2.5,2.4-2.5c1.3,0,2.4,1.1,2.4,2.4C519.5,64.2,518.4,65.3,517,65.3 M526.5,60.6h1.4v-1.7h-1.4
			v-2.7h-1.8v2.7h-1.3v1.7h1.3v6.3h3.3v-1.7h-1.5V60.6z M532.2,58.9h-2.9v1.7h1v4.6h-1v1.7h3.9v-1.7h-1V58.9z M532.2,56.2h-1.8v1.9
			h1.8V56.2z M542.3,60.6h0.9v-1.7h-3.7v1.7h0.9l-1.6,4.1h0l-1.5-4.1h0.8v-1.7h-3.7v1.7h1l2.5,6.3h1.9L542.3,60.6z M548.4,67.1
			c2.4,0,4.2-1.9,4.2-4.3c0-2.3-1.9-4.2-4.2-4.2c-2.3,0-4.2,1.9-4.2,4.2C544.2,65.2,546.1,67.1,548.4,67.1 M548.4,65.3
			c-1.4,0-2.4-1.1-2.4-2.5c0-1.3,1.1-2.4,2.4-2.4c1.3,0,2.4,1.1,2.4,2.4C550.8,64.2,549.8,65.3,548.4,65.3 M555.6,66.9v0.2
			c0,0.5,0,0.9-0.6,0.9h-0.2v1h0.3c0.5,0,0.9,0,1.2-0.5c0.3-0.4,0.4-0.9,0.4-1.4v-2.4h-1.9v2.1H555.6z"/>
		<path fill="#B9007C" d="M135.5,85.2h-1.2v1.7h4.4v-1.7h-1.2v-2.9h3.1v-1.6h-3.1V78h2.7v1.4h2v-3.2h-8v1.7h1.2V85.2z M151.7,78.9
			h-2.9v1.7h1v2.6c0,0.6,0,1.1-0.3,1.6c-0.3,0.4-0.8,0.7-1.3,0.7c-0.5,0-1.1-0.2-1.4-0.7c-0.3-0.4-0.3-1-0.3-1.5v-4.3h-2.9v1.7h1
			v3.2c0,0.9,0.1,1.6,0.7,2.3c0.6,0.7,1.4,1,2.2,1c0.9,0,1.9-0.4,2.4-1.2v1h2.7v-1.7h-1V78.9z M155,85.2h-1v1.7h3.9v-1.7h-1v-2.3
			c0-0.5,0-1.2,0.3-1.7c0.3-0.5,0.9-0.7,1.5-0.7c0.5,0,1.1,0.2,1.4,0.6c0.3,0.4,0.3,0.9,0.3,1.4v2.6h-1v1.7h3.9v-1.7h-1v-3.1
			c0-0.9,0-1.6-0.7-2.4c-0.6-0.6-1.4-1-2.3-1c-1,0-1.9,0.4-2.4,1.3v-1.1H154v1.7h1V85.2z M171,86.9h2.9v-1.7h-1v-9h-2.9v1.7h1v2.2
			c-0.6-0.8-1.6-1.3-2.6-1.3c-2.3,0-4.1,1.9-4.1,4.1c0,2.2,1.8,4.1,4.1,4.1c1.1,0,2-0.4,2.6-1.3V86.9z M168.6,85.3
			c-1.3,0-2.4-1.1-2.4-2.4c0-1.4,1.1-2.5,2.4-2.5c1.3,0,2.4,1.1,2.4,2.4C171,84.2,170,85.3,168.6,85.3 M181.6,86.9h2.9v-1.7h-1v-4.6
			h1v-1.7h-2.9V80c-0.6-0.9-1.5-1.3-2.5-1.3c-2.3,0-4.2,1.9-4.2,4.3c0,2.3,1.8,4.2,4.1,4.2c1.1,0,2-0.4,2.6-1.3V86.9z M179.2,85.3
			c-1.3,0-2.4-1.1-2.4-2.4c0-1.4,1.1-2.5,2.4-2.5c1.3,0,2.4,1.1,2.4,2.4C181.7,84.2,180.6,85.3,179.2,85.3 M191.8,84.2
			c-0.3,0.7-1.1,1.1-1.9,1.1c-1.3,0-2.4-1.1-2.4-2.4c0-1.3,1-2.4,2.4-2.4c0.4,0,0.8,0.1,1.1,0.3c0.3,0.2,0.6,0.5,0.9,0.8h1.7v-2.7
			h-1.6v0.8c-0.6-0.6-1.4-1-2.3-1c-2.3,0-4,2-4,4.2c0,2.3,1.9,4.2,4.2,4.2c1.8,0,3.5-1.2,4-2.9H191.8z M198,78.9h-2.9v1.7h1v4.6
			h-1.1v1.7h3.9v-1.7h-1V78.9z M198,76.2h-1.8v1.9h1.8V76.2z M204.5,87.1c2.4,0,4.2-1.9,4.2-4.3c0-2.3-1.9-4.2-4.2-4.2
			c-2.3,0-4.2,1.9-4.2,4.2C200.3,85.2,202.1,87.1,204.5,87.1 M204.5,85.3c-1.4,0-2.4-1.1-2.4-2.5c0-1.3,1.1-2.4,2.4-2.4
			c1.3,0,2.4,1.1,2.4,2.4C206.9,84.2,205.8,85.3,204.5,85.3 M202.7,77.9l4.1-1.9l-0.8-1.6l-4,2.3L202.7,77.9z M210.8,85.2h-1v1.7
			h3.9v-1.7h-1v-2.3c0-0.5,0-1.2,0.3-1.7c0.3-0.5,0.9-0.7,1.5-0.7c0.5,0,1.1,0.2,1.4,0.6c0.3,0.4,0.3,0.9,0.3,1.4v2.6h-1v1.7h3.9
			v-1.7h-1v-3.1c0-0.9,0-1.6-0.7-2.4c-0.6-0.6-1.4-1-2.3-1c-1,0-1.9,0.4-2.4,1.3v-1.1h-2.9v1.7h1V85.2z M225.5,83.7v3.2h1.6v-0.7
			c0.5,0.6,1.2,0.9,2.1,0.9c2,0,3.4-1.4,3.4-3.4c0-0.9-0.4-1.7-1.1-2.3c-0.7-0.5-1.5-0.8-2.3-1c-0.8-0.2-1.8-0.5-1.8-1.5
			c0-0.8,0.7-1.3,1.5-1.3s1.4,0.6,1.4,1.4h1.8v-2.9h-1.6v0.6c-0.5-0.6-1.2-0.8-1.9-0.8c-1.7,0-3.2,1.3-3.2,3.1c0,1,0.4,1.8,1.2,2.3
			c0.7,0.5,1.3,0.7,2.1,0.9c0.8,0.2,1.8,0.5,1.8,1.6c0,0.9-0.7,1.5-1.6,1.5c-1,0-1.6-0.8-1.6-1.6H225.5z M240.6,86.9h2.9v-1.7h-1
			v-4.6h1v-1.7h-2.9V80c-0.6-0.9-1.5-1.3-2.5-1.3c-2.3,0-4.2,1.9-4.2,4.3c0,2.3,1.8,4.2,4.1,4.2c1,0,2-0.4,2.6-1.3V86.9z
			 M238.2,85.3c-1.3,0-2.4-1.1-2.4-2.4c0-1.4,1.1-2.5,2.4-2.5c1.3,0,2.4,1.1,2.4,2.4C240.6,84.2,239.5,85.3,238.2,85.3 M245.6,85.2
			h-1v1.7h3.9v-1.7h-1v-2.3c0-0.5,0-1.2,0.3-1.7c0.3-0.5,0.9-0.7,1.5-0.7c0.5,0,1.1,0.2,1.4,0.6c0.3,0.4,0.3,0.9,0.3,1.4v2.6h-1v1.7
			h3.9v-1.7h-1v-3.1c0-0.9,0-1.6-0.7-2.4c-0.6-0.6-1.4-1-2.3-1c-1,0-1.9,0.4-2.4,1.3v-1.1h-2.9v1.7h1V85.2z M258,80.6h1.4v-1.7H258
			v-2.7h-1.8v2.7h-1.3v1.7h1.3v6.3h3.3v-1.7H258V80.6z M263.7,78.9h-2.9v1.7h1v4.6h-1v1.7h3.9v-1.7h-1V78.9z M263.7,76.2h-1.8v1.9
			h1.8V76.2z M269,76.2h-2.9v1.7h1v7.3h-1.1v1.7h4v-1.7h-1V76.2z M274.3,76.2h-2.9v1.7h1v7.3h-1.1v1.7h4v-1.7h-1V76.2z M283.2,86.9
			h2.9v-1.7h-1v-4.6h1v-1.7h-2.9V80c-0.6-0.9-1.5-1.3-2.5-1.3c-2.3,0-4.2,1.9-4.2,4.3c0,2.3,1.8,4.2,4.1,4.2c1,0,2-0.4,2.6-1.3V86.9
			z M280.8,85.3c-1.3,0-2.4-1.1-2.4-2.4c0-1.4,1-2.5,2.4-2.5c1.3,0,2.4,1.1,2.4,2.4C283.2,84.2,282.1,85.3,280.8,85.3 M288.3,85.2
			h-1v1.7h3.9v-1.7h-1v-2.3c0-0.5,0-1.2,0.3-1.7c0.3-0.5,0.9-0.7,1.5-0.7c0.5,0,1.1,0.2,1.4,0.6c0.3,0.4,0.3,0.9,0.3,1.4v2.6h-1v1.7
			h3.9v-1.7h-1v-3.1c0-0.9,0-1.6-0.7-2.4c-0.6-0.6-1.4-1-2.3-1c-1,0-1.9,0.4-2.4,1.3v-1.1h-2.9v1.7h1V85.2z M304.2,86.9h2.9v-1.7h-1
			v-4.6h1v-1.7h-2.9V80c-0.6-0.9-1.5-1.3-2.5-1.3c-2.3,0-4.2,1.9-4.2,4.3c0,2.3,1.8,4.2,4.1,4.2c1,0,2-0.4,2.6-1.3V86.9z
			 M301.8,85.3c-1.3,0-2.4-1.1-2.4-2.4c0-1.4,1-2.5,2.4-2.5c1.3,0,2.4,1.1,2.4,2.4C304.2,84.2,303.1,85.3,301.8,85.3 M321.2,80.6h1
			v-1.7h-3.7v1.7h0.8l-1.5,3.9l-1.4-3.9h0.8v-1.7h-3.8v1.7h1l2.4,6.2l-0.5,1.3h-1v1.7h3.9v-1.7h-1L321.2,80.6z M331.4,76.2h-2.9v1.7
			h1v7.3h-1.1v1.7h4v-1.7h-1V76.2z M340.3,86.9h2.9v-1.7h-1v-4.6h1v-1.7h-2.9V80c-0.6-0.9-1.5-1.3-2.5-1.3c-2.3,0-4.2,1.9-4.2,4.3
			c0,2.3,1.8,4.2,4.1,4.2c1,0,2-0.4,2.6-1.3V86.9z M337.9,85.3c-1.3,0-2.4-1.1-2.4-2.4c0-1.4,1-2.5,2.4-2.5c1.3,0,2.4,1.1,2.4,2.4
			C340.4,84.2,339.3,85.3,337.9,85.3 M355.3,87.1c3.1,0,5.6-2.5,5.6-5.7c0-3-2.5-5.5-5.6-5.5c-3.1,0-5.7,2.5-5.7,5.6
			C349.7,84.6,352.2,87.1,355.3,87.1 M355.3,85.1c-2,0-3.5-1.6-3.5-3.6c0-2,1.6-3.5,3.5-3.5c1.9,0,3.5,1.6,3.5,3.5
			C358.8,83.5,357.3,85.1,355.3,85.1 M364.8,78.9h-2.7v1.7h1v4.6h-1v1.7h3.9v-1.7h-1v-2c0-0.8,0.1-1.4,0.7-1.9
			c0.5-0.4,1-0.6,1.6-0.6v-1.9c-1,0-1.9,0.5-2.4,1.5V78.9z M369,87.6c0.4,1.7,2.2,2.6,3.8,2.6c1.2,0,2.3-0.4,3.1-1.2
			c0.9-0.9,1-1.9,1-3.1v-5.2h1v-1.7h-2.7v1.2c-0.6-0.9-1.6-1.3-2.7-1.3c-2.2,0-4.1,1.9-4.1,4.1c0,2.2,1.8,4.1,4,4.1
			c1.1,0,2-0.4,2.6-1.3V86c0,0.8,0,1.3-0.6,1.9c-0.4,0.5-1.1,0.7-1.7,0.7c-0.7,0-1.5-0.3-1.8-1H369z M370.4,82.9
			c0-1.3,1.1-2.4,2.4-2.4c1.3,0,2.4,1.1,2.4,2.4c0,1.4-1.1,2.5-2.4,2.5C371.5,85.3,370.4,84.2,370.4,82.9 M385.9,86.9h2.9v-1.7h-1
			v-4.6h1v-1.7h-2.9V80c-0.6-0.9-1.5-1.3-2.5-1.3c-2.3,0-4.2,1.9-4.2,4.3c0,2.3,1.8,4.2,4.1,4.2c1.1,0,2-0.4,2.6-1.3V86.9z
			 M383.5,85.3c-1.3,0-2.4-1.1-2.4-2.4c0-1.4,1.1-2.5,2.4-2.5c1.3,0,2.4,1.1,2.4,2.4C385.9,84.2,384.8,85.3,383.5,85.3 M391,85.2h-1
			v1.7h3.9v-1.7h-1v-2.3c0-0.5,0-1.2,0.3-1.7c0.3-0.5,0.9-0.7,1.5-0.7c0.5,0,1.1,0.2,1.4,0.6c0.3,0.4,0.3,0.9,0.3,1.4v2.6h-1v1.7
			h3.9v-1.7h-1v-3.1c0-0.9,0-1.6-0.7-2.4c-0.6-0.6-1.4-1-2.3-1c-1,0-1.9,0.4-2.4,1.3v-1.1h-2.9v1.7h1V85.2z M403.2,78.9h-2.9v1.7h1
			v4.6h-1v1.7h3.9v-1.7h-1V78.9z M403.2,76.2h-1.8v1.9h1.8V76.2z M405.6,78.9v2.7h1.6v-0.9h2.3l-4.1,4.8v1.5h6.5v-2.6h-1.6v0.9h-2.5
			l3.9-4.7v-1.6H405.6z M419.8,86.9h2.9v-1.7h-1v-4.6h1v-1.7h-2.9V80c-0.6-0.9-1.5-1.3-2.5-1.3c-2.3,0-4.2,1.9-4.2,4.3
			c0,2.3,1.8,4.2,4.1,4.2c1,0,2-0.4,2.6-1.3V86.9z M417.4,85.3c-1.3,0-2.4-1.1-2.4-2.4c0-1.4,1.1-2.5,2.4-2.5c1.3,0,2.4,1.1,2.4,2.4
			C419.8,84.2,418.7,85.3,417.4,85.3 M429.9,84.2c-0.3,0.7-1.1,1.1-1.9,1.1c-1.3,0-2.4-1.1-2.4-2.4c0-1.3,1-2.4,2.4-2.4
			c0.4,0,0.8,0.1,1.1,0.3c0.3,0.2,0.6,0.5,0.9,0.8h1.7v-2.7h-1.6v0.8c-0.6-0.6-1.4-1-2.3-1c-2.3,0-4,2-4,4.2c0,2.3,1.9,4.2,4.2,4.2
			c1.8,0,3.5-1.2,4-2.9H429.9z M436.2,78.9h-2.9v1.7h1v4.6h-1.1v1.7h3.9v-1.7h-1V78.9z M436.2,76.2h-1.8v1.9h1.8V76.2z M442.6,87.1
			c2.4,0,4.2-1.9,4.2-4.3c0-2.3-1.9-4.2-4.2-4.2c-2.3,0-4.2,1.9-4.2,4.2C438.4,85.2,440.3,87.1,442.6,87.1 M442.6,85.3
			c-1.4,0-2.4-1.1-2.4-2.5c0-1.3,1.1-2.4,2.4-2.4c1.3,0,2.4,1.1,2.4,2.4C445,84.2,444,85.3,442.6,85.3 M440.9,77.9L445,76l-0.8-1.6
			l-4,2.3L440.9,77.9z M449,85.2h-1v1.7h3.9v-1.7h-1v-2.3c0-0.5,0-1.2,0.3-1.7c0.3-0.5,0.9-0.7,1.5-0.7c0.5,0,1.1,0.2,1.4,0.6
			c0.3,0.4,0.3,0.9,0.3,1.4v2.6h-1v1.7h3.9v-1.7h-1v-3.1c0-0.9,0-1.6-0.7-2.4c-0.6-0.6-1.4-1-2.3-1c-1,0-1.9,0.4-2.4,1.3v-1.1H448
			v1.7h1V85.2z M470.2,86.9h2.9v-1.7h-1v-9h-2.9v1.7h1.1v2.2c-0.6-0.8-1.6-1.3-2.6-1.3c-2.3,0-4.1,1.9-4.1,4.1
			c0,2.2,1.8,4.1,4.1,4.1c1.1,0,2-0.4,2.6-1.3V86.9z M467.8,85.3c-1.3,0-2.4-1.1-2.4-2.4c0-1.4,1.1-2.5,2.4-2.5
			c1.3,0,2.4,1.1,2.4,2.4C470.2,84.2,469.2,85.3,467.8,85.3 M480.2,84.6c-0.5,0.7-1.1,1-1.9,1c-1.1,0-2.2-0.8-2.4-1.9h6.5l0.1-0.6
			c0-1.1-0.3-2.2-1.1-3c-0.8-0.8-1.9-1.3-3-1.3c-2.4,0-4.2,1.9-4.2,4.3c0,2.4,1.9,4.2,4.2,4.2c1.7,0,3.1-1,3.8-2.6H480.2z
			 M475.9,82.2c0.2-1,1.3-1.9,2.3-1.9c1.2,0,2.2,0.7,2.5,1.9H475.9z M489,86.9h7.9v-3.2h-2v1.5h-2.7v-2.8h3.1v-1.6h-3.1V78h2.7v1.4
			h2v-3.2H489v1.7h1.2v7.3H489V86.9z M498.5,84.6v2.3h1.4v-0.7c0.5,0.6,1.3,0.9,2.1,0.9c1.5,0,2.9-0.9,2.9-2.5c0-1.8-1.5-2.3-3-2.6
			c-0.6-0.1-1.3-0.3-1.3-1c0-0.6,0.5-0.8,1-0.8c0.6,0,1,0.4,1,0.9h1.8v-2.2H503v0.6c-0.4-0.6-1.1-0.7-1.8-0.7
			c-1.4,0-2.7,0.9-2.7,2.4c0,1.8,1.5,2.2,2.9,2.6c0.6,0.2,1.4,0.3,1.4,1.1c0,0.6-0.5,1-1.1,1c-0.8,0-1.2-0.5-1.3-1.2H498.5z
			 M509,80.6h1.4v-1.7H509v-2.7h-1.8v2.7h-1.3v1.7h1.3v6.3h3.3v-1.7H509V80.6z M518.5,86.9h2.9v-1.7h-1v-4.6h1v-1.7h-2.9V80
			c-0.6-0.9-1.5-1.3-2.5-1.3c-2.3,0-4.2,1.9-4.2,4.3c0,2.3,1.8,4.2,4.1,4.2c1.1,0,2-0.4,2.6-1.3V86.9z M516.1,85.3
			c-1.3,0-2.4-1.1-2.4-2.4c0-1.4,1-2.5,2.4-2.5c1.3,0,2.4,1.1,2.4,2.4C518.5,84.2,517.4,85.3,516.1,85.3 M529.1,86.9h2.9v-1.7h-1v-9
			h-2.9v1.7h1v2.2c-0.6-0.8-1.6-1.3-2.6-1.3c-2.3,0-4.1,1.9-4.1,4.1c0,2.2,1.8,4.1,4.1,4.1c1.1,0,2-0.4,2.6-1.3V86.9z M526.8,85.3
			c-1.3,0-2.4-1.1-2.4-2.4c0-1.4,1.1-2.5,2.4-2.5c1.3,0,2.4,1.1,2.4,2.4C529.2,84.2,528.1,85.3,526.8,85.3 M537.3,87.1
			c2.4,0,4.2-1.9,4.2-4.3c0-2.3-1.9-4.2-4.2-4.2c-2.3,0-4.2,1.9-4.2,4.2C533.1,85.2,534.9,87.1,537.3,87.1 M537.3,85.3
			c-1.4,0-2.4-1.1-2.4-2.5c0-1.3,1.1-2.4,2.4-2.4c1.3,0,2.4,1.1,2.4,2.4C539.7,84.2,538.6,85.3,537.3,85.3 M542.7,84.6v2.3h1.4v-0.7
			c0.5,0.6,1.3,0.9,2.1,0.9c1.5,0,2.9-0.9,2.9-2.5c0-1.8-1.5-2.3-3-2.6c-0.6-0.1-1.3-0.3-1.3-1c0-0.6,0.5-0.8,1-0.8
			c0.6,0,1,0.4,1,0.9h1.8v-2.2h-1.3v0.6c-0.5-0.6-1.1-0.7-1.8-0.7c-1.4,0-2.7,0.9-2.7,2.4c0,1.8,1.5,2.2,2.9,2.6
			c0.6,0.2,1.4,0.3,1.4,1.1c0,0.6-0.5,1-1.1,1c-0.8,0-1.2-0.5-1.3-1.2H542.7z"/>
		<path fill="#B9007C" d="M137.5,97.9h1.2v-1.7h-4.4v1.7h1.2v7.3h-1.2v1.7h4.4v-1.7h-1.2V97.9z M142.9,96.2h-2.9v1.7h1v7.3h-1v1.7
			h2.9v-1.2c0.6,0.9,1.6,1.3,2.7,1.3c1.1,0,2.1-0.5,2.8-1.3c0.7-0.8,1.1-1.8,1.1-2.8c0-2.3-1.9-4.1-4.1-4.1c-1,0-1.9,0.4-2.5,1.3
			V96.2z M145.3,100.4c1.3,0,2.4,1.1,2.4,2.4c0,1.3-1,2.5-2.4,2.5c-1.4,0-2.5-1.1-2.5-2.5C142.9,101.5,143.9,100.4,145.3,100.4
			 M156.7,104.6c-0.4,0.7-1.1,1-1.9,1c-1.1,0-2.2-0.8-2.4-1.9h6.5l0.1-0.6c0-1.1-0.3-2.2-1.1-3c-0.8-0.8-1.9-1.3-3-1.3
			c-2.4,0-4.2,1.9-4.2,4.3c0,2.4,1.9,4.2,4.2,4.2c1.7,0,3.1-1,3.8-2.6H156.7z M152.4,102.2c0.2-1.1,1.3-1.9,2.3-1.9
			c1.2,0,2.2,0.7,2.5,1.9H152.4z M162.9,98.9h-2.7v1.7h1v4.6h-1v1.7h3.9v-1.7h-1v-2c0-0.8,0.1-1.4,0.7-1.9c0.5-0.4,1-0.6,1.6-0.6
			v-1.9c-1,0-1.9,0.5-2.4,1.5V98.9z M170.8,107.1c2.4,0,4.2-1.9,4.2-4.3c0-2.3-1.9-4.2-4.2-4.2c-2.3,0-4.2,1.9-4.2,4.2
			C166.6,105.2,168.5,107.1,170.8,107.1 M170.8,105.3c-1.4,0-2.4-1.1-2.4-2.5c0-1.3,1.1-2.4,2.4-2.4c1.3,0,2.4,1.1,2.4,2.4
			C173.2,104.2,172.1,105.3,170.8,105.3 M182.8,106.9h2.9v-1.7h-1v-4.6h1v-1.7h-2.9v1.1c-0.6-0.9-1.5-1.4-2.5-1.4
			c-2.3,0-4.2,1.9-4.2,4.3c0,2.3,1.8,4.2,4.1,4.2c1.1,0,2-0.4,2.6-1.3V106.9z M180.4,105.3c-1.3,0-2.4-1.1-2.4-2.4
			c0-1.4,1.1-2.5,2.4-2.5c1.3,0,2.4,1.1,2.4,2.4C182.8,104.2,181.7,105.3,180.4,105.3 M187.9,105.2h-1v1.7h3.9v-1.7h-1v-2.5
			c0-0.6,0-1.1,0.4-1.6c0.3-0.4,0.8-0.6,1.3-0.6c0.5,0,1.1,0.3,1.3,0.7c0.2,0.4,0.2,1,0.2,1.5v2.5h-1v1.7h3.9v-1.7h-1v-2.6
			c0-0.6,0-1,0.4-1.5c0.3-0.4,0.9-0.6,1.3-0.6c0.5,0,1,0.2,1.3,0.7c0.2,0.5,0.2,0.9,0.2,1.5v2.6h-1v1.7h3.9v-1.7h-1v-3
			c0-0.9,0-1.7-0.6-2.4c-0.6-0.7-1.4-1-2.3-1c-1.1,0-2.2,0.7-2.6,1.7c-0.4-1-1.4-1.7-2.5-1.7c-1,0-1.8,0.6-2.3,1.4v-1.2h-2.7v1.7h1
			V105.2z M208.3,104.6c-0.4,0.7-1.1,1-1.9,1c-1.1,0-2.2-0.8-2.4-1.9h6.5l0.1-0.6c0-1.1-0.3-2.2-1.1-3c-0.8-0.8-1.9-1.3-3-1.3
			c-2.4,0-4.2,1.9-4.2,4.3c0,2.4,1.9,4.2,4.2,4.2c1.7,0,3.1-1,3.8-2.6H208.3z M203.9,102.2c0.2-1.1,1.3-1.9,2.3-1.9
			c1.2,0,2.2,0.7,2.5,1.9H203.9z M214.4,98.9h-2.7v1.7h1v4.6h-1v1.7h3.9v-1.7h-1v-2c0-0.8,0.1-1.4,0.7-1.9c0.5-0.4,1-0.6,1.6-0.6
			v-1.9c-1,0-1.9,0.5-2.4,1.5V98.9z M221.1,98.9h-2.9v1.7h1v4.6h-1.1v1.7h3.9v-1.7h-1V98.9z M221.1,96.2h-1.8v1.9h1.8V96.2z
			 M229.5,104.2c-0.3,0.7-1.1,1.1-1.9,1.1c-1.3,0-2.4-1.1-2.4-2.4c0-1.3,1-2.4,2.4-2.4c0.4,0,0.8,0.1,1.1,0.3
			c0.3,0.2,0.6,0.5,0.9,0.8h1.7v-2.7h-1.6v0.8c-0.6-0.6-1.4-1-2.3-1c-2.3,0-4,2-4,4.2c0,2.3,1.9,4.2,4.2,4.2c1.8,0,3.5-1.2,4-2.9
			H229.5z M239.5,106.9h2.9v-1.7h-1v-4.6h1v-1.7h-2.9v1.1c-0.6-0.9-1.5-1.4-2.5-1.4c-2.3,0-4.2,1.9-4.2,4.3c0,2.3,1.8,4.2,4.1,4.2
			c1,0,2-0.4,2.6-1.3V106.9z M237.1,105.3c-1.3,0-2.4-1.1-2.4-2.4c0-1.4,1-2.5,2.4-2.5c1.3,0,2.4,1.1,2.4,2.4
			C239.5,104.2,238.4,105.3,237.1,105.3 M244.5,105.2h-1v1.7h3.9v-1.7h-1v-2.3c0-0.5,0-1.2,0.3-1.7c0.3-0.4,0.9-0.7,1.5-0.7
			c0.5,0,1.1,0.2,1.4,0.6c0.3,0.4,0.3,0.9,0.3,1.4v2.6h-1v1.7h3.9v-1.7h-1v-3.1c0-0.9,0-1.6-0.7-2.4c-0.6-0.6-1.4-1-2.3-1
			c-1,0-1.9,0.4-2.4,1.3v-1.1h-2.9v1.7h1V105.2z M258,107.1c2.4,0,4.2-1.9,4.2-4.3c0-2.3-1.9-4.2-4.2-4.2c-2.3,0-4.2,1.9-4.2,4.2
			C253.8,105.2,255.6,107.1,258,107.1 M258,105.3c-1.4,0-2.4-1.1-2.4-2.5c0-1.3,1.1-2.4,2.4-2.4c1.3,0,2.4,1.1,2.4,2.4
			C260.4,104.2,259.3,105.3,258,105.3 M263.4,104.6v2.3h1.4v-0.7c0.5,0.6,1.3,0.9,2.1,0.9c1.5,0,2.9-0.9,2.9-2.5
			c0-1.8-1.5-2.3-3-2.6c-0.6-0.1-1.3-0.3-1.3-1.1c0-0.6,0.5-0.8,1-0.8c0.6,0,1,0.4,1,0.9h1.8v-2.2h-1.4v0.6
			c-0.5-0.6-1.1-0.7-1.8-0.7c-1.4,0-2.7,0.9-2.7,2.4c0,1.8,1.5,2.2,2.9,2.6c0.6,0.2,1.4,0.3,1.4,1.1c0,0.6-0.5,1-1.1,1
			c-0.8,0-1.2-0.5-1.3-1.2H263.4z M280.9,106.6c-1.5-0.8-2.4-2.4-2.4-4.1c0-1.7,0.9-3.3,2.4-4.1v-2.2c-2.7,0.9-4.4,3.6-4.4,6.3
			c0,2.8,1.8,5.4,4.4,6.4V106.6z M288,107.1c3.1,0,5.6-2.5,5.6-5.7c0-3-2.5-5.5-5.6-5.5c-3.1,0-5.7,2.5-5.7,5.6
			C282.4,104.6,284.9,107.1,288,107.1 M288,105.1c-2,0-3.5-1.6-3.5-3.6c0-2,1.6-3.5,3.5-3.5c1.9,0,3.5,1.6,3.5,3.5
			C291.5,103.5,290,105.1,288,105.1 M294.9,106.9h7.9v-3.2h-2v1.5h-2.7v-2.8h3.1v-1.6h-3.1V98h2.7v1.4h2v-3.2h-7.9v1.7h1.2v7.3h-1.2
			V106.9z M307.5,97.9h1.2v-1.7h-4.4v1.7h1.2v7.3h-1.2v1.7h4.4v-1.7h-1.2V97.9z M310.4,98.4c1.5,0.9,2.4,2.4,2.4,4.1
			c0,1.6-0.9,3.3-2.4,4.1v2.3c2.7-0.9,4.4-3.5,4.4-6.4c0-2.8-1.8-5.5-4.4-6.3V98.4z"/>
		<path fill="#009ADA" d="M324.4,96.2h-2.9v1.7h1v7.3h-1v1.7h3.9v-1.7h-1v-2.4c0-0.6,0-1.1,0.4-1.6c0.3-0.4,0.8-0.6,1.4-0.6
			c0.6,0,1.1,0.2,1.5,0.7c0.3,0.5,0.3,1.1,0.3,1.7v2.3h-1v1.7h3.9v-1.7h-1v-2.8c0-1-0.1-1.7-0.7-2.5c-0.5-0.7-1.3-1.2-2.3-1.2
			c-1,0-1.9,0.5-2.4,1.4V96.2z M338.5,106.9h2.9v-1.7h-1v-4.6h1v-1.7h-2.9v1.1c-0.6-0.9-1.5-1.4-2.5-1.4c-2.3,0-4.2,1.9-4.2,4.3
			c0,2.3,1.8,4.2,4.1,4.2c1.1,0,2-0.4,2.6-1.3V106.9z M336.1,105.3c-1.3,0-2.4-1.1-2.4-2.4c0-1.4,1.1-2.5,2.4-2.5
			c1.3,0,2.4,1.1,2.4,2.4C338.5,104.2,337.4,105.3,336.1,105.3 M343.5,105.2h-1v1.7h3.9v-1.7h-1v-2.3c0-0.5,0-1.2,0.3-1.7
			c0.3-0.4,0.9-0.7,1.5-0.7c0.5,0,1.1,0.2,1.4,0.6c0.3,0.4,0.3,0.9,0.3,1.4v2.6h-1v1.7h3.9v-1.7h-1v-3.1c0-0.9,0-1.6-0.7-2.4
			c-0.6-0.6-1.4-1-2.3-1c-1,0-1.9,0.4-2.4,1.3v-1.1h-2.9v1.7h1V105.2z M364.2,104.2c-0.3,0.7-1.1,1.1-1.9,1.1
			c-1.3,0-2.4-1.1-2.4-2.4c0-1.3,1-2.4,2.4-2.4c0.4,0,0.8,0.1,1.1,0.3c0.3,0.2,0.6,0.5,0.9,0.8h1.7v-2.7h-1.6v0.8
			c-0.6-0.6-1.4-1-2.3-1c-2.3,0-4,2-4,4.2c0,2.3,1.9,4.2,4.2,4.2c1.8,0,3.5-1.2,4-2.9H364.2z M371.7,107.1c2.4,0,4.2-1.9,4.2-4.3
			c0-2.3-1.9-4.2-4.2-4.2c-2.3,0-4.2,1.9-4.2,4.2C367.5,105.2,369.3,107.1,371.7,107.1 M371.7,105.3c-1.4,0-2.4-1.1-2.4-2.5
			c0-1.3,1.1-2.4,2.4-2.4c1.3,0,2.4,1.1,2.4,2.4C374.1,104.2,373,105.3,371.7,105.3 M378,105.2h-1v1.7h3.9v-1.7h-1v-2.3
			c0-0.5,0-1.2,0.3-1.7c0.3-0.4,0.9-0.7,1.5-0.7c0.5,0,1.1,0.2,1.4,0.6c0.3,0.4,0.3,0.9,0.3,1.4v2.6h-1v1.7h3.9v-1.7h-1v-3.1
			c0-0.9,0-1.6-0.7-2.4c-0.6-0.6-1.4-1-2.3-1c-1,0-1.9,0.4-2.4,1.3v-1.1H377v1.7h1V105.2z M395.1,100.6h0.9v-1.7h-3.7v1.7h0.9
			l-1.6,4.1h0l-1.5-4.1h0.8v-1.7h-3.7v1.7h1l2.5,6.3h1.9L395.1,100.6z M401.2,107.1c2.4,0,4.2-1.9,4.2-4.3c0-2.3-1.9-4.2-4.2-4.2
			c-2.3,0-4.2,1.9-4.2,4.2C397,105.2,398.9,107.1,401.2,107.1 M401.2,105.3c-1.4,0-2.4-1.1-2.4-2.5c0-1.3,1.1-2.4,2.4-2.4
			c1.3,0,2.4,1.1,2.4,2.4C403.6,104.2,402.5,105.3,401.2,105.3 M412.6,104.2c-0.3,0.7-1.1,1.1-1.9,1.1c-1.3,0-2.4-1.1-2.4-2.4
			c0-1.3,1-2.4,2.4-2.4c0.4,0,0.8,0.1,1.1,0.3c0.3,0.2,0.6,0.5,0.9,0.8h1.7v-2.7h-1.6v0.8c-0.6-0.6-1.4-1-2.3-1c-2.3,0-4,2-4,4.2
			c0,2.3,1.9,4.2,4.2,4.2c1.8,0,3.5-1.2,4-2.9H412.6z M422.6,106.9h2.9v-1.7h-1v-4.6h1v-1.7h-2.9v1.1c-0.6-0.9-1.5-1.4-2.5-1.4
			c-2.3,0-4.2,1.9-4.2,4.3c0,2.3,1.8,4.2,4.1,4.2c1.1,0,2-0.4,2.6-1.3V106.9z M420.2,105.3c-1.3,0-2.4-1.1-2.4-2.4
			c0-1.4,1.1-2.5,2.4-2.5c1.3,0,2.4,1.1,2.4,2.4C422.6,104.2,421.6,105.3,420.2,105.3 M433.3,106.9h2.9v-1.7h-1v-9h-2.9v1.7h1.1v2.2
			c-0.6-0.8-1.6-1.3-2.6-1.3c-2.3,0-4.1,1.9-4.1,4.1c0,2.2,1.8,4.1,4.1,4.1c1.1,0,2-0.4,2.6-1.3V106.9z M430.9,105.3
			c-1.3,0-2.4-1.1-2.4-2.4c0-1.4,1.1-2.5,2.4-2.5c1.3,0,2.4,1.1,2.4,2.4C433.3,104.2,432.3,105.3,430.9,105.3 M441.4,107.1
			c2.4,0,4.2-1.9,4.2-4.3c0-2.3-1.9-4.2-4.2-4.2c-2.3,0-4.2,1.9-4.2,4.2C437.2,105.2,439.1,107.1,441.4,107.1 M441.4,105.3
			c-1.4,0-2.4-1.1-2.4-2.5c0-1.3,1.1-2.4,2.4-2.4c1.3,0,2.4,1.1,2.4,2.4C443.8,104.2,442.7,105.3,441.4,105.3 M458.6,106.9h2.9v-1.7
			h-1v-4.6h1v-1.7h-2.9v1.1c-0.6-0.9-1.5-1.4-2.5-1.4c-2.3,0-4.2,1.9-4.2,4.3c0,2.3,1.8,4.2,4.1,4.2c1.1,0,2-0.4,2.6-1.3V106.9z
			 M456.2,105.3c-1.3,0-2.4-1.1-2.4-2.4c0-1.4,1-2.5,2.4-2.5c1.3,0,2.4,1.1,2.4,2.4C458.6,104.2,457.6,105.3,456.2,105.3 M472,107.1
			c2.4,0,4.2-1.9,4.2-4.3c0-2.3-1.9-4.2-4.2-4.2c-2.3,0-4.2,1.9-4.2,4.2C467.8,105.2,469.7,107.1,472,107.1 M472,105.3
			c-1.4,0-2.4-1.1-2.4-2.5c0-1.3,1.1-2.4,2.4-2.4c1.3,0,2.4,1.1,2.4,2.4C474.4,104.2,473.3,105.3,472,105.3 M480.1,98.9h-2.7v1.7h1
			v4.6h-1v1.7h3.9v-1.7h-1v-2c0-0.8,0.1-1.4,0.7-1.9c0.5-0.4,1-0.6,1.6-0.6v-1.9c-1,0-1.9,0.5-2.4,1.5V98.9z M484.3,107.6
			c0.4,1.7,2.2,2.6,3.8,2.6c1.2,0,2.3-0.4,3.1-1.2c0.9-0.9,1-1.9,1-3.1v-5.2h1v-1.7h-2.7v1.2c-0.6-0.9-1.6-1.3-2.7-1.3
			c-2.2,0-4.1,1.9-4.1,4.1c0,2.2,1.8,4.1,4.1,4.1c1.1,0,2-0.4,2.6-1.3v0.3c0,0.8,0,1.3-0.6,1.9c-0.4,0.5-1.1,0.7-1.7,0.7
			c-0.7,0-1.5-0.3-1.8-1H484.3z M485.7,102.9c0-1.3,1.1-2.4,2.4-2.4s2.4,1.1,2.4,2.4c0,1.4-1,2.5-2.4,2.5
			C486.8,105.3,485.7,104.2,485.7,102.9 M501.2,106.9h2.9v-1.7h-1v-4.6h1v-1.7h-2.9v1.1c-0.6-0.9-1.5-1.4-2.5-1.4
			c-2.3,0-4.2,1.9-4.2,4.3c0,2.3,1.8,4.2,4.1,4.2c1.1,0,2-0.4,2.6-1.3V106.9z M498.8,105.3c-1.3,0-2.4-1.1-2.4-2.4
			c0-1.4,1-2.5,2.4-2.5c1.3,0,2.4,1.1,2.4,2.4C501.2,104.2,500.1,105.3,498.8,105.3 M506.2,105.2h-1v1.7h3.9v-1.7h-1v-2.3
			c0-0.5,0-1.2,0.3-1.7c0.3-0.4,0.9-0.7,1.5-0.7c0.5,0,1.1,0.2,1.4,0.6c0.3,0.4,0.3,0.9,0.3,1.4v2.6h-1v1.7h3.9v-1.7h-1v-3.1
			c0-0.9,0-1.6-0.7-2.4c-0.6-0.6-1.4-1-2.3-1c-1,0-1.9,0.4-2.4,1.3v-1.1h-2.9v1.7h1V105.2z M518.5,98.9h-2.9v1.7h1v4.6h-1v1.7h3.9
			v-1.7h-1V98.9z M518.5,96.2h-1.8v1.9h1.8V96.2z M520.9,104.6v2.3h1.4v-0.7c0.5,0.6,1.3,0.9,2.1,0.9c1.5,0,2.9-0.9,2.9-2.5
			c0-1.8-1.5-2.3-3-2.6c-0.6-0.1-1.3-0.3-1.3-1.1c0-0.6,0.5-0.8,1-0.8c0.6,0,1,0.4,1,0.9h1.8v-2.2h-1.4v0.6
			c-0.4-0.6-1.1-0.7-1.8-0.7c-1.4,0-2.7,0.9-2.7,2.4c0,1.8,1.5,2.2,2.9,2.6c0.6,0.2,1.4,0.3,1.4,1.1c0,0.6-0.5,1-1.1,1
			c-0.8,0-1.2-0.5-1.3-1.2H520.9z M529.5,105.2h-1v1.7h3.9v-1.7h-1v-2.5c0-0.6,0-1.1,0.4-1.6c0.3-0.4,0.8-0.6,1.3-0.6
			c0.5,0,1.1,0.3,1.3,0.7c0.2,0.4,0.2,1,0.2,1.5v2.5h-1v1.7h3.9v-1.7h-1v-2.6c0-0.6,0-1,0.4-1.5c0.3-0.4,0.9-0.6,1.3-0.6
			c0.5,0,1,0.2,1.3,0.7c0.2,0.5,0.2,0.9,0.2,1.5v2.6h-1v1.7h3.9v-1.7h-1v-3c0-0.9,0-1.7-0.6-2.4c-0.6-0.7-1.4-1-2.3-1
			c-1.1,0-2.2,0.7-2.6,1.7c-0.5-1-1.4-1.7-2.5-1.7c-1,0-1.8,0.6-2.3,1.4v-1.2h-2.7v1.7h1V105.2z M548,107.1c2.4,0,4.2-1.9,4.2-4.3
			c0-2.3-1.9-4.2-4.2-4.2c-2.3,0-4.2,1.9-4.2,4.2C543.8,105.2,545.7,107.1,548,107.1 M548,105.3c-1.4,0-2.4-1.1-2.4-2.5
			c0-1.3,1.1-2.4,2.4-2.4c1.3,0,2.4,1.1,2.4,2.4C550.4,104.2,549.4,105.3,548,105.3 M553.5,104.6v2.3h1.4v-0.7
			c0.5,0.6,1.3,0.9,2.1,0.9c1.5,0,2.9-0.9,2.9-2.5c0-1.8-1.5-2.3-3-2.6c-0.6-0.1-1.3-0.3-1.3-1.1c0-0.6,0.5-0.8,1-0.8
			c0.6,0,1,0.4,1,0.9h1.8v-2.2H558v0.6c-0.5-0.6-1.1-0.7-1.8-0.7c-1.4,0-2.7,0.9-2.7,2.4c0,1.8,1.5,2.2,2.9,2.6
			c0.6,0.2,1.4,0.3,1.4,1.1c0,0.6-0.5,1-1.1,1c-0.8,0-1.2-0.5-1.3-1.2H553.5z"/>
		<path fill="#009ADA" d="M140.8,126.9h2.9v-1.7h-1v-9h-2.9v1.7h1v2.2c-0.6-0.8-1.6-1.3-2.6-1.3c-2.3,0-4.1,1.9-4.1,4.1
			c0,2.2,1.8,4.1,4.1,4.1c1.1,0,2-0.4,2.6-1.3V126.9z M138.5,125.3c-1.3,0-2.4-1.1-2.4-2.4c0-1.4,1.1-2.5,2.4-2.5
			c1.3,0,2.4,1.1,2.4,2.4C140.9,124.2,139.8,125.3,138.5,125.3 M150.9,124.6c-0.4,0.7-1.1,1-1.9,1c-1.1,0-2.2-0.8-2.4-1.9h6.5
			l0.1-0.6c0-1.1-0.3-2.2-1.1-3c-0.8-0.8-1.9-1.3-3-1.3c-2.4,0-4.2,1.9-4.2,4.3c0,2.4,1.9,4.2,4.2,4.2c1.7,0,3.2-1,3.8-2.6H150.9z
			 M146.5,122.2c0.2-1,1.3-1.9,2.3-1.9c1.2,0,2.2,0.7,2.5,1.9H146.5z M162.3,118.9h-2.7v1.7h1v4.6h-1v1.7h3.9v-1.7h-1v-2
			c0-0.8,0.1-1.4,0.7-1.9c0.5-0.4,1-0.6,1.6-0.6v-1.9c-1,0-1.9,0.5-2.4,1.5V118.9z M172.1,124.6c-0.4,0.7-1.1,1-1.9,1
			c-1.1,0-2.2-0.8-2.4-1.9h6.5l0.1-0.6c0-1.1-0.3-2.2-1.1-3c-0.8-0.8-1.9-1.3-3-1.3c-2.4,0-4.2,1.9-4.2,4.3c0,2.4,1.9,4.2,4.2,4.2
			c1.7,0,3.1-1,3.8-2.6H172.1z M167.8,122.2c0.2-1,1.3-1.9,2.3-1.9c1.2,0,2.2,0.7,2.5,1.9H167.8z M181.7,124.2
			c-0.3,0.7-1.1,1.1-1.9,1.1c-1.3,0-2.4-1.1-2.4-2.4c0-1.3,1-2.4,2.4-2.4c0.4,0,0.8,0.1,1.1,0.3c0.3,0.2,0.6,0.5,0.9,0.8h1.7v-2.7
			h-1.6v0.8c-0.6-0.6-1.4-1-2.3-1c-2.3,0-4,2-4,4.2c0,2.3,1.9,4.2,4.2,4.2c1.8,0,3.5-1.2,4-2.9H181.7z M189.1,127.1
			c2.4,0,4.2-1.9,4.2-4.3c0-2.3-1.9-4.2-4.2-4.2c-2.3,0-4.2,1.9-4.2,4.2C184.9,125.2,186.8,127.1,189.1,127.1 M189.1,125.3
			c-1.4,0-2.4-1.1-2.4-2.5c0-1.3,1.1-2.4,2.4-2.4c1.3,0,2.4,1.1,2.4,2.4C191.5,124.2,190.5,125.3,189.1,125.3 M195.5,125.2h-1v1.7
			h3.9v-1.7h-1v-2.3c0-0.5,0-1.2,0.3-1.7c0.3-0.4,0.9-0.7,1.5-0.7c0.5,0,1.1,0.2,1.4,0.6c0.3,0.4,0.3,0.9,0.3,1.4v2.6h-1v1.7h3.9
			v-1.7h-1v-3.1c0-0.9,0-1.6-0.7-2.4c-0.6-0.6-1.4-1-2.3-1c-1,0-1.9,0.4-2.4,1.3v-1.1h-2.9v1.7h1V125.2z M208.9,127.1
			c2.4,0,4.2-1.9,4.2-4.3c0-2.3-1.9-4.2-4.2-4.2c-2.3,0-4.2,1.9-4.2,4.2C204.7,125.2,206.6,127.1,208.9,127.1 M208.9,125.3
			c-1.4,0-2.4-1.1-2.4-2.5c0-1.3,1.1-2.4,2.4-2.4c1.3,0,2.4,1.1,2.4,2.4C211.3,124.2,210.3,125.3,208.9,125.3 M220.4,124.2
			c-0.3,0.7-1.1,1.1-1.9,1.1c-1.3,0-2.4-1.1-2.4-2.4c0-1.3,1-2.4,2.4-2.4c0.4,0,0.8,0.1,1.1,0.3c0.3,0.2,0.6,0.5,0.9,0.8h1.7v-2.7
			h-1.6v0.8c-0.6-0.6-1.4-1-2.3-1c-2.3,0-4,2-4,4.2c0,2.3,1.9,4.2,4.2,4.2c1.8,0,3.5-1.2,4-2.9H220.4z M226.6,118.9h-2.9v1.7h1v4.6
			h-1v1.7h3.9v-1.7h-1V118.9z M226.6,116.2h-1.8v1.9h1.8V116.2z M235.6,126.9h2.9v-1.7h-1v-9h-2.9v1.7h1.1v2.2
			c-0.6-0.8-1.6-1.3-2.6-1.3c-2.3,0-4.1,1.9-4.1,4.1c0,2.2,1.8,4.1,4.1,4.1c1.1,0,2-0.4,2.6-1.3V126.9z M233.2,125.3
			c-1.3,0-2.4-1.1-2.4-2.4c0-1.4,1.1-2.5,2.4-2.5c1.3,0,2.4,1.1,2.4,2.4C235.6,124.2,234.6,125.3,233.2,125.3 M243.7,127.1
			c2.4,0,4.2-1.9,4.2-4.3c0-2.3-1.9-4.2-4.2-4.2c-2.3,0-4.2,1.9-4.2,4.2C239.5,125.2,241.4,127.1,243.7,127.1 M243.7,125.3
			c-1.4,0-2.4-1.1-2.4-2.5c0-1.3,1.1-2.4,2.4-2.4c1.3,0,2.4,1.1,2.4,2.4C246.1,124.2,245.1,125.3,243.7,125.3 M255.3,128.1h-1v1.7
			h3.9v-1.7h-1v-2.3c0.6,0.8,1.7,1.2,2.7,1.2c2.2,0,4-1.9,4-4.1c0-2.3-1.8-4.1-4.1-4.1c-1.1,0-2,0.4-2.6,1.4v-1.3h-2.9v1.7h1V128.1z
			 M259.6,125.3c-1.3,0-2.4-1.1-2.4-2.4c0-1.4,1.1-2.4,2.5-2.4c1.3,0,2.4,1.1,2.4,2.4C262,124.3,260.9,125.3,259.6,125.3
			 M267.7,118.9H265v1.7h1v4.6h-1v1.7h3.9v-1.7h-1v-2c0-0.8,0.1-1.4,0.7-1.9c0.5-0.4,1-0.6,1.6-0.6v-1.9c-1,0-1.9,0.5-2.4,1.5V118.9
			z M277.6,124.6c-0.5,0.7-1.1,1-1.9,1c-1.1,0-2.2-0.8-2.4-1.9h6.5l0.1-0.6c0-1.1-0.3-2.2-1.1-3c-0.8-0.8-1.9-1.3-3-1.3
			c-2.4,0-4.2,1.9-4.2,4.3c0,2.4,1.9,4.2,4.2,4.2c1.7,0,3.1-1,3.8-2.6H277.6z M273.2,122.2c0.2-1,1.3-1.9,2.3-1.9
			c1.2,0,2.2,0.7,2.5,1.9H273.2z M281.1,124.6v2.3h1.4v-0.7c0.5,0.6,1.3,0.9,2.1,0.9c1.5,0,2.9-0.9,2.9-2.5c0-1.8-1.5-2.3-3-2.6
			c-0.6-0.1-1.3-0.3-1.3-1c0-0.6,0.5-0.8,1-0.8c0.6,0,1,0.4,1,0.9h1.8v-2.2h-1.4v0.6c-0.4-0.6-1.1-0.7-1.8-0.7
			c-1.4,0-2.7,0.9-2.7,2.4c0,1.8,1.5,2.2,2.9,2.5c0.6,0.2,1.4,0.3,1.4,1.1c0,0.6-0.5,1-1.1,1c-0.8,0-1.2-0.5-1.3-1.2H281.1z
			 M291.6,120.6h1.4v-1.7h-1.4v-2.7h-1.8v2.7h-1.3v1.7h1.3v6.3h3.3v-1.7h-1.5V120.6z M297.4,118.9h-2.9v1.7h1v4.6h-1v1.7h3.9v-1.7
			h-1V118.9z M297.4,116.2h-1.8v1.9h1.8V116.2z M300.1,127.6c0.4,1.7,2.2,2.6,3.8,2.6c1.2,0,2.3-0.4,3.1-1.2c0.9-0.9,1-1.9,1-3.1
			v-5.2h1v-1.7h-2.7v1.2c-0.6-0.9-1.6-1.3-2.7-1.3c-2.2,0-4.1,1.9-4.1,4.1c0,2.2,1.8,4.1,4,4.1c1.1,0,2-0.4,2.6-1.3v0.3
			c0,0.8,0,1.3-0.6,1.9c-0.4,0.5-1.1,0.7-1.7,0.7c-0.7,0-1.5-0.3-1.8-1H300.1z M301.5,122.9c0-1.3,1.1-2.4,2.4-2.4s2.4,1.1,2.4,2.4
			c0,1.4-1,2.5-2.4,2.5C302.6,125.3,301.5,124.2,301.5,122.9 M313.3,118.9h-2.9v1.7h1v4.6h-1.1v1.7h3.9v-1.7h-1V118.9z M313.3,116.2
			h-1.8v1.9h1.8V116.2z M319.7,127.1c2.4,0,4.2-1.9,4.2-4.3c0-2.3-1.9-4.2-4.2-4.2c-2.3,0-4.2,1.9-4.2,4.2
			C315.5,125.2,317.4,127.1,319.7,127.1 M319.7,125.3c-1.4,0-2.4-1.1-2.4-2.5c0-1.3,1.1-2.4,2.4-2.4c1.3,0,2.4,1.1,2.4,2.4
			C322.1,124.2,321.1,125.3,319.7,125.3 M333.2,118.9h-2.9v1.7h1v4.6h-1v1.7h3.9v-1.7h-1V118.9z M333.2,116.2h-1.8v1.9h1.8V116.2z
			 M336.6,125.2h-1v1.7h3.9v-1.7h-1v-2.3c0-0.5,0-1.2,0.3-1.7c0.3-0.4,0.9-0.7,1.5-0.7c0.5,0,1.1,0.2,1.4,0.6
			c0.3,0.4,0.3,0.9,0.3,1.4v2.6h-1v1.7h3.9v-1.7h-1v-3.1c0-0.9,0-1.6-0.7-2.4c-0.6-0.6-1.4-1-2.3-1c-1,0-1.9,0.4-2.4,1.3v-1.1h-2.9
			v1.7h1V125.2z M348.9,120.6h1.4v-1.7h-1.4v-2.7h-1.8v2.7h-1.3v1.7h1.3v6.3h3.3v-1.7h-1.5V120.6z M357.8,124.6
			c-0.4,0.7-1.1,1-1.9,1c-1.1,0-2.2-0.8-2.4-1.9h6.5l0.1-0.6c0-1.1-0.3-2.2-1.1-3c-0.8-0.8-1.9-1.3-3-1.3c-2.4,0-4.2,1.9-4.2,4.3
			c0,2.4,1.9,4.2,4.2,4.2c1.7,0,3.1-1,3.8-2.6H357.8z M353.5,122.2c0.2-1,1.3-1.9,2.3-1.9c1.2,0,2.2,0.7,2.5,1.9H353.5z M364,118.9
			h-2.7v1.7h1v4.6h-1v1.7h3.9v-1.7h-1v-2c0-0.8,0.1-1.4,0.7-1.9c0.5-0.4,1-0.6,1.6-0.6v-1.9c-1,0-1.9,0.5-2.4,1.5V118.9z
			 M369.3,125.2h-1v1.7h3.9v-1.7h-1v-2.3c0-0.5,0-1.2,0.3-1.7c0.3-0.4,0.9-0.7,1.5-0.7c0.5,0,1.1,0.2,1.4,0.6
			c0.3,0.4,0.3,0.9,0.3,1.4v2.6h-1v1.7h3.9v-1.7h-1v-3.1c0-0.9,0-1.6-0.7-2.4c-0.6-0.6-1.4-1-2.3-1c-1,0-1.9,0.4-2.4,1.3v-1.1h-2.9
			v1.7h1V125.2z M385.2,126.9h2.9v-1.7h-1v-4.6h1v-1.7h-2.9v1.1c-0.6-0.9-1.5-1.4-2.5-1.4c-2.3,0-4.2,1.9-4.2,4.3
			c0,2.3,1.8,4.2,4.1,4.2c1.1,0,2-0.4,2.6-1.3V126.9z M382.8,125.3c-1.3,0-2.4-1.1-2.4-2.4c0-1.3,1-2.5,2.4-2.5
			c1.3,0,2.4,1.1,2.4,2.4C385.2,124.2,384.2,125.3,382.8,125.3 M395.3,124.2c-0.3,0.7-1.1,1.1-1.9,1.1c-1.3,0-2.4-1.1-2.4-2.4
			c0-1.3,1-2.4,2.4-2.4c0.4,0,0.8,0.1,1.1,0.3c0.3,0.2,0.6,0.5,0.9,0.8h1.7v-2.7h-1.6v0.8c-0.6-0.6-1.4-1-2.3-1c-2.3,0-4,2-4,4.2
			c0,2.3,1.9,4.2,4.2,4.2c1.8,0,3.5-1.2,4-2.9H395.3z M401.6,118.9h-2.9v1.7h1v4.6h-1v1.7h3.9v-1.7h-1V118.9z M401.6,116.2h-1.8v1.9
			h1.8V116.2z M408.1,127.1c2.4,0,4.2-1.9,4.2-4.3c0-2.3-1.9-4.2-4.2-4.2c-2.3,0-4.2,1.9-4.2,4.2
			C403.9,125.2,405.7,127.1,408.1,127.1 M408.1,125.3c-1.4,0-2.4-1.1-2.4-2.5c0-1.3,1.1-2.4,2.4-2.4c1.3,0,2.4,1.1,2.4,2.4
			C410.5,124.2,409.4,125.3,408.1,125.3 M414.4,125.2h-1v1.7h3.9v-1.7h-1v-2.3c0-0.5,0-1.2,0.3-1.7c0.3-0.4,0.9-0.7,1.5-0.7
			c0.5,0,1.1,0.2,1.4,0.6c0.3,0.4,0.3,0.9,0.3,1.4v2.6h-1v1.7h3.9v-1.7h-1v-3.1c0-0.9,0-1.6-0.7-2.4c-0.6-0.6-1.4-1-2.3-1
			c-1,0-1.9,0.4-2.4,1.3v-1.1h-2.9v1.7h1V125.2z M430.4,126.9h2.9v-1.7h-1v-4.6h1v-1.7h-2.9v1.1c-0.6-0.9-1.5-1.4-2.5-1.4
			c-2.3,0-4.2,1.9-4.2,4.3c0,2.3,1.8,4.2,4.1,4.2c1,0,2-0.4,2.6-1.3V126.9z M427.9,125.3c-1.3,0-2.4-1.1-2.4-2.4
			c0-1.3,1-2.5,2.4-2.5c1.3,0,2.4,1.1,2.4,2.4C430.4,124.2,429.3,125.3,427.9,125.3 M437.3,116.2h-2.9v1.7h1v7.3h-1.1v1.7h4v-1.7h-1
			V116.2z M445.9,128.1h-1v1.7h3.9v-1.7h-1v-2.3c0.6,0.8,1.7,1.2,2.7,1.2c2.2,0,4-1.9,4-4.1c0-2.3-1.8-4.1-4.1-4.1
			c-1.1,0-2,0.4-2.6,1.4v-1.3h-2.9v1.7h1V128.1z M450.2,125.3c-1.3,0-2.4-1.1-2.4-2.4c0-1.4,1.1-2.4,2.5-2.4c1.3,0,2.4,1.1,2.4,2.4
			C452.6,124.3,451.5,125.3,450.2,125.3 M462.2,126.9h2.9v-1.7h-1v-4.6h1v-1.7h-2.9v1.1c-0.6-0.9-1.5-1.4-2.5-1.4
			c-2.3,0-4.2,1.9-4.2,4.3c0,2.3,1.8,4.2,4.1,4.2c1.1,0,2-0.4,2.6-1.3V126.9z M459.7,125.3c-1.3,0-2.4-1.1-2.4-2.4
			c0-1.3,1.1-2.5,2.4-2.5c1.3,0,2.4,1.1,2.4,2.4C462.2,124.2,461.1,125.3,459.7,125.3 M468.9,118.9h-2.7v1.7h1v4.6h-1v1.7h3.9v-1.7
			h-1v-2c0-0.8,0.1-1.4,0.7-1.9c0.4-0.4,1-0.6,1.6-0.6v-1.9c-1,0-1.9,0.5-2.4,1.5V118.9z M479.3,126.9h2.9v-1.7h-1v-4.6h1v-1.7h-2.9
			v1.1c-0.6-0.9-1.5-1.4-2.5-1.4c-2.3,0-4.2,1.9-4.2,4.3c0,2.3,1.8,4.2,4.1,4.2c1,0,2-0.4,2.6-1.3V126.9z M476.8,125.3
			c-1.3,0-2.4-1.1-2.4-2.4c0-1.3,1.1-2.5,2.4-2.5c1.3,0,2.4,1.1,2.4,2.4C479.3,124.2,478.2,125.3,476.8,125.3"/>
		<path fill="#009ADA" d="M137.1,138.9h-2.9v1.7h1v4.6h-1.1v1.7h3.9v-1.7h-1V138.9z M137.1,136.2h-1.8v1.9h1.8V136.2z M140.5,145.2
			h-1v1.7h3.9v-1.7h-1v-2.3c0-0.5,0-1.2,0.3-1.7c0.3-0.5,0.9-0.7,1.5-0.7c0.5,0,1.1,0.2,1.4,0.6c0.3,0.4,0.3,0.9,0.3,1.4v2.6h-1v1.7
			h3.9v-1.7h-1v-3.1c0-0.9,0-1.6-0.7-2.4c-0.6-0.6-1.4-1-2.3-1c-1,0-1.9,0.4-2.4,1.3v-1.1h-2.9v1.7h1V145.2z M155.9,144.2
			c-0.3,0.7-1.1,1.1-1.9,1.1c-1.3,0-2.4-1-2.4-2.4c0-1.3,1-2.4,2.4-2.4c0.4,0,0.8,0.1,1.1,0.3c0.3,0.2,0.6,0.5,0.9,0.8h1.7v-2.7
			h-1.6v0.8c-0.6-0.6-1.4-1-2.3-1c-2.3,0-4,2-4,4.2c0,2.3,1.9,4.2,4.2,4.2c1.8,0,3.5-1.2,4-2.9H155.9z M163.4,147.1
			c2.4,0,4.2-1.9,4.2-4.3c0-2.3-1.9-4.2-4.2-4.2c-2.3,0-4.2,1.9-4.2,4.2C159.2,145.2,161,147.1,163.4,147.1 M163.4,145.3
			c-1.4,0-2.4-1.1-2.4-2.5c0-1.3,1.1-2.4,2.4-2.4c1.3,0,2.4,1.1,2.4,2.4C165.8,144.2,164.7,145.3,163.4,145.3 M171.4,138.9h-2.7v1.7
			h1v4.6h-1v1.7h3.9v-1.7h-1v-2c0-0.8,0.1-1.4,0.7-1.9c0.5-0.4,1-0.6,1.6-0.6v-1.9c-1,0-1.9,0.5-2.4,1.5V138.9z M176.2,148.1h-1v1.7
			h3.9v-1.7h-1v-2.3c0.6,0.8,1.7,1.2,2.7,1.2c2.2,0,4-1.9,4-4.1c0-2.3-1.8-4.1-4.1-4.1c-1.1,0-2,0.4-2.6,1.4v-1.3h-2.9v1.7h1V148.1z
			 M180.4,145.3c-1.3,0-2.4-1.1-2.4-2.4c0-1.4,1.1-2.4,2.5-2.4c1.3,0,2.4,1.1,2.4,2.4C182.8,144.3,181.7,145.3,180.4,145.3
			 M189.9,147.1c2.4,0,4.2-1.9,4.2-4.3c0-2.3-1.9-4.2-4.2-4.2c-2.3,0-4.2,1.9-4.2,4.2C185.7,145.2,187.6,147.1,189.9,147.1
			 M189.9,145.3c-1.4,0-2.4-1.1-2.4-2.5c0-1.3,1.1-2.4,2.4-2.4c1.3,0,2.4,1.1,2.4,2.4C192.3,144.2,191.3,145.3,189.9,145.3
			 M198,138.9h-2.7v1.7h1v4.6h-1v1.7h3.9v-1.7h-1v-2c0-0.8,0.1-1.4,0.7-1.9c0.4-0.4,1-0.6,1.6-0.6v-1.9c-1,0-1.9,0.5-2.4,1.5V138.9z
			 M208.3,146.9h2.9v-1.7h-1v-4.6h1v-1.7h-2.9v1.1c-0.6-0.9-1.5-1.4-2.5-1.4c-2.3,0-4.2,1.9-4.2,4.3c0,2.3,1.8,4.2,4.1,4.2
			c1,0,2-0.4,2.6-1.3V146.9z M205.9,145.3c-1.3,0-2.4-1.1-2.4-2.4c0-1.4,1-2.5,2.4-2.5c1.3,0,2.4,1.1,2.4,2.4
			C208.4,144.2,207.3,145.3,205.9,145.3 M215.1,138.9h-2.7v1.7h1v4.6h-1v1.7h3.9v-1.7h-1v-2c0-0.8,0.1-1.4,0.7-1.9
			c0.4-0.4,1-0.6,1.6-0.6v-1.9c-1,0-1.9,0.5-2.4,1.5V138.9z M218.9,144.6v2.3h1.4v-0.7c0.5,0.6,1.3,0.9,2.1,0.9
			c1.5,0,2.9-0.9,2.9-2.5c0-1.8-1.5-2.3-3-2.6c-0.6-0.1-1.3-0.3-1.3-1.1c0-0.6,0.5-0.8,1-0.8c0.6,0,1,0.4,1,0.9h1.8v-2.2h-1.4v0.6
			c-0.4-0.6-1.1-0.7-1.8-0.7c-1.4,0-2.7,0.9-2.7,2.4c0,1.8,1.5,2.2,2.9,2.5c0.6,0.2,1.4,0.3,1.4,1.1c0,0.6-0.5,1-1.1,1
			c-0.8,0-1.2-0.5-1.3-1.2H218.9z M232.5,144.6c-0.4,0.7-1.1,1-1.9,1c-1.1,0-2.2-0.8-2.4-1.9h6.5l0.1-0.6c0-1.1-0.3-2.2-1.1-3
			c-0.8-0.8-1.9-1.3-3-1.3c-2.4,0-4.2,1.9-4.2,4.3c0,2.4,1.9,4.2,4.2,4.2c1.7,0,3.1-1,3.8-2.6H232.5z M228.1,142.2
			c0.2-1,1.3-1.9,2.3-1.9c1.2,0,2.2,0.7,2.5,1.9H228.1z M247.3,144.2c-0.3,0.7-1.1,1.1-1.9,1.1c-1.3,0-2.4-1-2.4-2.4
			c0-1.3,1-2.4,2.4-2.4c0.4,0,0.8,0.1,1.1,0.3c0.3,0.2,0.6,0.5,0.9,0.8h1.7v-2.7h-1.6v0.8c-0.6-0.6-1.4-1-2.3-1c-2.3,0-4,2-4,4.2
			c0,2.3,1.9,4.2,4.2,4.2c1.8,0,3.5-1.2,4-2.9H247.3z M254.7,147.1c2.4,0,4.2-1.9,4.2-4.3c0-2.3-1.9-4.2-4.2-4.2
			c-2.3,0-4.2,1.9-4.2,4.2C250.5,145.2,252.4,147.1,254.7,147.1 M254.7,145.3c-1.4,0-2.4-1.1-2.4-2.5c0-1.3,1.1-2.4,2.4-2.4
			c1.3,0,2.4,1.1,2.4,2.4C257.1,144.2,256.1,145.3,254.7,145.3 M261.1,145.2h-1v1.7h3.9v-1.7h-1v-2.5c0-0.6,0-1.1,0.4-1.6
			c0.3-0.4,0.8-0.6,1.3-0.6c0.5,0,1.1,0.3,1.3,0.7c0.2,0.4,0.2,1,0.2,1.5v2.5h-1v1.7h3.9v-1.7h-1v-2.6c0-0.6,0-1,0.4-1.5
			c0.3-0.4,0.9-0.6,1.4-0.6c0.5,0,1,0.2,1.3,0.7c0.2,0.5,0.2,0.9,0.2,1.5v2.6h-1v1.7h3.9v-1.7h-1v-3c0-0.9,0-1.7-0.6-2.4
			c-0.6-0.7-1.4-1-2.3-1c-1.1,0-2.2,0.7-2.6,1.7c-0.4-1-1.4-1.7-2.5-1.7c-1,0-1.8,0.6-2.3,1.4v-1.2h-2.7v1.7h1V145.2z M279.6,147.1
			c2.4,0,4.2-1.9,4.2-4.3c0-2.3-1.9-4.2-4.2-4.2c-2.3,0-4.2,1.9-4.2,4.2C275.4,145.2,277.3,147.1,279.6,147.1 M279.6,145.3
			c-1.4,0-2.4-1.1-2.4-2.5c0-1.3,1.1-2.4,2.4-2.4c1.3,0,2.4,1.1,2.4,2.4C282,144.2,281,145.3,279.6,145.3 M296.3,144.2
			c-0.3,0.7-1.1,1.1-1.9,1.1c-1.3,0-2.4-1-2.4-2.4c0-1.3,1-2.4,2.4-2.4c0.4,0,0.8,0.1,1.1,0.3c0.3,0.2,0.6,0.5,0.9,0.8h1.7v-2.7
			h-1.6v0.8c-0.6-0.6-1.4-1-2.3-1c-2.3,0-4,2-4,4.2c0,2.3,1.9,4.2,4.2,4.2c1.8,0,3.5-1.2,4-2.9H296.3z M303.8,147.1
			c2.4,0,4.2-1.9,4.2-4.3c0-2.3-1.9-4.2-4.2-4.2c-2.3,0-4.2,1.9-4.2,4.2C299.6,145.2,301.4,147.1,303.8,147.1 M303.8,145.3
			c-1.4,0-2.4-1.1-2.4-2.5c0-1.3,1.1-2.4,2.4-2.4c1.3,0,2.4,1.1,2.4,2.4C306.2,144.2,305.1,145.3,303.8,145.3 M313.2,147.1
			c2.4,0,4.2-1.9,4.2-4.3c0-2.3-1.9-4.2-4.2-4.2c-2.3,0-4.2,1.9-4.2,4.2C309,145.2,310.9,147.1,313.2,147.1 M313.2,145.3
			c-1.4,0-2.4-1.1-2.4-2.5c0-1.3,1.1-2.4,2.4-2.4c1.3,0,2.4,1.1,2.4,2.4C315.6,144.2,314.6,145.3,313.2,145.3 M321.3,138.9h-2.7v1.7
			h1v4.6h-1v1.7h3.9v-1.7h-1v-2c0-0.8,0.1-1.4,0.7-1.9c0.5-0.4,1-0.6,1.6-0.6v-1.9c-1,0-1.9,0.5-2.4,1.5V138.9z M325.5,147.6
			c0.4,1.7,2.2,2.6,3.8,2.6c1.2,0,2.3-0.4,3.1-1.2c0.9-0.9,1-1.9,1-3.1v-5.2h1v-1.7h-2.7v1.2c-0.6-0.9-1.6-1.3-2.7-1.3
			c-2.2,0-4.1,1.9-4.1,4.1c0,2.2,1.8,4.1,4.1,4.1c1.1,0,2-0.4,2.6-1.3v0.3c0,0.8,0,1.3-0.6,1.9c-0.4,0.5-1.1,0.7-1.7,0.7
			c-0.7,0-1.5-0.3-1.8-1H325.5z M326.9,142.9c0-1.3,1.1-2.4,2.4-2.4c1.3,0,2.4,1.1,2.4,2.4c0,1.4-1,2.5-2.4,2.5
			C328,145.3,326.9,144.2,326.9,142.9 M342.4,146.9h2.9v-1.7h-1v-4.6h1v-1.7h-2.9v1.1c-0.6-0.9-1.5-1.4-2.5-1.4
			c-2.3,0-4.2,1.9-4.2,4.3c0,2.3,1.8,4.2,4.1,4.2c1,0,2-0.4,2.6-1.3V146.9z M340,145.3c-1.3,0-2.4-1.1-2.4-2.4
			c0-1.4,1.1-2.5,2.4-2.5c1.3,0,2.4,1.1,2.4,2.4C342.4,144.2,341.4,145.3,340,145.3 M347.5,145.2h-1v1.7h3.9v-1.7h-1v-2.3
			c0-0.5,0-1.2,0.3-1.7c0.3-0.5,0.9-0.7,1.5-0.7c0.5,0,1.1,0.2,1.4,0.6c0.3,0.4,0.3,0.9,0.3,1.4v2.6h-1v1.7h3.9v-1.7h-1v-3.1
			c0-0.9,0-1.6-0.7-2.4c-0.6-0.6-1.4-1-2.3-1c-1,0-1.9,0.4-2.4,1.3v-1.1h-2.9v1.7h1V145.2z M359.7,138.9h-2.9v1.7h1v4.6h-1.1v1.7
			h3.9v-1.7h-1V138.9z M359.7,136.2h-1.8v1.9h1.8V136.2z M362.1,138.9v2.7h1.6v-0.9h2.3l-4.1,4.8v1.5h6.5v-2.6h-1.6v0.9h-2.5
			l3.9-4.7v-1.6H362.1z M376.3,146.9h2.9v-1.7h-1v-4.6h1v-1.7h-2.9v1.1c-0.6-0.9-1.5-1.4-2.5-1.4c-2.3,0-4.2,1.9-4.2,4.3
			c0,2.3,1.8,4.2,4.1,4.2c1.1,0,2-0.4,2.6-1.3V146.9z M373.9,145.3c-1.3,0-2.4-1.1-2.4-2.4c0-1.4,1.1-2.5,2.4-2.5
			c1.3,0,2.4,1.1,2.4,2.4C376.3,144.2,375.3,145.3,373.9,145.3 M387,146.9h2.9v-1.7h-1v-9h-2.9v1.7h1.1v2.2
			c-0.6-0.8-1.6-1.3-2.6-1.3c-2.3,0-4.1,1.9-4.1,4.1c0,2.2,1.8,4.1,4.1,4.1c1.1,0,2-0.4,2.6-1.3V146.9z M384.6,145.3
			c-1.3,0-2.4-1.1-2.4-2.4c0-1.4,1.1-2.5,2.4-2.5c1.3,0,2.4,1.1,2.4,2.4C387,144.2,385.9,145.3,384.6,145.3 M395.1,147.1
			c2.4,0,4.2-1.9,4.2-4.3c0-2.3-1.9-4.2-4.2-4.2c-2.3,0-4.2,1.9-4.2,4.2C390.9,145.2,392.7,147.1,395.1,147.1 M395.1,145.3
			c-1.4,0-2.4-1.1-2.4-2.5c0-1.3,1.1-2.4,2.4-2.4c1.3,0,2.4,1.1,2.4,2.4C397.5,144.2,396.4,145.3,395.1,145.3 M403.2,138.9h-2.7v1.7
			h1v4.6h-1v1.7h3.9v-1.7h-1v-2c0-0.8,0.1-1.4,0.7-1.9c0.4-0.4,1-0.6,1.6-0.6v-1.9c-1,0-1.9,0.5-2.4,1.5V138.9z M413,144.6
			c-0.4,0.7-1.1,1-1.9,1c-1.1,0-2.2-0.8-2.4-1.9h6.5l0.1-0.6c0-1.1-0.3-2.2-1.1-3c-0.8-0.8-1.9-1.3-3-1.3c-2.4,0-4.2,1.9-4.2,4.3
			c0,2.4,1.9,4.2,4.2,4.2c1.7,0,3.1-1,3.8-2.6H413z M408.7,142.2c0.2-1,1.3-1.9,2.3-1.9c1.2,0,2.2,0.7,2.5,1.9H408.7z M416.5,144.6
			v2.3h1.4v-0.7c0.5,0.6,1.3,0.9,2.1,0.9c1.5,0,2.9-0.9,2.9-2.5c0-1.8-1.5-2.3-3-2.6c-0.6-0.1-1.3-0.3-1.3-1.1c0-0.6,0.5-0.8,1-0.8
			c0.6,0,1,0.4,1,0.9h1.8v-2.2H421v0.6c-0.5-0.6-1.1-0.7-1.8-0.7c-1.4,0-2.7,0.9-2.7,2.4c0,1.8,1.5,2.2,2.9,2.5
			c0.6,0.2,1.4,0.3,1.4,1.1c0,0.6-0.5,1-1.1,1c-0.8,0-1.2-0.5-1.3-1.2H416.5z M436,146.9h2.9v-1.7h-1v-9h-2.9v1.7h1v2.2
			c-0.6-0.8-1.6-1.3-2.6-1.3c-2.3,0-4.1,1.9-4.1,4.1c0,2.2,1.8,4.1,4.1,4.1c1.1,0,2-0.4,2.6-1.3V146.9z M433.6,145.3
			c-1.3,0-2.4-1.1-2.4-2.4c0-1.4,1.1-2.5,2.4-2.5c1.3,0,2.4,1.1,2.4,2.4C436,144.2,434.9,145.3,433.6,145.3 M446,144.6
			c-0.4,0.7-1.1,1-1.9,1c-1.1,0-2.2-0.8-2.4-1.9h6.5l0.1-0.6c0-1.1-0.3-2.2-1.1-3c-0.8-0.8-1.9-1.3-3-1.3c-2.4,0-4.2,1.9-4.2,4.3
			c0,2.4,1.9,4.2,4.2,4.2c1.7,0,3.1-1,3.8-2.6H446z M441.7,142.2c0.2-1,1.3-1.9,2.3-1.9c1.2,0,2.2,0.7,2.5,1.9H441.7z M460.7,144.6
			c-0.4,0.7-1.1,1-1.9,1c-1.1,0-2.2-0.8-2.4-1.9h6.5l0.1-0.6c0-1.1-0.3-2.2-1.1-3c-0.8-0.8-1.9-1.3-3-1.3c-2.4,0-4.2,1.9-4.2,4.3
			c0,2.4,1.9,4.2,4.2,4.2c1.7,0,3.2-1,3.8-2.6H460.7z M456.4,142.2c0.2-1,1.3-1.9,2.3-1.9c1.2,0,2.2,0.7,2.5,1.9H456.4z
			 M464.2,144.6v2.3h1.4v-0.7c0.5,0.6,1.3,0.9,2.1,0.9c1.5,0,2.9-0.9,2.9-2.5c0-1.8-1.5-2.3-3-2.6c-0.6-0.1-1.3-0.3-1.3-1.1
			c0-0.6,0.5-0.8,1-0.8c0.6,0,1,0.4,1,0.9h1.8v-2.2h-1.3v0.6c-0.5-0.6-1.1-0.7-1.8-0.7c-1.4,0-2.7,0.9-2.7,2.4
			c0,1.8,1.5,2.2,2.9,2.5c0.6,0.2,1.4,0.3,1.4,1.1c0,0.6-0.5,1-1.1,1c-0.8,0-1.2-0.5-1.3-1.2H464.2z M474.8,140.6h1.4v-1.7h-1.4
			v-2.7H473v2.7h-1.3v1.7h1.3v6.3h3.3v-1.7h-1.5V140.6z M483.7,144.6c-0.5,0.7-1.1,1-1.9,1c-1.1,0-2.2-0.8-2.4-1.9h6.5l0.1-0.6
			c0-1.1-0.3-2.2-1.1-3c-0.8-0.8-1.9-1.3-3-1.3c-2.4,0-4.2,1.9-4.2,4.3c0,2.4,1.9,4.2,4.2,4.2c1.7,0,3.2-1,3.8-2.6H483.7z
			 M479.3,142.2c0.2-1,1.3-1.9,2.3-1.9c1.2,0,2.2,0.7,2.5,1.9H479.3z M492.4,144.6v2.3h1.4v-0.7c0.5,0.6,1.3,0.9,2.1,0.9
			c1.5,0,2.9-0.9,2.9-2.5c0-1.8-1.5-2.3-3-2.6c-0.6-0.1-1.3-0.3-1.3-1.1c0-0.6,0.5-0.8,1-0.8c0.6,0,1,0.4,1,0.9h1.8v-2.2h-1.4v0.6
			c-0.4-0.6-1.1-0.7-1.8-0.7c-1.4,0-2.7,0.9-2.7,2.4c0,1.8,1.5,2.2,2.9,2.5c0.6,0.2,1.4,0.3,1.4,1.1c0,0.6-0.5,1-1.1,1
			c-0.8,0-1.2-0.5-1.3-1.2H492.4z M502.9,138.9H500v1.7h1v4.6h-1v1.7h3.9v-1.7h-1V138.9z M502.9,136.2h-1.8v1.9h1.8V136.2z
			 M506.3,145.2h-1v1.7h3.9v-1.7h-1v-2.5c0-0.6,0-1.1,0.4-1.6c0.3-0.4,0.8-0.6,1.3-0.6c0.5,0,1.1,0.3,1.3,0.7c0.2,0.4,0.2,1,0.2,1.5
			v2.5h-1v1.7h3.9v-1.7h-1v-2.6c0-0.6,0-1,0.4-1.5c0.3-0.4,0.9-0.6,1.4-0.6c0.5,0,1,0.2,1.3,0.7c0.2,0.5,0.2,0.9,0.2,1.5v2.6h-1v1.7
			h3.9v-1.7h-1v-3c0-0.9,0-1.7-0.6-2.4c-0.6-0.7-1.4-1-2.3-1c-1.1,0-2.2,0.7-2.6,1.7c-0.4-1-1.4-1.7-2.5-1.7c-1,0-1.8,0.6-2.3,1.4
			v-1.2h-2.7v1.7h1V145.2z M521.7,148.1h-1v1.7h3.9v-1.7h-1v-2.3c0.6,0.8,1.7,1.2,2.7,1.2c2.2,0,4-1.9,4-4.1c0-2.3-1.8-4.1-4.1-4.1
			c-1.1,0-2,0.4-2.6,1.4v-1.3h-2.9v1.7h1V148.1z M525.9,145.3c-1.3,0-2.4-1.1-2.4-2.4c0-1.4,1.1-2.4,2.5-2.4c1.3,0,2.4,1.1,2.4,2.4
			C528.4,144.3,527.3,145.3,525.9,145.3 M535.4,147.1c2.4,0,4.2-1.9,4.2-4.3c0-2.3-1.9-4.2-4.2-4.2c-2.3,0-4.2,1.9-4.2,4.2
			C531.2,145.2,533.1,147.1,535.4,147.1 M535.4,145.3c-1.4,0-2.4-1.1-2.4-2.5c0-1.3,1.1-2.4,2.4-2.4c1.3,0,2.4,1.1,2.4,2.4
			C537.8,144.2,536.8,145.3,535.4,145.3 M540.9,144.6v2.3h1.4v-0.7c0.5,0.6,1.3,0.9,2.1,0.9c1.5,0,2.9-0.9,2.9-2.5
			c0-1.8-1.5-2.3-3-2.6c-0.6-0.1-1.3-0.3-1.3-1.1c0-0.6,0.5-0.8,1-0.8c0.6,0,1,0.4,1,0.9h1.8v-2.2h-1.4v0.6
			c-0.4-0.6-1.1-0.7-1.8-0.7c-1.4,0-2.7,0.9-2.7,2.4c0,1.8,1.5,2.2,2.9,2.5c0.6,0.2,1.4,0.3,1.4,1.1c0,0.6-0.5,1-1.1,1
			c-0.8,0-1.2-0.5-1.3-1.2H540.9z M551.3,138.9h-2.9v1.7h1v4.6h-1v1.7h3.9v-1.7h-1V138.9z M551.3,136.2h-1.8v1.9h1.8V136.2z
			 M557.8,147.1c2.4,0,4.2-1.9,4.2-4.3c0-2.3-1.9-4.2-4.2-4.2c-2.3,0-4.2,1.9-4.2,4.2C553.6,145.2,555.4,147.1,557.8,147.1
			 M557.8,145.3c-1.4,0-2.4-1.1-2.4-2.5c0-1.3,1.1-2.4,2.4-2.4c1.3,0,2.4,1.1,2.4,2.4C560.2,144.2,559.1,145.3,557.8,145.3
			 M566.1,144.8h-1.9v2.1h1.9V144.8z"/>
		
			<line fill="none" stroke="#211915" stroke-linecap="round" stroke-linejoin="round" stroke-dasharray="0,2.015" x1="123.5" y1="17.6" x2="123.5" y2="145.6"/>
		<path fill="none" stroke="#211915" stroke-linecap="round" stroke-linejoin="round" d="M123.5,15.6L123.5,15.6 M123.5,146.6
			L123.5,146.6"/>
	</g>
</g>
</svg>
