<?xml version="1.0" encoding="utf-8"?>
<!-- Generator: Adobe Illustrator 18.0.0, SVG Export Plug-In . SVG Version: 6.00 Build 0)  -->
<!DOCTYPE svg PUBLIC "-//W3C//DTD SVG 1.1//EN" "http://www.w3.org/Graphics/SVG/1.1/DTD/svg11.dtd">
<svg version="1.1" xmlns="http://www.w3.org/2000/svg" xmlns:xlink="http://www.w3.org/1999/xlink" x="0px" y="0px"
	 viewBox="0 0 477.7 137.8" enable-background="new 0 0 477.7 137.8" xml:space="preserve">
<g id="Capa_1">
</g>
<g id="Capa_2">
	<g>
		<path fill="#B9007C" d="M44.8,102.3c-0.4,0-0.7-0.1-1.1-0.2c-0.8-0.4-1.4-1.3-1.4-2.2V85.5H7.6c-1.3,0-2.4-1.1-2.4-2.4V50.2
			c0-1.3,1.1-2.4,2.4-2.4h34.8V33.5c0-0.9,0.5-1.8,1.4-2.2c0.3-0.2,0.7-0.3,1.1-0.3c0.5,0,1.1,0.2,1.5,0.5l43,33.2
			c0.6,0.5,0.9,1.2,0.9,1.9c0,0.8-0.4,1.5-0.9,1.9l-43,33.2C45.8,102.1,45.3,102.3,44.8,102.3"/>
		<path fill="#009ADA" d="M123.7,28.8h5.7c1.8,0,3.2-0.4,4.4-1.8c1-1.2,1.6-2.7,1.6-4.2c0-1.7-0.5-3.3-1.7-4.5
			c-1.2-1.2-2.5-1.6-4.2-1.6h-5.8v1.9h1.3v8.3h-1.3V28.8z M127.3,18.7h1.9c1.1,0,2,0.1,2.9,1c0.7,0.8,1.1,2,1.1,3.1
			c0,1-0.3,2.1-1,2.9c-0.8,0.9-1.8,1.1-3,1.1h-1.8V18.7z M143.9,26.1c-0.5,0.7-1.3,1.1-2.2,1.1c-1.3,0-2.4-0.9-2.7-2.2h7.3l0.1-0.7
			c0-1.3-0.4-2.4-1.3-3.4c-0.9-0.9-2.1-1.5-3.4-1.5c-2.7,0-4.7,2.2-4.7,4.8c0,2.7,2.1,4.7,4.8,4.7c1.9,0,3.6-1.2,4.3-2.9H143.9z
			 M138.9,23.4c0.3-1.2,1.4-2.1,2.7-2.1c1.3,0,2.5,0.8,2.9,2.1H138.9z M147.9,26.1v2.6h1.6V28c0.6,0.7,1.4,1,2.3,1
			c1.7,0,3.2-1,3.2-2.9c0-2-1.8-2.5-3.4-2.9c-0.7-0.2-1.5-0.3-1.5-1.2c0-0.6,0.6-1,1.2-1c0.6,0,1.1,0.4,1.2,1.1h2v-2.5H153v0.6
			c-0.5-0.6-1.2-0.8-2.1-0.8c-1.6,0-3.1,1-3.1,2.7c0,2,1.7,2.5,3.3,2.9c0.7,0.2,1.5,0.3,1.5,1.2c0,0.7-0.6,1.1-1.2,1.1
			c-0.9,0-1.4-0.5-1.5-1.4H147.9z M163.9,28.8h3.2v-1.9H166V16.6h-3.3v1.9h1.2V21c-0.7-0.9-1.8-1.5-3-1.5c-2.6,0-4.6,2.2-4.6,4.7
			c0,2.5,2.1,4.7,4.6,4.7c1.2,0,2.3-0.5,3-1.5V28.8z M161.2,27c-1.5,0-2.7-1.2-2.7-2.7c0-1.5,1.2-2.8,2.8-2.8c1.5,0,2.7,1.2,2.7,2.7
			C164,25.7,162.8,27,161.2,27 M175.3,26.1c-0.5,0.7-1.3,1.1-2.2,1.1c-1.3,0-2.4-0.9-2.7-2.2h7.3l0.1-0.7c0-1.3-0.4-2.4-1.3-3.4
			c-0.9-0.9-2.1-1.5-3.4-1.5c-2.7,0-4.7,2.2-4.7,4.8c0,2.7,2.1,4.7,4.8,4.7c1.9,0,3.6-1.2,4.3-2.9H175.3z M170.4,23.4
			c0.3-1.2,1.4-2.1,2.7-2.1c1.3,0,2.5,0.8,2.9,2.1H170.4z M185.3,26.1v2.6h1.6V28c0.6,0.7,1.4,1,2.3,1c1.7,0,3.2-1,3.2-2.9
			c0-2-1.8-2.5-3.4-2.9c-0.7-0.2-1.5-0.3-1.5-1.2c0-0.6,0.6-1,1.2-1c0.6,0,1.1,0.4,1.2,1.1h2v-2.5h-1.5v0.6
			c-0.5-0.6-1.2-0.8-2.1-0.8c-1.6,0-3.1,1-3.1,2.7c0,2,1.7,2.5,3.3,2.9c0.7,0.2,1.5,0.3,1.5,1.2c0,0.7-0.6,1.1-1.2,1.1
			c-0.9,0-1.4-0.5-1.5-1.4H185.3z M202.9,19.7h-3.2v1.9h1.2v2.9c0,0.6,0,1.2-0.4,1.8c-0.4,0.5-1,0.7-1.5,0.7c-0.6,0-1.2-0.3-1.5-0.8
			c-0.3-0.5-0.4-1.1-0.4-1.7v-4.9h-3.2v1.9h1.2v3.6c0,1,0.1,1.9,0.8,2.6c0.6,0.7,1.5,1.2,2.5,1.2c1.1,0,2.1-0.5,2.7-1.4v1.1h3.1
			v-1.9h-1.2V19.7z M218.4,25.7c-0.4,0.8-1.3,1.3-2.2,1.3c-1.5,0-2.7-1.2-2.7-2.7c0-1.5,1.1-2.8,2.7-2.8c0.5,0,0.9,0.1,1.3,0.3
			c0.4,0.2,0.7,0.5,1,0.9h1.9v-3h-1.8v0.9c-0.7-0.7-1.6-1.1-2.6-1.1c-2.6,0-4.6,2.3-4.6,4.8c0,2.7,2.2,4.8,4.8,4.8
			c2,0,3.9-1.4,4.5-3.3H218.4z M225.3,19.7h-3.1v1.9h1.2v5.2h-1.2v1.9h4.4v-1.9h-1.2v-2.3c0-0.8,0.1-1.6,0.8-2.2
			c0.5-0.5,1.1-0.6,1.8-0.7v-2.1c-1.2,0.1-2.2,0.6-2.7,1.6V19.7z M236.5,26.1c-0.5,0.7-1.3,1.1-2.2,1.1c-1.3,0-2.4-0.9-2.7-2.2h7.3
			l0.1-0.7c0-1.3-0.4-2.4-1.3-3.4c-0.9-0.9-2.1-1.5-3.4-1.5c-2.7,0-4.7,2.2-4.7,4.8c0,2.7,2.1,4.7,4.8,4.7c1.9,0,3.6-1.2,4.3-2.9
			H236.5z M231.5,23.4c0.3-1.2,1.4-2.1,2.7-2.1c1.3,0,2.5,0.8,2.9,2.1H231.5z M247.8,28.8h3.2v-1.9h-1.1v-5.2h1.1v-1.9h-3.2V21
			c-0.6-1-1.6-1.5-2.8-1.5c-2.7,0-4.8,2.2-4.8,4.8c0,2.6,2.1,4.7,4.7,4.7c1.2,0,2.3-0.5,2.9-1.5V28.8z M245.1,27
			c-1.5,0-2.7-1.2-2.7-2.7c0-1.5,1.2-2.8,2.7-2.8c1.5,0,2.7,1.2,2.7,2.7C247.9,25.7,246.7,27,245.1,27 M259.3,25.7
			c-0.4,0.8-1.3,1.3-2.2,1.3c-1.5,0-2.7-1.2-2.7-2.7c0-1.5,1.1-2.8,2.7-2.8c0.5,0,0.9,0.1,1.3,0.3c0.4,0.2,0.7,0.5,1,0.9h1.9v-3
			h-1.8v0.9c-0.7-0.7-1.6-1.1-2.6-1.1c-2.6,0-4.6,2.3-4.6,4.8c0,2.7,2.2,4.8,4.8,4.8c2,0,3.9-1.4,4.5-3.3H259.3z M266.4,19.7h-3.2
			v1.9h1.2v5.2h-1.2v1.9h4.4v-1.9h-1.2V19.7z M266.4,16.6h-2.1v2.2h2.1V16.6z M273.7,29c2.7,0,4.8-2.2,4.8-4.8
			c0-2.6-2.1-4.8-4.7-4.8c-2.6,0-4.8,2.1-4.8,4.8C269,26.8,271.1,29,273.7,29 M273.7,27c-1.5,0-2.7-1.3-2.7-2.8
			c0-1.5,1.3-2.7,2.8-2.7c1.5,0,2.7,1.3,2.7,2.8C276.5,25.7,275.2,27,273.7,27 M271.7,18.6l4.7-2.2l-0.9-1.8l-4.5,2.6L271.7,18.6z
			 M280.9,26.8h-1.2v1.9h4.4v-1.9H283v-2.6c0-0.6,0-1.4,0.4-1.9c0.4-0.5,1-0.8,1.6-0.8c0.6,0,1.2,0.2,1.6,0.7
			c0.4,0.5,0.4,1.1,0.4,1.6v2.9h-1.2v1.9h4.4v-1.9h-1.2v-3.6c0-1,0-1.8-0.8-2.7c-0.7-0.7-1.6-1.1-2.6-1.1c-1.1,0-2.1,0.5-2.7,1.5
			v-1.3h-3.2v1.9h1.2V26.8z M304.3,26.1c-0.5,0.7-1.3,1.1-2.2,1.1c-1.3,0-2.4-0.9-2.7-2.2h7.3l0.1-0.7c0-1.3-0.4-2.4-1.3-3.4
			c-0.9-0.9-2.1-1.5-3.4-1.5c-2.7,0-4.7,2.2-4.7,4.8c0,2.7,2.1,4.7,4.8,4.7c1.9,0,3.6-1.2,4.3-2.9H304.3z M299.4,23.4
			c0.3-1.2,1.4-2.1,2.7-2.1c1.3,0,2.5,0.8,2.9,2.1H299.4z M309.3,26.8h-1.2v1.9h4.4v-1.9h-1.2v-2.6c0-0.6,0-1.4,0.4-1.9
			c0.4-0.5,1-0.8,1.6-0.8c0.6,0,1.2,0.2,1.6,0.7c0.4,0.5,0.4,1.1,0.4,1.6v2.9h-1.2v1.9h4.4v-1.9h-1.2v-3.6c0-1,0-1.8-0.8-2.7
			c-0.7-0.7-1.6-1.1-2.6-1.1c-1.1,0-2.1,0.5-2.7,1.5v-1.3h-3.2v1.9h1.2V26.8z M331.9,16.6h-4v1.9h1.8v8.3h-1.4v1.9h5.1v-1.9h-1.4
			V16.6z M341.6,28.8l3.2-4.9c0.7-1,1-1.8,1-3c0-1.3-0.5-2.4-1.4-3.3c-0.8-0.8-2-1.2-3.1-1.2c-2.4,0-4.5,2-4.5,4.5
			c0,2.2,1.6,4.3,4,4.3c0.4,0,0.7-0.1,1.1-0.3l-3,4H341.6z M341.3,23.1c-1.3,0-2.3-1-2.3-2.3c0-1.2,1.1-2.2,2.3-2.2
			c1.2,0,2.3,1,2.3,2.2C343.6,22,342.6,23.1,341.3,23.1 M347.9,16.6v3.9h2.2v-2h3.5L349,28.8h2.5l4.5-10.2v-2H347.9z M363,28.8
			l3.2-4.9c0.7-1,1-1.8,1-3c0-1.3-0.5-2.4-1.4-3.3c-0.8-0.8-2-1.2-3.1-1.2c-2.4,0-4.5,2-4.5,4.5c0,2.2,1.6,4.3,4,4.3
			c0.4,0,0.7-0.1,1.1-0.3l-3,4H363z M362.7,23.1c-1.3,0-2.3-1-2.3-2.3c0-1.2,1.1-2.2,2.3-2.2c1.2,0,2.3,1,2.3,2.2
			C365,22,364,23.1,362.7,23.1 M370.8,28.8V29c0,0.5,0,1.1-0.7,1.1h-0.2v1.2h0.3c0.6,0,1,0,1.4-0.5c0.4-0.5,0.4-1,0.4-1.6v-2.7h-2.1
			v2.4H370.8z M383.9,16.6h-3.2v1.9h1.2v8.3h-1.3v1.9h4.5v-1.9h-1.2V16.6z M394,28.8h3.2v-1.9h-1.1v-5.2h1.1v-1.9H394V21
			c-0.6-1-1.6-1.5-2.8-1.5c-2.7,0-4.8,2.2-4.8,4.8c0,2.6,2.1,4.7,4.7,4.7c1.2,0,2.3-0.5,2.9-1.5V28.8z M391.3,27
			c-1.5,0-2.7-1.2-2.7-2.7c0-1.5,1.2-2.8,2.7-2.8c1.5,0,2.7,1.2,2.7,2.7C394.1,25.7,392.9,27,391.3,27"/>
		<path fill="#B9007C" d="M125,48.8h-1.3v1.9h5v-1.9h-1.3v-3.2h3.5v-1.8h-3.5v-3.1h3.1v1.6h2.3v-3.7h-9.1v1.9h1.3V48.8z M143.4,41.7
			h-3.2v1.9h1.2v2.9c0,0.6,0,1.2-0.4,1.8c-0.4,0.5-1,0.7-1.5,0.7c-0.6,0-1.2-0.3-1.5-0.8c-0.3-0.5-0.4-1.1-0.4-1.7v-4.9h-3.2v1.9
			h1.2v3.6c0,1,0.1,1.9,0.8,2.6c0.6,0.7,1.5,1.2,2.5,1.2c1.1,0,2.1-0.5,2.7-1.4v1.1h3.1v-1.9h-1.2V41.7z M147.2,48.8H146v1.9h4.4
			v-1.9h-1.2v-2.6c0-0.6,0-1.4,0.4-1.9c0.4-0.5,1-0.8,1.6-0.8c0.6,0,1.2,0.2,1.6,0.7c0.4,0.5,0.4,1.1,0.4,1.6v2.9h-1.2v1.9h4.4v-1.9
			h-1.2v-3.6c0-1,0-1.8-0.8-2.7c-0.7-0.7-1.6-1.1-2.6-1.1c-1.1,0-2.1,0.5-2.7,1.5v-1.3H146v1.9h1.2V48.8z M165.3,50.8h3.2v-1.9h-1.2
			V38.6h-3.3v1.9h1.2V43c-0.7-0.9-1.8-1.5-3-1.5c-2.6,0-4.6,2.2-4.6,4.7c0,2.5,2.1,4.7,4.6,4.7c1.2,0,2.3-0.5,3-1.5V50.8z M162.6,49
			c-1.5,0-2.7-1.2-2.7-2.7c0-1.5,1.2-2.8,2.8-2.8c1.5,0,2.7,1.2,2.7,2.7C165.3,47.7,164.1,49,162.6,49 M177.3,50.8h3.2v-1.9h-1.1
			v-5.2h1.1v-1.9h-3.2V43c-0.6-1-1.6-1.5-2.8-1.5c-2.7,0-4.8,2.2-4.8,4.8c0,2.6,2.1,4.7,4.7,4.7c1.2,0,2.3-0.5,2.9-1.5V50.8z
			 M174.6,49c-1.5,0-2.7-1.2-2.7-2.7c0-1.5,1.2-2.8,2.7-2.8c1.5,0,2.7,1.2,2.7,2.7C177.4,47.7,176.2,49,174.6,49 M188.8,47.7
			c-0.4,0.8-1.3,1.3-2.2,1.3c-1.5,0-2.7-1.2-2.7-2.7c0-1.5,1.1-2.8,2.7-2.8c0.5,0,0.9,0.1,1.3,0.3c0.4,0.2,0.7,0.5,1,0.9h1.9v-3H189
			v0.9c-0.7-0.7-1.6-1.1-2.6-1.1c-2.6,0-4.6,2.3-4.6,4.8c0,2.7,2.2,4.8,4.8,4.8c2,0,3.9-1.4,4.5-3.3H188.8z M195.9,41.7h-3.2v1.9
			h1.2v5.2h-1.2v1.9h4.4v-1.9h-1.2V41.7z M195.9,38.6h-2.1v2.2h2.1V38.6z M203.2,51c2.7,0,4.8-2.2,4.8-4.8c0-2.6-2.1-4.8-4.7-4.8
			c-2.6,0-4.8,2.1-4.8,4.8C198.5,48.8,200.6,51,203.2,51 M203.2,49c-1.5,0-2.7-1.3-2.7-2.8c0-1.5,1.3-2.7,2.8-2.7
			c1.5,0,2.7,1.3,2.7,2.8C206,47.8,204.7,49,203.2,49 M201.2,40.6l4.7-2.2l-0.9-1.8l-4.5,2.6L201.2,40.6z M210.5,48.8h-1.2v1.9h4.4
			v-1.9h-1.2v-2.6c0-0.6,0-1.4,0.4-1.9c0.4-0.5,1-0.8,1.6-0.8c0.6,0,1.2,0.2,1.6,0.7c0.4,0.5,0.4,1.1,0.4,1.6v2.9h-1.2v1.9h4.4v-1.9
			h-1.2v-3.6c0-1,0-1.8-0.8-2.7c-0.7-0.7-1.6-1.1-2.6-1.1c-1.1,0-2.1,0.5-2.7,1.5v-1.3h-3.2v1.9h1.2V48.8z M227.1,47.2v3.6h1.8V50
			c0.6,0.7,1.4,1,2.3,1c2.2,0,3.8-1.6,3.8-3.8c0-1-0.4-1.9-1.2-2.5c-0.8-0.6-1.7-0.8-2.6-1.1c-0.9-0.3-2-0.5-2-1.7
			c0-1,0.7-1.5,1.6-1.5c0.9,0,1.6,0.7,1.6,1.6h2.1v-3.3h-1.8v0.7c-0.5-0.7-1.3-0.9-2.2-0.9c-2,0-3.7,1.5-3.7,3.5
			c0,1.1,0.5,2,1.3,2.7c0.7,0.6,1.5,0.8,2.4,1c0.9,0.3,2.1,0.6,2.1,1.8c0,1-0.8,1.7-1.8,1.7c-1.1,0-1.8-0.9-1.8-1.9H227.1z
			 M244.1,50.8h3.2v-1.9h-1.1v-5.2h1.1v-1.9h-3.2V43c-0.6-1-1.6-1.5-2.8-1.5c-2.7,0-4.8,2.2-4.8,4.8c0,2.6,2.1,4.7,4.7,4.7
			c1.2,0,2.3-0.5,2.9-1.5V50.8z M241.4,49c-1.5,0-2.7-1.2-2.7-2.7c0-1.5,1.2-2.8,2.7-2.8c1.5,0,2.7,1.2,2.7,2.7
			C244.2,47.7,243,49,241.4,49 M249.9,48.8h-1.2v1.9h4.4v-1.9H252v-2.6c0-0.6,0-1.4,0.4-1.9c0.4-0.5,1-0.8,1.6-0.8
			c0.6,0,1.2,0.2,1.6,0.7c0.4,0.5,0.4,1.1,0.4,1.6v2.9h-1.2v1.9h4.4v-1.9H258v-3.6c0-1,0-1.8-0.8-2.7c-0.7-0.7-1.6-1.1-2.6-1.1
			c-1.1,0-2.1,0.5-2.7,1.5v-1.3h-3.2v1.9h1.2V48.8z M263.9,43.6h1.5v-1.9h-1.5v-3.1h-2.1v3.1h-1.4v1.9h1.4v7.1h3.7v-1.9h-1.6V43.6z
			 M270.4,41.7h-3.2v1.9h1.2v5.2h-1.2v1.9h4.4v-1.9h-1.2V41.7z M270.4,38.6h-2.1v2.2h2.1V38.6z M276.4,38.6h-3.2v1.9h1.2v8.3H273
			v1.9h4.5v-1.9h-1.2V38.6z M282.3,38.6h-3.2v1.9h1.2v8.3H279v1.9h4.5v-1.9h-1.2V38.6z M292.4,50.8h3.2v-1.9h-1.1v-5.2h1.1v-1.9
			h-3.2V43c-0.6-1-1.6-1.5-2.8-1.5c-2.7,0-4.8,2.2-4.8,4.8c0,2.6,2.1,4.7,4.7,4.7c1.2,0,2.3-0.5,2.9-1.5V50.8z M289.7,49
			c-1.5,0-2.7-1.2-2.7-2.7c0-1.5,1.2-2.8,2.7-2.8c1.5,0,2.7,1.2,2.7,2.7C292.5,47.7,291.3,49,289.7,49 M298.2,48.8H297v1.9h4.4v-1.9
			h-1.2v-2.6c0-0.6,0-1.4,0.4-1.9c0.4-0.5,1-0.8,1.6-0.8c0.6,0,1.2,0.2,1.6,0.7c0.4,0.5,0.4,1.1,0.4,1.6v2.9h-1.2v1.9h4.4v-1.9h-1.2
			v-3.6c0-1,0-1.8-0.8-2.7c-0.7-0.7-1.6-1.1-2.6-1.1c-1.1,0-2.1,0.5-2.7,1.5v-1.3H297v1.9h1.2V48.8z M316.2,50.8h3.2v-1.9h-1.1v-5.2
			h1.1v-1.9h-3.2V43c-0.6-1-1.6-1.5-2.8-1.5c-2.7,0-4.8,2.2-4.8,4.8c0,2.6,2.1,4.7,4.7,4.7c1.2,0,2.3-0.5,2.9-1.5V50.8z M313.5,49
			c-1.5,0-2.7-1.2-2.7-2.7c0-1.5,1.2-2.8,2.7-2.8c1.5,0,2.7,1.2,2.7,2.7C316.3,47.7,315.1,49,313.5,49"/>
		<path fill="#009ADA" d="M330,38.6h-3.2v1.9h1.2v8.3h-1.2v1.9h4.4v-1.9H330v-2.8c0-0.7,0-1.3,0.4-1.8c0.4-0.5,1-0.7,1.6-0.7
			c0.7,0,1.3,0.3,1.6,0.8c0.4,0.6,0.3,1.2,0.3,1.9v2.6h-1.2v1.9h4.4v-1.9H336v-3.1c0-1.1-0.1-2-0.7-2.9c-0.6-0.8-1.5-1.3-2.6-1.3
			c-1.2,0-2.1,0.5-2.7,1.6V38.6z M346,50.8h3.2v-1.9h-1.1v-5.2h1.1v-1.9H346V43c-0.6-1-1.6-1.5-2.8-1.5c-2.7,0-4.8,2.2-4.8,4.8
			c0,2.6,2.1,4.7,4.7,4.7c1.2,0,2.3-0.5,2.9-1.5V50.8z M343.2,49c-1.5,0-2.7-1.2-2.7-2.7c0-1.5,1.2-2.8,2.7-2.8
			c1.5,0,2.7,1.2,2.7,2.7C346,47.7,344.8,49,343.2,49 M359.9,43.6h1.5v-1.9h-1.5v-3.1h-2.1v3.1h-1.4v1.9h1.4v7.1h3.7v-1.9h-1.6V43.6
			z M370,48.1c-0.5,0.7-1.3,1.1-2.2,1.1c-1.3,0-2.4-0.9-2.7-2.2h7.3l0.1-0.7c0-1.3-0.4-2.4-1.3-3.4c-0.9-0.9-2.1-1.5-3.4-1.5
			c-2.7,0-4.7,2.2-4.7,4.8c0,2.7,2.1,4.7,4.8,4.7c1.9,0,3.6-1.2,4.3-2.9H370z M365,45.4c0.3-1.2,1.4-2.1,2.7-2.1
			c1.3,0,2.5,0.8,2.9,2.1H365z M375,48.8h-1.2v1.9h4.4v-1.9h-1.2v-2.6c0-0.6,0-1.4,0.4-1.9c0.4-0.5,1-0.8,1.6-0.8
			c0.6,0,1.2,0.2,1.6,0.7c0.4,0.5,0.4,1.1,0.4,1.6v2.9h-1.2v1.9h4.4v-1.9h-1.2v-3.6c0-1,0-1.8-0.8-2.7c-0.7-0.7-1.6-1.1-2.6-1.1
			c-1.1,0-2.1,0.5-2.7,1.5v-1.3h-3.2v1.9h1.2V48.8z M388.9,41.7h-3.2v1.9h1.2v5.2h-1.2v1.9h4.4v-1.9h-1.2V41.7z M388.9,38.6h-2.1
			v2.2h2.1V38.6z M399,50.8h3.2v-1.9h-1.2V38.6h-3.3v1.9h1.2V43c-0.7-0.9-1.8-1.5-3-1.5c-2.6,0-4.6,2.2-4.6,4.7
			c0,2.5,2.1,4.7,4.6,4.7c1.2,0,2.3-0.5,3-1.5V50.8z M396.3,49c-1.5,0-2.7-1.2-2.7-2.7c0-1.5,1.2-2.8,2.8-2.8c1.5,0,2.7,1.2,2.7,2.7
			C399.1,47.7,397.9,49,396.3,49 M408.2,51c2.7,0,4.8-2.2,4.8-4.8c0-2.6-2.1-4.8-4.7-4.8c-2.6,0-4.8,2.1-4.8,4.8
			C403.5,48.8,405.6,51,408.2,51 M408.2,49c-1.5,0-2.7-1.3-2.7-2.8c0-1.5,1.3-2.7,2.8-2.7c1.5,0,2.7,1.3,2.7,2.8
			C411,47.8,409.8,49,408.2,49 M427.2,47.7c-0.4,0.8-1.3,1.3-2.2,1.3c-1.5,0-2.7-1.2-2.7-2.7c0-1.5,1.1-2.8,2.7-2.8
			c0.5,0,0.9,0.1,1.3,0.3c0.4,0.2,0.7,0.5,1,0.9h1.9v-3h-1.8v0.9c-0.7-0.7-1.6-1.1-2.6-1.1c-2.6,0-4.6,2.3-4.6,4.8
			c0,2.7,2.2,4.8,4.8,4.8c2,0,3.9-1.4,4.5-3.3H427.2z M435.6,51c2.7,0,4.8-2.2,4.8-4.8c0-2.6-2.1-4.8-4.7-4.8
			c-2.6,0-4.8,2.1-4.8,4.8C430.9,48.8,433,51,435.6,51 M435.6,49c-1.5,0-2.7-1.3-2.7-2.8c0-1.5,1.3-2.7,2.8-2.7
			c1.5,0,2.7,1.3,2.7,2.8C438.4,47.8,437.1,49,435.6,49 M442.9,48.8h-1.2v1.9h4.4v-1.9H445V46c0-0.7,0-1.3,0.5-1.9
			c0.4-0.5,0.9-0.7,1.4-0.7c0.6,0,1.2,0.3,1.5,0.8c0.3,0.5,0.3,1.2,0.3,1.7v2.8h-1.2v1.9h4.4v-1.9h-1.2v-2.9c0-0.7,0-1.2,0.4-1.7
			c0.4-0.4,1-0.7,1.5-0.7c0.6,0,1.1,0.3,1.5,0.7c0.3,0.5,0.3,1.1,0.3,1.6v2.9h-1.2v1.9h4.4v-1.9h-1.2v-3.4c0-1,0-1.9-0.7-2.8
			c-0.7-0.7-1.6-1.2-2.6-1.2c-1.3,0-2.5,0.7-3,1.9c-0.5-1.1-1.6-1.9-2.8-1.9c-1.1,0-2,0.6-2.6,1.6v-1.4h-3.1v1.9h1.2V48.8z
			 M463.8,51c2.7,0,4.8-2.2,4.8-4.8c0-2.6-2.1-4.8-4.7-4.8c-2.6,0-4.8,2.1-4.8,4.8C459.1,48.8,461.2,51,463.8,51 M463.8,49
			c-1.5,0-2.7-1.3-2.7-2.8c0-1.5,1.3-2.7,2.8-2.7c1.5,0,2.7,1.3,2.7,2.8C466.6,47.8,465.4,49,463.8,49"/>
		<path fill="#009ADA" d="M124.8,74.2h-1.2v1.9h4.4v-1.9h-1.2v-2.7c0.7,1,1.9,1.4,3.1,1.4c2.5,0,4.5-2.2,4.5-4.6
			c0-2.6-2.1-4.7-4.6-4.7c-1.2,0-2.3,0.5-3,1.5v-1.4h-3.2v1.9h1.2V74.2z M129.6,71c-1.5,0-2.7-1.2-2.7-2.7c0-1.6,1.3-2.8,2.8-2.8
			c1.5,0,2.7,1.3,2.7,2.8C132.3,69.8,131.1,71,129.6,71 M138.8,63.7h-3.1v1.9h1.2v5.2h-1.2v1.9h4.4v-1.9h-1.2v-2.3
			c0-0.9,0.1-1.6,0.8-2.2c0.5-0.5,1.1-0.6,1.8-0.7v-2.1c-1.2,0.1-2.2,0.6-2.7,1.6V63.7z M146.3,63.7H143v1.9h1.2v5.2H143v1.9h4.4
			v-1.9h-1.2V63.7z M146.3,60.6h-2.1v2.2h2.1V60.6z M150.1,70.8h-1.2v1.9h4.4v-1.9h-1.2v-2.6c0-0.6,0-1.4,0.4-1.9
			c0.4-0.5,1-0.8,1.6-0.8c0.6,0,1.2,0.2,1.6,0.7c0.4,0.5,0.4,1.1,0.4,1.6v2.9H155v1.9h4.4v-1.9h-1.2v-3.6c0-1,0-1.8-0.8-2.7
			c-0.7-0.7-1.6-1.1-2.6-1.1c-1.1,0-2.1,0.5-2.7,1.5v-1.3h-3.2v1.9h1.2V70.8z M167.6,69.7c-0.4,0.8-1.3,1.3-2.2,1.3
			c-1.5,0-2.7-1.2-2.7-2.7c0-1.5,1.1-2.8,2.7-2.8c0.5,0,0.9,0.1,1.3,0.3c0.4,0.2,0.7,0.5,1,0.9h1.9v-3h-1.8v0.9
			c-0.7-0.7-1.6-1.1-2.6-1.1c-2.6,0-4.6,2.3-4.6,4.8c0,2.7,2.2,4.8,4.8,4.8c2,0,3.9-1.4,4.5-3.3H167.6z M174.7,63.7h-3.2v1.9h1.2
			v5.2h-1.2v1.9h4.4v-1.9h-1.2V63.7z M174.7,60.6h-2.1v2.2h2.1V60.6z M178.5,74.2h-1.2v1.9h4.4v-1.9h-1.2v-2.7
			c0.7,1,1.9,1.4,3.1,1.4c2.5,0,4.5-2.2,4.5-4.6c0-2.6-2.1-4.7-4.6-4.7c-1.2,0-2.3,0.5-3,1.5v-1.4h-3.2v1.9h1.2V74.2z M183.3,71
			c-1.5,0-2.7-1.2-2.7-2.7c0-1.6,1.3-2.8,2.8-2.8c1.5,0,2.7,1.3,2.7,2.8C186,69.8,184.8,71,183.3,71 M196.9,72.8h3.2v-1.9H199v-5.2
			h1.1v-1.9h-3.2V65c-0.6-1-1.6-1.5-2.8-1.5c-2.7,0-4.8,2.2-4.8,4.8c0,2.6,2.1,4.7,4.7,4.7c1.2,0,2.3-0.5,2.9-1.5V72.8z M194.1,71
			c-1.5,0-2.7-1.2-2.7-2.7c0-1.5,1.2-2.8,2.7-2.8c1.5,0,2.7,1.2,2.7,2.7C196.9,69.7,195.7,71,194.1,71 M204.8,60.6h-3.2v1.9h1.2v8.3
			h-1.3v1.9h4.5v-1.9h-1.2V60.6z M218,73c2.7,0,4.8-2.2,4.8-4.8c0-2.6-2.1-4.8-4.7-4.8c-2.6,0-4.8,2.1-4.8,4.8
			C213.3,70.8,215.4,73,218,73 M218,71c-1.5,0-2.7-1.3-2.7-2.8c0-1.5,1.3-2.7,2.8-2.7c1.5,0,2.7,1.3,2.7,2.8
			C220.8,69.7,219.5,71,218,71 M227.3,60.6h-3.2v1.9h1.2v8.3h-1.2v1.9h3.2v-1.4c0.7,1,1.8,1.5,3,1.5c1.2,0,2.4-0.6,3.2-1.5
			c0.8-0.9,1.2-2,1.2-3.2c0-2.6-2.1-4.7-4.7-4.7c-1.2,0-2.2,0.5-2.8,1.4V60.6z M230,65.4c1.5,0,2.8,1.2,2.8,2.8
			c0,1.5-1.2,2.8-2.7,2.8c-1.6,0-2.8-1.2-2.8-2.8C227.2,66.7,228.5,65.4,230,65.4 M239.6,63.7h-3.2v1.9h1.2v6.2
			c0,1.2,0.1,2.4-1.5,2.5v1.9c2.3-0.1,3.5-1.2,3.5-3.6V63.7z M239.6,60.6h-2.1v2.2h2.1V60.6z M248.6,70.1c-0.5,0.7-1.3,1.1-2.2,1.1
			c-1.3,0-2.4-0.9-2.7-2.2h7.3l0.1-0.7c0-1.3-0.4-2.4-1.3-3.4c-0.9-0.9-2.1-1.5-3.4-1.5c-2.7,0-4.7,2.2-4.7,4.8
			c0,2.7,2.1,4.7,4.8,4.7c1.9,0,3.6-1.2,4.3-2.9H248.6z M243.7,67.4c0.3-1.2,1.4-2.1,2.7-2.1c1.3,0,2.5,0.8,2.9,2.1H243.7z
			 M255.9,65.6h1.5v-1.9h-1.5v-3.1h-2.1v3.1h-1.4v1.9h1.4v7.1h3.7v-1.9h-1.6V65.6z M262.4,63.7h-3.2v1.9h1.2v5.2h-1.2v1.9h4.4v-1.9
			h-1.2V63.7z M262.4,60.6h-2.1v2.2h2.1V60.6z M273.8,65.6h1.1v-1.9h-4.2v1.9h1l-1.8,4.6h0l-1.7-4.6h0.9v-1.9h-4.2v1.9h1.1l2.8,7.1
			h2.2L273.8,65.6z M280.7,73c2.7,0,4.8-2.2,4.8-4.8c0-2.6-2.1-4.8-4.7-4.8c-2.6,0-4.8,2.1-4.8,4.8C276,70.8,278.1,73,280.7,73
			 M280.7,71c-1.5,0-2.7-1.3-2.7-2.8c0-1.5,1.3-2.7,2.8-2.7c1.5,0,2.7,1.3,2.7,2.8C283.5,69.7,282.3,71,280.7,71 M299.6,69.7
			c-0.4,0.8-1.3,1.3-2.2,1.3c-1.5,0-2.7-1.2-2.7-2.7c0-1.5,1.1-2.8,2.7-2.8c0.5,0,0.9,0.1,1.3,0.3c0.4,0.2,0.7,0.5,1,0.9h1.9v-3
			h-1.8v0.9c-0.7-0.7-1.6-1.1-2.6-1.1c-2.6,0-4.6,2.3-4.6,4.8c0,2.7,2.2,4.8,4.8,4.8c2,0,3.9-1.4,4.5-3.3H299.6z M308.1,73
			c2.7,0,4.8-2.2,4.8-4.8c0-2.6-2.1-4.8-4.7-4.8c-2.6,0-4.8,2.1-4.8,4.8C303.4,70.8,305.5,73,308.1,73 M308.1,71
			c-1.5,0-2.7-1.3-2.7-2.8c0-1.5,1.3-2.7,2.8-2.7c1.5,0,2.7,1.3,2.7,2.8C310.9,69.7,309.6,71,308.1,71 M315.3,70.8h-1.2v1.9h4.4
			v-1.9h-1.2v-2.6c0-0.6,0-1.4,0.4-1.9c0.4-0.5,1-0.8,1.6-0.8c0.6,0,1.2,0.2,1.6,0.7c0.4,0.5,0.4,1.1,0.4,1.6v2.9h-1.2v1.9h4.4v-1.9
			h-1.2v-3.6c0-1,0-1.8-0.8-2.7c-0.7-0.7-1.6-1.1-2.6-1.1c-1.1,0-2.1,0.5-2.7,1.5v-1.3h-3.2v1.9h1.2V70.8z M329.3,65.6h1.5v-1.9
			h-1.5v-3.1h-2.1v3.1h-1.4v1.9h1.4v7.1h3.7v-1.9h-1.6V65.6z M335.6,63.7h-3.1v1.9h1.2v5.2h-1.2v1.9h4.4v-1.9h-1.2v-2.3
			c0-0.9,0.1-1.6,0.8-2.2c0.5-0.5,1.1-0.6,1.8-0.7v-2.1c-1.2,0.1-2.2,0.6-2.7,1.6V63.7z M343.1,63.7h-3.2v1.9h1.2v5.2h-1.2v1.9h4.4
			v-1.9h-1.2V63.7z M343.1,60.6h-2.1v2.2h2.1V60.6z M349,60.6h-3.2v1.9h1.2v8.3h-1.2v1.9h3.2v-1.4c0.7,1,1.8,1.5,3,1.5
			c1.2,0,2.4-0.6,3.2-1.5c0.8-0.9,1.2-2,1.2-3.2c0-2.6-2.1-4.7-4.7-4.7c-1.2,0-2.2,0.5-2.8,1.4V60.6z M351.7,65.4
			c1.5,0,2.8,1.2,2.8,2.8c0,1.5-1.2,2.8-2.7,2.8c-1.6,0-2.8-1.2-2.8-2.8C349,66.7,350.2,65.4,351.7,65.4 M366.9,63.7h-3.2v1.9h1.2
			v2.9c0,0.6,0,1.2-0.4,1.8c-0.4,0.5-1,0.7-1.5,0.7c-0.6,0-1.2-0.3-1.5-0.8c-0.3-0.5-0.4-1.1-0.4-1.7v-4.9h-3.2v1.9h1.2v3.6
			c0,1,0.1,1.9,0.8,2.6c0.6,0.7,1.5,1.2,2.5,1.2c1.1,0,2.1-0.5,2.7-1.4v1.1h3.1v-1.9h-1.2V63.7z M372.9,63.7h-3.2v1.9h1.2v5.2h-1.2
			v1.9h4.4v-1.9h-1.2V63.7z M372.9,60.6h-2.1v2.2h2.1V60.6z M378.6,63.7h-3.1v1.9h1.2v5.2h-1.2v1.9h4.4v-1.9h-1.2v-2.3
			c0-0.9,0.1-1.6,0.8-2.2c0.5-0.5,1.1-0.6,1.8-0.7v-2.1c-1.2,0.1-2.2,0.6-2.7,1.6V63.7z M396.3,72.8h3.2v-1.9h-1.1v-5.2h1.1v-1.9
			h-3.2V65c-0.6-1-1.6-1.5-2.8-1.5c-2.7,0-4.8,2.2-4.8,4.8c0,2.6,2.1,4.7,4.7,4.7c1.2,0,2.3-0.5,2.9-1.5V72.8z M393.6,71
			c-1.5,0-2.7-1.2-2.7-2.7c0-1.5,1.2-2.8,2.7-2.8c1.5,0,2.7,1.2,2.7,2.7C396.3,69.7,395.1,71,393.6,71 M410.2,60.6h-3.3v1.9h1.2v8.3
			h-1.3v1.9h4.5v-1.9h-1.2V60.6z M420.3,72.8h3.2v-1.9h-1.1v-5.2h1.1v-1.9h-3.2V65c-0.6-1-1.6-1.5-2.8-1.5c-2.7,0-4.8,2.2-4.8,4.8
			c0,2.6,2.1,4.7,4.7,4.7c1.2,0,2.3-0.5,2.9-1.5V72.8z M417.5,71c-1.5,0-2.7-1.2-2.7-2.7c0-1.5,1.2-2.8,2.7-2.8
			c1.5,0,2.7,1.2,2.7,2.7C420.3,69.7,419.1,71,417.5,71"/>
		<path fill="#009ADA" d="M130.4,92.1c-0.5,0.7-1.3,1.1-2.2,1.1c-1.3,0-2.4-0.9-2.7-2.2h7.3l0.1-0.7c0-1.3-0.4-2.4-1.3-3.4
			c-0.9-0.9-2.1-1.5-3.4-1.5c-2.7,0-4.7,2.2-4.7,4.8c0,2.7,2.1,4.7,4.8,4.7c1.9,0,3.6-1.2,4.3-2.9H130.4z M125.5,89.4
			c0.3-1.2,1.4-2.1,2.7-2.1c1.3,0,2.5,0.8,2.9,2.1H125.5z M142.9,87.6h1v-1.9h-4.1v1.6h0.8l-1.4,1.6l-1.4-1.6h0.8v-1.6h-4.2v1.9h1
			l2.3,2.6l-2.4,2.7h-1.1v1.9h4.3v-1.7h-0.7l1.3-1.6l1.3,1.6h-0.7v1.7h4.3v-1.9h-1.1l-2.4-2.7L142.9,87.6z M149.1,87.6h1.5v-1.9
			h-1.5v-3.1H147v3.1h-1.4v1.9h1.4v7.1h3.7v-1.9h-1.6V87.6z M159.2,92.1c-0.5,0.7-1.3,1.1-2.2,1.1c-1.3,0-2.4-0.9-2.7-2.2h7.3
			l0.1-0.7c0-1.3-0.4-2.4-1.3-3.4c-0.9-0.9-2.1-1.5-3.4-1.5c-2.7,0-4.7,2.2-4.7,4.8c0,2.7,2.1,4.7,4.8,4.7c1.9,0,3.6-1.2,4.3-2.9
			H159.2z M154.2,89.4c0.3-1.2,1.4-2.1,2.7-2.1c1.3,0,2.5,0.8,2.9,2.1H154.2z M164.2,92.8H163v1.9h4.4v-1.9h-1.2v-2.6
			c0-0.6,0-1.4,0.4-1.9c0.4-0.5,1-0.8,1.6-0.8c0.6,0,1.2,0.2,1.6,0.7c0.4,0.5,0.4,1.1,0.4,1.6v2.9h-1.2v1.9h4.4v-1.9h-1.2v-3.6
			c0-1,0-1.8-0.8-2.7c-0.7-0.7-1.6-1.1-2.6-1.1c-1.1,0-2.1,0.5-2.7,1.5v-1.3H163v1.9h1.2V92.8z M174.9,92.1v2.6h1.6V94
			c0.6,0.7,1.4,1,2.3,1c1.7,0,3.2-1,3.2-2.9c0-2-1.8-2.6-3.4-2.9c-0.7-0.2-1.5-0.3-1.5-1.2c0-0.6,0.6-1,1.2-1c0.6,0,1.1,0.4,1.2,1.1
			h2v-2.5H180v0.6c-0.5-0.6-1.2-0.8-2.1-0.8c-1.6,0-3.1,1-3.1,2.7c0,2,1.7,2.5,3.3,2.9c0.7,0.2,1.5,0.3,1.5,1.2
			c0,0.7-0.6,1.1-1.2,1.1c-0.9,0-1.4-0.5-1.5-1.4H174.9z M186.7,85.7h-3.2v1.9h1.2v5.2h-1.2v1.9h4.4v-1.9h-1.2V85.7z M186.7,82.6
			h-2.1v2.2h2.1V82.6z M194,95c2.7,0,4.8-2.2,4.8-4.8c0-2.6-2.1-4.8-4.7-4.8c-2.6,0-4.8,2.1-4.8,4.8C189.3,92.8,191.4,95,194,95
			 M194,93c-1.5,0-2.7-1.3-2.7-2.8c0-1.5,1.3-2.7,2.8-2.7c1.5,0,2.7,1.3,2.7,2.8C196.8,91.8,195.6,93,194,93 M192,84.6l4.7-2.2
			l-0.9-1.8l-4.5,2.6L192,84.6z M201.3,92.8h-1.2v1.9h4.4v-1.9h-1.2v-2.6c0-0.6,0-1.4,0.4-1.9c0.4-0.5,1-0.8,1.6-0.8
			c0.6,0,1.2,0.2,1.6,0.7c0.4,0.5,0.4,1.1,0.4,1.6v2.9h-1.2v1.9h4.4v-1.9h-1.2v-3.6c0-1,0-1.8-0.8-2.7c-0.7-0.7-1.6-1.1-2.6-1.1
			c-1.1,0-2.1,0.5-2.7,1.5v-1.3h-3.2v1.9h1.2V92.8z M226.5,87.6h1.1v-1.9h-4.2v1.9h0.9l-1.7,4.4l-1.6-4.4h0.9v-1.9h-4.3v1.9h1.2
			l2.8,7l-0.6,1.5h-1.1v1.9h4.4v-1.9H223L226.5,87.6z M236,92.8h-1.2v1.9h4.4v-1.9h-1.2V90c0-0.7,0-1.3,0.5-1.9
			c0.4-0.5,0.9-0.7,1.4-0.7c0.6,0,1.2,0.3,1.5,0.8c0.3,0.5,0.3,1.2,0.3,1.7v2.8h-1.2v1.9h4.4v-1.9h-1.2v-2.9c0-0.7,0-1.2,0.4-1.7
			c0.4-0.4,1-0.7,1.5-0.7c0.6,0,1.1,0.3,1.5,0.7c0.3,0.5,0.3,1.1,0.3,1.6v2.9h-1.2v1.9h4.4v-1.9h-1.2v-3.4c0-1,0-1.9-0.7-2.8
			c-0.7-0.7-1.6-1.2-2.6-1.2c-1.3,0-2.5,0.7-3,1.9c-0.5-1.1-1.6-1.9-2.8-1.9c-1.2,0-2,0.6-2.6,1.6v-1.4h-3.1v1.9h1.2V92.8z
			 M259.1,92.1c-0.5,0.7-1.3,1.1-2.2,1.1c-1.3,0-2.4-0.9-2.7-2.2h7.3l0.1-0.7c0-1.3-0.4-2.4-1.3-3.4c-0.9-0.9-2.1-1.5-3.4-1.5
			c-2.7,0-4.7,2.2-4.7,4.8c0,2.7,2.1,4.7,4.8,4.7c1.9,0,3.6-1.2,4.3-2.9H259.1z M254.2,89.4c0.3-1.2,1.4-2.1,2.7-2.1
			c1.3,0,2.5,0.8,2.9,2.1H254.2z M266.4,85.7h-3.2v1.9h1.2v6.2c0,1.2,0.1,2.4-1.5,2.5v1.9c2.3-0.1,3.5-1.2,3.5-3.6V85.7z
			 M266.4,82.6h-2.1v2.2h2.1V82.6z M273.3,95c2.7,0,4.8-2.2,4.8-4.8c0-2.6-2.1-4.8-4.7-4.8c-2.6,0-4.8,2.1-4.8,4.8
			C268.5,92.8,270.6,95,273.3,95 M273.3,93c-1.5,0-2.7-1.3-2.7-2.8c0-1.5,1.3-2.7,2.8-2.7c1.5,0,2.7,1.3,2.7,2.8
			C276,91.8,274.8,93,273.3,93 M282.4,85.7h-3.1v1.9h1.2v5.2h-1.2v1.9h4.4v-1.9h-1.2v-2.3c0-0.9,0.1-1.6,0.8-2.2
			c0.5-0.5,1.1-0.6,1.8-0.7v-2.1c-1.2,0.1-2.2,0.6-2.7,1.6V85.7z M294.1,94.8h3.2v-1.9h-1.1v-5.2h1.1v-1.9h-3.2V87
			c-0.6-1-1.6-1.5-2.8-1.5c-2.7,0-4.8,2.2-4.8,4.8c0,2.6,2.1,4.7,4.7,4.7c1.2,0,2.3-0.5,2.9-1.5V94.8z M291.4,93
			c-1.5,0-2.7-1.2-2.7-2.7c0-1.5,1.2-2.8,2.7-2.8c1.5,0,2.7,1.2,2.7,2.7C294.2,91.7,293,93,291.4,93 M312.2,94.8h3.2v-1.9h-1.2V82.6
			H311v1.9h1.2V87c-0.7-0.9-1.8-1.5-3-1.5c-2.6,0-4.6,2.2-4.6,4.7c0,2.5,2.1,4.7,4.6,4.7c1.2,0,2.3-0.5,3-1.5V94.8z M309.5,93
			c-1.5,0-2.7-1.2-2.7-2.7c0-1.5,1.2-2.8,2.8-2.8c1.5,0,2.7,1.2,2.7,2.7C312.2,91.7,311,93,309.5,93 M323.6,92.1
			c-0.5,0.7-1.3,1.1-2.2,1.1c-1.3,0-2.4-0.9-2.7-2.2h7.3l0.1-0.7c0-1.3-0.4-2.4-1.3-3.4c-0.9-0.9-2.1-1.5-3.4-1.5
			c-2.7,0-4.7,2.2-4.7,4.8c0,2.7,2.1,4.7,4.8,4.7c1.9,0,3.6-1.2,4.3-2.9H323.6z M318.6,89.4c0.3-1.2,1.4-2.1,2.7-2.1
			c1.3,0,2.5,0.8,2.9,2.1H318.6z M336.7,82.6h-3.2v1.9h1.2v8.3h-1.3v1.9h4.5v-1.9h-1.2V82.6z M346.8,94.8h3.2v-1.9h-1.1v-5.2h1.1
			v-1.9h-3.2V87c-0.6-1-1.6-1.5-2.8-1.5c-2.7,0-4.8,2.2-4.8,4.8c0,2.6,2.1,4.7,4.7,4.7c1.2,0,2.3-0.5,2.9-1.5V94.8z M344.1,93
			c-1.5,0-2.7-1.2-2.7-2.7c0-1.5,1.2-2.8,2.7-2.8c1.5,0,2.7,1.2,2.7,2.7C346.9,91.7,345.7,93,344.1,93 M364.2,92.1
			c-0.5,0.7-1.3,1.1-2.2,1.1c-1.3,0-2.4-0.9-2.7-2.2h7.3l0.1-0.7c0-1.3-0.4-2.4-1.3-3.4c-0.9-0.9-2.1-1.5-3.4-1.5
			c-2.7,0-4.7,2.2-4.7,4.8c0,2.7,2.1,4.7,4.8,4.7c1.9,0,3.6-1.2,4.3-2.9H364.2z M359.3,89.4c0.3-1.2,1.4-2.1,2.7-2.1
			c1.3,0,2.5,0.8,2.9,2.1H359.3z M375.6,94.8h3.2v-1.9h-1.2V82.6h-3.3v1.9h1.2V87c-0.7-0.9-1.8-1.5-3-1.5c-2.6,0-4.6,2.2-4.6,4.7
			c0,2.5,2.1,4.7,4.6,4.7c1.2,0,2.3-0.5,3-1.5V94.8z M372.9,93c-1.5,0-2.7-1.2-2.7-2.7c0-1.5,1.2-2.8,2.8-2.8c1.5,0,2.7,1.2,2.7,2.7
			C375.6,91.7,374.4,93,372.9,93 M389.2,85.7h-3.2v1.9h1.2v2.9c0,0.6,0,1.2-0.4,1.8c-0.4,0.5-1,0.7-1.5,0.7c-0.6,0-1.2-0.3-1.5-0.8
			c-0.3-0.5-0.4-1.1-0.4-1.7v-4.9h-3.2v1.9h1.2v3.6c0,1,0.1,1.9,0.8,2.6c0.6,0.7,1.5,1.2,2.5,1.2c1.1,0,2.1-0.5,2.7-1.4v1.1h3.1
			v-1.9h-1.2V85.7z M398.8,91.7c-0.4,0.8-1.3,1.3-2.2,1.3c-1.5,0-2.7-1.2-2.7-2.7c0-1.5,1.1-2.8,2.7-2.8c0.5,0,0.9,0.1,1.3,0.3
			c0.4,0.2,0.7,0.5,1,0.9h1.9v-3h-1.8v0.9c-0.7-0.7-1.6-1.1-2.6-1.1c-2.6,0-4.6,2.3-4.6,4.8c0,2.7,2.2,4.8,4.8,4.8
			c2,0,3.9-1.4,4.5-3.3H398.8z M410.1,94.8h3.3v-1.9h-1.1v-5.2h1.1v-1.9h-3.3V87c-0.6-1-1.6-1.5-2.8-1.5c-2.7,0-4.8,2.2-4.8,4.8
			c0,2.6,2.1,4.7,4.7,4.7c1.2,0,2.3-0.5,2.9-1.5V94.8z M407.3,93c-1.5,0-2.7-1.2-2.7-2.7c0-1.5,1.2-2.8,2.7-2.8
			c1.5,0,2.7,1.2,2.7,2.7C410.1,91.7,408.9,93,407.3,93 M421.5,91.7c-0.4,0.8-1.3,1.3-2.2,1.3c-1.5,0-2.7-1.2-2.7-2.7
			c0-1.5,1.1-2.8,2.7-2.8c0.5,0,0.9,0.1,1.3,0.3c0.4,0.2,0.7,0.5,1,0.9h1.9v-3h-1.8v0.9c-0.7-0.7-1.6-1.1-2.6-1.1
			c-2.6,0-4.6,2.3-4.6,4.8c0,2.7,2.2,4.8,4.8,4.8c2,0,3.9-1.4,4.5-3.3H421.5z M428.7,85.7h-3.3v1.9h1.2v5.2h-1.2v1.9h4.4v-1.9h-1.2
			V85.7z M428.7,82.6h-2.1v2.2h2.1V82.6z M436,95c2.7,0,4.8-2.2,4.8-4.8c0-2.6-2.1-4.8-4.7-4.8c-2.6,0-4.8,2.1-4.8,4.8
			C431.2,92.8,433.3,95,436,95 M436,93c-1.6,0-2.7-1.3-2.7-2.8c0-1.5,1.3-2.7,2.8-2.7c1.5,0,2.7,1.3,2.7,2.8
			C438.7,91.8,437.5,93,436,93 M434,84.6l4.7-2.2l-0.9-1.8l-4.5,2.6L434,84.6z M443.2,92.8H442v1.9h4.4v-1.9h-1.2v-2.6
			c0-0.6,0-1.4,0.4-1.9c0.4-0.5,1-0.8,1.6-0.8c0.6,0,1.2,0.2,1.6,0.7c0.4,0.5,0.4,1.1,0.4,1.6v2.9h-1.2v1.9h4.4v-1.9h-1.2v-3.6
			c0-1,0-1.8-0.8-2.7c-0.7-0.7-1.6-1.1-2.6-1.1c-1.1,0-2.1,0.5-2.7,1.5v-1.3H442v1.9h1.2V92.8z"/>
		<path fill="#009ADA" d="M130.4,114.1c-0.5,0.7-1.3,1.1-2.2,1.1c-1.3,0-2.4-0.9-2.7-2.2h7.3l0.1-0.7c0-1.3-0.4-2.4-1.3-3.4
			c-0.9-0.9-2.1-1.5-3.4-1.5c-2.7,0-4.7,2.2-4.7,4.8c0,2.7,2.1,4.7,4.8,4.7c1.9,0,3.6-1.2,4.3-2.9H130.4z M125.5,111.4
			c0.3-1.2,1.4-2.1,2.7-2.1c1.3,0,2.5,0.8,2.9,2.1H125.5z M135.5,114.8h-1.2v1.9h4.4v-1.9h-1.2v-2.6c0-0.6,0-1.4,0.4-1.9
			c0.4-0.5,1-0.8,1.6-0.8c0.6,0,1.2,0.2,1.6,0.7c0.4,0.5,0.4,1.1,0.4,1.6v2.9h-1.2v1.9h4.4v-1.9h-1.2v-3.6c0-1,0-1.8-0.8-2.7
			c-0.7-0.7-1.6-1.1-2.6-1.1c-1.1,0-2.1,0.5-2.7,1.5v-1.3h-3.2v1.9h1.2V114.8z M155.7,106.6h1.3v-1.9h-4.9v1.9h1.3v8.3h-1.3v1.9h4.9
			v-1.9h-1.3V106.6z M161.9,104.6h-3.2v1.9h1.2v8.3h-1.2v1.9h3.2v-1.4c0.7,1,1.8,1.5,3,1.5c1.2,0,2.4-0.6,3.2-1.5
			c0.8-0.9,1.2-2,1.2-3.2c0-2.6-2.1-4.7-4.7-4.7c-1.2,0-2.2,0.5-2.8,1.4V104.6z M164.5,109.4c1.5,0,2.8,1.2,2.8,2.8
			c0,1.5-1.2,2.8-2.7,2.8c-1.6,0-2.8-1.2-2.8-2.8C161.8,110.7,163,109.4,164.5,109.4 M177.5,114.1c-0.5,0.7-1.3,1.1-2.2,1.1
			c-1.3,0-2.4-0.9-2.7-2.2h7.3l0.1-0.7c0-1.3-0.4-2.4-1.3-3.4c-0.9-0.9-2.1-1.5-3.4-1.5c-2.7,0-4.7,2.2-4.7,4.8
			c0,2.7,2.1,4.7,4.8,4.7c1.9,0,3.6-1.2,4.3-2.9H177.5z M172.6,111.4c0.3-1.2,1.4-2.1,2.7-2.1c1.3,0,2.5,0.8,2.9,2.1H172.6z
			 M184.5,107.7h-3.1v1.9h1.2v5.2h-1.2v1.9h4.4v-1.9h-1.2v-2.3c0-0.9,0.1-1.6,0.8-2.2c0.5-0.5,1.1-0.6,1.8-0.7v-2.1
			c-1.2,0.1-2.2,0.6-2.7,1.6V107.7z M193.5,117c2.7,0,4.8-2.2,4.8-4.8c0-2.6-2.1-4.8-4.7-4.8c-2.6,0-4.8,2.1-4.8,4.8
			C188.7,114.8,190.8,117,193.5,117 M193.5,115c-1.5,0-2.7-1.3-2.7-2.8c0-1.5,1.3-2.7,2.8-2.7c1.5,0,2.7,1.3,2.7,2.8
			C196.2,113.8,195,115,193.5,115 M207,116.8h3.2v-1.9h-1.1v-5.2h1.1v-1.9H207v1.3c-0.6-1-1.6-1.5-2.8-1.5c-2.7,0-4.8,2.2-4.8,4.8
			c0,2.6,2.1,4.7,4.7,4.7c1.2,0,2.3-0.5,2.9-1.5V116.8z M204.3,115c-1.5,0-2.7-1.2-2.7-2.7c0-1.5,1.2-2.8,2.7-2.8
			c1.5,0,2.7,1.2,2.7,2.7C207.1,113.7,205.8,115,204.3,115 M212.8,114.8h-1.2v1.9h4.4v-1.9h-1.2V112c0-0.7,0-1.3,0.5-1.9
			c0.4-0.5,0.9-0.7,1.4-0.7c0.6,0,1.2,0.3,1.5,0.8c0.3,0.5,0.3,1.2,0.3,1.7v2.8h-1.2v1.9h4.4v-1.9h-1.2v-2.9c0-0.7,0-1.2,0.4-1.7
			c0.4-0.4,1-0.7,1.5-0.7c0.6,0,1.1,0.3,1.5,0.7c0.3,0.5,0.3,1.1,0.3,1.6v2.9h-1.2v1.9h4.4v-1.9h-1.2v-3.4c0-1,0-1.9-0.7-2.8
			c-0.7-0.7-1.6-1.2-2.6-1.2c-1.3,0-2.5,0.7-3,1.9c-0.5-1.1-1.6-1.9-2.8-1.9c-1.2,0-2,0.6-2.6,1.6v-1.4h-3.1v1.9h1.2V114.8z
			 M235.9,114.1c-0.5,0.7-1.3,1.1-2.2,1.1c-1.3,0-2.4-0.9-2.7-2.2h7.3l0.1-0.7c0-1.3-0.4-2.4-1.3-3.4c-0.9-0.9-2.1-1.5-3.4-1.5
			c-2.7,0-4.7,2.2-4.7,4.8c0,2.7,2.1,4.7,4.8,4.7c1.9,0,3.6-1.2,4.3-2.9H235.9z M231,111.4c0.3-1.2,1.4-2.1,2.7-2.1
			c1.3,0,2.5,0.8,2.9,2.1H231z M231.8,106.6l4.7-2.2l-0.9-1.8l-4.5,2.6L231.8,106.6z M242.9,107.7h-3.1v1.9h1.2v5.2h-1.2v1.9h4.4
			v-1.9h-1.2v-2.3c0-0.9,0.1-1.6,0.8-2.2c0.5-0.5,1.1-0.6,1.8-0.7v-2.1c-1.2,0.1-2.2,0.6-2.7,1.6V107.7z M250.4,107.7h-3.2v1.9h1.2
			v5.2h-1.2v1.9h4.4v-1.9h-1.2V107.7z M250.4,104.6h-2.1v2.2h2.1V104.6z M260,113.7c-0.4,0.8-1.3,1.3-2.2,1.3
			c-1.5,0-2.7-1.2-2.7-2.7c0-1.5,1.1-2.8,2.7-2.8c0.5,0,0.9,0.1,1.3,0.3c0.4,0.2,0.7,0.5,1,0.9h1.9v-3h-1.8v0.9
			c-0.7-0.7-1.6-1.1-2.6-1.1c-2.6,0-4.6,2.3-4.6,4.8c0,2.7,2.2,4.8,4.8,4.8c2,0,3.9-1.4,4.5-3.3H260z M271.3,116.8h3.2v-1.9h-1.1
			v-5.2h1.1v-1.9h-3.2v1.3c-0.6-1-1.6-1.5-2.8-1.5c-2.7,0-4.8,2.2-4.8,4.8c0,2.6,2.1,4.7,4.7,4.7c1.2,0,2.3-0.5,2.9-1.5V116.8z
			 M268.5,115c-1.5,0-2.7-1.2-2.7-2.7c0-1.5,1.2-2.8,2.7-2.8c1.5,0,2.7,1.2,2.7,2.7C271.3,113.7,270.1,115,268.5,115 M290.6,109.6
			h1.1v-1.9h-4.2v1.9h0.9l-1.7,4.4l-1.6-4.4h0.9v-1.9h-4.3v1.9h1.2l2.8,7l-0.6,1.5h-1.1v1.9h4.4v-1.9h-1.2L290.6,109.6z
			 M298.9,116.8h9v-3.7h-2.3v1.6h-3v-3.2h3.5v-1.8h-3.5v-3h3v1.6h2.3v-3.7h-9v1.9h1.3v8.3h-1.3V116.8z M309.6,114.1v2.6h1.6V116
			c0.6,0.7,1.4,1,2.3,1c1.7,0,3.2-1,3.2-2.9c0-2-1.8-2.6-3.4-2.9c-0.7-0.2-1.5-0.3-1.5-1.2c0-0.6,0.6-1,1.2-1c0.6,0,1.1,0.4,1.2,1.1
			h2v-2.5h-1.5v0.6c-0.5-0.6-1.2-0.8-2.1-0.8c-1.6,0-3.1,1-3.1,2.7c0,2,1.7,2.5,3.3,2.9c0.7,0.2,1.5,0.3,1.5,1.2
			c0,0.7-0.6,1.1-1.2,1.1c-0.8,0-1.4-0.5-1.5-1.4H309.6z M319.3,118.2h-1.2v1.9h4.4v-1.9h-1.2v-2.7c0.7,1,1.9,1.4,3.1,1.4
			c2.5,0,4.5-2.2,4.5-4.6c0-2.6-2.1-4.7-4.6-4.7c-1.2,0-2.3,0.5-3,1.5v-1.4h-3.2v1.9h1.2V118.2z M324.1,115c-1.5,0-2.7-1.2-2.7-2.7
			c0-1.6,1.3-2.8,2.8-2.8c1.5,0,2.7,1.3,2.7,2.8C326.9,113.8,325.6,115,324.1,115 M337.7,116.8h3.2v-1.9h-1.1v-5.2h1.1v-1.9h-3.2
			v1.3c-0.6-1-1.6-1.5-2.8-1.5c-2.7,0-4.8,2.2-4.8,4.8c0,2.6,2.1,4.7,4.7,4.7c1.2,0,2.3-0.5,2.9-1.5V116.8z M335,115
			c-1.5,0-2.7-1.2-2.7-2.7c0-1.5,1.2-2.8,2.7-2.8c1.5,0,2.7,1.2,2.7,2.7C337.8,113.7,336.6,115,335,115 M343.5,114.8h-1.2v1.9h4.4
			v-1.9h-1.2v-2.6c0-0.6,0-1.4,0.4-1.9c0.4-0.5,1-0.8,1.6-0.8c0.6,0,1.2,0.2,1.6,0.7c0.4,0.5,0.4,1.1,0.4,1.6v2.9h-1.2v1.9h4.4v-1.9
			h-1.2v-3.6c0-1,0-1.8-0.8-2.7c-0.7-0.7-1.6-1.1-2.6-1.1c-1.1,0-2.1,0.5-2.7,1.5v-1.3h-3.2v1.9h1.2V114.8z M349.8,103.9
			c-0.4,0.3-0.8,0.5-1.3,0.5c-0.4,0-0.8-0.1-1.2-0.3c-0.4-0.1-0.8-0.2-1.3-0.2c-0.6,0-1.3,0.3-1.7,0.6l1.1,1.5
			c0.3-0.3,0.7-0.5,1.1-0.5c0.7,0,1.4,0.5,2.4,0.5c0.7,0,1.4-0.3,1.9-0.8L349.8,103.9z M361.5,116.8h3.2v-1.9h-1.1v-5.2h1.1v-1.9
			h-3.2v1.3c-0.6-1-1.6-1.5-2.8-1.5c-2.7,0-4.8,2.2-4.8,4.8c0,2.6,2.1,4.7,4.7,4.7c1.2,0,2.3-0.5,2.9-1.5V116.8z M358.8,115
			c-1.5,0-2.7-1.2-2.7-2.7c0-1.5,1.2-2.8,2.7-2.8c1.5,0,2.7,1.2,2.7,2.7C361.6,113.7,360.4,115,358.8,115 M369.5,114.4h-2.1v2.4h2.1
			V114.4z"/>
		
			<line fill="none" stroke="#211915" stroke-linecap="round" stroke-linejoin="round" stroke-dasharray="0,2.004" x1="113.2" y1="21" x2="113.2" y2="116.2"/>
		<path fill="none" stroke="#211915" stroke-linecap="round" stroke-linejoin="round" d="M113.2,19L113.2,19 M113.2,117.2
			L113.2,117.2"/>
	</g>
</g>
</svg>
