<?xml version="1.0" encoding="utf-8"?>
<!-- Generator: Adobe Illustrator 18.0.0, SVG Export Plug-In . SVG Version: 6.00 Build 0)  -->
<!DOCTYPE svg PUBLIC "-//W3C//DTD SVG 1.1//EN" "http://www.w3.org/Graphics/SVG/1.1/DTD/svg11.dtd">
<svg version="1.1" xmlns="http://www.w3.org/2000/svg" xmlns:xlink="http://www.w3.org/1999/xlink" x="0px" y="0px"
	 viewBox="0 0 200.1 24" enable-background="new 0 0 200.1 24" xml:space="preserve">
<g id="Capa_1">
</g>
<g id="Capa_2">
	<g>
		<rect x="0" y="0" fill="#B9007C" width="200.1" height="24"/>
		<path fill="#FFFFFF" d="M57.1,16.3h5.7v-1.5h-3.4l1.4-1.3c1.2-1.2,1.7-2,1.7-3.2c0-1.6-1.4-2.6-2.9-2.6c-1,0-1.8,0.3-2.4,0.8v1.8
			c0.6-0.6,1.3-1,2.2-1c0.8,0,1.4,0.5,1.4,1.2c0,0.7-0.4,1.3-1.4,2.3l-2.4,2.2V16.3z M67.1,16.5c1.6,0,2.9-1.2,2.9-3
			c0-1.7-1.2-2.7-2.6-2.7c-0.8,0-1.5,0.3-1.9,0.8c0.1-1.2,0.8-2.3,2.2-2.3c0.6,0,1.1,0.2,1.6,0.5V8.3c-0.6-0.4-1.2-0.5-1.8-0.5
			c-2.5,0-3.7,2.3-3.7,4.8C63.9,15,65,16.5,67.1,16.5 M67,15c-0.9,0-1.4-0.6-1.5-1.8c0.2-0.6,0.8-1.1,1.5-1.1c0.8,0,1.4,0.6,1.4,1.4
			C68.4,14.4,67.8,15,67,15 M76.7,16.5c1,0,1.6-0.4,1.9-0.9v0.7h1.6V7.9h-1.6v3.1c-0.3-0.4-0.9-0.9-1.9-0.9c-1.6,0-2.7,1.4-2.7,3.1
			C74,15.1,75.1,16.5,76.7,16.5 M77.1,15c-0.9,0-1.6-0.7-1.6-1.7c0-0.9,0.6-1.7,1.6-1.7c0.7,0,1.2,0.4,1.4,0.9v1.6
			C78.3,14.6,77.8,15,77.1,15 M84.6,16.5c0.9,0,1.7-0.2,2.2-0.6v-1.4c-0.5,0.3-1.2,0.5-1.8,0.5c-1,0-1.8-0.4-1.9-1.2h4.1v-0.4
			c0-1.7-1-3.2-2.7-3.2c-1.8,0-3,1.4-3,3.1C81.4,15.3,82.8,16.5,84.6,16.5 M83,12.7c0.1-0.7,0.6-1.2,1.3-1.2c0.7,0,1.2,0.6,1.2,1.2
			H83z M94.1,15c-0.9,0-1.6-0.7-1.6-1.7c0-0.9,0.7-1.7,1.6-1.7c0.9,0,1.6,0.7,1.6,1.7C95.7,14.3,95,15,94.1,15 M94.1,16.5
			c1.9,0,3.2-1.4,3.2-3.2c0-1.7-1.3-3.1-3.2-3.1c-1.9,0-3.2,1.4-3.2,3.1C90.9,15.1,92.2,16.5,94.1,16.5 M101.3,16.5
			c0.7,0,1.3-0.1,1.8-0.4v-1.4c-0.5,0.3-0.9,0.4-1.6,0.4c-1,0-1.8-0.7-1.8-1.7c0-1,0.8-1.7,1.8-1.7c0.6,0,1,0.1,1.5,0.4v-1.4
			c-0.5-0.3-1-0.4-1.7-0.4c-1.6,0-3.1,1.2-3.1,3.1C98.1,15.3,99.6,16.5,101.3,16.5 M105,14.5c0,1.2,0.6,2,1.9,2
			c0.5,0,1.1-0.1,1.4-0.3v-1.4c-0.3,0.1-0.5,0.2-0.8,0.2c-0.5,0-0.8-0.2-0.8-0.8v-2.4h1.6v-1.4h-1.6V8.7H105v1.6h-1.1v1.4h1.1V14.5z
			 M113.5,10.3v3.8c-0.3,0.4-0.8,0.8-1.3,0.8c-0.5,0-1.1-0.2-1.1-1.3v-3.3h-1.6V14c0,1.5,0.7,2.5,2.1,2.5c0.9,0,1.5-0.4,1.9-0.9v0.7
			h1.6v-6H113.5z M120.2,16.5c1.6,0,2.7-1.4,2.7-3.2c0-1.8-1.1-3.1-2.7-3.1c-1,0-1.6,0.5-1.9,0.9V7.9h-1.6v8.4h1.6v-0.7
			C118.6,16,119.2,16.5,120.2,16.5 M119.7,15c-0.7,0-1.2-0.4-1.4-0.9v-1.6c0.2-0.5,0.8-0.9,1.4-0.9c0.9,0,1.6,0.7,1.6,1.7
			C121.3,14.3,120.6,15,119.7,15 M124.1,16.3h1.6v-3.5c0.2-0.5,0.8-1,1.7-1c0.2,0,0.3,0,0.5,0.1v-1.7l-0.2,0c-0.9,0-1.7,0.6-2,1.2
			v-1h-1.6V16.3z M131.8,16.5c0.9,0,1.7-0.2,2.2-0.6v-1.4c-0.5,0.3-1.2,0.5-1.8,0.5c-1,0-1.8-0.4-1.9-1.2h4.1v-0.4
			c0-1.7-1-3.2-2.7-3.2c-1.8,0-3,1.4-3,3.1C128.6,15.3,130,16.5,131.8,16.5 M130.2,12.7c0.1-0.7,0.6-1.2,1.3-1.2
			c0.7,0,1.2,0.6,1.2,1.2H130.2z M140.8,16.5c1,0,1.6-0.4,1.9-0.9v0.7h1.6V7.9h-1.6v3.1c-0.3-0.4-0.9-0.9-1.9-0.9
			c-1.6,0-2.7,1.4-2.7,3.1C138.1,15.1,139.2,16.5,140.8,16.5 M141.3,15c-0.9,0-1.6-0.7-1.6-1.7c0-0.9,0.6-1.7,1.6-1.7
			c0.7,0,1.2,0.4,1.4,0.9v1.6C142.5,14.6,142,15,141.3,15 M148.7,16.5c0.9,0,1.7-0.2,2.2-0.6v-1.4c-0.5,0.3-1.2,0.5-1.8,0.5
			c-1,0-1.8-0.4-1.9-1.2h4.1v-0.4c0-1.7-1-3.2-2.7-3.2c-1.8,0-3,1.4-3,3.1C145.6,15.3,147,16.5,148.7,16.5 M147.2,12.7
			c0.1-0.7,0.6-1.2,1.3-1.2c0.7,0,1.2,0.6,1.2,1.2H147.2z M155.1,16.3h5.7v-1.5h-3.4l1.4-1.3c1.2-1.2,1.7-2,1.7-3.2
			c0-1.6-1.4-2.6-2.9-2.6c-1,0-1.8,0.3-2.3,0.8v1.8c0.6-0.6,1.3-1,2.2-1c0.8,0,1.4,0.5,1.4,1.2c0,0.7-0.4,1.3-1.4,2.3l-2.4,2.2V16.3
			z M165.4,16.5c2.2,0,3.5-2.1,3.5-4.4c0-2.3-1.3-4.4-3.5-4.4c-2.2,0-3.5,2.1-3.5,4.4C161.9,14.4,163.2,16.5,165.4,16.5 M165.4,14.9
			c-1.2,0-1.8-1.3-1.8-2.7c0-1.5,0.7-2.7,1.8-2.7s1.8,1.3,1.8,2.7C167.2,13.6,166.6,14.9,165.4,14.9 M171.4,16.3h1.6V7.9h-1.4
			L169.7,9v1.7l1.7-0.9V16.3z M174.9,16.3h1.8l3.4-7.1V7.9h-5.7v1.5h3.8L174.9,16.3z"/>
	</g>
</g>
</svg>
