<?xml version="1.0" encoding="utf-8"?>
<!-- Generator: Adobe Illustrator 18.0.0, SVG Export Plug-In . SVG Version: 6.00 Build 0)  -->
<!DOCTYPE svg PUBLIC "-//W3C//DTD SVG 1.1//EN" "http://www.w3.org/Graphics/SVG/1.1/DTD/svg11.dtd">
<svg version="1.1" xmlns="http://www.w3.org/2000/svg" xmlns:xlink="http://www.w3.org/1999/xlink" x="0px" y="0px"
	 viewBox="0 0 511.1 107.3" enable-background="new 0 0 511.1 107.3" xml:space="preserve">
<g id="Capa_1">
	<path fill="#DDDB1C" d="M13.8,22.1v1.1H11l2.5-2.3c1.1-1,2-1.9,2-3.4c0-2-1.5-3.5-3.5-3.5c-2.1,0-3.7,1.6-3.7,3.8h1.9
		c0-1,0.6-1.8,1.6-1.8c0.9,0,1.6,0.6,1.6,1.5c0,0.9-0.7,1.5-1.3,2l-3.9,3.7V25h7v-2.8H13.8z M28.7,22.1c0.4,1.9,1.9,3.1,3.9,3.1
		c2.2,0,4.1-1.6,4.1-3.8c0-2-1.5-3.7-3.5-3.7c-0.7,0-1.3,0.2-1.9,0.6l0.4-2.3h4.1v-1.7h-5.7l-1,5.7l1.7,0.4c0.3-0.7,1-1.1,1.7-1.1
		c1.1,0,2,0.8,2,2c0,1.1-0.9,2-2,2c-0.8,0-1.5-0.5-1.8-1.2H28.7z M73,18.7h1V17h-3.7v1.7H71l-1.5,3.9l-1.4-3.9h0.8V17h-3.8v1.7h1.1
		l2.4,6.2L68,26.2h-1v1.7h3.9v-1.7h-1L73,18.7z M108.1,22.1v1.1h-2.7l2.5-2.3c1.1-1,2-1.9,2-3.4c0-2-1.5-3.5-3.5-3.5
		c-2.1,0-3.7,1.6-3.7,3.8h1.9c0-1,0.6-1.8,1.6-1.8c0.9,0,1.6,0.6,1.6,1.5c0,0.9-0.7,1.5-1.3,2l-3.9,3.7V25h7v-2.8H108.1z
		 M126.9,14.3l-2.9,4.2c-0.6,0.8-0.9,1.6-0.9,2.6c0,1.1,0.4,2.1,1.2,2.9c0.7,0.7,1.8,1.1,2.8,1.1c2.2,0,4-1.8,4-4
		c0-1.9-1.4-3.6-3.4-3.6c-0.4,0-0.6,0.1-0.9,0.2l2.5-3.6H126.9z M127,23.3c-1.1,0-2-0.9-2-2c0-1.1,0.9-2,2-2c1.1,0,2,0.9,2,2
		C129,22.4,128.1,23.3,127,23.3 M166.2,25h2.9v-1.7h-1v-9h-2.9V16h1.1v2.2c-0.6-0.8-1.6-1.3-2.6-1.3c-2.3,0-4.1,1.9-4.1,4.1
		c0,2.2,1.8,4.1,4.1,4.1c1.1,0,2-0.4,2.6-1.3V25z M163.8,23.4c-1.3,0-2.4-1.1-2.4-2.4c0-1.4,1.1-2.5,2.4-2.5c1.3,0,2.4,1.1,2.4,2.4
		C166.3,22.3,165.2,23.4,163.8,23.4 M187.4,22.6c-0.4,0.7-1.1,1-1.9,1c-1.1,0-2.2-0.8-2.4-1.9h6.5l0.1-0.6c0-1.1-0.3-2.2-1.1-3
		c-0.8-0.8-1.9-1.3-3-1.3c-2.4,0-4.2,1.9-4.2,4.3c0,2.4,1.9,4.2,4.2,4.2c1.7,0,3.1-1,3.8-2.6H187.4z M183,20.3
		c0.2-1,1.3-1.9,2.3-1.9c1.2,0,2.2,0.7,2.5,1.9H183z M222.2,25.2c2.4,0,4.2-1.9,4.2-4.3c0-2.3-1.9-4.2-4.2-4.2
		c-2.3,0-4.2,1.9-4.2,4.2C218,23.3,219.9,25.2,222.2,25.2 M222.2,23.4c-1.4,0-2.4-1.1-2.4-2.5c0-1.3,1.1-2.4,2.4-2.4
		c1.3,0,2.4,1.1,2.4,2.4C224.6,22.3,223.5,23.4,222.2,23.4 M244.7,22.3c-0.3,0.7-1.1,1.1-1.9,1.1c-1.3,0-2.4-1.1-2.4-2.4
		c0-1.3,1-2.4,2.4-2.4c0.4,0,0.8,0.1,1.1,0.3c0.3,0.2,0.6,0.5,0.9,0.8h1.7V17h-1.6v0.8c-0.6-0.6-1.4-1-2.3-1c-2.3,0-4,2-4,4.2
		c0,2.3,1.9,4.2,4.2,4.2c1.8,0,3.5-1.2,4-2.9H244.7z M262.2,18.7h1.4V17h-1.4v-2.7h-1.8V17h-1.3v1.7h1.3V25h3.3v-1.7h-1.5V18.7z
		 M284.1,17h-2.9v1.7h1v2.6c0,0.6,0,1.1-0.3,1.6c-0.3,0.4-0.8,0.7-1.4,0.7c-0.5,0-1-0.2-1.3-0.7c-0.3-0.4-0.3-1-0.3-1.5V17h-2.9v1.7
		h1v3.2c0,0.9,0.1,1.6,0.7,2.3c0.6,0.7,1.4,1,2.2,1c0.9,0,1.9-0.4,2.4-1.2v1h2.7v-1.7h-1V17z M300.5,14.3h-2.9V16h1v7.3h-1V25h2.9
		v-1.2c0.6,0.9,1.6,1.3,2.7,1.3c1,0,2.1-0.5,2.8-1.3c0.7-0.8,1.1-1.8,1.1-2.8c0-2.3-1.9-4.1-4.1-4.1c-1,0-1.9,0.4-2.5,1.3V14.3z
		 M302.8,18.5c1.3,0,2.4,1.1,2.4,2.4c0,1.3-1,2.5-2.4,2.5c-1.4,0-2.5-1.1-2.5-2.5C300.4,19.6,301.5,18.5,302.8,18.5 M322.1,17h-2.7
		v1.7h1v4.6h-1V25h3.9v-1.7h-1v-2c0-0.8,0.1-1.4,0.7-1.9c0.5-0.4,1-0.6,1.6-0.6v-1.9c-1,0-1.9,0.5-2.4,1.5V17z M343,22.6
		c-0.5,0.7-1.1,1-1.9,1c-1.1,0-2.2-0.8-2.4-1.9h6.5l0.1-0.6c0-1.1-0.3-2.2-1.1-3c-0.8-0.8-1.9-1.3-3-1.3c-2.4,0-4.2,1.9-4.2,4.3
		c0,2.4,1.9,4.2,4.2,4.2c1.7,0,3.1-1,3.8-2.6H343z M338.7,20.3c0.2-1,1.3-1.9,2.3-1.9c1.2,0,2.2,0.7,2.5,1.9H338.7z M380.4,25h2.9
		v-1.7h-1v-9h-2.9V16h1.1v2.2c-0.6-0.8-1.6-1.3-2.6-1.3c-2.3,0-4.1,1.9-4.1,4.1c0,2.2,1.8,4.1,4.1,4.1c1.1,0,2-0.4,2.6-1.3V25z
		 M378,23.4c-1.3,0-2.4-1.1-2.4-2.4c0-1.4,1.1-2.5,2.4-2.5c1.3,0,2.4,1.1,2.4,2.4C380.4,22.3,379.4,23.4,378,23.4 M401.5,22.6
		c-0.4,0.7-1.1,1-1.9,1c-1.1,0-2.2-0.8-2.4-1.9h6.5l0.1-0.6c0-1.1-0.3-2.2-1.1-3c-0.8-0.8-1.9-1.3-3-1.3c-2.4,0-4.2,1.9-4.2,4.3
		c0,2.4,1.9,4.2,4.2,4.2c1.7,0,3.1-1,3.8-2.6H401.5z M397.2,20.3c0.2-1,1.3-1.9,2.3-1.9c1.2,0,2.2,0.7,2.5,1.9H397.2z M438.1,22.1
		v1.1h-2.7l2.5-2.3c1.1-1,2-1.9,2-3.4c0-2-1.5-3.5-3.5-3.5c-2.1,0-3.7,1.6-3.7,3.8h1.9c0-1,0.6-1.8,1.6-1.8c0.9,0,1.6,0.6,1.6,1.5
		c0,0.9-0.7,1.5-1.3,2l-3.9,3.7V25h7v-2.8H438.1z M460.8,18.1c0-1.2-0.2-2.1-1.2-3c-0.7-0.7-1.7-1.1-2.7-1.1c-1.1,0-2.1,0.5-2.9,1.2
		c-0.8,0.9-1,1.7-1,2.9v3c0,1.2,0.2,2.1,1.1,3c0.7,0.7,1.7,1.1,2.7,1.1c1.1,0,2.1-0.5,2.9-1.3c0.8-0.9,1-1.7,1-2.9V18.1z M455,18.1
		c0-0.5,0-1,0.3-1.4c0.3-0.6,0.9-0.8,1.6-0.8c0.6,0,1.2,0.2,1.5,0.7c0.3,0.5,0.4,1,0.4,1.5v3c0,0.5,0,1-0.3,1.4
		c-0.3,0.6-0.9,0.8-1.6,0.8c-0.6,0-1.2-0.2-1.5-0.7c-0.3-0.5-0.3-1-0.3-1.5V18.1z M478.7,14.3h-3.6V16h1.6v7.3h-1.3V25h4.5v-1.7
		h-1.3V14.3z M494.5,14.3v3.4h1.9V16h3.1l-4.1,9h2.2l4-9v-1.7H494.5z"/>
	<path fill="#FFFFFF" d="M141.9,70.6h4.8v-1.8h-1.2l-4-9.6h-3.8V61h1.3l-3.3,7.8h-1.2v1.8h4.7V69h-1.2l0.7-1.7h4l0.7,1.7h-1.3V70.6z
		 M141.9,65.6H139l1.5-3.9h0L141.9,65.6z M155.8,62.1h-3.1v1.8h1.1v2.8c0,0.6,0,1.2-0.4,1.7c-0.3,0.4-0.9,0.7-1.4,0.7
		c-0.6,0-1.1-0.2-1.4-0.7c-0.3-0.5-0.3-1.1-0.3-1.6v-4.6h-3.1v1.8h1.1v3.4c0,0.9,0.1,1.7,0.8,2.5c0.6,0.7,1.5,1.1,2.4,1.1
		c1,0,2-0.4,2.6-1.3v1.1h2.9v-1.8h-1.1V62.1z M164.9,70.6h3.1v-1.8h-1.1v-9.6h-3.1V61h1.1v2.3c-0.7-0.9-1.7-1.4-2.8-1.4
		c-2.4,0-4.3,2-4.3,4.4c0,2.4,2,4.4,4.4,4.4c1.1,0,2.2-0.4,2.8-1.4V70.6z M162.4,68.9c-1.4,0-2.6-1.2-2.6-2.6c0-1.5,1.2-2.6,2.6-2.6
		c1.4,0,2.6,1.2,2.6,2.6C165,67.7,163.9,68.9,162.4,68.9 M171.9,62.1h-3.1v1.8h1.1v4.9h-1.1v1.8h4.2v-1.8h-1.1V62.1z M171.9,59.2h-2
		v2.1h2V59.2z M177.1,63.9h1.5v-1.8h-1.5v-2.9h-2v2.9h-1.3v1.8h1.3v6.7h3.5v-1.8h-1.6V63.9z M184,70.8c2.5,0,4.5-2,4.5-4.5
		c0-2.4-2-4.5-4.4-4.5c-2.5,0-4.5,2-4.5,4.5C179.6,68.8,181.5,70.8,184,70.8 M184,68.9c-1.5,0-2.5-1.2-2.5-2.6
		c0-1.4,1.2-2.6,2.6-2.6c1.4,0,2.5,1.2,2.5,2.6C186.6,67.8,185.4,68.9,184,68.9 M192.1,62.1h-2.9v1.8h1.1v4.9h-1.1v1.8h4.2v-1.8
		h-1.1v-2.2c0-0.8,0.1-1.5,0.7-2c0.5-0.4,1.1-0.6,1.7-0.6v-2c-1.1,0-2.1,0.5-2.6,1.6V62.1z M198.7,62.1h-3.1v1.8h1.1v4.9h-1.1v1.8
		h4.2v-1.8h-1.1V62.1z M198.7,59.2h-2v2.1h2V59.2z M205.1,70.8c2.5,0,4.5-2,4.5-4.5c0-2.4-2-4.5-4.5-4.5c-2.5,0-4.5,2-4.5,4.5
		C200.7,68.8,202.6,70.8,205.1,70.8 M205.1,68.9c-1.5,0-2.5-1.2-2.5-2.6c0-1.4,1.2-2.6,2.6-2.6c1.4,0,2.5,1.2,2.5,2.6
		C207.7,67.8,206.6,68.9,205.1,68.9 M215.4,67.4c-0.1,2.1,1.5,3.4,3.5,3.4c1,0,2-0.4,2.7-1.2c0.7-0.8,0.8-1.6,0.8-2.7v-6h1.2v-1.8
		H219V61h1.2v5.7c0,0.4,0,1-0.2,1.4c-0.2,0.4-0.6,0.6-1.1,0.6c-0.8,0-1.2-0.7-1.2-1.4H215.4z M231.5,70.6h3.1v-1.8h-1.1v-4.9h1.1
		v-1.8h-3.1v1.2c-0.6-0.9-1.6-1.4-2.7-1.4c-2.5,0-4.5,2.1-4.5,4.5c0,2.4,1.9,4.5,4.4,4.5c1.1,0,2.1-0.4,2.8-1.4V70.6z M228.9,68.9
		c-1.4,0-2.5-1.2-2.5-2.5c0-1.4,1.1-2.6,2.6-2.6c1.4,0,2.6,1.1,2.6,2.5C231.5,67.7,230.4,68.9,228.9,68.9 M238.4,62.1h-3.1v1.8h1.1
		v4.9h-1.1v1.8h4.2v-1.8h-1.1V62.1z M238.4,59.2h-2v2.1h2V59.2z M241.6,68.8h-1.1v1.8h4.2v-1.8h-1.1v-2.6c0-0.7,0-1.2,0.5-1.7
		c0.4-0.4,0.8-0.6,1.4-0.6c0.6,0,1.1,0.3,1.4,0.8c0.3,0.4,0.3,1.1,0.3,1.6v2.6h-1.1v1.8h4.2v-1.8H249V66c0-0.6,0-1.1,0.4-1.6
		c0.3-0.4,0.9-0.6,1.4-0.6c0.5,0,1.1,0.2,1.4,0.7c0.3,0.5,0.3,1,0.3,1.6v2.8h-1.1v1.8h4.2v-1.8h-1.1v-3.2c0-1,0-1.8-0.7-2.6
		c-0.6-0.7-1.5-1.1-2.5-1.1c-1.2,0-2.3,0.7-2.8,1.8c-0.5-1.1-1.5-1.8-2.7-1.8c-1.1,0-1.9,0.6-2.5,1.5v-1.3h-2.9v1.8h1.1V68.8z
		 M262.9,68.1c-0.5,0.7-1.2,1-2.1,1c-1.2,0-2.3-0.9-2.6-2h6.9l0.1-0.7c0-1.2-0.4-2.3-1.2-3.2c-0.8-0.8-2-1.4-3.2-1.4
		c-2.5,0-4.5,2-4.5,4.6c0,2.5,2,4.5,4.5,4.5c1.8,0,3.4-1.1,4-2.7H262.9z M258.2,65.6c0.2-1.1,1.3-2,2.5-2c1.3,0,2.4,0.8,2.7,2H258.2
		z M276.8,61.1h1.7v1.7h1.7v-3.6h-9v3.6h1.7v-1.7h1.7v7.7h-1.3v1.8h4.7v-1.8h-1.2V61.1z M285,70.8c2.5,0,4.5-2,4.5-4.5
		c0-2.4-2-4.5-4.5-4.5c-2.5,0-4.5,2-4.5,4.5C280.5,68.8,282.5,70.8,285,70.8 M285,68.9c-1.5,0-2.5-1.2-2.5-2.6
		c0-1.4,1.2-2.6,2.6-2.6c1.4,0,2.5,1.2,2.5,2.6C287.6,67.8,286.4,68.9,285,68.9 M293.1,62.1h-2.9v1.8h1.1v4.9h-1.1v1.8h4.2v-1.8
		h-1.1v-2.2c0-0.8,0.1-1.5,0.7-2c0.5-0.4,1.1-0.6,1.7-0.6v-2c-1.1,0-2.1,0.5-2.6,1.6V62.1z M299.5,62.1h-2.9v1.8h1.1v4.9h-1.1v1.8
		h4.2v-1.8h-1.1v-2.2c0-0.8,0.1-1.5,0.7-2c0.5-0.4,1.1-0.6,1.7-0.6v-2c-1.1,0-2.1,0.5-2.6,1.6V62.1z M309.6,68.1
		c-0.5,0.7-1.2,1-2.1,1c-1.2,0-2.3-0.9-2.6-2h6.9l0.1-0.7c0-1.2-0.4-2.3-1.2-3.2c-0.8-0.8-2-1.4-3.2-1.4c-2.5,0-4.4,2-4.4,4.6
		c0,2.5,2,4.5,4.5,4.5c1.8,0,3.4-1.1,4-2.7H309.6z M304.9,65.6c0.2-1.1,1.3-2,2.5-2c1.3,0,2.4,0.8,2.7,2H304.9z M312.9,68.1v2.5h1.5
		v-0.7c0.6,0.7,1.3,0.9,2.2,0.9c1.6,0,3.1-1,3.1-2.7c0-1.9-1.6-2.4-3.2-2.8c-0.6-0.1-1.4-0.3-1.4-1.1c0-0.6,0.6-0.9,1.1-0.9
		c0.6,0,1.1,0.4,1.1,1h1.9v-2.3h-1.4v0.6c-0.5-0.6-1.2-0.8-1.9-0.8c-1.5,0-2.9,0.9-2.9,2.6c0,1.9,1.6,2.3,3.1,2.7
		c0.7,0.2,1.5,0.3,1.5,1.2c0,0.6-0.6,1.1-1.2,1.1c-0.8,0-1.3-0.5-1.4-1.3H312.9z M325.6,70.6h5.3c1,0,1.9-0.1,2.6-0.8
		c0.7-0.6,1.1-1.5,1.1-2.4c0-1.4-0.7-2.4-2-2.9c1-0.4,1.5-1.4,1.5-2.4c0-0.9-0.3-1.7-1.1-2.3c-0.7-0.5-1.5-0.6-2.4-0.6h-5.1V61h1.2
		v7.8h-1.2V70.6z M329,61h1.1c0.5,0,1,0,1.4,0.2c0.4,0.3,0.6,0.7,0.6,1.1c0,0.4-0.2,0.8-0.5,1.1c-0.4,0.3-0.9,0.3-1.5,0.3H329V61z
		 M329,65.5h1.2c0.6,0,1.1,0,1.6,0.3c0.4,0.3,0.6,0.8,0.6,1.3c0,0.5-0.2,1-0.6,1.2c-0.4,0.3-1.1,0.3-1.6,0.3H329V65.5z M339.8,70.8
		c2.5,0,4.5-2,4.5-4.5c0-2.4-2-4.5-4.4-4.5c-2.5,0-4.5,2-4.5,4.5C335.4,68.8,337.3,70.8,339.8,70.8 M339.8,68.9
		c-1.5,0-2.5-1.2-2.5-2.6c0-1.4,1.2-2.6,2.6-2.6c1.4,0,2.5,1.2,2.5,2.6C342.4,67.8,341.3,68.9,339.8,68.9 M352.1,70.6h3.1v-1.8h-1.1
		v-9.6H351V61h1.1v2.3c-0.7-0.9-1.7-1.4-2.8-1.4c-2.4,0-4.3,2-4.3,4.4c0,2.4,2,4.4,4.4,4.4c1.1,0,2.2-0.4,2.8-1.4V70.6z M349.6,68.9
		c-1.4,0-2.6-1.2-2.6-2.6c0-1.5,1.2-2.6,2.6-2.6c1.4,0,2.6,1.2,2.6,2.6C352.2,67.7,351,68.9,349.6,68.9 M362.4,68.1
		c-0.5,0.7-1.2,1-2.1,1c-1.2,0-2.3-0.9-2.6-2h6.9l0.1-0.7c0-1.2-0.4-2.3-1.2-3.2c-0.8-0.8-2-1.4-3.2-1.4c-2.5,0-4.5,2-4.5,4.6
		c0,2.5,2,4.5,4.5,4.5c1.8,0,3.4-1.1,4-2.7H362.4z M357.7,65.6c0.2-1.1,1.3-2,2.5-2c1.3,0,2.4,0.8,2.7,2H357.7z M368.7,63.9h1.5
		v-1.8h-1.5v-2.9h-2v2.9h-1.3v1.8h1.3v6.7h3.5v-1.8h-1.6V63.9z M373.3,70.6v0.2c0,0.5,0,1-0.7,1h-0.2v1.1h0.3c0.5,0,0.9,0,1.3-0.5
		c0.4-0.4,0.4-0.9,0.4-1.5v-2.6h-2v2.3H373.3z"/>
	<path fill="#FFFFFF" d="M102.1,79h1.2v-1.8H99l-3.1,8.1l-3.1-8.1h-4.3V79h1.2v7.8h-1.2v1.8h4.8v-1.8H92v-6.6l3.2,8.5h1.5l3.2-8.5
		v6.6h-1.2v1.8h4.7v-1.8h-1.2V79z M112.7,80.1h-3.1v1.8h1.1v2.8c0,0.6,0,1.2-0.4,1.7c-0.3,0.4-0.9,0.7-1.4,0.7
		c-0.6,0-1.1-0.2-1.4-0.7c-0.3-0.5-0.3-1.1-0.3-1.6v-4.6h-3.1v1.8h1.1v3.4c0,0.9,0.1,1.7,0.8,2.5c0.6,0.7,1.5,1.1,2.4,1.1
		c1,0,2-0.4,2.6-1.3v1.1h2.9v-1.8h-1.1V80.1z M114.9,86.1v2.5h1.5v-0.7c0.6,0.7,1.3,0.9,2.2,0.9c1.6,0,3.1-1,3.1-2.7
		c0-1.9-1.6-2.4-3.2-2.8c-0.6-0.1-1.4-0.3-1.4-1.1c0-0.6,0.6-0.9,1.1-0.9c0.6,0,1.1,0.4,1.1,1h1.9v-2.3h-1.4v0.6
		c-0.5-0.6-1.2-0.8-1.9-0.8c-1.5,0-2.9,0.9-2.9,2.6c0,1.9,1.6,2.3,3.1,2.7c0.7,0.2,1.5,0.3,1.5,1.2c0,0.6-0.6,1.1-1.2,1.1
		c-0.8,0-1.3-0.5-1.4-1.3H114.9z M128.9,86.1c-0.5,0.7-1.2,1-2.1,1c-1.2,0-2.3-0.9-2.6-2h6.9l0.1-0.7c0-1.2-0.4-2.3-1.2-3.2
		c-0.8-0.8-2-1.4-3.2-1.4c-2.5,0-4.4,2-4.4,4.6c0,2.5,2,4.5,4.5,4.5c1.8,0,3.4-1.1,4-2.7H128.9z M124.2,83.6c0.2-1.1,1.3-2,2.5-2
		c1.3,0,2.4,0.8,2.7,2H124.2z M136.4,88.8c2.5,0,4.5-2,4.5-4.5c0-2.4-2-4.5-4.4-4.5c-2.5,0-4.5,2-4.5,4.5
		C132,86.8,133.9,88.8,136.4,88.8 M136.4,86.9c-1.5,0-2.5-1.2-2.5-2.6c0-1.4,1.2-2.6,2.6-2.6c1.4,0,2.5,1.2,2.5,2.6
		C139,85.8,137.9,86.9,136.4,86.9 M157.7,79h1.2v-1.8h-4.7V79h1.2v5.8l-5.4-7.7h-3.2V79h1.2v7.8h-1.2v1.8h4.7v-1.8h-1.2v-5.7
		l5.4,7.5h2V79z M166.9,88.6h3.1v-1.8h-1.1v-4.9h1.1v-1.8h-3.1v1.2c-0.6-0.9-1.6-1.4-2.7-1.4c-2.5,0-4.5,2.1-4.5,4.5
		c0,2.4,1.9,4.5,4.4,4.5c1.1,0,2.1-0.4,2.8-1.4V88.6z M164.4,86.9c-1.4,0-2.5-1.2-2.5-2.5c0-1.4,1.1-2.6,2.6-2.6
		c1.4,0,2.6,1.1,2.6,2.5C167,85.7,165.8,86.9,164.4,86.9 M177.3,85.7c-0.4,0.8-1.2,1.2-2,1.2c-1.4,0-2.6-1.1-2.6-2.6
		c0-1.4,1.1-2.6,2.5-2.6c0.4,0,0.8,0.1,1.2,0.3c0.4,0.2,0.7,0.5,0.9,0.8h1.8v-2.9h-1.7v0.8c-0.6-0.7-1.5-1.1-2.4-1.1
		c-2.4,0-4.3,2.2-4.3,4.5c0,2.5,2,4.5,4.5,4.5c1.9,0,3.7-1.3,4.2-3.1H177.3z M183.5,80.1h-3.1v1.8h1.1v4.9h-1.1v1.8h4.2v-1.8h-1.1
		V80.1z M183.5,77.2h-2v2.1h2V77.2z M189.9,88.8c2.5,0,4.5-2,4.5-4.5c0-2.4-2-4.5-4.4-4.5c-2.5,0-4.5,2-4.5,4.5
		C185.4,86.8,187.4,88.8,189.9,88.8 M189.9,86.9c-1.5,0-2.5-1.2-2.5-2.6c0-1.4,1.2-2.6,2.6-2.6c1.4,0,2.5,1.2,2.5,2.6
		C192.5,85.8,191.3,86.9,189.9,86.9 M196.2,86.8h-1.1v1.8h4.2v-1.8h-1.1v-2.5c0-0.6,0-1.3,0.4-1.8c0.4-0.5,1-0.7,1.6-0.7
		c0.6,0,1.2,0.2,1.5,0.7c0.3,0.5,0.3,1,0.3,1.5v2.8h-1.1v1.8h4.2v-1.8h-1.1v-3.3c0-1,0-1.7-0.7-2.5c-0.6-0.7-1.5-1.1-2.5-1.1
		c-1.1,0-2,0.5-2.5,1.4v-1.2h-3.1v1.8h1.1V86.8z M212.7,88.6h3.1v-1.8h-1.1v-4.9h1.1v-1.8h-3.1v1.2c-0.6-0.9-1.6-1.4-2.7-1.4
		c-2.5,0-4.5,2.1-4.5,4.5c0,2.4,1.9,4.5,4.4,4.5c1.1,0,2.1-0.4,2.8-1.4V88.6z M210.1,86.9c-1.4,0-2.5-1.2-2.5-2.5
		c0-1.4,1.1-2.6,2.6-2.6c1.4,0,2.6,1.1,2.6,2.5C212.7,85.7,211.6,86.9,210.1,86.9 M219.7,77.2h-3.1V79h1.1v7.8h-1.2v1.8h4.2v-1.8
		h-1.1V77.2z M233.8,88.6h3.1v-1.8h-1.1v-9.6h-3.1V79h1.1v2.3c-0.7-0.9-1.7-1.4-2.8-1.4c-2.4,0-4.3,2-4.3,4.4c0,2.4,2,4.4,4.4,4.4
		c1.1,0,2.2-0.4,2.8-1.4V88.6z M231.3,86.9c-1.4,0-2.6-1.2-2.6-2.6c0-1.5,1.2-2.6,2.6-2.6c1.4,0,2.6,1.2,2.6,2.6
		C233.9,85.7,232.8,86.9,231.3,86.9 M244.1,86.1c-0.5,0.7-1.2,1-2.1,1c-1.2,0-2.3-0.9-2.6-2h6.9l0.1-0.7c0-1.2-0.4-2.3-1.2-3.2
		c-0.8-0.8-2-1.4-3.2-1.4c-2.5,0-4.5,2-4.5,4.6c0,2.5,2,4.5,4.5,4.5c1.8,0,3.4-1.1,4-2.7H244.1z M239.4,83.6c0.2-1.1,1.3-2,2.5-2
		c1.3,0,2.4,0.8,2.7,2H239.4z M259.7,88.6h4.8v-1.8h-1.2l-4-9.6h-3.8V79h1.3l-3.3,7.8h-1.2v1.8h4.7V87h-1.2l0.7-1.7h4L261,87h-1.3
		V88.6z M259.8,83.6h-2.9l1.5-3.9h0L259.8,83.6z M266.3,86.8h-1.1v1.8h4.2v-1.8h-1.1v-2.5c0-0.6,0-1.3,0.4-1.8
		c0.4-0.5,1-0.7,1.6-0.7c0.6,0,1.2,0.2,1.5,0.7c0.3,0.5,0.3,1,0.3,1.5v2.8h-1.1v1.8h4.2v-1.8h-1.1v-3.3c0-1,0-1.7-0.7-2.5
		c-0.6-0.7-1.5-1.1-2.5-1.1c-1.1,0-2,0.5-2.5,1.4v-1.2h-3.1v1.8h1.1V86.8z M278.9,81.9h1.5v-1.8h-1.5v-2.9h-2v2.9h-1.3v1.8h1.3v6.7
		h3.5v-1.8h-1.6V81.9z M284.4,80.1h-2.9v1.8h1.1v4.9h-1.1v1.8h4.2v-1.8h-1.1v-2.2c0-0.8,0.1-1.5,0.7-2c0.5-0.4,1.1-0.6,1.7-0.6v-2
		c-1.1,0-2.1,0.5-2.6,1.6V80.1z M292.4,88.8c2.5,0,4.5-2,4.5-4.5c0-2.4-2-4.5-4.4-4.5c-2.5,0-4.5,2-4.5,4.5
		C287.9,86.8,289.9,88.8,292.4,88.8 M292.4,86.9c-1.5,0-2.5-1.2-2.5-2.6c0-1.4,1.2-2.6,2.6-2.6c1.4,0,2.5,1.2,2.5,2.6
		C294.9,85.8,293.8,86.9,292.4,86.9 M298.7,89.9h-1.1v1.8h4.2v-1.8h-1.1v-2.5c0.7,0.9,1.8,1.3,2.9,1.3c2.4,0,4.3-2,4.3-4.4
		c0-2.4-1.9-4.4-4.4-4.4c-1.2,0-2.2,0.5-2.8,1.4v-1.3h-3.1v1.8h1.1V89.9z M303.2,86.9c-1.4,0-2.6-1.2-2.6-2.6c0-1.5,1.2-2.6,2.6-2.6
		c1.4,0,2.5,1.2,2.5,2.6C305.8,85.8,304.6,86.9,303.2,86.9 M312.9,88.8c2.5,0,4.5-2,4.5-4.5c0-2.4-2-4.5-4.4-4.5
		c-2.5,0-4.5,2-4.5,4.5C308.4,86.8,310.4,88.8,312.9,88.8 M312.9,86.9c-1.5,0-2.5-1.2-2.5-2.6c0-1.4,1.2-2.6,2.6-2.6
		c1.4,0,2.5,1.2,2.5,2.6C315.4,85.8,314.3,86.9,312.9,86.9 M321.2,77.2h-3.1V79h1.1v7.8h-1.2v1.8h4.2v-1.8h-1.1V77.2z M327.6,88.8
		c2.5,0,4.5-2,4.5-4.5c0-2.4-2-4.5-4.4-4.5c-2.5,0-4.5,2-4.5,4.5C323.1,86.8,325.1,88.8,327.6,88.8 M327.6,86.9
		c-1.5,0-2.5-1.2-2.5-2.6c0-1.4,1.2-2.6,2.6-2.6c1.4,0,2.5,1.2,2.5,2.6C330.1,85.8,329,86.9,327.6,86.9 M333.2,89.3
		c0.4,1.9,2.3,2.7,4.1,2.7c1.3,0,2.4-0.4,3.3-1.3c1-1,1.1-2,1.1-3.3v-5.6h1.1v-1.8h-2.9v1.2c-0.6-1-1.7-1.4-2.8-1.4
		c-2.4,0-4.3,2-4.3,4.4c0,2.4,1.9,4.4,4.3,4.4c1.2,0,2.1-0.4,2.7-1.4v0.3c0,0.8,0,1.3-0.6,2c-0.4,0.5-1.1,0.8-1.8,0.8
		c-0.8,0-1.6-0.3-1.9-1.1H333.2z M334.7,84.3c0-1.4,1.2-2.6,2.6-2.6c1.4,0,2.6,1.2,2.6,2.6c0,1.4-1.1,2.6-2.6,2.6
		C335.9,86.9,334.7,85.8,334.7,84.3 M346.8,80.1h-3.1v1.8h1.1v4.9h-1.1v1.8h4.2v-1.8h-1.1V80.1z M343.9,79l4.4-2.1l-0.8-1.7
		l-4.2,2.4L343.9,79z M355.8,88.6h3.1v-1.8h-1.1v-4.9h1.1v-1.8h-3.1v1.2c-0.6-0.9-1.6-1.4-2.7-1.4c-2.5,0-4.5,2.1-4.5,4.5
		c0,2.4,1.9,4.5,4.4,4.5c1.1,0,2.1-0.4,2.8-1.4V88.6z M353.3,86.9c-1.4,0-2.5-1.2-2.5-2.5c0-1.4,1.1-2.6,2.6-2.6
		c1.4,0,2.6,1.1,2.6,2.5C355.9,85.7,354.7,86.9,353.3,86.9 M361.7,88.6v0.2c0,0.5,0,1-0.7,1h-0.2v1.1h0.3c0.5,0,0.9,0,1.3-0.5
		c0.4-0.4,0.4-0.9,0.4-1.5v-2.6h-2v2.3H361.7z M381.1,80.8v-3.7h-1.8v1.2c-0.9-1-2.2-1.4-3.5-1.4c-3.2,0-5.8,2.7-5.8,5.9
		c0,1.6,0.6,3.1,1.7,4.3c1.1,1.1,2.7,1.8,4.2,1.8c2.4,0,4.8-1.6,5.6-4h-2.4c-0.7,1.1-1.9,1.7-3.2,1.7c-2.1,0-3.7-1.7-3.7-3.8
		c0-2.1,1.6-3.8,3.7-3.8c1.2,0,2.5,0.7,3.2,1.7H381.1z M382.5,88.6h5.4c1.7,0,3-0.4,4.2-1.7c1-1.1,1.5-2.5,1.5-4
		c0-1.6-0.5-3.1-1.6-4.2c-1.2-1.2-2.4-1.5-4-1.5h-5.4V79h1.2v7.8h-1.2V88.6z M385.9,79.1h1.7c1.1,0,1.9,0.1,2.7,0.9
		c0.7,0.8,1,1.9,1,2.9c0,0.9-0.3,2-0.9,2.7c-0.8,0.9-1.7,1-2.8,1h-1.7V79.1z M408.1,79h1.2v-1.8h-4.3l-3.1,8.1l-3.1-8.1h-4.3V79h1.2
		v7.8h-1.2v1.8h4.8v-1.8H398v-6.6l3.3,8.5h1.5l3.2-8.5v6.6h-1.2v1.8h4.7v-1.8h-1.2V79z M421.5,86.8h-1.2l-3.2-4l3.1-3.8h1.2v-1.8
		h-4.7v1.7h1.1l-1.8,2.4l-1.8-2.4h1.1v-1.7h-4.7V79h1.2l3,3.8l-3.2,4h-1.1v1.8h4.7v-1.7h-1.1l2.1-2.6l2,2.6h-1.1v1.7h4.7V86.8z"/>
</g>
<g id="Capa_2">
</g>
</svg>
