<?xml version="1.0" encoding="utf-8"?>
<!-- Generator: Adobe Illustrator 18.0.0, SVG Export Plug-In . SVG Version: 6.00 Build 0)  -->
<!DOCTYPE svg PUBLIC "-//W3C//DTD SVG 1.1//EN" "http://www.w3.org/Graphics/SVG/1.1/DTD/svg11.dtd">
<svg version="1.1" xmlns="http://www.w3.org/2000/svg" xmlns:xlink="http://www.w3.org/1999/xlink" x="0px" y="0px"
	 viewBox="0 0 201.2 24" enable-background="new 0 0 201.2 24" xml:space="preserve">
<g id="Capa_1">
</g>
<g id="Capa_2">
	<g>
		<rect y="0" fill="#B9007C" width="201.2" height="24"/>
		<path fill="#FFFFFF" d="M57.1,16.3h5.7v-1.5h-3.4l1.4-1.3c1.2-1.2,1.7-2,1.7-3.2c0-1.6-1.4-2.6-2.9-2.6c-1,0-1.8,0.3-2.4,0.8v1.8
			c0.6-0.6,1.3-1,2.2-1c0.8,0,1.4,0.5,1.4,1.2c0,0.7-0.4,1.3-1.4,2.3l-2.4,2.2V16.3z M66.2,16.5c1.8,0,3.4-1,3.4-2.9
			c0-1.7-1.3-2.8-3-2.8c-0.3,0-0.6,0-0.8,0.1l0.2-1.4H69V7.9h-4.3l-0.5,4.6c0.7-0.2,1.3-0.4,1.9-0.4c1.1,0,1.8,0.6,1.8,1.4
			c0,0.9-0.8,1.4-1.8,1.4c-1,0-1.7-0.3-2.2-0.7v1.6C64.5,16.2,65.2,16.5,66.2,16.5 M76.2,16.5c1,0,1.6-0.4,1.9-0.9v0.7h1.6V7.9h-1.6
			v3.1c-0.3-0.4-0.9-0.9-1.9-0.9c-1.6,0-2.7,1.4-2.7,3.1C73.5,15.1,74.6,16.5,76.2,16.5 M76.6,15c-0.9,0-1.6-0.7-1.6-1.7
			c0-0.9,0.6-1.7,1.6-1.7c0.7,0,1.2,0.4,1.4,0.9v1.6C77.8,14.6,77.3,15,76.6,15 M84.1,16.5c0.9,0,1.7-0.2,2.2-0.6v-1.4
			c-0.5,0.3-1.2,0.5-1.8,0.5c-1,0-1.8-0.4-1.9-1.2h4.1v-0.4c0-1.7-1-3.2-2.7-3.2c-1.8,0-3,1.4-3,3.1C80.9,15.3,82.4,16.5,84.1,16.5
			 M82.5,12.7c0.1-0.7,0.6-1.2,1.3-1.2c0.7,0,1.2,0.6,1.2,1.2H82.5z M93.6,15c-0.9,0-1.6-0.7-1.6-1.7c0-0.9,0.7-1.7,1.6-1.7
			c0.9,0,1.6,0.7,1.6,1.7C95.2,14.3,94.6,15,93.6,15 M93.6,16.5c1.9,0,3.2-1.4,3.2-3.2c0-1.7-1.3-3.1-3.2-3.1
			c-1.9,0-3.2,1.4-3.2,3.1C90.5,15.1,91.8,16.5,93.6,16.5 M100.8,16.5c0.7,0,1.3-0.1,1.8-0.4v-1.4c-0.5,0.3-0.9,0.4-1.6,0.4
			c-1,0-1.8-0.7-1.8-1.7c0-1,0.8-1.7,1.8-1.7c0.6,0,1,0.1,1.5,0.4v-1.4c-0.5-0.3-1-0.4-1.7-0.4c-1.6,0-3.1,1.2-3.1,3.1
			C97.7,15.3,99.2,16.5,100.8,16.5 M104.5,14.5c0,1.2,0.6,2,1.9,2c0.5,0,1.1-0.1,1.4-0.3v-1.4c-0.3,0.1-0.5,0.2-0.8,0.2
			c-0.5,0-0.8-0.2-0.8-0.8v-2.4h1.6v-1.4h-1.6V8.7h-1.6v1.6h-1.1v1.4h1.1V14.5z M113,10.3v3.8c-0.3,0.4-0.8,0.8-1.3,0.8
			c-0.5,0-1.1-0.2-1.1-1.3v-3.3H109V14c0,1.5,0.7,2.5,2.1,2.5c0.9,0,1.5-0.4,1.9-0.9v0.7h1.6v-6H113z M119.7,16.5
			c1.6,0,2.7-1.4,2.7-3.2c0-1.8-1.1-3.1-2.7-3.1c-1,0-1.6,0.5-1.9,0.9V7.9h-1.6v8.4h1.6v-0.7C118.1,16,118.7,16.5,119.7,16.5
			 M119.2,15c-0.7,0-1.2-0.4-1.4-0.9v-1.6c0.2-0.5,0.8-0.9,1.4-0.9c0.9,0,1.6,0.7,1.6,1.7C120.8,14.3,120.2,15,119.2,15 M123.6,16.3
			h1.6v-3.5c0.2-0.5,0.8-1,1.7-1c0.2,0,0.3,0,0.5,0.1v-1.7l-0.2,0c-0.9,0-1.7,0.6-2,1.2v-1h-1.6V16.3z M131.3,16.5
			c0.9,0,1.7-0.2,2.2-0.6v-1.4c-0.5,0.3-1.2,0.5-1.8,0.5c-1,0-1.8-0.4-1.9-1.2h4.1v-0.4c0-1.7-1-3.2-2.7-3.2c-1.8,0-3,1.4-3,3.1
			C128.1,15.3,129.6,16.5,131.3,16.5 M129.7,12.7c0.1-0.7,0.6-1.2,1.3-1.2c0.7,0,1.2,0.6,1.2,1.2H129.7z M140.4,16.5
			c1,0,1.6-0.4,1.9-0.9v0.7h1.6V7.9h-1.6v3.1c-0.3-0.4-0.9-0.9-1.9-0.9c-1.6,0-2.7,1.4-2.7,3.1C137.7,15.1,138.8,16.5,140.4,16.5
			 M140.8,15c-0.9,0-1.6-0.7-1.6-1.7c0-0.9,0.6-1.7,1.6-1.7c0.7,0,1.2,0.4,1.4,0.9v1.6C142,14.6,141.5,15,140.8,15 M148.3,16.5
			c0.9,0,1.7-0.2,2.2-0.6v-1.4c-0.5,0.3-1.2,0.5-1.8,0.5c-1,0-1.8-0.4-1.9-1.2h4.1v-0.4c0-1.7-1-3.2-2.7-3.2c-1.8,0-3,1.4-3,3.1
			C145.1,15.3,146.5,16.5,148.3,16.5 M146.7,12.7c0.1-0.7,0.6-1.2,1.3-1.2c0.7,0,1.2,0.6,1.2,1.2H146.7z M154.6,16.3h5.7v-1.5H157
			l1.4-1.3c1.2-1.2,1.7-2,1.7-3.2c0-1.6-1.4-2.6-2.9-2.6c-1,0-1.8,0.3-2.4,0.8v1.8c0.6-0.6,1.3-1,2.2-1c0.8,0,1.4,0.5,1.4,1.2
			c0,0.7-0.4,1.3-1.4,2.3l-2.4,2.2V16.3z M164.9,16.5c2.2,0,3.5-2.1,3.5-4.4c0-2.3-1.3-4.4-3.5-4.4c-2.2,0-3.5,2.1-3.5,4.4
			C161.5,14.4,162.7,16.5,164.9,16.5 M164.9,14.9c-1.2,0-1.8-1.3-1.8-2.7c0-1.5,0.7-2.7,1.8-2.7c1.2,0,1.8,1.3,1.8,2.7
			C166.8,13.6,166.1,14.9,164.9,14.9 M170.9,16.3h1.6V7.9h-1.4L169.2,9v1.7l1.7-0.9V16.3z M174.4,16.3h1.8l3.4-7.1V7.9h-5.7v1.5h3.8
			L174.4,16.3z"/>
	</g>
</g>
</svg>
