<?xml version="1.0" encoding="utf-8"?>
<!-- Generator: Adobe Illustrator 18.0.0, SVG Export Plug-In . SVG Version: 6.00 Build 0)  -->
<!DOCTYPE svg PUBLIC "-//W3C//DTD SVG 1.1//EN" "http://www.w3.org/Graphics/SVG/1.1/DTD/svg11.dtd">
<svg version="1.1" xmlns="http://www.w3.org/2000/svg" xmlns:xlink="http://www.w3.org/1999/xlink" x="0px" y="0px"
	 viewBox="0 0 48.1 54" enable-background="new 0 0 48.1 54" xml:space="preserve">
<g id="Capa_1">
	<g>
		<path fill="#83B164" d="M15.1,41.2h-2c0,0,0.3-4.2,4.6-4.2c4.3,0,4.8,4.2,4.8,4.2h-1.9c0,0-0.8-2.3-2.9-2.3
			C15.8,38.9,15.1,41.2,15.1,41.2"/>
		<path fill="#7BB5B8" d="M20.6,42.1h2c0,0-0.3,4.2-4.6,4.2c-4.3,0-4.8-4.2-4.8-4.2H15c0,0,0.8,2.3,2.9,2.3
			C19.9,44.4,20.6,42.1,20.6,42.1"/>
		<rect x="23.6" y="37.4" fill="#7BB5B8" width="1.9" height="8.8"/>
		<rect x="32.6" y="37.4" fill="#7BB5B8" width="1.9" height="8.8"/>
		<rect x="26.2" y="37.4" fill="#83B164" width="4.6" height="1.9"/>
		<rect x="26.2" y="40.7" fill="#83B164" width="4.6" height="1.9"/>
		<rect x="26" y="44.3" fill="#83B164" width="4.6" height="1.9"/>
		<path fill="#83B164" d="M23.8,36.9c-8.4,0-15.2-6.8-15.2-15.2c0-8.4,6.8-15.2,15.2-15.2V36.9z M23.8,9.4h-2.6v5.2l2.6,0V9.4z
			 M23.8,16.4H19c0,0-0.4,0-0.5-0.2c-0.1-0.2,0-3.3,0-3.3l-3.9,0.4v5.8c0,0-0.1,0.3,0.3,0.6c0.4,0.3,0.7,0.2,0.7,0.2h4.8v3.8h-5
			c0,0-0.4,0-0.7,0.3c-0.2,0.3-0.3,0.6-0.3,0.6V32h4v-4.5h5.3V16.4z"/>
		<path fill="#7BB5B8" d="M23.6,6.5c8.4,0,15.2,6.8,15.2,15.2c0,8.4-6.8,15.2-15.2,15.2V6.5z M23.6,14.6l2.6,0V9.4h-2.6V14.6z
			 M23.6,27.5h5.3V32h4v-7.3c0,0-0.1-0.3-0.3-0.6c-0.2-0.3-0.7-0.3-0.7-0.3h-5V20h4.8c0,0,0.3,0.1,0.7-0.2c0.4-0.3,0.3-0.6,0.3-0.6
			v-5.8l-3.9-0.4c0,0,0.1,3.1,0,3.3c-0.1,0.2-0.5,0.2-0.5,0.2h-4.8V27.5z"/>
	</g>
	<rect x="0" fill="none" width="48.1" height="54"/>
</g>
<g id="Capa_2">
</g>
</svg>
