<?xml version="1.0" encoding="utf-8"?>
<!-- Generator: Adobe Illustrator 18.0.0, SVG Export Plug-In . SVG Version: 6.00 Build 0)  -->
<!DOCTYPE svg PUBLIC "-//W3C//DTD SVG 1.1//EN" "http://www.w3.org/Graphics/SVG/1.1/DTD/svg11.dtd">
<svg version="1.1" xmlns="http://www.w3.org/2000/svg" xmlns:xlink="http://www.w3.org/1999/xlink" x="0px" y="0px"
	 viewBox="0 0 141.1 47.5" enable-background="new 0 0 141.1 47.5" xml:space="preserve">
<g id="Capa_1">
</g>
<g id="Capa_2">
	<path fill-rule="evenodd" clip-rule="evenodd" fill="#FFFFFF" d="M52.4,17c-1.3,1.9-3.1,3.6-4.7,3.6c-0.6,0-0.9-0.4-0.9-1.1
		c0-0.5,0.1-1.1,0.2-1.4c1.5-0.7,3-1.6,4.4-3c0.7-0.8,1.3-1.6,1.3-2.4c0-0.8-0.5-1.2-1.4-1.2c-1.4,0-3.2,1-4.3,2.2
		c-1.4,1.6-2.6,3.8-2.6,5.8c0,1.4,0.7,2.5,2.5,2.5c1.9-0.1,3.9-1.6,4.8-2.7c-0.1,0.5-0.2,0.9-0.2,1.3c0,1.3,0.6,2.1,1.9,2.5l0.2-0.1
		c-0.1-0.4-0.1-0.7-0.1-1.1c0.1-1.2,0.6-2.6,1.3-4.4C56.1,13.9,58,10,59,7.7l-2.1,0.4c-0.3,0.1-0.5,0.3-0.6,0.6
		c-1,2.1-2,4.4-3.3,7.3C52.8,16.3,52.6,16.6,52.4,17L52.4,17z M50.5,12.4c0.3,0,0.5,0.2,0.5,0.5c0,1.4-1.6,3-3.8,4.3
		C47.7,15.1,49.2,12.4,50.5,12.4L50.5,12.4z"/>
	<path fill-rule="evenodd" clip-rule="evenodd" fill="#FFFFFF" d="M86,20.4c0,1,0.6,1.5,1.8,1.5c1.2,0,2.4-0.7,3.4-1.7
		c0.2,1,0.9,1.8,2.4,1.7c1.6,0,3.1-1,4.1-2.2c0,0.1,0,0.2,0,0.3c0,1,0.6,1.8,1.8,1.8c1.3,0,2.8-1,3.9-2.6l0,0
		c-0.1,0.4-0.2,1-0.2,1.5c0,1.3,0.7,2,1.8,2.2l0.2-0.1c-0.4-0.9,0.2-3.2,0.4-3.9c0.8-2.5,2-5.3,2.7-6.8c-0.3-0.3-1.1-0.5-1.9-0.5
		c-2.7-0.1-5.4,1-7.4,4.5c-0.3,0.6-0.7,1.3-1,2c-0.3,0.4-0.5,0.7-0.7,0.8c-0.7,0.7-1.7,1.6-2.8,1.6c-0.6,0-0.9-0.4-0.9-1.1
		c0-2.8,2.5-7.1,4.2-7.1c0.5,0,0.7,0.2,0.6,0.6c0,0.5-0.3,1.1-0.7,1.5l0.2,0.2c1.1-0.5,2.2-1.2,2.2-2c0-1-1.1-1.1-2.1-1.1
		c-1.3,0-2.9,0.6-4.3,2.1c-1.6,1.8-2.4,3.9-2.6,5.4c-0.7,0.9-1.6,1.5-2.1,1.5c-0.3,0-0.5-0.1-0.5-0.5c0-0.3,0.1-0.9,0.5-1.6
		c0.7-1.8,1.8-4.1,3-6.7c0,0-1.9,0.3-2.2,0.4c-0.3,0.1-0.5,0.3-0.7,0.6c-0.8,1.7-1.8,3.8-2.4,5.3C86.3,18.9,86,19.9,86,20.4L86,20.4
		z M104.3,12.8c0.6-0.3,1.2-0.3,1.6-0.2c-0.1,0.3-0.9,1.8-1.5,3.2c-0.9,2.1-2.3,4.3-3.6,4.6c-0.4,0.1-0.7-0.1-0.7-0.5
		C100.2,18,102.2,13.7,104.3,12.8L104.3,12.8z"/>
	<path fill-rule="evenodd" clip-rule="evenodd" fill="#FFFFFF" d="M58.5,13.6c-1.4,1.6-2.6,3.8-2.6,5.8c0,1.4,0.7,2.5,2.6,2.5
		c2-0.1,3.8-1.3,5.4-2.9c-0.4,1-0.7,1.9-0.9,2.5c-0.6,1.4-1,2.6-1.9,3.3l0.1,0.2c2.7,0.1,3.7-1.7,4.7-4.7c1.1-3.1,2-5.7,2.8-7.5
		c1.1,0,2.8,0,3.7-0.1c-2.4,1-4.4,4.8-4.2,7.4c0.1,1.1,0.8,1.9,2.2,1.9c2.7,0,5-3.2,5.9-5.4c0.5-1.2,0.8-2.3,0.9-3.3
		c0.7-0.1,1.3-0.3,1.6-0.3c0.6-0.1,0.5,0.5,0.3,1.1c-1.1,3.1-3,7.7-3.1,7.7h2.2c0.9-1.9,1.5-3.2,2.2-4.5c0.9-1.5,2.9-4.1,3.7-4.1
		c0.3,0,0.4,0.2,0.3,0.5c-0.1,1-2.7,5.1-2.7,7.1c0,1.3,0.7,2.1,1.9,2.4l0.2-0.1c-0.1-0.3-0.1-0.6-0.2-1c0-1.3,1.1-3.6,1.5-4.5
		c0.7-1.4,1.9-3.5,1.8-4.6c0-0.5-0.5-1-1.4-1c-1.7,0-3.5,1.7-4.9,4l0,0c0.6-1.3,1-2.6,1-3.1c0-0.5-0.3-0.8-1-0.8
		c-0.5,0-1.1,0.2-1.7,0.4c-0.8,0.2-1.8,0.5-2.8,0.7c-0.6,0-0.8,0.1-0.8,0.4c0.1,3.4-2.2,7.6-3.8,7.6c-0.7,0-0.9-0.5-0.9-1.2
		c0-2.4,2-6.4,3.9-7.1c0.2-0.1,0.3-0.1,0.5-0.1l0.2-0.6c-0.4,0-1.4,0.1-1.9,0.1c-0.5,0-4.3,0-4.3,0c1.1-2.7,2.7-4.4,5-4.5
		c1.4-0.1,2.4,0.5,2.4,1.3c0.1,0.7-0.1,1.2-0.7,1.8l0.2,0.2c1.3-0.6,2.1-1.6,2.1-2.3c0-1.1-1.3-1.8-3.3-1.7c-2.6,0-5.8,0.6-8.1,5.3
		c-0.6,0.1-1.3,0.4-1.8,0.9l0.1,0.2c0.4-0.1,0.8-0.2,1.3-0.1c-0.3,0.8-0.9,2.4-1.5,4.1c-1.9,2.5-3.8,3.7-5.2,3.7
		c-0.8,0-1.1-0.4-1.1-1.1c0-0.5,0.1-1.1,0.2-1.4c1.5-0.7,3-1.6,4.3-3c0.8-0.8,1.3-1.6,1.3-2.4c0-0.8-0.5-1.2-1.5-1.2
		C61.4,11.4,59.6,12.3,58.5,13.6L58.5,13.6z M62.1,12.4c0.3,0,0.5,0.2,0.5,0.5c0,1.4-1.7,3-3.8,4.3C59.4,15.1,60.8,12.4,62.1,12.4
		L62.1,12.4z"/>
	<path fill-rule="evenodd" clip-rule="evenodd" fill="#FFFFFF" d="M94.5,8.4c0.7,0,1.4-0.6,1.5-1.4c0.2-0.8-0.3-1.3-0.9-1.3
		c-0.7,0-1.4,0.6-1.5,1.4C93.4,7.8,93.8,8.4,94.5,8.4L94.5,8.4z"/>
	<path fill-rule="evenodd" clip-rule="evenodd" fill="#FFFFFF" d="M70.5,29.2c-21.7,0-43.7,0.2-43.7,0.6c0,0.3,22,0.5,43.7,0.6
		c21.7,0,43.8-0.3,43.8-0.6C114.3,29.4,92.2,29.1,70.5,29.2L70.5,29.2z"/>
	<path fill-rule="evenodd" clip-rule="evenodd" fill="#FFFFFF" d="M35.5,13.7l0.1-0.1c-0.2-0.4-0.3-0.9-0.3-1.2
		c0.1-2.9,3.1-4.5,7.7-4.4c0,0,1.2,0,2.6,0c-1.5,0.9-2.8,2-3.7,4.2c-0.4,0.9-2.4,6-3.2,8.3c-1,2.7-1.6,3.9-2.4,4.4l0.1,0.2
		c2.3,0.1,3.6-1,4.4-3.1c0.8-2,1.9-5.2,2.4-6.6c1.7-4.5,2.5-6.5,3.8-7.4c1.9,0,3.8,0,3.8,0c2.1-0.1,2.9-0.6,3.6-1.4l-0.1-0.1
		c-0.5,0.2-1.6,0.3-2.6,0.3h-9.3c-5.2,0-8.4,1.7-9,4.3C33.3,12.2,34,13.5,35.5,13.7L35.5,13.7z"/>
	<g>
		<path fill="#FFFFFF" d="M39.5,43v-7.8H44V36h-3.3v2.6h2.8v0.8h-2.8V43H39.5z"/>
		<path fill="#FFFFFF" d="M45.3,35.2h1.1v4.9c0,0.9,0.2,1.5,0.5,1.8c0.3,0.3,0.8,0.5,1.3,0.5c0.4,0,0.7-0.1,0.9-0.2
			c0.3-0.1,0.4-0.3,0.6-0.6c0.1-0.3,0.2-0.8,0.2-1.4v-5h1v5c0,0.9-0.1,1.5-0.3,1.8c-0.2,0.4-0.5,0.7-0.9,0.9
			c-0.4,0.2-0.9,0.3-1.5,0.3c-0.7,0-1.2-0.1-1.6-0.3c-0.4-0.2-0.7-0.5-0.9-0.9c-0.2-0.4-0.3-1-0.3-1.8V35.2z"/>
		<path fill="#FFFFFF" d="M52.8,43v-7.8h1.1l3.9,6v-6h1V43h-1.1l-3.9-6v6H52.8z"/>
		<path fill="#FFFFFF" d="M60.8,43v-7.8h2.6c1,0,1.8,0.1,2.3,0.4c0.5,0.3,0.9,0.7,1.2,1.3c0.3,0.6,0.4,1.2,0.4,2
			c0,0.7-0.1,1.4-0.4,2c-0.3,0.6-0.7,1.1-1.2,1.5c-0.5,0.4-1.3,0.6-2.3,0.6H60.8z M62,42.2h1.4c0.7,0,1.3-0.1,1.7-0.4
			c0.4-0.2,0.7-0.6,0.9-1.1c0.2-0.5,0.3-1.1,0.3-1.7c0-0.6-0.1-1.1-0.3-1.5c-0.2-0.5-0.5-0.8-0.9-1.1c-0.4-0.3-1.1-0.4-2.2-0.4H62
			V42.2z"/>
		<path fill="#FFFFFF" d="M68,43l3.1-7.8h1.1l3.1,7.8h-1.2l-0.9-2.2h-3.3L69.1,43H68z M70.3,40h2.7l-1.3-3.4L70.3,40z"/>
		<path fill="#FFFFFF" d="M82.3,42.6c-0.3,0.2-0.6,0.3-0.9,0.4c-0.3,0.1-0.5,0.1-0.8,0.2c-0.3,0-0.6,0.1-0.9,0.1
			c-1.3,0-2.3-0.4-2.9-1.2c-0.6-0.8-0.9-1.8-0.9-2.9c0-1.2,0.3-2.2,1-3c0.6-0.8,1.6-1.2,2.9-1.2c0.7,0,1.5,0.1,2.5,0.3v1
			c-0.8-0.3-1.3-0.4-1.6-0.5c-0.3,0-0.6-0.1-0.8-0.1c-0.9,0-1.6,0.3-2,1c-0.4,0.6-0.6,1.4-0.6,2.3c0,1,0.2,1.7,0.7,2.3
			c0.5,0.6,1.2,0.9,2.1,0.9c0.2,0,0.5,0,0.7-0.1c0.2,0,0.5-0.1,0.7-0.2s0.5-0.2,0.9-0.4V42.6z"/>
		<path fill="#FFFFFF" d="M83.9,43v-7.8H85V43H83.9z"/>
		<path fill="#FFFFFF" d="M90.3,43.2c-0.7,0-1.3-0.2-1.8-0.5c-0.5-0.3-0.9-0.8-1.2-1.5c-0.3-0.6-0.4-1.4-0.4-2.2
			c0-0.8,0.1-1.5,0.4-2.1c0.3-0.6,0.6-1.1,1.2-1.5c0.5-0.3,1.1-0.5,1.8-0.5c0.7,0,1.3,0.2,1.8,0.5c0.5,0.3,0.9,0.8,1.2,1.5
			c0.3,0.6,0.4,1.3,0.4,2.1c0,0.8-0.1,1.5-0.4,2.1c-0.3,0.6-0.6,1.1-1.1,1.5C91.6,43,91,43.2,90.3,43.2z M90.3,42.4
			c0.8,0,1.4-0.3,1.8-0.9c0.4-0.6,0.6-1.4,0.6-2.4c0-1-0.2-1.8-0.7-2.4c-0.4-0.6-1-0.9-1.8-0.9s-1.4,0.3-1.8,0.9
			c-0.4,0.6-0.7,1.4-0.7,2.4c0,1,0.2,1.8,0.6,2.4C88.9,42.1,89.5,42.4,90.3,42.4z M88.8,34.2l1.7-1.3l0.4,0.5l-1.8,1.1L88.8,34.2z"
			/>
		<path fill="#FFFFFF" d="M95.5,43v-7.8h1.1l3.9,6v-6h1V43h-1.1l-3.9-6v6H95.5z"/>
	</g>
</g>
</svg>
