<?xml version="1.0" encoding="utf-8"?>
<!-- Generator: Adobe Illustrator 18.0.0, SVG Export Plug-In . SVG Version: 6.00 Build 0)  -->
<!DOCTYPE svg PUBLIC "-//W3C//DTD SVG 1.1//EN" "http://www.w3.org/Graphics/SVG/1.1/DTD/svg11.dtd">
<svg version="1.1" xmlns="http://www.w3.org/2000/svg" xmlns:xlink="http://www.w3.org/1999/xlink" x="0px" y="0px"
	 viewBox="0 0 141.1 47.5" enable-background="new 0 0 141.1 47.5" xml:space="preserve">
<g id="Capa_1">
</g>
<g id="Capa_2">
	<g>
		<g>
			<path fill="#FFFFFF" d="M65.3,16.2C65.3,8.9,71.5,3,79.2,3c7.7,0,13.9,5.9,13.9,13.2c0,7.3-6.2,13.2-13.9,13.2
				C71.5,29.4,65.3,23.5,65.3,16.2"/>
		</g>
		<path fill="#FFFFFF" d="M56,20.8v-8.7l6-9.5v8l-3.7,5.9l3.7,5.9v8L56,20.8z M48.3,20.8v-8.7l6-9.5v8l-3.7,5.9l3.7,5.9v8L48.3,20.8
			z"/>
		<g>
			<path fill="#FFFFFF" d="M65.3,16.2C65.3,8.9,71.5,3,79.2,3c7.7,0,13.9,5.9,13.9,13.2c0,7.3-6.2,13.2-13.9,13.2
				C71.5,29.4,65.3,23.5,65.3,16.2"/>
		</g>
		<path fill="#FFFFFF" d="M56,20.8v-8.7l6-9.5v8l-3.7,5.9l3.7,5.9v8L56,20.8z M48.3,20.8v-8.7l6-9.5v8l-3.7,5.9l3.7,5.9v8L48.3,20.8
			z"/>
		<g>
			<path fill="#FFFFFF" d="M65.3,16.2C65.3,8.9,71.5,3,79.2,3c7.7,0,13.9,5.9,13.9,13.2c0,7.3-6.2,13.2-13.9,13.2
				C71.5,29.4,65.3,23.5,65.3,16.2"/>
		</g>
		<path fill="#FFFFFF" d="M56,20.8v-8.7l6-9.5v8l-3.7,5.9l3.7,5.9v8L56,20.8z M48.3,20.8v-8.7l6-9.5v8l-3.7,5.9l3.7,5.9v8L48.3,20.8
			z"/>
		<g>
			<path fill="#FFFFFF" d="M49.6,38.8c0,3,2.2,5.7,5.3,5.7c3,0,5.3-2.8,5.3-5.7c0-3.3-2.6-5.7-5.3-5.7
				C52.4,33.1,49.6,35.5,49.6,38.8 M51.4,38.8c0-2.8,0.6-5.5,3.6-5.5c3,0,3.6,2.7,3.6,5.5c0,3.7-0.9,5.5-3.6,5.5
				C52.3,44.3,51.4,42.5,51.4,38.8"/>
			<path fill="#FFFFFF" d="M71.4,44.2h-0.2c-0.1-0.2-0.3-0.3-0.7-0.3c-0.6,0-1.4,0.5-2.8,0.5c-1.3,0-2.5-0.4-3.6-1.5
				c-1-1-1.8-2.4-1.8-4.2c0-3.1,2.3-5.8,5.5-5.8c1.3,0,1.9,0.6,2.5,0.6c0.4,0,0.5-0.2,0.7-0.3h0.2v3.1H71c-0.4-1.6-1-3.1-3.4-3.1
				c-3.3,0-3.6,3.3-3.6,5.6c0,4.3,1.5,5.4,3.6,5.4c2.7,0,3.2-1.7,3.6-3.3h0.2V44.2z"/>
			<path fill="#FFFFFF" d="M73.1,44.2h2.6c0.3,0,0.6,0,1,0c0.4,0,0.7,0,1,0c1.4,0,2.1,0,3.1-0.5c1.8-0.8,3.2-2.4,3.2-5
				c0-2.3-1.1-4.3-3.6-5.1c-0.8-0.3-1.5-0.3-2.7-0.3c-0.3,0-0.6,0-0.9,0c-0.3,0-0.6,0-0.9,0h-2.8v0.2h1.7V44h-1.7V44.2z M76.3,33.6
				c0.4,0,0.8-0.1,1.3-0.1c3.4,0,4.6,2.1,4.6,5.3c0,1.4-0.2,2.5-0.9,3.6c-0.9,1.4-2.2,1.7-3.6,1.7c-0.6,0-1,0-1.4-0.1V33.6z"/>
			<path fill="#FFFFFF" d="M85.3,44H87V33.6h-1.7v-0.2h8.8V36h-0.2c-0.5-1.6-1.1-2.4-2.8-2.4h-2.5v4.7h1c1.4,0,1.8-0.4,2.2-2.3h0.2
				v4.8h-0.2c-0.3-1.2-0.5-2.3-2-2.3h-1.2V44h2.9c2.2,0,2.9-2.2,3-3.2h0.2v3.4h-9.3V44z"/>
			<path fill="#FFFFFF" d="M49.6,38.8c0,3,2.2,5.7,5.3,5.7c3,0,5.3-2.8,5.3-5.7c0-3.3-2.6-5.7-5.3-5.7
				C52.4,33.1,49.6,35.5,49.6,38.8 M51.4,38.8c0-2.8,0.6-5.5,3.6-5.5c3,0,3.6,2.7,3.6,5.5c0,3.7-0.9,5.5-3.6,5.5
				C52.3,44.3,51.4,42.5,51.4,38.8"/>
			<path fill="#FFFFFF" d="M71.4,44.2h-0.2c-0.1-0.2-0.3-0.3-0.7-0.3c-0.6,0-1.4,0.5-2.8,0.5c-1.3,0-2.5-0.4-3.6-1.5
				c-1-1-1.8-2.4-1.8-4.2c0-3.1,2.3-5.8,5.5-5.8c1.3,0,1.9,0.6,2.5,0.6c0.4,0,0.5-0.2,0.7-0.3h0.2v3.1H71c-0.4-1.6-1-3.1-3.4-3.1
				c-3.3,0-3.6,3.3-3.6,5.6c0,4.3,1.5,5.4,3.6,5.4c2.7,0,3.2-1.7,3.6-3.3h0.2V44.2z"/>
			<path fill="#FFFFFF" d="M73.1,44.2h2.6c0.3,0,0.6,0,1,0c0.4,0,0.7,0,1,0c1.4,0,2.1,0,3.1-0.5c1.8-0.8,3.2-2.4,3.2-5
				c0-2.3-1.1-4.3-3.6-5.1c-0.8-0.3-1.5-0.3-2.7-0.3c-0.3,0-0.6,0-0.9,0c-0.3,0-0.6,0-0.9,0h-2.8v0.2h1.7V44h-1.7V44.2z M76.3,33.6
				c0.4,0,0.8-0.1,1.3-0.1c3.4,0,4.6,2.1,4.6,5.3c0,1.4-0.2,2.5-0.9,3.6c-0.9,1.4-2.2,1.7-3.6,1.7c-0.6,0-1,0-1.4-0.1V33.6z"/>
			<path fill="#FFFFFF" d="M85.3,44H87V33.6h-1.7v-0.2h8.8V36h-0.2c-0.5-1.6-1.1-2.4-2.8-2.4h-2.5v4.7h1c1.4,0,1.8-0.4,2.2-2.3h0.2
				v4.8h-0.2c-0.3-1.2-0.5-2.3-2-2.3h-1.2V44h2.9c2.2,0,2.9-2.2,3-3.2h0.2v3.4h-9.3V44z"/>
			<path fill="#FFFFFF" d="M49.6,38.8c0,3,2.2,5.7,5.3,5.7c3,0,5.3-2.8,5.3-5.7c0-3.3-2.6-5.7-5.3-5.7
				C52.4,33.1,49.6,35.5,49.6,38.8 M51.4,38.8c0-2.8,0.6-5.5,3.6-5.5c3,0,3.6,2.7,3.6,5.5c0,3.7-0.9,5.5-3.6,5.5
				C52.3,44.3,51.4,42.5,51.4,38.8"/>
			<path fill="#FFFFFF" d="M71.4,44.2h-0.2c-0.1-0.2-0.3-0.3-0.7-0.3c-0.6,0-1.4,0.5-2.8,0.5c-1.3,0-2.5-0.4-3.6-1.5
				c-1-1-1.8-2.4-1.8-4.2c0-3.1,2.3-5.8,5.5-5.8c1.3,0,1.9,0.6,2.5,0.6c0.4,0,0.5-0.2,0.7-0.3h0.2v3.1H71c-0.4-1.6-1-3.1-3.4-3.1
				c-3.3,0-3.6,3.3-3.6,5.6c0,4.3,1.5,5.4,3.6,5.4c2.7,0,3.2-1.7,3.6-3.3h0.2V44.2z"/>
			<path fill="#FFFFFF" d="M73.1,44.2h2.6c0.3,0,0.6,0,1,0c0.4,0,0.7,0,1,0c1.4,0,2.1,0,3.1-0.5c1.8-0.8,3.2-2.4,3.2-5
				c0-2.3-1.1-4.3-3.6-5.1c-0.8-0.3-1.5-0.3-2.7-0.3c-0.3,0-0.6,0-0.9,0c-0.3,0-0.6,0-0.9,0h-2.8v0.2h1.7V44h-1.7V44.2z M76.3,33.6
				c0.4,0,0.8-0.1,1.3-0.1c3.4,0,4.6,2.1,4.6,5.3c0,1.4-0.2,2.5-0.9,3.6c-0.9,1.4-2.2,1.7-3.6,1.7c-0.6,0-1,0-1.4-0.1V33.6z"/>
			<path fill="#FFFFFF" d="M85.3,44H87V33.6h-1.7v-0.2h8.8V36h-0.2c-0.5-1.6-1.1-2.4-2.8-2.4h-2.5v4.7h1c1.4,0,1.8-0.4,2.2-2.3h0.2
				v4.8h-0.2c-0.3-1.2-0.5-2.3-2-2.3h-1.2V44h2.9c2.2,0,2.9-2.2,3-3.2h0.2v3.4h-9.3V44z"/>
		</g>
	</g>
</g>
</svg>
