<?xml version="1.0" encoding="utf-8"?>
<!-- Generator: Adobe Illustrator 18.0.0, SVG Export Plug-In . SVG Version: 6.00 Build 0)  -->
<!DOCTYPE svg PUBLIC "-//W3C//DTD SVG 1.1//EN" "http://www.w3.org/Graphics/SVG/1.1/DTD/svg11.dtd">
<svg version="1.1" xmlns="http://www.w3.org/2000/svg" xmlns:xlink="http://www.w3.org/1999/xlink" x="0px" y="0px"
	 viewBox="0 0 141.1 47.5" enable-background="new 0 0 141.1 47.5" xml:space="preserve">
<g id="Capa_1">
</g>
<g id="Capa_2">
	<g>
		<path fill="#FFFFFF" d="M70.5,44c-8.1,0-16.3,0-24.4,0c-0.3,0-0.7,0.2-0.8-0.2c-0.1-0.4,0-0.9,0-1.4c0,0,0.2-0.1,0.2-0.1
			c0.2,0,0.3,0,0.5,0c16.3,0,32.7,0,49,0c0.3,0,0.7-0.2,0.8,0.1c0.1,0.5,0.1,1,0,1.5c0,0.2-0.3,0.1-0.5,0.1c-1.6,0-3.1,0-4.7,0H70.5
			z"/>
		<path fill="#FFFFFF" d="M91.3,13.4c-2.7-0.8-5.3-1.6-8-2.4C79.2,9.7,75,8.5,70.9,7.2c-0.4-0.1-0.7-0.1-1,0c-6.6,2-13.1,4-19.7,6
			c-0.1,0-0.1,0-0.3,0.1c0-0.6,0-1.1,0-1.6c0-0.4,0.4-0.4,0.6-0.5c5.4-1.7,10.7-3.3,16.1-5c1.2-0.4,2.3-0.7,3.5-1.1
			c0.4-0.1,0.7-0.1,1.1,0c6.4,2,12.8,4,19.2,5.9c0.8,0.2,1.1,0.5,1,1.3C91.3,12.7,91.3,13,91.3,13.4"/>
		<path fill="#FFFFFF" d="M70.5,41.1c-7.4,0-14.9,0-22.3,0c-0.8,0-0.7-0.4-0.7-0.9c0-0.5-0.1-0.9,0.7-0.9c14.9,0,29.8,0,44.8,0
			c0.6,0,0.7,0.2,0.7,0.8c0,1,0,1-1,1H70.5z"/>
		<path fill="#FFFFFF" d="M70.5,38.1c-6.7,0-13.4,0-20,0c-0.6,0-0.7-0.2-0.7-0.7c0-1,0-1,1-1c13.2,0,26.5,0,39.7,0
			c0.2,0,0.7-0.2,0.7,0.2c0.1,0.5,0.1,1,0,1.4c0,0.2-0.4,0.1-0.7,0.1C83.9,38.1,77.2,38.1,70.5,38.1"/>
		<path fill="#FFFFFF" d="M70.5,14.5c6.7,0,13.4,0,20.1,0c0.6,0,0.8,0.2,0.7,0.8c-0.1,0.5,0.2,1-0.7,1c-13.3,0-26.7,0-40,0
			c-0.6,0-0.8-0.1-0.8-0.7c0.1-1,0-1,1-1C57.4,14.5,63.9,14.5,70.5,14.5"/>
		<path fill="#FFFFFF" d="M87.4,13.3c-3.1,0.4-6-0.1-8.9-1.1c-2.5-0.9-5-1.5-7.5-2.3c-0.4-0.1-0.7-0.1-1.1,0
			c-3.6,1.1-7.3,2.2-10.9,3.3c-0.6,0.2-1.1,0.3-1.7,0.3c-1.3,0-2.6,0-4-0.1c1.7-0.5,3.4-1.1,5.2-1.6c3.8-1.2,7.7-2.3,11.5-3.5
			c0.3-0.1,0.6-0.1,0.9,0c5.3,1.7,10.7,3.3,16,5C87.1,13.1,87.3,13.2,87.4,13.3"/>
		<path fill="#FFFFFF" d="M55.1,26c0,2.6,0,5.3,0,7.9c0,1.1-0.4,1.6-1.4,1.6c-1,0-1.5-0.5-1.5-1.6c0-5.3,0-10.7,0-16
			c0-0.5,0.1-0.7,0.6-0.6c0.4,0,0.5,0.1,0.5,0.5c0,0.9,0,1.8,0,2.7c0,4.4,0,8.8,0,13.2c0,0.1,0,0.2,0,0.3c0,0.2-0.1,0.5,0.3,0.6
			c0.4,0,0.4-0.3,0.4-0.6c0-1.8,0-3.6,0-5.4c0-3.5,0-7,0-10.6c0-0.4-0.1-0.7,0.5-0.7c0.7,0,0.6,0.3,0.6,0.8
			C55.1,20.6,55.1,23.3,55.1,26"/>
		<path fill="#FFFFFF" d="M61,25.9c0-2.7,0-5.4,0-8c0-0.4,0-0.7,0.6-0.6c0.3,0,0.4,0.1,0.4,0.4c0,0.1,0,0.2,0,0.4
			c0,5.6,0,11.2,0,16.7c0,0.3,0.2,0.7-0.4,0.7c-0.6,0.1-0.6-0.3-0.6-0.7c-0.3-2.7-0.5-5.4-0.8-8.2c-0.2,0.4-0.2,0.7-0.2,1
			c0,2.4,0,4.9,0,7.3c0,0.4,0,0.6-0.5,0.6c-0.5,0-0.4-0.3-0.4-0.6c0-5.7,0-11.4,0-17c0-0.3-0.1-0.6,0.4-0.6c0.5,0,0.5,0.2,0.6,0.6
			C60.3,20.5,60.6,23.2,61,25.9C61,25.9,61,25.9,61,25.9"/>
		<path fill="#FFFFFF" d="M74,31.4c0.3-1.9-0.5-4-1.1-6.1c-0.7-2.2-0.5-4.5-0.5-6.8c0-0.8,0.7-1.3,1.6-1.2c0.8,0,1.2,0.5,1.2,1.3
			c0,1.2,0,2.5,0,3.7c0,0.5-0.3,0.4-0.6,0.4c-0.3,0-0.6,0-0.6-0.5c0-1.1,0-2.2,0-3.3c0-0.3,0.1-0.7-0.3-0.7c-0.4,0-0.2,0.4-0.2,0.6
			c-0.3,3.1,0.4,6,1.3,8.9c0.7,2.1,0.3,4.4,0.4,6.6c0,0.7-0.6,1.2-1.5,1.1c-0.8,0-1.3-0.5-1.3-1.2c0-1.4,0-2.9,0-4.3
			c0-0.5,0.3-0.3,0.6-0.4c0.3,0,0.6-0.1,0.6,0.4c0,1.2,0,2.3,0,3.5c0,0.2,0,0.4,0,0.6c0,0.2,0.1,0.4,0.3,0.4c0.2,0,0.3-0.2,0.3-0.4
			C74,33.3,74,32.5,74,31.4"/>
		<path fill="#FFFFFF" d="M79.1,26.3c0-2.5,0-5,0-7.5c0-1,0.5-1.5,1.3-1.5c0.9,0,1.5,0.5,1.5,1.4c0,1.2,0,2.4,0,3.7
			c0,0.5-0.3,0.4-0.6,0.4c-0.3,0-0.5,0-0.5-0.4c0-1.1,0-2.3,0-3.4c0-0.3,0-0.6-0.4-0.6c-0.4,0-0.4,0.3-0.4,0.6c0,5,0,10,0,15
			c0,0.3,0,0.6,0.4,0.6c0.4,0,0.3-0.4,0.3-0.6c0-1.2,0-2.4,0-3.7c0-0.5,0.1-0.6,0.6-0.6c0.5,0,0.6,0.2,0.6,0.6c0,1.2,0,2.5,0,3.7
			c0,1-0.5,1.5-1.5,1.5c-0.9,0-1.4-0.5-1.4-1.5C79.1,31.4,79.1,28.9,79.1,26.3"/>
		<path fill="#FFFFFF" d="M66,26.3c0-2.8,0-5.5,0-8.3c0-0.7,0.2-0.9,0.8-0.8c0.3,0,0.7,0,1,0c0.4,0,0.6,0,0.6,0.5
			c0,0.5-0.3,0.5-0.6,0.5c-0.5-0.1-0.6,0.1-0.6,0.6c0,2,0,3.9,0,5.9c0,0.5,0.1,0.7,0.6,0.6c0.4-0.1,0.6,0,0.6,0.5
			c0,0.5-0.2,0.6-0.6,0.5c-0.5-0.1-0.6,0.1-0.6,0.6c0,2.3,0,4.6,0,7c0,0.5,0.1,0.7,0.7,0.7c0.3,0,0.6-0.1,0.8,0
			c0.3,0.1,0.1,0.4,0.1,0.7c0,0.3-0.2,0.3-0.4,0.3c-0.6,0-1.2,0-1.9,0c-0.5,0-0.6-0.2-0.6-0.6C66,32,66,29.2,66,26.3"/>
		<path fill="#FFFFFF" d="M87.4,34.5c-0.4,0-0.4-0.4-0.4-0.7c0-5,0-9.9,0-14.9c0-0.3-0.1-0.6,0.3-0.7c0.5-0.1,0.5,0.3,0.5,0.7
			c0,2.5,0,5,0,7.5c0,2.5,0,4.9,0,7.4C87.8,34,87.9,34.5,87.4,34.5 M88.9,18.7c0-0.9-0.5-1.4-1.4-1.4c-1.1,0-1.6,0.5-1.6,1.7
			c0,5,0,10,0,14.9c0,1.1,0.5,1.6,1.5,1.6c1,0,1.5-0.5,1.5-1.6c0-2.5,0-5,0-7.5C88.9,23.8,88.9,21.2,88.9,18.7"/>
	</g>
</g>
</svg>
