<?xml version="1.0" encoding="utf-8"?>
<!-- Generator: Adobe Illustrator 18.0.0, SVG Export Plug-In . SVG Version: 6.00 Build 0)  -->
<!DOCTYPE svg PUBLIC "-//W3C//DTD SVG 1.1//EN" "http://www.w3.org/Graphics/SVG/1.1/DTD/svg11.dtd">
<svg version="1.1" xmlns="http://www.w3.org/2000/svg" xmlns:xlink="http://www.w3.org/1999/xlink" x="0px" y="0px"
	 viewBox="0 0 141.1 47.5" enable-background="new 0 0 141.1 47.5" xml:space="preserve">
<g id="Capa_1">
</g>
<g id="Capa_2">
	<g>
		<path fill="#FFFFFF" d="M60.6,39h-2.1c0,0,0.3-4.4,4.8-4.4c4.5,0,5.1,4.4,5.1,4.4h-2c0,0-0.8-2.4-3-2.4C61.3,36.6,60.6,39,60.6,39
			"/>
		<path fill="#FFFFFF" d="M66.3,39.9h2.1c0,0-0.3,4.4-4.8,4.4c-4.5,0-5.1-4.4-5.1-4.4h2c0,0,0.8,2.4,3,2.4
			C65.7,42.4,66.3,39.9,66.3,39.9"/>
	</g>
	<rect x="69.5" y="34.9" fill="#FFFFFF" width="2" height="9.2"/>
	<rect x="79" y="35" fill="#FFFFFF" width="2" height="9.2"/>
	<rect x="72.3" y="34.9" fill="#FFFFFF" width="4.8" height="2"/>
	<rect x="72.2" y="38.5" fill="#FFFFFF" width="4.8" height="2"/>
	<rect x="72.1" y="42.2" fill="#FFFFFF" width="4.8" height="2"/>
	<path fill="#FFFFFF" d="M69.7,13h-5.1c0,0-0.4,0-0.5-0.2c-0.1-0.2,0-3.5,0-3.5l-4.1,0.5v6.1c0,0-0.1,0.3,0.4,0.7
		c0.5,0.3,0.7,0.2,0.7,0.2h5v3.9H61c0,0-0.4,0-0.7,0.4c-0.3,0.3-0.3,0.6-0.3,0.6v7.7h4.2v-4.7h5.5V13z M69.7,5.6h-2.7V11l2.7,0V5.6z
		 M69.7,34.4c-8.8,0-16-7.1-16-16s7.1-15.9,16-15.9V34.4z"/>
	<path fill="#FFFFFF" d="M69.6,24.6h5.5v4.7h4.2v-7.7c0,0-0.1-0.3-0.3-0.6c-0.3-0.3-0.7-0.4-0.7-0.4h-5.2v-3.9h5
		c0,0,0.3,0.1,0.7-0.2c0.5-0.3,0.4-0.7,0.4-0.7V9.7l-4-0.5c0,0,0.1,3.3,0,3.5C75,12.9,74.6,13,74.6,13h-5.1V24.6z M69.6,11l2.7,0
		V5.6h-2.7V11z M69.6,2.5c8.8,0,15.9,7.1,15.9,15.9c0,8.8-7.1,16-15.9,16V2.5z"/>
</g>
</svg>
