<?xml version="1.0" encoding="utf-8"?>
<!-- Generator: Adobe Illustrator 18.0.0, SVG Export Plug-In . SVG Version: 6.00 Build 0)  -->
<!DOCTYPE svg PUBLIC "-//W3C//DTD SVG 1.1//EN" "http://www.w3.org/Graphics/SVG/1.1/DTD/svg11.dtd">
<svg version="1.1" xmlns="http://www.w3.org/2000/svg" xmlns:xlink="http://www.w3.org/1999/xlink" x="0px" y="0px"
	 viewBox="0 0 494.2 226.7" enable-background="new 0 0 494.2 226.7" xml:space="preserve">
<g id="Capa_1">
	<rect x="-8" y="-17.8" fill="#151518" width="511" height="274.7"/>
	<g>
		<g>
			<path fill="#0094A1" d="M35.7,107c18.2,0,30.5-8.8,30.5-22.8c0-10.7-7.2-17.3-21.4-21.6c-13-3.9-15.9-5-15.9-6.8
				c0-1.7,1.5-2.6,6.1-2.6c8.2,0,19.9,3.1,26.6,7V40.4c-6-2.9-14-5.5-25.1-5.5c-17.5,0-29.8,6.8-29.8,21.5c0,12.7,10,18.4,22.8,22.2
				c10.7,3.2,14.5,4.6,14.5,6.6c0,2.6-3.6,3.3-8,3.3c-9.1,0-22.8-4.3-29.2-9.7v20.8C15.8,105.2,25.5,107,35.7,107"/>
			<rect x="70.3" y="36.2" fill="#B9007C" width="21.3" height="69.3"/>
			<polygon fill="#DDDB1C" points="98.2,105.6 118.8,105.6 118.8,66.8 129,83.3 140.5,83.3 150.3,66.8 150.3,105.6 170.7,105.6 
				170.7,36.2 149.7,36.2 134.5,60.9 119.3,36.2 98.2,36.2 			"/>
			<path fill="#009ADA" d="M206,66h-7.7V53.6h7.7c4.3,0,7.3,2.5,7.3,6.1C213.4,63.5,210.3,66,206,66 M208.9,36.2H177v69.3h21.3V81.4
				h10.6c16.1,0,26.3-9.7,26.3-22.6C235.2,45.8,225,36.2,208.9,36.2"/>
			<path fill="#0094A1" d="M272.4,107c21.8,0,37.1-16.5,37.1-36.1c0-19.6-15.3-36.1-37.1-36.1c-21.7,0-37.2,16.4-37.2,36.1
				C235.3,90.4,250.7,107,272.4,107 M272.4,87.6c-8.9,0-15.4-7-15.4-16.6s6.4-16.6,15.4-16.6c8.9,0,15.4,7,15.4,16.6
				S281.4,87.6,272.4,87.6"/>
			<path fill="#B9007C" d="M341,107c18.2,0,30.5-8.8,30.5-22.8c0-10.7-7.2-17.3-21.4-21.6c-13-3.9-15.9-5-15.9-6.8
				c0-1.7,1.5-2.6,6.1-2.6c8.2,0,19.9,3.1,26.6,7V40.4c-6-2.9-14-5.5-25.1-5.5c-17.5,0-29.8,6.8-29.8,21.5c0,12.7,10,18.4,22.8,22.2
				c10.7,3.2,14.5,4.6,14.5,6.6c0,2.6-3.6,3.3-8,3.3c-9.1,0-22.8-4.3-29.2-9.7v20.8C321.1,105.2,330.8,107,341,107"/>
			<rect x="375.7" y="36.2" fill="#DDDB1C" width="21.3" height="69.3"/>
			<path fill="#009ADA" d="M438.7,107c21.8,0,37.1-16.5,37.1-36.1c0-19.6-15.3-36.1-37.1-36.1c-21.7,0-37.2,16.4-37.2,36.1
				C401.6,90.4,417,107,438.7,107 M438.7,87.6c-8.9,0-15.4-7-15.4-16.6s6.4-16.6,15.4-16.6c8.9,0,15.4,7,15.4,16.6
				S447.6,87.6,438.7,87.6"/>
		</g>
		<g>
			<path fill="#B9007C" d="M80.6,29.2c6.1,0,11-4.9,11-11s-4.9-11-11-11c-6.1,0-11,4.9-11,11S74.5,29.2,80.6,29.2"/>
			<path fill="#DDDB1C" d="M386.6,29.2c6.1,0,11-4.9,11-11s-4.9-11-11-11c-6.1,0-11,4.9-11,11S380.5,29.2,386.6,29.2"/>
		</g>
		<path fill="#FFFFFF" d="M144,217h12.3l23.8-47.5v-8.9h-39.8V171h26.7L144,217z M119.7,217h11.4v-56.4H121l-13.2,7.1V179l11.9-6
			V217z M77.8,207.2c-8.1,0-12.7-8.6-12.7-18.4s4.7-18.4,12.7-18.4c8.1,0,12.6,8.6,12.6,18.4S85.9,207.2,77.8,207.2 M77.8,218.1
			c15.5,0,24.2-14,24.2-29.3c0-15.3-8.8-29.3-24.2-29.3c-15.5,0-24.3,14-24.3,29.3C53.5,204.1,62.3,218.1,77.8,218.1 M5.6,217h40.1
			v-10.2H22.2l9.7-8.9c8.7-8,11.9-13.2,11.9-21.3c0-10.7-9.6-17.2-20-17.2c-6.8,0-12.3,2.2-16.4,5.4v11.9c4.3-3.8,9-6.4,15.2-6.4
			c5.8,0,9.7,3.1,9.7,7.9c0,5-2.8,8.6-10.1,15.2L5.6,208.5V217z"/>
		<path fill="#FFFFFF" d="M462.1,143.6c6.9,0,11.9-5.3,11.9-11.9c0-6.6-5-11.9-11.9-11.9c-6.9,0-11.9,5.3-11.9,11.9
			C450.2,138.2,455.2,143.6,462.1,143.6 M462.1,139.2c-4,0-7.1-3.2-7.1-7.5c0-4.3,3-7.5,7.1-7.5c4,0,7.1,3.2,7.1,7.5
			C469.1,136,466.1,139.2,462.1,139.2 M427.3,143.2h4.4l9.6-23h-5.1l-6.7,16.5l-6.7-16.5h-5.2L427.3,143.2z M401.6,143.1h4.7v-22.9
			h-4.7V143.1z M370.6,120.2v4.2h7.2v18.7h4.7v-18.7h7.3v-4.2H370.6z M348.8,133.9l3.4-7.9l3.3,7.9H348.8z M340.1,143.1h4.9l2.3-5.3
			h9.7l2.3,5.3h5l-9.8-23h-4.5L340.1,143.1z M323.4,143.6c2.4,0,4.7-0.6,6.5-1.7v-4.7c-1.8,1.4-4,2-6.3,2c-4.4,0-7.8-3.1-7.8-7.5
			c0-4.4,3.3-7.5,7.6-7.5c2.5,0,4.3,0.7,6,1.8v-4.7c-1.8-0.9-3.8-1.4-6-1.4c-7.1,0-12.4,4.9-12.4,11.9
			C311,138.7,316.4,143.6,323.4,143.6 M289.1,143.6c5.5,0,9.8-3.5,9.8-10.1v-13.3h-4.7v13.4c0,3.8-2.2,5.5-5.1,5.5
			c-2.8,0-5.1-1.7-5.1-5.5v-13.4h-4.7v13.3C279.4,140.1,283.6,143.6,289.1,143.6 M250.8,138.9v-14.4h3.5c5.1,0,8.1,2.7,8.1,7.2
			c0,4.5-3,7.2-8.1,7.2H250.8z M246.1,143.1h8.6c7.4,0,12.5-4.7,12.5-11.4c0-6.7-5.1-11.4-12.5-11.4h-8.6V143.1z M217.1,143.1h17.2
			v-4.2h-12.4V133h9.7v-4.1h-9.7v-4.4h12.1v-4.2h-16.8V143.1z M176.6,143.6c6.9,0,11.9-5.3,11.9-11.9c0-6.6-5-11.9-11.9-11.9
			c-6.9,0-11.9,5.3-11.9,11.9C164.7,138.2,169.7,143.6,176.6,143.6 M176.6,139.2c-4,0-7.1-3.2-7.1-7.5c0-4.3,3-7.5,7.1-7.5
			c4,0,7.1,3.2,7.1,7.5C183.7,136,180.6,139.2,176.6,139.2 M139.2,143.1h16.3v-4.2h-11.6v-18.7h-4.7V143.1z M110.1,143.1h17.1v-4.2
			h-12.4V133h9.7v-4.1h-9.7v-4.4h12.1v-4.2h-16.8V143.1z M81.3,138.9v-14.4h3.5c5.1,0,8.1,2.7,8.1,7.2c0,4.5-3,7.2-8.1,7.2H81.3z
			 M76.6,143.1h8.6c7.4,0,12.5-4.7,12.5-11.4c0-6.7-5.1-11.4-12.5-11.4h-8.6V143.1z M52.4,143.6c6.9,0,11.9-5.3,11.9-11.9
			c0-6.6-5-11.9-11.9-11.9s-11.9,5.3-11.9,11.9C40.5,138.2,45.5,143.6,52.4,143.6 M52.4,139.2c-4,0-7.1-3.2-7.1-7.5
			c0-4.3,3-7.5,7.1-7.5s7.1,3.2,7.1,7.5C59.4,136,56.4,139.2,52.4,139.2 M5.5,143.1h4.7v-15.6l5.4,7.4h2.6l5.3-7.4v15.6h4.6v-22.9
			h-4.6l-6.6,9.5l-6.6-9.5H5.5V143.1z"/>
		<path fill="#B9007C" d="M443,172c-0.4,0.6-1.2,1-2.1,1c-0.9,0-1.7-0.4-1.7-1.2c0-0.8,0.7-1.2,1.8-1.2c0.7,0,1.4,0.2,1.9,0.5V172z
			 M446.2,172.7c-0.4,0-0.7-0.2-0.7-0.7v-3.1c0-2.3-1.8-3.7-4.4-3.7c-1.7,0-2.8,0.4-3.4,0.7v2.2c0.7-0.4,1.9-0.8,2.8-0.8
			c1.2,0,2.5,0.2,2.5,1.8v0.3c-0.6-0.3-1.4-0.6-2.7-0.6c-1.8,0-3.7,1-3.7,3.1c0,1.9,1.4,3.1,3.4,3.1c1.5,0,2.6-0.6,3.2-1.3
			c0.4,0.8,1.2,1.2,2.1,1.2c0.5,0,1.1-0.1,1.4-0.4v-1.9C446.6,172.7,446.4,172.7,446.2,172.7 M420.1,174.7h2.6v-5.9
			c0.4-0.7,1.2-1.2,2-1.2c0.7,0,1.5,0.3,1.5,1.9v5.2h2.6v-5.9c0.3-0.7,1.1-1.3,1.9-1.3c0.7,0,1.5,0.3,1.5,1.9v5.2h2.6v-5.8
			c0-2.5-1.4-3.7-3.3-3.7c-1.4,0-2.6,0.7-3.2,1.6c-0.4-0.8-1.4-1.6-2.9-1.6c-1.3,0-2.3,0.6-2.8,1.4v-1.1h-2.6V174.7z M412.2,174.7
			h2.6v-5.4c0.3-0.7,1.3-1.6,2.7-1.6c0.3,0,0.6,0,0.8,0.1v-2.6c-0.1,0-0.2,0-0.3,0c-1.5,0-2.7,0.9-3.2,1.8v-1.6h-2.6V174.7z
			 M405.1,175c3,0,5.2-2.2,5.2-4.9c0-2.7-2.1-4.9-5.2-4.9c-3.1,0-5.2,2.2-5.2,4.9C400,172.8,402.1,175,405.1,175 M405.1,172.7
			c-1.5,0-2.6-1.1-2.6-2.6c0-1.5,1.1-2.6,2.6-2.6c1.5,0,2.6,1.1,2.6,2.6C407.7,171.6,406.6,172.7,405.1,172.7 M396.2,174.7v-7.1h2.9
			v-2.2h-2.9v-0.5c0-0.8,0.5-1.2,1.3-1.2c0.6,0,1.1,0.1,1.6,0.3v-2.1c-0.7-0.3-1.4-0.4-2.4-0.4c-2.2,0-3.1,1.3-3.1,3.1v0.9h-1.7v2.2
			h1.7v7.1H396.2z M384.2,169.1c0.1-1.1,0.9-1.9,2.1-1.9c1.2,0,1.9,0.9,2,1.9H384.2z M386.7,175c1.4,0,2.8-0.4,3.5-1v-2.1
			c-0.8,0.5-1.9,0.8-3,0.8c-1.6,0-2.8-0.6-3.1-1.9h6.7v-0.7c0-2.6-1.6-4.9-4.4-4.9c-2.9,0-4.8,2.2-4.8,4.9
			C381.6,173.1,383.9,175,386.7,175 M371.8,167.2V164h3.2c1.2,0,1.9,0.6,1.9,1.6c0,1-0.7,1.6-1.9,1.6H371.8z M369.1,174.7h2.7v-5.3
			h2.3l3.8,5.3h3.1l-4-5.6c1.7-0.5,2.7-1.9,2.7-3.6c0-2.2-1.7-3.9-4.5-3.9h-6V174.7z M358.6,172c-0.4,0.6-1.2,1-2.1,1
			c-0.9,0-1.7-0.4-1.7-1.2c0-0.8,0.7-1.2,1.8-1.2c0.7,0,1.4,0.2,1.9,0.5V172z M361.9,172.7c-0.4,0-0.7-0.2-0.7-0.7v-3.1
			c0-2.3-1.8-3.7-4.4-3.7c-1.7,0-2.8,0.4-3.4,0.7v2.2c0.7-0.4,1.9-0.8,2.8-0.8c1.2,0,2.5,0.2,2.5,1.8v0.3c-0.6-0.3-1.4-0.6-2.7-0.6
			c-1.8,0-3.7,1-3.7,3.1c0,1.9,1.4,3.1,3.4,3.1c1.5,0,2.6-0.6,3.2-1.3c0.4,0.8,1.2,1.2,2.1,1.2c0.5,0,1.1-0.1,1.4-0.4v-1.9
			C362.2,172.7,362,172.7,361.9,172.7 M349.6,175c0.6,0,1.2-0.1,1.7-0.3v-2.2c-0.2,0.1-0.4,0.2-0.7,0.2c-0.5,0-0.8-0.3-0.8-0.9v-10
			h-2.6v10.7C347.1,174.4,348.3,175,349.6,175 M333.6,169.1c0.1-1.1,0.9-1.9,2.1-1.9c1.2,0,1.9,0.9,2,1.9H333.6z M336.2,175
			c1.4,0,2.8-0.4,3.5-1v-2.1c-0.8,0.5-1.9,0.8-3,0.8c-1.6,0-2.8-0.6-3.1-1.9h6.7v-0.7c0-2.6-1.6-4.9-4.4-4.9c-2.9,0-4.8,2.2-4.8,4.9
			C331,173.1,333.4,175,336.2,175 M328.2,175c0.6,0,1.2-0.1,1.7-0.3v-2.2c-0.2,0.1-0.4,0.2-0.7,0.2c-0.5,0-0.8-0.3-0.8-0.9v-10h-2.6
			v10.7C325.7,174.4,326.9,175,328.2,175 M318.6,172.7c-1.1,0-1.9-0.7-2.3-1.4v-2.4c0.4-0.7,1.2-1.4,2.3-1.4c1.5,0,2.5,1.1,2.5,2.6
			C321.1,171.5,320.1,172.7,318.6,172.7 M319.4,175c2.6,0,4.4-2.2,4.4-4.9c0-2.7-1.8-4.9-4.4-4.9c-1.6,0-2.5,0.7-3.1,1.4v-4.9h-2.6
			v13h2.6v-1.1C316.8,174.3,317.8,175,319.4,175 M309.7,164.5c0.9,0,1.6-0.7,1.6-1.6c0-0.9-0.7-1.6-1.6-1.6c-0.9,0-1.6,0.7-1.6,1.6
			C308.1,163.9,308.8,164.5,309.7,164.5 M308.4,174.7h2.6v-9.3h-2.6V174.7z M302.1,175c2.5,0,4.2-1.2,4.2-2.9c0-1.7-1.1-2.5-3-2.9
			c-1.2-0.3-2.3-0.4-2.3-1.1c0-0.4,0.5-0.7,1.5-0.7c1.3,0,2.5,0.5,3.4,1v-2.2c-0.8-0.5-2.2-0.9-3.5-0.9c-2.6,0-4.1,1.1-4.1,2.9
			c0,1.7,1,2.4,3,2.9c1.4,0.4,2.4,0.5,2.4,1.1c0,0.5-0.6,0.8-1.6,0.8c-1.7,0-3.1-0.6-3.8-1.1v2.3C299,174.6,300.5,175,302.1,175
			 M291.6,175c3,0,5.2-2.2,5.2-4.9c0-2.7-2.1-4.9-5.2-4.9c-3.1,0-5.2,2.2-5.2,4.9C286.4,172.8,288.5,175,291.6,175 M291.6,172.7
			c-1.5,0-2.6-1.1-2.6-2.6c0-1.5,1.1-2.6,2.6-2.6c1.5,0,2.6,1.1,2.6,2.6C294.2,171.6,293.1,172.7,291.6,172.7 M280,167.5
			c1.5,0,2.5,1.1,2.5,2.6c0,1.5-1,2.6-2.5,2.6c-1.1,0-1.9-0.7-2.3-1.4v-2.4C278.1,168.1,278.9,167.5,280,167.5 M280.7,165.2
			c-1.6,0-2.5,0.7-3.1,1.4v-1.1H275v13h2.6v-4.9c0.5,0.7,1.5,1.4,3.1,1.4c2.6,0,4.4-2.2,4.4-4.9
			C285.1,167.4,283.3,165.2,280.7,165.2 M262.4,174.7h2.6v-5.4c0.3-0.7,1.3-1.6,2.7-1.6c0.3,0,0.6,0,0.8,0.1v-2.6
			c-0.1,0-0.2,0-0.3,0c-1.5,0-2.7,0.9-3.2,1.8v-1.6h-2.6V174.7z M253.7,169.1c0.1-1.1,0.9-1.9,2.1-1.9c1.2,0,1.9,0.9,2,1.9H253.7z
			 M256.2,175c1.4,0,2.8-0.4,3.5-1v-2.1c-0.8,0.5-1.9,0.8-3,0.8c-1.6,0-2.8-0.6-3.1-1.9h6.7v-0.7c0-2.6-1.6-4.9-4.4-4.9
			c-2.9,0-4.8,2.2-4.8,4.9C251.1,173.1,253.4,175,256.2,175 M246.7,175c1.2,0,2-0.2,2.9-0.7v-2.2c-0.8,0.4-1.5,0.6-2.5,0.6
			c-1.6,0-2.9-1-2.9-2.6c0-1.6,1.3-2.6,2.9-2.6c0.9,0,1.6,0.2,2.4,0.6v-2.2c-0.9-0.4-1.6-0.6-2.8-0.6c-2.7,0-5.1,1.8-5.1,4.9
			C241.6,173.1,244.1,175,246.7,175 M236.6,172c-0.4,0.6-1.2,1-2.1,1c-0.9,0-1.7-0.4-1.7-1.2c0-0.8,0.7-1.2,1.8-1.2
			c0.7,0,1.4,0.2,1.9,0.5V172z M239.9,172.7c-0.4,0-0.7-0.2-0.7-0.7v-3.1c0-2.3-1.8-3.7-4.4-3.7c-1.7,0-2.8,0.4-3.4,0.7v2.2
			c0.7-0.4,1.9-0.8,2.8-0.8c1.2,0,2.5,0.2,2.5,1.8v0.3c-0.6-0.3-1.4-0.6-2.7-0.6c-1.8,0-3.7,1-3.7,3.1c0,1.9,1.4,3.1,3.4,3.1
			c1.5,0,2.6-0.6,3.2-1.3c0.4,0.8,1.2,1.2,2.1,1.2c0.5,0,1.1-0.1,1.4-0.4v-1.9C240.3,172.7,240.1,172.7,239.9,172.7 M217.1,174.7
			h2.7V169h5.9v5.7h2.7v-13h-2.7v4.9h-5.9v-4.9h-2.7V174.7z"/>
		<path fill="#B9007C" d="M306.7,195.3c0.9,0,1.6-0.7,1.6-1.6c0-0.9-0.7-1.6-1.6-1.6c-0.9,0-1.6,0.7-1.6,1.6
			C305,194.5,305.8,195.3,306.7,195.3 M306.7,189.1c0.9,0,1.6-0.7,1.6-1.6c0-0.9-0.7-1.6-1.6-1.6c-0.9,0-1.6,0.7-1.6,1.6
			C305,188.4,305.8,189.1,306.7,189.1 M297.6,195.1h2.6v-5.4c0.3-0.7,1.3-1.6,2.7-1.6c0.3,0,0.6,0,0.8,0.1v-2.6c-0.1,0-0.2,0-0.3,0
			c-1.5,0-2.7,0.9-3.2,1.8v-1.6h-2.6V195.1z M292,192.3c-0.4,0.6-1.2,1-2.1,1c-0.9,0-1.7-0.4-1.7-1.2c0-0.8,0.7-1.2,1.8-1.2
			c0.7,0,1.4,0.2,1.9,0.5V192.3z M295.2,193c-0.4,0-0.7-0.2-0.7-0.7v-3.1c0-2.3-1.8-3.7-4.4-3.7c-1.7,0-2.8,0.4-3.4,0.7v2.2
			c0.7-0.4,1.9-0.8,2.8-0.8c1.2,0,2.5,0.2,2.5,1.8v0.3c-0.6-0.3-1.4-0.6-2.7-0.6c-1.8,0-3.7,1-3.7,3.1c0,1.9,1.4,3.1,3.4,3.1
			c1.5,0,2.6-0.6,3.2-1.3c0.4,0.8,1.2,1.2,2.1,1.2c0.5,0,1.1-0.1,1.4-0.4v-1.9C295.6,193,295.4,193,295.2,193 M282.9,195.3
			c0.6,0,1.2-0.1,1.7-0.3v-2.2c-0.2,0.1-0.4,0.2-0.7,0.2c-0.5,0-0.8-0.3-0.8-0.9v-10h-2.6v10.7C280.5,194.8,281.7,195.3,282.9,195.3
			 M275.3,185.8v5.9c-0.4,0.7-1.2,1.2-2.1,1.2c-0.8,0-1.8-0.4-1.8-2v-5.2h-2.6v5.7c0,2.3,1.2,3.8,3.4,3.8c1.5,0,2.5-0.7,3.1-1.4v1.1
			h2.6v-9.3H275.3z M263.7,195.3c1.2,0,2-0.2,2.9-0.7v-2.2c-0.8,0.4-1.5,0.6-2.5,0.6c-1.6,0-2.9-1-2.9-2.6c0-1.6,1.3-2.6,2.9-2.6
			c0.9,0,1.6,0.2,2.4,0.6v-2.2c-0.9-0.4-1.6-0.6-2.8-0.6c-2.7,0-5.1,1.8-5.1,4.9C258.7,193.5,261.1,195.3,263.7,195.3 M255.3,184.9
			c0.9,0,1.6-0.7,1.6-1.6c0-0.9-0.7-1.6-1.6-1.6c-0.9,0-1.6,0.7-1.6,1.6C253.7,184.2,254.4,184.9,255.3,184.9 M254,195.1h2.6v-9.3
			H254V195.1z M246,195.1h2.6v-5.4c0.3-0.7,1.3-1.6,2.7-1.6c0.3,0,0.6,0,0.8,0.1v-2.6c-0.1,0-0.2,0-0.3,0c-1.5,0-2.7,0.9-3.2,1.8
			v-1.6H246V195.1z M238.1,195.1h2.6v-5.4c0.3-0.7,1.3-1.6,2.7-1.6c0.3,0,0.6,0,0.8,0.1v-2.6c-0.1,0-0.2,0-0.3,0
			c-1.5,0-2.7,0.9-3.2,1.8v-1.6h-2.6V195.1z M232.9,185.8v5.9c-0.4,0.7-1.2,1.2-2.1,1.2c-0.8,0-1.8-0.4-1.8-2v-5.2h-2.6v5.7
			c0,2.3,1.2,3.8,3.4,3.8c1.5,0,2.5-0.7,3.1-1.4v1.1h2.6v-9.3H232.9z M221.3,195.3c1.2,0,2-0.2,2.9-0.7v-2.2
			c-0.8,0.4-1.5,0.6-2.5,0.6c-1.6,0-2.9-1-2.9-2.6c0-1.6,1.3-2.6,2.9-2.6c0.9,0,1.6,0.2,2.4,0.6v-2.2c-0.9-0.4-1.6-0.6-2.8-0.6
			c-2.7,0-5.1,1.8-5.1,4.9C216.3,193.5,218.7,195.3,221.3,195.3"/>
		<path fill="#FFFFFF" d="M479.3,195.1v-5.9c0.4-0.7,1.2-1.2,2.1-1.2c0.8,0,1.8,0.4,1.8,2v5.2h2.6v-5.7c0-2.3-1.2-3.8-3.4-3.8
			c-1.5,0-2.5,0.7-3.1,1.4v-1.1h-2.6v9.3H479.3z M468.3,184.4h2.3l2.7-2.7H470L468.3,184.4z M469.6,195.3c3,0,5.2-2.2,5.2-4.9
			c0-2.7-2.1-4.9-5.2-4.9c-3.1,0-5.2,2.2-5.2,4.9C464.4,193.2,466.5,195.3,469.6,195.3 M469.6,193c-1.5,0-2.6-1.1-2.6-2.6
			c0-1.5,1.1-2.6,2.6-2.6c1.5,0,2.6,1.1,2.6,2.6C472.1,191.9,471.1,193,469.6,193 M461,184.9c0.9,0,1.6-0.7,1.6-1.6
			c0-0.9-0.7-1.6-1.6-1.6s-1.6,0.7-1.6,1.6C459.4,184.2,460.1,184.9,461,184.9 M459.7,195.1h2.6v-9.3h-2.6V195.1z M452.2,192.2
			c0,1.9,0.9,3.1,3,3.1c0.8,0,1.7-0.2,2.2-0.5v-2.2c-0.4,0.2-0.9,0.3-1.4,0.3c-0.9,0-1.3-0.4-1.3-1.3V188h2.6v-2.2h-2.6v-2.6h-2.6
			v2.6h-1.8v2.2h1.8V192.2z M445.2,195.3c2.5,0,4.2-1.2,4.2-2.9c0-1.7-1.1-2.5-3-2.9c-1.2-0.3-2.3-0.4-2.3-1.1
			c0-0.4,0.5-0.7,1.5-0.7c1.3,0,2.5,0.5,3.4,1v-2.2c-0.8-0.5-2.2-0.9-3.5-0.9c-2.6,0-4.1,1.1-4.1,2.9c0,1.7,1,2.4,3,2.9
			c1.4,0.4,2.4,0.5,2.4,1.1c0,0.5-0.6,0.8-1.6,0.8c-1.7,0-3.1-0.6-3.8-1.1v2.3C442.2,195,443.7,195.3,445.2,195.3 M433.1,189.5
			c0.1-1.1,0.9-1.9,2.1-1.9c1.2,0,1.9,0.9,2,1.9H433.1z M435.7,195.3c1.4,0,2.8-0.4,3.5-1v-2.1c-0.8,0.5-1.9,0.8-3,0.8
			c-1.6,0-2.8-0.6-3.1-1.9h6.7v-0.7c0-2.6-1.6-4.9-4.4-4.9c-2.9,0-4.8,2.2-4.8,4.9C430.5,193.4,432.9,195.3,435.7,195.3
			 M423.3,195.3c2.3,0,4.3-1,5.3-2.1v-5.8h-2.7v4.5c-0.7,0.6-1.7,0.9-2.6,0.9c-2.3,0-4.2-1.6-4.2-4.2c0-2.6,1.8-4.3,4.5-4.3
			c1.3,0,2.5,0.3,3.7,1.1v-2.6c-1.1-0.6-2.2-1-3.9-1c-4.1,0-7,2.8-7,6.8C416.3,192.5,419.4,195.3,423.3,195.3 M405.5,197.9h2.2
			l2.3-5.6h-2.8L405.5,197.9z M399.9,195.3c3,0,5.2-2.2,5.2-4.9c0-2.7-2.1-4.9-5.2-4.9c-3.1,0-5.2,2.2-5.2,4.9
			C394.8,193.2,396.9,195.3,399.9,195.3 M399.9,193c-1.5,0-2.6-1.1-2.6-2.6c0-1.5,1.1-2.6,2.6-2.6c1.5,0,2.6,1.1,2.6,2.6
			C402.5,191.9,401.4,193,399.9,193 M388,192.6c-1.5,0-2.5-1-2.5-2.4c0-1.4,1-2.4,2.5-2.4c1.1,0,1.9,0.6,2.3,1.3v2.2
			C389.9,192,389,192.6,388,192.6 M390.3,185.8v1.1c-0.5-0.7-1.5-1.3-3.1-1.3c-2.6,0-4.3,2.1-4.3,4.7c0,2.6,1.8,4.7,4.3,4.7
			c1.5,0,2.5-0.7,3.1-1.3v0.6c0,2-1.6,2.5-3,2.5c-1.2,0-2.4-0.3-3.4-0.9v2.4c0.8,0.5,2.2,0.8,3.7,0.8c2.6,0,5.4-1.5,5.4-4.9v-8.2
			H390.3z M373,195.1h8.6v-2.2h-5l4.7-5.3v-1.8h-8v2.2h4.4l-4.7,5.4V195.1z M368,192.3c-0.4,0.6-1.2,1-2.1,1c-0.9,0-1.7-0.4-1.7-1.2
			c0-0.8,0.7-1.2,1.8-1.2c0.7,0,1.4,0.2,1.9,0.5V192.3z M371.3,193c-0.4,0-0.7-0.2-0.7-0.7v-3.1c0-2.3-1.8-3.7-4.4-3.7
			c-1.7,0-2.8,0.4-3.4,0.7v2.2c0.7-0.4,1.9-0.8,2.8-0.8c1.2,0,2.5,0.2,2.5,1.8v0.3c-0.6-0.3-1.4-0.6-2.7-0.6c-1.8,0-3.7,1-3.7,3.1
			c0,1.9,1.4,3.1,3.4,3.1c1.5,0,2.6-0.6,3.2-1.3c0.4,0.8,1.2,1.2,2.1,1.2c0.5,0,1.1-0.1,1.4-0.4v-1.9C371.7,193,371.5,193,371.3,193
			 M354.6,195.1h2.6v-5.4c0.3-0.7,1.3-1.6,2.7-1.6c0.3,0,0.6,0,0.8,0.1v-2.6c-0.1,0-0.2,0-0.3,0c-1.5,0-2.7,0.9-3.2,1.8v-1.6h-2.6
			V195.1z M345.9,189.5c0.1-1.1,0.9-1.9,2.1-1.9c1.2,0,1.9,0.9,2,1.9H345.9z M348.4,195.3c1.4,0,2.8-0.4,3.5-1v-2.1
			c-0.8,0.5-1.9,0.8-3,0.8c-1.6,0-2.8-0.6-3.1-1.9h6.7v-0.7c0-2.6-1.6-4.9-4.4-4.9c-2.9,0-4.8,2.2-4.8,4.9
			C343.3,193.4,345.6,195.3,348.4,195.3 M336.4,193c-1.5,0-2.5-1.1-2.5-2.6c0-1.5,1-2.6,2.5-2.6c1.1,0,1.9,0.7,2.3,1.4v2.4
			C338.3,192.4,337.5,193,336.4,193 M335.6,195.3c1.6,0,2.5-0.7,3.1-1.4v1.1h2.6v-13h-2.6v4.9c-0.5-0.7-1.5-1.4-3.1-1.4
			c-2.6,0-4.4,2.2-4.4,4.9C331.3,193.2,333.1,195.3,335.6,195.3 M327.8,184.9c0.9,0,1.6-0.7,1.6-1.6c0-0.9-0.7-1.6-1.6-1.6
			c-0.9,0-1.6,0.7-1.6,1.6C326.3,184.2,327,184.9,327.8,184.9 M326.5,195.1h2.6v-9.3h-2.6V195.1z M315.3,195.1h9.3v-2.4H318V182
			h-2.7V195.1z"/>
		<path fill="#FFFFFF" d="M409.9,212.7c-0.4,0.6-1.2,1-2.1,1c-0.9,0-1.7-0.4-1.7-1.2c0-0.8,0.7-1.2,1.8-1.2c0.7,0,1.4,0.2,1.9,0.5
			V212.7z M413.2,213.4c-0.4,0-0.7-0.2-0.7-0.7v-3.1c0-2.3-1.8-3.7-4.4-3.7c-1.7,0-2.8,0.4-3.4,0.7v2.2c0.7-0.4,1.9-0.8,2.8-0.8
			c1.2,0,2.5,0.2,2.5,1.8v0.3c-0.6-0.3-1.4-0.6-2.7-0.6c-1.8,0-3.7,1-3.7,3.1c0,1.9,1.4,3.1,3.4,3.1c1.5,0,2.6-0.6,3.2-1.3
			c0.4,0.8,1.2,1.2,2.1,1.2c0.5,0,1.1-0.1,1.4-0.4v-1.9C413.6,213.4,413.4,213.4,413.2,213.4 M393.9,215.4h8.6v-2.2h-5l4.7-5.3v-1.8
			h-8v2.2h4.4l-4.7,5.4V215.4z M385.7,215.4v-5.9c0.4-0.7,1.2-1.2,2.1-1.2c0.8,0,1.8,0.4,1.8,2v5.2h2.6v-5.7c0-2.3-1.2-3.8-3.4-3.8
			c-1.5,0-2.5,0.7-3.1,1.4v-1.1H383v9.3H385.7z M377.4,212.7c-0.4,0.6-1.2,1-2.1,1c-0.9,0-1.7-0.4-1.7-1.2c0-0.8,0.7-1.2,1.8-1.2
			c0.7,0,1.4,0.2,1.9,0.5V212.7z M380.7,213.4c-0.4,0-0.7-0.2-0.7-0.7v-3.1c0-2.3-1.8-3.7-4.4-3.7c-1.7,0-2.8,0.4-3.4,0.7v2.2
			c0.7-0.4,1.9-0.8,2.8-0.8c1.2,0,2.5,0.2,2.5,1.8v0.3c-0.6-0.3-1.4-0.6-2.7-0.6c-1.8,0-3.7,1-3.7,3.1c0,1.9,1.4,3.1,3.4,3.1
			c1.5,0,2.6-0.6,3.2-1.3c0.4,0.8,1.2,1.2,2.1,1.2c0.5,0,1.1-0.1,1.4-0.4v-1.9C381,213.4,380.8,213.4,380.7,213.4 M362.9,215.4v-5.9
			c0.4-0.7,1.2-1.2,2.1-1.2c0.8,0,1.8,0.4,1.8,2v5.2h2.6v-5.7c0-2.3-1.2-3.8-3.4-3.8c-1.5,0-2.5,0.7-3.1,1.4v-1.1h-2.6v9.3H362.9z
			 M352.4,215.4h2.6V210c0.3-0.7,1.3-1.6,2.7-1.6c0.3,0,0.6,0,0.8,0.1v-2.6c-0.1,0-0.2,0-0.3,0c-1.5,0-2.7,0.9-3.2,1.8v-1.6h-2.6
			V215.4z M343.7,209.8c0.1-1.1,0.9-1.9,2.1-1.9c1.2,0,1.9,0.9,2,1.9H343.7z M346.3,215.6c1.4,0,2.8-0.4,3.5-1v-2.1
			c-0.8,0.5-1.9,0.8-3,0.8c-1.6,0-2.8-0.6-3.1-1.9h6.7v-0.7c0-2.6-1.6-4.9-4.4-4.9c-2.9,0-4.8,2.2-4.8,4.9
			C341.1,213.8,343.5,215.6,346.3,215.6 M334.7,213.4c-1.1,0-1.9-0.7-2.3-1.4v-2.4c0.4-0.7,1.2-1.4,2.3-1.4c1.5,0,2.5,1.1,2.5,2.6
			C337.2,212.2,336.1,213.4,334.7,213.4 M335.4,215.6c2.6,0,4.4-2.2,4.4-4.9c0-2.7-1.8-4.9-4.4-4.9c-1.6,0-2.5,0.7-3.1,1.4v-4.9
			h-2.6v13h2.6v-1.1C332.9,215,333.8,215.6,335.4,215.6 M322.6,215.6c3,0,5.2-2.2,5.2-4.9c0-2.7-2.1-4.9-5.2-4.9
			c-3.1,0-5.2,2.2-5.2,4.9C317.5,213.5,319.6,215.6,322.6,215.6 M322.6,213.4c-1.5,0-2.6-1.1-2.6-2.6c0-1.5,1.1-2.6,2.6-2.6
			c1.5,0,2.6,1.1,2.6,2.6C325.2,212.2,324.1,213.4,322.6,213.4 M310.2,215.7c2.3,0,4.3-1,5.3-2.1v-5.8h-2.7v4.5
			c-0.7,0.6-1.7,0.9-2.6,0.9c-2.3,0-4.2-1.6-4.2-4.2c0-2.6,1.8-4.3,4.5-4.3c1.3,0,2.5,0.3,3.7,1.1v-2.6c-1.1-0.6-2.2-1-3.9-1
			c-4.1,0-7,2.8-7,6.8C303.3,212.9,306.3,215.7,310.2,215.7 M289.2,219.2c1.7,0,2.9-1,3.7-2.9l4.3-10.3h-2.8l-2.3,6.1l-2.5-6.1h-2.8
			l4,9c-0.5,1.3-1.1,1.9-2.1,1.9c-0.5,0-1-0.1-1.4-0.4v2.3C287.8,219.1,288.5,219.2,289.2,219.2 M275.4,215.4h2.6V210
			c0.3-0.7,1.3-1.6,2.7-1.6c0.3,0,0.6,0,0.8,0.1v-2.6c-0.1,0-0.2,0-0.3,0c-1.5,0-2.7,0.9-3.2,1.8v-1.6h-2.6V215.4z M269.7,212.7
			c-0.4,0.6-1.2,1-2.1,1c-0.9,0-1.7-0.4-1.7-1.2c0-0.8,0.7-1.2,1.8-1.2c0.7,0,1.4,0.2,1.9,0.5V212.7z M273,213.4
			c-0.4,0-0.7-0.2-0.7-0.7v-3.1c0-2.3-1.8-3.7-4.4-3.7c-1.7,0-2.8,0.4-3.4,0.7v2.2c0.7-0.4,1.9-0.8,2.8-0.8c1.2,0,2.5,0.2,2.5,1.8
			v0.3c-0.6-0.3-1.4-0.6-2.7-0.6c-1.8,0-3.7,1-3.7,3.1c0,1.9,1.4,3.1,3.4,3.1c1.5,0,2.6-0.6,3.2-1.3c0.4,0.8,1.2,1.2,2.1,1.2
			c0.5,0,1.1-0.1,1.4-0.4v-1.9C273.4,213.4,273.2,213.4,273,213.4 M260.7,215.6c0.6,0,1.2-0.1,1.7-0.3v-2.2
			c-0.2,0.1-0.4,0.2-0.7,0.2c-0.5,0-0.8-0.3-0.8-0.9v-10h-2.6v10.7C258.2,215.1,259.4,215.6,260.7,215.6 M251.1,215.6
			c3,0,5.2-2.2,5.2-4.9c0-2.7-2.1-4.9-5.2-4.9c-3.1,0-5.2,2.2-5.2,4.9C246,213.5,248.1,215.6,251.1,215.6 M251.1,213.4
			c-1.5,0-2.6-1.1-2.6-2.6c0-1.5,1.1-2.6,2.6-2.6c1.5,0,2.6,1.1,2.6,2.6C253.7,212.2,252.6,213.4,251.1,213.4 M241.6,215.6
			c1.2,0,2-0.2,2.9-0.7v-2.2c-0.8,0.4-1.5,0.6-2.5,0.6c-1.6,0-2.9-1-2.9-2.6c0-1.6,1.3-2.6,2.9-2.6c0.9,0,1.6,0.2,2.4,0.6v-2.2
			c-0.9-0.4-1.6-0.6-2.8-0.6c-2.7,0-5.1,1.8-5.1,4.9C236.5,213.8,238.9,215.6,241.6,215.6 M231,215.6c2.5,0,4.2-1.2,4.2-2.9
			c0-1.7-1.1-2.5-3-2.9c-1.2-0.3-2.3-0.4-2.3-1.1c0-0.4,0.5-0.7,1.5-0.7c1.3,0,2.5,0.5,3.4,1v-2.2c-0.8-0.5-2.2-0.9-3.5-0.9
			c-2.6,0-4.1,1.1-4.1,2.9c0,1.7,1,2.4,3,2.9c1.4,0.4,2.4,0.5,2.4,1.1c0,0.5-0.6,0.8-1.6,0.8c-1.7,0-3.1-0.6-3.8-1.1v2.3
			C227.9,215.3,229.4,215.6,231,215.6 M218.9,209.8c0.1-1.1,0.9-1.9,2.1-1.9c1.2,0,1.9,0.9,2,1.9H218.9z M221.5,215.6
			c1.4,0,2.8-0.4,3.5-1v-2.1c-0.8,0.5-1.9,0.8-3,0.8c-1.6,0-2.8-0.6-3.1-1.9h6.7v-0.7c0-2.6-1.6-4.9-4.4-4.9c-2.9,0-4.8,2.2-4.8,4.9
			C216.3,213.8,218.6,215.6,221.5,215.6"/>
		<line fill="none" stroke="#FFFFFF" x1="201.4" y1="160.3" x2="201.4" y2="216.1"/>
	</g>
</g>
<g id="Capa_2" display="none">
</g>
</svg>
