<?xml version="1.0" encoding="utf-8"?>
<!-- Generator: Adobe Illustrator 18.0.0, SVG Export Plug-In . SVG Version: 6.00 Build 0)  -->
<!DOCTYPE svg PUBLIC "-//W3C//DTD SVG 1.1//EN" "http://www.w3.org/Graphics/SVG/1.1/DTD/svg11.dtd">
<svg version="1.1" xmlns="http://www.w3.org/2000/svg" xmlns:xlink="http://www.w3.org/1999/xlink" x="0px" y="0px"
	 viewBox="0 0 511.1 395.5" enable-background="new 0 0 511.1 395.5" xml:space="preserve">
<g id="Capa_1">
	<g>
		<g>
			<path fill="#0093A0" d="M112,86.7c13,0,21.8-6.3,21.8-16.2c0-7.6-5.2-12.4-15.3-15.4c-9.3-2.8-11.3-3.5-11.3-4.9
				c0-1.2,1.1-1.8,4.4-1.8c5.9,0,14.2,2.2,19,5V39.3c-4.3-2-10-4-17.9-4c-12.5,0-21.3,4.9-21.3,15.3c0,9,7.1,13.1,16.2,15.8
				c7.6,2.3,10.3,3.2,10.3,4.7c0,1.8-2.5,2.3-5.7,2.3c-6.5,0-16.2-3-20.8-6.9v14.8C97.8,85.4,104.8,86.7,112,86.7"/>
			<rect x="136.7" y="36.3" fill="#B8007C" width="15.2" height="49.4"/>
			<polygon fill="#DCDA1C" points="156.6,85.7 171.3,85.7 171.3,58 178.6,69.8 186.8,69.8 193.8,58 193.8,85.7 208.3,85.7 
				208.3,36.3 193.3,36.3 182.5,53.9 171.6,36.3 156.6,36.3 			"/>
			<path fill="#0099D9" d="M233.5,57.5H228v-8.8h5.5c3,0,5.2,1.8,5.2,4.4C238.7,55.7,236.5,57.5,233.5,57.5 M235.5,36.3h-22.7v49.4
				H228V68.5h7.6c11.5,0,18.7-6.9,18.7-16.1C254.2,43.1,247,36.3,235.5,36.3"/>
			<path fill="#0093A0" d="M280.8,86.7c15.5,0,26.4-11.8,26.4-25.7c0-14-10.9-25.7-26.4-25.7c-15.5,0-26.5,11.7-26.5,25.7
				C254.4,74.9,265.4,86.7,280.8,86.7 M280.8,72.9c-6.4,0-10.9-5-10.9-11.9s4.6-11.9,10.9-11.9s10.9,5,10.9,11.9
				S287.2,72.9,280.8,72.9"/>
			<path fill="#B8007C" d="M329.7,86.7c13,0,21.8-6.3,21.8-16.2c0-7.6-5.2-12.4-15.3-15.4c-9.3-2.8-11.3-3.5-11.3-4.9
				c0-1.2,1.1-1.8,4.4-1.8c5.9,0,14.2,2.2,19,5V39.3c-4.3-2-10-4-17.9-4c-12.5,0-21.3,4.9-21.3,15.3c0,9,7.1,13.1,16.2,15.8
				c7.6,2.3,10.3,3.2,10.3,4.7c0,1.8-2.5,2.3-5.7,2.3c-6.5,0-16.2-3-20.8-6.9v14.8C315.6,85.4,322.5,86.7,329.7,86.7"/>
			<rect x="354.4" y="36.3" fill="#DCDA1C" width="15.2" height="49.4"/>
			<path fill="#0099D9" d="M399.4,86.7c15.5,0,26.4-11.8,26.4-25.7c0-14-10.9-25.7-26.4-25.7c-15.5,0-26.5,11.7-26.5,25.7
				C372.9,74.9,383.9,86.7,399.4,86.7 M399.4,72.9c-6.4,0-10.9-5-10.9-11.9s4.6-11.9,10.9-11.9c6.4,0,10.9,5,10.9,11.9
				S405.7,72.9,399.4,72.9"/>
		</g>
		<g>
			<path fill="#B8007C" d="M144.1,31.3c4.3,0,7.8-3.5,7.8-7.8s-3.5-7.8-7.8-7.8c-4.3,0-7.8,3.5-7.8,7.8S139.7,31.3,144.1,31.3"/>
			<path fill="#DCDA1C" d="M362.2,31.3c4.3,0,7.8-3.5,7.8-7.8s-3.5-7.8-7.8-7.8c-4.3,0-7.8,3.5-7.8,7.8S357.9,31.3,362.2,31.3"/>
		</g>
		<path fill="#FFFFFF" d="M189.3,165.2h8.8l17-33.8v-6.4h-28.4v7.4h19L189.3,165.2z M171.9,165.2h8.1v-40.2h-7.2l-9.4,5.1v8.1
			l8.5-4.3V165.2z M142.1,158.2c-5.7,0-9.1-6.1-9.1-13.2c0-7,3.3-13.2,9.1-13.2c5.7,0,9,6.1,9,13.2
			C151.1,152.1,147.8,158.2,142.1,158.2 M142.1,166c11,0,17.3-10,17.3-20.9c0-10.9-6.3-20.9-17.3-20.9c-11.1,0-17.3,10-17.3,20.9
			C124.7,156,131,166,142.1,166 M90.6,165.2h28.6v-7.2h-16.8l6.9-6.3c6.2-5.7,8.5-9.4,8.5-15.2c0-7.6-6.8-12.3-14.2-12.3
			c-4.8,0-8.8,1.6-11.7,3.8v8.5c3-2.7,6.4-4.6,10.9-4.6c4.1,0,6.9,2.2,6.9,5.6c0,3.6-2,6.1-7.2,10.9l-11.8,10.7V165.2z"/>
		<path fill="#FFFFFF" d="M416,112.8c4.9,0,8.5-3.8,8.5-8.5c0-4.7-3.6-8.5-8.5-8.5c-4.9,0-8.5,3.8-8.5,8.5
			C407.6,109,411.1,112.8,416,112.8 M416,109.7c-2.9,0-5-2.3-5-5.3c0-3.1,2.2-5.3,5-5.3c2.9,0,5,2.3,5,5.3
			C421.1,107.4,418.9,109.7,416,109.7 M391.3,112.6h3.2l6.8-16.4h-3.6l-4.8,11.7l-4.8-11.7h-3.7L391.3,112.6z M372.9,112.5h3.3V96.2
			h-3.3V112.5z M350.8,96.2v3h5.1v13.3h3.4V99.2h5.2v-3H350.8z M335.2,105.9l2.4-5.7l2.4,5.7H335.2z M329.1,112.5h3.5l1.6-3.8h6.9
			l1.6,3.8h3.6l-7-16.4h-3.2L329.1,112.5z M317.2,112.8c1.7,0,3.4-0.4,4.6-1.2v-3.4c-1.3,1-2.8,1.4-4.5,1.4c-3.2,0-5.6-2.2-5.6-5.3
			c0-3.1,2.4-5.3,5.4-5.3c1.8,0,3.1,0.5,4.3,1.3v-3.4c-1.3-0.7-2.7-1-4.3-1c-5.1,0-8.8,3.5-8.8,8.5
			C308.4,109.3,312.2,112.8,317.2,112.8 M292.7,112.8c3.9,0,7-2.5,7-7.2v-9.5h-3.4v9.6c0,2.7-1.6,3.9-3.7,3.9c-2,0-3.6-1.2-3.6-3.9
			v-9.6h-3.3v9.5C285.8,110.3,288.8,112.8,292.7,112.8 M265.4,109.5V99.2h2.5c3.6,0,5.8,1.9,5.8,5.1c0,3.2-2.1,5.1-5.8,5.1H265.4z
			 M262.1,112.5h6.1c5.3,0,8.9-3.4,8.9-8.2c0-4.8-3.7-8.2-8.9-8.2h-6.1V112.5z M241.4,112.5h12.2v-3h-8.9v-4.2h6.9v-3h-6.9v-3.1h8.6
			v-3h-12V112.5z M212.5,112.8c4.9,0,8.5-3.8,8.5-8.5c0-4.7-3.6-8.5-8.5-8.5c-4.9,0-8.5,3.8-8.5,8.5
			C204,109,207.6,112.8,212.5,112.8 M212.5,109.7c-2.9,0-5-2.3-5-5.3c0-3.1,2.2-5.3,5-5.3c2.9,0,5,2.3,5,5.3
			C217.5,107.4,215.4,109.7,212.5,109.7 M185.8,112.5h11.6v-3h-8.3V96.2h-3.4V112.5z M165.1,112.5h12.2v-3h-8.9v-4.2h6.9v-3h-6.9
			v-3.1h8.6v-3h-12V112.5z M144.6,109.5V99.2h2.5c3.6,0,5.8,1.9,5.8,5.1c0,3.2-2.1,5.1-5.8,5.1H144.6z M141.2,112.5h6.1
			c5.3,0,8.9-3.4,8.9-8.2c0-4.8-3.7-8.2-8.9-8.2h-6.1V112.5z M123.9,112.8c4.9,0,8.5-3.8,8.5-8.5c0-4.7-3.6-8.5-8.5-8.5
			s-8.5,3.8-8.5,8.5C115.5,109,119,112.8,123.9,112.8 M123.9,109.7c-2.9,0-5-2.3-5-5.3c0-3.1,2.2-5.3,5-5.3s5,2.3,5,5.3
			C129,107.4,126.8,109.7,123.9,109.7 M90.5,112.5h3.4v-11.2l3.8,5.2h1.9l3.7-5.2v11.2h3.3V96.2h-3.3l-4.7,6.8l-4.7-6.8h-3.3V112.5z
			"/>
		<path fill="#B8007C" d="M402.4,133.1c-0.3,0.4-0.9,0.7-1.5,0.7c-0.7,0-1.2-0.3-1.2-0.9c0-0.6,0.5-0.9,1.3-0.9c0.5,0,1,0.1,1.4,0.4
			V133.1z M404.7,133.6c-0.3,0-0.5-0.2-0.5-0.5v-2.2c0-1.7-1.3-2.6-3.2-2.6c-1.2,0-2,0.3-2.5,0.5v1.6c0.5-0.3,1.3-0.6,2-0.6
			c0.9,0,1.8,0.2,1.8,1.2v0.2c-0.4-0.2-1-0.4-1.9-0.4c-1.3,0-2.6,0.7-2.6,2.2c0,1.4,1,2.2,2.4,2.2c1.1,0,1.8-0.4,2.3-0.9
			c0.3,0.6,0.8,0.9,1.5,0.9c0.4,0,0.8-0.1,1-0.3v-1.4C405,133.6,404.9,133.6,404.7,133.6 M386.1,135h1.9v-4.2
			c0.3-0.5,0.8-0.9,1.4-0.9c0.5,0,1.1,0.2,1.1,1.4v3.7h1.9v-4.2c0.2-0.5,0.8-0.9,1.4-0.9c0.5,0,1.1,0.2,1.1,1.4v3.7h1.9v-4.1
			c0-1.8-1-2.7-2.4-2.7c-1,0-1.9,0.5-2.3,1.1c-0.3-0.6-1-1.1-2.1-1.1c-0.9,0-1.6,0.5-2,1v-0.8h-1.9V135z M380.5,135h1.9v-3.9
			c0.2-0.5,1-1.2,1.9-1.2c0.2,0,0.4,0,0.6,0.1v-1.8c-0.1,0-0.1,0-0.2,0c-1,0-2,0.6-2.3,1.3v-1.1h-1.9V135z M375.4,135.2
			c2.2,0,3.7-1.5,3.7-3.5c0-1.9-1.5-3.5-3.7-3.5c-2.2,0-3.7,1.6-3.7,3.5C371.8,133.7,373.3,135.2,375.4,135.2 M375.4,133.6
			c-1.1,0-1.8-0.8-1.8-1.9c0-1,0.8-1.8,1.8-1.8c1.1,0,1.8,0.8,1.8,1.8C377.3,132.8,376.5,133.6,375.4,133.6 M369.1,135V130h2.1v-1.6
			h-2.1V128c0-0.6,0.3-0.9,0.9-0.9c0.5,0,0.8,0.1,1.1,0.2v-1.5c-0.5-0.2-1-0.3-1.7-0.3c-1.5,0-2.2,1-2.2,2.2v0.6H366v1.6h1.2v5.1
			H369.1z M360.5,131c0.1-0.8,0.6-1.3,1.5-1.3c0.9,0,1.4,0.6,1.4,1.3H360.5z M362.3,135.2c1,0,2-0.3,2.5-0.7V133
			c-0.6,0.3-1.3,0.6-2.1,0.6c-1.1,0-2-0.4-2.2-1.4h4.8v-0.5c0-1.9-1.2-3.5-3.2-3.5c-2.1,0-3.5,1.6-3.5,3.5
			C358.6,133.9,360.3,135.2,362.3,135.2 M351.7,129.7v-2.3h2.3c0.9,0,1.4,0.4,1.4,1.1c0,0.7-0.5,1.1-1.4,1.1H351.7z M349.8,135h1.9
			v-3.8h1.6l2.7,3.8h2.2l-2.9-4c1.2-0.4,1.9-1.4,1.9-2.6c0-1.6-1.2-2.8-3.2-2.8h-4.3V135z M342.3,133.1c-0.3,0.4-0.9,0.7-1.5,0.7
			c-0.7,0-1.2-0.3-1.2-0.9c0-0.6,0.5-0.9,1.3-0.9c0.5,0,1,0.1,1.4,0.4V133.1z M344.6,133.6c-0.3,0-0.5-0.2-0.5-0.5v-2.2
			c0-1.7-1.3-2.6-3.2-2.6c-1.2,0-2,0.3-2.5,0.5v1.6c0.5-0.3,1.3-0.6,2-0.6c0.9,0,1.8,0.2,1.8,1.2v0.2c-0.4-0.2-1-0.4-1.9-0.4
			c-1.3,0-2.6,0.7-2.6,2.2c0,1.4,1,2.2,2.4,2.2c1.1,0,1.8-0.4,2.3-0.9c0.3,0.6,0.8,0.9,1.5,0.9c0.4,0,0.8-0.1,1-0.3v-1.4
			C344.9,133.6,344.7,133.6,344.6,133.6 M335.8,135.2c0.4,0,0.9-0.1,1.2-0.2v-1.5c-0.1,0.1-0.3,0.1-0.5,0.1c-0.3,0-0.6-0.2-0.6-0.7
			v-7.1H334v7.6C334,134.8,334.9,135.2,335.8,135.2 M324.5,131c0.1-0.8,0.6-1.3,1.5-1.3c0.9,0,1.4,0.6,1.4,1.3H324.5z M326.3,135.2
			c1,0,2-0.3,2.5-0.7V133c-0.6,0.3-1.3,0.6-2.1,0.6c-1.1,0-2-0.4-2.2-1.4h4.8v-0.5c0-1.9-1.2-3.5-3.2-3.5c-2.1,0-3.5,1.6-3.5,3.5
			C322.6,133.9,324.3,135.2,326.3,135.2 M320.6,135.2c0.4,0,0.9-0.1,1.2-0.2v-1.5c-0.1,0.1-0.3,0.1-0.5,0.1c-0.3,0-0.6-0.2-0.6-0.7
			v-7.1h-1.9v7.6C318.8,134.8,319.7,135.2,320.6,135.2 M313.8,133.6c-0.8,0-1.4-0.5-1.6-1v-1.7c0.3-0.5,0.9-1,1.6-1
			c1,0,1.8,0.8,1.8,1.8C315.6,132.8,314.8,133.6,313.8,133.6 M314.3,135.2c1.8,0,3.1-1.5,3.1-3.5c0-1.9-1.3-3.5-3.1-3.5
			c-1.1,0-1.8,0.5-2.2,1v-3.5h-1.9v9.3h1.9v-0.8C312.5,134.7,313.2,135.2,314.3,135.2 M307.4,127.8c0.6,0,1.1-0.5,1.1-1.1
			c0-0.6-0.5-1.1-1.1-1.1c-0.6,0-1.1,0.5-1.1,1.1C306.3,127.3,306.8,127.8,307.4,127.8 M306.4,135h1.9v-6.6h-1.9V135z M302,135.2
			c1.8,0,3-0.9,3-2.1c0-1.2-0.8-1.8-2.2-2.1c-0.8-0.2-1.6-0.3-1.6-0.8c0-0.3,0.3-0.5,1.1-0.5c0.9,0,1.8,0.3,2.4,0.7v-1.6
			c-0.6-0.4-1.6-0.6-2.5-0.6c-1.8,0-2.9,0.8-2.9,2c0,1.2,0.7,1.7,2.2,2.1c1,0.3,1.7,0.3,1.7,0.8c0,0.4-0.4,0.6-1.1,0.6
			c-1.2,0-2.2-0.4-2.7-0.8v1.7C299.8,134.9,300.9,135.2,302,135.2 M294.5,135.2c2.2,0,3.7-1.5,3.7-3.5c0-1.9-1.5-3.5-3.7-3.5
			c-2.2,0-3.7,1.6-3.7,3.5C290.8,133.7,292.3,135.2,294.5,135.2 M294.5,133.6c-1.1,0-1.8-0.8-1.8-1.9c0-1,0.8-1.8,1.8-1.8
			c1.1,0,1.8,0.8,1.8,1.8C296.3,132.8,295.5,133.6,294.5,133.6 M286.2,129.9c1,0,1.8,0.8,1.8,1.9c0,1-0.7,1.8-1.8,1.8
			c-0.8,0-1.4-0.5-1.6-1v-1.7C284.8,130.3,285.4,129.9,286.2,129.9 M286.7,128.2c-1.1,0-1.8,0.5-2.2,1v-0.8h-1.9v9.3h1.9v-3.5
			c0.4,0.5,1.1,1,2.2,1c1.8,0,3.1-1.5,3.1-3.5C289.9,129.8,288.6,128.2,286.7,128.2 M273.7,135h1.9v-3.9c0.2-0.5,1-1.2,1.9-1.2
			c0.2,0,0.4,0,0.6,0.1v-1.8c-0.1,0-0.1,0-0.2,0c-1,0-2,0.6-2.3,1.3v-1.1h-1.9V135z M267.5,131c0.1-0.8,0.6-1.3,1.5-1.3
			c0.9,0,1.4,0.6,1.4,1.3H267.5z M269.3,135.2c1,0,2-0.3,2.5-0.7V133c-0.6,0.3-1.3,0.6-2.1,0.6c-1.1,0-2-0.4-2.2-1.4h4.8v-0.5
			c0-1.9-1.2-3.5-3.2-3.5c-2.1,0-3.5,1.6-3.5,3.5C265.6,133.9,267.3,135.2,269.3,135.2 M262.5,135.2c0.9,0,1.4-0.1,2.1-0.5v-1.6
			c-0.6,0.3-1.1,0.5-1.8,0.5c-1.1,0-2.1-0.7-2.1-1.9c0-1.1,0.9-1.8,2.1-1.8c0.6,0,1.1,0.1,1.7,0.4v-1.6c-0.6-0.3-1.2-0.4-2-0.4
			c-1.9,0-3.6,1.3-3.6,3.5C258.9,133.9,260.6,135.2,262.5,135.2 M255.3,133.1c-0.3,0.4-0.9,0.7-1.5,0.7c-0.7,0-1.2-0.3-1.2-0.9
			c0-0.6,0.5-0.9,1.3-0.9c0.5,0,1,0.1,1.4,0.4V133.1z M257.6,133.6c-0.3,0-0.5-0.2-0.5-0.5v-2.2c0-1.7-1.3-2.6-3.2-2.6
			c-1.2,0-2,0.3-2.5,0.5v1.6c0.5-0.3,1.3-0.6,2-0.6c0.9,0,1.8,0.2,1.8,1.2v0.2c-0.4-0.2-1-0.4-1.9-0.4c-1.3,0-2.6,0.7-2.6,2.2
			c0,1.4,1,2.2,2.4,2.2c1.1,0,1.8-0.4,2.3-0.9c0.3,0.6,0.8,0.9,1.5,0.9c0.4,0,0.8-0.1,1-0.3v-1.4
			C257.9,133.6,257.8,133.6,257.6,133.6 M241.4,135h1.9v-4.1h4.2v4.1h1.9v-9.3h-1.9v3.5h-4.2v-3.5h-1.9V135z"/>
		<path fill="#B8007C" d="M305.2,149.7c0.6,0,1.2-0.5,1.2-1.2c0-0.6-0.5-1.1-1.2-1.1c-0.7,0-1.2,0.5-1.2,1.1
			C304.1,149.2,304.6,149.7,305.2,149.7 M305.2,145.3c0.6,0,1.2-0.5,1.2-1.2c0-0.6-0.5-1.1-1.2-1.1c-0.7,0-1.2,0.5-1.2,1.1
			C304.1,144.8,304.6,145.3,305.2,145.3 M298.8,149.5h1.9v-3.9c0.2-0.5,1-1.2,1.9-1.2c0.2,0,0.4,0,0.6,0.1v-1.8c-0.1,0-0.1,0-0.2,0
			c-1,0-2,0.6-2.3,1.3v-1.1h-1.9V149.5z M294.8,147.6c-0.3,0.4-0.9,0.7-1.5,0.7c-0.7,0-1.2-0.3-1.2-0.9c0-0.6,0.5-0.9,1.3-0.9
			c0.5,0,1,0.1,1.4,0.4V147.6z M297.1,148.1c-0.3,0-0.5-0.2-0.5-0.5v-2.2c0-1.7-1.3-2.6-3.2-2.6c-1.2,0-2,0.3-2.5,0.5v1.6
			c0.5-0.3,1.3-0.6,2-0.6c0.9,0,1.8,0.2,1.8,1.2v0.2c-0.4-0.2-1-0.4-1.9-0.4c-1.3,0-2.6,0.7-2.6,2.2c0,1.4,1,2.2,2.4,2.2
			c1.1,0,1.8-0.4,2.3-0.9c0.3,0.6,0.8,0.9,1.5,0.9c0.4,0,0.8-0.1,1-0.3V148C297.4,148.1,297.2,148.1,297.1,148.1 M288.3,149.7
			c0.4,0,0.9-0.1,1.2-0.2v-1.5c-0.1,0.1-0.3,0.1-0.5,0.1c-0.3,0-0.6-0.2-0.6-0.7v-7.1h-1.9v7.6C286.6,149.3,287.4,149.7,288.3,149.7
			 M282.8,142.9v4.2c-0.3,0.5-0.9,0.9-1.5,0.9c-0.6,0-1.3-0.3-1.3-1.4v-3.7h-1.9v4.1c0,1.7,0.9,2.7,2.4,2.7c1,0,1.8-0.5,2.2-1v0.8
			h1.9v-6.6H282.8z M274.6,149.7c0.9,0,1.4-0.1,2.1-0.5v-1.6c-0.6,0.3-1.1,0.5-1.8,0.5c-1.1,0-2.1-0.7-2.1-1.9
			c0-1.1,0.9-1.8,2.1-1.8c0.6,0,1.1,0.1,1.7,0.4v-1.6c-0.6-0.3-1.2-0.4-2-0.4c-1.9,0-3.6,1.3-3.6,3.5
			C271,148.4,272.8,149.7,274.6,149.7 M268.6,142.3c0.6,0,1.1-0.5,1.1-1.1c0-0.6-0.5-1.1-1.1-1.1c-0.6,0-1.1,0.5-1.1,1.1
			C267.5,141.8,268,142.3,268.6,142.3 M267.7,149.5h1.9v-6.6h-1.9V149.5z M262,149.5h1.9v-3.9c0.2-0.5,1-1.2,1.9-1.2
			c0.2,0,0.4,0,0.6,0.1v-1.8c-0.1,0-0.1,0-0.2,0c-1,0-2,0.6-2.3,1.3v-1.1H262V149.5z M256.3,149.5h1.9v-3.9c0.2-0.5,1-1.2,1.9-1.2
			c0.2,0,0.4,0,0.6,0.1v-1.8c-0.1,0-0.1,0-0.2,0c-1,0-2,0.6-2.3,1.3v-1.1h-1.9V149.5z M252.6,142.9v4.2c-0.3,0.5-0.9,0.9-1.5,0.9
			c-0.6,0-1.3-0.3-1.3-1.4v-3.7H248v4.1c0,1.7,0.9,2.7,2.4,2.7c1,0,1.8-0.5,2.2-1v0.8h1.9v-6.6H252.6z M244.4,149.7
			c0.9,0,1.4-0.1,2.1-0.5v-1.6c-0.6,0.3-1.1,0.5-1.8,0.5c-1.1,0-2.1-0.7-2.1-1.9c0-1.1,0.9-1.8,2.1-1.8c0.6,0,1.1,0.1,1.7,0.4v-1.6
			c-0.6-0.3-1.2-0.4-2-0.4c-1.9,0-3.6,1.3-3.6,3.5C240.8,148.4,242.5,149.7,244.4,149.7"/>
		<path fill="#FFFFFF" d="M428.3,149.5v-4.2c0.3-0.5,0.9-0.9,1.5-0.9c0.6,0,1.3,0.3,1.3,1.4v3.7h1.9v-4.1c0-1.7-0.9-2.7-2.4-2.7
			c-1,0-1.8,0.5-2.2,1v-0.8h-1.9v6.6H428.3z M420.4,142h1.6l1.9-1.9h-2.3L420.4,142z M421.4,149.7c2.2,0,3.7-1.5,3.7-3.5
			c0-1.9-1.5-3.5-3.7-3.5c-2.2,0-3.7,1.6-3.7,3.5C417.7,148.2,419.2,149.7,421.4,149.7 M421.4,148.1c-1.1,0-1.8-0.8-1.8-1.9
			c0-1,0.8-1.8,1.8-1.8c1.1,0,1.8,0.8,1.8,1.8C423.2,147.3,422.4,148.1,421.4,148.1 M415.3,142.3c0.6,0,1.1-0.5,1.1-1.1
			c0-0.6-0.5-1.1-1.1-1.1c-0.6,0-1.1,0.5-1.1,1.1C414.2,141.8,414.6,142.3,415.3,142.3 M414.3,149.5h1.9v-6.6h-1.9V149.5z
			 M409,147.5c0,1.4,0.7,2.2,2.2,2.2c0.6,0,1.2-0.1,1.6-0.4v-1.6c-0.3,0.1-0.6,0.2-1,0.2c-0.6,0-0.9-0.3-0.9-0.9v-2.6h1.9v-1.6h-1.9
			v-1.8H409v1.8h-1.3v1.6h1.3V147.5z M404,149.7c1.8,0,3-0.9,3-2.1c0-1.2-0.8-1.8-2.2-2.1c-0.8-0.2-1.6-0.3-1.6-0.8
			c0-0.3,0.3-0.5,1.1-0.5c0.9,0,1.8,0.3,2.4,0.7v-1.6c-0.6-0.4-1.6-0.6-2.5-0.6c-1.8,0-2.9,0.8-2.9,2c0,1.2,0.7,1.7,2.2,2.1
			c1,0.3,1.7,0.3,1.7,0.8c0,0.4-0.4,0.6-1.1,0.6c-1.2,0-2.2-0.4-2.7-0.8v1.7C401.8,149.4,402.9,149.7,404,149.7 M395.4,145.5
			c0.1-0.8,0.6-1.3,1.5-1.3c0.9,0,1.4,0.6,1.4,1.3H395.4z M397.2,149.7c1,0,2-0.3,2.5-0.7v-1.5c-0.6,0.3-1.3,0.6-2.1,0.6
			c-1.1,0-2-0.4-2.2-1.4h4.8v-0.5c0-1.9-1.2-3.5-3.2-3.5c-2.1,0-3.5,1.6-3.5,3.5C393.5,148.4,395.2,149.7,397.2,149.7 M388.4,149.7
			c1.7,0,3.1-0.7,3.8-1.5v-4.1h-1.9v3.2c-0.5,0.5-1.2,0.6-1.9,0.6c-1.6,0-3-1.1-3-3c0-1.9,1.3-3.1,3.2-3.1c0.9,0,1.8,0.2,2.7,0.8
			v-1.9c-0.8-0.5-1.6-0.7-2.8-0.7c-2.9,0-5,2-5,4.8C383.4,147.7,385.6,149.7,388.4,149.7 M375.7,151.5h1.5l1.6-4h-2L375.7,151.5z
			 M371.7,149.7c2.2,0,3.7-1.5,3.7-3.5c0-1.9-1.5-3.5-3.7-3.5c-2.2,0-3.7,1.6-3.7,3.5C368,148.2,369.5,149.7,371.7,149.7
			 M371.7,148.1c-1.1,0-1.8-0.8-1.8-1.9c0-1,0.8-1.8,1.8-1.8c1.1,0,1.8,0.8,1.8,1.8C373.6,147.3,372.8,148.1,371.7,148.1
			 M363.2,147.8c-1,0-1.8-0.7-1.8-1.7c0-1,0.7-1.7,1.8-1.7c0.8,0,1.4,0.4,1.6,0.9v1.6C364.6,147.3,363.9,147.8,363.2,147.8
			 M364.8,142.9v0.8c-0.4-0.5-1.1-0.9-2.2-0.9c-1.8,0-3.1,1.5-3.1,3.3c0,1.9,1.2,3.3,3.1,3.3c1.1,0,1.8-0.5,2.2-0.9v0.4
			c0,1.4-1.1,1.8-2.2,1.8c-0.9,0-1.7-0.2-2.4-0.6v1.7c0.6,0.3,1.6,0.6,2.6,0.6c1.9,0,3.8-1.1,3.8-3.5v-5.9H364.8z M352.5,149.5h6.1
			V148h-3.6l3.4-3.8v-1.3h-5.7v1.6h3.1l-3.3,3.8V149.5z M349,147.6c-0.3,0.4-0.9,0.7-1.5,0.7c-0.7,0-1.2-0.3-1.2-0.9
			c0-0.6,0.5-0.9,1.3-0.9c0.5,0,1,0.1,1.4,0.4V147.6z M351.3,148.1c-0.3,0-0.5-0.2-0.5-0.5v-2.2c0-1.7-1.3-2.6-3.2-2.6
			c-1.2,0-2,0.3-2.5,0.5v1.6c0.5-0.3,1.3-0.6,2-0.6c0.9,0,1.8,0.2,1.8,1.2v0.2c-0.4-0.2-1-0.4-1.9-0.4c-1.3,0-2.6,0.7-2.6,2.2
			c0,1.4,1,2.2,2.4,2.2c1.1,0,1.8-0.4,2.3-0.9c0.3,0.6,0.8,0.9,1.5,0.9c0.4,0,0.8-0.1,1-0.3V148
			C351.6,148.1,351.4,148.1,351.3,148.1 M339.4,149.5h1.9v-3.9c0.2-0.5,1-1.2,1.9-1.2c0.2,0,0.4,0,0.6,0.1v-1.8c-0.1,0-0.1,0-0.2,0
			c-1,0-2,0.6-2.3,1.3v-1.1h-1.9V149.5z M333.2,145.5c0.1-0.8,0.6-1.3,1.5-1.3c0.9,0,1.4,0.6,1.4,1.3H333.2z M335,149.7
			c1,0,2-0.3,2.5-0.7v-1.5c-0.6,0.3-1.3,0.6-2.1,0.6c-1.1,0-2-0.4-2.2-1.4h4.8v-0.5c0-1.9-1.2-3.5-3.2-3.5c-2.1,0-3.5,1.6-3.5,3.5
			C331.3,148.4,333,149.7,335,149.7 M326.4,148.1c-1,0-1.8-0.8-1.8-1.9c0-1,0.7-1.8,1.8-1.8c0.8,0,1.4,0.5,1.6,1v1.7
			C327.8,147.6,327.2,148.1,326.4,148.1 M325.9,149.7c1.1,0,1.8-0.5,2.2-1v0.8h1.9v-9.3h-1.9v3.5c-0.4-0.5-1.1-1-2.2-1
			c-1.8,0-3.1,1.5-3.1,3.5C322.8,148.2,324.1,149.7,325.9,149.7 M320.3,142.3c0.6,0,1.1-0.5,1.1-1.1c0-0.6-0.5-1.1-1.1-1.1
			c-0.6,0-1.1,0.5-1.1,1.1C319.2,141.8,319.7,142.3,320.3,142.3 M319.4,149.5h1.9v-6.6h-1.9V149.5z M311.4,149.5h6.6v-1.7h-4.7v-7.6
			h-1.9V149.5z"/>
		<path fill="#FFFFFF" d="M378.9,162.1c-0.3,0.4-0.9,0.7-1.5,0.7c-0.7,0-1.2-0.3-1.2-0.9c0-0.6,0.5-0.9,1.3-0.9c0.5,0,1,0.1,1.4,0.4
			V162.1z M381.2,162.6c-0.3,0-0.5-0.2-0.5-0.5v-2.2c0-1.7-1.3-2.6-3.2-2.6c-1.2,0-2,0.3-2.5,0.5v1.6c0.5-0.3,1.3-0.6,2-0.6
			c0.9,0,1.8,0.2,1.8,1.2v0.2c-0.4-0.2-1-0.4-1.9-0.4c-1.3,0-2.6,0.7-2.6,2.2c0,1.4,1,2.2,2.4,2.2c1.1,0,1.8-0.4,2.3-0.9
			c0.3,0.6,0.8,0.9,1.5,0.9c0.4,0,0.8-0.1,1-0.3v-1.4C381.5,162.6,381.3,162.6,381.2,162.6 M367.4,164h6.1v-1.6H370l3.4-3.8v-1.3
			h-5.7v1.6h3.1l-3.3,3.8V164z M361.6,164v-4.2c0.3-0.5,0.9-0.9,1.5-0.9c0.6,0,1.3,0.3,1.3,1.4v3.7h1.9V160c0-1.7-0.9-2.7-2.4-2.7
			c-1,0-1.8,0.5-2.2,1v-0.8h-1.9v6.6H361.6z M355.7,162.1c-0.3,0.4-0.9,0.7-1.5,0.7c-0.7,0-1.2-0.3-1.2-0.9c0-0.6,0.5-0.9,1.3-0.9
			c0.5,0,1,0.1,1.4,0.4V162.1z M358,162.6c-0.3,0-0.5-0.2-0.5-0.5v-2.2c0-1.7-1.3-2.6-3.2-2.6c-1.2,0-2,0.3-2.5,0.5v1.6
			c0.5-0.3,1.3-0.6,2-0.6c0.9,0,1.8,0.2,1.8,1.2v0.2c-0.4-0.2-1-0.4-1.9-0.4c-1.3,0-2.6,0.7-2.6,2.2c0,1.4,1,2.2,2.4,2.2
			c1.1,0,1.8-0.4,2.3-0.9c0.3,0.6,0.8,0.9,1.5,0.9c0.4,0,0.8-0.1,1-0.3v-1.4C358.3,162.6,358.1,162.6,358,162.6 M345.3,164v-4.2
			c0.3-0.5,0.9-0.9,1.5-0.9c0.6,0,1.3,0.3,1.3,1.4v3.7h1.9V160c0-1.7-0.9-2.7-2.4-2.7c-1,0-1.8,0.5-2.2,1v-0.8h-1.9v6.6H345.3z
			 M337.8,164h1.9v-3.9c0.2-0.5,1-1.2,1.9-1.2c0.2,0,0.4,0,0.6,0.1v-1.8c-0.1,0-0.1,0-0.2,0c-1,0-2,0.6-2.3,1.3v-1.1h-1.9V164z
			 M331.7,160c0.1-0.8,0.6-1.3,1.5-1.3c0.9,0,1.4,0.6,1.4,1.3H331.7z M333.5,164.2c1,0,2-0.3,2.5-0.7V162c-0.6,0.3-1.3,0.6-2.1,0.6
			c-1.1,0-2-0.4-2.2-1.4h4.8v-0.5c0-1.9-1.2-3.5-3.2-3.5c-2.1,0-3.5,1.6-3.5,3.5C329.8,162.9,331.5,164.2,333.5,164.2 M325.2,162.6
			c-0.8,0-1.4-0.5-1.6-1v-1.7c0.3-0.5,0.9-1,1.6-1c1,0,1.8,0.8,1.8,1.8C327,161.8,326.2,162.6,325.2,162.6 M325.7,164.2
			c1.8,0,3.1-1.5,3.1-3.5c0-1.9-1.3-3.5-3.1-3.5c-1.1,0-1.8,0.5-2.2,1v-3.5h-1.9v9.3h1.9v-0.8C323.9,163.7,324.6,164.2,325.7,164.2
			 M316.6,164.2c2.2,0,3.7-1.5,3.7-3.5c0-1.9-1.5-3.5-3.7-3.5c-2.2,0-3.7,1.6-3.7,3.5C312.9,162.7,314.4,164.2,316.6,164.2
			 M316.6,162.6c-1.1,0-1.8-0.8-1.8-1.9c0-1,0.8-1.8,1.8-1.8s1.8,0.8,1.8,1.8C318.4,161.8,317.7,162.6,316.6,162.6 M307.8,164.2
			c1.7,0,3.1-0.7,3.8-1.5v-4.1h-1.9v3.2c-0.5,0.5-1.2,0.6-1.9,0.6c-1.6,0-3-1.1-3-3c0-1.9,1.3-3.1,3.2-3.1c0.9,0,1.8,0.2,2.7,0.8
			v-1.9c-0.8-0.5-1.6-0.7-2.8-0.7c-2.9,0-5,2-5,4.8S305,164.2,307.8,164.2 M292.8,166.8c1.2,0,2.1-0.7,2.6-2l3.1-7.3h-2l-1.7,4.4
			l-1.8-4.4h-2l2.9,6.4c-0.4,0.9-0.8,1.3-1.5,1.3c-0.4,0-0.7-0.1-1-0.3v1.6C291.8,166.6,292.3,166.8,292.8,166.8 M282.9,164h1.9
			v-3.9c0.2-0.5,1-1.2,1.9-1.2c0.2,0,0.4,0,0.6,0.1v-1.8c-0.1,0-0.1,0-0.2,0c-1,0-2,0.6-2.3,1.3v-1.1h-1.9V164z M278.9,162.1
			c-0.3,0.4-0.9,0.7-1.5,0.7c-0.7,0-1.2-0.3-1.2-0.9c0-0.6,0.5-0.9,1.3-0.9c0.5,0,1,0.1,1.4,0.4V162.1z M281.2,162.6
			c-0.3,0-0.5-0.2-0.5-0.5v-2.2c0-1.7-1.3-2.6-3.2-2.6c-1.2,0-2,0.3-2.5,0.5v1.6c0.5-0.3,1.3-0.6,2-0.6c0.9,0,1.8,0.2,1.8,1.2v0.2
			c-0.4-0.2-1-0.4-1.9-0.4c-1.3,0-2.6,0.7-2.6,2.2c0,1.4,1,2.2,2.4,2.2c1.1,0,1.8-0.4,2.3-0.9c0.3,0.6,0.8,0.9,1.5,0.9
			c0.4,0,0.8-0.1,1-0.3v-1.4C281.5,162.6,281.4,162.6,281.2,162.6 M272.5,164.2c0.4,0,0.9-0.1,1.2-0.2v-1.5
			c-0.1,0.1-0.3,0.1-0.5,0.1c-0.3,0-0.6-0.2-0.6-0.7v-7.1h-1.9v7.6C270.7,163.8,271.6,164.2,272.5,164.2 M265.6,164.2
			c2.2,0,3.7-1.5,3.7-3.5c0-1.9-1.5-3.5-3.7-3.5c-2.2,0-3.7,1.6-3.7,3.5C262,162.7,263.5,164.2,265.6,164.2 M265.6,162.6
			c-1.1,0-1.8-0.8-1.8-1.9c0-1,0.8-1.8,1.8-1.8s1.8,0.8,1.8,1.8C267.5,161.8,266.7,162.6,265.6,162.6 M258.8,164.2
			c0.9,0,1.4-0.1,2.1-0.5v-1.6c-0.6,0.3-1.1,0.5-1.8,0.5c-1.1,0-2.1-0.7-2.1-1.9c0-1.1,0.9-1.8,2.1-1.8c0.6,0,1.1,0.1,1.7,0.4v-1.6
			c-0.6-0.3-1.2-0.4-2-0.4c-1.9,0-3.6,1.3-3.6,3.5C255.2,162.9,257,164.2,258.8,164.2 M251.3,164.2c1.8,0,3-0.9,3-2.1
			c0-1.2-0.8-1.8-2.2-2.1c-0.8-0.2-1.6-0.3-1.6-0.8c0-0.3,0.3-0.5,1.1-0.5c0.9,0,1.8,0.3,2.4,0.7v-1.6c-0.6-0.4-1.6-0.6-2.5-0.6
			c-1.8,0-2.9,0.8-2.9,2c0,1.2,0.7,1.7,2.2,2.1c1,0.3,1.7,0.3,1.7,0.8c0,0.4-0.4,0.6-1.1,0.6c-1.2,0-2.2-0.4-2.7-0.8v1.7
			C249.1,163.9,250.2,164.2,251.3,164.2 M242.7,160c0.1-0.8,0.6-1.3,1.5-1.3c0.9,0,1.4,0.6,1.4,1.3H242.7z M244.5,164.2
			c1,0,2-0.3,2.5-0.7V162c-0.6,0.3-1.3,0.6-2.1,0.6c-1.1,0-2-0.4-2.2-1.4h4.8v-0.5c0-1.9-1.2-3.5-3.2-3.5c-2.1,0-3.5,1.6-3.5,3.5
			C240.8,162.9,242.5,164.2,244.5,164.2"/>
		<line fill="none" stroke="#FFFFFF" x1="230.2" y1="124.7" x2="230.2" y2="164.5"/>
	</g>
	<g>
		<path fill="#00AFEE" d="M63.1,220.6h-2.7V218c-1.3,2-3.6,3-5.9,3c-4.9,0-8.9-4-8.9-8.9c0-2.3,0.8-4.5,2.4-6.2
			c1.7-1.7,4-2.8,6.4-2.8c2.1,0,3.8,0.7,5.4,2v-1.6h2.7v5h-3.5c-0.6-0.7-1.2-1.3-1.9-1.7c-0.7-0.4-1.6-0.6-2.5-0.6
			c-3.2,0-5.6,2.5-5.6,5.7c0,3.1,2.4,5.7,5.6,5.7c2.3,0,4.2-1.2,5-3.4h-6.3v-2.8h9.9V220.6z"/>
		<path fill="#00AFEE" d="M68.5,210c0.7-1.5,2.2-2.3,3.8-2.3v3c-0.9,0-1.8,0.3-2.5,0.9c-1,0.8-1.1,1.8-1.1,3v3.2h1.7v2.7h-6.2v-2.7
			h1.7v-7.3h-1.7v-2.7h4.4V210z"/>
		<path fill="#00AFEE" d="M83.8,218.9c-0.9,1.4-2.4,2.1-4.1,2.1c-3.7,0-6.6-3-6.6-6.7c0-3.7,3-6.8,6.7-6.8c1.7,0,3.1,0.8,4,2.2v-1.8
			h4.6v2.7h-1.6v7.3h1.6v2.7h-4.6V218.9z M83.9,214.2c0-2.1-1.7-3.8-3.9-3.8c-2.2,0-3.9,1.8-3.9,4c0,2.1,1.7,3.8,3.8,3.8
			C82.2,218.1,83.9,216.3,83.9,214.2z"/>
		<path fill="#00AFEE" d="M102.1,216.3c-0.8,2.7-3.5,4.6-6.3,4.6c-3.7,0-6.8-3-6.8-6.7c0-3.5,2.8-6.8,6.4-6.8c1.4,0,2.7,0.6,3.7,1.6
			v-1.2h2.5v4.3h-2.7c-0.4-0.5-0.8-1-1.4-1.3c-0.6-0.3-1.2-0.5-1.8-0.5c-2.2,0-3.8,1.7-3.8,3.9c0,2.2,1.7,3.9,3.9,3.9
			c1.2,0,2.5-0.6,3.1-1.8H102.1z"/>
		<path fill="#00AFEE" d="M107.6,217.9h1.7v2.7H103v-2.7h1.7v-7.3H103v-2.7h4.6V217.9z M107.6,206.6h-2.9v-3.1h2.9V206.6z"/>
		<path fill="#00AFEE" d="M120.7,218.9c-0.9,1.4-2.4,2.1-4.1,2.1c-3.7,0-6.6-3-6.6-6.7c0-3.7,3-6.8,6.7-6.8c1.7,0,3.1,0.8,4,2.2
			v-1.8h4.6v2.7h-1.6v7.3h1.6v2.7h-4.6V218.9z M120.8,214.2c0-2.1-1.7-3.8-3.9-3.8c-2.2,0-3.9,1.8-3.9,4c0,2.1,1.7,3.8,3.8,3.8
			C119.1,218.1,120.8,216.3,120.8,214.2z"/>
		<path fill="#00AFEE" d="M129.1,216.9c0.1,1.1,0.9,1.9,2.1,1.9c0.9,0,1.7-0.6,1.7-1.6c0-1.3-1.2-1.5-2.2-1.7
			c-2.2-0.6-4.7-1.3-4.7-4.1c0-2.4,2.1-3.9,4.3-3.9c1.1,0,2.2,0.2,2.9,1.1v-0.9h2.2v3.5h-2.8c0-0.9-0.7-1.5-1.7-1.5
			c-0.8,0-1.6,0.5-1.6,1.3c0,1.2,1.2,1.5,2.1,1.7c2.3,0.5,4.8,1.2,4.8,4.1c0,2.6-2.2,4-4.6,4c-1.3,0-2.5-0.4-3.3-1.4v1.1h-2.2v-3.7
			H129.1z"/>
		<path fill="#00AFEE" d="M145.8,210.6h-1.6v-2.7h4.6v2c0.9-1.5,2.5-2.2,4.2-2.2c3.6,0,6.5,3,6.5,6.6c0,3.5-2.8,6.5-6.4,6.5
			c-1.7,0-3.3-0.6-4.3-2v3.7h1.7v2.7h-6.2v-2.7h1.6V210.6z M156.4,214.3c0-2.1-1.7-3.9-3.8-3.9c-2.2,0-3.9,1.7-3.9,3.9
			c0,2.1,1.7,3.9,3.9,3.9C154.7,218.1,156.4,216.4,156.4,214.3z"/>
		<path fill="#00AFEE" d="M159.8,214.2c0-3.7,3-6.7,6.8-6.7c3.7,0,6.7,3.1,6.7,6.7c0,3.7-3,6.8-6.7,6.8
			C162.8,221,159.8,217.9,159.8,214.2z M170.4,214.2c0-2.1-1.7-3.9-3.8-3.9c-2.1,0-3.9,1.7-3.9,3.8c0,2.1,1.6,3.9,3.8,3.9
			C168.6,218.1,170.4,216.4,170.4,214.2z"/>
		<path fill="#00AFEE" d="M178.2,210c0.7-1.5,2.2-2.3,3.8-2.3v3c-0.9,0-1.8,0.3-2.5,0.9c-1,0.8-1.1,1.8-1.1,3v3.2h1.7v2.7h-6.2v-2.7
			h1.7v-7.3h-1.7v-2.7h4.4V210z"/>
		<path fill="#00AFEE" d="M194.7,209.8c0.8-1.4,2.2-2.2,3.8-2.2c1.5,0,2.8,0.7,3.6,1.9c1,1.3,1.1,2.5,1.1,4.1v4.4h1.7v2.7h-6.2v-2.7
			h1.7v-3.6c0-0.9,0.1-1.9-0.4-2.7c-0.5-0.8-1.4-1.2-2.3-1.2c-0.9,0-1.7,0.4-2.2,1c-0.6,0.8-0.6,1.6-0.6,2.6v3.9h1.7v2.7h-6.2v-2.7
			h1.7v-11.6h-1.7v-2.7h4.6V209.8z"/>
		<path fill="#00AFEE" d="M216,218.9c-0.9,1.4-2.4,2.1-4.1,2.1c-3.7,0-6.6-3-6.6-6.7c0-3.7,3-6.8,6.7-6.8c1.7,0,3.1,0.8,4,2.2v-1.8
			h4.6v2.7H219v7.3h1.6v2.7H216V218.9z M216.1,214.2c0-2.1-1.7-3.8-3.9-3.8c-2.2,0-3.9,1.8-3.9,4c0,2.1,1.7,3.8,3.8,3.8
			C214.4,218.1,216.1,216.3,216.1,214.2z"/>
		<path fill="#00AFEE" d="M225.8,209.7c0.9-1.3,2.3-2,4-2c3.6,0,6.6,3,6.6,6.6c0,1.7-0.6,3.3-1.7,4.5c-1.1,1.2-2.8,2.1-4.5,2.1
			c-1.7,0-3.3-0.7-4.3-2.1v1.9h-4.6v-2.7h1.7v-11.6h-1.7v-2.7h4.6V209.7z M225.7,214.2c0,2.2,1.7,4,4,4c2.2,0,3.8-1.8,3.8-3.9
			c0-2.1-1.7-3.9-3.9-3.9C227.4,210.3,225.7,212,225.7,214.2z"/>
		<path fill="#00AFEE" d="M249.7,216.9c-1,2.4-3.4,4.1-6,4.1c-3.7,0-6.7-2.9-6.7-6.7c0-3.8,2.8-6.8,6.7-6.8c1.8,0,3.5,0.8,4.8,2.1
			c1.3,1.3,1.8,3,1.8,4.8l-0.1,1h-10.3c0.4,1.8,2,3.1,3.8,3.1c1.3,0,2.4-0.5,3.1-1.5H249.7z M247.5,213.1c-0.5-1.8-2.1-3-4-3
			c-1.7,0-3.4,1.3-3.7,3H247.5z"/>
		<path fill="#00AFEE" d="M255.3,210c0.7-1.5,2.2-2.3,3.8-2.3v3c-0.9,0-1.8,0.3-2.5,0.9c-1,0.8-1.1,1.8-1.1,3v3.2h1.7v2.7h-6.2v-2.7
			h1.7v-7.3h-1.7v-2.7h4.4V210z"/>
		<path fill="#00AFEE" d="M262.6,210.6h-1.7v-2.7h4.6v1.8c0.8-1.4,2.2-2.1,3.8-2.1c1.4,0,2.8,0.6,3.7,1.6c1.1,1.2,1.1,2.3,1.1,3.8v5
			h1.7v2.7h-6.2v-2.7h1.7v-4.1c0-0.8,0-1.6-0.5-2.3c-0.5-0.7-1.4-1-2.3-1c-0.9,0-1.8,0.4-2.3,1.1c-0.6,0.7-0.6,1.8-0.6,2.7v3.7h1.7
			v2.7h-6.2v-2.7h1.7V210.6z"/>
		<path fill="#00AFEE" d="M276.1,214.2c0-3.7,3-6.7,6.8-6.7c3.7,0,6.7,3.1,6.7,6.7c0,3.7-3,6.8-6.7,6.8
			C279.1,221,276.1,217.9,276.1,214.2z M286.7,214.2c0-2.1-1.7-3.9-3.8-3.9c-2.1,0-3.9,1.7-3.9,3.8c0,2.1,1.6,3.9,3.8,3.9
			C285,218.1,286.7,216.4,286.7,214.2z"/>
		<path fill="#00AFEE" d="M293.3,216.9c0.1,1.1,0.9,1.9,2.1,1.9c0.9,0,1.7-0.6,1.7-1.6c0-1.3-1.2-1.5-2.2-1.7
			c-2.2-0.6-4.7-1.3-4.7-4.1c0-2.4,2.1-3.9,4.3-3.9c1.1,0,2.2,0.2,2.9,1.1v-0.9h2.2v3.5h-2.8c0-0.9-0.7-1.5-1.7-1.5
			c-0.8,0-1.6,0.5-1.6,1.3c0,1.2,1.2,1.5,2.1,1.7c2.3,0.5,4.8,1.2,4.8,4.1c0,2.6-2.2,4-4.6,4c-1.3,0-2.5-0.4-3.3-1.4v1.1h-2.2v-3.7
			H293.3z"/>
		<path fill="#00AFEE" d="M318.9,218.9c-0.9,1.4-2.4,2.1-4.1,2.1c-3.7,0-6.6-3-6.6-6.7c0-3.7,3-6.8,6.7-6.8c1.7,0,3.1,0.8,4,2.2
			v-1.8h4.6v2.7h-1.6v7.3h1.6v2.7h-4.6V218.9z M319,214.2c0-2.1-1.7-3.8-3.9-3.8c-2.2,0-3.9,1.8-3.9,4c0,2.1,1.7,3.8,3.8,3.8
			C317.3,218.1,319,216.3,319,214.2z"/>
		<path fill="#00AFEE" d="M337.1,216.3c-0.8,2.7-3.5,4.6-6.3,4.6c-3.7,0-6.8-3-6.8-6.7c0-3.5,2.8-6.8,6.4-6.8c1.4,0,2.7,0.6,3.7,1.6
			v-1.2h2.5v4.3h-2.7c-0.4-0.5-0.8-1-1.4-1.3c-0.6-0.3-1.2-0.5-1.8-0.5c-2.2,0-3.8,1.7-3.8,3.9c0,2.2,1.7,3.9,3.9,3.9
			c1.2,0,2.5-0.6,3.1-1.8H337.1z"/>
		<path fill="#00AFEE" d="M337.9,214.2c0-3.7,3-6.7,6.8-6.7c3.7,0,6.7,3.1,6.7,6.7c0,3.7-3,6.8-6.7,6.8
			C340.9,221,337.9,217.9,337.9,214.2z M348.4,214.2c0-2.1-1.7-3.9-3.8-3.9c-2.1,0-3.9,1.7-3.9,3.8c0,2.1,1.6,3.9,3.8,3.9
			C346.7,218.1,348.4,216.4,348.4,214.2z"/>
		<path fill="#00AFEE" d="M353.6,210.6H352v-2.7h4.3v1.9c0.8-1.3,2.1-2.2,3.7-2.2c1.8,0,3.3,1.1,4,2.7c0.7-1.6,2.4-2.7,4.2-2.7
			c1.4,0,2.8,0.6,3.7,1.6c1,1.2,1,2.4,1,3.9v4.8h1.7v2.7h-6.2v-2.7h1.7v-4.1c0-0.8,0-1.6-0.4-2.3c-0.5-0.7-1.3-1.1-2.1-1.1
			c-0.8,0-1.7,0.3-2.2,1c-0.6,0.8-0.6,1.5-0.6,2.4v4.1h1.7v2.7h-6.2v-2.7h1.7V214c0-0.8,0-1.7-0.4-2.4c-0.4-0.8-1.2-1.2-2.1-1.2
			c-0.8,0-1.5,0.3-2,0.9c-0.6,0.8-0.7,1.6-0.7,2.6v4h1.7v2.7H352v-2.7h1.7V210.6z"/>
		<path fill="#00AFEE" d="M377,210.6h-1.6v-2.7h4.6v2c0.9-1.5,2.5-2.2,4.2-2.2c3.6,0,6.5,3,6.5,6.6c0,3.5-2.8,6.5-6.4,6.5
			c-1.7,0-3.3-0.6-4.3-2v3.7h1.7v2.7h-6.2v-2.7h1.6V210.6z M387.6,214.3c0-2.1-1.7-3.9-3.8-3.9c-2.2,0-3.9,1.7-3.9,3.9
			c0,2.1,1.7,3.9,3.9,3.9C385.9,218.1,387.6,216.4,387.6,214.3z"/>
		<path fill="#00AFEE" d="M401.7,218.9c-0.9,1.4-2.4,2.1-4.1,2.1c-3.7,0-6.6-3-6.6-6.7c0-3.7,3-6.8,6.7-6.8c1.7,0,3.1,0.8,4,2.2
			v-1.8h4.6v2.7h-1.6v7.3h1.6v2.7h-4.6V218.9z M401.8,214.2c0-2.1-1.7-3.8-3.9-3.8c-2.2,0-3.9,1.8-3.9,4c0,2.1,1.7,3.8,3.8,3.8
			C400.1,218.1,401.8,216.3,401.8,214.2z"/>
		<path fill="#00AFEE" d="M408.6,210.6H407v-2.7h4.6v1.8c0.8-1.4,2.2-2.1,3.8-2.1c1.4,0,2.8,0.6,3.7,1.6c1.1,1.2,1.1,2.3,1.1,3.8v5
			h1.7v2.7h-6.2v-2.7h1.7v-4.1c0-0.8,0-1.6-0.5-2.3c-0.5-0.7-1.4-1-2.3-1c-0.9,0-1.8,0.4-2.3,1.1c-0.6,0.7-0.6,1.8-0.6,2.7v3.7h1.7
			v2.7H407v-2.7h1.7V210.6z M418.9,204.4c-0.8,0.7-1.7,1.1-2.7,1.1c-1.3,0-2.3-0.7-3.4-0.7c-0.6,0-1.1,0.3-1.6,0.7l-1.5-2.2
			c0.6-0.5,1.6-0.9,2.4-0.9c0.6,0,1.2,0.2,1.8,0.3c0.6,0.2,1.1,0.4,1.7,0.4c0.7,0,1.3-0.2,1.8-0.6L418.9,204.4z"/>
		<path fill="#00AFEE" d="M432.9,218.9c-0.9,1.4-2.4,2.1-4.1,2.1c-3.7,0-6.6-3-6.6-6.7c0-3.7,3-6.8,6.7-6.8c1.7,0,3.1,0.8,4,2.2
			v-1.8h4.6v2.7h-1.6v7.3h1.6v2.7h-4.6V218.9z M432.9,214.2c0-2.1-1.7-3.8-3.9-3.8c-2.2,0-3.9,1.8-3.9,4c0,2.1,1.7,3.8,3.8,3.8
			C431.2,218.1,432.9,216.3,432.9,214.2z"/>
		<path fill="#00AFEE" d="M448.7,218.7c-1,1.4-2.5,2.1-4.2,2.1c-3.6,0-6.5-3-6.5-6.6c0-3.6,2.9-6.6,6.5-6.6c1.6,0,3.2,0.8,4.2,2.1
			v-3.4H447v-2.7h4.6v14.4h1.7v2.7h-4.6V218.7z M448.8,214.2c0-2.1-1.7-3.8-3.8-3.8c-2.2,0-3.9,1.7-3.9,3.9c0,2.1,1.7,3.9,3.9,3.9
			C447.1,218.1,448.8,216.3,448.8,214.2z"/>
		<path fill="#00AFEE" d="M453.8,214.2c0-3.7,3-6.7,6.8-6.7c3.7,0,6.7,3.1,6.7,6.7c0,3.7-3,6.8-6.7,6.8
			C456.7,221,453.8,217.9,453.8,214.2z M464.3,214.2c0-2.1-1.7-3.9-3.8-3.9c-2.1,0-3.9,1.7-3.9,3.8c0,2.1,1.6,3.9,3.8,3.9
			C462.6,218.1,464.3,216.4,464.3,214.2z"/>
	</g>
	<g>
		<path fill="#FFFFFF" d="M162.7,282.8h-2.8v-0.9h3.8v4.3c1.7-3.1,4.1-4.6,7.3-4.6c2.3,0,4.3,0.9,5.9,2.6c1.6,1.7,2.4,3.7,2.4,6.1
			s-0.8,4.5-2.4,6.2c-1.6,1.7-3.7,2.5-5.9,2.5c-3.2,0-5.8-1.6-7.3-4.6v8.8h3.1v0.9h-6.9v-0.9h2.8V282.8z M165.8,295.7
			c1.4,1.5,3.2,2.3,5.2,2.3c4,0,7.3-3.4,7.3-7.8s-3.3-7.8-7.3-7.8c-2,0-3.8,0.8-5.2,2.3c-1.4,1.5-2.1,3.4-2.1,5.5
			C163.7,292.3,164.5,294.3,165.8,295.7z"/>
		<path fill="#FFFFFF" d="M190.1,298.9c-2.3,0-4.4-0.9-6-2.5c-1.6-1.7-2.4-3.7-2.4-6.2s0.8-4.5,2.4-6.2c1.6-1.7,3.7-2.5,6-2.5
			c3.2,0,5.8,1.6,7.3,4.6v-4.2h4v0.9h-2.9v14.9h2.9v0.9h-4v-4.3C195.8,297.4,193.3,298.9,190.1,298.9z M190.1,298
			c2,0,3.8-0.8,5.2-2.3c1.4-1.5,2.1-3.4,2.1-5.5c0-2.1-0.8-4-2.1-5.5c-1.4-1.5-3.2-2.3-5.2-2.3c-4,0-7.3,3.4-7.3,7.8
			S186.1,298,190.1,298z"/>
		<path fill="#FFFFFF" d="M206.3,282.8h-2.8v-0.9h3.8v3.1c1.2-2.3,3.1-3.4,5.9-3.4c0.2,0,0.4,0,0.6,0v5.4h-1v-4.5
			c-4.2,0.3-5.5,2.6-5.5,7.5v7.7h3.1v0.9h-6.9v-0.9h2.8V282.8z"/>
		<path fill="#FFFFFF" d="M225,298.9c-2.3,0-4.4-0.9-6-2.5c-1.6-1.7-2.4-3.7-2.4-6.2s0.8-4.5,2.4-6.2c1.6-1.7,3.7-2.5,6-2.5
			c3.2,0,5.8,1.6,7.3,4.6v-4.2h4v0.9h-2.9v14.9h2.9v0.9h-4v-4.3C230.7,297.4,228.2,298.9,225,298.9z M225,298c2,0,3.8-0.8,5.2-2.3
			c1.4-1.5,2.1-3.4,2.1-5.5c0-2.1-0.8-4-2.1-5.5c-1.4-1.5-3.2-2.3-5.2-2.3c-4,0-7.3,3.4-7.3,7.8S221,298,225,298z"/>
		<path fill="#FFFFFF" d="M250.1,282.8h-2.8v-0.9h3.8v3.1c1.2-2.3,3.1-3.4,5.9-3.4c0.2,0,0.4,0,0.6,0v5.4h-1v-4.5
			c-4.2,0.3-5.5,2.6-5.5,7.5v7.7h3.1v0.9h-6.9v-0.9h2.8V282.8z"/>
		<path fill="#FFFFFF" d="M268.9,299c-2.3,0-4.5-0.9-6.1-2.6c-1.6-1.6-2.5-3.9-2.5-6.2s0.9-4.6,2.5-6.2c1.6-1.7,3.8-2.5,6.1-2.5
			c4.6,0,8.4,3.5,8.6,8.7h-16c0.2,4.8,3.4,8,7.5,8c2.9,0,5.4-1.6,6.6-4.3h1.1C275.4,297.1,272.5,299,268.9,299z M276.3,289.2
			c-0.6-4.1-3.7-6.9-7.4-6.9c-3.7,0-6.7,2.6-7.4,6.9H276.3z"/>
		<path fill="#FFFFFF" d="M282.3,282.8h-2.8v-0.9h3.8v4.3c1.7-3.1,4.1-4.6,7.3-4.6c2.3,0,4.3,0.9,5.9,2.6c1.6,1.7,2.4,3.7,2.4,6.1
			s-0.8,4.5-2.4,6.2c-1.6,1.7-3.7,2.5-5.9,2.5c-3.2,0-5.8-1.6-7.3-4.6v8.8h3.1v0.9h-6.9v-0.9h2.8V282.8z M285.5,295.7
			c1.4,1.5,3.2,2.3,5.2,2.3c4,0,7.3-3.4,7.3-7.8s-3.3-7.8-7.3-7.8c-2,0-3.8,0.8-5.2,2.3c-1.4,1.5-2.1,3.4-2.1,5.5
			C283.4,292.3,284.1,294.3,285.5,295.7z"/>
		<path fill="#FFFFFF" d="M304.1,282.8h-2.8v-0.9h3.8v3.1c1.2-2.3,3.1-3.4,5.9-3.4c0.2,0,0.4,0,0.6,0v5.4h-1v-4.5
			c-4.2,0.3-5.5,2.6-5.5,7.5v7.7h3.1v0.9h-6.9v-0.9h2.8V282.8z"/>
		<path fill="#FFFFFF" d="M316.9,284c1.6-1.7,3.8-2.5,6.1-2.5s4.4,0.9,6,2.5c1.6,1.6,2.5,3.9,2.5,6.2s-0.9,4.6-2.5,6.2
			c-1.6,1.7-3.7,2.6-6,2.6s-4.5-0.9-6.1-2.6c-1.6-1.6-2.5-3.9-2.5-6.2S315.3,285.6,316.9,284z M317.8,295.8c1.4,1.5,3.3,2.3,5.3,2.3
			s3.8-0.8,5.3-2.3c1.4-1.5,2.2-3.4,2.2-5.6s-0.8-4.1-2.2-5.6c-1.4-1.5-3.3-2.3-5.3-2.3s-3.8,0.8-5.3,2.3c-1.4,1.5-2.2,3.4-2.2,5.6
			S316.3,294.3,317.8,295.8z"/>
		<path fill="#FFFFFF" d="M342.3,298.9c-2.3,0-4.4-0.9-6-2.5c-1.6-1.7-2.4-3.7-2.4-6.2s0.8-4.5,2.4-6.2c1.6-1.7,3.7-2.5,6-2.5
			c3.2,0,5.8,1.6,7.3,4.6v-8.9h-3.1v-0.9h4.1v21.4h2.8v0.9h-3.8v-4.3C347.9,297.4,345.5,298.9,342.3,298.9z M342.3,298
			c2,0,3.8-0.8,5.2-2.3c1.4-1.5,2.1-3.4,2.1-5.5c0-2.1-0.8-4-2.1-5.5c-1.4-1.5-3.2-2.3-5.2-2.3c-4,0-7.3,3.4-7.3,7.8
			S338.3,298,342.3,298z"/>
		<path fill="#FFFFFF" d="M364.8,299c-2.5,0-4.3-0.8-5.6-2.6c-1.2-1.6-1.3-3.4-1.3-5.7v-8h-2.8v-0.9h3.8v8.7c0,2.1,0.1,3.7,1,5.1
			c1,1.6,2.7,2.4,4.8,2.4c2.1,0,3.8-0.8,4.8-2.4c1-1.5,1-3.1,1-5.1v-7.8h-3.1v-0.9h4.1v15.8h2.8v0.9h-3.8v-2.7
			C369.1,298,367.2,299,364.8,299z"/>
		<path fill="#FFFFFF" d="M384.9,299c-2.3,0-4.5-0.9-6.1-2.6c-1.6-1.6-2.5-3.9-2.5-6.2s0.9-4.6,2.5-6.2c1.6-1.7,3.8-2.5,6.1-2.5
			c2.7,0,4.8,1,6.5,3v-2.6h1v4.8h-0.8c-1.4-2.8-3.7-4.3-6.6-4.3c-2,0-3.8,0.8-5.3,2.3c-1.4,1.5-2.2,3.4-2.2,5.6s0.8,4.1,2.2,5.6
			c1.4,1.5,3.3,2.3,5.3,2.3c3,0,5.7-1.8,6.8-4.8h1.1C391.5,297,388.5,299,384.9,299z"/>
		<path fill="#FFFFFF" d="M397.8,282.8h-2.9v-0.9h3.9v15.8h2.9v0.9h-6.8v-0.9h2.9V282.8z M397.7,276.3h1.2v2.6h-1.2V276.3z"/>
		<path fill="#FFFFFF" d="M406.4,282.8h-2.8v-0.9h3.8v3.1c1.2-2.3,3.1-3.4,5.9-3.4c0.2,0,0.4,0,0.6,0v5.4h-1v-4.5
			c-4.2,0.3-5.5,2.6-5.5,7.5v7.7h3.1v0.9h-6.9v-0.9h2.8V282.8z"/>
		<path fill="#FFFFFF" d="M428.3,277.2h-2.9v-0.9h3.9v21.4h2.9v0.9h-6.9v-0.9h2.9V277.2z"/>
		<path fill="#FFFFFF" d="M442.6,298.9c-2.3,0-4.4-0.9-6-2.5c-1.6-1.7-2.4-3.7-2.4-6.2s0.8-4.5,2.4-6.2c1.6-1.7,3.7-2.5,6-2.5
			c3.2,0,5.8,1.6,7.3,4.6v-4.2h4v0.9h-2.9v14.9h2.9v0.9h-4v-4.3C448.2,297.4,445.7,298.9,442.6,298.9z M442.6,298
			c2,0,3.8-0.8,5.2-2.3c1.4-1.5,2.1-3.4,2.1-5.5c0-2.1-0.8-4-2.1-5.5c-1.4-1.5-3.2-2.3-5.2-2.3c-4,0-7.3,3.4-7.3,7.8
			S438.5,298,442.6,298z"/>
		<path fill="#FFFFFF" d="M455.9,293.4h0.9c0.1,2.9,1.8,4.7,4.6,4.7c2.5,0,4.3-1.7,4.3-4c0-0.9-0.3-1.6-0.7-2.1
			c-1-1.1-2.6-1.3-4.8-1.8c-2.6-0.6-3.9-2.1-3.9-4.3c0-2.6,1.9-4.4,4.5-4.4c1.8,0,3,0.6,4,1.9v-1.4h1v4.1H465
			c-0.2-2.2-1.8-3.6-4-3.6c-2.2,0-3.6,1.3-3.6,3.4c0,1.1,0.4,2,1.1,2.6c0.8,0.7,2.2,0.8,3.9,1.3c3,0.8,4.5,1.9,4.5,4.5
			c0,2.9-2.2,5-5.4,5c-2.1,0-3.5-0.8-4.5-2.4v1.9h-1V293.4z"/>
	</g>
	<g>
		<path fill="#FFFFFF" d="M176.3,335.8h-5l-6.3-16.3h-2.5v-4.4h9.6v4.4H170l3.8,10.4h0l4.1-10.4h-2.2v-4.4h9.5v4.4h-2.4L176.3,335.8
			z"/>
		<path fill="#FFFFFF" d="M193.5,331.4h2.7v4.4h-10.1v-4.4h2.7v-11.8h-2.7v-4.4h7.4V331.4z M193.5,313.1h-4.7v-5h4.7V313.1z"/>
		<path fill="#FFFFFF" d="M214.7,332.7c-1.5,2.3-4,3.4-6.8,3.4c-5.8,0-10.5-4.9-10.5-10.6c0-5.8,4.6-10.7,10.5-10.7
			c2.6,0,5.2,1.2,6.8,3.4v-5.6H212v-4.4h7.4v23.2h2.7v4.4h-7.4V332.7z M214.9,325.4c0-3.4-2.8-6.2-6.2-6.2c-3.5,0-6.3,2.8-6.3,6.3
			c0,3.4,2.8,6.2,6.2,6.2C212.1,331.7,214.9,328.8,214.9,325.4z"/>
		<path fill="#FFFFFF" d="M243.6,329.7c-1.6,3.9-5.5,6.6-9.8,6.6c-6,0-10.9-4.7-10.9-10.8c0-6.1,4.6-11,10.8-11
			c2.9,0,5.7,1.3,7.7,3.3c2.1,2.2,2.9,4.8,2.9,7.7l-0.2,1.7h-16.7c0.6,2.9,3.3,5,6.2,5c2.1,0,3.8-0.8,5-2.5H243.6z M240.1,323.6
			c-0.8-3-3.4-4.9-6.5-4.9c-2.8,0-5.5,2.2-6,4.9H240.1z"/>
		<path fill="#FFFFFF" d="M245.4,325.4c0-6,4.9-10.9,10.9-10.9c6,0,10.8,5,10.8,10.8c0,6-4.8,11-10.9,11
			C250.2,336.3,245.4,331.3,245.4,325.4z M262.5,325.4c0-3.4-2.7-6.3-6.1-6.3c-3.4,0-6.3,2.7-6.3,6.2c0,3.4,2.6,6.3,6.2,6.3
			C259.7,331.7,262.5,328.9,262.5,325.4z"/>
		<path fill="#FFFFFF" d="M270.7,319.5h-2.6v-4.4h7.4v3.3c1.5-2.4,4-3.5,6.8-3.5c5.8,0,10.5,4.8,10.5,10.6c0,5.6-4.6,10.6-10.3,10.6
			c-2.7,0-5.3-1-7-3.2v6h2.7v4.4h-10.1v-4.4h2.6V319.5z M287.9,325.5c0-3.4-2.7-6.3-6.1-6.3c-3.5,0-6.3,2.7-6.3,6.3
			c0,3.4,2.8,6.2,6.2,6.2C285,331.7,287.9,328.9,287.9,325.5z"/>
		<path fill="#FFFFFF" d="M293.4,325.4c0-6,4.9-10.9,10.9-10.9c6,0,10.8,5,10.8,10.8c0,6-4.8,11-10.9,11
			C298.2,336.3,293.4,331.3,293.4,325.4z M310.4,325.4c0-3.4-2.7-6.3-6.1-6.3c-3.4,0-6.3,2.7-6.3,6.2c0,3.4,2.6,6.3,6.2,6.3
			C307.6,331.7,310.4,328.9,310.4,325.4z"/>
		<path fill="#FFFFFF" d="M318.7,319.5H316v-4.4h7.4v2.9c1.2-2.3,3.6-3.4,6.1-3.4c2.2,0,4.4,0.9,6,2.6c1.7,1.9,1.7,3.7,1.7,6.1v8.1
			h2.7v4.4h-10.1v-4.4h2.7v-6.7c0-1.3,0-2.6-0.8-3.7c-0.9-1.1-2.2-1.7-3.6-1.7c-1.4,0-2.9,0.6-3.8,1.7c-0.9,1.2-0.9,2.9-0.9,4.3v6
			h2.7v4.4H316v-4.4h2.7V319.5z"/>
		<path fill="#FFFFFF" d="M361.3,329.7c-1.6,3.9-5.5,6.6-9.8,6.6c-6,0-10.9-4.7-10.9-10.8c0-6.1,4.6-11,10.8-11
			c2.9,0,5.7,1.3,7.7,3.3c2.1,2.2,2.9,4.8,2.9,7.7l-0.2,1.7h-16.7c0.6,2.9,3.3,5,6.2,5c2.1,0,3.8-0.8,5-2.5H361.3z M357.7,323.6
			c-0.8-3-3.4-4.9-6.5-4.9c-2.8,0-5.5,2.2-6,4.9H357.7z"/>
		<path fill="#FFFFFF" d="M365.9,319.5h-2.7v-4.4h7.4v2.9c1.2-2.3,3.6-3.4,6.1-3.4c2.2,0,4.4,0.9,6,2.6c1.7,1.9,1.7,3.7,1.7,6.1v8.1
			h2.7v4.4h-10.1v-4.4h2.7v-6.7c0-1.3,0-2.6-0.8-3.7c-0.9-1.1-2.2-1.7-3.6-1.7c-1.4,0-2.9,0.6-3.8,1.7c-0.9,1.2-0.9,2.9-0.9,4.3v6
			h2.7v4.4h-10.1v-4.4h2.7V319.5z"/>
		<path fill="#FFFFFF" d="M409,328.8c-1.3,4.4-5.7,7.5-10.3,7.5c-6,0-10.9-4.8-10.9-10.9c0-5.7,4.5-11,10.4-11
			c2.3,0,4.4,0.9,5.9,2.6v-2h4.1v6.9h-4.4c-0.6-0.9-1.4-1.5-2.2-2.1c-0.9-0.5-1.9-0.8-2.9-0.8c-3.5,0-6.1,2.8-6.1,6.3
			c0,3.5,2.8,6.2,6.2,6.2c2,0,4.1-1,5-2.9H409z"/>
		<path fill="#FFFFFF" d="M417.9,331.4h2.7v4.4h-10.1v-4.4h2.7v-11.8h-2.7v-4.4h7.4V331.4z M417.9,313.1h-4.7v-5h4.7V313.1z"/>
		<path fill="#FFFFFF" d="M439.1,333c-1.5,2.3-3.9,3.3-6.7,3.3c-5.9,0-10.6-4.9-10.6-10.8c0-6,4.8-11,10.8-11c2.7,0,5,1.2,6.4,3.5
			v-2.9h7.4v4.4h-2.6v11.8h2.6v4.4h-7.4V333z M439.2,325.3c0-3.4-2.8-6.2-6.2-6.2c-3.5,0-6.2,2.9-6.2,6.4c0,3.4,2.8,6.2,6.2,6.2
			C436.4,331.7,439.2,328.8,439.2,325.3z"/>
		<path fill="#FFFFFF" d="M452.7,329.8c0.2,1.9,1.4,3.1,3.3,3.1c1.4,0,2.8-1,2.8-2.6c0-2.1-1.9-2.4-3.5-2.8
			c-3.6-0.9-7.5-2.1-7.5-6.6c0-3.9,3.3-6.2,7-6.2c1.9,0,3.5,0.4,4.7,1.9v-1.4h3.5v5.6h-4.6c-0.1-1.5-1.2-2.4-2.7-2.4
			c-1.3,0-2.6,0.7-2.6,2.2c0,1.9,1.9,2.4,3.4,2.7c3.7,0.9,7.7,2,7.7,6.7c0,4.2-3.5,6.5-7.4,6.5c-2.1,0-4-0.7-5.3-2.2v1.7h-3.6v-6
			H452.7z"/>
	</g>
	<line fill="none" stroke="#FFFFFF" stroke-miterlimit="10" x1="46" y1="194" x2="467" y2="194"/>
	<line fill="none" stroke="#FFFFFF" stroke-miterlimit="10" x1="46" y1="236" x2="467" y2="236"/>
</g>
<g id="Capa_2">
	<g>
		<path fill="#0093A0" d="M113,317.6l-2.1,1.7c0.3,0.3,0.6,0.6,0.9,0.9c0.4,0.4,0.9,0.8,1.3,1.3c0.1,0.1,0.3,0.3,0.4,0.4l2.8-2.3
			l1.3-7.2h-3.8L113,317.6z"/>
		<path fill="#0093A0" d="M118,298.9c1-1.1,1.4-2,2.3-2.8l0.5-2.6l-13-22.9l-24.5-9.1l-24.5,9l-10.8,18.9H51v1.7l10.2-17.5l22.1-8.1
			l22,8l9.2,16h3.5V298.9z"/>
		<path fill="#0093A0" d="M51,312.5h-1.9l1.2,7.2l20,16.8h26.1l10.8-9.1c0.1-0.2,0.2-0.4,0.3-0.6c0.3-0.4,0.7-0.7,1.1-0.9
			c0.2-0.1,0.4-0.2,0.7-0.2c0,0-0.1-0.1-0.1-0.1c-0.4-0.4-0.9-0.9-1.3-1.3c-0.4-0.4-0.8-0.5-1.3-0.9l-11.6,10.2H71.7l-17.9-15.6
			l-1.3-6.4c-0.4-0.2-0.5-0.6-1.5-0.9V312.5z"/>
		<path fill="#0093A0" d="M50,296.5v2.6c0-0.4,0.3-1,0.6-1.3l-0.4-1.3H50z"/>
		<path fill="#FFFFFF" d="M124.7,335.8c-0.3-0.5-0.3-1-0.4-1.6c0-0.6,0-1.3-0.1-1.9c-0.1-0.8-0.1-1.5,0-2.2c0-0.6,0.1-1.1,0.2-1.7
			c0.2-0.8,0.4-1.5,0.6-2.3c0.2-0.6-0.3-1.2-0.9-1.1c-0.4,0.1-0.7,0.2-1.1,0.5c-0.2,0.1-0.3,0.2-0.3,0.2l-0.2,0.1
			c0,0-0.4,0.4-0.6,0.6c-0.2,0.2-0.4,0.5-0.5,0.7c-0.2,0.4-0.4,0.8-0.5,1.2c-0.1,0.3-0.1,0.7-0.1,1c0,0.4-0.3,0.6-0.6,0.6
			c-0.2,0-0.3-0.1-0.4-0.2c-0.7-0.7-1.3-1.3-2-2c-0.7-0.7-1.4-1.4-2.1-2.1c-0.7-0.7-1.5-1.5-2.2-2.2c-0.6-0.6-1.3-1.2-1.9-1.9
			c-0.5-0.5-1-1-1.5-1.5c-0.4-0.4-0.8-0.8-1.2-1.2c-0.4-0.3-1-0.4-1.6-0.2c-0.4,0.2-0.6,0.5-0.8,0.8c-0.3,0.4-0.2,1.3,0.2,1.6
			c0.5,0.6,1.1,1.1,1.6,1.6c0.5,0.5,1,1,1.5,1.5c0.6,0.6,1.1,1.1,1.7,1.7c0.4,0.4,0.8,0.8,1.3,1.3c0.5,0.5,1,1.1,1.6,1.6
			c0.4,0.4,0.8,0.8,1.2,1.3c0.2,0.2,0.4,0.4,0.6,0.7c0.3,0.3,0.1,0.6-0.1,0.8c-0.3,0.2-0.6,0.2-0.9-0.1c-0.6-0.7-1.3-1.3-2-2
			c-0.6-0.6-1.2-1.2-1.8-1.8c-0.3-0.3-0.6-0.6-0.9-0.9c-0.4-0.2-0.8-0.3-1.2-0.2c-0.4,0.1-0.7,0.3-0.9,0.7c-0.3,0.4-0.4,0.9-0.2,1.4
			c0.2,0.4,0.5,0.7,0.8,0.9c0.8,0.8,1.5,1.5,2.3,2.3c0.6,0.6,1.1,1.1,1.7,1.7c0.2,0.2,0.2,0.6,0,0.8c-0.2,0.2-0.5,0.4-0.8,0.1
			c-0.3-0.2-0.5-0.5-0.7-0.7c-0.4-0.4-0.9-0.9-1.3-1.3c-0.5-0.5-1-1-1.5-1.5c-0.4-0.4-1-0.5-1.6-0.3c-0.4,0.2-0.7,0.5-0.9,0.9
			c-0.2,0.4-0.1,1.2,0.3,1.5c0.7,0.7,1.4,1.4,2.2,2.1c0.5,0.5,0.9,0.9,1.4,1.4c0.2,0.2,0.2,0.4,0.1,0.6c-0.1,0.2-0.2,0.4-0.5,0.4
			c-0.2,0-0.4,0-0.6-0.2c-0.6-0.6-1.1-1.1-1.7-1.7c-0.2-0.2-0.4-0.5-0.7-0.7c-0.3-0.3-1-0.4-1.4-0.2c-0.5,0.2-0.8,0.5-1,0.9
			c-0.2,0.4-0.1,1.1,0.2,1.4c0.4,0.5,0.9,0.9,1.3,1.4c0.3,0.3,0.7,0.7,1,1c0.7,0.7,1.3,1.3,2,2c0.4,0.4,0.9,0.9,1.3,1.3
			c0.4,0.4,0.8,0.8,1.3,1.2c0.5,0.4,1,0.8,1.5,1.1c0.6,0.4,1.2,0.7,1.8,0.9c0.2,0.1,0.4,0.1,0.6,0.2c0.5,0.2,2,0.4,2.3,0.4
			c0.7,0,1.3-0.1,2-0.2c0.7-0.2,1.4-0.5,2-1c0.7-0.6,1.3-1.3,1.9-1.9c0.4-0.4,0.8-0.9,1.1-1.4c0.1-0.2,0.2-0.4,0.3-0.6
			c0.5-1.3,0.6-2.6,0.3-4C125.3,337.2,125.1,336.5,124.7,335.8z"/>
		<g>
			<path fill="#FFFFFF" d="M43.8,294.1h-2v-3h7.6v3h-2v12.8h2v3h-7.6v-3h2v-4.7h-7.2v4.7h2v3h-7.7v-3H33v-12.8h-2.1v-3h7.7v3h-2v4.5
				h7.2V294.1z"/>
			<path fill="#FFFFFF" d="M61.8,308c-1,1.6-2.7,2.3-4.5,2.3c-4,0-7.2-3.3-7.2-7.3c0-4.1,3.3-7.5,7.4-7.5c1.8,0,3.4,0.8,4.4,2.4v-2
				h5v3h-1.8v8h1.8v3h-5V308z M61.9,302.8c0-2.3-1.9-4.2-4.2-4.2c-2.4,0-4.2,2-4.2,4.3c0,2.3,1.9,4.2,4.2,4.2
				C60,307.1,61.9,305.2,61.9,302.8z"/>
			<path fill="#FFFFFF" d="M78.6,295.8v2.9l-6.8,8.2h4.3v-1.6h2.8v4.6H67.5v-2.6l7.1-8.5h-4v1.7h-2.8v-4.7H78.6z"/>
			<path fill="#FFFFFF" d="M101.8,305.2c-0.9,3-3.9,5.1-7,5.1c-4.1,0-7.4-3.3-7.4-7.4c0-3.9,3.1-7.4,7.1-7.4c1.6,0,3,0.6,4,1.8v-1.3
				h2.8v4.7h-3c-0.4-0.6-0.9-1.1-1.5-1.4c-0.6-0.3-1.3-0.5-2-0.5c-2.4,0-4.2,1.9-4.2,4.3c0,2.4,1.9,4.2,4.2,4.2
				c1.4,0,2.8-0.7,3.4-1.9H101.8z"/>
			<path fill="#FFFFFF" d="M108,306.9h1.8v3h-7v-3h1.9v-12.8H103v-3h5V306.9z"/>
			<path fill="#FFFFFF" d="M115.8,306.9h1.8v3h-6.9v-3h1.8v-8h-1.8v-3h5V306.9z M115.8,294.5h-3.2v-3.4h3.2V294.5z"/>
			<path fill="#FFFFFF" d="M132.9,305.2c-0.9,3-3.9,5.1-7,5.1c-4.1,0-7.4-3.3-7.4-7.4c0-3.9,3.1-7.4,7.1-7.4c1.6,0,3,0.6,4,1.8v-1.3
				h2.8v4.7h-3c-0.4-0.6-0.9-1.1-1.5-1.4c-0.6-0.3-1.3-0.5-2-0.5c-2.4,0-4.2,1.9-4.2,4.3c0,2.4,1.9,4.2,4.2,4.2
				c1.4,0,2.8-0.7,3.4-1.9H132.9z"/>
		</g>
	</g>
</g>
</svg>
