<?xml version="1.0" encoding="utf-8"?>
<!-- Generator: Adobe Illustrator 18.0.0, SVG Export Plug-In . SVG Version: 6.00 Build 0)  -->
<!DOCTYPE svg PUBLIC "-//W3C//DTD SVG 1.1//EN" "http://www.w3.org/Graphics/SVG/1.1/DTD/svg11.dtd">
<svg version="1.1" xmlns="http://www.w3.org/2000/svg" xmlns:xlink="http://www.w3.org/1999/xlink" x="0px" y="0px"
	 viewBox="0 0 359 349.2" enable-background="new 0 0 359 349.2" xml:space="preserve">
<g id="Capa_1">
</g>
<g id="Capa_2">
	<polygon fill="none" stroke="#FFFFFF" stroke-width="0.5" points="180.4,6.5 72.3,46.5 14.8,147.6 34.8,262.7 122.9,337.7 
		237.9,337.7 326,262.7 346,147.6 288.5,46.5 	"/>
	<g>
		<g>
			<path fill="#0094A1" d="M65.9,175.7c10.2,0,17.1-4.9,17.1-12.7c0-6-4-9.7-12-12.1c-7.3-2.2-8.9-2.8-8.9-3.8
				c0-0.9,0.8-1.4,3.4-1.4c4.6,0,11.1,1.7,14.9,3.9v-11.1c-3.4-1.6-7.8-3.1-14-3.1c-9.8,0-16.7,3.8-16.7,12
				c0,7.1,5.6,10.3,12.7,12.4c6,1.8,8.1,2.5,8.1,3.7c0,1.4-2,1.8-4.5,1.8c-5.1,0-12.7-2.4-16.3-5.4v11.6
				C54.8,174.7,60.2,175.7,65.9,175.7"/>
			<rect x="85.3" y="136.1" fill="#B9007C" width="11.9" height="38.8"/>
			<polygon fill="#DDDB1C" points="100.9,174.9 112.4,174.9 112.4,153.2 118.1,162.4 124.5,162.4 130,153.2 130,174.9 141.4,174.9 
				141.4,136.1 129.7,136.1 121.1,149.9 112.7,136.1 100.9,136.1 			"/>
			<path fill="#009ADA" d="M162.7,136.1h-17.8v38.8h11.9v-13.5h5.9c9,0,14.7-5.4,14.7-12.6C177.4,141.5,171.8,136.1,162.7,136.1
				 M161.1,152.8h-4.3v-6.9h4.3c2.4,0,4.1,1.4,4.1,3.4C165.2,151.4,163.5,152.8,161.1,152.8"/>
			<path fill="#0094A1" d="M198.2,164.8c-5,0-8.6-3.9-8.6-9.3c0-5.4,3.6-9.3,8.6-9.3c5,0,8.6,3.9,8.6,9.3
				C206.8,160.9,203.2,164.8,198.2,164.8 M198.2,175.7c12.2,0,20.7-9.3,20.7-20.2c0-11-8.5-20.2-20.7-20.2
				c-12.1,0-20.8,9.2-20.8,20.2C177.5,166.4,186.1,175.7,198.2,175.7"/>
			<path fill="#B9007C" d="M236.6,175.7c10.2,0,17.1-4.9,17.1-12.7c0-6-4-9.7-12-12.1c-7.3-2.2-8.9-2.8-8.9-3.8
				c0-0.9,0.8-1.4,3.4-1.4c4.6,0,11.1,1.7,14.9,3.9v-11.1c-3.4-1.6-7.8-3.1-14-3.1c-9.8,0-16.7,3.8-16.7,12
				c0,7.1,5.6,10.3,12.7,12.4c6,1.8,8.1,2.5,8.1,3.7c0,1.4-2,1.8-4.5,1.8c-5.1,0-12.7-2.4-16.3-5.4v11.6
				C225.5,174.7,230.9,175.7,236.6,175.7"/>
			<rect x="255.9" y="136.1" fill="#DDDB1C" width="11.9" height="38.8"/>
			<path fill="#009ADA" d="M291.2,164.8c-5,0-8.6-3.9-8.6-9.3c0-5.4,3.6-9.3,8.6-9.3s8.6,3.9,8.6,9.3
				C299.7,160.9,296.1,164.8,291.2,164.8 M291.2,175.7c12.2,0,20.7-9.3,20.7-20.2c0-11-8.5-20.2-20.7-20.2
				c-12.1,0-20.8,9.2-20.8,20.2C270.4,166.4,279,175.7,291.2,175.7"/>
			<path fill="#B9007C" d="M91.1,132.2c3.4,0,6.1-2.7,6.1-6.1c0-3.4-2.7-6.1-6.1-6.1c-3.4,0-6.1,2.7-6.1,6.1
				C84.9,129.5,87.7,132.2,91.1,132.2"/>
			<path fill="#DDDB1C" d="M262.2,132.2c3.4,0,6.1-2.7,6.1-6.1c0-3.4-2.7-6.1-6.1-6.1c-3.4,0-6.1,2.7-6.1,6.1
				C256,129.5,258.8,132.2,262.2,132.2"/>
			<path fill="#FFFFFF" d="M49.1,237.2h22.4v-5.7H58.4l5.4-5c4.9-4.5,6.7-7.4,6.7-11.9c0-6-5.4-9.6-11.2-9.6c-3.8,0-6.9,1.2-9.2,3
				v6.7c2.4-2.1,5-3.6,8.5-3.6c3.2,0,5.4,1.7,5.4,4.4c0,2.8-1.6,4.8-5.6,8.5l-9.3,8.4V237.2z M89.5,237.8c8.6,0,13.6-7.8,13.6-16.4
				c0-8.6-4.9-16.4-13.6-16.4c-8.7,0-13.6,7.8-13.6,16.4C75.9,230,80.8,237.8,89.5,237.8 M89.5,231.8c-4.5,0-7.1-4.8-7.1-10.3
				c0-5.5,2.6-10.3,7.1-10.3c4.5,0,7.1,4.8,7.1,10.3C96.6,226.9,94,231.8,89.5,231.8 M112.9,237.2h6.4v-31.5h-5.6l-7.4,4v6.4
				l6.7-3.4V237.2z M126.5,237.2h6.9l13.3-26.5v-5h-22.3v5.8h14.9L126.5,237.2z"/>
			<path fill="#FFFFFF" d="M49.1,195.9h2.6v-8.7l3,4.1h1.5l2.9-4.1v8.7h2.6v-12.8h-2.6l-3.7,5.3l-3.7-5.3h-2.6V195.9z M75.3,193.7
				c-2.2,0-3.9-1.8-3.9-4.2c0-2.4,1.7-4.2,3.9-4.2s3.9,1.8,3.9,4.2C79.2,191.9,77.5,193.7,75.3,193.7 M75.3,196.1
				c3.8,0,6.6-3,6.6-6.6c0-3.7-2.8-6.6-6.6-6.6s-6.6,3-6.6,6.6C68.6,193.2,71.4,196.1,75.3,196.1 M88.8,195.9h4.8c4.1,0,7-2.6,7-6.4
				c0-3.8-2.9-6.4-7-6.4h-4.8V195.9z M91.5,193.5v-8.1h1.9c2.8,0,4.5,1.5,4.5,4c0,2.5-1.7,4-4.5,4H91.5z M107.6,195.9h9.6v-2.4h-7
				v-3.3h5.4v-2.3h-5.4v-2.5h6.8v-2.4h-9.4V195.9z M123.8,195.9h9.1v-2.4h-6.5v-10.4h-2.6V195.9z M144.7,193.7
				c-2.2,0-3.9-1.8-3.9-4.2c0-2.4,1.7-4.2,3.9-4.2c2.2,0,3.9,1.8,3.9,4.2C148.7,191.9,147,193.7,144.7,193.7 M144.7,196.1
				c3.8,0,6.6-3,6.6-6.6c0-3.7-2.8-6.6-6.6-6.6c-3.8,0-6.6,3-6.6,6.6C138.1,193.2,140.9,196.1,144.7,196.1 M167.4,195.9h9.6v-2.4h-7
				v-3.3h5.4v-2.3H170v-2.5h6.8v-2.4h-9.4V195.9z M183.6,195.9h4.8c4.1,0,7-2.6,7-6.4c0-3.8-2.9-6.4-7-6.4h-4.8V195.9z M186.3,193.5
				v-8.1h1.9c2.8,0,4.5,1.5,4.5,4c0,2.5-1.7,4-4.5,4H186.3z M207.7,196.1c3.1,0,5.5-1.9,5.5-5.6v-7.4h-2.6v7.5
				c0,2.1-1.2,3.1-2.9,3.1c-1.6,0-2.8-1-2.8-3.1v-7.5h-2.6v7.4C202.2,194.2,204.6,196.1,207.7,196.1 M226.8,196.1
				c1.3,0,2.6-0.3,3.6-0.9v-2.6c-1,0.8-2.2,1.1-3.5,1.1c-2.5,0-4.4-1.7-4.4-4.2c0-2.4,1.8-4.2,4.3-4.2c1.4,0,2.4,0.4,3.4,1v-2.6
				c-1-0.5-2.1-0.8-3.4-0.8c-4,0-6.9,2.7-6.9,6.6C219.9,193.4,222.9,196.1,226.8,196.1 M236.2,195.9h2.8l1.3-3h5.4l1.3,3h2.8
				l-5.5-12.9h-2.5L236.2,195.9z M241,190.8l1.9-4.4l1.9,4.4H241z M253.2,183.1v2.4h4v10.4h2.6v-10.4h4.1v-2.4H253.2z M270.6,195.9
				h2.6v-12.8h-2.6V195.9z M284.9,196h2.5l5.4-12.9h-2.8l-3.7,9.2l-3.7-9.2h-2.9L284.9,196z M304.4,193.7c-2.2,0-3.9-1.8-3.9-4.2
				c0-2.4,1.7-4.2,3.9-4.2c2.2,0,3.9,1.8,3.9,4.2C308.3,191.9,306.6,193.7,304.4,193.7 M304.4,196.1c3.8,0,6.6-3,6.6-6.6
				c0-3.7-2.8-6.6-6.6-6.6c-3.8,0-6.6,3-6.6,6.6C297.7,193.2,300.5,196.1,304.4,196.1"/>
			<path fill="#B9007C" d="M167.4,213.6h1.5v-3.2h3.3v3.2h1.5v-7.3h-1.5v2.7h-3.3v-2.7h-1.5V213.6z M180.1,212.4
				c-0.2,0-0.4-0.1-0.4-0.4v-1.8c0-1.3-1-2-2.5-2c-1,0-1.6,0.2-1.9,0.4v1.2c0.4-0.2,1.1-0.4,1.6-0.4c0.7,0,1.4,0.1,1.4,1v0.2
				c-0.3-0.2-0.8-0.3-1.5-0.3c-1,0-2.1,0.5-2.1,1.7c0,1.1,0.8,1.7,1.9,1.7c0.9,0,1.4-0.3,1.8-0.7c0.2,0.5,0.6,0.7,1.2,0.7
				c0.3,0,0.6-0.1,0.8-0.2v-1.1C180.3,212.4,180.2,212.4,180.1,212.4 M178.3,212c-0.2,0.3-0.7,0.5-1.2,0.5c-0.5,0-0.9-0.2-0.9-0.7
				c0-0.4,0.4-0.7,1-0.7c0.4,0,0.8,0.1,1.1,0.3V212z M183.9,213.7c0.7,0,1.1-0.1,1.6-0.4v-1.3c-0.4,0.3-0.8,0.4-1.4,0.4
				c-0.9,0-1.6-0.6-1.6-1.5c0-0.9,0.7-1.4,1.6-1.4c0.5,0,0.9,0.1,1.3,0.3v-1.3c-0.5-0.2-0.9-0.3-1.5-0.3c-1.5,0-2.8,1-2.8,2.7
				C181.1,212.7,182.5,213.7,183.9,213.7 M189.3,213.7c0.8,0,1.6-0.2,2-0.5V212c-0.5,0.3-1,0.5-1.7,0.5c-0.9,0-1.6-0.3-1.7-1.1h3.7
				V211c0-1.5-0.9-2.8-2.5-2.8c-1.6,0-2.7,1.2-2.7,2.7C186.4,212.7,187.7,213.7,189.3,213.7 M187.9,210.4c0.1-0.6,0.5-1,1.2-1
				c0.7,0,1.1,0.5,1.1,1H187.9z M192.7,213.6h1.5v-3c0.2-0.4,0.8-0.9,1.5-0.9c0.2,0,0.3,0,0.5,0.1v-1.4c-0.1,0-0.1,0-0.2,0
				c-0.8,0-1.5,0.5-1.8,1v-0.9h-1.5V213.6z M203,208.2c-0.9,0-1.4,0.4-1.7,0.8v-0.6h-1.5v7.3h1.5v-2.7c0.3,0.4,0.8,0.8,1.7,0.8
				c1.4,0,2.4-1.2,2.4-2.7C205.4,209.4,204.4,208.2,203,208.2 M202.5,209.5c0.8,0,1.4,0.6,1.4,1.5c0,0.8-0.6,1.4-1.4,1.4
				c-0.6,0-1.1-0.4-1.3-0.8v-1.4C201.5,209.9,201.9,209.5,202.5,209.5 M209,212.4c-0.8,0-1.4-0.6-1.4-1.5c0-0.8,0.6-1.4,1.4-1.4
				c0.8,0,1.4,0.6,1.4,1.4C210.5,211.8,209.9,212.4,209,212.4 M209,213.7c1.7,0,2.9-1.2,2.9-2.7c0-1.5-1.2-2.7-2.9-2.7
				c-1.7,0-2.9,1.2-2.9,2.7C206.2,212.5,207.3,213.7,209,213.7 M214.9,213.7c1.4,0,2.3-0.7,2.3-1.6c0-0.9-0.6-1.4-1.7-1.6
				c-0.7-0.2-1.3-0.2-1.3-0.6c0-0.3,0.3-0.4,0.8-0.4c0.7,0,1.4,0.3,1.9,0.5v-1.3c-0.5-0.3-1.2-0.5-1.9-0.5c-1.4,0-2.3,0.6-2.3,1.6
				c0,1,0.6,1.3,1.7,1.6c0.8,0.2,1.3,0.3,1.3,0.6c0,0.3-0.3,0.4-0.9,0.4c-0.9,0-1.8-0.3-2.1-0.6v1.3
				C213.2,213.5,214,213.7,214.9,213.7 M218.4,213.6h1.5v-5.2h-1.5V213.6z M219.2,207.9c0.5,0,0.9-0.4,0.9-0.9
				c0-0.5-0.4-0.9-0.9-0.9c-0.5,0-0.9,0.4-0.9,0.9C218.3,207.5,218.7,207.9,219.2,207.9 M224.6,213.7c1.4,0,2.4-1.2,2.4-2.7
				c0-1.5-1-2.7-2.4-2.7c-0.9,0-1.4,0.4-1.7,0.8v-2.7h-1.5v7.3h1.5v-0.6C223.2,213.3,223.7,213.7,224.6,213.7 M224.2,212.4
				c-0.6,0-1.1-0.4-1.3-0.8v-1.4c0.2-0.4,0.7-0.8,1.3-0.8c0.8,0,1.4,0.6,1.4,1.4C225.6,211.8,225,212.4,224.2,212.4 M229.5,213.7
				c0.3,0,0.7-0.1,0.9-0.2v-1.2c-0.1,0.1-0.2,0.1-0.4,0.1c-0.3,0-0.5-0.1-0.5-0.5v-5.6h-1.5v6C228.1,213.4,228.8,213.7,229.5,213.7
				 M234,213.7c0.8,0,1.6-0.2,2-0.5V212c-0.5,0.3-1,0.5-1.7,0.5c-0.9,0-1.6-0.3-1.7-1.1h3.7V211c0-1.5-0.9-2.8-2.5-2.8
				c-1.6,0-2.7,1.2-2.7,2.7C231.1,212.7,232.4,213.7,234,213.7 M232.5,210.4c0.1-0.6,0.5-1,1.2-1c0.7,0,1.1,0.5,1.1,1H232.5z
				 M241.5,213.7c0.3,0,0.7-0.1,0.9-0.2v-1.2c-0.1,0.1-0.2,0.1-0.4,0.1c-0.3,0-0.5-0.1-0.5-0.5v-5.6h-1.5v6
				C240.1,213.4,240.7,213.7,241.5,213.7 M248.3,212.4c-0.2,0-0.4-0.1-0.4-0.4v-1.8c0-1.3-1-2-2.5-2c-1,0-1.6,0.2-1.9,0.4v1.2
				c0.4-0.2,1.1-0.4,1.6-0.4c0.7,0,1.4,0.1,1.4,1v0.2c-0.3-0.2-0.8-0.3-1.5-0.3c-1,0-2.1,0.5-2.1,1.7c0,1.1,0.8,1.7,1.9,1.7
				c0.9,0,1.4-0.3,1.8-0.7c0.2,0.5,0.6,0.7,1.2,0.7c0.3,0,0.6-0.1,0.8-0.2v-1.1C248.5,212.4,248.4,212.4,248.3,212.4 M246.5,212
				c-0.2,0.3-0.7,0.5-1.2,0.5c-0.5,0-0.9-0.2-0.9-0.7c0-0.4,0.4-0.7,1-0.7c0.4,0,0.8,0.1,1.1,0.3V212z M252.4,213.6h1.5v-2.9h1.3
				l2.1,2.9h1.7l-2.3-3.1c1-0.3,1.5-1.1,1.5-2c0-1.3-0.9-2.2-2.5-2.2h-3.4V213.6z M253.9,209.4v-1.8h1.8c0.7,0,1.1,0.3,1.1,0.9
				c0,0.6-0.4,0.9-1.1,0.9H253.9z M262.3,213.7c0.8,0,1.6-0.2,2-0.5V212c-0.5,0.3-1,0.5-1.7,0.5c-0.9,0-1.6-0.3-1.7-1.1h3.7V211
				c0-1.5-0.9-2.8-2.5-2.8c-1.6,0-2.7,1.2-2.7,2.7C259.4,212.7,260.7,213.7,262.3,213.7 M260.8,210.4c0.1-0.6,0.5-1,1.2-1
				c0.7,0,1.1,0.5,1.1,1H260.8z M267.5,213.6v-4h1.6v-1.2h-1.6v-0.3c0-0.5,0.3-0.7,0.7-0.7c0.4,0,0.6,0.1,0.9,0.2v-1.2
				c-0.4-0.1-0.8-0.2-1.3-0.2c-1.2,0-1.8,0.8-1.8,1.7v0.5h-0.9v1.2h0.9v4H267.5z M272.5,212.4c-0.8,0-1.4-0.6-1.4-1.5
				c0-0.8,0.6-1.4,1.4-1.4c0.8,0,1.4,0.6,1.4,1.4C274,211.8,273.4,212.4,272.5,212.4 M272.5,213.7c1.7,0,2.9-1.2,2.9-2.7
				c0-1.5-1.2-2.7-2.9-2.7c-1.7,0-2.9,1.2-2.9,2.7C269.6,212.5,270.8,213.7,272.5,213.7 M276.5,213.6h1.5v-3
				c0.2-0.4,0.8-0.9,1.5-0.9c0.2,0,0.3,0,0.5,0.1v-1.4c-0.1,0-0.1,0-0.2,0c-0.8,0-1.5,0.5-1.8,1v-0.9h-1.5V213.6z M280.9,213.6h1.5
				v-3.3c0.2-0.4,0.6-0.7,1.1-0.7c0.4,0,0.9,0.2,0.9,1.1v2.9h1.5v-3.3c0.2-0.4,0.6-0.7,1.1-0.7c0.4,0,0.9,0.1,0.9,1.1v2.9h1.5v-3.3
				c0-1.4-0.8-2.1-1.9-2.1c-0.8,0-1.5,0.4-1.8,0.9c-0.2-0.4-0.8-0.9-1.6-0.9c-0.7,0-1.3,0.4-1.6,0.8v-0.6h-1.5V213.6z M295.5,212.4
				c-0.2,0-0.4-0.1-0.4-0.4v-1.8c0-1.3-1-2-2.5-2c-1,0-1.6,0.2-1.9,0.4v1.2c0.4-0.2,1.1-0.4,1.6-0.4c0.7,0,1.4,0.1,1.4,1v0.2
				c-0.3-0.2-0.8-0.3-1.5-0.3c-1,0-2.1,0.5-2.1,1.7c0,1.1,0.8,1.7,1.9,1.7c0.9,0,1.4-0.3,1.8-0.7c0.2,0.5,0.6,0.7,1.2,0.7
				c0.3,0,0.6-0.1,0.8-0.2v-1.1C295.7,212.4,295.6,212.4,295.5,212.4 M293.7,212c-0.2,0.3-0.7,0.5-1.2,0.5c-0.5,0-0.9-0.2-0.9-0.7
				c0-0.4,0.4-0.7,1-0.7c0.4,0,0.8,0.1,1.1,0.3V212z"/>
			<path fill="#B9007C" d="M169.8,225.1c0.7,0,1.1-0.1,1.6-0.4v-1.3c-0.4,0.3-0.8,0.4-1.4,0.4c-0.9,0-1.6-0.6-1.6-1.5
				c0-0.9,0.7-1.4,1.6-1.4c0.5,0,0.9,0.1,1.3,0.3V220c-0.5-0.2-0.9-0.3-1.5-0.3c-1.5,0-2.8,1-2.8,2.7
				C166.9,224.1,168.3,225.1,169.8,225.1 M176.2,219.7v3.3c-0.2,0.4-0.7,0.7-1.2,0.7c-0.4,0-1-0.2-1-1.1v-2.9h-1.5v3.2
				c0,1.3,0.7,2.1,1.9,2.1c0.8,0,1.4-0.4,1.7-0.8v0.6h1.5v-5.2H176.2z M179.1,224.9h1.5v-3c0.2-0.4,0.8-0.9,1.5-0.9
				c0.2,0,0.3,0,0.5,0.1v-1.4c-0.1,0-0.1,0-0.2,0c-0.8,0-1.5,0.5-1.8,1v-0.9h-1.5V224.9z M183.5,224.9h1.5v-3
				c0.2-0.4,0.8-0.9,1.5-0.9c0.2,0,0.3,0,0.5,0.1v-1.4c-0.1,0-0.1,0-0.2,0c-0.8,0-1.5,0.5-1.8,1v-0.9h-1.5V224.9z M188,224.9h1.5
				v-5.2H188V224.9z M188.7,219.2c0.5,0,0.9-0.4,0.9-0.9c0-0.5-0.4-0.9-0.9-0.9c-0.5,0-0.9,0.4-0.9,0.9
				C187.9,218.9,188.2,219.2,188.7,219.2 M193.5,225.1c0.7,0,1.1-0.1,1.6-0.4v-1.3c-0.4,0.3-0.8,0.4-1.4,0.4c-0.9,0-1.6-0.6-1.6-1.5
				c0-0.9,0.7-1.4,1.6-1.4c0.5,0,0.9,0.1,1.3,0.3V220c-0.5-0.2-0.9-0.3-1.5-0.3c-1.5,0-2.8,1-2.8,2.7
				C190.6,224.1,192,225.1,193.5,225.1 M199.9,219.7v3.3c-0.2,0.4-0.7,0.7-1.2,0.7c-0.4,0-1-0.2-1-1.1v-2.9h-1.5v3.2
				c0,1.3,0.7,2.1,1.9,2.1c0.8,0,1.4-0.4,1.7-0.8v0.6h1.5v-5.2H199.9z M204.2,225.1c0.3,0,0.7-0.1,0.9-0.2v-1.2
				c-0.1,0.1-0.2,0.1-0.4,0.1c-0.3,0-0.5-0.1-0.5-0.5v-5.6h-1.5v6C202.8,224.8,203.5,225.1,204.2,225.1 M211.1,223.8
				c-0.2,0-0.4-0.1-0.4-0.4v-1.8c0-1.3-1-2-2.5-2c-1,0-1.6,0.2-1.9,0.4v1.2c0.4-0.2,1.1-0.4,1.6-0.4c0.7,0,1.4,0.1,1.4,1v0.2
				c-0.3-0.2-0.8-0.3-1.5-0.3c-1,0-2.1,0.5-2.1,1.7c0,1.1,0.8,1.7,1.9,1.7c0.9,0,1.4-0.3,1.8-0.7c0.2,0.5,0.6,0.7,1.2,0.7
				c0.3,0,0.6-0.1,0.8-0.2v-1.1C211.3,223.8,211.2,223.8,211.1,223.8 M209.3,223.4c-0.2,0.3-0.7,0.5-1.2,0.5c-0.5,0-0.9-0.2-0.9-0.7
				c0-0.4,0.4-0.7,1-0.7c0.4,0,0.8,0.1,1.1,0.3V223.4z M212.4,224.9h1.5v-3c0.2-0.4,0.8-0.9,1.5-0.9c0.2,0,0.3,0,0.5,0.1v-1.4
				c-0.1,0-0.1,0-0.2,0c-0.8,0-1.5,0.5-1.8,1v-0.9h-1.5V224.9z M217.5,221.6c0.5,0,0.9-0.4,0.9-0.9c0-0.5-0.4-0.9-0.9-0.9
				c-0.5,0-0.9,0.4-0.9,0.9C216.6,221.2,217,221.6,217.5,221.6 M217.5,225.1c0.5,0,0.9-0.4,0.9-0.9c0-0.5-0.4-0.9-0.9-0.9
				c-0.5,0-0.9,0.4-0.9,0.9C216.6,224.7,217,225.1,217.5,225.1"/>
			<path fill="#FFFFFF" d="M222.3,224.9h5.2v-1.3h-3.7v-6h-1.5V224.9z M228.6,224.9h1.5v-5.2h-1.5V224.9z M229.3,219.2
				c0.5,0,0.9-0.4,0.9-0.9c0-0.5-0.4-0.9-0.9-0.9c-0.5,0-0.9,0.4-0.9,0.9C228.4,218.9,228.8,219.2,229.3,219.2 M233.7,225.1
				c0.9,0,1.4-0.4,1.7-0.8v0.6h1.5v-7.3h-1.5v2.7c-0.3-0.4-0.8-0.8-1.7-0.8c-1.4,0-2.4,1.2-2.4,2.7
				C231.2,223.9,232.2,225.1,233.7,225.1 M234.1,223.8c-0.8,0-1.4-0.6-1.4-1.5c0-0.8,0.6-1.4,1.4-1.4c0.6,0,1.1,0.4,1.3,0.8v1.4
				C235.2,223.4,234.7,223.8,234.1,223.8 M240.8,225.1c0.8,0,1.6-0.2,2-0.5v-1.2c-0.5,0.3-1,0.5-1.7,0.5c-0.9,0-1.6-0.3-1.7-1.1h3.7
				v-0.4c0-1.5-0.9-2.8-2.5-2.8c-1.6,0-2.7,1.2-2.7,2.7C237.9,224,239.3,225.1,240.8,225.1 M239.4,221.8c0.1-0.6,0.5-1,1.2-1
				c0.7,0,1.1,0.5,1.1,1H239.4z M244.3,224.9h1.5v-3c0.2-0.4,0.8-0.9,1.5-0.9c0.2,0,0.3,0,0.5,0.1v-1.4c-0.1,0-0.1,0-0.2,0
				c-0.8,0-1.5,0.5-1.8,1v-0.9h-1.5V224.9z M253.6,223.8c-0.2,0-0.4-0.1-0.4-0.4v-1.8c0-1.3-1-2-2.5-2c-1,0-1.6,0.2-1.9,0.4v1.2
				c0.4-0.2,1.1-0.4,1.6-0.4c0.7,0,1.4,0.1,1.4,1v0.2c-0.3-0.2-0.8-0.3-1.5-0.3c-1,0-2.1,0.5-2.1,1.7c0,1.1,0.8,1.7,1.9,1.7
				c0.9,0,1.4-0.3,1.8-0.7c0.2,0.5,0.6,0.7,1.2,0.7c0.3,0,0.6-0.1,0.8-0.2v-1.1C253.8,223.8,253.7,223.8,253.6,223.8 M251.8,223.4
				c-0.2,0.3-0.7,0.5-1.2,0.5c-0.5,0-0.9-0.2-0.9-0.7c0-0.4,0.4-0.7,1-0.7c0.4,0,0.8,0.1,1.1,0.3V223.4z M254.6,224.9h4.8v-1.2h-2.8
				l2.6-3v-1h-4.5v1.2h2.5l-2.6,3V224.9z M264.2,219.7v0.6c-0.3-0.4-0.9-0.7-1.7-0.7c-1.4,0-2.4,1.2-2.4,2.6c0,1.5,1,2.6,2.4,2.6
				c0.9,0,1.4-0.4,1.7-0.7v0.3c0,1.1-0.9,1.4-1.7,1.4c-0.7,0-1.4-0.2-1.9-0.5v1.3c0.5,0.3,1.3,0.4,2,0.4c1.5,0,3-0.9,3-2.8v-4.6
				H264.2z M262.9,223.6c-0.8,0-1.4-0.6-1.4-1.3c0-0.8,0.6-1.3,1.4-1.3c0.6,0,1.1,0.3,1.3,0.7v1.3
				C264,223.2,263.5,223.6,262.9,223.6 M269.6,223.8c-0.8,0-1.4-0.6-1.4-1.5c0-0.8,0.6-1.4,1.4-1.4s1.4,0.6,1.4,1.4
				C271.1,223.2,270.5,223.8,269.6,223.8 M269.6,225.1c1.7,0,2.9-1.2,2.9-2.7c0-1.5-1.2-2.7-2.9-2.7c-1.7,0-2.9,1.2-2.9,2.7
				C266.7,223.9,267.9,225.1,269.6,225.1 M276.9,227.1c1,0,1.6-0.6,2.1-1.6l2.4-5.7h-1.6l-1.3,3.4l-1.4-3.4h-1.6l2.2,5
				c-0.3,0.7-0.6,1-1.2,1c-0.3,0-0.6-0.1-0.8-0.2v1.3C276.1,227,276.5,227.1,276.9,227.1"/>
			<path fill="#FFFFFF" d="M171,236.5c1.3,0,2.4-0.6,3-1.2v-3.2h-1.5v2.5c-0.4,0.4-0.9,0.5-1.5,0.5c-1.3,0-2.4-0.9-2.4-2.4
				c0-1.5,1-2.4,2.5-2.4c0.7,0,1.4,0.2,2.1,0.6v-1.5c-0.6-0.4-1.2-0.6-2.2-0.6c-2.3,0-3.9,1.6-3.9,3.8
				C167.1,234.9,168.8,236.5,171,236.5 M177.9,236.5c0.8,0,1.6-0.2,2-0.5v-1.2c-0.5,0.3-1,0.5-1.7,0.5c-0.9,0-1.6-0.3-1.7-1.1h3.7
				v-0.4c0-1.5-0.9-2.8-2.5-2.8c-1.6,0-2.7,1.2-2.7,2.7C175,235.4,176.4,236.5,177.9,236.5 M176.5,233.2c0.1-0.6,0.5-1,1.2-1
				c0.7,0,1.1,0.5,1.1,1H176.5z M183.3,236.5c1.4,0,2.3-0.7,2.3-1.6c0-0.9-0.6-1.4-1.7-1.6c-0.7-0.2-1.3-0.2-1.3-0.6
				c0-0.3,0.3-0.4,0.8-0.4c0.7,0,1.4,0.3,1.9,0.5v-1.3c-0.5-0.3-1.2-0.5-1.9-0.5c-1.4,0-2.3,0.6-2.3,1.6c0,1,0.6,1.3,1.7,1.6
				c0.8,0.2,1.3,0.3,1.3,0.6c0,0.3-0.3,0.4-0.9,0.4c-0.9,0-1.8-0.3-2.1-0.6v1.3C181.6,236.3,182.4,236.5,183.3,236.5 M187.2,234.7
				c0,1.1,0.5,1.8,1.7,1.8c0.4,0,1-0.1,1.2-0.3V235c-0.2,0.1-0.5,0.2-0.8,0.2c-0.5,0-0.7-0.2-0.7-0.7v-2.1h1.5v-1.2h-1.5v-1.4h-1.5
				v1.4h-1v1.2h1V234.7z M191.4,236.3h1.5v-5.2h-1.5V236.3z M192.1,230.6c0.5,0,0.9-0.4,0.9-0.9c0-0.5-0.4-0.9-0.9-0.9
				s-0.9,0.4-0.9,0.9C191.2,230.2,191.6,230.6,192.1,230.6 M196.9,235.2c-0.8,0-1.4-0.6-1.4-1.5c0-0.8,0.6-1.4,1.4-1.4
				s1.4,0.6,1.4,1.4C198.3,234.5,197.7,235.2,196.9,235.2 M196.9,236.5c1.7,0,2.9-1.2,2.9-2.7c0-1.5-1.2-2.7-2.9-2.7
				c-1.7,0-2.9,1.2-2.9,2.7C194,235.2,195.2,236.5,196.9,236.5 M196.1,230.4h1.3l1.5-1.5h-1.8L196.1,230.4z M202.3,236.3V233
				c0.2-0.4,0.7-0.7,1.2-0.7c0.4,0,1,0.2,1,1.1v2.9h1.5v-3.2c0-1.3-0.7-2.1-1.9-2.1c-0.8,0-1.4,0.4-1.7,0.8v-0.6h-1.5v5.2H202.3z
				 M212.5,236.5c0.8,0,1.6-0.2,2-0.5v-1.2c-0.5,0.3-1,0.5-1.7,0.5c-0.9,0-1.6-0.3-1.7-1.1h3.7v-0.4c0-1.5-0.9-2.8-2.5-2.8
				c-1.6,0-2.7,1.2-2.7,2.7C209.6,235.4,210.9,236.5,212.5,236.5 M211.1,233.2c0.1-0.6,0.5-1,1.2-1c0.7,0,1.1,0.5,1.1,1H211.1z
				 M217.9,236.5c1.4,0,2.3-0.7,2.3-1.6c0-0.9-0.6-1.4-1.7-1.6c-0.7-0.2-1.3-0.2-1.3-0.6c0-0.3,0.3-0.4,0.8-0.4
				c0.7,0,1.4,0.3,1.9,0.5v-1.3c-0.5-0.3-1.2-0.5-1.9-0.5c-1.4,0-2.3,0.6-2.3,1.6c0,1,0.6,1.3,1.7,1.6c0.8,0.2,1.3,0.3,1.3,0.6
				c0,0.3-0.3,0.4-0.9,0.4c-0.9,0-1.8-0.3-2.1-0.6v1.3C216.1,236.3,217,236.5,217.9,236.5 M223.8,236.5c0.7,0,1.1-0.1,1.6-0.4v-1.3
				c-0.4,0.3-0.8,0.4-1.4,0.4c-0.9,0-1.6-0.6-1.6-1.5c0-0.9,0.7-1.4,1.6-1.4c0.5,0,0.9,0.1,1.3,0.3v-1.3c-0.5-0.2-0.9-0.3-1.5-0.3
				c-1.5,0-2.8,1-2.8,2.7C220.9,235.4,222.3,236.5,223.8,236.5 M229.1,235.2c-0.8,0-1.4-0.6-1.4-1.5c0-0.8,0.6-1.4,1.4-1.4
				s1.4,0.6,1.4,1.4C230.5,234.5,229.9,235.2,229.1,235.2 M229.1,236.5c1.7,0,2.9-1.2,2.9-2.7c0-1.5-1.2-2.7-2.9-2.7
				c-1.7,0-2.9,1.2-2.9,2.7C226.2,235.2,227.4,236.5,229.1,236.5 M234.5,236.5c0.3,0,0.7-0.1,0.9-0.2v-1.2c-0.1,0.1-0.2,0.1-0.4,0.1
				c-0.3,0-0.5-0.1-0.5-0.5V229h-1.5v6C233.1,236.1,233.7,236.5,234.5,236.5 M241.3,235.2c-0.2,0-0.4-0.1-0.4-0.4V233
				c0-1.3-1-2-2.5-2c-1,0-1.6,0.2-1.9,0.4v1.2c0.4-0.2,1.1-0.4,1.6-0.4c0.7,0,1.4,0.1,1.4,1v0.2c-0.3-0.2-0.8-0.3-1.5-0.3
				c-1,0-2.1,0.5-2.1,1.7c0,1.1,0.8,1.7,1.9,1.7c0.9,0,1.4-0.3,1.8-0.7c0.2,0.5,0.6,0.7,1.2,0.7c0.3,0,0.6-0.1,0.8-0.2v-1.1
				C241.5,235.2,241.4,235.2,241.3,235.2 M239.5,234.8c-0.2,0.3-0.7,0.5-1.2,0.5c-0.5,0-0.9-0.2-0.9-0.7c0-0.4,0.4-0.7,1-0.7
				c0.4,0,0.8,0.1,1.1,0.3V234.8z M242.7,236.3h1.5v-3c0.2-0.4,0.8-0.9,1.5-0.9c0.2,0,0.3,0,0.5,0.1V231c-0.1,0-0.1,0-0.2,0
				c-0.8,0-1.5,0.5-1.8,1v-0.9h-1.5V236.3z"/>
			<line fill="none" stroke="#FFFFFF" x1="158.6" y1="205.5" x2="158.6" y2="236.7"/>
		</g>
	</g>
</g>
</svg>
