<?xml version="1.0" encoding="utf-8"?>
<!-- Generator: Adobe Illustrator 18.0.0, SVG Export Plug-In . SVG Version: 6.00 Build 0)  -->
<!DOCTYPE svg PUBLIC "-//W3C//DTD SVG 1.1//EN" "http://www.w3.org/Graphics/SVG/1.1/DTD/svg11.dtd">
<svg version="1.1" xmlns="http://www.w3.org/2000/svg" xmlns:xlink="http://www.w3.org/1999/xlink" x="0px" y="0px"
	 viewBox="0 0 347 51" enable-background="new 0 0 347 51" xml:space="preserve">
<g id="Capa_1">
	<g>
		<path fill="#DDDB1C" d="M60.5,38.8V40h-2.7l2.5-2.3c1.1-1,2-1.9,2-3.4c0-2-1.5-3.5-3.5-3.5c-2.1,0-3.7,1.6-3.7,3.8h1.9
			c0-1,0.6-1.8,1.6-1.8c0.9,0,1.6,0.6,1.6,1.5c0,0.9-0.7,1.5-1.3,2L55.3,40v1.7h7v-2.8H60.5z M65.4,38.8c0.4,1.9,1.9,3.1,3.9,3.1
			c2.2,0,4.1-1.6,4.1-3.8c0-2-1.5-3.7-3.5-3.7c-0.7,0-1.3,0.2-1.9,0.6l0.4-2.3h4.1V31h-5.7l-1,5.7l1.7,0.4c0.3-0.7,1-1.1,1.7-1.1
			c1.1,0,2,0.8,2,2c0,1.1-0.9,2-2,2c-0.8,0-1.5-0.5-1.8-1.2H65.4z M89.8,35.4h1v-1.7H87v1.7h0.8l-1.5,3.9l-1.4-3.9h0.8v-1.7h-3.8
			v1.7h1.1l2.4,6.2l-0.5,1.3h-1v1.7h3.9v-1.7h-1L89.8,35.4z M104.9,38.8V40h-2.7l2.5-2.3c1.1-1,2-1.9,2-3.4c0-2-1.5-3.5-3.5-3.5
			c-2.1,0-3.7,1.6-3.7,3.8h1.9c0-1,0.6-1.8,1.6-1.8c0.9,0,1.6,0.6,1.6,1.5c0,0.9-0.7,1.5-1.3,2L99.6,40v1.7h7v-2.8H104.9z M113.6,31
			l-2.9,4.2c-0.6,0.8-0.9,1.6-0.9,2.6c0,1.1,0.4,2.1,1.2,2.9c0.7,0.7,1.8,1.1,2.8,1.1c2.2,0,4-1.8,4-4c0-1.9-1.4-3.6-3.4-3.6
			c-0.4,0-0.6,0.1-0.9,0.2l2.5-3.6H113.6z M113.8,40c-1.1,0-2-0.9-2-2c0-1.1,0.9-2,2-2c1.1,0,2,0.9,2,2
			C115.8,39.1,114.8,40,113.8,40 M133,41.7h2.9V40h-1v-9h-2.9v1.7h1.1v2.2c-0.6-0.8-1.6-1.3-2.6-1.3c-2.3,0-4.1,1.9-4.1,4.1
			c0,2.2,1.8,4.1,4.1,4.1c1.1,0,2-0.4,2.6-1.3V41.7z M130.6,40.1c-1.3,0-2.4-1.1-2.4-2.4c0-1.4,1.1-2.5,2.4-2.5
			c1.3,0,2.4,1.1,2.4,2.4C133,39,132,40.1,130.6,40.1 M144.1,39.3c-0.4,0.7-1.1,1-1.9,1c-1.1,0-2.2-0.8-2.4-1.9h6.5l0.1-0.6
			c0-1.1-0.3-2.2-1.1-3c-0.8-0.8-1.9-1.3-3-1.3c-2.4,0-4.2,1.9-4.2,4.3c0,2.4,1.9,4.2,4.2,4.2c1.7,0,3.1-1,3.8-2.6H144.1z M139.8,37
			c0.2-1,1.3-1.9,2.3-1.9c1.2,0,2.2,0.7,2.5,1.9H139.8z M159,41.9c2.4,0,4.2-1.9,4.2-4.3c0-2.3-1.9-4.2-4.2-4.2
			c-2.3,0-4.2,1.9-4.2,4.2C154.8,40,156.6,41.9,159,41.9 M159,40.1c-1.4,0-2.4-1.1-2.4-2.5c0-1.3,1.1-2.4,2.4-2.4
			c1.3,0,2.4,1.1,2.4,2.4C161.4,39,160.3,40.1,159,40.1 M171.5,39c-0.3,0.7-1.1,1.1-1.9,1.1c-1.3,0-2.4-1.1-2.4-2.4
			c0-1.3,1-2.4,2.4-2.4c0.4,0,0.8,0.1,1.1,0.3c0.3,0.2,0.6,0.5,0.9,0.8h1.7v-2.7h-1.6v0.8c-0.6-0.6-1.4-1-2.3-1c-2.3,0-4,2-4,4.2
			c0,2.3,1.9,4.2,4.2,4.2c1.8,0,3.5-1.2,4-2.9H171.5z M179,35.4h1.4v-1.7H179V31h-1.8v2.7h-1.3v1.7h1.3v6.3h3.3V40H179V35.4z
			 M190.9,33.7H188v1.7h1V38c0,0.6,0,1.1-0.3,1.6c-0.3,0.4-0.8,0.7-1.4,0.7c-0.5,0-1-0.2-1.3-0.7c-0.3-0.4-0.3-1-0.3-1.5v-4.3h-2.9
			v1.7h1v3.2c0,0.9,0.1,1.6,0.7,2.3c0.6,0.7,1.4,1,2.2,1c0.9,0,1.9-0.4,2.4-1.2v1h2.7V40h-1V33.7z M197.2,31h-2.9v1.7h1V40h-1v1.7
			h2.9v-1.2c0.6,0.9,1.6,1.3,2.7,1.3c1,0,2.1-0.5,2.8-1.3c0.7-0.8,1.1-1.8,1.1-2.8c0-2.3-1.9-4.1-4.1-4.1c-1,0-1.9,0.4-2.5,1.3V31z
			 M199.6,35.2c1.3,0,2.4,1.1,2.4,2.4c0,1.3-1,2.5-2.4,2.5c-1.4,0-2.5-1.1-2.5-2.5C197.2,36.3,198.2,35.2,199.6,35.2 M208.8,33.7
			h-2.7v1.7h1V40h-1v1.7h3.9V40h-1v-2c0-0.8,0.1-1.4,0.7-1.9c0.5-0.4,1-0.6,1.6-0.6v-1.9c-1,0-1.9,0.5-2.4,1.5V33.7z M219.8,39.3
			c-0.5,0.7-1.1,1-1.9,1c-1.1,0-2.2-0.8-2.4-1.9h6.5l0.1-0.6c0-1.1-0.3-2.2-1.1-3c-0.8-0.8-1.9-1.3-3-1.3c-2.4,0-4.2,1.9-4.2,4.3
			c0,2.4,1.9,4.2,4.2,4.2c1.7,0,3.1-1,3.8-2.6H219.8z M215.4,37c0.2-1,1.3-1.9,2.3-1.9c1.2,0,2.2,0.7,2.5,1.9H215.4z M237.1,41.7
			h2.9V40h-1v-9h-2.9v1.7h1.1v2.2c-0.6-0.8-1.6-1.3-2.6-1.3c-2.3,0-4.1,1.9-4.1,4.1c0,2.2,1.8,4.1,4.1,4.1c1.1,0,2-0.4,2.6-1.3V41.7
			z M234.8,40.1c-1.3,0-2.4-1.1-2.4-2.4c0-1.4,1.1-2.5,2.4-2.5c1.3,0,2.4,1.1,2.4,2.4C237.2,39,236.1,40.1,234.8,40.1 M248.3,39.3
			c-0.4,0.7-1.1,1-1.9,1c-1.1,0-2.2-0.8-2.4-1.9h6.5l0.1-0.6c0-1.1-0.3-2.2-1.1-3c-0.8-0.8-1.9-1.3-3-1.3c-2.4,0-4.2,1.9-4.2,4.3
			c0,2.4,1.9,4.2,4.2,4.2c1.7,0,3.1-1,3.8-2.6H248.3z M243.9,37c0.2-1,1.3-1.9,2.3-1.9c1.2,0,2.2,0.7,2.5,1.9H243.9z M264.8,38.8V40
			h-2.7l2.5-2.3c1.1-1,2-1.9,2-3.4c0-2-1.5-3.5-3.5-3.5c-2.1,0-3.7,1.6-3.7,3.8h1.9c0-1,0.6-1.8,1.6-1.8c0.9,0,1.6,0.6,1.6,1.5
			c0,0.9-0.7,1.5-1.3,2l-3.9,3.7v1.7h7v-2.8H264.8z M277.5,34.8c0-1.2-0.2-2.1-1.2-3c-0.7-0.7-1.7-1.1-2.7-1.1
			c-1.1,0-2.1,0.5-2.9,1.2c-0.8,0.9-1,1.7-1,2.9v3c0,1.2,0.2,2.1,1.1,3c0.7,0.7,1.7,1.1,2.7,1.1c1.1,0,2.1-0.5,2.9-1.3
			c0.8-0.9,1-1.7,1-2.9V34.8z M271.8,34.8c0-0.5,0-1,0.3-1.4c0.3-0.6,0.9-0.8,1.6-0.8c0.6,0,1.2,0.2,1.5,0.7c0.3,0.5,0.4,1,0.4,1.5
			v3c0,0.5,0,1-0.3,1.4c-0.3,0.6-0.9,0.8-1.6,0.8c-0.6,0-1.2-0.2-1.5-0.7c-0.3-0.5-0.3-1-0.3-1.5V34.8z M283.4,31h-3.6v1.7h1.6V40
			h-1.3v1.7h4.5V40h-1.3V31z M287.3,31v3.4h1.9v-1.7h3.1l-4.1,9h2.2l4-9V31H287.3z"/>
	</g>
	<path fill="#FFFFFF" d="M21.9,9.5h1.2V7.6h-4.3l-3.1,8.1l-3.1-8.1H8.3v1.8h1.2v7.8H8.3v1.8h4.8v-1.8h-1.3v-6.6l3.2,8.5h1.5l3.2-8.5
		v6.6h-1.2v1.8h4.7v-1.8h-1.2V9.5z M32.5,10.5h-3.1v1.8h1.1v2.8c0,0.6,0,1.2-0.4,1.7c-0.3,0.4-0.9,0.7-1.4,0.7
		c-0.6,0-1.1-0.2-1.4-0.7C27,16.3,27,15.7,27,15.1v-4.6h-3.1v1.8H25v3.4c0,0.9,0.1,1.7,0.8,2.5c0.6,0.7,1.5,1.1,2.4,1.1
		c1,0,2-0.4,2.6-1.3v1.1h2.9v-1.8h-1.1V10.5z M34.7,16.6v2.5h1.5v-0.7c0.6,0.7,1.3,0.9,2.2,0.9c1.6,0,3.1-1,3.1-2.7
		c0-1.9-1.6-2.4-3.2-2.8c-0.6-0.1-1.4-0.3-1.4-1.1c0-0.6,0.6-0.9,1.1-0.9c0.6,0,1.1,0.4,1.1,1h1.9v-2.3h-1.4v0.6
		c-0.5-0.6-1.2-0.8-1.9-0.8c-1.5,0-2.9,0.9-2.9,2.6c0,1.9,1.6,2.3,3.1,2.7c0.7,0.2,1.5,0.3,1.5,1.2c0,0.6-0.6,1.1-1.2,1.1
		c-0.8,0-1.3-0.5-1.4-1.3H34.7z M48.7,16.6c-0.5,0.7-1.2,1-2.1,1c-1.2,0-2.3-0.9-2.6-2H51l0.1-0.7c0-1.2-0.4-2.3-1.2-3.2
		c-0.8-0.8-2-1.4-3.2-1.4c-2.5,0-4.4,2-4.4,4.6c0,2.5,2,4.5,4.5,4.5c1.8,0,3.4-1.1,4-2.7H48.7z M44,14c0.2-1.1,1.3-2,2.5-2
		c1.3,0,2.4,0.8,2.7,2H44z M56.2,19.3c2.5,0,4.5-2,4.5-4.5c0-2.4-2-4.5-4.4-4.5c-2.5,0-4.5,2-4.5,4.5C51.7,17.2,53.7,19.3,56.2,19.3
		 M56.2,17.4c-1.5,0-2.5-1.2-2.5-2.6c0-1.4,1.2-2.6,2.6-2.6c1.4,0,2.5,1.2,2.5,2.6C58.8,16.2,57.6,17.4,56.2,17.4 M77.4,9.5h1.2V7.6
		H74v1.8h1.2v5.8l-5.4-7.7h-3.2v1.8h1.2v7.8h-1.2v1.8h4.7v-1.8H70v-5.7l5.4,7.5h2V9.5z M86.7,19.1h3.1v-1.8h-1.1v-4.9h1.1v-1.8h-3.1
		v1.2c-0.6-0.9-1.6-1.4-2.7-1.4c-2.5,0-4.5,2.1-4.5,4.5c0,2.4,1.9,4.5,4.4,4.5c1.1,0,2.1-0.4,2.8-1.4V19.1z M84.1,17.4
		c-1.4,0-2.5-1.2-2.5-2.5c0-1.4,1.1-2.6,2.6-2.6c1.4,0,2.6,1.1,2.6,2.5C86.8,16.2,85.6,17.4,84.1,17.4 M97,16.2
		c-0.4,0.8-1.2,1.2-2,1.2c-1.4,0-2.6-1.1-2.6-2.6c0-1.4,1.1-2.6,2.5-2.6c0.4,0,0.8,0.1,1.2,0.3c0.4,0.2,0.7,0.5,0.9,0.8h1.8v-2.9
		h-1.7v0.8c-0.6-0.7-1.5-1.1-2.4-1.1c-2.4,0-4.3,2.2-4.3,4.5c0,2.5,2,4.5,4.5,4.5c1.9,0,3.7-1.3,4.2-3.1H97z M103.3,10.5h-3.1v1.8
		h1.1v4.9h-1.1v1.8h4.2v-1.8h-1.1V10.5z M103.3,7.6h-2v2.1h2V7.6z M109.7,19.3c2.5,0,4.5-2,4.5-4.5c0-2.4-2-4.5-4.5-4.5
		c-2.5,0-4.5,2-4.5,4.5C105.2,17.2,107.2,19.3,109.7,19.3 M109.7,17.4c-1.5,0-2.5-1.2-2.5-2.6c0-1.4,1.2-2.6,2.6-2.6
		c1.4,0,2.5,1.2,2.5,2.6C112.2,16.2,111.1,17.4,109.7,17.4 M116,17.2h-1.1v1.8h4.2v-1.8h-1.1v-2.5c0-0.6,0-1.3,0.4-1.8
		c0.4-0.5,1-0.7,1.6-0.7c0.6,0,1.2,0.2,1.5,0.7c0.3,0.5,0.3,1,0.3,1.5v2.8h-1.1v1.8h4.2v-1.8h-1.1v-3.3c0-1,0-1.7-0.7-2.5
		c-0.6-0.7-1.5-1.1-2.5-1.1c-1.1,0-2,0.5-2.5,1.4v-1.2h-3.1v1.8h1.1V17.2z M132.5,19.1h3.1v-1.8h-1.1v-4.9h1.1v-1.8h-3.1v1.2
		c-0.6-0.9-1.6-1.4-2.7-1.4c-2.5,0-4.5,2.1-4.5,4.5c0,2.4,1.9,4.5,4.4,4.5c1.1,0,2.1-0.4,2.8-1.4V19.1z M129.9,17.4
		c-1.4,0-2.5-1.2-2.5-2.5c0-1.4,1.1-2.6,2.6-2.6c1.4,0,2.6,1.1,2.6,2.5C132.5,16.2,131.4,17.4,129.9,17.4 M139.4,7.6h-3.1v1.8h1.1
		v7.8h-1.2v1.8h4.2v-1.8h-1.1V7.6z M153.6,19.1h3.1v-1.8h-1.1V7.6h-3.1v1.8h1.1v2.3c-0.7-0.9-1.7-1.4-2.8-1.4c-2.4,0-4.3,2-4.3,4.4
		c0,2.4,2,4.4,4.4,4.4c1.1,0,2.2-0.4,2.8-1.4V19.1z M151.1,17.4c-1.4,0-2.6-1.2-2.6-2.6c0-1.5,1.2-2.6,2.6-2.6
		c1.4,0,2.6,1.2,2.6,2.6C153.7,16.2,152.5,17.4,151.1,17.4 M163.9,16.6c-0.5,0.7-1.2,1-2.1,1c-1.2,0-2.3-0.9-2.6-2h6.9l0.1-0.7
		c0-1.2-0.4-2.3-1.2-3.2c-0.8-0.8-2-1.4-3.2-1.4c-2.5,0-4.4,2-4.4,4.6c0,2.5,2,4.5,4.5,4.5c1.8,0,3.4-1.1,4-2.7H163.9z M159.2,14
		c0.2-1.1,1.3-2,2.5-2c1.3,0,2.4,0.8,2.7,2H159.2z M179.5,19.1h4.8v-1.8h-1.2l-4-9.6h-3.8v1.8h1.3l-3.3,7.8H172v1.8h4.7v-1.6h-1.2
		l0.7-1.7h4l0.7,1.7h-1.3V19.1z M179.5,14.1h-2.9l1.5-3.9h0L179.5,14.1z M186.1,17.2h-1.1v1.8h4.2v-1.8H188v-2.5
		c0-0.6,0-1.3,0.4-1.8c0.4-0.5,1-0.7,1.6-0.7c0.6,0,1.2,0.2,1.5,0.7c0.3,0.5,0.3,1,0.3,1.5v2.8h-1.1v1.8h4.2v-1.8h-1.1v-3.3
		c0-1,0-1.7-0.7-2.5c-0.6-0.7-1.5-1.1-2.5-1.1c-1.1,0-2,0.5-2.5,1.4v-1.2h-3.1v1.8h1.1V17.2z M198.7,12.3h1.5v-1.8h-1.5V7.6h-2v2.9
		h-1.3v1.8h1.3v6.7h3.5v-1.8h-1.6V12.3z M204.2,10.5h-2.9v1.8h1.1v4.9h-1.1v1.8h4.2v-1.8h-1.1v-2.2c0-0.8,0.1-1.5,0.7-2
		c0.5-0.4,1.1-0.6,1.7-0.6v-2c-1.1,0-2.1,0.5-2.6,1.6V10.5z M212.1,19.3c2.5,0,4.5-2,4.5-4.5c0-2.4-2-4.5-4.5-4.5
		c-2.5,0-4.5,2-4.5,4.5C207.7,17.2,209.7,19.3,212.1,19.3 M212.1,17.4c-1.5,0-2.5-1.2-2.5-2.6c0-1.4,1.2-2.6,2.6-2.6
		c1.4,0,2.5,1.2,2.5,2.6C214.7,16.2,213.6,17.4,212.1,17.4 M218.5,20.4h-1.1v1.8h4.2v-1.8h-1.1v-2.5c0.7,0.9,1.8,1.3,2.9,1.3
		c2.4,0,4.3-2,4.3-4.4c0-2.4-1.9-4.4-4.4-4.4c-1.2,0-2.2,0.5-2.8,1.4v-1.3h-3.1v1.8h1.1V20.4z M223,17.4c-1.4,0-2.6-1.2-2.6-2.6
		c0-1.5,1.2-2.6,2.6-2.6c1.4,0,2.5,1.2,2.5,2.6C225.6,16.2,224.4,17.4,223,17.4 M232.6,19.3c2.5,0,4.5-2,4.5-4.5
		c0-2.4-2-4.5-4.5-4.5c-2.5,0-4.5,2-4.5,4.5C228.2,17.2,230.1,19.3,232.6,19.3 M232.6,17.4c-1.5,0-2.5-1.2-2.5-2.6
		c0-1.4,1.2-2.6,2.6-2.6c1.4,0,2.5,1.2,2.5,2.6C235.2,16.2,234.1,17.4,232.6,17.4 M241,7.6h-3.1v1.8h1.1v7.8h-1.2v1.8h4.2v-1.8H241
		V7.6z M247.3,19.3c2.5,0,4.5-2,4.5-4.5c0-2.4-2-4.5-4.5-4.5c-2.5,0-4.5,2-4.5,4.5C242.9,17.2,244.9,19.3,247.3,19.3 M247.3,17.4
		c-1.5,0-2.5-1.2-2.5-2.6c0-1.4,1.2-2.6,2.6-2.6c1.4,0,2.5,1.2,2.5,2.6C249.9,16.2,248.8,17.4,247.3,17.4 M253,19.8
		c0.4,1.9,2.3,2.7,4.1,2.7c1.3,0,2.4-0.4,3.3-1.3c1-1,1.1-2,1.1-3.3v-5.6h1.1v-1.8h-2.9v1.2c-0.6-1-1.7-1.4-2.8-1.4
		c-2.4,0-4.3,2-4.3,4.4c0,2.4,1.9,4.4,4.3,4.4c1.2,0,2.1-0.4,2.7-1.4v0.3c0,0.8,0,1.3-0.6,2c-0.4,0.5-1.1,0.8-1.8,0.8
		c-0.8,0-1.6-0.3-1.9-1.1H253z M254.5,14.8c0-1.4,1.2-2.6,2.6-2.6c1.4,0,2.6,1.2,2.6,2.6c0,1.4-1.1,2.6-2.6,2.6
		C255.6,17.4,254.5,16.2,254.5,14.8 M266.5,10.5h-3.1v1.8h1.1v4.9h-1.1v1.8h4.2v-1.8h-1.1V10.5z M263.7,9.5l4.4-2.1l-0.8-1.7
		L263,8.1L263.7,9.5z M275.6,19.1h3.1v-1.8h-1.1v-4.9h1.1v-1.8h-3.1v1.2c-0.6-0.9-1.6-1.4-2.7-1.4c-2.5,0-4.5,2.1-4.5,4.5
		c0,2.4,1.9,4.5,4.4,4.5c1.1,0,2.1-0.4,2.8-1.4V19.1z M273,17.4c-1.4,0-2.5-1.2-2.5-2.5c0-1.4,1.1-2.6,2.6-2.6
		c1.4,0,2.6,1.1,2.6,2.5C275.7,16.2,274.5,17.4,273,17.4 M281.4,19.1v0.2c0,0.5,0,1-0.7,1h-0.2v1.1h0.3c0.5,0,0.9,0,1.3-0.5
		c0.4-0.4,0.4-0.9,0.4-1.5v-2.6h-2v2.3H281.4z M300.9,11.2V7.6h-1.8v1.2c-0.9-1-2.2-1.4-3.5-1.4c-3.2,0-5.8,2.7-5.8,5.9
		c0,1.6,0.6,3.1,1.7,4.3c1.1,1.1,2.7,1.8,4.2,1.8c2.4,0,4.8-1.6,5.6-4h-2.4c-0.7,1.1-1.9,1.7-3.2,1.7c-2.1,0-3.7-1.7-3.7-3.8
		c0-2.1,1.6-3.8,3.7-3.8c1.2,0,2.5,0.7,3.2,1.7H300.9z M302.2,19.1h5.4c1.7,0,3-0.4,4.2-1.7c1-1.1,1.5-2.5,1.5-4
		c0-1.6-0.5-3.1-1.6-4.2c-1.2-1.2-2.4-1.5-4-1.5h-5.4v1.8h1.2v7.8h-1.2V19.1z M305.7,9.6h1.7c1.1,0,1.9,0.1,2.7,0.9
		c0.7,0.8,1,1.9,1,2.9c0,0.9-0.3,2-0.9,2.7c-0.8,0.9-1.7,1-2.8,1h-1.7V9.6z M327.9,9.5h1.2V7.6h-4.3l-3.1,8.1l-3.1-8.1h-4.3v1.8h1.2
		v7.8h-1.2v1.8h4.8v-1.8h-1.3v-6.6l3.3,8.5h1.5l3.2-8.5v6.6h-1.2v1.8h4.7v-1.8h-1.2V9.5z M341.3,17.2h-1.2l-3.2-4l3.1-3.8h1.2V7.6
		h-4.7v1.7h1.1l-1.8,2.4l-1.8-2.4h1.1V7.6h-4.7v1.8h1.2l3,3.8l-3.2,4H330v1.8h4.7v-1.7h-1.1l2.1-2.6l2,2.6h-1.1v1.7h4.7V17.2z"/>
</g>
<g id="Capa_2">
</g>
</svg>
