<?xml version="1.0" encoding="utf-8"?>
<!-- Generator: Adobe Illustrator 18.0.0, SVG Export Plug-In . SVG Version: 6.00 Build 0)  -->
<!DOCTYPE svg PUBLIC "-//W3C//DTD SVG 1.1//EN" "http://www.w3.org/Graphics/SVG/1.1/DTD/svg11.dtd">
<svg version="1.1" xmlns="http://www.w3.org/2000/svg" xmlns:xlink="http://www.w3.org/1999/xlink" x="0px" y="0px"
	 viewBox="0 0 95.3 28.2" enable-background="new 0 0 95.3 28.2" xml:space="preserve">
<g id="Capa_1">
</g>
<g id="Capa_2">
	<g>
		<path fill="#FFFFFF" d="M1.7,8.4c0-2.5,2-4.5,4.5-4.5c2.4,0,4.5,2,4.5,4.4c0,2.5-2,4.5-4.5,4.5C3.7,12.9,1.7,10.9,1.7,8.4z M9,8.4
			c0-1.5-1.3-2.8-2.8-2.8c-1.6,0-2.8,1.2-2.8,2.8c0,1.6,1.2,2.9,2.8,2.9C7.8,11.3,9,9.9,9,8.4z"/>
		<path fill="#FFFFFF" d="M13.8,7.4c0.4-0.8,1.1-1.1,1.9-1.2v1.5c-0.5,0-0.9,0.1-1.3,0.5c-0.5,0.4-0.6,0.9-0.6,1.5v1.6h0.8v1.4h-3.1
			v-1.4h0.8V7.7h-0.8V6.3h2.2V7.4z"/>
		<path fill="#FFFFFF" d="M18.8,13.3c0.3,0.5,0.9,0.8,1.4,0.8c0.5,0,1-0.2,1.4-0.6c0.4-0.5,0.4-0.9,0.4-1.5v-0.2
			c-0.5,0.7-1.2,1.1-2.1,1.1c-1.8,0-3.2-1.5-3.2-3.3c0-1.8,1.5-3.3,3.3-3.3c0.9,0,1.7,0.3,2.1,1V6.3h2.2v1.4h-0.8v4.2
			c0,1-0.1,1.8-0.8,2.5c-0.7,0.7-1.6,1-2.5,1c-1.3,0-2.7-0.7-3.1-2.1H18.8z M20.3,11.4c1.1,0,1.9-0.9,1.9-2c0-1.1-0.9-1.9-2-1.9
			s-1.9,0.9-1.9,1.9C18.3,10.6,19.2,11.4,20.3,11.4z"/>
		<path fill="#FFFFFF" d="M30.7,11.8c-0.5,0.7-1.2,1-2.1,1c-1.8,0-3.3-1.5-3.3-3.3c0-1.9,1.5-3.4,3.4-3.4c0.8,0,1.5,0.4,2,1.1V6.3
			H33v1.4h-0.8v3.7H33v1.4h-2.3V11.8z M30.7,9.5c0-1.1-0.9-1.9-1.9-1.9c-1.1,0-1.9,0.9-1.9,2c0,1,0.9,1.9,1.9,1.9
			C29.8,11.4,30.7,10.6,30.7,9.5z"/>
		<path fill="#FFFFFF" d="M34.7,7.7h-0.8V6.3h2.3v0.9c0.4-0.7,1.1-1.1,1.9-1.1c0.7,0,1.4,0.3,1.8,0.8c0.5,0.6,0.5,1.2,0.5,1.9v2.5
			h0.8v1.4h-3.1v-1.4H39V9.3c0-0.4,0-0.8-0.3-1.2c-0.3-0.3-0.7-0.5-1.1-0.5c-0.4,0-0.9,0.2-1.2,0.5c-0.3,0.4-0.3,0.9-0.3,1.3v1.9H37
			v1.4h-3.1v-1.4h0.8V7.7z"/>
		<path fill="#FFFFFF" d="M44.5,11.3h0.8v1.4h-3.1v-1.4H43V7.7h-0.8V6.3h2.3V11.3z M44.5,5.7H43V4.1h1.5V5.7z"/>
		<path fill="#FFFFFF" d="M51.4,6.3v1.3l-3.1,3.7h2v-0.7h1.3v2.1h-5.2v-1.2l3.3-3.9h-1.8v0.8h-1.3V6.3H51.4z"/>
		<path fill="#FFFFFF" d="M57.8,11.8c-0.5,0.7-1.2,1-2.1,1c-1.8,0-3.3-1.5-3.3-3.3c0-1.9,1.5-3.4,3.4-3.4c0.8,0,1.5,0.4,2,1.1V6.3
			h2.3v1.4h-0.8v3.7h0.8v1.4h-2.3V11.8z M57.8,9.5c0-1.1-0.9-1.9-1.9-1.9c-1.1,0-1.9,0.9-1.9,2c0,1,0.9,1.9,1.9,1.9
			C57,11.4,57.8,10.6,57.8,9.5z"/>
		<path fill="#FFFFFF" d="M66.3,11.7c-0.5,0.7-1.2,1.1-2.1,1.1c-1.8,0-3.3-1.5-3.3-3.3c0-1.8,1.4-3.3,3.3-3.3c0.8,0,1.6,0.4,2.1,1
			V5.5h-0.8V4.1h2.3v7.2h0.8v1.4h-2.3V11.7z M66.4,9.5c0-1.1-0.9-1.9-1.9-1.9c-1.1,0-2,0.9-2,2c0,1.1,0.9,1.9,1.9,1.9
			C65.5,11.5,66.4,10.6,66.4,9.5z"/>
		<path fill="#FFFFFF" d="M69.5,9.5c0-1.9,1.5-3.4,3.4-3.4c1.8,0,3.3,1.5,3.3,3.4c0,1.9-1.5,3.4-3.4,3.4C71,12.9,69.5,11.3,69.5,9.5
			z M74.8,9.5c0-1-0.8-2-1.9-2c-1.1,0-1.9,0.9-1.9,1.9c0,1.1,0.8,2,1.9,2C73.9,11.4,74.8,10.6,74.8,9.5z"/>
		<path fill="#FFFFFF" d="M79.3,7.4c0.4-0.8,1.1-1.1,1.9-1.2v1.5c-0.5,0-0.9,0.1-1.3,0.5c-0.5,0.4-0.6,0.9-0.6,1.5v1.6h0.8v1.4h-3.1
			v-1.4h0.8V7.7h-0.8V6.3h2.2V7.4z"/>
		<path fill="#FFFFFF" d="M88.7,10.8c-0.5,1.2-1.7,2.1-3,2.1c-1.9,0-3.4-1.5-3.4-3.3c0-1.9,1.4-3.4,3.3-3.4c0.9,0,1.8,0.4,2.4,1
			c0.6,0.7,0.9,1.5,0.9,2.4l0,0.5h-5.2c0.2,0.9,1,1.5,1.9,1.5c0.6,0,1.2-0.2,1.5-0.8H88.7z M87.6,8.9c-0.3-0.9-1.1-1.5-2-1.5
			c-0.9,0-1.7,0.7-1.9,1.5H87.6z"/>
		<path fill="#FFFFFF" d="M91.5,10.8c0,0.6,0.4,1,1,1c0.4,0,0.9-0.3,0.9-0.8c0-0.6-0.6-0.7-1.1-0.9c-1.1-0.3-2.3-0.6-2.3-2
			c0-1.2,1-1.9,2.2-1.9c0.6,0,1.1,0.1,1.5,0.6V6.3h1.1V8h-1.4c0-0.5-0.4-0.8-0.8-0.8c-0.4,0-0.8,0.2-0.8,0.7c0,0.6,0.6,0.7,1.1,0.8
			c1.2,0.3,2.4,0.6,2.4,2.1c0,1.3-1.1,2-2.3,2c-0.6,0-1.2-0.2-1.7-0.7v0.5H90v-1.9H91.5z"/>
	</g>
</g>
</svg>
