<?xml version="1.0" encoding="utf-8"?>
<!-- Generator: Adobe Illustrator 18.0.0, SVG Export Plug-In . SVG Version: 6.00 Build 0)  -->
<!DOCTYPE svg PUBLIC "-//W3C//DTD SVG 1.1//EN" "http://www.w3.org/Graphics/SVG/1.1/DTD/svg11.dtd">
<svg version="1.1" xmlns="http://www.w3.org/2000/svg" xmlns:xlink="http://www.w3.org/1999/xlink" x="0px" y="0px"
	 viewBox="0 0 188.3 28" enable-background="new 0 0 188.3 28" xml:space="preserve">
<g id="Capa_1">
</g>
<g id="Capa_2">
	<g>
		<path fill="#FFFFFF" d="M3.5,8.9c0-2.5,2-4.5,4.5-4.5c2.4,0,4.5,2,4.5,4.4c0,2.5-2,4.5-4.5,4.5C5.5,13.4,3.5,11.4,3.5,8.9z
			 M10.8,8.9c0-1.5-1.3-2.8-2.8-2.8c-1.6,0-2.8,1.2-2.8,2.8c0,1.6,1.2,2.9,2.8,2.9C9.6,11.8,10.8,10.5,10.8,8.9z"/>
		<path fill="#FFFFFF" d="M15.6,7.9c0.4-0.8,1.1-1.1,1.9-1.2v1.5c-0.5,0-0.9,0.1-1.3,0.5c-0.5,0.4-0.6,0.9-0.6,1.5v1.6h0.8v1.4h-3.1
			v-1.4h0.8V8.2h-0.8V6.8h2.2V7.9z"/>
		<path fill="#FFFFFF" d="M20.6,13.8c0.3,0.5,0.9,0.8,1.4,0.8c0.5,0,1-0.2,1.4-0.6c0.4-0.5,0.4-0.9,0.4-1.5v-0.2
			c-0.5,0.7-1.2,1.1-2.1,1.1c-1.8,0-3.2-1.5-3.2-3.3c0-1.8,1.5-3.3,3.3-3.3c0.9,0,1.7,0.3,2.1,1V6.8h2.2v1.4h-0.8v4.2
			c0,1-0.1,1.8-0.8,2.5c-0.7,0.7-1.6,1-2.5,1c-1.3,0-2.7-0.7-3.1-2.1H20.6z M22,12c1.1,0,1.9-0.9,1.9-2C24,8.9,23.1,8,22,8
			s-1.9,0.9-1.9,1.9C20.1,11.1,21,12,22,12z"/>
		<path fill="#FFFFFF" d="M32.5,12.4c-0.5,0.7-1.2,1-2.1,1c-1.8,0-3.3-1.5-3.3-3.3c0-1.9,1.5-3.4,3.4-3.4c0.8,0,1.5,0.4,2,1.1V6.8
			h2.3v1.4H34v3.7h0.8v1.4h-2.3V12.4z M32.5,10c0-1.1-0.9-1.9-1.9-1.9c-1.1,0-1.9,0.9-1.9,2c0,1,0.9,1.9,1.9,1.9
			C31.6,12,32.5,11.1,32.5,10z"/>
		<path fill="#FFFFFF" d="M36.5,8.2h-0.8V6.8H38v0.9c0.4-0.7,1.1-1.1,1.9-1.1c0.7,0,1.4,0.3,1.8,0.8c0.5,0.6,0.5,1.2,0.5,1.9v2.5
			h0.8v1.4H40v-1.4h0.8V9.8c0-0.4,0-0.8-0.3-1.2c-0.3-0.3-0.7-0.5-1.1-0.5c-0.4,0-0.9,0.2-1.2,0.5C38,9,38,9.6,38,10v1.9h0.8v1.4
			h-3.1v-1.4h0.8V8.2z"/>
		<path fill="#FFFFFF" d="M46.3,11.9h0.8v1.4H44v-1.4h0.8V8.2H44V6.8h2.3V11.9z M46.3,6.2h-1.5V4.7h1.5V6.2z"/>
		<path fill="#FFFFFF" d="M49.8,11.4c0,0.6,0.4,1,1,1c0.4,0,0.9-0.3,0.9-0.8c0-0.6-0.6-0.7-1.1-0.9c-1.1-0.3-2.3-0.6-2.3-2
			c0-1.2,1-1.9,2.2-1.9c0.6,0,1.1,0.1,1.5,0.6V6.8h1.1v1.7h-1.4c0-0.5-0.4-0.8-0.8-0.8c-0.4,0-0.8,0.2-0.8,0.7
			c0,0.6,0.6,0.7,1.1,0.8c1.2,0.3,2.4,0.6,2.4,2.1c0,1.3-1.1,2-2.3,2c-0.6,0-1.2-0.2-1.7-0.7v0.5h-1.1v-1.9H49.8z"/>
		<path fill="#FFFFFF" d="M55.2,8.2h-0.8V6.8h2.2v1c0.4-0.7,1-1.1,1.8-1.1c0.9,0,1.6,0.5,2,1.3c0.3-0.8,1.2-1.3,2.1-1.3
			c0.7,0,1.4,0.3,1.8,0.8c0.5,0.6,0.5,1.2,0.5,2v2.4h0.8v1.4h-3.1v-1.4h0.8V9.8c0-0.4,0-0.8-0.2-1.2c-0.2-0.3-0.6-0.5-1-0.5
			c-0.4,0-0.8,0.2-1.1,0.5c-0.3,0.4-0.3,0.7-0.3,1.2v2.1h0.8v1.4h-3.1v-1.4h0.8v-2c0-0.4,0-0.9-0.2-1.2c-0.2-0.4-0.6-0.6-1.1-0.6
			c-0.4,0-0.8,0.1-1,0.5c-0.3,0.4-0.3,0.8-0.3,1.3v2h0.8v1.4h-3.1v-1.4h0.8V8.2z"/>
		<path fill="#FFFFFF" d="M66.6,10c0-1.9,1.5-3.4,3.4-3.4c1.8,0,3.3,1.5,3.3,3.4c0,1.9-1.5,3.4-3.4,3.4C68.1,13.4,66.6,11.8,66.6,10
			z M71.9,10c0-1-0.8-2-1.9-2C68.9,8.1,68,8.9,68,10c0,1.1,0.8,2,1.9,2C71,11.9,71.9,11.1,71.9,10z"/>
		<path fill="#FFFFFF" d="M75.8,11.4c0,0.6,0.4,1,1,1c0.4,0,0.9-0.3,0.9-0.8c0-0.6-0.6-0.7-1.1-0.9c-1.1-0.3-2.3-0.6-2.3-2
			c0-1.2,1-1.9,2.2-1.9c0.6,0,1.1,0.1,1.5,0.6V6.8H79v1.7h-1.4c0-0.5-0.4-0.8-0.8-0.8c-0.4,0-0.8,0.2-0.8,0.7c0,0.6,0.6,0.7,1.1,0.8
			c1.2,0.3,2.4,0.6,2.4,2.1c0,1.3-1.1,2-2.3,2c-0.6,0-1.2-0.2-1.7-0.7v0.5h-1.1v-1.9H75.8z"/>
		<path fill="#FFFFFF" d="M86.8,11.9h0.8v1.4h-3.1v-1.4h0.8V8.2h-0.8V6.8h2.3V11.9z M86.8,6.2h-1.5V4.7h1.5V6.2z"/>
		<path fill="#FFFFFF" d="M89.5,8.2h-0.8V6.8H91v0.9c0.4-0.7,1.1-1.1,1.9-1.1c0.7,0,1.4,0.3,1.8,0.8c0.5,0.6,0.5,1.2,0.5,1.9v2.5
			h0.8v1.4H93v-1.4h0.8V9.8c0-0.4,0-0.8-0.3-1.2c-0.3-0.3-0.7-0.5-1.1-0.5c-0.4,0-0.9,0.2-1.2,0.5C91,9,91,9.6,91,10v1.9h0.8v1.4
			h-3.1v-1.4h0.8V8.2z"/>
		<path fill="#FFFFFF" d="M99.4,11.9h1.2v1.4h-2.6v-5h-1V6.8h1V4.7h1.5v2.2h1.1v1.4h-1.1V11.9z"/>
		<path fill="#FFFFFF" d="M108,11.3c-0.5,1.2-1.7,2.1-3,2.1c-1.9,0-3.4-1.5-3.4-3.3c0-1.9,1.4-3.4,3.3-3.4c0.9,0,1.8,0.4,2.4,1
			c0.6,0.7,0.9,1.5,0.9,2.4l0,0.5H103c0.2,0.9,1,1.5,1.9,1.5c0.6,0,1.2-0.2,1.5-0.8H108z M106.9,9.4c-0.3-0.9-1.1-1.5-2-1.5
			c-0.9,0-1.7,0.7-1.9,1.5H106.9z"/>
		<path fill="#FFFFFF" d="M111.4,7.9c0.4-0.8,1.1-1.1,1.9-1.2v1.5c-0.5,0-0.9,0.1-1.3,0.5c-0.5,0.4-0.6,0.9-0.6,1.5v1.6h0.8v1.4
			h-3.1v-1.4h0.8V8.2h-0.8V6.8h2.2V7.9z"/>
		<path fill="#FFFFFF" d="M115.7,8.2h-0.8V6.8h2.3v0.9c0.4-0.7,1.1-1.1,1.9-1.1c0.7,0,1.4,0.3,1.8,0.8c0.5,0.6,0.5,1.2,0.5,1.9v2.5
			h0.8v1.4h-3.1v-1.4h0.8V9.8c0-0.4,0-0.8-0.3-1.2c-0.3-0.3-0.7-0.5-1.1-0.5c-0.4,0-0.9,0.2-1.2,0.5c-0.3,0.4-0.3,0.9-0.3,1.3v1.9
			h0.8v1.4h-3.1v-1.4h0.8V8.2z"/>
		<path fill="#FFFFFF" d="M128.4,12.4c-0.5,0.7-1.2,1-2.1,1c-1.8,0-3.3-1.5-3.3-3.3c0-1.9,1.5-3.4,3.4-3.4c0.8,0,1.5,0.4,2,1.1V6.8
			h2.3v1.4h-0.8v3.7h0.8v1.4h-2.3V12.4z M128.4,10c0-1.1-0.9-1.9-1.9-1.9c-1.1,0-1.9,0.9-1.9,2c0,1,0.9,1.9,1.9,1.9
			C127.6,12,128.4,11.1,128.4,10z"/>
		<path fill="#FFFFFF" d="M138.1,11.1c-0.4,1.4-1.8,2.3-3.2,2.3c-1.9,0-3.4-1.5-3.4-3.4c0-1.8,1.4-3.4,3.2-3.4
			c0.7,0,1.4,0.3,1.8,0.8V6.8h1.3v2.1h-1.4c-0.2-0.3-0.4-0.5-0.7-0.6c-0.3-0.2-0.6-0.2-0.9-0.2c-1.1,0-1.9,0.9-1.9,1.9
			c0,1.1,0.9,1.9,1.9,1.9c0.6,0,1.3-0.3,1.5-0.9H138.1z"/>
		<path fill="#FFFFFF" d="M141.5,11.9h0.8v1.4h-3.1v-1.4h0.8V8.2h-0.8V6.8h2.3V11.9z M141.5,6.2h-1.5V4.7h1.5V6.2z"/>
		<path fill="#FFFFFF" d="M143.3,10c0-1.9,1.5-3.4,3.4-3.4c1.8,0,3.3,1.5,3.3,3.4c0,1.9-1.5,3.4-3.4,3.4
			C144.8,13.4,143.3,11.8,143.3,10z M148.6,10c0-1-0.8-2-1.9-2c-1.1,0-1.9,0.9-1.9,1.9c0,1.1,0.8,2,1.9,2
			C147.8,11.9,148.6,11.1,148.6,10z"/>
		<path fill="#FFFFFF" d="M151.8,8.2H151V6.8h2.3v0.9c0.4-0.7,1.1-1.1,1.9-1.1c0.7,0,1.4,0.3,1.8,0.8c0.5,0.6,0.5,1.2,0.5,1.9v2.5
			h0.8v1.4h-3.1v-1.4h0.8V9.8c0-0.4,0-0.8-0.3-1.2c-0.3-0.3-0.7-0.5-1.1-0.5c-0.4,0-0.9,0.2-1.2,0.5c-0.3,0.4-0.3,0.9-0.3,1.3v1.9
			h0.8v1.4H151v-1.4h0.8V8.2z"/>
		<path fill="#FFFFFF" d="M164.5,12.4c-0.5,0.7-1.2,1-2.1,1c-1.8,0-3.3-1.5-3.3-3.3c0-1.9,1.5-3.4,3.4-3.4c0.8,0,1.5,0.4,2,1.1V6.8
			h2.3v1.4H166v3.7h0.8v1.4h-2.3V12.4z M164.6,10c0-1.1-0.9-1.9-1.9-1.9c-1.1,0-1.9,0.9-1.9,2c0,1,0.9,1.9,1.9,1.9
			C163.7,12,164.6,11.1,164.6,10z"/>
		<path fill="#FFFFFF" d="M170.1,11.9h0.8v1.4h-3.2v-1.4h0.9V6h-0.8V4.7h2.3V11.9z"/>
		<path fill="#FFFFFF" d="M178.3,11.3c-0.5,1.2-1.7,2.1-3,2.1c-1.9,0-3.4-1.5-3.4-3.3c0-1.9,1.4-3.4,3.3-3.4c0.9,0,1.8,0.4,2.4,1
			c0.6,0.7,0.9,1.5,0.9,2.4l0,0.5h-5.2c0.2,0.9,1,1.5,1.9,1.5c0.6,0,1.2-0.2,1.5-0.8H178.3z M177.2,9.4c-0.3-0.9-1.1-1.5-2-1.5
			c-0.9,0-1.7,0.7-1.9,1.5H177.2z"/>
		<path fill="#FFFFFF" d="M181.1,11.4c0,0.6,0.4,1,1,1c0.4,0,0.9-0.3,0.9-0.8c0-0.6-0.6-0.7-1.1-0.9c-1.1-0.3-2.3-0.6-2.3-2
			c0-1.2,1-1.9,2.2-1.9c0.6,0,1.1,0.1,1.5,0.6V6.8h1.1v1.7h-1.4c0-0.5-0.4-0.8-0.8-0.8c-0.4,0-0.8,0.2-0.8,0.7
			c0,0.6,0.6,0.7,1.1,0.8c1.2,0.3,2.4,0.6,2.4,2.1c0,1.3-1.1,2-2.3,2c-0.6,0-1.2-0.2-1.7-0.7v0.5h-1.1v-1.9H181.1z"/>
		<path fill="#FFFFFF" d="M53.4,18.7h-0.8v-1.4h2.3v1c0.5-0.7,1.2-1.1,2.1-1.1c1.8,0,3.3,1.5,3.3,3.3c0,1.8-1.4,3.3-3.2,3.3
			c-0.8,0-1.7-0.3-2.2-1v1.9h0.8v1.4h-3.1v-1.4h0.8V18.7z M58.7,20.5c0-1-0.8-2-1.9-2c-1.1,0-2,0.8-2,1.9c0,1.1,0.9,1.9,1.9,1.9
			C57.8,22.5,58.7,21.6,58.7,20.5z"/>
		<path fill="#FFFFFF" d="M66.4,22.9c-0.5,0.7-1.2,1-2.1,1c-1.8,0-3.3-1.5-3.3-3.3c0-1.9,1.5-3.4,3.4-3.4c0.8,0,1.5,0.4,2,1.1v-0.9
			h2.3v1.4h-0.8v3.7h0.8v1.4h-2.3V22.9z M66.4,20.5c0-1.1-0.9-1.9-1.9-1.9c-1.1,0-1.9,0.9-1.9,2c0,1,0.9,1.9,1.9,1.9
			C65.6,22.5,66.4,21.6,66.4,20.5z"/>
		<path fill="#FFFFFF" d="M71.8,18.4c0.4-0.8,1.1-1.1,1.9-1.2v1.5c-0.5,0-0.9,0.1-1.3,0.5c-0.5,0.4-0.6,0.9-0.6,1.5v1.6h0.8v1.4
			h-3.1v-1.4h0.8v-3.7h-0.8v-1.4h2.2V18.4z"/>
		<path fill="#FFFFFF" d="M77.2,22.4h1.2v1.4h-2.6v-5h-1v-1.4h1v-2.2h1.5v2.2h1.1v1.4h-1.1V22.4z"/>
		<path fill="#FFFFFF" d="M81.8,22.4h0.8v1.4h-3.1v-1.4h0.8v-3.7h-0.8v-1.4h2.3V22.4z M81.8,16.7h-1.5v-1.5h1.5V16.7z"/>
		<path fill="#FFFFFF" d="M90.1,21.6c-0.4,1.4-1.8,2.3-3.2,2.3c-1.9,0-3.4-1.5-3.4-3.4c0-1.8,1.4-3.4,3.2-3.4c0.7,0,1.4,0.3,1.8,0.8
			v-0.6h1.3v2.1h-1.4c-0.2-0.3-0.4-0.5-0.7-0.6c-0.3-0.2-0.6-0.2-0.9-0.2c-1.1,0-1.9,0.9-1.9,1.9c0,1.1,0.9,1.9,1.9,1.9
			c0.6,0,1.3-0.3,1.5-0.9H90.1z"/>
		<path fill="#FFFFFF" d="M93.5,22.4h0.8v1.4h-3.1v-1.4h0.8v-3.7h-0.8v-1.4h2.3V22.4z M93.5,16.7h-1.5v-1.5h1.5V16.7z"/>
		<path fill="#FFFFFF" d="M96.2,18.7h-0.8v-1.4h2.3v1c0.5-0.7,1.2-1.1,2.1-1.1c1.8,0,3.3,1.5,3.3,3.3c0,1.8-1.4,3.3-3.2,3.3
			c-0.8,0-1.7-0.3-2.2-1v1.9h0.8v1.4h-3.1v-1.4h0.8V18.7z M101.5,20.5c0-1-0.8-2-1.9-2c-1.1,0-2,0.8-2,1.9c0,1.1,0.9,1.9,1.9,1.9
			C100.7,22.5,101.5,21.6,101.5,20.5z"/>
		<path fill="#FFFFFF" d="M109.2,22.9c-0.5,0.7-1.2,1-2.1,1c-1.8,0-3.3-1.5-3.3-3.3c0-1.9,1.5-3.4,3.4-3.4c0.8,0,1.5,0.4,2,1.1v-0.9
			h2.3v1.4h-0.8v3.7h0.8v1.4h-2.3V22.9z M109.2,20.5c0-1.1-0.9-1.9-1.9-1.9c-1.1,0-1.9,0.9-1.9,2c0,1,0.9,1.9,1.9,1.9
			C108.4,22.5,109.2,21.6,109.2,20.5z"/>
		<path fill="#FFFFFF" d="M113.3,18.7h-0.8v-1.4h2.3v0.9c0.4-0.7,1.1-1.1,1.9-1.1c0.7,0,1.4,0.3,1.8,0.8c0.5,0.6,0.5,1.2,0.5,1.9
			v2.5h0.8v1.4h-3.1v-1.4h0.8v-2.1c0-0.4,0-0.8-0.3-1.2c-0.3-0.3-0.7-0.5-1.1-0.5c-0.4,0-0.9,0.2-1.2,0.5c-0.3,0.4-0.3,0.9-0.3,1.3
			v1.9h0.8v1.4h-3.1v-1.4h0.8V18.7z"/>
		<path fill="#FFFFFF" d="M123.1,22.4h1.2v1.4h-2.6v-5h-1v-1.4h1v-2.2h1.5v2.2h1.1v1.4h-1.1V22.4z"/>
		<path fill="#FFFFFF" d="M131.7,21.8c-0.5,1.2-1.7,2.1-3,2.1c-1.9,0-3.4-1.5-3.4-3.3c0-1.9,1.4-3.4,3.3-3.4c0.9,0,1.8,0.4,2.4,1
			c0.6,0.7,0.9,1.5,0.9,2.4l0,0.5h-5.2c0.2,0.9,1,1.5,1.9,1.5c0.6,0,1.2-0.2,1.5-0.8H131.7z M130.6,19.9c-0.3-0.9-1.1-1.5-2-1.5
			c-0.9,0-1.7,0.7-1.9,1.5H130.6z"/>
		<path fill="#FFFFFF" d="M134.5,21.9c0,0.6,0.4,1,1,1c0.4,0,0.9-0.3,0.9-0.8c0-0.6-0.6-0.7-1.1-0.9c-1.1-0.3-2.3-0.6-2.3-2
			c0-1.2,1-1.9,2.2-1.9c0.6,0,1.1,0.1,1.5,0.6v-0.4h1.1v1.7h-1.4c0-0.5-0.4-0.8-0.8-0.8c-0.4,0-0.8,0.2-0.8,0.7
			c0,0.6,0.6,0.7,1.1,0.8c1.2,0.3,2.4,0.6,2.4,2.1c0,1.3-1.1,2-2.3,2c-0.6,0-1.2-0.2-1.7-0.7v0.5H133v-1.9H134.5z"/>
	</g>
</g>
</svg>
