<?xml version="1.0" encoding="utf-8"?>
<!-- Generator: Adobe Illustrator 18.0.0, SVG Export Plug-In . SVG Version: 6.00 Build 0)  -->
<!DOCTYPE svg PUBLIC "-//W3C//DTD SVG 1.1//EN" "http://www.w3.org/Graphics/SVG/1.1/DTD/svg11.dtd">
<svg version="1.1" xmlns="http://www.w3.org/2000/svg" xmlns:xlink="http://www.w3.org/1999/xlink" x="0px" y="0px"
	 viewBox="0 0 204 256" enable-background="new 0 0 204 256" xml:space="preserve">
<g id="Capa_1">
</g>
<g id="Capa_2">
	<g>
		<g>
			<path fill="#DDDB1C" d="M104.8,246.5c55.6,0,93.1-28,93.1-72.4c0-34-22.1-55.1-65.3-68.7C93,93.2,84.2,89.7,84.2,83.8
				c0-5.4,4.5-8.2,18.8-8.2c25.1,0,60.8,9.8,81.3,22.4V35c-18.4-9.1-42.6-17.6-76.5-17.6c-53.5,0-91,21.7-91,68.3
				c0,40.3,30.5,58.6,69.5,70.6c32.7,10.1,44.2,14.5,44.2,21.1c0,8.2-10.9,10.4-24.5,10.4c-27.8,0-69.5-13.5-89.1-30.9v66.1
				C44,240.9,73.6,246.5,104.8,246.5"/>
		</g>
	</g>
</g>
</svg>
