<?xml version="1.0" encoding="utf-8"?>
<!-- Generator: Adobe Illustrator 18.0.0, SVG Export Plug-In . SVG Version: 6.00 Build 0)  -->
<!DOCTYPE svg PUBLIC "-//W3C//DTD SVG 1.1//EN" "http://www.w3.org/Graphics/SVG/1.1/DTD/svg11.dtd">
<svg version="1.1" xmlns="http://www.w3.org/2000/svg" xmlns:xlink="http://www.w3.org/1999/xlink" x="0px" y="0px"
	 viewBox="0 0 95.3 28.2" enable-background="new 0 0 95.3 28.2" xml:space="preserve">
<g id="Capa_1">
</g>
<g id="Capa_2">
	<g>
		<path fill="#FFFFFF" d="M34.6,10.2c0,0.8,0.5,1.4,1.4,1.4c0.8,0,1.3-0.5,1.3-1.3c0-0.9-0.9-1.1-1.6-1.3c-0.7-0.2-1.2-0.4-1.8-0.8
			c-0.7-0.5-1-1.2-1-2c0-1.5,1.3-2.6,2.8-2.6c0.6,0,1.2,0.2,1.6,0.7V3.8h1.3v2.5h-1.6c0-0.7-0.5-1.2-1.2-1.2s-1.2,0.4-1.2,1.1
			c0,0.9,0.8,1.1,1.5,1.3c0.7,0.2,1.4,0.4,2,0.8c0.6,0.5,0.9,1.2,0.9,1.9c0,1.6-1.2,2.9-2.9,2.9c-0.7,0-1.3-0.2-1.8-0.8v0.6H33v-2.7
			H34.6z"/>
		<path fill="#FFFFFF" d="M46.3,10.9c-0.5,1.3-1.8,2.2-3.2,2.2c-2,0-3.6-1.6-3.6-3.6c0-2,1.5-3.6,3.6-3.6C44,5.9,45,6.3,45.6,7
			c0.7,0.7,1,1.6,1,2.6l-0.1,0.5H41c0.2,0.9,1.1,1.6,2,1.6c0.7,0,1.3-0.3,1.6-0.8H46.3z M45.1,8.9c-0.3-1-1.1-1.6-2.1-1.6
			c-0.9,0-1.8,0.7-2,1.6H45.1z"/>
		<path fill="#FFFFFF" d="M52.6,11.9c-0.5,0.8-1.3,1.1-2.2,1.1c-1.9,0-3.5-1.6-3.5-3.5c0-1.9,1.5-3.5,3.5-3.5c0.9,0,1.7,0.4,2.3,1.1
			V5.2h-0.9V3.8h2.5v7.7h0.9v1.5h-2.4V11.9z M52.7,9.5c0-1.1-0.9-2-2-2c-1.2,0-2.1,0.9-2.1,2.1c0,1.1,0.9,2.1,2.1,2.1
			C51.8,11.6,52.7,10.6,52.7,9.5z"/>
		<path fill="#FFFFFF" d="M62.2,10.9c-0.5,1.3-1.8,2.2-3.2,2.2c-2,0-3.6-1.6-3.6-3.6c0-2,1.5-3.6,3.6-3.6c0.9,0,1.9,0.4,2.6,1.1
			c0.7,0.7,1,1.6,1,2.6l-0.1,0.5h-5.5c0.2,0.9,1.1,1.6,2,1.6c0.7,0,1.3-0.3,1.6-0.8H62.2z M61,8.9c-0.3-1-1.1-1.6-2.1-1.6
			c-0.9,0-1.8,0.7-2,1.6H61z"/>
	</g>
</g>
</svg>
