<?xml version="1.0" encoding="utf-8"?>
<!-- Generator: Adobe Illustrator 18.0.0, SVG Export Plug-In . SVG Version: 6.00 Build 0)  -->
<!DOCTYPE svg PUBLIC "-//W3C//DTD SVG 1.1//EN" "http://www.w3.org/Graphics/SVG/1.1/DTD/svg11.dtd">
<svg version="1.1" xmlns="http://www.w3.org/2000/svg" xmlns:xlink="http://www.w3.org/1999/xlink" x="0px" y="0px"
	 viewBox="0 0 490 33" enable-background="new 0 0 490 33" xml:space="preserve">
<g id="Capa_1">
</g>
<g id="Capa_2">
	<g>
		<path fill="#211915" d="M245.3,9.1v2.3h1.5v9.7h-1.5v2.3h5.8v-2.3h-1.6v-2.7h2c1.4,0,2.6-0.3,3.6-1.3c0.9-0.9,1.4-2.1,1.4-3.4
			c0-1.5-0.6-2.8-1.8-3.7c-1.1-0.8-2.5-0.9-3.8-0.9H245.3z M249.5,16v-4.4h1.5c0.7,0,1.3,0,1.8,0.4c0.6,0.4,0.9,1,0.9,1.7
			c0,0.7-0.3,1.3-0.8,1.7c-0.5,0.5-1.2,0.5-1.8,0.5H249.5z"/>
		<path fill="#B9007C" d="M270.8,12.7h-3.6V15h1.4v6.1h-1.4v2.3h5.2v-2.3H271v-2.7c0-1,0.1-1.9,0.9-2.5c0.6-0.5,1.3-0.7,2.1-0.8
			v-2.5c-1.4,0.1-2.6,0.7-3.2,1.9V12.7z"/>
		<path fill="#211915" d="M292.9,20.2c-0.6,0.9-1.5,1.3-2.6,1.3c-1.5,0-2.9-1.1-3.2-2.6h8.6l0.1-0.9c0-1.5-0.4-2.9-1.5-4
			c-1-1.1-2.5-1.7-4-1.7c-3.2,0-5.6,2.5-5.6,5.7c0,3.1,2.5,5.6,5.6,5.6c2.2,0,4.2-1.4,5-3.4H292.9z M287.1,17.1
			c0.3-1.4,1.7-2.5,3.1-2.5c1.6,0,2.9,1,3.4,2.5H287.1z"/>
		<path fill="#B9007C" d="M306.6,20.3v3.1h1.9v-0.9c0.7,0.8,1.7,1.2,2.8,1.2c2,0,3.8-1.2,3.8-3.4c0-2.4-2.1-3-4-3.4
			c-0.8-0.2-1.8-0.4-1.8-1.4c0-0.7,0.7-1.1,1.4-1.1c0.8,0,1.3,0.5,1.4,1.3h2.4v-2.9h-1.8v0.7c-0.6-0.8-1.5-1-2.4-1
			c-1.9,0-3.6,1.2-3.6,3.2c0,2.3,2,2.9,3.9,3.4c0.8,0.2,1.8,0.4,1.8,1.5c0,0.8-0.7,1.3-1.5,1.3c-1,0-1.6-0.6-1.7-1.6H306.6z"/>
		<path fill="#211915" d="M333.7,20.2c-0.6,0.9-1.5,1.3-2.6,1.3c-1.5,0-2.9-1.1-3.2-2.6h8.6l0.1-0.9c0-1.5-0.4-2.9-1.5-4
			c-1-1.1-2.5-1.7-4-1.7c-3.2,0-5.6,2.5-5.6,5.7c0,3.1,2.5,5.6,5.6,5.6c2.2,0,4.2-1.4,5-3.4H333.7z M327.9,17.1
			c0.3-1.4,1.7-2.5,3.1-2.5c1.6,0,2.9,1,3.4,2.5H327.9z"/>
		<path fill="#B9007C" d="M348.7,21.1h-1.4v2.3h5.2v-2.3h-1.4V18c0-0.7,0-1.6,0.5-2.2c0.4-0.6,1.2-0.9,1.9-0.9
			c0.7,0,1.4,0.3,1.9,0.9c0.4,0.6,0.4,1.3,0.4,1.9v3.5h-1.4v2.3h5.2v-2.3h-1.4v-4.2c0-1.2,0-2.2-0.9-3.1c-0.8-0.8-1.9-1.3-3.1-1.3
			c-1.3,0-2.5,0.6-3.2,1.8v-1.5h-3.8V15h1.4V21.1z"/>
		<polygon fill="#211915" points="374.1,15 375.9,15 375.9,12.7 374.1,12.7 374.1,9.1 371.7,9.1 371.7,12.7 370,12.7 370,15 
			371.7,15 371.7,23.4 376,23.4 376,21.1 374.1,21.1 		"/>
		<path fill="#B9007C" d="M395.7,23.4h3.8v-2.3h-1.3V15h1.3v-2.3h-3.8v1.5c-0.7-1.2-1.9-1.8-3.3-1.8c-3.1,0-5.6,2.6-5.6,5.7
			c0,3,2.4,5.6,5.5,5.6c1.4,0,2.7-0.5,3.4-1.7V23.4z M392.5,21.3c-1.7,0-3.2-1.4-3.2-3.2c0-1.8,1.4-3.3,3.2-3.3
			c1.8,0,3.2,1.4,3.2,3.2C395.7,19.8,394.3,21.3,392.5,21.3"/>
		<path fill="#211915" d="M418.2,19.8c-0.5,0.9-1.5,1.5-2.6,1.5c-1.8,0-3.2-1.4-3.2-3.2c0-1.8,1.3-3.2,3.2-3.2
			c0.5,0,1.1,0.1,1.5,0.4c0.4,0.3,0.8,0.6,1.1,1.1h2.3v-3.6h-2.1v1c-0.8-0.9-1.9-1.3-3.1-1.3c-3,0-5.4,2.7-5.4,5.7
			c0,3.1,2.5,5.6,5.6,5.6c2.3,0,4.6-1.6,5.3-3.9H418.2z"/>
		<path fill="#B9007C" d="M435.6,12.7h-3.8V15h1.4v6.1h-1.4v2.3h5.2v-2.3h-1.4V12.7z M435.6,9.1h-2.4v2.6h2.4V9.1z"/>
		<path fill="#211915" d="M453.2,23.7c3.1,0,5.6-2.6,5.6-5.7c0-3-2.5-5.6-5.6-5.6c-3.1,0-5.6,2.5-5.6,5.6
			C447.6,21.1,450,23.7,453.2,23.7 M453.2,21.3c-1.8,0-3.2-1.5-3.2-3.3c0-1.8,1.5-3.2,3.2-3.2c1.8,0,3.2,1.5,3.2,3.3
			C456.4,19.8,454.9,21.3,453.2,21.3 M450.8,11.4l5.5-2.6l-1.1-2.1l-5.3,3L450.8,11.4z"/>
		<path fill="#B9007C" d="M470.7,21.1h-1.4v2.3h5.2v-2.3h-1.4V18c0-0.7,0-1.6,0.5-2.2c0.4-0.6,1.2-0.9,1.9-0.9
			c0.7,0,1.4,0.3,1.9,0.9c0.4,0.6,0.4,1.3,0.4,1.9v3.5h-1.4v2.3h5.2v-2.3h-1.4v-4.2c0-1.2,0-2.2-0.9-3.1c-0.8-0.8-1.9-1.3-3.1-1.3
			c-1.3,0-2.5,0.6-3.2,1.8v-1.5h-3.8V15h1.4V21.1z"/>
	</g>
	<rect x="0" y="0" fill="none" width="490" height="33"/>
</g>
</svg>
