<?xml version="1.0" encoding="utf-8"?>
<!-- Generator: Adobe Illustrator 18.0.0, SVG Export Plug-In . SVG Version: 6.00 Build 0)  -->
<!DOCTYPE svg PUBLIC "-//W3C//DTD SVG 1.1//EN" "http://www.w3.org/Graphics/SVG/1.1/DTD/svg11.dtd">
<svg version="1.1" xmlns="http://www.w3.org/2000/svg" xmlns:xlink="http://www.w3.org/1999/xlink" x="0px" y="0px"
	 viewBox="0 0 490 33" enable-background="new 0 0 490 33" xml:space="preserve">
<g id="Capa_1">
</g>
<g id="Capa_2">
	<path fill="#211915" d="M180.3,3.4v4.4h2.9v18.6h-2.9v4.4h11.1v-4.4h-3v-5.1h3.7c2.8,0,5-0.5,7-2.5c1.7-1.7,2.6-4,2.6-6.4
		c0-2.8-1.1-5.4-3.4-7.1c-2-1.5-4.8-1.8-7.3-1.8H180.3z M188.5,16.5V8.1h2.9c1.3,0,2.4,0,3.5,0.8c1.1,0.7,1.7,2,1.7,3.3
		c0,1.3-0.5,2.5-1.5,3.3c-1,0.9-2.2,0.9-3.5,0.9H188.5z"/>
	<path fill="#DDDB1C" d="M231.5,31.3c8,0,14.3-6.5,14.3-14.5c0-7.8-6.5-14.1-14.2-14.1c-8,0-14.4,6.3-14.4,14.3
		C217.2,24.9,223.6,31.3,231.5,31.3 M231.5,26c-5,0-9-4.1-9-9.2c0-5,4.1-9,9-9c4.9,0,8.9,4.1,8.9,9C240.5,21.9,236.6,26,231.5,26"/>
	<polygon fill="#211915" points="287,7.7 289.9,7.7 289.9,3.4 278.8,3.4 278.8,7.7 281.8,7.7 281.8,21.7 268.7,3.4 261.1,3.4 
		261.1,7.7 264,7.7 264,26.3 261.1,26.3 261.1,30.7 272.2,30.7 272.2,26.3 269.2,26.3 269.2,12.7 282.1,30.7 287,30.7 	"/>
	<polygon fill="#DDDB1C" points="305.7,30.7 325.9,30.7 325.9,22.4 320.7,22.4 320.7,26.1 313.9,26.1 313.9,18.9 321.9,18.9 
		321.9,14.8 313.9,14.8 313.9,8 320.7,8 320.7,11.6 325.9,11.6 325.9,3.4 305.7,3.4 305.7,7.7 308.7,7.7 308.7,26.3 305.7,26.3 	"/>
	<polygon fill="#211915" points="367.8,7.7 370.7,7.7 370.7,3.4 359.6,3.4 359.6,7.7 362.6,7.7 362.6,21.7 349.6,3.4 341.9,3.4 
		341.9,7.7 344.8,7.7 344.8,26.3 341.9,26.3 341.9,30.7 353,30.7 353,26.3 350.1,26.3 350.1,12.7 362.9,30.7 367.8,30.7 	"/>
	<polygon fill="#DDDB1C" points="399.8,8 403.8,8 403.8,12 407.9,12 407.9,3.4 386.4,3.4 386.4,12 390.6,12 390.6,8 394.6,8 
		394.6,26.3 391.6,26.3 391.6,30.7 402.8,30.7 402.8,26.3 399.8,26.3 	"/>
	<polygon fill="#211915" points="423.5,30.7 443.7,30.7 443.7,22.4 438.5,22.4 438.5,26.1 431.7,26.1 431.7,18.9 439.6,18.9 
		439.6,14.8 431.7,14.8 431.7,8 438.5,8 438.5,11.6 443.7,11.6 443.7,3.4 423.5,3.4 423.5,7.7 426.5,7.7 426.5,26.3 423.5,26.3 	"/>
	<path fill="#DDDB1C" d="M459.8,22.6v8.1h4.1v-1.8c1.3,1.6,3.1,2.3,5.2,2.3c5,0,8.6-3.6,8.6-8.6c0-2.3-1-4.3-2.7-5.7
		c-1.8-1.3-3.7-1.9-5.9-2.5c-2.1-0.6-4.5-1.2-4.5-3.9c0-2.1,1.7-3.4,3.7-3.4c2,0,3.5,1.5,3.6,3.6h4.7V3.4h-4v1.5
		c-1.1-1.5-3-2.1-4.9-2.1c-4.4,0-8.3,3.4-8.3,7.9c0,2.4,1,4.5,3,6c1.7,1.3,3.4,1.8,5.4,2.3c2.1,0.6,4.7,1.3,4.7,4
		c0,2.3-1.8,3.7-4,3.7c-2.5,0-4.1-1.9-4.1-4.2H459.8z"/>
	<path fill="#B9007C" d="M231.6,22.7c3.1,0,5.7-2.5,5.7-5.7c0-3.1-2.5-5.7-5.7-5.7c-3.1,0-5.7,2.5-5.7,5.7
		C225.9,20.2,228.4,22.7,231.6,22.7"/>
	<rect x="0" fill="none" width="490" height="33"/>
</g>
</svg>
