<?xml version="1.0" encoding="utf-8"?>
<!-- Generator: Adobe Illustrator 18.0.0, SVG Export Plug-In . SVG Version: 6.00 Build 0)  -->
<!DOCTYPE svg PUBLIC "-//W3C//DTD SVG 1.1//EN" "http://www.w3.org/Graphics/SVG/1.1/DTD/svg11.dtd">
<svg version="1.1" xmlns="http://www.w3.org/2000/svg" xmlns:xlink="http://www.w3.org/1999/xlink" x="0px" y="0px"
	 viewBox="0 0 490 33" enable-background="new 0 0 490 33" xml:space="preserve">
<g id="Capa_1">
</g>
<g id="Capa_2">
	<g>
		<polygon fill="#211915" points="12.4,22.5 23,22.5 23,18.2 20.2,18.2 20.2,20.1 16.7,20.1 16.7,16.3 20.8,16.3 20.8,14.2 
			16.7,14.2 16.7,10.6 20.2,10.6 20.2,12.5 23,12.5 23,8.2 12.4,8.2 12.4,10.5 13.9,10.5 13.9,20.2 12.4,20.2 		"/>
		<path fill="#B9007C" d="M34,19.4v3.1h1.9v-0.9c0.7,0.8,1.7,1.2,2.8,1.2c2,0,3.8-1.2,3.8-3.4c0-2.4-2.1-3-4-3.4
			c-0.8-0.2-1.8-0.4-1.8-1.4c0-0.7,0.7-1.1,1.4-1.1c0.8,0,1.3,0.5,1.4,1.3h2.4v-2.9H40v0.7c-0.6-0.8-1.5-1-2.4-1
			c-1.9,0-3.6,1.2-3.6,3.2c0,2.3,2,2.9,3.9,3.4c0.8,0.2,1.8,0.4,1.8,1.5c0,0.8-0.7,1.3-1.5,1.3c-1,0-1.6-0.6-1.7-1.6H34z"/>
		<polygon fill="#211915" points="57.1,14.1 58.9,14.1 58.9,11.8 57.1,11.8 57.1,8.2 54.7,8.2 54.7,11.8 53,11.8 53,14.1 54.7,14.1 
			54.7,22.5 59,22.5 59,20.2 57.1,20.2 		"/>
		<path fill="#B9007C" d="M73.5,11.8h-3.6v2.3h1.4v6.1h-1.4v2.3h5.2v-2.3h-1.4v-2.7c0-1,0.1-1.9,0.9-2.5c0.6-0.5,1.3-0.7,2.1-0.8
			v-2.5c-1.4,0.1-2.6,0.7-3.2,1.9V11.8z"/>
		<path fill="#211915" d="M98.1,11.8h-3.8v2.3h1.4v3.4c0,0.7,0,1.5-0.5,2.1c-0.4,0.5-1.1,0.9-1.8,0.9c-0.7,0-1.4-0.3-1.8-0.9
			c-0.4-0.6-0.4-1.3-0.4-2v-5.8h-3.8v2.3h1.4v4.2c0,1.2,0.2,2.2,0.9,3.1c0.7,0.9,1.8,1.4,3,1.4c1.2,0,2.5-0.6,3.2-1.6v1.3h3.6v-2.3
			h-1.4V11.8z"/>
		<path fill="#B9007C" d="M118.4,18.9c-0.5,0.9-1.5,1.5-2.6,1.5c-1.8,0-3.2-1.4-3.2-3.2c0-1.8,1.3-3.2,3.2-3.2
			c0.5,0,1.1,0.1,1.5,0.4c0.4,0.3,0.8,0.6,1.1,1.1h2.3v-3.6h-2.1v1c-0.8-0.9-1.9-1.3-3.1-1.3c-3,0-5.4,2.7-5.4,5.7
			c0,3.1,2.5,5.6,5.6,5.6c2.3,0,4.6-1.6,5.3-3.9H118.4z"/>
		<polygon fill="#211915" points="135.9,14.1 137.7,14.1 137.7,11.8 135.9,11.8 135.9,8.2 133.5,8.2 133.5,11.8 131.8,11.8 
			131.8,14.1 133.5,14.1 133.5,22.5 137.8,22.5 137.8,20.2 135.9,20.2 		"/>
		<path fill="#B9007C" d="M159.3,11.8h-3.8v2.3h1.4v3.4c0,0.7,0,1.5-0.5,2.1c-0.4,0.5-1.1,0.9-1.8,0.9c-0.7,0-1.4-0.3-1.8-0.9
			c-0.4-0.6-0.4-1.3-0.4-2v-5.8h-3.8v2.3h1.4v4.2c0,1.2,0.2,2.2,0.9,3.1c0.7,0.9,1.8,1.4,3,1.4c1.2,0,2.5-0.6,3.2-1.6v1.3h3.6v-2.3
			h-1.4V11.8z"/>
		<path fill="#211915" d="M175.1,11.8h-3.6v2.3h1.4v6.1h-1.4v2.3h5.2v-2.3h-1.4v-2.7c0-1,0.1-1.9,0.9-2.5c0.6-0.5,1.3-0.7,2.1-0.8
			v-2.5c-1.4,0.1-2.6,0.7-3.2,1.9V11.8z"/>
		<path fill="#B9007C" d="M197.9,22.5h3.8v-2.3h-1.3v-6.1h1.3v-2.3h-3.8v1.5c-0.7-1.2-1.9-1.8-3.3-1.8c-3.1,0-5.6,2.6-5.6,5.7
			c0,3,2.4,5.6,5.5,5.6c1.4,0,2.7-0.5,3.4-1.7V22.5z M194.7,20.4c-1.7,0-3.2-1.4-3.2-3.2c0-1.8,1.4-3.3,3.2-3.3
			c1.8,0,3.2,1.4,3.2,3.2C197.9,18.9,196.5,20.4,194.7,20.4"/>
		<path fill="#211915" d="M247.1,22.5h3.8v-2.3h-1.4v-12h-3.8v2.3h1.4v2.9c-0.8-1.1-2.2-1.7-3.5-1.7c-3,0-5.4,2.5-5.4,5.5
			c0,3,2.5,5.5,5.4,5.5c1.4,0,2.7-0.6,3.5-1.8V22.5z M243.9,20.4c-1.8,0-3.2-1.5-3.2-3.2c0-1.8,1.4-3.3,3.3-3.3
			c1.7,0,3.2,1.4,3.2,3.2C247.2,18.9,245.8,20.4,243.9,20.4"/>
		<path fill="#B9007C" d="M269.5,19.3c-0.6,0.9-1.5,1.3-2.6,1.3c-1.5,0-2.9-1.1-3.2-2.6h8.6l0.1-0.9c0-1.5-0.4-2.9-1.5-4
			c-1-1.1-2.5-1.7-4-1.7c-3.2,0-5.6,2.5-5.6,5.7c0,3.1,2.5,5.6,5.6,5.6c2.2,0,4.2-1.4,5-3.4H269.5z M263.7,16.2
			c0.3-1.4,1.7-2.5,3.1-2.5c1.6,0,2.9,1,3.4,2.5H263.7z"/>
		<polygon fill="#211915" points="287,8.2 283.2,8.2 283.2,10.5 284.6,10.5 284.6,20.2 283.1,20.2 283.1,22.5 288.4,22.5 
			288.4,20.2 287,20.2 		"/>
		<path fill="#B9007C" d="M325.2,19.4v3.1h1.9v-0.9c0.7,0.8,1.7,1.2,2.8,1.2c2,0,3.8-1.2,3.8-3.4c0-2.4-2.1-3-4-3.4
			c-0.8-0.2-1.8-0.4-1.8-1.4c0-0.7,0.7-1.1,1.4-1.1c0.8,0,1.3,0.5,1.4,1.3h2.4v-2.9h-1.8v0.7c-0.6-0.8-1.5-1-2.4-1
			c-1.9,0-3.6,1.2-3.6,3.2c0,2.3,2,2.9,3.9,3.4c0.8,0.2,1.8,0.4,1.8,1.5c0,0.8-0.7,1.3-1.5,1.3c-1,0-1.6-0.6-1.7-1.6H325.2z"/>
		<path fill="#211915" d="M348.2,11.8h-3.8v2.3h1.4v6.1h-1.4v2.3h5.2v-2.3h-1.4V11.8z M345.7,8.2v2.6h2.4V8.2H345.7z"/>
		<path fill="#B9007C" d="M361.7,20.2h-1.4v2.3h5.2v-2.3h-1.4v-3.3c0-0.8,0-1.5,0.6-2.2c0.4-0.5,1-0.8,1.7-0.8c0.7,0,1.4,0.3,1.8,1
			c0.3,0.6,0.3,1.4,0.3,2v3.3h-1.4v2.3h5.2v-2.3H371v-3.4c0-0.8,0-1.4,0.5-2c0.4-0.5,1.1-0.8,1.8-0.8c0.7,0,1.3,0.3,1.7,0.9
			c0.3,0.6,0.3,1.2,0.3,1.9v3.4h-1.4v2.3h5.2v-2.3h-1.4v-4c0-1.2,0-2.3-0.8-3.3c-0.8-0.9-1.9-1.4-3.1-1.4c-1.5,0-2.9,0.9-3.5,2.2
			c-0.6-1.3-1.8-2.2-3.3-2.2c-1.4,0-2.4,0.7-3.1,1.9v-1.6h-3.6v2.3h1.4V20.2z"/>
		<path fill="#211915" d="M391.2,24.1h-1.4v2.3h5.2v-2.3h-1.4V21c0.9,1.1,2.2,1.7,3.6,1.7c3,0,5.3-2.5,5.3-5.5c0-3-2.4-5.5-5.4-5.5
			c-1.4,0-2.7,0.6-3.5,1.8v-1.7h-3.8v2.3h1.4V24.1z M396.9,20.4c-1.8,0-3.2-1.4-3.2-3.2c0-1.8,1.5-3.2,3.3-3.2
			c1.8,0,3.2,1.5,3.2,3.3C400.1,18.9,398.7,20.4,396.9,20.4"/>
		<path fill="#B9007C" d="M418.6,22.8c3.1,0,5.6-2.6,5.6-5.7c0-3-2.5-5.6-5.6-5.6c-3.1,0-5.6,2.5-5.6,5.6
			C413,20.2,415.4,22.8,418.6,22.8 M418.6,20.4c-1.8,0-3.2-1.5-3.2-3.3c0-1.8,1.5-3.2,3.2-3.2c1.8,0,3.2,1.5,3.2,3.3
			C421.8,18.9,420.3,20.4,418.6,20.4"/>
		<path fill="#211915" d="M434.8,19.4v3.1h1.9v-0.9c0.7,0.8,1.7,1.2,2.8,1.2c2,0,3.8-1.2,3.8-3.4c0-2.4-2.1-3-4-3.4
			c-0.8-0.2-1.8-0.4-1.8-1.4c0-0.7,0.7-1.1,1.4-1.1c0.8,0,1.3,0.5,1.4,1.3h2.4v-2.9h-1.8v0.7c-0.6-0.8-1.5-1-2.4-1
			c-1.9,0-3.6,1.2-3.6,3.2c0,2.3,2,2.9,3.9,3.4c0.8,0.2,1.8,0.4,1.8,1.5c0,0.8-0.7,1.3-1.5,1.3c-1,0-1.6-0.6-1.7-1.6H434.8z"/>
		<path fill="#B9007C" d="M457.8,11.8h-3.8v2.3h1.4v6.1h-1.4v2.3h5.2v-2.3h-1.4V11.8z M455.3,8.2v2.6h2.4V8.2H455.3z"/>
		<path fill="#211915" d="M475.4,22.8c3.1,0,5.6-2.6,5.6-5.7c0-3-2.5-5.6-5.6-5.6c-3.1,0-5.6,2.5-5.6,5.6
			C469.8,20.2,472.2,22.8,475.4,22.8 M475.4,20.4c-1.8,0-3.2-1.5-3.2-3.3c0-1.8,1.5-3.2,3.2-3.2c1.8,0,3.2,1.5,3.2,3.3
			C478.6,18.9,477.1,20.4,475.4,20.4"/>
	</g>
	<rect x="0" fill="none" width="490" height="33"/>
</g>
</svg>
