<?xml version="1.0" encoding="utf-8"?>
<!-- Generator: Adobe Illustrator 18.0.0, SVG Export Plug-In . SVG Version: 6.00 Build 0)  -->
<!DOCTYPE svg PUBLIC "-//W3C//DTD SVG 1.1//EN" "http://www.w3.org/Graphics/SVG/1.1/DTD/svg11.dtd">
<svg version="1.1" xmlns="http://www.w3.org/2000/svg" xmlns:xlink="http://www.w3.org/1999/xlink" x="0px" y="0px"
	 viewBox="0 0 490 33" enable-background="new 0 0 490 33" xml:space="preserve">
<g id="Capa_1">
</g>
<g id="Capa_2">
	<g>
		<path fill="#211915" d="M181.4,23.1c4.2,0,7.5-3.4,7.5-7.6c0-4.1-3.4-7.4-7.4-7.4c-4.2,0-7.5,3.3-7.5,7.5
			C173.9,19.8,177.2,23.1,181.4,23.1 M181.4,20.4c-2.6,0-4.7-2.2-4.7-4.8c0-2.6,2.1-4.7,4.7-4.7c2.6,0,4.7,2.1,4.7,4.7
			C186.1,18.2,184,20.4,181.4,20.4"/>
		<path fill="#B9007C" d="M202.6,8.6h-3.8v2.3h1.4v9.7h-1.4v2.3h3.8v-1.6c0.8,1.2,2.2,1.8,3.6,1.8c1.4,0,2.8-0.7,3.8-1.7
			c0.9-1,1.4-2.4,1.4-3.8c0-3-2.5-5.5-5.5-5.5c-1.4,0-2.5,0.6-3.3,1.7V8.6z M205.8,14.2c1.8,0,3.2,1.5,3.2,3.2
			c0,1.7-1.4,3.3-3.2,3.3c-1.8,0-3.3-1.4-3.3-3.3C202.5,15.7,204,14.2,205.8,14.2"/>
		<path fill="#211915" d="M225.4,12.2h-3.8v2.3h1.4v7.2c0,1.4,0.1,2.8-1.7,2.9v2.3c2.8-0.2,4.2-1.4,4.2-4.2V12.2z M225.4,8.6H223
			v2.6h2.4V8.6z"/>
		<path fill="#B9007C" d="M244.4,19.7c-0.6,0.9-1.5,1.3-2.6,1.3c-1.5,0-2.9-1.1-3.2-2.6h8.6l0.1-0.9c0-1.5-0.4-2.9-1.5-4
			c-1-1.1-2.5-1.7-4-1.7c-3.2,0-5.6,2.5-5.6,5.7c0,3.1,2.5,5.6,5.6,5.6c2.2,0,4.2-1.4,5-3.4H244.4z M238.6,16.5
			c0.3-1.4,1.7-2.5,3.1-2.5c1.6,0,2.9,1,3.4,2.5H238.6z"/>
		<polygon fill="#211915" points="261.3,14.4 263.2,14.4 263.2,12.2 261.3,12.2 261.3,8.6 258.9,8.6 258.9,12.2 257.2,12.2 
			257.2,14.4 258.9,14.4 258.9,22.8 263.3,22.8 263.3,20.6 261.3,20.6 		"/>
		<path fill="#B9007C" d="M277.4,12.2h-3.8v2.3h1.4v6.1h-1.4v2.3h5.2v-2.3h-1.4V12.2z M277.4,8.6h-2.4v2.6h2.4V8.6z"/>
		<polygon fill="#211915" points="299.2,14.4 300.4,14.4 300.4,12.2 295.5,12.2 295.5,14.4 296.6,14.4 294.5,19.8 294.5,19.8 
			292.6,14.4 293.6,14.4 293.6,12.2 288.7,12.2 288.7,14.4 290,14.4 293.2,22.8 295.8,22.8 		"/>
		<path fill="#B9007C" d="M315.7,23.1c3.1,0,5.6-2.6,5.6-5.7c0-3-2.5-5.6-5.6-5.6c-3.1,0-5.6,2.5-5.6,5.6
			C310.1,20.5,312.6,23.1,315.7,23.1 M315.7,20.7c-1.8,0-3.2-1.5-3.2-3.3c0-1.8,1.5-3.2,3.2-3.2c1.8,0,3.2,1.5,3.2,3.3
			C318.9,19.3,317.5,20.7,315.7,20.7"/>
		<path fill="#211915" d="M348.3,23.8c0.6,2.3,2.9,3.4,5.1,3.4c1.6,0,3-0.5,4.2-1.6c1.2-1.2,1.3-2.5,1.3-4.1v-7h1.4v-2.3h-3.6v1.6
			c-0.8-1.2-2.1-1.7-3.6-1.7c-3,0-5.4,2.6-5.4,5.5c0,3,2.4,5.5,5.4,5.5c1.4,0,2.7-0.5,3.4-1.8v0.4c0,1-0.1,1.7-0.7,2.5
			c-0.5,0.6-1.4,1-2.3,1c-0.9,0-2-0.4-2.4-1.3H348.3z M350.2,17.5c0-1.8,1.5-3.2,3.2-3.2c1.8,0,3.3,1.4,3.3,3.2
			c0,1.8-1.4,3.3-3.2,3.3C351.6,20.7,350.2,19.3,350.2,17.5"/>
		<path fill="#B9007C" d="M378.4,19.7c-0.6,0.9-1.5,1.3-2.6,1.3c-1.5,0-2.9-1.1-3.2-2.6h8.6l0.1-0.9c0-1.5-0.4-2.9-1.5-4
			c-1-1.1-2.5-1.7-4-1.7c-3.2,0-5.6,2.5-5.6,5.7c0,3.1,2.5,5.6,5.6,5.6c2.2,0,4.2-1.4,5-3.4H378.4z M372.6,16.5
			c0.3-1.4,1.7-2.5,3.1-2.5c1.6,0,2.9,1,3.4,2.5H372.6z"/>
		<path fill="#211915" d="M392.7,20.6h-1.4v2.3h5.2v-2.3h-1.4v-3.1c0-0.7,0-1.6,0.5-2.2c0.4-0.6,1.2-0.9,1.9-0.9
			c0.7,0,1.4,0.3,1.9,0.9c0.4,0.6,0.4,1.3,0.4,1.9v3.5h-1.4v2.3h5.2v-2.3h-1.4v-4.2c0-1.2,0-2.2-0.9-3.1c-0.8-0.8-1.9-1.3-3.1-1.3
			c-1.3,0-2.5,0.6-3.2,1.8v-1.5h-3.8v2.3h1.4V20.6z"/>
		<path fill="#B9007C" d="M421.6,19.7C421,20.6,420,21,419,21c-1.5,0-2.9-1.1-3.2-2.6h8.6l0.1-0.9c0-1.5-0.4-2.9-1.5-4
			c-1-1.1-2.5-1.7-4-1.7c-3.2,0-5.6,2.5-5.6,5.7c0,3.1,2.5,5.6,5.6,5.6c2.2,0,4.2-1.4,5-3.4H421.6z M415.7,16.5
			c0.3-1.4,1.7-2.5,3.1-2.5c1.6,0,2.9,1,3.4,2.5H415.7z"/>
		<path fill="#211915" d="M438.1,12.2h-3.6v2.3h1.4v6.1h-1.4v2.3h5.2v-2.3h-1.4v-2.7c0-1,0.1-1.9,0.9-2.5c0.6-0.5,1.3-0.7,2.1-0.8
			V12c-1.4,0.1-2.6,0.7-3.2,1.9V12.2z"/>
		<path fill="#B9007C" d="M460.3,22.8h3.8v-2.3h-1.3v-6.1h1.3v-2.3h-3.8v1.5c-0.7-1.2-1.9-1.8-3.3-1.8c-3.1,0-5.6,2.6-5.6,5.7
			c0,3,2.4,5.6,5.5,5.6c1.4,0,2.7-0.5,3.4-1.7V22.8z M457.1,20.7c-1.7,0-3.2-1.4-3.2-3.2c0-1.8,1.4-3.3,3.2-3.3
			c1.8,0,3.2,1.4,3.2,3.2C460.3,19.3,458.9,20.7,457.1,20.7"/>
		<polygon fill="#211915" points="478,8.6 474.1,8.6 474.1,10.8 475.5,10.8 475.5,20.6 474,20.6 474,22.8 479.3,22.8 479.3,20.6 
			478,20.6 		"/>
	</g>
	<rect x="0" fill="none" width="490" height="33"/>
</g>
</svg>
