<?xml version="1.0" encoding="utf-8"?>
<!-- Generator: Adobe Illustrator 18.0.0, SVG Export Plug-In . SVG Version: 6.00 Build 0)  -->
<!DOCTYPE svg PUBLIC "-//W3C//DTD SVG 1.1//EN" "http://www.w3.org/Graphics/SVG/1.1/DTD/svg11.dtd">
<svg version="1.1" xmlns="http://www.w3.org/2000/svg" xmlns:xlink="http://www.w3.org/1999/xlink" x="0px" y="0px"
	 viewBox="0 0 490 33" enable-background="new 0 0 490 33" xml:space="preserve">
<g id="Capa_1">
</g>
<g id="Capa_2">
	<g>
		<path fill="#211915" d="M362.7,22.8h6v-2.3h-1.5l-5-12h-4.8v2.3h1.6l-4.1,9.7h-1.5v2.3h5.8v-2h-1.5l0.8-2.1h5l0.8,2.1h-1.6V22.8z
			 M362.7,16.6h-3.6l1.8-4.9h0L362.7,16.6z"/>
		<path fill="#B9007C" d="M379.1,23.7c0.6,2.3,2.9,3.4,5.1,3.4c1.6,0,3-0.5,4.2-1.6c1.2-1.2,1.3-2.5,1.3-4.1v-7h1.4v-2.3h-3.6v1.6
			c-0.8-1.2-2.1-1.7-3.5-1.7c-2.9,0-5.4,2.6-5.4,5.5c0,3,2.3,5.5,5.4,5.5c1.4,0,2.6-0.5,3.4-1.8v0.4c0,1-0.1,1.7-0.7,2.5
			c-0.5,0.6-1.4,1-2.2,1c-0.9,0-2-0.4-2.4-1.3H379.1z M381,17.4c0-1.8,1.5-3.2,3.2-3.2c1.8,0,3.2,1.4,3.2,3.2c0,1.8-1.4,3.3-3.2,3.3
			C382.4,20.7,381,19.2,381,17.4"/>
		<path fill="#211915" d="M409.3,19.7c-0.6,0.9-1.5,1.3-2.6,1.3c-1.5,0-2.9-1.1-3.2-2.6h8.6l0.1-0.9c0-1.5-0.4-2.9-1.5-4
			c-1-1.1-2.5-1.7-4-1.7c-3.2,0-5.5,2.5-5.5,5.7c0,3.1,2.5,5.6,5.6,5.6c2.2,0,4.2-1.4,5-3.4H409.3z M403.5,16.5
			c0.3-1.4,1.7-2.5,3.1-2.5c1.6,0,2.9,1,3.3,2.5H403.5z"/>
		<path fill="#B9007C" d="M423.7,20.5h-1.4v2.3h5.2v-2.3h-1.4v-3.1c0-0.7,0-1.6,0.5-2.2c0.4-0.6,1.2-0.9,1.9-0.9
			c0.7,0,1.4,0.3,1.9,0.9c0.4,0.6,0.4,1.3,0.4,1.9v3.5h-1.4v2.3h5.2v-2.3h-1.4v-4.2c0-1.2,0-2.2-0.9-3.1c-0.8-0.8-1.9-1.3-3.1-1.3
			c-1.3,0-2.5,0.6-3.2,1.8v-1.5h-3.8v2.3h1.4V20.5z"/>
		<path fill="#211915" d="M453.4,22.8h3.8v-2.3h-1.4v-12H452v2.3h1.4v2.9c-0.8-1.1-2.1-1.7-3.5-1.7c-3,0-5.4,2.5-5.4,5.5
			c0,3,2.4,5.5,5.4,5.5c1.4,0,2.7-0.6,3.5-1.8V22.8z M450.3,20.7c-1.8,0-3.2-1.5-3.2-3.2c0-1.8,1.4-3.3,3.2-3.3
			c1.7,0,3.2,1.4,3.2,3.2C453.5,19.2,452.1,20.7,450.3,20.7"/>
		<path fill="#B9007C" d="M476.1,22.8h3.8v-2.3h-1.3v-6.1h1.3v-2.3h-3.8v1.5c-0.7-1.2-1.9-1.8-3.3-1.8c-3.1,0-5.6,2.6-5.6,5.7
			c0,3,2.4,5.6,5.5,5.6c1.4,0,2.6-0.5,3.4-1.7V22.8z M472.9,20.7c-1.7,0-3.2-1.4-3.2-3.2c0-1.8,1.4-3.3,3.2-3.3
			c1.8,0,3.2,1.4,3.2,3.2C476.1,19.2,474.7,20.7,472.9,20.7"/>
	</g>
	<rect x="0" fill="none" width="490" height="33"/>
</g>
</svg>
