<?xml version="1.0" encoding="utf-8"?>
<!-- Generator: Adobe Illustrator 18.0.0, SVG Export Plug-In . SVG Version: 6.00 Build 0)  -->
<!DOCTYPE svg PUBLIC "-//W3C//DTD SVG 1.1//EN" "http://www.w3.org/Graphics/SVG/1.1/DTD/svg11.dtd">
<svg version="1.1" id="Capa_1" xmlns="http://www.w3.org/2000/svg" xmlns:xlink="http://www.w3.org/1999/xlink" x="0px" y="0px"
	 viewBox="0 0 134.1 134.1" enable-background="new 0 0 134.1 134.1" xml:space="preserve">
<rect y="0" fill="#FFFFFF" width="134.1" height="134.1"/>
<g>
	<path d="M59.7,28.6c-2.1,0-3.4-1.4-3.4-3.6v-5c0-0.2,0.2-0.4,0.4-0.4s0.4,0.2,0.4,0.4v5.1c0,1.6,0.9,2.7,2.6,2.7
		c1.7,0,2.5-1.1,2.5-2.7V20c0-0.2,0.2-0.4,0.4-0.4s0.4,0.2,0.4,0.4v5C63.1,27.2,61.8,28.6,59.7,28.6z"/>
	<path d="M70.6,28.5c-0.2,0-0.4-0.2-0.4-0.4v-2.9c0-1.1-0.6-1.9-1.8-1.9c-1.1,0-2,0.9-2,2v2.9c0,0.2-0.2,0.4-0.4,0.4
		c-0.2,0-0.4-0.2-0.4-0.4V23c0-0.2,0.2-0.4,0.4-0.4c0.2,0,0.4,0.2,0.4,0.4v0.6c0.4-0.7,1.3-1.1,2.2-1.1c1.5,0,2.5,1.1,2.5,2.6v2.9
		C71,28.3,70.8,28.5,70.6,28.5z"/>
	<path d="M77.6,28.5c-0.2,0-0.4-0.2-0.4-0.4v-0.4c-0.3,0.4-1.1,0.8-2,0.8c-1.3,0-2.3-0.8-2.3-1.9c0-1.2,1-1.9,2.3-1.9
		c0.9,0,1.5,0.2,2,0.7v-0.7c0-1.1-0.6-1.5-1.8-1.5c-0.7,0-1.3,0.2-1.8,0.4c-0.1,0-0.1,0-0.1,0c-0.1,0-0.2-0.1-0.3-0.2
		c0,0,0-0.1,0-0.1c0-0.1,0.1-0.2,0.2-0.3c0.6-0.4,1.5-0.5,2.2-0.5c1.6,0,2.6,0.7,2.6,2.3v3.3C78,28.3,77.9,28.5,77.6,28.5z
		 M75.5,25.4c-0.9,0-1.7,0.4-1.7,1.3s0.9,1.3,1.7,1.3c1,0,1.8-0.5,1.8-1.3C77.2,25.7,76.4,25.4,75.5,25.4z"/>
</g>
<g>
	<path d="M42.3,44.3c-1,0-1.8-0.5-2.3-1.2v3.3c0,0.2-0.2,0.4-0.4,0.4c-0.2,0-0.4-0.2-0.4-0.4v-7.6c0-0.2,0.2-0.4,0.4-0.4
		c0.2,0,0.4,0.2,0.4,0.4v0.8c0.5-0.8,1.3-1.2,2.3-1.2c1.7,0,2.9,1.3,2.9,3C45.2,43,44,44.3,42.3,44.3z M42.2,39C41,39,40,40,40,41.3
		c0,1.3,0.9,2.3,2.2,2.3c1.3,0,2.2-0.9,2.2-2.3S43.5,39,42.2,39z"/>
	<path d="M50.1,39c-1.2,0-2.2,0.8-2.2,2v2.9c0,0.2-0.2,0.4-0.4,0.4c-0.2,0-0.4-0.2-0.4-0.4v-5.1c0-0.2,0.2-0.4,0.4-0.4
		c0.2,0,0.4,0.2,0.4,0.4c0,0.2,0,0.7,0,0.7c0.5-0.7,1.2-1.1,2.2-1.1c0.2,0,0.3,0.2,0.3,0.4C50.4,38.8,50.3,39,50.1,39z"/>
	<path d="M54,44.3c-1.7,0-3-1.3-3-3s1.3-3,3-3s3,1.3,3,3S55.6,44.3,54,44.3z M54,39c-1.3,0-2.2,1-2.2,2.3s0.9,2.3,2.2,2.3
		s2.2-1,2.2-2.3S55.3,39,54,39z"/>
	<path d="M61.9,44.3c-1,0-1.8-0.5-2.3-1.2v3.3c0,0.2-0.2,0.4-0.4,0.4c-0.2,0-0.4-0.2-0.4-0.4v-7.6c0-0.2,0.2-0.4,0.4-0.4
		c0.2,0,0.4,0.2,0.4,0.4v0.8c0.5-0.8,1.3-1.2,2.3-1.2c1.7,0,2.9,1.3,2.9,3C64.8,43,63.5,44.3,61.9,44.3z M61.8,39
		c-1.3,0-2.2,1-2.2,2.3c0,1.3,0.9,2.3,2.2,2.3c1.3,0,2.2-0.9,2.2-2.3S63.1,39,61.8,39z"/>
	<path d="M71.6,44.2c-0.2,0-0.4-0.2-0.4-0.4v-0.6c-0.4,0.7-1.3,1.1-2.1,1.1c-1.5,0-2.5-1.1-2.5-2.6v-2.9c0-0.2,0.2-0.4,0.4-0.4
		c0.2,0,0.4,0.2,0.4,0.4v2.9c0,1.1,0.6,1.9,1.8,1.9c1.1,0,2-0.9,2-2v-2.9c0-0.2,0.2-0.4,0.4-0.4c0.2,0,0.4,0.2,0.4,0.4v5.1
		C72,44.1,71.8,44.2,71.6,44.2z"/>
	<path d="M79.3,41.5c0,0,0,0-4.7,0c0,1.2,1,2.1,2.2,2.1c0.9,0,1.5-0.4,1.9-0.9c0.1-0.1,0.2-0.1,0.2-0.1c0.1,0,0.1,0,0.2,0.1
		c0.1,0.1,0.1,0.2,0.1,0.2c0,0.1,0,0.1-0.1,0.2c-0.4,0.6-1.4,1.2-2.5,1.2c-1.7,0-3-1.3-3-3s1.3-3,2.9-3c1.6,0,2.9,1.3,2.9,2.9
		C79.6,41.4,79.5,41.5,79.3,41.5z M76.7,39c-1.2,0-2,0.8-2.1,2c0.9,0,4.2,0,4.2,0C78.7,39.8,77.9,39,76.7,39z"/>
	<path d="M83,44.3c-0.7,0-1.6-0.2-2.3-0.7c-0.1-0.1-0.1-0.2-0.1-0.2c0-0.1,0-0.1,0.1-0.2c0.1-0.1,0.2-0.1,0.2-0.1
		c0.1,0,0.1,0,0.2,0.1c0.6,0.4,1.2,0.6,1.9,0.6c0.8,0,1.6-0.3,1.6-1c0-0.5-0.6-0.8-1.9-1.3c-1-0.4-1.8-0.7-1.8-1.6
		c0-0.9,1-1.5,2.2-1.5c0.9,0,1.5,0.2,2.1,0.6c0.1,0.1,0.2,0.2,0.2,0.3c0,0.1,0,0.1,0,0.2c-0.1,0.1-0.2,0.2-0.3,0.2
		c-0.1,0-0.1,0-0.2,0c-0.5-0.3-1.1-0.5-1.7-0.5c-0.9,0-1.5,0.3-1.5,0.9c0,0.6,0.4,0.7,1.7,1.2c1.3,0.4,2,0.9,2,1.7
		C85.4,43.6,84.5,44.3,83,44.3z"/>
	<path d="M89.6,39.1h-1.2v4.7c0,0.2-0.2,0.4-0.4,0.4c-0.2,0-0.4-0.2-0.4-0.4v-4.7h-1c-0.2,0-0.3-0.1-0.3-0.3s0.1-0.3,0.3-0.3h1v-1.9
		c0-0.2,0.2-0.4,0.4-0.4c0.2,0,0.4,0.2,0.4,0.4v1.9h1.2c0.2,0,0.3,0.1,0.3,0.3S89.8,39.1,89.6,39.1z"/>
	<path d="M95.7,44.2c-0.2,0-0.4-0.2-0.4-0.4v-0.4c-0.3,0.4-1.1,0.8-2,0.8c-1.3,0-2.3-0.8-2.3-1.9c0-1.2,1-1.9,2.3-1.9
		c0.9,0,1.5,0.2,2,0.7v-0.7c0-1.1-0.6-1.5-1.8-1.5c-0.7,0-1.3,0.2-1.8,0.4c-0.1,0-0.1,0-0.1,0c-0.1,0-0.2-0.1-0.3-0.2
		c0,0,0-0.1,0-0.1c0-0.1,0.1-0.2,0.2-0.3c0.6-0.4,1.5-0.5,2.2-0.5c1.6,0,2.6,0.7,2.6,2.3v3.3C96.1,44.1,95.9,44.2,95.7,44.2z
		 M93.5,41.1c-0.9,0-1.7,0.4-1.7,1.3s0.9,1.3,1.7,1.3c1,0,1.8-0.5,1.8-1.3C95.3,41.5,94.5,41.1,93.5,41.1z"/>
</g>
<g>
	<path d="M14,60c-0.2,0-0.4-0.2-0.4-0.4v-0.4c-0.3,0.4-1.1,0.8-2,0.8c-1.3,0-2.3-0.8-2.3-1.9c0-1.2,1-1.9,2.3-1.9
		c0.9,0,1.5,0.2,2,0.7v-0.7c0-1.1-0.6-1.5-1.8-1.5c-0.7,0-1.3,0.2-1.8,0.4c-0.1,0-0.1,0-0.1,0c-0.1,0-0.2-0.1-0.3-0.2
		c0,0,0-0.1,0-0.1c0-0.1,0.1-0.2,0.2-0.3c0.6-0.4,1.5-0.5,2.2-0.5c1.6,0,2.6,0.7,2.6,2.3v3.3C14.4,59.8,14.3,60,14,60z M11.9,56.9
		c-0.9,0-1.7,0.4-1.7,1.3s0.9,1.3,1.7,1.3c1,0,1.8-0.5,1.8-1.3C13.6,57.2,12.8,56.9,11.9,56.9z"/>
	<path d="M21,58.9c-0.5,0.7-1.4,1.1-2.3,1.1c-1.7,0-3-1.3-3-3c0-1.7,1.3-3,3-3c0.8,0,1.5,0.3,2.1,0.8c0.1,0.1,0.1,0.2,0.1,0.2
		c0,0.1,0,0.1-0.1,0.2c-0.1,0.1-0.2,0.1-0.2,0.1c-0.1,0-0.2,0-0.2-0.1c-0.5-0.4-1-0.7-1.7-0.7c-1.3,0-2.2,1-2.2,2.3s0.9,2.3,2.2,2.3
		c0.8,0,1.4-0.4,1.9-0.9c0.1-0.1,0.2-0.1,0.2-0.1s0.2,0,0.2,0.1s0.1,0.1,0.1,0.2C21,58.7,21,58.8,21,58.9z"/>
	<path d="M26.7,60c-0.2,0-0.4-0.2-0.4-0.4v-0.4c-0.3,0.4-1.1,0.8-2,0.8C23,60,22,59.2,22,58.1c0-1.2,1-1.9,2.3-1.9
		c0.9,0,1.5,0.2,2,0.7v-0.7c0-1.1-0.6-1.5-1.8-1.5c-0.7,0-1.3,0.2-1.8,0.4c-0.1,0-0.1,0-0.1,0c-0.1,0-0.2-0.1-0.3-0.2
		c0,0,0-0.1,0-0.1c0-0.1,0.1-0.2,0.2-0.3c0.6-0.4,1.5-0.5,2.2-0.5c1.6,0,2.6,0.7,2.6,2.3v3.3C27.1,59.8,26.9,60,26.7,60z M24.5,56.9
		c-0.9,0-1.7,0.4-1.7,1.3s0.9,1.3,1.7,1.3c1,0,1.8-0.5,1.8-1.3C26.3,57.2,25.4,56.9,24.5,56.9z"/>
	<path d="M33.9,60c-0.2,0-0.4-0.2-0.4-0.4v-0.8c-0.4,0.8-1.3,1.2-2.3,1.2c-1.7,0-2.9-1.3-2.9-3c0-1.7,1.3-3,2.9-3
		c1,0,1.9,0.5,2.3,1.2v-3.9c0-0.2,0.2-0.4,0.4-0.4c0.2,0,0.4,0.2,0.4,0.4v8.2C34.3,59.8,34.1,60,33.9,60z M31.3,54.7
		c-1.3,0-2.2,0.9-2.2,2.3s0.9,2.3,2.2,2.3s2.2-1,2.2-2.3C33.5,55.7,32.5,54.7,31.3,54.7z"/>
	<path d="M41.3,57.2c0,0,0,0-4.7,0c0,1.2,1,2.1,2.2,2.1c0.9,0,1.5-0.4,1.9-0.9c0.1-0.1,0.2-0.1,0.2-0.1c0.1,0,0.1,0,0.2,0.1
		c0.1,0.1,0.1,0.2,0.1,0.2c0,0.1,0,0.1-0.1,0.2c-0.4,0.6-1.4,1.2-2.5,1.2c-1.7,0-3-1.3-3-3s1.3-3,2.9-3c1.6,0,2.9,1.3,2.9,2.9
		C41.6,57.1,41.5,57.2,41.3,57.2z M38.8,54.7c-1.2,0-2,0.8-2.1,2c0.9,0,4.2,0,4.2,0C40.7,55.5,39.9,54.7,38.8,54.7z M40.7,52.1
		L39,53.3c-0.1,0-0.1,0-0.2,0c-0.1,0-0.2,0-0.3-0.1c0-0.1-0.1-0.1-0.1-0.2c0-0.1,0-0.2,0.1-0.2l1.7-1.2c0.1,0,0.1-0.1,0.2-0.1
		c0.1,0,0.2,0,0.2,0.1c0,0.1,0.1,0.1,0.1,0.2C40.8,52,40.7,52,40.7,52.1z"/>
	<path d="M52.1,60c-0.2,0-0.4-0.2-0.4-0.4v-2.9c0-1.1-0.4-1.9-1.7-1.9c-1.1,0-1.8,0.8-1.8,1.8v3.1c0,0.2-0.2,0.4-0.4,0.4
		c-0.2,0-0.4-0.2-0.4-0.4v-2.9c0-1.1-0.5-1.9-1.7-1.9c-1.1,0-1.8,0.9-1.8,2v2.9c0,0.2-0.2,0.4-0.4,0.4c-0.2,0-0.4-0.2-0.4-0.4v-5.1
		c0-0.2,0.2-0.4,0.4-0.4c0.2,0,0.4,0.2,0.4,0.4c0,0.2,0,0.6,0,0.6c0.4-0.7,1.1-1,2-1c1,0,1.7,0.5,2,1.3c0.4-0.8,1.3-1.3,2.2-1.3
		c1.5,0,2.3,1.1,2.3,2.6v2.9C52.5,59.8,52.3,60,52.1,60z"/>
	<path d="M55.3,52.6c-0.3,0-0.5-0.2-0.5-0.5s0.2-0.5,0.5-0.5c0.3,0,0.5,0.2,0.5,0.5S55.5,52.6,55.3,52.6z M55.3,60
		c-0.2,0-0.4-0.2-0.4-0.4v-5.1c0-0.2,0.2-0.4,0.4-0.4c0.2,0,0.4,0.2,0.4,0.4v5.1C55.6,59.8,55.5,60,55.3,60z"/>
	<path d="M62.6,58.9c-0.5,0.7-1.4,1.1-2.3,1.1c-1.7,0-3-1.3-3-3c0-1.7,1.3-3,3-3c0.8,0,1.5,0.3,2.1,0.8c0.1,0.1,0.1,0.2,0.1,0.2
		c0,0.1,0,0.1-0.1,0.2c-0.1,0.1-0.2,0.1-0.2,0.1c-0.1,0-0.2,0-0.2-0.1c-0.5-0.4-1-0.7-1.7-0.7c-1.3,0-2.2,1-2.2,2.3s0.9,2.3,2.2,2.3
		c0.8,0,1.4-0.4,1.9-0.9c0.1-0.1,0.2-0.1,0.2-0.1s0.2,0,0.2,0.1s0.1,0.1,0.1,0.2C62.7,58.7,62.7,58.8,62.6,58.9z"/>
	<path d="M68.4,60c-0.2,0-0.4-0.2-0.4-0.4v-0.4c-0.3,0.4-1.1,0.8-2,0.8c-1.3,0-2.3-0.8-2.3-1.9c0-1.2,1-1.9,2.3-1.9
		c0.9,0,1.5,0.2,2,0.7v-0.7c0-1.1-0.6-1.5-1.8-1.5c-0.7,0-1.3,0.2-1.8,0.4c-0.1,0-0.1,0-0.1,0c-0.1,0-0.2-0.1-0.3-0.2
		c0,0,0-0.1,0-0.1c0-0.1,0.1-0.2,0.2-0.3c0.6-0.4,1.5-0.5,2.2-0.5c1.6,0,2.6,0.7,2.6,2.3v3.3C68.8,59.8,68.6,60,68.4,60z M66.2,56.9
		c-0.9,0-1.7,0.4-1.7,1.3s0.9,1.3,1.7,1.3c1,0,1.8-0.5,1.8-1.3C68,57.2,67.1,56.9,66.2,56.9z"/>
	<path d="M76.4,60c-1.7,0-3-1.3-3-3s1.3-3,3-3s3,1.3,3,3S78,60,76.4,60z M76.4,54.7c-1.3,0-2.2,1-2.2,2.3s0.9,2.3,2.2,2.3
		s2.2-1,2.2-2.3S77.6,54.7,76.4,54.7z"/>
	<path d="M83.9,54.7c-1.2,0-2.2,0.8-2.2,2v2.9c0,0.2-0.2,0.4-0.4,0.4c-0.2,0-0.4-0.2-0.4-0.4v-5.1c0-0.2,0.2-0.4,0.4-0.4
		c0.2,0,0.4,0.2,0.4,0.4c0,0.2,0,0.7,0,0.7c0.5-0.7,1.2-1.1,2.2-1.1c0.2,0,0.3,0.2,0.3,0.4C84.3,54.6,84.1,54.7,83.9,54.7z"/>
	<path d="M86.1,52.6c-0.3,0-0.5-0.2-0.5-0.5s0.2-0.5,0.5-0.5c0.3,0,0.5,0.2,0.5,0.5S86.3,52.6,86.1,52.6z M86.1,60
		c-0.2,0-0.4-0.2-0.4-0.4v-5.1c0-0.2,0.2-0.4,0.4-0.4c0.2,0,0.4,0.2,0.4,0.4v5.1C86.5,59.8,86.3,60,86.1,60z"/>
	<path d="M93.6,57.2c0,0,0,0-4.7,0c0,1.2,1,2.1,2.2,2.1c0.9,0,1.5-0.4,1.9-0.9c0.1-0.1,0.2-0.1,0.2-0.1c0.1,0,0.1,0,0.2,0.1
		c0.1,0.1,0.1,0.2,0.1,0.2c0,0.1,0,0.1-0.1,0.2c-0.4,0.6-1.4,1.2-2.5,1.2c-1.7,0-3-1.3-3-3s1.3-3,2.9-3c1.6,0,2.9,1.3,2.9,2.9
		C93.9,57.1,93.8,57.2,93.6,57.2z M91,54.7c-1.2,0-2,0.8-2.1,2c0.9,0,4.2,0,4.2,0C93,55.5,92.2,54.7,91,54.7z"/>
	<path d="M100.4,60c-0.2,0-0.4-0.2-0.4-0.4v-2.9c0-1.1-0.6-1.9-1.8-1.9c-1.1,0-2,0.9-2,2v2.9c0,0.2-0.2,0.4-0.4,0.4
		c-0.2,0-0.4-0.2-0.4-0.4v-5.1c0-0.2,0.2-0.4,0.4-0.4c0.2,0,0.4,0.2,0.4,0.4v0.6c0.4-0.7,1.3-1.1,2.2-1.1c1.5,0,2.5,1.1,2.5,2.6v2.9
		C100.8,59.8,100.6,60,100.4,60z"/>
	<path d="M105.3,54.8h-1.2v4.7c0,0.2-0.2,0.4-0.4,0.4c-0.2,0-0.4-0.2-0.4-0.4v-4.7h-1c-0.2,0-0.3-0.1-0.3-0.3s0.1-0.3,0.3-0.3h1
		v-1.9c0-0.2,0.2-0.4,0.4-0.4c0.2,0,0.4,0.2,0.4,0.4v1.9h1.2c0.2,0,0.3,0.1,0.3,0.3S105.5,54.8,105.3,54.8z"/>
	<path d="M111.2,60c-0.2,0-0.4-0.2-0.4-0.4v-0.4c-0.3,0.4-1.1,0.8-2,0.8c-1.3,0-2.3-0.8-2.3-1.9c0-1.2,1-1.9,2.3-1.9
		c0.9,0,1.5,0.2,2,0.7v-0.7c0-1.1-0.6-1.5-1.8-1.5c-0.7,0-1.3,0.2-1.8,0.4c-0.1,0-0.1,0-0.1,0c-0.1,0-0.2-0.1-0.3-0.2
		c0,0,0-0.1,0-0.1c0-0.1,0.1-0.2,0.2-0.3c0.6-0.4,1.5-0.5,2.2-0.5c1.6,0,2.6,0.7,2.6,2.3v3.3C111.6,59.8,111.4,60,111.2,60z
		 M109,56.9c-0.9,0-1.7,0.4-1.7,1.3s0.9,1.3,1.7,1.3c1,0,1.8-0.5,1.8-1.3C110.8,57.2,109.9,56.9,109,56.9z"/>
	<path d="M118.4,60c-0.2,0-0.4-0.2-0.4-0.4v-0.8c-0.4,0.8-1.3,1.2-2.3,1.2c-1.7,0-2.9-1.3-2.9-3c0-1.7,1.3-3,2.9-3
		c1,0,1.9,0.5,2.3,1.2v-3.9c0-0.2,0.2-0.4,0.4-0.4c0.2,0,0.4,0.2,0.4,0.4v8.2C118.8,59.8,118.6,60,118.4,60z M115.8,54.7
		c-1.3,0-2.2,0.9-2.2,2.3s0.9,2.3,2.2,2.3s2.2-1,2.2-2.3C118,55.7,117,54.7,115.8,54.7z"/>
	<path d="M125.2,60c-0.2,0-0.4-0.2-0.4-0.4v-0.4c-0.3,0.4-1.1,0.8-2,0.8c-1.3,0-2.3-0.8-2.3-1.9c0-1.2,1-1.9,2.3-1.9
		c0.9,0,1.5,0.2,2,0.7v-0.7c0-1.1-0.6-1.5-1.8-1.5c-0.7,0-1.3,0.2-1.8,0.4c-0.1,0-0.1,0-0.1,0c-0.1,0-0.2-0.1-0.3-0.2
		c0,0,0-0.1,0-0.1c0-0.1,0.1-0.2,0.2-0.3c0.6-0.4,1.5-0.5,2.2-0.5c1.6,0,2.6,0.7,2.6,2.3v3.3C125.6,59.8,125.5,60,125.2,60z
		 M123.1,56.9c-0.9,0-1.7,0.4-1.7,1.3s0.9,1.3,1.7,1.3c1,0,1.8-0.5,1.8-1.3C124.8,57.2,124,56.9,123.1,56.9z"/>
</g>
<g>
	<path d="M13.2,75.8c-1,0-1.8-0.5-2.3-1.2v3.3c0,0.2-0.2,0.4-0.4,0.4c-0.2,0-0.4-0.2-0.4-0.4v-7.6c0-0.2,0.2-0.4,0.4-0.4
		c0.2,0,0.4,0.2,0.4,0.4V71c0.5-0.8,1.3-1.2,2.3-1.2c1.7,0,2.9,1.3,2.9,3C16.1,74.5,14.9,75.8,13.2,75.8z M13.1,70.4
		c-1.3,0-2.2,1-2.2,2.3c0,1.3,0.9,2.3,2.2,2.3c1.3,0,2.2-0.9,2.2-2.3S14.4,70.4,13.1,70.4z"/>
	<path d="M22.1,75.7c-0.2,0-0.4-0.2-0.4-0.4V75c-0.3,0.4-1.1,0.8-2,0.8c-1.3,0-2.3-0.8-2.3-1.9c0-1.2,1-1.9,2.3-1.9
		c0.9,0,1.5,0.2,2,0.7V72c0-1.1-0.6-1.5-1.8-1.5c-0.7,0-1.3,0.2-1.8,0.4c-0.1,0-0.1,0-0.1,0c-0.1,0-0.2-0.1-0.3-0.2c0,0,0-0.1,0-0.1
		c0-0.1,0.1-0.2,0.2-0.3c0.6-0.4,1.5-0.5,2.2-0.5c1.6,0,2.6,0.7,2.6,2.3v3.3C22.5,75.5,22.3,75.7,22.1,75.7z M19.9,72.6
		c-0.9,0-1.7,0.4-1.7,1.3s0.9,1.3,1.7,1.3c1,0,1.8-0.5,1.8-1.3C21.7,72.9,20.8,72.6,19.9,72.6z"/>
	<path d="M27.7,70.4c-1.2,0-2.2,0.8-2.2,2v2.9c0,0.2-0.2,0.4-0.4,0.4c-0.2,0-0.4-0.2-0.4-0.4v-5.1c0-0.2,0.2-0.4,0.4-0.4
		c0.2,0,0.4,0.2,0.4,0.4c0,0.2,0,0.7,0,0.7c0.5-0.7,1.2-1.1,2.2-1.1c0.2,0,0.3,0.2,0.3,0.4C28,70.3,27.9,70.4,27.7,70.4z"/>
	<path d="M33.7,75.7c-0.2,0-0.4-0.2-0.4-0.4V75c-0.3,0.4-1.1,0.8-2,0.8C30,75.8,29,75,29,73.9c0-1.2,1-1.9,2.3-1.9
		c0.9,0,1.5,0.2,2,0.7V72c0-1.1-0.6-1.5-1.8-1.5c-0.7,0-1.3,0.2-1.8,0.4c-0.1,0-0.1,0-0.1,0c-0.1,0-0.2-0.1-0.3-0.2c0,0,0-0.1,0-0.1
		c0-0.1,0.1-0.2,0.2-0.3c0.6-0.4,1.5-0.5,2.2-0.5c1.6,0,2.6,0.7,2.6,2.3v3.3C34,75.5,33.9,75.7,33.7,75.7z M31.5,72.6
		c-0.9,0-1.7,0.4-1.7,1.3s0.9,1.3,1.7,1.3c1,0,1.8-0.5,1.8-1.3C33.3,72.9,32.4,72.6,31.5,72.6z"/>
	<path d="M40.4,68.3c-0.3,0-0.5-0.2-0.5-0.5s0.2-0.5,0.5-0.5c0.3,0,0.5,0.2,0.5,0.5S40.7,68.3,40.4,68.3z M40.4,75.7
		c-0.2,0-0.4-0.2-0.4-0.4v-5.1c0-0.2,0.2-0.4,0.4-0.4c0.2,0,0.4,0.2,0.4,0.4v5.1C40.8,75.5,40.6,75.7,40.4,75.7z"/>
	<path d="M48.5,75.7c-0.2,0-0.4-0.2-0.4-0.4v-2.9c0-1.1-0.6-1.9-1.8-1.9c-1.1,0-2,0.9-2,2v2.9c0,0.2-0.2,0.4-0.4,0.4
		c-0.2,0-0.4-0.2-0.4-0.4v-5.1c0-0.2,0.2-0.4,0.4-0.4c0.2,0,0.4,0.2,0.4,0.4v0.6c0.4-0.7,1.3-1.1,2.2-1.1c1.5,0,2.5,1.1,2.5,2.6v2.9
		C48.9,75.5,48.7,75.7,48.5,75.7z"/>
	<path d="M53.6,70.6h-1.2v4.7c0,0.2-0.2,0.4-0.4,0.4c-0.2,0-0.4-0.2-0.4-0.4v-4.7h-1c-0.2,0-0.3-0.1-0.3-0.3s0.1-0.3,0.3-0.3h1V68
		c0-0.2,0.2-0.4,0.4-0.4c0.2,0,0.4,0.2,0.4,0.4v1.9h1.2c0.2,0,0.3,0.1,0.3,0.3S53.8,70.6,53.6,70.6z"/>
	<path d="M60.2,73c0,0,0,0-4.7,0c0,1.2,1,2.1,2.2,2.1c0.9,0,1.5-0.4,1.9-0.9c0.1-0.1,0.2-0.1,0.2-0.1c0.1,0,0.1,0,0.2,0.1
		c0.1,0.1,0.1,0.2,0.1,0.2c0,0.1,0,0.1-0.1,0.2c-0.4,0.6-1.4,1.2-2.5,1.2c-1.7,0-3-1.3-3-3s1.3-3,2.9-3c1.6,0,2.9,1.3,2.9,2.9
		C60.5,72.9,60.4,73,60.2,73z M57.6,70.4c-1.2,0-2,0.8-2.1,2c0.9,0,4.2,0,4.2,0C59.6,71.3,58.8,70.4,57.6,70.4z"/>
	<path d="M64.4,78.2c-0.8,0-1.5-0.1-2.2-0.4C62,77.7,62,77.6,62,77.5c0,0,0-0.1,0-0.1c0.1-0.1,0.2-0.2,0.3-0.2c0,0,0.1,0,0.1,0
		c0.6,0.2,1.3,0.3,2,0.3c1.6,0,2.3-1,2.3-2.2c0-0.8,0-0.8,0-0.8c-0.4,0.7-1.3,1.2-2.3,1.2c-1.6,0-2.9-1.3-2.9-3c0-1.7,1.3-3,2.9-3
		c1,0,1.8,0.5,2.3,1.3v-0.8c0-0.2,0.2-0.4,0.4-0.4s0.4,0.2,0.4,0.4v4.9C67.5,76.8,66.5,78.2,64.4,78.2z M64.5,70.4
		c-1.3,0-2.2,1-2.2,2.3s0.9,2.3,2.2,2.3s2.2-1,2.2-2.3S65.7,70.4,64.5,70.4z"/>
	<path d="M73,70.4c-1.2,0-2.2,0.8-2.2,2v2.9c0,0.2-0.2,0.4-0.4,0.4c-0.2,0-0.4-0.2-0.4-0.4v-5.1c0-0.2,0.2-0.4,0.4-0.4
		c0.2,0,0.4,0.2,0.4,0.4c0,0.2,0,0.7,0,0.7c0.5-0.7,1.2-1.1,2.2-1.1c0.2,0,0.3,0.2,0.3,0.4C73.3,70.3,73.1,70.4,73,70.4z"/>
	<path d="M78.9,75.7c-0.2,0-0.4-0.2-0.4-0.4V75c-0.3,0.4-1.1,0.8-2,0.8c-1.3,0-2.3-0.8-2.3-1.9c0-1.2,1-1.9,2.3-1.9
		c0.9,0,1.5,0.2,2,0.7V72c0-1.1-0.6-1.5-1.8-1.5c-0.7,0-1.3,0.2-1.8,0.4c-0.1,0-0.1,0-0.1,0c-0.1,0-0.2-0.1-0.3-0.2c0,0,0-0.1,0-0.1
		c0-0.1,0.1-0.2,0.2-0.3c0.6-0.4,1.5-0.5,2.2-0.5c1.6,0,2.6,0.7,2.6,2.3v3.3C79.3,75.5,79.2,75.7,78.9,75.7z M76.8,72.6
		c-0.9,0-1.7,0.4-1.7,1.3s0.9,1.3,1.7,1.3c1,0,1.8-0.5,1.8-1.3C78.5,72.9,77.7,72.6,76.8,72.6z"/>
	<path d="M84.5,70.4c-1.2,0-2.2,0.8-2.2,2v2.9c0,0.2-0.2,0.4-0.4,0.4c-0.2,0-0.4-0.2-0.4-0.4v-5.1c0-0.2,0.2-0.4,0.4-0.4
		c0.2,0,0.4,0.2,0.4,0.4c0,0.2,0,0.7,0,0.7c0.5-0.7,1.2-1.1,2.2-1.1c0.2,0,0.3,0.2,0.3,0.4C84.9,70.3,84.7,70.4,84.5,70.4z"/>
	<path d="M88.2,75.8c-0.7,0-1.6-0.2-2.3-0.7c-0.1-0.1-0.1-0.2-0.1-0.2c0-0.1,0-0.1,0.1-0.2c0.1-0.1,0.2-0.1,0.2-0.1
		c0.1,0,0.1,0,0.2,0.1c0.6,0.4,1.2,0.6,1.9,0.6c0.8,0,1.6-0.3,1.6-1c0-0.5-0.6-0.8-1.9-1.3c-1-0.4-1.8-0.7-1.8-1.6
		c0-0.9,1-1.5,2.2-1.5c0.9,0,1.5,0.2,2.1,0.6c0.1,0.1,0.2,0.2,0.2,0.3c0,0.1,0,0.1,0,0.2c-0.1,0.1-0.2,0.2-0.3,0.2
		c-0.1,0-0.1,0-0.2,0c-0.5-0.3-1.1-0.5-1.7-0.5c-0.9,0-1.5,0.3-1.5,0.9c0,0.6,0.4,0.7,1.7,1.2c1.3,0.4,2,0.9,2,1.7
		C90.6,75.1,89.6,75.8,88.2,75.8z"/>
	<path d="M97.4,73c0,0,0,0-4.7,0c0,1.2,1,2.1,2.2,2.1c0.9,0,1.5-0.4,1.9-0.9c0.1-0.1,0.2-0.1,0.2-0.1c0.1,0,0.1,0,0.2,0.1
		c0.1,0.1,0.1,0.2,0.1,0.2c0,0.1,0,0.1-0.1,0.2c-0.4,0.6-1.4,1.2-2.5,1.2c-1.7,0-3-1.3-3-3s1.3-3,2.9-3c1.6,0,2.9,1.3,2.9,2.9
		C97.7,72.9,97.5,73,97.4,73z M94.8,70.4c-1.2,0-2,0.8-2.1,2c0.9,0,4.2,0,4.2,0C96.8,71.3,95.9,70.4,94.8,70.4z"/>
	<path d="M107.2,75.7c-0.2,0-0.4-0.2-0.4-0.4V75c-0.3,0.4-1.1,0.8-2,0.8c-1.3,0-2.3-0.8-2.3-1.9c0-1.2,1-1.9,2.3-1.9
		c0.9,0,1.5,0.2,2,0.7V72c0-1.1-0.6-1.5-1.8-1.5c-0.7,0-1.3,0.2-1.8,0.4c-0.1,0-0.1,0-0.1,0c-0.1,0-0.2-0.1-0.3-0.2c0,0,0-0.1,0-0.1
		c0-0.1,0.1-0.2,0.2-0.3c0.6-0.4,1.5-0.5,2.2-0.5c1.6,0,2.6,0.7,2.6,2.3v3.3C107.6,75.5,107.4,75.7,107.2,75.7z M105,72.6
		c-0.9,0-1.7,0.4-1.7,1.3s0.9,1.3,1.7,1.3c1,0,1.8-0.5,1.8-1.3C106.8,72.9,106,72.6,105,72.6z"/>
	<path d="M118.4,75.7c-0.2,0-0.4-0.2-0.4-0.4v-0.6c-0.4,0.7-1.3,1.1-2.1,1.1c-1.5,0-2.5-1.1-2.5-2.6v-2.9c0-0.2,0.2-0.4,0.4-0.4
		c0.2,0,0.4,0.2,0.4,0.4v2.9c0,1.1,0.6,1.9,1.8,1.9c1.1,0,2-0.9,2-2v-2.9c0-0.2,0.2-0.4,0.4-0.4c0.2,0,0.4,0.2,0.4,0.4v5.1
		C118.8,75.5,118.6,75.7,118.4,75.7z"/>
	<path d="M126.4,75.7c-0.2,0-0.4-0.2-0.4-0.4v-2.9c0-1.1-0.6-1.9-1.8-1.9c-1.1,0-2,0.9-2,2v2.9c0,0.2-0.2,0.4-0.4,0.4
		c-0.2,0-0.4-0.2-0.4-0.4v-5.1c0-0.2,0.2-0.4,0.4-0.4c0.2,0,0.4,0.2,0.4,0.4v0.6c0.4-0.7,1.3-1.1,2.2-1.1c1.5,0,2.5,1.1,2.5,2.6v2.9
		C126.8,75.5,126.6,75.7,126.4,75.7z"/>
</g>
<g>
	<path d="M25.4,91.4c-0.2,0-0.4-0.2-0.4-0.4v-2.9c0-1.1-0.4-1.9-1.7-1.9c-1.1,0-1.8,0.8-1.8,1.8V91c0,0.2-0.2,0.4-0.4,0.4
		c-0.2,0-0.4-0.2-0.4-0.4v-2.9c0-1.1-0.5-1.9-1.7-1.9c-1.1,0-1.8,0.9-1.8,2V91c0,0.2-0.2,0.4-0.4,0.4c-0.2,0-0.4-0.2-0.4-0.4v-5.1
		c0-0.2,0.2-0.4,0.4-0.4c0.2,0,0.4,0.2,0.4,0.4c0,0.2,0,0.6,0,0.6c0.4-0.7,1.1-1,2-1c1,0,1.7,0.5,2,1.3c0.4-0.8,1.3-1.3,2.2-1.3
		c1.5,0,2.3,1.1,2.3,2.6V91C25.8,91.3,25.6,91.4,25.4,91.4z"/>
	<path d="M30.6,91.5c-1.7,0-3-1.3-3-3s1.3-3,3-3s3,1.3,3,3S32.2,91.5,30.6,91.5z M30.6,86.2c-1.3,0-2.2,1-2.2,2.3s0.9,2.3,2.2,2.3
		s2.2-1,2.2-2.3S31.8,86.2,30.6,86.2z"/>
	<path d="M40.2,91.4c-0.2,0-0.4-0.2-0.4-0.4v-0.8c-0.4,0.8-1.3,1.2-2.3,1.2c-1.7,0-2.9-1.3-2.9-3c0-1.7,1.3-3,2.9-3
		c1,0,1.9,0.5,2.3,1.2v-3.9c0-0.2,0.2-0.4,0.4-0.4c0.2,0,0.4,0.2,0.4,0.4V91C40.6,91.3,40.5,91.4,40.2,91.4z M37.6,86.2
		c-1.3,0-2.2,0.9-2.2,2.3s0.9,2.3,2.2,2.3s2.2-1,2.2-2.3C39.8,87.2,38.9,86.2,37.6,86.2z"/>
	<path d="M48,88.7c0,0,0,0-4.7,0c0,1.2,1,2.1,2.2,2.1c0.9,0,1.5-0.4,1.9-0.9c0.1-0.1,0.2-0.1,0.2-0.1c0.1,0,0.1,0,0.2,0.1
		C48,89.9,48,90,48,90.1c0,0.1,0,0.1-0.1,0.2c-0.4,0.6-1.4,1.2-2.5,1.2c-1.7,0-3-1.3-3-3s1.3-3,2.9-3c1.6,0,2.9,1.3,2.9,2.9
		C48.3,88.6,48.1,88.7,48,88.7z M45.4,86.1c-1.2,0-2,0.8-2.1,2c0.9,0,4.2,0,4.2,0C47.3,87,46.5,86.1,45.4,86.1z"/>
	<path d="M50.4,91.4c-0.2,0-0.4-0.2-0.4-0.4v-8.2c0-0.2,0.2-0.4,0.4-0.4c0.2,0,0.4,0.2,0.4,0.4V91C50.8,91.3,50.7,91.4,50.4,91.4z"
		/>
	<path d="M55.6,91.5c-1.7,0-3-1.3-3-3s1.3-3,3-3s3,1.3,3,3S57.3,91.5,55.6,91.5z M55.6,86.2c-1.3,0-2.2,1-2.2,2.3s0.9,2.3,2.2,2.3
		s2.2-1,2.2-2.3S56.9,86.2,55.6,86.2z"/>
	<path d="M68.9,88.7c0,0,0,0-4.7,0c0,1.2,1,2.1,2.2,2.1c0.9,0,1.5-0.4,1.9-0.9c0.1-0.1,0.2-0.1,0.2-0.1c0.1,0,0.1,0,0.2,0.1
		c0.1,0.1,0.1,0.2,0.1,0.2c0,0.1,0,0.1-0.1,0.2c-0.4,0.6-1.4,1.2-2.5,1.2c-1.7,0-3-1.3-3-3s1.3-3,2.9-3c1.6,0,2.9,1.3,2.9,2.9
		C69.2,88.6,69,88.7,68.9,88.7z M66.3,86.1c-1.2,0-2,0.8-2.1,2c0.9,0,4.2,0,4.2,0C68.3,87,67.4,86.1,66.3,86.1z"/>
	<path d="M75.8,91.4c-0.2,0-0.4-0.2-0.4-0.4v-0.8c-0.4,0.8-1.3,1.2-2.3,1.2c-1.7,0-2.9-1.3-2.9-3c0-1.7,1.3-3,2.9-3
		c1,0,1.9,0.5,2.3,1.2v-3.9c0-0.2,0.2-0.4,0.4-0.4c0.2,0,0.4,0.2,0.4,0.4V91C76.2,91.3,76,91.4,75.8,91.4z M73.1,86.2
		c-1.3,0-2.2,0.9-2.2,2.3s0.9,2.3,2.2,2.3s2.2-1,2.2-2.3C75.4,87.2,74.4,86.2,73.1,86.2z"/>
	<path d="M83.7,91.4c-0.2,0-0.4-0.2-0.4-0.4v-0.6c-0.4,0.7-1.3,1.1-2.1,1.1c-1.5,0-2.5-1.1-2.5-2.6v-2.9c0-0.2,0.2-0.4,0.4-0.4
		c0.2,0,0.4,0.2,0.4,0.4v2.9c0,1.1,0.6,1.9,1.8,1.9c1.1,0,2-0.9,2-2v-2.9c0-0.2,0.2-0.4,0.4-0.4c0.2,0,0.4,0.2,0.4,0.4V91
		C84.1,91.3,83.9,91.4,83.7,91.4z"/>
	<path d="M91.3,90.3c-0.5,0.7-1.4,1.1-2.3,1.1c-1.7,0-3-1.3-3-3c0-1.7,1.3-3,3-3c0.8,0,1.5,0.3,2.1,0.8c0.1,0.1,0.1,0.2,0.1,0.2
		c0,0.1,0,0.1-0.1,0.2c-0.1,0.1-0.2,0.1-0.2,0.1c-0.1,0-0.2,0-0.2-0.1c-0.5-0.4-1-0.7-1.7-0.7c-1.3,0-2.2,1-2.2,2.3s0.9,2.3,2.2,2.3
		c0.8,0,1.4-0.4,1.9-0.9c0.1-0.1,0.2-0.1,0.2-0.1s0.2,0,0.2,0.1s0.1,0.1,0.1,0.2C91.4,90.2,91.3,90.3,91.3,90.3z"/>
	<path d="M97.3,91.4c-0.2,0-0.4-0.2-0.4-0.4v-0.4c-0.3,0.4-1.1,0.8-2,0.8c-1.3,0-2.3-0.8-2.3-1.9c0-1.2,1-1.9,2.3-1.9
		c0.9,0,1.5,0.2,2,0.7v-0.7c0-1.1-0.6-1.5-1.8-1.5c-0.7,0-1.3,0.2-1.8,0.4c-0.1,0-0.1,0-0.1,0c-0.1,0-0.2-0.1-0.3-0.2
		c0,0,0-0.1,0-0.1c0-0.1,0.1-0.2,0.2-0.3c0.6-0.4,1.5-0.5,2.2-0.5c1.6,0,2.6,0.7,2.6,2.3V91C97.6,91.3,97.5,91.4,97.3,91.4z
		 M95.1,88.3c-0.9,0-1.7,0.4-1.7,1.3s0.9,1.3,1.7,1.3c1,0,1.8-0.5,1.8-1.3C96.9,88.6,96,88.3,95.1,88.3z"/>
	<path d="M102,86.3h-1.2V91c0,0.2-0.2,0.4-0.4,0.4c-0.2,0-0.4-0.2-0.4-0.4v-4.7h-1c-0.2,0-0.3-0.1-0.3-0.3s0.1-0.3,0.3-0.3h1v-1.9
		c0-0.2,0.2-0.4,0.4-0.4c0.2,0,0.4,0.2,0.4,0.4v1.9h1.2c0.2,0,0.3,0.1,0.3,0.3S102.2,86.3,102,86.3z"/>
	<path d="M104.5,84c-0.3,0-0.5-0.2-0.5-0.5s0.2-0.5,0.5-0.5c0.3,0,0.5,0.2,0.5,0.5S104.8,84,104.5,84z M104.5,91.4
		c-0.2,0-0.4-0.2-0.4-0.4v-5.1c0-0.2,0.2-0.4,0.4-0.4c0.2,0,0.4,0.2,0.4,0.4V91C104.9,91.3,104.7,91.4,104.5,91.4z"/>
	<path d="M111.9,86l-2.3,5.2c-0.1,0.1-0.2,0.2-0.3,0.2s-0.3-0.1-0.3-0.2l-2.3-5.2c0-0.1,0-0.1,0-0.2c0-0.1,0.1-0.3,0.2-0.3
		c0,0,0.1,0,0.1,0c0.1,0,0.3,0.1,0.3,0.2l1.9,4.5l1.9-4.5c0.1-0.1,0.2-0.2,0.3-0.2c0.1,0,0.1,0,0.1,0c0.1,0.1,0.2,0.2,0.2,0.3
		C111.9,85.9,111.9,86,111.9,86z"/>
	<path d="M115.7,91.5c-1.7,0-3-1.3-3-3s1.3-3,3-3s3,1.3,3,3S117.4,91.5,115.7,91.5z M115.7,86.2c-1.3,0-2.2,1-2.2,2.3
		s0.9,2.3,2.2,2.3s2.2-1,2.2-2.3S117,86.2,115.7,86.2z"/>
</g>
<g>
	<path d="M55.6,107.2c-0.2,0-0.4-0.2-0.4-0.4V106c-0.4,0.8-1.3,1.2-2.3,1.2c-1.7,0-2.9-1.3-2.9-3c0-1.7,1.3-3,2.9-3
		c1,0,1.9,0.5,2.3,1.2v-3.9c0-0.2,0.2-0.4,0.4-0.4c0.2,0,0.4,0.2,0.4,0.4v8.2C56,107,55.9,107.2,55.6,107.2z M53,101.9
		c-1.3,0-2.2,0.9-2.2,2.3s0.9,2.3,2.2,2.3s2.2-1,2.2-2.3C55.2,102.9,54.3,101.9,53,101.9z"/>
	<path d="M59.1,99.7c-0.3,0-0.5-0.2-0.5-0.5s0.2-0.5,0.5-0.5c0.3,0,0.5,0.2,0.5,0.5S59.4,99.7,59.1,99.7z M59.1,107.2
		c-0.2,0-0.4-0.2-0.4-0.4v-5.1c0-0.2,0.2-0.4,0.4-0.4c0.2,0,0.4,0.2,0.4,0.4v5.1C59.5,107,59.4,107.2,59.1,107.2z"/>
	<path d="M64.3,109.6c-0.8,0-1.5-0.1-2.2-0.4c-0.1-0.1-0.2-0.2-0.2-0.3c0,0,0-0.1,0-0.1c0.1-0.1,0.2-0.2,0.3-0.2c0,0,0.1,0,0.1,0
		c0.6,0.2,1.3,0.3,2,0.3c1.6,0,2.3-1,2.3-2.2c0-0.8,0-0.8,0-0.8c-0.4,0.7-1.3,1.2-2.3,1.2c-1.6,0-2.9-1.3-2.9-3c0-1.7,1.3-3,2.9-3
		c1,0,1.8,0.5,2.3,1.3v-0.8c0-0.2,0.2-0.4,0.4-0.4s0.4,0.2,0.4,0.4v4.9C67.4,108.3,66.4,109.6,64.3,109.6z M64.4,101.9
		c-1.3,0-2.2,1-2.2,2.3s0.9,2.3,2.2,2.3s2.2-1,2.2-2.3S65.7,101.9,64.4,101.9z"/>
	<path d="M70.4,99.7c-0.3,0-0.5-0.2-0.5-0.5s0.2-0.5,0.5-0.5c0.3,0,0.5,0.2,0.5,0.5S70.7,99.7,70.4,99.7z M70.4,107.2
		c-0.2,0-0.4-0.2-0.4-0.4v-5.1c0-0.2,0.2-0.4,0.4-0.4c0.2,0,0.4,0.2,0.4,0.4v5.1C70.8,107,70.6,107.2,70.4,107.2z"/>
	<path d="M75.7,102h-1.2v4.7c0,0.2-0.2,0.4-0.4,0.4c-0.2,0-0.4-0.2-0.4-0.4V102h-1c-0.2,0-0.3-0.1-0.3-0.3s0.1-0.3,0.3-0.3h1v-1.9
		c0-0.2,0.2-0.4,0.4-0.4c0.2,0,0.4,0.2,0.4,0.4v1.9h1.2c0.2,0,0.3,0.1,0.3,0.3S75.9,102,75.7,102z"/>
	<path d="M81.8,107.2c-0.2,0-0.4-0.2-0.4-0.4v-0.4c-0.3,0.4-1.1,0.8-2,0.8c-1.3,0-2.3-0.8-2.3-1.9c0-1.2,1-1.9,2.3-1.9
		c0.9,0,1.5,0.2,2,0.7v-0.7c0-1.1-0.6-1.5-1.8-1.5c-0.7,0-1.3,0.2-1.8,0.4c-0.1,0-0.1,0-0.1,0c-0.1,0-0.2-0.1-0.3-0.2
		c0,0,0-0.1,0-0.1c0-0.1,0.1-0.2,0.2-0.3c0.6-0.4,1.5-0.5,2.2-0.5c1.6,0,2.6,0.7,2.6,2.3v3.3C82.2,107,82,107.2,81.8,107.2z
		 M79.6,104c-0.9,0-1.7,0.4-1.7,1.3s0.9,1.3,1.7,1.3c1,0,1.8-0.5,1.8-1.3C81.4,104.4,80.6,104,79.6,104z"/>
	<path d="M84.8,107.2c-0.2,0-0.4-0.2-0.4-0.4v-8.2c0-0.2,0.2-0.4,0.4-0.4c0.2,0,0.4,0.2,0.4,0.4v8.2C85.2,107,85,107.2,84.8,107.2z"
		/>
</g>
</svg>
