<?xml version="1.0" encoding="utf-8"?>
<!-- Generator: Adobe Illustrator 18.0.0, SVG Export Plug-In . SVG Version: 6.00 Build 0)  -->
<!DOCTYPE svg PUBLIC "-//W3C//DTD SVG 1.1//EN" "http://www.w3.org/Graphics/SVG/1.1/DTD/svg11.dtd">
<svg version="1.1" id="Capa_1" xmlns="http://www.w3.org/2000/svg" xmlns:xlink="http://www.w3.org/1999/xlink" x="0px" y="0px"
	 viewBox="0 0 134.1 134.1" enable-background="new 0 0 134.1 134.1" xml:space="preserve">
<rect x="0" y="0" fill="#FFFFFF" width="134.1" height="134.1"/>
<g>
	<path d="M45.6,51.5c-0.1,0-0.1,0-0.2,0c-0.2,0-0.3-0.1-0.4-0.2l-1.2-2.6h-4.7L38,51.2c-0.1,0.2-0.2,0.3-0.4,0.3c-0.1,0-0.1,0-0.2,0
		c-0.2-0.1-0.2-0.2-0.2-0.4c0-0.1,0-0.1,0-0.2l3.9-8.6c0-0.1,0.2-0.3,0.4-0.3s0.3,0.2,0.4,0.3l3.9,8.6c0,0.1,0,0.1,0,0.2
		C45.8,51.2,45.7,51.4,45.6,51.5z M41.5,43.5l-2,4.4h4L41.5,43.5z"/>
	<path d="M57,51.5c-0.2,0-0.4-0.2-0.4-0.4V48c0-1.1-0.5-2-1.8-2c-1.1,0-1.9,0.8-1.9,1.9v3.2c0,0.2-0.2,0.4-0.4,0.4
		c-0.2,0-0.4-0.2-0.4-0.4V48c0-1.1-0.5-2-1.8-2c-1.2,0-1.9,0.9-1.9,2.1v3.1c0,0.2-0.2,0.4-0.4,0.4c-0.2,0-0.4-0.2-0.4-0.4v-5.4
		c0-0.2,0.2-0.4,0.4-0.4c0.2,0,0.4,0.2,0.4,0.4c0,0.2,0,0.6,0,0.6c0.5-0.7,1.2-1.1,2.1-1.1c1.1,0,1.8,0.6,2.2,1.4
		c0.4-0.9,1.3-1.4,2.3-1.4c1.6,0,2.4,1.2,2.4,2.8v3.1C57.5,51.3,57.3,51.5,57,51.5z"/>
	<path d="M63.4,51.6c-1.1,0-2-0.5-2.4-1.3v0.8c0,0.2-0.2,0.4-0.4,0.4c-0.2,0-0.4-0.2-0.4-0.4v-8.6c0-0.2,0.2-0.4,0.4-0.4
		c0.2,0,0.4,0.2,0.4,0.4v4.1c0.4-0.7,1.3-1.3,2.4-1.3c1.7,0,3.1,1.4,3.1,3.2C66.5,50.2,65.1,51.6,63.4,51.6z M63.3,45.9
		C62,45.9,61,47,61,48.4c0,1.4,1,2.4,2.4,2.4c1.3,0,2.3-1,2.3-2.4S64.7,45.9,63.3,45.9z"/>
	<path d="M69,43.7c-0.3,0-0.5-0.2-0.5-0.5c0-0.3,0.2-0.5,0.5-0.5c0.3,0,0.5,0.2,0.5,0.5C69.4,43.4,69.2,43.7,69,43.7z M69,51.5
		c-0.2,0-0.4-0.2-0.4-0.4v-5.4c0-0.2,0.2-0.4,0.4-0.4c0.2,0,0.4,0.2,0.4,0.4v5.4C69.4,51.3,69.2,51.5,69,51.5z"/>
	<path d="M77.2,48.6c0,0,0,0-4.9,0c0,1.2,1,2.2,2.3,2.2c0.9,0,1.5-0.4,2-1c0.1-0.1,0.2-0.1,0.3-0.1c0.1,0,0.2,0,0.2,0.1
		c0.1,0.1,0.1,0.2,0.1,0.3c0,0.1,0,0.2-0.1,0.2c-0.5,0.6-1.5,1.2-2.6,1.2c-1.8,0-3.2-1.4-3.2-3.2s1.3-3.2,3.1-3.2c1.7,0,3,1.4,3,3.1
		C77.5,48.5,77.4,48.6,77.2,48.6z M74.5,45.9c-1.2,0-2.1,0.9-2.2,2.1c1,0,4.4,0,4.4,0C76.6,46.8,75.7,45.9,74.5,45.9z"/>
	<path d="M84.6,51.5c-0.2,0-0.4-0.2-0.4-0.4V48c0-1.1-0.6-2-1.9-2c-1.2,0-2.1,0.9-2.1,2.1v3.1c0,0.2-0.2,0.4-0.4,0.4
		c-0.2,0-0.4-0.2-0.4-0.4v-5.4c0-0.2,0.2-0.4,0.4-0.4c0.2,0,0.4,0.2,0.4,0.4v0.7c0.5-0.7,1.4-1.1,2.3-1.1c1.6,0,2.6,1.2,2.6,2.8v3.1
		C85.1,51.3,84.9,51.5,84.6,51.5z"/>
	<path d="M90.1,46.1h-1.2v5c0,0.2-0.2,0.4-0.4,0.4S88,51.3,88,51.1v-5h-1.1c-0.2,0-0.3-0.2-0.3-0.3s0.1-0.3,0.3-0.3H88v-2
		c0-0.2,0.2-0.4,0.4-0.4s0.4,0.2,0.4,0.4v2h1.2c0.2,0,0.3,0.2,0.3,0.3S90.3,46.1,90.1,46.1z"/>
	<path d="M97,48.6c0,0,0,0-4.9,0c0,1.2,1,2.2,2.3,2.2c0.9,0,1.5-0.4,2-1c0.1-0.1,0.2-0.1,0.3-0.1c0.1,0,0.2,0,0.2,0.1
		C97,49.9,97,50,97,50.1c0,0.1,0,0.2-0.1,0.2c-0.5,0.6-1.5,1.2-2.6,1.2c-1.8,0-3.2-1.4-3.2-3.2s1.3-3.2,3.1-3.2c1.7,0,3,1.4,3,3.1
		C97.3,48.5,97.2,48.6,97,48.6z M94.3,45.9c-1.2,0-2.1,0.9-2.2,2.1c1,0,4.4,0,4.4,0C96.4,46.8,95.5,45.9,94.3,45.9z"/>
</g>
<g>
	<path d="M55,68.1c-0.2,0-0.4-0.2-0.4-0.4v-0.8c-0.4,0.8-1.4,1.3-2.4,1.3c-1.7,0-3.1-1.4-3.1-3.2c0-1.8,1.4-3.2,3.1-3.2
		c1.1,0,2,0.6,2.4,1.3v-4.1c0-0.2,0.2-0.4,0.4-0.4s0.4,0.2,0.4,0.4v8.6C55.4,67.9,55.2,68.1,55,68.1z M52.2,62.6
		c-1.3,0-2.3,1-2.3,2.4c0,1.4,1,2.4,2.3,2.4c1.3,0,2.4-1.1,2.4-2.4C54.6,63.6,53.6,62.6,52.2,62.6z"/>
	<path d="M58.7,60.3c-0.3,0-0.5-0.2-0.5-0.5c0-0.3,0.2-0.5,0.5-0.5c0.3,0,0.5,0.2,0.5,0.5C59.2,60.1,59,60.3,58.7,60.3z M58.7,68.1
		c-0.2,0-0.4-0.2-0.4-0.4v-5.4c0-0.2,0.2-0.4,0.4-0.4c0.2,0,0.4,0.2,0.4,0.4v5.4C59.1,67.9,58.9,68.1,58.7,68.1z"/>
	<path d="M64.2,70.7c-0.8,0-1.6-0.1-2.3-0.4c-0.2-0.1-0.2-0.2-0.2-0.3c0,0,0-0.1,0-0.1c0.1-0.1,0.2-0.2,0.3-0.2c0,0,0.1,0,0.1,0
		c0.7,0.2,1.3,0.4,2.1,0.4c1.7,0,2.5-1,2.5-2.4c0-0.8,0-0.8,0-0.8c-0.4,0.8-1.3,1.3-2.4,1.3c-1.7,0-3.1-1.4-3.1-3.2
		c0-1.8,1.4-3.1,3.1-3.1c1.1,0,1.9,0.5,2.4,1.3v-0.9c0-0.2,0.2-0.4,0.4-0.4s0.4,0.2,0.4,0.4v5.2C67.5,69.3,66.4,70.7,64.2,70.7z
		 M64.3,62.6c-1.3,0-2.3,1.1-2.3,2.4c0,1.3,1,2.4,2.3,2.4c1.3,0,2.4-1.1,2.4-2.4C66.6,63.6,65.6,62.6,64.3,62.6z"/>
	<path d="M70.6,60.3c-0.3,0-0.5-0.2-0.5-0.5c0-0.3,0.2-0.5,0.5-0.5c0.3,0,0.5,0.2,0.5,0.5C71.1,60.1,70.9,60.3,70.6,60.3z
		 M70.6,68.1c-0.2,0-0.4-0.2-0.4-0.4v-5.4c0-0.2,0.2-0.4,0.4-0.4c0.2,0,0.4,0.2,0.4,0.4v5.4C71,67.9,70.8,68.1,70.6,68.1z"/>
	<path d="M76.2,62.7h-1.2v5c0,0.2-0.2,0.4-0.4,0.4s-0.4-0.2-0.4-0.4v-5H73c-0.2,0-0.3-0.2-0.3-0.3S72.8,62,73,62h1.1v-2
		c0-0.2,0.2-0.4,0.4-0.4s0.4,0.2,0.4,0.4v2h1.2c0.2,0,0.3,0.2,0.3,0.3S76.4,62.7,76.2,62.7z"/>
	<path d="M82.7,68.1c-0.2,0-0.4-0.2-0.4-0.4v-0.4c-0.3,0.5-1.2,0.8-2.1,0.8c-1.4,0-2.5-0.8-2.5-2c0-1.3,1.1-2,2.5-2
		c0.9,0,1.6,0.2,2.1,0.7v-0.7c0-1.2-0.6-1.6-1.9-1.6c-0.7,0-1.3,0.2-1.9,0.4c-0.1,0-0.1,0-0.2,0c-0.1,0-0.2-0.1-0.3-0.2
		c0,0,0-0.1,0-0.2c0-0.1,0.1-0.2,0.2-0.3c0.7-0.4,1.6-0.5,2.3-0.5c1.7,0,2.7,0.7,2.7,2.4v3.5C83.1,67.9,82.9,68.1,82.7,68.1z
		 M80.4,64.8c-1,0-1.8,0.4-1.8,1.3s1,1.4,1.8,1.4c1,0,1.9-0.6,1.9-1.4C82.2,65.2,81.3,64.8,80.4,64.8z"/>
	<path d="M85.8,68.1c-0.2,0-0.4-0.2-0.4-0.4v-8.6c0-0.2,0.2-0.4,0.4-0.4c0.2,0,0.4,0.2,0.4,0.4v8.6C86.2,68,86.1,68.1,85.8,68.1z"/>
</g>
<g>
	<path d="M37.2,81.8c0,0,0,0-4.9,0c0,1.2,1,2.2,2.3,2.2c0.9,0,1.5-0.4,2-1c0.1-0.1,0.2-0.1,0.3-0.1c0.1,0,0.2,0,0.2,0.1
		c0.1,0.1,0.1,0.2,0.1,0.3c0,0.1,0,0.2-0.1,0.2c-0.5,0.6-1.5,1.2-2.6,1.2c-1.8,0-3.2-1.4-3.2-3.2s1.3-3.2,3.1-3.2c1.7,0,3,1.4,3,3.1
		C37.6,81.7,37.4,81.8,37.2,81.8z M34.5,79.2c-1.2,0-2.1,0.9-2.2,2.1c1,0,4.4,0,4.4,0C36.6,80.1,35.8,79.2,34.5,79.2z"/>
	<path d="M44.7,84.7c-0.2,0-0.4-0.2-0.4-0.4v-3.1c0-1.1-0.6-2-1.9-2c-1.2,0-2.1,0.9-2.1,2.1v3.1c0,0.2-0.2,0.4-0.4,0.4
		c-0.2,0-0.4-0.2-0.4-0.4v-5.4c0-0.2,0.2-0.4,0.4-0.4c0.2,0,0.4,0.2,0.4,0.4v0.7c0.5-0.7,1.4-1.1,2.3-1.1c1.6,0,2.6,1.2,2.6,2.8v3.1
		C45.1,84.6,44.9,84.7,44.7,84.7z"/>
	<path d="M51,79.2c-1.2,0-2.3,0.8-2.3,2.1v3c0,0.2-0.2,0.4-0.4,0.4s-0.4-0.2-0.4-0.4v-5.4c0-0.2,0.2-0.4,0.4-0.4
		c0.2,0,0.4,0.2,0.4,0.4c0,0.2,0,0.7,0,0.7c0.5-0.8,1.3-1.2,2.3-1.2c0.2,0,0.4,0.2,0.4,0.4C51.3,79,51.2,79.2,51,79.2z"/>
	<path d="M53.5,76.9c-0.3,0-0.5-0.2-0.5-0.5c0-0.3,0.2-0.5,0.5-0.5c0.3,0,0.5,0.2,0.5,0.5C54,76.7,53.8,76.9,53.5,76.9z M53.5,84.7
		c-0.2,0-0.4-0.2-0.4-0.4v-5.4c0-0.2,0.2-0.4,0.4-0.4c0.2,0,0.4,0.2,0.4,0.4v5.4C53.9,84.6,53.8,84.7,53.5,84.7z"/>
	<path d="M61.9,87.3c-0.2,0-0.4-0.2-0.4-0.4v-3.4c-0.5,0.8-1.4,1.3-2.4,1.3c-1.7,0-3.1-1.4-3.1-3.2s1.4-3.2,3.1-3.2
		c1,0,1.9,0.5,2.4,1.3v-0.8c0-0.2,0.2-0.4,0.4-0.4s0.4,0.2,0.4,0.4v8C62.3,87.1,62.1,87.3,61.9,87.3z M59.1,79.2
		c-1.3,0-2.3,1-2.3,2.4s1,2.4,2.3,2.4c1.3,0,2.3-1.1,2.3-2.4S60.5,79.2,59.1,79.2z"/>
	<path d="M70.3,84.7c-0.2,0-0.4-0.2-0.4-0.4v-0.7c-0.5,0.7-1.3,1.1-2.3,1.1C66,84.8,65,83.6,65,82v-3.1c0-0.2,0.2-0.4,0.4-0.4
		c0.2,0,0.4,0.2,0.4,0.4V82c0,1.1,0.6,2,1.9,2c1.2,0,2.1-0.9,2.1-2.1v-3.1c0-0.2,0.2-0.4,0.4-0.4s0.4,0.2,0.4,0.4v5.4
		C70.7,84.6,70.5,84.7,70.3,84.7z"/>
	<path d="M78.4,81.8c0,0,0,0-4.9,0c0,1.2,1,2.2,2.3,2.2c0.9,0,1.5-0.4,2-1C77.9,83,78,83,78.1,83c0.1,0,0.2,0,0.2,0.1
		c0.1,0.1,0.1,0.2,0.1,0.3c0,0.1,0,0.2-0.1,0.2c-0.5,0.6-1.5,1.2-2.6,1.2c-1.8,0-3.2-1.4-3.2-3.2s1.3-3.2,3.1-3.2c1.7,0,3,1.4,3,3.1
		C78.7,81.7,78.6,81.8,78.4,81.8z M75.7,79.2c-1.2,0-2.1,0.9-2.2,2.1c1,0,4.4,0,4.4,0C77.8,80.1,76.9,79.2,75.7,79.2z"/>
	<path d="M85.4,83.6c-0.6,0.7-1.5,1.2-2.5,1.2c-1.8,0-3.2-1.4-3.2-3.2s1.4-3.2,3.2-3.2c0.8,0,1.6,0.3,2.2,0.9
		c0.1,0.1,0.1,0.2,0.1,0.3c0,0.1,0,0.2-0.1,0.2c-0.1,0.1-0.2,0.1-0.3,0.1c-0.1,0-0.2,0-0.2-0.1c-0.6-0.4-1.1-0.7-1.7-0.7
		c-1.3,0-2.3,1.1-2.3,2.5c0,1.4,1,2.5,2.3,2.5c0.9,0,1.5-0.4,2-1C85,83,85.1,83,85.2,83c0.1,0,0.2,0,0.3,0.1s0.1,0.2,0.1,0.2
		C85.5,83.4,85.5,83.5,85.4,83.6z"/>
	<path d="M87.9,76.9c-0.3,0-0.5-0.2-0.5-0.5c0-0.3,0.2-0.5,0.5-0.5c0.3,0,0.5,0.2,0.5,0.5C88.4,76.7,88.2,76.9,87.9,76.9z
		 M87.9,84.7c-0.2,0-0.4-0.2-0.4-0.4v-5.4c0-0.2,0.2-0.4,0.4-0.4c0.2,0,0.4,0.2,0.4,0.4v5.4C88.3,84.6,88.1,84.7,87.9,84.7z"/>
	<path d="M96.2,84.7c-0.2,0-0.4-0.2-0.4-0.4v-0.8c-0.4,0.8-1.4,1.3-2.4,1.3c-1.7,0-3.1-1.4-3.1-3.2s1.4-3.2,3.1-3.2
		c1.1,0,2,0.6,2.4,1.3v-4.1c0-0.2,0.2-0.4,0.4-0.4s0.4,0.2,0.4,0.4v8.6C96.7,84.6,96.5,84.7,96.2,84.7z M93.5,79.2
		c-1.3,0-2.3,1-2.3,2.4s1,2.4,2.3,2.4c1.3,0,2.4-1.1,2.4-2.4S94.8,79.2,93.5,79.2z"/>
	<path d="M101.8,84.8c-1.8,0-3.2-1.4-3.2-3.2c0-1.8,1.4-3.2,3.2-3.2c1.8,0,3.2,1.4,3.2,3.2C104.9,83.4,103.5,84.8,101.8,84.8z
		 M101.8,79.2c-1.3,0-2.3,1.1-2.3,2.4s1,2.4,2.3,2.4c1.3,0,2.4-1.1,2.4-2.4S103.1,79.2,101.8,79.2z"/>
</g>
</svg>
