<?xml version="1.0" encoding="utf-8"?>
<!-- Generator: Adobe Illustrator 18.0.0, SVG Export Plug-In . SVG Version: 6.00 Build 0)  -->
<!DOCTYPE svg PUBLIC "-//W3C//DTD SVG 1.1//EN" "http://www.w3.org/Graphics/SVG/1.1/DTD/svg11.dtd">
<svg version="1.1" id="Capa_1" xmlns="http://www.w3.org/2000/svg" xmlns:xlink="http://www.w3.org/1999/xlink" x="0px" y="0px"
	 viewBox="0 0 134.1 134.1" enable-background="new 0 0 134.1 134.1" xml:space="preserve">
<rect x="0" y="0" fill="#FFFFFF" width="134.1" height="134.1"/>
<g>
	<path d="M50,51.3c0,0,0.1,0.1,1.8,3.7c0,0.1,0,0.1,0,0.2c0,0.2-0.1,0.3-0.2,0.4c-0.1,0-0.1,0-0.2,0c-0.2,0-0.3-0.1-0.4-0.2
		c-1.9-4-1.9-4-1.9-4h-3.4v3.8c0,0.3-0.2,0.4-0.5,0.4c-0.3,0-0.4-0.2-0.4-0.4v-8.5c0-0.2,0.2-0.4,0.4-0.4h4c1.6,0,2.7,1,2.7,2.6
		C51.9,50.1,51.2,51.1,50,51.3z M49.3,47.2c-1,0-3.6,0-3.6,0v3.5h3.6c1,0,1.7-0.7,1.7-1.7S50.3,47.2,49.3,47.2z"/>
	<path d="M59.3,55.7c-0.2,0-0.4-0.2-0.4-0.4v-0.7c-0.5,0.7-1.3,1.1-2.3,1.1C55,55.7,54,54.5,54,53v-3.1c0-0.2,0.2-0.4,0.4-0.4
		c0.2,0,0.4,0.2,0.4,0.4V53c0,1.1,0.6,2,1.9,2c1.2,0,2.1-0.9,2.1-2.1v-3.1c0-0.2,0.2-0.4,0.4-0.4s0.4,0.2,0.4,0.4v5.4
		C59.7,55.5,59.6,55.7,59.3,55.7z"/>
	<path d="M64.8,50.3h-1.2v5c0,0.2-0.2,0.4-0.4,0.4s-0.4-0.2-0.4-0.4v-5h-1.1c-0.2,0-0.3-0.2-0.3-0.3c0-0.2,0.1-0.3,0.3-0.3h1.1v-2
		c0-0.2,0.2-0.4,0.4-0.4s0.4,0.2,0.4,0.4v2h1.2c0.2,0,0.3,0.2,0.3,0.3C65.2,50.1,65,50.3,64.8,50.3z"/>
	<path d="M71.3,55.7c-0.2,0-0.4-0.2-0.4-0.4v-0.4c-0.3,0.5-1.2,0.8-2.1,0.8c-1.4,0-2.5-0.8-2.5-2c0-1.3,1.1-2,2.5-2
		c0.9,0,1.6,0.2,2.1,0.7v-0.7c0-1.2-0.6-1.6-1.9-1.6c-0.7,0-1.3,0.2-1.9,0.4c-0.1,0-0.1,0-0.2,0c-0.1,0-0.2-0.1-0.3-0.2
		c0,0,0-0.1,0-0.2c0-0.1,0.1-0.2,0.2-0.3c0.7-0.4,1.6-0.5,2.3-0.5c1.7,0,2.7,0.7,2.7,2.4v3.5C71.7,55.5,71.5,55.7,71.3,55.7z
		 M69,52.4c-1,0-1.8,0.4-1.8,1.3s1,1.4,1.8,1.4c1,0,1.9-0.6,1.9-1.4C70.9,52.7,70,52.4,69,52.4z"/>
	<path d="M83,55.7c-0.2,0-0.4-0.2-0.4-0.4v-0.8c-0.4,0.8-1.4,1.3-2.4,1.3c-1.7,0-3.1-1.4-3.1-3.2c0-1.8,1.4-3.2,3.1-3.2
		c1.1,0,2,0.6,2.4,1.3v-4.1c0-0.2,0.2-0.4,0.4-0.4s0.4,0.2,0.4,0.4v8.6C83.5,55.5,83.3,55.7,83,55.7z M80.3,50.1
		c-1.3,0-2.3,1-2.3,2.4c0,1.4,1,2.4,2.3,2.4c1.3,0,2.4-1.1,2.4-2.4C82.6,51.2,81.6,50.1,80.3,50.1z"/>
	<path d="M91.2,52.8c0,0,0,0-4.9,0c0,1.2,1,2.2,2.3,2.2c0.9,0,1.5-0.4,2.1-1c0.1-0.1,0.2-0.1,0.3-0.1c0.1,0,0.2,0,0.2,0.1
		c0.1,0.1,0.1,0.2,0.1,0.3c0,0.1,0,0.2-0.1,0.2c-0.5,0.6-1.5,1.2-2.6,1.2c-1.8,0-3.2-1.4-3.2-3.2s1.3-3.2,3.1-3.2c1.7,0,3,1.4,3,3.1
		C91.5,52.7,91.4,52.8,91.2,52.8z M88.5,50.1c-1.2,0-2.1,0.9-2.2,2.1c1,0,4.4,0,4.4,0C90.6,51,89.7,50.1,88.5,50.1z"/>
</g>
<g>
	<path d="M38.2,72.3c-0.2,0-0.4-0.2-0.4-0.4v-0.4c-0.3,0.5-1.2,0.8-2.1,0.8c-1.4,0-2.5-0.8-2.5-2c0-1.3,1.1-2,2.5-2
		c0.9,0,1.6,0.2,2.1,0.7v-0.7c0-1.2-0.6-1.6-1.9-1.6c-0.7,0-1.3,0.2-1.9,0.4c-0.1,0-0.1,0-0.2,0c-0.1,0-0.2-0.1-0.3-0.2
		c0,0,0-0.1,0-0.2c0-0.1,0.1-0.2,0.2-0.3c0.7-0.4,1.6-0.5,2.3-0.5c1.7,0,2.7,0.7,2.7,2.4v3.5C38.6,72.1,38.4,72.3,38.2,72.3z
		 M35.9,69c-1,0-1.8,0.4-1.8,1.3s1,1.4,1.8,1.4c1,0,1.9-0.6,1.9-1.4C37.8,69.4,36.9,69,35.9,69z"/>
	<path d="M44.2,72.4c-1.1,0-1.9-0.5-2.4-1.3v3.4c0,0.2-0.2,0.4-0.4,0.4c-0.2,0-0.4-0.2-0.4-0.4v-8c0-0.2,0.2-0.4,0.4-0.4
		c0.2,0,0.4,0.2,0.4,0.4v0.8c0.5-0.8,1.4-1.3,2.4-1.3c1.7,0,3.1,1.4,3.1,3.2C47.3,71,45.9,72.4,44.2,72.4z M44.1,66.8
		c-1.3,0-2.3,1.1-2.3,2.4c0,1.4,1,2.4,2.3,2.4s2.3-1,2.3-2.4C46.5,67.8,45.5,66.8,44.1,66.8z"/>
	<path d="M52.4,66.8c-1.2,0-2.3,0.8-2.3,2.1v3c0,0.2-0.2,0.4-0.4,0.4c-0.2,0-0.4-0.2-0.4-0.4v-5.4c0-0.2,0.2-0.4,0.4-0.4
		c0.2,0,0.4,0.2,0.4,0.4c0,0.2,0,0.7,0,0.7c0.5-0.8,1.3-1.2,2.3-1.2c0.2,0,0.4,0.2,0.4,0.4C52.8,66.6,52.6,66.8,52.4,66.8z"/>
	<path d="M59.2,69.4c0,0,0,0-4.9,0c0,1.2,1,2.2,2.3,2.2c0.9,0,1.5-0.4,2.1-1c0.1-0.1,0.2-0.1,0.3-0.1c0.1,0,0.2,0,0.2,0.1
		c0.1,0.1,0.1,0.2,0.1,0.3c0,0.1,0,0.2-0.1,0.2c-0.5,0.6-1.5,1.2-2.6,1.2c-1.8,0-3.2-1.4-3.2-3.2s1.3-3.2,3.1-3.2c1.7,0,3,1.4,3,3.1
		C59.5,69.3,59.4,69.4,59.2,69.4z M56.4,66.7c-1.2,0-2.1,0.9-2.2,2.1c1,0,4.4,0,4.4,0C58.5,67.6,57.7,66.7,56.4,66.7z"/>
	<path d="M66.6,72.3c-0.2,0-0.4-0.2-0.4-0.4v-3.1c0-1.2-0.6-2-1.9-2c-1.2,0-2.1,0.9-2.1,2.1v3.1c0,0.2-0.2,0.4-0.4,0.4
		c-0.2,0-0.4-0.2-0.4-0.4v-5.4c0-0.2,0.2-0.4,0.4-0.4c0.2,0,0.4,0.2,0.4,0.4v0.7c0.5-0.7,1.4-1.1,2.3-1.1c1.6,0,2.6,1.2,2.6,2.8v3.1
		C67,72.1,66.9,72.3,66.6,72.3z"/>
	<path d="M74.9,72.3c-0.2,0-0.4-0.2-0.4-0.4v-0.8c-0.4,0.8-1.4,1.3-2.4,1.3c-1.7,0-3.1-1.4-3.1-3.2c0-1.8,1.4-3.2,3.1-3.2
		c1.1,0,2,0.6,2.4,1.3v-4.1c0-0.2,0.2-0.4,0.4-0.4s0.4,0.2,0.4,0.4v8.6C75.3,72.1,75.1,72.3,74.9,72.3z M72.1,66.8
		c-1.3,0-2.3,1-2.3,2.4c0,1.4,1,2.4,2.3,2.4c1.3,0,2.4-1.1,2.4-2.4C74.4,67.8,73.4,66.8,72.1,66.8z"/>
	<path d="M78.6,64.5c-0.3,0-0.5-0.2-0.5-0.5c0-0.3,0.2-0.5,0.5-0.5c0.3,0,0.5,0.2,0.5,0.5C79,64.2,78.8,64.5,78.6,64.5z M78.6,72.3
		c-0.2,0-0.4-0.2-0.4-0.4v-5.4c0-0.2,0.2-0.4,0.4-0.4s0.4,0.2,0.4,0.4v5.4C79,72.1,78.8,72.3,78.6,72.3z"/>
	<path d="M86.1,66.8l-3.8,4.7h3.5c0.2,0,0.3,0.2,0.3,0.3c0,0.2-0.2,0.3-0.3,0.3h-4.3c-0.2,0-0.4-0.1-0.4-0.4c0-0.1,0-0.2,0.1-0.2
		l3.8-4.7h-3.5c-0.2,0-0.4-0.2-0.4-0.3c0-0.2,0.2-0.3,0.4-0.3c4.3,0,4.3,0,4.3,0c0.2,0,0.4,0.2,0.4,0.4
		C86.2,66.7,86.2,66.7,86.1,66.8z"/>
	<path d="M92.5,72.3c-0.2,0-0.4-0.2-0.4-0.4v-0.4c-0.3,0.5-1.2,0.8-2.1,0.8c-1.4,0-2.5-0.8-2.5-2c0-1.3,1.1-2,2.5-2
		c0.9,0,1.6,0.2,2.1,0.7v-0.7c0-1.2-0.6-1.6-1.9-1.6c-0.7,0-1.3,0.2-1.9,0.4c-0.1,0-0.1,0-0.2,0c-0.1,0-0.2-0.1-0.3-0.2
		c0,0,0-0.1,0-0.2c0-0.1,0.1-0.2,0.2-0.3c0.7-0.4,1.6-0.5,2.3-0.5c1.7,0,2.7,0.7,2.7,2.4v3.5C92.9,72.1,92.7,72.3,92.5,72.3z
		 M90.2,69c-1,0-1.8,0.4-1.8,1.3s1,1.4,1.8,1.4c1,0,1.9-0.6,1.9-1.4C92.1,69.4,91.2,69,90.2,69z"/>
	<path d="M94.3,74.9h-0.4c-0.2,0-0.3-0.1-0.3-0.3s0.2-0.4,0.3-0.4h0.4c1,0,1.3-0.6,1.3-1.6v-6.1c0-0.2,0.2-0.4,0.4-0.4
		c0.2,0,0.4,0.2,0.4,0.4v6C96.4,74,95.8,74.9,94.3,74.9z M96,64.5c-0.3,0-0.5-0.2-0.5-0.5c0-0.3,0.2-0.5,0.5-0.5s0.5,0.2,0.5,0.5
		C96.5,64.2,96.3,64.5,96,64.5z"/>
	<path d="M104.1,69.4c0,0,0,0-4.9,0c0,1.2,1,2.2,2.3,2.2c0.9,0,1.5-0.4,2.1-1c0.1-0.1,0.2-0.1,0.3-0.1c0.1,0,0.2,0,0.2,0.1
		c0.1,0.1,0.1,0.2,0.1,0.3c0,0.1,0,0.2-0.1,0.2c-0.5,0.6-1.5,1.2-2.6,1.2c-1.8,0-3.2-1.4-3.2-3.2s1.3-3.2,3.1-3.2c1.7,0,3,1.4,3,3.1
		C104.4,69.3,104.3,69.4,104.1,69.4z M101.4,66.7c-1.2,0-2.1,0.9-2.2,2.1c1,0,4.4,0,4.4,0C103.5,67.6,102.6,66.7,101.4,66.7z"/>
</g>
<g>
	<path d="M55.5,88.9c-0.2,0-0.4-0.2-0.4-0.4v-0.8c-0.4,0.8-1.4,1.3-2.4,1.3c-1.7,0-3.1-1.4-3.1-3.2c0-1.8,1.4-3.2,3.1-3.2
		c1.1,0,2,0.6,2.4,1.3v-4.1c0-0.2,0.2-0.4,0.4-0.4c0.2,0,0.4,0.2,0.4,0.4v8.6C55.9,88.8,55.8,88.9,55.5,88.9z M52.7,83.4
		c-1.3,0-2.3,1-2.3,2.4c0,1.4,1,2.4,2.3,2.4s2.4-1.1,2.4-2.4C55.1,84.4,54.1,83.4,52.7,83.4z"/>
	<path d="M59.2,81.1c-0.3,0-0.5-0.2-0.5-0.5c0-0.3,0.2-0.5,0.5-0.5c0.3,0,0.5,0.2,0.5,0.5C59.7,80.9,59.5,81.1,59.2,81.1z
		 M59.2,88.9c-0.2,0-0.4-0.2-0.4-0.4v-5.4c0-0.2,0.2-0.4,0.4-0.4c0.2,0,0.4,0.2,0.4,0.4v5.4C59.6,88.8,59.4,88.9,59.2,88.9z"/>
	<path d="M64.7,91.5c-0.8,0-1.6-0.1-2.3-0.4c-0.2-0.1-0.2-0.2-0.2-0.3c0,0,0-0.1,0-0.1c0.1-0.1,0.2-0.2,0.3-0.2c0,0,0.1,0,0.1,0
		c0.7,0.2,1.3,0.4,2.1,0.4c1.7,0,2.5-1,2.5-2.4c0-0.8,0-0.8,0-0.8c-0.4,0.8-1.3,1.3-2.4,1.3c-1.7,0-3.1-1.4-3.1-3.2
		c0-1.8,1.4-3.1,3.1-3.1c1.1,0,1.9,0.5,2.4,1.3v-0.9c0-0.2,0.2-0.4,0.4-0.4c0.2,0,0.4,0.2,0.4,0.4v5.2C68,90.1,66.9,91.5,64.7,91.5z
		 M64.8,83.4c-1.3,0-2.3,1.1-2.3,2.4s1,2.4,2.3,2.4s2.4-1.1,2.4-2.4S66.2,83.4,64.8,83.4z"/>
	<path d="M71.1,81.1c-0.3,0-0.5-0.2-0.5-0.5c0-0.3,0.2-0.5,0.5-0.5c0.3,0,0.5,0.2,0.5,0.5C71.6,80.9,71.4,81.1,71.1,81.1z
		 M71.1,88.9c-0.2,0-0.4-0.2-0.4-0.4v-5.4c0-0.2,0.2-0.4,0.4-0.4c0.2,0,0.4,0.2,0.4,0.4v5.4C71.5,88.8,71.4,88.9,71.1,88.9z"/>
	<path d="M76.7,83.5h-1.2v5c0,0.2-0.2,0.4-0.4,0.4c-0.2,0-0.4-0.2-0.4-0.4v-5h-1.1c-0.2,0-0.3-0.2-0.3-0.3c0-0.2,0.1-0.3,0.3-0.3
		h1.1v-2c0-0.2,0.2-0.4,0.4-0.4c0.2,0,0.4,0.2,0.4,0.4v2h1.2c0.2,0,0.3,0.2,0.3,0.3C77,83.4,76.9,83.5,76.7,83.5z"/>
	<path d="M83.2,88.9c-0.2,0-0.4-0.2-0.4-0.4v-0.4c-0.3,0.5-1.2,0.8-2.1,0.8c-1.4,0-2.5-0.8-2.5-2c0-1.3,1.1-2,2.5-2
		c0.9,0,1.6,0.2,2.1,0.7V85c0-1.2-0.6-1.6-1.9-1.6c-0.7,0-1.3,0.2-1.9,0.4c-0.1,0-0.1,0-0.2,0c-0.1,0-0.3-0.1-0.3-0.2
		c0,0,0-0.1,0-0.2c0-0.1,0.1-0.2,0.2-0.3c0.7-0.4,1.6-0.5,2.3-0.5c1.7,0,2.7,0.7,2.7,2.4v3.5C83.6,88.8,83.4,88.9,83.2,88.9z
		 M80.9,85.6c-1,0-1.8,0.4-1.8,1.3s1,1.4,1.8,1.4c1,0,1.9-0.6,1.9-1.4C82.7,86,81.9,85.6,80.9,85.6z"/>
	<path d="M86.4,88.9c-0.2,0-0.4-0.2-0.4-0.4v-8.6c0-0.2,0.2-0.4,0.4-0.4s0.4,0.2,0.4,0.4v8.6C86.8,88.8,86.6,88.9,86.4,88.9z"/>
</g>
</svg>
