<?xml version="1.0" encoding="utf-8"?>
<!-- Generator: Adobe Illustrator 18.0.0, SVG Export Plug-In . SVG Version: 6.00 Build 0)  -->
<!DOCTYPE svg PUBLIC "-//W3C//DTD SVG 1.1//EN" "http://www.w3.org/Graphics/SVG/1.1/DTD/svg11.dtd">
<svg version="1.1" id="Capa_1" xmlns="http://www.w3.org/2000/svg" xmlns:xlink="http://www.w3.org/1999/xlink" x="0px" y="0px"
	 viewBox="0 0 134.1 134.1" enable-background="new 0 0 134.1 134.1" xml:space="preserve">
<rect x="0" y="0" fill="#FFFFFF" width="134.1" height="134.1"/>
<g>
	<path d="M40.9,45.6c-0.9,1.2-2.1,1.9-3.6,1.9c-2.7,0-4.6-2.3-4.6-4.8c0-2.5,1.9-4.8,4.6-4.8c1.3,0,2.4,0.5,3.1,1.3
		c0.1,0.1,0.1,0.2,0.1,0.3c0,0.1,0,0.2-0.1,0.3c-0.1,0.1-0.2,0.1-0.3,0.1c-0.1,0-0.2,0-0.3-0.1c-0.7-0.6-1.5-1.1-2.6-1.1
		c-2.2,0-3.7,1.9-3.7,4c0,2.1,1.5,4,3.7,4c1.4,0,2.3-0.7,3-1.6c0.1-0.1,0.2-0.1,0.3-0.1c0.1,0,0.2,0,0.3,0.1
		c0.1,0.1,0.1,0.2,0.1,0.3C41,45.4,41,45.5,40.9,45.6z"/>
	<path d="M45.5,47.4c-1.8,0-3.2-1.4-3.2-3.2s1.4-3.2,3.2-3.2c1.8,0,3.2,1.4,3.2,3.2S47.2,47.4,45.5,47.4z M45.5,41.8
		c-1.3,0-2.3,1.1-2.3,2.4s1,2.4,2.3,2.4c1.3,0,2.4-1.1,2.4-2.4S46.8,41.8,45.5,41.8z"/>
	<path d="M55.9,47.4c-0.2,0-0.4-0.2-0.4-0.4v-3.1c0-1.2-0.6-2-1.9-2c-1.2,0-2.1,0.9-2.1,2.1V47c0,0.2-0.2,0.4-0.4,0.4
		s-0.4-0.2-0.4-0.4v-5.4c0-0.2,0.2-0.4,0.4-0.4c0.2,0,0.4,0.2,0.4,0.4v0.7c0.5-0.7,1.4-1.1,2.3-1.1c1.6,0,2.6,1.2,2.6,2.8V47
		C56.3,47.2,56.1,47.4,55.9,47.4z"/>
	<path d="M61.3,42h-1.2v5c0,0.2-0.2,0.4-0.4,0.4c-0.2,0-0.4-0.2-0.4-0.4v-5h-1.1c-0.2,0-0.3-0.2-0.3-0.3c0-0.2,0.1-0.3,0.3-0.3h1.1
		v-2c0-0.2,0.2-0.4,0.4-0.4c0.2,0,0.4,0.2,0.4,0.4v2h1.2c0.2,0,0.3,0.2,0.3,0.3C61.6,41.8,61.5,42,61.3,42z"/>
	<path d="M68.2,44.5c0,0,0,0-4.9,0c0,1.2,1,2.2,2.3,2.2c0.9,0,1.5-0.4,2.1-1c0.1-0.1,0.2-0.1,0.3-0.1c0.1,0,0.2,0,0.2,0.1
		c0.1,0.1,0.1,0.2,0.1,0.3c0,0.1,0,0.2-0.1,0.2c-0.5,0.6-1.5,1.2-2.6,1.2c-1.8,0-3.2-1.4-3.2-3.2s1.3-3.2,3.1-3.2c1.7,0,3,1.4,3,3.1
		C68.5,44.4,68.4,44.5,68.2,44.5z M65.5,41.8c-1.2,0-2.1,0.9-2.2,2.1c1,0,4.4,0,4.4,0C67.6,42.7,66.7,41.8,65.5,41.8z"/>
	<path d="M75.7,47.4c-0.2,0-0.4-0.2-0.4-0.4v-3.1c0-1.2-0.6-2-1.9-2c-1.2,0-2.1,0.9-2.1,2.1V47c0,0.2-0.2,0.4-0.4,0.4
		c-0.2,0-0.4-0.2-0.4-0.4v-5.4c0-0.2,0.2-0.4,0.4-0.4c0.2,0,0.4,0.2,0.4,0.4v0.7c0.5-0.7,1.4-1.1,2.3-1.1c1.6,0,2.6,1.2,2.6,2.8V47
		C76.1,47.2,75.9,47.4,75.7,47.4z"/>
	<path d="M79.3,39.5c-0.3,0-0.5-0.2-0.5-0.5c0-0.3,0.2-0.5,0.5-0.5s0.5,0.2,0.5,0.5C79.8,39.3,79.6,39.5,79.3,39.5z M79.3,47.4
		c-0.2,0-0.4-0.2-0.4-0.4v-5.4c0-0.2,0.2-0.4,0.4-0.4s0.4,0.2,0.4,0.4V47C79.7,47.2,79.5,47.4,79.3,47.4z"/>
	<path d="M87.7,47.4c-0.2,0-0.4-0.2-0.4-0.4v-0.8c-0.4,0.8-1.4,1.3-2.4,1.3c-1.7,0-3.1-1.4-3.1-3.2c0-1.8,1.4-3.2,3.1-3.2
		c1.1,0,2,0.6,2.4,1.3v-4.1c0-0.2,0.2-0.4,0.4-0.4s0.4,0.2,0.4,0.4V47C88.1,47.2,87.9,47.4,87.7,47.4z M84.9,41.8
		c-1.3,0-2.3,1-2.3,2.4c0,1.4,1,2.4,2.3,2.4c1.3,0,2.4-1.1,2.4-2.4C87.3,42.9,86.3,41.8,84.9,41.8z"/>
	<path d="M93.2,47.4c-1.8,0-3.2-1.4-3.2-3.2s1.4-3.2,3.2-3.2c1.8,0,3.2,1.4,3.2,3.2S95,47.4,93.2,47.4z M93.2,41.8
		c-1.3,0-2.3,1.1-2.3,2.4s1,2.4,2.3,2.4c1.3,0,2.4-1.1,2.4-2.4S94.5,41.8,93.2,41.8z"/>
	<path d="M100.2,47.4c-0.8,0-1.7-0.2-2.4-0.8c-0.1-0.1-0.1-0.2-0.1-0.3c0-0.1,0-0.1,0.1-0.2c0.1-0.1,0.2-0.1,0.3-0.1
		c0.1,0,0.1,0,0.2,0.1c0.6,0.4,1.2,0.7,2,0.7c0.9,0,1.7-0.3,1.7-1c0-0.6-0.6-0.8-2-1.3c-1.1-0.4-1.9-0.8-1.9-1.7c0-1,1-1.6,2.3-1.6
		c1,0,1.6,0.2,2.2,0.6c0.1,0.1,0.2,0.2,0.2,0.3c0,0.1,0,0.1,0,0.2c-0.1,0.1-0.2,0.2-0.3,0.2c-0.1,0-0.1,0-0.2,0
		c-0.5-0.3-1.1-0.5-1.8-0.5c-0.9,0-1.6,0.3-1.6,0.9c0,0.6,0.5,0.8,1.8,1.2c1.3,0.4,2.2,0.9,2.2,1.8
		C102.7,46.7,101.7,47.4,100.2,47.4z"/>
</g>
<g>
	<path d="M37.4,64c-0.2,0-0.4-0.2-0.4-0.4v-0.8c-0.4,0.8-1.4,1.3-2.4,1.3c-1.7,0-3.1-1.4-3.1-3.2c0-1.8,1.4-3.2,3.1-3.2
		c1.1,0,2,0.6,2.4,1.3V55c0-0.2,0.2-0.4,0.4-0.4c0.2,0,0.4,0.2,0.4,0.4v8.6C37.8,63.8,37.6,64,37.4,64z M34.6,58.4
		c-1.3,0-2.3,1-2.3,2.4c0,1.4,1,2.4,2.3,2.4s2.4-1.1,2.4-2.4C36.9,59.5,35.9,58.4,34.6,58.4z"/>
	<path d="M45.5,61.1c0,0,0,0-4.9,0c0,1.2,1,2.2,2.3,2.2c0.9,0,1.5-0.4,2.1-1c0.1-0.1,0.2-0.1,0.3-0.1c0.1,0,0.2,0,0.2,0.1
		c0.1,0.1,0.1,0.2,0.1,0.3c0,0.1,0,0.2-0.1,0.2c-0.5,0.6-1.5,1.2-2.6,1.2c-1.8,0-3.2-1.4-3.2-3.2s1.3-3.2,3.1-3.2c1.7,0,3,1.4,3,3.1
		C45.8,61,45.7,61.1,45.5,61.1z M42.8,58.4c-1.2,0-2.1,0.9-2.2,2.1c1,0,4.4,0,4.4,0C44.9,59.3,44,58.4,42.8,58.4z"/>
	<path d="M49.5,64.1c-0.8,0-1.7-0.2-2.4-0.8c-0.1-0.1-0.1-0.2-0.1-0.3c0-0.1,0-0.1,0.1-0.2c0.1-0.1,0.2-0.1,0.3-0.1
		c0.1,0,0.1,0,0.2,0.1c0.6,0.4,1.2,0.7,2,0.7c0.9,0,1.7-0.3,1.7-1c0-0.6-0.6-0.8-2-1.3c-1.1-0.4-1.9-0.8-1.9-1.7c0-1,1-1.6,2.3-1.6
		c1,0,1.6,0.2,2.2,0.6c0.1,0.1,0.2,0.2,0.2,0.3c0,0.1,0,0.1,0,0.2c-0.1,0.1-0.2,0.2-0.3,0.2c-0.1,0-0.1,0-0.2,0
		c-0.5-0.3-1.1-0.5-1.8-0.5c-0.9,0-1.6,0.3-1.6,0.9c0,0.6,0.5,0.8,1.8,1.2c1.3,0.4,2.2,0.9,2.2,1.8C51.9,63.3,51,64.1,49.5,64.1z"/>
	<path d="M58.5,64c-0.2,0-0.4-0.2-0.4-0.4v-0.4c-0.3,0.5-1.2,0.8-2.1,0.8c-1.4,0-2.5-0.8-2.5-2c0-1.3,1.1-2,2.5-2
		c0.9,0,1.6,0.2,2.1,0.7V60c0-1.2-0.6-1.6-1.9-1.6c-0.7,0-1.3,0.2-1.9,0.4c-0.1,0-0.1,0-0.2,0c-0.1,0-0.2-0.1-0.3-0.2
		c0,0,0-0.1,0-0.2c0-0.1,0.1-0.2,0.2-0.3c0.7-0.4,1.6-0.5,2.3-0.5c1.7,0,2.7,0.7,2.7,2.4v3.5C58.9,63.8,58.7,64,58.5,64z M56.2,60.7
		c-1,0-1.8,0.4-1.8,1.3s1,1.4,1.8,1.4c1,0,1.9-0.6,1.9-1.4C58.1,61.1,57.2,60.7,56.2,60.7z"/>
	<path d="M64.3,55.2h-0.4c-1,0-1.3,0.4-1.3,1.5v1.2h1.3c0.2,0,0.3,0.2,0.3,0.3c0,0.2-0.2,0.3-0.3,0.3h-1.3v5c0,0.2-0.2,0.4-0.4,0.4
		s-0.4-0.2-0.4-0.4v-5h-0.9c-0.2,0-0.3-0.2-0.3-0.3c0-0.2,0.1-0.3,0.3-0.3h0.9v-1.1c0-1.5,0.5-2.3,2.1-2.3h0.4
		c0.2,0,0.3,0.2,0.3,0.3C64.6,55.1,64.5,55.2,64.3,55.2z M66.4,56.2c-0.3,0-0.5-0.2-0.5-0.5c0-0.3,0.2-0.5,0.5-0.5
		c0.3,0,0.5,0.2,0.5,0.5C66.8,55.9,66.6,56.2,66.4,56.2z M66.4,64c-0.2,0-0.4-0.2-0.4-0.4v-5.4c0-0.2,0.2-0.4,0.4-0.4
		c0.2,0,0.4,0.2,0.4,0.4v5.4C66.8,63.8,66.6,64,66.4,64z"/>
	<path d="M73.9,64c-0.2,0-0.4-0.2-0.4-0.4v-0.4c-0.3,0.5-1.2,0.8-2.1,0.8c-1.4,0-2.5-0.8-2.5-2c0-1.3,1.1-2,2.5-2
		c0.9,0,1.6,0.2,2.1,0.7V60c0-1.2-0.6-1.6-1.9-1.6c-0.7,0-1.3,0.2-1.9,0.4c-0.1,0-0.1,0-0.2,0c-0.1,0-0.2-0.1-0.3-0.2
		c0,0,0-0.1,0-0.2c0-0.1,0.1-0.2,0.2-0.3c0.7-0.4,1.6-0.5,2.3-0.5c1.7,0,2.7,0.7,2.7,2.4v3.5C74.3,63.8,74.2,64,73.9,64z M71.6,60.7
		c-1,0-1.8,0.4-1.8,1.3s1,1.4,1.8,1.4c1,0,1.9-0.6,1.9-1.4C73.5,61.1,72.6,60.7,71.6,60.7z"/>
	<path d="M82,64c-0.2,0-0.4-0.2-0.4-0.4v-3.1c0-1.2-0.6-2-1.9-2c-1.2,0-2.1,0.9-2.1,2.1v3.1c0,0.2-0.2,0.4-0.4,0.4s-0.4-0.2-0.4-0.4
		v-5.4c0-0.2,0.2-0.4,0.4-0.4c0.2,0,0.4,0.2,0.4,0.4v0.7c0.5-0.7,1.4-1.1,2.3-1.1c1.6,0,2.6,1.2,2.6,2.8v3.1
		C82.4,63.8,82.2,64,82,64z"/>
	<path d="M87.4,58.6h-1.2v5c0,0.2-0.2,0.4-0.4,0.4c-0.2,0-0.4-0.2-0.4-0.4v-5h-1.1c-0.2,0-0.3-0.2-0.3-0.3c0-0.2,0.1-0.3,0.3-0.3
		h1.1v-2c0-0.2,0.2-0.4,0.4-0.4c0.2,0,0.4,0.2,0.4,0.4v2h1.2c0.2,0,0.3,0.2,0.3,0.3C87.7,58.4,87.6,58.6,87.4,58.6z"/>
	<path d="M94.3,61.1c0,0,0,0-4.9,0c0,1.2,1,2.2,2.3,2.2c0.9,0,1.5-0.4,2.1-1c0.1-0.1,0.2-0.1,0.3-0.1c0.1,0,0.2,0,0.2,0.1
		c0.1,0.1,0.1,0.2,0.1,0.3c0,0.1,0,0.2-0.1,0.2c-0.5,0.6-1.5,1.2-2.6,1.2c-1.8,0-3.2-1.4-3.2-3.2s1.3-3.2,3.1-3.2c1.7,0,3,1.4,3,3.1
		C94.6,61,94.5,61.1,94.3,61.1z M91.6,58.4c-1.2,0-2.1,0.9-2.2,2.1c1,0,4.4,0,4.4,0C93.7,59.3,92.8,58.4,91.6,58.4z"/>
	<path d="M98.3,64.1c-0.8,0-1.7-0.2-2.4-0.8c-0.1-0.1-0.1-0.2-0.1-0.3c0-0.1,0-0.1,0.1-0.2c0.1-0.1,0.2-0.1,0.3-0.1
		c0.1,0,0.1,0,0.2,0.1c0.6,0.4,1.2,0.7,2,0.7c0.9,0,1.7-0.3,1.7-1c0-0.6-0.6-0.8-2-1.3c-1.1-0.4-1.9-0.8-1.9-1.7c0-1,1-1.6,2.3-1.6
		c1,0,1.6,0.2,2.2,0.6c0.1,0.1,0.2,0.2,0.2,0.3c0,0.1,0,0.1,0,0.2c-0.1,0.1-0.2,0.2-0.3,0.2c-0.1,0-0.1,0-0.2,0
		c-0.5-0.3-1.1-0.5-1.8-0.5c-0.9,0-1.6,0.3-1.6,0.9c0,0.6,0.5,0.8,1.8,1.2c1.3,0.4,2.2,0.9,2.2,1.8C100.8,63.3,99.8,64.1,98.3,64.1z
		"/>
	<path d="M103.3,65.9c0,0-0.1,0.1-0.2,0.1c0,0-0.1,0-0.1,0c-0.1,0-0.1-0.1-0.1-0.2c0,0,0-0.1,0-0.1c0.5-0.6,0.7-1.1,0.7-1.8
		c0,0,0,0,0,0c-0.3,0-0.6-0.3-0.6-0.6c0-0.3,0.3-0.6,0.6-0.6c0.4,0,0.6,0.3,0.6,0.7C104.2,64.3,104,65.2,103.3,65.9z"/>
</g>
<g>
	<path d="M38.9,80.6c-0.2,0-0.4-0.2-0.4-0.4v-0.4c-0.3,0.5-1.2,0.8-2.1,0.8c-1.4,0-2.5-0.8-2.5-2c0-1.3,1.1-2,2.5-2
		c0.9,0,1.6,0.2,2.1,0.7v-0.7c0-1.2-0.6-1.6-1.9-1.6c-0.7,0-1.3,0.2-1.9,0.4c-0.1,0-0.1,0-0.2,0c-0.1,0-0.2-0.1-0.3-0.2
		c0,0,0-0.1,0-0.2c0-0.1,0.1-0.2,0.2-0.3c0.7-0.4,1.6-0.5,2.3-0.5c1.7,0,2.7,0.7,2.7,2.4v3.5C39.3,80.4,39.1,80.6,38.9,80.6z
		 M36.6,77.3c-1,0-1.8,0.4-1.8,1.3s1,1.4,1.8,1.4c1,0,1.9-0.6,1.9-1.4C38.4,77.7,37.5,77.3,36.6,77.3z"/>
	<path d="M43.9,75.2h-1.2v5c0,0.2-0.2,0.4-0.4,0.4s-0.4-0.2-0.4-0.4v-5h-1.1c-0.2,0-0.3-0.2-0.3-0.3c0-0.2,0.1-0.3,0.3-0.3h1.1v-2
		c0-0.2,0.2-0.4,0.4-0.4s0.4,0.2,0.4,0.4v2h1.2c0.2,0,0.3,0.2,0.3,0.3C44.2,75.1,44.1,75.2,43.9,75.2z"/>
	<path d="M49.2,75.1c-1.2,0-2.3,0.8-2.3,2.1v3c0,0.2-0.2,0.4-0.4,0.4S46,80.4,46,80.2v-5.4c0-0.2,0.2-0.4,0.4-0.4
		c0.2,0,0.4,0.2,0.4,0.4c0,0.2,0,0.7,0,0.7c0.5-0.8,1.3-1.2,2.3-1.2c0.2,0,0.4,0.2,0.4,0.4C49.5,74.9,49.4,75.1,49.2,75.1z"/>
	<path d="M55.5,80.6c-0.2,0-0.4-0.2-0.4-0.4v-0.4c-0.3,0.5-1.2,0.8-2.1,0.8c-1.4,0-2.5-0.8-2.5-2c0-1.3,1.1-2,2.5-2
		c0.9,0,1.6,0.2,2.1,0.7v-0.7c0-1.2-0.6-1.6-1.9-1.6c-0.7,0-1.3,0.2-1.9,0.4c-0.1,0-0.1,0-0.2,0c-0.1,0-0.2-0.1-0.3-0.2
		c0,0,0-0.1,0-0.2c0-0.1,0.1-0.2,0.2-0.3c0.7-0.4,1.6-0.5,2.3-0.5c1.7,0,2.7,0.7,2.7,2.4v3.5C55.9,80.4,55.7,80.6,55.5,80.6z
		 M53.2,77.3c-1,0-1.8,0.4-1.8,1.3s1,1.4,1.8,1.4c1,0,1.9-0.6,1.9-1.4C55.1,77.7,54.2,77.3,53.2,77.3z"/>
	<path d="M63.1,79.5c-0.6,0.7-1.5,1.2-2.5,1.2c-1.8,0-3.2-1.4-3.2-3.2c0-1.8,1.4-3.2,3.2-3.2c0.8,0,1.6,0.3,2.2,0.9
		c0.1,0.1,0.1,0.2,0.1,0.3c0,0.1,0,0.2-0.1,0.2c-0.1,0.1-0.2,0.1-0.3,0.1c-0.1,0-0.2,0-0.2-0.1c-0.6-0.4-1.1-0.7-1.7-0.7
		c-1.3,0-2.3,1.1-2.3,2.5c0,1.4,1,2.5,2.3,2.5c0.9,0,1.5-0.4,2-1c0.1-0.1,0.2-0.1,0.3-0.1s0.2,0,0.2,0.1s0.1,0.2,0.1,0.3
		C63.2,79.3,63.1,79.4,63.1,79.5z"/>
	<path d="M67.3,75.2h-1.2v5c0,0.2-0.2,0.4-0.4,0.4s-0.4-0.2-0.4-0.4v-5h-1.1c-0.2,0-0.3-0.2-0.3-0.3c0-0.2,0.1-0.3,0.3-0.3h1.1v-2
		c0-0.2,0.2-0.4,0.4-0.4s0.4,0.2,0.4,0.4v2h1.2c0.2,0,0.3,0.2,0.3,0.3C67.7,75.1,67.5,75.2,67.3,75.2z"/>
	<path d="M70,72.8c-0.3,0-0.5-0.2-0.5-0.5c0-0.3,0.2-0.5,0.5-0.5c0.3,0,0.5,0.2,0.5,0.5C70.5,72.6,70.3,72.8,70,72.8z M70,80.6
		c-0.2,0-0.4-0.2-0.4-0.4v-5.4c0-0.2,0.2-0.4,0.4-0.4c0.2,0,0.4,0.2,0.4,0.4v5.4C70.4,80.4,70.2,80.6,70,80.6z"/>
	<path d="M77.8,74.9l-2.4,5.5c-0.1,0.1-0.2,0.2-0.3,0.2s-0.3-0.1-0.3-0.2l-2.4-5.5c0-0.1,0-0.1,0-0.2c0-0.2,0.1-0.3,0.2-0.3
		c0,0,0.1,0,0.2,0c0.1,0,0.3,0.1,0.3,0.2l2,4.7l2.1-4.7c0.1-0.1,0.2-0.2,0.3-0.2c0.1,0,0.1,0,0.1,0c0.1,0.1,0.2,0.2,0.2,0.4
		C77.8,74.8,77.8,74.9,77.8,74.9z"/>
	<path d="M81.8,80.7c-1.8,0-3.2-1.4-3.2-3.2s1.4-3.2,3.2-3.2c1.8,0,3.2,1.4,3.2,3.2S83.6,80.7,81.8,80.7z M81.8,75.1
		c-1.3,0-2.3,1.1-2.3,2.4s1,2.4,2.3,2.4c1.3,0,2.4-1.1,2.4-2.4S83.2,75.1,81.8,75.1z"/>
	<path d="M88.8,80.7c-0.8,0-1.7-0.2-2.4-0.8c-0.1-0.1-0.1-0.2-0.1-0.3c0-0.1,0-0.1,0.1-0.2c0.1-0.1,0.2-0.1,0.3-0.1
		c0.1,0,0.1,0,0.2,0.1c0.6,0.4,1.2,0.7,2,0.7c0.9,0,1.7-0.3,1.7-1c0-0.6-0.6-0.8-2-1.3c-1.1-0.4-1.9-0.8-1.9-1.7c0-1,1-1.6,2.3-1.6
		c1,0,1.6,0.2,2.2,0.6c0.1,0.1,0.2,0.2,0.2,0.3c0,0.1,0,0.1,0,0.2c-0.1,0.1-0.2,0.2-0.3,0.2c-0.1,0-0.1,0-0.2,0
		c-0.5-0.3-1.1-0.5-1.8-0.5c-0.9,0-1.6,0.3-1.6,0.9c0,0.6,0.5,0.8,1.8,1.2c1.3,0.4,2.2,0.9,2.2,1.8C91.3,80,90.3,80.7,88.8,80.7z"/>
	<path d="M101.7,74.9l-2.4,5.5c-0.5,1.2-1.5,2.3-2.8,2.8c0,0-0.1,0-0.1,0c-0.2,0-0.3-0.2-0.3-0.3c0-0.2,0.1-0.3,0.3-0.4
		c1.1-0.4,1.9-1.3,2.3-2.3c0,0-0.1-0.2-2.3-5.3c0,0,0-0.1,0-0.1c0-0.2,0.1-0.3,0.2-0.4c0.1,0,0.1,0,0.2,0c0.1,0,0.3,0.1,0.3,0.2
		l2.1,4.7l2-4.7c0.1-0.1,0.2-0.2,0.4-0.2c0,0,0.1,0,0.1,0c0.1,0.1,0.2,0.2,0.2,0.3C101.7,74.8,101.7,74.9,101.7,74.9z"/>
</g>
<g>
	<path d="M35.5,91.8h-1.2v5c0,0.2-0.2,0.4-0.4,0.4s-0.4-0.2-0.4-0.4v-5h-1.1c-0.2,0-0.3-0.2-0.3-0.3c0-0.2,0.1-0.3,0.3-0.3h1.1v-2
		c0-0.2,0.2-0.4,0.4-0.4s0.4,0.2,0.4,0.4v2h1.2c0.2,0,0.3,0.2,0.3,0.3C35.9,91.7,35.7,91.8,35.5,91.8z"/>
	<path d="M40.8,91.7c-1.2,0-2.3,0.8-2.3,2.1v3c0,0.2-0.2,0.4-0.4,0.4s-0.4-0.2-0.4-0.4v-5.4c0-0.2,0.2-0.4,0.4-0.4
		c0.2,0,0.4,0.2,0.4,0.4c0,0.2,0,0.7,0,0.7c0.5-0.8,1.3-1.2,2.3-1.2c0.2,0,0.4,0.2,0.4,0.4C41.2,91.5,41,91.7,40.8,91.7z"/>
	<path d="M47.2,97.2c-0.2,0-0.4-0.2-0.4-0.4v-0.4c-0.3,0.5-1.2,0.8-2.1,0.8c-1.4,0-2.5-0.8-2.5-2c0-1.3,1.1-2,2.5-2
		c0.9,0,1.6,0.2,2.1,0.7v-0.7c0-1.2-0.6-1.6-1.9-1.6c-0.7,0-1.3,0.2-1.9,0.4c-0.1,0-0.1,0-0.2,0c-0.1,0-0.2-0.1-0.3-0.2
		c0,0,0-0.1,0-0.2c0-0.1,0.1-0.2,0.2-0.3c0.7-0.4,1.6-0.5,2.3-0.5c1.7,0,2.7,0.7,2.7,2.4v3.5C47.6,97.1,47.4,97.2,47.2,97.2z
		 M44.9,93.9c-1,0-1.8,0.4-1.8,1.3s1,1.4,1.8,1.4c1,0,1.9-0.6,1.9-1.4C46.7,94.3,45.8,93.9,44.9,93.9z"/>
	<path d="M54.2,91.7l-3.8,4.7h3.5c0.2,0,0.3,0.2,0.3,0.3c0,0.2-0.2,0.3-0.3,0.3h-4.3c-0.2,0-0.4-0.1-0.4-0.4c0-0.1,0-0.2,0.1-0.2
		l3.8-4.7h-3.5c-0.2,0-0.4-0.2-0.4-0.3c0-0.2,0.2-0.3,0.4-0.3c4.3,0,4.3,0,4.3,0c0.2,0,0.4,0.2,0.4,0.4
		C54.3,91.6,54.3,91.7,54.2,91.7z"/>
	<path d="M60.6,97.2c-0.2,0-0.4-0.2-0.4-0.4v-0.4c-0.3,0.5-1.2,0.8-2.1,0.8c-1.4,0-2.5-0.8-2.5-2c0-1.3,1.1-2,2.5-2
		c0.9,0,1.6,0.2,2.1,0.7v-0.7c0-1.2-0.6-1.6-1.9-1.6c-0.7,0-1.3,0.2-1.9,0.4c-0.1,0-0.1,0-0.2,0c-0.1,0-0.2-0.1-0.3-0.2
		c0,0,0-0.1,0-0.2c0-0.1,0.1-0.2,0.2-0.3c0.7-0.4,1.6-0.5,2.3-0.5c1.7,0,2.7,0.7,2.7,2.4v3.5C61,97.1,60.8,97.2,60.6,97.2z
		 M58.3,93.9c-1,0-1.8,0.4-1.8,1.3s1,1.4,1.8,1.4c1,0,1.9-0.6,1.9-1.4C60.2,94.3,59.3,93.9,58.3,93.9z"/>
	<path d="M66.6,97.3c-1.1,0-2-0.5-2.4-1.3v0.8c0,0.2-0.2,0.4-0.4,0.4s-0.4-0.2-0.4-0.4v-8.6c0-0.2,0.2-0.4,0.4-0.4s0.4,0.2,0.4,0.4
		v4.1c0.4-0.7,1.3-1.3,2.4-1.3c1.7,0,3.1,1.4,3.1,3.2C69.7,95.9,68.3,97.3,66.6,97.3z M66.5,91.7c-1.3,0-2.4,1.1-2.4,2.4
		c0,1.4,1,2.4,2.4,2.4c1.3,0,2.3-1,2.3-2.4C68.9,92.7,67.9,91.7,66.5,91.7z"/>
	<path d="M72.1,89.4c-0.3,0-0.5-0.2-0.5-0.5c0-0.3,0.2-0.5,0.5-0.5s0.5,0.2,0.5,0.5C72.6,89.2,72.4,89.4,72.1,89.4z M72.1,97.2
		c-0.2,0-0.4-0.2-0.4-0.4v-5.4c0-0.2,0.2-0.4,0.4-0.4s0.4,0.2,0.4,0.4v5.4C72.5,97.1,72.4,97.2,72.1,97.2z"/>
	<path d="M75.8,97.2c-0.2,0-0.4-0.2-0.4-0.4v-8.6c0-0.2,0.2-0.4,0.4-0.4s0.4,0.2,0.4,0.4v8.6C76.2,97.1,76.1,97.2,75.8,97.2z"/>
	<path d="M79.5,89.4c-0.3,0-0.5-0.2-0.5-0.5c0-0.3,0.2-0.5,0.5-0.5c0.3,0,0.5,0.2,0.5,0.5C80,89.2,79.8,89.4,79.5,89.4z M79.5,97.2
		c-0.2,0-0.4-0.2-0.4-0.4v-5.4c0-0.2,0.2-0.4,0.4-0.4c0.2,0,0.4,0.2,0.4,0.4v5.4C79.9,97.1,79.7,97.2,79.5,97.2z"/>
	<path d="M87.9,97.2c-0.2,0-0.4-0.2-0.4-0.4V96c-0.4,0.8-1.4,1.3-2.4,1.3c-1.7,0-3.1-1.4-3.1-3.2c0-1.8,1.4-3.2,3.1-3.2
		c1.1,0,2,0.6,2.4,1.3v-4.1c0-0.2,0.2-0.4,0.4-0.4c0.2,0,0.4,0.2,0.4,0.4v8.6C88.3,97.1,88.1,97.2,87.9,97.2z M85.1,91.7
		c-1.3,0-2.3,1-2.3,2.4c0,1.4,1,2.4,2.3,2.4s2.4-1.1,2.4-2.4C87.5,92.8,86.5,91.7,85.1,91.7z"/>
	<path d="M95.4,97.2c-0.2,0-0.4-0.2-0.4-0.4v-0.4c-0.3,0.5-1.2,0.8-2.1,0.8c-1.4,0-2.5-0.8-2.5-2c0-1.3,1.1-2,2.5-2
		c0.9,0,1.6,0.2,2.1,0.7v-0.7c0-1.2-0.6-1.6-1.9-1.6c-0.7,0-1.3,0.2-1.9,0.4c-0.1,0-0.1,0-0.2,0c-0.1,0-0.2-0.1-0.3-0.2
		c0,0,0-0.1,0-0.2c0-0.1,0.1-0.2,0.2-0.3c0.7-0.4,1.6-0.5,2.3-0.5c1.7,0,2.7,0.7,2.7,2.4v3.5C95.8,97.1,95.6,97.2,95.4,97.2z
		 M93.1,93.9c-1,0-1.8,0.4-1.8,1.3s1,1.4,1.8,1.4c1,0,1.9-0.6,1.9-1.4C95,94.3,94.1,93.9,93.1,93.9z"/>
	<path d="M103.3,97.2c-0.2,0-0.4-0.2-0.4-0.4V96c-0.4,0.8-1.4,1.3-2.4,1.3c-1.7,0-3.1-1.4-3.1-3.2c0-1.8,1.4-3.2,3.1-3.2
		c1.1,0,2,0.6,2.4,1.3v-4.1c0-0.2,0.2-0.4,0.4-0.4s0.4,0.2,0.4,0.4v8.6C103.7,97.1,103.5,97.2,103.3,97.2z M100.5,91.7
		c-1.3,0-2.3,1-2.3,2.4c0,1.4,1,2.4,2.3,2.4c1.3,0,2.4-1.1,2.4-2.4C102.8,92.8,101.8,91.7,100.5,91.7z"/>
</g>
</svg>
