<?xml version="1.0" encoding="utf-8"?>
<!-- Generator: Adobe Illustrator 18.0.0, SVG Export Plug-In . SVG Version: 6.00 Build 0)  -->
<!DOCTYPE svg PUBLIC "-//W3C//DTD SVG 1.1//EN" "http://www.w3.org/Graphics/SVG/1.1/DTD/svg11.dtd">
<svg version="1.1" id="Capa_1" xmlns="http://www.w3.org/2000/svg" xmlns:xlink="http://www.w3.org/1999/xlink" x="0px" y="0px"
	 viewBox="0 0 134.1 134.1" enable-background="new 0 0 134.1 134.1" xml:space="preserve">
<rect x="0" y="0" fill="#FFFFFF" width="134.1" height="134.1"/>
<g>
	<path d="M42.7,59.9h-3.4v3.7c0,0.2-0.2,0.4-0.5,0.4s-0.4-0.2-0.4-0.4v-8.5c0-0.2,0.2-0.4,0.4-0.4h3.8c1.8,0,2.7,1.2,2.7,2.6
		S44.4,59.9,42.7,59.9z M42.8,55.5c0,0-1,0-3.5,0v3.6c0,0,1.6,0,3.5,0c1.1,0,1.7-0.8,1.7-1.8S43.9,55.5,42.8,55.5z"/>
	<path d="M50.3,58.4c-1.2,0-2.3,0.8-2.3,2.1v3c0,0.2-0.2,0.4-0.4,0.4s-0.4-0.2-0.4-0.4v-5.4c0-0.2,0.2-0.4,0.4-0.4
		c0.2,0,0.4,0.2,0.4,0.4c0,0.2,0,0.7,0,0.7c0.5-0.8,1.3-1.2,2.3-1.2c0.2,0,0.4,0.2,0.4,0.4S50.5,58.4,50.3,58.4z"/>
	<path d="M54.5,64.1c-1.8,0-3.2-1.4-3.2-3.2c0-1.8,1.4-3.2,3.2-3.2s3.2,1.4,3.2,3.2C57.6,62.6,56.2,64.1,54.5,64.1z M54.5,58.4
		c-1.3,0-2.3,1.1-2.3,2.4s1,2.4,2.3,2.4s2.4-1.1,2.4-2.4S55.8,58.4,54.5,58.4z"/>
	<path d="M61.8,66.6c-0.8,0-1.6-0.1-2.3-0.4c-0.2-0.1-0.2-0.2-0.2-0.3c0,0,0-0.1,0-0.1c0.1-0.1,0.2-0.2,0.3-0.2c0,0,0.1,0,0.1,0
		c0.7,0.2,1.3,0.4,2.1,0.4c1.7,0,2.5-1,2.5-2.4c0-0.8,0-0.8,0-0.8c-0.4,0.8-1.3,1.3-2.4,1.3c-1.7,0-3.1-1.4-3.1-3.2
		c0-1.8,1.4-3.1,3.1-3.1c1.1,0,1.9,0.5,2.4,1.3v-0.9c0-0.2,0.2-0.4,0.4-0.4s0.4,0.2,0.4,0.4v5.2C65.1,65.2,64,66.6,61.8,66.6z
		 M61.9,58.4c-1.3,0-2.3,1.1-2.3,2.4s1,2.4,2.3,2.4c1.3,0,2.4-1.1,2.4-2.4S63.3,58.4,61.9,58.4z"/>
	<path d="M70.9,58.4c-1.2,0-2.3,0.8-2.3,2.1v3c0,0.2-0.2,0.4-0.4,0.4s-0.4-0.2-0.4-0.4v-5.4c0-0.2,0.2-0.4,0.4-0.4
		c0.2,0,0.4,0.2,0.4,0.4c0,0.2,0,0.7,0,0.7c0.5-0.8,1.3-1.2,2.3-1.2c0.2,0,0.4,0.2,0.4,0.4S71.1,58.4,70.9,58.4z"/>
	<path d="M77.2,64c-0.2,0-0.4-0.2-0.4-0.4v-0.4c-0.3,0.5-1.2,0.8-2.1,0.8c-1.4,0-2.5-0.8-2.5-2c0-1.3,1.1-2,2.5-2
		c0.9,0,1.6,0.2,2.1,0.7V60c0-1.2-0.6-1.6-1.9-1.6c-0.7,0-1.3,0.2-1.9,0.4c-0.1,0-0.1,0-0.2,0c-0.1,0-0.2-0.1-0.3-0.2
		c0,0,0-0.1,0-0.2c0-0.1,0.1-0.2,0.2-0.3c0.7-0.4,1.6-0.5,2.3-0.5c1.7,0,2.7,0.7,2.7,2.4v3.5C77.6,63.8,77.4,64,77.2,64z M74.9,60.7
		c-1,0-1.8,0.4-1.8,1.3s1,1.4,1.8,1.4c1,0,1.9-0.6,1.9-1.4C76.8,61.1,75.9,60.7,74.9,60.7z"/>
	<path d="M89.4,64c-0.2,0-0.4-0.2-0.4-0.4v-3.1c0-1.1-0.5-2-1.8-2c-1.1,0-1.9,0.8-1.9,1.9v3.2c0,0.2-0.2,0.4-0.4,0.4
		s-0.4-0.2-0.4-0.4v-3.1c0-1.1-0.5-2-1.8-2c-1.2,0-1.9,0.9-1.9,2.1v3.1c0,0.2-0.2,0.4-0.4,0.4c-0.2,0-0.4-0.2-0.4-0.4v-5.4
		c0-0.2,0.2-0.4,0.4-0.4c0.2,0,0.4,0.2,0.4,0.4c0,0.2,0,0.6,0,0.6c0.5-0.7,1.2-1.1,2.1-1.1c1.1,0,1.8,0.6,2.2,1.4
		c0.4-0.9,1.3-1.4,2.3-1.4c1.6,0,2.4,1.2,2.4,2.8v3.1C89.8,63.8,89.6,64,89.4,64z"/>
	<path d="M96.8,64c-0.2,0-0.4-0.2-0.4-0.4v-0.4c-0.3,0.5-1.2,0.8-2.1,0.8c-1.4,0-2.5-0.8-2.5-2c0-1.3,1.1-2,2.5-2
		c0.9,0,1.6,0.2,2.1,0.7V60c0-1.2-0.6-1.6-1.9-1.6c-0.7,0-1.3,0.2-1.9,0.4c-0.1,0-0.1,0-0.2,0c-0.1,0-0.2-0.1-0.3-0.2
		c0,0,0-0.1,0-0.2c0-0.1,0.1-0.2,0.2-0.3c0.7-0.4,1.6-0.5,2.3-0.5c1.7,0,2.7,0.7,2.7,2.4v3.5C97.2,63.8,97.1,64,96.8,64z M94.5,60.7
		c-1,0-1.8,0.4-1.8,1.3s1,1.4,1.8,1.4c1,0,1.9-0.6,1.9-1.4C96.4,61.1,95.5,60.7,94.5,60.7z"/>
</g>
<g>
	<path d="M47.4,80.7c-1.1,0-2-0.5-2.4-1.3v0.8c0,0.2-0.2,0.4-0.4,0.4s-0.4-0.2-0.4-0.4v-8.6c0-0.2,0.2-0.4,0.4-0.4s0.4,0.2,0.4,0.4
		v4.1c0.4-0.7,1.3-1.3,2.4-1.3c1.7,0,3.1,1.4,3.1,3.2S49.1,80.7,47.4,80.7z M47.3,75.1c-1.3,0-2.4,1.1-2.4,2.4s1,2.4,2.4,2.4
		c1.3,0,2.3-1,2.3-2.4S48.7,75.1,47.3,75.1z"/>
	<path d="M52.9,72.8c-0.3,0-0.5-0.2-0.5-0.5c0-0.3,0.2-0.5,0.5-0.5s0.5,0.2,0.5,0.5C53.4,72.6,53.2,72.8,52.9,72.8z M52.9,80.6
		c-0.2,0-0.4-0.2-0.4-0.4v-5.4c0-0.2,0.2-0.4,0.4-0.4s0.4,0.2,0.4,0.4v5.4C53.4,80.4,53.2,80.6,52.9,80.6z"/>
	<path d="M56.6,80.6c-0.2,0-0.4-0.2-0.4-0.4v-8.6c0-0.2,0.2-0.4,0.4-0.4s0.4,0.2,0.4,0.4v8.6C57,80.5,56.9,80.6,56.6,80.6z"/>
	<path d="M60.3,72.8c-0.3,0-0.5-0.2-0.5-0.5c0-0.3,0.2-0.5,0.5-0.5c0.3,0,0.5,0.2,0.5,0.5C60.8,72.6,60.6,72.8,60.3,72.8z
		 M60.3,80.6c-0.2,0-0.4-0.2-0.4-0.4v-5.4c0-0.2,0.2-0.4,0.4-0.4c0.2,0,0.4,0.2,0.4,0.4v5.4C60.7,80.4,60.6,80.6,60.3,80.6z"/>
	<path d="M68.8,80.6c-0.2,0-0.4-0.2-0.4-0.4v-3.1c0-1.1-0.6-2-1.9-2c-1.2,0-2.1,0.9-2.1,2.1v3.1c0,0.2-0.2,0.4-0.4,0.4
		c-0.2,0-0.4-0.2-0.4-0.4v-5.4c0-0.2,0.2-0.4,0.4-0.4c0.2,0,0.4,0.2,0.4,0.4v0.7c0.5-0.7,1.4-1.1,2.3-1.1c1.6,0,2.6,1.2,2.6,2.8v3.1
		C69.3,80.4,69.1,80.6,68.8,80.6z"/>
	<path d="M74.2,83.2c-0.8,0-1.6-0.1-2.3-0.4c-0.2-0.1-0.2-0.2-0.2-0.3c0,0,0-0.1,0-0.1c0.1-0.1,0.2-0.2,0.3-0.2c0,0,0.1,0,0.1,0
		c0.7,0.2,1.3,0.4,2.1,0.4c1.7,0,2.5-1,2.5-2.4c0-0.8,0-0.8,0-0.8c-0.4,0.8-1.3,1.3-2.4,1.3c-1.7,0-3.1-1.4-3.1-3.2
		c0-1.8,1.4-3.1,3.1-3.1c1.1,0,1.9,0.5,2.4,1.3v-0.9c0-0.2,0.2-0.4,0.4-0.4c0.2,0,0.4,0.2,0.4,0.4V80C77.5,81.8,76.4,83.2,74.2,83.2
		z M74.3,75.1c-1.3,0-2.3,1.1-2.3,2.4s1,2.4,2.3,2.4s2.4-1.1,2.4-2.4S75.6,75.1,74.3,75.1z"/>
	<path d="M85.3,80.6c-0.2,0-0.4-0.2-0.4-0.4v-0.7c-0.5,0.7-1.3,1.1-2.3,1.1c-1.6,0-2.6-1.2-2.6-2.8v-3.1c0-0.2,0.2-0.4,0.4-0.4
		s0.4,0.2,0.4,0.4v3.1c0,1.1,0.6,2,1.9,2c1.2,0,2.1-0.9,2.1-2.1v-3.1c0-0.2,0.2-0.4,0.4-0.4s0.4,0.2,0.4,0.4v5.4
		C85.7,80.4,85.6,80.6,85.3,80.6z M81.6,73.5c-0.3,0-0.5-0.2-0.5-0.5c0-0.3,0.2-0.5,0.5-0.5s0.5,0.2,0.5,0.5
		C82.1,73.2,81.9,73.5,81.6,73.5z M84.1,73.5c-0.3,0-0.5-0.2-0.5-0.5c0-0.3,0.2-0.5,0.5-0.5c0.3,0,0.5,0.2,0.5,0.5
		C84.6,73.2,84.4,73.5,84.1,73.5z"/>
	<path d="M93.5,77.7c0,0,0,0-4.9,0c0,1.2,1,2.2,2.3,2.2c0.9,0,1.5-0.4,2.1-1c0.1-0.1,0.2-0.1,0.3-0.1c0.1,0,0.2,0,0.2,0.1
		c0.1,0.1,0.1,0.2,0.1,0.3c0,0.1,0,0.2-0.1,0.2c-0.5,0.6-1.5,1.2-2.6,1.2c-1.8,0-3.2-1.4-3.2-3.2s1.3-3.2,3.1-3.2c1.7,0,3,1.4,3,3.1
		C93.8,77.6,93.7,77.7,93.5,77.7z M90.8,75c-1.2,0-2.1,0.9-2.2,2.1c1,0,4.4,0,4.4,0C92.8,75.9,92,75,90.8,75z"/>
</g>
</svg>
