<?xml version="1.0" encoding="utf-8"?>
<!-- Generator: Adobe Illustrator 18.0.0, SVG Export Plug-In . SVG Version: 6.00 Build 0)  -->
<!DOCTYPE svg PUBLIC "-//W3C//DTD SVG 1.1//EN" "http://www.w3.org/Graphics/SVG/1.1/DTD/svg11.dtd">
<svg version="1.1" id="Capa_1" xmlns="http://www.w3.org/2000/svg" xmlns:xlink="http://www.w3.org/1999/xlink" x="0px" y="0px"
	 viewBox="0 0 134.1 134.1" enable-background="new 0 0 134.1 134.1" xml:space="preserve">
<rect x="0" y="0" fill="#FFFFFF" width="134.1" height="134.1"/>
<g>
	<path d="M44,47.4c-0.2,0-0.4-0.2-0.4-0.4v-6.7c-0.8,1.6-3.1,6.9-3.1,6.9c-0.1,0.2-0.2,0.2-0.4,0.2c-0.2,0-0.3-0.1-0.4-0.2l-3.1-6.9
		V47c0,0.2-0.2,0.4-0.4,0.4c-0.2,0-0.4-0.2-0.4-0.4v-8.6c0-0.2,0.2-0.4,0.4-0.4c0.2,0,0.3,0.1,0.4,0.3l3.6,7.8l3.6-7.9
		c0.1-0.2,0.2-0.3,0.4-0.3c0.2,0,0.4,0.2,0.4,0.4V47C44.5,47.2,44.3,47.4,44,47.4z"/>
	<path d="M49.6,47.5c-1.8,0-3.2-1.4-3.2-3.2c0-1.8,1.4-3.2,3.2-3.2c1.8,0,3.2,1.4,3.2,3.2C52.8,46.1,51.4,47.5,49.6,47.5z
		 M49.6,41.9c-1.3,0-2.3,1.1-2.3,2.4s1,2.4,2.3,2.4c1.3,0,2.4-1.1,2.4-2.4S51,41.9,49.6,41.9z"/>
	<path d="M59.9,47.4c-0.2,0-0.4-0.2-0.4-0.4v-0.8C59,47,58.1,47.5,57,47.5c-1.7,0-3.1-1.4-3.1-3.2c0-1.8,1.4-3.2,3.1-3.2
		c1.1,0,2,0.6,2.4,1.3v-4.1c0-0.2,0.2-0.4,0.4-0.4s0.4,0.2,0.4,0.4V47C60.3,47.2,60.1,47.4,59.9,47.4z M57.1,41.9
		c-1.3,0-2.3,1-2.3,2.4c0,1.4,1,2.4,2.3,2.4c1.3,0,2.4-1.1,2.4-2.4C59.4,42.9,58.4,41.9,57.1,41.9z"/>
	<path d="M68,44.5c0,0,0,0-4.9,0c0,1.2,1,2.2,2.3,2.2c0.9,0,1.5-0.4,2-1c0.1-0.1,0.2-0.1,0.3-0.1c0.1,0,0.2,0,0.2,0.1
		c0.1,0.1,0.1,0.2,0.1,0.3c0,0.1,0,0.2-0.1,0.2c-0.5,0.6-1.5,1.2-2.6,1.2c-1.8,0-3.2-1.4-3.2-3.2s1.3-3.2,3.1-3.2c1.7,0,3,1.4,3,3.1
		C68.3,44.4,68.2,44.5,68,44.5z M65.3,41.8c-1.2,0-2.1,0.9-2.2,2.1c1,0,4.4,0,4.4,0C67.4,42.7,66.5,41.8,65.3,41.8z"/>
	<path d="M70.6,47.4c-0.2,0-0.4-0.2-0.4-0.4v-8.6c0-0.2,0.2-0.4,0.4-0.4c0.2,0,0.4,0.2,0.4,0.4V47C71,47.3,70.9,47.4,70.6,47.4z"/>
	<path d="M76.1,47.5c-1.8,0-3.2-1.4-3.2-3.2c0-1.8,1.4-3.2,3.2-3.2c1.8,0,3.2,1.4,3.2,3.2C79.3,46.1,77.9,47.5,76.1,47.5z
		 M76.1,41.9c-1.3,0-2.3,1.1-2.3,2.4s1,2.4,2.3,2.4c1.3,0,2.4-1.1,2.4-2.4S77.5,41.9,76.1,41.9z"/>
	<path d="M90.2,47.4c-0.2,0-0.4-0.2-0.4-0.4v-0.8c-0.4,0.8-1.4,1.3-2.4,1.3c-1.7,0-3.1-1.4-3.1-3.2c0-1.8,1.4-3.2,3.1-3.2
		c1.1,0,2,0.6,2.4,1.3v-4.1c0-0.2,0.2-0.4,0.4-0.4s0.4,0.2,0.4,0.4V47C90.7,47.2,90.5,47.4,90.2,47.4z M87.5,41.9
		c-1.3,0-2.3,1-2.3,2.4c0,1.4,1,2.4,2.3,2.4c1.3,0,2.4-1.1,2.4-2.4C89.8,42.9,88.8,41.9,87.5,41.9z"/>
	<path d="M98.4,44.5c0,0,0,0-4.9,0c0,1.2,1,2.2,2.3,2.2c0.9,0,1.5-0.4,2-1c0.1-0.1,0.2-0.1,0.3-0.1c0.1,0,0.2,0,0.2,0.1
		c0.1,0.1,0.1,0.2,0.1,0.3c0,0.1,0,0.2-0.1,0.2c-0.5,0.6-1.5,1.2-2.6,1.2c-1.8,0-3.2-1.4-3.2-3.2s1.3-3.2,3.1-3.2c1.7,0,3,1.4,3,3.1
		C98.7,44.4,98.6,44.5,98.4,44.5z M95.7,41.8c-1.2,0-2.1,0.9-2.2,2.1c1,0,4.4,0,4.4,0C97.8,42.7,96.9,41.8,95.7,41.8z"/>
</g>
<g>
	<path d="M23.8,61.1c0,0,0,0-4.9,0c0,1.2,1,2.2,2.3,2.2c0.9,0,1.5-0.4,2-1c0.1-0.1,0.2-0.1,0.3-0.1c0.1,0,0.2,0,0.2,0.1
		c0.1,0.1,0.1,0.2,0.1,0.3c0,0.1,0,0.2-0.1,0.2c-0.5,0.6-1.5,1.2-2.6,1.2c-1.8,0-3.2-1.4-3.2-3.2s1.3-3.2,3.1-3.2c1.7,0,3,1.4,3,3.1
		C24.1,61,24,61.1,23.8,61.1z M21,58.5c-1.2,0-2.1,0.9-2.2,2.1c1,0,4.4,0,4.4,0C23.1,59.4,22.3,58.5,21,58.5z"/>
	<path d="M31.2,64c-0.2,0-0.4-0.2-0.4-0.4v-3.1c0-1.2-0.6-2-1.9-2c-1.2,0-2.1,0.9-2.1,2.1v3.1c0,0.2-0.2,0.4-0.4,0.4
		c-0.2,0-0.4-0.2-0.4-0.4v-5.4c0-0.2,0.2-0.4,0.4-0.4c0.2,0,0.4,0.2,0.4,0.4v0.7c0.5-0.7,1.4-1.1,2.3-1.1c1.6,0,2.6,1.2,2.6,2.8v3.1
		C31.6,63.9,31.4,64,31.2,64z"/>
	<path d="M36.7,58.6h-1.2v5c0,0.2-0.2,0.4-0.4,0.4s-0.4-0.2-0.4-0.4v-5h-1.1c-0.2,0-0.3-0.2-0.3-0.3c0-0.2,0.1-0.3,0.3-0.3h1.1v-2
		c0-0.2,0.2-0.4,0.4-0.4s0.4,0.2,0.4,0.4v2h1.2c0.2,0,0.3,0.2,0.3,0.3C37,58.5,36.8,58.6,36.7,58.6z"/>
	<path d="M42,58.5c-1.2,0-2.3,0.8-2.3,2.1v3c0,0.2-0.2,0.4-0.4,0.4s-0.4-0.2-0.4-0.4v-5.4c0-0.2,0.2-0.4,0.4-0.4
		c0.2,0,0.4,0.2,0.4,0.4c0,0.2,0,0.7,0,0.7c0.5-0.8,1.3-1.2,2.3-1.2c0.2,0,0.4,0.2,0.4,0.4C42.3,58.3,42.2,58.5,42,58.5z"/>
	<path d="M48.7,61.1c0,0,0,0-4.9,0c0,1.2,1,2.2,2.3,2.2c0.9,0,1.5-0.4,2-1c0.1-0.1,0.2-0.1,0.3-0.1c0.1,0,0.2,0,0.2,0.1
		c0.1,0.1,0.1,0.2,0.1,0.3c0,0.1,0,0.2-0.1,0.2c-0.5,0.6-1.5,1.2-2.6,1.2c-1.8,0-3.2-1.4-3.2-3.2s1.3-3.2,3.1-3.2c1.7,0,3,1.4,3,3.1
		C49,61,48.9,61.1,48.7,61.1z M46,58.5c-1.2,0-2.1,0.9-2.2,2.1c1,0,4.4,0,4.4,0C48.1,59.4,47.2,58.5,46,58.5z"/>
	<path d="M56.2,64c-0.2,0-0.4-0.2-0.4-0.4v-3.1c0-1.2-0.6-2-1.9-2c-1.2,0-2.1,0.9-2.1,2.1v3.1c0,0.2-0.2,0.4-0.4,0.4
		c-0.2,0-0.4-0.2-0.4-0.4v-5.4c0-0.2,0.2-0.4,0.4-0.4c0.2,0,0.4,0.2,0.4,0.4v0.7c0.5-0.7,1.4-1.1,2.3-1.1c1.6,0,2.6,1.2,2.6,2.8v3.1
		C56.6,63.9,56.4,64,56.2,64z"/>
	<path d="M63.6,64c-0.2,0-0.4-0.2-0.4-0.4v-0.4c-0.3,0.5-1.2,0.8-2.1,0.8c-1.4,0-2.5-0.8-2.5-2c0-1.3,1.1-2,2.5-2
		c0.9,0,1.6,0.2,2.1,0.7v-0.7c0-1.2-0.6-1.6-1.9-1.6c-0.7,0-1.3,0.2-1.9,0.4c-0.1,0-0.1,0-0.2,0c-0.1,0-0.2-0.1-0.3-0.2
		c0,0,0-0.1,0-0.2c0-0.1,0.1-0.2,0.2-0.3c0.7-0.4,1.6-0.5,2.3-0.5c1.7,0,2.7,0.7,2.7,2.4v3.5C64,63.9,63.9,64,63.6,64z M61.3,60.7
		c-1,0-1.8,0.4-1.8,1.3s1,1.4,1.8,1.4c1,0,1.9-0.6,1.9-1.4C63.2,61.1,62.3,60.7,61.3,60.7z"/>
	<path d="M75.8,64c-0.2,0-0.4-0.2-0.4-0.4v-3.1c0-1.2-0.5-2-1.8-2c-1.1,0-1.9,0.8-1.9,1.9v3.2c0,0.2-0.2,0.4-0.4,0.4
		c-0.2,0-0.4-0.2-0.4-0.4v-3.1c0-1.2-0.5-2-1.8-2c-1.2,0-1.9,0.9-1.9,2.1v3.1c0,0.2-0.2,0.4-0.4,0.4c-0.2,0-0.4-0.2-0.4-0.4v-5.4
		c0-0.2,0.2-0.4,0.4-0.4c0.2,0,0.4,0.2,0.4,0.4c0,0.2,0,0.6,0,0.6c0.5-0.7,1.2-1.1,2.1-1.1c1.1,0,1.8,0.6,2.2,1.4
		c0.4-0.9,1.3-1.4,2.3-1.4c1.6,0,2.4,1.2,2.4,2.8v3.1C76.2,63.9,76.1,64,75.8,64z"/>
	<path d="M79.5,56.2c-0.3,0-0.5-0.2-0.5-0.5c0-0.3,0.2-0.5,0.5-0.5c0.3,0,0.5,0.2,0.5,0.5C79.9,56,79.7,56.2,79.5,56.2z M79.5,64
		c-0.2,0-0.4-0.2-0.4-0.4v-5.4c0-0.2,0.2-0.4,0.4-0.4c0.2,0,0.4,0.2,0.4,0.4v5.4C79.9,63.9,79.7,64,79.5,64z"/>
	<path d="M87.7,61.1c0,0,0,0-4.9,0c0,1.2,1,2.2,2.3,2.2c0.9,0,1.5-0.4,2-1c0.1-0.1,0.2-0.1,0.3-0.1c0.1,0,0.2,0,0.2,0.1
		c0.1,0.1,0.1,0.2,0.1,0.3c0,0.1,0,0.2-0.1,0.2c-0.5,0.6-1.5,1.2-2.6,1.2c-1.8,0-3.2-1.4-3.2-3.2s1.3-3.2,3.1-3.2c1.7,0,3,1.4,3,3.1
		C88,61,87.9,61.1,87.7,61.1z M85,58.5c-1.2,0-2.1,0.9-2.2,2.1c1,0,4.4,0,4.4,0C87,59.4,86.2,58.5,85,58.5z"/>
	<path d="M95.1,64c-0.2,0-0.4-0.2-0.4-0.4v-3.1c0-1.2-0.6-2-1.9-2c-1.2,0-2.1,0.9-2.1,2.1v3.1c0,0.2-0.2,0.4-0.4,0.4
		c-0.2,0-0.4-0.2-0.4-0.4v-5.4c0-0.2,0.2-0.4,0.4-0.4c0.2,0,0.4,0.2,0.4,0.4v0.7c0.5-0.7,1.4-1.1,2.3-1.1c1.6,0,2.6,1.2,2.6,2.8v3.1
		C95.6,63.9,95.4,64,95.1,64z"/>
	<path d="M100.6,58.6h-1.2v5c0,0.2-0.2,0.4-0.4,0.4s-0.4-0.2-0.4-0.4v-5h-1.1c-0.2,0-0.3-0.2-0.3-0.3c0-0.2,0.1-0.3,0.3-0.3h1.1v-2
		c0-0.2,0.2-0.4,0.4-0.4s0.4,0.2,0.4,0.4v2h1.2c0.2,0,0.3,0.2,0.3,0.3C100.9,58.5,100.8,58.6,100.6,58.6z"/>
	<path d="M104.9,64.1c-1.8,0-3.2-1.4-3.2-3.2c0-1.8,1.4-3.2,3.2-3.2c1.8,0,3.2,1.4,3.2,3.2C108,62.7,106.6,64.1,104.9,64.1z
		 M104.9,58.5c-1.3,0-2.3,1.1-2.3,2.4s1,2.4,2.3,2.4c1.3,0,2.4-1.1,2.4-2.4S106.2,58.5,104.9,58.5z"/>
	<path d="M118.2,58.3l-2.4,5.5c-0.5,1.2-1.5,2.3-2.8,2.8c0,0-0.1,0-0.1,0c-0.2,0-0.3-0.2-0.3-0.3c0-0.2,0.1-0.3,0.3-0.4
		c1.1-0.4,1.9-1.3,2.3-2.3c0,0-0.1-0.2-2.3-5.3c0,0,0-0.1,0-0.1c0-0.2,0.1-0.3,0.2-0.4c0.1,0,0.1,0,0.2,0c0.1,0,0.3,0.1,0.3,0.2
		l2.1,4.7l2-4.7c0.1-0.1,0.2-0.2,0.4-0.2c0,0,0.1,0,0.1,0c0.1,0.1,0.2,0.2,0.2,0.3C118.2,58.2,118.2,58.3,118.2,58.3z"/>
</g>
<g>
	<path d="M19,80.7c-0.2,0-0.4-0.2-0.4-0.4v-0.4c-0.3,0.5-1.2,0.8-2.1,0.8c-1.4,0-2.5-0.8-2.5-2c0-1.3,1.1-2,2.5-2
		c0.9,0,1.6,0.2,2.1,0.7v-0.7c0-1.2-0.6-1.6-1.9-1.6c-0.7,0-1.3,0.2-1.9,0.4c-0.1,0-0.1,0-0.2,0c-0.1,0-0.2-0.1-0.3-0.2
		c0,0,0-0.1,0-0.2c0-0.1,0.1-0.2,0.2-0.3c0.7-0.4,1.6-0.5,2.3-0.5c1.7,0,2.7,0.7,2.7,2.4v3.5C19.4,80.5,19.3,80.7,19,80.7z
		 M16.7,77.4c-1,0-1.8,0.4-1.8,1.3s1,1.4,1.8,1.4c1,0,1.9-0.6,1.9-1.4C18.6,77.7,17.7,77.4,16.7,77.4z"/>
	<path d="M26.6,79.5c-0.6,0.7-1.5,1.2-2.5,1.2c-1.8,0-3.2-1.4-3.2-3.2c0-1.8,1.4-3.2,3.2-3.2c0.8,0,1.6,0.3,2.2,0.9
		c0.1,0.1,0.1,0.2,0.1,0.3c0,0.1,0,0.2-0.1,0.2c-0.1,0.1-0.2,0.1-0.3,0.1c-0.1,0-0.2,0-0.2-0.1c-0.6-0.4-1.1-0.7-1.7-0.7
		c-1.3,0-2.3,1.1-2.3,2.5c0,1.4,1,2.5,2.3,2.5c0.9,0,1.5-0.4,2-1c0.1-0.1,0.2-0.1,0.2-0.1c0.1,0,0.2,0,0.3,0.1s0.1,0.2,0.1,0.3
		C26.7,79.4,26.7,79.4,26.6,79.5z"/>
	<path d="M30.8,80.7c-1.8,0-3.2-1.4-3.2-3.2c0-1.8,1.4-3.2,3.2-3.2c1.8,0,3.2,1.4,3.2,3.2C34,79.3,32.6,80.7,30.8,80.7z M30.8,75.1
		c-1.3,0-2.3,1.1-2.3,2.4s1,2.4,2.3,2.4c1.3,0,2.4-1.1,2.4-2.4S32.2,75.1,30.8,75.1z"/>
	<path d="M45.4,80.7c-0.2,0-0.4-0.2-0.4-0.4v-3.1c0-1.2-0.5-2-1.8-2c-1.1,0-1.9,0.8-1.9,1.9v3.2c0,0.2-0.2,0.4-0.4,0.4
		c-0.2,0-0.4-0.2-0.4-0.4v-3.1c0-1.2-0.5-2-1.8-2c-1.2,0-1.9,0.9-1.9,2.1v3.1c0,0.2-0.2,0.4-0.4,0.4c-0.2,0-0.4-0.2-0.4-0.4v-5.4
		c0-0.2,0.2-0.4,0.4-0.4c0.2,0,0.4,0.2,0.4,0.4c0,0.2,0,0.6,0,0.6c0.5-0.7,1.2-1.1,2.1-1.1c1.1,0,1.8,0.6,2.2,1.4
		c0.4-0.9,1.3-1.4,2.3-1.4c1.6,0,2.4,1.2,2.4,2.8v3.1C45.8,80.5,45.6,80.7,45.4,80.7z"/>
	<path d="M51.7,80.7c-1.1,0-1.9-0.5-2.4-1.3v3.4c0,0.2-0.2,0.4-0.4,0.4c-0.2,0-0.4-0.2-0.4-0.4v-8c0-0.2,0.2-0.4,0.4-0.4
		c0.2,0,0.4,0.2,0.4,0.4v0.8c0.5-0.8,1.4-1.3,2.4-1.3c1.7,0,3.1,1.4,3.1,3.2C54.8,79.4,53.5,80.7,51.7,80.7z M51.6,75.1
		c-1.3,0-2.3,1.1-2.3,2.4c0,1.4,1,2.4,2.3,2.4c1.3,0,2.3-1,2.3-2.4C54,76.1,53,75.1,51.6,75.1z"/>
	<path d="M61.1,80.7c-0.2,0-0.4-0.2-0.4-0.4v-0.4c-0.3,0.5-1.2,0.8-2.1,0.8c-1.4,0-2.5-0.8-2.5-2c0-1.3,1.1-2,2.5-2
		c0.9,0,1.6,0.2,2.1,0.7v-0.7c0-1.2-0.6-1.6-1.9-1.6c-0.7,0-1.3,0.2-1.9,0.4c-0.1,0-0.1,0-0.2,0c-0.1,0-0.2-0.1-0.3-0.2
		c0,0,0-0.1,0-0.2c0-0.1,0.1-0.2,0.2-0.3c0.7-0.4,1.6-0.5,2.3-0.5c1.7,0,2.7,0.7,2.7,2.4v3.5C61.5,80.5,61.3,80.7,61.1,80.7z
		 M58.8,77.4c-1,0-1.8,0.4-1.8,1.3s1,1.4,1.8,1.4c1,0,1.9-0.6,1.9-1.4C60.7,77.7,59.8,77.4,58.8,77.4z"/>
	<path d="M69.1,80.7c-0.2,0-0.4-0.2-0.4-0.4v-3.1c0-1.2-0.6-2-1.9-2c-1.2,0-2.1,0.9-2.1,2.1v3.1c0,0.2-0.2,0.4-0.4,0.4
		c-0.2,0-0.4-0.2-0.4-0.4v-5.4c0-0.2,0.2-0.4,0.4-0.4c0.2,0,0.4,0.2,0.4,0.4v0.7c0.5-0.7,1.4-1.1,2.3-1.1c1.6,0,2.6,1.2,2.6,2.8v3.1
		C69.5,80.5,69.3,80.7,69.1,80.7z M68.5,72.9c-0.2,0.4-0.7,0.7-1.1,0.7c-0.6,0-0.9-0.5-1.5-0.5c-0.4,0-0.6,0.3-0.8,0.5
		c0,0-0.1,0-0.1,0c-0.1,0-0.1,0-0.2-0.1c0,0-0.1-0.1-0.1-0.2c0,0,0-0.1,0-0.1c0.2-0.4,0.7-0.7,1.1-0.7c0.7,0,0.9,0.5,1.5,0.5
		c0.3,0,0.6-0.3,0.7-0.4c0,0,0.1,0,0.1,0c0.1,0,0.2,0,0.2,0.1c0,0,0.1,0.1,0.1,0.2C68.5,72.9,68.5,72.9,68.5,72.9z"/>
	<path d="M76.6,80.7c-0.2,0-0.4-0.2-0.4-0.4v-0.4c-0.3,0.5-1.2,0.8-2.1,0.8c-1.4,0-2.5-0.8-2.5-2c0-1.3,1.1-2,2.5-2
		c0.9,0,1.6,0.2,2.1,0.7v-0.7c0-1.2-0.6-1.6-1.9-1.6c-0.7,0-1.3,0.2-1.9,0.4c-0.1,0-0.1,0-0.2,0c-0.1,0-0.2-0.1-0.3-0.2
		c0,0,0-0.1,0-0.2c0-0.1,0.1-0.2,0.2-0.3c0.7-0.4,1.6-0.5,2.3-0.5c1.7,0,2.7,0.7,2.7,2.4v3.5C77,80.5,76.8,80.7,76.6,80.7z
		 M74.3,77.4c-1,0-1.8,0.4-1.8,1.3s1,1.4,1.8,1.4c1,0,1.9-0.6,1.9-1.4C76.1,77.7,75.3,77.4,74.3,77.4z"/>
	<path d="M88.8,80.7c-0.2,0-0.4-0.2-0.4-0.4v-3.1c0-1.2-0.5-2-1.8-2c-1.1,0-1.9,0.8-1.9,1.9v3.2c0,0.2-0.2,0.4-0.4,0.4
		c-0.2,0-0.4-0.2-0.4-0.4v-3.1c0-1.2-0.5-2-1.8-2c-1.2,0-1.9,0.9-1.9,2.1v3.1c0,0.2-0.2,0.4-0.4,0.4c-0.2,0-0.4-0.2-0.4-0.4v-5.4
		c0-0.2,0.2-0.4,0.4-0.4c0.2,0,0.4,0.2,0.4,0.4c0,0.2,0,0.6,0,0.6c0.5-0.7,1.2-1.1,2.1-1.1c1.1,0,1.8,0.6,2.2,1.4
		c0.4-0.9,1.3-1.4,2.3-1.4c1.6,0,2.4,1.2,2.4,2.8v3.1C89.2,80.5,89,80.7,88.8,80.7z"/>
	<path d="M92.4,72.8c-0.3,0-0.5-0.2-0.5-0.5c0-0.3,0.2-0.5,0.5-0.5c0.3,0,0.5,0.2,0.5,0.5C92.9,72.6,92.7,72.8,92.4,72.8z
		 M92.4,80.7c-0.2,0-0.4-0.2-0.4-0.4v-5.4c0-0.2,0.2-0.4,0.4-0.4s0.4,0.2,0.4,0.4v5.4C92.8,80.5,92.6,80.7,92.4,80.7z"/>
	<path d="M100.6,77.8c0,0,0,0-4.9,0c0,1.2,1,2.2,2.3,2.2c0.9,0,1.5-0.4,2-1c0.1-0.1,0.2-0.1,0.3-0.1c0.1,0,0.2,0,0.2,0.1
		c0.1,0.1,0.1,0.2,0.1,0.3c0,0.1,0,0.2-0.1,0.2c-0.5,0.6-1.5,1.2-2.6,1.2c-1.8,0-3.2-1.4-3.2-3.2s1.3-3.2,3.1-3.2c1.7,0,3,1.4,3,3.1
		C100.9,77.7,100.8,77.8,100.6,77.8z M97.9,75.1c-1.2,0-2.1,0.9-2.2,2.1c1,0,4.4,0,4.4,0C100,76,99.1,75.1,97.9,75.1z"/>
	<path d="M108.1,80.7c-0.2,0-0.4-0.2-0.4-0.4v-3.1c0-1.2-0.6-2-1.9-2c-1.2,0-2.1,0.9-2.1,2.1v3.1c0,0.2-0.2,0.4-0.4,0.4
		c-0.2,0-0.4-0.2-0.4-0.4v-5.4c0-0.2,0.2-0.4,0.4-0.4c0.2,0,0.4,0.2,0.4,0.4v0.7c0.5-0.7,1.4-1.1,2.3-1.1c1.6,0,2.6,1.2,2.6,2.8v3.1
		C108.5,80.5,108.3,80.7,108.1,80.7z"/>
	<path d="M113.5,75.2h-1.2v5c0,0.2-0.2,0.4-0.4,0.4s-0.4-0.2-0.4-0.4v-5h-1.1c-0.2,0-0.3-0.2-0.3-0.3c0-0.2,0.1-0.3,0.3-0.3h1.1v-2
		c0-0.2,0.2-0.4,0.4-0.4s0.4,0.2,0.4,0.4v2h1.2c0.2,0,0.3,0.2,0.3,0.3C113.9,75.1,113.7,75.2,113.5,75.2z"/>
	<path d="M117.8,80.7c-1.8,0-3.2-1.4-3.2-3.2c0-1.8,1.4-3.2,3.2-3.2c1.8,0,3.2,1.4,3.2,3.2C121,79.3,119.6,80.7,117.8,80.7z
		 M117.8,75.1c-1.3,0-2.3,1.1-2.3,2.4s1,2.4,2.3,2.4c1.3,0,2.4-1.1,2.4-2.4S119.1,75.1,117.8,75.1z"/>
</g>
<g>
	<path d="M48.6,97.3c-0.2,0-0.4-0.2-0.4-0.4V96c-0.4,0.8-1.4,1.3-2.4,1.3c-1.7,0-3.1-1.4-3.1-3.2c0-1.8,1.4-3.2,3.1-3.2
		c1.1,0,2,0.6,2.4,1.3v-4.1c0-0.2,0.2-0.4,0.4-0.4S49,88,49,88.2v8.6C49,97.1,48.8,97.3,48.6,97.3z M45.8,91.7c-1.3,0-2.3,1-2.3,2.4
		c0,1.4,1,2.4,2.3,2.4c1.3,0,2.4-1.1,2.4-2.4C48.2,92.8,47.2,91.7,45.8,91.7z"/>
	<path d="M54.1,97.3c-1.8,0-3.2-1.4-3.2-3.2c0-1.8,1.4-3.2,3.2-3.2c1.8,0,3.2,1.4,3.2,3.2C57.3,95.9,55.9,97.3,54.1,97.3z
		 M54.1,91.7c-1.3,0-2.3,1.1-2.3,2.4s1,2.4,2.3,2.4c1.3,0,2.4-1.1,2.4-2.4S55.5,91.7,54.1,91.7z"/>
	<path d="M64.1,96.1c-0.6,0.7-1.5,1.2-2.5,1.2c-1.8,0-3.2-1.4-3.2-3.2c0-1.8,1.4-3.2,3.2-3.2c0.8,0,1.6,0.3,2.2,0.9
		c0.1,0.1,0.1,0.2,0.1,0.3c0,0.1,0,0.2-0.1,0.2c-0.1,0.1-0.2,0.1-0.3,0.1c-0.1,0-0.2,0-0.2-0.1c-0.6-0.4-1.1-0.7-1.7-0.7
		c-1.3,0-2.3,1.1-2.3,2.5c0,1.4,1,2.5,2.3,2.5c0.9,0,1.5-0.4,2-1c0.1-0.1,0.2-0.1,0.2-0.1c0.1,0,0.2,0,0.3,0.1s0.1,0.2,0.1,0.3
		C64.1,96,64.1,96.1,64.1,96.1z"/>
	<path d="M70.9,94.4c0,0,0,0-4.9,0c0,1.2,1,2.2,2.3,2.2c0.9,0,1.5-0.4,2-1c0.1-0.1,0.2-0.1,0.3-0.1c0.1,0,0.2,0,0.2,0.1
		c0.1,0.1,0.1,0.2,0.1,0.3c0,0.1,0,0.2-0.1,0.2c-0.5,0.6-1.5,1.2-2.6,1.2c-1.8,0-3.2-1.4-3.2-3.2s1.3-3.2,3.1-3.2c1.7,0,3,1.4,3,3.1
		C71.2,94.3,71.1,94.4,70.9,94.4z M68.2,91.7c-1.2,0-2.1,0.9-2.2,2.1c1,0,4.4,0,4.4,0C70.3,92.6,69.4,91.7,68.2,91.7z"/>
	<path d="M78.4,97.3c-0.2,0-0.4-0.2-0.4-0.4v-3.1c0-1.2-0.6-2-1.9-2c-1.2,0-2.1,0.9-2.1,2.1v3.1c0,0.2-0.2,0.4-0.4,0.4
		c-0.2,0-0.4-0.2-0.4-0.4v-5.4c0-0.2,0.2-0.4,0.4-0.4c0.2,0,0.4,0.2,0.4,0.4v0.7c0.5-0.7,1.4-1.1,2.3-1.1c1.6,0,2.6,1.2,2.6,2.8v3.1
		C78.8,97.1,78.6,97.3,78.4,97.3z"/>
	<path d="M83.8,91.9h-1.2v5c0,0.2-0.2,0.4-0.4,0.4s-0.4-0.2-0.4-0.4v-5h-1.1c-0.2,0-0.3-0.2-0.3-0.3c0-0.2,0.1-0.3,0.3-0.3h1.1v-2
		c0-0.2,0.2-0.4,0.4-0.4s0.4,0.2,0.4,0.4v2h1.2c0.2,0,0.3,0.2,0.3,0.3C84.2,91.7,84,91.9,83.8,91.9z"/>
	<path d="M90.7,94.4c0,0,0,0-4.9,0c0,1.2,1,2.2,2.3,2.2c0.9,0,1.5-0.4,2-1c0.1-0.1,0.2-0.1,0.3-0.1c0.1,0,0.2,0,0.2,0.1
		c0.1,0.1,0.1,0.2,0.1,0.3c0,0.1,0,0.2-0.1,0.2c-0.5,0.6-1.5,1.2-2.6,1.2c-1.8,0-3.2-1.4-3.2-3.2S86.3,91,88,91c1.7,0,3,1.4,3,3.1
		C91,94.3,90.9,94.4,90.7,94.4z M88,91.7c-1.2,0-2.1,0.9-2.2,2.1c1,0,4.4,0,4.4,0C90.1,92.6,89.2,91.7,88,91.7z"/>
</g>
</svg>
