<?xml version="1.0" encoding="utf-8"?>
<!-- Generator: Adobe Illustrator 18.0.0, SVG Export Plug-In . SVG Version: 6.00 Build 0)  -->
<!DOCTYPE svg PUBLIC "-//W3C//DTD SVG 1.1//EN" "http://www.w3.org/Graphics/SVG/1.1/DTD/svg11.dtd">
<svg version="1.1" id="Capa_1" xmlns="http://www.w3.org/2000/svg" xmlns:xlink="http://www.w3.org/1999/xlink" x="0px" y="0px"
	 viewBox="0 0 134.1 134.1" enable-background="new 0 0 134.1 134.1" xml:space="preserve">
<rect x="0" y="0" fill="#FFFFFF" width="134.1" height="134.1"/>
<g>
	<path d="M31.3,55.7c-0.1,0-0.1,0-0.2,0c-0.2,0-0.3-0.1-0.4-0.3l-1.2-2.6h-4.7l-1.1,2.5c-0.1,0.2-0.2,0.3-0.4,0.3
		c-0.1,0-0.1,0-0.2,0c-0.2-0.1-0.2-0.2-0.2-0.4c0-0.1,0-0.1,0-0.2l3.9-8.6c0-0.1,0.2-0.3,0.4-0.3s0.3,0.2,0.4,0.3l3.9,8.6
		c0,0.1,0,0.1,0,0.2C31.6,55.4,31.5,55.6,31.3,55.7z M27.3,47.7l-2,4.4h4L27.3,47.7z"/>
	<path d="M33.8,55.7c-0.2,0-0.4-0.2-0.4-0.4v-8.6c0-0.2,0.2-0.4,0.4-0.4c0.2,0,0.4,0.2,0.4,0.4v8.6C34.2,55.5,34,55.7,33.8,55.7z"/>
	<path d="M41.8,54.5c-0.6,0.7-1.5,1.2-2.5,1.2c-1.8,0-3.2-1.4-3.2-3.2c0-1.8,1.4-3.2,3.2-3.2c0.8,0,1.6,0.3,2.2,0.9
		c0.1,0.1,0.1,0.2,0.1,0.3c0,0.1,0,0.2-0.1,0.2c-0.1,0.1-0.2,0.1-0.3,0.1c-0.1,0-0.2,0-0.2-0.1c-0.6-0.4-1.1-0.7-1.7-0.7
		c-1.3,0-2.3,1.1-2.3,2.5c0,1.4,1,2.5,2.3,2.5c0.9,0,1.5-0.4,2-1c0.1-0.1,0.2-0.1,0.2-0.1c0.1,0,0.2,0,0.3,0.1s0.1,0.2,0.1,0.3
		C41.9,54.4,41.9,54.5,41.8,54.5z"/>
	<path d="M48.1,55.7c-0.2,0-0.4-0.2-0.4-0.4v-0.4c-0.3,0.5-1.2,0.8-2.1,0.8c-1.4,0-2.5-0.8-2.5-2c0-1.3,1.1-2,2.5-2
		c0.9,0,1.6,0.2,2.1,0.7v-0.7c0-1.2-0.6-1.6-1.9-1.6c-0.7,0-1.3,0.2-1.9,0.4c-0.1,0-0.1,0-0.2,0c-0.1,0-0.2-0.1-0.3-0.2
		c0,0,0-0.1,0-0.2c0-0.1,0.1-0.2,0.2-0.3c0.7-0.4,1.6-0.5,2.3-0.5c1.7,0,2.7,0.7,2.7,2.4v3.5C48.5,55.5,48.4,55.7,48.1,55.7z
		 M45.8,52.4c-1,0-1.8,0.4-1.8,1.3s1,1.4,1.8,1.4c1,0,1.9-0.6,1.9-1.4C47.7,52.7,46.8,52.4,45.8,52.4z"/>
	<path d="M56.1,55.7c-0.2,0-0.4-0.2-0.4-0.4v-3.1c0-1.2-0.6-2-1.9-2c-1.2,0-2.1,0.9-2.1,2.1v3.1c0,0.2-0.2,0.4-0.4,0.4
		c-0.2,0-0.4-0.2-0.4-0.4v-5.4c0-0.2,0.2-0.4,0.4-0.4c0.2,0,0.4,0.2,0.4,0.4v0.7c0.5-0.7,1.4-1.1,2.3-1.1c1.6,0,2.6,1.2,2.6,2.8v3.1
		C56.6,55.5,56.4,55.7,56.1,55.7z"/>
	<path d="M64.1,54.5c-0.6,0.7-1.5,1.2-2.5,1.2c-1.8,0-3.2-1.4-3.2-3.2c0-1.8,1.4-3.2,3.2-3.2c0.8,0,1.6,0.3,2.2,0.9
		c0.1,0.1,0.1,0.2,0.1,0.3c0,0.1,0,0.2-0.1,0.2c-0.1,0.1-0.2,0.1-0.3,0.1c-0.1,0-0.2,0-0.2-0.1c-0.6-0.4-1.1-0.7-1.7-0.7
		c-1.3,0-2.3,1.1-2.3,2.5c0,1.4,1,2.5,2.3,2.5c0.9,0,1.5-0.4,2-1c0.1-0.1,0.2-0.1,0.2-0.1c0.1,0,0.2,0,0.2,0.1s0.1,0.2,0.1,0.3
		C64.2,54.4,64.1,54.5,64.1,54.5z"/>
	<path d="M70.9,52.8c0,0,0,0-4.9,0c0,1.2,1,2.2,2.3,2.2c0.9,0,1.5-0.4,2-1c0.1-0.1,0.2-0.1,0.3-0.1c0.1,0,0.2,0,0.2,0.1
		c0.1,0.1,0.1,0.2,0.1,0.3c0,0.1,0,0.2-0.1,0.2c-0.5,0.6-1.5,1.2-2.6,1.2c-1.8,0-3.2-1.4-3.2-3.2s1.3-3.2,3.1-3.2c1.7,0,3,1.4,3,3.1
		C71.3,52.7,71.1,52.8,70.9,52.8z M68.2,50.1c-1.2,0-2.1,0.9-2.2,2.1c1,0,4.4,0,4.4,0C70.3,51,69.4,50.1,68.2,50.1z"/>
	<path d="M81.3,55.7c-0.2,0-0.4-0.2-0.4-0.4v-0.4c-0.3,0.5-1.2,0.8-2.1,0.8c-1.4,0-2.5-0.8-2.5-2c0-1.3,1.1-2,2.5-2
		c0.9,0,1.6,0.2,2.1,0.7v-0.7c0-1.2-0.6-1.6-1.9-1.6c-0.7,0-1.3,0.2-1.9,0.4c-0.1,0-0.1,0-0.2,0c-0.1,0-0.2-0.1-0.3-0.2
		c0,0,0-0.1,0-0.2c0-0.1,0.1-0.2,0.2-0.3c0.7-0.4,1.6-0.5,2.3-0.5c1.7,0,2.7,0.7,2.7,2.4v3.5C81.7,55.5,81.6,55.7,81.3,55.7z
		 M79,52.4c-1,0-1.8,0.4-1.8,1.3s1,1.4,1.8,1.4c1,0,1.9-0.6,1.9-1.4C80.9,52.7,80,52.4,79,52.4z"/>
	<path d="M90.3,50.3h-1.2v5c0,0.2-0.2,0.4-0.4,0.4s-0.4-0.2-0.4-0.4v-5h-1.1c-0.2,0-0.3-0.2-0.3-0.3c0-0.2,0.1-0.3,0.3-0.3h1.1v-2
		c0-0.2,0.2-0.4,0.4-0.4s0.4,0.2,0.4,0.4v2h1.2c0.2,0,0.3,0.2,0.3,0.3C90.6,50.1,90.5,50.3,90.3,50.3z"/>
	<path d="M94.6,55.7c-1.8,0-3.2-1.4-3.2-3.2c0-1.8,1.4-3.2,3.2-3.2c1.8,0,3.2,1.4,3.2,3.2C97.8,54.3,96.3,55.7,94.6,55.7z
		 M94.6,50.1c-1.3,0-2.3,1.1-2.3,2.4s1,2.4,2.3,2.4c1.3,0,2.4-1.1,2.4-2.4S95.9,50.1,94.6,50.1z"/>
	<path d="M104.8,55.7c-0.2,0-0.4-0.2-0.4-0.4v-0.8c-0.4,0.8-1.4,1.3-2.4,1.3c-1.7,0-3.1-1.4-3.1-3.2c0-1.8,1.4-3.2,3.1-3.2
		c1.1,0,2,0.6,2.4,1.3v-4.1c0-0.2,0.2-0.4,0.4-0.4s0.4,0.2,0.4,0.4v8.6C105.2,55.5,105,55.7,104.8,55.7z M102,50.1
		c-1.3,0-2.3,1-2.3,2.4c0,1.4,1,2.4,2.3,2.4c1.3,0,2.4-1.1,2.4-2.4C104.4,51.2,103.4,50.1,102,50.1z"/>
	<path d="M112.3,55.7c-0.2,0-0.4-0.2-0.4-0.4v-0.4c-0.3,0.5-1.2,0.8-2.1,0.8c-1.4,0-2.5-0.8-2.5-2c0-1.3,1.1-2,2.5-2
		c0.9,0,1.6,0.2,2.1,0.7v-0.7c0-1.2-0.6-1.6-1.9-1.6c-0.7,0-1.3,0.2-1.9,0.4c-0.1,0-0.1,0-0.2,0c-0.1,0-0.2-0.1-0.3-0.2
		c0,0,0-0.1,0-0.2c0-0.1,0.1-0.2,0.2-0.3c0.7-0.4,1.6-0.5,2.3-0.5c1.7,0,2.7,0.7,2.7,2.4v3.5C112.7,55.5,112.6,55.7,112.3,55.7z
		 M110,52.4c-1,0-1.8,0.4-1.8,1.3s1,1.4,1.8,1.4c1,0,1.9-0.6,1.9-1.4C111.9,52.7,111,52.4,110,52.4z"/>
</g>
<g>
	<path d="M28.5,72.3c-0.2,0-0.4-0.2-0.4-0.4v-8.6c0-0.2,0.2-0.4,0.4-0.4c0.2,0,0.4,0.2,0.4,0.4v8.6C29,72.1,28.8,72.3,28.5,72.3z"/>
	<path d="M36.1,72.3c-0.2,0-0.4-0.2-0.4-0.4v-0.4c-0.3,0.5-1.2,0.8-2.1,0.8c-1.4,0-2.5-0.8-2.5-2c0-1.3,1.1-2,2.5-2
		c0.9,0,1.6,0.2,2.1,0.7v-0.7c0-1.2-0.6-1.6-1.9-1.6c-0.7,0-1.3,0.2-1.9,0.4c-0.1,0-0.1,0-0.2,0c-0.1,0-0.2-0.1-0.3-0.2
		c0,0,0-0.1,0-0.2c0-0.1,0.1-0.2,0.2-0.3c0.7-0.4,1.6-0.5,2.3-0.5c1.7,0,2.7,0.7,2.7,2.4v3.5C36.5,72.1,36.3,72.3,36.1,72.3z
		 M33.8,69c-1,0-1.8,0.4-1.8,1.3s1,1.4,1.8,1.4c1,0,1.9-0.6,1.9-1.4C35.6,69.4,34.7,69,33.8,69z"/>
	<path d="M47.5,71.2C47,71.9,46,72.4,45,72.4c-1.8,0-3.2-1.4-3.2-3.2c0-1.8,1.4-3.2,3.2-3.2c0.8,0,1.6,0.3,2.2,0.9
		c0.1,0.1,0.1,0.2,0.1,0.3c0,0.1,0,0.2-0.1,0.2c-0.1,0.1-0.2,0.1-0.3,0.1c-0.1,0-0.2,0-0.2-0.1c-0.6-0.4-1.1-0.7-1.7-0.7
		c-1.3,0-2.3,1.1-2.3,2.5c0,1.4,1,2.5,2.3,2.5c0.9,0,1.5-0.4,2-1c0.1-0.1,0.2-0.1,0.2-0.1c0.1,0,0.2,0,0.3,0.1s0.1,0.2,0.1,0.3
		C47.6,71,47.6,71.1,47.5,71.2z"/>
	<path d="M51.7,72.4c-1.8,0-3.2-1.4-3.2-3.2c0-1.8,1.4-3.2,3.2-3.2c1.8,0,3.2,1.4,3.2,3.2C54.9,71,53.5,72.4,51.7,72.4z M51.7,66.8
		c-1.3,0-2.3,1.1-2.3,2.4s1,2.4,2.3,2.4c1.3,0,2.4-1.1,2.4-2.4S53.1,66.8,51.7,66.8z"/>
	<path d="M66.3,72.3c-0.2,0-0.4-0.2-0.4-0.4v-3.1c0-1.2-0.5-2-1.8-2c-1.1,0-1.9,0.8-1.9,1.9v3.2c0,0.2-0.2,0.4-0.4,0.4
		c-0.2,0-0.4-0.2-0.4-0.4v-3.1c0-1.2-0.5-2-1.8-2c-1.2,0-1.9,0.9-1.9,2.1v3.1c0,0.2-0.2,0.4-0.4,0.4c-0.2,0-0.4-0.2-0.4-0.4v-5.4
		c0-0.2,0.2-0.4,0.4-0.4c0.2,0,0.4,0.2,0.4,0.4c0,0.2,0,0.6,0,0.6c0.5-0.7,1.2-1.1,2.1-1.1c1.1,0,1.8,0.6,2.2,1.4
		c0.4-0.9,1.3-1.4,2.3-1.4c1.6,0,2.4,1.2,2.4,2.8v3.1C66.7,72.1,66.5,72.3,66.3,72.3z"/>
	<path d="M74.6,72.3c-0.2,0-0.4-0.2-0.4-0.4v-0.7c-0.5,0.7-1.3,1.1-2.3,1.1c-1.6,0-2.6-1.2-2.6-2.8v-3.1c0-0.2,0.2-0.4,0.4-0.4
		c0.2,0,0.4,0.2,0.4,0.4v3.1c0,1.1,0.6,2,1.9,2c1.2,0,2.1-0.9,2.1-2.1v-3.1c0-0.2,0.2-0.4,0.4-0.4s0.4,0.2,0.4,0.4v5.4
		C75,72.1,74.8,72.3,74.6,72.3z"/>
	<path d="M83,72.3c-0.2,0-0.4-0.2-0.4-0.4v-3.1c0-1.2-0.6-2-1.9-2c-1.2,0-2.1,0.9-2.1,2.1v3.1c0,0.2-0.2,0.4-0.4,0.4
		c-0.2,0-0.4-0.2-0.4-0.4v-5.4c0-0.2,0.2-0.4,0.4-0.4c0.2,0,0.4,0.2,0.4,0.4v0.7c0.5-0.7,1.4-1.1,2.3-1.1c1.6,0,2.6,1.2,2.6,2.8v3.1
		C83.5,72.1,83.3,72.3,83,72.3z"/>
	<path d="M86.7,64.5c-0.3,0-0.5-0.2-0.5-0.5c0-0.3,0.2-0.5,0.5-0.5c0.3,0,0.5,0.2,0.5,0.5C87.2,64.2,87,64.5,86.7,64.5z M86.7,72.3
		c-0.2,0-0.4-0.2-0.4-0.4v-5.4c0-0.2,0.2-0.4,0.4-0.4c0.2,0,0.4,0.2,0.4,0.4v5.4C87.1,72.1,86.9,72.3,86.7,72.3z"/>
	<path d="M95.1,72.3c-0.2,0-0.4-0.2-0.4-0.4v-0.8c-0.4,0.8-1.4,1.3-2.4,1.3c-1.7,0-3.1-1.4-3.1-3.2c0-1.8,1.4-3.2,3.1-3.2
		c1.1,0,2,0.6,2.4,1.3v-4.1c0-0.2,0.2-0.4,0.4-0.4s0.4,0.2,0.4,0.4v8.6C95.5,72.1,95.3,72.3,95.1,72.3z M92.3,66.8
		c-1.3,0-2.3,1-2.3,2.4c0,1.4,1,2.4,2.3,2.4c1.3,0,2.4-1.1,2.4-2.4C94.6,67.8,93.6,66.8,92.3,66.8z"/>
	<path d="M102.6,72.3c-0.2,0-0.4-0.2-0.4-0.4v-0.4c-0.3,0.5-1.2,0.8-2.1,0.8c-1.4,0-2.5-0.8-2.5-2c0-1.3,1.1-2,2.5-2
		c0.9,0,1.6,0.2,2.1,0.7v-0.7c0-1.2-0.6-1.6-1.9-1.6c-0.7,0-1.3,0.2-1.9,0.4c-0.1,0-0.1,0-0.2,0c-0.1,0-0.2-0.1-0.3-0.2
		c0,0,0-0.1,0-0.2c0-0.1,0.1-0.2,0.2-0.3c0.7-0.4,1.6-0.5,2.3-0.5c1.7,0,2.7,0.7,2.7,2.4v3.5C103,72.1,102.8,72.3,102.6,72.3z
		 M100.3,69c-1,0-1.8,0.4-1.8,1.3s1,1.4,1.8,1.4c1,0,1.9-0.6,1.9-1.4C102.1,69.4,101.3,69,100.3,69z"/>
	<path d="M110.4,72.3c-0.2,0-0.4-0.2-0.4-0.4v-0.8c-0.4,0.8-1.4,1.3-2.4,1.3c-1.7,0-3.1-1.4-3.1-3.2c0-1.8,1.4-3.2,3.1-3.2
		c1.1,0,2,0.6,2.4,1.3v-4.1c0-0.2,0.2-0.4,0.4-0.4s0.4,0.2,0.4,0.4v8.6C110.9,72.1,110.7,72.3,110.4,72.3z M107.7,66.8
		c-1.3,0-2.3,1-2.3,2.4c0,1.4,1,2.4,2.3,2.4c1.3,0,2.4-1.1,2.4-2.4C110,67.8,109,66.8,107.7,66.8z"/>
</g>
<g>
	<path d="M45.8,86c0,0,0,0-4.9,0c0,1.2,1,2.2,2.3,2.2c0.9,0,1.5-0.4,2-1c0.1-0.1,0.2-0.1,0.3-0.1c0.1,0,0.2,0,0.2,0.1
		c0.1,0.1,0.1,0.2,0.1,0.3c0,0.1,0,0.2-0.1,0.2c-0.5,0.6-1.5,1.2-2.6,1.2c-1.8,0-3.2-1.4-3.2-3.2s1.3-3.2,3.1-3.2c1.7,0,3,1.4,3,3.1
		C46.1,85.9,46,86,45.8,86z M43.1,83.3c-1.2,0-2.1,0.9-2.2,2.1c1,0,4.4,0,4.4,0C45.2,84.2,44.3,83.3,43.1,83.3z"/>
	<path d="M53.1,88.9c-0.2,0-0.4-0.2-0.4-0.4v-0.8c-0.4,0.8-1.4,1.3-2.4,1.3c-1.7,0-3.1-1.4-3.1-3.2c0-1.8,1.4-3.2,3.1-3.2
		c1.1,0,2,0.6,2.4,1.3v-4.1c0-0.2,0.2-0.4,0.4-0.4s0.4,0.2,0.4,0.4v8.6C53.5,88.8,53.3,88.9,53.1,88.9z M50.3,83.4
		c-1.3,0-2.3,1-2.3,2.4c0,1.4,1,2.4,2.3,2.4c1.3,0,2.4-1.1,2.4-2.4C52.7,84.4,51.7,83.4,50.3,83.4z"/>
	<path d="M61.5,88.9c-0.2,0-0.4-0.2-0.4-0.4v-0.7c-0.5,0.7-1.3,1.1-2.3,1.1c-1.6,0-2.6-1.2-2.6-2.8v-3.1c0-0.2,0.2-0.4,0.4-0.4
		c0.2,0,0.4,0.2,0.4,0.4v3.1c0,1.1,0.6,2,1.9,2c1.2,0,2.1-0.9,2.1-2.1v-3.1c0-0.2,0.2-0.4,0.4-0.4s0.4,0.2,0.4,0.4v5.4
		C61.9,88.8,61.7,88.9,61.5,88.9z"/>
	<path d="M69.5,87.8C68.9,88.5,68,89,67,89c-1.8,0-3.2-1.4-3.2-3.2c0-1.8,1.4-3.2,3.2-3.2c0.8,0,1.6,0.3,2.2,0.9
		c0.1,0.1,0.1,0.2,0.1,0.3c0,0.1,0,0.2-0.1,0.2c-0.1,0.1-0.2,0.1-0.3,0.1c-0.1,0-0.2,0-0.2-0.1c-0.6-0.4-1.1-0.7-1.7-0.7
		c-1.3,0-2.3,1.1-2.3,2.5c0,1.4,1,2.5,2.3,2.5c0.9,0,1.5-0.4,2-1c0.1-0.1,0.2-0.1,0.2-0.1c0.1,0,0.2,0,0.3,0.1s0.1,0.2,0.1,0.3
		C69.6,87.6,69.6,87.7,69.5,87.8z"/>
	<path d="M75.8,88.9c-0.2,0-0.4-0.2-0.4-0.4v-0.4C75,88.6,74.2,89,73.3,89c-1.4,0-2.5-0.8-2.5-2c0-1.3,1.1-2,2.5-2
		c0.9,0,1.6,0.2,2.1,0.7V85c0-1.2-0.6-1.6-1.9-1.6c-0.7,0-1.3,0.2-1.9,0.4c-0.1,0-0.1,0-0.2,0c-0.1,0-0.2-0.1-0.3-0.2
		c0,0,0-0.1,0-0.2c0-0.1,0.1-0.2,0.2-0.3c0.7-0.4,1.6-0.5,2.3-0.5c1.7,0,2.7,0.7,2.7,2.4v3.5C76.2,88.8,76.1,88.9,75.8,88.9z
		 M73.5,85.6c-1,0-1.8,0.4-1.8,1.3s1,1.4,1.8,1.4c1,0,1.9-0.6,1.9-1.4C75.4,86,74.5,85.6,73.5,85.6z"/>
	<path d="M80.8,83.5h-1.2v5c0,0.2-0.2,0.4-0.4,0.4s-0.4-0.2-0.4-0.4v-5h-1.1c-0.2,0-0.3-0.2-0.3-0.3c0-0.2,0.1-0.3,0.3-0.3h1.1v-2
		c0-0.2,0.2-0.4,0.4-0.4s0.4,0.2,0.4,0.4v2h1.2c0.2,0,0.3,0.2,0.3,0.3C81.2,83.4,81,83.5,80.8,83.5z"/>
	<path d="M83.5,81.1c-0.3,0-0.5-0.2-0.5-0.5c0-0.3,0.2-0.5,0.5-0.5c0.3,0,0.5,0.2,0.5,0.5C84,80.9,83.8,81.1,83.5,81.1z M83.5,88.9
		c-0.2,0-0.4-0.2-0.4-0.4v-5.4c0-0.2,0.2-0.4,0.4-0.4c0.2,0,0.4,0.2,0.4,0.4v5.4C83.9,88.8,83.7,88.9,83.5,88.9z"/>
	<path d="M91.3,83.2l-2.4,5.5c-0.1,0.1-0.2,0.2-0.3,0.2s-0.3-0.1-0.3-0.2l-2.4-5.5c0-0.1,0-0.1,0-0.2c0-0.2,0.1-0.3,0.2-0.3
		c0,0,0.1,0,0.2,0c0.1,0,0.3,0.1,0.3,0.2l2.1,4.7l2.1-4.7c0.1-0.1,0.2-0.2,0.3-0.2c0.1,0,0.1,0,0.1,0c0.1,0.1,0.2,0.2,0.2,0.4
		C91.3,83.1,91.3,83.2,91.3,83.2z"/>
	<path d="M97.4,88.9c-0.2,0-0.4-0.2-0.4-0.4v-0.4c-0.3,0.5-1.2,0.8-2.1,0.8c-1.4,0-2.5-0.8-2.5-2c0-1.3,1.1-2,2.5-2
		c0.9,0,1.6,0.2,2.1,0.7V85c0-1.2-0.6-1.6-1.9-1.6c-0.7,0-1.3,0.2-1.9,0.4c-0.1,0-0.1,0-0.2,0c-0.1,0-0.2-0.1-0.3-0.2
		c0,0,0-0.1,0-0.2c0-0.1,0.1-0.2,0.2-0.3c0.7-0.4,1.6-0.5,2.3-0.5c1.7,0,2.7,0.7,2.7,2.4v3.5C97.8,88.8,97.7,88.9,97.4,88.9z
		 M95.1,85.6c-1,0-1.8,0.4-1.8,1.3s1,1.4,1.8,1.4c1,0,1.9-0.6,1.9-1.4C97,86,96.1,85.6,95.1,85.6z"/>
</g>
</svg>
