<?xml version="1.0" encoding="utf-8"?>
<!-- Generator: Adobe Illustrator 18.0.0, SVG Export Plug-In . SVG Version: 6.00 Build 0)  -->
<!DOCTYPE svg PUBLIC "-//W3C//DTD SVG 1.1//EN" "http://www.w3.org/Graphics/SVG/1.1/DTD/svg11.dtd">
<svg version="1.1" id="Capa_1" xmlns="http://www.w3.org/2000/svg" xmlns:xlink="http://www.w3.org/1999/xlink" x="0px" y="0px"
	 viewBox="0 0 134.1 134.1" enable-background="new 0 0 134.1 134.1" xml:space="preserve">
<rect x="0" y="0" fill="#FFFFFF" width="134.1" height="134.1"/>
<g>
	<path d="M52.2,54.7c-0.1,0-0.1,0-0.2,0c-0.2,0-0.3-0.1-0.4-0.2L50.5,52h-4.7l-1.1,2.5c-0.1,0.2-0.2,0.3-0.4,0.3c-0.1,0-0.1,0-0.2,0
		c-0.2-0.1-0.2-0.2-0.2-0.4c0-0.1,0-0.1,0-0.2l3.9-8.6c0-0.1,0.2-0.3,0.4-0.3s0.3,0.2,0.4,0.3l3.9,8.6c0,0.1,0,0.1,0,0.2
		C52.5,54.5,52.4,54.7,52.2,54.7z M48.1,46.7l-2,4.4h4L48.1,46.7z"/>
	<path d="M54.7,54.8c-0.2,0-0.4-0.2-0.4-0.4v-8.6c0-0.2,0.2-0.4,0.4-0.4c0.2,0,0.4,0.2,0.4,0.4v8.6C55.1,54.6,54.9,54.8,54.7,54.8z"
		/>
	<path d="M63.1,54.8c-0.2,0-0.4-0.2-0.4-0.4v-0.7c-0.5,0.7-1.3,1.1-2.3,1.1c-1.6,0-2.6-1.2-2.6-2.8v-3.1c0-0.2,0.2-0.4,0.4-0.4
		c0.2,0,0.4,0.2,0.4,0.4V52c0,1.1,0.6,2,1.9,2c1.2,0,2.1-0.9,2.1-2.1v-3.1c0-0.2,0.2-0.4,0.4-0.4s0.4,0.2,0.4,0.4v5.4
		C63.5,54.6,63.3,54.8,63.1,54.8z"/>
	<path d="M75.7,54.8c-0.2,0-0.4-0.2-0.4-0.4v-3.1c0-1.1-0.5-2-1.8-2c-1.1,0-1.9,0.8-1.9,1.9v3.2c0,0.2-0.2,0.4-0.4,0.4
		c-0.2,0-0.4-0.2-0.4-0.4v-3.1c0-1.1-0.5-2-1.8-2c-1.2,0-1.9,0.9-1.9,2.1v3.1c0,0.2-0.2,0.4-0.4,0.4c-0.2,0-0.4-0.2-0.4-0.4v-5.4
		c0-0.2,0.2-0.4,0.4-0.4c0.2,0,0.4,0.2,0.4,0.4c0,0.2,0,0.6,0,0.6c0.5-0.7,1.2-1.1,2.1-1.1c1.1,0,1.8,0.6,2.2,1.4
		c0.4-0.9,1.3-1.4,2.3-1.4c1.6,0,2.4,1.2,2.4,2.8v3.1C76.1,54.6,75.9,54.8,75.7,54.8z"/>
	<path d="M84.1,54.8c-0.2,0-0.4-0.2-0.4-0.4v-3.1c0-1.1-0.6-2-1.9-2c-1.2,0-2.1,0.9-2.1,2.1v3.1c0,0.2-0.2,0.4-0.4,0.4
		c-0.2,0-0.4-0.2-0.4-0.4v-5.4c0-0.2,0.2-0.4,0.4-0.4c0.2,0,0.4,0.2,0.4,0.4v0.7c0.5-0.7,1.4-1.1,2.3-1.1c1.6,0,2.6,1.2,2.6,2.8v3.1
		C84.5,54.6,84.3,54.8,84.1,54.8z"/>
	<path d="M89.5,54.8c-1.8,0-3.2-1.4-3.2-3.2c0-1.8,1.4-3.2,3.2-3.2c1.8,0,3.2,1.4,3.2,3.2C92.7,53.4,91.3,54.8,89.5,54.8z
		 M89.5,49.2c-1.3,0-2.3,1.1-2.3,2.4s1,2.4,2.3,2.4c1.3,0,2.4-1.1,2.4-2.4S90.9,49.2,89.5,49.2z"/>
</g>
<g>
	<path d="M17.5,70.2c-0.6,0.7-1.5,1.2-2.5,1.2c-1.8,0-3.2-1.4-3.2-3.2c0-1.8,1.4-3.2,3.2-3.2c0.8,0,1.6,0.3,2.2,0.9
		c0.1,0.1,0.1,0.2,0.1,0.3c0,0.1,0,0.2-0.1,0.2c-0.1,0.1-0.2,0.1-0.3,0.1c-0.1,0-0.2,0-0.2-0.1c-0.6-0.4-1.1-0.7-1.7-0.7
		c-1.3,0-2.3,1.1-2.3,2.5c0,1.4,1,2.5,2.3,2.5c0.9,0,1.5-0.4,2-1c0.1-0.1,0.2-0.1,0.2-0.1c0.1,0,0.2,0,0.3,0.1s0.1,0.2,0.1,0.2
		C17.6,70.1,17.6,70.2,17.5,70.2z"/>
	<path d="M21.7,71.4c-1.8,0-3.2-1.4-3.2-3.2c0-1.8,1.4-3.2,3.2-3.2c1.8,0,3.2,1.4,3.2,3.2C24.9,70,23.5,71.4,21.7,71.4z M21.7,65.8
		c-1.3,0-2.3,1.1-2.3,2.4s1,2.4,2.3,2.4c1.3,0,2.4-1.1,2.4-2.4S23.1,65.8,21.7,65.8z"/>
	<path d="M36.3,71.4c-0.2,0-0.4-0.2-0.4-0.4v-3.1c0-1.1-0.5-2-1.8-2c-1.1,0-1.9,0.8-1.9,1.9V71c0,0.2-0.2,0.4-0.4,0.4
		c-0.2,0-0.4-0.2-0.4-0.4v-3.1c0-1.1-0.5-2-1.8-2c-1.2,0-1.9,0.9-1.9,2.1V71c0,0.2-0.2,0.4-0.4,0.4c-0.2,0-0.4-0.2-0.4-0.4v-5.4
		c0-0.2,0.2-0.4,0.4-0.4c0.2,0,0.4,0.2,0.4,0.4c0,0.2,0,0.6,0,0.6c0.5-0.7,1.2-1.1,2.1-1.1c1.1,0,1.8,0.6,2.2,1.4
		c0.4-0.9,1.3-1.4,2.3-1.4c1.6,0,2.4,1.2,2.4,2.8V71C36.7,71.2,36.5,71.4,36.3,71.4z"/>
	<path d="M42.6,71.4c-1.1,0-1.9-0.5-2.4-1.3v3.4c0,0.2-0.2,0.4-0.4,0.4c-0.2,0-0.4-0.2-0.4-0.4v-8c0-0.2,0.2-0.4,0.4-0.4
		c0.2,0,0.4,0.2,0.4,0.4v0.8c0.5-0.8,1.4-1.3,2.4-1.3c1.7,0,3.1,1.4,3.1,3.2C45.7,70.1,44.4,71.4,42.6,71.4z M42.6,65.8
		c-1.3,0-2.3,1.1-2.3,2.4c0,1.4,1,2.4,2.3,2.4s2.3-1,2.3-2.4S43.9,65.8,42.6,65.8z"/>
	<path d="M52.6,68.5c0,0,0,0-4.9,0c0,1.2,1,2.2,2.3,2.2c0.9,0,1.5-0.4,2-1c0.1-0.1,0.2-0.1,0.3-0.1c0.1,0,0.2,0,0.2,0.1
		c0.1,0.1,0.1,0.2,0.1,0.3c0,0.1,0,0.2-0.1,0.2c-0.5,0.6-1.5,1.2-2.6,1.2c-1.8,0-3.2-1.4-3.2-3.2s1.3-3.2,3.1-3.2c1.7,0,3,1.4,3,3.1
		C53,68.4,52.8,68.5,52.6,68.5z M49.9,65.8c-1.2,0-2.1,0.9-2.2,2.1c1,0,4.4,0,4.4,0C52,66.7,51.1,65.8,49.9,65.8z"/>
	<path d="M57,66h-1.2v5c0,0.2-0.2,0.4-0.4,0.4s-0.4-0.2-0.4-0.4v-5h-1.1c-0.2,0-0.3-0.2-0.3-0.3s0.1-0.3,0.3-0.3h1.1v-2
		c0-0.2,0.2-0.4,0.4-0.4s0.4,0.2,0.4,0.4v2H57c0.2,0,0.3,0.2,0.3,0.3S57.2,66,57,66z"/>
	<path d="M63.9,68.5c0,0,0,0-4.9,0c0,1.2,1,2.2,2.3,2.2c0.9,0,1.5-0.4,2-1c0.1-0.1,0.2-0.1,0.3-0.1c0.1,0,0.2,0,0.2,0.1
		c0.1,0.1,0.1,0.2,0.1,0.3c0,0.1,0,0.2-0.1,0.2c-0.5,0.6-1.5,1.2-2.6,1.2c-1.8,0-3.2-1.4-3.2-3.2s1.3-3.2,3.1-3.2c1.7,0,3,1.4,3,3.1
		C64.3,68.4,64.1,68.5,63.9,68.5z M61.2,65.8c-1.2,0-2.1,0.9-2.2,2.1c1,0,4.4,0,4.4,0C63.3,66.7,62.4,65.8,61.2,65.8z"/>
	<path d="M71.4,71.4c-0.2,0-0.4-0.2-0.4-0.4v-3.1c0-1.1-0.6-2-1.9-2c-1.2,0-2.1,0.9-2.1,2.1V71c0,0.2-0.2,0.4-0.4,0.4
		c-0.2,0-0.4-0.2-0.4-0.4v-5.4c0-0.2,0.2-0.4,0.4-0.4c0.2,0,0.4,0.2,0.4,0.4v0.7c0.5-0.7,1.4-1.1,2.3-1.1c1.6,0,2.6,1.2,2.6,2.8V71
		C71.8,71.2,71.6,71.4,71.4,71.4z"/>
	<path d="M76.8,66h-1.2v5c0,0.2-0.2,0.4-0.4,0.4s-0.4-0.2-0.4-0.4v-5h-1.1c-0.2,0-0.3-0.2-0.3-0.3s0.1-0.3,0.3-0.3h1.1v-2
		c0-0.2,0.2-0.4,0.4-0.4s0.4,0.2,0.4,0.4v2h1.2c0.2,0,0.3,0.2,0.3,0.3S77,66,76.8,66z"/>
	<path d="M83.8,68.5c0,0,0,0-4.9,0c0,1.2,1,2.2,2.3,2.2c0.9,0,1.5-0.4,2-1c0.1-0.1,0.2-0.1,0.3-0.1c0.1,0,0.2,0,0.2,0.1
		c0.1,0.1,0.1,0.2,0.1,0.3c0,0.1,0,0.2-0.1,0.2c-0.5,0.6-1.5,1.2-2.6,1.2c-1.8,0-3.2-1.4-3.2-3.2s1.3-3.2,3.1-3.2c1.7,0,3,1.4,3,3.1
		C84.1,68.4,83.9,68.5,83.8,68.5z M81,65.8c-1.2,0-2.1,0.9-2.2,2.1c1,0,4.4,0,4.4,0C83.1,66.7,82.3,65.8,81,65.8z"/>
	<path d="M94.6,70.2c-0.6,0.7-1.5,1.2-2.5,1.2c-1.8,0-3.2-1.4-3.2-3.2c0-1.8,1.4-3.2,3.2-3.2c0.8,0,1.6,0.3,2.2,0.9
		c0.1,0.1,0.1,0.2,0.1,0.3c0,0.1,0,0.2-0.1,0.2c-0.1,0.1-0.2,0.1-0.3,0.1c-0.1,0-0.2,0-0.2-0.1c-0.6-0.4-1.1-0.7-1.7-0.7
		c-1.3,0-2.3,1.1-2.3,2.5c0,1.4,1,2.5,2.3,2.5c0.9,0,1.5-0.4,2-1c0.1-0.1,0.2-0.1,0.2-0.1c0.1,0,0.2,0,0.3,0.1s0.1,0.2,0.1,0.2
		C94.7,70.1,94.7,70.2,94.6,70.2z"/>
	<path d="M98.9,71.4c-1.8,0-3.2-1.4-3.2-3.2c0-1.8,1.4-3.2,3.2-3.2c1.8,0,3.2,1.4,3.2,3.2C102,70,100.6,71.4,98.9,71.4z M98.9,65.8
		c-1.3,0-2.3,1.1-2.3,2.4s1,2.4,2.3,2.4c1.3,0,2.4-1.1,2.4-2.4S100.2,65.8,98.9,65.8z"/>
	<path d="M113.4,71.4c-0.2,0-0.4-0.2-0.4-0.4v-3.1c0-1.1-0.5-2-1.8-2c-1.1,0-1.9,0.8-1.9,1.9V71c0,0.2-0.2,0.4-0.4,0.4
		c-0.2,0-0.4-0.2-0.4-0.4v-3.1c0-1.1-0.5-2-1.8-2c-1.2,0-1.9,0.9-1.9,2.1V71c0,0.2-0.2,0.4-0.4,0.4c-0.2,0-0.4-0.2-0.4-0.4v-5.4
		c0-0.2,0.2-0.4,0.4-0.4c0.2,0,0.4,0.2,0.4,0.4c0,0.2,0,0.6,0,0.6c0.5-0.7,1.2-1.1,2.1-1.1c1.1,0,1.8,0.6,2.2,1.4
		c0.4-0.9,1.3-1.4,2.3-1.4c1.6,0,2.4,1.2,2.4,2.8V71C113.8,71.2,113.6,71.4,113.4,71.4z"/>
	<path d="M118.9,71.4c-1.8,0-3.2-1.4-3.2-3.2c0-1.8,1.4-3.2,3.2-3.2c1.8,0,3.2,1.4,3.2,3.2C122,70,120.6,71.4,118.9,71.4z
		 M118.9,65.8c-1.3,0-2.3,1.1-2.3,2.4s1,2.4,2.3,2.4c1.3,0,2.4-1.1,2.4-2.4S120.2,65.8,118.9,65.8z"/>
</g>
<g>
	<path d="M43.2,86.9c-0.6,0.7-1.5,1.2-2.5,1.2c-1.8,0-3.2-1.4-3.2-3.2c0-1.8,1.4-3.2,3.2-3.2c0.8,0,1.6,0.3,2.2,0.9
		c0.1,0.1,0.1,0.2,0.1,0.3c0,0.1,0,0.2-0.1,0.2c-0.1,0.1-0.2,0.1-0.3,0.1c-0.1,0-0.2,0-0.2-0.1c-0.6-0.4-1.1-0.7-1.7-0.7
		c-1.3,0-2.3,1.1-2.3,2.5c0,1.4,1,2.5,2.3,2.5c0.9,0,1.5-0.4,2-1c0.1-0.1,0.2-0.1,0.2-0.1c0.1,0,0.2,0,0.3,0.1s0.1,0.2,0.1,0.2
		C43.3,86.7,43.3,86.8,43.2,86.9z"/>
	<path d="M50.1,85.1c0,0,0,0-4.9,0c0,1.2,1,2.2,2.3,2.2c0.9,0,1.5-0.4,2-1c0.1-0.1,0.2-0.1,0.3-0.1c0.1,0,0.2,0,0.2,0.1
		c0.1,0.1,0.1,0.2,0.1,0.3c0,0.1,0,0.2-0.1,0.2c-0.5,0.6-1.5,1.2-2.6,1.2c-1.8,0-3.2-1.4-3.2-3.2s1.3-3.2,3.1-3.2c1.7,0,3,1.4,3,3.1
		C50.4,85,50.3,85.1,50.1,85.1z M47.4,82.4c-1.2,0-2.1,0.9-2.2,2.1c1,0,4.4,0,4.4,0C49.4,83.3,48.6,82.4,47.4,82.4z"/>
	<path d="M57.5,88c-0.2,0-0.4-0.2-0.4-0.4v-3.1c0-1.1-0.6-2-1.9-2c-1.2,0-2.1,0.9-2.1,2.1v3.1c0,0.2-0.2,0.4-0.4,0.4
		c-0.2,0-0.4-0.2-0.4-0.4v-5.4c0-0.2,0.2-0.4,0.4-0.4c0.2,0,0.4,0.2,0.4,0.4v0.7c0.5-0.7,1.4-1.1,2.3-1.1c1.6,0,2.6,1.2,2.6,2.8v3.1
		C58,87.8,57.8,88,57.5,88z"/>
	<path d="M63,82.6h-1.2v5c0,0.2-0.2,0.4-0.4,0.4s-0.4-0.2-0.4-0.4v-5h-1.1c-0.2,0-0.3-0.2-0.3-0.3s0.1-0.3,0.3-0.3h1.1v-2
		c0-0.2,0.2-0.4,0.4-0.4s0.4,0.2,0.4,0.4v2H63c0.2,0,0.3,0.2,0.3,0.3S63.2,82.6,63,82.6z"/>
	<path d="M68.3,82.4c-1.2,0-2.3,0.8-2.3,2.1v3c0,0.2-0.2,0.4-0.4,0.4s-0.4-0.2-0.4-0.4v-5.4c0-0.2,0.2-0.4,0.4-0.4
		c0.2,0,0.4,0.2,0.4,0.4c0,0.2,0,0.7,0,0.7c0.5-0.8,1.3-1.2,2.3-1.2c0.2,0,0.4,0.2,0.4,0.4S68.5,82.4,68.3,82.4z"/>
	<path d="M72.4,88.1c-1.8,0-3.2-1.4-3.2-3.2c0-1.8,1.4-3.2,3.2-3.2c1.8,0,3.2,1.4,3.2,3.2C75.6,86.6,74.2,88.1,72.4,88.1z
		 M72.4,82.4c-1.3,0-2.3,1.1-2.3,2.4s1,2.4,2.3,2.4c1.3,0,2.4-1.1,2.4-2.4S73.8,82.4,72.4,82.4z"/>
	<path d="M86.5,88c-0.2,0-0.4-0.2-0.4-0.4v-0.8c-0.4,0.8-1.4,1.3-2.4,1.3c-1.7,0-3.1-1.4-3.1-3.2c0-1.8,1.4-3.2,3.1-3.2
		c1.1,0,2,0.6,2.4,1.3V79c0-0.2,0.2-0.4,0.4-0.4s0.4,0.2,0.4,0.4v8.6C86.9,87.8,86.8,88,86.5,88z M83.8,82.4c-1.3,0-2.3,1-2.3,2.4
		s1,2.4,2.3,2.4c1.3,0,2.4-1.1,2.4-2.4C86.1,83.5,85.1,82.4,83.8,82.4z"/>
	<path d="M94.7,85.1c0,0,0,0-4.9,0c0,1.2,1,2.2,2.3,2.2c0.9,0,1.5-0.4,2-1c0.1-0.1,0.2-0.1,0.3-0.1c0.1,0,0.2,0,0.2,0.1
		c0.1,0.1,0.1,0.2,0.1,0.3c0,0.1,0,0.2-0.1,0.2c-0.5,0.6-1.5,1.2-2.6,1.2c-1.8,0-3.2-1.4-3.2-3.2s1.3-3.2,3.1-3.2c1.7,0,3,1.4,3,3.1
		C95,85,94.9,85.1,94.7,85.1z M92,82.4c-1.2,0-2.1,0.9-2.2,2.1c1,0,4.4,0,4.4,0C94,83.3,93.2,82.4,92,82.4z"/>
	<path d="M97.3,88c-0.2,0-0.4-0.2-0.4-0.4V79c0-0.2,0.2-0.4,0.4-0.4c0.2,0,0.4,0.2,0.4,0.4v8.6C97.7,87.8,97.5,88,97.3,88z"/>
</g>
<g>
	<path d="M38.5,104.6c-0.2,0-0.4-0.2-0.4-0.4v-0.4c-0.3,0.5-1.2,0.8-2.1,0.8c-1.4,0-2.5-0.8-2.5-2c0-1.3,1.1-2,2.5-2
		c0.9,0,1.6,0.2,2.1,0.7v-0.7c0-1.2-0.6-1.6-1.9-1.6c-0.7,0-1.3,0.2-1.9,0.4c-0.1,0-0.1,0-0.2,0c-0.1,0-0.2-0.1-0.3-0.2
		c0,0,0-0.1,0-0.2c0-0.1,0.1-0.2,0.2-0.3c0.7-0.4,1.6-0.5,2.3-0.5c1.7,0,2.7,0.7,2.7,2.4v3.5C38.9,104.4,38.7,104.6,38.5,104.6z
		 M36.2,101.3c-1,0-1.8,0.4-1.8,1.3s1,1.4,1.8,1.4c1,0,1.9-0.6,1.9-1.4C38,101.7,37.1,101.3,36.2,101.3z"/>
	<path d="M44.5,104.7c-1.1,0-1.9-0.5-2.4-1.3v3.4c0,0.2-0.2,0.4-0.4,0.4c-0.2,0-0.4-0.2-0.4-0.4v-8c0-0.2,0.2-0.4,0.4-0.4
		c0.2,0,0.4,0.2,0.4,0.4v0.8c0.5-0.8,1.4-1.3,2.4-1.3c1.7,0,3.1,1.4,3.1,3.2C47.6,103.3,46.2,104.7,44.5,104.7z M44.4,99.1
		c-1.3,0-2.3,1.1-2.3,2.4c0,1.4,1,2.4,2.3,2.4c1.3,0,2.3-1,2.3-2.4S45.7,99.1,44.4,99.1z"/>
	<path d="M52.7,99.1c-1.2,0-2.3,0.8-2.3,2.1v3c0,0.2-0.2,0.4-0.4,0.4s-0.4-0.2-0.4-0.4v-5.4c0-0.2,0.2-0.4,0.4-0.4
		c0.2,0,0.4,0.2,0.4,0.4c0,0.2,0,0.7,0,0.7c0.5-0.8,1.3-1.2,2.3-1.2c0.2,0,0.4,0.2,0.4,0.4S52.9,99.1,52.7,99.1z"/>
	<path d="M59.4,101.7c0,0,0,0-4.9,0c0,1.2,1,2.2,2.3,2.2c0.9,0,1.5-0.4,2-1c0.1-0.1,0.2-0.1,0.3-0.1c0.1,0,0.2,0,0.2,0.1
		c0.1,0.1,0.1,0.2,0.1,0.3c0,0.1,0,0.2-0.1,0.2c-0.5,0.6-1.5,1.2-2.6,1.2c-1.8,0-3.2-1.4-3.2-3.2s1.3-3.2,3.1-3.2c1.7,0,3,1.4,3,3.1
		C59.7,101.6,59.6,101.7,59.4,101.7z M56.7,99c-1.2,0-2.1,0.9-2.2,2.1c1,0,4.4,0,4.4,0C58.8,99.9,57.9,99,56.7,99z"/>
	<path d="M66.9,104.6c-0.2,0-0.4-0.2-0.4-0.4v-3.1c0-1.1-0.6-2-1.9-2c-1.2,0-2.1,0.9-2.1,2.1v3.1c0,0.2-0.2,0.4-0.4,0.4
		c-0.2,0-0.4-0.2-0.4-0.4v-5.4c0-0.2,0.2-0.4,0.4-0.4c0.2,0,0.4,0.2,0.4,0.4v0.7c0.5-0.7,1.4-1.1,2.3-1.1c1.6,0,2.6,1.2,2.6,2.8v3.1
		C67.3,104.4,67.1,104.6,66.9,104.6z"/>
	<path d="M75.1,104.6c-0.2,0-0.4-0.2-0.4-0.4v-0.8c-0.4,0.8-1.4,1.3-2.4,1.3c-1.7,0-3.1-1.4-3.1-3.2c0-1.8,1.4-3.2,3.1-3.2
		c1.1,0,2,0.6,2.4,1.3v-4.1c0-0.2,0.2-0.4,0.4-0.4s0.4,0.2,0.4,0.4v8.6C75.5,104.4,75.4,104.6,75.1,104.6z M72.3,99.1
		c-1.3,0-2.3,1-2.3,2.4s1,2.4,2.3,2.4c1.3,0,2.4-1.1,2.4-2.4C74.7,100.1,73.7,99.1,72.3,99.1z"/>
	<path d="M78.8,96.8c-0.3,0-0.5-0.2-0.5-0.5c0-0.3,0.2-0.5,0.5-0.5c0.3,0,0.5,0.2,0.5,0.5C79.3,96.6,79.1,96.8,78.8,96.8z
		 M78.8,104.6c-0.2,0-0.4-0.2-0.4-0.4v-5.4c0-0.2,0.2-0.4,0.4-0.4s0.4,0.2,0.4,0.4v5.4C79.2,104.4,79,104.6,78.8,104.6z"/>
	<path d="M86.4,99.1l-3.8,4.7h3.5c0.2,0,0.3,0.2,0.3,0.3c0,0.2-0.2,0.3-0.3,0.3h-4.3c-0.2,0-0.4-0.1-0.4-0.4c0-0.1,0-0.2,0.1-0.2
		l3.8-4.7h-3.5c-0.2,0-0.4-0.2-0.4-0.3s0.2-0.3,0.4-0.3c4.3,0,4.3,0,4.3,0c0.2,0,0.4,0.2,0.4,0.4C86.5,99,86.5,99.1,86.4,99.1z"/>
	<path d="M92.8,104.6c-0.2,0-0.4-0.2-0.4-0.4v-0.4c-0.3,0.5-1.2,0.8-2.1,0.8c-1.4,0-2.5-0.8-2.5-2c0-1.3,1.1-2,2.5-2
		c0.9,0,1.6,0.2,2.1,0.7v-0.7c0-1.2-0.6-1.6-1.9-1.6c-0.7,0-1.3,0.2-1.9,0.4c-0.1,0-0.1,0-0.2,0c-0.1,0-0.2-0.1-0.3-0.2
		c0,0,0-0.1,0-0.2c0-0.1,0.1-0.2,0.2-0.3c0.7-0.4,1.6-0.5,2.3-0.5c1.7,0,2.7,0.7,2.7,2.4v3.5C93.2,104.4,93,104.6,92.8,104.6z
		 M90.5,101.3c-1,0-1.8,0.4-1.8,1.3s1,1.4,1.8,1.4c1,0,1.9-0.6,1.9-1.4C92.3,101.7,91.4,101.3,90.5,101.3z"/>
	<path d="M94.6,107.2h-0.4c-0.2,0-0.3-0.1-0.3-0.3s0.2-0.4,0.3-0.4h0.4c1,0,1.3-0.6,1.3-1.6v-6.1c0-0.2,0.2-0.4,0.4-0.4
		s0.4,0.2,0.4,0.4v6C96.7,106.3,96.1,107.2,94.6,107.2z M96.2,96.8c-0.3,0-0.5-0.2-0.5-0.5c0-0.3,0.2-0.5,0.5-0.5
		c0.3,0,0.5,0.2,0.5,0.5C96.7,96.6,96.5,96.8,96.2,96.8z"/>
	<path d="M104.4,101.7c0,0,0,0-4.9,0c0,1.2,1,2.2,2.3,2.2c0.9,0,1.5-0.4,2-1c0.1-0.1,0.2-0.1,0.3-0.1c0.1,0,0.2,0,0.2,0.1
		c0.1,0.1,0.1,0.2,0.1,0.3c0,0.1,0,0.2-0.1,0.2c-0.5,0.6-1.5,1.2-2.6,1.2c-1.8,0-3.2-1.4-3.2-3.2s1.3-3.2,3.1-3.2c1.7,0,3,1.4,3,3.1
		C104.7,101.6,104.5,101.7,104.4,101.7z M101.6,99c-1.2,0-2.1,0.9-2.2,2.1c1,0,4.4,0,4.4,0C103.7,99.9,102.9,99,101.6,99z"/>
</g>
</svg>
