<svg width="45" height="45" viewBox="0 0 45 45" fill="none" xmlns="http://www.w3.org/2000/svg">
<path d="M7.5 33.75C6.96875 33.75 6.52375 33.57 6.165 33.21C5.805 32.8512 5.625 32.4062 5.625 31.875C5.625 31.3438 5.805 30.8988 6.165 30.54C6.52375 30.18 6.96875 30 7.5 30H37.5C38.0312 30 38.4762 30.18 38.835 30.54C39.195 30.8988 39.375 31.3438 39.375 31.875C39.375 32.4062 39.195 32.8512 38.835 33.21C38.4762 33.57 38.0312 33.75 37.5 33.75H7.5ZM7.5 24.375C6.96875 24.375 6.52375 24.195 6.165 23.835C5.805 23.4762 5.625 23.0312 5.625 22.5C5.625 21.9688 5.805 21.5231 6.165 21.1631C6.52375 20.8044 6.96875 20.625 7.5 20.625H37.5C38.0312 20.625 38.4762 20.8044 38.835 21.1631C39.195 21.5231 39.375 21.9688 39.375 22.5C39.375 23.0312 39.195 23.4762 38.835 23.835C38.4762 24.195 38.0312 24.375 37.5 24.375H7.5ZM7.5 15C6.96875 15 6.52375 14.8206 6.165 14.4619C5.805 14.1019 5.625 13.6562 5.625 13.125C5.625 12.5938 5.805 12.1481 6.165 11.7881C6.52375 11.4294 6.96875 11.25 7.5 11.25H37.5C38.0312 11.25 38.4762 11.4294 38.835 11.7881C39.195 12.1481 39.375 12.5938 39.375 13.125C39.375 13.6562 39.195 14.1019 38.835 14.4619C38.4762 14.8206 38.0312 15 37.5 15H7.5Z" fill="white"/>
</svg>
