<svg width="29" height="29" viewBox="0 0 29 29" fill="none" xmlns="http://www.w3.org/2000/svg">
<path d="M3.5 0.75C2.77065 0.75 2.07118 1.03973 1.55546 1.55546C1.03973 2.07118 0.75 2.77065 0.75 3.5V20C0.75 20.7293 1.03973 21.4288 1.55546 21.9445C2.07118 22.4603 2.77065 22.75 3.5 22.75H9V26.875C9 27.2397 9.14487 27.5894 9.40273 27.8473C9.66059 28.1051 10.0103 28.25 10.375 28.25H11.0625C11.4062 28.25 11.75 28.1125 12.025 27.8512L17.1125 22.75H25.5C26.2293 22.75 26.9288 22.4603 27.4445 21.9445C27.9603 21.4288 28.25 20.7293 28.25 20V3.5C28.25 2.77065 27.9603 2.07118 27.4445 1.55546C26.9288 1.03973 26.2293 0.75 25.5 0.75H3.5ZM3.5 3.5H25.5V20H15.985L11.75 24.235V20H3.5V3.5ZM14.7612 5.5625C13.5375 5.5625 12.5613 5.81 11.8188 6.305C11.0625 6.8 10.6775 7.625 10.7463 8.57375H13.455C13.455 8.18875 13.5925 7.9 13.8125 7.7075C14.0875 7.515 14.39 7.41875 14.7612 7.41875C15.1875 7.41875 15.5588 7.52875 15.8062 7.77625C16.0538 8.01 16.1775 8.3125 16.1775 8.725C16.1775 9.11 16.0675 9.45375 15.875 9.7425C15.6412 10.045 15.3525 10.2925 14.995 10.485C14.28 10.925 13.8125 11.31 13.5238 11.64C13.2625 11.97 13.125 12.4375 13.125 13.125H15.875C15.875 12.74 15.9438 12.4375 16.0675 12.19C16.1913 11.9562 16.425 11.75 16.7825 11.5438C17.415 11.255 17.9375 10.87 18.3363 10.375C18.735 9.86625 18.9412 9.33 18.9412 8.725C18.9412 7.7625 18.57 6.9925 17.8275 6.415C17.085 5.85125 16.0537 5.5625 14.7612 5.5625ZM13.125 14.5V17.25H15.875V14.5H13.125Z" fill="#191F5B"/>
</svg>
