<?xml version="1.0" standalone="no"?>
<!DOCTYPE svg PUBLIC "-//W3C//DTD SVG 1.1//EN" "http://www.w3.org/Graphics/SVG/1.1/DTD/svg11.dtd" >
<svg>
<metadata>
Created by FontForge 20090622 at Thu Jul 30 18:31:19 2020
 By deploy user
Nespresso Lucas is a licensed version of FS Lucas, Copyright (c) 2016. All rights reserved. This font may not be altered in any way without prior permission of Fontsmith Ltd.
</metadata>
<defs>
<font id="NespressoLucas-XtraBd" horiz-adv-x="605" >
  <font-face 
    font-family="Nespresso Lucas XtraBd"
    font-weight="800"
    font-stretch="normal"
    units-per-em="1000"
    panose-1="2 11 6 3 6 3 2 3 2 3"
    ascent="740"
    descent="-260"
    x-height="452"
    cap-height="648"
    bbox="-550 -227 1351 902"
    underline-thickness="117"
    underline-position="16"
    unicode-range="U+000D-U+FB02"
  />
<missing-glyph horiz-adv-x="644" 
d="M70 -207v855h504v-855h-504zM322 250l206 370h-412zM100 -145l207 366l-207 365v-731zM544 -145v731l-207 -365zM116 -178h412l-206 375z" />
    <glyph glyph-name="fi" unicode="fi" horiz-adv-x="645" 
d="M507 526q-36 0 -58.5 23t-22.5 59q0 35 23.5 58t57.5 23t57 -23t23 -59q0 -37 -22.5 -59t-57.5 -22zM103 0v341h-79v111h79v34q0 194 168 194q50 0 70 -12v-122q-15 10 -37 10q-48 0 -48 -76v-28h327v-452h-153v341h-174v-341h-153z" />
    <glyph glyph-name="fl" unicode="fl" horiz-adv-x="645" 
d="M103 0v341h-79v111h79v34q0 194 168 194q50 0 70 -12v-122q-15 10 -37 10q-48 0 -48 -76v-28h80v-111h-80v-341h-153zM430 0v663h153v-663h-153z" />
    <glyph glyph-name="f_f.liga" unicode="ff" horiz-adv-x="709" 
d="M102 0v341h-78v111h78v22q0 194 175 194q47 0 77 -15v-122q-22 13 -48 13q-51 0 -51 -71v-21h174v34q0 194 191 194q60 0 97 -17v-125q-29 18 -71 18q-38 0 -51 -21t-13 -56v-27h91v-111h-91v-341h-153v341h-174v-341h-153z" />
    <glyph glyph-name="f_f_i.liga" unicode="ffi" horiz-adv-x="971" 
d="M833 526q-36 0 -58.5 23t-22.5 59q0 35 23.5 58t57.5 23t57 -23t23 -59q0 -37 -22.5 -59t-57.5 -22zM102 0v341h-78v111h78v22q0 194 175 194q47 0 77 -15v-122q-22 13 -48 13q-51 0 -51 -71v-21h174v34q0 194 168 194q50 0 70 -12v-122q-15 10 -37 10q-48 0 -48 -76v-28
h327v-452h-153v341h-174v-341h-153v341h-174v-341h-153z" />
    <glyph glyph-name="f_f_j.liga" unicode="ffj" horiz-adv-x="971" 
d="M833 526q-36 0 -58.5 23t-22.5 59q0 35 23.5 58t57.5 23t57 -23t23 -59q0 -37 -22.5 -59t-57.5 -22zM676 -207q-57 0 -84 12v121q24 -12 65 -12q55 0 77 32t22 97v298h-174v-341h-153v341h-174v-341h-153v341h-78v111h78v22q0 194 175 194q47 0 77 -15v-122
q-22 13 -48 13q-51 0 -51 -71v-21h174v34q0 194 168 194q50 0 70 -12v-122q-15 10 -37 10q-48 0 -48 -76v-28h327v-404q0 -75 -17.5 -126.5t-50.5 -79t-72.5 -38.5t-92.5 -11z" />
    <glyph glyph-name="f_f_l.liga" unicode="ffl" horiz-adv-x="971" 
d="M102 0v341h-78v111h78v22q0 194 175 194q47 0 77 -15v-122q-22 13 -48 13q-51 0 -51 -71v-21h174v34q0 194 168 194q50 0 70 -12v-122q-15 10 -37 10q-48 0 -48 -76v-28h81v-111h-81v-341h-153v341h-174v-341h-153zM756 0v663h153v-663h-153z" />
    <glyph glyph-name="f_f_t.liga" unicode="fft" horiz-adv-x="1087" 
d="M102 0v341h-78v111h78v22q0 194 175 194q47 0 77 -15v-122q-22 13 -48 13q-51 0 -51 -71v-21h174v34q0 194 168 194q50 0 70 -12v-122q-15 10 -37 10q-48 0 -48 -76v-28h57v-111h-57v-341h-153v341h-174v-341h-153zM941 -9q-185 0 -185 181v169h-59v10l202 249h10v-148
h121v-111h-121v-149q0 -39 13.5 -58.5t54.5 -19.5q36 0 74 18v-121q-36 -20 -110 -20z" />
    <glyph glyph-name="f_j.liga" unicode="fj" horiz-adv-x="644" 
d="M506 526q-36 0 -58.5 23t-22.5 59q0 35 23.5 58t57.5 23t57 -23t23 -59q0 -37 -22 -59t-58 -22zM349 -207q-57 0 -84 12v121q24 -12 65 -12q55 0 77 32t22 97v298h-174v-341h-153v341h-78v111h78v34q0 194 168 194q51 0 71 -12v-122q-15 10 -37 10q-48 0 -48 -76v-28h326
v-404q0 -75 -17.5 -126.5t-50.5 -79t-72.5 -38.5t-92.5 -11z" />
    <glyph glyph-name="f_t.liga" unicode="ft" horiz-adv-x="760" 
d="M102 0v341h-78v111h78v34q0 194 168 194q50 0 70 -12v-122q-15 10 -37 10q-48 0 -48 -76v-28h57v-111h-57v-341h-153zM614 -9q-185 0 -185 181v169h-59v10l202 249h10v-148h121v-111h-121v-149q0 -39 13.5 -58.5t54.5 -19.5q36 0 74 18v-121q-36 -20 -110 -20z" />
    <glyph glyph-name="t_t.liga" unicode="tt" horiz-adv-x="823" 
d="M279 -9q-185 0 -185 181v163h-86v10q154 166 229 255h10v-148h121v-117h-121v-143q0 -39 13.5 -58.5t54.5 -19.5q36 0 74 18v-121q-36 -20 -110 -20zM677 -9q-185 0 -185 181v163h-86v10q154 166 229 255h10v-148h121v-117h-121v-143q0 -39 13.5 -58.5t54.5 -19.5
q36 0 74 18v-121q-36 -20 -110 -20z" />
    <glyph glyph-name=".notdef" horiz-adv-x="644" 
d="M70 -207v855h504v-855h-504zM322 250l206 370h-412zM100 -145l207 366l-207 365v-731zM544 -145v731l-207 -365zM116 -178h412l-206 375z" />
    <glyph glyph-name=".null" horiz-adv-x="0" 
 />
    <glyph glyph-name="nonmarkingreturn" horiz-adv-x="333" 
 />
    <glyph glyph-name="CR" unicode="&#xd;" horiz-adv-x="210" 
 />
    <glyph glyph-name="space" unicode=" " horiz-adv-x="210" 
 />
    <glyph glyph-name="exclam" unicode="!" horiz-adv-x="317" 
d="M83 219l-8 429h164l-4 -429h-152zM159 -9q-39 0 -64 25t-25 65q0 39 26 64t63 25q38 0 63 -25t25 -65t-25.5 -64.5t-62.5 -24.5z" />
    <glyph glyph-name="quotedbl" unicode="&#x22;" horiz-adv-x="549" 
d="M92 412l-22 236h162l-23 -236h-117zM339 412l-22 236h162l-23 -236h-117z" />
    <glyph glyph-name="numbersign" unicode="#" horiz-adv-x="579" 
d="M44 0l37 148h-89l27 102h88l37 148h-91l27 102h91l37 148h128l-37 -148h70l37 148h128l-37 -148h91l-27 -102h-90l-37 -148h91l-27 -102h-91l-37 -148h-128l37 148h-70l-37 -148h-128zM235 250h70l37 148h-70z" />
    <glyph glyph-name="dollar" unicode="$" horiz-adv-x="542" 
d="M240 -90v92q-110 6 -179 37v137q28 -20 79 -35.5t100 -19.5v140q-52 15 -83.5 28t-62 35.5t-44 55.5t-13.5 80q0 83 53 131t150 56v101h62v-102q98 -8 143 -29v-139q-64 41 -143 50v-139q29 -9 49 -16t52.5 -24t53 -36t36 -50.5t15.5 -68.5q0 -180 -206 -192v-92h-62z
M240 407v120q-52 -10 -52 -61q0 -41 52 -59zM302 121q54 9 54 60q0 45 -54 62v-122z" />
    <glyph glyph-name="percent" unicode="%" horiz-adv-x="969" 
d="M209 332q-75 0 -123.5 44t-48.5 119q0 73 50 118t122 45q69 0 120.5 -44.5t51.5 -117.5q0 -74 -50 -119t-122 -45zM225 0l360 648h157l-360 -648h-157zM209 429q28 0 46.5 17.5t18.5 49.5q0 31 -19 48t-46 17q-28 0 -46.5 -17.5t-18.5 -47.5q0 -31 19 -49t46 -18z
M760 -10q-75 0 -123.5 44t-48.5 119q0 73 50 118t122 45q69 0 120.5 -44.5t51.5 -117.5q0 -74 -50 -119t-122 -45zM760 87q28 0 46.5 17.5t18.5 49.5q0 31 -19 48t-46 17q-28 0 -46.5 -17.5t-18.5 -47.5q0 -31 19 -49t46 -18z" />
    <glyph glyph-name="ampersand" unicode="&#x26;" horiz-adv-x="730" 
d="M706 282q0 -89 -58 -163l56 -48l-79 -91l-71 62q-90 -52 -209 -52q-137 0 -223 62.5t-86 166.5q0 62 31.5 106.5t84.5 66.5q-35 42 -35 94q0 70 51.5 121t151.5 51q70 0 113 -26v-126q-40 32 -91 32q-32 0 -51 -16.5t-19 -42.5q0 -22 14.5 -40.5t52.5 -51.5l214 -185
q16 32 16 77q0 99 -108 129l85 81q69 -14 114.5 -69.5t45.5 -137.5zM191 229q0 -53 46 -85.5t130 -32.5q51 0 89 12l-220 191q-45 -29 -45 -85z" />
    <glyph glyph-name="quotesingle" unicode="'" horiz-adv-x="302" 
d="M92 412l-22 236h162l-23 -236h-117z" />
    <glyph glyph-name="parenleft" unicode="(" horiz-adv-x="375" 
d="M217 -198q-185 153 -185 421t187 425h182q-98 -82 -153 -183.5t-55 -243.5q0 -121 48 -223.5t160 -195.5h-184z" />
    <glyph glyph-name="parenright" unicode=")" horiz-adv-x="375" 
d="M-26 -198q112 93 160 195.5t48 223.5q0 142 -55 243.5t-153 183.5h182q187 -157 187 -425t-185 -421h-184z" />
    <glyph glyph-name="asterisk" unicode="*" horiz-adv-x="407" 
d="M157 350l11 93l-71 -57l-46 77l85 36l-85 36l46 77l71 -57l-11 93h93l-11 -93l71 57l47 -77l-86 -36l86 -36l-47 -77l-71 57l11 -93h-93z" />
    <glyph glyph-name="plus" unicode="+" 
d="M234 8v160h-153v117h153v159h137v-159h153v-117h-153v-160h-137z" />
    <glyph glyph-name="comma" unicode="," horiz-adv-x="301" 
d="M150 170q47 0 75 -29.5t28 -86.5q0 -56 -28.5 -111.5t-85.5 -93.5h-95q77 65 93 142q-39 1 -62 22.5t-23 61.5q0 42 27.5 68.5t70.5 26.5z" />
    <glyph glyph-name="hyphen" unicode="-" horiz-adv-x="282" 
d="M32 184v117h218v-117h-218z" />
    <glyph glyph-name="period" unicode="." horiz-adv-x="303" 
d="M152 -9q-39 0 -64 25t-25 65q0 39 26 64t63 25q38 0 63 -25t25 -65t-25.5 -64.5t-62.5 -24.5z" />
    <glyph glyph-name="slash" unicode="/" horiz-adv-x="447" 
d="M0 -198l279 846h157l-279 -846h-157z" />
    <glyph glyph-name="zero" unicode="0" horiz-adv-x="621" 
d="M310 -10q-119 0 -190 95t-71 240q0 141 71 237t190 96t190.5 -96.5t71.5 -236.5q0 -143 -72 -239t-190 -96zM310 124q101 0 101 201t-101 201q-50 0 -75 -53t-25 -148t25 -148t75 -53z" />
    <glyph glyph-name="one" unicode="1" horiz-adv-x="465" 
d="M209 0v467l-139 -64v129l284 126h10v-658h-155z" />
    <glyph glyph-name="two" unicode="2" horiz-adv-x="549" 
d="M41 0v10l193 261q77 103 77 165q0 43 -25 66.5t-65 23.5q-43 0 -86.5 -23.5t-64.5 -42.5v147q69 51 173 51q110 0 169 -57.5t59 -156.5q0 -58 -22.5 -102t-92.5 -138l-56 -75h182v-129h-441z" />
    <glyph glyph-name="three" unicode="3" horiz-adv-x="569" 
d="M360 389q17 -2 36.5 -9.5t46.5 -25t44.5 -55.5t17.5 -91q0 -106 -70 -162t-184 -56q-51 0 -100 11.5t-75 27.5v146q81 -52 161 -52q108 0 108 89q0 41 -25 66t-75 25q-53 0 -97 -33l-10 8l132 242h-188v128h413v-10z" />
    <glyph glyph-name="four" unicode="4" horiz-adv-x="576" 
d="M325 0v97h-317v10l451 551h10v-450h86v-111h-86v-97h-144zM240 208h85v103z" />
    <glyph glyph-name="five" unicode="5" horiz-adv-x="569" 
d="M249 -10q-110 0 -173 40v146q64 -53 155 -53q110 0 110 93q0 45 -30.5 66t-76.5 21q-75 0 -122 -52l-11 3l53 394h310v-128h-182l-14 -110q18 7 45 7q82 0 135 -51t53 -147q0 -116 -66 -172.5t-186 -56.5z" />
    <glyph glyph-name="six" unicode="6" horiz-adv-x="584" 
d="M340 428q80 0 140 -52.5t60 -156.5q0 -105 -66 -167t-176 -62q-112 0 -182 68.5t-70 185.5q0 121 73 237t171 167h219q-88 -48 -172 -120.5t-112 -135.5q44 36 115 36zM296 122q36 0 62 25t26 67t-25.5 65t-62.5 23t-63.5 -23t-26.5 -65t27 -67t63 -25z" />
    <glyph glyph-name="seven" unicode="7" horiz-adv-x="596" 
d="M153 0q8 114 55 266.5t114 252.5h-239v129h494v-10q-79 -80 -161 -269.5t-96 -368.5h-167z" />
    <glyph glyph-name="eight" unicode="8" horiz-adv-x="585" 
d="M293 -10q-105 0 -168 54t-63 148q0 50 23.5 90t63.5 59q-31 13 -51.5 47.5t-20.5 77.5q0 87 62 139.5t153 52.5q90 0 153 -51.5t63 -138.5q0 -42 -19.5 -77t-50.5 -48q85 -38 85 -143q0 -100 -63 -155t-167 -55zM292 402q25 0 44.5 17t19.5 48q0 30 -19 46t-44 16
t-44.5 -16.5t-19.5 -47.5t19 -47t44 -16zM291 120q31 0 54 19.5t23 56.5q0 36 -23 56.5t-52 20.5q-30 0 -53 -20.5t-23 -58.5q0 -36 22 -55t52 -19z" />
    <glyph glyph-name="nine" unicode="9" horiz-adv-x="581" 
d="M286 658q117 0 184.5 -65.5t67.5 -195.5q0 -247 -240 -397h-204q225 153 271 264q-42 -33 -112 -33q-103 0 -156 59.5t-53 143.5q0 99 65.5 161.5t176.5 62.5zM289 356q36 0 61.5 23t25.5 63q0 43 -26.5 66.5t-61.5 23.5t-61 -24t-26 -64t26 -64t62 -24z" />
    <glyph glyph-name="colon" unicode=":" horiz-adv-x="303" 
d="M152 308q-39 0 -64 25t-25 65q0 39 26 64t63 25q38 0 63 -25t25 -65t-25.5 -64.5t-62.5 -24.5zM152 -9q-39 0 -64 25t-25 65q0 39 26 64t63 25q38 0 63 -25t25 -65t-25.5 -64.5t-62.5 -24.5z" />
    <glyph glyph-name="semicolon" unicode=";" horiz-adv-x="286" 
d="M151 308q-39 0 -64 25t-25 65q0 39 26 64t63 25q38 0 63 -25t25 -65t-25.5 -64.5t-62.5 -24.5zM150 170q47 0 75 -29.5t28 -86.5q0 -56 -28.5 -111.5t-85.5 -93.5h-95q77 65 93 142q-39 1 -62 22.5t-23 61.5q0 42 27.5 68.5t70.5 26.5z" />
    <glyph glyph-name="less" unicode="&#x3c;" 
d="M524 -7l-443 228v10l443 228v-141l-192 -89l192 -89v-147z" />
    <glyph glyph-name="equal" unicode="=" 
d="M81 261v117h443v-117h-443zM81 75v117h443v-117h-443z" />
    <glyph glyph-name="greater" unicode="&#x3e;" 
d="M81 -7v141l192 89l-192 89v147l443 -228v-10z" />
    <glyph glyph-name="question" unicode="?" horiz-adv-x="436" 
d="M115 219v148q62 0 95 24t33 65q0 73 -93 73q-33 0 -68.5 -15t-56.5 -35v135q54 44 160 44q104 0 160 -51t56 -140q0 -72 -38.5 -117.5t-95.5 -56.5v-74h-152zM190 -9q-39 0 -64 25t-25 65q0 39 26 64t63 25q38 0 63 -25t25 -65t-25.5 -64.5t-62.5 -24.5z" />
    <glyph glyph-name="at" unicode="@" horiz-adv-x="1010" 
d="M509 -207q-206 0 -336 117.5t-130 319.5q0 207 135.5 327.5t340.5 120.5q123 0 223.5 -44t162.5 -134t62 -212q0 -125 -65.5 -195t-170.5 -70q-46 0 -85.5 16.5t-54.5 50.5q-20 -35 -57.5 -51t-73.5 -16q-73 0 -124.5 47t-51.5 144q0 89 53.5 152.5t141.5 63.5
q81 0 110 -59l7 47h114l-14 -129q-8 -66 -8 -89q0 -68 55 -68q39 0 61 32.5t22 95.5q0 147 -87.5 224.5t-221.5 77.5q-150 0 -240.5 -93t-90.5 -242q0 -146 88.5 -230.5t239.5 -84.5q92 0 181 28t144 61v-130q-12 -9 -53.5 -26t-120.5 -34.5t-156 -17.5zM483 138
q34 0 53.5 27.5t19.5 69.5q0 37 -16 58.5t-44 21.5q-33 0 -53.5 -28t-20.5 -71q0 -37 16.5 -57.5t44.5 -20.5z" />
    <glyph glyph-name="A" unicode="A" horiz-adv-x="639" 
d="M14 0l301 658h10l300 -658h-169l-36 88h-206l-37 -88h-163zM259 206h119l-60 143z" />
    <glyph glyph-name="B" unicode="B" horiz-adv-x="593" 
d="M446 346q44 -14 77.5 -51.5t33.5 -107.5q0 -187 -259 -187h-228v648h194q255 0 255 -175q0 -48 -21 -80t-52 -47zM359 457q0 39 -25 53t-73 14h-33v-136h33q98 0 98 69zM286 125q32 0 52 3t39 20t19 49q0 24 -10.5 39t-30.5 21t-34 7.5t-35 1.5h-58v-141h58z" />
    <glyph glyph-name="C" unicode="C" horiz-adv-x="635" 
d="M392 -10q-162 0 -255.5 94.5t-93.5 238.5q0 147 96 241t250 94q109 0 181 -43v-152q-79 53 -173 53q-83 0 -137 -53.5t-54 -137.5q0 -90 54 -141t140 -51q102 0 180 54v-155q-66 -42 -188 -42z" />
    <glyph glyph-name="D" unicode="D" horiz-adv-x="681" 
d="M211 648q52 0 95 -4t95 -14.5t91.5 -32.5t74 -55.5t53 -87t18.5 -122.5q0 -82 -27.5 -143.5t-68.5 -96.5t-99.5 -56.5t-110.5 -28.5t-111 -7h-151v648h141zM228 126q53 2 96 13.5t78 34.5t54 63.5t19 94.5q0 56 -20 95t-57 59t-77 28t-93 9v-397z" />
    <glyph glyph-name="E" unicode="E" horiz-adv-x="532" 
d="M70 0v648h410v-128h-252v-126h174v-127h-174v-138h264v-129h-422z" />
    <glyph glyph-name="F" unicode="F" horiz-adv-x="514" 
d="M70 0v648h414v-128h-256v-142h180v-126h-180v-252h-158z" />
    <glyph glyph-name="G" unicode="G" horiz-adv-x="713" 
d="M382 -10q-91 0 -159 29.5t-106 79t-56 106.5t-18 121q0 150 94 241t248 91q54 0 104 -12.5t71 -23t32 -18.5v-150q-33 24 -86 43.5t-111 19.5q-79 0 -134 -50t-55 -139q0 -94 50 -145t127 -51q62 0 101.5 31.5t40.5 88.5h-163v119h318v-28q0 -171 -69 -262t-229 -91z" />
    <glyph glyph-name="H" unicode="H" horiz-adv-x="698" 
d="M70 0v648h158v-254h242v254h158v-648h-158v265h-242v-265h-158z" />
    <glyph glyph-name="I" unicode="I" horiz-adv-x="298" 
d="M70 0v648h158v-648h-158z" />
    <glyph glyph-name="J" unicode="J" horiz-adv-x="474" 
d="M178 -10q-84 0 -132 26v137q40 -29 102 -29q30 0 50 9t30.5 20t15.5 33.5t5.5 36t0.5 41.5v257h-142v127h300v-419q0 -118 -58.5 -178.5t-171.5 -60.5z" />
    <glyph glyph-name="K" unicode="K" horiz-adv-x="701" 
d="M70 0v648h158v-307l253 307h202l-274 -316l278 -332h-209l-250 314v-314h-158z" />
    <glyph glyph-name="L" unicode="L" horiz-adv-x="529" 
d="M70 0v648h158v-519h274v-129h-432z" />
    <glyph glyph-name="M" unicode="M" horiz-adv-x="863" 
d="M428 -10l-171 275l-47 -265h-159l131 658h10l240 -389l238 389h10l132 -658h-155l-50 265l-169 -275h-10z" />
    <glyph glyph-name="N" unicode="N" horiz-adv-x="706" 
d="M626 -10l-402 347v-337h-154v658h10l401 -347l1 337h154v-658h-10z" />
    <glyph glyph-name="O" unicode="O" horiz-adv-x="766" 
d="M380 -10q-152 0 -244.5 93t-92.5 241q0 150 94 242t249 92q151 0 244 -92t93 -240q0 -147 -95 -241.5t-248 -94.5zM385 134q74 0 124.5 50t50.5 139q0 90 -52 141.5t-125 51.5q-76 0 -126.5 -51t-50.5 -139q0 -92 51 -142t128 -50z" />
    <glyph glyph-name="P" unicode="P" horiz-adv-x="584" 
d="M275 648q34 0 62 -2.5t62.5 -10t60.5 -23t49 -38.5t35 -60t12 -84q0 -227 -293 -227h-35v-203h-158v648h205zM249 325q27 0 48 3t45 12.5t37.5 32t13.5 56.5q0 32 -13 52.5t-36.5 29t-44.5 11.5t-49 3h-22v-200h21z" />
    <glyph glyph-name="Q" unicode="Q" horiz-adv-x="766" 
d="M748 46l-74 -92l-105 86q-79 -50 -189 -50q-152 0 -244.5 93t-92.5 241q0 150 94 242t249 92q151 0 244 -92t93 -240q0 -122 -65 -206zM206 326q0 -92 51 -142t128 -50q34 0 59 8l-81 66l74 92l101 -83q22 44 22 106q0 90 -52 141.5t-125 51.5q-76 0 -126.5 -51
t-50.5 -139z" />
    <glyph glyph-name="R" unicode="R" horiz-adv-x="609" 
d="M426 240l164 -240h-191l-132 215h-39v-215h-158v648h203q42 0 76.5 -4t73 -17.5t64.5 -36t43 -63t17 -94.5q0 -77 -34 -124.5t-87 -68.5zM252 338q64 0 98 21t34 74q0 54 -34.5 73t-97.5 19h-24v-187h24z" />
    <glyph glyph-name="S" unicode="S" horiz-adv-x="502" 
d="M234 -10q-96 0 -179 39v150q83 -57 174 -57q36 0 55.5 14.5t19.5 38.5t-18 42.5t-45.5 29.5t-59 29t-59 39t-45.5 60t-18 91q0 89 57 140.5t161 51.5q96 0 155 -31v-148q-75 48 -144 48q-34 0 -51.5 -14.5t-17.5 -39.5q0 -27 25.5 -46.5t61.5 -35.5t72 -37t61.5 -63
t25.5 -103q0 -94 -59.5 -146t-171.5 -52z" />
    <glyph glyph-name="T" unicode="T" horiz-adv-x="563" 
d="M203 0v520h-171v128h499v-128h-170v-520h-158z" />
    <glyph glyph-name="U" unicode="U" horiz-adv-x="663" 
d="M331 -10q-131 0 -198 64t-67 210v384h158v-355q0 -33 1 -52t7 -44t17 -38t32 -22.5t51 -9.5t51 9.5t32 22t17 37t7 44.5t1 53v355h157v-383q0 -146 -67 -210.5t-199 -64.5z" />
    <glyph glyph-name="V" unicode="V" horiz-adv-x="671" 
d="M331 -9l-317 657h175l147 -347l150 347h171l-316 -657h-10z" />
    <glyph glyph-name="W" unicode="W" horiz-adv-x="1044" 
d="M333 -9l-313 657h175l146 -338l177 338h10l175 -338l150 338h171l-312 -657h-10l-179 345l-180 -345h-10z" />
    <glyph glyph-name="X" unicode="X" horiz-adv-x="676" 
d="M14 0l226 329l-221 319h193l126 -204l132 204h187l-221 -318l226 -330h-193l-133 218l-137 -218h-185z" />
    <glyph glyph-name="Y" unicode="Y" horiz-adv-x="652" 
d="M246 0v257l-232 391h175l141 -254l139 254h169l-234 -391v-257h-158z" />
    <glyph glyph-name="Z" unicode="Z" horiz-adv-x="597" 
d="M31 0v10l289 510h-265v128h512v-10l-288 -509h284v-129h-532z" />
    <glyph glyph-name="bracketleft" unicode="[" horiz-adv-x="379" 
d="M70 -198v846h277v-124h-124v-598h124v-124h-277z" />
    <glyph glyph-name="backslash" unicode="\" horiz-adv-x="447" 
d="M290 -198l-279 846h157l279 -846h-157z" />
    <glyph glyph-name="bracketright" unicode="]" horiz-adv-x="379" 
d="M32 -198v124h124v598h-124v124h277v-846h-277z" />
    <glyph glyph-name="asciicircum" unicode="^" 
d="M77 319l222 339h10l219 -339h-160l-64 108l-67 -108h-160z" />
    <glyph glyph-name="underscore" unicode="_" horiz-adv-x="418" 
d="M0 -193v117h418v-117h-418z" />
    <glyph glyph-name="grave" unicode="`" horiz-adv-x="512" 
d="M270 520l-175 171h204l123 -171h-152z" />
    <glyph glyph-name="a" unicode="a" horiz-adv-x="530" 
d="M253 461q221 0 221 -193v-268h-140l-4 44q-42 -53 -130 -53q-77 0 -122.5 37.5t-45.5 103.5q0 68 51.5 110.5t141.5 42.5q52 0 98 -17v3q0 35 -20.5 60t-70.5 25q-69 0 -147 -47v115q74 37 168 37zM246 86q35 0 56 21t21 65v9q-30 15 -71 15q-31 0 -49.5 -14.5
t-18.5 -40.5q0 -25 16.5 -40t45.5 -15z" />
    <glyph glyph-name="b" unicode="b" horiz-adv-x="593" 
d="M342 -9q-93 0 -137 56l-3 -47h-140v663h153v-242q49 40 127 40q98 0 158.5 -66.5t60.5 -168.5q0 -105 -63.5 -170t-155.5 -65zM307 118q44 0 70 31t26 79t-26.5 77.5t-70.5 29.5q-45 0 -71.5 -31.5t-26.5 -77.5q0 -51 27 -79.5t72 -28.5z" />
    <glyph glyph-name="c" unicode="c" horiz-adv-x="445" 
d="M278 -9q-63 0 -116.5 21.5t-91.5 74.5t-38 131q0 109 69 176t179 67q72 0 121 -26v-129q-46 31 -99 31q-48 0 -80 -29.5t-32 -84.5q0 -53 30 -80t79 -27q63 0 108 34v-130q-16 -11 -53 -20t-76 -9z" />
    <glyph glyph-name="d" unicode="d" horiz-adv-x="593" 
d="M251 -9q-92 0 -155.5 63.5t-63.5 171.5q0 106 62 170.5t160 64.5q79 0 124 -41v243h153v-663h-140l-4 45q-43 -54 -136 -54zM287 118q40 0 69 29.5t29 80.5q0 52 -29 79.5t-69 27.5q-43 0 -70 -31t-27 -78q0 -49 28.5 -78.5t68.5 -29.5z" />
    <glyph glyph-name="e" unicode="e" horiz-adv-x="522" 
d="M288 -9q-119 0 -187.5 58.5t-68.5 172.5q0 106 60.5 172.5t173.5 66.5q116 0 170 -67.5t54 -168.5q0 -19 -4 -44h-297q14 -71 124 -71q83 0 149 36v-119q-72 -36 -174 -36zM189 272h148q-3 29 -21 49.5t-51 20.5q-30 0 -51 -19t-25 -51z" />
    <glyph glyph-name="f" unicode="f" horiz-adv-x="382" 
d="M102 0v335h-78v117h78v34q0 194 191 194q60 0 97 -17v-126q-29 18 -71 18q-38 0 -51 -20.5t-13 -55.5v-27h91v-117h-91v-335h-153z" />
    <glyph glyph-name="g" unicode="g" horiz-adv-x="596" 
d="M283 -208q-102 0 -154 22v125q51 -23 127 -23q62 0 93.5 29.5t31.5 95.5v1q-47 -42 -127 -42q-102 0 -162 63.5t-60 163.5q0 106 66 170t159 64t136 -52l2 43h139v-408q0 -75 -18.5 -126t-54.5 -78t-78 -37.5t-100 -10.5zM284 124q41 0 68 26t27 79q0 49 -23.5 78.5
t-67.5 29.5q-43 0 -70.5 -28.5t-27.5 -80.5q0 -50 26.5 -77t67.5 -27z" />
    <glyph glyph-name="h" unicode="h" horiz-adv-x="551" 
d="M62 0v663h153v-247q42 45 114 45q80 0 123 -45.5t43 -134.5v-281h-153v247q0 45 -13 67.5t-48 22.5q-23 0 -37 -9t-20 -28.5t-7.5 -38t-1.5 -51.5v-210h-153z" />
    <glyph glyph-name="i" unicode="i" horiz-adv-x="289" 
d="M151 526q-36 0 -58.5 23t-22.5 59q0 35 23.5 58t57.5 23t57 -23t23 -59q0 -37 -22.5 -59t-57.5 -22zM74 0v335h-55v117h208v-452h-153z" />
    <glyph glyph-name="j" unicode="j" horiz-adv-x="289" 
d="M151 526q-36 0 -58.5 23t-22.5 59q0 35 23.5 58t57.5 23t57 -23t23 -59q0 -37 -22.5 -59t-57.5 -22zM-6 -207q-57 0 -84 12v121q24 -12 65 -12q55 0 77 32t22 97v292h-55v117h208v-404q0 -75 -17.5 -126.5t-50.5 -79t-72.5 -38.5t-92.5 -11z" />
    <glyph glyph-name="k" unicode="k" horiz-adv-x="563" 
d="M62 0v663h153v-411l145 200h190l-169 -208l178 -244h-191l-153 229v-229h-153z" />
    <glyph glyph-name="l" unicode="l" horiz-adv-x="277" 
d="M62 0v663h153v-663h-153z" />
    <glyph glyph-name="m" unicode="m" horiz-adv-x="819" 
d="M62 0v452h139l3 -49q41 58 117 58q85 0 129 -63q26 35 64 49t71 14q178 0 178 -194v-267h-153v248q0 29 -2.5 45t-15.5 30t-38 14q-23 0 -36.5 -9t-19.5 -29.5t-7.5 -39t-1.5 -52.5v-207h-153v248q0 29 -2.5 45t-15.5 30t-38 14q-23 0 -36.5 -9t-19.5 -29.5t-7.5 -39
t-1.5 -52.5v-207h-153z" />
    <glyph glyph-name="n" unicode="n" horiz-adv-x="551" 
d="M62 0v452h139l3 -49q42 58 125 58q80 0 123 -45.5t43 -134.5v-281h-153v247q0 45 -13 67.5t-48 22.5q-23 0 -37 -9t-20 -28.5t-7.5 -38t-1.5 -51.5v-210h-153z" />
    <glyph glyph-name="o" unicode="o" horiz-adv-x="575" 
d="M285 -9q-115 0 -184 64t-69 168q0 105 71 171.5t189 66.5q113 0 182 -62t69 -168q0 -109 -71.5 -174.5t-186.5 -65.5zM288 118q45 0 71 31t26 79q0 47 -26.5 77t-70.5 30q-46 0 -72 -32.5t-26 -76.5q0 -46 26.5 -77t71.5 -31z" />
    <glyph glyph-name="p" unicode="p" horiz-adv-x="593" 
d="M62 -198v650h139l3 -41q50 50 138 50q98 0 158.5 -66.5t60.5 -168.5q0 -105 -63.5 -170t-155.5 -65q-81 0 -128 45l1 -234h-153zM307 118q44 0 70 31t26 79t-26.5 77.5t-70.5 29.5q-45 0 -71.5 -31.5t-26.5 -77.5q0 -51 27 -79.5t72 -28.5z" />
    <glyph glyph-name="q" unicode="q" horiz-adv-x="593" 
d="M378 -207v242q-46 -44 -127 -44q-92 0 -155.5 63.5t-63.5 171.5q0 106 62 170.5t160 64.5q92 0 136 -53l2 44h139v-592zM287 118q40 0 69 29.5t29 80.5q0 52 -29 79.5t-69 27.5q-43 0 -70 -31t-27 -78q0 -49 28.5 -78.5t68.5 -29.5z" />
    <glyph glyph-name="r" unicode="r" horiz-adv-x="350" 
d="M62 0v452h139l3 -50q39 59 121 59q11 0 14 -1v-135q-12 12 -47 12q-49 0 -63 -31.5t-14 -97.5v-208h-153z" />
    <glyph glyph-name="s" unicode="s" horiz-adv-x="393" 
d="M185 -9q-81 0 -137 26v116q17 -12 54.5 -24t71.5 -12q48 0 48 37q0 18 -18 30t-43.5 20.5t-51 21.5t-43.5 42t-18 72q0 71 46 106t126 35q72 0 110 -20v-115q-58 30 -99 30t-41 -30q0 -16 18 -26.5t43 -19t50.5 -21.5t43.5 -42t18 -72q0 -75 -48.5 -114.5t-129.5 -39.5z
" />
    <glyph glyph-name="t" unicode="t" horiz-adv-x="425" 
d="M279 -9q-185 0 -185 181v163h-86v10q154 166 229 255h10v-148h121v-117h-121v-143q0 -39 13.5 -58.5t54.5 -19.5q36 0 74 18v-121q-36 -20 -110 -20z" />
    <glyph glyph-name="u" unicode="u" horiz-adv-x="525" 
d="M262 -9q-112 0 -159 57t-47 146v258h153v-261q0 -77 55 -77t55 77v261h150v-258q0 -40 -9.5 -74t-31.5 -64t-64 -47.5t-102 -17.5z" />
    <glyph glyph-name="v" unicode="v" horiz-adv-x="518" 
d="M255 -9l-255 461h168l92 -202l95 202h163l-253 -461h-10z" />
    <glyph glyph-name="w" unicode="w" horiz-adv-x="722" 
d="M243 -9l-236 461h168l82 -190l99 190h10l102 -190l84 190h163l-233 -461h-10l-111 207l-108 -207h-10z" />
    <glyph glyph-name="x" unicode="x" horiz-adv-x="572" 
d="M12 0l181 228l-177 224h181l90 -130l94 130h175l-179 -224l183 -228h-182l-94 128l-95 -128h-177z" />
    <glyph glyph-name="y" unicode="y" horiz-adv-x="527" 
d="M81 -198l103 231l-181 419h168l92 -247l98 247h163l-278 -650h-165z" />
    <glyph glyph-name="z" unicode="z" horiz-adv-x="464" 
d="M19 0v10l190 325h-173v117h409v-10l-188 -324h192v-118h-430z" />
    <glyph glyph-name="braceleft" unicode="{" horiz-adv-x="404" 
d="M258 -207q-89 0 -141.5 42.5t-52.5 114.5q0 40 17.5 75t35 65t17.5 58q0 32 -22 56.5t-58 27.5v23q35 2 57.5 20.5t22.5 49.5q0 25 -17.5 54.5t-35 65.5t-17.5 76q0 71 52.5 114t141.5 43q63 0 114 -19v-114q-40 22 -88 22q-31 0 -49 -15t-18 -41q0 -35 35 -88.5
t35 -91.5q0 -70 -102 -87q37 -5 69.5 -30.5t32.5 -71.5q0 -41 -35 -95t-35 -87q0 -55 67 -55q49 0 88 21v-115q-48 -18 -114 -18z" />
    <glyph glyph-name="bar" unicode="|" horiz-adv-x="290" 
d="M67 -198v846h156v-846h-156z" />
    <glyph glyph-name="braceright" unicode="}" horiz-adv-x="404" 
d="M146 -207q-66 0 -114 18v115q39 -21 88 -21q67 0 67 55q0 33 -35 87t-35 95q0 46 32.5 71.5t69.5 30.5q-102 17 -102 87q0 38 35 91.5t35 88.5q0 26 -18 41t-49 15q-48 0 -88 -22v114q51 19 114 19q89 0 141.5 -43t52.5 -114q0 -40 -17.5 -76t-35 -65.5t-17.5 -54.5
q0 -31 22.5 -49.5t57.5 -20.5v-23q-36 -3 -58 -27.5t-22 -56.5q0 -28 17.5 -58t35 -65t17.5 -75q0 -72 -52.5 -114.5t-141.5 -42.5z" />
    <glyph glyph-name="asciitilde" unicode="~" 
d="M376 147q-39 0 -87.5 22.5t-62.5 22.5q-31 0 -34 -38h-111q0 70 38 110.5t107 40.5q44 0 87 -22.5t62 -22.5t28 13t9 25h112q-1 -70 -40.5 -110.5t-107.5 -40.5z" />
    <glyph glyph-name="uni00A0" unicode="&#xa0;" horiz-adv-x="210" 
 />
    <glyph glyph-name="exclamdown" unicode="&#xa1;" horiz-adv-x="317" 
d="M159 280q-37 0 -63 25t-26 64q0 40 25 65t64 25q37 0 62.5 -24.5t25.5 -64.5t-25 -65t-63 -25zM75 -198l8 429h152l4 -429h-164z" />
    <glyph glyph-name="cent" unicode="&#xa2;" horiz-adv-x="480" 
d="M286 0v90q-98 2 -168.5 58.5t-70.5 167.5q0 107 65.5 173.5t173.5 70.5v88h62v-89q53 -5 96 -23v-125q-52 32 -96 39v-249q47 4 100 42v-127q-36 -20 -100 -25v-91h-62zM286 199v254q-38 -5 -69.5 -36.5t-31.5 -93.5q0 -56 27.5 -88.5t73.5 -35.5z" />
    <glyph glyph-name="sterling" unicode="&#xa3;" horiz-adv-x="483" 
d="M36 0v10q64 79 95.5 130t31.5 91q0 10 -4 24h-113v125h58q-23 39 -23 85q0 86 60.5 139.5t160.5 53.5q98 0 155 -41v-142q-15 16 -55.5 34t-78.5 18q-40 0 -62 -21t-22 -52q0 -33 27 -74h145v-125h-96q3 -11 3 -23q0 -55 -42 -103h196v-129h-436z" />
    <glyph glyph-name="currency" unicode="&#xa4;" 
d="M164 84l-102 98l77 76q-11 28 -11 59q0 35 12 63l-78 78l102 97l77 -76q29 12 61 12q34 0 62 -12l78 76l101 -97l-79 -78q12 -30 12 -63q0 -29 -11 -59l78 -76l-102 -98l-73 73q-33 -14 -66 -14t-63 12zM302 247q31 0 51 18t20 51t-20.5 52.5t-50.5 19.5
q-31 0 -50.5 -19.5t-19.5 -52.5q0 -32 19.5 -50.5t50.5 -18.5z" />
    <glyph glyph-name="yen" unicode="&#xa5;" horiz-adv-x="593" 
d="M219 0v137h-145v112h150l-34 65h-130v112h60l-121 222h175l126 -274l124 274h169l-121 -222h56v-112h-128l-34 -65h148v-112h-142v-137h-153z" />
    <glyph glyph-name="brokenbar" unicode="&#xa6;" horiz-adv-x="290" 
d="M67 317v331h156v-331h-156zM67 -198v331h156v-331h-156z" />
    <glyph glyph-name="section" unicode="&#xa7;" horiz-adv-x="433" 
d="M201 -208q-90 0 -153 27v119q73 -35 145 -35q69 0 69 55q0 27 -24.5 46t-59 33t-69 32.5t-59 54t-24.5 85.5t29 86.5t72 54.5q-82 46 -82 131q0 90 57.5 133.5t142.5 43.5q64 0 116 -21v-118q-56 28 -109 28q-69 0 -69 -54q0 -25 24.5 -44.5t59.5 -35.5t70 -35.5
t59.5 -56t24.5 -85.5q0 -51 -27 -87t-67 -54q74 -40 74 -129q0 -78 -48.5 -126t-151.5 -48zM227 144q64 23 64 82q0 27 -18 45t-56 34q-22 -7 -41.5 -27t-19.5 -52q0 -22 13 -39.5t25.5 -25t32.5 -17.5z" />
    <glyph glyph-name="dieresis" unicode="&#xa8;" horiz-adv-x="508" 
d="M143 526q-36 0 -58.5 23t-22.5 59q0 35 23.5 58t57.5 23t57 -23t23 -59q0 -37 -22.5 -59t-57.5 -22zM372 526q-36 0 -58.5 23t-22.5 59q0 35 23.5 58t57.5 23t57 -23t23 -59q0 -37 -22 -59t-58 -22z" />
    <glyph glyph-name="copyright" unicode="&#xa9;" horiz-adv-x="756" 
d="M377 -10q-139 0 -236.5 96t-97.5 238t97.5 238t236.5 96t237.5 -96t98.5 -238t-98.5 -238t-237.5 -96zM378 86q101 0 164 67t63 172q0 104 -63 170.5t-164 66.5t-164 -66.5t-63 -170.5q0 -105 63 -172t164 -67zM391 159q-73 0 -121.5 41.5t-48.5 120.5q0 77 47 123.5
t126 46.5q49 0 85 -17v-90q-25 23 -70 23q-34 0 -56.5 -21t-22.5 -63q0 -78 79 -78q44 0 73 24v-90q-34 -20 -91 -20z" />
    <glyph glyph-name="ordfeminine" unicode="&#xaa;" horiz-adv-x="370" 
d="M150 317q-56 0 -87 27.5t-31 75.5q0 53 35.5 81t101.5 28q29 0 63 -12v5q0 50 -61 50q-55 0 -99 -20v86q40 20 120 20q148 0 148 -136v-198h-89l-2 33q-35 -40 -99 -40zM189 460q-18 0 -30 -9t-12 -24q0 -31 36 -31q49 0 49 49v6q-20 9 -43 9zM37 282h307v-91h-307v91z
" />
    <glyph glyph-name="guillemotleft" unicode="&#xab;" horiz-adv-x="706" 
d="M172 74l-140 157l140 157h175l-146 -157l146 -157h-175zM469 74l-140 157l140 157h175l-146 -157l146 -157h-175z" />
    <glyph glyph-name="logicalnot" unicode="&#xac;" 
d="M387 83v171h-306v117h443v-288h-137z" />
    <glyph glyph-name="uni00AD" unicode="&#xad;" horiz-adv-x="282" 
d="M32 184v117h218v-117h-218z" />
    <glyph glyph-name="registered" unicode="&#xae;" horiz-adv-x="756" 
d="M377 -10q-139 0 -236.5 96t-97.5 238t97.5 238t236.5 96t237.5 -96t98.5 -238t-98.5 -238t-237.5 -96zM378 86q101 0 164 67t63 172q0 104 -63 170.5t-164 66.5t-164 -66.5t-63 -170.5q0 -105 63 -172t164 -67zM262 163v324h132q125 0 125 -110q0 -73 -50 -98l62 -116
h-104l-50 103h-22v-103h-93zM355 332h16q28 0 41 9.5t13 35.5q0 40 -51 40h-19v-85z" />
    <glyph glyph-name="macron" unicode="&#xaf;" horiz-adv-x="512" 
d="M103 546v116h316v-116h-316z" />
    <glyph glyph-name="degree" unicode="&#xb0;" horiz-adv-x="525" 
d="M263 408q-54 0 -91 35t-37 90q0 54 37 89.5t91 35.5t91 -35.5t37 -89.5q0 -55 -37 -90t-91 -35zM263 483q21 0 34.5 13.5t13.5 36.5t-13.5 36.5t-34.5 13.5q-20 0 -34 -13.5t-14 -36.5t13.5 -36.5t34.5 -13.5z" />
    <glyph glyph-name="plusminus" unicode="&#xb1;" 
d="M234 160v160h-153v117h153v159h137v-159h153v-117h-153v-160h-137zM81 0v117h443v-117h-443z" />
    <glyph glyph-name="uni00B2" unicode="&#xb2;" horiz-adv-x="389" 
d="M53 263v10l104 155q42 62 42 92q0 20 -13.5 30.5t-33.5 10.5q-43 0 -86 -43v107q41 33 110 33q68 0 103 -35.5t35 -92.5q0 -35 -14.5 -64t-55.5 -84l-19 -25h98v-94h-270z" />
    <glyph glyph-name="uni00B3" unicode="&#xb3;" horiz-adv-x="389" 
d="M172 253q-64 0 -104 21v107q53 -31 96 -31q50 0 50 41t-51 41q-31 0 -54 -18l-7 6l71 134h-102v94h253v-8l-79 -147q34 -2 59 -27.5t25 -78.5q0 -67 -42.5 -100.5t-114.5 -33.5z" />
    <glyph glyph-name="acute" unicode="&#xb4;" horiz-adv-x="512" 
d="M97 520l123 171h202l-176 -171h-149z" />
    <glyph glyph-name="uni00B5" unicode="&#xb5;" horiz-adv-x="554" 
d="M339 452h153v-452h-139l-3 53q-13 -25 -37.5 -39t-51.5 -14q-32 0 -49 16v-214h-150v650h153v-242q0 -45 13 -67.5t48 -22.5q22 0 35 9t19 28.5t7.5 38t1.5 51.5v205z" />
    <glyph glyph-name="paragraph" unicode="&#xb6;" horiz-adv-x="835" 
d="M319 -207q-58 0 -94 16v110q14 -7 41 -7q42 0 42 46v245h-10q-34 0 -61.5 2.5t-60.5 10t-57.5 23t-46 38.5t-33 59.5t-11.5 84.5q0 61 20.5 105t48.5 67t70.5 36t73.5 16t69 3h511v-128h-116v-718h-158v718h-81v-579q0 -69 -32 -108.5t-115 -39.5z" />
    <glyph glyph-name="periodcentered" unicode="&#xb7;" horiz-adv-x="303" 
d="M152 143q-39 0 -64 25t-25 65q0 39 26 64t63 25q38 0 63 -25t25 -65t-25.5 -64.5t-62.5 -24.5z" />
    <glyph glyph-name="cedilla" unicode="&#xb8;" horiz-adv-x="518" 
d="M224 -207q-46 0 -68 10v72q22 -13 50 -13q35 0 35 26t-30 26q-18 0 -30 -12l-9 5l34 118h83l-20 -63h3q29 0 52.5 -19t23.5 -58q0 -92 -124 -92z" />
    <glyph glyph-name="uni00B9" unicode="&#xb9;" horiz-adv-x="389" 
d="M157 263v255l-96 -44v96l200 88h9v-395h-113z" />
    <glyph glyph-name="ordmasculine" unicode="&#xba;" horiz-adv-x="416" 
d="M207 317q-77 0 -126 46.5t-49 121.5t50 123.5t128 48.5q77 0 125.5 -45.5t48.5 -122.5t-50.5 -124.5t-126.5 -47.5zM209 407q27 0 43.5 20t16.5 62q0 40 -17 59.5t-43 19.5q-29 0 -45.5 -22t-16.5 -59q0 -40 17.5 -60t44.5 -20zM54 191v91h307v-91h-307z" />
    <glyph glyph-name="guillemotright" unicode="&#xbb;" horiz-adv-x="706" 
d="M62 74l146 158l-146 156h175l140 -157l-140 -157h-175zM359 74l146 158l-146 156h175l140 -157l-140 -157h-175z" />
    <glyph glyph-name="onequarter" unicode="&#xbc;" horiz-adv-x="971" 
d="M270 263h-113v255l-96 -44v96l200 88h9v-395zM592 648h157l-360 -648h-157zM906 122v-72h-55v-50h-99v50h-182v8l272 337h9v-273h55zM752 170l-40 -48h40v48z" />
    <glyph glyph-name="onehalf" unicode="&#xbd;" horiz-adv-x="971" 
d="M157 263v255l-96 -44v96l200 88h9v-395h-113zM250 0l360 648h157l-360 -648h-157zM670 0v10l104 155q42 62 42 92q0 20 -13.5 30.5t-33.5 10.5q-43 0 -86 -43v107q41 33 110 33q68 0 103 -35.5t35 -92.5q0 -35 -14.5 -64t-55.5 -84l-19 -25h98v-94h-270z" />
    <glyph glyph-name="threequarters" unicode="&#xbe;" horiz-adv-x="971" 
d="M329 387q0 -67 -42.5 -100.5t-114.5 -33.5q-64 0 -104 21v107q53 -31 96 -31q50 0 50 41t-51 41q-31 0 -54 -18l-7 6l71 134h-102v94h253v-8l-79 -147q34 -2 59 -27.5t25 -78.5zM591 648h157l-360 -648h-157zM906 122v-72h-55v-50h-99v50h-182v8l272 337h9v-273h55z
M752 170l-40 -48h40v48z" />
    <glyph glyph-name="questiondown" unicode="&#xbf;" horiz-adv-x="436" 
d="M246 282q-38 0 -63 25t-25 65t25.5 64.5t62.5 24.5q39 0 64 -25t25 -65q0 -39 -26 -64t-63 -25zM251 -208q-104 0 -160 51t-56 140q0 72 38.5 117.5t95.5 56.5v74h152v-148q-62 0 -95 -24t-33 -65q0 -73 93 -73q33 0 68.5 15t56.5 35v-135q-54 -44 -160 -44z" />
    <glyph glyph-name="Agrave" unicode="&#xc0;" horiz-adv-x="639" 
d="M283 705l-176 171h204l123 -171h-151zM14 0l301 658h10l300 -658h-169l-36 88h-206l-37 -88h-163zM259 206h119l-60 143z" />
    <glyph glyph-name="Aacute" unicode="&#xc1;" horiz-adv-x="639" 
d="M219 705l123 171h202l-176 -171h-149zM14 0l301 658h10l300 -658h-169l-36 88h-206l-37 -88h-163zM259 206h119l-60 143z" />
    <glyph glyph-name="Acircumflex" unicode="&#xc2;" horiz-adv-x="639" 
d="M133 705l187 180l187 -180h-145l-42 46l-42 -46h-145zM14 0l301 658h10l300 -658h-169l-36 88h-206l-37 -88h-163zM259 206h119l-60 143z" />
    <glyph glyph-name="Atilde" unicode="&#xc3;" horiz-adv-x="639" 
d="M386 716q-32 0 -75 18t-52 18q-29 0 -29 -31h-92q0 54 29.5 94t84.5 40q33 0 75.5 -18t53.5 -18q15 0 21.5 10t6.5 21h93q0 -52 -30.5 -93t-85.5 -41zM14 0l301 658h10l300 -658h-169l-36 88h-206l-37 -88h-163zM259 206h119l-60 143z" />
    <glyph glyph-name="Adieresis" unicode="&#xc4;" horiz-adv-x="639" 
d="M205 708q-39 0 -63 24t-24 61t24 61t63 24q38 0 62 -24t24 -61t-24 -61t-62 -24zM434 708q-38 0 -62.5 24t-24.5 61t24.5 61t62.5 24q39 0 63 -24t24 -61t-24 -61t-63 -24zM14 0l301 658h10l300 -658h-169l-36 88h-206l-37 -88h-163zM259 206h119l-60 143z" />
    <glyph glyph-name="Aring" unicode="&#xc5;" horiz-adv-x="639" 
d="M14 0l277 606q-35 9 -58 37t-23 62q0 41 32.5 72t77.5 31t77.5 -31t32.5 -72q0 -34 -23 -62t-58 -37l276 -606h-169l-36 88h-206l-37 -88h-163zM320 671q14 0 24 10t10 25t-10 24.5t-24 9.5t-24 -9.5t-10 -24.5t10 -25t24 -10zM259 206h119l-60 143z" />
    <glyph glyph-name="AE" unicode="&#xc6;" horiz-adv-x="892" 
d="M14 0l296 648h313l59 -128h-294l57 -126h226l58 -127h-226l63 -138h287l59 -129h-456l-36 88h-206l-37 -88h-163zM260 206h117l-59 144z" />
    <glyph glyph-name="Ccedilla" unicode="&#xc7;" horiz-adv-x="635" 
d="M580 32q-65 -41 -179 -42l-9 -28h3q29 0 52.5 -19t23.5 -58q0 -92 -124 -92q-46 0 -68 10v72q22 -13 50 -13q35 0 35 26t-30 26q-18 0 -30 -12l-9 5l25 88q-130 21 -203.5 111.5t-73.5 216.5q0 147 96 241t250 94q109 0 181 -43v-152q-79 53 -173 53q-83 0 -137 -53.5
t-54 -137.5q0 -90 54 -141t140 -51q102 0 180 54v-155z" />
    <glyph glyph-name="Egrave" unicode="&#xc8;" horiz-adv-x="532" 
d="M270 705l-176 171h204l123 -171h-151zM70 0v648h410v-128h-252v-126h174v-127h-174v-138h264v-129h-422z" />
    <glyph glyph-name="Eacute" unicode="&#xc9;" horiz-adv-x="532" 
d="M156 705l123 171h202l-176 -171h-149zM70 0v648h410v-128h-252v-126h174v-127h-174v-138h264v-129h-422z" />
    <glyph glyph-name="Ecircumflex" unicode="&#xca;" horiz-adv-x="532" 
d="M90 705l187 180l187 -180h-145l-42 46l-42 -46h-145zM70 0v648h410v-128h-252v-126h174v-127h-174v-138h264v-129h-422z" />
    <glyph glyph-name="Edieresis" unicode="&#xcb;" horiz-adv-x="532" 
d="M162 708q-39 0 -63 24t-24 61t24 61t63 24q38 0 62 -24t24 -61t-24 -61t-62 -24zM391 708q-38 0 -62.5 24t-24.5 61t24.5 61t62.5 24q39 0 63 -24t24 -61t-24 -61t-63 -24zM70 0v648h410v-128h-252v-126h174v-127h-174v-138h264v-129h-422z" />
    <glyph glyph-name="Igrave" unicode="&#xcc;" horiz-adv-x="298" 
d="M78 705l-176 171h204l123 -171h-151zM70 0v648h158v-648h-158z" />
    <glyph glyph-name="Iacute" unicode="&#xcd;" horiz-adv-x="298" 
d="M71 705l123 171h202l-176 -171h-149zM70 0v648h158v-648h-158z" />
    <glyph glyph-name="Icircumflex" unicode="&#xce;" horiz-adv-x="298" 
d="M-37 705l187 180l187 -180h-145l-42 46l-42 -46h-145zM70 0v648h158v-648h-158z" />
    <glyph glyph-name="Idieresis" unicode="&#xcf;" horiz-adv-x="298" 
d="M35 708q-39 0 -63 24t-24 61t24 61t63 24q38 0 62 -24t24 -61t-24 -61t-62 -24zM264 708q-38 0 -62.5 24t-24.5 61t24.5 61t62.5 24q39 0 63 -24t24 -61t-24 -61t-63 -24zM70 0v648h158v-648h-158z" />
    <glyph glyph-name="Eth" unicode="&#xd0;" horiz-adv-x="719" 
d="M249 648q52 0 95 -4t95 -14.5t91.5 -32.5t74 -55.5t53 -87t18.5 -122.5q0 -82 -27.5 -143.5t-68.5 -96.5t-99.5 -56.5t-110.5 -28.5t-111 -7h-151v270h-109v121h109v257h141zM266 126q53 2 96 13.5t78 34.5t54 63.5t19 94.5q0 56 -20 95t-57 59t-77 28t-93 9v-132h113
v-121h-113v-144z" />
    <glyph glyph-name="Ntilde" unicode="&#xd1;" horiz-adv-x="706" 
d="M420 716q-32 0 -75 18t-52 18q-29 0 -29 -31h-92q0 54 29.5 94t84.5 40q33 0 75.5 -18t53.5 -18q15 0 21.5 10t6.5 21h93q0 -52 -30.5 -93t-85.5 -41zM626 -10l-402 347v-337h-154v658h10l401 -347l1 337h154v-658h-10z" />
    <glyph glyph-name="Ograve" unicode="&#xd2;" horiz-adv-x="766" 
d="M379 705l-176 171h204l123 -171h-151zM380 -10q-152 0 -244.5 93t-92.5 241q0 150 94 242t249 92q151 0 244 -92t93 -240q0 -147 -95 -241.5t-248 -94.5zM385 134q74 0 124.5 50t50.5 139q0 90 -52 141.5t-125 51.5q-76 0 -126.5 -51t-50.5 -139q0 -92 51 -142t128 -50z
" />
    <glyph glyph-name="Oacute" unicode="&#xd3;" horiz-adv-x="766" 
d="M265 705l123 171h202l-176 -171h-149zM380 -10q-152 0 -244.5 93t-92.5 241q0 150 94 242t249 92q151 0 244 -92t93 -240q0 -147 -95 -241.5t-248 -94.5zM385 134q74 0 124.5 50t50.5 139q0 90 -52 141.5t-125 51.5q-76 0 -126.5 -51t-50.5 -139q0 -92 51 -142t128 -50z
" />
    <glyph glyph-name="Ocircumflex" unicode="&#xd4;" horiz-adv-x="766" 
d="M199 705l187 180l187 -180h-145l-42 46l-42 -46h-145zM380 -10q-152 0 -244.5 93t-92.5 241q0 150 94 242t249 92q151 0 244 -92t93 -240q0 -147 -95 -241.5t-248 -94.5zM385 134q74 0 124.5 50t50.5 139q0 90 -52 141.5t-125 51.5q-76 0 -126.5 -51t-50.5 -139
q0 -92 51 -142t128 -50z" />
    <glyph glyph-name="Otilde" unicode="&#xd5;" horiz-adv-x="766" 
d="M452 716q-32 0 -75 18t-52 18q-29 0 -29 -31h-92q0 54 29.5 94t84.5 40q33 0 75.5 -18t53.5 -18q15 0 21.5 10t6.5 21h93q0 -52 -30.5 -93t-85.5 -41zM380 -10q-152 0 -244.5 93t-92.5 241q0 150 94 242t249 92q151 0 244 -92t93 -240q0 -147 -95 -241.5t-248 -94.5z
M385 134q74 0 124.5 50t50.5 139q0 90 -52 141.5t-125 51.5q-76 0 -126.5 -51t-50.5 -139q0 -92 51 -142t128 -50z" />
    <glyph glyph-name="Odieresis" unicode="&#xd6;" horiz-adv-x="766" 
d="M271 708q-39 0 -63 24t-24 61t24 61t63 24q38 0 62 -24t24 -61t-24 -61t-62 -24zM500 708q-38 0 -62.5 24t-24.5 61t24.5 61t62.5 24q39 0 63 -24t24 -61t-24 -61t-63 -24zM380 -10q-152 0 -244.5 93t-92.5 241q0 150 94 242t249 92q151 0 244 -92t93 -240
q0 -147 -95 -241.5t-248 -94.5zM385 134q74 0 124.5 50t50.5 139q0 90 -52 141.5t-125 51.5q-76 0 -126.5 -51t-50.5 -139q0 -92 51 -142t128 -50z" />
    <glyph glyph-name="multiply" unicode="&#xd7;" 
d="M165 -10l-100 99l136 137l-136 137l100 100l138 -139l140 139l98 -100l-136 -137l136 -137l-100 -99l-138 137z" />
    <glyph glyph-name="Oslash" unicode="&#xd8;" horiz-adv-x="766" 
d="M43 -30l85 120q-85 93 -85 234q0 150 94 242t249 92q72 0 130 -21l36 50h155l-82 -116q98 -92 98 -245q0 -147 -95 -241.5t-248 -94.5q-80 0 -148 28l-34 -48h-155zM226 228l201 283q-17 5 -44 5q-76 0 -126.5 -51t-50.5 -139q0 -56 20 -98zM385 134q74 0 124.5 50
t50.5 139q0 67 -30 114l-208 -293q21 -10 63 -10z" />
    <glyph glyph-name="Ugrave" unicode="&#xd9;" horiz-adv-x="663" 
d="M324 705l-176 171h204l123 -171h-151zM331 -10q-131 0 -198 64t-67 210v384h158v-355q0 -33 1 -52t7 -44t17 -38t32 -22.5t51 -9.5t51 9.5t32 22t17 37t7 44.5t1 53v355h157v-383q0 -146 -67 -210.5t-199 -64.5z" />
    <glyph glyph-name="Uacute" unicode="&#xda;" horiz-adv-x="663" 
d="M210 705l123 171h202l-176 -171h-149zM331 -10q-131 0 -198 64t-67 210v384h158v-355q0 -33 1 -52t7 -44t17 -38t32 -22.5t51 -9.5t51 9.5t32 22t17 37t7 44.5t1 53v355h157v-383q0 -146 -67 -210.5t-199 -64.5z" />
    <glyph glyph-name="Ucircumflex" unicode="&#xdb;" horiz-adv-x="663" 
d="M144 705l187 180l187 -180h-145l-42 46l-42 -46h-145zM331 -10q-131 0 -198 64t-67 210v384h158v-355q0 -33 1 -52t7 -44t17 -38t32 -22.5t51 -9.5t51 9.5t32 22t17 37t7 44.5t1 53v355h157v-383q0 -146 -67 -210.5t-199 -64.5z" />
    <glyph glyph-name="Udieresis" unicode="&#xdc;" horiz-adv-x="663" 
d="M216 708q-39 0 -63 24t-24 61t24 61t63 24q38 0 62 -24t24 -61t-24 -61t-62 -24zM445 708q-38 0 -62.5 24t-24.5 61t24.5 61t62.5 24q39 0 63 -24t24 -61t-24 -61t-63 -24zM331 -10q-131 0 -198 64t-67 210v384h158v-355q0 -33 1 -52t7 -44t17 -38t32 -22.5t51 -9.5
t51 9.5t32 22t17 37t7 44.5t1 53v355h157v-383q0 -146 -67 -210.5t-199 -64.5z" />
    <glyph glyph-name="Yacute" unicode="&#xdd;" horiz-adv-x="652" 
d="M205 705l123 171h202l-176 -171h-149zM246 0v257l-232 391h175l141 -254l139 254h169l-234 -391v-257h-158z" />
    <glyph glyph-name="Thorn" unicode="&#xde;" horiz-adv-x="584" 
d="M275 548q34 0 62 -2.5t62.5 -10t60.5 -23t49 -38.5t35 -60t12 -84q0 -227 -293 -227h-35v-103h-158v648h158v-100h47zM249 225q27 0 48 3t45 12.5t37.5 32t13.5 56.5q0 32 -13 52.5t-36.5 29t-44.5 11.5t-49 3h-22v-200h21z" />
    <glyph glyph-name="germandbls" unicode="&#xdf;" horiz-adv-x="631" 
d="M504 266q45 -7 71 -38t26 -79q0 -46 -16.5 -78.5t-45.5 -49t-60.5 -23.5t-68.5 -7q-63 0 -93 10v115q35 -11 73 -11q56 0 56 40q0 41 -53 41q-30 0 -46 -12l-7 6l53 155h-138v-481h-153v481h-78v117h78v34q0 194 191 194q60 0 97 -17v-126q-29 18 -71 18q-38 0 -51 -20.5
t-13 -55.5v-27h310v-10z" />
    <glyph glyph-name="agrave" unicode="&#xe0;" horiz-adv-x="530" 
d="M398 520h-152l-175 171h204zM253 461q221 0 221 -193v-268h-140l-4 44q-42 -53 -130 -53q-77 0 -122.5 37.5t-45.5 103.5q0 68 51.5 110.5t141.5 42.5q52 0 98 -17v3q0 35 -20.5 60t-70.5 25q-69 0 -147 -47v115q74 37 168 37zM246 86q35 0 56 21t21 65v9q-30 15 -71 15
q-31 0 -49.5 -14.5t-18.5 -40.5q0 -25 16.5 -40t45.5 -15z" />
    <glyph glyph-name="aacute" unicode="&#xe1;" horiz-adv-x="530" 
d="M481 691l-176 -171h-149l123 171h202zM253 461q221 0 221 -193v-268h-140l-4 44q-42 -53 -130 -53q-77 0 -122.5 37.5t-45.5 103.5q0 68 51.5 110.5t141.5 42.5q52 0 98 -17v3q0 35 -20.5 60t-70.5 25q-69 0 -147 -47v115q74 37 168 37zM246 86q35 0 56 21t21 65v9
q-30 15 -71 15q-31 0 -49.5 -14.5t-18.5 -40.5q0 -25 16.5 -40t45.5 -15z" />
    <glyph glyph-name="acircumflex" unicode="&#xe2;" horiz-adv-x="530" 
d="M264 566l-42 -46h-145l187 180l187 -180h-145zM253 461q221 0 221 -193v-268h-140l-4 44q-42 -53 -130 -53q-77 0 -122.5 37.5t-45.5 103.5q0 68 51.5 110.5t141.5 42.5q52 0 98 -17v3q0 35 -20.5 60t-70.5 25q-69 0 -147 -47v115q74 37 168 37zM246 86q35 0 56 21t21 65
v9q-30 15 -71 15q-31 0 -49.5 -14.5t-18.5 -40.5q0 -25 16.5 -40t45.5 -15z" />
    <glyph glyph-name="atilde" unicode="&#xe3;" horiz-adv-x="530" 
d="M203 567q-29 0 -29 -31h-92q0 54 29.5 94t84.5 40q33 0 75.5 -18t53.5 -18q15 0 21.5 10t6.5 21h93q0 -52 -30.5 -93t-85.5 -41q-32 0 -75 18t-52 18zM253 461q221 0 221 -193v-268h-140l-4 44q-42 -53 -130 -53q-77 0 -122.5 37.5t-45.5 103.5q0 68 51.5 110.5
t141.5 42.5q52 0 98 -17v3q0 35 -20.5 60t-70.5 25q-69 0 -147 -47v115q74 37 168 37zM246 86q35 0 56 21t21 65v9q-30 15 -71 15q-31 0 -49.5 -14.5t-18.5 -40.5q0 -25 16.5 -40t45.5 -15z" />
    <glyph glyph-name="adieresis" unicode="&#xe4;" horiz-adv-x="530" 
d="M150 526q-36 0 -58.5 23t-22.5 59q0 35 23.5 58t57.5 23t57 -23t23 -59q0 -37 -22 -59t-58 -22zM379 526q-36 0 -58.5 23t-22.5 59q0 35 23.5 58t57.5 23t57 -23t23 -59q0 -37 -22.5 -59t-57.5 -22zM253 461q221 0 221 -193v-268h-140l-4 44q-42 -53 -130 -53
q-77 0 -122.5 37.5t-45.5 103.5q0 68 51.5 110.5t141.5 42.5q52 0 98 -17v3q0 35 -20.5 60t-70.5 25q-69 0 -147 -47v115q74 37 168 37zM246 86q35 0 56 21t21 65v9q-30 15 -71 15q-31 0 -49.5 -14.5t-18.5 -40.5q0 -25 16.5 -40t45.5 -15z" />
    <glyph glyph-name="aring" unicode="&#xe5;" horiz-adv-x="530" 
d="M264 510q-45 0 -77.5 31t-32.5 72t32.5 72t77.5 31t77.5 -31t32.5 -72t-32.5 -72t-77.5 -31zM264 648q-14 0 -24 -9.5t-10 -24.5t10 -25t24 -10t24 10t10 25t-10 24.5t-24 9.5zM253 461q221 0 221 -193v-268h-140l-4 44q-42 -53 -130 -53q-77 0 -122.5 37.5t-45.5 103.5
q0 68 51.5 110.5t141.5 42.5q52 0 98 -17v3q0 35 -20.5 60t-70.5 25q-69 0 -147 -47v115q74 37 168 37zM246 86q35 0 56 21t21 65v9q-30 15 -71 15q-31 0 -49.5 -14.5t-18.5 -40.5q0 -25 16.5 -40t45.5 -15z" />
    <glyph glyph-name="ae" unicode="&#xe6;" horiz-adv-x="800" 
d="M768 225q0 -20 -4 -44h-297q15 -71 125 -71q81 0 148 36v-119q-72 -36 -172 -36q-69 0 -118 22t-71 57q-52 -79 -179 -79q-77 0 -122.5 37.5t-45.5 103.5q0 68 51.5 110.5t141.5 42.5q52 0 98 -17v3q0 35 -20.5 60t-70.5 25q-69 0 -147 -47v115q74 37 168 37
q109 0 146 -56q53 56 143 56q119 0 172.5 -67.5t53.5 -168.5zM468 272h148q-3 29 -21 49.5t-51 20.5q-30 0 -51 -19t-25 -51zM246 86q35 0 56 21t21 65v9q-30 15 -71 15q-31 0 -49.5 -14.5t-18.5 -40.5q0 -25 16.5 -40t45.5 -15z" />
    <glyph glyph-name="ccedilla" unicode="&#xe7;" horiz-adv-x="445" 
d="M407 20q-35 -25 -111 -28l-9 -30h3q29 0 52.5 -19t23.5 -58q0 -92 -124 -92q-46 0 -68 10v72q22 -13 50 -13q35 0 35 26t-30 26q-18 0 -30 -12l-9 5l26 90q-80 16 -132 71t-52 150q0 109 69 176t179 67q72 0 121 -26v-129q-46 31 -99 31q-48 0 -80 -29.5t-32 -84.5
q0 -53 30 -80t79 -27q63 0 108 34v-130z" />
    <glyph glyph-name="egrave" unicode="&#xe8;" horiz-adv-x="522" 
d="M248 520l-175 171h204l123 -171h-152zM288 -9q-119 0 -187.5 58.5t-68.5 172.5q0 106 60.5 172.5t173.5 66.5q116 0 170 -67.5t54 -168.5q0 -19 -4 -44h-297q14 -71 124 -71q83 0 149 36v-119q-72 -36 -174 -36zM189 272h148q-3 29 -21 49.5t-51 20.5q-30 0 -51 -19
t-25 -51z" />
    <glyph glyph-name="eacute" unicode="&#xe9;" horiz-adv-x="522" 
d="M158 520l123 171h202l-176 -171h-149zM288 -9q-119 0 -187.5 58.5t-68.5 172.5q0 106 60.5 172.5t173.5 66.5q116 0 170 -67.5t54 -168.5q0 -19 -4 -44h-297q14 -71 124 -71q83 0 149 36v-119q-72 -36 -174 -36zM189 272h148q-3 29 -21 49.5t-51 20.5q-30 0 -51 -19
t-25 -51z" />
    <glyph glyph-name="ecircumflex" unicode="&#xea;" horiz-adv-x="522" 
d="M79 520l187 180l187 -180h-145l-42 46l-42 -46h-145zM288 -9q-119 0 -187.5 58.5t-68.5 172.5q0 106 60.5 172.5t173.5 66.5q116 0 170 -67.5t54 -168.5q0 -19 -4 -44h-297q14 -71 124 -71q83 0 149 36v-119q-72 -36 -174 -36zM189 272h148q-3 29 -21 49.5t-51 20.5
q-30 0 -51 -19t-25 -51z" />
    <glyph glyph-name="edieresis" unicode="&#xeb;" horiz-adv-x="522" 
d="M152 526q-36 0 -58.5 23t-22.5 59q0 35 23.5 58t57.5 23t57 -23t23 -59q0 -37 -22 -59t-58 -22zM381 526q-36 0 -58.5 23t-22.5 59q0 35 23.5 58t57.5 23t57 -23t23 -59q0 -37 -22.5 -59t-57.5 -22zM288 -9q-119 0 -187.5 58.5t-68.5 172.5q0 106 60.5 172.5t173.5 66.5
q116 0 170 -67.5t54 -168.5q0 -19 -4 -44h-297q14 -71 124 -71q83 0 149 36v-119q-72 -36 -174 -36zM189 272h148q-3 29 -21 49.5t-51 20.5q-30 0 -51 -19t-25 -51z" />
    <glyph glyph-name="igrave" unicode="&#xec;" horiz-adv-x="289" 
d="M123 520l-175 171h204l123 -171h-152zM74 0v335h-55v117h208v-452h-153z" />
    <glyph glyph-name="iacute" unicode="&#xed;" horiz-adv-x="289" 
d="M16 520l123 171h202l-176 -171h-149zM74 0v335h-55v117h208v-452h-153z" />
    <glyph glyph-name="icircumflex" unicode="&#xee;" horiz-adv-x="289" 
d="M-46 520l187 180l187 -180h-145l-42 46l-42 -46h-145zM74 0v335h-55v117h208v-452h-153z" />
    <glyph glyph-name="idieresis" unicode="&#xef;" horiz-adv-x="289" 
d="M27 526q-36 0 -58.5 23t-22.5 59q0 35 23.5 58t57.5 23t57 -23t23 -59q0 -37 -22.5 -59t-57.5 -22zM256 526q-36 0 -58.5 23t-22.5 59q0 35 23.5 58t57.5 23t57 -23t23 -59q0 -37 -22 -59t-58 -22zM74 0v335h-55v117h208v-452h-153z" />
    <glyph glyph-name="eth" unicode="&#xf0;" horiz-adv-x="575" 
d="M287 -9q-117 0 -186 64t-69 168q0 103 62.5 169t164.5 66q86 0 125 -53q-14 57 -53 107l-56 -34l-44 67l28 17q-33 15 -112 20v99q149 -5 223 -54l61 36l44 -68l-38 -23q106 -106 106 -286q0 -144 -66.5 -219.5t-189.5 -75.5zM288 118q46 0 71.5 29.5t25.5 80.5t-27.5 79
t-69.5 28q-47 0 -72.5 -31t-25.5 -77q0 -50 26.5 -79.5t71.5 -29.5z" />
    <glyph glyph-name="ntilde" unicode="&#xf1;" horiz-adv-x="551" 
d="M365 531q-32 0 -75 18t-52 18q-29 0 -29 -31h-92q0 54 29.5 94t84.5 40q33 0 75.5 -18t53.5 -18q15 0 21.5 10t6.5 21h93q0 -52 -30.5 -93t-85.5 -41zM62 0v452h139l3 -49q42 58 125 58q80 0 123 -45.5t43 -134.5v-281h-153v247q0 45 -13 67.5t-48 22.5q-23 0 -37 -9
t-20 -28.5t-7.5 -38t-1.5 -51.5v-210h-153z" />
    <glyph glyph-name="ograve" unicode="&#xf2;" horiz-adv-x="575" 
d="M270 520l-175 171h204l123 -171h-152zM285 -9q-115 0 -184 64t-69 168q0 105 71 171.5t189 66.5q113 0 182 -62t69 -168q0 -109 -71.5 -174.5t-186.5 -65.5zM288 118q45 0 71 31t26 79q0 47 -26.5 77t-70.5 30q-46 0 -72 -32.5t-26 -76.5q0 -46 26.5 -77t71.5 -31z" />
    <glyph glyph-name="oacute" unicode="&#xf3;" horiz-adv-x="575" 
d="M180 520l123 171h202l-176 -171h-149zM285 -9q-115 0 -184 64t-69 168q0 105 71 171.5t189 66.5q113 0 182 -62t69 -168q0 -109 -71.5 -174.5t-186.5 -65.5zM288 118q45 0 71 31t26 79q0 47 -26.5 77t-70.5 30q-46 0 -72 -32.5t-26 -76.5q0 -46 26.5 -77t71.5 -31z" />
    <glyph glyph-name="ocircumflex" unicode="&#xf4;" horiz-adv-x="575" 
d="M101 520l187 180l187 -180h-145l-42 46l-42 -46h-145zM285 -9q-115 0 -184 64t-69 168q0 105 71 171.5t189 66.5q113 0 182 -62t69 -168q0 -109 -71.5 -174.5t-186.5 -65.5zM288 118q45 0 71 31t26 79q0 47 -26.5 77t-70.5 30q-46 0 -72 -32.5t-26 -76.5q0 -46 26.5 -77
t71.5 -31z" />
    <glyph glyph-name="otilde" unicode="&#xf5;" horiz-adv-x="575" 
d="M354 531q-32 0 -75 18t-52 18q-29 0 -29 -31h-92q0 54 29.5 94t84.5 40q33 0 75.5 -18t53.5 -18q15 0 21.5 10t6.5 21h93q0 -52 -30.5 -93t-85.5 -41zM285 -9q-115 0 -184 64t-69 168q0 105 71 171.5t189 66.5q113 0 182 -62t69 -168q0 -109 -71.5 -174.5t-186.5 -65.5z
M288 118q45 0 71 31t26 79q0 47 -26.5 77t-70.5 30q-46 0 -72 -32.5t-26 -76.5q0 -46 26.5 -77t71.5 -31z" />
    <glyph glyph-name="odieresis" unicode="&#xf6;" horiz-adv-x="575" 
d="M174 526q-36 0 -58.5 23t-22.5 59q0 35 23.5 58t57.5 23t57 -23t23 -59q0 -37 -22 -59t-58 -22zM403 526q-36 0 -58.5 23t-22.5 59q0 35 23.5 58t57.5 23t57 -23t23 -59q0 -37 -22.5 -59t-57.5 -22zM285 -9q-115 0 -184 64t-69 168q0 105 71 171.5t189 66.5
q113 0 182 -62t69 -168q0 -109 -71.5 -174.5t-186.5 -65.5zM288 118q45 0 71 31t26 79q0 47 -26.5 77t-70.5 30q-46 0 -72 -32.5t-26 -76.5q0 -46 26.5 -77t71.5 -31z" />
    <glyph glyph-name="divide" unicode="&#xf7;" 
d="M303 335q-35 0 -58.5 23.5t-23.5 59.5q0 35 24 58.5t58 23.5t57.5 -23.5t23.5 -59.5t-23.5 -59t-57.5 -23zM81 168v117h443v-117h-443zM303 -48q-35 0 -58.5 23.5t-23.5 59.5q0 35 24 58.5t58 23.5t57.5 -23.5t23.5 -59.5t-23.5 -59t-57.5 -23z" />
    <glyph glyph-name="oslash" unicode="&#xf8;" horiz-adv-x="575" 
d="M61 -41l54 85q-83 64 -83 179q0 105 71 171.5t189 66.5q42 0 80 -9l27 42h114l-53 -84q83 -62 83 -179q0 -109 -71.5 -174.5t-186.5 -65.5q-41 0 -83 10l-27 -42h-114zM199 178l100 157q-4 1 -11 1q-46 0 -72 -33t-26 -77q0 -27 9 -48zM288 118q45 0 71 31t26 79
q0 26 -9 49l-100 -158q4 -1 12 -1z" />
    <glyph glyph-name="ugrave" unicode="&#xf9;" horiz-adv-x="525" 
d="M243 520l-175 171h204l123 -171h-152zM262 -9q-112 0 -159 57t-47 146v258h153v-261q0 -77 55 -77t55 77v261h150v-258q0 -40 -9.5 -74t-31.5 -64t-64 -47.5t-102 -17.5z" />
    <glyph glyph-name="uacute" unicode="&#xfa;" horiz-adv-x="525" 
d="M153 520l123 171h202l-176 -171h-149zM262 -9q-112 0 -159 57t-47 146v258h153v-261q0 -77 55 -77t55 77v261h150v-258q0 -40 -9.5 -74t-31.5 -64t-64 -47.5t-102 -17.5z" />
    <glyph glyph-name="ucircumflex" unicode="&#xfb;" horiz-adv-x="525" 
d="M74 520l187 180l187 -180h-145l-42 46l-42 -46h-145zM262 -9q-112 0 -159 57t-47 146v258h153v-261q0 -77 55 -77t55 77v261h150v-258q0 -40 -9.5 -74t-31.5 -64t-64 -47.5t-102 -17.5z" />
    <glyph glyph-name="udieresis" unicode="&#xfc;" horiz-adv-x="525" 
d="M147 526q-36 0 -58.5 23t-22.5 59q0 35 23.5 58t57.5 23t57 -23t23 -59q0 -37 -22.5 -59t-57.5 -22zM376 526q-36 0 -58.5 23t-22.5 59q0 35 23.5 58t57.5 23t57 -23t23 -59q0 -37 -22 -59t-58 -22zM262 -9q-112 0 -159 57t-47 146v258h153v-261q0 -77 55 -77t55 77v261
h150v-258q0 -40 -9.5 -74t-31.5 -64t-64 -47.5t-102 -17.5z" />
    <glyph glyph-name="yacute" unicode="&#xfd;" horiz-adv-x="527" 
d="M155 520l123 171h202l-176 -171h-149zM81 -198l103 231l-181 419h168l92 -247l98 247h163l-278 -650h-165z" />
    <glyph glyph-name="thorn" unicode="&#xfe;" horiz-adv-x="593" 
d="M62 -198v861h153v-242q49 40 127 40q98 0 158.5 -66.5t60.5 -168.5q0 -105 -63.5 -170t-155.5 -65q-81 0 -128 45l1 -234h-153zM307 118q44 0 70 31t26 79t-26.5 77.5t-70.5 29.5q-45 0 -71.5 -31.5t-26.5 -77.5q0 -51 27 -79.5t72 -28.5z" />
    <glyph glyph-name="ydieresis" unicode="&#xff;" horiz-adv-x="527" 
d="M149 526q-36 0 -58.5 23t-22.5 59q0 35 23.5 58t57.5 23t57 -23t23 -59q0 -37 -22.5 -59t-57.5 -22zM378 526q-36 0 -58.5 23t-22.5 59q0 35 23.5 58t57.5 23t57 -23t23 -59q0 -37 -22 -59t-58 -22zM81 -198l103 231l-181 419h168l92 -247l98 247h163l-278 -650h-165z
" />
    <glyph glyph-name="Amacron" unicode="&#x100;" horiz-adv-x="639" 
d="M162 736v117h316v-117h-316zM14 0l301 658h10l300 -658h-169l-36 88h-206l-37 -88h-163zM259 206h119l-60 143z" />
    <glyph glyph-name="amacron" unicode="&#x101;" horiz-adv-x="530" 
d="M422 662v-116h-316v116h316zM253 461q221 0 221 -193v-268h-140l-4 44q-42 -53 -130 -53q-77 0 -122.5 37.5t-45.5 103.5q0 68 51.5 110.5t141.5 42.5q52 0 98 -17v3q0 35 -20.5 60t-70.5 25q-69 0 -147 -47v115q74 37 168 37zM246 86q35 0 56 21t21 65v9q-30 15 -71 15
q-31 0 -49.5 -14.5t-18.5 -40.5q0 -25 16.5 -40t45.5 -15z" />
    <glyph glyph-name="Abreve" unicode="&#x102;" horiz-adv-x="639" 
d="M320 696q-176 0 -176 162v18h112q0 -64 64 -64t64 64h112v-18q0 -162 -176 -162zM14 0l301 658h10l300 -658h-169l-36 88h-206l-37 -88h-163zM259 206h119l-60 143z" />
    <glyph glyph-name="abreve" unicode="&#x103;" horiz-adv-x="530" 
d="M263 511q-176 0 -176 162v18h112q0 -64 64 -64t64 64h112v-18q0 -162 -176 -162zM253 461q221 0 221 -193v-268h-140l-4 44q-42 -53 -130 -53q-77 0 -122.5 37.5t-45.5 103.5q0 68 51.5 110.5t141.5 42.5q52 0 98 -17v3q0 35 -20.5 60t-70.5 25q-69 0 -147 -47v115
q74 37 168 37zM246 86q35 0 56 21t21 65v9q-30 15 -71 15q-31 0 -49.5 -14.5t-18.5 -40.5q0 -25 16.5 -40t45.5 -15z" />
    <glyph glyph-name="Aogonek" unicode="&#x104;" horiz-adv-x="639" 
d="M526 -207q-56 0 -91 27t-35 82q0 69 59 100l-39 86h-206l-37 -88h-163l301 658h10l300 -658q-55 -5 -86.5 -26t-31.5 -53q0 -44 47 -44q23 0 39 8v-82q-22 -10 -67 -10zM259 206h119l-60 143z" />
    <glyph glyph-name="aogonek" unicode="&#x105;" horiz-adv-x="530" 
d="M474 0q-94 -21 -94 -79q0 -44 47 -44q23 0 39 8v-82q-22 -10 -67 -10q-56 0 -91 27t-35 82q0 67 61 102l-4 40q-42 -53 -130 -53q-77 0 -122.5 37.5t-45.5 103.5q0 68 51.5 110.5t141.5 42.5q52 0 98 -17v3q0 35 -20.5 60t-70.5 25q-69 0 -147 -47v115q74 37 168 37
q221 0 221 -193v-268zM246 86q35 0 56 21t21 65v9q-30 15 -71 15q-31 0 -49.5 -14.5t-18.5 -40.5q0 -25 16.5 -40t45.5 -15z" />
    <glyph glyph-name="Cacute" unicode="&#x106;" horiz-adv-x="635" 
d="M268 705l123 171h202l-176 -171h-149zM392 -10q-162 0 -255.5 94.5t-93.5 238.5q0 147 96 241t250 94q109 0 181 -43v-152q-79 53 -173 53q-83 0 -137 -53.5t-54 -137.5q0 -90 54 -141t140 -51q102 0 180 54v-155q-66 -42 -188 -42z" />
    <glyph glyph-name="cacute" unicode="&#x107;" horiz-adv-x="445" 
d="M175 520l123 171h202l-176 -171h-149zM278 -9q-63 0 -116.5 21.5t-91.5 74.5t-38 131q0 109 69 176t179 67q72 0 121 -26v-129q-46 31 -99 31q-48 0 -80 -29.5t-32 -84.5q0 -53 30 -80t79 -27q63 0 108 34v-130q-16 -11 -53 -20t-76 -9z" />
    <glyph glyph-name="Ccircumflex" unicode="&#x108;" horiz-adv-x="635" 
d="M202 705l187 180l187 -180h-145l-42 46l-42 -46h-145zM392 -10q-162 0 -255.5 94.5t-93.5 238.5q0 147 96 241t250 94q109 0 181 -43v-152q-79 53 -173 53q-83 0 -137 -53.5t-54 -137.5q0 -90 54 -141t140 -51q102 0 180 54v-155q-66 -42 -188 -42z" />
    <glyph glyph-name="ccircumflex" unicode="&#x109;" horiz-adv-x="445" 
d="M96 520l187 180l187 -180h-145l-42 46l-42 -46h-145zM278 -9q-63 0 -116.5 21.5t-91.5 74.5t-38 131q0 109 69 176t179 67q72 0 121 -26v-129q-46 31 -99 31q-48 0 -80 -29.5t-32 -84.5q0 -53 30 -80t79 -27q63 0 108 34v-130q-16 -11 -53 -20t-76 -9z" />
    <glyph glyph-name="Cdotaccent" unicode="&#x10a;" horiz-adv-x="635" 
d="M389 707q-40 0 -64.5 24.5t-24.5 62.5q0 37 26 62t63 25q38 0 63 -25t25 -63t-25.5 -62t-62.5 -24zM392 -10q-162 0 -255.5 94.5t-93.5 238.5q0 147 96 241t250 94q109 0 181 -43v-152q-79 53 -173 53q-83 0 -137 -53.5t-54 -137.5q0 -90 54 -141t140 -51q102 0 180 54
v-155q-66 -42 -188 -42z" />
    <glyph glyph-name="cdotaccent" unicode="&#x10b;" horiz-adv-x="445" 
d="M283 526q-36 0 -58.5 23t-22.5 59q0 35 23.5 58t57.5 23t57 -23t23 -59q0 -37 -22.5 -59t-57.5 -22zM278 -9q-63 0 -116.5 21.5t-91.5 74.5t-38 131q0 109 69 176t179 67q72 0 121 -26v-129q-46 31 -99 31q-48 0 -80 -29.5t-32 -84.5q0 -53 30 -80t79 -27q63 0 108 34
v-130q-16 -11 -53 -20t-76 -9z" />
    <glyph glyph-name="Ccaron" unicode="&#x10c;" horiz-adv-x="635" 
d="M389 696l-187 180h145l42 -46l42 46h145zM392 -10q-162 0 -255.5 94.5t-93.5 238.5q0 147 96 241t250 94q109 0 181 -43v-152q-79 53 -173 53q-83 0 -137 -53.5t-54 -137.5q0 -90 54 -141t140 -51q102 0 180 54v-155q-66 -42 -188 -42z" />
    <glyph glyph-name="ccaron" unicode="&#x10d;" horiz-adv-x="445" 
d="M283 511l-187 180h145l42 -46l42 46h145zM278 -9q-63 0 -116.5 21.5t-91.5 74.5t-38 131q0 109 69 176t179 67q72 0 121 -26v-129q-46 31 -99 31q-48 0 -80 -29.5t-32 -84.5q0 -53 30 -80t79 -27q63 0 108 34v-130q-16 -11 -53 -20t-76 -9z" />
    <glyph glyph-name="Dcaron" unicode="&#x10e;" horiz-adv-x="681" 
d="M531 876l-187 -180l-187 180h145l42 -46l42 46h145zM211 648q52 0 95 -4t95 -14.5t91.5 -32.5t74 -55.5t53 -87t18.5 -122.5q0 -82 -27.5 -143.5t-68.5 -96.5t-99.5 -56.5t-110.5 -28.5t-111 -7h-151v648h141zM228 126q53 2 96 13.5t78 34.5t54 63.5t19 94.5q0 56 -20 95
t-57 59t-77 28t-93 9v-397z" />
    <glyph glyph-name="dcaron" unicode="&#x10f;" horiz-adv-x="757" 
d="M671 668q33 0 54.5 -21t21.5 -58q0 -32 -22 -66.5t-60 -55.5h-67q45 40 60 73q-26 2 -42.5 19t-16.5 43q0 31 20.5 48.5t51.5 17.5zM378 420v243h153v-663h-140l-4 45q-43 -54 -136 -54q-92 0 -155.5 63.5t-63.5 171.5q0 106 62 170.5t160 64.5q79 0 124 -41zM287 118
q40 0 69 29.5t29 80.5q0 52 -29 79.5t-69 27.5q-43 0 -70 -31t-27 -78q0 -49 28.5 -78.5t68.5 -29.5z" />
    <glyph glyph-name="Dcroat" unicode="&#x110;" horiz-adv-x="719" 
d="M249 648q52 0 95 -4t95 -14.5t91.5 -32.5t74 -55.5t53 -87t18.5 -122.5q0 -82 -27.5 -143.5t-68.5 -96.5t-99.5 -56.5t-110.5 -28.5t-111 -7h-151v270h-109v121h109v257h141zM266 126q53 2 96 13.5t78 34.5t54 63.5t19 94.5q0 56 -20 95t-57 59t-77 28t-93 9v-132h113
v-121h-113v-144z" />
    <glyph glyph-name="dcroat" unicode="&#x111;" horiz-adv-x="570" 
d="M609 602v-106h-78v-496h-140l-4 45q-43 -54 -136 -54q-92 0 -155.5 63.5t-63.5 171.5q0 106 62 170.5t160 64.5q79 0 124 -41v76h-91v106h91v61h153v-61h78zM287 118q40 0 69 29.5t29 80.5q0 52 -29 79.5t-69 27.5q-43 0 -70 -31t-27 -78q0 -49 28.5 -78.5t68.5 -29.5z
" />
    <glyph glyph-name="Emacron" unicode="&#x112;" horiz-adv-x="532" 
d="M119 736v117h316v-117h-316zM70 0v648h410v-128h-252v-126h174v-127h-174v-138h264v-129h-422z" />
    <glyph glyph-name="emacron" unicode="&#x113;" horiz-adv-x="522" 
d="M108 546v116h316v-116h-316zM288 -9q-119 0 -187.5 58.5t-68.5 172.5q0 106 60.5 172.5t173.5 66.5q116 0 170 -67.5t54 -168.5q0 -19 -4 -44h-297q14 -71 124 -71q83 0 149 36v-119q-72 -36 -174 -36zM189 272h148q-3 29 -21 49.5t-51 20.5q-30 0 -51 -19t-25 -51z" />
    <glyph glyph-name="Ebreve" unicode="&#x114;" horiz-adv-x="532" 
d="M277 696q-176 0 -176 162v18h112q0 -64 64 -64t64 64h112v-18q0 -162 -176 -162zM70 0v648h410v-128h-252v-126h174v-127h-174v-138h264v-129h-422z" />
    <glyph glyph-name="ebreve" unicode="&#x115;" horiz-adv-x="522" 
d="M265 511q-176 0 -176 162v18h112q0 -64 64 -64t64 64h112v-18q0 -162 -176 -162zM288 -9q-119 0 -187.5 58.5t-68.5 172.5q0 106 60.5 172.5t173.5 66.5q116 0 170 -67.5t54 -168.5q0 -19 -4 -44h-297q14 -71 124 -71q83 0 149 36v-119q-72 -36 -174 -36zM189 272h148
q-3 29 -21 49.5t-51 20.5q-30 0 -51 -19t-25 -51z" />
    <glyph glyph-name="Edotaccent" unicode="&#x116;" horiz-adv-x="532" 
d="M277 707q-40 0 -64.5 24.5t-24.5 62.5q0 37 26 62t63 25q38 0 63 -25t25 -63t-25.5 -62t-62.5 -24zM70 0v648h410v-128h-252v-126h174v-127h-174v-138h264v-129h-422z" />
    <glyph glyph-name="edotaccent" unicode="&#x117;" horiz-adv-x="522" 
d="M266 526q-36 0 -58.5 23t-22.5 59q0 35 23.5 58t57.5 23t57 -23t23 -59q0 -37 -22 -59t-58 -22zM288 -9q-119 0 -187.5 58.5t-68.5 172.5q0 106 60.5 172.5t173.5 66.5q116 0 170 -67.5t54 -168.5q0 -19 -4 -44h-297q14 -71 124 -71q83 0 149 36v-119q-72 -36 -174 -36z
M189 272h148q-3 29 -21 49.5t-51 20.5q-30 0 -51 -19t-25 -51z" />
    <glyph glyph-name="Eogonek" unicode="&#x118;" horiz-adv-x="532" 
d="M417 -207q-56 0 -91 27t-35 82q0 71 66 98h-287v648h410v-128h-252v-126h174v-127h-174v-138h264v-129q-41 -7 -67.5 -28t-26.5 -51q0 -44 47 -44q23 0 39 8v-82q-22 -10 -67 -10z" />
    <glyph glyph-name="eogonek" unicode="&#x119;" horiz-adv-x="522" 
d="M355 -207q-55 0 -90.5 26t-35.5 76q0 70 62 99q-4 -1 -11 -1q-114 0 -181 58t-67 171q0 106 60.5 172.5t173.5 66.5q116 0 170 -67.5t54 -168.5q0 -19 -4 -44h-297q14 -71 127 -71q80 0 146 36v-119q-69 -28 -97.5 -51.5t-28.5 -55.5q0 -43 46 -43q24 0 40 8v-82
q-22 -10 -67 -10zM189 272h148q-3 29 -21 49.5t-51 20.5q-30 0 -51 -19t-25 -51z" />
    <glyph glyph-name="Ecaron" unicode="&#x11a;" horiz-adv-x="532" 
d="M277 696l-187 180h145l42 -46l42 46h145zM70 0v648h410v-128h-252v-126h174v-127h-174v-138h264v-129h-422z" />
    <glyph glyph-name="ecaron" unicode="&#x11b;" horiz-adv-x="522" 
d="M266 511l-187 180h145l42 -46l42 46h145zM288 -9q-119 0 -187.5 58.5t-68.5 172.5q0 106 60.5 172.5t173.5 66.5q116 0 170 -67.5t54 -168.5q0 -19 -4 -44h-297q14 -71 124 -71q83 0 149 36v-119q-72 -36 -174 -36zM189 272h148q-3 29 -21 49.5t-51 20.5q-30 0 -51 -19
t-25 -51z" />
    <glyph glyph-name="Gcircumflex" unicode="&#x11c;" horiz-adv-x="713" 
d="M198 705l187 180l187 -180h-145l-42 46l-42 -46h-145zM382 -10q-91 0 -159 29.5t-106 79t-56 106.5t-18 121q0 150 94 241t248 91q54 0 104 -12.5t71 -23t32 -18.5v-150q-33 24 -86 43.5t-111 19.5q-79 0 -134 -50t-55 -139q0 -94 50 -145t127 -51q62 0 101.5 31.5
t40.5 88.5h-163v119h318v-28q0 -171 -69 -262t-229 -91z" />
    <glyph glyph-name="gcircumflex" unicode="&#x11d;" horiz-adv-x="596" 
d="M111 520l187 180l187 -180h-145l-42 46l-42 -46h-145zM283 -208q-102 0 -154 22v125q51 -23 127 -23q62 0 93.5 29.5t31.5 95.5v1q-47 -42 -127 -42q-102 0 -162 63.5t-60 163.5q0 106 66 170t159 64t136 -52l2 43h139v-408q0 -75 -18.5 -126t-54.5 -78t-78 -37.5
t-100 -10.5zM284 124q41 0 68 26t27 79q0 49 -23.5 78.5t-67.5 29.5q-43 0 -70.5 -28.5t-27.5 -80.5q0 -50 26.5 -77t67.5 -27z" />
    <glyph glyph-name="Gbreve" unicode="&#x11e;" horiz-adv-x="713" 
d="M385 696q-176 0 -176 162v18h112q0 -64 64 -64t64 64h112v-18q0 -162 -176 -162zM382 -10q-91 0 -159 29.5t-106 79t-56 106.5t-18 121q0 150 94 241t248 91q54 0 104 -12.5t71 -23t32 -18.5v-150q-33 24 -86 43.5t-111 19.5q-79 0 -134 -50t-55 -139q0 -94 50 -145
t127 -51q62 0 101.5 31.5t40.5 88.5h-163v119h318v-28q0 -171 -69 -262t-229 -91z" />
    <glyph glyph-name="gbreve" unicode="&#x11f;" horiz-adv-x="596" 
d="M297 511q-176 0 -176 162v18h112q0 -64 64 -64t64 64h112v-18q0 -162 -176 -162zM283 -208q-102 0 -154 22v125q51 -23 127 -23q62 0 93.5 29.5t31.5 95.5v1q-47 -42 -127 -42q-102 0 -162 63.5t-60 163.5q0 106 66 170t159 64t136 -52l2 43h139v-408q0 -75 -18.5 -126
t-54.5 -78t-78 -37.5t-100 -10.5zM284 124q41 0 68 26t27 79q0 49 -23.5 78.5t-67.5 29.5q-43 0 -70.5 -28.5t-27.5 -80.5q0 -50 26.5 -77t67.5 -27z" />
    <glyph glyph-name="Gdotaccent" unicode="&#x120;" horiz-adv-x="713" 
d="M385 707q-40 0 -64.5 24.5t-24.5 62.5q0 37 26 62t63 25q38 0 63 -25t25 -63t-25.5 -62t-62.5 -24zM382 -10q-91 0 -159 29.5t-106 79t-56 106.5t-18 121q0 150 94 241t248 91q54 0 104 -12.5t71 -23t32 -18.5v-150q-33 24 -86 43.5t-111 19.5q-79 0 -134 -50t-55 -139
q0 -94 50 -145t127 -51q62 0 101.5 31.5t40.5 88.5h-163v119h318v-28q0 -171 -69 -262t-229 -91z" />
    <glyph glyph-name="gdotaccent" unicode="&#x121;" horiz-adv-x="596" 
d="M298 526q-36 0 -58.5 23t-22.5 59q0 35 23.5 58t57.5 23t57 -23t23 -59q0 -37 -22 -59t-58 -22zM283 -208q-102 0 -154 22v125q51 -23 127 -23q62 0 93.5 29.5t31.5 95.5v1q-47 -42 -127 -42q-102 0 -162 63.5t-60 163.5q0 106 66 170t159 64t136 -52l2 43h139v-408
q0 -75 -18.5 -126t-54.5 -78t-78 -37.5t-100 -10.5zM284 124q41 0 68 26t27 79q0 49 -23.5 78.5t-67.5 29.5q-43 0 -70.5 -28.5t-27.5 -80.5q0 -50 26.5 -77t67.5 -27z" />
    <glyph glyph-name="Gcommaaccent" unicode="&#x122;" horiz-adv-x="713" 
d="M362 371h318v-28q0 -171 -69 -262t-229 -91q-91 0 -159 29.5t-106 79t-56 106.5t-18 121q0 150 94 241t248 91q54 0 104 -12.5t71 -23t32 -18.5v-150q-33 24 -86 43.5t-111 19.5q-79 0 -134 -50t-55 -139q0 -94 50 -145t127 -51q62 0 101.5 31.5t40.5 88.5h-163v119z
M379 -44q34 0 56 -21t22 -58q0 -56 -59 -104h-78q28 24 46 56q-26 2 -42.5 19t-16.5 43q0 30 20.5 47.5t51.5 17.5z" />
    <glyph glyph-name="gcommaaccent" unicode="&#x123;" horiz-adv-x="596" 
d="M266 520q-33 0 -54.5 21t-21.5 58q0 32 22 66.5t60 55.5h67q-45 -40 -60 -73q26 -2 42.5 -19t16.5 -43q0 -31 -20.5 -48.5t-51.5 -17.5zM395 452h139v-408q0 -75 -18.5 -126t-54.5 -78t-78 -37.5t-100 -10.5q-102 0 -154 22v125q51 -23 127 -23q62 0 93.5 29.5t31.5 95.5
v1q-47 -42 -127 -42q-102 0 -162 63.5t-60 163.5q0 106 66 170t159 64t136 -52zM284 124q41 0 68 26t27 79q0 49 -23.5 78.5t-67.5 29.5q-43 0 -70.5 -28.5t-27.5 -80.5q0 -50 26.5 -77t67.5 -27z" />
    <glyph glyph-name="Hcircumflex" unicode="&#x124;" horiz-adv-x="698" 
d="M162 705l187 180l187 -180h-145l-42 46l-42 -46h-145zM70 0v648h158v-254h242v254h158v-648h-158v265h-242v-265h-158z" />
    <glyph glyph-name="hcircumflex" unicode="&#x125;" horiz-adv-x="551" 
d="M-48 720l187 180l187 -180h-145l-42 46l-42 -46h-145zM62 0v663h153v-247q42 45 114 45q80 0 123 -45.5t43 -134.5v-281h-153v247q0 45 -13 67.5t-48 22.5q-23 0 -37 -9t-20 -28.5t-7.5 -38t-1.5 -51.5v-210h-153z" />
    <glyph glyph-name="Hbar" unicode="&#x126;" horiz-adv-x="762" 
d="M763 578v-117h-97v-461h-158v265h-242v-265h-158v461h-109v117h109v70h158v-70h242v70h158v-70h97zM508 394v67h-242v-67h242z" />
    <glyph glyph-name="hbar" unicode="&#x127;" horiz-adv-x="551" 
d="M329 461q80 0 123 -45.5t43 -134.5v-281h-153v247q0 45 -13 67.5t-48 22.5q-23 0 -37 -9t-20 -28.5t-7.5 -38t-1.5 -51.5v-210h-153v496h-78v106h78v61h153v-61h91v-106h-91v-80q42 45 114 45z" />
    <glyph glyph-name="Itilde" unicode="&#x128;" horiz-adv-x="298" 
d="M216 716q-32 0 -75 18t-52 18q-29 0 -29 -31h-92q0 54 29.5 94t84.5 40q33 0 75.5 -18t53.5 -18q15 0 21.5 10t6.5 21h93q0 -52 -30.5 -93t-85.5 -41zM70 0v648h158v-648h-158z" />
    <glyph glyph-name="itilde" unicode="&#x129;" horiz-adv-x="289" 
d="M207 531q-32 0 -75 18t-52 18q-29 0 -29 -31h-92q0 54 29.5 94t84.5 40q33 0 75.5 -18t53.5 -18q15 0 21.5 10t6.5 21h93q0 -52 -30.5 -93t-85.5 -41zM74 0v335h-55v117h208v-452h-153z" />
    <glyph glyph-name="Imacron" unicode="&#x12a;" horiz-adv-x="298" 
d="M-8 736v117h316v-117h-316zM70 0v648h158v-648h-158z" />
    <glyph glyph-name="imacron" unicode="&#x12b;" horiz-adv-x="289" 
d="M-17 546v116h316v-116h-316zM74 0v335h-55v117h208v-452h-153z" />
    <glyph glyph-name="Ibreve" unicode="&#x12c;" horiz-adv-x="298" 
d="M150 696q-176 0 -176 162v18h112q0 -64 64 -64t64 64h112v-18q0 -162 -176 -162zM70 0v648h158v-648h-158z" />
    <glyph glyph-name="ibreve" unicode="&#x12d;" horiz-adv-x="289" 
d="M140 511q-176 0 -176 162v18h112q0 -64 64 -64t64 64h112v-18q0 -162 -176 -162zM74 0v335h-55v117h208v-452h-153z" />
    <glyph glyph-name="Iogonek" unicode="&#x12e;" horiz-adv-x="298" 
d="M144 -207q-57 0 -93 26t-36 85q0 30 15.5 57.5t39.5 39.5v647h158v-648q-106 -16 -106 -79q0 -44 46 -44q24 0 40 8v-82q-22 -10 -64 -10z" />
    <glyph glyph-name="iogonek" unicode="&#x12f;" horiz-adv-x="289" 
d="M151 526q-36 0 -58.5 23t-22.5 59q0 35 23.5 58t57.5 23t57 -23t23 -59q0 -37 -22.5 -59t-57.5 -22zM19 335v117h208v-452q-99 -19 -99 -79q0 -44 47 -44q23 0 39 8v-82q-22 -10 -67 -10q-56 0 -91 27t-35 82q0 63 53 101v332h-55z" />
    <glyph glyph-name="Idotaccent" unicode="&#x130;" horiz-adv-x="298" 
d="M150 707q-40 0 -64.5 24.5t-24.5 62.5q0 37 26 62t63 25q38 0 63 -25t25 -63t-25.5 -62t-62.5 -24zM70 0v648h158v-648h-158z" />
    <glyph glyph-name="dotlessi" unicode="&#x131;" horiz-adv-x="289" 
d="M74 0v335h-55v117h208v-452h-153z" />
    <glyph glyph-name="IJ" unicode="&#x132;" horiz-adv-x="777" 
d="M70 0v648h158v-648h-158zM481 -10q-84 0 -132 26v137q40 -29 102 -29q30 0 50 9t30.5 20t15.5 33.5t5.5 36t0.5 41.5v257h-142v127h300v-419q0 -118 -58.5 -178.5t-171.5 -60.5z" />
    <glyph glyph-name="ij" unicode="&#x133;" horiz-adv-x="586" 
d="M151 526q-36 0 -58.5 23t-22.5 59q0 35 23.5 58t57.5 23t57 -23t23 -59q0 -37 -22.5 -59t-57.5 -22zM448 526q-36 0 -58.5 23t-22.5 59q0 35 23.5 58t57.5 23t57 -23t23 -59q0 -37 -22 -59t-58 -22zM74 0v335h-55v117h208v-452h-153zM291 -207q-57 0 -84 12v121
q24 -12 65 -12q55 0 77 32t22 97v292h-55v117h208v-404q0 -75 -17.5 -126.5t-50.5 -79t-72.5 -38.5t-92.5 -11z" />
    <glyph glyph-name="Jcircumflex" unicode="&#x134;" horiz-adv-x="474" 
d="M64 705l187 180l187 -180h-145l-42 46l-42 -46h-145zM178 -10q-84 0 -132 26v137q40 -29 102 -29q30 0 50 9t30.5 20t15.5 33.5t5.5 36t0.5 41.5v257h-142v127h300v-419q0 -118 -58.5 -178.5t-171.5 -60.5z" />
    <glyph glyph-name="jcircumflex" unicode="&#x135;" horiz-adv-x="289" 
d="M-63 520l187 180l187 -180h-145l-42 46l-42 -46h-145zM-6 -207q-57 0 -84 12v121q24 -12 65 -12q55 0 77 32t22 97v292h-55v117h208v-404q0 -75 -17.5 -126.5t-50.5 -79t-72.5 -38.5t-92.5 -11z" />
    <glyph glyph-name="Kcommaaccent" unicode="&#x136;" horiz-adv-x="701" 
d="M409 332l278 -332h-209l-250 314v-314h-158v648h158v-307l253 307h202zM347 -44q34 0 56 -21t22 -58q0 -56 -59 -104h-78q28 24 46 56q-26 2 -42.5 19t-16.5 43q0 30 20.5 47.5t51.5 17.5z" />
    <glyph glyph-name="kcommaaccent" unicode="&#x137;" horiz-adv-x="563" 
d="M381 244l178 -244h-191l-153 229v-229h-153v663h153v-411l145 200h190zM290 -44q34 0 56 -21t22 -58q0 -56 -59 -104h-78q28 24 46 56q-26 2 -42.5 19t-16.5 43q0 30 20.5 47.5t51.5 17.5z" />
    <glyph glyph-name="kgreenlandic" unicode="&#x138;" horiz-adv-x="557" 
d="M62 0v452h153v-208l144 208h190l-168 -217l177 -235h-191l-152 218v-218h-153z" />
    <glyph glyph-name="Lacute" unicode="&#x139;" horiz-adv-x="529" 
d="M67 705l123 171h202l-176 -171h-149zM70 0v648h158v-519h274v-129h-432z" />
    <glyph glyph-name="lacute" unicode="&#x13a;" horiz-adv-x="277" 
d="M62 731l123 171h202l-176 -171h-149zM62 0v663h153v-663h-153z" />
    <glyph glyph-name="Lcommaaccent" unicode="&#x13b;" horiz-adv-x="529" 
d="M228 129h274v-129h-432v648h158v-519zM289 -44q34 0 56 -21t22 -58q0 -56 -59 -104h-78q28 24 46 56q-26 2 -42.5 19t-16.5 43q0 30 20.5 47.5t51.5 17.5z" />
    <glyph glyph-name="lcommaaccent" unicode="&#x13c;" horiz-adv-x="277" 
d="M62 663h153v-663h-153v663zM135 -44q34 0 56 -21t22 -58q0 -56 -59 -104h-78q28 24 46 56q-26 2 -42.5 19t-16.5 43q0 30 20.5 47.5t51.5 17.5z" />
    <glyph glyph-name="Lcaron" unicode="&#x13d;" horiz-adv-x="529" 
d="M304 457q45 40 60 73q-26 2 -42.5 19t-16.5 43q0 31 20.5 48.5t51.5 17.5q33 0 54.5 -21t21.5 -58q0 -32 -22 -66.5t-60 -55.5h-67zM228 129h274v-129h-432v648h158v-519z" />
    <glyph glyph-name="lcaron" unicode="&#x13e;" horiz-adv-x="431" 
d="M355 668q33 0 54.5 -21t21.5 -58q0 -32 -22 -66.5t-60 -55.5h-67q45 40 60 73q-26 2 -42.5 19t-16.5 43q0 31 20.5 48.5t51.5 17.5zM62 0v663h153v-663h-153z" />
    <glyph glyph-name="Ldot" unicode="&#x13f;" horiz-adv-x="530" 
d="M70 0v648h158v-519h274v-129h-432zM415 243q-39 0 -64 25t-25 65q0 39 26 64t63 25q38 0 63 -25t25 -65t-25.5 -64.5t-62.5 -24.5z" />
    <glyph glyph-name="ldot" unicode="&#x140;" horiz-adv-x="491" 
d="M62 0v663h153v-663h-153zM385 248q-40 0 -64.5 24.5t-24.5 62.5q0 37 26 61.5t63 24.5q38 0 63 -24.5t25 -62.5t-25 -62t-63 -24z" />
    <glyph glyph-name="Lslash" unicode="&#x141;" horiz-adv-x="529" 
d="M70 0v212l-93 -52v128l93 53v307h158v-241l119 69v-131l-119 -69v-147h274v-129h-432z" />
    <glyph glyph-name="lslash" unicode="&#x142;" horiz-adv-x="357" 
d="M102 1v239l-75 -45v119l75 42v307h153v-238l75 45v-123l-75 -41v-305h-153z" />
    <glyph glyph-name="Nacute" unicode="&#x143;" horiz-adv-x="706" 
d="M233 705l123 171h202l-176 -171h-149zM626 -10l-402 347v-337h-154v658h10l401 -347l1 337h154v-658h-10z" />
    <glyph glyph-name="nacute" unicode="&#x144;" horiz-adv-x="551" 
d="M191 520l123 171h202l-176 -171h-149zM62 0v452h139l3 -49q42 58 125 58q80 0 123 -45.5t43 -134.5v-281h-153v247q0 45 -13 67.5t-48 22.5q-23 0 -37 -9t-20 -28.5t-7.5 -38t-1.5 -51.5v-210h-153z" />
    <glyph glyph-name="Ncommaaccent" unicode="&#x145;" horiz-adv-x="706" 
d="M482 648h154v-658h-10l-402 347v-337h-154v658h10l401 -347zM350 -44q34 0 56 -21t22 -58q0 -56 -59 -104h-78q28 24 46 56q-26 2 -42.5 19t-16.5 43q0 30 20.5 47.5t51.5 17.5z" />
    <glyph glyph-name="ncommaaccent" unicode="&#x146;" horiz-adv-x="551" 
d="M329 461q80 0 123 -45.5t43 -134.5v-281h-153v247q0 45 -13 67.5t-48 22.5q-23 0 -37 -9t-20 -28.5t-7.5 -38t-1.5 -51.5v-210h-153v452h139l3 -49q42 58 125 58zM273 -44q34 0 56 -21t22 -58q0 -56 -59 -104h-78q28 24 46 56q-26 2 -42.5 19t-16.5 43q0 30 20.5 47.5
t51.5 17.5z" />
    <glyph glyph-name="Ncaron" unicode="&#x147;" horiz-adv-x="706" 
d="M354 696l-187 180h145l42 -46l42 46h145zM626 -10l-402 347v-337h-154v658h10l401 -347l1 337h154v-658h-10z" />
    <glyph glyph-name="ncaron" unicode="&#x148;" horiz-adv-x="551" 
d="M299 511l-187 180h145l42 -46l42 46h145zM62 0v452h139l3 -49q42 58 125 58q80 0 123 -45.5t43 -134.5v-281h-153v247q0 45 -13 67.5t-48 22.5q-23 0 -37 -9t-20 -28.5t-7.5 -38t-1.5 -51.5v-210h-153z" />
    <glyph glyph-name="Eng" unicode="&#x14a;" horiz-adv-x="706" 
d="M410 -207q-62 0 -99 10v121q29 -11 67 -11q26 0 44.5 4.5t29.5 16t17.5 21.5t9 32t3 35t0.5 42v48l-258 225v-337h-154v658h12l399 -347l1 337h154v-587q0 -135 -54 -201.5t-172 -66.5z" />
    <glyph glyph-name="eng" unicode="&#x14b;" horiz-adv-x="551" 
d="M295 -207q-42 0 -60 6v116q13 -4 33 -4q34 0 54 23.5t20 91.5v221q0 45 -13 67.5t-48 22.5q-23 0 -37 -9t-20 -28.5t-7.5 -38t-1.5 -51.5v-210h-153v452h139l3 -49q42 58 125 58q80 0 123 -45.5t43 -134.5v-231q0 -130 -42.5 -193.5t-157.5 -63.5z" />
    <glyph glyph-name="Omacron" unicode="&#x14c;" horiz-adv-x="766" 
d="M228 736v117h316v-117h-316zM380 -10q-152 0 -244.5 93t-92.5 241q0 150 94 242t249 92q151 0 244 -92t93 -240q0 -147 -95 -241.5t-248 -94.5zM385 134q74 0 124.5 50t50.5 139q0 90 -52 141.5t-125 51.5q-76 0 -126.5 -51t-50.5 -139q0 -92 51 -142t128 -50z" />
    <glyph glyph-name="omacron" unicode="&#x14d;" horiz-adv-x="575" 
d="M130 546v116h316v-116h-316zM285 -9q-115 0 -184 64t-69 168q0 105 71 171.5t189 66.5q113 0 182 -62t69 -168q0 -109 -71.5 -174.5t-186.5 -65.5zM288 118q45 0 71 31t26 79q0 47 -26.5 77t-70.5 30q-46 0 -72 -32.5t-26 -76.5q0 -46 26.5 -77t71.5 -31z" />
    <glyph glyph-name="Obreve" unicode="&#x14e;" horiz-adv-x="766" 
d="M386 696q-176 0 -176 162v18h112q0 -64 64 -64t64 64h112v-18q0 -162 -176 -162zM380 -10q-152 0 -244.5 93t-92.5 241q0 150 94 242t249 92q151 0 244 -92t93 -240q0 -147 -95 -241.5t-248 -94.5zM385 134q74 0 124.5 50t50.5 139q0 90 -52 141.5t-125 51.5
q-76 0 -126.5 -51t-50.5 -139q0 -92 51 -142t128 -50z" />
    <glyph glyph-name="obreve" unicode="&#x14f;" horiz-adv-x="575" 
d="M287 511q-176 0 -176 162v18h112q0 -64 64 -64t64 64h112v-18q0 -162 -176 -162zM285 -9q-115 0 -184 64t-69 168q0 105 71 171.5t189 66.5q113 0 182 -62t69 -168q0 -109 -71.5 -174.5t-186.5 -65.5zM288 118q45 0 71 31t26 79q0 47 -26.5 77t-70.5 30q-46 0 -72 -32.5
t-26 -76.5q0 -46 26.5 -77t71.5 -31z" />
    <glyph glyph-name="Ohungarumlaut" unicode="&#x150;" horiz-adv-x="766" 
d="M125 705l139 171h204l-191 -171h-152zM384 705l138 171h204l-191 -171h-151zM380 -10q-152 0 -244.5 93t-92.5 241q0 150 94 242t249 92q151 0 244 -92t93 -240q0 -147 -95 -241.5t-248 -94.5zM385 134q74 0 124.5 50t50.5 139q0 90 -52 141.5t-125 51.5
q-76 0 -126.5 -51t-50.5 -139q0 -92 51 -142t128 -50z" />
    <glyph glyph-name="ohungarumlaut" unicode="&#x151;" horiz-adv-x="575" 
d="M62 520l139 171h204l-191 -171h-152zM321 520l138 171h204l-191 -171h-151zM285 -9q-115 0 -184 64t-69 168q0 105 71 171.5t189 66.5q113 0 182 -62t69 -168q0 -109 -71.5 -174.5t-186.5 -65.5zM288 118q45 0 71 31t26 79q0 47 -26.5 77t-70.5 30q-46 0 -72 -32.5
t-26 -76.5q0 -46 26.5 -77t71.5 -31z" />
    <glyph glyph-name="OE" unicode="&#x152;" horiz-adv-x="1019" 
d="M380 -10q-152 0 -244.5 93t-92.5 242t93.5 241t244.5 92q113 0 196 -71v61h390v-128h-252v-126h174v-127h-174v-138h264v-129h-402v63q-35 -32 -88.5 -52.5t-108.5 -20.5zM385 134q73 0 124 53t51 136q0 87 -52.5 140t-124.5 53q-75 0 -126 -52t-51 -138t52 -139t127 -53
z" />
    <glyph glyph-name="oe" unicode="&#x153;" horiz-adv-x="874" 
d="M283 -9q-114 0 -182.5 64t-68.5 167q0 105 70.5 172t184.5 67q115 0 168 -63q58 63 162 63q117 0 171 -67.5t54 -168.5q0 -19 -4 -44h-297q14 -71 128 -71q73 0 145 36v-119q-70 -36 -165 -36q-136 0 -192 68q-27 -34 -75.5 -51t-98.5 -17zM541 272h148q-3 29 -21 49.5
t-51 20.5q-30 0 -51 -19t-25 -51zM288 118q45 0 71.5 31t26.5 78t-27 77.5t-71 30.5q-47 0 -73 -32.5t-26 -77.5q0 -46 27 -76.5t72 -30.5z" />
    <glyph glyph-name="Racute" unicode="&#x154;" horiz-adv-x="609" 
d="M490 876l-176 -171h-149l123 171h202zM426 240l164 -240h-191l-132 215h-39v-215h-158v648h203q42 0 76.5 -4t73 -17.5t64.5 -36t43 -63t17 -94.5q0 -77 -34 -124.5t-87 -68.5zM252 338q64 0 98 21t34 74q0 54 -34.5 73t-97.5 19h-24v-187h24z" />
    <glyph glyph-name="racute" unicode="&#x155;" horiz-adv-x="350" 
d="M124 520l123 171h202l-176 -171h-149zM62 0v452h139l3 -50q39 59 121 59q11 0 14 -1v-135q-12 12 -47 12q-49 0 -63 -31.5t-14 -97.5v-208h-153z" />
    <glyph glyph-name="Rcommaaccent" unicode="&#x156;" horiz-adv-x="609" 
d="M426 240l164 -240h-191l-132 215h-39v-215h-158v648h203q42 0 76.5 -4t73 -17.5t64.5 -36t43 -63t17 -94.5q0 -77 -34 -124.5t-87 -68.5zM252 338q64 0 98 21t34 74q0 54 -34.5 73t-97.5 19h-24v-187h24zM302 -44q34 0 56 -21t22 -58q0 -56 -59 -104h-78q28 24 46 56
q-26 2 -42.5 19t-16.5 43q0 30 20.5 47.5t51.5 17.5z" />
    <glyph glyph-name="rcommaaccent" unicode="&#x157;" horiz-adv-x="350" 
d="M325 461q11 0 14 -1v-135q-12 12 -47 12q-49 0 -63 -31.5t-14 -97.5v-208h-153v452h139l3 -50q39 59 121 59zM132 -44q34 0 56 -21t22 -58q0 -56 -59 -104h-78q28 24 46 56q-26 2 -42.5 19t-16.5 43q0 30 20.5 47.5t51.5 17.5z" />
    <glyph glyph-name="Rcaron" unicode="&#x158;" horiz-adv-x="609" 
d="M473 876l-187 -180l-187 180h145l42 -46l42 46h145zM426 240l164 -240h-191l-132 215h-39v-215h-158v648h203q42 0 76.5 -4t73 -17.5t64.5 -36t43 -63t17 -94.5q0 -77 -34 -124.5t-87 -68.5zM252 338q64 0 98 21t34 74q0 54 -34.5 73t-97.5 19h-24v-187h24z" />
    <glyph glyph-name="rcaron" unicode="&#x159;" horiz-adv-x="350" 
d="M232 511l-187 180h145l42 -46l42 46h145zM62 0v452h139l3 -50q39 59 121 59q11 0 14 -1v-135q-12 12 -47 12q-49 0 -63 -31.5t-14 -97.5v-208h-153z" />
    <glyph glyph-name="Sacute" unicode="&#x15a;" horiz-adv-x="502" 
d="M157 705l123 171h202l-176 -171h-149zM234 -10q-96 0 -179 39v150q83 -57 174 -57q36 0 55.5 14.5t19.5 38.5t-18 42.5t-45.5 29.5t-59 29t-59 39t-45.5 60t-18 91q0 89 57 140.5t161 51.5q96 0 155 -31v-148q-75 48 -144 48q-34 0 -51.5 -14.5t-17.5 -39.5
q0 -27 25.5 -46.5t61.5 -35.5t72 -37t61.5 -63t25.5 -103q0 -94 -59.5 -146t-171.5 -52z" />
    <glyph glyph-name="sacute" unicode="&#x15b;" horiz-adv-x="393" 
d="M113 520l123 171h202l-176 -171h-149zM185 -9q-81 0 -137 26v116q17 -12 54.5 -24t71.5 -12q48 0 48 37q0 18 -18 30t-43.5 20.5t-51 21.5t-43.5 42t-18 72q0 71 46 106t126 35q72 0 110 -20v-115q-58 30 -99 30t-41 -30q0 -16 18 -26.5t43 -19t50.5 -21.5t43.5 -42
t18 -72q0 -75 -48.5 -114.5t-129.5 -39.5z" />
    <glyph glyph-name="Scircumflex" unicode="&#x15c;" horiz-adv-x="502" 
d="M91 705l187 180l187 -180h-145l-42 46l-42 -46h-145zM234 -10q-96 0 -179 39v150q83 -57 174 -57q36 0 55.5 14.5t19.5 38.5t-18 42.5t-45.5 29.5t-59 29t-59 39t-45.5 60t-18 91q0 89 57 140.5t161 51.5q96 0 155 -31v-148q-75 48 -144 48q-34 0 -51.5 -14.5
t-17.5 -39.5q0 -27 25.5 -46.5t61.5 -35.5t72 -37t61.5 -63t25.5 -103q0 -94 -59.5 -146t-171.5 -52z" />
    <glyph glyph-name="scircumflex" unicode="&#x15d;" horiz-adv-x="393" 
d="M34 520l187 180l187 -180h-145l-42 46l-42 -46h-145zM185 -9q-81 0 -137 26v116q17 -12 54.5 -24t71.5 -12q48 0 48 37q0 18 -18 30t-43.5 20.5t-51 21.5t-43.5 42t-18 72q0 71 46 106t126 35q72 0 110 -20v-115q-58 30 -99 30t-41 -30q0 -16 18 -26.5t43 -19t50.5 -21.5
t43.5 -42t18 -72q0 -75 -48.5 -114.5t-129.5 -39.5z" />
    <glyph glyph-name="Scedilla" unicode="&#x15e;" horiz-adv-x="502" 
d="M465 188q0 -86 -50 -137t-145 -59l-9 -30h3q29 0 52.5 -19t23.5 -58q0 -92 -124 -92q-46 0 -68 10v72q22 -13 50 -13q35 0 35 26t-30 26q-18 0 -30 -12l-9 5l25 85q-73 7 -134 37v150q83 -57 174 -57q36 0 55.5 14.5t19.5 38.5t-18 42.5t-45.5 29.5t-59 29t-59 39
t-45.5 60t-18 91q0 89 57 140.5t161 51.5q96 0 155 -31v-148q-75 48 -144 48q-34 0 -51.5 -14.5t-17.5 -39.5q0 -27 25.5 -46.5t61.5 -35.5t72 -37t61.5 -63t25.5 -103z" />
    <glyph glyph-name="scedilla" unicode="&#x15f;" horiz-adv-x="393" 
d="M363 145q0 -64 -36 -102.5t-98 -48.5l-10 -32h3q29 0 52.5 -19t23.5 -58q0 -92 -124 -92q-46 0 -68 10v72q22 -13 50 -13q35 0 35 26t-30 26q-18 0 -30 -12l-9 5l25 86q-61 6 -99 24v116q17 -12 54.5 -24t71.5 -12q48 0 48 37q0 18 -18 30t-43.5 20.5t-51 21.5t-43.5 42
t-18 72q0 71 46 106t126 35q72 0 110 -20v-115q-58 30 -99 30t-41 -30q0 -16 18 -26.5t43 -19t50.5 -21.5t43.5 -42t18 -72z" />
    <glyph glyph-name="Scaron" unicode="&#x160;" horiz-adv-x="502" 
d="M278 696l-187 180h145l42 -46l42 46h145zM234 -10q-96 0 -179 39v150q83 -57 174 -57q36 0 55.5 14.5t19.5 38.5t-18 42.5t-45.5 29.5t-59 29t-59 39t-45.5 60t-18 91q0 89 57 140.5t161 51.5q96 0 155 -31v-148q-75 48 -144 48q-34 0 -51.5 -14.5t-17.5 -39.5
q0 -27 25.5 -46.5t61.5 -35.5t72 -37t61.5 -63t25.5 -103q0 -94 -59.5 -146t-171.5 -52z" />
    <glyph glyph-name="scaron" unicode="&#x161;" horiz-adv-x="393" 
d="M221 511l-187 180h145l42 -46l42 46h145zM185 -9q-81 0 -137 26v116q17 -12 54.5 -24t71.5 -12q48 0 48 37q0 18 -18 30t-43.5 20.5t-51 21.5t-43.5 42t-18 72q0 71 46 106t126 35q72 0 110 -20v-115q-58 30 -99 30t-41 -30q0 -16 18 -26.5t43 -19t50.5 -21.5t43.5 -42
t18 -72q0 -75 -48.5 -114.5t-129.5 -39.5z" />
    <glyph glyph-name="uni0162" unicode="&#x162;" horiz-adv-x="563" 
d="M32 648h499v-128h-170v-520h-158v520h-171v128zM277 -44q34 0 56 -21t22 -58q0 -56 -59 -104h-78q28 24 46 56q-26 2 -42.5 19t-16.5 43q0 30 20.5 47.5t51.5 17.5z" />
    <glyph glyph-name="uni0163" unicode="&#x163;" horiz-adv-x="425" 
d="M315 114q36 0 74 18v-121q-36 -20 -110 -20q-185 0 -185 181v163h-86v10q154 166 229 255h10v-148h121v-117h-121v-143q0 -39 13.5 -58.5t54.5 -19.5zM243 -44q34 0 56 -21t22 -58q0 -56 -59 -104h-78q28 24 46 56q-26 2 -42.5 19t-16.5 43q0 30 20.5 47.5t51.5 17.5z
" />
    <glyph glyph-name="Tcaron" unicode="&#x164;" horiz-adv-x="563" 
d="M281 696l-187 180h145l42 -46l42 46h145zM203 0v520h-171v128h499v-128h-170v-520h-158z" />
    <glyph glyph-name="tcaron" unicode="&#x165;" horiz-adv-x="425" 
d="M377 700q33 0 54.5 -21t21.5 -58q0 -32 -22 -66.5t-60 -55.5h-67q45 40 60 73q-26 2 -42.5 19t-16.5 43q0 31 20.5 48.5t51.5 17.5zM247 192q0 -39 13.5 -58.5t54.5 -19.5q36 0 74 18v-121q-36 -20 -110 -20q-185 0 -185 181v163h-86v10q154 166 229 255h10v-148h121
v-117h-121v-143z" />
    <glyph glyph-name="Tbar" unicode="&#x166;" horiz-adv-x="563" 
d="M531 520h-170v-162h92v-120h-92v-238h-158v238h-84v120h84v162h-171v128h499v-128z" />
    <glyph glyph-name="tbar" unicode="&#x167;" horiz-adv-x="425" 
d="M315 114q36 0 74 18v-121q-36 -20 -110 -20q-185 0 -185 181v2h-57v111h57v50h-86v10q154 166 229 255h10v-148h121v-117h-121v-50h103v-111h-102q2 -30 16 -45t51 -15z" />
    <glyph glyph-name="Utilde" unicode="&#x168;" horiz-adv-x="663" 
d="M397 716q-32 0 -75 18t-52 18q-29 0 -29 -31h-92q0 54 29.5 94t84.5 40q33 0 75.5 -18t53.5 -18q15 0 21.5 10t6.5 21h93q0 -52 -30.5 -93t-85.5 -41zM331 -10q-131 0 -198 64t-67 210v384h158v-355q0 -33 1 -52t7 -44t17 -38t32 -22.5t51 -9.5t51 9.5t32 22t17 37
t7 44.5t1 53v355h157v-383q0 -146 -67 -210.5t-199 -64.5z" />
    <glyph glyph-name="utilde" unicode="&#x169;" horiz-adv-x="525" 
d="M327 531q-32 0 -75 18t-52 18q-29 0 -29 -31h-92q0 54 29.5 94t84.5 40q33 0 75.5 -18t53.5 -18q15 0 21.5 10t6.5 21h93q0 -52 -30.5 -93t-85.5 -41zM262 -9q-112 0 -159 57t-47 146v258h153v-261q0 -77 55 -77t55 77v261h150v-258q0 -40 -9.5 -74t-31.5 -64t-64 -47.5
t-102 -17.5z" />
    <glyph glyph-name="Umacron" unicode="&#x16a;" horiz-adv-x="663" 
d="M173 736v117h316v-117h-316zM331 -10q-131 0 -198 64t-67 210v384h158v-355q0 -33 1 -52t7 -44t17 -38t32 -22.5t51 -9.5t51 9.5t32 22t17 37t7 44.5t1 53v355h157v-383q0 -146 -67 -210.5t-199 -64.5z" />
    <glyph glyph-name="umacron" unicode="&#x16b;" horiz-adv-x="525" 
d="M103 546v116h316v-116h-316zM262 -9q-112 0 -159 57t-47 146v258h153v-261q0 -77 55 -77t55 77v261h150v-258q0 -40 -9.5 -74t-31.5 -64t-64 -47.5t-102 -17.5z" />
    <glyph glyph-name="Ubreve" unicode="&#x16c;" horiz-adv-x="663" 
d="M331 696q-176 0 -176 162v18h112q0 -64 64 -64t64 64h112v-18q0 -162 -176 -162zM331 -10q-131 0 -198 64t-67 210v384h158v-355q0 -33 1 -52t7 -44t17 -38t32 -22.5t51 -9.5t51 9.5t32 22t17 37t7 44.5t1 53v355h157v-383q0 -146 -67 -210.5t-199 -64.5z" />
    <glyph glyph-name="ubreve" unicode="&#x16d;" horiz-adv-x="525" 
d="M260 511q-176 0 -176 162v18h112q0 -64 64 -64t64 64h112v-18q0 -162 -176 -162zM262 -9q-112 0 -159 57t-47 146v258h153v-261q0 -77 55 -77t55 77v261h150v-258q0 -40 -9.5 -74t-31.5 -64t-64 -47.5t-102 -17.5z" />
    <glyph glyph-name="Uring" unicode="&#x16e;" horiz-adv-x="663" 
d="M331 690q-45 0 -77.5 31t-32.5 72t32.5 72t77.5 31t77.5 -31t32.5 -72t-32.5 -72t-77.5 -31zM331 759q14 0 24 10t10 25t-10 24.5t-24 9.5t-24 -9.5t-10 -24.5t10 -25t24 -10zM331 -10q-131 0 -198 64t-67 210v384h158v-355q0 -33 1 -52t7 -44t17 -38t32 -22.5t51 -9.5
t51 9.5t32 22t17 37t7 44.5t1 53v355h157v-383q0 -146 -67 -210.5t-199 -64.5z" />
    <glyph glyph-name="uring" unicode="&#x16f;" horiz-adv-x="525" 
d="M261 510q-45 0 -77.5 31t-32.5 72t32.5 72t77.5 31t77.5 -31t32.5 -72t-32.5 -72t-77.5 -31zM261 579q14 0 24 10t10 25t-10 24.5t-24 9.5t-24 -9.5t-10 -24.5t10 -25t24 -10zM262 -9q-112 0 -159 57t-47 146v258h153v-261q0 -77 55 -77t55 77v261h150v-258
q0 -40 -9.5 -74t-31.5 -64t-64 -47.5t-102 -17.5z" />
    <glyph glyph-name="Uhungarumlaut" unicode="&#x170;" horiz-adv-x="663" 
d="M70 705l139 171h204l-191 -171h-152zM329 705l138 171h204l-191 -171h-151zM331 -10q-131 0 -198 64t-67 210v384h158v-355q0 -33 1 -52t7 -44t17 -38t32 -22.5t51 -9.5t51 9.5t32 22t17 37t7 44.5t1 53v355h157v-383q0 -146 -67 -210.5t-199 -64.5z" />
    <glyph glyph-name="uhungarumlaut" unicode="&#x171;" horiz-adv-x="525" 
d="M35 520l139 171h204l-191 -171h-152zM294 520l138 171h204l-191 -171h-151zM262 -9q-112 0 -159 57t-47 146v258h153v-261q0 -77 55 -77t55 77v261h150v-258q0 -40 -9.5 -74t-31.5 -64t-64 -47.5t-102 -17.5z" />
    <glyph glyph-name="Uogonek" unicode="&#x172;" horiz-adv-x="663" 
d="M411 -207q-56 0 -91 27t-35 82q0 34 14.5 54t46.5 36q-10 -2 -20 -2q-128 0 -194 64.5t-66 209.5v384h158v-355q0 -33 1 -52t7 -44t17 -38t32 -22.5t51 -9.5t51 9.5t32 22t17 37t7 44.5t1 53v355h157v-379q0 -72 -15 -125t-38 -79.5t-49.5 -46.5t-49.5 -30t-38 -27
t-15 -40q0 -44 47 -44q23 0 39 8v-82q-22 -10 -67 -10z" />
    <glyph glyph-name="uogonek" unicode="&#x173;" horiz-adv-x="525" 
d="M343 -207q-56 0 -91 27t-35 82q0 58 52 90q-3 -1 -9 -1q-204 0 -204 203v258h153v-261q0 -77 55 -77t55 77v261h150v-260q0 -51 -15 -90.5t-36.5 -63t-42.5 -41.5t-36 -36.5t-15 -38.5q0 -45 46 -45q24 0 40 8v-82q-22 -10 -67 -10z" />
    <glyph glyph-name="Wcircumflex" unicode="&#x174;" horiz-adv-x="1044" 
d="M336 705l187 180l187 -180h-145l-42 46l-42 -46h-145zM333 -9l-313 657h175l146 -338l177 338h10l175 -338l150 338h171l-312 -657h-10l-179 345l-180 -345h-10z" />
    <glyph glyph-name="wcircumflex" unicode="&#x175;" horiz-adv-x="722" 
d="M174 520l187 180l187 -180h-145l-42 46l-42 -46h-145zM243 -9l-236 461h168l82 -190l99 190h10l102 -190l84 190h163l-233 -461h-10l-111 207l-108 -207h-10z" />
    <glyph glyph-name="Ycircumflex" unicode="&#x176;" horiz-adv-x="652" 
d="M139 705l187 180l187 -180h-145l-42 46l-42 -46h-145zM246 0v257l-232 391h175l141 -254l139 254h169l-234 -391v-257h-158z" />
    <glyph glyph-name="ycircumflex" unicode="&#x177;" horiz-adv-x="527" 
d="M76 520l187 180l187 -180h-145l-42 46l-42 -46h-145zM81 -198l103 231l-181 419h168l92 -247l98 247h163l-278 -650h-165z" />
    <glyph glyph-name="Ydieresis" unicode="&#x178;" horiz-adv-x="652" 
d="M211 708q-39 0 -63 24t-24 61t24 61t63 24q38 0 62 -24t24 -61t-24 -61t-62 -24zM440 708q-38 0 -62.5 24t-24.5 61t24.5 61t62.5 24q39 0 63 -24t24 -61t-24 -61t-63 -24zM246 0v257l-232 391h175l141 -254l139 254h169l-234 -391v-257h-158z" />
    <glyph glyph-name="Zacute" unicode="&#x179;" horiz-adv-x="597" 
d="M177 705l123 171h202l-176 -171h-149zM31 0v10l289 510h-265v128h512v-10l-288 -509h284v-129h-532z" />
    <glyph glyph-name="zacute" unicode="&#x17a;" horiz-adv-x="464" 
d="M125 520l123 171h202l-176 -171h-149zM19 0v10l190 325h-173v117h409v-10l-188 -324h192v-118h-430z" />
    <glyph glyph-name="Zdotaccent" unicode="&#x17b;" horiz-adv-x="597" 
d="M298 707q-40 0 -64.5 24.5t-24.5 62.5q0 37 26 62t63 25q38 0 63 -25t25 -63t-25.5 -62t-62.5 -24zM31 0v10l289 510h-265v128h512v-10l-288 -509h284v-129h-532z" />
    <glyph glyph-name="zdotaccent" unicode="&#x17c;" horiz-adv-x="464" 
d="M233 526q-36 0 -58.5 23t-22.5 59q0 35 23.5 58t57.5 23t57 -23t23 -59q0 -37 -22.5 -59t-57.5 -22zM19 0v10l190 325h-173v117h409v-10l-188 -324h192v-118h-430z" />
    <glyph glyph-name="Zcaron" unicode="&#x17d;" horiz-adv-x="597" 
d="M298 696l-187 180h145l42 -46l42 46h145zM31 0v10l289 510h-265v128h512v-10l-288 -509h284v-129h-532z" />
    <glyph glyph-name="zcaron" unicode="&#x17e;" horiz-adv-x="464" 
d="M233 511l-187 180h145l42 -46l42 46h145zM19 0v10l190 325h-173v117h409v-10l-188 -324h192v-118h-430z" />
    <glyph glyph-name="longs" unicode="&#x17f;" horiz-adv-x="382" 
d="M102 0v335h-78v117h78v34q0 194 191 194q60 0 97 -17v-126q-29 18 -71 18q-38 0 -51 -20.5t-13 -55.5v-479h-153z" />
    <glyph glyph-name="florin" unicode="&#x192;" horiz-adv-x="467" 
d="M29 -207q-48 0 -74 12v125q21 -9 48 -9q24 0 39.5 5.5t24 20.5t12.5 29t9 43l42 237h-69v125h91l15 85q16 92 66 142t148 50q51 0 80 -11v-131q-21 13 -56 13q-38 0 -56 -18.5t-25 -58.5l-12 -71h103v-125h-125l-48 -271q-7 -38 -16.5 -65t-31.5 -59.5t-63.5 -50
t-101.5 -17.5z" />
    <glyph glyph-name="uni01CD" unicode="&#x1cd;" horiz-adv-x="639" 
d="M320 696l-187 180h145l42 -46l42 46h145zM14 0l301 658h10l300 -658h-169l-36 88h-206l-37 -88h-163zM259 206h119l-60 143z" />
    <glyph glyph-name="uni01CE" unicode="&#x1ce;" horiz-adv-x="530" 
d="M451 691l-187 -180l-187 180h145l42 -46l42 46h145zM253 461q221 0 221 -193v-268h-140l-4 44q-42 -53 -130 -53q-77 0 -122.5 37.5t-45.5 103.5q0 68 51.5 110.5t141.5 42.5q52 0 98 -17v3q0 35 -20.5 60t-70.5 25q-69 0 -147 -47v115q74 37 168 37zM246 86q35 0 56 21
t21 65v9q-30 15 -71 15q-31 0 -49.5 -14.5t-18.5 -40.5q0 -25 16.5 -40t45.5 -15z" />
    <glyph glyph-name="AEacute" unicode="&#x1fc;" horiz-adv-x="892" 
d="M327 705l123 171h202l-176 -171h-149zM14 0l296 648h313l59 -128h-294l57 -126h226l58 -127h-226l63 -138h287l59 -129h-456l-36 88h-206l-37 -88h-163zM260 206h117l-59 144z" />
    <glyph glyph-name="aeacute" unicode="&#x1fd;" horiz-adv-x="800" 
d="M658 691l-176 -171h-149l123 171h202zM768 225q0 -20 -4 -44h-297q15 -71 125 -71q81 0 148 36v-119q-72 -36 -172 -36q-69 0 -118 22t-71 57q-52 -79 -179 -79q-77 0 -122.5 37.5t-45.5 103.5q0 68 51.5 110.5t141.5 42.5q52 0 98 -17v3q0 35 -20.5 60t-70.5 25
q-69 0 -147 -47v115q74 37 168 37q109 0 146 -56q53 56 143 56q119 0 172.5 -67.5t53.5 -168.5zM468 272h148q-3 29 -21 49.5t-51 20.5q-30 0 -51 -19t-25 -51zM246 86q35 0 56 21t21 65v9q-30 15 -71 15q-31 0 -49.5 -14.5t-18.5 -40.5q0 -25 16.5 -40t45.5 -15z" />
    <glyph glyph-name="Oslashacute" unicode="&#x1fe;" horiz-adv-x="766" 
d="M276 705l123 171h202l-176 -171h-149zM43 -30l85 120q-85 93 -85 234q0 150 94 242t249 92q72 0 130 -21l36 50h155l-82 -116q98 -92 98 -245q0 -147 -95 -241.5t-248 -94.5q-80 0 -148 28l-34 -48h-155zM226 228l201 283q-17 5 -44 5q-76 0 -126.5 -51t-50.5 -139
q0 -56 20 -98zM385 134q74 0 124.5 50t50.5 139q0 67 -30 114l-208 -293q21 -10 63 -10z" />
    <glyph glyph-name="oslashacute" unicode="&#x1ff;" horiz-adv-x="575" 
d="M169 520l123 171h202l-176 -171h-149zM61 -41l54 85q-83 64 -83 179q0 105 71 171.5t189 66.5q42 0 80 -9l27 42h114l-53 -84q83 -62 83 -179q0 -109 -71.5 -174.5t-186.5 -65.5q-41 0 -83 10l-27 -42h-114zM199 178l100 157q-4 1 -11 1q-46 0 -72 -33t-26 -77
q0 -27 9 -48zM288 118q45 0 71 31t26 79q0 26 -9 49l-100 -158q4 -1 12 -1z" />
    <glyph glyph-name="Scommaaccent" unicode="&#x218;" horiz-adv-x="502" 
d="M219 473q0 -27 25.5 -46.5t61.5 -35.5t72 -37t61.5 -63t25.5 -103q0 -94 -59.5 -146t-171.5 -52q-96 0 -179 39v150q83 -57 174 -57q36 0 55.5 14.5t19.5 38.5t-18 42.5t-45.5 29.5t-59 29t-59 39t-45.5 60t-18 91q0 89 57 140.5t161 51.5q96 0 155 -31v-148
q-75 48 -144 48q-34 0 -51.5 -14.5t-17.5 -39.5zM232 -44q34 0 56 -21t22 -58q0 -56 -59 -104h-78q28 24 46 56q-26 2 -42.5 19t-16.5 43q0 30 20.5 47.5t51.5 17.5z" />
    <glyph glyph-name="scommaaccent" unicode="&#x219;" horiz-adv-x="393" 
d="M190 326q0 -16 18 -26.5t43 -19t50.5 -21.5t43.5 -42t18 -72q0 -75 -48.5 -114.5t-129.5 -39.5t-137 26v116q17 -12 54.5 -24t71.5 -12q48 0 48 37q0 18 -18 30t-43.5 20.5t-51 21.5t-43.5 42t-18 72q0 71 46 106t126 35q72 0 110 -20v-115q-58 30 -99 30t-41 -30z
M190 -44q34 0 56 -21t22 -58q0 -56 -59 -104h-78q28 24 46 56q-26 2 -42.5 19t-16.5 43q0 30 20.5 47.5t51.5 17.5z" />
    <glyph glyph-name="uni021A" unicode="&#x21a;" horiz-adv-x="563" 
d="M32 648h499v-128h-170v-520h-158v520h-171v128zM277 -44q34 0 56 -21t22 -58q0 -56 -59 -104h-78q28 24 46 56q-26 2 -42.5 19t-16.5 43q0 30 20.5 47.5t51.5 17.5z" />
    <glyph glyph-name="uni021B" unicode="&#x21b;" horiz-adv-x="425" 
d="M315 114q36 0 74 18v-121q-36 -20 -110 -20q-185 0 -185 181v163h-86v10q154 166 229 255h10v-148h121v-117h-121v-143q0 -39 13.5 -58.5t54.5 -19.5zM243 -44q34 0 56 -21t22 -58q0 -56 -59 -104h-78q28 24 46 56q-26 2 -42.5 19t-16.5 43q0 30 20.5 47.5t51.5 17.5z
" />
    <glyph glyph-name="uni0237" unicode="&#x237;" horiz-adv-x="289" 
d="M-6 -207q-57 0 -84 12v121q24 -12 65 -12q55 0 77 32t22 97v292h-55v117h208v-404q0 -75 -17.5 -126.5t-50.5 -79t-72.5 -38.5t-92.5 -11z" />
    <glyph glyph-name="circumflex" unicode="&#x2c6;" horiz-adv-x="509" 
d="M70 520l187 180l187 -180h-145l-42 46l-42 -46h-145z" />
    <glyph glyph-name="caron" unicode="&#x2c7;" horiz-adv-x="509" 
d="M257 511l-187 180h145l42 -46l42 46h145z" />
    <glyph glyph-name="breve" unicode="&#x2d8;" horiz-adv-x="511" 
d="M259 511q-176 0 -176 162v18h112q0 -64 64 -64t64 64h112v-18q0 -162 -176 -162z" />
    <glyph glyph-name="dotaccent" unicode="&#x2d9;" horiz-adv-x="520" 
d="M269 526q-36 0 -58.5 23t-22.5 59q0 35 23.5 58t57.5 23t57 -23t23 -59q0 -37 -22.5 -59t-57.5 -22z" />
    <glyph glyph-name="ring" unicode="&#x2da;" horiz-adv-x="517" 
d="M265 510q-45 0 -77.5 31t-32.5 72t32.5 72t77.5 31t77.5 -31t32.5 -72t-32.5 -72t-77.5 -31zM265 579q14 0 24 10t10 25t-10 24.5t-24 9.5t-24 -9.5t-10 -24.5t10 -25t24 -10z" />
    <glyph glyph-name="ogonek" unicode="&#x2db;" horiz-adv-x="518" 
d="M322 -207q-56 0 -91 27t-35 82q0 51 33.5 82t88.5 42l77 -23q-45 -15 -68.5 -34t-23.5 -48q0 -44 47 -44q23 0 39 8v-82q-22 -10 -67 -10z" />
    <glyph glyph-name="tilde" unicode="&#x2dc;" horiz-adv-x="510" 
d="M326 531q-32 0 -75 18t-52 18q-29 0 -29 -31h-92q0 54 29.5 94t84.5 40q33 0 75.5 -18t53.5 -18q15 0 21.5 10t6.5 21h93q0 -52 -30.5 -93t-85.5 -41z" />
    <glyph glyph-name="hungarumlaut" unicode="&#x2dd;" horiz-adv-x="498" 
d="M-54 520l139 171h204l-191 -171h-152zM205 520l138 171h204l-191 -171h-151z" />
    <glyph glyph-name="gravecomb" unicode="&#x300;" horiz-adv-x="0" 
d="M-247 520l-175 171h204l123 -171h-152z" />
    <glyph glyph-name="acutecomb" unicode="&#x301;" horiz-adv-x="0" 
d="M-420 520l123 171h202l-176 -171h-149z" />
    <glyph glyph-name="uni0302" unicode="&#x302;" horiz-adv-x="0" 
d="M-442 520l187 180l187 -180h-145l-42 46l-42 -46h-145z" />
    <glyph glyph-name="tildecomb" unicode="&#x303;" horiz-adv-x="0" 
d="M-188 531q-32 0 -75 18t-52 18q-29 0 -29 -31h-92q0 54 29.5 94t84.5 40q33 0 75.5 -18t53.5 -18q15 0 21.5 10t6.5 21h93q0 -52 -30.5 -93t-85.5 -41z" />
    <glyph glyph-name="uni0304" unicode="&#x304;" horiz-adv-x="0" 
d="M-415 546v116h316v-116h-316z" />
    <glyph glyph-name="uni0306" unicode="&#x306;" horiz-adv-x="0" 
d="M-256 511q-176 0 -176 162v18h112q0 -64 64 -64t64 64h112v-18q0 -162 -176 -162z" />
    <glyph glyph-name="uni0307" unicode="&#x307;" horiz-adv-x="0" 
d="M-259 526q-36 0 -58.5 23t-22.5 59q0 35 23.5 58t57.5 23t57 -23t23 -59q0 -37 -22.5 -59t-57.5 -22z" />
    <glyph glyph-name="uni0308" unicode="&#x308;" horiz-adv-x="0" 
d="M-369 526q-36 0 -58.5 23t-22.5 59q0 35 23.5 58t57.5 23t57 -23t23 -59q0 -37 -22.5 -59t-57.5 -22zM-140 526q-36 0 -58.5 23t-22.5 59q0 35 23.5 58t57.5 23t57 -23t23 -59q0 -37 -22 -59t-58 -22z" />
    <glyph glyph-name="uni030A" unicode="&#x30a;" horiz-adv-x="0" 
d="M-259 510q-45 0 -77.5 31t-32.5 72t32.5 72t77.5 31t77.5 -31t32.5 -72t-32.5 -72t-77.5 -31zM-259 579q14 0 24 10t10 25t-10 24.5t-24 9.5t-24 -9.5t-10 -24.5t10 -25t24 -10z" />
    <glyph glyph-name="uni030B" unicode="&#x30b;" horiz-adv-x="0" 
d="M-550 520l139 171h204l-191 -171h-152zM-291 520l138 171h204l-191 -171h-151z" />
    <glyph glyph-name="uni030C" unicode="&#x30c;" horiz-adv-x="0" 
d="M-255 511l-187 180h145l42 -46l42 46h145z" />
    <glyph glyph-name="uni0315" unicode="&#x315;" horiz-adv-x="0" 
d="M-249 658q33 0 54.5 -21t21.5 -58q0 -32 -22 -66.5t-60 -55.5h-67q45 40 60 73q-26 2 -42.5 19t-16.5 43q0 31 20.5 48.5t51.5 17.5z" />
    <glyph glyph-name="uni0326" unicode="&#x326;" horiz-adv-x="0" 
d="M-254 -44q34 0 56 -21t22 -58q0 -56 -59 -104h-78q28 24 46 56q-26 2 -42.5 19t-16.5 43q0 30 20.5 47.5t51.5 17.5z" />
    <glyph glyph-name="uni0327" unicode="&#x327;" horiz-adv-x="0" 
d="M-301 -207q-46 0 -68 10v72q22 -13 50 -13q35 0 35 26t-30 26q-18 0 -30 -12l-9 5l34 118h83l-20 -63h3q29 0 52.5 -19t23.5 -58q0 -92 -124 -92z" />
    <glyph glyph-name="uni0328" unicode="&#x328;" horiz-adv-x="0" 
d="M-205 -207q-56 0 -91 27t-35 82q0 51 33.5 82t88.5 42l77 -23q-45 -15 -68.5 -34t-23.5 -48q0 -44 47 -44q23 0 39 8v-82q-22 -10 -67 -10z" />
    <glyph glyph-name="uni0374" unicode="&#x374;" horiz-adv-x="265" 
d="M20 412l68 236h162l-113 -236h-117z" />
    <glyph glyph-name="uni0375" unicode="&#x375;" horiz-adv-x="265" 
d="M10 -138l68 236h162l-113 -236h-117z" />
    <glyph glyph-name="uni037E" unicode="&#x37e;" horiz-adv-x="286" 
d="M151 308q-39 0 -64 25t-25 65q0 39 26 64t63 25q38 0 63 -25t25 -65t-25.5 -64.5t-62.5 -24.5zM150 170q47 0 75 -29.5t28 -86.5q0 -56 -28.5 -111.5t-85.5 -93.5h-95q77 65 93 142q-39 1 -62 22.5t-23 61.5q0 42 27.5 68.5t70.5 26.5z" />
    <glyph glyph-name="tonos" unicode="&#x384;" horiz-adv-x="515" 
d="M134 520l74 171h178l-110 -171h-142z" />
    <glyph glyph-name="dieresistonos" unicode="&#x385;" horiz-adv-x="674" 
d="M266 520l36 172h130l-70 -172h-96zM174 520q-33 0 -53.5 21t-20.5 53q0 33 20.5 54t53.5 21t53.5 -21t20.5 -54q0 -32 -20.5 -53t-53.5 -21zM500 520q-33 0 -53.5 21t-20.5 53q0 33 20.5 54t53.5 21t53.5 -21t20.5 -54q0 -32 -20.5 -53t-53.5 -21z" />
    <glyph glyph-name="Alphatonos" unicode="&#x386;" horiz-adv-x="646" 
d="M21 0l301 658h10l300 -658h-169l-36 88h-206l-37 -88h-163zM0 477l68 171h155l-104 -171h-119zM266 206h119l-60 143z" />
    <glyph glyph-name="anoteleia" unicode="&#x387;" horiz-adv-x="303" 
d="M152 143q-39 0 -64 25t-25 65q0 39 26 64t63 25q38 0 63 -25t25 -65t-25.5 -64.5t-62.5 -24.5z" />
    <glyph glyph-name="Epsilontonos" unicode="&#x388;" horiz-adv-x="735" 
d="M0 477l68 171h155l-104 -171h-119zM273 0v648h410v-128h-252v-126h174v-127h-174v-138h264v-129h-422z" />
    <glyph glyph-name="Etatonos" unicode="&#x389;" horiz-adv-x="901" 
d="M0 477l68 171h155l-104 -171h-119zM273 0v648h158v-254h242v254h158v-648h-158v265h-242v-265h-158z" />
    <glyph glyph-name="Iotatonos" unicode="&#x38a;" horiz-adv-x="501" 
d="M0 477l68 171h155l-104 -171h-119zM273 0v648h158v-648h-158z" />
    <glyph glyph-name="Omicrontonos" unicode="&#x38c;" horiz-adv-x="888" 
d="M502 -10q-152 0 -244.5 93t-92.5 241q0 150 94 242t249 92q151 0 244 -92t93 -240q0 -147 -95 -241.5t-248 -94.5zM0 477l68 171h155l-104 -171h-119zM507 134q74 0 124.5 50t50.5 139q0 90 -52 141.5t-125 51.5q-76 0 -126.5 -51t-50.5 -139q0 -92 51 -142t128 -50z" />
    <glyph glyph-name="Upsilontonos" unicode="&#x38e;" horiz-adv-x="904" 
d="M0 477l68 171h155l-104 -171h-119zM498 0v257l-232 391h175l141 -254l139 254h169l-234 -391v-257h-158z" />
    <glyph glyph-name="Omegatonos" unicode="&#x38f;" horiz-adv-x="900" 
d="M850 347q0 -148 -111 -218h111v-129h-280v131q49 19 83 66.5t34 123.5q0 93 -49.5 144t-125.5 51t-126 -51.5t-50 -143.5q0 -75 33.5 -123t83.5 -67v-131h-280v129h111q-111 70 -111 215q0 129 92.5 221.5t248.5 92.5q152 0 244 -90t92 -221zM68 648h155l-104 -171h-119z
" />
    <glyph glyph-name="iotadieresistonos" unicode="&#x390;" horiz-adv-x="289" 
d="M70 520l36 172h130l-70 -172h-96zM-22 520q-33 0 -53.5 21t-20.5 53q0 33 20.5 54t53.5 21t53.5 -21t20.5 -54q0 -32 -20.5 -53t-53.5 -21zM304 520q-33 0 -53.5 21t-20.5 53q0 33 20.5 54t53.5 21t53.5 -21t20.5 -54q0 -32 -20.5 -53t-53.5 -21zM74 0v335h-55v117h208
v-452h-153z" />
    <glyph glyph-name="Alpha" unicode="&#x391;" horiz-adv-x="639" 
d="M14 0l301 658h10l300 -658h-169l-36 88h-206l-37 -88h-163zM259 206h119l-60 143z" />
    <glyph glyph-name="Beta" unicode="&#x392;" horiz-adv-x="593" 
d="M446 346q44 -14 77.5 -51.5t33.5 -107.5q0 -187 -259 -187h-228v648h194q255 0 255 -175q0 -48 -21 -80t-52 -47zM359 457q0 39 -25 53t-73 14h-33v-136h33q98 0 98 69zM286 125q32 0 52 3t39 20t19 49q0 24 -10.5 39t-30.5 21t-34 7.5t-35 1.5h-58v-141h58z" />
    <glyph glyph-name="Gamma" unicode="&#x393;" horiz-adv-x="504" 
d="M484 648v-128h-256v-520h-158v648h414z" />
    <glyph glyph-name="uni0394" unicode="&#x394;" horiz-adv-x="637" 
d="M324 658l300 -658h-611l301 658h10zM411 129l-94 225l-96 -225h190z" />
    <glyph glyph-name="Epsilon" unicode="&#x395;" horiz-adv-x="532" 
d="M70 0v648h410v-128h-252v-126h174v-127h-174v-138h264v-129h-422z" />
    <glyph glyph-name="Zeta" unicode="&#x396;" horiz-adv-x="597" 
d="M31 0v10l289 510h-265v128h512v-10l-288 -509h284v-129h-532z" />
    <glyph glyph-name="Eta" unicode="&#x397;" horiz-adv-x="698" 
d="M70 0v648h158v-254h242v254h158v-648h-158v265h-242v-265h-158z" />
    <glyph glyph-name="Theta" unicode="&#x398;" horiz-adv-x="766" 
d="M380 -10q-152 0 -244.5 93t-92.5 241q0 150 94 242t249 92q151 0 244 -92t93 -240q0 -147 -95 -241.5t-248 -94.5zM385 134q74 0 124.5 50t50.5 139q0 90 -52 141.5t-125 51.5q-76 0 -126.5 -51t-50.5 -139q0 -92 51 -142t128 -50zM279 265v129h208v-129h-208z" />
    <glyph glyph-name="Iota" unicode="&#x399;" horiz-adv-x="298" 
d="M70 0v648h158v-648h-158z" />
    <glyph glyph-name="Kappa" unicode="&#x39a;" horiz-adv-x="701" 
d="M70 0v648h158v-307l253 307h202l-274 -316l278 -332h-209l-250 314v-314h-158z" />
    <glyph glyph-name="Lambda" unicode="&#x39b;" horiz-adv-x="629" 
d="M615 0h-169l-133 345l-136 -345h-163l296 658h10z" />
    <glyph glyph-name="Mu" unicode="&#x39c;" horiz-adv-x="863" 
d="M428 -10l-171 275l-47 -265h-159l131 658h10l240 -389l238 389h10l132 -658h-155l-50 265l-169 -275h-10z" />
    <glyph glyph-name="Nu" unicode="&#x39d;" horiz-adv-x="706" 
d="M626 -10l-402 347v-337h-154v658h10l401 -347l1 337h154v-658h-10z" />
    <glyph glyph-name="Xi" unicode="&#x39e;" horiz-adv-x="570" 
d="M55 520v128h460v-128h-460zM105 267v126h360v-126h-360zM50 0v129h470v-129h-470z" />
    <glyph glyph-name="Omicron" unicode="&#x39f;" horiz-adv-x="766" 
d="M380 -10q-152 0 -244.5 93t-92.5 241q0 150 94 242t249 92q151 0 244 -92t93 -240q0 -147 -95 -241.5t-248 -94.5zM385 134q74 0 124.5 50t50.5 139q0 90 -52 141.5t-125 51.5q-76 0 -126.5 -51t-50.5 -139q0 -92 51 -142t128 -50z" />
    <glyph glyph-name="Pi" unicode="&#x3a0;" horiz-adv-x="688" 
d="M70 648h548v-648h-158v520h-232v-520h-158v648z" />
    <glyph glyph-name="Rho" unicode="&#x3a1;" horiz-adv-x="584" 
d="M275 648q34 0 62 -2.5t62.5 -10t60.5 -23t49 -38.5t35 -60t12 -84q0 -227 -293 -227h-35v-203h-158v648h205zM249 325q27 0 48 3t45 12.5t37.5 32t13.5 56.5q0 32 -13 52.5t-36.5 29t-44.5 11.5t-49 3h-22v-200h21z" />
    <glyph glyph-name="Sigma" unicode="&#x3a3;" horiz-adv-x="577" 
d="M284 129h253v-129h-507v10l225 319l-222 309v10h494v-128h-243l141 -193z" />
    <glyph glyph-name="Tau" unicode="&#x3a4;" horiz-adv-x="563" 
d="M203 0v520h-171v128h499v-128h-170v-520h-158z" />
    <glyph glyph-name="Upsilon" unicode="&#x3a5;" horiz-adv-x="652" 
d="M246 0v257l-232 391h175l141 -254l139 254h169l-234 -391v-257h-158z" />
    <glyph glyph-name="Phi" unicode="&#x3a6;" horiz-adv-x="856" 
d="M813 324q0 -133 -85.5 -213t-222.5 -88v-61h-154v61q-145 7 -226.5 87.5t-81.5 213.5q0 135 83.5 214.5t224.5 86.5v61h154v-61q140 -8 224 -89t84 -212zM201 326q0 -77 42.5 -122t108.5 -52v344q-71 -7 -111 -53t-40 -117zM504 152q67 8 109 54.5t42 115.5
q0 75 -44 120.5t-107 53.5v-344z" />
    <glyph glyph-name="Chi" unicode="&#x3a7;" horiz-adv-x="676" 
d="M14 0l226 329l-221 319h193l126 -204l132 204h187l-221 -318l226 -330h-193l-133 218l-137 -218h-185z" />
    <glyph glyph-name="Psi" unicode="&#x3a8;" horiz-adv-x="854" 
d="M636 648h158v-144q0 -145 -74.5 -223.5t-213.5 -83.5v-197h-158v197q-142 6 -215 84.5t-73 222.5v144h158v-132q0 -174 130 -182v314h158v-314q67 5 98.5 47t31.5 131v136z" />
    <glyph glyph-name="uni03A9" unicode="&#x3a9;" horiz-adv-x="777" 
d="M727 347q0 -148 -111 -218h111v-129h-280v131q49 19 83 66.5t34 123.5q0 93 -49.5 144t-125.5 51t-126 -51.5t-50 -143.5q0 -75 33.5 -123t83.5 -67v-131h-280v129h111q-111 70 -111 215q0 129 92.5 221.5t248.5 92.5q152 0 244 -90t92 -221z" />
    <glyph glyph-name="Iotadieresis" unicode="&#x3aa;" horiz-adv-x="298" 
d="M35 708q-39 0 -63 24t-24 61t24 61t63 24q38 0 62 -24t24 -61t-24 -61t-62 -24zM264 708q-38 0 -62.5 24t-24.5 61t24.5 61t62.5 24q39 0 63 -24t24 -61t-24 -61t-63 -24zM70 0v648h158v-648h-158z" />
    <glyph glyph-name="Upsilondieresis" unicode="&#x3ab;" horiz-adv-x="652" 
d="M211 708q-39 0 -63 24t-24 61t24 61t63 24q38 0 62 -24t24 -61t-24 -61t-62 -24zM440 708q-38 0 -62.5 24t-24.5 61t24.5 61t62.5 24q39 0 63 -24t24 -61t-24 -61t-63 -24zM246 0v257l-232 391h175l141 -254l139 254h169l-234 -391v-257h-158z" />
    <glyph glyph-name="alphatonos" unicode="&#x3ac;" horiz-adv-x="595" 
d="M469 691l-110 -171h-142l74 171h178zM394 452h139v-452h-140l-4 47q-48 -56 -139 -56q-89 0 -153.5 61t-64.5 171q0 108 62 173t160 65q87 0 137 -53zM285 118q41 0 69.5 28t28.5 80q0 53 -27.5 81t-69.5 28q-41 0 -68.5 -29.5t-27.5 -80.5t27 -79t68 -28z" />
    <glyph glyph-name="epsilontonos" unicode="&#x3ad;" horiz-adv-x="456" 
d="M410 691l-110 -171h-142l74 171h178zM271 101q76 0 142 37v-120q-65 -27 -188 -27q-87 0 -136 33.5t-49 94.5q0 87 97 112q-37 9 -62 38t-25 66q0 63 55 94.5t143 31.5q97 0 155 -27v-119q-67 37 -127 37q-68 0 -68 -38q0 -41 83 -41h42v-100h-42q-93 0 -93 -37
q0 -35 73 -35z" />
    <glyph glyph-name="etatonos" unicode="&#x3ae;" horiz-adv-x="551" 
d="M447 691l-110 -171h-142l74 171h178zM329 461q80 0 123 -45.5t43 -134.5v-479h-153v445q0 45 -13 67.5t-48 22.5q-23 0 -37 -9t-20 -28.5t-7.5 -38t-1.5 -51.5v-210h-153v452h139l3 -49q42 58 125 58z" />
    <glyph glyph-name="iotatonos" unicode="&#x3af;" horiz-adv-x="289" 
d="M60 520l74 171h178l-110 -171h-142zM74 0v335h-55v117h208v-452h-153z" />
    <glyph glyph-name="upsilondieresistonos" unicode="&#x3b0;" horiz-adv-x="525" 
d="M192 520l36 172h130l-70 -172h-96zM100 520q-33 0 -53.5 21t-20.5 53q0 33 20.5 54t53.5 21t53.5 -21t20.5 -54q0 -32 -20.5 -53t-53.5 -21zM426 520q-33 0 -53.5 21t-20.5 53q0 33 20.5 54t53.5 21t53.5 -21t20.5 -54q0 -32 -20.5 -53t-53.5 -21zM262 -9q-112 0 -159 57
t-47 146v258h153v-261q0 -77 55 -77t55 77v261h150v-258q0 -40 -9.5 -74t-31.5 -64t-64 -47.5t-102 -17.5z" />
    <glyph glyph-name="alpha" unicode="&#x3b1;" horiz-adv-x="595" 
d="M394 452h139v-452h-140l-4 47q-48 -56 -139 -56q-89 0 -153.5 61t-64.5 171q0 108 62 173t160 65q87 0 137 -53zM285 118q41 0 69.5 28t28.5 80q0 53 -27.5 81t-69.5 28q-41 0 -68.5 -29.5t-27.5 -80.5t27 -79t68 -28z" />
    <glyph glyph-name="beta" unicode="&#x3b2;" horiz-adv-x="575" 
d="M427 349q55 -15 86.5 -57t31.5 -98q0 -93 -60.5 -148t-152.5 -55q-77 0 -116 35l-1 -224h-153v640q0 112 60 175t176 63q98 0 157.5 -46.5t59.5 -136.5q0 -54 -24 -93t-64 -55zM309 108q40 0 61.5 21t21.5 59q0 48 -27.5 68t-81.5 20h-19v117h19q43 0 61 22t18 65
t-20.5 63t-53.5 20q-73 0 -73 -89v-238q0 -128 94 -128z" />
    <glyph glyph-name="gamma" unicode="&#x3b3;" horiz-adv-x="528" 
d="M528 452l-187 -378v-274h-153v272l-188 380h168l99 -237l98 237h163z" />
    <glyph glyph-name="delta" unicode="&#x3b4;" horiz-adv-x="572" 
d="M386 430q71 -34 111 -84t40 -128q0 -103 -70.5 -165t-183.5 -62q-112 0 -180 63t-68 164q0 68 34.5 118.5t97.5 73.5q-66 46 -66 118q0 71 59 111.5t165 40.5q85 0 157 -32v-129q-72 37 -142 37q-81 0 -81 -40q0 -17 15.5 -29t62.5 -34zM286 118q43 0 68 28.5t25 71.5
q0 44 -25.5 72.5t-67.5 28.5q-44 0 -68.5 -30.5t-24.5 -70.5q0 -43 25.5 -71.5t67.5 -28.5z" />
    <glyph glyph-name="epsilon" unicode="&#x3b5;" horiz-adv-x="456" 
d="M271 101q76 0 142 37v-120q-65 -27 -188 -27q-87 0 -136 33.5t-49 94.5q0 87 97 112q-37 9 -62 38t-25 66q0 63 55 94.5t143 31.5q97 0 155 -27v-119q-67 37 -127 37q-68 0 -68 -38q0 -41 83 -41h42v-100h-42q-93 0 -93 -37q0 -35 73 -35z" />
    <glyph glyph-name="zeta" unicode="&#x3b6;" horiz-adv-x="435" 
d="M430 653l-66 -88q-176 -234 -176 -347q0 -50 25 -72t90 -39t93.5 -46.5t28.5 -79.5q0 -58 -53 -117h-131q34 43 34 71q0 24 -17.5 38t-69.5 27q-82 21 -120 61t-38 121q0 79 43.5 166.5t130.5 195.5l2 2h-171v117h395v-10z" />
    <glyph glyph-name="eta" unicode="&#x3b7;" horiz-adv-x="551" 
d="M329 461q80 0 123 -45.5t43 -134.5v-479h-153v445q0 45 -13 67.5t-48 22.5q-23 0 -37 -9t-20 -28.5t-7.5 -38t-1.5 -51.5v-210h-153v452h139l3 -49q42 58 125 58z" />
    <glyph glyph-name="theta" unicode="&#x3b8;" horiz-adv-x="607" 
d="M303 680q137 0 200.5 -94.5t63.5 -249.5q0 -149 -70 -247t-194 -98q-137 0 -200 94t-63 251q0 148 69 246t194 98zM303 556q-95 0 -106 -162h213q-9 162 -107 162zM303 116q98 0 107 161h-213q9 -161 106 -161z" />
    <glyph glyph-name="iota" unicode="&#x3b9;" horiz-adv-x="289" 
d="M74 0v335h-55v117h208v-452h-153z" />
    <glyph glyph-name="kappa" unicode="&#x3ba;" horiz-adv-x="567" 
d="M563 0h-191l-152 219v-219h-153v452h153v-210l144 210h190l-168 -218z" />
    <glyph glyph-name="lambda" unicode="&#x3bb;" horiz-adv-x="551" 
d="M516 111q14 0 25 3v-110q-26 -10 -67 -10q-59 0 -89 25t-54 89l-61 159l-102 -267h-158l192 447l-19 49q-12 31 -24 43.5t-32 12.5q-13 0 -30 -5v110q30 12 77 12q61 0 92 -25t55 -89l148 -388q12 -31 22 -43.5t25 -12.5z" />
    <glyph glyph-name="uni03BC" unicode="&#x3bc;" horiz-adv-x="554" 
d="M339 452h153v-452h-139l-3 53q-13 -25 -37.5 -39t-51.5 -14q-32 0 -49 16v-214h-150v650h153v-242q0 -45 13 -67.5t48 -22.5q22 0 35 9t19 28.5t7.5 38t1.5 51.5v205z" />
    <glyph glyph-name="nu" unicode="&#x3bd;" horiz-adv-x="518" 
d="M255 -9l-255 461h168l92 -202l95 202h163l-253 -461h-10z" />
    <glyph glyph-name="xi" unicode="&#x3be;" horiz-adv-x="455" 
d="M314 556q-48 0 -70 -21t-22 -53q0 -43 24 -61.5t72 -18.5h44v-116h-57q-107 0 -107 -82q0 -39 26 -60t85 -35q71 -18 101 -47.5t30 -80.5q0 -58 -53 -117h-131q34 43 34 73q0 24 -18 38t-69 25q-85 19 -124 61.5t-39 121.5q0 62 32 107.5t86 58.5q-43 13 -68.5 54
t-25.5 91q0 93 66 139.5t169 46.5q89 0 141 -28v-129q-54 33 -126 33z" />
    <glyph glyph-name="omicron" unicode="&#x3bf;" horiz-adv-x="575" 
d="M285 -9q-115 0 -184 64t-69 168q0 105 71 171.5t189 66.5q113 0 182 -62t69 -168q0 -109 -71.5 -174.5t-186.5 -65.5zM288 118q45 0 71 31t26 79q0 47 -26.5 77t-70.5 30q-46 0 -72 -32.5t-26 -76.5q0 -46 26.5 -77t71.5 -31z" />
    <glyph glyph-name="pi" unicode="&#x3c0;" horiz-adv-x="621" 
d="M586 452v-117h-64v-335h-153v335h-117v-335h-153v335h-64v117h551z" />
    <glyph glyph-name="rho" unicode="&#x3c1;" horiz-adv-x="578" 
d="M47 -198v374q0 137 66.5 211t187.5 74q117 0 181 -65.5t64 -169.5q0 -105 -63.5 -170t-155.5 -65q-81 0 -128 45l1 -234h-153zM292 118q44 0 70 31t26 79t-26.5 77.5t-70.5 29.5q-45 0 -71.5 -31.5t-26.5 -77.5q0 -51 27 -79.5t72 -28.5z" />
    <glyph glyph-name="uni03C2" unicode="&#x3c2;" horiz-adv-x="445" 
d="M227 -136q34 43 34 71q0 23 -15 36t-56 26q-83 26 -123 77t-40 144q0 109 70 176t183 67q72 0 121 -26v-129q-46 31 -99 31q-51 0 -84 -27.5t-33 -80.5q0 -54 25.5 -80t82.5 -44q63 -20 90.5 -47.5t27.5 -74.5q0 -60 -53 -119h-131z" />
    <glyph glyph-name="sigma" unicode="&#x3c3;" horiz-adv-x="588" 
d="M559 452v-117h-91q61 -47 61 -136q0 -92 -69 -150t-180 -58q-112 0 -180 64t-68 168q0 102 71 165.5t193 63.5h263zM283 118q43 0 67.5 29.5t24.5 75.5q0 44 -25 73t-67 29q-44 0 -68.5 -31t-24.5 -73q0 -44 25.5 -73.5t67.5 -29.5z" />
    <glyph glyph-name="tau" unicode="&#x3c4;" horiz-adv-x="447" 
d="M417 335h-117v-177q0 -25 9.5 -36t32.5 -11q14 0 25 3v-110q-26 -10 -72 -10q-82 0 -115 39.5t-33 115.5v186h-117v117h387v-117z" />
    <glyph glyph-name="upsilon" unicode="&#x3c5;" horiz-adv-x="525" 
d="M262 -9q-112 0 -159 57t-47 146v258h153v-261q0 -77 55 -77t55 77v261h150v-258q0 -40 -9.5 -74t-31.5 -64t-64 -47.5t-102 -17.5z" />
    <glyph glyph-name="phi" unicode="&#x3c6;" horiz-adv-x="728" 
d="M696 231q0 -103 -72 -168.5t-185 -71.5v-189h-149v189q-115 4 -186.5 67.5t-71.5 164.5t71.5 166.5t186.5 70.5v203h149v-202q113 -4 185 -65.5t72 -164.5zM184 226q0 -47 30 -78t77 -36v229q-48 -4 -77.5 -37.5t-29.5 -77.5zM438 112q46 4 76 36t30 80q0 47 -30 78
t-76 35v-229z" />
    <glyph glyph-name="chi" unicode="&#x3c7;" horiz-adv-x="581" 
d="M482 -33q32 -56 61 -56q13 0 23 3v-110q-26 -10 -67 -10q-58 0 -88.5 25.5t-66.5 88.5l-57 100l-100 -206h-177l198 344l-80 139q-34 58 -71 58q-15 0 -27 -5v110q30 12 76 12q55 0 89 -25t67 -83l46 -80l93 180h175l-195 -308z" />
    <glyph glyph-name="psi" unicode="&#x3c8;" horiz-adv-x="754" 
d="M545 452h153v-207q0 -125 -56.5 -189t-189.5 -65v-191h-150v191q-133 1 -189.5 65t-56.5 189v207h153v-210q0 -124 93 -128v338h150v-338q93 4 93 128v210z" />
    <glyph glyph-name="omega" unicode="&#x3c9;" horiz-adv-x="762" 
d="M640 452q82 -104 82 -243q0 -100 -50.5 -159t-136.5 -59q-119 0 -154 95q-35 -95 -154 -95q-86 0 -136.5 59t-50.5 159q0 150 82 243h158q-82 -84 -82 -226q0 -50 15.5 -80t45.5 -30q62 0 62 150v50h120v-50q0 -150 63 -150q30 0 45 30t15 80q0 135 -82 226h158z" />
    <glyph glyph-name="iotadieresis" unicode="&#x3ca;" horiz-adv-x="310" 
d="M58 520q-36 0 -58.5 23t-22.5 59q0 35 23.5 58t57.5 23t57 -23t23 -59q0 -37 -22 -59t-58 -22zM256 520q-36 0 -58.5 23t-22.5 59q0 35 23.5 58t57.5 23t57 -23t23 -59q0 -37 -22 -59t-58 -22zM90 0v335h-55v117h208v-452h-153z" />
    <glyph glyph-name="upsilondieresis" unicode="&#x3cb;" horiz-adv-x="525" 
d="M149 520q-36 0 -58.5 23t-22.5 59q0 35 23.5 58t57.5 23t57 -23t23 -59q0 -37 -22.5 -59t-57.5 -22zM378 520q-36 0 -58.5 23t-22.5 59q0 35 23.5 58t57.5 23t57 -23t23 -59q0 -37 -22 -59t-58 -22zM262 -9q-112 0 -159 57t-47 146v258h153v-261q0 -77 55 -77t55 77v261
h150v-258q0 -40 -9.5 -74t-31.5 -64t-64 -47.5t-102 -17.5z" />
    <glyph glyph-name="omicrontonos" unicode="&#x3cc;" horiz-adv-x="575" 
d="M207 520l74 171h178l-110 -171h-142zM285 -9q-115 0 -184 64t-69 168q0 105 71 171.5t189 66.5q113 0 182 -62t69 -168q0 -109 -71.5 -174.5t-186.5 -65.5zM288 118q45 0 71 31t26 79q0 47 -26.5 77t-70.5 30q-46 0 -72 -32.5t-26 -76.5q0 -46 26.5 -77t71.5 -31z" />
    <glyph glyph-name="upsilontonos" unicode="&#x3cd;" horiz-adv-x="525" 
d="M182 520l74 171h178l-110 -171h-142zM262 -9q-112 0 -159 57t-47 146v258h153v-261q0 -77 55 -77t55 77v261h150v-258q0 -40 -9.5 -74t-31.5 -64t-64 -47.5t-102 -17.5z" />
    <glyph glyph-name="omegatonos" unicode="&#x3ce;" horiz-adv-x="762" 
d="M552 691l-110 -171h-142l74 171h178zM640 452q82 -104 82 -243q0 -100 -50.5 -159t-136.5 -59q-119 0 -154 95q-35 -95 -154 -95q-86 0 -136.5 59t-50.5 159q0 150 82 243h158q-82 -84 -82 -226q0 -50 15.5 -80t45.5 -30q62 0 62 150v50h120v-50q0 -150 63 -150
q30 0 45 30t15 80q0 135 -82 226h158z" />
    <glyph glyph-name="beta.ss02" unicode="&#x3d0;" horiz-adv-x="562" 
d="M397 354q62 -11 94.5 -54t32.5 -105q0 -102 -65.5 -153t-174.5 -51q-122 0 -178 58.5t-56 182.5v181q0 138 59.5 202.5t185.5 64.5q87 0 144.5 -47.5t57.5 -128.5q0 -59 -27.5 -98t-72.5 -52zM270 563q-67 0 -67 -95v-74h34q52 0 77 21t25 71q0 40 -19 58.5t-50 18.5z
M290 108q76 0 76 79q0 90 -106 90h-57v-57q0 -112 87 -112z" />
    <glyph glyph-name="theta.ss02" unicode="&#x3d1;" horiz-adv-x="594" 
d="M323 680q66 0 114.5 -26.5t76.5 -74.5t41.5 -108.5t13.5 -134.5q0 -345 -262 -345q-102 0 -163.5 56.5t-61.5 153.5v2q0 21 -6 29t-26 8q-13 0 -25 -5v110q31 12 82 12q70 0 99 -31t29 -94v-6q0 -57 20.5 -83.5t64.5 -26.5q31 0 50.5 16t29 48.5t12.5 65t3 80.5v24
q-43 -16 -99 -16q-89 0 -141 48t-52 120q0 78 51 128t149 50zM274 510q0 -26 22 -44t57 -17q34 0 57 9q-14 100 -83 100q-24 0 -38.5 -13t-14.5 -35z" />
    <glyph glyph-name="phi.ss02" unicode="&#x3d5;" horiz-adv-x="753" 
d="M721 231q0 -106 -71.5 -171.5t-187.5 -68.5v-191h-150v191h-6q-121 0 -193.5 68.5t-72.5 182.5q0 127 63 210h158q-66 -79 -66 -197q0 -64 30.5 -102.5t81.5 -38.5h5v343h108q301 0 301 -226zM462 114q50 2 77.5 31t27.5 83q0 51 -28 78.5t-77 28.5v-221z" />
    <glyph glyph-name="uni0401" unicode="&#x401;" horiz-adv-x="532" 
d="M162 708q-39 0 -63 24t-24 61t24 61t63 24q38 0 62 -24t24 -61t-24 -61t-62 -24zM391 708q-38 0 -62.5 24t-24.5 61t24.5 61t62.5 24q39 0 63 -24t24 -61t-24 -61t-63 -24zM70 0v648h410v-128h-252v-126h174v-127h-174v-138h264v-129h-422z" />
    <glyph glyph-name="uni0402" unicode="&#x402;" horiz-adv-x="811" 
d="M536 433q108 0 168.5 -59.5t60.5 -164.5q0 -108 -60 -164t-162 -56q-34 0 -60 7v128q16 -6 43 -6q39 0 60 23t21 62q0 42 -27 69.5t-79 27.5q-81 0 -110.5 -39t-29.5 -124v-137h-158v520h-171v128h539v-128h-210v-135q58 48 175 48z" />
    <glyph glyph-name="uni0403" unicode="&#x403;" horiz-adv-x="504" 
d="M541 876l-176 -171h-149l123 171h202zM70 0v648h414v-128h-256v-520h-158z" />
    <glyph glyph-name="uni0404" unicode="&#x404;" horiz-adv-x="645" 
d="M400 127q106 0 190 54v-149q-69 -42 -198 -42q-162 0 -255.5 94.5t-93.5 238.5q0 147 96 241t250 94q116 0 191 -43v-146q-83 53 -183 53q-69 0 -120.5 -36t-68.5 -96h254v-123h-256q15 -66 67.5 -103t126.5 -37z" />
    <glyph glyph-name="uni0405" unicode="&#x405;" horiz-adv-x="502" 
d="M234 -10q-96 0 -179 39v150q83 -57 174 -57q36 0 55.5 14.5t19.5 38.5t-18 42.5t-45.5 29.5t-59 29t-59 39t-45.5 60t-18 91q0 89 57 140.5t161 51.5q96 0 155 -31v-148q-75 48 -144 48q-34 0 -51.5 -14.5t-17.5 -39.5q0 -27 25.5 -46.5t61.5 -35.5t72 -37t61.5 -63
t25.5 -103q0 -94 -59.5 -146t-171.5 -52z" />
    <glyph glyph-name="uni0406" unicode="&#x406;" horiz-adv-x="298" 
d="M70 0v648h158v-648h-158z" />
    <glyph glyph-name="uni0407" unicode="&#x407;" horiz-adv-x="298" 
d="M35 708q-39 0 -63 24t-24 61t24 61t63 24q38 0 62 -24t24 -61t-24 -61t-62 -24zM264 708q-38 0 -62.5 24t-24.5 61t24.5 61t62.5 24q39 0 63 -24t24 -61t-24 -61t-63 -24zM70 0v648h158v-648h-158z" />
    <glyph glyph-name="uni0408" unicode="&#x408;" horiz-adv-x="474" 
d="M178 -10q-84 0 -132 26v137q40 -29 102 -29q30 0 50 9t30.5 20t15.5 33.5t5.5 36t0.5 41.5v257h-142v127h300v-419q0 -118 -58.5 -178.5t-171.5 -60.5z" />
    <glyph glyph-name="uni0409" unicode="&#x409;" horiz-adv-x="992" 
d="M683 445q34 0 62 -2.5t62.5 -10t60.5 -23t49 -38.5t35 -60t12 -84q0 -227 -293 -227h-193v520h-177v-63q0 -93 -4.5 -158.5t-17.5 -127.5t-36 -99t-61.5 -59t-92.5 -22q-45 0 -69 11v138q13 -5 34 -5q57 0 77 81.5t20 262.5v169h485v-203h47zM657 122q27 0 48 3t45 12.5
t37.5 32t13.5 56.5q0 32 -13 52.5t-36.5 29t-44.5 11.5t-49 3h-22v-200h21z" />
    <glyph glyph-name="uni040A" unicode="&#x40a;" horiz-adv-x="984" 
d="M675 445q34 0 62 -2.5t62.5 -10t60.5 -23t49 -38.5t35 -60t12 -84q0 -227 -293 -227h-193v265h-242v-265h-158v648h158v-254h242v254h158v-203h47zM649 122q27 0 48 3t45 12.5t37.5 32t13.5 56.5q0 32 -13 52.5t-36.5 29t-44.5 11.5t-49 3h-22v-200h21z" />
    <glyph glyph-name="uni040B" unicode="&#x40b;" horiz-adv-x="808" 
d="M522 433q115 0 172.5 -59t57.5 -184v-191h-158v157q0 73 -24.5 106.5t-90.5 33.5q-63 0 -90.5 -33.5t-27.5 -116.5v-146h-158v520h-171v128h539v-128h-210v-135q56 48 161 48z" />
    <glyph glyph-name="uni040C" unicode="&#x40c;" horiz-adv-x="701" 
d="M260 705l123 171h202l-176 -171h-149zM70 0v648h158v-307l253 307h202l-274 -316l278 -332h-209l-250 314v-314h-158z" />
    <glyph glyph-name="uni040D" unicode="&#x40d;" horiz-adv-x="692" 
d="M482 705h-151l-176 171h204zM612 658h10v-658h-156v346l-386 -356h-10v658h156v-347z" />
    <glyph glyph-name="uni040E" unicode="&#x40e;" horiz-adv-x="659" 
d="M343 686q-95 0 -138.5 44t-43.5 118v18h118q0 -84 64 -84t64 84h118v-18q0 -73 -44 -117.5t-138 -44.5zM499 648h150l-313 -648h-150l94 195l-265 453h165l173 -302z" />
    <glyph glyph-name="uni040F" unicode="&#x40f;" horiz-adv-x="684" 
d="M614 648v-648h-198v-136h-148v136h-198v648h158v-519h228v519h158z" />
    <glyph glyph-name="uni0410" unicode="&#x410;" horiz-adv-x="639" 
d="M14 0l301 658h10l300 -658h-169l-36 88h-206l-37 -88h-163zM259 206h119l-60 143z" />
    <glyph glyph-name="uni0411" unicode="&#x411;" horiz-adv-x="591" 
d="M285 409q44 0 80 -4.5t72.5 -17.5t61.5 -34.5t41 -58t16 -85.5q0 -209 -283 -209h-203v648h444v-128h-286v-111h57zM264 124q129 0 129 84q0 78 -128 78h-37v-162h36z" />
    <glyph glyph-name="uni0412" unicode="&#x412;" horiz-adv-x="593" 
d="M446 346q44 -14 77.5 -51.5t33.5 -107.5q0 -187 -259 -187h-228v648h194q255 0 255 -175q0 -48 -21 -80t-52 -47zM359 457q0 39 -25 53t-73 14h-33v-136h33q98 0 98 69zM286 125q32 0 52 3t39 20t19 49q0 24 -10.5 39t-30.5 21t-34 7.5t-35 1.5h-58v-141h58z" />
    <glyph glyph-name="uni0413" unicode="&#x413;" horiz-adv-x="504" 
d="M484 648v-128h-256v-520h-158v648h414z" />
    <glyph glyph-name="uni0414" unicode="&#x414;" horiz-adv-x="761" 
d="M641 129h85v-265h-148v137h-415v-137h-148v264h16q57 0 87 55q47 91 47 301v164h476v-519zM313 520v-16q0 -124 -12 -211.5t-53 -163.5h237v391h-172z" />
    <glyph glyph-name="uni0415" unicode="&#x415;" horiz-adv-x="532" 
d="M70 0v648h410v-128h-252v-126h174v-127h-174v-138h264v-129h-422z" />
    <glyph glyph-name="uni0416" unicode="&#x416;" horiz-adv-x="1068" 
d="M1054 0h-203l-239 316v-316h-156v316l-239 -316h-203l269 334l-263 314h188l248 -309v309h156v-309l248 309h188l-263 -314z" />
    <glyph glyph-name="uni0417" unicode="&#x417;" horiz-adv-x="532" 
d="M388 351q48 -15 78 -55.5t30 -103.5q0 -99 -64.5 -150.5t-187.5 -51.5t-189 39v146q87 -55 182 -55q98 0 98 68q0 78 -98 78h-75v123h30q131 0 131 70q0 35 -22.5 50.5t-71.5 15.5q-91 0 -174 -54v146q34 18 91 29.5t111 11.5q106 0 166 -44.5t60 -125.5
q0 -51 -26.5 -88.5t-68.5 -48.5z" />
    <glyph glyph-name="uni0418" unicode="&#x418;" horiz-adv-x="692" 
d="M612 658h10v-658h-156v346l-386 -356h-10v658h156v-347z" />
    <glyph glyph-name="uni0419" unicode="&#x419;" horiz-adv-x="692" 
d="M376 686q-95 0 -138.5 44t-43.5 118v18h118q0 -84 64 -84t64 84h118v-18q0 -73 -44 -117.5t-138 -44.5zM612 658h10v-658h-156v346l-386 -356h-10v658h156v-347z" />
    <glyph glyph-name="uni041A" unicode="&#x41a;" horiz-adv-x="701" 
d="M70 0v648h158v-307l253 307h202l-274 -316l278 -332h-209l-250 314v-314h-158z" />
    <glyph glyph-name="uni041B" unicode="&#x41b;" horiz-adv-x="706" 
d="M151 648h485v-648h-158v520h-177v-63q0 -93 -4.5 -158.5t-17.5 -127.5t-36 -99t-61.5 -59t-92.5 -22q-45 0 -69 11v138q13 -5 34 -5q57 0 77 81.5t20 262.5v169z" />
    <glyph glyph-name="uni041C" unicode="&#x41c;" horiz-adv-x="863" 
d="M428 -10l-171 275l-47 -265h-159l131 658h10l240 -389l238 389h10l132 -658h-155l-50 265l-169 -275h-10z" />
    <glyph glyph-name="uni041D" unicode="&#x41d;" horiz-adv-x="698" 
d="M70 0v648h158v-254h242v254h158v-648h-158v265h-242v-265h-158z" />
    <glyph glyph-name="uni041E" unicode="&#x41e;" horiz-adv-x="766" 
d="M380 -10q-152 0 -244.5 93t-92.5 241q0 150 94 242t249 92q151 0 244 -92t93 -240q0 -147 -95 -241.5t-248 -94.5zM385 134q74 0 124.5 50t50.5 139q0 90 -52 141.5t-125 51.5q-76 0 -126.5 -51t-50.5 -139q0 -92 51 -142t128 -50z" />
    <glyph glyph-name="uni041F" unicode="&#x41f;" horiz-adv-x="688" 
d="M70 648h548v-648h-158v520h-232v-520h-158v648z" />
    <glyph glyph-name="uni0420" unicode="&#x420;" horiz-adv-x="584" 
d="M275 648q34 0 62 -2.5t62.5 -10t60.5 -23t49 -38.5t35 -60t12 -84q0 -227 -293 -227h-35v-203h-158v648h205zM249 325q27 0 48 3t45 12.5t37.5 32t13.5 56.5q0 32 -13 52.5t-36.5 29t-44.5 11.5t-49 3h-22v-200h21z" />
    <glyph glyph-name="uni0421" unicode="&#x421;" horiz-adv-x="635" 
d="M392 -10q-162 0 -255.5 94.5t-93.5 238.5q0 147 96 241t250 94q109 0 181 -43v-152q-79 53 -173 53q-83 0 -137 -53.5t-54 -137.5q0 -90 54 -141t140 -51q102 0 180 54v-155q-66 -42 -188 -42z" />
    <glyph glyph-name="uni0422" unicode="&#x422;" horiz-adv-x="563" 
d="M203 0v520h-171v128h499v-128h-170v-520h-158z" />
    <glyph glyph-name="uni0423" unicode="&#x423;" horiz-adv-x="659" 
d="M499 648h150l-313 -648h-150l94 195l-265 453h165l173 -302z" />
    <glyph glyph-name="uni0424" unicode="&#x424;" horiz-adv-x="866" 
d="M823 324q0 -126 -87 -200t-226 -81v-71h-154v71q-148 7 -230.5 81t-82.5 200q0 127 85 201t228 80v71h154v-71q143 -8 228 -82.5t85 -198.5zM201 326q0 -69 44 -108.5t112 -45.5v304q-74 -6 -115 -46t-41 -104zM509 172q69 7 112.5 47.5t43.5 102.5q0 68 -46 107.5
t-110 46.5v-304z" />
    <glyph glyph-name="uni0425" unicode="&#x425;" horiz-adv-x="676" 
d="M14 0l226 329l-221 319h193l126 -204l132 204h187l-221 -318l226 -330h-193l-133 218l-137 -218h-185z" />
    <glyph glyph-name="uni0426" unicode="&#x426;" horiz-adv-x="734" 
d="M614 129h85v-265h-148v136h-481v648h158v-519h228v519h158v-519z" />
    <glyph glyph-name="uni0427" unicode="&#x427;" horiz-adv-x="672" 
d="M444 648h158v-648h-158v260q-54 -47 -155 -47q-235 0 -235 228v207h158v-173q0 -66 25.5 -95.5t93.5 -29.5q60 0 86.5 30.5t26.5 94.5v173z" />
    <glyph glyph-name="uni0428" unicode="&#x428;" horiz-adv-x="998" 
d="M770 648h158v-648h-858v648h158v-519h192v519h158v-519h192v519z" />
    <glyph glyph-name="uni0429" unicode="&#x429;" horiz-adv-x="1048" 
d="M928 129h85v-265h-148v136h-795v648h158v-519h192v519h158v-519h192v519h158v-519z" />
    <glyph glyph-name="uni042A" unicode="&#x42a;" horiz-adv-x="717" 
d="M408 445q34 0 62 -2.5t62.5 -10t60.5 -23t49 -38.5t35 -60t12 -84q0 -227 -293 -227h-193v520h-171v128h329v-203h47zM382 122q27 0 48 3t45 12.5t37.5 32t13.5 56.5q0 32 -13 52.5t-36.5 29t-44.5 11.5t-49 3h-22v-200h21z" />
    <glyph glyph-name="uni042B" unicode="&#x42b;" horiz-adv-x="882" 
d="M275 445q34 0 62 -2.5t62.5 -10t60.5 -23t49 -38.5t35 -60t12 -84q0 -227 -293 -227h-193v648h158v-203h47zM654 648h158v-648h-158v648zM249 122q27 0 48 3t45 12.5t37.5 32t13.5 56.5q0 32 -13 52.5t-36.5 29t-44.5 11.5t-49 3h-22v-200h21z" />
    <glyph glyph-name="uni042C" unicode="&#x42c;" horiz-adv-x="584" 
d="M275 445q34 0 62 -2.5t62.5 -10t60.5 -23t49 -38.5t35 -60t12 -84q0 -227 -293 -227h-193v648h158v-203h47zM249 122q27 0 48 3t45 12.5t37.5 32t13.5 56.5q0 32 -13 52.5t-36.5 29t-44.5 11.5t-49 3h-22v-200h21z" />
    <glyph glyph-name="uni042D" unicode="&#x42d;" horiz-adv-x="645" 
d="M253 658q162 0 255.5 -94.5t93.5 -238.5q0 -147 -96 -241t-250 -94q-122 0 -201 43v146q89 -52 193 -52q73 0 125.5 38.5t66.5 101.5h-257v123h254q-17 63 -68.5 97.5t-123.5 34.5q-100 0 -180 -55v149q66 42 188 42z" />
    <glyph glyph-name="uni042E" unicode="&#x42e;" horiz-adv-x="1059" 
d="M681 658q150 0 242.5 -92t92.5 -240t-94 -242t-247 -94q-135 0 -224 75.5t-107 199.5h-116v-265h-158v648h158v-254h118q21 121 110.5 192.5t224.5 71.5zM680 134q74 0 123.5 50t49.5 139q0 90 -51 141.5t-124 51.5q-75 0 -125 -51t-50 -139q0 -92 50.5 -142t126.5 -50z
" />
    <glyph glyph-name="uni042F" unicode="&#x42f;" horiz-adv-x="609" 
d="M334 648h205v-648h-158v214h-38l-133 -214h-186l160 236q-125 43 -125 186q0 65 23.5 111.5t64.5 70.5t86.5 34t100.5 10zM358 338h23v187h-23q-30 0 -50.5 -3t-42 -12t-32.5 -28.5t-11 -49.5q0 -94 136 -94z" />
    <glyph glyph-name="uni0430" unicode="&#x430;" horiz-adv-x="530" 
d="M253 461q221 0 221 -193v-268h-140l-4 44q-42 -53 -130 -53q-77 0 -122.5 37.5t-45.5 103.5q0 68 51.5 110.5t141.5 42.5q52 0 98 -17v3q0 35 -20.5 60t-70.5 25q-69 0 -147 -47v115q74 37 168 37zM246 86q35 0 56 21t21 65v9q-30 15 -71 15q-31 0 -49.5 -14.5
t-18.5 -40.5q0 -25 16.5 -40t45.5 -15z" />
    <glyph glyph-name="uni0431" unicode="&#x431;" horiz-adv-x="596" 
d="M341 440q100 0 159 -60t59 -165q0 -102 -68 -163t-178 -61q-141 0 -204.5 74.5t-63.5 228.5v15q0 195 97 279q43 37 89 52t138 22q121 9 144 17v-138q-21 -8 -115 -15q-82 -6 -116 -15.5t-56 -30.5q-33 -33 -36 -105q54 65 151 65zM302 115q45 0 72 28t27 73t-27 73
t-72 28t-72 -28t-27 -73t27 -73t72 -28z" />
    <glyph glyph-name="uni0432" unicode="&#x432;" horiz-adv-x="509" 
d="M388 245q91 -25 91 -111q0 -69 -61.5 -101.5t-153.5 -32.5h-197v452h177q209 0 209 -119q0 -66 -65 -88zM298 315q0 46 -58 46h-20v-92h20q58 0 58 46zM251 92q72 0 72 42q0 44 -72 44h-31v-86h31z" />
    <glyph glyph-name="uni0433" unicode="&#x433;" horiz-adv-x="403" 
d="M383 452v-121h-163v-331h-153v452h316z" />
    <glyph glyph-name="uni0434" unicode="&#x434;" horiz-adv-x="616" 
d="M521 121h75v-237h-143v117h-280v-117h-143v237h10q42 0 65 41q26 46 26 156v134h390v-331zM266 332v-6q0 -126 -40 -205h145v211h-105z" />
    <glyph glyph-name="uni0435" unicode="&#x435;" horiz-adv-x="522" 
d="M288 -9q-119 0 -187.5 58.5t-68.5 172.5q0 106 60.5 172.5t173.5 66.5q116 0 170 -67.5t54 -168.5q0 -19 -4 -44h-297q14 -71 124 -71q83 0 149 36v-119q-72 -36 -174 -36zM189 272h148q-3 29 -21 49.5t-51 20.5q-30 0 -51 -19t-25 -51z" />
    <glyph glyph-name="uni0436" unicode="&#x436;" horiz-adv-x="822" 
d="M818 0h-185l-147 222v-222h-150v222l-147 -222h-185l169 235l-160 217h174l149 -212v212h150v-212l149 212h174l-160 -217z" />
    <glyph glyph-name="uni0437" unicode="&#x437;" horiz-adv-x="441" 
d="M317 245q94 -25 94 -113q0 -68 -59.5 -104.5t-170.5 -36.5q-34 0 -73 9t-60 22v120q62 -41 127 -41q83 0 83 35q0 37 -93 37h-37v100h27q87 0 87 41q0 38 -62 38q-57 0 -122 -41v119q66 31 158 31q77 0 128 -29t51 -87q0 -35 -22 -63t-56 -37z" />
    <glyph glyph-name="uni0438" unicode="&#x438;" horiz-adv-x="547" 
d="M470 460h10v-460h-148v200l-255 -209h-10v461h148v-202z" />
    <glyph glyph-name="uni0439" unicode="&#x439;" horiz-adv-x="547" 
d="M285 500q-91 0 -132 44t-41 118v13h115v-4q0 -81 58 -81t58 81v4h115v-13q0 -74 -41.5 -118t-131.5 -44zM470 460h10v-460h-148v200l-255 -209h-10v461h148v-202z" />
    <glyph glyph-name="uni043A" unicode="&#x43a;" horiz-adv-x="567" 
d="M563 0h-191l-152 219v-219h-153v452h153v-210l144 210h190l-168 -218z" />
    <glyph glyph-name="uni043B" unicode="&#x43b;" horiz-adv-x="583" 
d="M115 452h401v-452h-153v331h-105v-51q0 -145 -37.5 -217t-132.5 -72q-46 0 -68 12v118q10 -5 25 -5q39 0 54.5 45.5t15.5 136.5v154z" />
    <glyph glyph-name="uni043C" unicode="&#x43c;" horiz-adv-x="680" 
d="M660 0h-150l-48 178l-117 -187h-10l-117 187l-48 -178h-150l143 460h10l167 -262l167 262h10z" />
    <glyph glyph-name="uni043D" unicode="&#x43d;" horiz-adv-x="572" 
d="M352 452h153v-452h-153v166h-132v-166h-153v452h153v-165h132v165z" />
    <glyph glyph-name="uni043E" unicode="&#x43e;" horiz-adv-x="575" 
d="M285 -9q-115 0 -184 64t-69 168q0 105 71 171.5t189 66.5q113 0 182 -62t69 -168q0 -109 -71.5 -174.5t-186.5 -65.5zM288 118q45 0 71 31t26 79q0 47 -26.5 77t-70.5 30q-46 0 -72 -32.5t-26 -76.5q0 -46 26.5 -77t71.5 -31z" />
    <glyph glyph-name="uni043F" unicode="&#x43f;" horiz-adv-x="567" 
d="M67 452h433v-452h-153v331h-127v-331h-153v452z" />
    <glyph glyph-name="uni0440" unicode="&#x440;" horiz-adv-x="598" 
d="M67 -198v650h139l3 -41q50 50 138 50q98 0 158.5 -66.5t60.5 -168.5q0 -105 -63.5 -170t-155.5 -65q-81 0 -128 45l1 -234h-153zM312 118q44 0 70 31t26 79t-26.5 77.5t-70.5 29.5q-45 0 -71.5 -31.5t-26.5 -77.5q0 -51 27 -79.5t72 -28.5z" />
    <glyph glyph-name="uni0441" unicode="&#x441;" horiz-adv-x="445" 
d="M278 -9q-63 0 -116.5 21.5t-91.5 74.5t-38 131q0 109 69 176t179 67q72 0 121 -26v-129q-46 31 -99 31q-48 0 -80 -29.5t-32 -84.5q0 -53 30 -80t79 -27q63 0 108 34v-130q-16 -11 -53 -20t-76 -9z" />
    <glyph glyph-name="uni0442" unicode="&#x442;" horiz-adv-x="463" 
d="M433 452v-121h-125v-331h-153v331h-125v121h403z" />
    <glyph glyph-name="uni0443" unicode="&#x443;" horiz-adv-x="527" 
d="M81 -198l103 231l-181 419h168l92 -247l98 247h163l-278 -650h-165z" />
    <glyph glyph-name="uni0444" unicode="&#x444;" horiz-adv-x="728" 
d="M696 231q0 -103 -72 -168.5t-185 -71.5v-189h-149v189q-115 4 -186.5 67.5t-71.5 164.5t71.5 166.5t186.5 70.5v203h149v-202q113 -4 185 -65.5t72 -164.5zM184 226q0 -47 30 -78t77 -36v229q-48 -4 -77.5 -37.5t-29.5 -77.5zM438 112q46 4 76 36t30 80q0 47 -30 78
t-76 35v-229z" />
    <glyph glyph-name="uni0445" unicode="&#x445;" horiz-adv-x="572" 
d="M12 0l181 228l-177 224h181l90 -130l94 130h175l-179 -224l183 -228h-182l-94 128l-95 -128h-177z" />
    <glyph glyph-name="uni0446" unicode="&#x446;" horiz-adv-x="591" 
d="M496 121h75v-237h-143v116h-361v452h153v-331h123v331h153v-331z" />
    <glyph glyph-name="uni0447" unicode="&#x447;" horiz-adv-x="540" 
d="M320 452h153v-452h-153v169q-38 -31 -110 -31q-85 0 -127.5 44t-42.5 141v129h153v-107q0 -43 14.5 -63t48.5 -20t49 20t15 63v107z" />
    <glyph glyph-name="uni0448" unicode="&#x448;" horiz-adv-x="817" 
d="M597 452h153v-452h-683v452h153v-331h112v331h153v-331h112v331z" />
    <glyph glyph-name="uni0449" unicode="&#x449;" horiz-adv-x="845" 
d="M750 121h75v-237h-143v116h-615v452h153v-331h112v331h153v-331h112v331h153v-331z" />
    <glyph glyph-name="uni044A" unicode="&#x44a;" horiz-adv-x="588" 
d="M354 332q206 0 206 -160q0 -90 -60.5 -131t-155.5 -41h-189v331h-125v121h278v-120h46zM327 102q77 0 77 66q0 62 -76 62h-20v-128h19z" />
    <glyph glyph-name="uni044B" unicode="&#x44b;" horiz-adv-x="757" 
d="M266 332q206 0 206 -160q0 -90 -60.5 -131t-155.5 -41h-189v452h153v-120h46zM537 452h153v-452h-153v452zM239 102q77 0 77 66q0 62 -76 62h-20v-128h19z" />
    <glyph glyph-name="uni044C" unicode="&#x44c;" horiz-adv-x="500" 
d="M266 332q206 0 206 -160q0 -90 -60.5 -131t-155.5 -41h-189v452h153v-120h46zM239 102q77 0 77 66q0 62 -76 62h-20v-128h19z" />
    <glyph glyph-name="uni044D" unicode="&#x44d;" horiz-adv-x="460" 
d="M182 461q63 0 116.5 -21.5t91.5 -74.5t38 -131q0 -109 -69 -176t-179 -67q-83 0 -137 26v123q52 -31 120 -31q95 0 114 67h-154v101h156q-18 67 -113 67q-64 0 -117 -34v122q15 10 55 19.5t78 9.5z" />
    <glyph glyph-name="uni044E" unicode="&#x44e;" horiz-adv-x="819" 
d="M538 461q112 0 180.5 -62t68.5 -168q0 -109 -70.5 -174.5t-185.5 -65.5q-98 0 -163 48t-82 129h-66v-168h-153v452h153v-167h67q20 80 86 128t165 48zM534 118q44 0 69.5 31t25.5 79q0 47 -26 77t-69 30q-46 0 -71 -32.5t-25 -76.5q0 -46 26 -77t70 -31z" />
    <glyph glyph-name="uni044F" unicode="&#x44f;" horiz-adv-x="527" 
d="M272 452h188v-452h-153v135h-28l-84 -135h-165l107 155q-41 14 -65.5 47.5t-24.5 82.5t19.5 83.5t54 52t71 24.5t80.5 7zM275 235h32v117h-34q-70 0 -70 -58q0 -27 19.5 -43t52.5 -16z" />
    <glyph glyph-name="uni0451" unicode="&#x451;" horiz-adv-x="522" 
d="M152 526q-36 0 -58.5 23t-22.5 59q0 35 23.5 58t57.5 23t57 -23t23 -59q0 -37 -22 -59t-58 -22zM381 526q-36 0 -58.5 23t-22.5 59q0 35 23.5 58t57.5 23t57 -23t23 -59q0 -37 -22.5 -59t-57.5 -22zM288 -9q-119 0 -187.5 58.5t-68.5 172.5q0 106 60.5 172.5t173.5 66.5
q116 0 170 -67.5t54 -168.5q0 -19 -4 -44h-297q14 -71 124 -71q83 0 149 36v-119q-72 -36 -174 -36zM189 272h148q-3 29 -21 49.5t-51 20.5q-30 0 -51 -19t-25 -51z" />
    <glyph glyph-name="uni0452" unicode="&#x452;" horiz-adv-x="576" 
d="M360 431q81 0 128.5 -49.5t47.5 -150.5q0 -98 -34.5 -190.5t-91.5 -156.5h-162q69 84 102 159t33 164q0 100 -74 100q-46 0 -59.5 -30.5t-13.5 -96.5v-180h-153v482h-88v106h88v75h153v-75h141v-106h-141v-96q42 45 124 45z" />
    <glyph glyph-name="uni0453" unicode="&#x453;" horiz-adv-x="403" 
d="M481 691l-176 -171h-149l123 171h202zM383 452v-121h-163v-331h-153v452h316z" />
    <glyph glyph-name="uni0454" unicode="&#x454;" horiz-adv-x="460" 
d="M300 109q68 0 117 34v-123q-16 -11 -54.5 -20t-78.5 -9q-64 0 -119 21.5t-94 74.5t-39 131q0 108 67 175.5t175 67.5q83 0 137 -26v-122q-54 31 -120 31q-89 0 -108 -67h154v-101h-156q18 -67 119 -67z" />
    <glyph glyph-name="uni0455" unicode="&#x455;" horiz-adv-x="393" 
d="M185 -9q-81 0 -137 26v116q17 -12 54.5 -24t71.5 -12q48 0 48 37q0 18 -18 30t-43.5 20.5t-51 21.5t-43.5 42t-18 72q0 71 46 106t126 35q72 0 110 -20v-115q-58 30 -99 30t-41 -30q0 -16 18 -26.5t43 -19t50.5 -21.5t43.5 -42t18 -72q0 -75 -48.5 -114.5t-129.5 -39.5z
" />
    <glyph glyph-name="uni0456" unicode="&#x456;" horiz-adv-x="310" 
d="M167 526q-36 0 -58.5 23t-22.5 59q0 35 23.5 58t57.5 23t57 -23t23 -59q0 -37 -22.5 -59t-57.5 -22zM90 0v335h-55v117h208v-452h-153z" />
    <glyph glyph-name="uni0457" unicode="&#x457;" horiz-adv-x="310" 
d="M58 526q-36 0 -58.5 23t-22.5 59q0 35 23.5 58t57.5 23t57 -23t23 -59q0 -37 -22 -59t-58 -22zM256 526q-36 0 -58.5 23t-22.5 59q0 35 23.5 58t57.5 23t57 -23t23 -59q0 -37 -22 -59t-58 -22zM90 0v335h-55v117h208v-452h-153z" />
    <glyph glyph-name="uni0458" unicode="&#x458;" horiz-adv-x="324" 
d="M181 526q-36 0 -58.5 23t-22.5 59q0 35 23.5 58t57.5 23t57 -23t23 -59q0 -37 -22.5 -59t-57.5 -22zM24 -207q-57 0 -84 12v121q24 -12 65 -12q55 0 77 32t22 97v292h-55v117h208v-404q0 -75 -17.5 -126.5t-50.5 -79t-72.5 -38.5t-92.5 -11z" />
    <glyph glyph-name="uni0459" unicode="&#x459;" horiz-adv-x="796" 
d="M562 332q206 0 206 -160q0 -90 -60.5 -131t-155.5 -41h-189v331h-105v-51q0 -145 -37.5 -217t-132.5 -72q-46 0 -68 12v118q10 -5 25 -5q39 0 54.5 45.5t15.5 136.5v154h401v-120h46zM535 102q77 0 77 66q0 62 -76 62h-20v-128h19z" />
    <glyph glyph-name="uni045A" unicode="&#x45a;" horiz-adv-x="785" 
d="M551 332q206 0 206 -160q0 -90 -60.5 -131t-155.5 -41h-189v166h-132v-166h-153v452h153v-165h132v165h153v-120h46zM524 102q77 0 77 66q0 62 -76 62h-20v-128h19z" />
    <glyph glyph-name="uni045B" unicode="&#x45b;" horiz-adv-x="572" 
d="M350 431q80 0 123 -45.5t43 -134.5v-251h-153v217q0 45 -13 67.5t-48 22.5q-23 0 -37 -9t-20 -28.5t-7.5 -38t-1.5 -51.5v-180h-153v482h-88v106h88v75h153v-75h141v-106h-141v-96q42 45 114 45z" />
    <glyph glyph-name="uni045C" unicode="&#x45c;" horiz-adv-x="567" 
d="M533 691l-176 -171h-149l123 171h202zM563 0h-191l-152 219v-219h-153v452h153v-210l144 210h190l-168 -218z" />
    <glyph glyph-name="uni045D" unicode="&#x45d;" horiz-adv-x="547" 
d="M400 520h-152l-175 171h204zM470 460h10v-460h-148v200l-255 -209h-10v461h148v-202z" />
    <glyph glyph-name="uni045E" unicode="&#x45e;" horiz-adv-x="527" 
d="M263 500q-91 0 -132 44t-41 118v13h115v-4q0 -81 58 -81t58 81v4h115v-13q0 -74 -41.5 -118t-131.5 -44zM81 -198l103 231l-181 419h168l92 -247l98 247h163l-278 -650h-165z" />
    <glyph glyph-name="uni045F" unicode="&#x45f;" horiz-adv-x="563" 
d="M496 452v-452h-143v-116h-143v116h-143v452h153v-331h123v331h153z" />
    <glyph glyph-name="uni0490" unicode="&#x490;" horiz-adv-x="504" 
d="M484 784v-264h-256v-520h-158v648h266v136h148z" />
    <glyph glyph-name="uni0491" unicode="&#x491;" horiz-adv-x="403" 
d="M383 568v-237h-163v-331h-153v452h173v116h143z" />
    <glyph glyph-name="Wgrave" unicode="&#x1e80;" horiz-adv-x="1044" 
d="M466 705l-176 171h204l123 -171h-151zM333 -9l-313 657h175l146 -338l177 338h10l175 -338l150 338h171l-312 -657h-10l-179 345l-180 -345h-10z" />
    <glyph glyph-name="wgrave" unicode="&#x1e81;" horiz-adv-x="722" 
d="M313 520l-175 171h204l123 -171h-152zM243 -9l-236 461h168l82 -190l99 190h10l102 -190l84 190h163l-233 -461h-10l-111 207l-108 -207h-10z" />
    <glyph glyph-name="Wacute" unicode="&#x1e82;" horiz-adv-x="1044" 
d="M432 705l123 171h202l-176 -171h-149zM333 -9l-313 657h175l146 -338l177 338h10l175 -338l150 338h171l-312 -657h-10l-179 345l-180 -345h-10z" />
    <glyph glyph-name="wacute" unicode="&#x1e83;" horiz-adv-x="722" 
d="M283 520l123 171h202l-176 -171h-149zM243 -9l-236 461h168l82 -190l99 190h10l102 -190l84 190h163l-233 -461h-10l-111 207l-108 -207h-10z" />
    <glyph glyph-name="Wdieresis" unicode="&#x1e84;" horiz-adv-x="1044" 
d="M408 708q-39 0 -63 24t-24 61t24 61t63 24q38 0 62 -24t24 -61t-24 -61t-62 -24zM637 708q-38 0 -62.5 24t-24.5 61t24.5 61t62.5 24q39 0 63 -24t24 -61t-24 -61t-63 -24zM333 -9l-313 657h175l146 -338l177 338h10l175 -338l150 338h171l-312 -657h-10l-179 345
l-180 -345h-10z" />
    <glyph glyph-name="wdieresis" unicode="&#x1e85;" horiz-adv-x="722" 
d="M247 526q-36 0 -58.5 23t-22.5 59q0 35 23.5 58t57.5 23t57 -23t23 -59q0 -37 -22.5 -59t-57.5 -22zM476 526q-36 0 -58.5 23t-22.5 59q0 35 23.5 58t57.5 23t57 -23t23 -59q0 -37 -22 -59t-58 -22zM243 -9l-236 461h168l82 -190l99 190h10l102 -190l84 190h163
l-233 -461h-10l-111 207l-108 -207h-10z" />
    <glyph glyph-name="uni1E9E" unicode="&#x1e9e;" horiz-adv-x="708" 
d="M541 389q59 -14 95 -59t36 -120q0 -116 -67 -168t-182 -52q-65 0 -121 17v131q51 -20 111 -20q96 0 96 90q0 44 -25 65.5t-65 21.5q-44 0 -73 -22l-10 8l99 242h-207v-523h-158v648h573v-10z" />
    <glyph glyph-name="Ygrave" unicode="&#x1ef2;" horiz-adv-x="652" 
d="M319 705l-176 171h204l123 -171h-151zM246 0v257l-232 391h175l141 -254l139 254h169l-234 -391v-257h-158z" />
    <glyph glyph-name="ygrave" unicode="&#x1ef3;" horiz-adv-x="527" 
d="M245 520l-175 171h204l123 -171h-152zM81 -198l103 231l-181 419h168l92 -247l98 247h163l-278 -650h-165z" />
    <glyph glyph-name="uni2002" unicode="&#x2002;" horiz-adv-x="482" 
 />
    <glyph glyph-name="uni2003" unicode="&#x2003;" horiz-adv-x="799" 
 />
    <glyph glyph-name="uni2009" unicode="&#x2009;" horiz-adv-x="160" 
 />
    <glyph glyph-name="uni200A" unicode="&#x200a;" horiz-adv-x="50" 
 />
    <glyph glyph-name="endash" unicode="&#x2013;" horiz-adv-x="482" 
d="M32 183v119h418v-119h-418z" />
    <glyph glyph-name="emdash" unicode="&#x2014;" horiz-adv-x="799" 
d="M32 183v119h735v-119h-735z" />
    <glyph glyph-name="quoteleft" unicode="&#x2018;" horiz-adv-x="301" 
d="M162 506q39 -1 62 -22.5t23 -61.5q0 -42 -27.5 -68.5t-70.5 -26.5q-47 0 -75 29.5t-28 86.5q0 56 28.5 111.5t85.5 93.5h95q-77 -65 -93 -142z" />
    <glyph glyph-name="quoteright" unicode="&#x2019;" horiz-adv-x="301" 
d="M152 654q47 0 75 -29.5t28 -86.5q0 -56 -28.5 -111.5t-85.5 -93.5h-95q77 65 93 142q-39 1 -62 22.5t-23 61.5q0 42 27.5 68.5t70.5 26.5z" />
    <glyph glyph-name="quotesinglbase" unicode="&#x201a;" horiz-adv-x="301" 
d="M152 160q47 0 75 -29.5t28 -86.5q0 -56 -28.5 -111.5t-85.5 -93.5h-95q77 65 93 142q-39 1 -62 22.5t-23 61.5q0 42 27.5 68.5t70.5 26.5z" />
    <glyph glyph-name="quotedblleft" unicode="&#x201c;" horiz-adv-x="560" 
d="M257 648q-77 -65 -93 -142q39 -1 62 -22.5t23 -61.5q0 -42 -27.5 -68.5t-70.5 -26.5q-47 0 -75 29.5t-28 86.5q0 56 28.5 111.5t85.5 93.5h95zM421 506q39 -1 62 -22.5t23 -61.5q0 -42 -27.5 -68.5t-70.5 -26.5q-47 0 -75 29.5t-28 86.5q0 56 28.5 111.5t85.5 93.5h95
q-77 -65 -93 -142z" />
    <glyph glyph-name="quotedblright" unicode="&#x201d;" horiz-adv-x="560" 
d="M154 654q47 0 75 -29.5t28 -86.5q0 -56 -28.5 -111.5t-85.5 -93.5h-95q77 65 93 142q-39 1 -62 22.5t-23 61.5q0 42 27.5 68.5t70.5 26.5zM411 654q47 0 75 -29.5t28 -86.5q0 -56 -28.5 -111.5t-85.5 -93.5h-95q77 65 93 142q-39 1 -62 22.5t-23 61.5q0 42 27.5 68.5
t70.5 26.5z" />
    <glyph glyph-name="quotedblbase" unicode="&#x201e;" horiz-adv-x="558" 
d="M152 160q47 0 75 -29.5t28 -86.5q0 -56 -28.5 -111.5t-85.5 -93.5h-95q77 65 93 142q-39 1 -62 22.5t-23 61.5q0 42 27.5 68.5t70.5 26.5zM409 160q47 0 75 -29.5t28 -86.5q0 -56 -28.5 -111.5t-85.5 -93.5h-95q77 65 93 142q-39 1 -62 22.5t-23 61.5q0 42 27.5 68.5
t70.5 26.5z" />
    <glyph glyph-name="dagger" unicode="&#x2020;" horiz-adv-x="585" 
d="M234 -198l-14 533h-150v117h146l-5 196h162l-5 -196h147v-117h-150l-14 -533h-117z" />
    <glyph glyph-name="daggerdbl" unicode="&#x2021;" horiz-adv-x="585" 
d="M234 -198l-7 283h-147v117h143l-3 133h-150v117h146l-5 196h162l-5 -196h147v-117h-150l-3 -133h143v-117h-147l-7 -283h-117z" />
    <glyph glyph-name="bullet" unicode="&#x2022;" horiz-adv-x="440" 
d="M221 112q-53 0 -86.5 33.5t-33.5 86.5q0 51 35 84.5t85 33.5q52 0 85 -33.5t33 -85.5q0 -53 -33.5 -86t-84.5 -33z" />
    <glyph glyph-name="ellipsis" unicode="&#x2026;" horiz-adv-x="794" 
d="M152 -9q-39 0 -64 25t-25 65q0 39 26 64t63 25q38 0 63 -25t25 -65t-25.5 -64.5t-62.5 -24.5zM397 -9q-39 0 -64 25t-25 65q0 39 26 64t63 25q38 0 63 -25t25 -65t-25.5 -64.5t-62.5 -24.5zM643 -9q-39 0 -64 25t-25 65q0 39 26 64t63 25q38 0 63 -25t25 -65t-25.5 -64.5
t-62.5 -24.5z" />
    <glyph glyph-name="perthousand" unicode="&#x2030;" horiz-adv-x="1388" 
d="M209 332q-75 0 -123.5 44t-48.5 119q0 73 50 118t122 45q69 0 120.5 -44.5t51.5 -117.5q0 -74 -50 -119t-122 -45zM225 0l360 648h157l-360 -648h-157zM209 429q28 0 46.5 17.5t18.5 49.5q0 31 -19 48t-46 17q-28 0 -46.5 -17.5t-18.5 -47.5q0 -31 19 -49t46 -18z
M760 -10q-75 0 -123.5 44t-48.5 119q0 73 50 118t122 45q69 0 120.5 -44.5t51.5 -117.5q0 -74 -50 -119t-122 -45zM1179 -10q-75 0 -123.5 44t-48.5 119q0 73 50 118t122 45q69 0 120.5 -44.5t51.5 -117.5q0 -74 -50 -119t-122 -45zM760 87q28 0 46.5 17.5t18.5 49.5
q0 31 -19 48t-46 17q-28 0 -46.5 -17.5t-18.5 -47.5q0 -31 19 -49t46 -18zM1179 87q28 0 46.5 17.5t18.5 49.5q0 31 -19 48t-46 17q-28 0 -46.5 -17.5t-18.5 -47.5q0 -31 19 -49t46 -18z" />
    <glyph glyph-name="guilsinglleft" unicode="&#x2039;" horiz-adv-x="409" 
d="M172 74l-140 157l140 157h175l-146 -157l146 -157h-175z" />
    <glyph glyph-name="guilsinglright" unicode="&#x203a;" horiz-adv-x="409" 
d="M62 74l146 158l-146 156h175l140 -157l-140 -157h-175z" />
    <glyph glyph-name="fraction" unicode="&#x2044;" horiz-adv-x="517" 
d="M0 0l360 648h157l-360 -648h-157z" />
    <glyph glyph-name="Euro" unicode="&#x20ac;" horiz-adv-x="609" 
d="M398 -10q-123 0 -205.5 50t-104.5 149h-81v101h69q-2 14 -2 35q0 16 2 30h-69v101h85q24 89 105.5 145.5t208.5 56.5q49 0 98 -8t71 -19v-138q-76 36 -157 36q-59 0 -102.5 -21t-60.5 -52h183v-101h-201q-2 -14 -2 -34q0 -19 2 -31h201v-101h-184q35 -68 169 -68
q97 0 157 28v-132q-21 -10 -75 -18.5t-107 -8.5z" />
    <glyph glyph-name="uni20B4" unicode="&#x20b4;" horiz-adv-x="553" 
d="M513 360h-94q-21 -20 -86 -65h180v-96l-273 1q-3 -12 -3 -25q0 -63 98 -63q68 0 145 53v-140q-79 -35 -174 -35q-110 0 -169.5 43t-59.5 120q0 26 6 47h-43v96h105q22 19 89 65h-194v96l279 -1q2 14 2 20q0 27 -25 43.5t-71 16.5q-65 0 -136 -44v139q65 27 171 27
q105 0 163 -41.5t58 -118.5q0 -20 -5 -42h37v-96z" />
    <glyph glyph-name="uni20BD" unicode="&#x20bd;" horiz-adv-x="654" 
d="M333 213h-35v-55h110v-101h-110v-57h-158v57h-85v101h85v55h-85v101h85v334h205q34 0 62 -2.5t62.5 -10t60.5 -23t49 -38.5t35 -60t12 -84q0 -217 -293 -217zM463 429q0 32 -13 52.5t-36.5 29t-44.5 11.5t-49 3h-22v-198h21q144 0 144 102z" />
    <glyph glyph-name="uni2113" unicode="&#x2113;" horiz-adv-x="277" 
d="M62 0v663h153v-663h-153z" />
    <glyph glyph-name="uni2116" unicode="&#x2116;" horiz-adv-x="1122" 
d="M626 -10l-402 347v-337h-154v658h10l401 -347l1 337h154v-658h-10zM913 317q-77 0 -126 46.5t-49 121.5t50 123.5t128 48.5q77 0 125.5 -45.5t48.5 -122.5t-50.5 -124.5t-126.5 -47.5zM915 407q27 0 43.5 20t16.5 62q0 40 -17 59.5t-43 19.5q-29 0 -45.5 -22t-16.5 -59
q0 -40 17.5 -60t44.5 -20zM760 191v91h307v-91h-307z" />
    <glyph glyph-name="trademark" unicode="&#x2122;" horiz-adv-x="920" 
d="M614 246l-100 158l-29 -152h-113l88 406h11l149 -235l149 235h10l87 -406h-113l-28 154l-101 -160h-10zM121 252v302h-102v94h318v-94h-100v-302h-116z" />
    <glyph glyph-name="uni2126" unicode="&#x2126;" horiz-adv-x="777" 
d="M727 347q0 -148 -111 -218h111v-129h-280v131q49 19 83 66.5t34 123.5q0 93 -49.5 144t-125.5 51t-126 -51.5t-50 -143.5q0 -75 33.5 -123t83.5 -67v-131h-280v129h111q-111 70 -111 215q0 129 92.5 221.5t248.5 92.5q152 0 244 -90t92 -221z" />
    <glyph glyph-name="estimated" unicode="&#x212e;" horiz-adv-x="883" 
d="M443 -10q-159 0 -271 99.5t-112 241.5t112 242t271 100q156 0 268 -100t112 -242v-8h-617q-8 0 -8 -6v-187q0 -9 12 -21q95 -98 234 -98q72 0 135 29.5t109 80.5h56q-55 -61 -133.5 -96t-167.5 -35zM206 342h470q8 0 8 5v190q0 9 -13 22q-42 44 -102 69t-125 25
q-137 0 -234 -97q-12 -12 -12 -24v-185q0 -5 8 -5z" />
    <glyph glyph-name="arrowleft" unicode="&#x2190;" horiz-adv-x="853" 
d="M366 30l-303 300l303 300h196l-228 -229h456v-141h-456l228 -230h-196z" />
    <glyph glyph-name="arrowup" unicode="&#x2191;" horiz-adv-x="632" 
d="M237 0v416l-174 -179v167l253 254l253 -254v-167l-174 179v-416h-158z" />
    <glyph glyph-name="arrowright" unicode="&#x2192;" horiz-adv-x="853" 
d="M291 30l228 230h-456v141h456l-228 229h196l303 -300l-303 -300h-196z" />
    <glyph glyph-name="arrowdown" unicode="&#x2193;" horiz-adv-x="632" 
d="M316 -10l-253 254v167l174 -179v416h158v-416l174 179v-167z" />
    <glyph glyph-name="partialdiff" unicode="&#x2202;" horiz-adv-x="592" 
d="M291 -9q-118 0 -188.5 64.5t-70.5 169.5q0 101 63 168.5t167 67.5q92 0 136 -55q-8 76 -45 112t-113 36q-71 0 -109 -17v126q38 15 119 15q66 0 117.5 -15t97 -51t70.5 -106.5t25 -172.5q0 -165 -67 -253.5t-202 -88.5zM295 116q48 0 73.5 32.5t25.5 78.5q0 48 -27.5 79
t-73.5 31q-47 0 -75 -31.5t-28 -80.5q0 -51 29.5 -80t75.5 -29z" />
    <glyph glyph-name="uni2206" unicode="&#x2206;" horiz-adv-x="637" 
d="M13 0l301 658h10l300 -658h-611zM221 129h190l-94 225z" />
    <glyph glyph-name="product" unicode="&#x220f;" horiz-adv-x="848" 
d="M161 -198v718h-116v128h758v-128h-116v-718h-158v718h-210v-718h-158z" />
    <glyph glyph-name="summation" unicode="&#x2211;" horiz-adv-x="573" 
d="M31 0v10l245 317l-242 311v10h489v-128h-217l150 -193l-153 -198h230v-129h-502z" />
    <glyph glyph-name="minus" unicode="&#x2212;" 
d="M81 168v117h443v-117h-443z" />
    <glyph glyph-name="radical" unicode="&#x221a;" horiz-adv-x="616" 
d="M232 0l-82 197h-107v117h215l50 -129l157 463h157l-238 -648h-152z" />
    <glyph glyph-name="infinity" unicode="&#x221e;" horiz-adv-x="676" 
d="M182 169q-66 0 -108 40t-42 115t42 115t105 40q103 0 159 -82q55 82 158 82q63 0 105.5 -40t42.5 -115t-42.5 -115t-107.5 -40q-102 0 -156 78q-55 -78 -156 -78zM202 280q39 0 72 42q-36 47 -74 47q-18 0 -30.5 -12t-12.5 -33t13.5 -32.5t31.5 -11.5zM475 279
q18 0 31.5 11.5t13.5 33.5q0 21 -12.5 32.5t-30.5 11.5q-41 0 -74 -46q32 -43 72 -43z" />
    <glyph glyph-name="integral" unicode="&#x222b;" horiz-adv-x="435" 
d="M110 -207q-56 0 -88 14v118q28 -11 69 -11t58 28.5t17 92.5v416q0 207 216 207q46 0 75 -11v-123q-26 13 -61 13q-77 0 -77 -93v-389q0 -48 -4.5 -84.5t-18 -71.5t-36.5 -57t-60.5 -35.5t-89.5 -13.5z" />
    <glyph glyph-name="approxequal" unicode="&#x2248;" 
d="M376 252q-39 0 -87.5 22.5t-62.5 22.5q-31 0 -34 -38h-111q0 70 38 110.5t107 40.5q44 0 87 -22.5t62 -22.5t28 13t9 25h112q-1 -70 -40.5 -110.5t-107.5 -40.5zM376 42q-39 0 -87.5 22.5t-62.5 22.5q-31 0 -34 -38h-111q0 70 38 110.5t107 40.5q44 0 87 -22.5t62 -22.5
t28 13t9 25h112q-1 -70 -40.5 -110.5t-107.5 -40.5z" />
    <glyph glyph-name="notequal" unicode="&#x2260;" 
d="M134 0l36 75h-89v117h144l33 69h-177v117h231l37 74h122l-37 -74h90v-117h-144l-33 -69h177v-117h-232l-35 -75h-123z" />
    <glyph glyph-name="lessequal" unicode="&#x2264;" 
d="M525 194l-443 228v10l443 228v-141l-192 -89l192 -89v-147zM82 0v117h443v-117h-443z" />
    <glyph glyph-name="greaterequal" unicode="&#x2265;" 
d="M82 194v141l192 89l-192 89v147l443 -228v-10zM82 0v117h443v-117h-443z" />
    <glyph glyph-name="dotmath" unicode="&#x22c5;" horiz-adv-x="369" 
d="M185 143q-39 0 -64 25t-25 65q0 39 26 64t63 25q38 0 63 -25t25 -65t-25.5 -64.5t-62.5 -24.5z" />
    <glyph glyph-name="lozenge" unicode="&#x25ca;" horiz-adv-x="557" 
d="M273 -10l-251 328l251 340h10l252 -340l-252 -328h-10zM278 189l102 129l-102 141l-101 -141z" />
    <glyph glyph-name="uniF8FF" unicode="&#xf8ff;" horiz-adv-x="544" 
d="M112 589q-13 0 -21.5 9t-8.5 22q0 12 8.5 21t21.5 9q12 0 21.5 -9t9.5 -21q0 -13 -9.5 -22t-21.5 -9zM178 589q-12 0 -21 9t-9 22q0 12 9 21t21 9q13 0 21.5 -9t8.5 -21q0 -13 -8.5 -22t-21.5 -9zM243 589q-12 0 -21.5 9t-9.5 22q0 12 9.5 21t21.5 9q13 0 21.5 -9
t8.5 -21q0 -13 -8.5 -22t-21.5 -9zM309 589q-13 0 -21.5 9t-8.5 22q0 12 8.5 21t21.5 9q12 0 21.5 -9t9.5 -21q0 -13 -9.5 -22t-21.5 -9zM375 589q-13 0 -22 8.5t-9 22.5q0 12 9 21t22 9q11 0 20.5 -9t9.5 -21q0 -13 -9 -22t-21 -9zM440 589q-12 0 -21.5 9t-9.5 22
q0 12 9.5 21t21.5 9q13 0 21.5 -9t8.5 -21q0 -13 -8.5 -22t-21.5 -9zM112 524q-13 0 -21.5 8.5t-8.5 21.5q0 12 8.5 21t21.5 9q12 0 21.5 -9t9.5 -21t-9.5 -21t-21.5 -9zM112 458q-13 0 -21.5 9t-8.5 22q0 12 8.5 20.5t21.5 8.5q12 0 21.5 -8.5t9.5 -20.5q0 -13 -9.5 -22
t-21.5 -9zM243 458q-12 0 -21.5 9t-9.5 22q0 12 9.5 20.5t21.5 8.5q13 0 21.5 -8.5t8.5 -20.5q0 -13 -8.5 -22t-21.5 -9zM309 458q-13 0 -21.5 9t-8.5 22q0 12 8.5 20.5t21.5 8.5q12 0 21.5 -8.5t9.5 -20.5q0 -13 -9.5 -22t-21.5 -9zM375 458q-13 0 -22 9t-9 22q0 12 9 20.5
t22 8.5q12 0 21 -8.5t9 -20.5q0 -13 -9.5 -22t-20.5 -9zM440 458q-12 0 -21.5 9t-9.5 22q0 12 9.5 20.5t21.5 8.5q13 0 21.5 -8.5t8.5 -20.5q0 -13 -8.5 -22t-21.5 -9zM112 394q-13 0 -21.5 8t-8.5 21t8.5 21.5t21.5 8.5q12 0 21.5 -9t9.5 -21t-9.5 -20.5t-21.5 -8.5z
M243 394q-12 0 -21.5 8.5t-9.5 20.5t9.5 21t21.5 9q13 0 21.5 -8.5t8.5 -21.5t-8.5 -21t-21.5 -8zM112 327q-13 0 -21.5 8.5t-8.5 21.5t8.5 22t21.5 9q12 0 21.5 -9t9.5 -22q0 -12 -9.5 -21t-21.5 -9zM243 327q-12 0 -21.5 9t-9.5 21q0 13 9.5 22t21.5 9q13 0 21.5 -9
t8.5 -22t-8.5 -21.5t-21.5 -8.5zM309 327q-13 0 -21.5 8.5t-8.5 21.5t8.5 22t21.5 9q12 0 21.5 -9t9.5 -22q0 -12 -9.5 -21t-21.5 -9zM375 327q-13 0 -22 8.5t-9 21.5t9 22t22 9q11 0 20.5 -9t9.5 -22q0 -12 -9 -21t-21 -9zM440 327q-12 0 -21.5 9t-9.5 21q0 13 9.5 22
t21.5 9q13 0 21.5 -9t8.5 -22t-8.5 -21.5t-21.5 -8.5zM112 262q-13 0 -21.5 8.5t-8.5 21.5q0 12 8.5 21t21.5 9q12 0 21.5 -9t9.5 -21t-9.5 -21t-21.5 -9zM440 262q-12 0 -21.5 9t-9.5 21t9.5 21t21.5 9q13 0 21.5 -9t8.5 -21q0 -13 -8.5 -21.5t-21.5 -8.5zM112 197
q-13 0 -21.5 8.5t-8.5 21.5q0 12 8.5 20.5t21.5 8.5q12 0 21.5 -8.5t9.5 -20.5t-9.5 -21t-21.5 -9zM243 197q-12 0 -21.5 9t-9.5 21t9.5 20.5t21.5 8.5q13 0 21.5 -8.5t8.5 -20.5q0 -13 -8.5 -21.5t-21.5 -8.5zM309 197q-13 0 -21.5 8.5t-8.5 21.5q0 12 8.5 20.5t21.5 8.5
q12 0 21.5 -8.5t9.5 -20.5t-9.5 -21t-21.5 -9zM375 197q-13 0 -22 8.5t-9 21.5q0 12 9 20.5t22 8.5q12 0 21 -8.5t9 -20.5t-9 -21t-21 -9zM440 197q-12 0 -21.5 9t-9.5 21t9.5 20.5t21.5 8.5q13 0 21.5 -8.5t8.5 -20.5q0 -13 -8.5 -21.5t-21.5 -8.5zM112 130q-13 0 -21.5 9
t-8.5 22t8.5 21.5t21.5 8.5q12 0 21.5 -9t9.5 -21q0 -13 -9.5 -22t-21.5 -9zM112 65q-13 0 -21.5 8.5t-8.5 21.5t8.5 21.5t21.5 8.5q12 0 21.5 -8.5t9.5 -21.5q0 -12 -9.5 -21t-21.5 -9zM243 65q-12 0 -21.5 9t-9.5 21q0 13 9.5 21.5t21.5 8.5q13 0 21.5 -8.5t8.5 -21.5
t-8.5 -21.5t-21.5 -8.5zM112 0q-13 0 -21.5 8.5t-8.5 21.5q0 12 9 21.5t21 9.5t21.5 -9.5t9.5 -21.5t-9.5 -21t-21.5 -9zM178 0q-12 0 -21 8.5t-9 21.5q0 12 9 21.5t21 9.5t21 -9.5t9 -21.5q0 -13 -8.5 -21.5t-21.5 -8.5zM243 0q-12 0 -21.5 9t-9.5 21t9.5 21.5t21.5 9.5
t21 -9.5t9 -21.5q0 -13 -8.5 -21.5t-21.5 -8.5z" />
    <glyph glyph-name="Cacute.loclPLK" horiz-adv-x="635" 
d="M317 705l83 171h178l-119 -171h-142zM392 -10q-162 0 -255.5 94.5t-93.5 238.5q0 147 96 241t250 94q109 0 181 -43v-152q-79 53 -173 53q-83 0 -137 -53.5t-54 -137.5q0 -90 54 -141t140 -51q102 0 180 54v-155q-66 -42 -188 -42z" />
    <glyph glyph-name="Iacute_J.loclNLD" horiz-adv-x="777" 
d="M71 705l123 171h202l-176 -171h-149zM413 705l123 171h202l-176 -171h-149zM70 0v648h158v-648h-158zM481 -10q-84 0 -132 26v137q40 -29 102 -29q30 0 50 9t30.5 20t15.5 33.5t5.5 36t0.5 41.5v257h-142v127h300v-419q0 -118 -58.5 -178.5t-171.5 -60.5z" />
    <glyph glyph-name="Nacute.loclPLK" horiz-adv-x="706" 
d="M282 705l83 171h178l-119 -171h-142zM626 -10l-402 347v-337h-154v658h10l401 -347l1 337h154v-658h-10z" />
    <glyph glyph-name="Oacute.loclPLK" horiz-adv-x="766" 
d="M314 705l83 171h178l-119 -171h-142zM380 -10q-152 0 -244.5 93t-92.5 241q0 150 94 242t249 92q151 0 244 -92t93 -240q0 -147 -95 -241.5t-248 -94.5zM385 134q74 0 124.5 50t50.5 139q0 90 -52 141.5t-125 51.5q-76 0 -126.5 -51t-50.5 -139q0 -92 51 -142t128 -50z
" />
    <glyph glyph-name="Sacute.loclPLK" horiz-adv-x="502" 
d="M206 705l83 171h178l-119 -171h-142zM234 -10q-96 0 -179 39v150q83 -57 174 -57q36 0 55.5 14.5t19.5 38.5t-18 42.5t-45.5 29.5t-59 29t-59 39t-45.5 60t-18 91q0 89 57 140.5t161 51.5q96 0 155 -31v-148q-75 48 -144 48q-34 0 -51.5 -14.5t-17.5 -39.5
q0 -27 25.5 -46.5t61.5 -35.5t72 -37t61.5 -63t25.5 -103q0 -94 -59.5 -146t-171.5 -52z" />
    <glyph glyph-name="Zacute.loclPLK" horiz-adv-x="597" 
d="M226 705l83 171h178l-119 -171h-142zM31 0v10l289 510h-265v128h512v-10l-288 -509h284v-129h-532z" />
    <glyph glyph-name="cacute.loclPLK" horiz-adv-x="445" 
d="M200 520l83 171h178l-119 -171h-142zM278 -9q-63 0 -116.5 21.5t-91.5 74.5t-38 131q0 109 69 176t179 67q72 0 121 -26v-129q-46 31 -99 31q-48 0 -80 -29.5t-32 -84.5q0 -53 30 -80t79 -27q63 0 108 34v-130q-16 -11 -53 -20t-76 -9z" />
    <glyph glyph-name="iacute_j.loclNLD" horiz-adv-x="572" 
d="M16 520l123 171h202l-176 -171h-149zM302 520l123 171h202l-176 -171h-149zM74 0v335h-55v117h208v-452h-153zM280 -207q-57 0 -84 12v121q24 -12 65 -12q55 0 77 32t22 97v292h-55v117h208v-404q0 -75 -17.5 -126.5t-50.5 -79t-72.5 -38.5t-92.5 -11z" />
    <glyph glyph-name="i.loclTRK" horiz-adv-x="289" 
d="M147 526q-36 0 -58.5 23t-22.5 59q0 35 23.5 58t57.5 23t57 -23t23 -59q0 -37 -22.5 -59t-57.5 -22zM74 0v335h-55v117h208v-452h-153z" />
    <glyph glyph-name="nacute.loclPLK" horiz-adv-x="551" 
d="M216 520l83 171h178l-119 -171h-142zM62 0v452h139l3 -49q42 58 125 58q80 0 123 -45.5t43 -134.5v-281h-153v247q0 45 -13 67.5t-48 22.5q-23 0 -37 -9t-20 -28.5t-7.5 -38t-1.5 -51.5v-210h-153z" />
    <glyph glyph-name="oacute.loclPLK" horiz-adv-x="575" 
d="M205 520l83 171h178l-119 -171h-142zM285 -9q-115 0 -184 64t-69 168q0 105 71 171.5t189 66.5q113 0 182 -62t69 -168q0 -109 -71.5 -174.5t-186.5 -65.5zM288 118q45 0 71 31t26 79q0 47 -26.5 77t-70.5 30q-46 0 -72 -32.5t-26 -76.5q0 -46 26.5 -77t71.5 -31z" />
    <glyph glyph-name="sacute.loclPLK" horiz-adv-x="393" 
d="M138 520l83 171h178l-119 -171h-142zM185 -9q-81 0 -137 26v116q17 -12 54.5 -24t71.5 -12q48 0 48 37q0 18 -18 30t-43.5 20.5t-51 21.5t-43.5 42t-18 72q0 71 46 106t126 35q72 0 110 -20v-115q-58 30 -99 30t-41 -30q0 -16 18 -26.5t43 -19t50.5 -21.5t43.5 -42
t18 -72q0 -75 -48.5 -114.5t-129.5 -39.5z" />
    <glyph glyph-name="germandbls.calt" horiz-adv-x="708" 
d="M541 389q59 -14 95 -59t36 -120q0 -116 -67 -168t-182 -52q-65 0 -121 17v131q51 -20 111 -20q96 0 96 90q0 44 -25 65.5t-65 21.5q-44 0 -73 -22l-10 8l99 242h-207v-523h-158v648h573v-10z" />
    <glyph glyph-name="zacute.loclPLK" horiz-adv-x="464" 
d="M150 520l83 171h178l-119 -171h-142zM19 0v10l190 325h-173v117h409v-10l-188 -324h192v-118h-430z" />
    <glyph glyph-name="uni0414.loclBGR" horiz-adv-x="739" 
d="M629 129h80v-265h-148v137h-383v-137h-148v265h80l255 529h10zM368 364l-104 -235h207z" />
    <glyph glyph-name="uni041B.loclBGR" horiz-adv-x="629" 
d="M615 0h-169l-133 345l-136 -345h-163l296 658h10z" />
    <glyph glyph-name="uni0424.loclBGR" horiz-adv-x="856" 
d="M813 324q0 -133 -85.5 -213t-222.5 -88v-61h-154v61q-145 7 -226.5 87.5t-81.5 213.5q0 135 83.5 214.5t224.5 86.5v61h154v-61q140 -8 224 -89t84 -212zM201 326q0 -77 42.5 -122t108.5 -52v344q-71 -7 -111 -53t-40 -117zM504 152q67 8 109 54.5t42 115.5
q0 75 -44 120.5t-107 53.5v-344z" />
    <glyph glyph-name="uni0431.loclSRB" horiz-adv-x="575" 
d="M345 455q103 -34 150.5 -87.5t47.5 -142.5q0 -106 -71.5 -170t-186.5 -64t-184 62.5t-69 163.5q0 67 34.5 116t96.5 71q-88 42 -88 119q0 140 189 140h135q57 0 93 12v-116q-31 -12 -99 -12h-119q-39 0 -39 -29q0 -17 16 -27t60 -25zM288 118q45 0 71 29.5t26 74.5
t-26.5 74t-70.5 29q-46 0 -72 -31.5t-26 -73.5q0 -43 26.5 -72.5t71.5 -29.5z" />
    <glyph glyph-name="uni0432.loclBGR" horiz-adv-x="562" 
d="M397 354q62 -11 94.5 -54t32.5 -105q0 -102 -65.5 -153t-174.5 -51q-122 0 -178 58.5t-56 182.5v181q0 138 59.5 202.5t185.5 64.5q87 0 144.5 -47.5t57.5 -128.5q0 -59 -27.5 -98t-72.5 -52zM270 563q-67 0 -67 -95v-74h34q52 0 77 21t25 71q0 40 -19 58.5t-50 18.5z
M290 108q76 0 76 79q0 90 -106 90h-57v-57q0 -112 87 -112z" />
    <glyph glyph-name="uni0433.loclBGR" horiz-adv-x="425" 
d="M212 -9q-167 0 -167 134q0 40 19 69t46.5 44.5t54.5 27.5t46 25.5t19 30.5q0 30 -42 30q-50 0 -118 -30v119q42 20 141 20q172 0 172 -131q0 -43 -19 -72.5t-46.5 -43.5t-55 -23.5t-46.5 -22.5t-19 -32q0 -36 45 -36q64 0 126 40v-119q-24 -12 -69 -21t-87 -9z" />
    <glyph glyph-name="uni0434.loclBGR" horiz-adv-x="596" 
d="M283 -208q-102 0 -154 22v125q51 -23 127 -23q62 0 93.5 29.5t31.5 95.5v1q-47 -42 -127 -42q-102 0 -162 63.5t-60 163.5q0 106 66 170t159 64t136 -52l2 43h139v-408q0 -75 -18.5 -126t-54.5 -78t-78 -37.5t-100 -10.5zM284 124q41 0 68 26t27 79q0 49 -23.5 78.5
t-67.5 29.5q-43 0 -70.5 -28.5t-27.5 -80.5q0 -50 26.5 -77t67.5 -27z" />
    <glyph glyph-name="uni0436.loclBGR" horiz-adv-x="822" 
d="M818 0h-185l-147 233v-233h-150v233l-147 -233h-185l167 243l-158 209h174l149 -202v413h150v-413l149 202h174l-158 -209z" />
    <glyph glyph-name="uni0437.loclBGR" horiz-adv-x="441" 
d="M323 144q98 -41 98 -152q0 -200 -253 -200q-86 0 -138 24v125q51 -24 132 -24q101 0 101 75q0 76 -103 76h-50v120h40q102 0 102 77q0 32 -21.5 52t-67.5 20q-59 0 -123 -32v124q79 32 171 32q91 0 145 -42.5t54 -133.5q0 -48 -24 -87t-63 -54z" />
    <glyph glyph-name="uni0438.loclBGR" horiz-adv-x="557" 
d="M337 452h153v-452h-139l-3 50q-42 -59 -123 -59q-80 0 -122 45.5t-42 134.5v281h153v-247q0 -45 13 -67.5t46 -22.5q41 0 52.5 30.5t11.5 96.5v210z" />
    <glyph glyph-name="uni0439.loclBGR" horiz-adv-x="557" 
d="M277 500q-91 0 -132 44t-41 118v13h115v-4q0 -81 58 -81t58 81v4h115v-13q0 -74 -41.5 -118t-131.5 -44zM337 452h153v-452h-139l-3 50q-42 -59 -123 -59q-80 0 -122 45.5t-42 134.5v281h153v-247q0 -45 13 -67.5t46 -22.5q41 0 52.5 30.5t11.5 96.5v210z" />
    <glyph glyph-name="uni045D.loclBGR" horiz-adv-x="557" 
d="M356 520h-152l-175 171h204zM337 452h153v-452h-139l-3 50q-42 -59 -123 -59q-80 0 -122 45.5t-42 134.5v281h153v-247q0 -45 13 -67.5t46 -22.5q41 0 52.5 30.5t11.5 96.5v210z" />
    <glyph glyph-name="uni043A.loclBGR" horiz-adv-x="568" 
d="M67 0v663h153v-411l145 200h190l-169 -208l178 -244h-191l-153 229v-229h-153z" />
    <glyph glyph-name="uni043B.loclBGR" horiz-adv-x="518" 
d="M518 0h-168l-92 202l-95 -202h-163l253 461h10z" />
    <glyph glyph-name="uni043F.loclBGR" horiz-adv-x="561" 
d="M67 0v452h139l3 -49q42 58 125 58q80 0 123 -45.5t43 -134.5v-281h-153v247q0 45 -13 67.5t-48 22.5q-23 0 -37 -9t-20 -28.5t-7.5 -38t-1.5 -51.5v-210h-153z" />
    <glyph glyph-name="uni0442.loclBGR" horiz-adv-x="829" 
d="M67 0v452h139l3 -49q41 58 117 58q85 0 129 -63q26 35 64 49t71 14q178 0 178 -194v-267h-153v248q0 29 -2.5 45t-15.5 30t-38 14q-23 0 -36.5 -9t-19.5 -29.5t-7.5 -39t-1.5 -52.5v-207h-153v248q0 29 -2.5 45t-15.5 30t-38 14q-23 0 -36.5 -9t-19.5 -29.5t-7.5 -39
t-1.5 -52.5v-207h-153z" />
    <glyph glyph-name="uni0446.loclBGR" horiz-adv-x="590" 
d="M540 110q16 0 30 4v-230h-143v116h-3q-57 0 -70 59q-43 -68 -139 -68q-73 0 -113.5 46t-40.5 134v281h153v-247q0 -45 13 -67.5t46 -22.5q41 0 52.5 30.5t11.5 96.5v210h153v-273q0 -40 10 -54.5t40 -14.5z" />
    <glyph glyph-name="uni0448.loclBGR" horiz-adv-x="821" 
d="M601 452h153v-452h-139l-3 49q-41 -58 -115 -58q-83 0 -127 63q-45 -63 -133 -63q-176 0 -176 194v267h153v-248q0 -28 2.5 -44.5t15 -30.5t36.5 -14q22 0 35.5 9t19 29.5t7 39t1.5 52.5v207h153v-248q0 -28 2.5 -44.5t15 -30.5t36.5 -14q22 0 35.5 9t19 29.5t7 39
t1.5 52.5v207z" />
    <glyph glyph-name="uni0449.loclBGR" horiz-adv-x="854" 
d="M804 110q16 0 30 4v-230h-143v116h-3q-59 0 -70 59q-39 -68 -131 -68q-80 0 -117 63q-45 -63 -133 -63q-176 0 -176 194v267h153v-248q0 -28 2.5 -44.5t15 -30.5t36.5 -14q22 0 35.5 9t19 29.5t7 39t1.5 52.5v207h153v-248q0 -28 2.5 -44.5t15 -30.5t36.5 -14
q22 0 35.5 9t19 29.5t7 39t1.5 52.5v207h153v-273q0 -40 10 -54.5t40 -14.5z" />
    <glyph glyph-name="uni044C.loclBGR" horiz-adv-x="537" 
d="M329 365q82 0 130 -52t48 -132q0 -87 -60.5 -138.5t-159.5 -51.5q-115 0 -173 62.5t-58 182.5v216h153v-128q38 41 120 41zM287 108q30 0 48.5 20.5t18.5 51.5q0 30 -18.5 49.5t-48.5 19.5q-32 0 -50.5 -20t-18.5 -49q0 -32 19 -52t50 -20z" />
    <glyph glyph-name="uni044A.loclBGR" horiz-adv-x="624" 
d="M416 365q82 0 130 -52t48 -132q0 -87 -60.5 -138.5t-159.5 -51.5q-115 0 -173 62.5t-58 182.5v99h-123v117h276v-128q38 41 120 41zM374 108q30 0 48.5 20.5t18.5 51.5q0 30 -18.5 49.5t-48.5 19.5q-32 0 -50.5 -20t-18.5 -49q0 -32 19 -52t50 -20z" />
    <glyph glyph-name="xi.ss02" horiz-adv-x="429" 
d="M294 109q71 -18 101 -47.5t30 -80.5q0 -58 -53 -117h-131q34 43 34 73q0 24 -18 38t-68 25q-81 18 -117.5 61t-36.5 122q0 61 37 104.5t101 54.5q-41 11 -64 41t-23 71q0 65 48 92h-99v117h374v-117h-65q-56 0 -83 -16.5t-27 -59.5q0 -36 24.5 -58.5t71.5 -22.5h32v-116
h-52q-117 0 -117 -76q0 -37 23.5 -56t77.5 -32z" />
    <glyph glyph-name="zero.tf" 
d="M302 -10q-119 0 -190 95t-71 240q0 141 71 237t190 96t190.5 -96.5t71.5 -236.5q0 -143 -72 -239t-190 -96zM302 124q101 0 101 201t-101 201q-50 0 -75 -53t-25 -148t25 -148t75 -53z" />
    <glyph glyph-name="one.tf" 
d="M264 0v467l-139 -64v129l284 126h10v-658h-155z" />
    <glyph glyph-name="two.tf" 
d="M79 0v10l193 261q77 103 77 165q0 43 -25 66.5t-65 23.5q-43 0 -86.5 -23.5t-64.5 -42.5v147q69 51 173 51q110 0 169 -57.5t59 -156.5q0 -58 -22.5 -102t-92.5 -138l-56 -75h182v-129h-441z" />
    <glyph glyph-name="three.tf" 
d="M387 389q17 -2 36.5 -9.5t46.5 -25t44.5 -55.5t17.5 -91q0 -106 -70 -162t-184 -56q-51 0 -100 11.5t-75 27.5v146q81 -52 161 -52q108 0 108 89q0 41 -25 66t-75 25q-53 0 -97 -33l-10 8l132 242h-188v128h413v-10z" />
    <glyph glyph-name="four.tf" 
d="M320 0v97h-317v10l451 551h10v-450h86v-111h-86v-97h-144zM235 208h85v103z" />
    <glyph glyph-name="five.tf" 
d="M264 -10q-110 0 -173 40v146q64 -53 155 -53q110 0 110 93q0 45 -30.5 66t-76.5 21q-75 0 -122 -52l-11 3l53 394h310v-128h-182l-14 -110q18 7 45 7q82 0 135 -51t53 -147q0 -116 -66 -172.5t-186 -56.5z" />
    <glyph glyph-name="six.tf" 
d="M346 428q80 0 140 -52.5t60 -156.5q0 -105 -66 -167t-176 -62q-112 0 -182 68.5t-70 185.5q0 121 73 237t171 167h219q-88 -48 -172 -120.5t-112 -135.5q44 36 115 36zM302 122q36 0 62 25t26 67t-25.5 65t-62.5 23t-63.5 -23t-26.5 -65t27 -67t63 -25z" />
    <glyph glyph-name="seven.tf" 
d="M168 0q8 114 55 266.5t114 252.5h-239v129h494v-10q-79 -80 -161 -269.5t-96 -368.5h-167z" />
    <glyph glyph-name="eight.tf" 
d="M303 -10q-105 0 -168 54t-63 148q0 50 23.5 90t63.5 59q-31 13 -51.5 47.5t-20.5 77.5q0 87 62 139.5t153 52.5q90 0 153 -51.5t63 -138.5q0 -42 -19.5 -77t-50.5 -48q85 -38 85 -143q0 -100 -63 -155t-167 -55zM302 402q25 0 44.5 17t19.5 48q0 30 -19 46t-44 16
t-44.5 -16.5t-19.5 -47.5t19 -47t44 -16zM301 120q31 0 54 19.5t23 56.5q0 36 -23 56.5t-52 20.5q-30 0 -53 -20.5t-23 -58.5q0 -36 22 -55t52 -19z" />
    <glyph glyph-name="nine.tf" 
d="M295 658q117 0 184.5 -65.5t67.5 -195.5q0 -247 -240 -397h-204q225 153 271 264q-42 -33 -112 -33q-103 0 -156 59.5t-53 143.5q0 99 65.5 161.5t176.5 62.5zM298 356q36 0 61.5 23t25.5 63q0 43 -26.5 66.5t-61.5 23.5t-61 -24t-26 -64t26 -64t62 -24z" />
    <glyph glyph-name="periodcentered.case" horiz-adv-x="303" 
d="M152 242q-39 0 -64 25t-25 65q0 39 26 64t63 25q38 0 63 -25t25 -65t-25.5 -64.5t-62.5 -24.5z" />
    <glyph glyph-name="bullet.case" horiz-adv-x="440" 
d="M226 211q-53 0 -86.5 33.5t-33.5 86.5q0 51 35 84.5t85 33.5q52 0 85 -33.5t33 -85.5q0 -53 -33.5 -86t-84.5 -33z" />
    <glyph glyph-name="exclamdown.case" horiz-adv-x="317" 
d="M159 657q37 0 62.5 -24.5t25.5 -64.5t-25 -65t-63 -25q-37 0 -63 25t-26 64q0 40 25 65t64 25zM83 429h152l4 -429h-164z" />
    <glyph glyph-name="questiondown.case" horiz-adv-x="436" 
d="M246 479q-38 0 -63 25t-25 65t25.5 64.5t62.5 24.5q39 0 64 -25t25 -65q0 -39 -26 -64t-63 -25zM251 -9q-104 0 -160 51t-56 140q0 72 38.5 117.5t95.5 56.5v74h152v-148q-62 0 -95 -24t-33 -65q0 -73 93 -73q33 0 68.5 15t56.5 35v-135q-54 -44 -160 -44z" />
    <glyph glyph-name="numbersign.tf" 
d="M57 0l37 148h-89l27 102h88l37 148h-91l27 102h91l37 148h128l-37 -148h70l37 148h128l-37 -148h91l-27 -102h-90l-37 -148h91l-27 -102h-91l-37 -148h-128l37 148h-70l-37 -148h-128zM248 250h70l37 148h-70z" />
    <glyph glyph-name="braceleft.case" horiz-adv-x="403" 
d="M261 -95q-89 0 -141.5 42.5t-52.5 114.5q0 40 17.5 75t35 65t17.5 58q0 32 -22 56.5t-58 27.5v23q35 2 57.5 20.5t22.5 49.5q0 28 -35 86.5t-35 109.5q0 71 52.5 114t141.5 43q63 0 114 -19v-114q-40 22 -88 22q-31 0 -49 -15t-18 -41q0 -35 35 -88.5t35 -91.5
q0 -70 -102 -87q37 -5 69.5 -30.5t32.5 -71.5q0 -41 -35 -95t-35 -87q0 -55 67 -55q49 0 88 21v-115q-48 -18 -114 -18z" />
    <glyph glyph-name="braceright.case" horiz-adv-x="402" 
d="M148 -95q-66 0 -114 18v115q39 -21 88 -21q67 0 67 55q0 33 -35 87t-35 95q0 46 32.5 71.5t69.5 30.5q-102 17 -102 87q0 38 35 91.5t35 88.5q0 26 -18 41t-49 15q-48 0 -88 -22v114q51 19 114 19q89 0 141.5 -43t52.5 -114q0 -51 -35 -109.5t-35 -86.5q0 -31 22.5 -49.5
t57.5 -20.5v-23q-36 -3 -58 -27.5t-22 -56.5q0 -28 17.5 -58t35 -65t17.5 -75q0 -72 -52.5 -114.5t-141.5 -42.5z" />
    <glyph glyph-name="bracketleft.case" horiz-adv-x="372" 
d="M70 -95v846h277v-124h-124v-598h124v-124h-277z" />
    <glyph glyph-name="bracketright.case" horiz-adv-x="381" 
d="M34 -95v124h124v598h-124v124h277v-846h-277z" />
    <glyph glyph-name="parenleft.case" horiz-adv-x="376" 
d="M228 -95q-185 153 -185 421t187 425h182q-98 -82 -153 -183.5t-55 -243.5q0 -121 48 -223.5t160 -195.5h-184z" />
    <glyph glyph-name="parenright.case" horiz-adv-x="374" 
d="M-38 -95q112 93 160 195.5t48 223.5q0 142 -55 243.5t-153 183.5h182q187 -157 187 -425t-185 -421h-184z" />
    <glyph glyph-name="emdash.case" horiz-adv-x="799" 
d="M32 270v119h735v-119h-735z" />
    <glyph glyph-name="endash.case" horiz-adv-x="482" 
d="M32 270v119h418v-119h-418z" />
    <glyph glyph-name="hyphen.case" horiz-adv-x="282" 
d="M32 271v117h218v-117h-218z" />
    <glyph glyph-name="uni00AD.case" horiz-adv-x="282" 
d="M32 271v117h218v-117h-218z" />
    <glyph glyph-name="guillemotleft.case" horiz-adv-x="711" 
d="M176 173l-140 157l140 157h175l-146 -157l146 -157h-175zM474 173l-140 157l140 157h175l-146 -157l146 -157h-175z" />
    <glyph glyph-name="guillemotright.case" horiz-adv-x="683" 
d="M62 173l146 158l-146 156h175l140 -157l-140 -157h-175zM360 173l146 158l-146 156h175l140 -157l-140 -157h-175z" />
    <glyph glyph-name="guilsinglleft.case" horiz-adv-x="386" 
d="M174 173l-140 157l140 157h175l-146 -157l146 -157h-175z" />
    <glyph glyph-name="guilsinglright.case" horiz-adv-x="383" 
d="M62 173l146 158l-146 156h175l140 -157l-140 -157h-175z" />
    <glyph glyph-name="cent.ss01" horiz-adv-x="480" 
d="M253 0v92q-88 11 -147 67t-59 157q0 97 55.5 162t150.5 79v91h117v-91q41 -6 74 -21v-125q-20 16 -55.5 29t-72.5 13q-59 0 -95 -32t-36 -98q0 -125 136 -125q67 0 127 45v-127q-26 -14 -78 -23v-93h-117z" />
    <glyph glyph-name="dollar.ss01" horiz-adv-x="542" 
d="M213 -90v94q-93 9 -152 35v137q34 -23 88 -39.5t109 -16.5q95 0 95 61q0 32 -18.5 45t-71.5 29q-103 31 -131 45q-93 55 -96 157q0 160 177 186v105h117v-105q73 -7 115 -26v-139q-75 53 -161 53q-46 0 -69.5 -17t-23.5 -47q0 -29 19.5 -43.5t72.5 -29.5
q40 -11 62.5 -18.5t58 -25.5t55 -37.5t34.5 -52.5t15 -74q0 -69 -41.5 -119t-136.5 -63v-94h-117z" />
    <glyph glyph-name="cent.tf.ss01" 
d="M304 0v92q-88 11 -147 67t-59 157q0 97 55.5 162t150.5 79v91h117v-91q41 -6 74 -21v-125q-20 16 -55.5 29t-72.5 13q-59 0 -95 -32t-36 -98q0 -125 136 -125q67 0 127 45v-127q-26 -14 -78 -23v-93h-117z" />
    <glyph glyph-name="dollar.tf.ss01" 
d="M269 -90v94q-93 9 -152 35v137q34 -23 88 -39.5t109 -16.5q95 0 95 61q0 32 -18.5 45t-71.5 29q-103 31 -131 45q-93 55 -96 157q0 160 177 186v105h117v-105q73 -7 115 -26v-139q-75 53 -161 53q-46 0 -69.5 -17t-23.5 -47q0 -29 19.5 -43.5t72.5 -29.5
q40 -11 62.5 -18.5t58 -25.5t55 -37.5t34.5 -52.5t15 -74q0 -69 -41.5 -119t-136.5 -63v-94h-117z" />
    <glyph glyph-name="cent.tf" 
d="M337 0v90q-98 2 -168.5 58.5t-70.5 167.5q0 107 65.5 173.5t173.5 70.5v88h62v-89q53 -5 96 -23v-125q-52 32 -96 39v-249q47 4 100 42v-127q-36 -20 -100 -25v-91h-62zM337 199v254q-38 -5 -69.5 -36.5t-31.5 -93.5q0 -56 27.5 -88.5t73.5 -35.5z" />
    <glyph glyph-name="dollar.tf" 
d="M295 -90v92q-110 6 -179 37v137q28 -20 79 -35.5t100 -19.5v140q-52 15 -83.5 28t-62 35.5t-44 55.5t-13.5 80q0 83 53 131t150 56v101h62v-102q98 -8 143 -29v-139q-64 41 -143 50v-139q29 -9 49 -16t52.5 -24t53 -36t36 -50.5t15.5 -68.5q0 -180 -206 -192v-92h-62z
M295 407v120q-52 -10 -52 -61q0 -41 52 -59zM357 121q54 9 54 60q0 45 -54 62v-122z" />
    <glyph glyph-name="Euro.tf" 
d="M402 -10q-123 0 -205.5 50t-104.5 149h-81v101h69q-2 14 -2 35q0 16 2 30h-69v101h85q24 89 105.5 145.5t208.5 56.5q49 0 98 -8t71 -19v-138q-76 36 -157 36q-59 0 -102.5 -21t-60.5 -52h183v-101h-201q-2 -14 -2 -34q0 -19 2 -31h201v-101h-184q35 -68 169 -68
q97 0 157 28v-132q-21 -10 -75 -18.5t-107 -8.5z" />
    <glyph glyph-name="florin.tf" 
d="M102 -207q-48 0 -74 12v125q21 -9 48 -9q24 0 39.5 5.5t24 20.5t12.5 29t9 43l42 237h-69v125h91l15 85q16 92 66 142t148 50q51 0 80 -11v-131q-21 13 -56 13q-38 0 -56 -18.5t-25 -58.5l-12 -71h103v-125h-125l-48 -271q-7 -38 -16.5 -65t-31.5 -59.5t-63.5 -50
t-101.5 -17.5z" />
    <glyph glyph-name="uni20B4.tf" 
d="M539 360h-94q-21 -20 -86 -65h180v-96l-273 1q-3 -12 -3 -25q0 -63 98 -63q68 0 145 53v-140q-79 -35 -174 -35q-110 0 -169.5 43t-59.5 120q0 26 6 47h-43v96h105q22 19 89 65h-194v96l279 -1q2 14 2 20q0 27 -25 43.5t-71 16.5q-65 0 -136 -44v139q65 27 171 27
q105 0 163 -41.5t58 -118.5q0 -20 -5 -42h37v-96z" />
    <glyph glyph-name="uni20BD.tf" 
d="M297 213h-35v-55h110v-101h-110v-57h-158v57h-85v101h85v55h-85v101h85v334h205q34 0 62 -2.5t62.5 -10t60.5 -23t49 -38.5t35 -60t12 -84q0 -217 -293 -217zM427 429q0 32 -13 52.5t-36.5 29t-44.5 11.5t-49 3h-22v-198h21q144 0 144 102z" />
    <glyph glyph-name="sterling.tf" 
d="M91 0v10q64 79 95.5 130t31.5 91q0 10 -4 24h-113v125h58q-23 39 -23 85q0 86 60.5 139.5t160.5 53.5q98 0 155 -41v-142q-15 16 -55.5 34t-78.5 18q-40 0 -62 -21t-22 -52q0 -33 27 -74h145v-125h-96q3 -11 3 -23q0 -55 -42 -103h196v-129h-436z" />
    <glyph glyph-name="yen.tf" 
d="M226 0v137h-145v112h150l-34 65h-130v112h60l-121 222h175l126 -274l124 274h169l-121 -222h56v-112h-128l-34 -65h148v-112h-142v-137h-153z" />
    <glyph glyph-name="at.case" horiz-adv-x="1010" 
d="M509 -105q-206 0 -336 117.5t-130 319.5q0 207 135.5 327.5t340.5 120.5q123 0 223.5 -44t162.5 -134t62 -212q0 -125 -65.5 -195t-170.5 -70q-46 0 -85.5 16.5t-54.5 50.5q-20 -35 -57.5 -51t-73.5 -16q-73 0 -124.5 47t-51.5 144q0 89 53.5 152.5t141.5 63.5
q81 0 110 -59l7 47h114l-14 -129q-8 -66 -8 -89q0 -68 55 -68q39 0 61 32.5t22 95.5q0 147 -87.5 224.5t-221.5 77.5q-150 0 -240.5 -93t-90.5 -242q0 -146 88.5 -230.5t239.5 -84.5q92 0 181 28t144 61v-130q-12 -9 -53.5 -26t-120.5 -34.5t-156 -17.5zM483 240
q34 0 53.5 27.5t19.5 69.5q0 37 -16 58.5t-44 21.5q-33 0 -53.5 -28t-20.5 -71q0 -37 16.5 -57.5t44.5 -20.5z" />
    <glyph glyph-name="uni0308.case" horiz-adv-x="0" 
d="M-369 708q-39 0 -63 24t-24 61t24 61t63 24q38 0 62 -24t24 -61t-24 -61t-62 -24zM-140 708q-38 0 -62.5 24t-24.5 61t24.5 61t62.5 24q39 0 63 -24t24 -61t-24 -61t-63 -24z" />
    <glyph glyph-name="uni0307.case" horiz-adv-x="0" 
d="M-259 707q-40 0 -64.5 24.5t-24.5 62.5q0 37 26 62t63 25q38 0 63 -25t25 -63t-25.5 -62t-62.5 -24z" />
    <glyph glyph-name="gravecomb.case" horiz-adv-x="0" 
d="M-243 705l-176 171h204l123 -171h-151z" />
    <glyph glyph-name="acutecomb.case" horiz-adv-x="0" 
d="M-417 705l123 171h202l-176 -171h-149z" />
    <glyph glyph-name="uni030B.case" horiz-adv-x="0" 
d="M-550 705l139 171h204l-191 -171h-152zM-291 705l138 171h204l-191 -171h-151z" />
    <glyph glyph-name="uni0302.case" horiz-adv-x="0" 
d="M-442 705l187 180l187 -180h-145l-42 46l-42 -46h-145z" />
    <glyph glyph-name="uni030C.case" horiz-adv-x="0" 
d="M-255 696l-187 180h145l42 -46l42 46h145z" />
    <glyph glyph-name="uni0306.case" horiz-adv-x="0" 
d="M-256 696q-176 0 -176 162v18h112q0 -64 64 -64t64 64h112v-18q0 -162 -176 -162z" />
    <glyph glyph-name="uni030A.case" horiz-adv-x="0" 
d="M-259 690q-45 0 -77.5 31t-32.5 72t32.5 72t77.5 31t77.5 -31t32.5 -72t-32.5 -72t-77.5 -31zM-259 759q14 0 24 10t10 25t-10 24.5t-24 9.5t-24 -9.5t-10 -24.5t10 -25t24 -10z" />
    <glyph glyph-name="tildecomb.case" horiz-adv-x="0" 
d="M-188 716q-32 0 -75 18t-52 18q-29 0 -29 -31h-92q0 54 29.5 94t84.5 40q33 0 75.5 -18t53.5 -18q15 0 21.5 10t6.5 21h93q0 -52 -30.5 -93t-85.5 -41z" />
    <glyph glyph-name="uni0304.case" horiz-adv-x="0" 
d="M-415 736v117h316v-117h-316z" />
    <glyph glyph-name="acutecomb.loclPLK" horiz-adv-x="0" 
d="M-381 520l83 171h178l-119 -171h-142z" />
    <glyph glyph-name="acutecomb.case.loclPLK" horiz-adv-x="0" 
d="M-358 705l83 171h178l-119 -171h-142z" />
    <glyph glyph-name="acute.case" horiz-adv-x="512" 
d="M100 705l123 171h202l-176 -171h-149z" />
    <glyph glyph-name="breve.case" horiz-adv-x="511" 
d="M259 696q-176 0 -176 162v18h112q0 -64 64 -64t64 64h112v-18q0 -162 -176 -162z" />
    <glyph glyph-name="caron.case" horiz-adv-x="509" 
d="M257 696l-187 180h145l42 -46l42 46h145z" />
    <glyph glyph-name="circumflex.case" horiz-adv-x="509" 
d="M70 705l187 180l187 -180h-145l-42 46l-42 -46h-145z" />
    <glyph glyph-name="dieresis.case" horiz-adv-x="508" 
d="M143 708q-39 0 -63 24t-24 61t24 61t63 24q38 0 62 -24t24 -61t-24 -61t-62 -24zM372 708q-38 0 -62.5 24t-24.5 61t24.5 61t62.5 24q39 0 63 -24t24 -61t-24 -61t-63 -24z" />
    <glyph glyph-name="dotaccent.case" horiz-adv-x="520" 
d="M269 707q-40 0 -64.5 24.5t-24.5 62.5q0 37 26 62t63 25q38 0 63 -25t25 -63t-25.5 -62t-62.5 -24z" />
    <glyph glyph-name="grave.case" horiz-adv-x="512" 
d="M273 705l-176 171h204l123 -171h-151z" />
    <glyph glyph-name="hungarumlaut.case" horiz-adv-x="498" 
d="M-54 705l139 171h204l-191 -171h-152zM205 705l138 171h204l-191 -171h-151z" />
    <glyph glyph-name="macron.case" horiz-adv-x="512" 
d="M103 736v117h316v-117h-316z" />
    <glyph glyph-name="ring.case" horiz-adv-x="517" 
d="M265 690q-45 0 -77.5 31t-32.5 72t32.5 72t77.5 31t77.5 -31t32.5 -72t-32.5 -72t-77.5 -31zM265 759q14 0 24 10t10 25t-10 24.5t-24 9.5t-24 -9.5t-10 -24.5t10 -25t24 -10z" />
    <glyph glyph-name="tilde.case" horiz-adv-x="510" 
d="M326 716q-32 0 -75 18t-52 18q-29 0 -29 -31h-92q0 54 29.5 94t84.5 40q33 0 75.5 -18t53.5 -18q15 0 21.5 10t6.5 21h93q0 -52 -30.5 -93t-85.5 -41z" />
    <glyph glyph-name="acute.loclPLK" horiz-adv-x="446" 
d="M141 520l83 171h178l-119 -171h-142z" />
    <glyph glyph-name="acute.case.loclPLK" horiz-adv-x="446" 
d="M166 705l83 171h178l-119 -171h-142z" />
    <glyph glyph-name="tonos.case" horiz-adv-x="516" 
d="M134 477l68 171h155l-104 -171h-119z" />
    <glyph glyph-name="brevecombcy.case" horiz-adv-x="0" 
d="M-256 686q-95 0 -138.5 44t-43.5 118v18h118q0 -84 64 -84t64 84h118v-18q0 -73 -44 -117.5t-138 -44.5z" />
    <glyph glyph-name="brevecombcy" horiz-adv-x="0" 
d="M-256 500q-91 0 -132 44t-41 118v13h115v-4q0 -81 58 -81t58 81v4h115v-13q0 -74 -41.5 -118t-131.5 -44z" />
    <glyph glyph-name="brevecy" horiz-adv-x="511" 
d="M255 500q-91 0 -132 44t-41 118v13h115v-4q0 -81 58 -81t58 81v4h115v-13q0 -74 -41.5 -118t-131.5 -44z" />
    <glyph glyph-name="brevecy.case" horiz-adv-x="511" 
d="M255 686q-95 0 -138.5 44t-43.5 118v18h118q0 -84 64 -84t64 84h118v-18q0 -73 -44 -117.5t-138 -44.5z" />
    </font>
</defs>
</svg>
