<?xml version="1.0" standalone="no"?>
<!DOCTYPE svg PUBLIC "-//W3C//DTD SVG 1.1//EN" "http://www.w3.org/Graphics/SVG/1.1/DTD/svg11.dtd" >
<svg>
<metadata>
Created by FontForge 20090622 at Thu Jul 30 18:30:50 2020
 By deploy user
Nespresso Lucas is a licensed version of FS Lucas, Copyright (c) 2016. All rights reserved. This font may not be altered in any way without prior permission of Fontsmith Ltd.
</metadata>
<defs>
<font id="NespressoLucas-Regular" horiz-adv-x="594" >
  <font-face 
    font-family="Nespresso Lucas"
    font-weight="400"
    font-stretch="normal"
    units-per-em="1000"
    panose-1="2 11 6 3 6 3 2 3 2 3"
    ascent="740"
    descent="-260"
    x-height="448"
    cap-height="648"
    bbox="-452 -208 1154 896"
    underline-thickness="57"
    underline-position="-44"
    unicode-range="U+000D-U+FB02"
  />
<missing-glyph horiz-adv-x="682" 
d="M89 -207v855h504v-855h-504zM341 250l206 370h-412zM119 -145l207 366l-207 365v-731zM563 -145v731l-207 -365zM135 -178h412l-206 375z" />
    <glyph glyph-name="fi" unicode="fi" horiz-adv-x="558" 
d="M110 0v391h-76v57h76v44q0 184 152 184q34 0 55 -8v-61q-19 8 -44 8q-47 0 -70 -29t-23 -95v-43h305v-448h-70v391h-235v-391h-70zM450 564q-20 0 -33 13t-13 33t13 32.5t33 12.5q19 0 32 -12.5t13 -33.5q0 -20 -13 -32.5t-32 -12.5z" />
    <glyph glyph-name="fl" unicode="fl" horiz-adv-x="558" 
d="M110 0v391h-76v57h76v44q0 184 152 184q34 0 55 -8v-61q-19 8 -44 8q-47 0 -70 -29t-23 -95v-43h128v-57h-128v-391h-70zM415 0v661h70v-661h-70z" />
    <glyph glyph-name="f_f.liga" unicode="ff" horiz-adv-x="652" 
d="M110 0v391h-76v57h76v36q0 92 37 138t119 46q42 0 69 -11v-61q-27 11 -59 11q-49 0 -72.5 -28.5t-23.5 -95.5v-35h235v44q0 92 39 138t124 46q54 0 88 -16v-62q-38 17 -81 17q-54 0 -77 -30.5t-23 -97.5v-39h133v-57h-133v-391h-70v391h-235v-391h-70z" />
    <glyph glyph-name="f_f_i.liga" unicode="ffi" horiz-adv-x="863" 
d="M110 0v391h-76v57h76v36q0 92 37 138t119 46q39 0 62 -10v-60q-22 9 -52 9q-49 0 -72.5 -28.5t-23.5 -95.5v-35h235v44q0 90 36.5 137t117.5 47q33 0 57 -8v-61q-24 8 -45 8q-49 0 -72.5 -28.5t-23.5 -95.5v-43h304v-448h-70v391h-234v-391h-70v391h-235v-391h-70z
M754 564q-20 0 -33 13t-13 33t13.5 32.5t32.5 12.5q20 0 33 -12.5t13 -33.5q0 -20 -13.5 -32.5t-32.5 -12.5z" />
    <glyph glyph-name="f_f_j.liga" unicode="ffj" horiz-adv-x="866" 
d="M633 -207q-43 0 -78 13v61q32 -15 68 -15q56 0 76 34t20 97v408h-234v-391h-70v391h-235v-391h-70v391h-76v57h76v36q0 92 37 138t119 46q39 0 62 -10v-60q-22 9 -52 9q-49 0 -72.5 -28.5t-23.5 -95.5v-35h235v44q0 90 36.5 137t117.5 47q33 0 57 -8v-61q-24 8 -45 8
q-49 0 -72.5 -28.5t-23.5 -95.5v-43h304v-461q0 -93 -35 -143.5t-121 -50.5zM754 560q-22 0 -35.5 14t-13.5 36q0 21 14 35t35 14t35 -14t14 -36q0 -21 -14 -35t-35 -14z" />
    <glyph glyph-name="f_f_l.liga" unicode="ffl" horiz-adv-x="863" 
d="M110 0v391h-76v57h76v36q0 92 37 138t119 46q39 0 62 -10v-60q-22 9 -52 9q-49 0 -72.5 -28.5t-23.5 -95.5v-35h235v44q0 90 36.5 137t117.5 47q33 0 57 -8v-61q-24 8 -45 8q-49 0 -72.5 -28.5t-23.5 -95.5v-43h127v-57h-127v-391h-70v391h-235v-391h-70zM719 0v663h70
v-663h-70z" />
    <glyph glyph-name="f_f_t.liga" unicode="fft" horiz-adv-x="984" 
d="M110 0v391h-76v57h76v36q0 92 37 138t119 46q39 0 62 -10v-60q-22 9 -52 9q-49 0 -72.5 -28.5t-23.5 -95.5v-35h235v44q0 184 154 184q33 0 57 -8v-61q-24 8 -45 8q-50 0 -73 -28.5t-23 -100.5v-38h113v-57h-113v-391h-70v391h-235v-391h-70zM852 -9q-72 0 -102 37
t-30 107v256h-54v8q71 69 116 163h8v-114h131v-57h-131v-244q0 -50 15 -73t61 -23q37 0 73 15v-60q-32 -15 -87 -15z" />
    <glyph glyph-name="f_j.liga" unicode="fj" horiz-adv-x="558" 
d="M329 -207q-42 0 -79 13v61q32 -15 68 -15q56 0 76.5 34t20.5 97v408h-235v-391h-70v391h-76v57h76v44q0 184 152 184q34 0 55 -8v-61q-19 8 -44 8q-47 0 -70 -29t-23 -95v-43h305v-461q0 -93 -35 -143.5t-121 -50.5zM450 564q-20 0 -33 13t-13 33t13 32.5t33 12.5
q19 0 32 -12.5t13 -33.5q0 -20 -13 -32.5t-32 -12.5z" />
    <glyph glyph-name="f_t.liga" unicode="ft" horiz-adv-x="678" 
d="M110 0v391h-76v57h76v44q0 90 36.5 137t117.5 47q33 0 57 -8v-61q-24 8 -45 8q-49 0 -72.5 -29t-23.5 -95v-43h113v-57h-113v-391h-70zM547 -9q-72 0 -102 37t-30 107v256h-55v8q72 69 116 163h9v-114h130v-57h-130v-244q0 -50 15 -73t60 -23q37 0 73 15v-60
q-32 -15 -86 -15z" />
    <glyph glyph-name="t_t.liga" unicode="tt" horiz-adv-x="692" 
d="M232 -9q-73 0 -103 37t-30 107v256h-69v9q35 27 72.5 74t57.5 88h9v-114h131v-57h-131v-244q0 -50 15 -73t61 -23q37 0 73 15v-60q-32 -15 -86 -15zM560 -9q-72 0 -102 37t-30 107v256h-70v9q35 27 73 74t58 88h9v-114h131v-57h-131v-244q0 -50 15 -73t61 -23q37 0 73 15
v-60q-32 -15 -87 -15z" />
    <glyph glyph-name=".notdef" horiz-adv-x="682" 
d="M89 -207v855h504v-855h-504zM341 250l206 370h-412zM119 -145l207 366l-207 365v-731zM563 -145v731l-207 -365zM135 -178h412l-206 375z" />
    <glyph glyph-name=".null" horiz-adv-x="0" 
 />
    <glyph glyph-name="nonmarkingreturn" horiz-adv-x="333" 
 />
    <glyph glyph-name="CR" unicode="&#xd;" horiz-adv-x="210" 
 />
    <glyph glyph-name="space" unicode=" " horiz-adv-x="210" 
 />
    <glyph glyph-name="exclam" unicode="!" horiz-adv-x="274" 
d="M103 176l-3 472h75l-3 -472h-69zM137 -9q-22 0 -35 14t-13 36q0 21 14 35t34 14q21 0 34.5 -14t13.5 -36t-13.5 -35.5t-34.5 -13.5z" />
    <glyph glyph-name="quotedbl" unicode="&#x22;" horiz-adv-x="385" 
d="M98 450l-9 198h75l-9 -198h-57zM230 450l-9 198h75l-9 -198h-57z" />
    <glyph glyph-name="numbersign" unicode="#" horiz-adv-x="568" 
d="M55 0l45 177h-91l15 56h89l48 182h-91l14 56h90l45 177h68l-44 -177h156l45 177h68l-44 -177h91l-15 -56h-90l-47 -182h91l-15 -56h-90l-45 -177h-68l45 177h-157l-45 -177h-68zM182 233h156l48 182h-157z" />
    <glyph glyph-name="dollar" unicode="$" horiz-adv-x="509" 
d="M236 -90v91q-110 3 -172 38v69q69 -44 172 -47v240q-43 14 -69 26t-53.5 32.5t-40.5 50.5t-13 71q0 75 47 117t129 49v101h44v-101q82 -4 140 -34v-71q-66 42 -140 46v-227q31 -11 51 -19.5t47 -24.5t43 -34t27.5 -46.5t11.5 -62.5q0 -86 -50 -126.5t-130 -46.5v-91h-44z
M236 373v215q-47 -5 -75.5 -31.5t-28.5 -71.5q0 -44 26.5 -68.5t77.5 -43.5zM280 62q51 5 79 33t28 74t-27.5 73t-79.5 46v-226z" />
    <glyph glyph-name="percent" unicode="%" horiz-adv-x="821" 
d="M198 351q-66 0 -109 41.5t-43 111.5q0 71 44 112.5t108 41.5q65 0 109 -40.5t44 -112.5q0 -71 -43 -112.5t-110 -41.5zM195 0l360 648h72l-360 -648h-72zM198 402q43 0 70.5 27.5t27.5 75.5q0 49 -28 76t-70 27q-41 0 -69 -28t-28 -76q0 -47 27.5 -74.5t69.5 -27.5z
M623 -10q-67 0 -110 41.5t-43 111.5q0 71 44 112.5t109 41.5q66 0 109.5 -40t43.5 -113q0 -71 -43 -112.5t-110 -41.5zM623 41q43 0 70 27.5t27 75.5q0 50 -27.5 76.5t-69.5 26.5q-41 0 -69 -27.5t-28 -75.5t27.5 -75.5t69.5 -27.5z" />
    <glyph glyph-name="ampersand" unicode="&#x26;" horiz-adv-x="694" 
d="M664 36l-42 -48l-83 75q-80 -72 -208 -72q-116 0 -192 61t-76 163q0 64 30.5 111.5t74.5 70.5q-38 46 -38 105q0 69 49.5 112.5t129.5 43.5q67 0 113 -28v-66q-45 33 -109 33q-49 0 -78.5 -25t-29.5 -70q0 -35 19 -64.5t63 -67.5l244 -215q16 32 16 78q0 58 -31.5 101.5
t-87.5 60.5l44 43q61 -17 102 -71.5t41 -132.5q0 -71 -35 -124zM138 223q0 -77 55.5 -123.5t143.5 -46.5q97 0 154 52l-283 251q-29 -18 -49.5 -52.5t-20.5 -80.5z" />
    <glyph glyph-name="quotesingle" unicode="'" horiz-adv-x="253" 
d="M98 450l-9 198h75l-9 -198h-57z" />
    <glyph glyph-name="parenleft" unicode="(" horiz-adv-x="302" 
d="M233 -198q-190 157 -190 421t192 425h90q-98 -82 -152.5 -183.5t-54.5 -243.5q0 -122 47.5 -224t159.5 -195h-92z" />
    <glyph glyph-name="parenright" unicode=")" horiz-adv-x="302" 
d="M-23 -198q111 93 158.5 195t47.5 224q0 142 -54.5 244t-151.5 183h90q192 -161 192 -425t-190 -421h-92z" />
    <glyph glyph-name="asterisk" unicode="*" horiz-adv-x="362" 
d="M156 350l6 118l-98 -65l-25 43l105 53l-105 53l25 43l98 -65l-6 118h50l-6 -118l98 65l24 -43l-105 -53l105 -53l-24 -43l-98 65l6 -118h-50z" />
    <glyph glyph-name="plus" unicode="+" 
d="M265 20v177h-172v58h172v175h64v-175h172v-58h-172v-177h-64z" />
    <glyph glyph-name="comma" unicode="," horiz-adv-x="243" 
d="M111 90q26 0 42 -19t16 -54t-19 -72.5t-49 -60.5h-48q24 24 39 54.5t17 53.5q-23 -1 -37 12t-14 35q0 23 15 37t38 14z" />
    <glyph glyph-name="hyphen" unicode="-" horiz-adv-x="269" 
d="M43 215v57h183v-57h-183z" />
    <glyph glyph-name="period" unicode="." horiz-adv-x="245" 
d="M123 -9q-22 0 -35.5 14t-13.5 36q0 21 14.5 35t34.5 14q21 0 34.5 -14t13.5 -36t-13.5 -35.5t-34.5 -13.5z" />
    <glyph glyph-name="slash" unicode="/" horiz-adv-x="368" 
d="M0 -198l285 846h72l-285 -846h-72z" />
    <glyph glyph-name="zero" unicode="0" 
d="M297 -10q-117 0 -180.5 95t-63.5 240q0 144 63.5 238.5t180.5 94.5t180.5 -94.5t63.5 -238.5q0 -145 -64 -240t-180 -95zM297 56q81 0 125 72.5t44 196.5q0 123 -43.5 196t-125.5 73q-81 0 -125 -73t-44 -196t44.5 -196t124.5 -73z" />
    <glyph glyph-name="one" unicode="1" horiz-adv-x="415" 
d="M210 0v566l-151 -69v65l214 96h8v-658h-71z" />
    <glyph glyph-name="two" unicode="2" horiz-adv-x="517" 
d="M49 0v8l218 263q56 67 79.5 111t23.5 90q0 55 -32.5 88.5t-98.5 33.5q-79 0 -158 -60v73q67 51 166 51q97 0 147 -49.5t50 -136.5q0 -56 -25 -105.5t-93 -129.5l-148 -174h277v-63h-406z" />
    <glyph glyph-name="three" unicode="3" horiz-adv-x="527" 
d="M289 387q79 0 128 -51.5t49 -139.5q0 -101 -63 -153.5t-170 -52.5q-54 0 -100 11.5t-67 27.5v75q61 -48 161 -48q78 0 121 35.5t43 105.5q0 69 -38.5 105t-105.5 36q-62 0 -103 -31l-8 8l201 271h-263v62h382v-8l-188 -255q7 2 21 2z" />
    <glyph glyph-name="four" unicode="4" horiz-adv-x="553" 
d="M358 0v126h-337v8l398 524h7v-475h91v-57h-91v-126h-68zM131 183h227v301z" />
    <glyph glyph-name="five" unicode="5" horiz-adv-x="527" 
d="M233 -10q-110 0 -167 39v75q58 -48 160 -48q79 0 122 39t43 111q0 68 -39 105t-108 37q-90 0 -145 -63l-9 3l50 360h289v-62h-229l-28 -202q44 27 100 27q87 0 140.5 -51.5t53.5 -150.5q0 -108 -60.5 -163.5t-172.5 -55.5z" />
    <glyph glyph-name="six" unicode="6" horiz-adv-x="565" 
d="M301 420q89 0 147.5 -54.5t58.5 -154.5q0 -97 -59 -159t-164 -62t-165 63.5t-60 180.5q0 120 65.5 236t167.5 178h111q-81 -46 -152.5 -126t-97.5 -167q45 65 148 65zM284 54q68 0 108.5 42t40.5 110t-41 109.5t-108 41.5q-66 0 -108 -42.5t-42 -108.5q0 -67 41 -109.5
t109 -42.5z" />
    <glyph glyph-name="seven" unicode="7" horiz-adv-x="543" 
d="M174 0q12 168 71 325t145 260h-331v63h458v-8q-111 -107 -182 -284t-85 -356h-76z" />
    <glyph glyph-name="eight" unicode="8" horiz-adv-x="571" 
d="M286 -10q-97 0 -152.5 51.5t-55.5 134.5q0 61 29.5 104.5t74.5 58.5q-36 13 -61.5 49.5t-25.5 93.5q0 80 52 128t139 48q85 0 137.5 -47.5t52.5 -128.5q0 -58 -26 -93.5t-63 -48.5q46 -14 76 -56t30 -108q0 -82 -54.5 -134t-152.5 -52zM286 366q54 0 85 30t31 84
q0 51 -31.5 82.5t-84.5 31.5q-52 0 -84.5 -32t-32.5 -82q0 -54 31 -84t86 -30zM286 55q61 0 96.5 35t35.5 91q0 57 -35.5 90.5t-96.5 33.5q-60 0 -96.5 -33.5t-36.5 -90.5t35.5 -91.5t97.5 -34.5z" />
    <glyph glyph-name="nine" unicode="9" horiz-adv-x="561" 
d="M278 658q107 0 165.5 -62.5t58.5 -180.5q0 -117 -61.5 -226t-170.5 -189h-105q90 65 157 142.5t92 152.5q-48 -63 -147 -63q-94 0 -153 56t-59 151q0 96 59 157.5t164 61.5zM278 296q68 0 107.5 40t39.5 108t-40 109t-106 41q-69 0 -109 -40.5t-40 -110.5q0 -69 41 -108
t107 -39z" />
    <glyph glyph-name="colon" unicode=":" horiz-adv-x="245" 
d="M123 298q-22 0 -35.5 14t-13.5 36q0 21 14.5 35t34.5 14q21 0 34.5 -14t13.5 -36t-13.5 -35.5t-34.5 -13.5zM123 -9q-22 0 -35.5 14t-13.5 36q0 21 14.5 35t34.5 14q21 0 34.5 -14t13.5 -36t-13.5 -35.5t-34.5 -13.5z" />
    <glyph glyph-name="semicolon" unicode=";" horiz-adv-x="238" 
d="M122 298q-22 0 -35.5 14t-13.5 36q0 21 14.5 35t34.5 14q21 0 34.5 -14t13.5 -36t-13.5 -35.5t-34.5 -13.5zM114 90q27 0 43 -19t16 -54t-19.5 -72.5t-49.5 -60.5h-47q24 24 39 54.5t17 53.5q-22 -2 -37 11.5t-15 35.5q0 23 15 37t38 14z" />
    <glyph glyph-name="less" unicode="&#x3c;" 
d="M500 8l-407 213v10l407 213v-69l-294 -148l294 -148v-71z" />
    <glyph glyph-name="equal" unicode="=" 
d="M93 285v58h408v-58h-408zM93 109v58h408v-58h-408z" />
    <glyph glyph-name="greater" unicode="&#x3e;" 
d="M93 8v69l295 148l-295 148v71l407 -213v-10z" />
    <glyph glyph-name="question" unicode="?" horiz-adv-x="444" 
d="M155 176v166q76 2 123 34t47 99q0 59 -38.5 89.5t-99.5 30.5q-46 0 -88 -17t-61 -35v73q56 42 155 42q93 0 149 -47t56 -134q0 -83 -50 -128t-123 -51v-122h-70zM189 -9q-21 0 -34.5 14t-13.5 35q0 22 14.5 36t34.5 14q21 0 34.5 -14t13.5 -36t-13.5 -35.5t-35.5 -13.5z
" />
    <glyph glyph-name="at" unicode="@" horiz-adv-x="997" 
d="M512 -207q-205 0 -330.5 117.5t-125.5 322.5q0 206 130 325.5t329 119.5q117 0 212.5 -44t154.5 -134.5t59 -212.5q0 -125 -57 -194.5t-152 -69.5q-50 0 -80 21t-38 53q-20 -36 -59.5 -55t-84.5 -19q-78 0 -125 52t-47 140q0 90 50.5 152.5t139.5 62.5q103 0 139 -84
l9 72h58l-21 -186q-8 -66 -8 -85q0 -68 73 -68q63 0 99.5 52t36.5 141q0 86 -30.5 154.5t-82 109.5t-114.5 62.5t-133 21.5q-169 0 -280 -106t-111 -284t109 -277.5t282 -99.5q94 0 178 28t131 56v-66q-15 -10 -52 -26t-111.5 -34t-147.5 -18zM479 81q62 0 96.5 44.5
t34.5 114.5q0 59 -28.5 96.5t-84.5 37.5q-62 0 -98 -45t-36 -115q0 -63 31 -98t85 -35z" />
    <glyph glyph-name="A" unicode="A" horiz-adv-x="647" 
d="M26 0l293 658h10l293 -658h-79l-61 142h-318l-62 -142h-76zM189 204h268l-133 311z" />
    <glyph glyph-name="B" unicode="B" horiz-adv-x="589" 
d="M409 341q56 -9 93.5 -48t37.5 -113q0 -180 -239 -180h-212v648h158q55 0 94.5 -6t78.5 -22.5t59.5 -52.5t20.5 -90q0 -58 -26.5 -91.5t-64.5 -44.5zM426 474q0 37 -15 61t-43.5 34.5t-55.5 14t-66 3.5h-84v-227h89q30 0 50.5 1.5t46 8t41 18t26.5 33.5t11 53zM300 63
q166 0 166 120q0 117 -161 117h-143v-237h138z" />
    <glyph glyph-name="C" unicode="C" horiz-adv-x="634" 
d="M378 -10q-151 0 -236.5 91.5t-85.5 241.5t85 242.5t235 92.5q60 0 110 -14.5t74 -32.5v-75q-80 55 -180 55q-116 0 -183 -72.5t-67 -193.5q0 -125 70.5 -196t184.5 -71q109 0 185 54v-76q-24 -17 -76.5 -31.5t-115.5 -14.5z" />
    <glyph glyph-name="D" unicode="D" horiz-adv-x="677" 
d="M218 648q67 0 117 -5t107 -24t93.5 -52t61 -92.5t24.5 -142.5q0 -82 -24 -143.5t-61.5 -96.5t-92 -56.5t-106 -28.5t-113.5 -7h-135v648h129zM216 63q58 0 103.5 6.5t89.5 24t73 47t46.5 78t17.5 113.5t-18 112t-46 74t-73 43t-88.5 20.5t-102.5 4.5h-56v-523h54z" />
    <glyph glyph-name="E" unicode="E" horiz-adv-x="506" 
d="M89 0v648h374v-62h-301v-225h223v-61h-223v-237h313v-63h-386z" />
    <glyph glyph-name="F" unicode="F" horiz-adv-x="493" 
d="M89 0v648h376v-62h-303v-237h227v-62h-227v-287h-73z" />
    <glyph glyph-name="G" unicode="G" horiz-adv-x="711" 
d="M379 -10q-154 0 -238.5 92.5t-84.5 240.5q0 156 90.5 245.5t236.5 89.5q52 0 102.5 -12t74 -22.5t32.5 -17.5v-75q-95 60 -204 60q-114 0 -186 -70.5t-72 -196.5q0 -118 66.5 -192t182.5 -74q104 0 156.5 58t56.5 161h-217v63h290v-28q0 -47 -6.5 -88.5t-25.5 -86
t-49.5 -76t-83 -51.5t-121.5 -20z" />
    <glyph glyph-name="H" unicode="H" horiz-adv-x="698" 
d="M89 0v648h73v-287h374v287h73v-648h-73v298h-374v-298h-73z" />
    <glyph glyph-name="I" unicode="I" horiz-adv-x="251" 
d="M89 0v648h73v-648h-73z" />
    <glyph glyph-name="J" unicode="J" horiz-adv-x="465" 
d="M184 -10q-79 0 -125 22v69q44 -25 114 -25q81 0 110.5 41.5t29.5 141.5v348h-169v61h242v-431q0 -116 -46.5 -171.5t-155.5 -55.5z" />
    <glyph glyph-name="K" unicode="K" horiz-adv-x="610" 
d="M89 0v648h73v-313l322 313h97l-332 -318l340 -330h-100l-327 321v-321h-73z" />
    <glyph glyph-name="L" unicode="L" horiz-adv-x="523" 
d="M89 0v648h73v-585h323v-63h-396z" />
    <glyph glyph-name="M" unicode="M" horiz-adv-x="839" 
d="M415 -10l-203 469l-84 -459h-74l128 658h10l228 -522l228 522h10l127 -658h-72l-85 458l-203 -468h-10z" />
    <glyph glyph-name="N" unicode="N" horiz-adv-x="708" 
d="M609 -10l-449 506v-496h-71v658h10l449 -507v497h71v-658h-10z" />
    <glyph glyph-name="O" unicode="O" horiz-adv-x="750" 
d="M374 -10q-148 0 -233 94.5t-85 239.5q0 146 86 240t235 94t233 -93t84 -237q0 -147 -85 -242.5t-235 -95.5zM376 58q111 0 177.5 75t66.5 194q0 116 -67 190t-178 74q-108 0 -176.5 -74t-68.5 -191q0 -116 67.5 -192t178.5 -76z" />
    <glyph glyph-name="P" unicode="P" horiz-adv-x="580" 
d="M280 648q57 0 100 -8.5t81 -29.5t58 -63t20 -104q0 -52 -16.5 -90.5t-41.5 -60.5t-61.5 -35t-70 -17t-74.5 -4h-113v-236h-73v648h191zM271 298q194 0 194 145q0 43 -15 72t-43 44t-60.5 21t-75.5 6h-109v-288h109z" />
    <glyph glyph-name="Q" unicode="Q" horiz-adv-x="750" 
d="M732 25l-39 -48l-108 87q-83 -74 -211 -74q-148 0 -233 94.5t-85 239.5q0 146 86 240t235 94t233 -93t84 -237q0 -132 -67 -220zM130 326q0 -116 67.5 -192t178.5 -76q89 0 153 50l-113 90l39 48l115 -92q50 70 50 173q0 116 -67 190t-178 74q-108 0 -176.5 -74
t-68.5 -191z" />
    <glyph glyph-name="R" unicode="R" horiz-adv-x="593" 
d="M393 257l167 -257h-88l-155 247h-155v-247h-73v648h203q240 0 240 -199q0 -83 -39.5 -130t-99.5 -62zM285 308q172 0 172 140q0 138 -177 138h-118v-278h123z" />
    <glyph glyph-name="S" unicode="S" horiz-adv-x="492" 
d="M235 -10q-95 0 -169 39v76q76 -50 167 -50q135 0 135 112q0 44 -30.5 73.5t-74 47.5t-87 38.5t-74 59.5t-30.5 97q0 81 52 128t143 47q88 0 149 -34v-75q-70 45 -145 45q-56 0 -90.5 -28t-34.5 -79q0 -36 22 -62t55 -39.5t71 -31.5t71 -37t55 -56.5t22 -88.5
q0 -91 -54.5 -136.5t-152.5 -45.5z" />
    <glyph glyph-name="T" unicode="T" horiz-adv-x="543" 
d="M235 0v586h-195v62h463v-62h-195v-586h-73z" />
    <glyph glyph-name="U" unicode="U" horiz-adv-x="653" 
d="M327 -10q-128 0 -188 67t-60 203v388h73v-372q0 -113 40.5 -166t133.5 -53q91 0 133.5 52.5t42.5 166.5v372h72v-387q0 -141 -61.5 -206t-185.5 -65z" />
    <glyph glyph-name="V" unicode="V" horiz-adv-x="657" 
d="M324 -9l-298 657h80l223 -509l223 509h79l-297 -657h-10z" />
    <glyph glyph-name="W" unicode="W" horiz-adv-x="930" 
d="M276 -9l-242 657h80l169 -488l177 488h10l177 -488l171 488h78l-241 -657h-10l-180 493l-179 -493h-10z" />
    <glyph glyph-name="X" unicode="X" horiz-adv-x="588" 
d="M25 0l224 331l-214 317h87l172 -264l175 264h85l-215 -316l224 -332h-87l-182 279l-184 -279h-85z" />
    <glyph glyph-name="Y" unicode="Y" horiz-adv-x="586" 
d="M255 0v257l-229 391h80l187 -327l189 327h78l-232 -391v-257h-73z" />
    <glyph glyph-name="Z" unicode="Z" horiz-adv-x="590" 
d="M51 0v10l372 576h-355v62h470v-10l-371 -575h375v-63h-491z" />
    <glyph glyph-name="bracketleft" unicode="[" horiz-adv-x="310" 
d="M89 -198v846h201v-60h-131v-725h131v-61h-201z" />
    <glyph glyph-name="backslash" unicode="\" horiz-adv-x="368" 
d="M296 -198l-285 846h72l285 -846h-72z" />
    <glyph glyph-name="bracketright" unicode="]" horiz-adv-x="310" 
d="M20 -198v61h131v725h-131v60h201v-846h-201z" />
    <glyph glyph-name="asciicircum" unicode="^" 
d="M86 332l206 326h10l206 -326h-77l-134 221l-134 -221h-77z" />
    <glyph glyph-name="underscore" unicode="_" horiz-adv-x="384" 
d="M0 -162v57h384v-57h-384z" />
    <glyph glyph-name="grave" unicode="`" horiz-adv-x="514" 
d="M305 520l-139 161h93l115 -161h-69z" />
    <glyph glyph-name="a" unicode="a" horiz-adv-x="490" 
d="M240 457q183 0 183 -181v-276h-63l-1 63q-41 -72 -150 -72q-77 0 -121.5 40t-44.5 105q0 69 48.5 108.5t136.5 39.5q72 0 125 -29v17q0 62 -29 94t-96 32q-76 0 -142 -40v63q67 36 154 36zM224 43q64 0 96.5 38t32.5 102v18q-44 32 -121 32q-56 0 -86.5 -24.5
t-30.5 -69.5t30 -70.5t79 -25.5z" />
    <glyph glyph-name="b" unicode="b" horiz-adv-x="577" 
d="M311 -9q-61 0 -106 25.5t-66 63.5l-1 -80h-64v663h70v-292q51 86 167 86q101 0 162 -62.5t61 -167.5q0 -107 -61.5 -171.5t-161.5 -64.5zM300 52q73 0 117 47.5t44 126.5t-44.5 124.5t-115.5 45.5q-75 0 -117.5 -49t-42.5 -125q0 -77 43.5 -123.5t115.5 -46.5z" />
    <glyph glyph-name="c" unicode="c" horiz-adv-x="444" 
d="M273 -9q-102 0 -166 60t-64 169q0 108 62.5 172.5t169.5 64.5q62 0 118 -24v-68q-51 31 -113 31q-75 0 -119.5 -46t-44.5 -126q0 -81 43 -126.5t121 -45.5q70 0 117 34v-67q-42 -28 -124 -28z" />
    <glyph glyph-name="d" unicode="d" horiz-adv-x="577" 
d="M266 -9q-100 0 -161.5 62.5t-61.5 168.5q0 102 59 168.5t162 66.5q117 0 169 -84v290h70v-663h-64l-1 82q-19 -40 -63.5 -65.5t-108.5 -25.5zM277 52q76 0 117.5 49t41.5 125q0 75 -42 122.5t-117 47.5q-77 0 -119 -50t-42 -123q0 -74 43 -122.5t118 -48.5z" />
    <glyph glyph-name="e" unicode="e" horiz-adv-x="510" 
d="M281 -9q-115 0 -176.5 59.5t-61.5 169.5q0 107 57.5 172t159.5 65q97 0 152 -58t55 -158q0 -28 -3 -43h-348q7 -147 175 -147q86 0 156 39v-63q-64 -36 -166 -36zM116 249h279q3 69 -34.5 109t-100.5 40q-61 0 -100.5 -40.5t-43.5 -108.5z" />
    <glyph glyph-name="f" unicode="f" horiz-adv-x="347" 
d="M110 0v391h-76v57h76v44q0 92 39 138t124 46q53 0 87 -16v-62q-34 17 -80 17q-54 0 -77 -30.5t-23 -97.5v-39h133v-57h-133v-391h-70z" />
    <glyph glyph-name="g" unicode="g" horiz-adv-x="575" 
d="M269 -207q-85 0 -131 19v64q58 -22 129 -22q164 0 164 193v39q-20 -38 -62 -62t-104 -24q-102 0 -162 64t-60 164q0 101 59 165t162 64q61 0 105.5 -24.5t66.5 -63.5l1 79h64v-400q0 -126 -54 -190.5t-178 -64.5zM276 62q72 0 113.5 47t42.5 120q0 78 -44 122.5
t-115 44.5q-72 0 -114.5 -45.5t-42.5 -120.5q0 -76 43.5 -122t116.5 -46z" />
    <glyph glyph-name="h" unicode="h" horiz-adv-x="534" 
d="M74 0v663h70v-278q42 72 151 72q88 0 130 -48.5t42 -146.5v-262h-70v246q0 72 -24.5 111t-92.5 39q-136 0 -136 -180v-216h-70z" />
    <glyph glyph-name="i" unicode="i" horiz-adv-x="231" 
d="M122 564q-20 0 -33 13t-13 33t13.5 32.5t32.5 12.5q20 0 32.5 -12.5t12.5 -33.5q0 -20 -13 -32.5t-32 -12.5zM87 0v391h-63v57h133v-448h-70z" />
    <glyph glyph-name="j" unicode="j" horiz-adv-x="231" 
d="M122 564q-20 0 -33 13t-13 33t13.5 32.5t32.5 12.5q20 0 32.5 -12.5t12.5 -33.5q0 -20 -13 -32.5t-32 -12.5zM1 -207q-42 0 -79 13v61q34 -15 69 -15q56 0 76 34t20 97v408h-63v57h133v-461q0 -93 -35 -143.5t-121 -50.5z" />
    <glyph glyph-name="k" unicode="k" horiz-adv-x="475" 
d="M74 0v663h70v-418l214 203h93l-227 -208l237 -240h-93l-224 233v-233h-70z" />
    <glyph glyph-name="l" unicode="l" horiz-adv-x="218" 
d="M74 0v663h70v-663h-70z" />
    <glyph glyph-name="m" unicode="m" horiz-adv-x="801" 
d="M74 0v448h64l1 -67q41 76 143 76q110 0 140 -87q41 87 153 87q159 0 159 -178v-279h-70v272q0 58 -22.5 91t-79.5 33q-123 0 -123 -177v-219h-70v272q0 124 -102 124q-123 0 -123 -177v-219h-70z" />
    <glyph glyph-name="n" unicode="n" horiz-adv-x="534" 
d="M74 0v448h64l1 -72q39 81 156 81q88 0 130 -48.5t42 -146.5v-262h-70v246q0 73 -24.5 111.5t-93.5 38.5q-135 0 -135 -180v-216h-70z" />
    <glyph glyph-name="o" unicode="o" horiz-adv-x="552" 
d="M275 -9q-106 0 -169 64t-63 168q0 103 63.5 168.5t170.5 65.5q105 0 168.5 -61t63.5 -168t-64.5 -172t-169.5 -65zM275 52q71 0 116 47.5t45 126.5q0 78 -45 124t-115 46q-73 0 -116.5 -49t-43.5 -124q0 -78 44 -124.5t115 -46.5z" />
    <glyph glyph-name="p" unicode="p" horiz-adv-x="577" 
d="M74 -198v646h64l2 -81q53 90 172 90q101 0 161.5 -63t60.5 -167q0 -108 -61.5 -172t-160.5 -64q-57 0 -100.5 22.5t-67.5 58.5v-270h-70zM300 52q73 0 117 47.5t44 126.5q0 78 -44 124t-116 46q-75 0 -117.5 -49.5t-42.5 -124.5q0 -77 43.5 -123.5t115.5 -46.5z" />
    <glyph glyph-name="q" unicode="q" horiz-adv-x="577" 
d="M433 -207v283q-21 -37 -64 -61t-103 -24q-98 0 -160.5 62.5t-62.5 168.5q0 103 59 169t163 66q65 0 108 -26t64 -63l2 80h64v-623zM277 52q76 0 117.5 49t41.5 125q0 75 -42 122.5t-117 47.5q-77 0 -119 -50t-42 -123q0 -74 43 -122.5t118 -48.5z" />
    <glyph glyph-name="r" unicode="r" horiz-adv-x="328" 
d="M74 0v448h64l1 -75q17 37 56 60.5t89 23.5q18 0 27 -3v-64q-14 6 -39 6q-128 0 -128 -180v-216h-70z" />
    <glyph glyph-name="s" unicode="s" horiz-adv-x="377" 
d="M176 -9q-77 0 -122 26v62q54 -32 118 -32q44 0 69 18.5t25 55.5q0 32 -21 51.5t-51.5 30.5l-61 23t-51.5 39.5t-21 70.5q0 60 38 90.5t104 30.5t102 -22v-61q-46 27 -99 27q-79 0 -79 -61q0 -28 21.5 -45.5t52 -28t60.5 -23.5t51.5 -42t21.5 -75q0 -67 -43 -101t-114 -34
z" />
    <glyph glyph-name="t" unicode="t" horiz-adv-x="363" 
d="M232 -9q-73 0 -103 37t-30 107v256h-69v9q35 27 72.5 74t57.5 88h9v-114h131v-57h-131v-244q0 -50 15 -73t61 -23q37 0 73 15v-60q-32 -15 -86 -15z" />
    <glyph glyph-name="u" unicode="u" horiz-adv-x="507" 
d="M254 -9q-187 0 -187 201v256h70v-254q0 -143 118 -143q117 0 117 143v254h68v-256q0 -201 -186 -201z" />
    <glyph glyph-name="v" unicode="v" horiz-adv-x="485" 
d="M239 -9l-219 457h77l147 -330l147 330h75l-217 -457h-10z" />
    <glyph glyph-name="w" unicode="w" horiz-adv-x="723" 
d="M221 -9l-194 457h77l124 -315l132 315h10l128 -315l123 315h75l-190 -457h-10l-131 321l-134 -321h-10z" />
    <glyph glyph-name="x" unicode="x" horiz-adv-x="495" 
d="M21 0l184 223l-180 225h87l136 -179l138 179h84l-179 -225l183 -223h-86l-141 175l-142 -175h-84z" />
    <glyph glyph-name="y" unicode="y" horiz-adv-x="486" 
d="M108 -198l98 220l-186 426h77l146 -348l148 348h76l-283 -646h-76z" />
    <glyph glyph-name="z" unicode="z" horiz-adv-x="469" 
d="M41 0v10l276 381h-259v57h370v-10l-276 -380h280v-58h-391z" />
    <glyph glyph-name="braceleft" unicode="{" horiz-adv-x="376" 
d="M261 -207q-87 0 -132 43t-45 116q0 52 33 114.5t33 91.5q0 71 -76 78v15q35 2 55.5 20.5t20.5 51.5q0 29 -33 85.5t-33 108.5q0 74 45 117.5t132 43.5q56 0 95 -17v-59q-35 20 -87 20q-56 0 -86 -29t-30 -82q0 -38 33.5 -94t33.5 -90q0 -38 -20 -58t-45 -25
q24 -6 44.5 -28.5t20.5 -61.5q0 -35 -33.5 -96t-33.5 -100q0 -52 31 -80.5t85 -28.5q48 0 87 21v-59q-41 -18 -95 -18z" />
    <glyph glyph-name="bar" unicode="|" horiz-adv-x="236" 
d="M82 -198v846h72v-846h-72z" />
    <glyph glyph-name="braceright" unicode="}" horiz-adv-x="376" 
d="M115 -207q-54 0 -95 18v59q39 -21 87 -21q54 0 85 28.5t31 80.5q0 39 -33.5 100.5t-33.5 95.5q0 39 20.5 61.5t44.5 28.5q-25 5 -45 25t-20 58q0 33 33.5 89.5t33.5 94.5q0 53 -30 82t-86 29q-52 0 -87 -20v59q39 17 95 17q87 0 132 -43.5t45 -117.5q0 -41 -16.5 -76
t-33 -63.5t-16.5 -54.5q0 -33 20.5 -51.5t55.5 -20.5v-15q-76 -7 -76 -78q0 -26 16.5 -57.5t33 -69.5t16.5 -79q0 -73 -45 -116t-132 -43z" />
    <glyph glyph-name="asciitilde" unicode="~" 
d="M390 169q-44 0 -102.5 29t-85.5 29q-52 0 -54 -51h-55q2 49 30 78t80 29q41 0 98 -29t90 -29q52 0 56 51h54q-1 -48 -29 -77.5t-82 -29.5z" />
    <glyph glyph-name="uni00A0" unicode="&#xa0;" horiz-adv-x="210" 
 />
    <glyph glyph-name="exclamdown" unicode="&#xa1;" horiz-adv-x="274" 
d="M137 358q-20 0 -34 14t-14 35q0 22 13 36t35 14q21 0 34.5 -14t13.5 -35q0 -22 -13.5 -36t-34.5 -14zM99 -198l4 472h69l2 -472h-75z" />
    <glyph glyph-name="cent" unicode="&#xa2;" horiz-adv-x="474" 
d="M270 0v90q-94 5 -152 65t-58 165q0 103 56.5 167t153.5 69v92h44v-92q68 -2 111 -24v-67q-52 30 -111 32v-347q71 4 115 35v-67q-39 -24 -115 -27v-91h-44zM270 151v347q-60 -6 -98.5 -53.5t-38.5 -121.5q0 -72 36 -119.5t101 -52.5z" />
    <glyph glyph-name="sterling" unicode="&#xa3;" horiz-adv-x="511" 
d="M53 0v8q125 134 125 232q0 28 -11 48h-104v61h72q-38 55 -38 117q0 87 54.5 139.5t151.5 52.5q87 0 142 -39v-73q-55 47 -134 47q-67 0 -103 -35.5t-36 -97.5q0 -54 45 -111h172v-61h-148q10 -23 10 -48q0 -91 -77 -177h286v-63h-407z" />
    <glyph glyph-name="currency" unicode="&#xa4;" 
d="M144 115l-47 47l62 62q-30 41 -30 93q0 49 29 93l-61 61l47 47l62 -62q42 29 91 29q51 0 91 -29l62 62l47 -47l-62 -62q30 -41 30 -92q0 -52 -30 -93l62 -62l-47 -47l-62 62q-42 -28 -91 -28q-50 0 -90 27zM297 201q49 0 82.5 32.5t33.5 82.5t-33.5 83.5t-82.5 33.5
t-82.5 -33.5t-33.5 -83.5t33.5 -82.5t82.5 -32.5z" />
    <glyph glyph-name="yen" unicode="&#xa5;" horiz-adv-x="510" 
d="M218 0v192h-143v57h146l-36 69h-124v57h92l-140 273h80l163 -334l164 334h78l-142 -273h94v-57h-127l-36 -69h149v-57h-146v-192h-72z" />
    <glyph glyph-name="brokenbar" unicode="&#xa6;" horiz-adv-x="236" 
d="M82 317v331h72v-331h-72zM82 -198v331h72v-331h-72z" />
    <glyph glyph-name="section" unicode="&#xa7;" horiz-adv-x="438" 
d="M205 -208q-74 0 -135 25v63q64 -31 132 -31q119 0 119 101q0 34 -28 58.5t-68.5 42t-80.5 37.5t-68 55.5t-28 84.5q0 53 27.5 87.5t64.5 47.5q-76 44 -76 128q0 85 51 126t131 41q60 0 110 -21v-60q-56 26 -106 26q-55 0 -87.5 -27.5t-32.5 -78.5q0 -39 28.5 -66t69 -44
t80.5 -36t68.5 -52.5t28.5 -81.5q0 -56 -30 -91t-69 -48q82 -38 82 -123q0 -71 -42.5 -117t-140.5 -46zM251 104q38 10 63.5 36t25.5 68q0 13 -3.5 24.5t-8 20t-15.5 18t-18 15t-23.5 14l-24.5 12.5t-28.5 13t-28.5 13q-29 -7 -53 -33.5t-24 -68.5q0 -45 29.5 -71t108.5 -61
z" />
    <glyph glyph-name="dieresis" unicode="&#xa8;" horiz-adv-x="506" 
d="M169 564q-20 0 -33 13t-13 33t13.5 32.5t32.5 12.5q20 0 33 -12.5t13 -33.5q0 -20 -13 -32.5t-33 -12.5zM357 564q-20 0 -33 13t-13 33t13.5 32.5t32.5 12.5q20 0 33 -12.5t13 -33.5q0 -20 -13.5 -32.5t-32.5 -12.5z" />
    <glyph glyph-name="copyright" unicode="&#xa9;" horiz-adv-x="770" 
d="M384 -10q-138 0 -233 95.5t-95 238.5q0 149 94 241.5t234 92.5t235 -92.5t95 -241.5q0 -143 -96 -238.5t-234 -95.5zM385 42q116 0 192.5 79.5t76.5 203.5q0 128 -75.5 204.5t-193.5 76.5q-117 0 -193 -76.5t-76 -204.5q0 -124 76.5 -203.5t192.5 -79.5zM396 159
q-70 0 -118 41.5t-48 120.5q0 76 46 123t121 47q50 0 86 -17v-51q-42 22 -81 22q-53 0 -85 -32.5t-32 -88.5t32.5 -86.5t83.5 -30.5q49 0 85 23v-51q-34 -20 -90 -20z" />
    <glyph glyph-name="ordfeminine" unicode="&#xaa;" horiz-adv-x="373" 
d="M164 317q-55 0 -88 28.5t-33 78.5q0 51 36 79.5t97 28.5q54 0 91 -21v13q0 43 -19 65t-68 22q-56 0 -104 -24v47q41 24 113 24t102 -33.5t30 -100.5v-200h-44l-2 45q-34 -52 -111 -52zM182 492q-39 0 -60.5 -17t-21.5 -49q0 -66 77 -66q90 0 90 98v13q-40 21 -85 21z
M48 262h275v-49h-275v49z" />
    <glyph glyph-name="guillemotleft" unicode="&#xab;" horiz-adv-x="531" 
d="M183 74l-140 157l140 157h82l-144 -157l144 -157h-82zM375 74l-140 157l140 157h82l-144 -157l144 -157h-82z" />
    <glyph glyph-name="logicalnot" unicode="&#xac;" 
d="M437 106v180h-344v58h408v-238h-64z" />
    <glyph glyph-name="uni00AD" unicode="&#xad;" horiz-adv-x="269" 
d="M43 215v57h183v-57h-183z" />
    <glyph glyph-name="registered" unicode="&#xae;" horiz-adv-x="770" 
d="M384 -10q-138 0 -233 95.5t-95 238.5q0 149 94 241.5t234 92.5t235 -92.5t95 -241.5q0 -143 -96 -238.5t-234 -95.5zM385 42q116 0 192.5 79.5t76.5 203.5q0 128 -75.5 204.5t-193.5 76.5q-117 0 -193 -76.5t-76 -204.5q0 -124 76.5 -203.5t192.5 -79.5zM277 163v324h105
q59 0 92 -20.5t33 -79.5q0 -77 -66 -94l78 -130h-60l-71 125h-60v-125h-51zM328 328h39q51 0 69.5 10.5t18.5 48.5q0 34 -19 46.5t-66 12.5h-42v-118z" />
    <glyph glyph-name="macron" unicode="&#xaf;" horiz-adv-x="505" 
d="M118 575v58h287v-58h-287z" />
    <glyph glyph-name="degree" unicode="&#xb0;" horiz-adv-x="537" 
d="M269 408q-54 0 -89.5 35t-35.5 90q0 54 35.5 89.5t89.5 35.5t89.5 -35.5t35.5 -89.5q0 -55 -35.5 -90t-89.5 -35zM269 451q34 0 56.5 22.5t22.5 59.5t-22.5 59.5t-56.5 22.5t-56.5 -22t-22.5 -60t22.5 -60t56.5 -22z" />
    <glyph glyph-name="plusminus" unicode="&#xb1;" 
d="M265 102v177h-172v58h172v175h64v-175h172v-58h-172v-177h-64zM93 0v58h408v-58h-408z" />
    <glyph glyph-name="uni00B2" unicode="&#xb2;" horiz-adv-x="371" 
d="M55 263v6l126 157q58 71 58 114q0 32 -18.5 50t-53.5 18q-46 0 -97 -38v56q46 32 102 32q60 0 92 -31t32 -84q0 -35 -14.5 -64t-55.5 -79l-74 -88h151v-49h-248z" />
    <glyph glyph-name="uni00B3" unicode="&#xb3;" horiz-adv-x="371" 
d="M169 253q-69 0 -102 23v57q40 -29 97 -29q89 0 89 75q0 37 -21 56.5t-60 19.5q-35 0 -59 -17l-5 5l114 156h-152v49h236v-6l-110 -153q41 6 78 -21t37 -89t-38.5 -94t-103.5 -32z" />
    <glyph glyph-name="acute" unicode="&#xb4;" horiz-adv-x="514" 
d="M166 520l115 161h93l-139 -161h-69z" />
    <glyph glyph-name="uni00B5" unicode="&#xb5;" horiz-adv-x="533" 
d="M389 448h70v-448h-64l-2 74q-39 -74 -139 -74q-78 0 -111 45v-243h-69v646h70v-239q0 -72 25 -111.5t89 -39.5q131 0 131 180v210z" />
    <glyph glyph-name="paragraph" unicode="&#xb6;" horiz-adv-x="663" 
d="M294 -207q-37 0 -59 10v57q14 -7 37 -7q26 0 35.5 13t9.5 43v327h-11q-47 0 -81 3.5t-71 15.5t-60 33t-38 59.5t-15 92.5q0 57 17.5 97.5t42 61.5t66 32.5t72.5 14t79 2.5h311v-62h-94v-784h-73v784h-72v-692q0 -101 -96 -101z" />
    <glyph glyph-name="periodcentered" unicode="&#xb7;" horiz-adv-x="245" 
d="M123 182q-22 0 -35.5 14t-13.5 36q0 21 14.5 35t34.5 14q21 0 34.5 -14t13.5 -36q0 -21 -13.5 -35t-34.5 -14z" />
    <glyph glyph-name="cedilla" unicode="&#xb8;" horiz-adv-x="517" 
d="M249 -207q-41 0 -67 12v44q30 -15 61 -15q55 0 55 45t-45 45q-27 0 -47 -20l-10 6l32 108h47l-20 -64q8 5 21 5q76 -2 76 -80q0 -44 -28.5 -65t-74.5 -21z" />
    <glyph glyph-name="uni00B9" unicode="&#xb9;" horiz-adv-x="371" 
d="M173 263v325l-99 -46v48l150 68h5v-395h-56z" />
    <glyph glyph-name="ordmasculine" unicode="&#xba;" horiz-adv-x="411" 
d="M205 317q-76 0 -119 46t-43 122t44 124t121 48q75 0 117.5 -45t42.5 -123q0 -79 -44 -125.5t-119 -46.5zM207 366q48 0 76 32.5t28 90.5t-28 89t-76 31q-51 0 -78.5 -33t-27.5 -89q0 -57 28 -89t78 -32zM68 213v49h275v-49h-275z" />
    <glyph glyph-name="guillemotright" unicode="&#xbb;" horiz-adv-x="531" 
d="M74 74l143 157l-143 157h82l140 -157l-140 -157h-82zM266 74l143 157l-143 157h82l140 -157l-140 -157h-82z" />
    <glyph glyph-name="onequarter" unicode="&#xbc;" horiz-adv-x="858" 
d="M229 263h-56v325l-99 -46v48l150 68h5v-395zM567 648h72l-360 -648h-72zM784 114v-43h-54v-71h-53v71h-196v5l243 319h6v-281h54zM677 264l-114 -150h114v150z" />
    <glyph glyph-name="onehalf" unicode="&#xbd;" horiz-adv-x="858" 
d="M173 263v325l-99 -46v48l150 68h5v-395h-56zM206 0l360 648h72l-360 -648h-72zM553 0v6l126 157q58 71 58 114q0 32 -18.5 50t-53.5 18q-46 0 -97 -38v56q46 32 102 32q60 0 92 -31t32 -84q0 -34 -14.5 -63.5t-55.5 -79.5l-74 -88h151v-49h-248z" />
    <glyph glyph-name="threequarters" unicode="&#xbe;" horiz-adv-x="858" 
d="M311 379q0 -62 -38.5 -94t-103.5 -32q-69 0 -102 23v57q40 -29 97 -29q89 0 89 75q0 37 -21 56.5t-60 19.5q-35 0 -59 -17l-5 5l114 156h-152v49h236v-6l-110 -153q41 6 78 -21t37 -89zM567 648h72l-360 -648h-72zM784 114v-43h-54v-71h-53v71h-196v5l243 319h6v-281h54z
M677 264l-114 -150h114v150z" />
    <glyph glyph-name="questiondown" unicode="&#xbf;" horiz-adv-x="444" 
d="M254 358q-20 0 -34 14t-14 36q0 21 14 35t35 14t34.5 -14t13.5 -35q0 -22 -14 -36t-35 -14zM252 -208q-93 0 -149 47t-56 134q0 83 50 128.5t123 51.5v122h69v-167q-76 -2 -122.5 -33.5t-46.5 -99.5q0 -59 38.5 -89t98.5 -30q47 0 89 16.5t60 35.5v-74q-20 -15 -61 -28.5
t-93 -13.5z" />
    <glyph glyph-name="Agrave" unicode="&#xc0;" horiz-adv-x="647" 
d="M312 715l-139 161h93l115 -161h-69zM26 0l293 658h10l293 -658h-79l-61 142h-318l-62 -142h-76zM189 204h268l-133 311z" />
    <glyph glyph-name="Aacute" unicode="&#xc1;" horiz-adv-x="647" 
d="M276 715l116 161h93l-139 -161h-70zM26 0l293 658h10l293 -658h-79l-61 142h-318l-62 -142h-76zM189 204h268l-133 311z" />
    <glyph glyph-name="Acircumflex" unicode="&#xc2;" horiz-adv-x="647" 
d="M158 715l165 170l166 -170h-78l-88 95l-87 -95h-78zM26 0l293 658h10l293 -658h-79l-61 142h-318l-62 -142h-76zM189 204h268l-133 311z" />
    <glyph glyph-name="Atilde" unicode="&#xc3;" horiz-adv-x="647" 
d="M399 740q-36 0 -81 29t-66 29q-27 0 -37.5 -18t-10.5 -35h-48q0 45 24.5 75.5t68.5 30.5q38 0 83.5 -29.5t64.5 -29.5q26 0 36 17t10 37h48q0 -44 -24 -75t-68 -31zM26 0l293 658h10l293 -658h-79l-61 142h-318l-62 -142h-76zM189 204h268l-133 311z" />
    <glyph glyph-name="Adieresis" unicode="&#xc4;" horiz-adv-x="647" 
d="M229 741q-23 0 -37.5 14.5t-14.5 37.5t14.5 37.5t37.5 14.5q22 0 36.5 -14.5t14.5 -37.5t-14.5 -37.5t-36.5 -14.5zM417 741q-22 0 -36.5 14.5t-14.5 37.5t14.5 37.5t36.5 14.5q23 0 37.5 -14.5t14.5 -37.5t-14.5 -37.5t-37.5 -14.5zM26 0l293 658h10l293 -658h-79
l-61 142h-318l-62 -142h-76zM189 204h268l-133 311z" />
    <glyph glyph-name="Aring" unicode="&#xc5;" horiz-adv-x="647" 
d="M26 0l268 606q-34 9 -54.5 36t-20.5 63q0 44 30 73.5t75 29.5t75 -29.5t30 -73.5q0 -36 -20.5 -63t-53.5 -36l267 -606h-79l-61 142h-317l-63 -142h-76zM324 643q26 0 43.5 17t17.5 45q0 27 -17.5 44.5t-43.5 17.5q-25 0 -42.5 -17t-17.5 -45t17.5 -45t42.5 -17zM189 204
h268l-133 313z" />
    <glyph glyph-name="AE" unicode="&#xc6;" horiz-adv-x="895" 
d="M26 0l289 648h295l28 -62h-277l100 -225h216l28 -61h-216l104 -237h280l29 -63h-359l-61 142h-318l-62 -142h-76zM190 204h267l-133 311z" />
    <glyph glyph-name="Ccedilla" unicode="&#xc7;" horiz-adv-x="634" 
d="M378 -10h-6l-11 -36q8 5 21 5q76 -2 76 -80q0 -44 -28.5 -65t-74.5 -21q-41 0 -67 12v44q30 -15 61 -15q55 0 55 45t-45 45q-27 0 -47 -20l-10 6l25 83q-128 15 -199.5 104.5t-71.5 225.5q0 150 85 242.5t235 92.5q60 0 110 -14.5t74 -32.5v-75q-80 55 -180 55
q-116 0 -183 -72.5t-67 -193.5q0 -125 70.5 -196t184.5 -71q109 0 185 54v-76q-24 -17 -76.5 -31.5t-115.5 -14.5z" />
    <glyph glyph-name="Egrave" unicode="&#xc8;" horiz-adv-x="506" 
d="M297 715l-139 161h93l115 -161h-69zM89 0v648h374v-62h-301v-225h223v-61h-223v-237h313v-63h-386z" />
    <glyph glyph-name="Eacute" unicode="&#xc9;" horiz-adv-x="506" 
d="M219 715l116 161h93l-139 -161h-70zM89 0v648h374v-62h-301v-225h223v-61h-223v-237h313v-63h-386z" />
    <glyph glyph-name="Ecircumflex" unicode="&#xca;" horiz-adv-x="506" 
d="M112 715l165 170l166 -170h-78l-88 95l-87 -95h-78zM89 0v648h374v-62h-301v-225h223v-61h-223v-237h313v-63h-386z" />
    <glyph glyph-name="Edieresis" unicode="&#xcb;" horiz-adv-x="506" 
d="M183 741q-23 0 -37.5 14.5t-14.5 37.5t14.5 37.5t37.5 14.5q22 0 36.5 -14.5t14.5 -37.5t-14.5 -37.5t-36.5 -14.5zM371 741q-22 0 -36.5 14.5t-14.5 37.5t14.5 37.5t36.5 14.5q23 0 37.5 -14.5t14.5 -37.5t-14.5 -37.5t-37.5 -14.5zM89 0v648h374v-62h-301v-225h223v-61
h-223v-237h313v-63h-386z" />
    <glyph glyph-name="Igrave" unicode="&#xcc;" horiz-adv-x="251" 
d="M95 715l-139 161h93l115 -161h-69zM89 0v648h73v-648h-73z" />
    <glyph glyph-name="Iacute" unicode="&#xcd;" horiz-adv-x="251" 
d="M89 715l116 161h93l-139 -161h-70zM89 0v648h73v-648h-73z" />
    <glyph glyph-name="Icircumflex" unicode="&#xce;" horiz-adv-x="251" 
d="M-40 715l165 170l166 -170h-78l-88 95l-87 -95h-78zM89 0v648h73v-648h-73z" />
    <glyph glyph-name="Idieresis" unicode="&#xcf;" horiz-adv-x="251" 
d="M31 741q-23 0 -37.5 14.5t-14.5 37.5t14.5 37.5t37.5 14.5q22 0 36.5 -14.5t14.5 -37.5t-14.5 -37.5t-36.5 -14.5zM219 741q-22 0 -36.5 14.5t-14.5 37.5t14.5 37.5t36.5 14.5q23 0 37.5 -14.5t14.5 -37.5t-14.5 -37.5t-37.5 -14.5zM89 0v648h73v-648h-73z" />
    <glyph glyph-name="Eth" unicode="&#xd0;" horiz-adv-x="702" 
d="M244 648q67 0 117 -5t107 -24t93.5 -52t61 -92.5t24.5 -142.5q0 -82 -24 -143.5t-61.5 -96.5t-92 -56.5t-106 -28.5t-113.5 -7h-135v301h-102v59h102v288h129zM242 63q58 0 103.5 6.5t89.5 24t73 47t46.5 78t17.5 113.5t-18 112t-46 74t-73 43t-88.5 20.5t-102.5 4.5h-56
v-226h150v-59h-150v-238h54z" />
    <glyph glyph-name="Ntilde" unicode="&#xd1;" horiz-adv-x="708" 
d="M429 740q-36 0 -81 29t-66 29q-27 0 -37.5 -18t-10.5 -35h-48q0 45 24.5 75.5t68.5 30.5q38 0 83.5 -29.5t64.5 -29.5q26 0 36 17t10 37h48q0 -44 -24 -75t-68 -31zM609 -10l-449 506v-496h-71v658h10l449 -507v497h71v-658h-10z" />
    <glyph glyph-name="Ograve" unicode="&#xd2;" horiz-adv-x="750" 
d="M396 715l-139 161h93l115 -161h-69zM374 -10q-148 0 -233 94.5t-85 239.5q0 146 86 240t235 94t233 -93t84 -237q0 -147 -85 -242.5t-235 -95.5zM376 58q111 0 177.5 75t66.5 194q0 116 -67 190t-178 74q-108 0 -176.5 -74t-68.5 -191q0 -116 67.5 -192t178.5 -76z" />
    <glyph glyph-name="Oacute" unicode="&#xd3;" horiz-adv-x="750" 
d="M318 715l116 161h93l-139 -161h-70zM374 -10q-148 0 -233 94.5t-85 239.5q0 146 86 240t235 94t233 -93t84 -237q0 -147 -85 -242.5t-235 -95.5zM376 58q111 0 177.5 75t66.5 194q0 116 -67 190t-178 74q-108 0 -176.5 -74t-68.5 -191q0 -116 67.5 -192t178.5 -76z" />
    <glyph glyph-name="Ocircumflex" unicode="&#xd4;" horiz-adv-x="750" 
d="M211 715l165 170l166 -170h-78l-88 95l-87 -95h-78zM374 -10q-148 0 -233 94.5t-85 239.5q0 146 86 240t235 94t233 -93t84 -237q0 -147 -85 -242.5t-235 -95.5zM376 58q111 0 177.5 75t66.5 194q0 116 -67 190t-178 74q-108 0 -176.5 -74t-68.5 -191q0 -116 67.5 -192
t178.5 -76z" />
    <glyph glyph-name="Otilde" unicode="&#xd5;" horiz-adv-x="750" 
d="M452 740q-36 0 -81 29t-66 29q-27 0 -37.5 -18t-10.5 -35h-48q0 45 24.5 75.5t68.5 30.5q38 0 83.5 -29.5t64.5 -29.5q26 0 36 17t10 37h48q0 -44 -24 -75t-68 -31zM374 -10q-148 0 -233 94.5t-85 239.5q0 146 86 240t235 94t233 -93t84 -237q0 -147 -85 -242.5
t-235 -95.5zM376 58q111 0 177.5 75t66.5 194q0 116 -67 190t-178 74q-108 0 -176.5 -74t-68.5 -191q0 -116 67.5 -192t178.5 -76z" />
    <glyph glyph-name="Odieresis" unicode="&#xd6;" horiz-adv-x="750" 
d="M282 741q-22 0 -37 14.5t-15 37.5t15 37.5t37 14.5t36.5 -14.5t14.5 -37.5t-14.5 -37.5t-36.5 -14.5zM470 741q-22 0 -36.5 14.5t-14.5 37.5t14.5 37.5t36.5 14.5t37 -14.5t15 -37.5t-15 -37.5t-37 -14.5zM374 -10q-148 0 -233 94.5t-85 239.5q0 146 86 240t235 94
t233 -93t84 -237q0 -147 -85 -242.5t-235 -95.5zM376 58q111 0 177.5 75t66.5 194q0 116 -67 190t-178 74q-108 0 -176.5 -74t-68.5 -191q0 -116 67.5 -192t178.5 -76z" />
    <glyph glyph-name="multiply" unicode="&#xd7;" 
d="M143 24l-47 47l154 155l-154 154l47 47l155 -154l154 154l47 -47l-155 -154l155 -155l-48 -47l-153 155z" />
    <glyph glyph-name="Oslash" unicode="&#xd8;" horiz-adv-x="750" 
d="M56 -30l85 114q-85 93 -85 240q0 146 86 240t235 94q94 0 163 -40l52 69h75l-77 -103q104 -92 104 -256q0 -147 -85 -242.5t-235 -95.5q-109 0 -186 55l-56 -75h-76zM187 147l310 412q-51 32 -122 32q-108 0 -176.5 -74t-68.5 -191q0 -106 57 -179zM376 58
q111 0 177.5 75t66.5 194q0 125 -74 196l-314 -418q57 -47 144 -47z" />
    <glyph glyph-name="Ugrave" unicode="&#xd9;" horiz-adv-x="653" 
d="M346 715l-139 161h93l115 -161h-69zM327 -10q-128 0 -188 67t-60 203v388h73v-372q0 -113 40.5 -166t133.5 -53q91 0 133.5 52.5t42.5 166.5v372h72v-387q0 -141 -61.5 -206t-185.5 -65z" />
    <glyph glyph-name="Uacute" unicode="&#xda;" horiz-adv-x="653" 
d="M268 715l116 161h93l-139 -161h-70zM327 -10q-128 0 -188 67t-60 203v388h73v-372q0 -113 40.5 -166t133.5 -53q91 0 133.5 52.5t42.5 166.5v372h72v-387q0 -141 -61.5 -206t-185.5 -65z" />
    <glyph glyph-name="Ucircumflex" unicode="&#xdb;" horiz-adv-x="653" 
d="M161 715l165 170l166 -170h-78l-88 95l-87 -95h-78zM327 -10q-128 0 -188 67t-60 203v388h73v-372q0 -113 40.5 -166t133.5 -53q91 0 133.5 52.5t42.5 166.5v372h72v-387q0 -141 -61.5 -206t-185.5 -65z" />
    <glyph glyph-name="Udieresis" unicode="&#xdc;" horiz-adv-x="653" 
d="M232 741q-22 0 -37 14.5t-15 37.5t15 37.5t37 14.5t36.5 -14.5t14.5 -37.5t-14.5 -37.5t-36.5 -14.5zM420 741q-22 0 -36.5 14.5t-14.5 37.5t14.5 37.5t36.5 14.5t37 -14.5t15 -37.5t-15 -37.5t-37 -14.5zM327 -10q-128 0 -188 67t-60 203v388h73v-372q0 -113 40.5 -166
t133.5 -53q91 0 133.5 52.5t42.5 166.5v372h72v-387q0 -141 -61.5 -206t-185.5 -65z" />
    <glyph glyph-name="Yacute" unicode="&#xdd;" horiz-adv-x="586" 
d="M233 715l116 161h93l-139 -161h-70zM255 0v257l-229 391h80l187 -327l189 327h78l-232 -391v-257h-73z" />
    <glyph glyph-name="Thorn" unicode="&#xde;" horiz-adv-x="579" 
d="M280 530q57 0 100 -8.5t81 -29.5t58 -63t20 -104q0 -52 -16.5 -90.5t-41.5 -60.5t-61.5 -35t-70 -17t-74.5 -4h-113v-118h-73v648h73v-118h118zM271 180q194 0 194 145q0 43 -15 72t-43 44t-60.5 21t-75.5 6h-109v-288h109z" />
    <glyph glyph-name="germandbls" unicode="&#xdf;" horiz-adv-x="571" 
d="M381 276q62 6 104 -29t42 -102q0 -154 -174 -154q-67 0 -104 20v60q50 -23 100 -23q107 0 107 93q0 48 -29 69.5t-72 21.5q-46 0 -74 -18l-7 8l122 169h-216v-537h-70v537h-76v57h76v44q0 92 39 138t124 46q53 0 87 -16v-62q-37 17 -79 17q-55 0 -78 -30t-23 -99v-38h312
v-10z" />
    <glyph glyph-name="agrave" unicode="&#xe0;" horiz-adv-x="490" 
d="M315 520h-69l-139 161h93zM240 457q183 0 183 -181v-276h-63l-1 63q-41 -72 -150 -72q-77 0 -121.5 40t-44.5 105q0 69 48.5 108.5t136.5 39.5q72 0 125 -29v17q0 62 -29 94t-96 32q-76 0 -142 -40v63q67 36 154 36zM224 43q64 0 96.5 38t32.5 102v18q-44 32 -121 32
q-56 0 -86.5 -24.5t-30.5 -69.5t30 -70.5t79 -25.5z" />
    <glyph glyph-name="aacute" unicode="&#xe1;" horiz-adv-x="490" 
d="M381 681l-139 -161h-69l115 161h93zM240 457q183 0 183 -181v-276h-63l-1 63q-41 -72 -150 -72q-77 0 -121.5 40t-44.5 105q0 69 48.5 108.5t136.5 39.5q72 0 125 -29v17q0 62 -29 94t-96 32q-76 0 -142 -40v63q67 36 154 36zM224 43q64 0 96.5 38t32.5 102v18
q-44 32 -121 32q-56 0 -86.5 -24.5t-30.5 -69.5t30 -70.5t79 -25.5z" />
    <glyph glyph-name="acircumflex" unicode="&#xe2;" horiz-adv-x="490" 
d="M240 615l-87 -95h-78l165 170l166 -170h-78zM240 457q183 0 183 -181v-276h-63l-1 63q-41 -72 -150 -72q-77 0 -121.5 40t-44.5 105q0 69 48.5 108.5t136.5 39.5q72 0 125 -29v17q0 62 -29 94t-96 32q-76 0 -142 -40v63q67 36 154 36zM224 43q64 0 96.5 38t32.5 102v18
q-44 32 -121 32q-56 0 -86.5 -24.5t-30.5 -69.5t30 -70.5t79 -25.5z" />
    <glyph glyph-name="atilde" unicode="&#xe3;" horiz-adv-x="490" 
d="M169 604q-27 0 -37.5 -18.5t-10.5 -35.5h-48q0 45 24.5 75.5t68.5 30.5q38 0 83.5 -29.5t64.5 -29.5q26 0 36 17t10 37h48q0 -43 -24 -74.5t-68 -31.5q-36 0 -81 29.5t-66 29.5zM240 457q183 0 183 -181v-276h-63l-1 63q-41 -72 -150 -72q-77 0 -121.5 40t-44.5 105
q0 69 48.5 108.5t136.5 39.5q72 0 125 -29v17q0 62 -29 94t-96 32q-76 0 -142 -40v63q67 36 154 36zM224 43q64 0 96.5 38t32.5 102v18q-44 32 -121 32q-56 0 -86.5 -24.5t-30.5 -69.5t30 -70.5t79 -25.5z" />
    <glyph glyph-name="adieresis" unicode="&#xe4;" horiz-adv-x="490" 
d="M146 564q-20 0 -33 13t-13 33t13.5 32.5t32.5 12.5q20 0 33 -12.5t13 -33.5q0 -20 -13 -32.5t-33 -12.5zM334 564q-20 0 -33 13t-13 33t13.5 32.5t32.5 12.5q20 0 33 -12.5t13 -33.5q0 -20 -13.5 -32.5t-32.5 -12.5zM240 457q183 0 183 -181v-276h-63l-1 63
q-41 -72 -150 -72q-77 0 -121.5 40t-44.5 105q0 69 48.5 108.5t136.5 39.5q72 0 125 -29v17q0 62 -29 94t-96 32q-76 0 -142 -40v63q67 36 154 36zM224 43q64 0 96.5 38t32.5 102v18q-44 32 -121 32q-56 0 -86.5 -24.5t-30.5 -69.5t30 -70.5t79 -25.5z" />
    <glyph glyph-name="aring" unicode="&#xe5;" horiz-adv-x="490" 
d="M241 510q-45 0 -75 29.5t-30 73.5t30 73.5t75 29.5q46 0 75.5 -29.5t29.5 -73.5t-29.5 -73.5t-75.5 -29.5zM241 675q-26 0 -43 -17t-17 -45t17 -45t43 -17t43 17t17 45q0 27 -17 44.5t-43 17.5zM240 457q183 0 183 -181v-276h-63l-1 63q-41 -72 -150 -72q-77 0 -121.5 40
t-44.5 105q0 69 48.5 108.5t136.5 39.5q72 0 125 -29v17q0 62 -29 94t-96 32q-76 0 -142 -40v63q67 36 154 36zM224 43q64 0 96.5 38t32.5 102v18q-44 32 -121 32q-56 0 -86.5 -24.5t-30.5 -69.5t30 -70.5t79 -25.5z" />
    <glyph glyph-name="ae" unicode="&#xe6;" horiz-adv-x="816" 
d="M773 241q0 -23 -2 -43h-349q9 -147 175 -147q89 0 156 39v-63q-64 -36 -166 -36q-74 0 -126.5 24.5t-73.5 71.5q-16 -39 -57 -67.5t-114 -28.5q-83 0 -128 39.5t-45 105.5q0 69 48.5 108.5t137.5 39.5q71 0 124 -29v17q0 62 -28.5 94t-95.5 32q-77 0 -143 -40v63
q67 36 155 36q122 0 154 -89q24 41 68.5 65t103.5 24q97 0 151.5 -58t54.5 -158zM701 249q4 69 -34 109t-100 40t-101 -40.5t-43 -108.5h278zM224 43q64 0 96.5 38t32.5 102v18q-44 32 -121 32q-56 0 -86.5 -24.5t-30.5 -69.5t30 -70.5t79 -25.5z" />
    <glyph glyph-name="ccedilla" unicode="&#xe7;" horiz-adv-x="444" 
d="M273 -9h-5l-12 -37q8 5 21 5q76 -2 76 -80q0 -44 -28.5 -65t-74.5 -21q-41 0 -67 12v44q30 -15 61 -15q55 0 55 45t-45 45q-27 0 -47 -20l-10 6l25 85q-82 15 -130.5 73t-48.5 152q0 108 62.5 172.5t169.5 64.5q62 0 118 -24v-68q-51 31 -113 31q-75 0 -119.5 -46
t-44.5 -126q0 -81 43 -126.5t121 -45.5q70 0 117 34v-67q-42 -28 -124 -28z" />
    <glyph glyph-name="egrave" unicode="&#xe8;" horiz-adv-x="510" 
d="M265 520l-139 161h93l115 -161h-69zM281 -9q-115 0 -176.5 59.5t-61.5 169.5q0 107 57.5 172t159.5 65q97 0 152 -58t55 -158q0 -28 -3 -43h-348q7 -147 175 -147q86 0 156 39v-63q-64 -36 -166 -36zM116 249h279q3 69 -34.5 109t-100.5 40q-61 0 -100.5 -40.5
t-43.5 -108.5z" />
    <glyph glyph-name="eacute" unicode="&#xe9;" horiz-adv-x="510" 
d="M192 520l115 161h93l-139 -161h-69zM281 -9q-115 0 -176.5 59.5t-61.5 169.5q0 107 57.5 172t159.5 65q97 0 152 -58t55 -158q0 -28 -3 -43h-348q7 -147 175 -147q86 0 156 39v-63q-64 -36 -166 -36zM116 249h279q3 69 -34.5 109t-100.5 40q-61 0 -100.5 -40.5
t-43.5 -108.5z" />
    <glyph glyph-name="ecircumflex" unicode="&#xea;" horiz-adv-x="510" 
d="M94 520l165 170l166 -170h-78l-88 95l-87 -95h-78zM281 -9q-115 0 -176.5 59.5t-61.5 169.5q0 107 57.5 172t159.5 65q97 0 152 -58t55 -158q0 -28 -3 -43h-348q7 -147 175 -147q86 0 156 39v-63q-64 -36 -166 -36zM116 249h279q3 69 -34.5 109t-100.5 40
q-61 0 -100.5 -40.5t-43.5 -108.5z" />
    <glyph glyph-name="edieresis" unicode="&#xeb;" horiz-adv-x="510" 
d="M165 564q-20 0 -33 13t-13 33t13.5 32.5t32.5 12.5q20 0 33 -12.5t13 -33.5q0 -20 -13 -32.5t-33 -12.5zM353 564q-20 0 -33 13t-13 33t13.5 32.5t32.5 12.5q20 0 33 -12.5t13 -33.5q0 -20 -13.5 -32.5t-32.5 -12.5zM281 -9q-115 0 -176.5 59.5t-61.5 169.5
q0 107 57.5 172t159.5 65q97 0 152 -58t55 -158q0 -28 -3 -43h-348q7 -147 175 -147q86 0 156 39v-63q-64 -36 -166 -36zM116 249h279q3 69 -34.5 109t-100.5 40q-61 0 -100.5 -40.5t-43.5 -108.5z" />
    <glyph glyph-name="igrave" unicode="&#xec;" horiz-adv-x="231" 
d="M120 520l-139 161h93l115 -161h-69zM87 0v391h-63v57h133v-448h-70z" />
    <glyph glyph-name="iacute" unicode="&#xed;" horiz-adv-x="231" 
d="M21 520l115 161h93l-139 -161h-69zM87 0v391h-63v57h133v-448h-70z" />
    <glyph glyph-name="icircumflex" unicode="&#xee;" horiz-adv-x="231" 
d="M-45 520l165 170l166 -170h-78l-88 95l-87 -95h-78zM87 0v391h-63v57h133v-448h-70z" />
    <glyph glyph-name="idieresis" unicode="&#xef;" horiz-adv-x="231" 
d="M26 564q-20 0 -33 13t-13 33t13.5 32.5t32.5 12.5q20 0 33 -12.5t13 -33.5q0 -20 -13 -32.5t-33 -12.5zM214 564q-20 0 -33 13t-13 33t13.5 32.5t32.5 12.5q20 0 33 -12.5t13 -33.5q0 -20 -13.5 -32.5t-32.5 -12.5zM87 0v391h-63v57h133v-448h-70z" />
    <glyph glyph-name="eth" unicode="&#xf0;" horiz-adv-x="553" 
d="M275 -9q-106 0 -169 64t-63 168q0 103 60.5 168.5t164.5 65.5q59 0 100 -23t59 -57q-14 50 -48.5 96.5t-78.5 78.5l-80 -48l-26 41l62 36q-47 26 -116 38v57q90 -13 169 -64l86 50l26 -40l-69 -40q158 -125 158 -331q0 -124 -64 -192t-171 -68zM276 52q71 0 115.5 47.5
t44.5 126.5q0 77 -43.5 123.5t-116.5 46.5t-116.5 -49t-43.5 -124q0 -78 44.5 -124.5t115.5 -46.5z" />
    <glyph glyph-name="ntilde" unicode="&#xf1;" horiz-adv-x="534" 
d="M359 545q-36 0 -81 29.5t-66 29.5q-27 0 -37.5 -18.5t-10.5 -35.5h-48q0 45 24.5 75.5t68.5 30.5q38 0 83.5 -29.5t64.5 -29.5q26 0 36 17t10 37h48q0 -43 -24 -74.5t-68 -31.5zM74 0v448h64l1 -72q39 81 156 81q88 0 130 -48.5t42 -146.5v-262h-70v246q0 73 -24.5 111.5
t-93.5 38.5q-135 0 -135 -180v-216h-70z" />
    <glyph glyph-name="ograve" unicode="&#xf2;" horiz-adv-x="552" 
d="M281 520l-139 161h93l115 -161h-69zM275 -9q-106 0 -169 64t-63 168q0 103 63.5 168.5t170.5 65.5q105 0 168.5 -61t63.5 -168t-64.5 -172t-169.5 -65zM275 52q71 0 116 47.5t45 126.5q0 78 -45 124t-115 46q-73 0 -116.5 -49t-43.5 -124q0 -78 44 -124.5t115 -46.5z" />
    <glyph glyph-name="oacute" unicode="&#xf3;" horiz-adv-x="552" 
d="M208 520l115 161h93l-139 -161h-69zM275 -9q-106 0 -169 64t-63 168q0 103 63.5 168.5t170.5 65.5q105 0 168.5 -61t63.5 -168t-64.5 -172t-169.5 -65zM275 52q71 0 116 47.5t45 126.5q0 78 -45 124t-115 46q-73 0 -116.5 -49t-43.5 -124q0 -78 44 -124.5t115 -46.5z" />
    <glyph glyph-name="ocircumflex" unicode="&#xf4;" horiz-adv-x="552" 
d="M110 520l165 170l166 -170h-78l-88 95l-87 -95h-78zM275 -9q-106 0 -169 64t-63 168q0 103 63.5 168.5t170.5 65.5q105 0 168.5 -61t63.5 -168t-64.5 -172t-169.5 -65zM275 52q71 0 116 47.5t45 126.5q0 78 -45 124t-115 46q-73 0 -116.5 -49t-43.5 -124q0 -78 44 -124.5
t115 -46.5z" />
    <glyph glyph-name="otilde" unicode="&#xf5;" horiz-adv-x="552" 
d="M351 545q-36 0 -81 29.5t-66 29.5q-27 0 -37.5 -18.5t-10.5 -35.5h-48q0 45 24.5 75.5t68.5 30.5q38 0 83.5 -29.5t64.5 -29.5q26 0 36 17t10 37h48q0 -43 -24 -74.5t-68 -31.5zM275 -9q-106 0 -169 64t-63 168q0 103 63.5 168.5t170.5 65.5q105 0 168.5 -61t63.5 -168
t-64.5 -172t-169.5 -65zM275 52q71 0 116 47.5t45 126.5q0 78 -45 124t-115 46q-73 0 -116.5 -49t-43.5 -124q0 -78 44 -124.5t115 -46.5z" />
    <glyph glyph-name="odieresis" unicode="&#xf6;" horiz-adv-x="552" 
d="M181 564q-20 0 -33 13t-13 33t13.5 32.5t32.5 12.5q20 0 33 -12.5t13 -33.5q0 -20 -13 -32.5t-33 -12.5zM369 564q-20 0 -33 13t-13 33t13.5 32.5t32.5 12.5q20 0 33 -12.5t13 -33.5q0 -20 -13.5 -32.5t-32.5 -12.5zM275 -9q-106 0 -169 64t-63 168q0 103 63.5 168.5
t170.5 65.5q105 0 168.5 -61t63.5 -168t-64.5 -172t-169.5 -65zM275 52q71 0 116 47.5t45 126.5q0 78 -45 124t-115 46q-73 0 -116.5 -49t-43.5 -124q0 -78 44 -124.5t115 -46.5z" />
    <glyph glyph-name="divide" unicode="&#xf7;" 
d="M299 346q-21 0 -33.5 13t-12.5 34q0 20 13 33.5t33 13.5t33 -13.5t13 -34.5q0 -20 -13 -33t-33 -13zM92 197v58h408v-58h-408zM299 13q-21 0 -33.5 13t-12.5 34q0 20 13 33.5t33 13.5t33 -13.5t13 -34.5q0 -20 -13 -33t-33 -13z" />
    <glyph glyph-name="oslash" unicode="&#xf8;" horiz-adv-x="552" 
d="M62 -30l54 75q-73 64 -73 178q0 103 63.5 168.5t170.5 65.5q62 0 116 -26l35 47h62l-53 -74q72 -62 72 -176q0 -107 -64.5 -172t-169.5 -65q-67 0 -117 27l-35 -48h-61zM157 104l198 272q-32 20 -79 20q-73 0 -116.5 -49t-43.5 -124t41 -119zM275 52q71 0 116 47.5
t45 126.5q0 73 -41 119l-199 -272q32 -21 79 -21z" />
    <glyph glyph-name="ugrave" unicode="&#xf9;" horiz-adv-x="507" 
d="M259 520l-139 161h93l115 -161h-69zM254 -9q-187 0 -187 201v256h70v-254q0 -143 118 -143q117 0 117 143v254h68v-256q0 -201 -186 -201z" />
    <glyph glyph-name="uacute" unicode="&#xfa;" horiz-adv-x="507" 
d="M186 520l115 161h93l-139 -161h-69zM254 -9q-187 0 -187 201v256h70v-254q0 -143 118 -143q117 0 117 143v254h68v-256q0 -201 -186 -201z" />
    <glyph glyph-name="ucircumflex" unicode="&#xfb;" horiz-adv-x="507" 
d="M88 520l165 170l166 -170h-78l-88 95l-87 -95h-78zM254 -9q-187 0 -187 201v256h70v-254q0 -143 118 -143q117 0 117 143v254h68v-256q0 -201 -186 -201z" />
    <glyph glyph-name="udieresis" unicode="&#xfc;" horiz-adv-x="507" 
d="M159 564q-20 0 -33 13t-13 33t13.5 32.5t32.5 12.5q20 0 33 -12.5t13 -33.5q0 -20 -13 -32.5t-33 -12.5zM347 564q-20 0 -33 13t-13 33t13.5 32.5t32.5 12.5q20 0 33 -12.5t13 -33.5q0 -20 -13.5 -32.5t-32.5 -12.5zM254 -9q-187 0 -187 201v256h70v-254q0 -143 118 -143
q117 0 117 143v254h68v-256q0 -201 -186 -201z" />
    <glyph glyph-name="yacute" unicode="&#xfd;" horiz-adv-x="486" 
d="M175 520l115 161h93l-139 -161h-69zM108 -198l98 220l-186 426h77l146 -348l148 348h76l-283 -646h-76z" />
    <glyph glyph-name="thorn" unicode="&#xfe;" horiz-adv-x="577" 
d="M74 -198v861h70l-1 -293q52 87 169 87q101 0 161.5 -63t60.5 -167q0 -108 -61.5 -172t-160.5 -64q-57 0 -100.5 22.5t-67.5 58.5v-270h-70zM300 52q73 0 117 47.5t44 126.5q0 78 -44 124t-116 46q-75 0 -117.5 -49.5t-42.5 -124.5q0 -77 43.5 -123.5t115.5 -46.5z" />
    <glyph glyph-name="ydieresis" unicode="&#xff;" horiz-adv-x="486" 
d="M148 564q-20 0 -33 13t-13 33t13.5 32.5t32.5 12.5q20 0 33 -12.5t13 -33.5q0 -20 -13 -32.5t-33 -12.5zM336 564q-20 0 -33 13t-13 33t13.5 32.5t32.5 12.5q20 0 33 -12.5t13 -33.5q0 -20 -13.5 -32.5t-32.5 -12.5zM108 -198l98 220l-186 426h77l146 -348l148 348h76
l-283 -646h-76z" />
    <glyph glyph-name="Amacron" unicode="&#x100;" horiz-adv-x="647" 
d="M180 765v57h287v-57h-287zM26 0l293 658h10l293 -658h-79l-61 142h-318l-62 -142h-76zM189 204h268l-133 311z" />
    <glyph glyph-name="amacron" unicode="&#x101;" horiz-adv-x="490" 
d="M384 633v-58h-287v58h287zM240 457q183 0 183 -181v-276h-63l-1 63q-41 -72 -150 -72q-77 0 -121.5 40t-44.5 105q0 69 48.5 108.5t136.5 39.5q72 0 125 -29v17q0 62 -29 94t-96 32q-76 0 -142 -40v63q67 36 154 36zM224 43q64 0 96.5 38t32.5 102v18q-44 32 -121 32
q-56 0 -86.5 -24.5t-30.5 -69.5t30 -70.5t79 -25.5z" />
    <glyph glyph-name="Abreve" unicode="&#x102;" horiz-adv-x="647" 
d="M323 706q-165 0 -165 162v8h57q0 -57 25.5 -83.5t82.5 -26.5t82.5 26.5t25.5 83.5h57v-8q0 -162 -165 -162zM26 0l293 658h10l293 -658h-79l-61 142h-318l-62 -142h-76zM189 204h268l-133 311z" />
    <glyph glyph-name="abreve" unicode="&#x103;" horiz-adv-x="490" 
d="M240 511q-164 0 -164 162v8h55q0 -58 26.5 -85.5t82.5 -27.5q57 0 83 27.5t26 85.5h55v-8q0 -162 -164 -162zM240 457q183 0 183 -181v-276h-63l-1 63q-41 -72 -150 -72q-77 0 -121.5 40t-44.5 105q0 69 48.5 108.5t136.5 39.5q72 0 125 -29v17q0 62 -29 94t-96 32
q-76 0 -142 -40v63q67 36 154 36zM224 43q64 0 96.5 38t32.5 102v18q-44 32 -121 32q-56 0 -86.5 -24.5t-30.5 -69.5t30 -70.5t79 -25.5z" />
    <glyph glyph-name="Aogonek" unicode="&#x104;" horiz-adv-x="647" 
d="M549 -207q-44 0 -71 22t-27 67q0 41 24 73.5t66 49.5l-59 137h-317l-63 -142h-76l293 658h10l292 -658q-55 -13 -86.5 -42t-31.5 -66q0 -54 55 -54q33 0 53 14v-47q-24 -12 -62 -12zM189 204h268l-133 311z" />
    <glyph glyph-name="aogonek" unicode="&#x105;" horiz-adv-x="490" 
d="M423 0q-113 -34 -113 -108q0 -54 55 -54q31 0 53 14v-47q-24 -12 -62 -12q-44 0 -71 22t-27 67t27.5 78.5t74.5 47.5l-1 55q-41 -72 -150 -72q-77 0 -121.5 40t-44.5 105q0 69 48.5 108.5t136.5 39.5q72 0 125 -29v17q0 62 -29 94t-96 32q-76 0 -142 -40v63q67 36 154 36
q183 0 183 -181v-276zM224 43q64 0 96.5 38t32.5 102v18q-44 32 -121 32q-56 0 -86.5 -24.5t-30.5 -69.5t30 -70.5t79 -25.5z" />
    <glyph glyph-name="Cacute" unicode="&#x106;" horiz-adv-x="634" 
d="M316 715l116 161h93l-139 -161h-70zM378 -10q-151 0 -236.5 91.5t-85.5 241.5t85 242.5t235 92.5q60 0 110 -14.5t74 -32.5v-75q-80 55 -180 55q-116 0 -183 -72.5t-67 -193.5q0 -125 70.5 -196t184.5 -71q109 0 185 54v-76q-24 -17 -76.5 -31.5t-115.5 -14.5z" />
    <glyph glyph-name="cacute" unicode="&#x107;" horiz-adv-x="444" 
d="M207 520l115 161h93l-139 -161h-69zM273 -9q-102 0 -166 60t-64 169q0 108 62.5 172.5t169.5 64.5q62 0 118 -24v-68q-51 31 -113 31q-75 0 -119.5 -46t-44.5 -126q0 -81 43 -126.5t121 -45.5q70 0 117 34v-67q-42 -28 -124 -28z" />
    <glyph glyph-name="Ccircumflex" unicode="&#x108;" horiz-adv-x="634" 
d="M209 715l165 170l166 -170h-78l-88 95l-87 -95h-78zM378 -10q-151 0 -236.5 91.5t-85.5 241.5t85 242.5t235 92.5q60 0 110 -14.5t74 -32.5v-75q-80 55 -180 55q-116 0 -183 -72.5t-67 -193.5q0 -125 70.5 -196t184.5 -71q109 0 185 54v-76q-24 -17 -76.5 -31.5
t-115.5 -14.5z" />
    <glyph glyph-name="ccircumflex" unicode="&#x109;" horiz-adv-x="444" 
d="M109 520l165 170l166 -170h-78l-88 95l-87 -95h-78zM273 -9q-102 0 -166 60t-64 169q0 108 62.5 172.5t169.5 64.5q62 0 118 -24v-68q-51 31 -113 31q-75 0 -119.5 -46t-44.5 -126q0 -81 43 -126.5t121 -45.5q70 0 117 34v-67q-42 -28 -124 -28z" />
    <glyph glyph-name="Cdotaccent" unicode="&#x10a;" horiz-adv-x="634" 
d="M375 742q-23 0 -37 14.5t-14 37.5q0 22 14.5 36t36.5 14q21 0 35.5 -14.5t14.5 -36.5t-14.5 -36.5t-35.5 -14.5zM378 -10q-151 0 -236.5 91.5t-85.5 241.5t85 242.5t235 92.5q60 0 110 -14.5t74 -32.5v-75q-80 55 -180 55q-116 0 -183 -72.5t-67 -193.5q0 -125 70.5 -196
t184.5 -71q109 0 185 54v-76q-24 -17 -76.5 -31.5t-115.5 -14.5z" />
    <glyph glyph-name="cdotaccent" unicode="&#x10b;" horiz-adv-x="444" 
d="M275 564q-20 0 -33 13t-13 33t13 32.5t33 12.5q19 0 32 -12.5t13 -33.5q0 -20 -13 -32.5t-32 -12.5zM273 -9q-102 0 -166 60t-64 169q0 108 62.5 172.5t169.5 64.5q62 0 118 -24v-68q-51 31 -113 31q-75 0 -119.5 -46t-44.5 -126q0 -81 43 -126.5t121 -45.5q70 0 117 34
v-67q-42 -28 -124 -28z" />
    <glyph glyph-name="Ccaron" unicode="&#x10c;" horiz-adv-x="634" 
d="M374 706l-165 170h78l87 -95l88 95h78zM378 -10q-151 0 -236.5 91.5t-85.5 241.5t85 242.5t235 92.5q60 0 110 -14.5t74 -32.5v-75q-80 55 -180 55q-116 0 -183 -72.5t-67 -193.5q0 -125 70.5 -196t184.5 -71q109 0 185 54v-76q-24 -17 -76.5 -31.5t-115.5 -14.5z" />
    <glyph glyph-name="ccaron" unicode="&#x10d;" horiz-adv-x="444" 
d="M274 511l-165 170h78l87 -95l88 95h78zM273 -9q-102 0 -166 60t-64 169q0 108 62.5 172.5t169.5 64.5q62 0 118 -24v-68q-51 31 -113 31q-75 0 -119.5 -46t-44.5 -126q0 -81 43 -126.5t121 -45.5q70 0 117 34v-67q-42 -28 -124 -28z" />
    <glyph glyph-name="Dcaron" unicode="&#x10e;" horiz-adv-x="677" 
d="M500 876l-166 -170l-165 170h78l87 -95l88 95h78zM218 648q67 0 117 -5t107 -24t93.5 -52t61 -92.5t24.5 -142.5q0 -82 -24 -143.5t-61.5 -96.5t-92 -56.5t-106 -28.5t-113.5 -7h-135v648h129zM216 63q58 0 103.5 6.5t89.5 24t73 47t46.5 78t17.5 113.5t-18 112t-46 74
t-73 43t-88.5 20.5t-102.5 4.5h-56v-523h54z" />
    <glyph glyph-name="dcaron" unicode="&#x10f;" horiz-adv-x="675" 
d="M619 668q21 0 36 -14.5t15 -42.5q0 -53 -53 -91h-44q43 40 48 68q-20 -2 -33 8.5t-13 29.5t12.5 30.5t31.5 11.5zM433 373v290h70v-663h-64l-1 82q-19 -40 -63.5 -65.5t-108.5 -25.5q-100 0 -161.5 62.5t-61.5 168.5q0 102 59 168.5t162 66.5q117 0 169 -84zM277 52
q76 0 117.5 49t41.5 125q0 75 -42 122.5t-117 47.5q-77 0 -119 -50t-42 -123q0 -74 43 -122.5t118 -48.5z" />
    <glyph glyph-name="Dcroat" unicode="&#x110;" horiz-adv-x="702" 
d="M244 648q67 0 117 -5t107 -24t93.5 -52t61 -92.5t24.5 -142.5q0 -82 -24 -143.5t-61.5 -96.5t-92 -56.5t-106 -28.5t-113.5 -7h-135v301h-102v59h102v288h129zM242 63q58 0 103.5 6.5t89.5 24t73 47t46.5 78t17.5 113.5t-18 112t-46 74t-73 43t-88.5 20.5t-102.5 4.5h-56
v-226h150v-59h-150v-238h54z" />
    <glyph glyph-name="dcroat" unicode="&#x111;" horiz-adv-x="559" 
d="M579 576v-55h-76v-521h-64l-1 82q-19 -40 -63.5 -65.5t-108.5 -25.5q-100 0 -161.5 62.5t-61.5 168.5q0 102 59 168.5t162 66.5q117 0 169 -84v148h-133v55h133v87h70v-87h76zM277 52q76 0 117.5 49t41.5 125q0 75 -42 122.5t-117 47.5q-77 0 -119 -50t-42 -123
q0 -74 43 -122.5t118 -48.5z" />
    <glyph glyph-name="Emacron" unicode="&#x112;" horiz-adv-x="506" 
d="M134 765v57h287v-57h-287zM89 0v648h374v-62h-301v-225h223v-61h-223v-237h313v-63h-386z" />
    <glyph glyph-name="emacron" unicode="&#x113;" horiz-adv-x="510" 
d="M116 575v58h287v-58h-287zM281 -9q-115 0 -176.5 59.5t-61.5 169.5q0 107 57.5 172t159.5 65q97 0 152 -58t55 -158q0 -28 -3 -43h-348q7 -147 175 -147q86 0 156 39v-63q-64 -36 -166 -36zM116 249h279q3 69 -34.5 109t-100.5 40q-61 0 -100.5 -40.5t-43.5 -108.5z" />
    <glyph glyph-name="Ebreve" unicode="&#x114;" horiz-adv-x="506" 
d="M277 706q-165 0 -165 162v8h57q0 -57 25.5 -83.5t82.5 -26.5t82.5 26.5t25.5 83.5h57v-8q0 -162 -165 -162zM89 0v648h374v-62h-301v-225h223v-61h-223v-237h313v-63h-386z" />
    <glyph glyph-name="ebreve" unicode="&#x115;" horiz-adv-x="510" 
d="M259 511q-164 0 -164 162v8h55q0 -58 26.5 -85.5t82.5 -27.5q57 0 83 27.5t26 85.5h55v-8q0 -162 -164 -162zM281 -9q-115 0 -176.5 59.5t-61.5 169.5q0 107 57.5 172t159.5 65q97 0 152 -58t55 -158q0 -28 -3 -43h-348q7 -147 175 -147q86 0 156 39v-63
q-64 -36 -166 -36zM116 249h279q3 69 -34.5 109t-100.5 40q-61 0 -100.5 -40.5t-43.5 -108.5z" />
    <glyph glyph-name="Edotaccent" unicode="&#x116;" horiz-adv-x="506" 
d="M278 742q-23 0 -37 14.5t-14 37.5q0 22 14.5 36t36.5 14q21 0 35.5 -14.5t14.5 -36.5t-14.5 -36.5t-35.5 -14.5zM89 0v648h374v-62h-301v-225h223v-61h-223v-237h313v-63h-386z" />
    <glyph glyph-name="edotaccent" unicode="&#x117;" horiz-adv-x="510" 
d="M260 564q-20 0 -33 13t-13 33t13 32.5t33 12.5q19 0 32 -12.5t13 -33.5q0 -20 -13 -32.5t-32 -12.5zM281 -9q-115 0 -176.5 59.5t-61.5 169.5q0 107 57.5 172t159.5 65q97 0 152 -58t55 -158q0 -28 -3 -43h-348q7 -147 175 -147q86 0 156 39v-63q-64 -36 -166 -36z
M116 249h279q3 69 -34.5 109t-100.5 40q-61 0 -100.5 -40.5t-43.5 -108.5z" />
    <glyph glyph-name="Eogonek" unicode="&#x118;" horiz-adv-x="506" 
d="M407 -207q-44 0 -71.5 22t-27.5 67q0 40 22.5 71t62.5 47h-304v648h374v-62h-301v-225h223v-61h-223v-237h313v-63q-55 -14 -84.5 -42.5t-29.5 -65.5q0 -54 55 -54q31 0 53 14v-47q-24 -12 -62 -12z" />
    <glyph glyph-name="eogonek" unicode="&#x119;" horiz-adv-x="510" 
d="M348 -207q-44 0 -71.5 22t-27.5 67q0 36 18.5 66t51.5 46q-13 -3 -38 -3q-115 0 -176.5 59.5t-61.5 169.5q0 107 57.5 172t159.5 65q97 0 152 -58t55 -158q0 -28 -3 -43h-348q7 -147 175 -147q86 0 156 39v-63q-76 -35 -111 -64.5t-35 -70.5q0 -54 55 -54q32 0 54 14v-47
q-27 -12 -62 -12zM116 249h279q3 69 -34.5 109t-100.5 40q-61 0 -100.5 -40.5t-43.5 -108.5z" />
    <glyph glyph-name="Ecaron" unicode="&#x11a;" horiz-adv-x="506" 
d="M277 706l-165 170h78l87 -95l88 95h78zM89 0v648h374v-62h-301v-225h223v-61h-223v-237h313v-63h-386z" />
    <glyph glyph-name="ecaron" unicode="&#x11b;" horiz-adv-x="510" 
d="M259 511l-165 170h78l87 -95l88 95h78zM281 -9q-115 0 -176.5 59.5t-61.5 169.5q0 107 57.5 172t159.5 65q97 0 152 -58t55 -158q0 -28 -3 -43h-348q7 -147 175 -147q86 0 156 39v-63q-64 -36 -166 -36zM116 249h279q3 69 -34.5 109t-100.5 40q-61 0 -100.5 -40.5
t-43.5 -108.5z" />
    <glyph glyph-name="Gcircumflex" unicode="&#x11c;" horiz-adv-x="711" 
d="M217 715l165 170l166 -170h-78l-88 95l-87 -95h-78zM379 -10q-154 0 -238.5 92.5t-84.5 240.5q0 156 90.5 245.5t236.5 89.5q52 0 102.5 -12t74 -22.5t32.5 -17.5v-75q-95 60 -204 60q-114 0 -186 -70.5t-72 -196.5q0 -118 66.5 -192t182.5 -74q104 0 156.5 58t56.5 161
h-217v63h290v-28q0 -47 -6.5 -88.5t-25.5 -86t-49.5 -76t-83 -51.5t-121.5 -20z" />
    <glyph glyph-name="gcircumflex" unicode="&#x11d;" horiz-adv-x="575" 
d="M114 520l165 170l166 -170h-78l-88 95l-87 -95h-78zM269 -207q-85 0 -131 19v64q58 -22 129 -22q164 0 164 193v39q-20 -38 -62 -62t-104 -24q-102 0 -162 64t-60 164q0 101 59 165t162 64q61 0 105.5 -24.5t66.5 -63.5l1 79h64v-400q0 -126 -54 -190.5t-178 -64.5z
M276 62q72 0 113.5 47t42.5 120q0 78 -44 122.5t-115 44.5q-72 0 -114.5 -45.5t-42.5 -120.5q0 -76 43.5 -122t116.5 -46z" />
    <glyph glyph-name="Gbreve" unicode="&#x11e;" horiz-adv-x="711" 
d="M382 706q-165 0 -165 162v8h57q0 -57 25.5 -83.5t82.5 -26.5t82.5 26.5t25.5 83.5h57v-8q0 -162 -165 -162zM379 -10q-154 0 -238.5 92.5t-84.5 240.5q0 156 90.5 245.5t236.5 89.5q52 0 102.5 -12t74 -22.5t32.5 -17.5v-75q-95 60 -204 60q-114 0 -186 -70.5t-72 -196.5
q0 -118 66.5 -192t182.5 -74q104 0 156.5 58t56.5 161h-217v63h290v-28q0 -47 -6.5 -88.5t-25.5 -86t-49.5 -76t-83 -51.5t-121.5 -20z" />
    <glyph glyph-name="gbreve" unicode="&#x11f;" horiz-adv-x="575" 
d="M279 511q-164 0 -164 162v8h55q0 -58 26.5 -85.5t82.5 -27.5q57 0 83 27.5t26 85.5h55v-8q0 -162 -164 -162zM269 -207q-85 0 -131 19v64q58 -22 129 -22q164 0 164 193v39q-20 -38 -62 -62t-104 -24q-102 0 -162 64t-60 164q0 101 59 165t162 64q61 0 105.5 -24.5
t66.5 -63.5l1 79h64v-400q0 -126 -54 -190.5t-178 -64.5zM276 62q72 0 113.5 47t42.5 120q0 78 -44 122.5t-115 44.5q-72 0 -114.5 -45.5t-42.5 -120.5q0 -76 43.5 -122t116.5 -46z" />
    <glyph glyph-name="Gdotaccent" unicode="&#x120;" horiz-adv-x="711" 
d="M383 742q-23 0 -37 14.5t-14 37.5q0 22 14.5 36t36.5 14q21 0 35.5 -14.5t14.5 -36.5t-14.5 -36.5t-35.5 -14.5zM379 -10q-154 0 -238.5 92.5t-84.5 240.5q0 156 90.5 245.5t236.5 89.5q52 0 102.5 -12t74 -22.5t32.5 -17.5v-75q-95 60 -204 60q-114 0 -186 -70.5
t-72 -196.5q0 -118 66.5 -192t182.5 -74q104 0 156.5 58t56.5 161h-217v63h290v-28q0 -47 -6.5 -88.5t-25.5 -86t-49.5 -76t-83 -51.5t-121.5 -20z" />
    <glyph glyph-name="gdotaccent" unicode="&#x121;" horiz-adv-x="575" 
d="M280 564q-20 0 -33 13t-13 33t13 32.5t33 12.5q19 0 32 -12.5t13 -33.5q0 -20 -13 -32.5t-32 -12.5zM269 -207q-85 0 -131 19v64q58 -22 129 -22q164 0 164 193v39q-20 -38 -62 -62t-104 -24q-102 0 -162 64t-60 164q0 101 59 165t162 64q61 0 105.5 -24.5t66.5 -63.5
l1 79h64v-400q0 -126 -54 -190.5t-178 -64.5zM276 62q72 0 113.5 47t42.5 120q0 78 -44 122.5t-115 44.5q-72 0 -114.5 -45.5t-42.5 -120.5q0 -76 43.5 -122t116.5 -46z" />
    <glyph glyph-name="Gcommaaccent" unicode="&#x122;" horiz-adv-x="711" 
d="M375 340h290v-28q0 -47 -6.5 -88.5t-25.5 -86t-49.5 -76t-83 -51.5t-121.5 -20q-154 0 -238.5 92.5t-84.5 240.5q0 156 90.5 245.5t236.5 89.5q52 0 102.5 -12t74 -22.5t32.5 -17.5v-75q-95 60 -204 60q-114 0 -186 -70.5t-72 -196.5q0 -118 66.5 -192t182.5 -74
q104 0 156.5 58t56.5 161h-217v63zM376 -65q21 0 36 -14.5t15 -41.5q0 -48 -46 -86h-46q37 33 43 62q-20 -3 -33 7.5t-13 30.5q0 19 12.5 30.5t31.5 11.5z" />
    <glyph glyph-name="gcommaaccent" unicode="&#x123;" horiz-adv-x="575" 
d="M270 520q-21 0 -36 14.5t-15 42.5q0 53 53 91h44q-43 -40 -48 -68q20 2 33 -8.5t13 -29.5t-12.5 -30.5t-31.5 -11.5zM437 448h64v-400q0 -126 -54 -190.5t-178 -64.5q-85 0 -131 19v64q58 -22 129 -22q164 0 164 193v39q-20 -38 -62 -62t-104 -24q-102 0 -162 64t-60 164
q0 101 59 165t162 64q61 0 105.5 -24.5t66.5 -63.5zM276 62q72 0 113.5 47t42.5 120q0 78 -44 122.5t-115 44.5q-72 0 -114.5 -45.5t-42.5 -120.5q0 -76 43.5 -122t116.5 -46z" />
    <glyph glyph-name="Hcircumflex" unicode="&#x124;" horiz-adv-x="698" 
d="M182 715l165 170l166 -170h-78l-88 95l-87 -95h-78zM89 0v648h73v-287h374v287h73v-648h-73v298h-374v-298h-73z" />
    <glyph glyph-name="hcircumflex" unicode="&#x125;" horiz-adv-x="534" 
d="M-57 710l165 170l166 -170h-78l-88 95l-87 -95h-78zM74 0v663h70v-278q42 72 151 72q88 0 130 -48.5t42 -146.5v-262h-70v246q0 72 -24.5 111t-92.5 39q-136 0 -136 -180v-216h-70z" />
    <glyph glyph-name="Hbar" unicode="&#x126;" horiz-adv-x="722" 
d="M710 535v-58h-75v-477h-73v298h-374v-298h-73v477h-102v58h102v113h73v-113h374v113h73v-113h75zM562 361v116h-374v-116h374z" />
    <glyph glyph-name="hbar" unicode="&#x127;" horiz-adv-x="534" 
d="M295 457q88 0 130 -48.5t42 -146.5v-262h-70v246q0 72 -24.5 111t-92.5 39q-136 0 -136 -180v-216h-70v521h-75v55h75v87h70v-87h134v-55h-134v-136q42 72 151 72z" />
    <glyph glyph-name="Itilde" unicode="&#x128;" horiz-adv-x="251" 
d="M201 740q-36 0 -81 29t-66 29q-27 0 -37.5 -18t-10.5 -35h-48q0 45 24.5 75.5t68.5 30.5q38 0 83.5 -29.5t64.5 -29.5q26 0 36 17t10 37h48q0 -44 -24 -75t-68 -31zM89 0v648h73v-648h-73z" />
    <glyph glyph-name="itilde" unicode="&#x129;" horiz-adv-x="231" 
d="M196 545q-36 0 -81 29.5t-66 29.5q-27 0 -37.5 -18.5t-10.5 -35.5h-48q0 45 24.5 75.5t68.5 30.5q38 0 83.5 -29.5t64.5 -29.5q26 0 36 17t10 37h48q0 -43 -24 -74.5t-68 -31.5zM87 0v391h-63v57h133v-448h-70z" />
    <glyph glyph-name="Imacron" unicode="&#x12a;" horiz-adv-x="251" 
d="M-18 765v57h287v-57h-287zM89 0v648h73v-648h-73z" />
    <glyph glyph-name="imacron" unicode="&#x12b;" horiz-adv-x="231" 
d="M-23 575v58h287v-58h-287zM87 0v391h-63v57h133v-448h-70z" />
    <glyph glyph-name="Ibreve" unicode="&#x12c;" horiz-adv-x="251" 
d="M125 706q-165 0 -165 162v8h57q0 -57 25.5 -83.5t82.5 -26.5t82.5 26.5t25.5 83.5h57v-8q0 -162 -165 -162zM89 0v648h73v-648h-73z" />
    <glyph glyph-name="ibreve" unicode="&#x12d;" horiz-adv-x="231" 
d="M120 511q-164 0 -164 162v8h55q0 -58 26.5 -85.5t82.5 -27.5q57 0 83 27.5t26 85.5h55v-8q0 -162 -164 -162zM87 0v391h-63v57h133v-448h-70z" />
    <glyph glyph-name="Iogonek" unicode="&#x12e;" horiz-adv-x="251" 
d="M110 -207q-44 0 -71.5 22t-27.5 70q0 37 21 69t57 50v644h73v-648q-47 -16 -72.5 -44.5t-25.5 -63.5q0 -54 55 -54q31 0 53 14v-47q-27 -12 -62 -12z" />
    <glyph glyph-name="iogonek" unicode="&#x12f;" horiz-adv-x="231" 
d="M122 564q-20 0 -33 13t-13 33t13.5 32.5t32.5 12.5q20 0 32.5 -12.5t12.5 -33.5q0 -20 -13 -32.5t-32 -12.5zM24 391v57h133v-448q-52 -16 -81 -44t-29 -64q0 -54 55 -54q31 0 53 14v-47q-24 -12 -62 -12q-44 0 -71.5 22t-27.5 67q0 42 25 75t68 51v383h-63z" />
    <glyph glyph-name="Idotaccent" unicode="&#x130;" horiz-adv-x="251" 
d="M126 742q-23 0 -37 14.5t-14 37.5q0 22 14.5 36t36.5 14q21 0 35.5 -14.5t14.5 -36.5t-14.5 -36.5t-35.5 -14.5zM89 0v648h73v-648h-73z" />
    <glyph glyph-name="dotlessi" unicode="&#x131;" horiz-adv-x="231" 
d="M87 0v391h-63v57h133v-448h-70z" />
    <glyph glyph-name="IJ" unicode="&#x132;" horiz-adv-x="712" 
d="M89 0v648h73v-648h-73zM431 -10q-79 0 -125 22v69q44 -25 114 -25q81 0 110.5 41.5t29.5 141.5v348h-169v61h242v-431q0 -116 -46.5 -171.5t-155.5 -55.5z" />
    <glyph glyph-name="ij" unicode="&#x133;" horiz-adv-x="462" 
d="M122 564q-20 0 -33 13t-13 33t13.5 32.5t32.5 12.5q20 0 32.5 -12.5t12.5 -33.5q0 -20 -13 -32.5t-32 -12.5zM353 564q-20 0 -33 13t-13 33t13.5 32.5t32.5 12.5q20 0 32.5 -12.5t12.5 -33.5q0 -20 -13 -32.5t-32 -12.5zM87 0v391h-63v57h133v-448h-70zM232 -207
q-42 0 -79 13v61q34 -15 69 -15q56 0 76 34t20 97v408h-63v57h133v-461q0 -93 -35 -143.5t-121 -50.5z" />
    <glyph glyph-name="Jcircumflex" unicode="&#x134;" horiz-adv-x="465" 
d="M91 715l165 170l166 -170h-78l-88 95l-87 -95h-78zM184 -10q-79 0 -125 22v69q44 -25 114 -25q81 0 110.5 41.5t29.5 141.5v348h-169v61h242v-431q0 -116 -46.5 -171.5t-155.5 -55.5z" />
    <glyph glyph-name="jcircumflex" unicode="&#x135;" horiz-adv-x="231" 
d="M-48 520l165 170l166 -170h-78l-88 95l-87 -95h-78zM1 -207q-42 0 -79 13v61q34 -15 69 -15q56 0 76 34t20 97v408h-63v57h133v-461q0 -93 -35 -143.5t-121 -50.5z" />
    <glyph glyph-name="Kcommaaccent" unicode="&#x136;" horiz-adv-x="610" 
d="M249 330l340 -330h-100l-327 321v-321h-73v648h73v-313l322 313h97zM308 -65q21 0 36 -14.5t15 -41.5q0 -48 -46 -86h-46q37 33 43 62q-20 -3 -33 7.5t-13 30.5q0 19 12.5 30.5t31.5 11.5z" />
    <glyph glyph-name="kcommaaccent" unicode="&#x137;" horiz-adv-x="475" 
d="M224 240l237 -240h-93l-224 233v-233h-70v663h70v-418l214 203h93zM244 -65q21 0 36 -14.5t15 -41.5q0 -48 -46 -86h-46q37 33 43 62q-20 -3 -33 7.5t-13 30.5q0 19 12.5 30.5t31.5 11.5z" />
    <glyph glyph-name="kgreenlandic" unicode="&#x138;" horiz-adv-x="473" 
d="M74 0v448h70v-212l214 212h92l-227 -217l238 -231h-94l-223 222v-222h-70z" />
    <glyph glyph-name="Lacute" unicode="&#x139;" horiz-adv-x="523" 
d="M89 715l116 161h93l-139 -161h-70zM89 0v648h73v-585h323v-63h-396z" />
    <glyph glyph-name="lacute" unicode="&#x13a;" horiz-adv-x="218" 
d="M75 735l115 161h93l-139 -161h-69zM74 0v663h70v-663h-70z" />
    <glyph glyph-name="Lcommaaccent" unicode="&#x13b;" horiz-adv-x="523" 
d="M162 63h323v-63h-396v648h73v-585zM286 -65q21 0 36 -14.5t15 -41.5q0 -48 -46 -86h-46q37 33 43 62q-20 -3 -33 7.5t-13 30.5q0 19 12.5 30.5t31.5 11.5z" />
    <glyph glyph-name="lcommaaccent" unicode="&#x13c;" horiz-adv-x="218" 
d="M144 663v-663h-70v663h70zM106 -65q21 0 36 -14.5t15 -41.5q0 -48 -46 -86h-46q37 33 43 62q-20 -3 -33 7.5t-13 30.5q0 19 12.5 30.5t31.5 11.5z" />
    <glyph glyph-name="Lcaron" unicode="&#x13d;" horiz-adv-x="523" 
d="M292 510q43 40 48 68q-20 -2 -33 8.5t-13 29.5t12.5 30.5t31.5 11.5q21 0 36 -14.5t15 -42.5q0 -53 -53 -91h-44zM162 63h323v-63h-396v648h73v-585z" />
    <glyph glyph-name="lcaron" unicode="&#x13e;" horiz-adv-x="310" 
d="M259 668q21 0 36 -14.5t15 -42.5q0 -53 -53 -91h-44q43 40 48 68q-20 -2 -33 8.5t-13 29.5t12.5 30.5t31.5 11.5zM74 0v663h70v-663h-70z" />
    <glyph glyph-name="Ldot" unicode="&#x13f;" horiz-adv-x="523" 
d="M89 0v648h73v-585h323v-63h-396zM387 280q-22 0 -35.5 14t-13.5 36q0 21 14.5 35t34.5 14q21 0 34.5 -14t13.5 -36t-13.5 -35.5t-34.5 -13.5z" />
    <glyph glyph-name="ldot" unicode="&#x140;" horiz-adv-x="340" 
d="M74 0v663h70v-663h-70zM274 282q-22 0 -36.5 14t-14.5 37q0 22 14.5 36.5t36.5 14.5q21 0 35.5 -14.5t14.5 -36.5q0 -23 -14.5 -37t-35.5 -14z" />
    <glyph glyph-name="Lslash" unicode="&#x141;" horiz-adv-x="523" 
d="M89 0v261l-90 -50v64l90 50v323h73v-292l168 91v-64l-168 -92v-228h323v-63h-396z" />
    <glyph glyph-name="lslash" unicode="&#x142;" horiz-adv-x="269" 
d="M99 0v287l-81 -46v59l81 46v317h70v-285l82 46v-60l-82 -46v-318h-70z" />
    <glyph glyph-name="Nacute" unicode="&#x143;" horiz-adv-x="708" 
d="M295 715l116 161h93l-139 -161h-70zM609 -10l-449 506v-496h-71v658h10l449 -507v497h71v-658h-10z" />
    <glyph glyph-name="nacute" unicode="&#x144;" horiz-adv-x="534" 
d="M216 520l115 161h93l-139 -161h-69zM74 0v448h64l1 -72q39 81 156 81q88 0 130 -48.5t42 -146.5v-262h-70v246q0 73 -24.5 111.5t-93.5 38.5q-135 0 -135 -180v-216h-70z" />
    <glyph glyph-name="Ncommaaccent" unicode="&#x145;" horiz-adv-x="708" 
d="M548 648h71v-658h-10l-449 506v-496h-71v658h10l449 -507v497zM351 -65q21 0 36 -14.5t15 -41.5q0 -48 -46 -86h-46q37 33 43 62q-20 -3 -33 7.5t-13 30.5q0 19 12.5 30.5t31.5 11.5z" />
    <glyph glyph-name="ncommaaccent" unicode="&#x146;" horiz-adv-x="534" 
d="M295 457q88 0 130 -48.5t42 -146.5v-262h-70v246q0 73 -24.5 111.5t-93.5 38.5q-135 0 -135 -180v-216h-70v448h64l1 -72q39 81 156 81zM267 -65q21 0 36 -14.5t15 -41.5q0 -48 -46 -86h-46q37 33 43 62q-20 -3 -33 7.5t-13 30.5q0 19 12.5 30.5t31.5 11.5z" />
    <glyph glyph-name="Ncaron" unicode="&#x147;" horiz-adv-x="708" 
d="M353 706l-165 170h78l87 -95l88 95h78zM609 -10l-449 506v-496h-71v658h10l449 -507v497h71v-658h-10z" />
    <glyph glyph-name="ncaron" unicode="&#x148;" horiz-adv-x="534" 
d="M283 511l-165 170h78l87 -95l88 95h78zM74 0v448h64l1 -72q39 81 156 81q88 0 130 -48.5t42 -146.5v-262h-70v246q0 73 -24.5 111.5t-93.5 38.5q-135 0 -135 -180v-216h-70z" />
    <glyph glyph-name="Eng" unicode="&#x14a;" horiz-adv-x="708" 
d="M425 -207q-65 0 -111 18v62q42 -20 100 -20q78 0 106 41.5t28 130.5v29l-388 442v-496h-71v658h8l451 -507v497h71v-627q0 -117 -44 -172.5t-150 -55.5z" />
    <glyph glyph-name="eng" unicode="&#x14b;" horiz-adv-x="534" 
d="M322 -207q-20 0 -36 3v58q12 -3 25 -3q52 0 69 32t17 94v269q0 73 -24.5 111.5t-93.5 38.5q-135 0 -135 -180v-216h-70v448h64l1 -72q41 81 156 81q88 0 130 -48.5t42 -146.5v-276q0 -34 -2 -58t-10.5 -51.5t-23.5 -44.5t-42.5 -28t-66.5 -11z" />
    <glyph glyph-name="Omacron" unicode="&#x14c;" horiz-adv-x="750" 
d="M233 765v57h287v-57h-287zM374 -10q-148 0 -233 94.5t-85 239.5q0 146 86 240t235 94t233 -93t84 -237q0 -147 -85 -242.5t-235 -95.5zM376 58q111 0 177.5 75t66.5 194q0 116 -67 190t-178 74q-108 0 -176.5 -74t-68.5 -191q0 -116 67.5 -192t178.5 -76z" />
    <glyph glyph-name="omacron" unicode="&#x14d;" horiz-adv-x="552" 
d="M132 575v58h287v-58h-287zM275 -9q-106 0 -169 64t-63 168q0 103 63.5 168.5t170.5 65.5q105 0 168.5 -61t63.5 -168t-64.5 -172t-169.5 -65zM275 52q71 0 116 47.5t45 126.5q0 78 -45 124t-115 46q-73 0 -116.5 -49t-43.5 -124q0 -78 44 -124.5t115 -46.5z" />
    <glyph glyph-name="Obreve" unicode="&#x14e;" horiz-adv-x="750" 
d="M376 706q-165 0 -165 162v8h57q0 -57 25.5 -83.5t82.5 -26.5t82.5 26.5t25.5 83.5h57v-8q0 -162 -165 -162zM374 -10q-148 0 -233 94.5t-85 239.5q0 146 86 240t235 94t233 -93t84 -237q0 -147 -85 -242.5t-235 -95.5zM376 58q111 0 177.5 75t66.5 194q0 116 -67 190
t-178 74q-108 0 -176.5 -74t-68.5 -191q0 -116 67.5 -192t178.5 -76z" />
    <glyph glyph-name="obreve" unicode="&#x14f;" horiz-adv-x="552" 
d="M275 511q-164 0 -164 162v8h55q0 -58 26.5 -85.5t82.5 -27.5q57 0 83 27.5t26 85.5h55v-8q0 -162 -164 -162zM275 -9q-106 0 -169 64t-63 168q0 103 63.5 168.5t170.5 65.5q105 0 168.5 -61t63.5 -168t-64.5 -172t-169.5 -65zM275 52q71 0 116 47.5t45 126.5
q0 78 -45 124t-115 46q-73 0 -116.5 -49t-43.5 -124q0 -78 44 -124.5t115 -46.5z" />
    <glyph glyph-name="Ohungarumlaut" unicode="&#x150;" horiz-adv-x="750" 
d="M203 715l130 161h93l-153 -161h-70zM389 715l130 161h93l-153 -161h-70zM374 -10q-148 0 -233 94.5t-85 239.5q0 146 86 240t235 94t233 -93t84 -237q0 -147 -85 -242.5t-235 -95.5zM376 58q111 0 177.5 75t66.5 194q0 116 -67 190t-178 74q-108 0 -176.5 -74t-68.5 -191
q0 -116 67.5 -192t178.5 -76z" />
    <glyph glyph-name="ohungarumlaut" unicode="&#x151;" horiz-adv-x="552" 
d="M127 520l130 161h93l-153 -161h-70zM313 520l130 161h93l-153 -161h-70zM275 -9q-106 0 -169 64t-63 168q0 103 63.5 168.5t170.5 65.5q105 0 168.5 -61t63.5 -168t-64.5 -172t-169.5 -65zM275 52q71 0 116 47.5t45 126.5q0 78 -45 124t-115 46q-73 0 -116.5 -49
t-43.5 -124q0 -78 44 -124.5t115 -46.5z" />
    <glyph glyph-name="OE" unicode="&#x152;" horiz-adv-x="1036" 
d="M374 -10q-148 0 -233 95t-85 240t86 239t233 94q88 0 152 -37.5t99 -102.5v130h367v-62h-302v-225h224v-61h-224v-237h314v-63h-379v133q-30 -64 -97.5 -103.5t-154.5 -39.5zM376 59q111 0 176.5 75t65.5 193q0 116 -66.5 190t-176.5 74q-108 0 -176.5 -74t-68.5 -191
q0 -116 67.5 -191.5t178.5 -75.5z" />
    <glyph glyph-name="oe" unicode="&#x153;" horiz-adv-x="903" 
d="M275 -9q-106 0 -169 64t-63 168q0 103 63.5 168.5t170.5 65.5q68 0 119.5 -28.5t72.5 -78.5q26 51 73.5 79t111.5 28q97 0 151.5 -58t54.5 -158q0 -23 -2 -43h-349q9 -147 175 -147q89 0 156 39v-63q-64 -36 -165 -36q-76 0 -129.5 28t-76.5 80q-27 -52 -77.5 -80
t-116.5 -28zM510 249h278q4 69 -34 109t-100 40t-101 -40.5t-43 -108.5zM275 52q71 0 116 47.5t45 126.5q0 78 -45 124t-115 46q-73 0 -116.5 -49t-43.5 -124q0 -78 44 -124.5t115 -46.5z" />
    <glyph glyph-name="Racute" unicode="&#x154;" horiz-adv-x="593" 
d="M443 876l-139 -161h-70l116 161h93zM393 257l167 -257h-88l-155 247h-155v-247h-73v648h203q240 0 240 -199q0 -83 -39.5 -130t-99.5 -62zM285 308q172 0 172 140q0 138 -177 138h-118v-278h123z" />
    <glyph glyph-name="racute" unicode="&#x155;" horiz-adv-x="328" 
d="M147 520l115 161h93l-139 -161h-69zM74 0v448h64l1 -75q17 37 56 60.5t89 23.5q18 0 27 -3v-64q-14 6 -39 6q-128 0 -128 -180v-216h-70z" />
    <glyph glyph-name="Rcommaaccent" unicode="&#x156;" horiz-adv-x="593" 
d="M393 257l167 -257h-88l-155 247h-155v-247h-73v648h203q240 0 240 -199q0 -83 -39.5 -130t-99.5 -62zM285 308q172 0 172 140q0 138 -177 138h-118v-278h123zM310 -65q21 0 36 -14.5t15 -41.5q0 -48 -46 -86h-46q37 33 43 62q-20 -3 -33 7.5t-13 30.5q0 19 12.5 30.5
t31.5 11.5z" />
    <glyph glyph-name="rcommaaccent" unicode="&#x157;" horiz-adv-x="328" 
d="M284 457q18 0 27 -3v-64q-14 6 -39 6q-128 0 -128 -180v-216h-70v448h64l1 -75q17 37 56 60.5t89 23.5zM105 -65q21 0 36 -14.5t15 -41.5q0 -48 -46 -86h-46q37 33 43 62q-20 -3 -33 7.5t-13 30.5q0 19 12.5 30.5t31.5 11.5z" />
    <glyph glyph-name="Rcaron" unicode="&#x158;" horiz-adv-x="593" 
d="M458 876l-166 -170l-165 170h78l87 -95l88 95h78zM393 257l167 -257h-88l-155 247h-155v-247h-73v648h203q240 0 240 -199q0 -83 -39.5 -130t-99.5 -62zM285 308q172 0 172 140q0 138 -177 138h-118v-278h123z" />
    <glyph glyph-name="rcaron" unicode="&#x159;" horiz-adv-x="328" 
d="M214 511l-165 170h78l87 -95l88 95h78zM74 0v448h64l1 -75q17 37 56 60.5t89 23.5q18 0 27 -3v-64q-14 6 -39 6q-128 0 -128 -180v-216h-70z" />
    <glyph glyph-name="Sacute" unicode="&#x15a;" horiz-adv-x="492" 
d="M208 715l116 161h93l-139 -161h-70zM235 -10q-95 0 -169 39v76q76 -50 167 -50q135 0 135 112q0 44 -30.5 73.5t-74 47.5t-87 38.5t-74 59.5t-30.5 97q0 81 52 128t143 47q88 0 149 -34v-75q-70 45 -145 45q-56 0 -90.5 -28t-34.5 -79q0 -36 22 -62t55 -39.5t71 -31.5
t71 -37t55 -56.5t22 -88.5q0 -91 -54.5 -136.5t-152.5 -45.5z" />
    <glyph glyph-name="sacute" unicode="&#x15b;" horiz-adv-x="377" 
d="M131 520l115 161h93l-139 -161h-69zM176 -9q-77 0 -122 26v62q54 -32 118 -32q44 0 69 18.5t25 55.5q0 32 -21 51.5t-51.5 30.5l-61 23t-51.5 39.5t-21 70.5q0 60 38 90.5t104 30.5t102 -22v-61q-46 27 -99 27q-79 0 -79 -61q0 -28 21.5 -45.5t52 -28t60.5 -23.5
t51.5 -42t21.5 -75q0 -67 -43 -101t-114 -34z" />
    <glyph glyph-name="Scircumflex" unicode="&#x15c;" horiz-adv-x="492" 
d="M101 715l165 170l166 -170h-78l-88 95l-87 -95h-78zM235 -10q-95 0 -169 39v76q76 -50 167 -50q135 0 135 112q0 44 -30.5 73.5t-74 47.5t-87 38.5t-74 59.5t-30.5 97q0 81 52 128t143 47q88 0 149 -34v-75q-70 45 -145 45q-56 0 -90.5 -28t-34.5 -79q0 -36 22 -62
t55 -39.5t71 -31.5t71 -37t55 -56.5t22 -88.5q0 -91 -54.5 -136.5t-152.5 -45.5z" />
    <glyph glyph-name="scircumflex" unicode="&#x15d;" horiz-adv-x="377" 
d="M33 520l165 170l166 -170h-78l-88 95l-87 -95h-78zM176 -9q-77 0 -122 26v62q54 -32 118 -32q44 0 69 18.5t25 55.5q0 32 -21 51.5t-51.5 30.5l-61 23t-51.5 39.5t-21 70.5q0 60 38 90.5t104 30.5t102 -22v-61q-46 27 -99 27q-79 0 -79 -61q0 -28 21.5 -45.5t52 -28
t60.5 -23.5t51.5 -42t21.5 -75q0 -67 -43 -101t-114 -34z" />
    <glyph glyph-name="Scedilla" unicode="&#x15e;" horiz-adv-x="492" 
d="M442 172q0 -90 -54 -135.5t-151 -46.5l-11 -36q8 5 21 5q76 -2 76 -80q0 -44 -28.5 -65t-74.5 -21q-41 0 -67 12v44q30 -15 61 -15q55 0 55 45t-45 45q-27 0 -47 -20l-10 6l24 82q-68 8 -125 37v76q76 -50 167 -50q135 0 135 112q0 44 -30.5 73.5t-74 47.5t-87 38.5
t-74 59.5t-30.5 97q0 81 52 128t143 47q88 0 149 -34v-75q-70 45 -145 45q-56 0 -90.5 -28t-34.5 -79q0 -36 22 -62t55 -39.5t71 -31.5t71 -37t55 -56.5t22 -88.5z" />
    <glyph glyph-name="scedilla" unicode="&#x15f;" horiz-adv-x="377" 
d="M333 126q0 -65 -40.5 -99t-107.5 -36l-12 -37q8 5 21 5q76 -2 76 -80q0 -44 -28.5 -65t-74.5 -21q-41 0 -67 12v44q30 -15 61 -15q55 0 55 45t-45 45q-27 0 -47 -20l-10 6l25 83q-53 7 -85 24v62q54 -32 118 -32q44 0 69 18.5t25 55.5q0 32 -21 51.5t-51.5 30.5l-61 23
t-51.5 39.5t-21 70.5q0 60 38 90.5t104 30.5t102 -22v-61q-46 27 -99 27q-79 0 -79 -61q0 -28 21.5 -45.5t52 -28t60.5 -23.5t51.5 -42t21.5 -75z" />
    <glyph glyph-name="Scaron" unicode="&#x160;" horiz-adv-x="492" 
d="M266 706l-165 170h78l87 -95l88 95h78zM235 -10q-95 0 -169 39v76q76 -50 167 -50q135 0 135 112q0 44 -30.5 73.5t-74 47.5t-87 38.5t-74 59.5t-30.5 97q0 81 52 128t143 47q88 0 149 -34v-75q-70 45 -145 45q-56 0 -90.5 -28t-34.5 -79q0 -36 22 -62t55 -39.5t71 -31.5
t71 -37t55 -56.5t22 -88.5q0 -91 -54.5 -136.5t-152.5 -45.5z" />
    <glyph glyph-name="scaron" unicode="&#x161;" horiz-adv-x="377" 
d="M198 511l-165 170h78l87 -95l88 95h78zM176 -9q-77 0 -122 26v62q54 -32 118 -32q44 0 69 18.5t25 55.5q0 32 -21 51.5t-51.5 30.5l-61 23t-51.5 39.5t-21 70.5q0 60 38 90.5t104 30.5t102 -22v-61q-46 27 -99 27q-79 0 -79 -61q0 -28 21.5 -45.5t52 -28t60.5 -23.5
t51.5 -42t21.5 -75q0 -67 -43 -101t-114 -34z" />
    <glyph glyph-name="uni0162" unicode="&#x162;" horiz-adv-x="543" 
d="M40 648h463v-62h-195v-586h-73v586h-195v62zM269 -65q21 0 36 -14.5t15 -41.5q0 -48 -46 -86h-46q37 33 43 62q-20 -3 -33 7.5t-13 30.5q0 19 12.5 30.5t31.5 11.5z" />
    <glyph glyph-name="uni0163" unicode="&#x163;" horiz-adv-x="363" 
d="M245 51q37 0 73 15v-60q-32 -15 -86 -15q-73 0 -103 37t-30 107v256h-69v9q35 27 72.5 74t57.5 88h9v-114h131v-57h-131v-244q0 -50 15 -73t61 -23zM208 -65q21 0 36 -14.5t15 -41.5q0 -48 -46 -86h-46q37 33 43 62q-20 -3 -33 7.5t-13 30.5q0 19 12.5 30.5t31.5 11.5z
" />
    <glyph glyph-name="Tcaron" unicode="&#x164;" horiz-adv-x="543" 
d="M271 706l-165 170h78l87 -95l88 95h78zM235 0v586h-195v62h463v-62h-195v-586h-73z" />
    <glyph glyph-name="tcaron" unicode="&#x165;" horiz-adv-x="369" 
d="M319 678q21 0 36 -14.5t15 -42.5q0 -53 -53 -91h-44q43 40 48 68q-20 -2 -33 8.5t-13 29.5t12.5 30.5t31.5 11.5zM169 147q0 -50 15 -73t61 -23q37 0 73 15v-60q-32 -15 -86 -15q-73 0 -103 37t-30 107v256h-69v9q35 27 72.5 74t57.5 88h9v-114h131v-57h-131v-244z" />
    <glyph glyph-name="Tbar" unicode="&#x166;" horiz-adv-x="543" 
d="M503 586h-195v-259h113v-58h-113v-269h-73v269h-113v58h113v259h-195v62h463v-62z" />
    <glyph glyph-name="tbar" unicode="&#x167;" horiz-adv-x="363" 
d="M245 51q37 0 73 15v-60q-32 -15 -86 -15q-73 0 -103 37t-30 107v77h-54v54h54v125h-69v9q35 27 72.5 74t57.5 88h9v-114h131v-57h-131v-125h111v-54h-111v-65q0 -50 15 -73t61 -23z" />
    <glyph glyph-name="Utilde" unicode="&#x168;" horiz-adv-x="653" 
d="M402 740q-36 0 -81 29t-66 29q-27 0 -37.5 -18t-10.5 -35h-48q0 45 24.5 75.5t68.5 30.5q38 0 83.5 -29.5t64.5 -29.5q26 0 36 17t10 37h48q0 -44 -24 -75t-68 -31zM327 -10q-128 0 -188 67t-60 203v388h73v-372q0 -113 40.5 -166t133.5 -53q91 0 133.5 52.5t42.5 166.5
v372h72v-387q0 -141 -61.5 -206t-185.5 -65z" />
    <glyph glyph-name="utilde" unicode="&#x169;" horiz-adv-x="507" 
d="M329 545q-36 0 -81 29.5t-66 29.5q-27 0 -37.5 -18.5t-10.5 -35.5h-48q0 45 24.5 75.5t68.5 30.5q38 0 83.5 -29.5t64.5 -29.5q26 0 36 17t10 37h48q0 -43 -24 -74.5t-68 -31.5zM254 -9q-187 0 -187 201v256h70v-254q0 -143 118 -143q117 0 117 143v254h68v-256
q0 -201 -186 -201z" />
    <glyph glyph-name="Umacron" unicode="&#x16a;" horiz-adv-x="653" 
d="M183 765v57h287v-57h-287zM327 -10q-128 0 -188 67t-60 203v388h73v-372q0 -113 40.5 -166t133.5 -53q91 0 133.5 52.5t42.5 166.5v372h72v-387q0 -141 -61.5 -206t-185.5 -65z" />
    <glyph glyph-name="umacron" unicode="&#x16b;" horiz-adv-x="507" 
d="M110 575v58h287v-58h-287zM254 -9q-187 0 -187 201v256h70v-254q0 -143 118 -143q117 0 117 143v254h68v-256q0 -201 -186 -201z" />
    <glyph glyph-name="Ubreve" unicode="&#x16c;" horiz-adv-x="653" 
d="M326 706q-165 0 -165 162v8h57q0 -57 25.5 -83.5t82.5 -26.5t82.5 26.5t25.5 83.5h57v-8q0 -162 -165 -162zM327 -10q-128 0 -188 67t-60 203v388h73v-372q0 -113 40.5 -166t133.5 -53q91 0 133.5 52.5t42.5 166.5v372h72v-387q0 -141 -61.5 -206t-185.5 -65z" />
    <glyph glyph-name="ubreve" unicode="&#x16d;" horiz-adv-x="507" 
d="M253 511q-164 0 -164 162v8h55q0 -58 26.5 -85.5t82.5 -27.5q57 0 83 27.5t26 85.5h55v-8q0 -162 -164 -162zM254 -9q-187 0 -187 201v256h70v-254q0 -143 118 -143q117 0 117 143v254h68v-256q0 -201 -186 -201z" />
    <glyph glyph-name="Uring" unicode="&#x16e;" horiz-adv-x="653" 
d="M327 690q-45 0 -75 29.5t-30 73.5t30 73.5t75 29.5q46 0 75.5 -29.5t29.5 -73.5t-29.5 -73.5t-75.5 -29.5zM327 731q26 0 43 17t17 45q0 27 -17 44.5t-43 17.5t-43 -17t-17 -45t17 -45t43 -17zM327 -10q-128 0 -188 67t-60 203v388h73v-372q0 -113 40.5 -166t133.5 -53
q91 0 133.5 52.5t42.5 166.5v372h72v-387q0 -141 -61.5 -206t-185.5 -65z" />
    <glyph glyph-name="uring" unicode="&#x16f;" horiz-adv-x="507" 
d="M254 510q-45 0 -75 29.5t-30 73.5t30 73.5t75 29.5q46 0 75.5 -29.5t29.5 -73.5t-29.5 -73.5t-75.5 -29.5zM254 551q26 0 43 17t17 45q0 27 -17 44.5t-43 17.5t-43 -17t-17 -45t17 -45t43 -17zM254 -9q-187 0 -187 201v256h70v-254q0 -143 118 -143q117 0 117 143v254h68
v-256q0 -201 -186 -201z" />
    <glyph glyph-name="Uhungarumlaut" unicode="&#x170;" horiz-adv-x="653" 
d="M153 715l130 161h93l-153 -161h-70zM339 715l130 161h93l-153 -161h-70zM327 -10q-128 0 -188 67t-60 203v388h73v-372q0 -113 40.5 -166t133.5 -53q91 0 133.5 52.5t42.5 166.5v372h72v-387q0 -141 -61.5 -206t-185.5 -65z" />
    <glyph glyph-name="uhungarumlaut" unicode="&#x171;" horiz-adv-x="507" 
d="M105 520l130 161h93l-153 -161h-70zM291 520l130 161h93l-153 -161h-70zM254 -9q-187 0 -187 201v256h70v-254q0 -143 118 -143q117 0 117 143v254h68v-256q0 -201 -186 -201z" />
    <glyph glyph-name="Uogonek" unicode="&#x172;" horiz-adv-x="653" 
d="M392 -207q-44 0 -71.5 22t-27.5 67q0 76 71 111q-10 -3 -37 -3q-128 0 -188 67t-60 203v388h73v-372q0 -113 40.5 -166t133.5 -53q91 0 133.5 52.5t42.5 166.5v372h72v-392q0 -70 -17 -121t-42 -77t-55 -47t-55 -33.5t-42 -34.5t-17 -52q0 -53 55 -53q31 0 53 14v-47
q-24 -12 -62 -12z" />
    <glyph glyph-name="uogonek" unicode="&#x173;" horiz-adv-x="507" 
d="M312 -207q-44 0 -71.5 22t-27.5 67q0 37 19.5 67t50.5 45q-12 -3 -29 -3q-187 0 -187 201v256h70v-254q0 -143 118 -143q117 0 117 143v254h68v-260q0 -58 -18 -99.5t-43.5 -63.5t-51 -40t-43.5 -40.5t-18 -53.5q0 -53 55 -53q31 0 53 14v-47q-27 -12 -62 -12z" />
    <glyph glyph-name="Wcircumflex" unicode="&#x174;" horiz-adv-x="930" 
d="M299 715l165 170l166 -170h-78l-88 95l-87 -95h-78zM276 -9l-242 657h80l169 -488l177 488h10l177 -488l171 488h78l-241 -657h-10l-180 493l-179 -493h-10z" />
    <glyph glyph-name="wcircumflex" unicode="&#x175;" horiz-adv-x="723" 
d="M199 520l165 170l166 -170h-78l-88 95l-87 -95h-78zM221 -9l-194 457h77l124 -315l132 315h10l128 -315l123 315h75l-190 -457h-10l-131 321l-134 -321h-10z" />
    <glyph glyph-name="Ycircumflex" unicode="&#x176;" horiz-adv-x="586" 
d="M126 715l165 170l166 -170h-78l-88 95l-87 -95h-78zM255 0v257l-229 391h80l187 -327l189 327h78l-232 -391v-257h-73z" />
    <glyph glyph-name="ycircumflex" unicode="&#x177;" horiz-adv-x="486" 
d="M77 520l165 170l166 -170h-78l-88 95l-87 -95h-78zM108 -198l98 220l-186 426h77l146 -348l148 348h76l-283 -646h-76z" />
    <glyph glyph-name="Ydieresis" unicode="&#x178;" horiz-adv-x="586" 
d="M197 741q-23 0 -37.5 14.5t-14.5 37.5t14.5 37.5t37.5 14.5q22 0 36.5 -14.5t14.5 -37.5t-14.5 -37.5t-36.5 -14.5zM385 741q-22 0 -36.5 14.5t-14.5 37.5t14.5 37.5t36.5 14.5q23 0 37.5 -14.5t14.5 -37.5t-14.5 -37.5t-37.5 -14.5zM255 0v257l-229 391h80l187 -327
l189 327h78l-232 -391v-257h-73z" />
    <glyph glyph-name="Zacute" unicode="&#x179;" horiz-adv-x="590" 
d="M236 715l116 161h93l-139 -161h-70zM51 0v10l372 576h-355v62h470v-10l-371 -575h375v-63h-491z" />
    <glyph glyph-name="zacute" unicode="&#x17a;" horiz-adv-x="469" 
d="M167 520l115 161h93l-139 -161h-69zM41 0v10l276 381h-259v57h370v-10l-276 -380h280v-58h-391z" />
    <glyph glyph-name="Zdotaccent" unicode="&#x17b;" horiz-adv-x="590" 
d="M295 742q-23 0 -37 14.5t-14 37.5q0 22 14.5 36t36.5 14q21 0 35.5 -14.5t14.5 -36.5t-14.5 -36.5t-35.5 -14.5zM51 0v10l372 576h-355v62h470v-10l-371 -575h375v-63h-491z" />
    <glyph glyph-name="zdotaccent" unicode="&#x17c;" horiz-adv-x="469" 
d="M235 564q-20 0 -33 13t-13 33t13 32.5t33 12.5q19 0 32 -12.5t13 -33.5q0 -20 -13 -32.5t-32 -12.5zM41 0v10l276 381h-259v57h370v-10l-276 -380h280v-58h-391z" />
    <glyph glyph-name="Zcaron" unicode="&#x17d;" horiz-adv-x="590" 
d="M294 706l-165 170h78l87 -95l88 95h78zM51 0v10l372 576h-355v62h470v-10l-371 -575h375v-63h-491z" />
    <glyph glyph-name="zcaron" unicode="&#x17e;" horiz-adv-x="469" 
d="M234 511l-165 170h78l87 -95l88 95h78zM41 0v10l276 381h-259v57h370v-10l-276 -380h280v-58h-391z" />
    <glyph glyph-name="longs" unicode="&#x17f;" horiz-adv-x="347" 
d="M110 0v391h-76v57h76v44q0 92 39 138t124 46q53 0 87 -16v-62q-37 17 -79 17q-55 0 -78 -30t-23 -99v-486h-70z" />
    <glyph glyph-name="florin" unicode="&#x192;" horiz-adv-x="462" 
d="M31 -207q-42 0 -66 10v62q30 -10 59 -10q47 0 66 30t34 114l50 288h-103v61h114l21 118q17 99 55 145.5t116 46.5q44 0 66 -11v-63q-23 10 -56 10q-48 0 -71.5 -31.5t-37.5 -110.5l-18 -104h137v-61h-149l-52 -302q-9 -48 -18 -78t-27 -59t-47.5 -42t-72.5 -13z" />
    <glyph glyph-name="uni01CD" unicode="&#x1cd;" horiz-adv-x="647" 
d="M323 706l-165 170h78l87 -95l88 95h78zM26 0l293 658h10l293 -658h-79l-61 142h-318l-62 -142h-76zM189 204h268l-133 311z" />
    <glyph glyph-name="uni01CE" unicode="&#x1ce;" horiz-adv-x="490" 
d="M406 681l-166 -170l-165 170h78l87 -95l88 95h78zM240 457q183 0 183 -181v-276h-63l-1 63q-41 -72 -150 -72q-77 0 -121.5 40t-44.5 105q0 69 48.5 108.5t136.5 39.5q72 0 125 -29v17q0 62 -29 94t-96 32q-76 0 -142 -40v63q67 36 154 36zM224 43q64 0 96.5 38t32.5 102
v18q-44 32 -121 32q-56 0 -86.5 -24.5t-30.5 -69.5t30 -70.5t79 -25.5z" />
    <glyph glyph-name="AEacute" unicode="&#x1fc;" horiz-adv-x="895" 
d="M335 715l116 161h93l-139 -161h-70zM26 0l289 648h295l28 -62h-277l100 -225h216l28 -61h-216l104 -237h280l29 -63h-359l-61 142h-318l-62 -142h-76zM190 204h267l-133 311z" />
    <glyph glyph-name="aeacute" unicode="&#x1fd;" horiz-adv-x="816" 
d="M572 681l-139 -161h-69l115 161h93zM773 241q0 -23 -2 -43h-349q9 -147 175 -147q89 0 156 39v-63q-64 -36 -166 -36q-74 0 -126.5 24.5t-73.5 71.5q-16 -39 -57 -67.5t-114 -28.5q-83 0 -128 39.5t-45 105.5q0 69 48.5 108.5t137.5 39.5q71 0 124 -29v17q0 62 -28.5 94
t-95.5 32q-77 0 -143 -40v63q67 36 155 36q122 0 154 -89q24 41 68.5 65t103.5 24q97 0 151.5 -58t54.5 -158zM701 249q4 69 -34 109t-100 40t-101 -40.5t-43 -108.5h278zM224 43q64 0 96.5 38t32.5 102v18q-44 32 -121 32q-56 0 -86.5 -24.5t-30.5 -69.5t30 -70.5t79 -25.5
z" />
    <glyph glyph-name="Oslashacute" unicode="&#x1fe;" horiz-adv-x="750" 
d="M317 715l116 161h93l-139 -161h-70zM56 -30l85 114q-85 93 -85 240q0 146 86 240t235 94q94 0 163 -40l52 69h75l-77 -103q104 -92 104 -256q0 -147 -85 -242.5t-235 -95.5q-109 0 -186 55l-56 -75h-76zM187 147l310 412q-51 32 -122 32q-108 0 -176.5 -74t-68.5 -191
q0 -106 57 -179zM376 58q111 0 177.5 75t66.5 194q0 125 -74 196l-314 -418q57 -47 144 -47z" />
    <glyph glyph-name="oslashacute" unicode="&#x1ff;" horiz-adv-x="552" 
d="M204 520l115 161h93l-139 -161h-69zM62 -30l54 75q-73 64 -73 178q0 103 63.5 168.5t170.5 65.5q62 0 116 -26l35 47h62l-53 -74q72 -62 72 -176q0 -107 -64.5 -172t-169.5 -65q-67 0 -117 27l-35 -48h-61zM157 104l198 272q-32 20 -79 20q-73 0 -116.5 -49t-43.5 -124
t41 -119zM275 52q71 0 116 47.5t45 126.5q0 73 -41 119l-199 -272q32 -21 79 -21z" />
    <glyph glyph-name="Scommaaccent" unicode="&#x218;" horiz-adv-x="492" 
d="M146 487q0 -36 22 -62t55 -39.5t71 -31.5t71 -37t55 -56.5t22 -88.5q0 -91 -54.5 -136.5t-152.5 -45.5q-95 0 -169 39v76q76 -50 167 -50q135 0 135 112q0 44 -30.5 73.5t-74 47.5t-87 38.5t-74 59.5t-30.5 97q0 81 52 128t143 47q88 0 149 -34v-75q-70 45 -145 45
q-56 0 -90.5 -28t-34.5 -79zM231 -65q21 0 36 -14.5t15 -41.5q0 -48 -46 -86h-46q37 33 43 62q-20 -3 -33 7.5t-13 30.5q0 19 12.5 30.5t31.5 11.5z" />
    <glyph glyph-name="scommaaccent" unicode="&#x219;" horiz-adv-x="377" 
d="M126 340q0 -28 21.5 -45.5t52 -28t60.5 -23.5t51.5 -42t21.5 -75q0 -67 -43 -101t-114 -34q-77 0 -122 26v62q54 -32 118 -32q44 0 69 18.5t25 55.5q0 32 -21 51.5t-51.5 30.5l-61 23t-51.5 39.5t-21 70.5q0 60 38 90.5t104 30.5t102 -22v-61q-46 27 -99 27
q-79 0 -79 -61zM178 -65q21 0 36 -14.5t15 -41.5q0 -48 -46 -86h-46q37 33 43 62q-20 -3 -33 7.5t-13 30.5q0 19 12.5 30.5t31.5 11.5z" />
    <glyph glyph-name="uni021A" unicode="&#x21a;" horiz-adv-x="543" 
d="M40 648h463v-62h-195v-586h-73v586h-195v62zM269 -65q21 0 36 -14.5t15 -41.5q0 -48 -46 -86h-46q37 33 43 62q-20 -3 -33 7.5t-13 30.5q0 19 12.5 30.5t31.5 11.5z" />
    <glyph glyph-name="uni021B" unicode="&#x21b;" horiz-adv-x="363" 
d="M245 51q37 0 73 15v-60q-32 -15 -86 -15q-73 0 -103 37t-30 107v256h-69v9q35 27 72.5 74t57.5 88h9v-114h131v-57h-131v-244q0 -50 15 -73t61 -23zM208 -65q21 0 36 -14.5t15 -41.5q0 -48 -46 -86h-46q37 33 43 62q-20 -3 -33 7.5t-13 30.5q0 19 12.5 30.5t31.5 11.5z
" />
    <glyph glyph-name="uni0237" unicode="&#x237;" horiz-adv-x="231" 
d="M1 -207q-42 0 -79 13v61q34 -15 69 -15q56 0 76 34t20 97v408h-63v57h133v-461q0 -93 -35 -143.5t-121 -50.5z" />
    <glyph glyph-name="circumflex" unicode="&#x2c6;" horiz-adv-x="502" 
d="M94 520l165 170l166 -170h-78l-88 95l-87 -95h-78z" />
    <glyph glyph-name="caron" unicode="&#x2c7;" horiz-adv-x="502" 
d="M259 511l-165 170h78l87 -95l88 95h78z" />
    <glyph glyph-name="breve" unicode="&#x2d8;" horiz-adv-x="502" 
d="M259 511q-164 0 -164 162v8h55q0 -58 26.5 -85.5t82.5 -27.5q57 0 83 27.5t26 85.5h55v-8q0 -162 -164 -162z" />
    <glyph glyph-name="dotaccent" unicode="&#x2d9;" horiz-adv-x="523" 
d="M281 564q-20 0 -33 13t-13 33t13 32.5t33 12.5q19 0 32 -12.5t13 -33.5q0 -20 -13 -32.5t-32 -12.5z" />
    <glyph glyph-name="ring" unicode="&#x2da;" horiz-adv-x="512" 
d="M269 510q-45 0 -75 29.5t-30 73.5t30 73.5t75 29.5q46 0 75.5 -29.5t29.5 -73.5t-29.5 -73.5t-75.5 -29.5zM269 551q26 0 43 17t17 45q0 27 -17 44.5t-43 17.5t-43 -17t-17 -45t17 -45t43 -17z" />
    <glyph glyph-name="ogonek" unicode="&#x2db;" horiz-adv-x="517" 
d="M328 -207q-44 0 -71.5 22t-27.5 67q0 49 34.5 85.5t89.5 50.5l44 -15q-115 -35 -115 -111q0 -54 55 -54q31 0 53 14v-47q-27 -12 -62 -12z" />
    <glyph glyph-name="tilde" unicode="&#x2dc;" horiz-adv-x="501" 
d="M333 545q-36 0 -81 29.5t-66 29.5q-27 0 -37.5 -18.5t-10.5 -35.5h-48q0 45 24.5 75.5t68.5 30.5q38 0 83.5 -29.5t64.5 -29.5q26 0 36 17t10 37h48q0 -43 -24 -74.5t-68 -31.5z" />
    <glyph glyph-name="hungarumlaut" unicode="&#x2dd;" horiz-adv-x="496" 
d="M47 520l130 161h93l-153 -161h-70zM233 520l130 161h93l-153 -161h-70z" />
    <glyph glyph-name="gravecomb" unicode="&#x300;" horiz-adv-x="0" 
d="M-222 520l-139 161h93l115 -161h-69z" />
    <glyph glyph-name="acutecomb" unicode="&#x301;" horiz-adv-x="0" 
d="M-361 520l115 161h93l-139 -161h-69z" />
    <glyph glyph-name="uni0302" unicode="&#x302;" horiz-adv-x="0" 
d="M-417 520l165 170l166 -170h-78l-88 95l-87 -95h-78z" />
    <glyph glyph-name="tildecomb" unicode="&#x303;" horiz-adv-x="0" 
d="M-176 545q-36 0 -81 29.5t-66 29.5q-27 0 -37.5 -18.5t-10.5 -35.5h-48q0 45 24.5 75.5t68.5 30.5q38 0 83.5 -29.5t64.5 -29.5q26 0 36 17t10 37h48q0 -43 -24 -74.5t-68 -31.5z" />
    <glyph glyph-name="uni0304" unicode="&#x304;" horiz-adv-x="0" 
d="M-397 575v58h287v-58h-287z" />
    <glyph glyph-name="uni0306" unicode="&#x306;" horiz-adv-x="0" 
d="M-251 511q-164 0 -164 162v8h55q0 -58 26.5 -85.5t82.5 -27.5q57 0 83 27.5t26 85.5h55v-8q0 -162 -164 -162z" />
    <glyph glyph-name="uni0307" unicode="&#x307;" horiz-adv-x="0" 
d="M-261 564q-20 0 -33 13t-13 33t13 32.5t33 12.5q19 0 32 -12.5t13 -33.5q0 -20 -13 -32.5t-32 -12.5z" />
    <glyph glyph-name="uni0308" unicode="&#x308;" horiz-adv-x="0" 
d="M-347 564q-20 0 -33 13t-13 33t13.5 32.5t32.5 12.5q20 0 33 -12.5t13 -33.5q0 -20 -13 -32.5t-33 -12.5zM-159 564q-20 0 -33 13t-13 33t13.5 32.5t32.5 12.5q20 0 33 -12.5t13 -33.5q0 -20 -13.5 -32.5t-32.5 -12.5z" />
    <glyph glyph-name="uni030A" unicode="&#x30a;" horiz-adv-x="0" 
d="M-257 510q-45 0 -75 29.5t-30 73.5t30 73.5t75 29.5q46 0 75.5 -29.5t29.5 -73.5t-29.5 -73.5t-75.5 -29.5zM-257 551q26 0 43 17t17 45q0 27 -17 44.5t-43 17.5t-43 -17t-17 -45t17 -45t43 -17z" />
    <glyph glyph-name="uni030B" unicode="&#x30b;" horiz-adv-x="0" 
d="M-452 520l130 161h93l-153 -161h-70zM-266 520l130 161h93l-153 -161h-70z" />
    <glyph glyph-name="uni030C" unicode="&#x30c;" horiz-adv-x="0" 
d="M-252 511l-165 170h78l87 -95l88 95h78z" />
    <glyph glyph-name="uni0315" unicode="&#x315;" horiz-adv-x="0" 
d="M-260 658q21 0 36 -14.5t15 -42.5q0 -53 -53 -91h-44q43 40 48 68q-20 -2 -33 8.5t-13 29.5t12.5 30.5t31.5 11.5z" />
    <glyph glyph-name="uni0326" unicode="&#x326;" horiz-adv-x="0" 
d="M-255 -65q21 0 36 -14.5t15 -41.5q0 -48 -46 -86h-46q37 33 43 62q-20 -3 -33 7.5t-13 30.5q0 19 12.5 30.5t31.5 11.5z" />
    <glyph glyph-name="uni0327" unicode="&#x327;" horiz-adv-x="0" 
d="M-282 -207q-41 0 -67 12v44q30 -15 61 -15q55 0 55 45t-45 45q-27 0 -47 -20l-10 6l32 108h47l-20 -64q8 5 21 5q76 -2 76 -80q0 -44 -28.5 -65t-74.5 -21z" />
    <glyph glyph-name="uni0328" unicode="&#x328;" horiz-adv-x="0" 
d="M-208 -207q-44 0 -71.5 22t-27.5 67q0 49 34.5 85.5t89.5 50.5l44 -15q-115 -35 -115 -111q0 -54 55 -54q31 0 53 14v-47q-27 -12 -62 -12z" />
    <glyph glyph-name="uni0374" unicode="&#x374;" horiz-adv-x="180" 
d="M18 412l76 236h76l-100 -236h-52z" />
    <glyph glyph-name="uni0375" unicode="&#x375;" horiz-adv-x="180" 
d="M6 -139l76 236h76l-100 -236h-52z" />
    <glyph glyph-name="uni037E" unicode="&#x37e;" horiz-adv-x="238" 
d="M122 298q-22 0 -35.5 14t-13.5 36q0 21 14.5 35t34.5 14q21 0 34.5 -14t13.5 -36t-13.5 -35.5t-34.5 -13.5zM114 90q27 0 43 -19t16 -54t-19.5 -72.5t-49.5 -60.5h-47q24 24 39 54.5t17 53.5q-22 -2 -37 11.5t-15 35.5q0 23 15 37t38 14z" />
    <glyph glyph-name="tonos" unicode="&#x384;" horiz-adv-x="518" 
d="M160 525l67 156h84l-84 -156h-67z" />
    <glyph glyph-name="dieresistonos" unicode="&#x385;" horiz-adv-x="600" 
d="M209 525l38 156h77l-58 -156h-57zM122 525q-20 0 -33 13t-13 33t13.5 32.5t32.5 12.5q20 0 33 -12.5t13 -33.5q0 -20 -13.5 -32.5t-32.5 -12.5zM383 525q-20 0 -33 13t-13 33t13.5 32.5t32.5 12.5q20 0 33 -12.5t13 -33.5q0 -20 -13 -32.5t-33 -12.5z" />
    <glyph glyph-name="Alphatonos" unicode="&#x386;" horiz-adv-x="622" 
d="M1 0l293 658h10l293 -658h-79l-61 142h-318l-62 -142h-76zM30 487l69 161h79l-88 -161h-60zM164 204h268l-133 311z" />
    <glyph glyph-name="anoteleia" unicode="&#x387;" horiz-adv-x="245" 
d="M123 182q-22 0 -35.5 14t-13.5 36q0 21 14.5 35t34.5 14q21 0 34.5 -14t13.5 -36q0 -21 -13.5 -35t-34.5 -14z" />
    <glyph glyph-name="Epsilontonos" unicode="&#x388;" horiz-adv-x="630" 
d="M0 487l69 161h79l-88 -161h-60zM213 0v648h374v-62h-301v-225h223v-61h-223v-237h313v-63h-386z" />
    <glyph glyph-name="Etatonos" unicode="&#x389;" horiz-adv-x="822" 
d="M0 487l69 161h79l-88 -161h-60zM213 0v648h73v-287h374v287h73v-648h-73v298h-374v-298h-73z" />
    <glyph glyph-name="Iotatonos" unicode="&#x38a;" horiz-adv-x="375" 
d="M0 487l69 161h79l-88 -161h-60zM213 0v648h73v-648h-73z" />
    <glyph glyph-name="Omicrontonos" unicode="&#x38c;" horiz-adv-x="817" 
d="M441 -10q-148 0 -233 94.5t-85 239.5q0 146 86 240t235 94t233 -93t84 -237q0 -147 -85 -242.5t-235 -95.5zM0 487l69 161h79l-88 -161h-60zM443 58q111 0 177.5 75t66.5 194q0 116 -67 190t-178 74q-108 0 -176.5 -74t-68.5 -191q0 -116 67.5 -192t178.5 -76z" />
    <glyph glyph-name="Upsilontonos" unicode="&#x38e;" horiz-adv-x="753" 
d="M0 487l69 161h79l-88 -161h-60zM422 0v257l-229 391h80l187 -327l189 327h78l-232 -391v-257h-73z" />
    <glyph glyph-name="Omegatonos" unicode="&#x38f;" horiz-adv-x="851" 
d="M778 327q0 -92 -40 -160.5t-110 -103.5h150v-63h-265v62q86 25 138.5 94t52.5 171q0 116 -68 190t-177 74q-108 0 -176.5 -74t-68.5 -190q0 -102 52.5 -171t138.5 -94v-62h-266v63h149q-69 36 -109 104t-40 158q0 145 86.5 239t234.5 94t233 -93.5t85 -237.5zM69 648h79
l-88 -161h-60z" />
    <glyph glyph-name="iotadieresistonos" unicode="&#x390;" horiz-adv-x="231" 
d="M76 525l38 156h77l-58 -156h-57zM-11 525q-20 0 -33 13t-13 33t13.5 32.5t32.5 12.5q20 0 33 -12.5t13 -33.5q0 -20 -13.5 -32.5t-32.5 -12.5zM250 525q-20 0 -33 13t-13 33t13.5 32.5t32.5 12.5q20 0 33 -12.5t13 -33.5q0 -20 -13 -32.5t-33 -12.5zM87 0v391h-63v57h133
v-448h-70z" />
    <glyph glyph-name="Alpha" unicode="&#x391;" horiz-adv-x="647" 
d="M26 0l293 658h10l293 -658h-79l-61 142h-318l-62 -142h-76zM189 204h268l-133 311z" />
    <glyph glyph-name="Beta" unicode="&#x392;" horiz-adv-x="589" 
d="M409 341q56 -9 93.5 -48t37.5 -113q0 -180 -239 -180h-212v648h158q55 0 94.5 -6t78.5 -22.5t59.5 -52.5t20.5 -90q0 -58 -26.5 -91.5t-64.5 -44.5zM426 474q0 37 -15 61t-43.5 34.5t-55.5 14t-66 3.5h-84v-227h89q30 0 50.5 1.5t46 8t41 18t26.5 33.5t11 53zM300 63
q166 0 166 120q0 117 -161 117h-143v-237h138z" />
    <glyph glyph-name="Gamma" unicode="&#x393;" horiz-adv-x="483" 
d="M465 648v-62h-303v-586h-73v648h376z" />
    <glyph glyph-name="uni0394" unicode="&#x394;" horiz-adv-x="646" 
d="M329 658l292 -658h-596l294 658h10zM515 63l-193 448l-193 -448h386z" />
    <glyph glyph-name="Epsilon" unicode="&#x395;" horiz-adv-x="506" 
d="M89 0v648h374v-62h-301v-225h223v-61h-223v-237h313v-63h-386z" />
    <glyph glyph-name="Zeta" unicode="&#x396;" horiz-adv-x="590" 
d="M51 0v10l372 576h-355v62h470v-10l-371 -575h375v-63h-491z" />
    <glyph glyph-name="Eta" unicode="&#x397;" horiz-adv-x="698" 
d="M89 0v648h73v-287h374v287h73v-648h-73v298h-374v-298h-73z" />
    <glyph glyph-name="Theta" unicode="&#x398;" horiz-adv-x="750" 
d="M374 -10q-148 0 -233 94.5t-85 239.5q0 146 86 240t235 94t233 -93t84 -237q0 -147 -85 -242.5t-235 -95.5zM376 58q111 0 177.5 75t66.5 194q0 116 -67 190t-178 74q-108 0 -176.5 -74t-68.5 -191q0 -116 67.5 -192t178.5 -76zM215 298v63h320v-63h-320z" />
    <glyph glyph-name="Iota" unicode="&#x399;" horiz-adv-x="251" 
d="M89 0v648h73v-648h-73z" />
    <glyph glyph-name="Kappa" unicode="&#x39a;" horiz-adv-x="610" 
d="M89 0v648h73v-313l322 313h97l-332 -318l340 -330h-100l-327 321v-321h-73z" />
    <glyph glyph-name="Lambda" unicode="&#x39b;" horiz-adv-x="637" 
d="M612 0h-79l-214 512l-217 -512h-76l288 658h10z" />
    <glyph glyph-name="Mu" unicode="&#x39c;" horiz-adv-x="839" 
d="M415 -10l-203 469l-84 -459h-74l128 658h10l228 -522l228 522h10l127 -658h-72l-85 458l-203 -468h-10z" />
    <glyph glyph-name="Nu" unicode="&#x39d;" horiz-adv-x="708" 
d="M609 -10l-449 506v-496h-71v658h10l449 -507v497h71v-658h-10z" />
    <glyph glyph-name="Xi" unicode="&#x39e;" horiz-adv-x="537" 
d="M46 586v62h445v-62h-445zM106 300v62h330v-62h-330zM41 0v63h455v-63h-455z" />
    <glyph glyph-name="Omicron" unicode="&#x39f;" horiz-adv-x="750" 
d="M374 -10q-148 0 -233 94.5t-85 239.5q0 146 86 240t235 94t233 -93t84 -237q0 -147 -85 -242.5t-235 -95.5zM376 58q111 0 177.5 75t66.5 194q0 116 -67 190t-178 74q-108 0 -176.5 -74t-68.5 -191q0 -116 67.5 -192t178.5 -76z" />
    <glyph glyph-name="Pi" unicode="&#x3a0;" horiz-adv-x="686" 
d="M89 648h508v-648h-73v586h-362v-586h-73v648z" />
    <glyph glyph-name="Rho" unicode="&#x3a1;" horiz-adv-x="580" 
d="M280 648q57 0 100 -8.5t81 -29.5t58 -63t20 -104q0 -52 -16.5 -90.5t-41.5 -60.5t-61.5 -35t-70 -17t-74.5 -4h-113v-236h-73v648h191zM271 298q194 0 194 145q0 43 -15 72t-43 44t-60.5 21t-75.5 6h-109v-288h109z" />
    <glyph glyph-name="Sigma" unicode="&#x3a3;" horiz-adv-x="563" 
d="M178 63h345v-63h-473v10l241 318l-238 310v10h460v-62h-334l200 -259z" />
    <glyph glyph-name="Tau" unicode="&#x3a4;" horiz-adv-x="543" 
d="M235 0v586h-195v62h463v-62h-195v-586h-73z" />
    <glyph glyph-name="Upsilon" unicode="&#x3a5;" horiz-adv-x="586" 
d="M255 0v257l-229 391h80l187 -327l189 327h78l-232 -391v-257h-73z" />
    <glyph glyph-name="Phi" unicode="&#x3a6;" horiz-adv-x="797" 
d="M741 324q0 -134 -84 -214.5t-223 -87.5v-60h-71v60q-139 6 -223 87t-84 215t84 214.5t223 87.5v60h71v-60q139 -6 223 -87t84 -215zM130 326q0 -107 64 -170.5t170 -68.5v474q-103 -5 -168.5 -67t-65.5 -168zM433 87q103 5 168.5 67t65.5 168q0 107 -64 170.5t-170 68.5
v-474z" />
    <glyph glyph-name="Chi" unicode="&#x3a7;" horiz-adv-x="588" 
d="M25 0l224 331l-214 317h87l172 -264l175 264h85l-215 -316l224 -332h-87l-182 279l-184 -279h-85z" />
    <glyph glyph-name="Psi" unicode="&#x3a8;" horiz-adv-x="810" 
d="M657 648h73v-131q0 -140 -70.5 -212.5t-218.5 -75.5v-229h-73v229q-288 6 -288 288v131h73v-129q0 -112 52 -167.5t163 -57.5v354h73v-354q111 2 163.5 55t52.5 166v133z" />
    <glyph glyph-name="uni03A9" unicode="&#x3a9;" horiz-adv-x="784" 
d="M711 327q0 -92 -40 -160.5t-110 -103.5h150v-63h-265v62q86 25 138.5 94t52.5 171q0 116 -68 190t-177 74q-108 0 -176.5 -74t-68.5 -190q0 -102 52.5 -171t138.5 -94v-62h-266v63h149q-69 36 -109 104t-40 158q0 145 86.5 239t234.5 94t233 -93.5t85 -237.5z" />
    <glyph glyph-name="Iotadieresis" unicode="&#x3aa;" horiz-adv-x="251" 
d="M31 741q-23 0 -37.5 14.5t-14.5 37.5t14.5 37.5t37.5 14.5q22 0 36.5 -14.5t14.5 -37.5t-14.5 -37.5t-36.5 -14.5zM219 741q-22 0 -36.5 14.5t-14.5 37.5t14.5 37.5t36.5 14.5q23 0 37.5 -14.5t14.5 -37.5t-14.5 -37.5t-37.5 -14.5zM89 0v648h73v-648h-73z" />
    <glyph glyph-name="Upsilondieresis" unicode="&#x3ab;" horiz-adv-x="586" 
d="M198 741q-22 0 -37 14.5t-15 37.5t15 37.5t37 14.5t36.5 -14.5t14.5 -37.5t-14.5 -37.5t-36.5 -14.5zM386 741q-22 0 -36.5 14.5t-14.5 37.5t14.5 37.5t36.5 14.5t37 -14.5t15 -37.5t-15 -37.5t-37 -14.5zM255 0v257l-229 391h80l187 -327l189 327h78l-232 -391v-257h-73
z" />
    <glyph glyph-name="alphatonos" unicode="&#x3ac;" horiz-adv-x="576" 
d="M395 681l-84 -156h-67l67 156h84zM438 448h64v-448h-65l-1 81q-21 -39 -65.5 -64.5t-107.5 -25.5q-95 0 -157.5 60.5t-62.5 170.5q0 107 61.5 171t160.5 64q61 0 105 -24t66 -61zM273 52q65 0 112 41.5t47 132.5q0 85 -44 127.5t-112 42.5q-69 0 -114.5 -44.5
t-45.5 -127.5q0 -82 43.5 -127t113.5 -45z" />
    <glyph glyph-name="epsilontonos" unicode="&#x3ad;" horiz-adv-x="440" 
d="M338 681l-84 -156h-67l67 156h84zM249 47q87 0 139 42v-65q-54 -33 -157 -33q-78 0 -126 29.5t-48 95.5q0 40 25 72t69 42q-84 26 -84 105q0 62 49.5 91.5t121.5 30.5q83 0 142 -34v-63q-59 41 -138 41q-46 0 -74 -17.5t-28 -52.5q0 -38 32 -56.5t85 -18.5h47v-54h-47
q-127 0 -127 -78q0 -77 119 -77z" />
    <glyph glyph-name="etatonos" unicode="&#x3ae;" horiz-adv-x="534" 
d="M375 681l-84 -156h-67l67 156h84zM295 457q88 0 130 -48.5t42 -146.5v-460h-70v444q0 73 -24.5 111.5t-93.5 38.5q-135 0 -135 -180v-216h-70v448h64l1 -69q41 78 156 78z" />
    <glyph glyph-name="iotatonos" unicode="&#x3af;" horiz-adv-x="231" 
d="M77 525l67 156h84l-84 -156h-67zM87 0v391h-63v57h133v-448h-70z" />
    <glyph glyph-name="upsilondieresistonos" unicode="&#x3b0;" horiz-adv-x="507" 
d="M209 525l38 156h77l-58 -156h-57zM122 525q-20 0 -33 13t-13 33t13.5 32.5t32.5 12.5q20 0 33 -12.5t13 -33.5q0 -20 -13.5 -32.5t-32.5 -12.5zM383 525q-20 0 -33 13t-13 33t13.5 32.5t32.5 12.5q20 0 33 -12.5t13 -33.5q0 -20 -13 -32.5t-33 -12.5zM254 -9
q-187 0 -187 201v256h70v-254q0 -143 118 -143q117 0 117 143v254h68v-256q0 -201 -186 -201z" />
    <glyph glyph-name="alpha" unicode="&#x3b1;" horiz-adv-x="576" 
d="M438 448h64v-448h-65l-1 81q-21 -39 -65.5 -64.5t-107.5 -25.5q-95 0 -157.5 60.5t-62.5 170.5q0 107 61.5 171t160.5 64q61 0 105 -24t66 -61zM273 52q65 0 112 41.5t47 132.5q0 85 -44 127.5t-112 42.5q-69 0 -114.5 -44.5t-45.5 -127.5q0 -82 43.5 -127t113.5 -45z
" />
    <glyph glyph-name="beta" unicode="&#x3b2;" horiz-adv-x="533" 
d="M361 349q54 -9 94.5 -49t40.5 -118q0 -96 -57 -143.5t-144 -47.5q-106 0 -151 69v-257h-70v631q0 115 51 178.5t152 63.5q83 0 134.5 -44.5t51.5 -130.5q0 -55 -29 -96t-73 -56zM295 49q60 0 95 33t35 98q0 75 -44.5 104t-128.5 29h-28v56h28q68 0 104 33t36 94t-32 91.5
t-86 30.5q-61 0 -95.5 -42.5t-34.5 -123.5v-216q0 -187 151 -187z" />
    <glyph glyph-name="gamma" unicode="&#x3b3;" horiz-adv-x="485" 
d="M466 448l-188 -405v-241h-70v243l-188 403h77l147 -339l147 339h75z" />
    <glyph glyph-name="delta" unicode="&#x3b4;" horiz-adv-x="556" 
d="M350 435q81 -37 118.5 -89.5t37.5 -130.5q0 -100 -63.5 -162t-165.5 -62q-103 0 -165 61.5t-62 162.5q0 85 51.5 142.5t138.5 64.5l-21 10q-96 43 -96 117q0 60 51 93.5t132 33.5q88 0 151 -34v-66q-63 39 -150 39q-47 0 -79.5 -15.5t-32.5 -47.5q0 -29 21 -47t72 -41z
M277 52q69 0 112.5 44.5t43.5 118.5q0 72 -43.5 114t-111.5 42q-71 0 -113 -44t-42 -112q0 -75 43 -119t111 -44z" />
    <glyph glyph-name="epsilon" unicode="&#x3b5;" horiz-adv-x="440" 
d="M249 47q87 0 139 42v-65q-54 -33 -157 -33q-78 0 -126 29.5t-48 95.5q0 40 25 72t69 42q-84 26 -84 105q0 62 49.5 91.5t121.5 30.5q83 0 142 -34v-63q-59 41 -138 41q-46 0 -74 -17.5t-28 -52.5q0 -38 32 -56.5t85 -18.5h47v-54h-47q-127 0 -127 -78q0 -77 119 -77z" />
    <glyph glyph-name="zeta" unicode="&#x3b6;" horiz-adv-x="415" 
d="M395 653l-104 -134q-84 -108 -123.5 -185t-39.5 -142q0 -63 29 -90.5t97 -44.5q77 -19 106.5 -40t29.5 -63q0 -41 -38 -95h-66q31 43 31 78q0 26 -20.5 39t-71.5 23q-84 17 -127 57.5t-43 123.5q0 77 42 158t129 189l64 79h-234v57h339v-10z" />
    <glyph glyph-name="eta" unicode="&#x3b7;" horiz-adv-x="534" 
d="M295 457q88 0 130 -48.5t42 -146.5v-460h-70v444q0 73 -24.5 111.5t-93.5 38.5q-135 0 -135 -180v-216h-70v448h64l1 -69q41 78 156 78z" />
    <glyph glyph-name="theta" unicode="&#x3b8;" horiz-adv-x="583" 
d="M292 676q65 0 112.5 -27t73.5 -75.5t38 -107.5t12 -132q0 -99 -23 -174t-77.5 -122t-135.5 -47q-237 0 -237 343q0 97 23 171.5t77.5 122.5t136.5 48zM292 615q-158 0 -165 -254h329q-7 254 -164 254zM292 52q157 0 164 252h-329q3 -117 43.5 -184.5t121.5 -67.5z" />
    <glyph glyph-name="iota" unicode="&#x3b9;" horiz-adv-x="231" 
d="M87 0v391h-63v57h133v-448h-70z" />
    <glyph glyph-name="kappa" unicode="&#x3ba;" horiz-adv-x="480" 
d="M466 0h-94l-223 223v-223h-70v448h70v-213l214 213h92l-225 -217z" />
    <glyph glyph-name="lambda" unicode="&#x3bb;" horiz-adv-x="512" 
d="M487 52q15 0 25 5v-54q-18 -8 -48 -8q-38 0 -59 20.5t-37 62.5l-112 283l-151 -361h-75l193 445l-45 114q-11 29 -23 40.5t-31 11.5q-16 0 -26 -5v54q18 8 49 8q38 0 59 -20.5t37 -62.5l190 -481q11 -29 23 -40.5t31 -11.5z" />
    <glyph glyph-name="uni03BC" unicode="&#x3bc;" horiz-adv-x="533" 
d="M389 448h70v-448h-64l-2 74q-39 -74 -139 -74q-78 0 -111 45v-243h-69v646h70v-239q0 -72 25 -111.5t89 -39.5q131 0 131 180v210z" />
    <glyph glyph-name="nu" unicode="&#x3bd;" horiz-adv-x="485" 
d="M239 -9l-219 457h77l147 -330l147 330h75l-217 -457h-10z" />
    <glyph glyph-name="xi" unicode="&#x3be;" horiz-adv-x="417" 
d="M276 616q-59 0 -94 -27.5t-36 -82.5q-1 -62 36 -95.5t106 -33.5h45v-57h-50q-80 0 -120 -33.5t-40 -92.5q0 -62 34 -90.5t113 -47.5q74 -19 102 -39.5t28 -62.5q0 -41 -38 -95h-66q31 43 31 78q0 24 -18.5 37t-71.5 24q-93 19 -140 61t-47 127q0 58 34.5 105t93.5 61
q-50 15 -77.5 56.5t-27.5 91.5q0 86 55 131t141 45q71 0 131 -24v-68q-57 32 -124 32z" />
    <glyph glyph-name="omicron" unicode="&#x3bf;" horiz-adv-x="552" 
d="M275 -9q-106 0 -169 64t-63 168q0 103 63.5 168.5t170.5 65.5q105 0 168.5 -61t63.5 -168t-64.5 -172t-169.5 -65zM275 52q71 0 116 47.5t45 126.5q0 78 -45 124t-115 46q-73 0 -116.5 -49t-43.5 -124q0 -78 44 -124.5t115 -46.5z" />
    <glyph glyph-name="pi" unicode="&#x3c0;" horiz-adv-x="590" 
d="M548 448v-57h-68v-391h-70v391h-230v-391h-70v391h-68v57h506z" />
    <glyph glyph-name="rho" unicode="&#x3c1;" horiz-adv-x="562" 
d="M59 -198v392q0 127 61.5 195t168.5 68t168.5 -62.5t61.5 -167.5q0 -108 -61.5 -172t-160.5 -64q-57 0 -100.5 22.5t-67.5 58.5v-270h-70zM285 52q73 0 117 47.5t44 126.5q0 78 -44 124t-116 46q-75 0 -117.5 -49t-42.5 -123q0 -77 43.5 -124.5t115.5 -47.5z" />
    <glyph glyph-name="uni03C2" unicode="&#x3c2;" horiz-adv-x="444" 
d="M291 -141q31 43 31 78q0 22 -16.5 35t-62.5 23q-101 23 -150.5 76.5t-49.5 157.5t62.5 166t169.5 62q62 0 118 -24v-68q-51 31 -113 31q-76 0 -120 -43.5t-44 -120.5q0 -80 36.5 -118t116.5 -59q71 -19 98.5 -39.5t27.5 -61.5t-38 -95h-66z" />
    <glyph glyph-name="sigma" unicode="&#x3c3;" horiz-adv-x="558" 
d="M533 448v-57h-115q81 -51 81 -177q0 -100 -63.5 -161.5t-164.5 -61.5q-104 0 -166 63t-62 165t65.5 165.5t183.5 63.5h241zM271 52q69 0 112.5 46t43.5 122q0 77 -42.5 122t-111.5 45q-72 0 -114.5 -47.5t-42.5 -121.5q0 -76 43.5 -121t111.5 -45z" />
    <glyph glyph-name="tau" unicode="&#x3c4;" horiz-adv-x="410" 
d="M380 391h-140v-284q0 -30 9 -43t33 -13q19 0 29 5v-54q-16 -8 -46 -8q-56 0 -75.5 28.5t-19.5 81.5v287h-140v57h350v-57z" />
    <glyph glyph-name="upsilon" unicode="&#x3c5;" horiz-adv-x="507" 
d="M254 -9q-187 0 -187 201v256h70v-254q0 -143 118 -143q117 0 117 143v254h68v-256q0 -201 -186 -201z" />
    <glyph glyph-name="phi" unicode="&#x3c6;" horiz-adv-x="647" 
d="M604 228q0 -103 -69 -168t-178 -69v-189h-67v189q-111 3 -179 67t-68 165q0 99 67.5 164.5t179.5 69.5v206h67v-206q111 -3 179 -64.5t68 -164.5zM114 223q0 -76 50.5 -123.5t125.5 -49.5v348q-77 -1 -126.5 -51.5t-49.5 -123.5zM356 50q75 2 126 50.5t51 125.5
q0 76 -51 123t-126 49v-348z" />
    <glyph glyph-name="chi" unicode="&#x3c7;" horiz-adv-x="510" 
d="M467 -148q12 0 22 6v-55q-19 -8 -40 -8q-26 0 -45 12t-29 26.5t-25 43.5l-94 184l-141 -259h-84l191 325l-112 220q-15 30 -26.5 40.5t-29.5 10.5q-14 0 -24 -5v54q20 8 44 8q26 0 44 -11t28 -25.5t27 -46.5l93 -180l139 256h83l-189 -320l116 -226q15 -29 25.5 -39.5
t26.5 -10.5z" />
    <glyph glyph-name="psi" unicode="&#x3c8;" horiz-adv-x="659" 
d="M522 448h70v-214q0 -243 -229 -243v-192h-67v192h-1q-228 0 -228 243v214h70v-212q0 -92 37 -138.5t122 -46.5v397h67v-397q85 0 122 46.5t37 138.5v212z" />
    <glyph glyph-name="omega" unicode="&#x3c9;" horiz-adv-x="706" 
d="M586 448q33 -44 56.5 -111.5t23.5 -142.5q0 -93 -44.5 -148t-119.5 -55q-116 0 -149 116q-31 -116 -154 -116q-73 0 -116 55t-43 148q0 75 23.5 142.5t56.5 111.5h71q-34 -43 -56 -106.5t-22 -132.5t25 -113t77 -44q48 0 77.5 50t29.5 137v75h62v-75q0 -87 30 -137
t78 -50q52 0 76.5 44t24.5 113t-22 132.5t-56 106.5h71z" />
    <glyph glyph-name="iotadieresis" unicode="&#x3ca;" horiz-adv-x="254" 
d="M53 525q-20 0 -33 13t-13 33t13 32.5t33 12.5q19 0 32 -12.5t13 -33.5q0 -20 -13 -32.5t-32 -12.5zM197 525q-20 0 -33 13t-13 33t13.5 32.5t32.5 12.5q20 0 33 -12.5t13 -33.5q0 -20 -13.5 -32.5t-32.5 -12.5zM106 0v391h-63v57h133v-448h-70z" />
    <glyph glyph-name="upsilondieresis" unicode="&#x3cb;" horiz-adv-x="507" 
d="M159 525q-20 0 -33 13t-13 33t13.5 32.5t32.5 12.5q20 0 33 -12.5t13 -33.5q0 -20 -13 -32.5t-33 -12.5zM347 525q-20 0 -33 13t-13 33t13.5 32.5t32.5 12.5q20 0 33 -12.5t13 -33.5q0 -20 -13.5 -32.5t-32.5 -12.5zM254 -9q-187 0 -187 201v256h70v-254q0 -143 118 -143
q117 0 117 143v254h68v-256q0 -201 -186 -201z" />
    <glyph glyph-name="omicrontonos" unicode="&#x3cc;" horiz-adv-x="552" 
d="M233 525l67 156h84l-84 -156h-67zM275 -9q-106 0 -169 64t-63 168q0 103 63.5 168.5t170.5 65.5q105 0 168.5 -61t63.5 -168t-64.5 -172t-169.5 -65zM275 52q71 0 116 47.5t45 126.5q0 78 -45 124t-115 46q-73 0 -116.5 -49t-43.5 -124q0 -78 44 -124.5t115 -46.5z" />
    <glyph glyph-name="upsilontonos" unicode="&#x3cd;" horiz-adv-x="507" 
d="M210 525l67 156h84l-84 -156h-67zM254 -9q-187 0 -187 201v256h70v-254q0 -143 118 -143q117 0 117 143v254h68v-256q0 -201 -186 -201z" />
    <glyph glyph-name="omegatonos" unicode="&#x3ce;" horiz-adv-x="706" 
d="M460 681l-84 -156h-67l67 156h84zM586 448q33 -44 56.5 -111.5t23.5 -142.5q0 -93 -44.5 -148t-119.5 -55q-116 0 -149 116q-31 -116 -154 -116q-73 0 -116 55t-43 148q0 75 23.5 142.5t56.5 111.5h71q-34 -43 -56 -106.5t-22 -132.5t25 -113t77 -44q48 0 77.5 50
t29.5 137v75h62v-75q0 -87 30 -137t78 -50q52 0 76.5 44t24.5 113t-22 132.5t-56 106.5h71z" />
    <glyph glyph-name="beta.ss02" unicode="&#x3d0;" horiz-adv-x="522" 
d="M347 348q62 -11 97 -55.5t35 -110.5q0 -92 -58.5 -141.5t-150.5 -49.5q-104 0 -157 54.5t-53 171.5v213q0 122 49.5 184t154.5 62q87 0 134.5 -46t47.5 -131q0 -55 -27 -95.5t-72 -55.5zM260 618q-130 0 -130 -172v-77h96q147 0 147 132q0 57 -29.5 87t-83.5 30zM273 49
q63 0 98 33.5t35 94.5q0 73 -39.5 104.5t-125.5 31.5h-111v-93q0 -171 143 -171z" />
    <glyph glyph-name="theta.ss02" unicode="&#x3d1;" horiz-adv-x="595" 
d="M320 676q82 0 134.5 -45t74 -118t21.5 -174q0 -158 -57 -253t-180 -95q-104 0 -157 60t-53 165v19q0 30 -8 42t-32 12q-16 0 -28 -5v55q19 8 54 8q45 0 64.5 -25t19.5 -77v-16q0 -85 36 -131t108 -46q160 0 160 286v23q-61 -39 -146 -39q-93 0 -149 48t-56 132
q0 75 51.5 124.5t142.5 49.5zM194 505q0 -59 40.5 -90.5t107.5 -30.5q77 1 134 36q-8 94 -48.5 144.5t-110.5 50.5q-54 0 -88.5 -29t-34.5 -81z" />
    <glyph glyph-name="phi.ss02" unicode="&#x3d5;" horiz-adv-x="642" 
d="M599 228q0 -104 -68 -169t-179 -68v-190h-68v190q-119 2 -181.5 70t-62.5 176q0 62 22 118t54 93h71q-34 -38 -55.5 -93.5t-21.5 -114.5q0 -84 44 -135.5t130 -53.5v402h47q128 0 198 -59.5t70 -165.5zM352 51q78 3 126.5 50t48.5 125q0 75 -48 119.5t-127 48.5v-343z
" />
    <glyph glyph-name="uni0401" unicode="&#x401;" horiz-adv-x="506" 
d="M183 741q-23 0 -37.5 14.5t-14.5 37.5t14.5 37.5t37.5 14.5q22 0 36.5 -14.5t14.5 -37.5t-14.5 -37.5t-36.5 -14.5zM371 741q-22 0 -36.5 14.5t-14.5 37.5t14.5 37.5t36.5 14.5q23 0 37.5 -14.5t14.5 -37.5t-14.5 -37.5t-37.5 -14.5zM89 0v648h374v-62h-301v-225h223v-61
h-223v-237h313v-63h-386z" />
    <glyph glyph-name="uni0402" unicode="&#x402;" horiz-adv-x="790" 
d="M508 422q111 0 168 -54.5t57 -161.5q0 -101 -49 -159t-153 -58q-36 0 -62 8v65q21 -9 53 -9q138 0 138 149q0 154 -166 154q-94 0 -140 -46.5t-46 -144.5v-165h-73v586h-195v62h503v-62h-235v-245q58 81 200 81z" />
    <glyph glyph-name="uni0403" unicode="&#x403;" horiz-adv-x="483" 
d="M447 876l-139 -161h-70l116 161h93zM465 648v-62h-303v-586h-73v648h376z" />
    <glyph glyph-name="uni0404" unicode="&#x404;" horiz-adv-x="634" 
d="M385 58q109 0 185 54v-76q-24 -17 -76.5 -31.5t-115.5 -14.5q-151 0 -236.5 91.5t-85.5 241.5t85 242.5t235 92.5q60 0 110 -14.5t74 -32.5v-75q-80 55 -180 55q-108 0 -175 -63.5t-75 -168.5h304v-61h-304q6 -111 76 -175.5t179 -64.5z" />
    <glyph glyph-name="uni0405" unicode="&#x405;" horiz-adv-x="492" 
d="M235 -10q-95 0 -169 39v76q76 -50 167 -50q135 0 135 112q0 44 -30.5 73.5t-74 47.5t-87 38.5t-74 59.5t-30.5 97q0 81 52 128t143 47q88 0 149 -34v-75q-70 45 -145 45q-56 0 -90.5 -28t-34.5 -79q0 -36 22 -62t55 -39.5t71 -31.5t71 -37t55 -56.5t22 -88.5
q0 -91 -54.5 -136.5t-152.5 -45.5z" />
    <glyph glyph-name="uni0406" unicode="&#x406;" horiz-adv-x="251" 
d="M89 0v648h73v-648h-73z" />
    <glyph glyph-name="uni0407" unicode="&#x407;" horiz-adv-x="251" 
d="M31 741q-23 0 -37.5 14.5t-14.5 37.5t14.5 37.5t37.5 14.5q22 0 36.5 -14.5t14.5 -37.5t-14.5 -37.5t-36.5 -14.5zM219 741q-22 0 -36.5 14.5t-14.5 37.5t14.5 37.5t36.5 14.5q23 0 37.5 -14.5t14.5 -37.5t-14.5 -37.5t-37.5 -14.5zM89 0v648h73v-648h-73z" />
    <glyph glyph-name="uni0408" unicode="&#x408;" horiz-adv-x="465" 
d="M184 -10q-79 0 -125 22v69q44 -25 114 -25q81 0 110.5 41.5t29.5 141.5v348h-169v61h242v-431q0 -116 -46.5 -171.5t-155.5 -55.5z" />
    <glyph glyph-name="uni0409" unicode="&#x409;" horiz-adv-x="1015" 
d="M715 412q57 0 100 -8.5t81 -30t58 -63.5t20 -103q0 -52 -16.5 -90.5t-41.5 -60.5t-61.5 -35t-70 -17t-74.5 -4h-186v586h-281v-145q0 -84 -3 -143t-13 -120t-28 -98.5t-49 -61t-75 -23.5q-32 0 -50 10v67q14 -7 38 -7q61 0 85.5 100t24.5 288v195h424v-236h118zM706 62
q194 0 194 145q0 43 -15 72t-43 44t-60.5 21t-75.5 6h-109v-288h109z" />
    <glyph glyph-name="uni040A" unicode="&#x40a;" horiz-adv-x="1028" 
d="M728 412q57 0 99.5 -8.5t80.5 -30t58.5 -63.5t20.5 -103q0 -52 -16.5 -90.5t-41.5 -60.5t-62 -35t-70.5 -17t-74.5 -4h-186v298h-374v-298h-73v648h73v-287h374v287h73v-236h119zM718 62q194 0 194 145q0 43 -15 72t-43 44t-60.5 21t-75.5 6h-109v-288h109z" />
    <glyph glyph-name="uni040B" unicode="&#x40b;" horiz-adv-x="793" 
d="M506 422q220 0 220 -223v-199h-73v165q0 93 -37.5 141.5t-130.5 48.5q-89 0 -133 -45t-44 -141v-169h-73v586h-195v62h503v-62h-235v-243q58 79 198 79z" />
    <glyph glyph-name="uni040C" unicode="&#x40c;" horiz-adv-x="610" 
d="M266 715l116 161h93l-139 -161h-70zM89 0v648h73v-313l322 313h97l-332 -318l340 -330h-100l-327 321v-321h-73z" />
    <glyph glyph-name="uni040D" unicode="&#x40d;" horiz-adv-x="697" 
d="M423 715h-69l-139 161h93zM598 658h10v-658h-72v499l-437 -509h-10v658h72v-500z" />
    <glyph glyph-name="uni040E" unicode="&#x40e;" horiz-adv-x="584" 
d="M307 696q-84 0 -124.5 44t-40.5 118v8h64q0 -57 26.5 -86.5t74.5 -29.5t74.5 29.5t26.5 86.5h64v-8q0 -74 -41 -118t-124 -44zM498 648h71l-311 -648h-70l95 199l-263 449h81l218 -375z" />
    <glyph glyph-name="uni040F" unicode="&#x40f;" horiz-adv-x="682" 
d="M593 648v-648h-218v-141h-67v141h-219v648h73v-585h358v585h73z" />
    <glyph glyph-name="uni0410" unicode="&#x410;" horiz-adv-x="647" 
d="M26 0l293 658h10l293 -658h-79l-61 142h-318l-62 -142h-76zM189 204h268l-133 311z" />
    <glyph glyph-name="uni0411" unicode="&#x411;" horiz-adv-x="579" 
d="M282 384q54 0 95 -7t80 -26t60.5 -58.5t21.5 -97.5q0 -195 -262 -195h-188v648h400v-62h-327v-202h120zM273 62q191 0 191 132q0 72 -50 99.5t-141 27.5h-111v-259h111z" />
    <glyph glyph-name="uni0412" unicode="&#x412;" horiz-adv-x="589" 
d="M409 341q56 -9 93.5 -48t37.5 -113q0 -180 -239 -180h-212v648h158q55 0 94.5 -6t78.5 -22.5t59.5 -52.5t20.5 -90q0 -58 -26.5 -91.5t-64.5 -44.5zM426 474q0 37 -15 61t-43.5 34.5t-55.5 14t-66 3.5h-84v-227h89q30 0 50.5 1.5t46 8t41 18t26.5 33.5t11 53zM300 63
q166 0 166 120q0 117 -161 117h-143v-237h138z" />
    <glyph glyph-name="uni0413" unicode="&#x413;" horiz-adv-x="483" 
d="M465 648v-62h-303v-586h-73v648h376z" />
    <glyph glyph-name="uni0414" unicode="&#x414;" horiz-adv-x="723" 
d="M598 63h80v-204h-67v142h-519v-142h-67v204h9q32 0 53.5 17t40.5 53q52 100 52 361v154h418v-585zM249 504q0 -155 -17.5 -263t-66.5 -178h361v523h-277v-82z" />
    <glyph glyph-name="uni0415" unicode="&#x415;" horiz-adv-x="506" 
d="M89 0v648h374v-62h-301v-225h223v-61h-223v-237h313v-63h-386z" />
    <glyph glyph-name="uni0416" unicode="&#x416;" horiz-adv-x="932" 
d="M912 0h-96l-314 322v-322h-72v322l-314 -322h-96l326 330l-317 318h89l312 -314v314h72v-314l312 314h89l-317 -318z" />
    <glyph glyph-name="uni0417" unicode="&#x417;" horiz-adv-x="521" 
d="M354 341q52 -8 85.5 -47.5t33.5 -112.5q0 -191 -236 -191q-57 0 -104.5 12t-69.5 28v75q66 -49 172 -49q75 0 119 26.5t44 98.5q0 61 -33 89.5t-108 28.5h-86v61h44q81 0 122 25t41 93q0 65 -39.5 90t-113.5 25q-97 0 -162 -50v75q22 15 69 27.5t101 12.5q220 0 220 -176
q0 -58 -27 -94t-72 -47z" />
    <glyph glyph-name="uni0418" unicode="&#x418;" horiz-adv-x="697" 
d="M598 658h10v-658h-72v499l-437 -509h-10v658h72v-500z" />
    <glyph glyph-name="uni0419" unicode="&#x419;" horiz-adv-x="697" 
d="M366 696q-84 0 -124.5 44t-40.5 118v8h64q0 -57 26.5 -86.5t74.5 -29.5t74.5 29.5t26.5 86.5h64v-8q0 -74 -41 -118t-124 -44zM598 658h10v-658h-72v499l-437 -509h-10v658h72v-500z" />
    <glyph glyph-name="uni041A" unicode="&#x41a;" horiz-adv-x="610" 
d="M89 0v648h73v-313l322 313h97l-332 -318l340 -330h-100l-327 321v-321h-73z" />
    <glyph glyph-name="uni041B" unicode="&#x41b;" horiz-adv-x="686" 
d="M173 648h424v-648h-73v586h-281v-145q0 -84 -3 -143t-13 -120t-28 -98.5t-49 -61t-75 -23.5q-32 0 -50 10v67q14 -7 38 -7q61 0 85.5 100t24.5 288v195z" />
    <glyph glyph-name="uni041C" unicode="&#x41c;" horiz-adv-x="839" 
d="M415 -10l-203 469l-84 -459h-74l128 658h10l228 -522l228 522h10l127 -658h-72l-85 458l-203 -468h-10z" />
    <glyph glyph-name="uni041D" unicode="&#x41d;" horiz-adv-x="698" 
d="M89 0v648h73v-287h374v287h73v-648h-73v298h-374v-298h-73z" />
    <glyph glyph-name="uni041E" unicode="&#x41e;" horiz-adv-x="750" 
d="M374 -10q-148 0 -233 94.5t-85 239.5q0 146 86 240t235 94t233 -93t84 -237q0 -147 -85 -242.5t-235 -95.5zM376 58q111 0 177.5 75t66.5 194q0 116 -67 190t-178 74q-108 0 -176.5 -74t-68.5 -191q0 -116 67.5 -192t178.5 -76z" />
    <glyph glyph-name="uni041F" unicode="&#x41f;" horiz-adv-x="686" 
d="M89 648h508v-648h-73v586h-362v-586h-73v648z" />
    <glyph glyph-name="uni0420" unicode="&#x420;" horiz-adv-x="580" 
d="M280 648q57 0 100 -8.5t81 -29.5t58 -63t20 -104q0 -52 -16.5 -90.5t-41.5 -60.5t-61.5 -35t-70 -17t-74.5 -4h-113v-236h-73v648h191zM271 298q194 0 194 145q0 43 -15 72t-43 44t-60.5 21t-75.5 6h-109v-288h109z" />
    <glyph glyph-name="uni0421" unicode="&#x421;" horiz-adv-x="634" 
d="M378 -10q-151 0 -236.5 91.5t-85.5 241.5t85 242.5t235 92.5q60 0 110 -14.5t74 -32.5v-75q-80 55 -180 55q-116 0 -183 -72.5t-67 -193.5q0 -125 70.5 -196t184.5 -71q109 0 185 54v-76q-24 -17 -76.5 -31.5t-115.5 -14.5z" />
    <glyph glyph-name="uni0422" unicode="&#x422;" horiz-adv-x="543" 
d="M235 0v586h-195v62h463v-62h-195v-586h-73z" />
    <glyph glyph-name="uni0423" unicode="&#x423;" horiz-adv-x="584" 
d="M498 648h71l-311 -648h-70l95 199l-263 449h81l218 -375z" />
    <glyph glyph-name="uni0424" unicode="&#x424;" horiz-adv-x="807" 
d="M751 324q0 -124 -84 -198.5t-228 -80.5v-73h-71v73q-145 5 -228.5 79.5t-83.5 199.5q0 124 84 198.5t228 80.5v73h71v-73q145 -5 228.5 -80t83.5 -199zM130 326q0 -97 64 -154.5t175 -61.5v429q-108 -4 -173.5 -60.5t-65.5 -152.5zM438 109q108 4 173.5 60.5t65.5 152.5
q0 97 -64 154.5t-175 61.5v-429z" />
    <glyph glyph-name="uni0425" unicode="&#x425;" horiz-adv-x="588" 
d="M25 0l224 331l-214 317h87l172 -264l175 264h85l-215 -316l224 -332h-87l-182 279l-184 -279h-85z" />
    <glyph glyph-name="uni0426" unicode="&#x426;" horiz-adv-x="718" 
d="M593 63h80v-204h-67v141h-517v648h73v-585h358v585h73v-585z" />
    <glyph glyph-name="uni0427" unicode="&#x427;" horiz-adv-x="649" 
d="M488 648h73v-648h-73v305q-58 -79 -186 -79q-120 0 -176 57t-56 174v191h73v-173q0 -92 39.5 -137t131.5 -45q174 0 174 182v173z" />
    <glyph glyph-name="uni0428" unicode="&#x428;" horiz-adv-x="967" 
d="M805 648h73v-648h-789v648h73v-585h285v585h73v-585h285v585z" />
    <glyph glyph-name="uni0429" unicode="&#x429;" horiz-adv-x="1003" 
d="M878 63h80v-204h-67v141h-802v648h73v-585h285v585h73v-585h285v585h73v-585z" />
    <glyph glyph-name="uni042A" unicode="&#x42a;" horiz-adv-x="726" 
d="M426 412q57 0 100 -8.5t81 -30t58 -63.5t20 -103q0 -52 -16.5 -90.5t-41.5 -60.5t-61.5 -35t-70 -17t-74.5 -4h-186v586h-195v62h268v-236h118zM417 62q194 0 194 145q0 43 -15 72t-43 44t-60.5 21t-75.5 6h-109v-288h109z" />
    <glyph glyph-name="uni042B" unicode="&#x42b;" horiz-adv-x="821" 
d="M280 412q57 0 100 -8.5t81 -30t58 -63.5t20 -103q0 -52 -16.5 -90.5t-41.5 -60.5t-61.5 -35t-70 -17t-74.5 -4h-186v648h73v-236h118zM659 648h73v-648h-73v648zM271 62q194 0 194 145q0 43 -15 72t-43 44t-60.5 21t-75.5 6h-109v-288h109z" />
    <glyph glyph-name="uni042C" unicode="&#x42c;" horiz-adv-x="580" 
d="M280 412q57 0 100 -8.5t81 -30t58 -63.5t20 -103q0 -52 -16.5 -90.5t-41.5 -60.5t-61.5 -35t-70 -17t-74.5 -4h-186v648h73v-236h118zM271 62q194 0 194 145q0 43 -15 72t-43 44t-60.5 21t-75.5 6h-109v-288h109z" />
    <glyph glyph-name="uni042D" unicode="&#x42d;" horiz-adv-x="634" 
d="M255 658q152 0 237.5 -92t85.5 -241t-85.5 -242t-234.5 -93q-63 0 -116 14.5t-79 32.5v75q87 -54 191 -54q109 0 177 66.5t73 173.5h-305v61h305q-8 107 -78.5 169.5t-177.5 62.5q-102 0 -175 -55v76q24 17 73.5 31.5t108.5 14.5z" />
    <glyph glyph-name="uni042E" unicode="&#x42e;" horiz-adv-x="1010" 
d="M638 658q148 0 232 -93t84 -237q0 -147 -85 -242.5t-234 -95.5q-140 0 -223.5 86.5t-91.5 221.5h-158v-298h-73v648h73v-287h159q11 132 94.5 214.5t222.5 82.5zM637 58q111 0 176.5 75t65.5 194q0 116 -66.5 190t-176.5 74q-108 0 -175 -74t-67 -191q0 -116 66.5 -192
t176.5 -76z" />
    <glyph glyph-name="uni042F" unicode="&#x42f;" horiz-adv-x="593" 
d="M314 648h190v-648h-73v247h-148l-163 -247h-87l172 256q-141 29 -141 185q0 115 65.5 161t184.5 46zM325 308h106v278h-104q-96 0 -142 -28.5t-46 -109.5q0 -77 44.5 -108.5t141.5 -31.5z" />
    <glyph glyph-name="uni0430" unicode="&#x430;" horiz-adv-x="490" 
d="M240 457q183 0 183 -181v-276h-63l-1 63q-41 -72 -150 -72q-77 0 -121.5 40t-44.5 105q0 69 48.5 108.5t136.5 39.5q72 0 125 -29v17q0 62 -29 94t-96 32q-76 0 -142 -40v63q67 36 154 36zM224 43q64 0 96.5 38t32.5 102v18q-44 32 -121 32q-56 0 -86.5 -24.5
t-30.5 -69.5t30 -70.5t79 -25.5z" />
    <glyph glyph-name="uni0431" unicode="&#x431;" horiz-adv-x="577" 
d="M313 443q98 0 157 -61.5t59 -162.5q0 -104 -64 -166t-171 -62q-114 0 -171.5 69.5t-57.5 220.5v19q0 209 76 280q40 38 87 54t135 25q108 11 127 18v-62q-19 -7 -126 -19q-77 -8 -110 -18.5t-65 -40.5q-55 -51 -55 -180v-10q25 46 71.5 71t107.5 25zM295 51q73 0 117 46
t44 122q0 75 -45 119.5t-114 44.5q-77 0 -120 -46.5t-43 -113.5q0 -76 44.5 -124t116.5 -48z" />
    <glyph glyph-name="uni0432" unicode="&#x432;" horiz-adv-x="477" 
d="M321 239q45 -7 74 -36t29 -77q0 -64 -51 -95t-137 -31h-157v448h131q185 0 185 -115q0 -37 -21 -61.5t-53 -32.5zM324 328q0 69 -116 69h-59v-142h63q112 0 112 73zM234 52q119 0 119 75q0 77 -118 77h-86v-152h85z" />
    <glyph glyph-name="uni0433" unicode="&#x433;" horiz-adv-x="386" 
d="M356 448v-57h-207v-391h-70v448h277z" />
    <glyph glyph-name="uni0434" unicode="&#x434;" horiz-adv-x="565" 
d="M465 57h70v-178h-65v122h-380v-122h-65v178h13q41 0 66 47q35 65 35 231v113h326v-391zM202 392v-52q0 -208 -57 -283h251v335h-194z" />
    <glyph glyph-name="uni0435" unicode="&#x435;" horiz-adv-x="510" 
d="M281 -9q-115 0 -176.5 59.5t-61.5 169.5q0 107 57.5 172t159.5 65q97 0 152 -58t55 -158q0 -28 -3 -43h-348q7 -147 175 -147q86 0 156 39v-63q-64 -36 -166 -36zM116 249h279q3 69 -34.5 109t-100.5 40q-61 0 -100.5 -40.5t-43.5 -108.5z" />
    <glyph glyph-name="uni0436" unicode="&#x436;" horiz-adv-x="701" 
d="M687 0h-92l-210 225v-225h-69v225l-210 -225h-92l221 230l-212 218h85l208 -215v215h69v-215l208 215h85l-212 -218z" />
    <glyph glyph-name="uni0437" unicode="&#x437;" horiz-adv-x="433" 
d="M283 239q98 -18 98 -116q0 -70 -50.5 -101t-132.5 -31q-94 0 -141 33v64q55 -41 139 -41q118 0 118 77t-122 77h-49v53h38q46 0 79.5 18t33.5 57q0 72 -95 72q-73 0 -132 -41v61q60 36 147 36q63 0 104.5 -27t41.5 -90q0 -39 -21 -65.5t-56 -35.5z" />
    <glyph glyph-name="uni0438" unicode="&#x438;" horiz-adv-x="543" 
d="M454 457h10v-457h-68v316l-307 -325h-10v457h68v-321z" />
    <glyph glyph-name="uni0439" unicode="&#x439;" horiz-adv-x="543" 
d="M275 500q-76 0 -112.5 40.5t-36.5 106.5v11h61v-4q0 -51 23 -78.5t65 -27.5t65 27.5t23 78.5v4h61v-11q0 -66 -37 -106.5t-112 -40.5zM454 457h10v-457h-68v316l-307 -325h-10v457h68v-321z" />
    <glyph glyph-name="uni043A" unicode="&#x43a;" horiz-adv-x="480" 
d="M466 0h-94l-223 223v-223h-70v448h70v-213l214 213h92l-225 -217z" />
    <glyph glyph-name="uni043B" unicode="&#x43b;" horiz-adv-x="553" 
d="M138 448h336v-448h-70v391h-199v-86q0 -73 -5.5 -125.5t-20 -96.5t-41.5 -66.5t-67 -22.5q-28 0 -44 8v62q14 -7 33 -7q44 0 61 67t17 193v131z" />
    <glyph glyph-name="uni043C" unicode="&#x43c;" horiz-adv-x="688" 
d="M643 0h-70l-75 295l-150 -304h-10l-148 305l-74 -296h-71l119 456h10l170 -341l171 341h10z" />
    <glyph glyph-name="uni043D" unicode="&#x43d;" horiz-adv-x="555" 
d="M406 448h70v-448h-70v198h-257v-198h-70v448h70v-193h257v193z" />
    <glyph glyph-name="uni043E" unicode="&#x43e;" horiz-adv-x="552" 
d="M275 -9q-106 0 -169 64t-63 168q0 103 63.5 168.5t170.5 65.5q105 0 168.5 -61t63.5 -168t-64.5 -172t-169.5 -65zM275 52q71 0 116 47.5t45 126.5q0 78 -45 124t-115 46q-73 0 -116.5 -49t-43.5 -124q0 -78 44 -124.5t115 -46.5z" />
    <glyph glyph-name="uni043F" unicode="&#x43f;" horiz-adv-x="543" 
d="M79 448h385v-448h-70v391h-245v-391h-70v448z" />
    <glyph glyph-name="uni0440" unicode="&#x440;" horiz-adv-x="582" 
d="M79 -198v646h64l2 -81q53 90 172 90q101 0 161.5 -63t60.5 -167q0 -108 -61.5 -172t-160.5 -64q-57 0 -100.5 22.5t-67.5 58.5v-270h-70zM305 52q73 0 117 47.5t44 126.5q0 78 -44 124t-116 46q-75 0 -117.5 -49.5t-42.5 -124.5q0 -77 43.5 -123.5t115.5 -46.5z" />
    <glyph glyph-name="uni0441" unicode="&#x441;" horiz-adv-x="444" 
d="M273 -9q-102 0 -166 60t-64 169q0 108 62.5 172.5t169.5 64.5q62 0 118 -24v-68q-51 31 -113 31q-75 0 -119.5 -46t-44.5 -126q0 -81 43 -126.5t121 -45.5q70 0 117 34v-67q-42 -28 -124 -28z" />
    <glyph glyph-name="uni0442" unicode="&#x442;" horiz-adv-x="414" 
d="M384 448v-57h-142v-391h-70v391h-142v57h354z" />
    <glyph glyph-name="uni0443" unicode="&#x443;" horiz-adv-x="486" 
d="M108 -198l98 220l-186 426h77l146 -348l148 348h76l-283 -646h-76z" />
    <glyph glyph-name="uni0444" unicode="&#x444;" horiz-adv-x="647" 
d="M604 228q0 -103 -69 -168t-178 -69v-189h-67v189q-111 3 -179 67t-68 165q0 99 67.5 164.5t179.5 69.5v206h67v-206q111 -3 179 -64.5t68 -164.5zM114 223q0 -76 50.5 -123.5t125.5 -49.5v348q-77 -1 -126.5 -51.5t-49.5 -123.5zM356 50q75 2 126 50.5t51 125.5
q0 76 -51 123t-126 49v-348z" />
    <glyph glyph-name="uni0445" unicode="&#x445;" horiz-adv-x="495" 
d="M21 0l184 223l-180 225h87l136 -179l138 179h84l-179 -225l183 -223h-86l-141 175l-142 -175h-84z" />
    <glyph glyph-name="uni0446" unicode="&#x446;" horiz-adv-x="560" 
d="M460 57h70v-178h-64v121h-387v448h70v-391h241v391h70v-391z" />
    <glyph glyph-name="uni0447" unicode="&#x447;" horiz-adv-x="521" 
d="M372 448h70v-448h-70v201q-40 -62 -145 -62q-172 0 -172 190v119h70v-104q0 -75 26.5 -110t91.5 -35q63 0 96 33.5t33 111.5v104z" />
    <glyph glyph-name="uni0448" unicode="&#x448;" horiz-adv-x="762" 
d="M613 448h70v-448h-604v448h70v-391h197v391h70v-391h197v391z" />
    <glyph glyph-name="uni0449" unicode="&#x449;" horiz-adv-x="783" 
d="M683 57h70v-178h-64v121h-610v448h70v-391h197v391h70v-391h197v391h70v-391z" />
    <glyph glyph-name="uni044A" unicode="&#x44a;" horiz-adv-x="556" 
d="M316 296q44 0 77 -5.5t63 -20.5t46 -45t16 -75q0 -48 -18 -79.5t-51.5 -46t-66 -19.5t-76.5 -5h-134v391h-142v57h212v-152h74zM309 55q65 0 101.5 20t36.5 74t-36.5 73t-105.5 19h-63v-186h67z" />
    <glyph glyph-name="uni044B" unicode="&#x44b;" horiz-adv-x="659" 
d="M222 296q45 0 78 -5.5t63 -20.5t46 -45t16 -75q0 -48 -18 -79.5t-51.5 -46t-66 -19.5t-76.5 -5h-134v448h70v-152h73zM510 448h70v-448h-70v448zM216 55q65 0 101 20t36 74t-36 73t-105 19h-63v-186h67z" />
    <glyph glyph-name="uni044C" unicode="&#x44c;" horiz-adv-x="462" 
d="M222 296q45 0 78 -5.5t63 -20.5t46 -45t16 -75q0 -48 -18 -79.5t-51.5 -46t-66 -19.5t-76.5 -5h-134v448h70v-152h73zM216 55q65 0 101 20t36 74t-36 73t-105 19h-63v-186h67z" />
    <glyph glyph-name="uni044D" unicode="&#x44d;" horiz-adv-x="449" 
d="M175 457q102 0 166.5 -60.5t64.5 -169.5q0 -108 -62.5 -172t-170.5 -64q-73 0 -121 24v68q53 -31 116 -31q71 0 115.5 39t50.5 108h-202v55h202q-8 66 -51 104t-114 38q-70 0 -113 -33v66q43 28 119 28z" />
    <glyph glyph-name="uni044E" unicode="&#x44e;" horiz-adv-x="754" 
d="M480 457q105 0 168 -61t63 -168t-64 -172t-168 -65q-99 0 -160.5 57t-69.5 150h-100v-198h-70v448h70v-193h101q10 91 71 146.5t159 55.5zM479 52q70 0 114.5 47.5t44.5 126.5q0 78 -44.5 124t-114.5 46q-73 0 -115.5 -49t-42.5 -124q0 -78 44 -124.5t114 -46.5z" />
    <glyph glyph-name="uni044F" unicode="&#x44f;" horiz-adv-x="478" 
d="M236 448h163v-448h-70v167h-87l-112 -167h-84l122 173q-104 18 -104 131q0 144 172 144zM246 222h83v171h-81q-60 0 -87 -19.5t-27 -66.5q0 -45 27 -65t85 -20z" />
    <glyph glyph-name="uni0451" unicode="&#x451;" horiz-adv-x="510" 
d="M158 564q-20 0 -32.5 13t-12.5 33t13 32.5t32 12.5q20 0 33 -12.5t13 -33.5q0 -20 -13 -32.5t-33 -12.5zM362 564q-20 0 -33 13t-13 33t13 32.5t33 12.5q19 0 32 -12.5t13 -33.5q0 -20 -13 -32.5t-32 -12.5zM281 -9q-115 0 -176.5 59.5t-61.5 169.5q0 107 57.5 172
t159.5 65q97 0 152 -58t55 -158q0 -28 -3 -43h-348q7 -147 175 -147q86 0 156 39v-63q-64 -36 -166 -36zM116 249h279q3 69 -34.5 109t-100.5 40q-61 0 -100.5 -40.5t-43.5 -108.5z" />
    <glyph glyph-name="uni0452" unicode="&#x452;" horiz-adv-x="568" 
d="M323 427q95 0 140 -48.5t45 -146.5q0 -207 -148 -353h-83q161 155 161 337q0 74 -28.5 112t-100.5 38q-137 0 -137 -180v-186h-70v507h-107v55h107v101h70v-101h160v-55h-160v-152q44 72 151 72z" />
    <glyph glyph-name="uni0453" unicode="&#x453;" horiz-adv-x="386" 
d="M386 681l-139 -161h-69l115 161h93zM356 448v-57h-207v-391h-70v448h277z" />
    <glyph glyph-name="uni0454" unicode="&#x454;" horiz-adv-x="449" 
d="M280 52q70 0 117 34v-67q-42 -28 -124 -28q-102 0 -166 60t-64 169q0 108 62.5 172.5t169.5 64.5q62 0 118 -24v-68q-51 31 -113 31q-71 0 -114.5 -37.5t-50.5 -104.5h202v-55h-202q5 -69 48.5 -108t116.5 -39z" />
    <glyph glyph-name="uni0455" unicode="&#x455;" horiz-adv-x="377" 
d="M176 -9q-77 0 -122 26v62q54 -32 118 -32q44 0 69 18.5t25 55.5q0 32 -21 51.5t-51.5 30.5l-61 23t-51.5 39.5t-21 70.5q0 60 38 90.5t104 30.5t102 -22v-61q-46 27 -99 27q-79 0 -79 -61q0 -28 21.5 -45.5t52 -28t60.5 -23.5t51.5 -42t21.5 -75q0 -67 -43 -101t-114 -34
z" />
    <glyph glyph-name="uni0456" unicode="&#x456;" horiz-adv-x="254" 
d="M141 564q-20 0 -33 13t-13 33t13.5 32.5t32.5 12.5q20 0 32.5 -12.5t12.5 -33.5q0 -20 -13 -32.5t-32 -12.5zM106 0v391h-63v57h133v-448h-70z" />
    <glyph glyph-name="uni0457" unicode="&#x457;" horiz-adv-x="254" 
d="M53 564q-20 0 -33 13t-13 33t13 32.5t33 12.5q19 0 32 -12.5t13 -33.5q0 -20 -13 -32.5t-32 -12.5zM197 564q-20 0 -33 13t-13 33t13.5 32.5t32.5 12.5q20 0 33 -12.5t13 -33.5q0 -20 -13.5 -32.5t-32.5 -12.5zM106 0v391h-63v57h133v-448h-70z" />
    <glyph glyph-name="uni0458" unicode="&#x458;" horiz-adv-x="266" 
d="M154 564q-20 0 -33 13t-13 33t13.5 32.5t32.5 12.5q20 0 32.5 -12.5t12.5 -33.5q0 -20 -13 -32.5t-32 -12.5zM33 -207q-42 0 -79 13v61q34 -15 69 -15q56 0 76 34t20 97v408h-63v57h133v-461q0 -93 -35 -143.5t-121 -50.5z" />
    <glyph glyph-name="uni0459" unicode="&#x459;" horiz-adv-x="788" 
d="M548 296q44 0 77 -5.5t63 -20.5t46 -45t16 -75q0 -48 -18 -79.5t-51.5 -46t-66 -19.5t-76.5 -5h-134v391h-199v-86q0 -73 -5.5 -125.5t-20 -96.5t-41.5 -66.5t-67 -22.5q-28 0 -44 8v62q14 -7 33 -7q44 0 61 67t17 193v131h336v-152h74zM541 55q65 0 101.5 20t36.5 74
t-36.5 73t-105.5 19h-63v-186h67z" />
    <glyph glyph-name="uni045A" unicode="&#x45a;" horiz-adv-x="790" 
d="M550 296q44 0 77 -5.5t63 -20.5t46 -45t16 -75q0 -48 -18 -79.5t-51.5 -46t-66 -19.5t-76.5 -5h-134v198h-257v-198h-70v448h70v-193h257v193h70v-152h74zM543 55q65 0 101.5 20t36.5 74t-36.5 73t-105.5 19h-63v-186h67z" />
    <glyph glyph-name="uni045B" unicode="&#x45b;" horiz-adv-x="563" 
d="M323 427q173 0 173 -195v-232h-70v216q0 72 -25 111t-92 39q-137 0 -137 -180v-186h-70v507h-107v55h107v101h70v-101h160v-55h-160v-152q44 72 151 72z" />
    <glyph glyph-name="uni045C" unicode="&#x45c;" horiz-adv-x="480" 
d="M413 681l-139 -161h-69l115 161h93zM466 0h-94l-223 223v-223h-70v448h70v-213l214 213h92l-225 -217z" />
    <glyph glyph-name="uni045D" unicode="&#x45d;" horiz-adv-x="543" 
d="M332 520h-69l-139 161h93zM454 457h10v-457h-68v316l-307 -325h-10v457h68v-321z" />
    <glyph glyph-name="uni045E" unicode="&#x45e;" horiz-adv-x="486" 
d="M242 500q-76 0 -112.5 40.5t-36.5 106.5v11h61v-4q0 -51 23 -78.5t65 -27.5t65 27.5t23 78.5v4h61v-11q0 -66 -37 -106.5t-112 -40.5zM108 -198l98 220l-186 426h77l146 -348l148 348h76l-283 -646h-76z" />
    <glyph glyph-name="uni045F" unicode="&#x45f;" horiz-adv-x="539" 
d="M460 448v-448h-158v-121h-65v121h-158v448h70v-391h241v391h70z" />
    <glyph glyph-name="uni0490" unicode="&#x490;" horiz-adv-x="483" 
d="M465 789v-203h-303v-586h-73v648h309v141h67z" />
    <glyph glyph-name="uni0491" unicode="&#x491;" horiz-adv-x="386" 
d="M356 569v-178h-207v-391h-70v448h212v121h65z" />
    <glyph glyph-name="Wgrave" unicode="&#x1e80;" horiz-adv-x="930" 
d="M454 715l-139 161h93l115 -161h-69zM276 -9l-242 657h80l169 -488l177 488h10l177 -488l171 488h78l-241 -657h-10l-180 493l-179 -493h-10z" />
    <glyph glyph-name="wgrave" unicode="&#x1e81;" horiz-adv-x="723" 
d="M339 520l-139 161h93l115 -161h-69zM221 -9l-194 457h77l124 -315l132 315h10l128 -315l123 315h75l-190 -457h-10l-131 321l-134 -321h-10z" />
    <glyph glyph-name="Wacute" unicode="&#x1e82;" horiz-adv-x="930" 
d="M437 715l116 161h93l-139 -161h-70zM276 -9l-242 657h80l169 -488l177 488h10l177 -488l171 488h78l-241 -657h-10l-180 493l-179 -493h-10z" />
    <glyph glyph-name="wacute" unicode="&#x1e83;" horiz-adv-x="723" 
d="M322 520l115 161h93l-139 -161h-69zM221 -9l-194 457h77l124 -315l132 315h10l128 -315l123 315h75l-190 -457h-10l-131 321l-134 -321h-10z" />
    <glyph glyph-name="Wdieresis" unicode="&#x1e84;" horiz-adv-x="930" 
d="M370 741q-22 0 -37 14.5t-15 37.5t15 37.5t37 14.5t36.5 -14.5t14.5 -37.5t-14.5 -37.5t-36.5 -14.5zM558 741q-22 0 -36.5 14.5t-14.5 37.5t14.5 37.5t36.5 14.5t37 -14.5t15 -37.5t-15 -37.5t-37 -14.5zM276 -9l-242 657h80l169 -488l177 488h10l177 -488l171 488h78
l-241 -657h-10l-180 493l-179 -493h-10z" />
    <glyph glyph-name="wdieresis" unicode="&#x1e85;" horiz-adv-x="723" 
d="M270 564q-20 0 -33 13t-13 33t13.5 32.5t32.5 12.5q20 0 33 -12.5t13 -33.5q0 -20 -13 -32.5t-33 -12.5zM458 564q-20 0 -33 13t-13 33t13.5 32.5t32.5 12.5q20 0 33 -12.5t13 -33.5q0 -20 -13.5 -32.5t-32.5 -12.5zM221 -9l-194 457h77l124 -315l132 315h10l128 -315
l123 315h75l-190 -457h-10l-131 321l-134 -321h-10z" />
    <glyph glyph-name="uni1E9E" unicode="&#x1e9e;" horiz-adv-x="639" 
d="M402 394q77 2 133 -48.5t56 -147.5q0 -101 -59.5 -154.5t-163.5 -53.5q-61 0 -117 17v67q51 -20 112 -20q77 0 115 38t38 104q0 61 -36.5 101t-106.5 40q-61 0 -93 -23l-7 8l182 265h-293v-587h-73v648h471v-10l-172 -255q8 8 14 11z" />
    <glyph glyph-name="Ygrave" unicode="&#x1ef2;" horiz-adv-x="586" 
d="M311 715l-139 161h93l115 -161h-69zM255 0v257l-229 391h80l187 -327l189 327h78l-232 -391v-257h-73z" />
    <glyph glyph-name="ygrave" unicode="&#x1ef3;" horiz-adv-x="486" 
d="M248 520l-139 161h93l115 -161h-69zM108 -198l98 220l-186 426h77l146 -348l148 348h76l-283 -646h-76z" />
    <glyph glyph-name="uni2002" unicode="&#x2002;" horiz-adv-x="470" 
 />
    <glyph glyph-name="uni2003" unicode="&#x2003;" horiz-adv-x="786" 
 />
    <glyph glyph-name="uni2009" unicode="&#x2009;" horiz-adv-x="158" 
 />
    <glyph glyph-name="uni200A" unicode="&#x200a;" horiz-adv-x="50" 
 />
    <glyph glyph-name="endash" unicode="&#x2013;" horiz-adv-x="470" 
d="M43 214v59h384v-59h-384z" />
    <glyph glyph-name="emdash" unicode="&#x2014;" horiz-adv-x="786" 
d="M43 214v59h700v-59h-700z" />
    <glyph glyph-name="quoteleft" unicode="&#x2018;" horiz-adv-x="243" 
d="M130 540q23 1 37 -12t14 -35q0 -23 -15 -37t-38 -14q-26 0 -42 19t-16 54t19 72.5t49 60.5h48q-24 -24 -39 -54.5t-17 -53.5z" />
    <glyph glyph-name="quoteright" unicode="&#x2019;" horiz-adv-x="243" 
d="M115 654q26 0 42 -19t16 -54t-19 -72.5t-49 -60.5h-48q24 24 39 54.5t17 53.5q-23 -1 -37 12t-14 35q0 23 15 37t38 14z" />
    <glyph glyph-name="quotesinglbase" unicode="&#x201a;" horiz-adv-x="243" 
d="M115 75q26 0 42 -19t16 -54t-19 -72.5t-49 -60.5h-48q24 24 39 54.5t17 53.5q-23 -1 -37 12t-14 35q0 23 15 37t38 14z" />
    <glyph glyph-name="quotedblleft" unicode="&#x201c;" horiz-adv-x="395" 
d="M138 648h48q-24 -24 -39 -54.5t-17 -53.5q23 1 37 -12t14 -35q0 -23 -15 -37t-38 -14q-26 0 -42 19t-16 54t19 72.5t49 60.5zM281 540q23 1 37 -12t14 -35q0 -23 -15 -37t-38 -14q-26 0 -42 19t-16 54t19 72.5t49 60.5h48q-24 -24 -39 -54.5t-17 -53.5z" />
    <glyph glyph-name="quotedblright" unicode="&#x201d;" horiz-adv-x="395" 
d="M115 654q26 0 42 -19t16 -54t-19 -72.5t-49 -60.5h-48q24 24 39 54.5t17 53.5q-23 -1 -37 12t-14 35q0 23 15 37t38 14zM267 654q26 0 42 -19t16 -54t-19 -72.5t-49 -60.5h-48q24 24 39 54.5t17 53.5q-23 -1 -37 12t-14 35q0 23 15 37t38 14z" />
    <glyph glyph-name="quotedblbase" unicode="&#x201e;" horiz-adv-x="395" 
d="M115 75q26 0 42 -19t16 -54t-19 -72.5t-49 -60.5h-48q24 24 39 54.5t17 53.5q-23 -1 -37 12t-14 35q0 23 15 37t38 14zM267 75q26 0 42 -19t16 -54t-19 -72.5t-49 -60.5h-48q24 24 39 54.5t17 53.5q-23 -1 -37 12t-14 35q0 23 15 37t38 14z" />
    <glyph glyph-name="dagger" unicode="&#x2020;" horiz-adv-x="587" 
d="M266 -202l-7 593h-170v57h169l-2 200h76l-3 -200h169v-57h-170l-7 -593h-55z" />
    <glyph glyph-name="daggerdbl" unicode="&#x2021;" horiz-adv-x="587" 
d="M266 -202l-4 318h-163v57h163l-3 218h-170v57h169l-2 200h76l-3 -200h169v-57h-170l-3 -218h163v-57h-163l-4 -318h-55z" />
    <glyph glyph-name="bullet" unicode="&#x2022;" horiz-adv-x="450" 
d="M226 129q-45 0 -74 29t-29 74q0 43 30 72t73 29q44 0 72.5 -29t28.5 -73q0 -45 -29 -73.5t-72 -28.5z" />
    <glyph glyph-name="ellipsis" unicode="&#x2026;" horiz-adv-x="665" 
d="M123 -9q-22 0 -35.5 14t-13.5 36q0 21 14.5 35t34.5 14q21 0 34.5 -14t13.5 -36t-13.5 -35.5t-34.5 -13.5zM333 -9q-22 0 -35.5 14t-13.5 36q0 21 14 35t35 14q20 0 34 -14t14 -36t-13.5 -35.5t-34.5 -13.5zM542 -9q-22 0 -35 14t-13 36q0 21 14 35t34 14q21 0 34.5 -14
t13.5 -36t-13.5 -35.5t-34.5 -13.5z" />
    <glyph glyph-name="perthousand" unicode="&#x2030;" horiz-adv-x="1200" 
d="M198 351q-66 0 -109 41.5t-43 111.5q0 71 44 112.5t108 41.5q65 0 109 -40.5t44 -112.5q0 -71 -43 -112.5t-110 -41.5zM195 0l360 648h72l-360 -648h-72zM198 402q43 0 70.5 27.5t27.5 75.5q0 49 -28 76t-70 27q-41 0 -69 -28t-28 -76q0 -47 27.5 -74.5t69.5 -27.5z
M623 -10q-67 0 -110 41.5t-43 111.5q0 71 44 112.5t109 41.5q66 0 109.5 -40t43.5 -113q0 -71 -43 -112.5t-110 -41.5zM1001 -10q-66 0 -109.5 41.5t-43.5 111.5q0 71 44 112.5t109 41.5q66 0 109.5 -40t43.5 -113q0 -71 -43 -112.5t-110 -41.5zM623 41q43 0 70 27.5
t27 75.5q0 50 -27.5 76.5t-69.5 26.5q-41 0 -69 -27.5t-28 -75.5t27.5 -75.5t69.5 -27.5zM1001 41q43 0 70 27.5t27 75.5q0 50 -27.5 76.5t-69.5 26.5q-41 0 -69 -27.5t-28 -75.5t27.5 -75.5t69.5 -27.5z" />
    <glyph glyph-name="guilsinglleft" unicode="&#x2039;" horiz-adv-x="339" 
d="M183 74l-140 157l140 157h82l-144 -157l144 -157h-82z" />
    <glyph glyph-name="guilsinglright" unicode="&#x203a;" horiz-adv-x="339" 
d="M74 74l143 157l-143 157h82l140 -157l-140 -157h-82z" />
    <glyph glyph-name="fraction" unicode="&#x2044;" horiz-adv-x="432" 
d="M0 0l360 648h72l-360 -648h-72z" />
    <glyph glyph-name="Euro" unicode="&#x20ac;" 
d="M395 -10q-126 0 -203.5 63t-96.5 178h-85v57h79q-2 16 -2 35q0 18 2 34h-79v57h86q20 111 96 177.5t204 66.5q104 0 165 -36v-71q-68 42 -161 42q-95 0 -152.5 -47.5t-74.5 -131.5h228v-57h-236q-2 -10 -2 -32q0 -30 1 -37h237v-57h-230q17 -86 79 -130.5t151 -44.5
q97 0 169 40v-71q-25 -14 -73 -24.5t-102 -10.5z" />
    <glyph glyph-name="uni20B4" unicode="&#x20b4;" horiz-adv-x="538" 
d="M478 367h-96q-17 -14 -39 -27.5l-48.5 -29t-40.5 -24.5h224v-54h-289q-26 -32 -26 -71q0 -53 36 -79.5t99 -26.5q91 0 167 50v-76q-76 -39 -180 -39q-89 0 -142.5 40t-53.5 120q0 44 20 82h-49v54h93q13 11 30 23t28 19l34 21l30 18h-215v55h291q34 34 34 77q0 45 -33 70
t-92 25q-79 0 -153 -45v75q66 34 162 34q93 0 141.5 -39.5t48.5 -109.5q0 -47 -25 -87h44v-55z" />
    <glyph glyph-name="uni20BD" unicode="&#x20bd;" horiz-adv-x="634" 
d="M328 231h-113v-69h135v-62h-135v-100h-73v100h-85v62h85v69h-85v62h85v355h192q45 0 80.5 -5t70 -18.5t57.5 -36t37 -60t14 -87.5q0 -53 -16.5 -92t-41.5 -61t-62 -35.5t-70.5 -17.5t-74.5 -4zM518 440q0 83 -51.5 114.5t-141.5 31.5h-110v-293h110q193 0 193 147z" />
    <glyph glyph-name="uni2113" unicode="&#x2113;" horiz-adv-x="218" 
d="M74 0v663h70v-663h-70z" />
    <glyph glyph-name="uni2116" unicode="&#x2116;" horiz-adv-x="1119" 
d="M609 -10l-449 506v-496h-71v658h10l449 -507v497h71v-658h-10zM913 317q-76 0 -119 46t-43 122t44 124t121 48q75 0 117.5 -45t42.5 -123q0 -79 -44 -125.5t-119 -46.5zM915 366q48 0 76 32.5t28 90.5t-28 89t-76 31q-51 0 -78.5 -33t-27.5 -89q0 -57 28 -89t78 -32z
M776 213v49h275v-49h-275z" />
    <glyph glyph-name="trademark" unicode="&#x2122;" horiz-adv-x="840" 
d="M557 269l-113 251l-42 -245h-55l74 383h10l131 -287l133 287h10l74 -383h-57l-40 244l-115 -250h-10zM135 275v324h-109v49h275v-49h-109v-324h-57z" />
    <glyph glyph-name="uni2126" unicode="&#x2126;" horiz-adv-x="784" 
d="M711 327q0 -92 -40 -160.5t-110 -103.5h150v-63h-265v62q86 25 138.5 94t52.5 171q0 116 -68 190t-177 74q-108 0 -176.5 -74t-68.5 -190q0 -102 52.5 -171t138.5 -94v-62h-266v63h149q-69 36 -109 104t-40 158q0 145 86.5 239t234.5 94t233 -93.5t85 -237.5z" />
    <glyph glyph-name="estimated" unicode="&#x212e;" horiz-adv-x="888" 
d="M445 -10q-159 0 -271 99.5t-112 241.5t112 242t271 100q156 0 268 -100t112 -242v-8h-617q-8 0 -8 -6v-187q0 -9 12 -21q95 -98 234 -98q72 0 135 29.5t109 80.5h56q-55 -61 -133.5 -96t-167.5 -35zM208 342h470q8 0 8 5v190q0 9 -13 22q-42 44 -102 69t-125 25
q-137 0 -234 -97q-12 -12 -12 -24v-185q0 -5 8 -5z" />
    <glyph glyph-name="arrowleft" unicode="&#x2190;" horiz-adv-x="862" 
d="M358 55l-276 275l276 275h90l-242 -241h574v-67h-574l242 -242h-90z" />
    <glyph glyph-name="arrowup" unicode="&#x2191;" horiz-adv-x="673" 
d="M300 0v537l-218 -216v83l254 254l255 -254v-83l-219 216v-537h-72z" />
    <glyph glyph-name="arrowright" unicode="&#x2192;" horiz-adv-x="862" 
d="M414 55l242 242h-574v67h574l-242 241h90l276 -275l-276 -275h-90z" />
    <glyph glyph-name="arrowdown" unicode="&#x2193;" horiz-adv-x="673" 
d="M336 -10l-254 254v83l218 -216v537h72v-537l219 216v-83z" />
    <glyph glyph-name="partialdiff" unicode="&#x2202;" horiz-adv-x="565" 
d="M275 -9q-106 0 -169 64t-63 168q0 103 60 168.5t166 65.5q66 0 111 -28.5t66 -72.5q-16 262 -209 262q-65 0 -108 -20v63q44 17 111 17q282 0 282 -378q0 -145 -63 -227t-184 -82zM275 52q70 0 115.5 46.5t45.5 129.5q0 77 -45 122.5t-115 45.5q-74 0 -117 -48.5
t-43 -124.5q0 -78 44 -124.5t115 -46.5z" />
    <glyph glyph-name="uni2206" unicode="&#x2206;" horiz-adv-x="646" 
d="M25 0l294 658h10l292 -658h-596zM129 63h386l-193 448z" />
    <glyph glyph-name="product" unicode="&#x220f;" horiz-adv-x="758" 
d="M159 -198v784h-100v62h640v-62h-99v-784h-73v784h-295v-784h-73z" />
    <glyph glyph-name="summation" unicode="&#x2211;" horiz-adv-x="556" 
d="M51 0v10l245 317l-242 311v10h461v-62h-330l201 -259l-203 -264h342v-63h-474z" />
    <glyph glyph-name="minus" unicode="&#x2212;" 
d="M93 197v58h408v-58h-408z" />
    <glyph glyph-name="radical" unicode="&#x221a;" horiz-adv-x="578" 
d="M263 0l-102 256h-99v58h149l86 -224l202 558h72l-239 -648h-69z" />
    <glyph glyph-name="infinity" unicode="&#x221e;" horiz-adv-x="690" 
d="M190 169q-67 0 -107 39.5t-40 116.5q0 75 40.5 114.5t106.5 39.5q104 0 155 -107q51 107 155 107q66 0 106.5 -39.5t40.5 -114.5q0 -77 -40 -116.5t-107 -39.5q-101 0 -155 111q-54 -111 -155 -111zM197 227q69 0 116 99q-45 96 -117 96q-44 0 -66.5 -26.5t-22.5 -71.5
t23 -71t67 -26zM493 227q44 0 67 26t23 71t-22.5 71t-66.5 26q-73 0 -117 -95q47 -99 116 -99z" />
    <glyph glyph-name="integral" unicode="&#x222b;" horiz-adv-x="359" 
d="M87 -207q-45 0 -77 12v60q32 -13 67 -13q44 0 61 26.5t17 92.5v518q0 85 34 127t111 42q38 0 68 -11v-62q-30 12 -62 12q-45 0 -63 -27t-18 -87v-502q0 -95 -27.5 -141.5t-110.5 -46.5z" />
    <glyph glyph-name="approxequal" unicode="&#x2248;" 
d="M390 257q-44 0 -102.5 29t-85.5 29q-52 0 -54 -51h-55q2 49 30 78t80 29q41 0 98 -29t90 -29q52 0 56 51h54q-1 -48 -29 -77.5t-82 -29.5zM390 81q-44 0 -102.5 29t-85.5 29q-52 0 -54 -51h-55q2 49 30 78t80 29q41 0 98 -29t90 -29q52 0 56 51h54q-1 -48 -29 -77.5
t-82 -29.5z" />
    <glyph glyph-name="notequal" unicode="&#x2260;" 
d="M158 15l48 94h-113v58h138l60 118h-198v58h224l48 92h62l-48 -92h122v-58h-149l-59 -118h208v-58h-234l-48 -94h-61z" />
    <glyph glyph-name="lessequal" unicode="&#x2264;" 
d="M501 106l-407 213v10l407 213v-69l-294 -148l294 -148v-71zM93 0v58h408v-58h-408z" />
    <glyph glyph-name="greaterequal" unicode="&#x2265;" 
d="M94 106v69l295 148l-295 148v71l407 -213v-10zM93 0v58h408v-58h-408z" />
    <glyph glyph-name="dotmath" unicode="&#x22c5;" horiz-adv-x="268" 
d="M134 182q-22 0 -35 14t-13 36q0 21 14 35t34 14q21 0 34.5 -14t13.5 -36q0 -21 -13.5 -35t-34.5 -14z" />
    <glyph glyph-name="lozenge" unicode="&#x25ca;" horiz-adv-x="548" 
d="M269 -10l-234 328l234 340h10l234 -340l-234 -328h-10zM274 84l167 234l-167 246l-167 -246z" />
    <glyph glyph-name="uniF8FF" unicode="&#xf8ff;" horiz-adv-x="549" 
d="M115 589q-13 0 -21.5 9t-8.5 22q0 12 8.5 21t21.5 9q12 0 21.5 -9t9.5 -21q0 -13 -9.5 -22t-21.5 -9zM181 589q-12 0 -21 9t-9 22q0 12 9 21t21 9q13 0 21.5 -9t8.5 -21q0 -13 -8.5 -22t-21.5 -9zM246 589q-12 0 -21.5 9t-9.5 22q0 12 9.5 21t21.5 9q13 0 21.5 -9
t8.5 -21q0 -13 -8.5 -22t-21.5 -9zM312 589q-13 0 -21.5 9t-8.5 22q0 12 8.5 21t21.5 9q12 0 21.5 -9t9.5 -21q0 -13 -9.5 -22t-21.5 -9zM378 589q-14 0 -22.5 8.5t-8.5 22.5q0 12 9 21t22 9q11 0 20.5 -9t9.5 -21q0 -13 -9 -22t-21 -9zM443 589q-12 0 -21.5 9t-9.5 22
q0 12 9.5 21t21.5 9q13 0 21.5 -9t8.5 -21q0 -13 -8.5 -22t-21.5 -9zM115 524q-13 0 -21.5 8.5t-8.5 21.5q0 12 8.5 21t21.5 9q12 0 21.5 -9t9.5 -21t-9.5 -21t-21.5 -9zM115 458q-13 0 -21.5 9t-8.5 22q0 12 8.5 20.5t21.5 8.5q12 0 21.5 -8.5t9.5 -20.5q0 -13 -9.5 -22
t-21.5 -9zM246 458q-12 0 -21.5 9t-9.5 22q0 12 9.5 20.5t21.5 8.5q13 0 21.5 -8.5t8.5 -20.5q0 -13 -8.5 -22t-21.5 -9zM312 458q-13 0 -21.5 9t-8.5 22q0 12 8.5 20.5t21.5 8.5q12 0 21.5 -8.5t9.5 -20.5q0 -13 -9.5 -22t-21.5 -9zM378 458q-13 0 -22 9t-9 22q0 12 9 20.5
t22 8.5q12 0 21 -8.5t9 -20.5q0 -13 -9 -22t-21 -9zM443 458q-12 0 -21.5 9t-9.5 22q0 12 9.5 20.5t21.5 8.5q13 0 21.5 -8.5t8.5 -20.5q0 -13 -8.5 -22t-21.5 -9zM115 394q-13 0 -21.5 8t-8.5 21t8.5 21.5t21.5 8.5q12 0 21.5 -9t9.5 -21t-9.5 -20.5t-21.5 -8.5zM246 394
q-12 0 -21.5 8.5t-9.5 20.5t9.5 21t21.5 9q13 0 21.5 -8.5t8.5 -21.5t-8.5 -21t-21.5 -8zM115 327q-13 0 -21.5 8.5t-8.5 21.5t8.5 22t21.5 9q12 0 21.5 -9t9.5 -22q0 -12 -9.5 -21t-21.5 -9zM246 327q-12 0 -21.5 9t-9.5 21q0 13 9.5 22t21.5 9q13 0 21.5 -9t8.5 -22
t-8.5 -21.5t-21.5 -8.5zM312 327q-13 0 -21.5 8.5t-8.5 21.5t8.5 22t21.5 9q12 0 21.5 -9t9.5 -22q0 -12 -9.5 -21t-21.5 -9zM378 327q-13 0 -22 8.5t-9 21.5t9 22t22 9q12 0 21 -9t9 -22q0 -12 -9 -21t-21 -9zM443 327q-12 0 -21.5 9t-9.5 21q0 13 9.5 22t21.5 9
q13 0 21.5 -9t8.5 -22t-8.5 -21.5t-21.5 -8.5zM115 262q-13 0 -21.5 8.5t-8.5 21.5q0 12 8.5 21t21.5 9q12 0 21.5 -9t9.5 -21t-9.5 -21t-21.5 -9zM443 262q-12 0 -21.5 9t-9.5 21t9.5 21t21.5 9q13 0 21.5 -9t8.5 -21q0 -13 -8.5 -21.5t-21.5 -8.5zM115 197
q-13 0 -21.5 8.5t-8.5 21.5q0 12 8.5 20.5t21.5 8.5q12 0 21.5 -8.5t9.5 -20.5t-9.5 -21t-21.5 -9zM246 197q-12 0 -21.5 9t-9.5 21t9.5 20.5t21.5 8.5q13 0 21.5 -8.5t8.5 -20.5q0 -13 -8.5 -21.5t-21.5 -8.5zM312 197q-13 0 -21.5 8.5t-8.5 21.5q0 12 8.5 20.5t21.5 8.5
q12 0 21.5 -8.5t9.5 -20.5t-9.5 -21t-21.5 -9zM378 197q-13 0 -22 8.5t-9 21.5q0 12 9 20.5t22 8.5q12 0 21 -8.5t9 -20.5t-9 -21t-21 -9zM443 197q-12 0 -21.5 9t-9.5 21t9.5 20.5t21.5 8.5q13 0 21.5 -8.5t8.5 -20.5q0 -13 -8.5 -21.5t-21.5 -8.5zM115 130q-13 0 -21.5 9
t-8.5 22t8.5 21.5t21.5 8.5q12 0 21.5 -9t9.5 -21q0 -13 -9.5 -22t-21.5 -9zM115 65q-13 0 -21.5 8.5t-8.5 21.5t8.5 21.5t21.5 8.5q12 0 21.5 -8.5t9.5 -21.5q0 -12 -9.5 -21t-21.5 -9zM246 65q-12 0 -21.5 9t-9.5 21q0 13 9.5 21.5t21.5 8.5q13 0 21.5 -8.5t8.5 -21.5
t-8.5 -21.5t-21.5 -8.5zM115 0q-13 0 -21.5 8.5t-8.5 21.5q0 12 9 21.5t21 9.5t21.5 -9.5t9.5 -21.5t-9.5 -21t-21.5 -9zM181 0q-12 0 -21 8.5t-9 21.5q0 12 9 21.5t21 9.5t21 -9.5t9 -21.5q0 -13 -8.5 -21.5t-21.5 -8.5zM246 0q-12 0 -21.5 9t-9.5 21t9.5 21.5t21.5 9.5
t21 -9.5t9 -21.5q0 -13 -8.5 -21.5t-21.5 -8.5z" />
    <glyph glyph-name="Cacute.loclPLK" horiz-adv-x="634" 
d="M341 715l77 161h84l-95 -161h-66zM378 -10q-151 0 -236.5 91.5t-85.5 241.5t85 242.5t235 92.5q60 0 110 -14.5t74 -32.5v-75q-80 55 -180 55q-116 0 -183 -72.5t-67 -193.5q0 -125 70.5 -196t184.5 -71q109 0 185 54v-76q-24 -17 -76.5 -31.5t-115.5 -14.5z" />
    <glyph glyph-name="Iacute_J.loclNLD" horiz-adv-x="711" 
d="M89 715l116 161h93l-139 -161h-70zM393 715l116 161h93l-139 -161h-70zM89 0v648h73v-648h-73zM430 -10q-79 0 -125 22v69q44 -25 114 -25q81 0 110.5 41.5t29.5 141.5v348h-169v61h242v-431q0 -116 -46.5 -171.5t-155.5 -55.5z" />
    <glyph glyph-name="Nacute.loclPLK" horiz-adv-x="708" 
d="M320 715l77 161h84l-95 -161h-66zM609 -10l-449 506v-496h-71v658h10l449 -507v497h71v-658h-10z" />
    <glyph glyph-name="Oacute.loclPLK" horiz-adv-x="750" 
d="M343 715l77 161h84l-95 -161h-66zM374 -10q-148 0 -233 94.5t-85 239.5q0 146 86 240t235 94t233 -93t84 -237q0 -147 -85 -242.5t-235 -95.5zM376 58q111 0 177.5 75t66.5 194q0 116 -67 190t-178 74q-108 0 -176.5 -74t-68.5 -191q0 -116 67.5 -192t178.5 -76z" />
    <glyph glyph-name="Sacute.loclPLK" horiz-adv-x="492" 
d="M233 715l77 161h84l-95 -161h-66zM235 -10q-95 0 -169 39v76q76 -50 167 -50q135 0 135 112q0 44 -30.5 73.5t-74 47.5t-87 38.5t-74 59.5t-30.5 97q0 81 52 128t143 47q88 0 149 -34v-75q-70 45 -145 45q-56 0 -90.5 -28t-34.5 -79q0 -36 22 -62t55 -39.5t71 -31.5
t71 -37t55 -56.5t22 -88.5q0 -91 -54.5 -136.5t-152.5 -45.5z" />
    <glyph glyph-name="Zacute.loclPLK" horiz-adv-x="590" 
d="M261 715l77 161h84l-95 -161h-66zM51 0v10l372 576h-355v62h470v-10l-371 -575h375v-63h-491z" />
    <glyph glyph-name="cacute.loclPLK" horiz-adv-x="444" 
d="M221 520l76 161h85l-95 -161h-66zM273 -9q-102 0 -166 60t-64 169q0 108 62.5 172.5t169.5 64.5q62 0 118 -24v-68q-51 31 -113 31q-75 0 -119.5 -46t-44.5 -126q0 -81 43 -126.5t121 -45.5q70 0 117 34v-67q-42 -28 -124 -28z" />
    <glyph glyph-name="iacute_j.loclNLD" horiz-adv-x="462" 
d="M53 520l115 161h93l-139 -161h-69zM281 520l115 161h93l-139 -161h-69zM87 0v391h-63v57h133v-448h-70zM232 -207q-42 0 -79 13v61q34 -15 69 -15q56 0 76 34t20 97v408h-63v57h133v-461q0 -93 -35 -143.5t-121 -50.5z" />
    <glyph glyph-name="i.loclTRK" horiz-adv-x="231" 
d="M121 564q-20 0 -33 13t-13 33t13 32.5t33 12.5q19 0 32 -12.5t13 -33.5q0 -20 -13 -32.5t-32 -12.5zM87 0v391h-63v57h133v-448h-70z" />
    <glyph glyph-name="nacute.loclPLK" horiz-adv-x="534" 
d="M230 520l76 161h85l-95 -161h-66zM74 0v448h64l1 -72q39 81 156 81q88 0 130 -48.5t42 -146.5v-262h-70v246q0 73 -24.5 111.5t-93.5 38.5q-135 0 -135 -180v-216h-70z" />
    <glyph glyph-name="oacute.loclPLK" horiz-adv-x="552" 
d="M222 520l76 161h85l-95 -161h-66zM275 -9q-106 0 -169 64t-63 168q0 103 63.5 168.5t170.5 65.5q105 0 168.5 -61t63.5 -168t-64.5 -172t-169.5 -65zM275 52q71 0 116 47.5t45 126.5q0 78 -45 124t-115 46q-73 0 -116.5 -49t-43.5 -124q0 -78 44 -124.5t115 -46.5z" />
    <glyph glyph-name="sacute.loclPLK" horiz-adv-x="377" 
d="M145 520l76 161h85l-95 -161h-66zM176 -9q-77 0 -122 26v62q54 -32 118 -32q44 0 69 18.5t25 55.5q0 32 -21 51.5t-51.5 30.5l-61 23t-51.5 39.5t-21 70.5q0 60 38 90.5t104 30.5t102 -22v-61q-46 27 -99 27q-79 0 -79 -61q0 -28 21.5 -45.5t52 -28t60.5 -23.5t51.5 -42
t21.5 -75q0 -67 -43 -101t-114 -34z" />
    <glyph glyph-name="germandbls.calt" horiz-adv-x="639" 
d="M402 394q77 2 133 -48.5t56 -147.5q0 -101 -59.5 -154.5t-163.5 -53.5q-61 0 -117 17v67q51 -20 112 -20q77 0 115 38t38 104q0 61 -36.5 101t-106.5 40q-61 0 -93 -23l-7 8l182 265h-293v-587h-73v648h471v-10l-172 -255q8 8 14 11z" />
    <glyph glyph-name="zacute.loclPLK" horiz-adv-x="469" 
d="M181 520l76 161h85l-95 -161h-66zM41 0v10l276 381h-259v57h370v-10l-276 -380h280v-58h-391z" />
    <glyph glyph-name="uni0414.loclBGR" horiz-adv-x="725" 
d="M624 63h66v-204h-67v142h-521v-142h-67v204h67l256 595h10zM363 520l-188 -457h373z" />
    <glyph glyph-name="uni041B.loclBGR" horiz-adv-x="637" 
d="M612 0h-79l-214 512l-217 -512h-76l288 658h10z" />
    <glyph glyph-name="uni0424.loclBGR" horiz-adv-x="797" 
d="M741 324q0 -134 -84 -214.5t-223 -87.5v-60h-71v60q-139 6 -223 87t-84 215t84 214.5t223 87.5v60h71v-60q139 -6 223 -87t84 -215zM130 326q0 -107 64 -170.5t170 -68.5v474q-103 -5 -168.5 -67t-65.5 -168zM433 87q103 5 168.5 67t65.5 168q0 107 -64 170.5t-170 68.5
v-474z" />
    <glyph glyph-name="uni0431.loclSRB" horiz-adv-x="552" 
d="M337 443q172 -56 172 -220q0 -105 -64.5 -168.5t-169.5 -63.5q-106 0 -169 63t-63 164q0 79 41 135t115 75q-55 18 -83.5 45.5t-28.5 72.5q0 58 43 87.5t114 29.5h140q50 0 78 9v-59q-23 -9 -89 -9h-126q-90 0 -90 -56q0 -33 25.5 -49t84.5 -34zM275 52q71 0 116 46
t45 123q0 76 -45 120.5t-115 44.5q-73 0 -116.5 -47.5t-43.5 -120.5q0 -76 44 -121t115 -45z" />
    <glyph glyph-name="uni0432.loclBGR" horiz-adv-x="522" 
d="M347 348q62 -11 97 -55.5t35 -110.5q0 -92 -58.5 -141.5t-150.5 -49.5q-104 0 -157 54.5t-53 171.5v213q0 122 49.5 184t154.5 62q87 0 134.5 -46t47.5 -131q0 -55 -27 -95.5t-72 -55.5zM260 618q-130 0 -130 -172v-77h96q147 0 147 132q0 57 -29.5 87t-83.5 30zM273 49
q63 0 98 33.5t35 94.5q0 73 -39.5 104.5t-125.5 31.5h-111v-93q0 -171 143 -171z" />
    <glyph glyph-name="uni0433.loclBGR" horiz-adv-x="399" 
d="M212 -9q-71 0 -114 31t-43 94q0 43 22.5 72t54.5 43t64.5 26t55 31t22.5 49q0 62 -82 62q-57 0 -115 -31v63q14 9 49.5 17.5t75.5 8.5q69 0 107 -30.5t38 -90.5q0 -43 -22.5 -71t-55 -40.5l-64.5 -24t-54.5 -32t-22.5 -53.5q0 -32 23.5 -49t64.5 -17q60 0 121 37v-64
q-48 -31 -125 -31z" />
    <glyph glyph-name="uni0434.loclBGR" horiz-adv-x="575" 
d="M269 -207q-85 0 -131 19v64q58 -22 129 -22q164 0 164 193v39q-20 -38 -62 -62t-104 -24q-102 0 -162 64t-60 164q0 101 59 165t162 64q61 0 105.5 -24.5t66.5 -63.5l1 79h64v-400q0 -126 -54 -190.5t-178 -64.5zM276 62q72 0 113.5 47t42.5 120q0 78 -44 122.5
t-115 44.5q-72 0 -114.5 -45.5t-42.5 -120.5q0 -76 43.5 -122t116.5 -46z" />
    <glyph glyph-name="uni0436.loclBGR" horiz-adv-x="701" 
d="M687 0h-92l-210 236v-236h-69v236l-210 -236h-92l221 240l-213 208h86l208 -204v419h69v-419l208 204h86l-213 -208z" />
    <glyph glyph-name="uni0437.loclBGR" horiz-adv-x="431" 
d="M279 146q112 -33 112 -167q0 -96 -58.5 -141t-155.5 -45q-99 0 -147 34v69q54 -42 145 -42q143 0 143 126q0 67 -36.5 98t-116.5 31h-44v57h34q144 0 144 122q0 108 -115 108q-84 0 -144 -41v66q63 36 158 36q34 0 63 -7.5t55 -24.5t41 -49t15 -77q0 -54 -26 -94.5
t-67 -58.5z" />
    <glyph glyph-name="uni0438.loclBGR" horiz-adv-x="541" 
d="M392 448h70v-448h-64l-1 69q-41 -78 -155 -78q-170 0 -170 194v263h70v-246q0 -73 24.5 -112t91.5 -39q134 0 134 180v217z" />
    <glyph glyph-name="uni0439.loclBGR" horiz-adv-x="541" 
d="M267 500q-76 0 -112.5 40.5t-36.5 106.5v11h61v-4q0 -51 23 -78.5t65 -27.5t65 27.5t23 78.5v4h61v-11q0 -66 -37 -106.5t-112 -40.5zM392 448h70v-448h-64l-1 69q-41 -78 -155 -78q-170 0 -170 194v263h70v-246q0 -73 24.5 -112t91.5 -39q134 0 134 180v217z" />
    <glyph glyph-name="uni045D.loclBGR" horiz-adv-x="541" 
d="M307 520h-69l-139 161h93zM392 448h70v-448h-64l-1 69q-41 -78 -155 -78q-170 0 -170 194v263h70v-246q0 -73 24.5 -112t91.5 -39q134 0 134 180v217z" />
    <glyph glyph-name="uni043A.loclBGR" horiz-adv-x="480" 
d="M79 0v663h70v-418l214 203h93l-227 -208l237 -240h-93l-224 233v-233h-70z" />
    <glyph glyph-name="uni043B.loclBGR" horiz-adv-x="485" 
d="M466 0h-78l-146 328l-147 -328h-75l217 457h10z" />
    <glyph glyph-name="uni043F.loclBGR" horiz-adv-x="544" 
d="M79 0v448h64l1 -72q39 81 156 81q88 0 130 -48.5t42 -146.5v-262h-70v246q0 73 -24.5 111.5t-93.5 38.5q-135 0 -135 -180v-216h-70z" />
    <glyph glyph-name="uni0442.loclBGR" horiz-adv-x="811" 
d="M79 0v448h64l1 -67q41 76 143 76q110 0 140 -87q41 87 153 87q159 0 159 -178v-279h-70v272q0 58 -22.5 91t-79.5 33q-123 0 -123 -177v-219h-70v272q0 124 -102 124q-123 0 -123 -177v-219h-70z" />
    <glyph glyph-name="uni0446.loclBGR" horiz-adv-x="572" 
d="M514 52q20 0 28 4v-177h-64v118h-7q-68 0 -77 66q-42 -72 -151 -72q-171 0 -171 194v263h70v-246q0 -73 25 -112t92 -39q133 0 133 180v217h70v-335q0 -33 11.5 -47t40.5 -14z" />
    <glyph glyph-name="uni0448.loclBGR" horiz-adv-x="803" 
d="M654 448h70v-448h-64l-1 63q-42 -72 -141 -72q-106 0 -138 83q-41 -83 -150 -83q-158 0 -158 177v280h70v-273q0 -124 100 -124q121 0 121 178v219h70v-273q0 -124 101 -124q120 0 120 178v219z" />
    <glyph glyph-name="uni0449.loclBGR" horiz-adv-x="834" 
d="M776 52q20 0 28 4v-177h-64v118h-7q-65 0 -77 62q-41 -68 -138 -68q-106 0 -138 83q-41 -83 -150 -83q-158 0 -158 177v280h70v-273q0 -124 100 -124q121 0 121 178v219h70v-273q0 -124 101 -124q120 0 120 178v219h70v-335q0 -33 11.5 -47t40.5 -14z" />
    <glyph glyph-name="uni044C.loclBGR" horiz-adv-x="507" 
d="M281 361q84 0 133 -49.5t49 -133.5q0 -86 -54.5 -136.5t-146.5 -50.5q-93 0 -144 50.5t-51 155.5v251h70v-154q49 67 144 67zM263 47q58 0 93.5 35.5t35.5 94.5q0 60 -35.5 94.5t-92.5 34.5q-60 0 -94 -37t-34 -91q0 -60 34.5 -95.5t92.5 -35.5z" />
    <glyph glyph-name="uni044A.loclBGR" horiz-adv-x="603" 
d="M376 361q84 0 133 -49.5t49 -133.5q0 -86 -54.5 -136.5t-146.5 -50.5q-93 0 -144 50.5t-51 155.5v194h-142v57h212v-154q49 67 144 67zM358 47q59 0 94 35.5t35 94.5q0 60 -35.5 94.5t-92.5 34.5q-60 0 -94 -37t-34 -91q0 -60 34.5 -95.5t92.5 -35.5z" />
    <glyph glyph-name="xi.ss02" horiz-adv-x="420" 
d="M273 56q73 -19 101 -40t28 -62q0 -43 -38 -95h-66q32 43 32 78q0 24 -18.5 37t-71.5 24q-94 19 -141 60.5t-47 125.5q0 60 37 105t101 58q-41 15 -67 50t-26 81q0 45 21.5 79.5t57.5 48.5h-126v57h340v-57h-68q-153 0 -153 -116q0 -54 36.5 -87t102.5 -33h44v-57h-52
q-86 0 -130.5 -32t-44.5 -90q0 -59 35 -87.5t113 -47.5z" />
    <glyph glyph-name="zero.tf" 
d="M297 -10q-117 0 -180.5 95t-63.5 240q0 144 63.5 238.5t180.5 94.5t180.5 -94.5t63.5 -238.5q0 -145 -64 -240t-180 -95zM297 56q81 0 125 72.5t44 196.5q0 123 -43.5 196t-125.5 73q-81 0 -125 -73t-44 -196t44.5 -196t124.5 -73z" />
    <glyph glyph-name="one.tf" 
d="M302 0v566l-151 -69v65l214 96h8v-658h-71z" />
    <glyph glyph-name="two.tf" 
d="M85 0v8l218 263q56 67 79.5 111t23.5 90q0 55 -32.5 88.5t-98.5 33.5q-79 0 -158 -60v73q67 51 166 51q97 0 147 -49.5t50 -136.5q0 -56 -25 -105.5t-93 -129.5l-148 -174h277v-63h-406z" />
    <glyph glyph-name="three.tf" 
d="M323 387q79 0 128 -51.5t49 -139.5q0 -101 -63 -153.5t-170 -52.5q-54 0 -100 11.5t-67 27.5v75q61 -48 161 -48q78 0 121 35.5t43 105.5q0 69 -38.5 105t-105.5 36q-62 0 -103 -31l-8 8l201 271h-263v62h382v-8l-188 -255q7 2 21 2z" />
    <glyph glyph-name="four.tf" 
d="M366 0v126h-337v8l398 524h7v-475h91v-57h-91v-126h-68zM139 183h227v301z" />
    <glyph glyph-name="five.tf" 
d="M268 -10q-110 0 -167 39v75q58 -48 160 -48q79 0 122 39t43 111q0 68 -39 105t-108 37q-90 0 -145 -63l-9 3l50 360h289v-62h-229l-28 -202q44 27 100 27q87 0 140.5 -51.5t53.5 -150.5q0 -108 -60.5 -163.5t-172.5 -55.5z" />
    <glyph glyph-name="six.tf" 
d="M314 420q89 0 147.5 -54.5t58.5 -154.5q0 -97 -59 -159t-164 -62t-165 63.5t-60 180.5q0 120 65.5 236t167.5 178h111q-81 -46 -152.5 -126t-97.5 -167q45 65 148 65zM297 54q68 0 108.5 42t40.5 110t-41 109.5t-108 41.5q-66 0 -108 -42.5t-42 -108.5q0 -67 41 -109.5
t109 -42.5z" />
    <glyph glyph-name="seven.tf" 
d="M193 0q12 168 71 325t145 260h-331v63h458v-8q-111 -107 -182 -284t-85 -356h-76z" />
    <glyph glyph-name="eight.tf" 
d="M297 -10q-97 0 -152.5 51.5t-55.5 134.5q0 61 29.5 104.5t74.5 58.5q-36 13 -61.5 49.5t-25.5 93.5q0 80 52 128t139 48q85 0 137.5 -47.5t52.5 -128.5q0 -58 -26 -93.5t-63 -48.5q46 -14 76 -56t30 -108q0 -82 -54.5 -134t-152.5 -52zM297 366q54 0 85 30t31 84
q0 51 -31.5 82.5t-84.5 31.5t-85 -32t-32 -82q0 -54 31 -84t86 -30zM297 55q61 0 96.5 35t35.5 91q0 57 -35.5 90.5t-96.5 33.5q-60 0 -96.5 -33.5t-36.5 -90.5t35.5 -91.5t97.5 -34.5z" />
    <glyph glyph-name="nine.tf" 
d="M295 658q107 0 165.5 -62.5t58.5 -180.5q0 -117 -61.5 -226t-170.5 -189h-105q90 65 157 142.5t92 152.5q-48 -63 -147 -63q-94 0 -153 56t-59 151q0 96 59 157.5t164 61.5zM295 296q68 0 107.5 40t39.5 108t-40 109t-106 41q-69 0 -109 -40.5t-40 -110.5q0 -69 41 -108
t107 -39z" />
    <glyph glyph-name="periodcentered.case" horiz-adv-x="251" 
d="M129 281q-22 0 -35.5 14t-13.5 36q0 21 14.5 35t34.5 14q21 0 34.5 -14t13.5 -36t-13.5 -35.5t-34.5 -13.5z" />
    <glyph glyph-name="bullet.case" horiz-adv-x="450" 
d="M237 228q-45 0 -74 29t-29 74q0 43 30 72t73 29q44 0 72.5 -29t28.5 -73q0 -45 -29 -73.5t-72 -28.5z" />
    <glyph glyph-name="exclamdown.case" horiz-adv-x="274" 
d="M137 657q21 0 34.5 -13.5t13.5 -35.5t-13.5 -36t-34.5 -14q-20 0 -34 14t-14 35q0 22 13 36t35 14zM103 472h69l3 -472h-75z" />
    <glyph glyph-name="questiondown.case" horiz-adv-x="444" 
d="M254 559q-20 0 -34 14t-14 36t14 35.5t35 13.5t34.5 -14t13.5 -35q0 -22 -14 -36t-35 -14zM252 -9q-93 0 -149 47t-56 134q0 83 50 128t123 51v122h69v-166q-75 -2 -122 -34t-47 -99q0 -59 38.5 -89.5t98.5 -30.5q47 0 89 17t60 35v-73q-20 -15 -61 -28.5t-93 -13.5z" />
    <glyph glyph-name="numbersign.tf" 
d="M68 0l45 177h-91l15 56h89l48 182h-91l14 56h90l45 177h68l-44 -177h156l45 177h68l-44 -177h91l-15 -56h-90l-47 -182h91l-15 -56h-90l-45 -177h-68l45 177h-157l-45 -177h-68zM195 233h156l48 182h-157z" />
    <glyph glyph-name="braceleft.case" horiz-adv-x="376" 
d="M267 -95q-87 0 -132 43t-45 116q0 52 33 114.5t33 91.5q0 71 -76 78v15q35 2 55.5 20.5t20.5 51.5q0 29 -33 85t-33 109q0 74 45 117.5t132 43.5q56 0 95 -17v-59q-35 20 -87 20q-56 0 -86 -29t-30 -82q0 -38 33.5 -94t33.5 -90q0 -38 -20 -58t-45 -25q24 -6 44.5 -28.5
t20.5 -61.5q0 -35 -33.5 -96t-33.5 -100q0 -52 31 -80.5t85 -28.5q48 0 87 21v-59q-41 -18 -95 -18z" />
    <glyph glyph-name="braceright.case" horiz-adv-x="376" 
d="M117 -95q-54 0 -95 18v59q39 -21 87 -21q54 0 85 28.5t31 80.5q0 39 -33.5 100.5t-33.5 95.5q0 39 20.5 61.5t44.5 28.5q-25 5 -45 25t-20 58q0 33 33.5 89.5t33.5 94.5q0 53 -30 82t-86 29q-52 0 -87 -20v59q39 17 95 17q87 0 132 -43.5t45 -117.5q0 -41 -16.5 -76
t-33 -63.5t-16.5 -54.5q0 -33 20.5 -51.5t55.5 -20.5v-15q-76 -7 -76 -78q0 -26 16.5 -57.5t33 -69.5t16.5 -79q0 -73 -45 -116t-132 -43z" />
    <glyph glyph-name="bracketleft.case" horiz-adv-x="295" 
d="M89 -95v846h201v-60h-131v-725h131v-61h-201z" />
    <glyph glyph-name="bracketright.case" horiz-adv-x="311" 
d="M22 -95v61h131v725h-131v60h201v-846h-201z" />
    <glyph glyph-name="parenleft.case" horiz-adv-x="312" 
d="M246 -95q-190 157 -190 421t192 425h90q-98 -82 -152.5 -183.5t-54.5 -243.5q0 -122 47.5 -224t159.5 -195h-92z" />
    <glyph glyph-name="parenright.case" horiz-adv-x="308" 
d="M-30 -95q111 93 158.5 195t47.5 224q0 142 -54.5 244t-151.5 183h90q192 -161 192 -425t-190 -421h-92z" />
    <glyph glyph-name="emdash.case" horiz-adv-x="786" 
d="M43 301v59h700v-59h-700z" />
    <glyph glyph-name="endash.case" horiz-adv-x="470" 
d="M43 301v59h384v-59h-384z" />
    <glyph glyph-name="hyphen.case" horiz-adv-x="269" 
d="M43 302v57h183v-57h-183z" />
    <glyph glyph-name="uni00AD.case" horiz-adv-x="269" 
d="M43 302v57h183v-57h-183z" />
    <glyph glyph-name="guillemotleft.case" horiz-adv-x="535" 
d="M187 173l-140 157l140 157h82l-144 -157l144 -157h-82zM379 173l-140 157l140 157h82l-144 -157l144 -157h-82z" />
    <glyph glyph-name="guillemotright.case" horiz-adv-x="523" 
d="M74 173l143 157l-143 157h82l140 -157l-140 -157h-82zM266 173l143 157l-143 157h82l140 -157l-140 -157h-82z" />
    <glyph glyph-name="guilsinglleft.case" horiz-adv-x="335" 
d="M187 173l-140 157l140 157h82l-144 -157l144 -157h-82z" />
    <glyph glyph-name="guilsinglright.case" horiz-adv-x="331" 
d="M74 173l143 157l-143 157h82l140 -157l-140 -157h-82z" />
    <glyph glyph-name="cent.ss01" horiz-adv-x="474" 
d="M267 0v92q-94 6 -150.5 65.5t-56.5 162.5q0 101 55.5 164.5t151.5 70.5v93h59v-93q63 -4 99 -23v-67q-52 33 -126 33q-79 0 -122.5 -47.5t-43.5 -127.5t42 -126t126 -47q79 0 128 35v-67q-35 -23 -103 -26v-92h-59z" />
    <glyph glyph-name="dollar.ss01" horiz-adv-x="509" 
d="M229 -90v92q-107 5 -165 37v69q33 -22 85.5 -34.5t99.5 -12.5q138 0 138 108q0 53 -32 78.5t-100 47.5q-40 13 -63 22t-52 25t-44 33.5t-25.5 44t-10.5 60.5q0 74 44 116t125 50v102h59v-102q78 -4 132 -33v-71q-74 47 -159 47q-59 0 -94 -27t-35 -78q0 -48 31 -72
t101 -46q38 -13 56.5 -20t50.5 -24.5t47.5 -35t28.5 -48t13 -67.5q0 -80 -47.5 -121t-124.5 -48v-92h-59z" />
    <glyph glyph-name="cent.tf.ss01" 
d="M318 0v92q-94 6 -150.5 65.5t-56.5 162.5q0 101 55.5 164.5t151.5 70.5v93h59v-93q63 -4 99 -23v-67q-52 33 -126 33q-79 0 -122.5 -47.5t-43.5 -127.5t42 -126t126 -47q79 0 128 35v-67q-35 -23 -103 -26v-92h-59z" />
    <glyph glyph-name="dollar.tf.ss01" 
d="M273 -90v92q-107 5 -165 37v69q33 -22 85.5 -34.5t99.5 -12.5q138 0 138 108q0 53 -32 78.5t-100 47.5q-40 13 -63 22t-52 25t-44 33.5t-25.5 44t-10.5 60.5q0 74 44 116t125 50v102h59v-102q78 -4 132 -33v-71q-74 47 -159 47q-59 0 -94 -27t-35 -78q0 -48 31 -72
t101 -46q38 -13 56.5 -20t50.5 -24.5t47.5 -35t28.5 -48t13 -67.5q0 -80 -47.5 -121t-124.5 -48v-92h-59z" />
    <glyph glyph-name="cent.tf" 
d="M321 0v90q-94 5 -152 65t-58 165q0 103 56.5 167t153.5 69v92h44v-92q68 -2 111 -24v-67q-52 30 -111 32v-347q71 4 115 35v-67q-39 -24 -115 -27v-91h-44zM321 151v347q-60 -6 -98.5 -53.5t-38.5 -121.5q0 -72 36 -119.5t101 -52.5z" />
    <glyph glyph-name="dollar.tf" 
d="M280 -90v91q-110 3 -172 38v69q69 -44 172 -47v240q-43 14 -69 26t-53.5 32.5t-40.5 50.5t-13 71q0 75 47 117t129 49v101h44v-101q82 -4 140 -34v-71q-66 42 -140 46v-227q31 -11 51 -19.5t47 -24.5t43 -34t27.5 -46.5t11.5 -62.5q0 -86 -50 -126.5t-130 -46.5v-91h-44z
M280 373v215q-47 -5 -75.5 -31.5t-28.5 -71.5q0 -44 26.5 -68.5t77.5 -43.5zM324 62q51 5 79 33t28 74t-27.5 73t-79.5 46v-226z" />
    <glyph glyph-name="Euro.tf" 
d="M400 -10q-126 0 -203.5 63t-96.5 178h-85v57h79q-2 16 -2 35q0 18 2 34h-79v57h86q20 111 96 177.5t204 66.5q104 0 165 -36v-71q-68 42 -161 42q-95 0 -152.5 -47.5t-74.5 -131.5h228v-57h-236q-2 -10 -2 -32q0 -30 1 -37h237v-57h-230q17 -86 79 -130.5t151 -44.5
q97 0 169 40v-71q-25 -14 -73 -24.5t-102 -10.5z" />
    <glyph glyph-name="florin.tf" 
d="M111 -207q-42 0 -66 10v62q30 -10 59 -10q47 0 66 30t34 114l50 288h-103v61h114l21 118q17 99 55 145.5t116 46.5q44 0 66 -11v-63q-23 10 -56 10q-48 0 -71.5 -31.5t-37.5 -110.5l-18 -104h137v-61h-149l-52 -302q-9 -48 -18 -78t-27 -59t-47.5 -42t-72.5 -13z" />
    <glyph glyph-name="uni20B4.tf" 
d="M508 367h-96q-17 -14 -39 -27.5l-48.5 -29t-40.5 -24.5h224v-54h-289q-26 -32 -26 -71q0 -53 36 -79.5t99 -26.5q91 0 167 50v-76q-76 -39 -180 -39q-89 0 -142.5 40t-53.5 120q0 44 20 82h-49v54h93q13 11 30 23t28 19l34 21l30 18h-215v55h291q34 34 34 77q0 45 -33 70
t-92 25q-79 0 -153 -45v75q66 34 162 34q93 0 141.5 -39.5t48.5 -109.5q0 -47 -25 -87h44v-55z" />
    <glyph glyph-name="uni20BD.tf" 
d="M294 231h-113v-69h135v-62h-135v-100h-73v100h-85v62h85v69h-85v62h85v355h192q45 0 80.5 -5t70 -18.5t57.5 -36t37 -60t14 -87.5q0 -53 -16.5 -92t-41.5 -61t-62 -35.5t-70.5 -17.5t-74.5 -4zM484 440q0 83 -51.5 114.5t-141.5 31.5h-110v-293h110q193 0 193 147z" />
    <glyph glyph-name="sterling.tf" 
d="M103 0v8q125 134 125 232q0 28 -11 48h-104v61h72q-38 55 -38 117q0 87 54.5 139.5t151.5 52.5q87 0 142 -39v-73q-55 47 -134 47q-67 0 -103 -35.5t-36 -97.5q0 -54 45 -111h172v-61h-148q10 -23 10 -48q0 -91 -77 -177h286v-63h-407z" />
    <glyph glyph-name="yen.tf" 
d="M260 0v192h-143v57h146l-36 69h-124v57h92l-140 273h80l163 -334l164 334h78l-142 -273h94v-57h-127l-36 -69h149v-57h-146v-192h-72z" />
    <glyph glyph-name="at.case" horiz-adv-x="997" 
d="M512 -105q-205 0 -330.5 117.5t-125.5 322.5q0 206 130 325.5t329 119.5q117 0 212.5 -44t154.5 -134.5t59 -212.5q0 -125 -57 -194.5t-152 -69.5q-50 0 -80 21t-38 53q-20 -36 -59.5 -55t-84.5 -19q-78 0 -125 52t-47 140q0 90 50.5 152.5t139.5 62.5q103 0 139 -84
l9 72h58l-21 -186q-8 -66 -8 -85q0 -68 73 -68q63 0 99.5 52t36.5 141q0 86 -30.5 154.5t-82 109.5t-114.5 62.5t-133 21.5q-169 0 -280 -106t-111 -284t109 -277.5t282 -99.5q94 0 178 28t131 56v-66q-15 -10 -52 -26t-111.5 -34t-147.5 -18zM479 183q62 0 96.5 44.5
t34.5 114.5q0 59 -28.5 96.5t-84.5 37.5q-62 0 -98 -45t-36 -115q0 -63 31 -98t85 -35z" />
    <glyph glyph-name="uni0308.case" horiz-adv-x="0" 
d="M-347 741q-23 0 -37.5 14.5t-14.5 37.5t14.5 37.5t37.5 14.5q22 0 36.5 -14.5t14.5 -37.5t-14.5 -37.5t-36.5 -14.5zM-159 741q-22 0 -36.5 14.5t-14.5 37.5t14.5 37.5t36.5 14.5q23 0 37.5 -14.5t14.5 -37.5t-14.5 -37.5t-37.5 -14.5z" />
    <glyph glyph-name="uni0307.case" horiz-adv-x="0" 
d="M-261 742q-23 0 -37 14.5t-14 37.5q0 22 14.5 36t36.5 14q21 0 35.5 -14.5t14.5 -36.5t-14.5 -36.5t-35.5 -14.5z" />
    <glyph glyph-name="gravecomb.case" horiz-adv-x="0" 
d="M-221 715l-139 161h93l115 -161h-69z" />
    <glyph glyph-name="acutecomb.case" horiz-adv-x="0" 
d="M-355 715l116 161h93l-139 -161h-70z" />
    <glyph glyph-name="uni030B.case" horiz-adv-x="0" 
d="M-452 715l130 161h93l-153 -161h-70zM-266 715l130 161h93l-153 -161h-70z" />
    <glyph glyph-name="uni0302.case" horiz-adv-x="0" 
d="M-417 715l165 170l166 -170h-78l-88 95l-87 -95h-78z" />
    <glyph glyph-name="uni030C.case" horiz-adv-x="0" 
d="M-252 706l-165 170h78l87 -95l88 95h78z" />
    <glyph glyph-name="uni0306.case" horiz-adv-x="0" 
d="M-251 706q-165 0 -165 162v8h57q0 -57 25.5 -83.5t82.5 -26.5t82.5 26.5t25.5 83.5h57v-8q0 -162 -165 -162z" />
    <glyph glyph-name="uni030A.case" horiz-adv-x="0" 
d="M-257 690q-45 0 -75 29.5t-30 73.5t30 73.5t75 29.5q46 0 75.5 -29.5t29.5 -73.5t-29.5 -73.5t-75.5 -29.5zM-257 731q26 0 43 17t17 45q0 27 -17 44.5t-43 17.5t-43 -17t-17 -45t17 -45t43 -17z" />
    <glyph glyph-name="tildecomb.case" horiz-adv-x="0" 
d="M-176 740q-36 0 -81 29t-66 29q-27 0 -37.5 -18t-10.5 -35h-48q0 45 24.5 75.5t68.5 30.5q38 0 83.5 -29.5t64.5 -29.5q26 0 36 17t10 37h48q0 -44 -24 -75t-68 -31z" />
    <glyph glyph-name="uni0304.case" horiz-adv-x="0" 
d="M-397 765v57h287v-57h-287z" />
    <glyph glyph-name="acutecomb.loclPLK" horiz-adv-x="0" 
d="M-363 520l76 161h85l-95 -161h-66z" />
    <glyph glyph-name="acutecomb.case.loclPLK" horiz-adv-x="0" 
d="M-293 715l77 161h84l-95 -161h-66z" />
    <glyph glyph-name="acute.case" horiz-adv-x="514" 
d="M172 715l116 161h93l-139 -161h-70z" />
    <glyph glyph-name="breve.case" horiz-adv-x="502" 
d="M259 706q-165 0 -165 162v8h57q0 -57 25.5 -83.5t82.5 -26.5t82.5 26.5t25.5 83.5h57v-8q0 -162 -165 -162z" />
    <glyph glyph-name="caron.case" horiz-adv-x="502" 
d="M259 706l-165 170h78l87 -95l88 95h78z" />
    <glyph glyph-name="circumflex.case" horiz-adv-x="502" 
d="M94 715l165 170l166 -170h-78l-88 95l-87 -95h-78z" />
    <glyph glyph-name="dieresis.case" horiz-adv-x="506" 
d="M169 741q-23 0 -37.5 14.5t-14.5 37.5t14.5 37.5t37.5 14.5q22 0 36.5 -14.5t14.5 -37.5t-14.5 -37.5t-36.5 -14.5zM357 741q-22 0 -36.5 14.5t-14.5 37.5t14.5 37.5t36.5 14.5q23 0 37.5 -14.5t14.5 -37.5t-14.5 -37.5t-37.5 -14.5z" />
    <glyph glyph-name="dotaccent.case" horiz-adv-x="523" 
d="M281 742q-23 0 -37 14.5t-14 37.5q0 22 14.5 36t36.5 14q21 0 35.5 -14.5t14.5 -36.5t-14.5 -36.5t-35.5 -14.5z" />
    <glyph glyph-name="grave.case" horiz-adv-x="513" 
d="M306 715l-139 161h93l115 -161h-69z" />
    <glyph glyph-name="hungarumlaut.case" horiz-adv-x="496" 
d="M47 715l130 161h93l-153 -161h-70zM233 715l130 161h93l-153 -161h-70z" />
    <glyph glyph-name="macron.case" horiz-adv-x="505" 
d="M118 765v57h287v-57h-287z" />
    <glyph glyph-name="ring.case" horiz-adv-x="512" 
d="M269 690q-45 0 -75 29.5t-30 73.5t30 73.5t75 29.5q46 0 75.5 -29.5t29.5 -73.5t-29.5 -73.5t-75.5 -29.5zM269 731q26 0 43 17t17 45q0 27 -17 44.5t-43 17.5t-43 -17t-17 -45t17 -45t43 -17z" />
    <glyph glyph-name="tilde.case" horiz-adv-x="501" 
d="M333 740q-36 0 -81 29t-66 29q-27 0 -37.5 -18t-10.5 -35h-48q0 45 24.5 75.5t68.5 30.5q38 0 83.5 -29.5t64.5 -29.5q26 0 36 17t10 37h48q0 -44 -24 -75t-68 -31z" />
    <glyph glyph-name="acute.loclPLK" horiz-adv-x="582" 
d="M169 520l76 161h85l-95 -161h-66z" />
    <glyph glyph-name="acute.case.loclPLK" horiz-adv-x="582" 
d="M245 715l77 161h84l-95 -161h-66z" />
    <glyph glyph-name="tonos.case" horiz-adv-x="558" 
d="M159 487l69 161h79l-88 -161h-60z" />
    <glyph glyph-name="brevecombcy.case" horiz-adv-x="0" 
d="M-251 696q-84 0 -124.5 44t-40.5 118v8h64q0 -57 26.5 -86.5t74.5 -29.5t74.5 29.5t26.5 86.5h64v-8q0 -74 -41 -118t-124 -44z" />
    <glyph glyph-name="brevecombcy" horiz-adv-x="0" 
d="M-251 500q-76 0 -112.5 40.5t-36.5 106.5v11h61v-4q0 -51 23 -78.5t65 -27.5t65 27.5t23 78.5v4h61v-11q0 -66 -37 -106.5t-112 -40.5z" />
    <glyph glyph-name="brevecy" horiz-adv-x="502" 
d="M251 500q-76 0 -112.5 40.5t-36.5 106.5v11h61v-4q0 -51 23 -78.5t65 -27.5t65 27.5t23 78.5v4h61v-11q0 -66 -37 -106.5t-112 -40.5z" />
    <glyph glyph-name="brevecy.case" horiz-adv-x="502" 
d="M251 696q-84 0 -124.5 44t-40.5 118v8h64q0 -57 26.5 -86.5t74.5 -29.5t74.5 29.5t26.5 86.5h64v-8q0 -74 -41 -118t-124 -44z" />
    </font>
</defs>
</svg>
