<svg width="63" height="63" viewBox="0 0 63 63" fill="none" xmlns="http://www.w3.org/2000/svg">
<g id="icon/hamburguer">
<path id="Vector" d="M10.4782 47.25C9.73598 47.25 9.11428 46.998 8.61307 46.494C8.11012 45.9917 7.85864 45.3687 7.85864 44.625C7.85864 43.8813 8.11012 43.2583 8.61307 42.756C9.11428 42.252 9.73598 42 10.4782 42H52.3909C53.1331 42 53.7548 42.252 54.256 42.756C54.7589 43.2583 55.0104 43.8813 55.0104 44.625C55.0104 45.3687 54.7589 45.9917 54.256 46.494C53.7548 46.998 53.1331 47.25 52.3909 47.25H10.4782ZM10.4782 34.125C9.73598 34.125 9.11428 33.873 8.61307 33.369C8.11012 32.8667 7.85864 32.2437 7.85864 31.5C7.85864 30.7563 8.11012 30.1324 8.61307 29.6284C9.11428 29.1261 9.73598 28.875 10.4782 28.875H52.3909C53.1331 28.875 53.7548 29.1261 54.256 29.6284C54.7589 30.1324 55.0104 30.7563 55.0104 31.5C55.0104 32.2437 54.7589 32.8667 54.256 33.369C53.7548 33.873 53.1331 34.125 52.3909 34.125H10.4782ZM10.4782 21C9.73598 21 9.11428 20.7489 8.61307 20.2466C8.11012 19.7426 7.85864 19.1187 7.85864 18.375C7.85864 17.6313 8.11012 17.0074 8.61307 16.5034C9.11428 16.0011 9.73598 15.75 10.4782 15.75H52.3909C53.1331 15.75 53.7548 16.0011 54.256 16.5034C54.7589 17.0074 55.0104 17.6313 55.0104 18.375C55.0104 19.1187 54.7589 19.7426 54.256 20.2466C53.7548 20.7489 53.1331 21 52.3909 21H10.4782Z" fill="black"/>
</g>
</svg>
