<svg width="478" height="181" viewBox="0 0 478 181" fill="none" xmlns="http://www.w3.org/2000/svg">
<g clip-path="url(#clip0_11410_1638)">
<path d="M3.35851 86.4104C4.01904 40.9076 154.654 1.53923 284.476 3.43799C414.298 5.33675 475.335 45.2219 474.63 93.2976C473.936 141.384 411.779 179.461 281.946 177.562C152.112 175.663 2.69798 131.902 3.35851 86.4104Z" fill="#4B69C8" stroke="white" stroke-width="6.74536" stroke-miterlimit="10"/>
<g style="mix-blend-mode:overlay" opacity="0.39">
<path d="M474.865 99.5557L2.4743 92.646" stroke="white" stroke-width="5.62114" stroke-miterlimit="10"/>
</g>
<g style="mix-blend-mode:overlay" opacity="0.39">
<path d="M474.742 87.3205L2.35101 80.4108" stroke="white" stroke-width="5.62114" stroke-miterlimit="10"/>
</g>
<g style="mix-blend-mode:multiply" opacity="0.14">
<path d="M460.3 78.4783C459.606 126.565 397.449 164.642 267.616 162.743C165.681 161.248 51.6894 133.958 7.72491 100.275C33.1161 140.418 165.424 175.854 281.957 177.562C411.79 179.461 473.947 141.385 474.641 93.2976C474.899 75.2538 466.469 58.3672 448.982 44.2108C456.74 54.7944 460.479 66.378 460.3 78.4896V78.4783Z" fill="#2C8EFF"/>
</g>
<g style="mix-blend-mode:overlay" opacity="0.25">
<path d="M11.3298 105.162C11.0947 103.825 10.9716 102.477 10.994 101.129C11.6545 55.6258 162.289 16.2574 292.111 18.1562C390.295 19.5943 449.127 42.7502 471.663 74.7594C458.016 35.3461 397.169 5.08957 284.476 3.43799C154.654 1.53923 4.01924 40.9076 3.3587 86.4104C3.26914 92.7246 6.07919 99.0163 11.3187 105.162H11.3298Z" fill="white"/>
</g>
<g clip-path="url(#clip1_11410_1638)">
<path fill-rule="evenodd" clip-rule="evenodd" d="M250.617 43.3727C250.669 43.5713 250.768 43.9684 250.826 44.4589C251.081 48.3833 251.411 52.1384 251.208 56.2322C250.634 56.7052 249.909 56.9155 249.178 56.7052C247.67 56.3899 247.885 54.5853 247.827 53.3414C247.774 49.7207 247.879 46.1525 248.453 42.742C248.552 42.3858 248.819 41.901 249.288 41.7901C250.095 41.9127 250.402 42.6369 250.623 43.3785M292.37 45.0955C293.089 45.0488 295.079 45.1422 296.024 44.3596C296.129 43.2033 295.084 42.1522 294.046 41.6791C290.862 41.4689 287.834 42.1522 284.812 42.5201C284.527 42.561 283.976 42.6252 283.976 43.0457C284.237 44.4064 285.595 44.675 286.633 44.932L286.581 45.0896L285.751 47.6358H285.542L285.142 47.6767C285.055 47.6884 284.962 47.7059 284.87 47.7351C284.527 47.8461 284.11 48.0213 284.237 48.4534C285.229 50.4507 283.245 51.8055 283.46 53.8086C283.599 55.1051 284.278 56.4541 285.426 57.114C285.595 57.1958 285.844 57.2834 286.18 57.3243C289.214 57.5929 291.697 55.9811 293.988 54.1765C294.249 53.5984 293.837 52.8626 293.466 52.3895C291.279 51.9165 289.191 52.9151 287.004 53.0728L286.83 53.0903C287.056 52.5297 287.468 51.3033 287.926 49.9017C288.205 49.8608 288.762 49.8375 289.208 49.8725C289.655 49.89 290.131 49.9309 290.398 49.9309C291.453 49.9309 292.521 50.0185 293.292 49.4462C293.42 49.3411 293.449 49.2009 293.46 49.1192C293.489 48.7513 293.599 48.0388 293.321 47.6183C292.016 47.1453 290.403 47.3555 288.988 47.3555H288.785L289.458 45.2006L292.376 45.0955H292.37ZM309.157 43.2968C310.427 44.9028 311.013 46.8942 310.503 48.979C309.783 52.3954 306.668 55.5372 303.385 56.6935C303.385 56.6935 302.109 57.1607 300.543 56.8863C299.858 58.5565 299.325 60.1157 298.913 61.4414C298.159 64.0577 297.515 66.7323 297.149 69.5121C295.955 69.6698 294.748 68.4668 294.232 67.3572C294.133 67.1295 294.081 66.8842 294.064 66.6272C293.959 65.7921 294.11 64.8402 294.209 64.3497C294.539 62.1714 295.102 60.104 295.711 58.0542C296.123 56.7928 296.627 55.5898 297.161 54.4627C297.08 54.3517 296.981 54.1941 296.888 53.9955C296.656 53.5283 296.453 52.9618 296.372 52.4479C295.868 48.5702 297.677 45.3641 299.94 42.5142C300.102 42.3274 300.259 42.158 300.398 42.0062C300.804 41.6207 301.198 41.0601 301.796 41.101C302.155 44.4297 298.942 46.5788 298.576 49.7849C298.536 50.2463 298.536 51.0055 298.849 51.3675C299.98 49.5046 301.117 48.0096 301.929 47.0168C301.952 46.9876 301.976 46.9584 302.005 46.9292C303.379 45.3057 304.882 43.8983 306.599 42.9055C306.837 42.777 307.301 42.5551 307.643 42.5493C308.095 42.5551 308.513 42.7303 308.867 43.0106C308.936 43.0749 309.047 43.1741 309.151 43.2968M308.559 47.0752C308.559 46.6372 308.484 46.2635 308.432 46.0591C308.339 45.7846 308.24 45.4576 307.973 45.405C307.881 45.3816 307.782 45.44 307.712 45.4867C307.446 45.7437 307.19 46.0065 306.947 46.2693C306.918 46.2985 306.895 46.3277 306.871 46.3569C306.837 46.3919 306.813 46.427 306.779 46.462C305.595 47.8052 304.545 49.2593 303.629 50.7543C303.252 51.4026 302.886 52.045 302.521 52.6874C302.44 52.8334 302.364 52.9852 302.289 53.1254C303.896 53.1254 305.352 52.337 306.593 51.3383C307.863 50.1996 308.542 48.7396 308.559 47.0694V47.0752ZM258.337 30.6709C258.819 31.249 258.894 31.9615 258.743 32.7616C258.68 33.0886 258.54 33.5908 258.25 34.1164C257.322 35.6874 256 36.8846 254.55 37.854C253.668 38.4321 252.827 38.8526 251.841 39.1621C250.431 39.5884 248.865 39.3198 247.566 38.9052C247.357 39.1621 247.044 40.2717 246.365 40.2133C245.994 40.2133 245.791 40.0498 245.559 39.5651C245.489 39.3899 245.431 39.238 245.396 39.1037C245.338 38.8643 245.315 38.619 245.303 38.4263C245.303 38.0759 245.315 37.7138 245.315 37.5912C244.352 36.6218 244.056 35.2435 244.317 33.9646C244.329 33.8945 244.358 33.766 244.41 33.5908C244.445 33.4741 244.486 33.3514 244.532 33.2346C244.544 33.2113 244.561 33.1879 244.573 33.1645C245.008 32.1601 246.139 30.4548 249.085 28.9715C249.393 28.8255 249.927 28.5919 250.53 28.4284C251.29 28.2356 252.264 28.0721 253.511 28.2006L253.575 28.2123C254.091 28.2765 254.666 28.4108 255.176 28.697C255.176 28.697 255.919 29.1 256.104 29.719C256.168 29.719 256.22 29.7131 256.278 29.7131C256.429 29.7131 256.667 29.7248 256.939 29.7891C256.992 29.8007 257.055 29.8183 257.119 29.8358C257.699 30.0168 258.129 30.4548 258.129 30.4548C258.198 30.5249 258.274 30.595 258.337 30.6767M246.58 35.0742C247.09 34.4552 248.726 32.563 250.802 31.1848C250.698 31.1556 250.594 31.1381 250.495 31.1264C249.996 31.0738 249.642 31.1673 249.48 31.2315C249.457 31.2374 249.433 31.249 249.422 31.2549C249.271 31.3133 249.109 31.3892 248.998 31.4476C248.395 31.7863 247.838 32.1776 247.363 32.6506C247.055 32.966 246.742 33.3514 246.527 33.7193C246.493 33.7777 246.377 33.9821 246.295 34.2624C246.191 34.6362 246.145 35.0333 246.423 35.2727C246.475 35.2027 246.533 35.1384 246.591 35.0683M254.909 35.3311C255.901 34.5953 257.05 33.5441 256.789 32.1776C256.562 31.4067 255.832 31.4593 255.188 31.5177C254.938 31.5586 254.695 31.6345 254.579 31.6695C252.363 32.5397 250.309 34.5311 249.022 36.5867C250.53 36.8495 252.044 36.5867 253.506 36.0553C253.97 35.8451 254.445 35.6407 254.909 35.3253M279.168 41.0017C278.75 40.4002 278.019 39.2672 277.079 39.2147C276.714 39.3782 276.696 39.898 276.766 40.2075C277.445 43.6589 278.79 46.8007 278.796 50.5091C278.796 50.6551 278.796 50.9003 278.756 51.0522C278.709 51.204 278.628 51.3267 278.483 51.3442C276.424 48.5469 275.026 45.3992 272.491 42.8413C272.381 42.742 272.305 42.6894 272.265 42.6661C271.853 42.4792 271.476 42.707 271.192 43.0281C271.116 43.1333 270.954 43.3552 270.78 43.7465C269.974 45.6327 269.596 47.7234 269.306 49.82C269.15 50.8828 268.68 53.8086 269.411 55.4321C269.724 56.0161 270.298 56.5884 270.977 56.5359C271.447 56.4833 271.812 55.9052 271.969 55.4321L272.479 46.935L272.7 47.303C274.423 50.0886 275.304 53.2363 278.019 55.438C278.402 55.6949 278.901 55.6365 279.324 55.4613C279.591 55.3679 279.962 55.1985 280.275 54.9182C281.209 54.1649 281.697 52.8509 281.836 51.8055C282.3 47.8227 281.308 44.091 279.173 40.9959M267.897 42.7303C267.897 42.6661 267.868 42.596 267.81 42.5259C267.775 42.4909 267.717 42.4558 267.671 42.4325C263.715 40.7973 258.239 41.2762 254.561 43.3143C253.442 43.8983 252.943 44.9845 252.856 46.2109C252.85 46.4153 252.856 46.9467 253.082 47.3789C253.268 47.6942 253.529 47.9804 253.83 48.1439C253.877 48.1673 253.958 48.1965 254.051 48.2198C255.263 48.4768 256.545 48.5702 257.833 48.652C258.482 48.6987 258.952 48.7279 258.952 48.7279C261.383 48.9323 262.531 49.2535 262.531 49.2535H262.543C263.517 49.528 264.863 49.7499 265.13 50.9529C265.142 51.0055 265.13 51.0405 265.113 51.0872C264.295 52.4129 261.841 52.8626 260.194 53.1312C259.115 53.2597 256.383 53.7152 255.048 52.6114C254.869 52.4538 254.828 52.2727 254.822 52.1676C254.822 52.1442 254.822 52.115 254.822 52.0858C254.834 51.8931 254.892 51.7004 255.019 51.5252C255.043 51.5019 255.101 51.4259 255.193 51.3617C256.916 50.3572 259.109 52.5063 260.867 52.2902C262.641 52.115 263.21 51.6887 263.39 51.3033C263.535 51.0171 263.471 50.8186 263.471 50.8186C262.85 50.293 261.441 49.8784 260.298 49.6681C258.674 49.4345 256.359 49.0841 254.729 50.0711C254.7 50.0886 254.393 50.2872 254.184 50.5908C253.871 51.058 253.645 51.6245 253.616 52.226C253.616 52.3311 253.627 52.4888 253.691 52.6698C254.526 54.7664 256.696 55.876 258.68 56.3315C261.371 56.7636 264.283 56.3957 266.273 54.6145C266.656 54.27 266.859 53.9663 266.957 53.7969C267.456 52.7983 267.607 51.1982 267.288 49.9543C267.195 49.6039 267.044 49.3353 266.922 49.1601C264.857 46.4153 261.041 47.192 257.815 46.6664C257.415 46.6139 256.847 46.5146 256.348 46.3511C256.035 46.2635 255.855 46.1817 255.756 46.1291C255.727 46.1175 255.698 46.0999 255.675 46.0824C255.669 46.0824 255.669 46.0766 255.669 46.0766C255.594 46.024 255.542 45.9539 255.513 45.8547C255.507 45.8021 255.536 45.7671 255.559 45.7554C258.361 44.6224 261.725 44.7801 264.834 44.4122C265.82 44.2604 266.864 44.3012 267.543 43.5421C267.566 43.5187 267.601 43.4837 267.642 43.4253C267.642 43.4253 267.647 43.4253 267.647 43.4136C267.711 43.3201 267.787 43.1917 267.839 43.034C267.868 42.9522 267.879 42.8705 267.885 42.8121V42.777C267.885 42.777 267.885 42.742 267.885 42.7362V42.7245L267.897 42.7303ZM245.733 46.1058C246.377 49.9952 244.81 53.5517 241.614 55.9636C236.504 59.742 229.514 60.326 223.162 58.8017C223.128 58.7901 223.128 58.7901 223.07 58.7842C223.006 59.485 223.052 60.5012 222.327 60.799C221.782 60.9392 220.97 61.056 220.239 60.8516C219.404 59.8997 219.404 58.4864 219.143 57.1724C215.488 55.4613 211.573 52.6698 209.415 48.9557C209.328 48.7805 209.282 48.6286 209.27 48.5702C209.165 48.0037 209.357 47.4022 209.647 46.9467C209.734 46.8182 209.838 46.6956 209.92 46.608C211.144 45.4167 212.559 44.71 213.98 44.1436C214.746 43.8516 215.523 43.6297 216.306 43.4311C217.246 43.1741 218.139 42.9756 218.963 42.8296C219.108 42.7945 219.264 42.7595 219.409 42.7303C219.531 42.3274 219.56 37.2116 220.807 34.9048C222.008 35.3253 222.629 36.6918 222.791 37.8423L222.901 42.3858C222.901 42.3858 223.07 42.3682 223.075 42.3682L223.255 42.3566H223.47C224.178 42.3215 225.425 42.3098 227.06 42.4558C229.798 42.6719 232.443 43.3143 234.613 44.9787C234.804 45.1364 235.181 45.4751 235.431 45.8897C235.825 46.5905 236.121 47.3438 235.872 48.2373C235.64 49.2243 234.613 50.0068 233.725 50.4916C233.401 50.6551 233.087 50.6667 233 50.6667C232.409 50.6609 231.782 50.55 231.243 50.3164C231.196 50.2872 231.185 50.2755 231.179 50.2288C231.179 49.6272 231.863 49.4345 232.333 49.0433C232.374 49.0141 232.507 48.9089 232.71 48.5994C232.745 48.5527 232.774 48.5001 232.809 48.4476C232.809 48.4476 232.815 48.4359 232.82 48.4301C232.896 48.3016 232.965 48.1556 232.989 47.9921C232.989 47.9746 232.994 47.957 232.994 47.9395C232.994 47.8402 232.931 47.7877 232.884 47.7585C230.251 46.4445 226.701 45.9773 224.189 45.8663C223.945 45.8547 223.731 45.8371 222.994 45.8547C222.994 46.0007 222.983 45.9306 222.994 46.0824C223.006 46.5087 223.006 47.4314 223 47.8344L223.151 55.8C228.731 56.8512 235.031 56.5359 239.462 52.9677C241.504 51.2741 242.084 48.5527 241.62 46.0766C241.62 46.0474 241.608 46.0123 241.603 45.9831C241.574 45.843 241.545 45.697 241.51 45.5568C241.498 45.5101 241.487 45.4634 241.475 45.4225C241.469 45.3991 241.463 45.3758 241.458 45.3583C241.382 45.113 241.301 44.8911 241.226 44.7042C238.215 37.6379 230.732 33.6668 224.299 31.0271C218.696 28.954 212.431 27.7568 205.964 28.7788C205.964 28.7788 205.923 28.7788 205.859 28.7963C205.801 28.8021 205.743 28.8138 205.691 28.8196C205.685 28.8196 205.586 28.843 205.575 28.8488C205.285 28.9131 204.948 29.0124 204.751 29.1934C204.716 29.2226 204.687 29.2635 204.658 29.3102C204.658 29.3277 204.658 29.3511 204.676 29.3686C205.233 29.6898 206.062 29.4328 206.573 30.0869C206.602 30.1278 206.613 30.1628 206.625 30.2271C206.625 30.5015 206.404 30.6067 206.149 30.6651C205.743 30.7293 205.14 30.7293 204.861 30.7293C204.189 30.7059 203.492 30.6592 203.069 30.192C202.959 30.011 203.017 29.7248 203.057 29.573C203.429 28.5218 203.846 27.4064 205.001 26.9917C213.006 24.5273 221.962 26.437 228.076 29.1408C230.146 30.0519 232.739 31.3074 235.257 32.9835C235.883 33.3981 236.475 33.8128 237.032 34.2332C237.061 34.2566 237.09 34.2741 237.119 34.2916C237.165 34.3325 237.223 34.3734 237.27 34.4143C245.199 40.4469 245.721 46.1175 245.721 46.1175M218.992 54.5445C219.096 51.6595 219.305 48.8914 219.305 46.0591C218.783 46.0999 217.518 46.1642 215.239 46.5146C213.934 46.7248 212.628 46.9876 211.428 47.4081C210.987 47.5541 210.32 47.9804 210.413 48.5469V48.5585V48.5702C210.424 48.6053 210.442 48.6578 210.476 48.7221C212.611 51.7296 215.877 53.3998 218.986 54.5445M311.233 84.1119L311.309 80.9058C311.32 80.4094 310.926 80.0006 310.433 79.9948L295.717 79.7262C295.224 79.7145 294.835 79.3057 294.841 78.8151L294.887 76.1872C294.899 75.6616 294.458 75.2411 293.936 75.2761L286.592 75.7959C286.134 75.8309 285.774 76.2105 285.763 76.6719L285.728 78.6458C285.716 79.1422 285.31 79.5334 284.823 79.5276L279.724 79.4108C279.231 79.3991 278.825 79.7962 278.819 80.2926L278.744 83.4987C278.732 83.9951 279.127 84.4039 279.62 84.4098L284.69 84.5266C285.194 84.5382 285.589 84.9646 285.566 85.4726L283.779 121.353C283.75 121.873 284.168 122.305 284.69 122.299L293.211 122.118C293.692 122.106 294.075 121.721 294.081 121.236L294.713 85.6128C294.725 85.1164 295.131 84.7251 295.618 84.731L310.334 84.9996C310.827 85.0113 311.233 84.6142 311.239 84.1178M349.726 80.1992L349.57 76.9931C349.552 76.4967 349.135 76.1112 348.642 76.1288L332.243 76.777C331.75 76.7945 331.338 76.4091 331.315 75.9127L331.211 73.2847C331.188 72.7591 330.724 72.362 330.207 72.4321L322.904 73.3782C322.446 73.4366 322.11 73.8395 322.127 74.3009L322.202 76.2748C322.22 76.7712 321.837 77.1858 321.344 77.2092L316.489 77.4019C315.996 77.4194 315.613 77.8399 315.63 78.3363L315.787 81.5424C315.804 82.0388 316.222 82.4242 316.715 82.4067L321.541 82.214C322.046 82.1964 322.463 82.5994 322.469 83.1075L322.69 119.035C322.69 119.554 323.136 119.963 323.653 119.922L332.15 119.251C332.626 119.216 332.992 118.801 332.968 118.322L331.611 82.7162C331.594 82.2198 331.976 81.8052 332.47 81.7818L348.862 81.1336C349.355 81.1161 349.738 80.6956 349.721 80.1992M402.564 73.8746L401.491 94.6413C401.468 95.1377 401.045 95.5582 400.552 95.5874L389.362 96.2356C388.881 96.2648 388.504 95.9086 388.509 95.4238L388.753 75.2878C388.759 74.8089 388.382 74.4469 387.9 74.4761L373.144 75.3345C372.639 75.3637 372.21 75.8076 372.204 76.3156L372.123 79.913C372.117 80.3919 372.494 80.754 372.975 80.7248L376.201 80.5379C376.682 80.5087 377.059 80.8708 377.053 81.3497L376.554 122.036C376.549 122.515 376.926 122.877 377.407 122.848L387.216 122.276C387.721 122.247 388.15 121.803 388.156 121.295L388.388 102.595C388.393 102.087 388.823 101.643 389.333 101.614L400.175 100.983C400.668 100.954 401.05 101.334 401.021 101.83L399.943 124.769C399.919 125.242 400.262 125.61 400.731 125.616L410.993 125.71C411.509 125.71 411.967 125.277 411.996 124.758L414.711 72.1226C414.74 71.5912 414.299 71.2057 413.771 71.2875L403.417 72.9227C402.959 72.9927 402.588 73.4015 402.564 73.8629M308.455 95.7742C312.631 95.8502 315.932 94.7756 316.071 92.7667C316.205 90.7578 312.742 89.5606 308.565 89.4846C304.389 89.4087 301.088 90.4366 300.949 92.4922C300.775 95.0326 304.278 95.6983 308.455 95.7742ZM303.466 121.517H300.972C300.415 121.517 299.992 122.025 300.096 122.579L300.607 125.353C300.688 125.797 301.088 126.113 301.541 126.083L312.672 125.371C313.142 125.342 313.507 124.95 313.507 124.477V100.855C313.507 100.359 313.107 99.9556 312.614 99.9556H304.505C304 99.9556 303.594 100.376 303.611 100.884L304.348 120.588C304.365 121.096 303.965 121.517 303.455 121.517M356.577 114.193C351.629 114.193 350.289 111.022 350.289 107.11V98.665C350.289 94.7523 351.542 91.5812 356.449 91.5812C361.357 91.5812 362.308 93.3799 362.36 97.1057C362.366 97.6021 362.801 98.0051 363.346 98.0051H371.125C371.653 98.0051 372.094 97.6255 372.117 97.1466C372.471 90.4891 368.584 87.1896 362.871 86.6465C359.512 86.3253 356.113 86.2902 351.977 86.5589C345.237 86.9968 339.262 91.844 339.262 98.7701V103.746C339.262 114.281 341.559 120.658 354.054 120.658C354.628 120.658 358.665 120.658 359.216 120.658C366.931 120.664 372.384 116.553 372.772 108.441C372.796 107.927 372.343 107.495 371.78 107.495H363.416C362.847 107.495 362.407 107.933 362.43 108.447C362.592 111.852 361.525 114.193 356.577 114.193ZM268.106 98.8168C264.724 97.5904 261.209 96.148 257.96 94.9274C252.438 92.8426 251.702 91.8265 251.527 88.4335C251.162 81.2037 251.783 78.1961 257.63 78.2545C262.108 78.3012 263.477 79.4867 263.477 87.7619C263.477 88.2524 263.871 88.6554 264.359 88.6612L274.858 88.7722C275.322 88.7722 275.716 88.4159 275.757 87.9487C276.801 76.5784 271.661 71.9007 261.371 71.7897C260.234 71.778 253.622 71.7372 252.577 71.7255C246.284 71.6554 238.639 74.9433 238.563 81.957C238.476 89.9986 236.614 92.5623 249.938 97.9292C252.166 98.8285 254.671 99.8583 257.456 101.018C261.348 102.648 263.024 104.166 263.024 109.954C263.024 114.269 262.351 117.989 256.789 117.925C251.673 117.872 248.865 115.986 248.743 112.161C248.703 110.911 248.691 107.553 248.697 105.749C248.697 105.252 248.297 104.849 247.809 104.849H235.611C235.152 104.844 234.764 105.194 234.723 105.655C233.731 116.991 237.322 124.705 256.499 124.915C276.424 125.131 276.615 118.182 276.615 111.98C276.615 103.623 273.761 100.861 268.123 98.8168M150.997 108.225L158.613 106.864C159.054 106.782 159.379 106.397 159.379 105.947V73.4716C159.379 72.9577 158.967 72.5372 158.451 72.5372H147.632C147.18 72.5372 146.791 72.8701 146.716 73.3198L145.759 77.0748C145.666 77.6413 146.101 78.1552 146.675 78.1552H148.978C149.489 78.1552 149.906 78.5699 149.906 79.0896V107.308C149.906 107.886 150.428 108.324 150.991 108.225M161.351 124.857L161.449 114.164C161.449 113.65 161.043 113.23 160.533 113.224L149.912 113.125C149.402 113.125 148.984 113.533 148.978 114.047L148.949 118.737C148.949 119.239 148.549 119.642 148.05 119.659L118.438 120.571C117.898 120.588 117.463 120.138 117.486 119.601L119.569 72.7358C119.592 72.2102 119.174 71.7722 118.652 71.7664L100.931 71.597C100.293 71.5912 99.7539 72.0759 99.6959 72.7183L98.9999 77.4603C98.9303 78.2078 99.5335 78.8502 100.282 78.8151L105.636 78.5757C106.181 78.5523 106.628 79.002 106.604 79.5451L105.056 113.422C105.044 113.703 104.905 113.966 104.679 114.135L100.543 117.195C100.305 117.37 100.166 117.645 100.166 117.937L100.108 124.273C100.108 124.787 100.514 125.207 101.024 125.213L160.417 125.78C160.927 125.78 161.345 125.371 161.351 124.857ZM140.068 111.606L139.076 86.2961C139.059 85.7821 138.624 85.3792 138.114 85.4025L130.538 85.7062C130.01 85.7296 129.61 86.1851 129.65 86.7107L131.147 105.883C131.188 106.415 130.782 106.87 130.254 106.888L127.916 106.964C127.4 106.981 127 107.419 127.023 107.933L127.197 112.12C127.22 112.634 127.649 113.031 128.16 113.014L139.175 112.576C139.685 112.558 140.086 112.12 140.063 111.606M134.128 82.1147C137.969 81.9628 140.944 80.5204 140.944 78.1611C140.944 75.8017 137.684 74.6104 133.844 74.7622C129.998 74.9141 127.029 76.304 127.029 78.7159C127.029 81.6942 130.288 82.2665 134.128 82.1147ZM165.794 92.0367C165.794 85.8405 170.835 80.754 177.065 80.6021L188.712 80.3218C194.942 80.17 200.163 85.0113 200.383 91.2016L201.091 111.39C201.323 117.913 196.242 123.391 189.739 123.549L177.587 123.841C171.084 123.999 165.817 118.772 165.812 112.243L165.8 92.0367M186.305 118.509C189.368 118.433 191.781 115.864 191.706 112.786L191.207 90.5125C191.131 87.5633 188.66 85.2449 185.69 85.3208L183.016 85.385C180.046 85.4551 177.668 87.8904 177.703 90.8395L177.946 113.119C177.987 116.202 180.499 118.649 183.561 118.579L186.317 118.515M227.408 98.8694C227.408 98.6008 227.188 98.3788 226.898 98.3613L220.999 98.0693C220.691 98.0518 220.436 98.2796 220.43 98.5599L220.291 108.523C220.291 110.281 218.377 110.952 217.002 110.952C215.627 110.952 214.804 110.117 214.868 109.019C215.256 102.221 215.482 99.8271 215.482 99.8271C215.5 99.5819 215.291 99.3599 215.013 99.3249L208.667 98.5365C208.353 98.4956 208.092 98.6883 208.087 98.9628L208.208 107.039C208.168 112.319 212.675 113.948 216.173 113.948C219.67 113.948 220.5 112.99 220.981 112.184C221.092 114.041 220.72 120.01 217.205 120.01C214.229 120.01 213.562 118.217 213.586 116.483C213.586 116.22 213.319 115.998 212.971 115.998H207.942C207.599 115.998 207.344 116.22 207.367 116.477C207.71 121.119 210.169 123.841 216.933 123.841C225.842 123.841 227.211 121.289 227.211 108.733C227.211 108.12 227.408 98.8694 227.408 98.8635" fill="white"/>
</g>
<path d="M182.437 140.627C181.678 139.998 180.713 139.576 179.7 139.576C178.941 139.576 177.929 140.017 177.929 140.909C177.929 141.8 179.044 142.195 179.766 142.429L180.816 142.748C183.027 143.405 184.733 144.522 184.733 147.094C184.733 148.68 184.358 150.304 183.093 151.383C181.846 152.435 180.188 152.885 178.585 152.885C176.58 152.885 174.621 152.209 173 151.074L174.771 147.742C175.802 148.652 177.03 149.384 178.435 149.384C179.401 149.384 180.441 148.896 180.441 147.779C180.441 146.662 178.82 146.221 177.929 145.968C175.333 145.226 173.628 144.551 173.628 141.472C173.628 138.393 175.924 136.131 179.11 136.131C180.713 136.131 182.671 136.638 184.086 137.436L182.446 140.646L182.437 140.627Z" fill="white"/>
<path d="M203.269 144.194C203.269 149.347 199.577 152.979 194.479 152.979C189.381 152.979 185.689 149.347 185.689 144.194C185.689 139.379 189.906 136 194.479 136C199.052 136 203.269 139.379 203.269 144.194ZM189.99 144.222C189.99 146.963 192.014 148.971 194.479 148.971C196.944 148.971 198.968 146.963 198.968 144.222C198.968 142.026 196.944 140.017 194.479 140.017C192.014 140.017 189.99 142.026 189.99 144.222Z" fill="white"/>
<path d="M209.257 148.952H214.215V152.453H205.134V136.535H209.267V148.952H209.257Z" fill="white"/>
<path d="M231.973 144.194C231.973 149.347 228.281 152.979 223.183 152.979C218.085 152.979 214.393 149.347 214.393 144.194C214.393 139.379 218.61 136 223.183 136C227.756 136 231.973 139.379 231.973 144.194ZM218.694 144.222C218.694 146.963 220.718 148.971 223.183 148.971C225.648 148.971 227.672 146.963 227.672 144.222C227.672 142.026 225.648 140.017 223.183 140.017C220.718 140.017 218.694 142.026 218.694 144.222Z" fill="white"/>
<path d="M245.243 140.036V142.692H249.9V146.193H245.243V148.934H250.153V152.435H241.11V136.516H250.153V140.017H245.243V140.036Z" fill="white"/>
<path d="M252.618 136.535H256.751L264.313 146.268H264.351V136.535H268.484V152.453H264.351L256.788 142.702H256.751V152.453H252.618V136.535Z" fill="white"/>
<path d="M289.766 141.876C288.922 140.74 287.554 140.12 286.139 140.12C283.609 140.12 281.903 142.063 281.903 144.532C281.903 147 283.628 148.859 286.205 148.859C287.554 148.859 288.904 148.202 289.766 147.169V152.134C288.398 152.557 287.404 152.876 286.12 152.876C283.909 152.876 281.8 152.031 280.151 150.529C278.398 148.943 277.602 146.878 277.602 144.513C277.602 142.335 278.427 140.252 279.945 138.684C281.5 137.079 283.759 136.113 285.999 136.113C287.329 136.113 288.547 136.404 289.775 136.91V141.876H289.766Z" fill="white"/>
<path d="M296.429 152.453H292.296V136.535H296.429V152.453Z" fill="white"/>
<path d="M299.043 136.535H303.176L310.748 146.268H310.785V136.535H314.918V152.453H310.785L303.213 142.702H303.176V152.453H299.043V136.535Z" fill="white"/>
<path d="M321.703 140.036V142.692H326.36V146.193H321.703V148.934H326.614V152.435H317.57V136.516H326.614V140.017H321.703V140.036Z" fill="white"/>
<path d="M337.55 140.627C336.791 139.998 335.825 139.576 334.813 139.576C334.054 139.576 333.042 140.017 333.042 140.909C333.042 141.8 334.157 142.195 334.879 142.429L335.929 142.748C338.14 143.405 339.846 144.522 339.846 147.094C339.846 148.68 339.471 150.304 338.206 151.383C336.959 152.435 335.301 152.885 333.698 152.885C331.693 152.885 329.734 152.209 328.113 151.074L329.884 147.742C330.915 148.652 332.143 149.384 333.548 149.384C334.513 149.384 335.554 148.896 335.554 147.779C335.554 146.662 333.932 146.221 333.042 145.968C330.446 145.226 328.741 144.551 328.741 141.472C328.741 138.393 331.037 136.131 334.223 136.131C335.825 136.131 337.784 136.638 339.199 137.436L337.559 140.646L337.55 140.627Z" fill="white"/>
</g>
<defs>
<clipPath id="clip0_11410_1638">
<rect width="478" height="181" fill="white"/>
</clipPath>
<clipPath id="clip1_11410_1638">
<rect width="315.711" height="124.711" fill="white" transform="translate(99 25.841)"/>
</clipPath>
</defs>
</svg>
