<svg width="38" height="38" viewBox="0 0 38 38" fill="none" xmlns="http://www.w3.org/2000/svg">
<g id="Objects" clip-path="url(#clip0_11848_3344)">
<path id="Vector" d="M18.2596 15.7743C18.2596 15.7743 20.3939 16.6896 21.1581 13.7382C21.923 10.7846 21.3394 8.12315 22.785 6.54709C24.2306 4.97103 23.3153 3.21781 22.0272 3.62885C20.7412 4.04056 22.6169 1.07883 26.6367 2.57933C30.6564 4.07984 29.5974 6.0311 31.1798 5.9642C32.7622 5.89729 35.4603 7.59571 34.7119 9.84611C33.9642 12.0943 25.7439 20.0745 18.259 15.7765L18.2596 15.7743Z" fill="#FF6072"/>
<path id="Vector_2" d="M19.2356 16.323C19.2356 16.323 21.9741 16.1021 22.8671 12.8735C23.76 9.64491 25.3848 7.39229 25.3848 7.39229C25.3848 7.39229 23.3323 11.1148 23.2936 12.3787C23.2556 13.6404 22.2339 15.1811 22.2339 15.1811C22.2339 15.1811 25.9052 12.4595 26.8067 10.0826C26.8067 10.0826 25.3994 14.4179 21.8357 15.7682C21.8357 15.7682 26.3423 15.4094 28.6424 13.3974C28.6424 13.3974 24.207 17.3724 19.2378 16.3236L19.2356 16.323Z" fill="#D64F66"/>
<path id="Vector_3" d="M20.9479 16.8544C20.9479 16.8544 21.0049 16.8697 21.1087 16.8948C22.0319 17.1241 26.6973 18.1883 29.0056 16.9754C31.5752 15.6242 35.7636 17.1699 36.2054 19.2102C36.6472 21.2505 38.0911 25.0399 37.092 26.4159C36.0923 27.7941 33.0303 29.9822 31.0547 29.741C29.0812 29.5005 24.0162 29.2114 22.3396 24.0309C20.6624 18.8526 18.5634 16.5007 19.3852 16.1929" fill="#D64F66"/>
<path id="Vector_4" d="M19.6143 15.8442C19.6143 15.8442 22.0703 11.8463 21.4466 8.8171C20.8229 5.78786 19.2695 1.86191 15.4216 2.08653C11.5743 2.30898 11.9635 0.405026 10.2789 1.45137C8.5942 2.49772 4.96411 5.4229 6.84766 8.28512C8.73121 11.1473 6.85533 11.0206 9.23087 12.6189C11.6064 14.2172 17.5739 18.0442 19.6171 15.8427L19.6143 15.8442Z" fill="#FF6072"/>
<path id="Vector_5" d="M1.33918 17.0402C1.33918 17.0402 2.10881 16.671 2.1231 15.8145C2.1374 14.9579 2.15618 14.4081 3.88903 14.1852C5.6212 13.9644 5.8583 12.8718 6.49605 12.7669C7.1338 12.662 15.9377 17.7342 18.4194 16.0696C18.4194 16.0696 19.3082 16.5935 19.007 17.411C18.7057 18.2285 15.972 24.115 11.3432 24.9057C6.71432 25.6964 6.16718 27.2985 3.4691 25.6001C0.771012 23.9017 -1.60251 19.2156 1.33918 17.0402Z" fill="#FF6072"/>
<path id="Vector_6" d="M18.5358 18.9366C18.5358 18.9366 18.273 21.7408 15.7687 23.7991C13.2666 25.8581 12.4579 29.4038 14.0778 31.4258C15.6977 33.4478 14.8995 35.5301 16.9332 35.9586C18.967 36.3872 19.7338 35.0559 21.299 35.6944C22.8641 36.3328 27.02 34.6345 27.6008 32.4347C28.1837 30.2355 25.8002 20.9864 20.9286 17.0464C16.057 13.1065 18.538 18.9373 18.538 18.9373L18.5358 18.9366Z" fill="#FF6072"/>
<path id="Vector_7" d="M18.9564 16.7943C18.9564 16.7943 26.0832 16.9935 29.7791 9.16162C29.7791 9.16162 28.893 16.1605 19.907 17.6236C19.907 17.6236 18.5414 17.8865 18.9542 16.7936L18.9564 16.7943Z" fill="#FF9991"/>
<path id="Vector_8" d="M26.9095 12.6568C26.8777 12.759 26.7698 12.8162 26.6681 12.7846C26.5663 12.753 26.5097 12.6448 26.5415 12.5426C26.5732 12.4403 26.6811 12.3832 26.7829 12.4148C26.8846 12.4464 26.9412 12.5546 26.9095 12.6568Z" fill="#FFC4BD"/>
<path id="Vector_9" d="M28.0227 12.182C27.8993 12.3273 27.6824 12.3458 27.538 12.2223C27.3936 12.0988 27.3757 11.881 27.4991 11.7356C27.6226 11.5903 27.8395 11.5718 27.9839 11.6953C28.1283 11.8188 28.1462 12.0366 28.0227 12.182Z" fill="#FFC4BD"/>
<path id="Vector_10" d="M29.7205 10.7652C29.8107 10.8647 29.8057 11.0182 29.7057 11.1112C29.6063 11.202 29.4534 11.1975 29.3611 11.0973C29.271 10.9977 29.2759 10.8442 29.376 10.7513C29.4753 10.6605 29.6282 10.665 29.7205 10.7652Z" fill="#FFC4BD"/>
<path id="Vector_11" d="M29.6456 9.41598C29.7357 9.5155 29.7308 9.66899 29.6307 9.76195C29.5314 9.85274 29.3785 9.84822 29.2862 9.74802C29.196 9.64849 29.201 9.495 29.301 9.40204C29.4004 9.31126 29.5533 9.31578 29.6456 9.41598Z" fill="#FFC4BD"/>
<path id="Vector_12" d="M29.1851 10.0815C29.2753 10.181 29.2703 10.3345 29.1703 10.4275C29.0709 10.5183 28.918 10.5137 28.8257 10.4135C28.7356 10.314 28.7405 10.1605 28.8406 10.0676C28.9399 9.97679 29.0928 9.98131 29.1851 10.0815Z" fill="#FFC4BD"/>
<path id="Vector_13" d="M28.7282 10.8269C28.6693 10.8945 28.5669 10.9032 28.4991 10.8464C28.4319 10.7874 28.4235 10.6846 28.4803 10.6164C28.5392 10.5488 28.6416 10.5401 28.7094 10.5969C28.7765 10.6559 28.785 10.7587 28.7282 10.8269Z" fill="#FFC4BD"/>
<path id="Vector_14" d="M28.7599 11.2827C28.701 11.3503 28.5986 11.359 28.5308 11.3022C28.4637 11.2432 28.4552 11.1404 28.512 11.0722C28.5709 11.0046 28.6733 10.9959 28.7411 11.0527C28.8083 11.1117 28.8167 11.2145 28.7599 11.2827Z" fill="#FFC4BD"/>
<path id="Vector_15" d="M26.8744 13.557C26.8155 13.6246 26.7131 13.6333 26.6453 13.5765C26.5782 13.5175 26.5697 13.4147 26.6265 13.3465C26.6855 13.2789 26.7878 13.2702 26.8556 13.327C26.9228 13.386 26.9312 13.4888 26.8744 13.557Z" fill="#FFC4BD"/>
<path id="Vector_16" d="M27.8317 13.5702C27.7728 13.6377 27.6704 13.6465 27.6026 13.5897C27.5354 13.5307 27.527 13.4279 27.5838 13.3597C27.6427 13.2921 27.7451 13.2833 27.8129 13.3402C27.88 13.3992 27.8885 13.5019 27.8317 13.5702Z" fill="#FFC4BD"/>
<path id="Vector_17" d="M28.2922 12.8666C28.2332 12.9341 28.1308 12.9429 28.063 12.8861C27.9959 12.8271 27.9875 12.7243 28.0442 12.6561C28.1032 12.5885 28.2056 12.5797 28.2734 12.6366C28.3405 12.6955 28.3489 12.7983 28.2922 12.8666Z" fill="#FFC4BD"/>
<path id="Vector_18" d="M28.9198 12.2434C28.8609 12.311 28.7585 12.3197 28.6907 12.2629C28.6236 12.2039 28.6151 12.1011 28.6719 12.0329C28.7309 11.9653 28.8333 11.9566 28.9011 12.0134C28.9682 12.0724 28.9766 12.1752 28.9198 12.2434Z" fill="#FFC4BD"/>
<path id="Vector_19" d="M28.7282 12.7229C28.6693 12.7904 28.5669 12.7992 28.4991 12.7424C28.4319 12.6834 28.4235 12.5806 28.4803 12.5124C28.5392 12.4448 28.6416 12.4361 28.7094 12.4929C28.7765 12.5519 28.785 12.6547 28.7282 12.7229Z" fill="#FFC4BD"/>
<path id="Vector_20" d="M27.8059 13.1712C27.7308 13.26 27.5991 13.2716 27.5108 13.1965C27.4226 13.1214 27.4114 12.9891 27.4865 12.9003C27.5615 12.8115 27.6932 12.8 27.7815 12.875C27.8697 12.9501 27.8809 13.0824 27.8059 13.1712Z" fill="#FFC4BD"/>
<path id="Vector_21" d="M28.365 13.4042C28.2885 13.4902 28.1553 13.4989 28.0684 13.4195C27.983 13.3429 27.9747 13.2091 28.054 13.1217C28.1305 13.0357 28.2631 13.0292 28.3507 13.1064C28.4361 13.183 28.4444 13.3168 28.365 13.4042Z" fill="#FFC4BD"/>
<path id="Vector_22" d="M27.4107 13.9785C27.3342 14.0644 27.2009 14.0732 27.114 13.9937C27.0286 13.9171 27.0225 13.7841 27.0997 13.6959C27.1762 13.61 27.3094 13.6013 27.3963 13.6807C27.4817 13.7573 27.4879 13.8904 27.4107 13.9785Z" fill="#FFC4BD"/>
<path id="Vector_23" d="M29.2463 11.3979C29.1873 11.4655 29.0849 11.4743 29.0171 11.4174C28.95 11.3584 28.9416 11.2557 28.9983 11.1874C29.0573 11.1199 29.1597 11.1111 29.2275 11.1679C29.2946 11.2269 29.303 11.3297 29.2463 11.3979Z" fill="#FFC4BD"/>
<path id="Vector_24" d="M29.7026 10.4711C29.6436 10.5386 29.5412 10.5474 29.4734 10.4906C29.4063 10.4316 29.3979 10.3288 29.4546 10.2605C29.5136 10.193 29.616 10.1842 29.6838 10.241C29.7509 10.3 29.7593 10.4028 29.7026 10.4711Z" fill="#FFC4BD"/>
<path id="Vector_25" d="M29.9186 9.03331C30.0058 9.05081 30.0619 9.13742 30.0443 9.22494C30.0266 9.31246 29.9402 9.36912 29.8531 9.35161C29.7659 9.33411 29.7098 9.24751 29.7274 9.15998C29.7451 9.07246 29.8315 9.01581 29.9186 9.03331Z" fill="#FFC4BD"/>
<path id="Vector_26" d="M29.7365 9.81139C29.8236 9.82889 29.8798 9.91549 29.8615 10.0052C29.8438 10.0927 29.7574 10.1494 29.6703 10.1319C29.5831 10.1144 29.5269 10.0278 29.5446 9.94023C29.5623 9.85271 29.6487 9.79606 29.7358 9.81356L29.7365 9.81139Z" fill="#FFC4BD"/>
<path id="Vector_27" d="M29.1152 10.6584C29.2023 10.6759 29.2585 10.7625 29.2408 10.8501C29.2231 10.9376 29.1367 10.9942 29.0496 10.9767C28.9625 10.9592 28.9063 10.8726 28.924 10.7851C28.9416 10.6976 29.028 10.6409 29.1152 10.6584Z" fill="#FFC4BD"/>
<path id="Vector_28" d="M29.1864 11.5606C29.3023 11.5846 29.3784 11.6989 29.3541 11.8153C29.3298 11.9318 29.2158 12.0085 29.0999 11.9845C28.9839 11.9604 28.9079 11.8462 28.9321 11.7297C28.9564 11.6132 29.0704 11.5365 29.1864 11.5606Z" fill="#FFC4BD"/>
<path id="Vector_29" d="M28.4539 11.772C28.5699 11.7961 28.646 11.9103 28.6217 12.0268C28.5974 12.1433 28.4834 12.22 28.3675 12.1959C28.2515 12.1718 28.1754 12.0576 28.1997 11.9411C28.224 11.8246 28.338 11.7479 28.4539 11.772Z" fill="#FFC4BD"/>
<path id="Vector_30" d="M28.1311 11.2139C28.0792 11.2741 27.989 11.2818 27.9292 11.2299C27.8693 11.1779 27.8619 11.0874 27.9138 11.0272C27.9657 10.967 28.0559 10.9592 28.1157 11.0112C28.1755 11.0631 28.183 11.1537 28.1311 11.2139Z" fill="#FFC4BD"/>
<path id="Vector_31" d="M28.2331 11.5889C28.1733 11.5369 28.1658 11.4464 28.2177 11.3862C28.2696 11.326 28.3599 11.3182 28.4197 11.3702C28.4795 11.4221 28.487 11.5127 28.4351 11.5729C28.3832 11.6331 28.2929 11.6409 28.2331 11.5889Z" fill="#FFC4BD"/>
<path id="Vector_32" d="M27.3887 12.8412C27.3506 12.9105 27.2621 12.9355 27.1932 12.8974C27.1244 12.8594 27.0997 12.7706 27.1378 12.7014C27.1759 12.6321 27.2644 12.6071 27.3332 12.6452C27.4021 12.6832 27.4268 12.772 27.3887 12.8412Z" fill="#FFC4BD"/>
<path id="Vector_33" d="M18.7061 17.2794C18.7061 17.2794 20.2995 18.7518 20.3111 20.4654C20.322 22.1811 19.6096 24.3616 18.6229 24.8567C18.6229 24.8567 20.6305 24.223 20.9685 20.4501C20.9685 20.4501 22.645 24.6217 21.9164 27.6724C21.9164 27.6724 22.9747 24.7598 21.7269 19.7577C21.7269 19.7577 23.6079 21.6342 23.9043 23.0188C23.9043 23.0188 23.5748 19.5848 18.7061 17.2794Z" fill="#D64F66"/>
<path id="Vector_34" d="M18.9565 16.7944C18.9565 16.7944 15.538 18.9767 9.81862 16.3C9.81862 16.3 12.3363 17.9066 14.8051 18.0958C14.8051 18.0958 9.66884 18.7934 5.004 17.0163C5.004 17.0163 10.845 20.0122 15.8962 18.4344C15.8962 18.4344 14.2309 20.5576 11.652 21.1666C11.652 21.1666 15.3447 20.6315 18.1198 17.739C18.1198 17.739 16.3691 20.0074 15.5411 20.5875C15.5411 20.5875 18.1107 19.0145 18.9565 16.7944Z" fill="#D64F66"/>
<path id="Vector_35" d="M19.0672 16.4376C19.0672 16.4376 21.2686 11.5474 18.3415 8.01786C18.3415 8.01786 19.9028 10.8707 19.3541 13.3953C19.3541 13.3953 18.9384 9.43612 13.8999 5.95714C13.8999 5.95714 17.4993 8.90359 18.6696 13.0087C18.6696 13.0087 18.0352 11.2831 16.6756 10.1504C16.6756 10.1504 18.5283 12.4927 18.5044 15.1158C18.5044 15.1158 14.1566 12.9292 11.6282 8.98674C11.6282 8.98674 13.6562 13.3104 17.7858 15.4126C17.7858 15.4126 15.7976 15.3417 13.6089 13.4627C13.6089 13.4627 15.7131 15.8663 19.0687 16.4405L19.0672 16.4376Z" fill="#D64F66"/>
</g>
<defs>
<clipPath id="clip0_11848_3344">
<rect width="37.6548" height="34.7804" fill="white" transform="translate(7.03711 -3.51855) rotate(17.2441)"/>
</clipPath>
</defs>
</svg>
