<?xml version="1.0" encoding="utf-8"?>
<!-- Generator: Adobe Illustrator 19.0.0, SVG Export Plug-In . SVG Version: 6.00 Build 0)  -->
<svg version="1.1" id="Capa_1" xmlns="http://www.w3.org/2000/svg" xmlns:xlink="http://www.w3.org/1999/xlink" x="0px" y="0px"
	 viewBox="-175 139 100 100" style="enable-background:new -175 139 100 100;" xml:space="preserve">
<style type="text/css">
	.st0{fill:#FFFFFF;}
</style>
<path class="st0" d="M-86.6,139.7h-76.7c-6.1,0-11,4.9-11,11v76.7c0,6,4.9,11,11,11h76.7c6,0,11-4.9,11-11v-76.7
	C-75.7,144.6-80.6,139.7-86.6,139.7z M-89.1,232h-71.8c-3.9,0-7.1-3.2-7.1-7.1v-71.8c0-3.9,3.2-7.1,7.1-7.1h71.8
	c3.9,0,7.1,3.2,7.1,7.1v71.8C-82,228.8-85.2,232-89.1,232z M-112.7,205V181l-12-12l-12,12v8h-24.1v36.7h72.2V205H-112.7z
	 M-144.8,221.1h-8v-8h8V221.1z M-144.8,205h-8v-8h8V205z M-120.8,221.1h-8v-8h8V221.1z M-120.8,205h-8v-8h8V205z M-120.8,189h-8v-8
	h8V189z M-96.7,221.1h-8v-8h8V221.1z M-93.4,169.2C-93.4,169.2-93.4,169.2-93.4,169.2c-3.1,3.1-8.1,3-11.1-0.1
	c-2.8-3-2.9-7.7,0-10.7c0.1-0.1,0.1-0.1,0.2-0.2c0.4-0.4,0-1-0.5-0.9c-1.8,0.4-3.5,1.4-5,2.8c-3.9,4-3.9,10.4,0.1,14.4
	c4,4,10.5,4,14.5,0c1.4-1.4,2.3-3.1,2.7-4.9C-92.4,169.1-93,168.8-93.4,169.2z"/>
</svg>
