<?xml version="1.0" encoding="utf-8"?>
<!-- Generator: Adobe Illustrator 19.0.0, SVG Export Plug-In . SVG Version: 6.00 Build 0)  -->
<svg version="1.1" id="Capa_1" xmlns="http://www.w3.org/2000/svg" xmlns:xlink="http://www.w3.org/1999/xlink" x="0px" y="0px"
	 viewBox="-99 101 100 100" style="enable-background:new -99 101 100 100;" xml:space="preserve">
<style type="text/css">
	.st0{fill:#FFFFFF;}
</style>
<path class="st0" d="M-10.7,101.7h-76.7c-6.1,0-11,4.9-11,11v76.7c0,6,4.9,11,11,11h76.7c6,0,11-4.9,11-11v-76.7
	C0.2,106.6-4.7,101.7-10.7,101.7z M-13.2,194H-85c-3.9,0-7.1-3.2-7.1-7.1V115c0-3.9,3.2-7.1,7.1-7.1h71.8c3.9,0,7.1,3.2,7.1,7.1
	v71.8C-6.1,190.8-9.3,194-13.2,194z"/>
<g>
	<path class="st0" d="M-50.2,189.5c-21.2,0-38.5-17.3-38.5-38.5s17.3-38.5,38.5-38.5s38.5,15.6,38.5,34.6
		c0,12.7-10.4,23.1-23.1,23.1h-6.8c-1.1,0-1.9,0.8-1.9,1.9c0,0.5,0.2,0.9,0.5,1.3c1.6,1.8,2.5,4.1,2.5,6.4
		C-40.6,185.2-44.9,189.5-50.2,189.5z M-50.2,120.2c-17,0-30.8,13.8-30.8,30.8s13.8,30.8,30.8,30.8c1.1,0,1.9-0.8,1.9-1.9
		c0-0.6-0.3-1.1-0.5-1.3c-1.6-1.8-2.4-4-2.4-6.4c0-5.3,4.3-9.6,9.6-9.6h6.8c8.5,0,15.4-6.9,15.4-15.4
		C-19.4,132.3-33.3,120.2-50.2,120.2z"/>
	<circle class="st0" cx="-71.4" cy="149.1" r="5.8"/>
	<circle class="st0" cx="-59.9" cy="133.7" r="5.8"/>
	<circle class="st0" cx="-40.6" cy="133.7" r="5.8"/>
	<circle class="st0" cx="-29.1" cy="149.1" r="5.8"/>
</g>
</svg>
