<?xml version="1.0" encoding="utf-8"?>
<!-- Generator: Adobe Illustrator 19.0.0, SVG Export Plug-In . SVG Version: 6.00 Build 0)  -->
<svg version="1.1" id="Capa_1" xmlns="http://www.w3.org/2000/svg" xmlns:xlink="http://www.w3.org/1999/xlink" x="0px" y="0px"
	 viewBox="-549 551 100 100" style="enable-background:new -549 551 100 100;" xml:space="preserve">
<style type="text/css">
	.st0{fill:#FFFFFF;}
</style>
<g>
	<path class="st0" d="M-461.3,551H-538c-6.1,0-11,4.9-11,11v76.7c0,6,4.9,11,11,11h76.7c6,0,11-4.9,11-11V562
		C-450.4,555.9-455.3,551-461.3,551z M-463.8,643.3h-71.8c-3.9,0-7.1-3.2-7.1-7.1v-71.8c0-3.9,3.2-7.1,7.1-7.1h71.8
		c3.9,0,7.1,3.2,7.1,7.1v71.8C-456.7,640.1-459.9,643.3-463.8,643.3z"/>
	<g>
		<circle class="st0" cx="-529.9" cy="612.6" r="1.3"/>
		<circle class="st0" cx="-535" cy="607.6" r="1.3"/>
		<path class="st0" d="M-460.4,597.5l-2.6-0.1l2.7-21.5c0.1-2.2-0.3-4-1.4-5.2s-2.8-1.8-4.8-1.8c-1.9,0-4.7,1.1-6.2,6.5l-3.3,12.2
			c-1.1-1.2-2.6-2.2-4.4-2.2c0,0,0,0-0.1,0c0,0,0,0-0.1,0c-2,0-3.7,1.1-4.7,2.7c0,0,0,0-0.1-0.1c-1.1-1.4-2.6-2.5-4.4-2.6l0,0
			c-0.1,0-0.2,0-0.4,0c-0.1,0-0.2,0-0.3,0h-0.1c-0.1,0-0.1,0-0.2,0s-0.1,0-0.2,0h-0.1c-1.2,0.2-2.2,0.8-3,1.6l-2.1-14.2
			c-0.1-1.4-0.4-2.6-0.8-3.6c-0.4-1.1-1.7-4.5-5.4-4.5c-1.5,0-3,0.7-4.3,2.1c-1.4,1.4-2.1,3.3-1.9,5.1l1.7,22.9l-5.8-0.2
			c-0.3-0.4-0.7-0.8-1-1.1c-2.8-2.8-6.4-4.4-10.2-4.7v-0.5c0-0.7-0.6-1.3-1.2-1.3c-0.7,0-1.3,0.6-1.3,1.2v0.5
			c-3.9,0.3-7.5,1.9-10.3,4.7c-3.1,3.1-4.8,7.2-4.8,11.5s1.7,8.4,4.8,11.5c2.8,2.8,6.4,4.4,10.3,4.7v0.5c0,0.7,0.6,1.3,1.3,1.2
			c0.3,0,0.7-0.1,0.9-0.4c0.2-0.2,0.4-0.5,0.4-0.9V621c3.9-0.3,7.4-2,10.2-4.7c0.4-0.4,0.7-0.7,1-1.1c0,0,1.2-0.1,2.7-0.1
			c0,0.5,0,1,0,1.6v0.1c0,5.8,4,10.2,5.5,11.6v5c0,3,2.5,5.5,5.5,5.5h24.8c3,0,5.5-2.5,5.5-5.5v-5c4-5.4,4.1-6.3,4.1-15.8l4-0.2
			c0.3,0,0.6-0.2,0.8-0.4c0.2-0.2,0.4-0.5,0.4-0.9v-5v-2.5v-5C-459.2,598.1-459.7,597.5-460.4,597.5z M-474.1,591.3l4.1-15.1
			c0.4-1.7,1.7-4.5,3.6-4.5c1.4,0,2.2,0.3,2.8,0.8c0.6,0.6,0.8,1.7,0.7,3l-2.7,21.7l-8.4-0.5v-4.5c0-0.2,0-0.5,0-0.7
			C-474.2,591.4-474.1,591.4-474.1,591.3z M-483.6,592.2c0-1.3,0.6-2.6,1.5-3.4c0.4-0.3,1-0.6,1.5-0.6c1.7,0,3,1.7,3.4,3.2
			c0.1,0.2,0.2,0.4,0.4,0.6c0,0.1,0,0.2,0,0.3v15c0,1.9-1.4,4.1-3.3,4.1s-3.6-2.2-3.6-4.1v-15.1H-483.6z M-493.4,592.2
			c0-0.9,0.4-2,1-2.7c0.6-0.7,1.3-1.1,2.1-1.1c1.7,0,3,1.7,3.4,3.2c0.1,0.2,0.2,0.4,0.4,0.6v0.1v15c0,1.9-1.4,4.1-3.3,4.1
			c-0.8,0-1.7-0.4-2.3-1.2c1.5-1.6,2.5-3,3.2-4.2c0.3-0.4,0.5-0.8,0.6-1.2c1.4-2.9,0-7-2.8-8.7c-0.4-0.2-1.3-0.6-2.3-0.6V592.2
			L-493.4,592.2z M-515.2,614.7c-2.3,2.3-5.3,3.7-8.4,4V600c0-0.7-0.6-1.3-1.3-1.2c-0.7,0-1.3,0.6-1.2,1.3v18.7
			c-3.2-0.3-6.2-1.7-8.5-4c-2.6-2.6-4-6.1-4-9.7c0-3.7,1.4-7.1,4-9.7c2.3-2.3,5.3-3.7,8.5-4v3.7c0,0.7,0.6,1.3,1.2,1.3
			c0.3,0,0.7-0.1,0.9-0.4c0.2-0.2,0.4-0.5,0.4-0.9v-3.7c3.2,0.3,6.2,1.7,8.5,4c2.6,2.6,4,6.1,4,9.7
			C-511.2,608.7-512.6,612.1-515.2,614.7z M-497.2,597.5c-0.3,0.4-0.7,0.8-1,1.3c-0.9,1.2-2.4,3.4-4.9,5.6l-2.7,2.1
			c-2.6,1.3-3.5,3.1-3.8,6.2l-1.1,0.1c1.3-2.4,2-5,2-7.8s-0.7-5.4-2-7.8L-497.2,597.5z M-503.8,594.7l-1.8-23
			c-0.2-1.1,0.4-2.2,1.2-3.2c0.7-0.7,1.5-1.1,2.2-1.1c1,0,1.9,0.3,2.9,2.8c0.3,0.8,0.6,1.8,0.7,3.3l2.6,17.6
			c-0.1,0.4-0.1,0.7-0.1,1.1v2.9L-503.8,594.7z M-471,627.1c-0.1,0.3-0.3,0.6-0.3,0.8v5.5c0,1.5-1.2,2.8-2.8,2.8h-24.8
			c-1.5,0-2.8-1.2-2.8-2.8v-5.5c0-0.4-0.1-0.8-0.4-1.1c-0.1,0-5-4.1-5.1-9.8c0-6.6,0.4-7.3,3.3-8.5c0.3-0.1,0.5-0.4,0.6-0.6
			c3.8-2.7,5.9-5.8,7.1-7.5c0.4-0.6,0.9-1.2,1.5-1.6c0.2,0,0.3-0.1,0.5-0.2c0.2-0.1,0.6-0.3,1.1-0.2c0.1,0,0.3,0.1,0.4,0.2
			c1.5,0.8,2.3,3.6,1.7,5.1c-0.7,1.5-2.8,4.3-8.8,9.4c-0.6,0.4-0.7,1.4-0.1,1.9c0.3,0.4,0.7,0.6,1.1,0.6c0.3,0,0.7-0.1,1-0.4
			c0.2-0.2,0.5-0.4,0.7-0.6l6.9-0.4c0.1,0,0.3,0,0.4,0c0.3,0,0.7,0,1-0.1l6.5-0.4c0.7,0.3,1.4,0.5,2.2,0.5c1,0,1.9-0.3,2.7-0.7
			l10.4-0.6C-467.1,621.9-467.3,622.1-471,627.1z M-467.1,610.4l-7.9,0.4c0.6-1.1,0.9-2.3,0.8-3.5v-8.1l8.1,0.5l2.8,0.1l1.5,0.1
			c0.1,0,0.1,5.1,0.1,5.1v5.1l-2.7,0.1L-467.1,610.4z"/>
	</g>
</g>
</svg>
