<?xml version="1.0" encoding="utf-8"?>
<!-- Generator: Adobe Illustrator 19.0.0, SVG Export Plug-In . SVG Version: 6.00 Build 0)  -->
<svg version="1.1" id="Capa_1" xmlns="http://www.w3.org/2000/svg" xmlns:xlink="http://www.w3.org/1999/xlink" x="0px" y="0px"
	 viewBox="-175 139 100 100" style="enable-background:new -175 139 100 100;" xml:space="preserve">
<style type="text/css">
	.st0{fill:none;}
	.st1{opacity:0.25;fill:#FFFFFF;}
	.st2{fill:#FFFFFF;}
</style>
<path class="st0" d="M-125,196.1c-13.6,0-40.2,7.2-40.2,24v3.2c0,3.5,2.8,6.3,6.3,6.3h69.3c2.7,0,4.9-2.2,4.9-4.9v-4.6h-0.1
	C-84.8,203.4-111.4,196.1-125,196.1z"/>
<circle class="st0" cx="-125" cy="169.2" r="20.1"/>
<path class="st1" d="M-137.4,173.6c0,5.9,2.6,11.2,6.7,14.9c1.8,0.5,3.8,0.9,5.8,0.9c11.1,0,20.1-9,20.1-20.1
	c0-5.9-2.6-11.2-6.7-14.9c-1.8-0.5-3.8-0.9-5.8-0.9C-128.4,153.5-137.4,162.5-137.4,173.6z"/>
<path class="st2" d="M-86.6,139.7h-76.7c-6.1,0-11,4.9-11,11v76.7c0,6,4.9,11,11,11h76.7c6,0,11-4.9,11-11v-76.7
	C-75.7,144.6-80.6,139.7-86.6,139.7z M-125,149.1c11.1,0,20.1,9,20.1,20.1c0,11.1-9,20.1-20.1,20.1s-20.1-9-20.1-20.1
	C-145.1,158.1-136.1,149.1-125,149.1z M-84.7,224.7c0,2.7-2.2,4.9-4.9,4.9h-69.3c-3.5,0-6.3-2.8-6.3-6.3v-3.2
	c0-16.8,26.6-24,40.2-24s40.2,7.3,40.2,24h0.1V224.7z"/>
<path class="st1" d="M-84.7,224.7v-4.6h-0.1c0-6-3.4-10.8-8.4-14.4c-8.1-3.6-17.6-5.2-24.1-5.2c-13.6,0-40.2,7.2-40.2,24v3.2
	c0,0.7,0.1,1.3,0.3,2h67.6C-86.9,229.6-84.7,227.4-84.7,224.7z"/>
</svg>
