<?xml version="1.0" encoding="utf-8"?>
<!-- Generator: Adobe Illustrator 19.0.0, SVG Export Plug-In . SVG Version: 6.00 Build 0)  -->
<svg version="1.1" id="Capa_1" xmlns="http://www.w3.org/2000/svg" xmlns:xlink="http://www.w3.org/1999/xlink" x="0px" y="0px"
	 viewBox="-175 139 100 100" style="enable-background:new -175 139 100 100;" xml:space="preserve">
<style type="text/css">
	.st0{fill:#FFFFFF;}
</style>
<path class="st0" d="M-86.6,139.7h-76.7c-6.1,0-11,4.9-11,11v76.7c0,6,4.9,11,11,11h76.7c6,0,11-4.9,11-11v-76.7
	C-75.7,144.6-80.6,139.7-86.6,139.7z M-89.1,232h-71.8c-3.9,0-7.1-3.2-7.1-7.1v-71.8c0-3.9,3.2-7.1,7.1-7.1h71.8
	c3.9,0,7.1,3.2,7.1,7.1v71.8C-82,228.8-85.2,232-89.1,232z"/>
<g>
	<g transform="translate(-1)">
		<g>
			<g>
				<path class="st0" d="M-85.9,172.5l-0.2-0.2c-1.6-1.6-4.3-1.6-5.9,0l-6.4,6.4c-0.3,0.3-0.9,0.4-1.2,0l-8.9-8.3
					c-0.9-0.8-2-1.2-3.2-1.2h-13.3c-0.3,0-0.6,0.1-0.8,0.3l-11.3,10.7c-1.7,1.7-1.8,4.3-0.3,5.9c0.8,0.9,1.9,1.3,3.1,1.3h0
					c1.2,0,2.3-0.5,3.1-1.3l8-8.4h2.9l-18.6,20.8h-11.5c-2.7,0-5,2-5.1,4.6c-0.1,1.4,0.4,2.6,1.3,3.6c0.9,1,2.2,1.5,3.5,1.5h17.1
					c0.3,0,0.7-0.1,0.9-0.4l8.8-9.4l7.4,7.7l-2.2,14.2c-0.6,2.4,0.6,4.8,2.7,5.7c0.7,0.3,1.3,0.4,2,0.4c0.7,0,1.5-0.2,2.2-0.5
					c1.3-0.7,2.3-1.8,2.6-3.3l3.8-20.4c0.1-0.4-0.1-0.8-0.3-1.1l-10.1-10.1l8.1-8l5.6,5.6c1.6,1.6,4.3,1.6,5.9,0l10.5-10.5
					c0.8-0.8,1.2-1.8,1.2-2.9C-84.7,174.3-85.1,173.3-85.9,172.5z"/>
				<path class="st0" d="M-99.4,173c4,0,7.3-3.3,7.3-7.3s-3.3-7.3-7.3-7.3c-4,0-7.3,3.3-7.3,7.3C-106.7,169.7-103.4,173-99.4,173z"
					/>
			</g>
		</g>
	</g>
	<g>
		<g>
			<path class="st0" d="M-128.2,162.4H-150c-1.3,0-2.3,1-2.3,2.3s1,2.3,2.3,2.3h21.7c1.3,0,2.3-1,2.3-2.3S-127,162.4-128.2,162.4z"
				/>
		</g>
	</g>
	<g>
		<g>
			<path class="st0" d="M-143.3,186.2H-156c-1.3,0-2.3,1-2.3,2.3s1,2.3,2.3,2.3h12.7c1.3,0,2.3-1,2.3-2.3S-142,186.2-143.3,186.2z"
				/>
		</g>
	</g>
	<g>
		<g>
			<path class="st0" d="M-142.9,174.3h-16.7c-1.3,0-2.3,1-2.3,2.3s1,2.3,2.3,2.3h16.7c1.3,0,2.3-1,2.3-2.3S-141.6,174.3-142.9,174.3
				z"/>
		</g>
	</g>
</g>
</svg>
