<?xml version="1.0" encoding="utf-8"?>
<!-- Generator: Adobe Illustrator 19.0.0, SVG Export Plug-In . SVG Version: 6.00 Build 0)  -->
<svg version="1.1" id="Capa_1" xmlns="http://www.w3.org/2000/svg" xmlns:xlink="http://www.w3.org/1999/xlink" x="0px" y="0px"
	 viewBox="-99 101 100 100" style="enable-background:new -99 101 100 100;" xml:space="preserve">
<style type="text/css">
	.st0{fill:#FFFFFF;}
</style>
<g>
	<path class="st0" d="M-10.7,101.7h-76.7c-6.1,0-11,4.9-11,11v76.7c0,6,4.9,11,11,11h76.7c6,0,11-4.9,11-11v-76.7
		C0.2,106.6-4.7,101.7-10.7,101.7z M-13.2,194H-85c-3.9,0-7.1-3.2-7.1-7.1V115c0-3.9,3.2-7.1,7.1-7.1h71.8c3.9,0,7.1,3.2,7.1,7.1
		v71.8C-6.1,190.8-9.3,194-13.2,194z"/>
	<g>
		<path class="st0" d="M-43,141.1c0-10.9-8.8-19.7-19.7-19.7s-19.7,8.8-19.7,19.7c0,7.9,4.6,14.6,11.2,17.8c-1,2.4-3.2,4.2-5.5,5.4
			c-3.6,1.9-6.9,3.7-9.3,7.2c-2.1,3.1-3.3,6.8-3.3,10.6v7.3c0,1,0.8,1.8,1.8,1.8h24.7h24.7c1,0,1.8-0.8,1.8-1.8v-7.3
			c0-3.8-1.2-7.5-3.3-10.6c-2.4-3.5-5.7-5.3-9.3-7.2c-2.3-1.2-4.5-3-5.5-5.4C-47.6,155.9-43,149.1-43,141.1z"/>
		<path class="st0" d="M-8.7,130.9L-8.7,130.9c-5.3,5.3-13.9,5.2-19.1-0.2c-4.9-5.1-4.9-13.2-0.1-18.3c0.1-0.1,0.2-0.2,0.3-0.3
			c0.6-0.6,0-1.7-0.8-1.5c-3.1,0.7-6.1,2.4-8.5,4.8c-6.7,6.9-6.7,17.9,0.2,24.7c6.9,6.9,18,6.9,24.8,0c2.4-2.4,3.9-5.3,4.7-8.3
			C-7,130.8-8,130.1-8.7,130.9z"/>
	</g>
</g>
</svg>
