<?xml version="1.0" encoding="utf-8"?>
<!-- Generator: Adobe Illustrator 19.0.0, SVG Export Plug-In . SVG Version: 6.00 Build 0)  -->
<svg version="1.1" id="Capa_1" xmlns="http://www.w3.org/2000/svg" xmlns:xlink="http://www.w3.org/1999/xlink" x="0px" y="0px"
	 viewBox="-99 101 100 100" style="enable-background:new -99 101 100 100;" xml:space="preserve">
<style type="text/css">
	.st0{fill:#FFFFFF;}
</style>
<g>
	<path class="st0" d="M-49,151c11.1,0,20.1-9,20.1-20.1s-9-20.1-20.1-20.1c-11.1,0-20.1,9-20.1,20.1S-60.1,151-49,151z M-8.8,181.8
		c0-16.7-26.6-24-40.2-24s-40.2,7.2-40.2,24v3.2c0,3.5,2.8,6.3,6.3,6.3h69.3c2.7,0,4.9-2.2,4.9-4.9V181.8z"/>
</g>
<path class="st0" d="M-10.6,101.7h-76.7c-6.1,0-11,4.9-11,11v76.7c0,6,4.9,11,11,11h76.7c6,0,11-4.9,11-11v-76.7
	C0.3,106.6-4.6,101.7-10.6,101.7z M-6,186.9c0,3.9-3.2,7.1-7.1,7.1h-71.8c-3.9,0-7.1-3.2-7.1-7.1v-71.8c0-3.9,3.2-7.1,7.1-7.1h71.8
	c3.9,0,7.1,3.2,7.1,7.1V186.9z"/>
</svg>
