<?xml version="1.0" encoding="utf-8"?>
<!-- Generator: Adobe Illustrator 19.0.0, SVG Export Plug-In . SVG Version: 6.00 Build 0)  -->
<svg version="1.1" id="Capa_1" xmlns="http://www.w3.org/2000/svg" xmlns:xlink="http://www.w3.org/1999/xlink" x="0px" y="0px"
	 viewBox="-99 101 100 100" style="enable-background:new -99 101 100 100;" xml:space="preserve">
<style type="text/css">
	.st0{fill:#FFFFFF;}
</style>
<path class="st0" d="M-10.7,101.7h-76.7c-6.1,0-11,4.9-11,11v76.7c0,6,4.9,11,11,11h76.7c6,0,11-4.9,11-11v-76.7
	C0.2,106.6-4.7,101.7-10.7,101.7z M-13.2,194H-85c-3.9,0-7.1-3.2-7.1-7.1V115c0-3.9,3.2-7.1,7.1-7.1h71.8c3.9,0,7.1,3.2,7.1,7.1
	v71.8C-6.1,190.8-9.3,194-13.2,194z"/>
<g>
	<path class="st0" d="M-15.5,111.7h-57.4c-3.3,0-6,2.7-6,6v8.4c-1.2,2.1-7.8,14.7-9.1,24.7c-0.2,1.8,0,3.5,0.6,5.2l5,19.5
		c0.1,0.5,0.2,0.9,0.3,1.4c0.1,0.5,0.2,0.9,0.3,1.4c0.2,0.7,0.2,1.4,0.2,2.1v7.2c0,1.4,1.2,2.6,2.6,2.6h17c1.4,0,2.6-1.2,2.6-2.6
		l0-7.3c0-0.3,0-0.6,0.1-0.9c0.2-1.1,0.5-2.2,0.9-3.2l0.1-0.2c3-8.9,1.3-18.8,0.5-22.4h42.1c3.3,0,6-2.7,6-6v-29.9
		C-9.5,114.4-12.2,111.7-15.5,111.7z M-76.3,117.7c0-1.9,1.5-3.4,3.4-3.4h3.2V151h-3.2c-1.9,0-3.4-1.5-3.4-3.4V117.7z M-76.3,152.6
		c1,0.7,2.2,1.1,3.4,1.1h3.1c-0.3,1.5-1.5,2.6-3,2.6c-0.9,0-1.7-0.3-2.3-0.9c-0.7-0.7-1.2-1.7-1.2-2.7V152.6z M-60.6,175l-0.1,0.1
		c-0.5,1.2-0.9,2.6-1.1,3.9c-0.1,0.4-0.1,0.8-0.1,1.3l0,6v1.3h-17v-7.2c0-0.9-0.1-1.9-0.3-2.8c-0.1-0.4-0.2-0.9-0.3-1.3
		c-0.1-0.5-0.2-1-0.3-1.5l-5-19.6c0-0.1,0-0.1,0-0.1c-0.5-1.3-0.7-2.6-0.5-4c0.8-6.4,4.1-14.3,6.5-19.2v20.7c0,1.7,0.7,3.4,2,4.6
		c1.1,1.1,2.7,1.7,4.3,1.6c3.1-0.2,5.5-2.8,5.5-5.9v-17.3c0-1.7,1.3-3.2,3.1-3.3c0.9,0,1.7,0.3,2.3,0.9c0.7,0.7,1.2,1.7,1.2,2.7
		v16.6c0,0.1,0,0.2,0.1,0.4C-60.5,153-57.1,164.9-60.6,175z M-12.1,140.8c-0.4-0.2-0.9-0.2-1.3-0.2c-0.7,0-1.3-0.6-1.3-1.3v-13.1
		c0-0.7,0.6-1.3,1.3-1.3c0.4,0,0.9-0.1,1.3-0.2V140.8z M-12.1,120.9c0,0.7-0.6,1.3-1.3,1.3c-2.2,0-3.9,1.8-3.9,3.9v13.1
		c0,2.2,1.8,3.9,3.9,3.9c0.7,0,1.3,0.6,1.3,1.3v3.2c0,1.9-1.5,3.4-3.4,3.4h-5.5v-3.8h0c0-7-11.1-10-16.8-10s-16.8,3-16.8,10v3.8H-58
		v-15c0-1.7-0.7-3.4-2-4.6c-1.1-1.1-2.7-1.7-4.3-1.6c-1,0.1-2,0.4-2.9,1v-16.5h51.6c1.9,0,3.4,1.5,3.4,3.4V120.9z"/>
	<path class="st0" d="M-32.9,119c-8.3-5-17,3.6-11.9,11.9c0.5,0.8,1.1,1.4,1.9,1.9c8.3,5,17-3.6,11.9-11.9
		C-31.5,120.2-32.1,119.5-32.9,119z"/>
</g>
</svg>
