<svg width="465" height="151" viewBox="0 0 465 151" fill="none" xmlns="http://www.w3.org/2000/svg">
<path d="M279.873 67.6655C274.448 66.1328 265.789 64.0947 256.297 66.622C254.532 67.0948 253.34 67.8611 252.506 69.3449C252.081 70.0786 251.706 70.8776 251.918 71.6928C252.098 72.3776 253.094 72.6222 253.879 72.7526C254.647 72.8667 256.362 72.9646 256.836 72.4102C257.081 72.1167 257.081 71.3015 255.823 71.0406C255.349 70.9428 254.091 70.8939 253.993 70.6819C253.993 70.6819 254.042 70.5351 254.728 70.3232C255.039 70.2254 257.293 69.296 263.469 69.4916C270.821 69.7199 277.226 71.4482 284.023 74.1059C290.656 76.7147 298.122 81.4268 302.501 87.052C304.151 89.1717 306.21 92.6772 306.488 95.6121C307.141 102.754 300.148 108.787 285.967 108.297C283.549 108.216 280.592 107.645 280.592 107.645L280.297 93.8675C280.297 93.8675 286.294 93.8186 292.943 96.0035C293.515 96.1828 294.071 96.5578 294.136 97.1122C294.169 97.5361 293.842 97.8948 293.466 98.2209C292.78 98.8242 291.832 99.0851 291.62 99.3297C291.473 99.509 291.473 99.7862 291.669 99.9492C292.175 100.341 293.384 100.601 294.218 100.52C295.884 100.373 297.011 99.4112 297.845 98.1394C298.743 96.7861 299.25 93.362 294.479 91.1772C288.32 88.3564 280.265 88.8782 280.265 88.8782C280.265 88.8782 280.216 87.0031 280.134 85.764C280.003 83.7258 279.432 79.7148 277.569 78.5572C277.226 78.3452 276.817 78.3289 276.572 78.6387C276.213 79.1115 275.853 80.9051 275.772 81.3779C275.069 85.552 275.102 89.3021 275.069 89.351C275.053 89.3836 275.02 89.4 275.004 89.4163C274.939 89.4652 270.478 89.9869 266.181 91.8457C264.466 92.5957 262.015 93.9327 261.264 95.6447C260.3 97.8622 261.999 100.308 264.842 102.998C267.26 105.281 270.821 107.678 273.452 108.933C274.122 109.243 274.906 109.634 274.906 109.634C274.906 109.634 275.069 111.232 275.216 112.145C275.706 115.455 278.239 114.982 278.941 114.836C280.085 114.607 280.297 113.857 280.444 112.977C280.526 112.504 280.494 111.803 280.494 111.803C280.494 111.803 282.209 112.194 283.369 112.406C286.718 113.026 290.362 113.124 293.515 112.7C306.144 110.971 309.314 105.036 310.327 103.455C312.075 100.699 315.784 93.0196 304.609 81.6225C302.06 79.0137 294.691 71.8558 279.889 67.6655H279.873ZM263.191 98.7101C262.734 98.2372 262.375 97.7318 262.489 97.1122C262.587 96.5089 263.763 95.9871 264.351 95.8241C270.037 94.1447 274.873 94.0632 274.873 94.0632C274.873 94.0632 274.824 96.1013 274.824 98.1557C274.808 102.069 274.906 106.031 274.906 106.031C274.906 106.031 268.485 104.172 263.191 98.7101Z" fill="url(#paint0_linear_9337_847)"/>
<path d="M321.028 84.3617C323.692 83.3182 325.767 81.8181 327.841 79.6822C329.067 78.443 330.129 76.4049 329.737 74.5625C329.541 73.6331 329.116 73.0135 328.348 72.345C327.972 72.0189 327.09 71.546 326.371 71.4156C326.159 71.3667 325.946 71.3667 325.848 71.3015C325.75 71.2362 325.668 71.1058 325.57 70.9754C325.097 70.3884 324.182 69.8177 323.512 69.5894C321.47 68.8883 318.725 69.4101 316.862 70.1927C314.885 71.0243 313.072 72.2472 311.683 73.7309C308.056 77.6115 309.657 80.6768 309.968 81.2475C310.245 81.7366 310.752 82.2584 310.866 82.7638C310.931 83.0573 310.866 83.4649 310.882 83.8074C310.915 84.6226 311.258 85.4705 311.879 86.0085C312.32 86.3998 312.957 86.514 313.595 85.552C313.807 85.2259 314.166 84.5737 314.166 84.5737C314.166 84.5737 314.902 84.9976 316.699 85.128C318.039 85.2259 319.852 84.8183 321.028 84.3617ZM312.484 79.6822C312.484 79.6822 312.353 79.4213 312.288 79.2257C311.732 77.856 312.957 76.3234 314.052 75.3777C316.209 73.5515 318.039 73.5842 318.039 73.5842C318.039 73.5842 317.597 73.9429 317.238 74.2527C314.085 76.9919 312.484 79.6659 312.484 79.6659V79.6822ZM317.189 79.6333C318.512 77.9376 320.947 75.8342 322.646 74.8233C323.986 74.0244 325.129 73.8124 325.995 74.1874C326.502 74.4157 326.91 74.8722 326.976 75.4918C327.204 77.3995 324.999 78.9974 323.512 79.8616C320.146 81.8181 316.176 81.3779 316.078 81.1986C316.078 81.1496 316.879 80.0409 317.189 79.6333Z" fill="url(#paint1_linear_9337_847)"/>
<path d="M397.213 90.0195C392.933 87.052 386.038 96.4437 382.999 101.107C382.542 98.7427 384.159 95.7263 384.159 95.7263C384.159 95.7263 386.741 91.275 387.1 90.3619C387.459 89.4489 387.656 87.5738 387.214 87.3944C386.806 87.2151 386.12 87.8021 386.12 87.8021C380.336 92.987 379.519 98.7427 379.519 98.7427C378.98 101.841 379.617 104.009 380.548 105.542C377.33 112.39 375.761 118.358 376.17 121.879C376.562 124.57 378.49 126.51 379.666 126.918C380.843 127.407 381.055 125.988 381.055 125.988C382.019 118.684 383.685 113.808 385.679 108.998C391.707 110.384 396.249 104.515 397.867 101.726C398.815 100.047 399.321 97.797 399.321 95.6936C399.321 93.2805 398.651 91.063 397.23 90.0358L397.213 90.0195ZM393.276 101.661C392.59 102.313 390.286 103.602 387.917 103.879C390.188 99.4927 392.998 96.2643 394.55 94.5523C396.364 92.5142 396.609 94.3729 396.609 94.3729C397.034 97.9763 394.403 100.683 393.276 101.678V101.661Z" fill="url(#paint2_linear_9337_847)"/>
<path d="M377.379 105.134C377.673 104.042 376.66 102.835 375.761 102.607C374.912 102.428 368.442 103.65 367.674 103.846C366.841 104.074 367.216 103.292 367.216 103.292L368.213 99.9166C368.213 99.9166 374.389 99.6721 375.287 99.5253C376.121 99.3786 376.17 98.7916 376.17 98.7916C376.17 98.7916 376.284 97.8296 376.251 96.9165C376.153 95.9545 375.385 96.0361 375.385 96.0361C373 95.7915 369.716 96.0687 369.716 96.0687L370.549 93.4762C370.549 93.4762 377.117 93.1501 379.617 92.5794C380.908 92.2696 380.14 91.0141 380.14 91.0141C378.588 87.8999 376.79 88.0792 376.79 88.0792C371.628 87.8999 364.112 89.2695 363.295 89.6771C362.527 90.0195 362.609 90.6065 363.606 91.862C364.684 93.1827 366.481 93.0686 366.481 93.0686L364.896 96.3458C363.606 96.4437 363.164 96.835 363.164 96.835C362.413 97.6339 363.442 99.9818 363.442 99.9818C363.442 99.9818 361.204 105.004 362.821 107.661C364.57 110.45 366.644 110.319 366.644 110.319C370.582 110.613 377.036 106.488 377.395 105.134H377.379Z" fill="url(#paint3_linear_9337_847)"/>
<path d="M354.799 85.1607C354.799 85.1607 353.884 84.7367 353.656 85.6498C353.427 86.5466 353.77 87.5086 353.77 87.5086C356.041 95.2208 356.564 99.7862 356.564 99.7862C356.564 99.7862 356.662 101.123 356.401 101.205C356.221 101.335 356.008 101.156 356.008 101.156C355.747 101.156 353.247 96.9817 353.247 96.9817L352.757 96.1665C350.012 91.7315 348.346 90.2315 348.346 90.2315C347.954 89.8728 346.957 88.8619 345.715 90.2315C344.474 91.6174 343.493 96.085 343.101 100.292C342.775 104.482 343.02 106.863 343.64 107.873C344.31 108.884 345.617 109.243 346.679 108.363C347.807 107.498 347.594 101.971 347.774 99.134C347.954 96.2806 348.231 96.8024 348.231 96.8024C348.477 96.7372 349.784 99.346 349.784 99.346C349.784 99.346 353.198 106.324 355.355 107.368C357.528 108.395 359.276 106.732 359.946 105.183C360.616 103.618 361.759 98.4329 360.06 92.6935C358.345 86.9542 354.816 85.177 354.816 85.177L354.799 85.1607Z" fill="url(#paint4_linear_9337_847)"/>
<path d="M319.28 99.9492C319.199 98.0416 318.97 93.1664 318.431 90.9652C318.202 90.0195 317.81 89.1554 316.878 88.7967C316.764 88.7641 316.65 88.7152 316.568 88.6988C315.98 88.5847 315.653 89.3837 315.49 89.7913C315.032 90.9815 314.689 93.8023 314.607 94.6828C314.33 97.3568 314.117 103.683 314.575 106.911C314.771 108.265 315.212 109.145 316.584 109.422C317.14 109.537 318.153 109.52 318.594 109.227C318.986 108.982 319.248 108.509 319.346 108.118C319.591 106.993 319.493 105.395 319.444 104.205C319.378 102.786 319.346 101.384 319.28 99.9492Z" fill="url(#paint5_linear_9337_847)"/>
<path d="M341.386 89.2695C338.429 87.7043 333.56 87.7043 330.554 88.0793C327.449 88.4706 323.283 89.4326 321.502 91.9761C320.832 92.9544 320.424 94.4382 320.734 95.6611C320.914 96.3296 321.404 96.8513 322.107 97.2263C323.365 97.8785 327.564 98.0253 329.443 98.2209C331.207 98.4166 334.458 98.7264 336.239 99.4764C336.239 99.4764 337.938 100.063 337.922 101.025C337.922 101.498 337.563 101.89 337.203 102.134C334.54 104.009 330.897 104.547 327.645 104.498C326.551 104.498 325.636 104.303 324.525 103.83C324.051 103.618 323.43 103.243 323.512 102.591C323.643 101.547 324.835 101.303 325.783 101.384C326.306 101.433 326.992 101.661 327.515 101.857C329.606 102.672 330.554 103.373 332.383 103.096C333.07 102.998 335.439 102.477 335.765 101.498C335.847 101.254 335.733 101.009 335.553 100.83C335.308 100.569 333.87 100.014 333.494 99.884C332.106 99.3949 329.443 98.9384 327.972 98.8731C326.044 98.8079 323.381 99.1992 322.286 100.797C321.29 102.232 321.077 105.134 325.995 107.58C328.283 108.721 331.06 109.21 333.609 108.933C335.063 108.77 339.278 108.118 340.863 104.776C341.713 102.982 341.631 100.585 340.716 98.8731C340.111 97.7481 339.376 96.248 333.87 95.5632C332.988 95.4491 326.534 94.6991 325.93 94.6175C325.603 94.5686 324.084 94.3893 324.623 93.8186C324.77 93.6556 325.227 93.5251 325.505 93.4599C328.903 92.5305 333.2 92.6446 336.762 92.4327C337.563 92.3838 339.36 92.2696 340.242 91.9924C341.075 91.7316 341.762 91.1446 341.958 90.2315C342.056 89.7424 341.827 89.5141 341.369 89.2695H341.386Z" fill="url(#paint6_linear_9337_847)"/>
<path d="M429.514 93.4436H419.368C419.253 89.938 418.894 86.4814 418.306 83.0899C418.208 82.503 417.701 82.079 417.097 82.079H414.368C413.829 82.079 413.437 82.5682 413.535 83.0899C414.172 86.4814 414.548 89.938 414.679 93.4436H404.369C403.896 93.4436 403.52 93.8349 403.52 94.3077V97.422C403.52 97.8948 403.896 98.2861 404.369 98.2861H414.679C414.564 101.792 414.172 105.248 413.535 108.64C413.437 109.162 413.845 109.651 414.368 109.651H417.097C417.685 109.651 418.191 109.227 418.306 108.64C418.894 105.232 419.253 101.775 419.368 98.2861H429.514C429.988 98.2861 430.363 97.8948 430.363 97.422V94.3077C430.363 93.8349 429.988 93.4436 429.514 93.4436Z" fill="url(#paint7_linear_9337_847)"/>
<path d="M289.725 55.8444C290.133 56.1216 290.689 55.9096 291.097 55.4857C294.577 51.7355 298.384 48.4909 302.73 45.5234C331.207 26.1205 372.984 28.9413 397.442 53.5291C405.48 61.5674 409.892 70.1927 412.212 76.9756C412.375 77.4647 412.849 77.8071 413.372 77.8071H416.182C416.77 77.8071 417.179 77.2365 416.999 76.6821C413.96 67.6818 408.062 57.8173 399.501 49.7953C373.833 25.664 332.253 22.99 303.285 42.7189C298.547 45.9147 293.842 50.0072 289.692 54.6867C289.284 55.1433 289.414 55.6487 289.741 55.8607L289.725 55.8444Z" fill="url(#paint8_linear_9337_847)"/>
<path d="M152.076 81.8018H77.149C77.149 81.8018 77.345 80.3344 77.5411 78.655C78.0802 74.1222 81.887 71.0895 87.6544 71.1058C90.6933 71.1058 143.89 71.1058 143.89 71.1058C150.948 71.1058 152.893 75.2473 152.337 79.8126C152.223 80.6931 152.092 81.8018 152.092 81.8018H152.076ZM116.197 85.8781L113.322 109.21H126.016L127.814 94.7317H143.76C148.285 94.7317 150.72 92.3022 151.161 89.0412C151.389 87.3944 151.553 85.8944 151.553 85.8944H116.181L116.197 85.8781ZM75.8909 71.1058H41.9076L40.6005 81.8018H74.5839L75.8909 71.1058ZM72.9827 94.7154L74.0774 85.8781H40.1104L37.2349 109.21H71.2182L72.4762 99.0851H51.204L51.7431 94.7154H73.0154H72.9827ZM183.69 71.1058H155.981L154.673 81.8018H191.516C191.516 81.8018 191.565 81.4105 191.728 80.155C192.627 73.1439 188.085 71.1058 183.706 71.1058H183.69ZM151.291 109.21H164.003L166.878 85.8781H154.167L151.291 109.21ZM175.423 109.21H188.134L191.01 85.8781H178.298L175.423 109.21ZM104.548 85.8781C102.342 85.8781 80.9721 85.8781 76.6425 85.8781C75.7112 91.9598 78.7664 94.7154 83.096 94.7154C85.4487 94.7154 100.284 94.7154 100.284 94.7154L99.7446 99.0851H75.025L73.7833 109.21C73.7833 109.21 100.709 109.21 101.803 109.21C102.702 109.145 109.008 108.982 111.149 103.83C111.851 102.167 112.456 96.1828 112.635 94.9273C113.632 87.639 108.567 85.8944 104.581 85.8944L104.548 85.8781Z" fill="white"/>
<path d="M213.458 97.4383V81.9486H223.865V84.6226H216.791V88.2749H223.196V90.8511H216.791V94.7643H223.865V97.4383H213.458Z" fill="white"/>
<path d="M226.496 97.4383V81.9486H229.829L236.642 92.1066V81.9486H239.975V97.4383H236.642L229.829 87.2966V97.4383H226.496Z" fill="white"/>
<defs>
<linearGradient id="paint0_linear_9337_847" x1="248.128" y1="93.2805" x2="301.321" y2="85.8976" gradientUnits="userSpaceOnUse">
<stop stop-color="#7A8AA9"/>
<stop offset="1" stop-color="white"/>
</linearGradient>
<linearGradient id="paint1_linear_9337_847" x1="247.294" y1="87.3781" x2="300.504" y2="79.9952" gradientUnits="userSpaceOnUse">
<stop stop-color="#7A8AA9"/>
<stop offset="1" stop-color="white"/>
</linearGradient>
<linearGradient id="paint2_linear_9337_847" x1="252.572" y1="125.336" x2="305.781" y2="117.937" gradientUnits="userSpaceOnUse">
<stop stop-color="#7A8AA9"/>
<stop offset="1" stop-color="white"/>
</linearGradient>
<linearGradient id="paint3_linear_9337_847" x1="251.232" y1="115.667" x2="304.425" y2="108.268" gradientUnits="userSpaceOnUse">
<stop stop-color="#7A8AA9"/>
<stop offset="1" stop-color="white"/>
</linearGradient>
<linearGradient id="paint4_linear_9337_847" x1="250.562" y1="110.906" x2="303.771" y2="103.507" gradientUnits="userSpaceOnUse">
<stop stop-color="#7A8AA9"/>
<stop offset="1" stop-color="white"/>
</linearGradient>
<linearGradient id="paint5_linear_9337_847" x1="250.219" y1="108.33" x2="303.412" y2="100.931" gradientUnits="userSpaceOnUse">
<stop stop-color="#7A8AA9"/>
<stop offset="1" stop-color="white"/>
</linearGradient>
<linearGradient id="paint6_linear_9337_847" x1="250.415" y1="109.814" x2="303.624" y2="102.414" gradientUnits="userSpaceOnUse">
<stop stop-color="#7A8AA9"/>
<stop offset="1" stop-color="white"/>
</linearGradient>
<linearGradient id="paint7_linear_9337_847" x1="251.64" y1="118.569" x2="304.833" y2="111.17" gradientUnits="userSpaceOnUse">
<stop stop-color="#7A8AA9"/>
<stop offset="1" stop-color="white"/>
</linearGradient>
<linearGradient id="paint8_linear_9337_847" x1="245.187" y1="72.1982" x2="298.396" y2="64.7989" gradientUnits="userSpaceOnUse">
<stop stop-color="#7A8AA9"/>
<stop offset="1" stop-color="white"/>
</linearGradient>
</defs>
</svg>
