<?xml version="1.0" encoding="utf-8"?>
<!-- Generator: Adobe Illustrator 26.1.0, SVG Export Plug-In . SVG Version: 6.00 Build 0)  -->
<svg version="1.1" id="Layer_1" xmlns="http://www.w3.org/2000/svg" xmlns:xlink="http://www.w3.org/1999/xlink" x="0px" y="0px"
	 viewBox="0 0 516 184.5" style="enable-background:new 0 0 516 184.5;" xml:space="preserve">
<style type="text/css">
	.st0{fill:url(#SVGID_1_);stroke:#FFFFFF;stroke-width:5.0549;}
	.st1{clip-path:url(#SVGID_00000157309391458151919820000006516074234391428264_);}
	.st2{fill:#FFFFFF;}
</style>
<linearGradient id="SVGID_1_" gradientUnits="userSpaceOnUse" x1="258.2635" y1="43.9528" x2="258.2635" y2="207.7325" gradientTransform="matrix(1 0 0 -1 0 180.9376)">
	<stop  offset="0" style="stop-color:#A7192F"/>
	<stop  offset="1" style="stop-color:#6A0C1A"/>
</linearGradient>
<path class="st0" d="M512.5-2.5H4l40.3,126.4l78.6,57.6h271.6l77.6-57.6L512.5-2.5z"/>
<g>
	<defs>
		<rect id="SVGID_00000015354022471715705950000012495828265964735929_" x="145" y="21.5" width="226" height="136"/>
	</defs>
	<clipPath id="SVGID_00000067197715322381510800000006072109454842706350_">
		<use xlink:href="#SVGID_00000015354022471715705950000012495828265964735929_"  style="overflow:visible;"/>
	</clipPath>
	<g style="clip-path:url(#SVGID_00000067197715322381510800000006072109454842706350_);">
		<path class="st2" d="M277.3,152.4c0.9,0,1.5,0.6,1.5,1.4c0,0.8-0.6,1.4-1.5,1.4s-1.5-0.5-1.5-1.3
			C275.8,152.9,276.4,152.4,277.3,152.4 M277.3,150.2c-0.6,0-1.1-0.4-1.1-0.9s0.4-0.9,1.1-0.9c0.7,0,1.1,0.4,1.1,0.9
			C278.4,149.8,277.9,150.2,277.3,150.2z M280.1,151.1c0.5-0.5,0.8-1.2,0.8-1.9c0-1.5-1.1-3-3.6-3c-1.1,0-2.1,0.4-2.8,1
			c-0.5,0.6-0.8,1.3-0.8,2.1c0,0.7,0.3,1.3,0.8,1.8c-0.9,0.7-1.5,1.6-1.5,2.8c0,1.7,1.3,3.6,4.3,3.6c1.3,0,2.5-0.4,3.3-1.2
			c0.6-0.7,1-1.5,1-2.4C281.5,152.7,281,151.7,280.1,151.1"/>
		<path class="st2" d="M288.1,155c-0.9,0-1.5-0.5-1.5-1.4c0-0.9,0.5-1.4,1.5-1.4c1,0,1.5,0.5,1.5,1.4
			C289.6,154.8,288.8,155,288.1,155z M288.5,150l2.3-3.8h-3.1l-3.1,5.1c-0.5,0.7-0.7,1.6-0.7,2.4c0,2.3,1.6,3.8,4.2,3.8
			c2.6,0,4.3-1.4,4.3-3.8c0-1.1-0.4-2-1-2.7C290.6,150.3,289.7,150,288.5,150z"/>
		<path class="st2" d="M298.6,148.6c0.7,0,1.5,0.2,1.5,1.4c0,0.9-0.5,1.4-1.5,1.4c-1,0-1.5-0.5-1.5-1.4
			C297.1,149.1,297.7,148.6,298.6,148.6z M298.6,146.2c-2.6,0-4.3,1.5-4.3,3.8c0,1.1,0.4,2,1,2.7c0.7,0.7,1.7,1,2.9,1h0l-2.4,3.7
			h3.1l3.1-4.9c0.5-0.8,0.7-1.5,0.8-2.4C302.9,147.6,301.2,146.2,298.6,146.2"/>
		<path class="st2" d="M164.9,138.9c0.4,1.2,0.6,2.5,0.6,4c0,0.6,0.6,1.1,1.2,0.9c3.7-1.4,7.7-2.8,11.7-4.2c0.6-0.2,0.8-0.9,0.4-1.4
			c-1-1.1-1.6-2.3-2.1-3.6c-2.6-7.3-4-11-6.7-18.3c3.7-1.4,12.2-4.2,15.9-5.5c2.5,7.4,3.4,11.2,5.9,18.6c0.4,1.4,0.7,2.8,0.5,4.4
			c-0.1,0.6,0.5,1.1,1.1,0.9c2.7-0.8,5.6-1.5,8.4-2.3c1.3-0.4,2.7-0.7,3.8-1c0.6-0.2,0.8-0.9,0.4-1.4c-1.1-1.3-1.7-2.6-2.1-4
			c-4.8-15-9-30.4-13.9-45.4c-0.5-1.5-0.8-2.7-0.6-4.4c0.1-0.6-0.5-1.1-1.1-0.9c-3.8,1.2-9.2,2.4-13.2,3.7c-0.6,0.2-0.8,1-0.4,1.4
			c1.2,1.3,1.8,2.5,2.3,3.9c2.3,6.8,3.8,10.4,6.1,17.2c-4.2,1.4-12.9,4.5-16.3,5.7c-2.5-6.7-3.7-10.5-6.2-17.1
			c-0.5-1.5-0.9-2.9-0.7-4.7c0-0.6-0.6-1.1-1.2-0.9c-3.6,1.3-9.2,3.4-13,5c-0.6,0.2-0.7,1-0.3,1.4c1.4,1.3,2.3,3.3,2.9,4.7
			C153.8,110,159.4,124.4,164.9,138.9"/>
		<path class="st2" d="M215.6,124.8c0.2,1.3,0.2,2.7-0.1,4.2c-0.1,0.6,0.4,1.2,1,1.1c9.4-1.6,18.2-2.4,28.3-3.4
			c0.3,0,0.6-0.1,0.9-0.1c-0.2-1.2-0.5-6.8-0.7-9.5c-0.1-0.6-0.7-0.9-1.2-0.7c-1.3,0.6-2.5,0.9-4,1.1c-1.8,0.2-10.7,1.4-13.8,1.8
			c-1-6.6-1.5-9.8-2.5-16.4c4-0.5,9-1.2,10.2-1.3c1.5-0.2,2.8-0.2,4.3,0.1c0.6,0.1,1.1-0.4,1.1-0.9c-0.3-2.3-0.8-6.5-1.1-8.8
			c-0.1-0.6-0.7-0.9-1.3-0.7c-1.4,0.7-2.8,1-4.2,1.2c-1.2,0.2-6.4,0.8-10.4,1.4c-0.9-5.5-1.3-8.3-2.2-13.8c3.3-0.4,12.3-1.7,14.6-2
			c1.7-0.2,3.3-0.1,5,0.2c0.6,0.1,1.1-0.3,1.1-0.9c-0.3-2.2-0.7-6.3-1-8.3c-0.1-0.5-0.5-0.8-0.9-0.8c-10.6,1-23,2.5-33.3,4.2
			c-0.6,0.1-0.9,0.8-0.6,1.3c1,1.5,1.3,2.8,1.6,4.4C209.2,93.7,213,109.2,215.6,124.8"/>
		<path class="st2" d="M324.2,132.8c9.7,2.3,20.2,4.9,30.1,8.1c0.4,0.1,0.9-0.1,1.1-0.5c0.9-2.6,1.9-6.4,2.6-8.6
			c0.2-0.6-0.3-1.2-0.9-1.1c-1.4,0.2-2.6,0-4-0.5c-1.4-0.4-8.4-2.5-13.8-3.9c11.1-11.3,20.4-21,31.2-32.4c0.1-0.2,0.2-0.4,0.2-0.6
			c0-2.7,0.2-3.2,0.2-5.7c0-0.4-0.2-0.7-0.6-0.8c-11.1-3.9-18.3-6.5-29.1-9.4c-0.4-0.1-0.9,0.1-1,0.6c-0.6,1.9-1.8,5.9-2.5,8
			c-0.2,0.6,0.3,1.1,0.9,1.1c1.6-0.1,2.8,0.2,4.4,0.7c1.4,0.4,8.8,2.5,14.2,4.1c-11.3,11.2-22.1,22.6-33.3,34
			c-0.2,0.2-0.2,0.4-0.2,0.6c0,2.3-0.1,3.4-0.1,5.6C323.6,132.4,323.9,132.8,324.2,132.8"/>
		<path class="st2" d="M280.1,121.7c-0.1,1.4-0.4,2.4-1.1,3.8c-0.3,0.5,0.1,1.2,0.7,1.2c3.2,0.2,6.6,0.8,9.7,1c0.6,0,1-0.5,0.9-1
			c-0.4-1.5-0.5-2.8-0.4-4.2c1.3-12.4,1-18.6,2.3-31c5.7,15,7.8,22.5,13.1,37.4c0.1,0.3,0.4,0.5,0.7,0.6c2.9,0.4,5.7,1.1,8.6,1.6
			c0.6,0.1,1-0.4,1-1c-0.2-1.3,0-2.8,0.2-4c2.7-15.5,6.1-30.9,8.9-46.3c0.3-1.6,0.9-2.8,1.9-4.5c0.3-0.5,0-1.1-0.6-1.2
			c-3.2-0.6-7.6-1.7-10.6-2.2c-0.6-0.1-1.1,0.4-0.9,1c0.3,1.8,0.3,3.5,0,5.1c-1.8,11.2-2.7,17.5-4.4,28.7
			c-5-14.3-7.6-22.3-12.8-36.4c-0.1-0.3-0.4-0.5-0.7-0.6c-4.8-0.5-8.7-1.1-12.1-1.3c-0.6,0-1,0.5-0.9,1.1c0.4,1.7,0.3,3.1,0.2,4.7
			C282.3,89.9,281.5,105.9,280.1,121.7"/>
		<path class="st2" d="M254.8,120.8c0,1.5-0.2,3.1-0.9,4.7c-0.2,0.6,0.2,1.2,0.8,1.2c2.8,0,9.4-0.1,12.6,0c0.6,0,1-0.6,0.8-1.2
			c-0.7-1.6-0.9-3.1-0.9-4.6c0.1-15.8,0.3-31.7,0.4-47.5c0-1.5,0.1-2.8,0.8-4.3c0.2-0.6-0.1-1.2-0.7-1.2c-3.5-0.1-9.7,0-12.7,0
			c-0.6,0-1,0.6-0.8,1.2c0.6,1.5,0.7,2.7,0.7,4.2C254.8,89.2,254.8,105,254.8,120.8"/>
		<path class="st2" d="M222.9,152.9h3.9v-2.5h-3.9v-1.6h4.2v-2.5h-7v11h7.1v-2.6h-4.3V152.9z"/>
		<path class="st2" d="M240.5,148.8h2.8v8.5h2.7v-8.5h2.8v-2.5h-8.3V148.8z"/>
		<path class="st2" d="M269.1,146.3h-4.2v2.3h1.6v6.5h-1.8v2.2h6.3v-2.2h-1.8V146.3z"/>
		<path class="st2" d="M234.4,150.6c-1.3-0.1-1.8-0.3-1.8-0.9c0-0.6,0.8-1,1.5-1c0.7,0,1.6,0.3,1.7,1l0,0.2h2.6v-0.3
			c0-2.5-2.2-3.4-4.3-3.4c-2.1,0-4.3,0.9-4.3,3.6c0,2.8,3.1,3.1,4.1,3.2c1.2,0.1,2,0.2,2,1.1c0,0.3,0,1-1.8,1
			c-0.8,0-1.8-0.3-1.9-1.1l0-0.2h-2.7v0.3c0,2.5,2.4,3.6,4.6,3.6c2.9-0.1,4.5-1.3,4.5-3.5C238.7,151.2,236.5,150.8,234.4,150.6"/>
		<path class="st2" d="M253.3,148.3h0.7c0.9,0,1.4,0.8,1.4,1.5c0,0.8-0.4,1.5-1.4,1.5h-0.7V148.3z M254,146.3h-2.7v7h2.7
			c1,0,1.8-0.3,2.5-1c0.6-0.6,1-1.6,1-2.5C257.4,148.1,256.2,146.3,254,146.3"/>
		<path class="st2" d="M255.1,155.1h-2.4v2.4h2.4V155.1z"/>
		<path class="st2" d="M145.3,26.9l0.8-5h14.7l0.7,5c-0.2-0.2-0.5-0.3-0.8-0.5c-0.3-0.1-0.7-0.2-1-0.3c-0.4-0.1-0.8-0.1-1.2-0.1
			h-2.6l0,16.7c0,0.4,0,0.8,0.1,1.2c0,0.3,0.1,0.7,0.2,1.1c0.1,0.4,0.2,0.7,0.4,1h-6.2c0.2-0.3,0.3-0.7,0.4-1.1
			c0.1-0.4,0.2-0.7,0.2-1.1c0-0.4,0.1-0.8,0.1-1.2V26h-2.6c-0.4,0-0.8,0-1.2,0.1c-0.3,0-0.7,0.1-1,0.2
			C145.7,26.5,145.4,26.7,145.3,26.9z"/>
		<path class="st2" d="M163.3,46c0.2-0.3,0.3-0.7,0.4-1.1c0.1-0.4,0.2-0.7,0.2-1.1c0-0.4,0.1-0.8,0.1-1.2V25.2c0-0.4,0-0.8-0.1-1.2
			c0-0.3-0.1-0.7-0.2-1.1c-0.1-0.4-0.2-0.8-0.4-1.1h6.2c-0.2,0.3-0.3,0.7-0.4,1.1c-0.1,0.4-0.1,0.8-0.2,1.1c0,0.4-0.1,0.8-0.1,1.2
			v17.4c0,0.4,0,0.8,0.1,1.2c0,0.3,0.1,0.7,0.2,1.1c0.1,0.4,0.2,0.7,0.4,1H163.3z"/>
		<path class="st2" d="M172.1,46c0.1-0.2,0.3-0.5,0.3-0.9c0.1-0.3,0.1-0.7,0.2-1c0-0.4,0.1-0.7,0.1-1.1V24.8c0-0.4,0-0.8-0.1-1.2
			c0-0.3-0.1-0.7-0.2-1c-0.1-0.3-0.2-0.6-0.3-0.8h12.1L185,27c-0.3-0.2-0.7-0.4-1-0.6s-0.6-0.2-0.9-0.3c-0.3-0.1-0.6-0.1-0.9-0.1
			h-4.7v5.4h3.3c0.3,0,0.6,0,0.9-0.1c0.3,0,0.6-0.1,0.9-0.2c0.3-0.1,0.6-0.3,0.9-0.4v5.6c-0.3-0.2-0.6-0.3-0.9-0.4
			c-0.3-0.1-0.6-0.2-0.9-0.2c-0.3-0.1-0.6-0.1-0.9-0.1h-3.3v6.2h4.8c0.3,0,0.6,0,0.9-0.1c0.3,0,0.6-0.1,0.8-0.2
			c0.3-0.1,0.6-0.2,0.8-0.4l-0.7,5L172.1,46L172.1,46z"/>
		<path class="st2" d="M186.7,21.8h4.9l6.4,13.9V24.9c0-0.4,0-0.7-0.1-1.1c0-0.3-0.1-0.6-0.2-1c-0.1-0.3-0.2-0.6-0.3-0.9h5.4
			c-0.1,0.3-0.2,0.6-0.3,1c-0.1,0.3-0.1,0.7-0.2,1c0,0.4-0.1,0.7-0.1,1.1v18.2c0,0.3,0,0.6,0.1,1c0,0.3,0.1,0.6,0.2,1
			c0.1,0.3,0.2,0.7,0.3,1h-4.5l-6.8-14.4l0,11.4c0,0.3,0,0.7,0.1,1c0,0.3,0.1,0.6,0.2,1c0.1,0.3,0.2,0.7,0.3,1h-5.4
			c0.1-0.3,0.2-0.6,0.3-0.9c0.1-0.3,0.1-0.7,0.2-0.9c0-0.3,0.1-0.7,0.1-1.1V24.9c0-0.4,0-0.7-0.1-1.1c0-0.3-0.1-0.6-0.2-1
			C187,22.4,186.9,22.1,186.7,21.8L186.7,21.8z"/>
		<path class="st2" d="M204.8,46c0.1-0.2,0.3-0.5,0.3-0.9c0.1-0.3,0.1-0.7,0.2-1c0-0.4,0.1-0.7,0.1-1.1V24.8c0-0.4,0-0.8-0.1-1.2
			c0-0.3-0.1-0.7-0.2-1c-0.1-0.3-0.2-0.6-0.3-0.8h12.1l0.8,5.1c-0.3-0.2-0.7-0.4-1-0.6c-0.3-0.1-0.6-0.2-0.9-0.3
			c-0.3-0.1-0.6-0.1-0.9-0.1h-4.7v5.4h3.3c0.3,0,0.6,0,0.9-0.1c0.3,0,0.6-0.1,0.9-0.2c0.3-0.1,0.6-0.3,0.9-0.4v5.6
			c-0.3-0.2-0.6-0.3-0.9-0.4c-0.3-0.1-0.6-0.2-0.9-0.2c-0.3-0.1-0.6-0.1-0.9-0.1h-3.3v6.2h4.8c0.3,0,0.6,0,0.9-0.1
			c0.3,0,0.6-0.1,0.8-0.2c0.3-0.1,0.6-0.2,0.8-0.4l-0.7,5L204.8,46L204.8,46z"/>
		<path class="st2" d="M228.6,33.8c0-1.7,0.3-3.3,0.8-4.8c0.5-1.5,1.2-2.8,2.2-3.9c0.9-1.1,2-2,3.3-2.6c1.3-0.6,2.6-0.9,4.1-0.9
			c1.7,0,3.1,0.4,4.3,1.1c1.2,0.7,2.3,1.7,3.1,2.8c0.8,1.2,1.4,2.5,1.8,4c0.4,1.5,0.6,2.9,0.6,4.4c0,1.1-0.1,2.2-0.3,3.4
			c-0.2,1.2-0.6,2.3-1.1,3.3c-0.5,1.1-1.1,2-1.9,2.9c-0.8,0.9-1.7,1.5-2.7,2.1c0.3,0.4,0.6,0.8,0.9,1.2c0.3,0.4,0.5,0.7,0.8,1
			c0.3,0.3,0.5,0.6,0.8,0.8c0.3,0.3,0.6,0.5,1,0.7c-1.2,0.5-2.2,0.7-3.2,0.7c-0.6,0-1.1-0.1-1.5-0.2c-0.4-0.2-0.8-0.3-1.1-0.5
			c-0.3-0.2-0.5-0.4-0.7-0.6c-0.2-0.2-0.3-0.3-0.4-0.4c-0.3-0.4-0.6-0.7-0.7-1c-0.2-0.3-0.3-0.6-0.6-0.9c-1.6-0.1-3-0.5-4.2-1.2
			c-1.2-0.8-2.2-1.7-3-2.9c-0.8-1.2-1.4-2.5-1.7-3.9S228.7,35.2,228.6,33.8L228.6,33.8z M233.6,33.7c0,0.7,0.1,1.6,0.3,2.5
			c0.2,0.9,0.5,1.8,0.9,2.7c0.4,0.8,1,1.5,1.6,2.1c0.7,0.6,1.5,0.9,2.4,0.9c0.8,0,1.6-0.2,2.2-0.7c0.6-0.4,1.1-1,1.5-1.7
			c0.4-0.7,0.7-1.5,0.9-2.4c0.2-0.9,0.3-1.8,0.3-2.8c0-0.7-0.1-1.6-0.3-2.5c-0.2-1-0.5-1.9-0.9-2.7c-0.4-0.8-0.9-1.6-1.6-2.1
			c-0.7-0.6-1.5-0.9-2.4-0.9c-0.9,0-1.8,0.3-2.4,0.8c-0.6,0.5-1.2,1.1-1.5,1.9s-0.7,1.6-0.8,2.5C233.7,32.1,233.6,32.9,233.6,33.7
			L233.6,33.7z"/>
		<path class="st2" d="M250.6,21.8h5.9c-0.1,0.4-0.2,0.8-0.3,1.1c0,0.3-0.1,0.7-0.2,0.9c0,0.3-0.1,0.6-0.1,0.9V38
			c0,1.1,0.2,1.9,0.6,2.7c0.4,0.7,1.2,1.1,2.4,1.1c2.1,0,3.1-1.2,3.1-3.7V24.8c0-0.3,0-0.6-0.1-1c0-0.3-0.1-0.6-0.2-1
			c-0.1-0.3-0.2-0.7-0.3-1h5.9c-0.1,0.4-0.2,0.8-0.2,1.1c0,0.3-0.1,0.7-0.1,0.9c0,0.3-0.1,0.6-0.1,0.9v13.3c0,2.5-0.7,4.5-2,6
			c-1.4,1.5-3.3,2.2-5.9,2.2c-2.6,0-4.6-0.7-5.9-2.1c-1.3-1.4-1.9-3.4-1.9-6V24.8c0-0.3,0-0.6-0.1-0.9c0-0.3-0.1-0.6-0.2-0.9
			C250.8,22.6,250.7,22.2,250.6,21.8z"/>
		<path class="st2" d="M269.4,46c0.1-0.2,0.3-0.5,0.3-0.9c0.1-0.3,0.1-0.7,0.2-1c0-0.4,0.1-0.7,0.1-1.1V24.8c0-0.4,0-0.8-0.1-1.2
			c0-0.3-0.1-0.7-0.2-1c-0.1-0.3-0.2-0.6-0.3-0.8h12.1l0.8,5.1c-0.3-0.2-0.7-0.4-1-0.6c-0.3-0.1-0.6-0.2-0.9-0.3
			c-0.3-0.1-0.6-0.1-0.9-0.1h-4.7v5.4h3.3c0.3,0,0.6,0,0.9-0.1c0.3,0,0.6-0.1,0.9-0.2c0.3-0.1,0.6-0.3,0.9-0.4v5.6
			c-0.3-0.2-0.6-0.3-0.9-0.4c-0.3-0.1-0.6-0.2-0.9-0.2c-0.3-0.1-0.6-0.1-0.9-0.1h-3.3v6.2h4.8c0.3,0,0.6,0,0.9-0.1
			c0.3,0,0.6-0.1,0.8-0.2c0.3-0.1,0.6-0.2,0.8-0.4l-0.7,5L269.4,46L269.4,46z"/>
		<path class="st2" d="M291.9,46c0.1-0.2,0.3-0.5,0.3-0.9c0.1-0.3,0.1-0.7,0.2-1c0-0.4,0.1-0.7,0.1-1.1V24.8c0-0.4,0-0.8-0.1-1.2
			c0-0.3-0.1-0.7-0.2-1c-0.1-0.3-0.2-0.6-0.3-0.8H304l0.8,5.1c-0.3-0.2-0.7-0.4-1-0.6s-0.6-0.2-0.9-0.3c-0.3-0.1-0.6-0.1-0.9-0.1
			h-4.7v5.4h3.3c0.3,0,0.6,0,0.9-0.1c0.3,0,0.6-0.1,0.9-0.2c0.3-0.1,0.6-0.3,0.9-0.4v5.6c-0.3-0.2-0.6-0.3-0.9-0.4s-0.6-0.2-0.9-0.2
			c-0.3-0.1-0.6-0.1-0.9-0.1h-3.3v6.2h4.8c0.3,0,0.6,0,0.9-0.1c0.3,0,0.6-0.1,0.8-0.2c0.3-0.1,0.6-0.2,0.8-0.4l-0.7,5L291.9,46
			L291.9,46z"/>
		<path class="st2" d="M305.6,44.1v-5.6c0.6,0.8,1.2,1.5,1.8,2c0.6,0.5,1.2,0.8,1.8,1c0.6,0.3,1.3,0.4,1.9,0.4
			c2.1,0,3.2-0.9,3.2-2.6c0-0.4-0.1-0.8-0.4-1.2c-0.3-0.4-0.6-0.7-1.1-1c-0.4-0.3-0.9-0.6-1.5-0.9c-0.5-0.3-1.1-0.6-1.6-1
			c-1.6-1-2.7-2.1-3.2-3.2c-0.6-1.1-0.8-2.4-0.8-3.8c0-0.9,0.2-1.8,0.5-2.6c0.3-0.8,0.8-1.5,1.5-2.1c0.6-0.6,1.4-1.1,2.4-1.5
			c0.9-0.4,2-0.5,3.3-0.5c0.6,0,1.2,0.1,1.8,0.2c0.5,0.1,1,0.2,1.6,0.4c0.6,0.2,1.1,0.4,1.6,0.7v5.8c-0.4-0.6-0.9-1.1-1.5-1.4
			c-0.6-0.3-1.1-0.6-1.6-0.8c-0.6-0.2-1.2-0.3-1.9-0.3c-0.7,0-1.4,0.2-1.9,0.6c-0.5,0.4-0.8,1-0.8,1.8c0,0.3,0,0.6,0.1,0.9
			c0.1,0.3,0.3,0.5,0.5,0.8c0.2,0.3,0.6,0.5,1,0.8c0.4,0.3,0.9,0.6,1.5,1c0.6,0.4,1.2,0.7,1.8,1.1s1.2,0.9,1.7,1.4s0.9,1.2,1.2,1.9
			c0.3,0.7,0.5,1.6,0.5,2.7c0,1.1-0.2,2.1-0.6,3.1c-0.4,0.9-0.9,1.7-1.6,2.3c-0.7,0.6-1.5,1.1-2.4,1.5c-0.9,0.3-1.9,0.5-2.9,0.5
			c-0.8,0-1.6-0.1-2.3-0.3c-0.7-0.2-1.3-0.4-1.8-0.6c-0.5-0.2-1-0.5-1.3-0.7C305.9,44.5,305.7,44.3,305.6,44.1L305.6,44.1z"/>
		<path class="st2" d="M319.9,26.9l0.8-5h14.7l0.7,5c-0.2-0.2-0.5-0.3-0.8-0.5c-0.3-0.1-0.7-0.2-1-0.3c-0.4-0.1-0.8-0.1-1.2-0.1
			h-2.6l0,16.7c0,0.4,0,0.8,0.1,1.2c0,0.3,0.1,0.7,0.2,1.1c0.1,0.4,0.2,0.7,0.4,1h-6.3c0.2-0.3,0.3-0.7,0.4-1.1
			c0.1-0.4,0.2-0.7,0.2-1.1c0-0.4,0.1-0.8,0.1-1.2V26h-2.6c-0.4,0-0.8,0-1.2,0.1c-0.3,0-0.7,0.1-1,0.2
			C320.4,26.5,320.1,26.7,319.9,26.9L319.9,26.9z"/>
		<path class="st2" d="M334.3,46c0.2-0.3,0.4-0.7,0.5-1c0.2-0.4,0.3-0.7,0.4-1.1c0.1-0.4,0.3-0.8,0.4-1.2l4.5-18
			c0-0.1,0-0.3,0.1-0.5c0-0.1,0-0.3,0.1-0.5c0-0.2,0-0.4,0-0.6c0-0.3,0-0.5,0-0.8c0-0.2-0.1-0.4-0.2-0.6h7.3
			c-0.1,0.2-0.2,0.4-0.2,0.6c0,0.2,0,0.5,0,0.8v0.4c0,0.1,0,0.2,0.1,0.4c0,0.1,0,0.2,0.1,0.3c0.3,0.7,0.6,1.5,0.9,2.4
			c0.2,0.9,0.5,1.8,0.8,2.8c0.3,1,0.5,2,0.8,3c0.3,1,0.5,2,0.8,3c0.6,2.3,1.2,4.7,1.9,7.1c0.1,0.4,0.3,0.9,0.4,1.3
			c0.1,0.4,0.3,0.7,0.4,1.1c0.2,0.4,0.3,0.7,0.5,1h-6.4c0.1-0.2,0.1-0.5,0.1-0.8c0-0.2,0-0.4,0-0.5c0-0.2-0.1-0.3-0.1-0.4
			c0-0.1-0.1-0.3-0.1-0.4c0-0.1-0.1-0.3-0.1-0.6c-0.1-0.3-0.2-0.6-0.3-1.1c-0.1-0.5-0.3-1.1-0.5-2h-5.9c0,0.1-0.1,0.3-0.2,0.6
			s-0.2,0.8-0.3,1.2c-0.1,0.4-0.2,0.9-0.3,1.3c-0.1,0.4-0.2,0.8-0.2,1c0,0,0,0.1,0,0.2c0,0,0,0.1,0,0.2v0.3c0,0.2,0,0.3,0,0.5
			s0.1,0.3,0.1,0.5L334.3,46L334.3,46z M341.6,36.2h4.1l-2.1-8.7L341.6,36.2z"/>
		<path class="st2" d="M354.2,21.9h8.5c0.9,0,1.8,0.2,2.6,0.5c0.8,0.3,1.6,0.8,2.2,1.4c0.6,0.6,1.1,1.3,1.5,2.2s0.6,1.8,0.6,2.8
			c0,1.8-0.4,3.3-1.1,4.4c-0.8,1.1-1.7,2-2.8,2.6l3.8,8c0.1,0.3,0.3,0.5,0.4,0.8c0.1,0.2,0.3,0.4,0.5,0.7c0.2,0.3,0.4,0.5,0.6,0.7
			h-6l-3.7-9.2h-1.7V43c0,0.3,0,0.7,0.1,1.1c0,0.3,0.1,0.6,0.1,1c0,0.3,0.1,0.6,0.2,0.9h-5.9c0.1-0.3,0.2-0.6,0.3-0.9
			c0.1-0.3,0.1-0.7,0.2-1c0-0.3,0.1-0.7,0.1-1.1V24.8c0-0.3,0-0.6-0.1-0.9c0-0.3-0.1-0.6-0.2-0.9C354.5,22.6,354.3,22.3,354.2,21.9
			L354.2,21.9z M359.6,33h1.9c0.4,0,0.8-0.1,1.2-0.3c0.4-0.2,0.7-0.4,1.1-0.8c0.3-0.3,0.6-0.8,0.7-1.3c0.2-0.5,0.3-1.1,0.3-1.8
			c0-0.3-0.1-0.7-0.2-1c-0.1-0.4-0.3-0.7-0.5-1c-0.2-0.3-0.6-0.6-0.9-0.8c-0.4-0.2-0.8-0.3-1.3-0.3h-2.2L359.6,33L359.6,33z"/>
	</g>
</g>
</svg>
