<?xml version="1.0" encoding="utf-8"?>
<!-- Generator: Adobe Illustrator 18.0.0, SVG Export Plug-In . SVG Version: 6.00 Build 0)  -->
<!DOCTYPE svg PUBLIC "-//W3C//DTD SVG 1.1//EN" "http://www.w3.org/Graphics/SVG/1.1/DTD/svg11.dtd">
<svg version="1.1" id="Capa_1" xmlns="http://www.w3.org/2000/svg" xmlns:xlink="http://www.w3.org/1999/xlink" x="0px" y="0px"
	 viewBox="420 0 1080.1 1080" enable-background="new 420 0 1080.1 1080" xml:space="preserve">
<g>
	<path fill="#5186AF" d="M1023.1,193.9L1023.1,193.9l32.2-182.2l0,0C859.1-22.9,669,53.2,549.4,195.7l142,119.1
		C769.4,221.4,894.2,171,1023.1,193.9"/>
	<path fill="#848E8B" d="M613.8,480.3c11.2-63.5,38.8-119.6,77.1-165.9L549.4,195.7c-58.9,70.1-100.9,156-117.7,252.8
		c-16.8,96.7-7,191.6,24.3,277.5l174.3-63.5C609.2,605.9,602.6,543.8,613.8,480.3"/>
	<path fill="#D0764E" d="M1293.6,420.9l174.3-63.5c-63.5-174.7-216.3-311.6-412.5-346.2l-32.2,182.2
		C1151.6,216.3,1251.6,306.5,1293.6,420.9"/>
	<path fill="#67127C" d="M900.2,889.5L868,1071.7c196.2,34.6,386.4-41.6,506-184.1l-142-119.1C1153.9,862,1029.2,912.4,900.2,889.5"
		/>
	<path fill="#67127C" d="M1467.9,357.4l-174.3,63.5c20.6,56.5,27.1,118.7,15.9,182.2c-11.2,63.5-38.8,119.6-77.1,165.9l142,119.1
		c58.9-70.1,100.9-156,117.7-252.8C1509,538.7,1499.2,443.4,1467.9,357.4"/>
	<path fill="#84A735" d="M900.2,889.5c-128.9-22.9-228.9-112.6-270.5-227.1L455.5,726C519,900.8,671.8,1037.6,868,1072.2l0,0
		L900.2,889.5L900.2,889.5L900.2,889.5z"/>
	<polygon fill="none" stroke="#FFFFFF" stroke-width="1.095" stroke-miterlimit="2.267" points="495.2,670.4 494.2,666.2 
		479.8,669.5 491.9,657.3 491,653.1 469.5,658.3 470.4,662.5 484.4,659.2 472.8,671.4 473.7,675.6 	"/>
	<path fill="none" stroke="#FFFFFF" stroke-width="1.095" stroke-miterlimit="2.267" d="M481.2,649.9c2.8-0.5,4.2-0.9,5.1-1.9
		c0.9-0.5,1.9-1.9,2.3-2.8c0.5-1.4,0.5-2.8,0.5-4.2c0-1.4-0.5-2.3-0.9-3.3c-0.5-0.9-1.4-1.4-2.3-1.9c-0.9-0.5-1.9-0.9-2.8-0.9
		s-2.3,0-4.7,0.5l-13.1,2.3l0.9,4.2l13.5-2.3c1.4-0.5,2.3-0.5,2.8,0c0.5,0,0.9,0.5,1.4,0.9c0.5,0.5,0.9,0.9,0.9,1.9
		c0,0.5,0,1.4,0,1.9c0,0.5-0.5,0.9-0.9,1.4c-0.5,0.5-1.4,0.5-2.3,0.9l-14,2.3l0.9,4.2L481.2,649.9z"/>
	<polygon fill="none" stroke="#FFFFFF" stroke-width="1.095" stroke-miterlimit="2.267" points="486.8,628.8 484.9,617.2 
		481.2,617.6 482.1,625.6 476.5,626 475.1,618.6 471.3,619 472.3,627 468.5,627.4 467.1,619.5 463.4,620 464.8,632.1 	"/>
	<polygon fill="none" stroke="#FFFFFF" stroke-width="1.095" stroke-miterlimit="2.267" points="484,606.9 483.5,603.1 461.1,597.1 
		461.5,601.7 477.4,605.5 462.5,612.5 462.9,617.2 	"/>
	<path fill="none" stroke="#FFFFFF" stroke-width="1.095" stroke-miterlimit="2.267" d="M465.7,577c1.4-1.4,3.3-2.3,5.1-2.3
		c2.3,0,3.7,0.5,5.6,1.9c1.4,1.4,2.3,2.8,2.3,5.1c0,1.9-0.5,3.3-1.4,4.7c-1.4,1.9-3.3,2.8-5.6,2.8s-4.2-0.5-5.6-1.9
		c-1.4-1.4-2.3-2.8-2.3-5.1C463.4,580.2,464.3,578.4,465.7,577z M461.5,588.2c0.9,1.9,2.8,3.3,4.2,4.2c1.9,0.9,3.7,1.4,6.1,1.4
		c3.3,0,5.6-1.4,7.9-3.7c2.3-2.3,3.3-5.1,3.3-8.4c0-3.3-1.4-5.6-3.7-7.9c-2.3-2.3-5.1-3.3-8.4-2.8c-3.3,0-6.1,1.4-7.9,3.7
		c-2.3,2.3-3.3,5.1-2.8,8.4C459.7,584.5,460.1,586.3,461.5,588.2z"/>
</g>
<g>
	<path fill="#BA007C" d="M473.7,675.6l-0.9-3.7l12.1-12.6l-14,3.3l-0.9-4.2l21.5-5.1l0.9,3.7l-12.1,12.6l14-3.3l0.9,4.2L473.7,675.6
		z"/>
</g>
<g>
	<path fill="#BA007C" d="M468.5,652.2l-0.9-4.2l14-2.3c1.4,0,1.9-0.5,2.3-0.9c0.5-0.5,0.9-0.9,0.9-1.4c0-0.5,0.5-0.9,0-1.9
		c0-0.9-0.5-1.4-0.9-1.9c-0.5-0.5-0.9-0.9-1.4-0.9c-0.5,0-1.4,0-2.8,0l-13.5,2.3l-0.9-4.2l13.1-2.3c2.3-0.5,3.7-0.5,4.7-0.5
		s1.9,0.5,2.8,0.9s1.9,1.4,2.3,1.9c0.5,0.9,0.9,1.9,0.9,3.3c0.5,1.4,0,2.8-0.5,4.2c-0.5,1.4-1.4,2.3-2.3,2.8s-2.8,1.4-5.6,1.9
		L468.5,652.2z"/>
</g>
<g>
	<path fill="#BA007C" d="M464.8,632.1l-1.9-12.1l4.2-0.5l0.9,7.9l3.7-0.5l-0.9-7.9l4.2-0.5l0.9,7.9l5.6-0.9l-0.9-7.9l4.2-0.5
		l1.9,12.1L464.8,632.1z"/>
</g>
<g>
	<path fill="#BA007C" d="M462.9,617.2l-0.5-4.2l15-7l-16.4-4.2l-0.5-4.2l22.9,5.6l0.5,4.2L462.9,617.2z"/>
</g>
<g>
	<path fill="#BA007C" d="M459.7,582.1c0-3.3,0.9-6.1,2.8-8.4c2.3-2.3,4.7-3.7,7.9-3.7s6.1,0.9,8.4,2.8c2.3,2.3,3.7,4.7,3.7,7.9
		c0,3.3-0.9,6.1-3.3,8.4c-2.3,2.3-4.7,3.7-7.9,3.7c-2.3,0-4.2-0.5-6.1-1.4s-3.3-2.3-4.2-4.2C460.1,586.3,459.7,584.5,459.7,582.1z
		 M463.9,582.1c0,1.9,0.9,3.7,2.3,5.1c1.4,1.4,3.3,1.9,5.6,1.9s4.2-0.9,5.6-2.8c0.9-1.4,1.4-2.8,1.4-4.7c0-1.9-0.9-3.7-2.3-5.1
		c-1.4-1.4-3.3-1.9-5.6-1.9c-1.9,0-3.7,0.9-5.1,2.3C464.3,578.4,463.4,580.2,463.9,582.1z"/>
</g>
<g>
	<polygon fill="none" stroke="#FFFFFF" stroke-width="1.095" stroke-miterlimit="2.267" points="481.6,559.2 481.6,555 467.6,552.2 
		481.6,548 481.6,544.3 468.1,539.1 482.1,537.3 482.1,533.1 459.7,536.3 459.7,540.5 475.1,546.1 459.7,550.8 459.7,555 	"/>
	<path fill="none" stroke="#FFFFFF" stroke-width="1.095" stroke-miterlimit="2.267" d="M467.1,513c1.4-1.4,3.3-1.9,5.6-1.9
		s3.7,0.9,5.1,2.3c1.4,1.4,1.9,3.3,1.9,5.1s-0.9,3.3-1.9,4.7c-1.4,1.4-3.7,2.3-6.1,2.3s-3.7-0.9-5.1-2.3c-1.4-1.4-1.9-3.3-1.9-5.1
		C464.8,515.8,465.7,514.4,467.1,513z M461.5,523.2c0.9,1.9,2.3,3.3,3.7,4.7c1.9,0.9,3.7,1.9,5.6,1.9c3.3,0.5,6.1-0.5,8.4-2.8
		c2.3-1.9,3.7-4.7,4.2-7.9c0.5-3.3-0.5-6.1-2.8-8.4c-1.9-2.3-4.7-3.7-7.9-3.7c-3.3-0.5-6.1,0.5-8.4,2.8c-2.3,1.9-3.7,4.7-4.2,7.9
		C460.6,519.5,460.6,521.8,461.5,523.2z"/>
	<path fill="none" stroke="#FFFFFF" stroke-width="1.095" stroke-miterlimit="2.267" d="M467.1,496.2c0.5-2.8,0.9-4.2,2.3-5.6
		c1.4-0.9,3.3-1.4,5.6-1.4c1.4,0,2.8,0.5,3.7,1.4c0.9,0.5,1.4,1.4,1.9,2.3c0.5,0.9,0.5,2.3,0,4.2l-0.5,1.9l-14-1.9L467.1,496.2z
		 M484.4,504.1l0.5-5.1c0.5-2.8,0.5-4.7,0-6.1c0-1.4-0.9-2.3-1.4-3.3c-0.5-0.9-1.9-1.9-3.3-2.8c-1.4-0.9-2.8-1.4-4.7-1.4
		c-2.3-0.5-4.7,0-6.5,0.9c-1.9,0.9-3.3,1.9-4.2,3.3c-0.9,1.4-1.9,3.7-1.9,7l-0.5,5.1L484.4,504.1z"/>
	<polygon fill="none" stroke="#FFFFFF" stroke-width="1.095" stroke-miterlimit="2.267" points="487.2,482.6 489.1,470.9 
		484.9,470.5 483.5,477.9 477.9,477 479.3,469.5 475.1,468.6 474.2,476.5 469.9,476.1 471.3,468.1 467.1,467.7 465.3,479.3 	"/>
	<polygon fill="none" stroke="#FFFFFF" stroke-width="1.095" stroke-miterlimit="2.267" points="489.6,467.2 491.4,456.9 487.7,456 
		486.3,462 468.5,458.8 468.1,463 	"/>
	<path fill="none" stroke="#FFFFFF" stroke-width="1.095" stroke-miterlimit="2.267" d="M479.8,434.9c1.9-0.9,3.7-1.4,5.6-0.9
		c1.9,0.5,3.7,1.4,4.7,3.3c0.9,1.9,1.4,3.3,0.9,5.6c-0.5,1.9-1.4,3.3-2.8,4.2c-1.9,1.4-3.7,1.9-6.1,1.4s-3.7-1.4-4.7-3.3
		c-0.9-1.9-1.4-3.3-0.9-5.6C477,437.7,477.9,436.3,479.8,434.9z M472.8,444.8c0.5,1.9,1.9,3.7,3.3,5.1c1.4,1.4,3.3,2.3,5.1,2.8
		c3.3,0.5,6.1,0,8.9-1.4c2.8-1.9,4.2-4.2,5.1-7.5c0.5-3.3,0-6.1-1.4-8.4c-1.9-2.8-4.2-4.2-7.5-5.1c-3.3-0.5-6.1,0-8.9,1.4
		c-2.8,1.9-4.2,4.2-5.1,7C471.8,440.6,471.8,442.9,472.8,444.8z"/>
</g>
<g>
	<path fill="#009BDB" d="M459.7,555v-4.2l15.4-4.7l-15.4-5.6v-4.2l22-3.3v4.2l-14,1.9l14,5.1v3.7l-14,4.2l14,2.8v4.2L459.7,555z"/>
</g>
<g>
	<path fill="#009BDB" d="M460.6,517.6c0.5-3.3,1.4-5.6,4.2-7.9c2.3-1.9,5.1-2.8,8.4-2.8c3.3,0.5,5.6,1.4,7.9,3.7
		c1.9,2.3,2.8,5.1,2.8,8.4c-0.5,3.3-1.4,6.1-4.2,7.9c-2.3,1.9-5.1,2.8-8.4,2.8c-2.3,0-4.2-0.9-5.6-1.9c-1.9-0.9-2.8-2.8-3.7-4.7
		C460.6,521.8,460.6,519.5,460.6,517.6z M464.8,518.1c0,1.9,0.5,3.7,1.9,5.1s3.3,2.3,5.1,2.3c2.3,0,4.2-0.5,6.1-2.3
		c1.4-1.4,1.9-2.8,1.9-4.7s-0.5-3.7-1.9-5.1s-3.3-2.3-5.1-2.3c-1.9,0-3.7,0.5-5.6,1.9C465.7,514.4,464.8,515.8,464.8,518.1z"/>
</g>
<g>
	<path fill="#009BDB" d="M462.5,501.3l0.5-5.1c0.5-3.3,0.9-5.6,1.9-7c0.9-1.4,2.3-2.3,4.2-3.3c1.9-0.9,4.2-0.9,6.5-0.9
		c1.9,0,3.3,0.5,4.7,1.4c1.4,0.9,2.3,1.9,3.3,2.8c0.9,0.9,1.4,2.3,1.4,3.3c0,1.4,0,3.3,0,6.1l-0.5,5.1L462.5,501.3z M467.1,497.6
		l14,1.9l0.5-1.9c0.5-1.9,0-3.3,0-4.2c-0.5-0.9-0.9-1.9-1.9-2.3s-2.3-0.9-3.7-1.4c-2.3-0.5-4.2,0-5.6,1.4c-1.4,0.9-2.3,2.8-2.3,5.6
		L467.1,497.6z"/>
</g>
<g>
	<path fill="#009BDB" d="M465.3,479.3l1.9-11.7l4.2,0.5l-1.4,7.9l3.7,0.5l1.4-7.9l4.2,0.5l-1.4,7.9l5.6,0.9l1.4-7.9l4.2,0.5
		l-1.9,11.7L465.3,479.3z"/>
</g>
<g>
	<path fill="#009BDB" d="M468.1,463l0.9-4.2l17.8,3.3l0.9-6.1l3.7,0.9l-1.9,10.3L468.1,463z"/>
</g>
<g>
	<path fill="#009BDB" d="M472.3,438.7c0.5-3.3,2.3-5.6,5.1-7c2.8-1.9,5.6-2.3,8.9-1.4c3.3,0.5,5.6,2.3,7.5,5.1
		c1.9,2.8,2.3,5.6,1.4,8.4c-0.9,3.3-2.3,5.6-5.1,7.5c-2.8,1.9-5.6,2.3-8.9,1.4c-1.9-0.5-3.7-1.4-5.1-2.8c-1.4-1.4-2.8-3.3-3.3-5.1
		C471.8,442.9,471.8,440.6,472.3,438.7z M476.5,439.6c-0.5,1.9,0,3.7,0.9,5.6s2.8,2.8,4.7,3.3c2.3,0.5,4.7,0,6.1-1.4
		c1.4-0.9,2.3-2.3,2.8-4.2c0.5-1.9,0-3.7-0.9-5.6c-0.9-1.9-2.8-2.8-4.7-3.3c-1.9-0.5-3.7,0-5.6,0.9
		C477.9,435.9,477,437.7,476.5,439.6z"/>
</g>
<g>
	<polygon fill="none" stroke="#FFFFFF" stroke-width="1.095" stroke-miterlimit="2.267" points="499.8,420.5 503.1,408.8 
		499.4,407.4 497,415.3 491.4,413.5 493.8,406 490,405 487.7,412.5 484,411.6 486.3,403.6 482.1,402.7 478.8,414.4 	"/>
	<path fill="none" stroke="#FFFFFF" stroke-width="1.095" stroke-miterlimit="2.267" d="M489.1,394.3c0.9-2.3,1.9-4.2,3.3-4.7
		c1.4-0.9,3.7-0.9,5.6,0c1.4,0.5,2.8,0.9,3.3,1.9c0.9,0.9,1.4,1.9,1.4,2.8c0,0.9,0,2.3-0.5,4.2l-0.5,1.9l-13.1-4.7L489.1,394.3z
		 M504.5,405l1.4-4.7c0.9-2.8,1.4-4.7,1.4-6.1c0-1.4-0.5-2.3-0.9-3.7c-0.5-1.4-1.4-2.3-2.8-3.3c-1.4-0.9-2.8-1.9-4.2-2.3
		c-2.3-0.9-4.2-0.9-6.5-0.5c-1.9,0.5-3.7,1.4-4.7,2.3c-1.4,1.4-2.3,3.3-3.3,6.5l-1.4,4.7L504.5,405z"/>
	<path fill="none" stroke="#FFFFFF" stroke-width="1.095" stroke-miterlimit="2.267" d="M502.7,381.7c2.3,0.9,4.2,1.4,5.6,1.4
		s2.3-0.5,3.3-1.4c0.9-0.9,1.9-1.9,2.3-3.7c0.5-0.9,0.5-2.3,0.5-3.3c0-0.9-0.5-1.9-0.9-2.8c-0.5-0.9-0.9-1.9-1.9-2.3
		c-0.9-0.5-2.3-0.9-4.2-1.9l-12.1-4.7l-1.4,3.7l13.1,4.7c1.4,0.5,2.3,0.9,2.8,1.4c0.5,0.5,0.9,0.9,0.9,1.4c0,0.5,0,1.4,0,1.9
		c-0.5,0.5-0.5,1.4-0.9,1.4c-0.5,0.5-0.9,0.5-1.4,0.5c-0.5,0-1.4,0-2.3-0.5l-13.5-4.7L490,377L502.7,381.7z"/>
	<path fill="none" stroke="#FFFFFF" stroke-width="1.095" stroke-miterlimit="2.267" d="M503.6,343.4c-1.4,1.4-2.3,2.8-2.8,4.7
		c-0.9,1.9-0.9,4.2-0.9,6.1c0.5,2.3,0.9,3.7,2.3,5.6c1.4,1.4,2.8,2.8,4.7,3.7c3.3,1.4,6.1,1.4,8.9,0c2.8-1.4,4.7-3.3,6.1-6.5
		c0.5-1.9,0.9-3.3,0.9-5.1c0-1.4-0.5-3.3-1.4-5.6l-3.7,1.4c0.5,1.4,0.9,2.8,0.9,4.2c0,0.9,0,2.3-0.5,3.3c-0.5,1.4-1.4,2.3-2.3,3.3
		c-0.9,0.9-2.3,1.4-3.3,1.4c-1.4,0-2.8,0-4.2-0.5c-1.9-0.9-3.3-1.9-4.2-4.2c-0.9-1.9-0.9-3.7,0-5.6c0.9-2.3,2.8-4.2,5.6-5.1
		l-1.4-3.7C506.4,341,505,342,503.6,343.4z"/>
	<path fill="none" stroke="#FFFFFF" stroke-width="1.095" stroke-miterlimit="2.267" d="M523.7,329.4l-2.8,5.6l-5.6-5.6H523.7z
		 M526,345.2l1.9-4.2l-3.3-3.3l3.7-8.4l4.7,0.5l1.9-4.2l-23.4-1.4l-1.9,3.7L526,345.2z"/>
	<polygon fill="none" stroke="#FFFFFF" stroke-width="1.095" stroke-miterlimit="2.267" points="519,317.2 520.4,313.9 536.8,321.4 
		538.6,317.7 522.3,309.7 524.1,306.5 520.4,304.6 515.3,315.3 	"/>
	
		<rect x="530.5" y="294" transform="matrix(0.4432 -0.8964 0.8964 0.4432 23.1787 647.2288)" fill="none" stroke="#FFFFFF" stroke-width="1.095" stroke-miterlimit="2.267" width="4.2" height="22"/>
	<polygon fill="none" stroke="#FFFFFF" stroke-width="1.095" stroke-miterlimit="2.267" points="548,298.5 550.3,294.8 534.4,277.5 
		532.6,281.2 543.3,293.4 526.9,291 525.1,294.8 	"/>
	<path fill="none" stroke="#FFFFFF" stroke-width="1.095" stroke-miterlimit="2.267" d="M548.9,263c1.9-0.5,3.7,0,5.6,0.9
		c1.9,0.9,2.8,2.3,3.7,4.7c0.5,1.9,0.5,3.7-0.5,5.6c-0.9,1.4-2.3,2.8-3.7,3.3c-2.3,0.9-4.2,0.5-6.5-0.5c-1.9-0.9-3.3-2.8-3.7-4.7
		c-0.5-1.9-0.5-3.7,0.9-5.6C545.6,264.9,547,263.9,548.9,263z M539.6,270.5c0,1.9,0.5,4.2,1.4,5.6c0.9,1.9,2.3,3.3,4.2,4.2
		c2.8,1.4,5.6,1.9,8.9,1.4c3.3-0.9,5.6-2.8,7-5.6c1.4-2.8,1.9-5.6,0.9-8.9c-0.9-2.8-2.8-5.1-5.6-7c-2.8-1.4-5.6-1.9-8.9-1.4
		c-3.3,0.9-5.6,2.8-7,5.1C540,266.3,539.6,268.2,539.6,270.5z"/>
</g>
<g>
	<path fill="#97B834" d="M478.8,414.4l3.3-11.7l3.7,0.9l-1.9,7.9l3.7,0.9l2.3-7.5l3.7,0.9l-2.3,7.5l5.6,1.4l2.3-7.5l3.7,0.9
		l-3.3,11.7L478.8,414.4z"/>
</g>
<g>
	<path fill="#97B834" d="M483.5,398.5l1.4-4.7c0.9-3.3,1.9-5.1,3.3-6.5c1.4-1.4,2.8-1.9,4.7-2.3c1.9-0.5,4.2-0.5,6.5,0.5
		c1.4,0.5,2.8,1.4,4.2,2.3c1.4,0.9,1.9,1.9,2.8,3.3c0.5,1.4,0.9,2.3,0.9,3.7c0,1.4-0.5,3.3-1.4,6.1l-1.4,4.7L483.5,398.5z
		 M488.6,395.7l13.1,4.2l0.5-1.9c0.5-1.9,0.9-3.3,0.5-4.2c0-0.9-0.5-1.9-1.4-2.8c-0.9-0.9-1.9-1.4-3.3-1.9c-2.3-0.9-4.2-0.5-5.6,0
		c-1.4,0.9-2.8,2.3-3.3,4.7L488.6,395.7z"/>
</g>
<g>
	<path fill="#97B834" d="M490,377l1.4-3.7l13.5,4.7c0.9,0.5,1.9,0.5,2.3,0.5c0.5,0,0.9,0,1.4-0.5s0.9-0.9,0.9-1.4
		c0.5-0.5,0.5-1.4,0-1.9c0-0.5-0.5-0.9-0.9-1.4c-0.5-0.5-1.4-0.9-2.8-1.4l-13.1-4.7l1.4-3.7l12.1,4.7c1.9,0.9,3.3,1.4,4.2,1.9
		c0.9,0.5,1.4,1.4,1.9,2.3c0.5,0.9,0.9,1.9,0.9,2.8c0,0.9,0,1.9-0.5,3.3c-0.5,1.4-1.4,2.8-2.3,3.7c-0.9,0.9-2.3,1.4-3.3,1.4
		c-1.4,0-3.3-0.5-5.6-1.4L490,377z"/>
</g>
<g>
	<path fill="#97B834" d="M508.3,340.6l1.4,3.7c-2.8,0.9-4.7,2.8-5.6,5.1c-0.9,1.9-0.9,3.7,0,5.6c0.9,1.9,2.3,3.3,4.2,3.7
		c1.4,0.5,2.8,0.9,4.2,0.5c1.4,0,2.3-0.5,3.3-1.4c0.9-0.9,1.9-1.9,2.3-3.3c0.5-0.9,0.5-2.3,0.5-3.3c0-0.9-0.5-2.3-0.9-4.2l3.7-1.4
		c0.9,1.9,1.4,3.7,1.4,5.6c0,1.4-0.5,3.3-0.9,5.1c-1.4,3.3-3.3,5.6-6.1,6.5c-2.8,0.9-5.6,1.4-8.9,0c-1.9-0.9-3.7-1.9-4.7-3.7
		c-1.4-1.4-1.9-3.3-2.3-5.6c-0.5-2.3,0-4.2,0.9-6.1c0.5-1.9,1.9-3.3,2.8-4.7C505,342,506.4,341,508.3,340.6z"/>
</g>
<g>
	<path fill="#97B834" d="M509.2,328.9l1.9-3.7l23.4,1.4l-1.9,4.2l-4.7-0.5l-3.7,8.4l3.3,3.3l-1.4,3.3L509.2,328.9z M515.3,328.9
		l5.6,5.6l2.3-5.6H515.3z"/>
</g>
<g>
	<path fill="#97B834" d="M515.3,315.3l5.1-10.7l3.7,1.9l-1.9,3.7l16.4,7.9l-1.9,3.7l-16.4-7.9l-1.9,3.7L515.3,315.3z"/>
</g>
<g>
	<path fill="#97B834" d="M521.8,301.8l1.9-3.7l19.6,9.8l-1.9,3.7L521.8,301.8z"/>
</g>
<g>
	<path fill="#97B834" d="M525.1,294.8l1.9-3.7l16.4,2.3l-11.2-12.1l1.9-3.7l15.9,17.3l-1.9,3.7L525.1,294.8z"/>
</g>
<g>
	<path fill="#97B834" d="M541,264.4c1.4-2.8,3.7-4.7,7-5.1c3.3-0.9,6.1-0.5,8.9,1.4c2.8,1.4,4.7,3.7,5.6,7c0.9,3.3,0.5,6.1-0.9,8.9
		c-1.9,2.8-4.2,4.7-7,5.6c-3.3,0.9-6.1,0.5-8.9-1.4c-1.9-0.9-3.3-2.3-4.2-4.2c-0.9-1.9-1.4-3.7-1.4-5.6
		C539.6,268.2,540,266.3,541,264.4z M544.7,266.8c-0.9,1.9-1.4,3.7-0.9,5.6c0.5,1.9,1.9,3.3,3.7,4.7c2.3,1.4,4.2,1.4,6.5,0.5
		c1.9-0.5,2.8-1.9,3.7-3.3c0.9-1.9,1.4-3.7,0.5-5.6c-0.5-1.9-1.9-3.3-3.7-4.7c-1.9-0.9-3.7-1.4-5.6-0.9
		C547,263.9,545.6,264.9,544.7,266.8z"/>
</g>
<g>
	<path fill="#FFFFFF" d="M1146.5,92l-20.1,21.5c-0.9,0.9-1.9,0.9-3.3,0.9c-0.9-0.5-1.9-1.4-1.9-2.3l-1.9-29.4c0-0.5,0-0.9,0-1.4
		c0.5-1.4,2.3-2.3,3.7-1.9c0.9,0.5,1.9,1.4,1.9,2.8l0.9,23.4l15.9-17.3c0.9-0.9,1.9-0.9,3.3-0.9c1.4,0.5,2.3,2.3,1.9,3.7
		C1146.9,91.5,1146.9,92,1146.5,92z"/>
</g>
<g>
	<path fill="#FFFFFF" d="M1144.6,122.9c-1.4-0.5-2.3-2.3-1.4-3.7l6.1-14.5c0.5-1.4,2.3-2.3,3.7-1.4c1.4,0.5,2.3,2.3,1.4,3.7
		l-6.1,14.5C1147.9,122.9,1146,123.3,1144.6,122.9z M1155.3,98.1c-1.9-0.9-2.3-2.3-1.9-4.2c0.9-1.4,2.3-2.3,4.2-1.9
		c1.9,0.9,2.3,2.8,1.9,4.2C1159.1,98.1,1157.2,99,1155.3,98.1z"/>
</g>
<g>
	<path fill="#FFFFFF" d="M1171.7,117.2l-3.7-1.9l-6.1,12.1c-0.5,1.4-2.3,1.9-3.7,1.4c-1.4-0.5-1.9-2.3-1.4-3.7l6.1-12.1l-3.3-1.4
		c-1.4-0.5-1.9-1.9-0.9-3.3c0.5-1.4,1.9-1.9,3.3-0.9l3.3,1.4l2.8-6.1c0.5-1.4,2.3-1.9,3.7-1.4c1.4,0.5,1.9,2.3,1.4,3.7l-2.8,6.1
		l3.7,1.9c1.4,0.5,1.9,1.9,0.9,3.3C1174.5,117.2,1173.1,117.7,1171.7,117.2z"/>
</g>
<g>
	<path fill="#FFFFFF" d="M1182.9,142c-1.4-0.9-1.9-2.3-0.9-3.7c-1.9,1.4-5.1,0.9-7-0.5c-3.3-1.9-5.1-6.5-3.3-9.8
		c2.3-3.7,6.5-4.7,10.3-2.3c1.9,0.9,3.7,2.3,4.2,4.7c1.9-3.3,1.4-4.7-1.9-6.5c-1.9-0.9-4.2-1.4-5.6-1.9c-1.4-0.5-1.4-2.3-0.9-3.3
		c1.4-2.8,7.5,0,9.3,0.9c5.1,2.8,7.9,7,4.7,12.6l-5.1,8.9C1186.2,142,1184.3,142.5,1182.9,142z M1181.5,129.9
		c-1.4-0.9-3.7-1.4-4.7,0.5c-0.9,1.9,0.5,3.3,1.9,4.2s4.2,1.4,5.1-0.5C1184.8,132.7,1182.9,130.8,1181.5,129.9z"/>
</g>
<g>
	<path fill="#FFFFFF" d="M1193.6,148.5c-1.4-0.9-1.9-2.8-0.9-4.2l14.5-22.9c0.9-1.4,2.8-1.9,4.2-0.9c1.4,0.9,1.9,2.8,0.9,4.2
		l-14.5,22.9C1196.9,149,1195.1,149.5,1193.6,148.5z"/>
</g>
<g>
	<path fill="#FFFFFF" d="M1204.4,155.6c-1.4-0.9-1.9-2.8-0.9-4.2l8.9-13.1c0.9-1.4,2.8-1.9,4.2-0.9c1.4,0.9,1.9,2.8,0.9,4.2
		l-8.9,13.1C1207.7,156,1205.8,156,1204.4,155.6z M1219.3,133.1c-1.4-0.9-1.9-2.8-0.9-4.2c0.9-1.4,2.8-1.9,4.7-0.9
		c1.4,0.9,1.9,2.8,0.9,4.7C1223.1,134.5,1220.7,134.1,1219.3,133.1z"/>
</g>
<g>
	<path fill="#FFFFFF" d="M1225.9,171c-0.9-0.9-1.4-2.3-0.5-4.2c-1.9,0.9-4.7,0.5-6.5-0.9c-4.7-3.7-5.6-10.3-1.9-15s10.3-6.1,15-2.8
		c2.3,1.4,3.3,4.2,2.8,6.1l6.5-8.9c0.9-1.4,2.8-1.4,4.2-0.5c1.4,0.9,1.4,2.8,0.5,4.2l-16.4,22C1229.2,171.4,1227.3,171.9,1225.9,171
		z M1229.6,152.8c-2.8-1.9-5.6-0.9-7.5,1.4c-1.9,2.3-1.9,5.6,0.9,7.9c2.8,1.9,5.6,0.9,7.5-1.4C1232,157.9,1232,154.6,1229.6,152.8z"
		/>
</g>
<g>
	<path fill="#FFFFFF" d="M1245.5,186.9c-1.4-0.9-0.9-2.8,0-4.2c-2.3,0.9-5.1,0-7-1.9c-2.8-2.3-3.7-7-0.9-10.3
		c2.8-3.3,7-3.3,10.3-0.5c1.4,1.4,2.8,3.3,3.3,5.1c2.3-2.8,2.3-4.2-0.5-7c-1.9-1.4-4.2-1.9-5.1-2.8c-0.9-0.9-0.9-2.3-0.5-3.3
		c1.9-2.3,7.5,1.4,8.9,2.8c4.7,3.7,6.5,8.4,2.3,13.1l-6.5,7.9C1248.8,187.8,1246.9,187.8,1245.5,186.9z M1246.4,175.2
		c-1.4-0.9-3.3-1.9-4.7-0.5c-1.4,1.4,0,3.3,0.9,4.7c1.4,0.9,3.7,2.3,5.1,0.5C1249.2,178,1247.4,176.1,1246.4,175.2z"/>
</g>
<g>
	<path fill="#FFFFFF" d="M1265.1,205.5c-0.9-0.9-1.4-2.8,0-4.2c-1.9,0.5-4.7,0-6.5-1.9c-4.2-4.2-4.2-10.7,0-15.4
		c4.2-4.2,10.7-4.7,15.4-0.5c1.9,1.9,2.8,4.7,2.3,6.1l7.9-7.9c0.9-0.9,2.8-1.4,4.2,0c0.9,0.9,1.4,2.8,0,4.2l-18.7,19.6
		C1268.4,206.5,1266.1,206.5,1265.1,205.5z M1270.7,187.8c-2.3-2.3-5.6-1.9-7.9,0.5c-2.3,2.3-2.8,5.6-0.5,7.9
		c2.3,2.3,5.6,1.9,7.9-0.5C1273.1,193.4,1273.1,190.1,1270.7,187.8z"/>
</g>
<g>
	<path fill="#FFFFFF" d="M1292.7,235.9c-0.9-0.9-0.9-2.8,0.5-3.7c-1.9,0.5-4.7-0.5-6.1-2.8c-3.7-4.7-2.8-11.2,1.9-15
		c4.7-3.7,11.2-3.7,15.4,0.9c1.9,1.9,1.9,5.1,1.4,6.5l8.4-7c1.4-0.9,3.3-0.9,4.2,0.5c0.9,1.4,0.9,3.3-0.5,4.2l-20.6,17.3
		C1295.5,237.3,1293.6,237.3,1292.7,235.9z M1300.2,219.1c-2.3-2.3-5.1-2.3-7.9,0c-2.3,1.9-3.3,5.1-0.9,7.9c2.3,2.8,5.6,2.3,7.9,0.5
		C1301.6,224.7,1302.5,221.4,1300.2,219.1z"/>
</g>
<g>
	<path fill="#FFFFFF" d="M1301.1,246.2c-0.9-1.4-0.9-3.3,0.5-4.2l12.6-9.8c1.4-0.9,3.3-0.9,4.2,0.5c0.9,1.4,0.9,3.3-0.5,4.2
		l-12.6,9.8C1303.9,248.1,1302,247.6,1301.1,246.2z M1322.1,229.8c-0.9-1.4-0.9-3.3,0.5-4.7c1.4-0.9,3.3-0.9,4.7,0.5
		c0.9,1.4,0.9,3.3-0.5,4.7C1324.9,231.7,1323.1,231.2,1322.1,229.8z"/>
</g>
<g>
	<path fill="#FFFFFF" d="M1304.4,265.8c-1.9-2.3-2.8-4.2-3.3-6.5c-0.5-1.4,0.5-2.8,1.9-2.8c1.4-0.5,2.8,0.5,2.8,1.9
		c0.5,1.9,1.4,3.7,2.3,5.1c2.3,3.3,5.6,3.3,7.9,1.4c0,0,0,0,1.4-0.9c-1.4,0-4.2-0.9-5.6-2.8c-3.3-4.7-2.8-10.7,2.8-15
		c5.1-3.7,11.2-2.8,15,2.3c1.4,2.3,1.9,4.7,0.9,6.5c1.4-0.9,3.3-0.5,4.2,0.5c0.9,1.4,0.5,3.3-0.9,4.2c-13.5,9.8-13.5,9.8-13.5,9.8
		C1315.1,272.4,1308.6,271.9,1304.4,265.8z M1325.4,251.3c-1.9-2.8-5.1-2.8-7.5-0.9c-2.8,1.9-3.3,4.7-1.4,7.5s5.1,2.8,7.5,0.9
		C1326.8,256.9,1327.7,254.1,1325.4,251.3z"/>
</g>
<g>
	<path fill="#FFFFFF" d="M1324,278.9c-0.9-1.4-0.5-3.3,0.9-4.2l13.5-8.4c1.4-0.9,3.3-0.5,4.2,0.9c0.9,1.4,0.5,3.3-0.9,4.2l-13.5,8.4
		C1326.8,280.8,1324.9,280.3,1324,278.9z M1346.4,264.4c-0.9-1.4-0.5-3.3,0.9-4.2c1.4-0.9,3.3-0.5,4.7,0.9c0.9,1.4,0.5,3.3-0.9,4.7
		C1349.2,266.3,1347.4,265.8,1346.4,264.4z"/>
</g>
<g>
	<path fill="#FFFFFF" d="M1349.7,289.2l-1.9-3.3l-11.7,7c-1.4,0.9-3.3,0.5-4.2-0.9c-0.9-1.4-0.5-3.3,0.9-4.2l11.7-7l-1.9-2.8
		c-0.5-0.9-0.5-2.8,0.9-3.3c0.9-0.5,2.8-0.5,3.3,0.9l1.9,2.8l6.1-3.7c1.4-0.9,3.3-0.5,4.2,0.9c0.9,1.4,0.5,3.3-0.9,4.2l-6.1,3.7
		l1.9,3.3c0.5,0.9,0.5,2.8-0.9,3.3C1352,290.6,1350.6,290.1,1349.7,289.2z"/>
</g>
<g>
	<path fill="#FFFFFF" d="M1346,315.3c-0.9-1.4,0-3.3,1.4-3.7c-2.3,0-4.7-1.9-5.6-4.2c-1.9-3.3-0.9-7.9,2.8-10.3s7.9-0.5,9.8,3.3
		c0.9,1.9,1.9,3.7,1.4,6.1c3.3-1.9,3.7-3.3,1.9-6.5c-0.9-1.9-3.3-3.3-3.7-4.7c-0.5-1.4,0-2.8,0.9-3.3c2.8-1.4,6.5,3.7,7.5,6.1
		c2.8,5.1,3.3,9.8-2.8,13.1l-8.9,5.1C1348.3,317.7,1346.4,316.7,1346,315.3z M1350.6,304.6c-0.9-1.4-2.3-2.8-4.2-1.9
		c-1.9,0.9-1.4,3.3-0.5,4.7c0.9,1.4,2.8,3.3,4.2,2.3C1352.5,308.8,1351.6,306,1350.6,304.6z"/>
</g>
<g>
	<path fill="#FFFFFF" d="M1351.6,326.6c-0.9-1.4,0-3.3,1.4-3.7l24.3-12.1c1.4-0.9,3.3,0,3.7,1.4c0.9,1.4,0,3.3-1.4,3.7l-24.3,12.1
		C1353.9,328.9,1352.5,328,1351.6,326.6z"/>
</g>
<g>
	<path fill="#FFFFFF" d="M1086.7,1014.3c-1.9,0.5-3.3-0.5-3.7-2.3l-2.3-10.3l-14,3.3l2.3,10.3c0.5,1.9-0.5,3.3-2.3,3.7
		s-3.3-0.5-3.7-2.3l-6.1-25.7c-0.5-1.9,0.5-3.3,2.3-3.7s3.3,0.5,3.7,2.3l2.3,9.3l14-3.3l-2.3-9.3c-0.5-1.9,0.5-3.3,2.3-3.7
		c1.9-0.5,3.3,0.5,3.7,2.3l6.1,25.7C1089.5,1011.9,1088.5,1013.8,1086.7,1014.3z"/>
</g>
<g>
	<path fill="#FFFFFF" d="M1110.5,1007.3c-1.4,0.5-2.8-0.5-3.3-1.9c-0.5,2.3-2.8,4.2-5.1,4.7c-3.7,0.9-7.9-0.9-9.3-4.7
		c-1.4-4.2,1.4-7.9,5.6-8.9c1.9-0.5,4.2-0.9,6.1,0c-0.9-3.7-2.3-4.2-6.1-3.3c-2.3,0.5-3.7,2.3-5.1,2.8s-2.8-0.5-3.3-1.9
		c-0.9-2.8,5.1-5.1,7.5-6.1c5.6-1.9,10.3-0.9,12.1,5.6l2.8,9.8C1112.8,1005.4,1111.9,1006.8,1110.5,1007.3z M1101.1,1000.3
		c-1.4,0.5-3.3,1.4-2.8,3.7c0.5,1.9,2.8,1.9,4.2,1.4c1.4-0.5,3.7-1.9,3.3-3.7C1105.3,999.3,1102.5,999.8,1101.1,1000.3z"/>
</g>
<g>
	<path fill="#FFFFFF" d="M1131,1000.7c-2.3,0.9-5.1,0.5-6.5-0.9c0.5,1.9-0.5,3.3-1.4,3.7c-1.4,0.5-3.3-0.5-3.7-1.9l-8.9-25.7
		c-0.5-1.4,0.5-3.3,1.9-3.7c1.4-0.5,3.3,0.5,3.7,1.9l3.7,10.3c0-1.4,1.9-3.7,4.7-4.7c5.6-1.9,11.7,1.4,13.5,7
		C1139,992.3,1136.7,998.9,1131,1000.7z M1124.5,984.8c-3.3,0.9-4.2,4.2-2.8,7.5c1.4,3.3,3.7,4.7,7,3.7s4.2-4.2,2.8-7.5
		C1130.6,985.8,1127.8,983.9,1124.5,984.8z"/>
</g>
<g>
	<path fill="#FFFFFF" d="M1138.5,969c-1.9,0.5-3.3,0-4.2-1.9c-0.5-1.9,0-3.7,1.9-4.2c1.9-0.5,3.7,0,4.2,1.9S1139.9,968.5,1138.5,969
		z M1148.3,993.7c-1.4,0.5-3.3,0-3.7-1.4l-6.1-15c-0.5-1.4,0-3.3,1.4-3.7s3.3,0,3.7,1.4l6.1,15
		C1150.7,991.4,1149.7,993.3,1148.3,993.7z"/>
</g>
<g>
	<path fill="#FFFFFF" d="M1159.5,989.1c-1.4,0.5-3.3,0-3.7-1.4l-10.7-25.2c-0.5-1.4,0-3.3,1.4-3.7c1.4-0.5,3.3,0,3.7,1.4l10.7,25.2
		C1161.9,986.7,1161.4,988.6,1159.5,989.1z"/>
</g>
<g>
	<path fill="#FFFFFF" d="M1160.5,959.6c-1.4,0.9-3.3,0-4.2-1.4c-0.9-1.4,0-3.7,1.4-4.2c1.4-0.9,3.7,0,4.2,1.4
		C1162.8,956.8,1161.9,958.7,1160.5,959.6z M1171.2,983.9c-1.4,0.5-3.3,0-3.7-1.4l-6.5-14.5c-0.5-1.4,0-3.3,1.4-3.7
		c1.4-0.5,3.3,0,3.7,1.4l6.5,14.5C1173.6,981.6,1173.1,983.4,1171.2,983.9z"/>
</g>
<g>
	<path fill="#FFFFFF" d="M1195.5,972.2c-0.9,0.5-2.8,0.5-3.7-1.4c0,1.9-1.4,4.2-3.7,5.6c-5.1,2.8-11.7,0.5-14.5-5.1
		c-2.8-5.6-0.9-11.7,4.2-14.5c2.3-1.4,5.1-0.9,6.5,0l-5.1-9.8c-0.9-1.4,0-3.3,1.4-3.7c1.4-0.9,3.3,0,3.7,1.4l12.1,24.3
		C1197.4,969.9,1196.9,971.3,1195.5,972.2z M1180.6,961c-2.8,1.4-3.3,4.7-1.9,7.5c1.4,2.8,4.2,4.2,7.5,2.8c2.8-1.4,3.7-4.7,1.9-7.5
		C1186.2,961,1183.4,959.6,1180.6,961z"/>
</g>
<g>
	<path fill="#FFFFFF" d="M1217.5,959.6c-1.4,0.9-3.3,0-3.7-1.4c0,2.3-1.9,4.7-3.7,6.1c-3.3,1.9-7.9,0.9-10.3-2.3
		c-2.3-3.7-0.5-7.9,3.3-9.8c1.9-0.9,3.7-1.9,6.1-1.4c-1.9-3.3-3.3-3.7-6.5-1.4c-1.9,1.4-3.3,3.3-4.2,3.7c-1.4,0.9-2.8,0.5-3.3-0.9
		c-1.4-2.8,3.7-6.5,5.6-7.5c5.1-2.8,9.8-3.3,13.1,2.3l5.1,8.9C1219.3,957.3,1218.9,958.7,1217.5,959.6z M1206.7,954.9
		c-1.4,0.9-2.8,2.3-1.9,4.2c0.9,1.9,3.3,1.4,4.7,0.5c1.4-0.9,3.3-2.8,2.3-4.7C1210.5,953.1,1208.1,954,1206.7,954.9z"/>
</g>
<g>
	<path fill="#FFFFFF" d="M1240.4,945.1c-0.9,0.5-2.8,0.5-3.7-0.9c0,1.9-0.9,4.7-3.3,6.1c-5.1,3.3-11.7,1.4-15-3.7
		c-3.3-5.1-2.3-11.7,2.8-15c2.3-1.4,5.1-1.4,6.5-0.5l-6.1-9.3c-0.9-1.4-0.5-3.3,0.9-4.2c1.4-0.9,3.3-0.5,4.2,0.9l15,22.9
		C1241.8,942.8,1241.8,944.7,1240.4,945.1z M1224.5,935.8c-2.8,1.9-2.8,5.1-1.4,7.9c1.9,2.8,4.7,3.7,7.5,1.9s2.8-5.1,1.4-7.9
		C1230.1,934.9,1227.3,933.9,1224.5,935.8z"/>
</g>
<g>
	<path fill="#FFFFFF" d="M1257.2,921.8l-10.7,7.9c1.9,1.9,4.2,1.9,6.5,0.5c1.4-1.4,2.3-2.8,2.8-3.7c0-0.9,0.5-1.4,1.4-1.9
		c0.5-0.5,0.9-0.5,1.9-0.5c0.9,0,1.4,0.5,1.9,0.9c0.5,0.5,0.5,0.9,0.5,1.9c-0.5,3.3-2.8,6.1-5.1,7.5c-4.7,3.7-11.7,2.3-15.4-2.3
		c-3.7-4.7-2.8-11.7,2.3-15.4c4.7-3.7,11.2-2.3,15,2.8C1258.6,919.9,1258.1,921.3,1257.2,921.8z M1245.5,920.4
		c-1.9,1.4-2.8,3.7-1.4,6.1l7.9-5.6C1250.2,919.4,1247.8,919,1245.5,920.4z"/>
</g>
<g>
	<path fill="#FFFFFF" d="M1269.8,900.8c0.5,0.9,0,1.9-0.9,2.8c0,0-0.5,0.5-0.9,0.5c-1.4,0.5-3.3,1.4-4.2,2.3
		c-1.4,1.4-2.3,2.3-1.4,3.3c0.9,0.9,1.9,0.5,4.7-0.9c4.2-1.9,7.5-2.8,9.8,0.5c2.3,2.8,1.9,7-2.8,11.2c-1.4,1.4-4.2,2.8-6.5,3.3
		c-0.9,0.5-1.9,0-2.8-0.9c0,0-0.5-0.5-0.5-0.9c-0.5-0.9,0-1.9,0.5-2.3c0.5,0,0.5-0.5,0.9-0.5c1.9-0.5,3.3-1.4,4.7-2.3
		c1.4-1.4,2.8-3.3,1.9-4.2c-0.9-0.9-1.4-0.5-6.5,1.4c-4.2,1.4-6.5,0.9-8.4-1.4c-2.3-2.8-0.9-7,2.8-9.8c2.3-1.9,4.2-2.8,6.1-3.3
		c0.9-0.5,1.9,0,2.8,0.5C1269.8,899.8,1269.8,900.3,1269.8,900.8z"/>
</g>
<g>
	<path fill="#FFFFFF" d="M1295.5,876.9c0.5,0.9,0,1.9-0.5,2.8l-0.5,0.5c-1.4,0.5-2.8,1.4-4.2,2.8c-1.4,1.4-2.3,2.3-1.4,3.3
		c0.9,0.9,1.9,0,4.7-0.9c4.2-1.9,7.5-3.3,9.8-0.5c2.3,2.3,2.3,7-1.9,11.2c-1.4,1.4-3.7,3.3-6.5,3.7c-0.9,0.5-1.9,0-2.8-0.5
		c0,0-0.5-0.5-0.5-0.9c-0.5-0.9,0-1.9,0.5-2.3c0.5-0.5,0.5-0.5,0.9-0.5c1.9-0.5,3.3-1.4,4.7-2.8c1.4-1.4,2.8-3.3,1.9-4.2
		s-1.4-0.5-6.1,1.9c-4.2,1.9-6.5,1.4-8.4-0.5c-2.3-2.8-1.4-7,1.9-10.3c2.3-2.3,3.7-3.3,6.1-3.7c0.9-0.5,1.9-0.5,2.8,0.5
		C1295.5,876.5,1295.5,876.5,1295.5,876.9z"/>
</g>
<g>
	<path fill="#FFFFFF" d="M1318.4,879.3c-4.2,4.2-11.2,4.7-15.4,0.5s-4.7-11.2-0.5-15.4c4.2-4.2,11.2-4.7,15.4-0.5
		C1322.1,867.6,1322.1,874.6,1318.4,879.3z M1305.8,867.6c-2.3,2.3-1.9,5.6,0.5,7.9c2.3,2.3,5.6,2.8,7.9,0c2.3-2.3,1.9-5.6-0.5-7.9
		C1311.4,865.2,1308.1,865.2,1305.8,867.6z"/>
</g>
<g>
	<path fill="#FFFFFF" d="M1338.5,852.2c0.5,1.9-0.9,5.1-2.8,7.5c-3.7,4.7-10.7,5.1-15.4,1.4c-4.7-3.7-5.1-10.7-1.4-15.4
		c1.9-1.9,3.7-3.3,6.1-3.7c0.9,0,1.9,0,2.3,0.5c0.5,0.5,0.5,0.9,0.9,1.4c0,0.9,0,1.9-0.5,2.3c-0.5,0.5-0.9,0.9-1.4,0.9
		c-1.4,0.5-2.3,0.9-3.3,2.3c-2.3,2.3-1.4,5.6,0.9,7.9c2.3,2.3,5.6,2.3,7.9,0c1.4-1.4,1.4-3.3,1.4-4.2c0-0.5,0.5-1.4,0.9-1.9
		c0.5-0.5,0.9-0.9,1.9-0.9c0.5,0,0.9,0,1.4,0.5C1338,850.8,1338.5,851.2,1338.5,852.2z"/>
</g>
<g>
	<path fill="#FFFFFF" d="M1325.4,829.3c-0.9,1.4-3.3,1.9-4.7,0.5c-1.4-0.9-1.9-3.3-0.5-4.7c0.9-1.4,3.3-1.9,4.7-0.5
		C1326.3,826,1326.3,827.9,1325.4,829.3z M1346.4,846.1c-0.9,1.4-2.8,1.4-4.2,0.5l-12.6-9.8c-1.4-0.9-1.4-2.8-0.5-4.2
		c0.9-1.4,2.8-1.4,4.2-0.5l12.6,9.8C1347.4,842.8,1347.4,844.7,1346.4,846.1z"/>
</g>
<g>
	<path fill="#FFFFFF" d="M1357.6,831.1c-3.7,5.1-10.3,6.1-15.4,2.8c-5.1-3.7-6.1-10.3-2.8-15.4c3.7-5.1,10.3-6.1,15.4-2.8
		C1360,819.5,1361.4,826,1357.6,831.1z M1344.1,821.3c-1.9,2.8-0.9,5.6,1.9,7.5s6.1,1.9,7.9-0.9c1.9-2.8,0.9-5.6-1.9-7.5
		C1349.2,818.5,1346,818.5,1344.1,821.3z"/>
</g>
<g>
	<path fill="#FFFFFF" d="M1369.3,797.5l-7.5,11.2c2.3,0.9,4.7,0.5,6.5-1.9c0.9-1.9,1.4-3.3,0.9-4.7c0-0.9,0-1.4,0.5-2.3
		c0.5-0.5,0.9-0.9,1.4-0.9c0.9,0,1.4,0,2.3,0.5c0.5,0.5,0.9,0.9,0.9,1.4c0.5,3.3-0.5,6.5-1.9,8.9c-3.3,5.1-10.3,6.5-15.4,3.3
		c-5.1-3.3-6.5-10.3-3.3-15.4s9.8-6.5,15-2.8C1369.8,795.2,1369.8,796.6,1369.3,797.5z M1357.6,800.3c-1.4,2.3-0.9,4.2,0.5,6.1
		l5.1-7.9C1361.8,797.5,1359,798,1357.6,800.3z"/>
</g>
<g>
	<path fill="#FFFFFF" d="M1396,768.1c-0.9,1.4-2.3,1.9-3.7,1.4l-7.9-4.2c-2.3-1.4-5.1-1.4-6.5,1.4c-1.4,2.8,0,5.1,2.3,6.1l7.9,4.2
		c1.4,0.9,1.9,2.3,1.4,3.7c-0.5,1.4-2.3,1.9-3.7,1.4l-7.9-4.2c-2.3-1.4-5.1-1.4-6.5,1.4c-1.4,2.8,0,5.1,2.3,6.1l7.9,4.2
		c1.4,0.9,1.9,2.3,1.4,3.7c-0.5,1.4-2.3,1.9-3.7,1.4l-14-7.5c-1.4-0.9-1.9-2.3-1.4-3.7c0.5-1.4,2.3-1.9,3.7-0.9
		c-0.9-1.9-0.9-4.7,0-7c1.4-2.8,3.7-4.2,6.5-4.2c-0.9-2.3-1.4-5.6,0.5-8.4c2.8-5.1,7.5-5.6,12.6-2.8l7.9,4.2
		C1396.4,765.3,1396.9,766.7,1396,768.1z"/>
</g>
<g>
	<path fill="#FFFFFF" d="M1404.4,751.7c-2.8,5.6-9.3,7.9-14.5,5.1c-5.6-2.8-7.9-9.3-5.1-14.5c2.3-5.6,9.3-7.9,14.5-5.1
		C1404.4,739.6,1406.7,746.1,1404.4,751.7z M1388.9,744.2c-1.4,2.8,0,5.6,3.3,7c3.3,1.4,6.1,0.9,7.5-2.3c1.4-2.8,0-6.1-3.3-7
		C1393.1,741,1390.3,741.4,1388.9,744.2z"/>
</g>
<g>
	<path fill="#FFFFFF" d="M1415.1,719.5c0.9,1.9,0.9,5.1-0.5,7.9c-2.3,5.6-8.9,8.4-14.5,6.1c-5.6-2.3-8.4-8.9-6.1-14.5
		c0.9-2.3,2.3-4.7,4.7-5.6c0.9-0.5,1.9-0.5,2.3,0c0.5,0,0.9,0.5,0.9,0.9c0.5,0.9,0.5,1.4,0,2.3c0,0.5-0.5,0.9-0.9,1.4
		c-0.9,0.9-1.9,1.9-2.3,2.8c-1.4,3.3,0.5,6.1,3.3,7c2.8,1.4,6.1,0.5,7.5-2.8c0.9-1.9,0.5-3.3,0.5-4.2c0-0.5,0-1.4,0-1.9
		c0.5-0.5,0.9-0.9,1.4-1.4c0.5,0,0.9,0,1.9,0C1414.2,718.5,1414.6,719,1415.1,719.5z"/>
</g>
<g>
	<path fill="#FFFFFF" d="M1396,701.7c-0.5,1.9-2.3,2.3-4.2,1.9s-2.3-2.3-1.9-4.2c0.5-1.9,2.3-2.3,4.2-1.9
		C1396,698,1396.4,700.3,1396,701.7z M1420.7,711.1c-0.5,1.4-2.3,2.3-3.7,1.9l-15-5.6c-1.4-0.5-2.3-2.3-1.9-3.7
		c0.5-1.4,2.3-2.3,3.7-1.9l15,5.6C1420.7,708.3,1421.6,709.7,1420.7,711.1z"/>
</g>
<g>
	<path fill="#FFFFFF" d="M1427.3,693.8c-1.9,5.6-8.4,8.9-14,7c-5.6-1.9-8.9-8.4-7-14s8.4-8.9,14-7
		C1425.9,681.6,1429.1,688.2,1427.3,693.8z M1411.4,688.6c-0.9,3.3,0.9,5.6,3.7,7c3.3,0.9,6.1,0,7-3.3c0.9-3.3-0.9-5.6-3.7-7
		C1415.1,684.4,1412.3,685.4,1411.4,688.6z"/>
</g>
<g>
	<path fill="#FFFFFF" d="M1437.1,660.6c-0.5,1.4-1.9,2.3-3.7,1.9l-8.4-2.3c-2.8-0.9-5.1,0-6.1,2.8c-0.9,3.3,0.9,5.1,3.7,5.6l8.4,2.3
		c1.4,0.5,2.3,1.9,1.9,3.7c-0.5,1.4-1.9,2.3-3.7,1.9l-15.4-4.2c-1.4-0.5-2.3-2.3-1.9-3.7c0.5-1.4,1.9-2.3,3.7-1.9
		c-1.4-1.9-1.9-4.2-1.4-7c1.4-5.1,6.5-7,11.7-5.6l8.9,2.3C1436.6,657.3,1437.5,659.2,1437.1,660.6z"/>
</g>
<g>
	<path fill="#FFFFFF" d="M1443.1,636.8c-0.5,1.4-1.9,2.3-3.3,1.9c1.9,1.9,2.3,4.7,1.4,7c-0.9,3.7-4.7,6.5-8.9,5.6s-6.1-5.1-5.1-9.3
		c0.5-1.9,1.4-4.2,3.3-5.1c-3.7-0.9-4.7,0-5.6,3.7c-0.5,2.3,0,4.7-0.5,5.6c-0.5,1.4-1.9,2.3-2.8,1.9c-3.3-0.9-1.9-7-1.4-9.3
		c1.4-5.6,4.7-9.3,10.7-7.9l9.8,2.3C1442.2,633.5,1443.1,634.9,1443.1,636.8z M1431.9,641.5c-0.5,1.4-0.5,3.7,1.9,4.2
		s3.3-1.4,3.3-2.8c0.5-1.4,0.5-4.2-1.9-4.7C1433.3,637.2,1432.4,639.6,1431.9,641.5z"/>
</g>
<g>
	<path fill="#FFFFFF" d="M1445.5,624.2c-0.5,1.4-1.9,2.8-3.3,2.3l-26.6-5.1c-1.4-0.5-2.8-1.9-2.3-3.3c0.5-1.4,1.9-2.8,3.3-2.3
		l26.6,5.1C1444.5,621.4,1445.9,622.8,1445.5,624.2z"/>
</g>
<g>
	<path fill="#FFFFFF" d="M1441.3,596.1l-2.3,13.1c2.3,0,4.7-1.4,5.1-4.2c0.5-1.9,0-3.3-0.9-4.7c-0.5-0.9-0.5-1.4-0.5-2.3
		c0-0.5,0.5-0.9,0.9-1.4c0.5-0.5,1.4-0.5,1.9-0.5s0.9,0.5,1.4,0.9c1.9,2.8,2.3,6.1,1.9,8.9c-0.9,6.1-6.5,9.8-12.6,8.9
		c-6.1-0.9-10.3-6.5-8.9-12.6c0.9-6.1,6.5-9.8,12.6-8.4C1440.8,593.8,1441.7,594.7,1441.3,596.1z M1431.9,603.1
		c-0.5,2.3,0.9,4.7,3.3,5.6l1.4-9.3C1434.3,598.9,1432.4,600.8,1431.9,603.1z"/>
</g>
<g>
	<path fill="#FFFFFF" d="M1436.1,571.4c0.9,0.5,1.4,1.4,1.4,2.3c0,0.5,0,0.5-0.5,0.9c-0.9,1.4-1.4,3.3-1.4,4.7
		c-0.5,2.3,0,3.3,0.9,3.3c0.9,0,1.4-0.9,2.8-3.7c1.9-4.2,3.7-7,7.5-6.5c3.7,0.5,6.1,3.7,5.6,10.3c-0.5,2.3-0.9,5.1-2.8,7
		c-0.5,0.9-1.4,1.4-2.3,1.4c-0.5,0-0.5,0-0.9-0.5c-0.9-0.5-1.4-1.4-0.9-1.9c0-0.5,0-0.9,0.5-0.9c0.9-1.4,1.9-3.3,1.9-5.1
		c0.5-1.9,0-4.2-1.4-4.7c-0.9,0-1.4,0.5-3.7,5.1c-1.9,4.2-4.2,5.1-7,5.1c-3.7-0.5-5.6-4.2-5.1-8.9c0.5-3.3,0.9-4.7,2.3-6.5
		c0.5-0.9,1.4-1.4,2.3-1.4C1435.7,571.4,1435.7,571.4,1436.1,571.4z"/>
</g>
<g>
	<path fill="#FFFFFF" d="M512,751.7c-5.1-14-5.1-14-5.1-14c-0.5-1.4,0-2.8,1.4-3.3l19.6-7c1.4-0.5,2.8,0.5,3.3,1.4l4.7,13.5
		c0.5,1.4,0,2.8-1.4,3.3c-1.4,0.5-2.8,0-3.3-1.4l-3.7-11.2l-5.1,1.9l2.3,6.1c0.5,1.4,0,2.8-1.4,3.3c-1.4,0.5-2.8,0-3.3-1.4l-2.3-6.1
		l-5.6,1.9l4.2,11.7c0.5,1.4-0.5,2.8-1.4,3.3C513.9,753.6,512.5,753.1,512,751.7z"/>
</g>
<g>
	<path fill="#FFFFFF" d="M531.6,763.4c-0.9,0-1.4-0.5-1.9-1.4v-0.5c0-1.4-0.5-2.8-0.9-4.2c-0.5-1.4-1.4-2.3-2.3-1.9
		c-0.9,0.5-0.5,1.4-0.5,3.7c0.5,3.7,0.5,6.5-2.8,7.9c-2.8,0.9-6.1-0.5-7.9-5.1c-0.5-1.4-0.9-3.7-0.9-6.1c0-0.9,0.5-1.4,1.4-1.9
		c0,0,0.5,0,0.9,0c0.9,0,1.4,0.5,1.9,0.9c0,0.5,0,0.5,0,0.9c0,1.4,0,2.8,0.5,4.2c0.5,1.4,1.9,3.3,2.8,2.8c0.9-0.5,0.9-0.9,0.5-5.1
		c0-3.7,0.9-5.6,2.8-6.5c2.8-0.9,5.6,0.9,7,4.7c0.9,2.3,0.9,3.7,0.9,5.6C533,762.5,532.6,762.9,531.6,763.4
		C532.1,763.4,532.1,763.4,531.6,763.4z"/>
</g>
<g>
	<path fill="#FFFFFF" d="M524.1,781.6c-0.9-1.9-0.5-4.2,0-5.1l-6.5,3.3c-1.4,0.5-2.8,0-3.3-1.4c-0.5-1.4,0-2.8,0.9-3.3l18.7-8.4
		c1.4-0.5,2.8,0,3.3,0.9c0.5,0.9,0,2.3-1.4,3.3c1.4,0,3.3,1.4,4.2,3.3c1.9,4.2,0,9.3-4.7,11.7C531.6,787.7,526,786.3,524.1,781.6z
		 M536.3,775.5c-0.9-2.3-3.7-2.8-6.1-1.9c-2.3,0.9-3.7,3.3-2.3,6.1c1.4,2.8,3.7,2.8,6.1,1.9C536.3,780.2,537.7,777.9,536.3,775.5z"
		/>
</g>
<g>
	<path fill="#FFFFFF" d="M535.4,804.5c-0.5-0.9,0-2.3,0.9-3.3c-1.9,0-3.7-1.9-4.7-3.3c-1.4-2.8-0.5-6.5,2.3-7.9
		c3.3-1.9,6.5,0,7.9,3.3c0.9,1.4,1.4,3.3,0.9,5.1c2.8-1.4,3.3-2.3,1.9-5.1c-0.9-1.9-2.3-2.8-2.8-3.7c-0.5-0.9,0-2.3,0.9-2.8
		c2.3-0.9,5.1,3.3,6.1,5.1c2.3,4.2,2.3,8.4-2.3,10.7l-7.5,3.7C537.7,805.9,535.8,805.4,535.4,804.5z M539.6,795.6
		c-0.5-1.4-1.9-2.3-3.3-1.9c-1.4,0.5-1.4,2.3-0.5,3.7c0.5,1.4,1.9,2.8,3.7,1.9C541,798.9,540.5,797,539.6,795.6z"/>
</g>
<g>
	<path fill="#FFFFFF" d="M546.1,824.1c-0.5-0.9-0.5-2.8,0.9-3.3l6.1-3.7c1.9-0.9,2.8-2.8,1.9-5.1c-1.4-2.3-3.7-2.3-5.6-1.4l-6.1,3.7
		c-0.9,0.5-2.8,0.5-3.3-0.9c-0.5-0.9-0.5-2.8,0.9-3.3l11.2-6.5c0.9-0.5,2.8,0,3.3,0.9s0,2.3-0.9,3.3c1.9,0.5,3.7,1.4,4.7,3.3
		c2.3,3.7,0.5,7.9-3.7,10.3l-6.5,3.7C548.4,825.5,547,825.1,546.1,824.1z M562,810.6c-0.5-0.9-0.5-2.3-0.9-3.7
		c-0.9-1.4-1.4-0.9-1.9-1.9c-0.5-0.5,0-1.4,0.5-1.9c1.4-0.9,3.7,0.9,4.2,2.3s0.5,2.8,0.9,3.7c0.5,0.9,1.4,0.9,1.9,1.4
		c0.5,0.5,0,1.4-0.5,1.9C564.3,812.9,562.5,811.5,562,810.6z"/>
</g>
<g>
	<path fill="#FFFFFF" d="M554,836.7c-2.8-4.2-1.4-9.8,2.8-12.6c4.2-2.8,9.8-1.4,12.6,2.8c2.8,4.2,1.4,9.8-2.8,12.6
		C562.5,842.3,556.8,840.9,554,836.7z M565.7,829.7c-1.4-2.3-4.2-2.3-6.5-0.9c-2.3,1.4-3.3,3.7-1.9,6.1c1.4,2.3,4.2,2.3,6.5,0.9
		C566.2,834.4,567.1,832.1,565.7,829.7z"/>
</g>
<g>
	<path fill="#FFFFFF" d="M563.4,850.3c-0.9-0.9-0.5-2.8,0.5-3.3l18.2-12.6c0.9-0.9,2.8-0.5,3.3,0.5c0.9,0.9,0.5,2.8-0.5,3.3
		l-18.2,12.6C565.7,851.7,564.3,851.7,563.4,850.3z"/>
</g>
<g>
	<path fill="#FFFFFF" d="M585.3,863.8c-1.9-2.3-1.4-5.1,0.9-7c2.3-1.9,5.1-1.4,7,0.9c1.9,2.3,1.4,5.1-0.9,7
		C590,866.6,586.7,866.2,585.3,863.8z"/>
</g>
<g>
	<path fill="#FFFFFF" d="M593.8,889.1c-0.9-0.9-0.9-2.8,0.5-3.7l16.4-14.5c0.9-0.9,2.8-0.9,3.7,0.5c0.9,0.9,0.9,2.8-0.5,3.7
		l-16.4,14.5C596.1,890.5,594.7,890.5,593.8,889.1z"/>
</g>
<g>
	<path fill="#FFFFFF" d="M608.7,905.9c-0.9-0.9-0.9-2.3,0-3.3l5.1-5.1c1.9-1.4,2.3-3.7,0.5-5.6c-1.9-1.9-4.2-1.4-5.6,0l-5.1,5.1
		c-0.9,0.9-2.3,0.9-3.3,0c-0.9-0.9-0.9-2.3,0-3.3l9.3-8.9c0.9-0.9,2.3-0.9,3.3,0c0.9,0.9,0.9,2.3,0,3.3c1.9,0,3.7,0.5,5.6,1.9
		c2.8,3.3,2.3,7.5-0.9,10.7l-5.6,5.1C611,906.8,609.6,906.8,608.7,905.9z"/>
</g>
<g>
	<path fill="#FFFFFF" d="M613.8,921.3c-1.9-1.9-2.8-2.8-3.3-4.7c-0.5-0.9,0-2.3,0.9-2.8c0.9-0.5,2.3,0,2.8,0.9
		c0.5,1.4,1.9,2.8,2.8,3.7c2.3,2.3,4.7,1.9,6.5,0c0,0,0,0,0.9-0.9c-1.4,0.5-3.7,0-5.1-1.4c-3.3-3.3-3.7-8.4,0-12.1
		c3.3-3.7,8.9-3.7,12.1-0.5c1.4,1.4,2.3,3.7,1.9,5.1c0.9-0.9,2.3-0.9,3.3,0c0.9,0.9,0.9,2.3,0,3.3c-9.3,9.8-9.3,9.8-9.3,9.8
		C623.7,925,618.5,925.5,613.8,921.3z M628.8,906.4c-1.9-1.9-4.2-1.4-6.1,0.5c-1.9,1.9-1.9,4.2,0,6.1s4.7,1.4,6.1-0.5
		C630.7,911,630.7,908.2,628.8,906.4z"/>
</g>
<g>
	<path fill="#FFFFFF" d="M632.1,928.3c-0.9-0.9-0.9-2.3,0-3.3l15-16.4c0.9-0.9,2.3-0.9,3.3,0c0.9,0.9,0.9,2.3,0,3.3l-15,16.4
		C634.4,928.8,633,928.8,632.1,928.3z"/>
</g>
<g>
	<path fill="#FFFFFF" d="M653.6,936.7l-8.4-7c-0.9,1.9-0.5,3.7,0.9,5.6c1.4,0.9,2.3,1.4,3.7,1.4c0.9,0,1.4,0,1.9,0.5
		s0.5,0.9,0.5,1.4s0,1.4-0.5,1.9c-0.5,0.5-0.5,0.5-1.4,0.5c-2.8,0-5.1-0.9-7-2.3c-3.7-3.3-4.2-8.9-1.4-12.6
		c3.3-3.7,8.9-4.7,12.6-1.4c3.7,3.3,4.2,8.4,0.9,12.6C655.4,937.2,654.5,937.2,653.6,936.7z M652.6,927.4c-1.4-1.4-3.3-1.4-5.1,0
		l6.1,5.1C654.5,930.7,654,928.3,652.6,927.4z M662.9,923.6l-5.6-0.5c-0.5,0-0.5,0-0.9-0.5c-0.9-0.5-0.9-1.9-0.5-2.3
		s0.9-0.9,1.4-0.5l5.6,0.5c0.5,0,0.9,0,0.9,0.5c0.9,0.5,0.9,1.9,0.5,2.3C663.8,923.2,663.4,923.6,662.9,923.6z"/>
</g>
<g>
	<path fill="#FFFFFF" d="M673.2,942.8c-0.9,0.5-1.4,0.5-2.3,0l-0.5-0.5c-0.9-0.9-1.9-2.3-2.8-3.3c-1.4-0.9-2.3-1.4-2.8-0.5
		c-0.5,0.9,0,1.4,1.4,3.3c1.9,2.8,3.7,5.6,1.4,7.9c-1.9,2.3-5.1,2.8-9.3,0c-1.4-0.9-2.8-2.8-3.7-4.7c-0.5-0.9-0.5-1.9,0-2.3l0.5-0.5
		c0.5-0.5,1.4-0.5,1.9,0c0,0,0.5,0.5,0.5,0.9c0.9,1.4,1.9,2.3,2.8,3.3c1.4,0.9,2.8,1.9,3.7,0.9c0.5-0.9,0-1.4-2.3-4.7
		c-1.9-2.8-1.9-5.1-0.5-7c1.9-2.3,5.1-2.3,8.4,0.5c1.9,1.4,2.8,2.8,3.7,4.2C673.6,941.4,673.6,941.9,673.2,942.8
		C673.6,942.8,673.6,942.8,673.2,942.8z"/>
</g>
<g>
	<path fill="#FFFFFF" d="M687.2,958.2c-2.3-1.4-2.8-4.7-1.4-7c1.4-2.3,4.7-2.8,7-1.4c2.3,1.4,2.8,4.7,1.4,7
		C692.8,959.2,689.5,959.6,687.2,958.2z"/>
</g>
<g>
	<path fill="#FFFFFF" d="M715.7,986.2c-12.6-7.5-12.6-7.5-12.6-7.5c-1.4-0.9-1.9-2.3-0.9-3.7l10.7-18.7c0.9-1.4,2.3-1.9,3.7-0.9
		c1.4,0.9,1.9,2.3,0.9,3.7l-9.3,16.4l10.3,6.1c0.9,0.5,1.4,2.3,0.9,3.3C718.5,986.7,717.1,986.7,715.7,986.2z"/>
</g>
<g>
	<path fill="#FFFFFF" d="M722.2,989.5c-0.9-0.5-1.4-1.9-0.9-3.3l5.6-11.2c0.5-0.9,1.9-1.9,3.3-0.9c0.9,0.5,1.9,1.9,0.9,3.3
		l-6.1,11.7C724.6,990,723.2,990.5,722.2,989.5z M732.1,970.4c-1.4-0.5-1.9-2.3-0.9-3.7c0.5-1.4,2.3-1.9,3.7-0.9
		c1.4,0.5,1.9,2.3,0.9,3.7C734.9,970.4,733.5,970.8,732.1,970.4z"/>
</g>
<g>
	<path fill="#FFFFFF" d="M744.2,985.8l-2.8-1.4l-5.1,9.8c-0.5,1.4-1.9,1.4-3.3,0.9s-1.9-1.9-0.9-3.3l5.1-9.8l-2.3-1.4
		c-0.9-0.5-1.4-1.4-0.9-2.8c0.5-0.9,1.4-1.4,2.8-0.9l2.3,1.4l2.3-5.1c0.5-1.4,1.9-1.9,3.3-0.9c1.4,0.5,1.9,1.9,0.9,3.3l-2.3,5.1
		l2.8,1.4c0.9,0.5,1.4,1.9,0.9,2.8S745.1,986.2,744.2,985.8z"/>
</g>
<g>
	<path fill="#FFFFFF" d="M758.2,998.4l-10.3-4.2c-0.5,1.9,0.5,3.7,2.3,4.7c1.4,0.5,2.8,0.5,3.7,0.5c0.5,0,1.4,0,1.9,0
		c0.5,0,0.9,0.5,0.9,0.9c0.5,0.5,0.5,1.4,0,1.9c0,0.5-0.5,0.9-0.9,0.9c-2.3,0.9-5.1,0.5-7.5-0.5c-4.7-1.9-6.5-7.5-4.7-11.7
		c1.9-4.7,7.5-6.5,11.7-4.7c4.7,1.9,6.5,7,4.2,11.7C760.1,998.9,759.1,998.9,758.2,998.4z M754.5,990c-1.9-0.9-3.7-0.5-4.7,1.4
		l7.5,3.3C757.3,992.3,756.3,990.5,754.5,990z"/>
</g>
<g>
	<path fill="#FFFFFF" d="M775.5,998.9c-2.8-0.9-6.1-0.9-7,1.9l-2.3,6.1c-0.5,1.4-1.9,1.9-3.3,1.4c-1.4-0.5-1.9-1.9-1.4-3.3l4.7-12.1
		c0.5-1.4,1.9-1.9,3.3-1.4c1.4,0.5,1.9,1.9,1.4,3.3c2.3-1.4,3.7-1.4,6.5,0c0.9,0.5,1.4,1.9,1.4,2.8
		C778.8,998.4,776.9,999.3,775.5,998.9z"/>
</g>
<g>
	<path fill="#FFFFFF" d="M785.8,1017.1c-1.4-0.5-1.9-1.9-1.4-2.8c-1.4,1.4-3.7,1.4-5.6,0.5c-3.3-0.9-5.1-4.7-3.7-7.5
		c1.4-3.3,4.7-4.2,7.9-3.3c1.4,0.5,3.3,1.4,4.2,3.3c0.9-2.8,0.5-3.7-2.3-5.1c-1.9-0.5-3.7-0.5-4.7-0.9c-0.9-0.5-1.4-1.4-1.4-2.8
		c0.9-2.3,6.1-0.9,7.9-0.5c4.7,1.9,7.5,4.7,5.6,9.3l-2.8,7.9C788.6,1017.1,787.2,1017.6,785.8,1017.1z M783.4,1007.7
		c-1.4-0.5-2.8-0.5-3.7,0.9c-0.5,1.4,0.9,2.8,1.9,3.3c1.4,0.5,3.3,0.9,4.2-0.9C786.2,1009.6,784.4,1008.2,783.4,1007.7z"/>
</g>
<g>
	<path fill="#FFFFFF" d="M807.3,1010.1l-3.3-0.9l-3.3,10.7c-0.5,1.4-1.9,1.9-2.8,1.4c-1.4-0.5-1.9-1.9-1.4-2.8l3.3-10.7l-2.8-0.9
		c-0.9-0.5-1.4-1.4-1.4-2.3c0.5-0.9,1.4-1.4,2.3-1.4l2.8,0.9l1.9-5.1c0.5-1.4,1.9-1.9,2.8-1.4c1.4,0.5,1.9,1.9,1.4,2.8l-1.9,5.1
		l3.3,0.9c0.9,0.5,1.4,1.4,1.4,2.3S808.2,1010.5,807.3,1010.1z"/>
</g>
<g>
	<path fill="#FFFFFF" d="M821.3,1028.3c-1.4-0.5-1.9-1.9-1.4-2.8c-1.4,0.9-3.7,1.4-5.6,0.9c-4.2-1.4-5.6-5.1-4.7-9.8l1.9-7
		c0.5-1.4,1.9-1.9,2.8-1.9c1.4,0.5,1.9,1.9,1.4,2.8l-1.9,7c-0.5,2.3,0,4.2,2.3,5.1c2.3,0.9,4.2-0.9,4.7-2.8l1.9-7
		c0.5-1.4,1.9-1.9,2.8-1.9c1.4,0.5,1.9,1.9,1.4,2.8l-3.7,12.6C824.1,1027.8,822.7,1028.8,821.3,1028.3z"/>
</g>
<g>
	<path fill="#FFFFFF" d="M842.3,1019.4c-2.8-0.9-6.1,0-6.5,2.8l-1.9,6.5c-0.5,1.4-1.4,1.9-2.8,1.9c-1.4-0.5-1.9-1.4-1.9-2.8
		l3.3-12.6c0.5-1.4,1.9-1.9,2.8-1.9c1.4,0.5,1.9,1.9,1.9,2.8c2.3-1.4,3.7-1.9,6.1-0.9c0.9,0.5,1.9,1.4,1.4,2.8
		C844.6,1019,843.7,1019.9,842.3,1019.4z"/>
</g>
<g>
	<path fill="#FFFFFF" d="M855.4,1036.2c-1.4-0.5-1.9-1.4-1.9-2.8c-1.4,1.4-3.7,1.9-5.6,1.4c-3.3-0.5-5.6-3.7-4.7-7
		c0.9-3.7,3.7-5.1,7.5-4.2c1.9,0.5,3.3,0.9,4.7,2.3c0.5-3.3,0-3.7-3.3-4.7c-1.9-0.5-3.7,0-4.7,0c-0.9-0.5-1.9-1.4-1.4-2.3
		c0.5-2.3,5.6-1.9,7.5-1.4c4.7,0.9,7.9,3.3,6.5,8.9l-1.9,8.4C857.7,1035.8,856.3,1036.7,855.4,1036.2z M851.2,1027.4
		c-1.4-0.5-3.3,0-3.3,1.4c-0.5,1.4,1.4,2.3,2.3,2.8c1.4,0.5,3.3,0,3.7-1.4C854.5,1028.3,852.6,1027.8,851.2,1027.4z"/>
</g>
<g>
	<path fill="#FFFFFF" d="M617.1,833.9c-4.7-0.5-9.3-2.8-12.1-6.5c-5.6-7.5-3.7-17.8,3.7-23.4s17.8-3.7,23.4,3.7
		c2.3,3.3,3.7,7,2.8,11.2c0,0.9-0.5,1.9-1.4,2.3c-1.4,0.9-3.3,0.5-4.2-0.9c-1.4-1.9,0.5-5.1-2.3-8.9c-3.7-5.1-9.8-5.1-14.5-1.9
		c-4.7,3.3-6.5,9.3-2.8,14.5c3.7,5.1,8.4,3.3,9.8,5.1c0.9,1.4,0.5,3.7-0.9,4.7C618.5,833.9,617.6,833.9,617.1,833.9z"/>
</g>
<g>
	<path fill="#FFFFFF" d="M621.3,848c-3.7-4.7-3.3-11.7,1.4-15.4s11.7-3.3,15.4,1.4c3.7,4.7,3.3,11.7-1.4,15.4
		C632.1,853.6,625.1,852.6,621.3,848z M634.4,837.2c-2.3-2.8-5.1-2.3-7.9-0.5c-2.3,1.9-3.3,5.1-1.4,7.9c2.3,2.8,5.1,2.3,7.9,0.5
		C635.8,842.8,636.3,840,634.4,837.2z"/>
</g>
<g>
	<path fill="#FFFFFF" d="M644.7,874.1c-0.9-0.9-0.9-3.3,0-4.2l6.5-6.1c1.9-1.9,2.8-4.7,0.5-6.5c-2.3-2.3-4.7-1.4-6.5,0l-6.5,6.1
		c-0.9,0.9-2.8,0.9-4.2,0c-0.9-0.9-0.9-3.3,0-4.2l11.7-10.7c0.9-0.9,3.3-0.9,4.2,0c0.9,0.9,0.9,2.8,0,4.2c2.3,0,4.7,0.5,6.5,2.3
		c3.7,3.7,2.8,8.9-1.4,13.1l-6.5,6.1C647.5,875.1,645.6,875.1,644.7,874.1z"/>
</g>
<g>
	<path fill="#FFFFFF" d="M671.3,877.4l-2.8-2.8l-9.3,9.8c-0.9,0.9-2.8,0.9-4.2,0c-1.4-0.9-1.4-2.8,0-4.2l9.3-9.8L662,868
		c-0.9-0.9-0.9-2.3,0-3.3c0.9-0.9,2.3-0.9,3.3,0l2.3,2.3l4.7-5.1c0.9-0.9,2.8-1.4,4.2,0c1.4,1.4,1.4,2.8,0,4.2l-4.7,5.1l2.8,2.8
		c0.9,0.9,0.9,2.3,0,3.3C674.1,878.3,672.2,878.3,671.3,877.4z"/>
</g>
<g>
	<path fill="#FFFFFF" d="M683,897.5l-10.3-8.9c-1.4,1.9-0.9,4.7,0.9,6.5c1.4,1.4,2.8,1.9,4.2,1.9c0.9,0,1.4,0.5,1.9,0.9
		c0.5,0.5,0.9,0.9,0.9,1.4c0,0.9,0,1.4-0.5,1.9c-0.5,0.5-0.9,0.5-1.4,0.5c-3.3,0-6.5-1.4-8.4-3.3c-4.7-4.2-5.1-11.2-0.9-15.4
		c4.2-4.7,10.7-5.1,15.4-0.9c4.7,4.2,5.1,10.3,0.9,15.4C684.9,898.4,683.9,898.4,683,897.5z M681.6,885.8c-1.9-1.9-4.2-1.9-6.1,0
		l7.5,6.5C683.9,890,683.5,887.7,681.6,885.8z"/>
</g>
<g>
	<path fill="#FFFFFF" d="M697,919.9c-1.4-0.9-1.4-2.8-0.5-4.2l5.1-7c1.9-2.3,1.9-4.7-0.5-6.5c-2.3-1.9-5.1-0.9-6.5,1.4l-5.1,7
		c-0.9,1.4-2.8,1.4-4.2,0.5c-1.4-0.9-1.4-2.8-0.5-4.2l9.8-12.6c0.9-1.4,2.8-1.4,4.2-0.5c1.4,0.9,1.4,2.8,0.5,4.2
		c2.3-0.5,4.7-0.5,7,1.4c4.2,3.3,4.2,8.4,0.9,13.1l-5.6,7C699.8,920.4,697.9,920.8,697,919.9z"/>
</g>
<g>
	<path fill="#FFFFFF" d="M706.8,926.9c-1.4-0.9-1.4-2.8-0.5-4.2l9.3-13.1c0.9-1.4,2.8-1.9,4.2-0.9s1.4,2.8,0.5,4.2L711,926
		C710.1,927.8,708.2,927.8,706.8,926.9z M722.7,905.4c-1.4-0.9-1.9-2.8-0.9-4.7c0.9-1.4,2.8-1.9,4.7-0.9c1.4,0.9,1.9,3.3,0.9,4.7
		C726,905.9,724.1,906.4,722.7,905.4z"/>
</g>
<g>
	<path fill="#FFFFFF" d="M729.2,941.9c-0.9-0.5-1.9-2.3-0.5-3.7c-1.9,0.9-4.7,0.9-6.5-0.5c-5.1-3.3-6.1-9.8-2.8-15
		c3.3-5.1,9.8-7,15-3.7c2.3,1.4,3.3,4.2,3.3,5.6l6.1-9.3c0.9-1.4,2.8-1.9,4.2-0.9c1.4,0.9,1.9,2.8,0.9,4.2l-14.5,22.9
		C732.5,942.3,730.6,942.8,729.2,941.9z M731.6,923.2c-2.8-1.9-5.6-0.5-7.5,1.9c-1.9,2.8-1.4,6.1,1.4,7.9c2.8,1.9,5.6,0.5,7.5-1.9
		C734.4,928.3,734.4,925,731.6,923.2z"/>
</g>
<g>
	<path fill="#FFFFFF" d="M745.6,951.7c-5.1-2.8-7.5-9.8-4.2-15c2.8-5.1,9.8-7.5,15-4.2c5.1,2.8,7.5,9.8,4.2,15
		C757.7,952.6,751.2,954.5,745.6,951.7z M754,936.7c-2.8-1.4-5.6-0.5-7.5,2.8c-1.4,2.8-1.4,6.1,1.9,7.5c2.8,1.4,6.1,0.5,7.5-2.3
		C757.3,941.9,756.8,938.6,754,936.7z"/>
</g>
<g>
	<path fill="#FFFFFF" d="M783.4,951.2c-0.9,0.9-1.9,0.9-2.8,0.5l-0.5-0.5c-0.9-0.9-2.3-2.3-4.2-3.3s-3.3-1.4-3.7,0
		c-0.5,0.9,0.5,1.9,2.3,3.7c3.3,3.3,5.6,5.6,3.7,9.3c-1.4,3.3-5.6,4.7-11.2,1.9c-1.9-0.9-4.2-2.8-5.6-4.7c-0.5-0.9-0.9-1.9-0.5-2.8
		c0-0.5,0.5-0.5,0.5-0.5c0.5-0.5,1.4-0.9,2.3-0.5c0.5,0,0.5,0.5,0.9,0.9c1.4,1.4,2.3,2.8,4.2,3.3c1.9,0.9,4.2,1.4,4.7,0
		c0.5-0.9,0-1.9-3.7-5.1c-3.3-3.3-3.7-5.6-2.3-8.4c1.4-3.3,6.1-3.7,10.3-1.9c2.8,1.4,4.2,2.8,5.6,4.2c0.9,0.9,0.9,1.9,0.5,2.8
		C783.9,950.7,783.4,950.7,783.4,951.2z"/>
</g>
<polygon fill="#FFFFFF" points="916.6,55.6 921.7,55.6 921.7,56.5 918,56.5 918,58.4 921.3,58.4 921.3,59.3 918,59.3 918,61.2 
	921.7,61.2 921.7,62.1 916.6,62.1 "/>
<polygon fill="#FFFFFF" points="922.7,55.6 924.1,55.6 925.5,57.9 927.3,55.6 928.7,55.6 926.4,58.8 928.7,62.1 927.3,62.1 
	925.5,59.8 923.6,62.1 922.7,62.1 925,58.8 "/>
<g>
	<path fill="#FFFFFF" d="M934.4,57.4c0-0.9-0.9-1.4-1.9-1.4c-1.4,0-1.9,1.4-1.9,2.8c0,1.4,0.5,2.8,1.9,2.8c0.9,0,1.9-0.9,1.9-1.9
		h0.9c0,1.9-1.4,2.8-2.8,2.8c-1.9,0-3.3-1.4-3.3-3.7c0-1.9,1.4-3.7,3.3-3.7c1.4,0,2.8,0.9,2.8,2.3L934.4,57.4L934.4,57.4z"/>
</g>
<polygon fill="#FFFFFF" points="937.2,55.6 941.8,55.6 941.8,56.5 938.1,56.5 938.1,58.4 941.8,58.4 941.8,59.3 938.1,59.3 
	938.1,61.2 942.3,61.2 942.3,62.1 937.2,62.1 "/>
<polygon fill="#FFFFFF" points="943.7,55.6 948.8,55.6 948.8,56.5 945.1,56.5 945.1,58.4 948.4,58.4 948.4,59.3 945.1,59.3 
	945.1,61.2 948.8,61.2 948.8,62.1 943.7,62.1 "/>
<g>
	<path fill="#FFFFFF" d="M950.7,55.6h2.8c2.3,0,2.8,1.4,2.8,3.3c0,1.9-0.9,3.3-2.8,3.3h-2.8V55.6z M952.1,61.2h1.4
		c1.9,0,2.3-0.9,2.3-2.3s-0.5-2.3-2.3-2.3h-1.4V61.2z"/>
</g>
<polygon fill="#FFFFFF" points="962.9,59.8 960,55.6 961.4,55.6 963.3,58.4 965.2,55.6 966.6,55.6 963.8,59.8 963.8,62.1 
	962.9,62.1 "/>
<g>
	<path fill="#FFFFFF" d="M973.1,58.8c0,1.9-1.4,3.7-3.3,3.7c-1.9,0-3.3-1.4-3.3-3.7c0-1.9,1.4-3.7,3.3-3.7
		C971.7,55.1,973.1,57,973.1,58.8 M968,58.8c0,1.4,0.5,2.8,1.9,2.8s1.9-1.4,1.9-2.8c0-1.4-0.5-2.8-1.9-2.8S968,57.4,968,58.8"/>
	<path fill="#FFFFFF" d="M974.5,55.6h1.4v3.7c0,0.9,0,1.9,1.4,1.9s1.4-0.9,1.4-1.9v-4.2h1.4v4.2c0,1.9-0.9,2.8-2.8,2.8
		c-1.9,0-2.8-0.9-2.8-2.8V55.6z"/>
	<path fill="#FFFFFF" d="M982,55.6h3.3c1.4,0,2.3,0.5,2.3,1.9s-0.9,1.9-0.9,1.9l0,0c0.5,0,0.9,0.5,0.9,1.4c0,0.9,0,1.4,0.5,1.9h-1.4
		c0-0.5,0-0.5,0-0.9c0-1.4-0.5-1.9-1.4-1.9h-1.9v2.8H982V55.6z M983.4,58.4h1.9c0.9,0,1.4-0.5,1.4-0.9c0-0.9-0.5-0.9-1.4-0.9h-1.9
		V58.4z"/>
</g>
<polygon fill="#FFFFFF" points="991.8,55.6 993.2,55.6 995.1,60.7 995.1,60.7 996.5,55.6 997.9,55.6 995.6,62.1 994.2,62.1 "/>
<rect x="999.3" y="55.6" fill="#FFFFFF" width="1.4" height="7"/>
<g>
	<path fill="#FFFFFF" d="M1003,59.8c0,0.9,0.9,1.4,1.9,1.4s1.4-0.5,1.4-0.9s-0.5-0.9-0.5-0.9c-0.5,0-0.9-0.5-1.9-0.5
		c-1.4-0.5-1.4-0.9-1.4-1.9c0-1.4,1.4-1.9,2.3-1.9c1.4,0,2.8,0.9,2.8,2.3h-1.4c0-0.9-0.5-1.4-1.4-1.4c-0.5,0-1.4,0-1.4,0.9
		c0,0.5,0.5,0.9,0.9,0.9c0,0,1.4,0.5,1.9,0.5c0.9,0.5,1.4,0.9,1.4,1.9c0,1.4-1.4,2.3-2.8,2.3s-2.8-0.9-2.8-2.3h0.9V59.8z"/>
</g>
<rect x="1009.1" y="55.6" fill="#FFFFFF" width="1.4" height="7"/>
<g>
	<path fill="#FFFFFF" d="M1018.4,58.8c0,1.9-1.4,3.7-3.3,3.7c-1.9,0-3.3-1.4-3.3-3.7c0-1.9,1.4-3.7,3.3-3.7
		C1017,55.1,1018.4,57,1018.4,58.8 M1012.8,58.8c0,1.4,0.5,2.8,1.9,2.8s1.9-1.4,1.9-2.8c0-1.4-0.5-2.8-1.9-2.8
		S1012.8,57.4,1012.8,58.8"/>
</g>
<polygon fill="#FFFFFF" points="1019.8,55.6 1021.3,55.6 1024.5,60.2 1024.5,60.2 1024.5,55.6 1025.5,55.6 1025.5,62.1 1024.1,62.1 
	1021.3,57.4 1021.3,57.4 1021.3,62.1 1019.8,62.1 "/>
<g>
	<path fill="#FFFFFF" d="M991.8,24.7c-7.5,0-11.7,5.6-11.7,13.1c0,7.5,4.2,13.1,11.7,13.1s11.7-5.6,11.7-13.1
		C1003.5,30.3,999.3,24.7,991.8,24.7 M991.8,46.7c-4.7,0-6.5-4.2-6.5-8.9c0-4.2,1.9-8.9,6.5-8.9s6.5,4.2,6.5,8.9
		C998.4,42.5,996.5,46.7,991.8,46.7"/>
</g>
<polygon fill="#FFFFFF" points="916.6,25.7 935.3,25.7 935.3,29.9 921.7,29.9 921.7,35.5 934.4,35.5 934.4,39.7 921.7,39.7 
	921.7,45.8 935.3,45.8 935.3,50.4 916.6,50.4 "/>
<g>
	<path fill="#FFFFFF" d="M937.2,50.4h5.1V43h4.7c6.1,0,10.7-3.3,10.7-8.9c0-5.6-4.2-8.9-10.7-8.9h-9.8V50.4z M947,38.3h-4.7v-8.4
		h4.7c3.3,0,5.6,1.4,5.6,4.2S950.2,38.3,947,38.3"/>
	<path fill="#FFFFFF" d="M1011,25.7h-5.1v24.8h5.1v-9.8c0-2.8,0-5.1,0-7.5c0.5,1.4,2.3,5.1,3.3,6.5l6.5,11.2h5.1V26.1h-5.1V36
		c0,2.8,0,5.6,0,7.5c-0.5-1.4-2.3-5.1-3.3-6.5L1011,25.7z"/>
	<path fill="#FFFFFF" d="M963.3,42c0,3.3,2.8,4.7,5.6,4.7c1.9,0,5.1-0.5,5.1-3.3s-3.7-3.3-7.5-4.2c-3.7-0.9-7.5-2.3-7.5-7
		c0-5.1,4.7-7.5,9.3-7.5c5.1,0,9.8,2.3,9.8,7.9h-5.1c0-2.8-2.3-3.7-5.1-3.7c-1.9,0-3.7,0.9-3.7,2.8s1.4,2.3,7.5,3.7
		c1.9,0.5,7.5,1.4,7.5,7c0,4.7-3.7,7.9-10.3,7.9c-5.6,0-10.7-2.8-10.7-8.9h5.1V42z"/>
	<path fill="#FFFFFF" d="M1027.8,28c0-1.4,0.9-2.3,2.3-2.3c1.4,0,2.3,0.9,2.3,2.3c0,1.4-0.9,2.3-2.3,2.3
		C1029.2,30.3,1027.8,29.4,1027.8,28 M1030.6,30.8c1.4,0,2.8-1.4,2.8-2.8c0-1.4-1.4-2.8-2.8-2.8s-2.8,1.4-2.8,2.8
		C1027.8,29.4,1028.7,30.8,1030.6,30.8"/>
	<path fill="#FFFFFF" d="M1030.6,28c0.5,0,0.5,0,0.5-0.5s-0.5-0.5-0.5-0.5h-0.9v2.8h-0.5v-3.3h1.4c0.5,0,0.9,0.5,0.9,0.9
		C1032,28,1031.5,28.5,1030.6,28l1.4,1.9h-0.5L1030.6,28L1030.6,28z"/>
	<path fill="#FFFFFF" d="M659.2,127.5h7.9c2.3,0,4.2,0.5,5.1,1.4s1.9,1.9,1.9,3.7c0,0.9-0.5,1.9-0.9,2.8c-0.5,0.9-1.4,1.4-2.3,1.4
		l0,0c1.4,0,2.8,0.9,3.3,1.9c0.9,0.9,1.4,1.9,1.4,3.7c0,1.9-0.5,3.3-1.9,4.2s-3.3,1.4-6.1,1.4h-7.9v-20.6H659.2z M662.4,130.3v5.6
		h4.7c1.4,0,2.3,0,2.8-0.5c0.9-0.5,0.9-1.4,0.9-2.3s-0.5-1.9-0.9-1.9c-0.5-0.5-1.9-0.5-3.3-0.5h-4.2V130.3z M662.4,138.3v6.5h5.1
		c1.4,0,2.8-0.5,3.3-0.9c0.5-0.5,0.9-1.4,0.9-2.3s-0.5-1.9-0.9-2.3c-0.9-0.5-1.9-0.9-3.3-0.9H662.4z"/>
	<path fill="#FFFFFF" d="M688.1,127.1c1.4,0,2.8,0,3.7,0.5c0.9,0.5,2.3,0.9,3.3,1.9c0.9,0.9,1.9,2.3,2.3,3.7
		c0.5,1.4,0.9,2.8,0.9,4.7c0,1.4-0.5,2.8-0.9,4.2c-0.5,1.4-1.4,2.3-2.3,3.3c-0.9,0.9-1.9,1.9-3.3,2.3c-1.4,0.5-2.3,0.9-4.2,0.9
		c-1.4,0-2.8-0.5-4.2-0.9c-1.4-0.5-2.3-1.4-3.3-2.3s-1.9-2.3-2.3-3.3c-0.5-1.4-0.9-2.8-0.9-4.2c0-1.4,0.5-2.8,0.9-4.2
		c0.5-1.4,1.4-2.3,2.3-3.3s1.9-1.4,3.3-2.3C685.3,127.5,686.7,127.1,688.1,127.1 M688.1,129.9c-1.9,0-3.3,0.9-4.7,2.3
		c-1.4,1.4-1.9,3.3-1.9,5.6s0.5,4.2,1.9,5.6c1.4,1.4,2.8,2.3,4.7,2.3s3.3-0.9,4.7-2.3c1.4-1.4,1.9-3.3,1.9-5.6s-0.5-4.2-1.9-5.6
		C691.4,130.3,690,129.9,688.1,129.9"/>
</g>
<polygon fill="#FFFFFF" points="697.9,127.5 702.1,127.5 706.8,135.5 711.5,127.5 715.2,127.5 708.2,137.3 715.2,147.6 711.5,147.6 
	706.8,139.7 701.7,147.6 697.9,147.6 705,137.3 "/>
<polygon fill="#FFFFFF" points="718,127.5 721.3,127.5 721.3,145.3 731.1,145.3 731.1,147.6 718,147.6 "/>
<rect x="733.9" y="127.5" fill="#FFFFFF" width="3.3" height="20.1"/>
<g>
	<path fill="#FFFFFF" d="M759.1,133.6h-3.3c-0.5-1.4-0.9-2.3-1.9-2.8c-0.9-0.9-1.9-0.9-3.3-0.9c-1.9,0-3.7,0.9-4.7,2.3
		c-1.4,1.4-1.9,3.3-1.9,5.6s0.5,4.2,1.9,5.6c1.4,1.4,2.8,2.3,4.7,2.3c1.4,0,2.8-0.5,3.7-1.4s1.4-2.3,1.9-3.7h-3.7v-2.3h7v9.8h-2.3
		v-3.3c-0.5,1.4-1.4,2.3-2.8,2.8c-0.9,0.5-2.3,0.9-4.2,0.9c-0.9,0-2.3,0-3.3-0.5c-0.9-0.5-1.9-0.9-2.8-1.4c-0.9-0.9-1.9-2.3-2.8-3.7
		c-0.5-1.4-0.9-3.3-0.9-4.7s0-2.3,0.5-3.7c0.5-0.9,0.9-1.9,1.4-2.8c0.9-1.4,2.3-2.3,3.7-3.3c1.4-0.5,2.8-0.9,4.7-0.9
		c2.3,0,4.2,0.5,5.6,1.9C757.7,130.3,759.1,131.7,759.1,133.6"/>
</g>
<polygon fill="#FFFFFF" points="762.9,127.5 766.2,127.5 766.2,135.9 776,135.9 776,127.5 779.2,127.5 779.2,147.6 776,147.6 
	776,138.3 766.2,138.3 766.2,147.6 762.9,147.6 "/>
<polygon fill="#FFFFFF" points="781.6,127.5 797,127.5 797,130.3 790.9,130.3 790.9,147.6 787.6,147.6 787.6,130.3 781.6,130.3 "/>
<g>
	<path fill="#FFFFFF" d="M794.7,143.9c0.5,0,0.5,0,0.9,0c0,0,0.5,0,0.5,0.5l0.5,0.5c0,0,0,0.5,0,0.9s0,0.5,0,0.9c0,0,0,0.5-0.5,0.5
		l-0.5,0.5c0,0-0.5,0-0.9,0c-0.5,0-0.5,0-0.9,0l-0.5-0.5l-0.5-0.5v-0.5c0,0,0-0.5,0-0.9l0.5-0.5l0.5-0.5
		C794.2,143.9,794.7,143.9,794.7,143.9 M794.7,144.3h-0.5c0,0-0.5,0-0.5,0.5l-0.5,0.5v0.5v0.5c0,0,0,0.5,0.5,0.5l0.5,0.5h0.5h0.5
		c0,0,0.5,0,0.5-0.5l0.5-0.5v-0.5v-0.5c0,0,0-0.5-0.5-0.5l-0.5-0.5C795.1,144.3,795.1,144.3,794.7,144.3 M794.2,144.8h0.9
		c0.5,0,0.5,0,0.5,0v0.5v0.5c0,0,0,0-0.5,0l0.5,0.9h-0.5l-0.5-0.9h-0.5v0.9h-0.5v-1.9H794.2z M794.7,145.3v0.5h0.5h0.5
		c0,0,0,0,0-0.5c0,0,0,0,0-0.5C795.1,145.3,795.1,145.3,794.7,145.3L794.7,145.3z"/>
	<path fill="#FFFFFF" d="M640.5,127.5c0,0-3.7,0-3.7,3.7v13.1c0,0,0,3.7,3.7,3.7h13.1c0,0,3.7,0,3.7-3.7v-13.1c0,0,0-3.7-3.7-3.7
		H640.5z"/>
	<path fill="#FFFFFF" d="M640.5,150.4c0,0-3.7,0-3.7,3.7v13.1c0,0,0,3.7,3.7,3.7h13.1c0,0,3.7,0,3.7-3.7v-13.1c0,0,0-3.7-3.7-3.7
		H640.5z"/>
	<path fill="#FFFFFF" d="M662.4,150.4c0,0-3.7,0-3.7,3.7v13.1c0,0,0,3.7,3.7,3.7h13.1c0,0,3.7,0,3.7-3.7v-13.1c0,0,0-3.7-3.7-3.7
		H662.4z"/>
	<path fill="#FFFFFF" d="M744.2,158.8c-1.4,0-2.3,0.5-3.3,1.4c-0.9-0.9-1.9-1.4-3.3-1.4c-2.3,0-4.2,1.9-4.2,4.7v6.5
		c0,0.5,0,0.5,0.5,0.5h1.9c0.5,0,0.5,0,0.5-0.5v-6.5c0-0.9,0.5-1.9,1.9-1.9c0.9,0,1.9,0.9,1.9,1.9v6.5c0,0.5,0,0.5,0.5,0.5h1.9
		c0.5,0,0.5,0,0.5-0.5v-6.5c0-0.9,0.5-1.9,1.9-1.9c0.9,0,1.9,0.9,1.9,1.9v6.5c0,0.5,0,0.5,0.5,0.5h1.9c0.5,0,0.5,0,0.5-0.5v-6.5
		C748.9,160.7,747,158.8,744.2,158.8"/>
	<path fill="#FFFFFF" d="M754,158.8h-1.9c-0.5,0-0.5,0-0.5,0.5v10.3c0,0.5,0,0.5,0.5,0.5h1.9c0.5,0,0.5,0,0.5-0.5v-10.3
		C754.5,159.3,754,158.8,754,158.8"/>
	<path fill="#FFFFFF" d="M767.6,158.8c-1.4,0-2.3,0.5-3.3,1.4c-0.9-0.9-1.9-1.4-3.3-1.4c-2.3,0-4.2,1.9-4.2,4.7v6.5
		c0,0.5,0,0.5,0.5,0.5h1.9c0.5,0,0.5,0,0.5-0.5v-6.5c0-0.9,0.5-1.9,1.9-1.9c0.9,0,1.9,0.9,1.9,1.9v6.5c0,0.5,0,0.5,0.5,0.5h1.9
		c0.5,0,0.5,0,0.5-0.5v-6.5c0-0.9,0.5-1.9,1.9-1.9c0.9,0,1.9,0.9,1.9,1.9v6.5c0,0.5,0,0.5,0.5,0.5h1.9c0.5,0,0.5,0,0.5-0.5v-6.5
		C772.2,160.7,770.4,158.8,767.6,158.8"/>
	<path fill="#FFFFFF" d="M777.4,158.8h-1.9c-0.5,0-0.5,0-0.5,0.5v10.3c0,0.5,0,0.5,0.5,0.5h1.9c0.5,0,0.5,0,0.5-0.5v-10.3
		C777.8,159.3,777.4,158.8,777.4,158.8"/>
	<path fill="#FFFFFF" d="M785.3,167.7c-1.4,0-2.8-1.4-2.8-3.3s1.4-3.3,2.8-3.3c1.9,0,2.8,1.4,2.8,3.3S786.7,167.7,785.3,167.7
		 M785.3,158.8c-3.3,0-5.6,2.8-5.6,6.1s2.3,6.1,5.6,6.1c3.3,0,5.6-2.8,5.6-6.1C790.9,161.2,788.6,158.8,785.3,158.8"/>
	<path fill="#FFFFFF" d="M754,154.6h-1.9c-0.5,0-0.5,0-0.5,0.5v1.4c0,0.5,0,0.5,0.5,0.5h1.9c0.5,0,0.5,0,0.5-0.5v-1.4
		C754.5,154.6,754,154.6,754,154.6"/>
	<path fill="#FFFFFF" d="M777.4,154.6h-1.9c-0.5,0-0.5,0-0.5,0.5v1.4c0,0.5,0,0.5,0.5,0.5h1.9c0.5,0,0.5,0,0.5-0.5v-1.4
		C777.8,154.6,777.4,154.6,777.4,154.6"/>
	<path fill="#FFFFFF" d="M791.4,159.8L791.4,159.8C791.9,159.8,791.9,159.8,791.4,159.8C791.9,159.3,791.9,159.3,791.4,159.8
		L791.4,159.8L791.4,159.8z M791.4,159.3L791.4,159.3c0.5,0,0.5,0,0.5,0.5c0,0,0,0.5-0.5,0.5l0.5,0.5l0,0l-0.5-0.5l0,0v0.5l0,0
		V159.3z M791.9,160.7c0.5,0,0.5-0.5,0.5-0.5c0-0.5-0.5-0.5-0.5-0.5c-0.5,0-0.5,0.5-0.5,0.5C790.9,160.2,791.4,160.7,791.9,160.7
		 M791.9,158.8c0.5,0,0.9,0.5,0.9,0.9c0,0.5-0.5,0.9-0.9,0.9c-0.5,0-0.9-0.5-0.9-0.9C790.9,159.3,791.4,158.8,791.9,158.8"/>
	<path fill="#FFFFFF" d="M657.8,210.2h6.5c0-1.4,0-2.3-0.5-2.3c-0.5-0.5-1.4-0.5-2.8-0.5c-1.4,0-2.3,0-2.8,0.5
		C658.2,207.9,657.8,208.8,657.8,210.2 M664.3,214.4h3.3c0,1.9-0.5,3.3-1.9,3.7c-0.9,0.5-2.3,0.5-4.7,0.5c-2.8,0-4.2-0.5-5.1-1.4
		s-1.4-2.8-1.4-5.6s0.5-4.7,0.9-5.6c0.9-0.9,2.8-1.9,5.1-1.9c2.8,0,4.7,0.5,5.6,1.4c0.9,0.9,0.9,2.8,0.9,6.1h-9.8
		c0,1.9,0,2.8,0.5,3.3s1.4,0.9,2.8,0.9s1.9,0,2.3-0.5C663.8,215.8,664.3,215.4,664.3,214.4"/>
	<path fill="#FFFFFF" d="M676.5,206.9c-1.4,0-2.3,0.5-2.8,0.9s-0.5,1.4-0.5,3.3c0,1.9,0,3.3,0.5,3.7c0.5,0.9,1.4,1.4,2.8,1.4
		c1.4,0,2.8-0.5,2.8-1.4c0.5-0.5,0.5-1.9,0.5-3.7c0-1.4,0-2.3-0.5-3.3C679.3,207.4,678.3,206.9,676.5,206.9 M680.2,218.6v-2.3l0,0
		c-0.5,1.4-2.3,2.3-4.2,2.3c-2.3,0-3.7-0.9-4.7-2.3c-0.5-0.9-0.9-2.8-0.9-5.6c0-2.3,0.5-4.2,0.9-5.1c0.9-1.4,2.3-1.9,4.7-1.9
		c2.3,0,3.7,0.5,4.2,1.9l0,0v-7.9h3.3v20.1h-3.3V218.6z"/>
	<path fill="#FFFFFF" d="M698.9,218.6h-3.3v-2.3l0,0c-0.5,1.4-2.3,2.3-4.7,2.3c-3.3,0-4.7-1.4-4.7-4.2v-10.3h3.3v9.3
		c0,0.9,0,1.9,0.5,2.3c0.5,0.5,0.9,0.5,1.9,0.5c1.4,0,2.3-0.5,2.8-0.9c0.5-0.5,0.9-1.4,0.9-2.8v-7.9h3.3V218.6z"/>
	<path fill="#FFFFFF" d="M711,213.5h3.3c0,2.3-0.5,3.7-1.4,4.7c-0.9,0.5-2.3,0.9-4.7,0.9c-2.8,0-4.2-0.5-5.1-1.9
		c-0.9-0.9-0.9-2.8-0.9-5.6s0.5-4.7,0.9-5.6c0.9-0.9,2.8-1.9,5.1-1.9c2.3,0,3.7,0.5,4.7,0.9c0.9,0.9,1.9,2.3,1.9,4.2h-3.3
		c0-0.9-0.5-1.9-0.9-1.9c-0.5-0.5-0.9-0.5-2.3-0.5c-1.4,0-2.3,0.5-2.3,0.9c-0.5,0.5-0.5,1.9-0.5,3.7s0,3.3,0.5,3.7
		c0.5,0.5,1.4,0.9,2.8,0.9s2.3,0,2.3-0.5C711,215.4,711,214.4,711,213.5"/>
	<path fill="#FFFFFF" d="M722.7,212.6c-0.9,0-1.9,0-2.3,0.5c-0.5,0.5-0.9,0.9-0.9,1.9c0,0.9,0,1.4,0.5,1.9s1.4,0.5,2.3,0.5
		c0.9,0,1.9,0,2.3-0.5c0.5-0.5,0.9-0.9,0.9-1.9c0-0.9-0.5-1.4-0.9-1.9C724.6,212.6,724.1,212.6,722.7,212.6 M726,218.6v-1.9l0,0
		c-0.5,0.9-0.9,1.4-1.9,1.9c-0.5,0-1.4,0.5-2.3,0.5c-1.9,0-3.3-0.5-3.7-0.9c-0.9-0.5-1.4-1.9-1.4-3.7c0-1.9,0.5-2.8,1.4-3.3
		c0.9-0.5,1.9-0.9,3.7-0.9c0.9,0,1.9,0,2.3,0c0.9,0,1.4,0.5,1.9,1.4l0,0v-1.9c0-1.4,0-1.9-0.5-2.3c-0.5-0.5-1.4-0.5-2.3-0.5
		s-1.4,0-1.9,0.5c-0.5,0.5-0.9,0.9-0.9,1.9h-3.3c0-1.9,0.5-3.3,1.9-3.7c0.9-0.5,2.3-0.5,4.2-0.5c2.3,0,4.2,0.5,4.7,0.9
		c0.9,0.9,1.4,2.3,1.4,4.7v8.9H726V218.6z"/>
	<path fill="#FFFFFF" d="M731.1,207.4v-2.8h1.9v-3.3h3.3v3.3h5.6v2.8h-5.6v7c0,0.9,0,1.4,0,1.4c0,0.5,0.5,0.5,1.4,0.5
		c0.9,0,1.4-0.5,1.4-0.9c0-0.5,0-0.9,0-1.9h2.8c0,1.9,0,3.3-0.9,4.2c-0.5,0.9-1.9,1.4-3.7,1.4s-3.3-0.5-3.7-0.9
		c-0.9-0.5-0.9-1.9-0.9-3.7v-7L731.1,207.4L731.1,207.4z"/>
</g>
<path fill="#FFFFFF" d="M745.1,218.6h3.3v-14h-3.3V218.6z M745.1,201.3h3.3v-2.8h-3.3V201.3z"/>
<g>
	<path fill="#FFFFFF" d="M757.7,206.9c-1.4,0-2.3,0.5-2.8,0.9c-0.5,0.5-0.5,1.9-0.5,3.7s0,3.3,0.5,3.7c0.5,0.5,1.4,0.9,2.8,0.9
		s2.3-0.5,2.8-0.9c0.5-0.5,0.5-1.9,0.5-3.7c0-1.9,0-3.3-0.5-3.7C760.1,207.4,759.1,206.9,757.7,206.9 M757.7,204.6
		c2.8,0,4.7,0.5,5.6,1.4c0.9,0.9,0.9,2.8,0.9,5.6c0,2.8-0.5,4.7-0.9,5.6c-0.9,0.9-2.8,1.4-5.6,1.4s-4.7-0.5-5.6-1.4
		s-0.9-2.8-0.9-5.6s0.5-4.7,0.9-5.6C753.1,205.1,754.9,204.6,757.7,204.6"/>
	<path fill="#FFFFFF" d="M767.1,204.6h3.3v2.3l0,0c0.5-0.9,0.9-1.4,1.9-1.9c0.5-0.5,1.4-0.5,2.8-0.5c1.9,0,2.8,0.5,3.7,0.9
		c0.9,0.9,0.9,1.9,0.9,3.7v9.3h-3.3v-8.9c0-0.9,0-1.9-0.5-2.3c-0.5-0.5-0.9-0.5-1.9-0.5c-1.4,0-2.3,0.5-2.8,0.9
		c-0.5,0.5-0.5,1.4-0.5,2.8v7.9h-3.3v-14H767.1z"/>
</g>
<rect x="655" y="189.7" fill="#FFFFFF" width="125.2" height="1.9"/>
<rect x="655" y="230.3" fill="#FFFFFF" width="86.4" height="1.9"/>
<rect x="752.6" y="230.3" fill="#FFFFFF" width="27.6" height="1.9"/>
<rect x="602.6" y="190.1" fill="#FFFFFF" width="42" height="42"/>
<g>
	<path fill="#F7EC49" d="M641.9,207.4c0,1.4-0.5,2.8-0.9,4.2c-1.4,4.2-3.3,7-7,7c-0.9,0-3.3-0.5-4.2-2.3v-0.5l-0.5,0.5
		c-1.4,1.4-3.3,2.3-5.1,2.3c-1.4,0-2.8-0.5-3.7-1.4v-0.5v0.5c-0.9,0.9-2.3,1.4-4.2,1.4c-1.4,0-2.3-0.5-3.3-1.4l0,0l0,0
		c-0.9,0.9-2.3,1.4-3.7,1.4c-1.9,0-3.3-1.4-3.3-2.8c0-2.8,2.8-8.9,3.7-10.7c0.9-1.4,1.9-1.9,3.3-1.9c0.9,0,1.4,0,1.9,0.5
		c0,0.5,0,0.5,0,1.4v0.9l0.5-0.9c1.4-1.9,3.3-2.3,5.1-2.3c1.4,0,2.8,0.5,3.3,1.4v0.5h0.5c0.9-0.9,2.3-1.4,4.2-1.4s2.8,0.5,3.7,1.4
		l0.5,0.5v0.5l0.5-0.5c0.9-1.4,2.8-1.9,4.7-1.9c1.4,0,2.8,0.5,3.3,1.4C641.9,205.1,641.9,206.5,641.9,207.4 M602.6,231.7h42v-42h-42
		V231.7z"/>
	<path fill="#C01B19" d="M642.8,209.3c0,1.4-1.4,4.2-1.9,5.6c-1.4,2.8-3.3,5.1-7,5.1c-1.9,0-3.7-0.5-4.7-1.9
		c-1.4,1.4-3.3,1.9-5.1,1.9c-1.4,0-2.8-0.5-3.7-1.4c-0.9,0.9-2.3,1.4-4.2,1.4c-1.4,0-2.8-0.5-3.7-0.9c-0.9,0.9-2.3,0.9-4.2,0.9
		c-2.8,0-4.7-1.9-4.7-4.2c0-3.3,2.8-9.3,4.2-11.7c0.9-1.4,2.3-2.3,4.2-2.3s2.8,0.5,3.3,1.4c1.4-1.4,3.7-1.4,5.1-1.4s2.8,0.5,3.3,0.9
		c1.4-0.9,2.3-0.9,4.2-0.9s3.7,0.5,4.7,1.4c1.4-0.9,2.8-1.4,4.7-1.4c2.3,0,3.7,0.9,4.7,1.9C643.3,205.5,643.3,207.4,642.8,209.3
		 M602.6,231.7h42v-42h-42V231.7z"/>
</g>
<path fill="#191C17" d="M644.2,231.7h-41.1v-41.6h41.1V231.7z M602.6,232.2h42.5v-42.5h-42.5V232.2z"/>
<path fill="#191C17" d="M642.8,201.3c-0.5,0-0.9,0.5-0.9,0.9s0.5,0.9,0.9,0.9c0.5,0,0.9-0.5,0.9-0.9
	C643.7,201.8,643.3,201.3,642.8,201.3 M642.8,201.8c0.5,0,0.9,0.5,0.9,0.9c0,0.5-0.5,0.9-0.9,0.9c-0.5,0-0.9-0.5-0.9-0.9
	C642.3,202.3,642.3,201.8,642.8,201.8 M643.3,203.2L643.3,203.2C643.3,202.7,643.3,202.7,643.3,203.2L643.3,203.2c0-0.5,0-0.5,0-0.9
	c0,0,0-0.5-0.5-0.5h-0.5v0.9l0,0v-0.5l0,0l0,0C642.8,202.7,643.3,202.7,643.3,203.2L643.3,203.2L643.3,203.2z M642.8,202.3
	L642.8,202.3L642.8,202.3C643.3,202.3,643.3,202.3,642.8,202.3C643.3,202.3,643.3,202.3,642.8,202.3L642.8,202.3z"/>
<path fill="#191C17" d="M637.7,207.4c0,0.9-1.4,5.6-2.3,6.5c-0.5,0.5-0.5,0.9-0.9,0.9s-0.5-0.5-0.5-0.5c0-0.9,1.9-6.1,2.3-6.5
	c0.5-0.5,0.5-0.5,0.9-0.5C637.7,206.5,637.7,206.9,637.7,207.4 M640.5,209.3c-0.5,1.9-1.4,3.7-1.9,5.6c-1.4,2.8-3.3,2.8-4.7,2.8
	s-3.3-0.5-3.3-2.8c0-1.9,0.9-4.2,1.4-5.6c0.9-2.8,2.3-5.1,5.6-5.1C641.4,204.1,640.9,207.4,640.5,209.3 M627.9,206.5
	c-0.5,0-0.9,0.5-1.4,0.9c-0.5,0.9-1.9,4.2-2.3,6.1c0,0.9,0.5,1.4,0.9,1.4c0.9,0,1.4-0.9,1.9-2.3c0,0-1.4,0-0.9-1.4
	c0.5-1.4,0.9-1.4,2.3-1.4c2.3,0,2.3,1.9,1.9,2.8c-0.5,3.3-2.8,5.6-6.1,5.6c-2.3,0-3.3-0.9-3.3-3.3c0-1.4,0.9-3.7,1.4-5.1
	c1.4-2.8,2.8-5.1,6.1-5.1c1.9,0,3.7,0.9,3.3,2.8c0,1.4-0.9,2.3-2.3,2.3c-0.5,0-1.9,0-1.4-1.4C628.3,206.9,628.3,206.5,627.9,206.5
	 M617.1,212.1c0,0.5-0.5,1.4-0.5,1.9c0.5,0,1.4-0.5,2.3-0.5c0.9,0,1.9,0.5,1.9,1.4c0,1.9-2.3,2.8-3.7,2.8c-1.9,0-3.3-0.9-3.3-2.8
	c0-2.3,1.4-5.6,2.3-7.9c1.4-2.8,2.8-3.3,5.1-3.3c0.9,0,2.3,0.5,2.3,1.4c0,1.4-1.4,1.9-2.3,1.9c-0.5,0-1.4,0-1.9,0
	c0,0-0.5,0.5-0.9,1.9c2.3-0.5,3.3,0,2.8,1.4C620.4,212.1,619,212.1,617.1,212.1 M610.1,214c2.3-0.5,2.8,0.5,2.8,0.9
	c0,2.3-2.3,2.8-3.7,2.8s-2.3-0.5-2.3-1.9c0-2.3,2.3-8.4,3.7-10.3c0.5-0.9,1.4-1.4,2.3-1.4c0.9,0,1.4,0.5,1.4,0.9
	C613.8,206.9,611,212.1,610.1,214 M637.2,202.7c-2.3,0-3.7,0.9-4.7,1.9c0-0.5-0.5-0.5-0.5-0.9c-0.9-0.9-2.3-1.4-4.2-1.4
	s-3.3,0.5-4.2,1.4c-0.5-0.9-1.9-1.4-3.3-1.4c-1.9,0-4.2,0.5-5.6,2.3c0-0.9,0-0.9-0.5-1.4c-0.5-0.5-1.4-0.5-2.3-0.5
	c-1.4,0-2.8,0.5-3.3,1.9c-0.9,1.9-3.7,7.9-3.7,10.7c0,1.9,1.4,3.3,3.7,3.3c1.9,0,3.3-0.5,4.2-1.4c0.9,0.9,1.9,1.4,3.3,1.4
	s3.3-0.5,4.2-1.4c0.9,0.9,1.9,1.4,3.7,1.4c2.3,0,4.2-0.9,5.1-2.8c0.5,1.9,2.3,2.8,4.2,2.8c4.2,0,6.1-2.8,7.5-7.5
	c0.5-0.9,0.9-2.8,0.9-4.2C642.3,205.1,641.4,202.7,637.2,202.7"/>
<path fill="#FFFFFF" d="M811.5,79.9c-3.3,0-5.6-2.8-5.6-6.1c0-3.3,2.3-6.1,5.6-6.1s5.6,2.8,5.6,6.1
	C817.1,77.5,814.7,79.9,811.5,79.9 M811.5,64.5c-5.6,0-9.8,4.2-9.8,9.8s4.2,9.8,9.8,9.8s9.8-4.2,9.8-9.8S817.1,64.5,811.5,64.5"/>
<path fill="#FFFFFF" d="M833,79.9c-3.3,0-5.6-2.8-5.6-6.1c0-3.3,2.3-6.1,5.6-6.1c3.3,0,5.6,2.8,5.6,6.1
	C838.6,77.5,836.2,79.9,833,79.9 M833,64.5c-5.6,0-9.8,4.2-9.8,9.8s4.2,9.8,9.8,9.8c5.6,0,9.8-4.2,9.8-9.8
	C842.8,68.7,838.1,64.5,833,64.5"/>
<path fill="#FFFFFF" d="M800.3,71c0,6.5-5.6,12.6-14,12.6s-15.4-7-15.4-15.4s7-15.4,15.4-15.4c4.2,0,7.9,1.4,10.7,4.2l-2.8,2.8
	c-1.9-1.9-4.7-2.8-7.5-2.8c-6.1,0-11.2,5.1-11.2,11.2s5.1,11.2,11.2,11.2c1.9,0,3.7-0.5,5.6-1.4c3.3-1.9,4.2-4.7,4.7-7h-10.3v-4.2
	h11.2h2.8c0,0,0,0.5,0,1.4C800.3,69.6,800.3,71,800.3,71"/>
<rect x="866.1" y="54.2" fill="#FFFFFF" width="4.2" height="29"/>
<g>
	<path fill="#FFFFFF" d="M854.5,79.9c-3.3,0-5.6-2.8-5.6-6.1c0-3.3,2.3-6.1,5.6-6.1c2.8,0,5.1,2.8,5.1,6.1
		C859.6,76.6,857.7,79.9,854.5,79.9 M859.1,64.9v1.4c-1.9-1.4-3.7-1.9-4.7-1.9c-5.6,0-9.8,4.2-9.8,9.8s4.2,9.8,9.8,9.8
		c1.9,0,3.3-0.9,4.7-2.3v2.8c0,2.3-2.3,4.2-5.1,4.2c-2.3,0-4.2-1.4-5.1-3.3l-3.3,1.4c1.4,3.3,4.7,6.1,8.9,6.1c4.7,0,8.9-3.7,9.3-7.9
		l0,0V65.4h-4.7V64.9z"/>
	<path fill="#FFFFFF" d="M882,68.2c1.4,0,2.8,0.9,3.7,1.9l-9.3,3.7C876.4,70.5,878.8,68.2,882,68.2 M882.5,80.3
		c-2.3,0-4.2-1.4-5.1-2.8l13.1-5.6c-0.9-4.2-4.7-7.5-8.9-7.5c-5.6,0-8.9,4.2-8.9,9.8c0,6.1,4.2,9.8,8.9,9.8c3.3,0,6.5-0.9,8.4-4.2
		l-3.3-2.3C886.7,77.5,885.8,79.9,882.5,80.3"/>
	<path fill="#FFFFFF" d="M774.6,97.6c0.9-0.5,2.3-0.5,3.3,0l-0.5,1.4c-2.3,0-2.8,0.9-2.8,1.9v1.4h2.8v1.9h-2.8v8.4h-1.9v-8.4h-1.9
		v-1.9h1.9V100C772.7,98.6,774.1,97.6,774.6,97.6"/>
	<path fill="#FFFFFF" d="M790.5,105.1v-3.3h1.4v1.9l0,0c0.5-1.4,1.9-1.9,3.3-1.9h0.9l-0.5,1.9h-0.5c-1.4,0-2.8,0.9-3.3,2.3
		c0,0.5,0,0.5,0,0.9v5.6H790v-7.5H790.5z"/>
</g>
<polygon fill="#FFFFFF" points="810.5,106 804,106 804,110.7 811,110.7 811,112.6 802.1,112.6 802.1,97.2 811,97.2 811,99 804,99 
	804,104.2 810.5,104.2 "/>
<g>
	<path fill="#FFFFFF" d="M820.8,106c0-1.4-1.4-2.8-2.8-2.8c-2.3,0-3.7,1.9-3.7,4.2s1.4,3.7,3.7,3.7c1.9,0,2.8-1.9,2.8-3.7V106z
		 M822.7,97.2v12.6c0,0.9,0,1.9,0,2.8h-1.9v-1.9l0,0c-0.5,0.9-1.9,1.9-3.7,1.9c-2.3,0-5.1-1.9-5.1-5.1c0-3.3,2.3-5.6,5.1-5.6
		c1.4,0,2.8,0.9,3.3,1.4l0,0v-6.1L822.7,97.2L822.7,97.2z"/>
	<path fill="#FFFFFF" d="M833.9,112.1H832v-1.4l0,0c-0.5,0.9-1.4,1.9-3.3,1.9c-1.9,0-3.7-0.9-3.7-4.7v-6.1h1.9v5.6
		c0,1.9,0.9,3.3,2.3,3.3s2.3-0.5,2.3-1.4c0-0.5,0-0.5,0-0.9v-6.5h1.9v10.3H833.9z"/>
	<path fill="#FFFFFF" d="M880.6,102.3h1.9v1.4l0,0c0.5-0.9,1.4-1.9,3.3-1.9c1.9,0,4.2,0.9,4.2,4.7v6.1h-1.9V107
		c0-1.9-0.5-3.3-2.8-3.3c-1.4,0-2.3,0.5-2.3,1.4c0,0.5,0,0.5,0,0.9v6.5h-1.9v-10.3H880.6z"/>
	<path fill="#FFFFFF" d="M854,107.9c-1.9-1.4-5.6-0.9-5.6,1.4c0,0.9,0.9,1.9,2.3,1.9c1.9,0,2.8-2.3,2.8-2.8v-0.5H854z M855.9,112.6
		H854v-1.4l0,0c-0.5,0.9-1.9,1.4-3.3,1.4c-2.3,0-4.2-1.4-4.2-3.3c0-3.3,4.2-4.2,7.5-2.8v-0.9c0-0.9-0.5-1.9-2.3-1.9
		c-0.9,0-2.3,0.5-2.8,1.4l-1.9-0.9c0.5-0.5,1.9-2.8,4.7-2.3c3.3,0.5,4.2,2.3,4.2,4.2V112.6z"/>
	<path fill="#FFFFFF" d="M860.5,99v3.3h2.8v1.4h-2.8v5.1c0,1.4,0.5,1.9,1.4,2.3c0.5,0,0.9,0,1.4,0l0.5,1.4c0,0-1.9,0.5-3.3,0
		c-0.9-0.5-1.4-1.4-1.4-2.8v-5.6h-1.4v-1.4h1.4v-3.3h1.4V99z"/>
	<path fill="#FFFFFF" d="M865.2,102.3h1.9v10.3h-1.9V102.3z M867.1,98.6c0,0.5-0.5,0.9-1.4,0.9c-0.5,0-0.9-0.5-0.9-0.9
		c0-0.5,0.5-1.4,1.4-1.4C866.6,97.6,867.1,98.1,867.1,98.6"/>
	<path fill="#FFFFFF" d="M844.2,108.8c-0.5,1.4-1.9,1.9-3.3,1.9c-1.9,0-3.7-1.9-3.7-3.7c0-2.3,1.9-3.7,3.7-3.7
		c1.4,0,2.8,0.9,3.3,1.9l1.4-0.9c-0.9-1.9-2.8-2.8-4.7-2.8c-2.8,0-5.1,2.3-5.1,5.6s2.3,5.6,5.1,5.6c1.9,0,3.7-1.4,4.7-2.8
		L844.2,108.8z"/>
	<path fill="#FFFFFF" d="M874.1,110.7c-1.9,0-3.7-1.9-3.7-3.7c0-1.9,1.4-3.7,3.7-3.7c1.9,0,3.7,1.9,3.7,3.7
		C877.4,109.3,875.9,110.7,874.1,110.7 M874.1,101.8c-2.8,0-5.1,2.3-5.1,5.6c0,3.3,2.3,5.6,5.1,5.6s5.1-2.3,5.1-5.6
		C879.2,104.2,876.9,101.8,874.1,101.8"/>
	<path fill="#FFFFFF" d="M783.4,110.7c-1.9,0-3.7-1.9-3.7-3.7c0-1.9,1.4-3.7,3.7-3.7c1.9,0,3.7,1.9,3.7,3.7
		C786.7,108.8,785.3,110.7,783.4,110.7 M783.4,101.4c-2.8,0-5.1,2.3-5.1,5.6s2.3,5.6,5.1,5.6s5.1-2.3,5.1-5.6
		S786.2,101.4,783.4,101.4"/>
	<path fill="#FFFFFF" d="M867.5,140.1c-0.5,2.3-1.9,3.7-4.2,5.6c-2.3,2.3-6.5,6.1-8.4,7.9c-0.9,1.4-4.2,4.7-4.2,8.9
		c-1.4-1.4-2.8-2.8-1.9-6.1c0.5-2.8,3.7-6.5,7-9.3c3.7-3.7,7.9-7,8.9-8.4c0.9-0.9,1.9-2.3,2.3-2.8
		C867.1,135.9,867.5,138.7,867.5,140.1 M865.2,151.8c-0.9,0.9-2.8,2.8-2.8,2.8s-5.1,4.2-5.6,8.4c-1.4-1.9-1.9-5.1,0.5-7.9
		c0.9-0.9,5.1-5.1,5.1-5.1c0.5-0.5,4.2-3.7,5.1-5.1C867.1,147.6,867.1,149.5,865.2,151.8 M842.8,156.5c0-4.2,5.1-8.9,8.4-11.7
		l8.4-8.4c0.9-0.9,1.9-2.3,1.9-2.8c0,0,0.5,2.3,0.5,4.2c0,1.9-1.4,2.8-1.4,2.8l-10.7,10.7c-4.2,4.2-4.7,7.9-3.7,11.2
		C844.2,161.2,842.8,159.3,842.8,156.5 M845.6,142.9c3.7-3.7,9.8-9.3,11.2-11.2c1.9-1.9,1.9-4.2,1.9-4.2s2.3,2.8,1.4,5.6
		c-0.9,2.3-11.2,11.2-13.1,13.5c-0.9,0.9-5.1,5.1-5.6,9.8C839.5,153.7,837.2,150,845.6,142.9 M835.3,149c0.5-3.7,3.3-7,6.5-9.8
		c3.7-3.7,9.3-8.4,9.8-10.3c0.5-1.9,0-2.8,0-2.8s2.8,1.4,2.3,4.2c-0.5,3.3-9.8,10.7-13.5,15c-2.8,3.3-3.3,6.5-2.8,9.8
		C836.7,153.7,834.8,151.8,835.3,149 M851.7,125.2c-13.5,0-24.3,10.7-24.3,24.3c0,12.1,9.3,22.4,21,24.3v-3.3
		c-4.2-0.9-7.9-2.8-10.7-6.1h28c-2.8,3.3-6.5,5.1-10.7,6.1v3.3c12.1-1.4,21-11.7,21-24.3C875.9,135.9,865.2,125.2,851.7,125.2"/>
	<path fill="#FFFFFF" d="M896.5,135.5c-0.5-1.4-0.5-1.9-0.9-2.3c-0.5-0.5-0.9-0.5-2.3-0.5h-1.4v11.7c0,1.9,0,2.3,2.3,2.3v0.9h-7.5
		v-0.9c1.9,0,2.3-0.5,2.3-2.3v-11.7h-0.9c-1.9,0-2.3,0.5-2.8,0.5c-0.5,0.5-0.5,1.4-0.9,2.3h-0.5c0-1.9,0-3.3,0-4.7h13.5
		c0,0.9,0,2.8,0,4.7H896.5z"/>
	<path fill="#FFFFFF" d="M899.3,140.1c0.9,0,2.3,0,3.3,0c0.5,0,0.5,0,0.5-0.5c0-1.4-0.5-2.3-1.9-2.3
		C900.2,137.3,899.3,138.3,899.3,140.1 M905.4,144.8c-1.4,1.9-3.3,2.3-4.2,2.3c-3.3,0-4.7-2.3-4.7-5.1c0-1.9,0.5-3.3,1.9-4.2
		c0.9-0.9,2.3-1.9,3.7-1.9l0,0c2.3,0,3.7,1.9,3.7,3.7c0,0.5,0,0.9-0.5,0.9c-0.5,0-3.3,0.5-6.1,0.5c0,2.8,1.9,4.2,3.3,4.2
		c0.9,0,1.9-0.5,2.8-0.9V144.8z"/>
	<path fill="#FFFFFF" d="M916.1,144.8c-0.9,1.4-2.8,2.3-4.2,2.3c-3.3,0-5.1-2.3-5.1-5.1c0-1.9,0.9-3.3,2.3-4.7
		c1.4-0.9,2.8-1.4,3.7-1.4l0,0c0.9,0,1.9,0.5,1.9,0.5c0.5,0.5,0.5,0.5,0.5,0.9c0,0.5-0.5,1.4-0.9,1.4c0,0-0.5,0-0.5-0.5
		c-0.9-0.9-1.9-0.9-2.3-0.9c-1.4,0-2.3,0.9-2.3,3.7c0,3.3,2.3,4.2,3.3,4.2s1.9-0.5,2.8-0.9L916.1,144.8z"/>
	<path fill="#FFFFFF" d="M924.1,147.1v-0.9c0.9,0,1.4-0.5,1.4-1.9v-4.2c0-1.9-0.9-2.3-1.9-2.3c-0.9,0-1.4,0.5-1.9,0.9v5.6
		c0,1.4,0,1.9,1.4,1.9v0.9h-5.6v-0.9c1.4,0,1.9-0.5,1.9-1.9v-5.1c0-1.4,0-1.4-1.4-1.9v-0.5c1.4,0,2.8-0.5,4.2-0.9v1.9
		c0.5-0.5,0.9-0.9,1.4-0.9c0.5-0.5,1.4-0.5,1.9-0.5c1.9,0,3.3,1.4,3.3,3.7v4.7c0,1.4,0,1.4,1.4,1.9v0.9h-6.1V147.1z"/>
	<path fill="#FFFFFF" d="M933.9,141.1c0,2.8,0.9,5.1,2.8,5.1c0.9,0,2.3-0.9,2.3-4.2s-0.9-5.1-2.8-5.1
		C934.8,136.9,933.9,138.3,933.9,141.1 M941.8,141.5c0,3.7-2.8,5.6-5.6,5.6c-3.7,0-5.6-2.8-5.6-5.1c0-3.7,3.3-5.6,5.6-5.6
		C939.5,136.4,941.8,138.7,941.8,141.5"/>
	<path fill="#FFFFFF" d="M942.8,147.1v-0.9c1.4,0,1.4-0.5,1.4-1.9v-11.2c0-1.4,0-1.4-1.4-1.9v-0.5c1.4,0,2.8-0.5,4.2-0.9v14.5
		c0,1.4,0,1.9,1.9,1.9v0.9L942.8,147.1L942.8,147.1z"/>
	<path fill="#FFFFFF" d="M954.4,135c0.5-0.9,1.4-3.3,1.4-3.7c0.5,0,1.9-0.5,2.3-0.5v0.5l-3.3,4.2L954.4,135z M952.6,141.1
		c0,2.8,0.9,5.1,2.8,5.1c0.9,0,2.3-0.9,2.3-4.2s-0.9-5.1-2.8-5.1C954,136.9,952.6,138.3,952.6,141.1 M960.5,141.5
		c0,3.7-2.8,5.6-5.6,5.6c-3.7,0-5.6-2.8-5.6-5.1c0-3.7,3.3-5.6,5.6-5.6C958.6,136.4,960.5,138.7,960.5,141.5"/>
	<path fill="#FFFFFF" d="M965.2,139.7c0,1.9,0.5,3.3,1.9,3.3c0.9,0,1.4-0.9,1.4-2.8s-0.5-3.3-1.9-3.3
		C966.1,136.9,965.2,137.8,965.2,139.7 M965.2,148.1c-0.5,0.5-0.9,0.9-0.9,1.4c0,1.4,1.4,2.3,3.3,2.3c1.9,0,3.3-0.9,3.3-2.3
		c0-0.9-0.5-1.4-1.4-1.9c-0.5,0-1.4-0.5-2.3-0.5C966.1,147.6,965.7,147.6,965.2,148.1 M973.1,136.9c0,0.5-0.5,0.9-0.9,1.4h-1.4
		c0.5,0.5,0.5,0.9,0.5,1.9c0,2.3-2.3,3.7-4.7,3.7c-0.5,0-0.9,0-1.4,0c-0.5,0-0.5,0.5-0.5,0.9s0.5,0.9,1.4,0.9c0.9,0,1.4,0,2.3,0
		c1.4,0,3.7,0.5,3.7,2.8c0,2.8-3.3,5.1-6.1,5.1c-2.8,0-4.2-1.4-4.2-2.8c0-0.5,0.5-0.9,0.5-1.4c0.5-0.5,1.4-0.9,1.9-1.4
		c-0.9-0.5-1.4-0.9-1.9-1.4c-0.5-0.5-0.5-0.9-0.5-1.4c0.9-0.5,1.9-0.9,2.3-1.4c-1.4-0.5-2.3-1.9-2.3-3.3c0-2.8,2.3-4.2,4.7-4.2l0,0
		c0.9,0,1.9,0,2.3,0.5C970.8,136.9,972.2,136.9,973.1,136.9L973.1,136.9z"/>
	<path fill="#FFFFFF" d="M975,133.1c0-0.9,0.5-1.4,1.4-1.4s1.4,0.5,1.4,1.4s-0.5,1.4-1.4,1.4C975.9,134.5,975,133.6,975,133.1
		 M974.1,147.1v-0.9c1.4,0,1.4-0.5,1.4-1.9v-4.7c0-1.4,0-1.4-1.4-1.9v-0.5c1.4,0,2.8-0.5,4.2-0.9v8.4c0,1.9,0,1.9,1.4,1.9v0.9h-5.6
		V147.1z"/>
	<path fill="#FFFFFF" d="M989.9,144.8c-0.9,1.4-2.8,2.3-4.2,2.3c-3.3,0-5.1-2.3-5.1-5.1c0-1.9,0.9-3.3,2.3-4.7
		c1.4-0.9,2.8-1.4,3.7-1.4l0,0c0.9,0,1.9,0.5,1.9,0.5c0.5,0.5,0.5,0.5,0.5,0.9c0,0.5-0.5,1.4-0.9,1.4c0,0-0.5,0-0.5-0.5
		c-0.9-0.9-1.9-0.9-2.3-0.9c-1.4,0-2.3,0.9-2.3,3.7c0,3.3,2.3,4.2,3.3,4.2s1.9-0.5,2.8-0.9L989.9,144.8z"/>
	<path fill="#FFFFFF" d="M994.2,141.1c0,2.8,0.9,5.1,2.8,5.1c0.9,0,2.3-0.9,2.3-4.2s-0.9-5.1-2.8-5.1
		C995.1,136.9,994.2,138.3,994.2,141.1 M1002.1,141.5c0,3.7-2.8,5.6-5.6,5.6c-3.7,0-5.6-2.8-5.6-5.1c0-3.7,3.3-5.6,5.6-5.6
		C999.8,136.4,1002.1,138.7,1002.1,141.5"/>
	<path fill="#FFFFFF" d="M891.8,160.7c-0.5-0.9-1.4-1.4-1.9-1.4c-0.9,0-2.8,0.9-2.8,4.2c0,2.8,1.9,4.2,2.8,4.2c0.5,0,0.9,0,1.9-0.5
		V160.7z M896.5,168.6c-0.5,0-2.8,0.5-4.2,0.9v-1.4l-1.4,0.9c-0.9,0.5-0.9,0.5-1.4,0.5c-1.9,0-4.7-1.9-4.7-5.1
		c0-3.3,2.8-6.1,6.5-6.1c0,0,0.5,0,1.4,0v-2.8c0-1.4,0-1.4-1.9-1.4v-0.5c1.4,0,3.3-0.5,4.2-0.9v14c0,1.4,0,1.4,0.9,1.4h0.5
		L896.5,168.6L896.5,168.6z"/>
	<path fill="#FFFFFF" d="M900.2,162.1c0.9,0,2.3,0,3.3,0c0.5,0,0.5,0,0.5-0.5c0-1.4-0.5-2.3-1.9-2.3
		C901.2,159.3,900.2,160.2,900.2,162.1 M906.3,166.8c-1.4,1.9-3.3,2.3-4.2,2.3c-3.3,0-4.7-2.3-4.7-5.1c0-1.9,0.5-3.3,1.9-4.2
		c0.9-0.9,2.3-1.9,3.7-1.9l0,0c2.3,0,3.7,1.9,3.7,3.7c0,0.5,0,0.9-0.5,0.9s-3.3,0.5-5.6,0.5c0,2.8,1.9,4.2,3.3,4.2
		c0.9,0,1.9-0.5,2.8-0.9L906.3,166.8z"/>
	<path fill="#FFFFFF" d="M925.9,169.1v-0.9c1.9,0,1.9-0.5,1.9-2.8V156l0,0l-5.6,12.6h-0.5l-5.1-12.1l0,0l-0.5,6.5c0,1.9,0,2.8,0,3.7
		c0,0.9,0.5,1.4,2.3,1.4v0.9h-5.6v-0.9c1.4,0,1.9-0.5,1.9-1.4c0-0.9,0.5-1.9,0.5-4.2l0.5-4.7c0-2.8,0-3.3-1.9-3.3v-0.9h4.7l4.7,10.7
		l5.1-10.7h4.7v0.9c-1.9,0-1.9,0.5-1.9,2.3v8.9c0,2.3,0,2.3,1.9,2.8v0.9h-7V169.1z"/>
	<path fill="#FFFFFF" d="M936.2,163.5c0,2.8,0.9,5.1,2.8,5.1c0.9,0,2.3-0.9,2.3-4.2s-0.9-5.1-2.8-5.1
		C937.2,159.3,936.2,160.7,936.2,163.5 M944.2,164c0,3.7-2.8,5.6-5.1,5.6c-3.7,0-5.6-2.8-5.6-5.1c0-3.7,2.8-5.6,5.6-5.6
		C941.8,158.4,944.2,160.7,944.2,164"/>
	<path fill="#FFFFFF" d="M952.1,169.1v-0.9c0.9,0,1.4-0.5,1.4-1.9v-4.2c0-1.9-0.9-2.3-1.9-2.3c-0.9,0-1.4,0.5-1.9,0.9v6.1
		c0,1.4,0,1.4,1.4,1.9v0.9h-5.6v-0.9c1.4,0,1.4-0.5,1.4-1.9v-4.7c0-1.4,0-1.4-1.4-1.9v-0.5c1.4,0,2.8-0.5,3.7-0.9v1.9
		c0.5-0.5,0.9-0.9,1.4-0.9c0.5-0.5,1.4-0.5,1.9-0.5c1.9,0,3.3,1.4,3.3,3.7v4.7c0,1.4,0,1.4,1.4,1.9v0.9h-5.1V169.1z"/>
	<path fill="#FFFFFF" d="M963.3,169.1c-0.5,0-0.9,0.5-0.9,0.5c-1.9,0-2.8-0.9-2.8-2.8v-6.5h-1.4v-0.5l0.5-0.9h0.9V157l2.3-1.9h0.5
		v3.3h2.3c0.5,0.5,0,0.9,0,0.9h-2.3v6.1c0,1.9,0.9,2.3,1.4,2.3c0.5,0,0.9,0,1.4-0.5v0.9L963.3,169.1z"/>
	<path fill="#FFFFFF" d="M968.5,162.1c0.9,0,2.3,0,3.3,0c0.5,0,0.5,0,0.5-0.5c0-1.4-0.5-2.3-1.9-2.3
		C969.4,159.3,968.5,160.2,968.5,162.1 M974.5,166.8c-1.4,1.9-3.3,2.3-4.2,2.3c-3.3,0-4.7-2.3-4.7-5.1c0-1.9,0.5-3.3,1.9-4.2
		c0.9-0.9,2.3-1.9,3.7-1.9l0,0c2.3,0,3.7,1.9,3.7,3.7c0,0.5,0,0.9-0.5,0.9c-0.5,0-3.3,0.5-5.6,0.5c0,2.8,1.9,4.2,3.3,4.2
		c0.9,0,1.9-0.5,2.8-0.9L974.5,166.8z"/>
	<path fill="#FFFFFF" d="M980.1,161.2c0.9-1.4,1.9-2.3,2.8-2.3c0.9,0,1.4,0.5,1.4,1.4s-0.5,1.4-0.9,1.4c-0.5,0-0.5,0-0.5,0
		c-0.5-0.5-0.5-0.5-0.9-0.5c-0.5,0-0.9,0.5-1.4,1.4v4.2c0,1.4,0,1.4,1.9,1.9v0.9h-6.1v-0.9c1.4,0,1.4-0.5,1.4-1.9v-5.1
		c0-1.4,0-1.4-1.4-1.9v-0.5c1.4,0,2.8-0.5,3.7-0.9V161.2L980.1,161.2z"/>
	<path fill="#FFFFFF" d="M989.5,161.2c0.9-1.4,1.9-2.3,2.8-2.3s1.4,0.5,1.4,1.4s-0.5,1.4-0.9,1.4c-0.5,0-0.5,0-0.5,0
		c-0.5-0.5-0.5-0.5-0.9-0.5c-0.5,0-0.9,0.5-1.4,1.4v4.2c0,1.4,0,1.4,1.9,1.9v0.9h-6.1v-0.9c1.4,0,1.4-0.5,1.4-1.9v-5.1
		c0-1.4,0-1.4-1.4-1.9v-0.5c1.4,0,2.8-0.5,3.7-0.9V161.2L989.5,161.2z"/>
	<path fill="#FFFFFF" d="M997,162.1c0.9,0,2.3,0,3.3,0c0.5,0,0.5,0,0.5-0.5c0-1.4-0.5-2.3-1.9-2.3C997.9,159.3,997,160.2,997,162.1
		 M1003,166.8c-1.4,1.9-3.3,2.3-4.2,2.3c-3.3,0-4.7-2.3-4.7-5.1c0-1.9,0.5-3.3,1.9-4.2c0.9-0.9,2.3-1.9,3.7-1.9l0,0
		c2.3,0,3.7,1.9,3.7,3.7c0,0.5,0,0.9-0.5,0.9s-3.3,0.5-5.6,0.5c0,2.8,1.9,4.2,3.3,4.2c0.9,0,1.9-0.5,2.8-0.9L1003,166.8z"/>
	<path fill="#FFFFFF" d="M1015.6,159.3c-1.4,0-1.4,0.5-1.9,1.9c-0.5,1.4-1.4,3.3-2.8,6.5c-1.4,3.7-1.9,5.1-2.3,6.5
		c0,0.5-0.5,0.5-0.9,0.5c-0.5,0-1.4-0.5-1.4-1.4c0-0.5,0-0.5,0.5-0.9c0.9-0.5,1.4-0.9,1.9-1.9c0.5-0.5,0.5-0.9,0.5-1.4
		c0-0.5,0-0.9,0-0.9c-0.9-3.3-2.3-6.5-2.8-7.5c-0.5-0.9-0.9-1.4-1.9-1.4v-0.5h5.6v0.5c-0.9,0-1.4,0.5-0.9,1.4l1.9,5.6
		c0.5-1.4,1.4-4.2,1.9-5.1c0.5-0.9,0-0.9-0.9-1.4v-0.5h4.2v0H1015.6z"/>
</g>
</svg>
