<?xml version="1.0" encoding="utf-8"?>
<!-- Generator: Adobe Illustrator 18.0.0, SVG Export Plug-In . SVG Version: 6.00 Build 0)  -->
<!DOCTYPE svg PUBLIC "-//W3C//DTD SVG 1.1//EN" "http://www.w3.org/Graphics/SVG/1.1/DTD/svg11.dtd">
<svg version="1.1" id="Capa_1" xmlns="http://www.w3.org/2000/svg" xmlns:xlink="http://www.w3.org/1999/xlink" x="0px" y="0px"
	 viewBox="0 0 1077.7 1080" enable-background="new 0 0 1077.7 1080" xml:space="preserve">
<g>
	<path fill="#5186AF" d="M600.5,193.9L600.5,193.9l32.2-182.2l0,0c-196.2-34.6-386.3,41.5-505.9,184l142,119.1
		C346.8,221.4,471.6,171,600.5,193.9"/>
	<path fill="#848E8B" d="M191.2,480.3c11.2-63.5,38.8-119.6,77.1-165.9L126.8,195.7C67.9,265.8,25.9,351.7,9.1,448.5
		c-16.8,96.7-7,191.6,24.3,277.5l174.3-63.5C186.6,605.9,180,543.8,191.2,480.3"/>
	<path fill="#D0764E" d="M871,420.9l174.3-63.5C981.8,182.7,829,45.8,632.8,11.2l-32.2,182.2C729,216.3,829,306.5,871,420.9"/>
	<path fill="#67127C" d="M477.6,889.5l-32.2,182.2c196.2,34.6,386.4-41.6,506-184.1l-142-119.1C731.3,862,606.6,912.4,477.6,889.5"
		/>
	<path fill="#67127C" d="M1045.3,357.4L871,420.9c20.6,56.5,27.1,118.7,15.9,182.2S848.1,722.7,809.8,769l142,119.1
		c58.9-70.1,100.9-156,117.7-252.8C1086.4,538.7,1076.6,443.4,1045.3,357.4"/>
	<path fill="#84A735" d="M477.6,889.5c-128.9-22.9-228.9-112.6-270.5-227.1L32.9,726c63.5,174.8,216.3,311.6,412.5,346.2l0,0
		L477.6,889.5L477.6,889.5L477.6,889.5z"/>
</g>
</svg>
