<?xml version="1.0" encoding="utf-8"?>
<!-- Generator: Adobe Illustrator 18.0.0, SVG Export Plug-In . SVG Version: 6.00 Build 0)  -->
<!DOCTYPE svg PUBLIC "-//W3C//DTD SVG 1.1//EN" "http://www.w3.org/Graphics/SVG/1.1/DTD/svg11.dtd">
<svg version="1.1" id="Capa_1" xmlns="http://www.w3.org/2000/svg" xmlns:xlink="http://www.w3.org/1999/xlink" x="0px" y="0px"
	 viewBox="-49.3 295.8 1969.3 504.1" enable-background="new -49.3 295.8 1969.3 504.1" xml:space="preserve">
<g opacity="0.21">
	<image overflow="visible" width="1964" height="515" xlink:href="8813632A.png"  transform="matrix(1 0 0 1 -29 304.6436)">
	</image>
</g>
<g>
	<polygon fill="#FD2821" points="84,561.7 269.6,473.7 269.6,596.9 84,620.2 	"/>
	<polygon fill="#BB201A" points="17.5,385.8 269.6,473.7 269.6,596.9 17.5,573.6 	"/>
	<rect x="17.5" y="385.8" fill="#FD2821" width="1761" height="187.8"/>
</g>
<g>
	<circle fill="#FFFFFF" cx="1687.3" cy="537.1" r="221.4"/>
	<path fill="#D8903D" d="M1587.7,517.7L1587.7,517.7l198.5,114.4c10.7,6.1,22.3,9.7,33.9,11c-7.1,11.6-17.1,17.5-17.1,17.5
		l-46.2,26.8c-3.9,1.9-11.6,4.5-21,4.5c-7.1,0-15.5-1.3-23.6-6.1l-133.8-77.3c-8.1-4.8-13.6-11-17.1-17.5
		c-4.5-8.1-6.1-16.2-6.5-20.7v-53c0,0,0-11.6,6.5-23.6C1568,503.2,1577.1,511.6,1587.7,517.7"/>
	<path fill="#96B734" d="M1819.8,442.1c3.9,6.1,6.5,13.9,6.5,23.3v154.5c0,9.4-2.9,17.1-6.5,23.3c-11.6-1.3-23.3-4.5-33.9-11
		l-43-24.9V477.6l43-24.9C1796.8,446.6,1808.5,443,1819.8,442.1"/>
	<path fill="#61A9DD" d="M1630.7,542.6l-43-24.9c-10.7-6.1-19.7-14.5-26.5-23.9c3.6-6.5,8.7-12.6,17.1-17.5l133.8-77.3
		c8.1-4.8,16.5-6.1,23.6-6.1c4.8,10.7,7.4,22.6,7.4,34.9l0,0v49.8L1630.7,542.6z"/>
	<path fill="#269143" d="M1781,411.7l21.7,12.6c0,0,10,5.8,17.1,17.5c-11.6,1.3-23.3,4.5-33.9,11l-43,24.9v-49.5l0,0
		c0-12.3-2.6-24.2-7.4-34.9c13.6,0.3,23.9,6.1,23.9,6.1L1781,411.7z"/>
	<path fill="#0071B5" d="M1587.7,517.7L1587.7,517.7l43,24.9l-43,24.9l0,0c-10.7,6.1-19.7,14.5-26.5,23.9l0,0
		c-0.3-0.3-0.3-1-0.6-1.3c-0.3-0.3-0.3-0.6-0.3-1c-4.5-9.7-5.5-18.7-5.5-21v-50.7c0,0,0-11.6,6.5-23.6
		C1568,503.2,1577.1,511.6,1587.7,517.7"/>
	<path fill="#CB6502" d="M1786.2,632.1L1786.2,632.1l-43-24.9V657c0,12.3-2.6,24.2-7.4,34.9l0,0c0.6,0,1,0,1.6,0c0.3,0,0.6,0,1,0
		c10.7-0.6,18.7-4.5,21-5.8l44-25.2c0,0,10-5.8,17.1-17.5C1808.5,642.1,1796.8,638.6,1786.2,632.1"/>
</g>
<g>
	<path fill="#FFFFFF" d="M156.8,453.4c-1.3,0-2.3-1-2.3-1.9v-15.5c0-5.8-2.9-10.3-9.7-10.3c-6.1,0-10.7,4.8-10.7,10.3v15.5
		c0,1.3-1,1.9-1.9,1.9c-1.3,0-1.9-1-1.9-1.9v-43.6c0-1.3,1-1.9,1.9-1.9s1.9,1,1.9,1.9c0,0,0,5.8,0,19.7c2.3-3.6,6.8-5.8,11.3-5.8
		c8.4,0,12.9,6.1,12.9,13.9v15.5C159,452.4,158.1,453.4,156.8,453.4z"/>
	<path fill="#FFFFFF" d="M193,453.4c-1.3,0-2.3-1-2.3-1.9v-1.9c-1.6,2.3-5.8,4.2-10.3,4.2c-7.1,0-12.3-4.2-12.3-10
		c0-6.5,5.5-10,12.3-10c4.5,0,8.1,1.3,10.3,3.6v-3.9c0-6.1-3.2-8.1-9.7-8.1c-3.6,0-6.8,1-9.7,2.3c-0.3,0-0.6,0.3-0.6,0.3
		c-0.6,0-1.3-0.3-1.6-1c0-0.3-0.3-0.6-0.3-0.6c0-0.6,0.3-1.3,1-1.6c3.2-1.9,8.1-2.6,11.6-2.6c8.7,0,13.6,3.6,13.6,12v17.5
		C194.9,452.4,194.3,453.4,193,453.4z M181.3,436.6c-4.8,0-9.4,1.9-9.4,6.8s4.8,6.8,9.1,6.8c5.2,0,9.7-2.9,9.7-6.8
		C190.7,438.5,186.5,436.6,181.3,436.6z"/>
	<path fill="#FFFFFF" d="M228.8,425.6l-19.4,23.6h17.8c1,0,1.6,0.6,1.6,1.6s-0.6,1.6-1.6,1.6h-21.7c-1.3,0-1.9-0.6-1.9-1.9
		c0-0.3,0-1,0.3-1.3l19.4-23.6h-17.8c-1,0-1.9-0.6-1.9-1.6c0-1,1-1.6,1.9-1.6c21.7,0,21.7,0,21.7,0c1,0,1.9,1,1.9,1.9
		C229.2,424.9,229.2,425.3,228.8,425.6z"/>
	<path fill="#FFFFFF" d="M283.2,447.6c-2.9,3.6-7.4,6.1-12.6,6.1c-8.7,0-15.8-6.8-15.8-15.8s7.1-15.8,15.8-15.8
		c4.2,0,7.8,1.6,11,4.5c0.3,0.3,0.6,1,0.6,1.3s0,0.6-0.3,1c-0.3,0.3-1,0.6-1.3,0.6c-0.3,0-1,0-1-0.3c-2.9-2.3-5.5-3.6-8.7-3.6
		c-6.8,0-12,5.5-12,12.3s5.2,12.3,12,12.3c4.5,0,7.4-2.3,10-4.8c0.3-0.3,1-0.6,1.3-0.6c0.3,0,1,0,1.3,0.6c0.3,0.3,0.6,0.6,0.6,1.3
		C283.5,446.6,283.5,447.2,283.2,447.6z"/>
	<path fill="#FFFFFF" d="M295.1,453.4c-1.3,0-2.3-1-2.3-1.9v-43.6c0-1.3,1-1.9,2.3-1.9s1.9,1,1.9,1.9v43.6
		C297.1,452.4,296.1,453.4,295.1,453.4z"/>
	<path fill="#FFFFFF" d="M313.5,413.9c-1.3,0-2.6-1-2.6-2.6c0-1.3,1.3-2.6,2.6-2.6s2.6,1,2.6,2.6
		C316.1,412.6,315.2,413.9,313.5,413.9z M313.5,453.4c-1.3,0-2.3-1-2.3-1.9v-27.2c0-1.3,1-1.9,2.3-1.9c1.3,0,1.9,1,1.9,1.9v27.2
		C315.8,452.4,314.8,453.4,313.5,453.4z"/>
	<path fill="#FFFFFF" d="M354.3,447.6c-2.9,3.6-7.4,6.1-12.6,6.1c-8.7,0-15.8-6.8-15.8-15.8s7.1-15.8,15.8-15.8
		c4.2,0,7.8,1.6,11,4.5c0.3,0.3,0.6,1,0.6,1.3s0,0.6-0.3,1c-0.3,0.3-1,0.6-1.3,0.6c-0.3,0-1,0-1-0.3c-2.9-2.3-5.5-3.6-8.7-3.6
		c-6.8,0-12,5.5-12,12.3s5.2,12.3,12,12.3c4.5,0,7.4-2.3,10-4.8c0.3-0.3,1-0.6,1.3-0.6c0.3,0,1,0,1.3,0.6c0.3,0.3,0.6,0.6,0.6,1.3
		C354.9,446.6,354.6,447.2,354.3,447.6z"/>
	<path fill="#FFFFFF" d="M395.3,453.7c-8.7,0-15.8-7.1-15.8-15.8c0-8.7,7.1-15.8,15.8-15.8s15.8,7.1,15.8,15.8
		C411.2,446.6,404.4,453.7,395.3,453.7z M395.3,425.3c-6.8,0-12,5.5-12,12.3s5.2,12.3,12,12.3s12-5.5,12-12.3
		S402.1,425.3,395.3,425.3z"/>
	<path fill="#FFFFFF" d="M457.1,453.7c-5.2,0-9.7-2.6-12.3-6.8v17.5c0,1.3-1,1.9-1.9,1.9c-1.3,0-1.9-1-1.9-1.9V424
		c0-1.3,1-1.9,1.9-1.9c1.3,0,1.9,1,1.9,1.9v4.2c2.6-4.2,6.8-6.8,12.3-6.8c8.7,0,15.5,6.8,15.5,15.8
		C472.9,446.6,465.8,453.7,457.1,453.7z M456.7,425.3c-6.8,0-12,5.5-12,12.3s5.2,12.3,12,12.3c6.8,0,12-5.2,12-12.3
		S463.5,425.3,456.7,425.3z"/>
	<path fill="#FFFFFF" d="M497.1,425.3c-6.1,0-12,4.2-12,10.7v15.2c0,1-1,1.9-1.9,1.9c-1,0-1.9-1-1.9-1.9V424c0-1.3,1-1.9,1.9-1.9
		c1,0,1.9,1,1.9,1.9c0,1,0,3.6,0,3.6c2.6-3.9,6.8-5.8,12-5.8c1,0,1.9,1,1.9,1.9C498.7,424.6,498.1,425.3,497.1,425.3z"/>
	<path fill="#FFFFFF" d="M531.7,438.8c0,0,0,0-24.9,0c0.3,6.1,5.2,11.3,11.6,11.3c4.5,0,7.8-1.9,10.3-4.8c0.3-0.6,1-0.6,1.3-0.6
		s0.6,0,1,0.3c0.3,0.3,0.6,1,0.6,1.3s0,0.6-0.3,1c-2.3,3.2-7.4,6.1-13.3,6.1c-8.7,0-15.8-7.1-15.8-15.8s6.8-15.8,15.5-15.8
		c8.7,0,15.2,7.1,15.2,15.5C533.3,438.2,532.7,438.8,531.7,438.8z M517.8,425.3c-6.1,0-10.7,4.5-11.3,10.3c4.8,0,22.3,0,22.3,0
		C528.5,429.8,524,425.3,517.8,425.3z"/>
	<path fill="#FFFFFF" d="M552.4,453.7c-3.9,0-8.4-1.3-12-3.9c-0.3-0.3-0.6-1-0.6-1.3s0-0.6,0.3-1c0.3-0.6,1-0.6,1.3-0.6
		c0.3,0,0.6,0,1,0.3c3.2,2.3,6.1,3.2,10,3.2c4.2,0,8.7-1.6,8.7-5.2c0-2.9-2.9-4.2-10.3-6.8c-5.5-1.9-9.7-3.9-9.7-8.7
		c0-4.8,5.2-8.1,11.6-8.1c4.8,0,7.8,1,11,3.2c0.6,0.3,1,1,1,1.6c0,0.3,0,0.6-0.3,1c-0.3,0.6-1,1-1.6,1c-0.3,0-0.6,0-1-0.3
		c-2.6-1.6-5.8-2.6-9.1-2.6c-4.5,0-8.1,1.6-8.1,4.5c0,3.2,2.3,3.9,9.4,6.1c6.8,2.3,11,4.5,11,9.1
		C564.7,449.8,559.8,453.7,552.4,453.7z"/>
	<path fill="#FFFFFF" d="M577.6,413.9c-1.3,0-2.6-1-2.6-2.6c0-1.3,1.3-2.6,2.6-2.6s2.6,1,2.6,2.6
		C579.9,412.6,578.9,413.9,577.6,413.9z M577.6,453.4c-1.3,0-2.3-1-2.3-1.9v-27.2c0-1.3,1-1.9,2.3-1.9s1.9,1,1.9,1.9v27.2
		C579.6,452.4,578.6,453.4,577.6,453.4z"/>
	<path fill="#FFFFFF" d="M605.7,453.7c-8.7,0-15.8-7.1-15.8-15.8c0-8.7,7.1-15.8,15.8-15.8c8.7,0,15.8,7.1,15.8,15.8
		C621.6,446.6,614.5,453.7,605.7,453.7z M605.7,425.3c-6.8,0-12,5.5-12,12.3s5.2,12.3,12,12.3s12-5.5,12-12.3
		S612.5,425.3,605.7,425.3z"/>
	<path fill="#FFFFFF" d="M658.1,453.4c-1.3,0-1.9-1-1.9-1.9v-15.5c0-5.8-3.2-10.3-9.7-10.3c-6.1,0-10.7,4.8-10.7,10.3v15.5
		c0,1.3-1,1.9-1.9,1.9c-1.3,0-1.9-1-1.9-1.9v-27.2c0-1.3,1-1.9,1.9-1.9c1,0,1.9,1,1.9,1.9v3.2c2.3-3.6,6.8-5.8,11.6-5.8
		c8.1,0,12.9,6.1,12.9,13.9v15.5C660.4,452.4,659.4,453.4,658.1,453.4z"/>
	<path fill="#FFFFFF" d="M694.6,453.4c-1.3,0-2.3-1-2.3-1.9v-1.9c-1.6,2.3-5.8,4.2-10.3,4.2c-7.1,0-12.3-4.2-12.3-10
		c0-6.5,5.5-10,12.3-10c4.5,0,8.1,1.3,10.3,3.6v-3.9c0-6.1-3.2-8.1-9.7-8.1c-3.6,0-6.8,1-9.7,2.3c-0.3,0-0.6,0.3-0.6,0.3
		c-0.6,0-1.3-0.3-1.6-1c0-0.3-0.3-0.6-0.3-0.6c0-0.6,0.3-1.3,1-1.6c3.2-1.9,8.1-2.6,11.6-2.6c8.7,0,13.6,3.6,13.6,12v17.5
		C696.6,452.4,695.9,453.4,694.6,453.4z M683,436.6c-4.8,0-9.4,1.9-9.4,6.8s4.8,6.8,9.1,6.8c5.2,0,9.7-2.9,9.7-6.8
		C692.4,438.5,687.8,436.6,683,436.6z"/>
	<path fill="#FFFFFF" d="M730.2,453.4c-1.3,0-2.3-1-2.3-1.9v-43.6c0-1.3,1-1.9,2.3-1.9s1.9,1,1.9,1.9v43.6
		C732.1,452.4,731.5,453.4,730.2,453.4z"/>
	<path fill="#FFFFFF" d="M768,453.4c-1.3,0-2.3-1-2.3-1.9v-1.9c-1.6,2.3-5.8,4.2-10.3,4.2c-7.1,0-12.3-4.2-12.3-10
		c0-6.5,5.5-10,12.3-10c4.5,0,8.1,1.3,10.3,3.6v-3.9c0-6.1-3.2-8.1-9.7-8.1c-3.6,0-6.8,1-9.7,2.3c-0.3,0-0.6,0.3-0.6,0.3
		c-0.6,0-1.3-0.3-1.6-1c0-0.3-0.3-0.6-0.3-0.6c0-0.6,0.3-1.3,1-1.6c3.2-1.9,8.1-2.6,11.6-2.6c8.7,0,13.6,3.6,13.6,12v17.5
		C770.3,452.4,769.3,453.4,768,453.4z M756.4,436.6c-4.8,0-9.4,1.9-9.4,6.8s4.8,6.8,9.1,6.8c5.2,0,9.7-2.9,9.7-6.8
		C766.1,438.5,761.5,436.6,756.4,436.6z"/>
	<path fill="#FFFFFF" d="M817.8,453.7c-5.2,0-10-2.6-12.3-6.8v4.2c0,1.3-1,1.9-1.9,1.9c-1.3,0-1.9-1-1.9-1.9v-43.3
		c0-1.3,1-1.9,1.9-1.9c1.3,0,1.9,1,1.9,1.9v20.7c2.3-3.9,6.8-6.8,12.3-6.8c8.7,0,15.8,6.8,15.8,15.8S826.5,453.7,817.8,453.7z
		 M817.5,425.3c-6.8,0-12,5.5-12,12.3s5.2,12.3,12,12.3c6.8,0,11.6-5.2,11.6-12.3S824.2,425.3,817.5,425.3z"/>
	<path fill="#FFFFFF" d="M865.3,453.4c-1.3,0-2.3-1-2.3-1.9v-1.9c-1.6,2.3-5.8,4.2-10.3,4.2c-7.1,0-12.3-4.2-12.3-10
		c0-6.5,5.5-10,12.3-10c4.5,0,8.1,1.3,10.3,3.6v-3.9c0-6.1-3.2-8.1-9.7-8.1c-3.6,0-6.8,1-9.7,2.3c-0.3,0-0.6,0.3-0.6,0.3
		c-0.6,0-1.3-0.3-1.6-1c0-0.3-0.3-0.6-0.3-0.6c0-0.6,0.3-1.3,1-1.6c3.2-1.9,8.1-2.6,11.6-2.6c8.7,0,13.6,3.6,13.6,12v17.5
		C867.2,452.4,866.3,453.4,865.3,453.4z M853.7,436.6c-4.8,0-9.4,1.9-9.4,6.8s4.8,6.8,9.1,6.8c5.2,0,9.7-2.9,9.7-6.8
		C863,438.5,858.5,436.6,853.7,436.6z"/>
	<path fill="#FFFFFF" d="M895,425.3c-6.1,0-12,4.2-12,10.7v15.2c0,1-1,1.9-1.9,1.9c-1,0-1.9-1-1.9-1.9V424c0-1.3,1-1.9,1.9-1.9
		c1,0,1.9,1,1.9,1.9c0,1,0,3.6,0,3.6c2.6-3.9,6.8-5.8,12-5.8c1,0,1.9,1,1.9,1.9S896,425.3,895,425.3z"/>
	<path fill="#FFFFFF" d="M921.2,425.3c-6.1,0-12,4.2-12,10.7v15.2c0,1-1,1.9-1.9,1.9c-1,0-1.9-1-1.9-1.9V424c0-1.3,1-1.9,1.9-1.9
		c1,0,1.9,1,1.9,1.9c0,1,0,3.6,0,3.6c2.6-3.9,6.8-5.8,12-5.8c1,0,1.9,1,1.9,1.9C922.8,424.6,922.2,425.3,921.2,425.3z"/>
	<path fill="#FFFFFF" d="M953.2,453.4c-1.3,0-2.3-1-2.3-1.9v-1.9c-1.6,2.3-5.8,4.2-10.3,4.2c-7.1,0-12.3-4.2-12.3-10
		c0-6.5,5.5-10,12.3-10c4.5,0,8.1,1.3,10.3,3.6v-3.9c0-6.1-3.2-8.1-9.7-8.1c-3.6,0-6.8,1-9.7,2.3c-0.3,0-0.6,0.3-0.6,0.3
		c-0.6,0-1.3-0.3-1.6-1c0-0.3-0.3-0.6-0.3-0.6c0-0.6,0.3-1.3,1-1.6c3.2-1.9,8.1-2.6,11.6-2.6c8.7,0,13.6,3.6,13.6,12v17.5
		C955.2,452.4,954.5,453.4,953.2,453.4z M941.6,436.6c-4.8,0-9.4,1.9-9.4,6.8s4.8,6.8,9.1,6.8c5.2,0,9.7-2.9,9.7-6.8
		C950.9,438.5,946.4,436.6,941.6,436.6z"/>
	<path fill="#FFFFFF" d="M1011.7,438.8c0,0,0,0-24.9,0c0.3,6.1,5.2,11.3,11.6,11.3c4.5,0,7.8-1.9,10.3-4.8c0.3-0.6,1-0.6,1.3-0.6
		c0.3,0,0.6,0,1,0.3c0.3,0.3,0.6,1,0.6,1.3s0,0.6-0.3,1c-2.3,3.2-7.4,6.1-13.3,6.1c-8.7,0-15.8-7.1-15.8-15.8s6.8-15.8,15.5-15.8
		c8.7,0,15.2,7.1,15.2,15.5C1013.3,438.2,1012.7,438.8,1011.7,438.8z M998.1,425.3c-6.1,0-10.7,4.5-11.3,10.3c4.8,0,22.3,0,22.3,0
		C1008.5,429.8,1004.3,425.3,998.1,425.3z"/>
	<path fill="#FFFFFF" d="M1032.4,453.7c-3.9,0-8.4-1.3-12-3.9c-0.3-0.3-0.6-1-0.6-1.3s0-0.6,0.3-1c0.3-0.6,1-0.6,1.3-0.6
		c0.3,0,0.6,0,1,0.3c3.2,2.3,6.1,3.2,10,3.2c4.2,0,8.7-1.6,8.7-5.2c0-2.9-2.9-4.2-10.3-6.8c-5.5-1.9-9.7-3.9-9.7-8.7
		c0-4.8,5.2-8.1,11.6-8.1c4.8,0,7.8,1,11,3.2c0.6,0.3,1,1,1,1.6c0,0.3,0,0.6-0.3,1c-0.3,0.6-1,1-1.6,1c-0.3,0-0.6,0-1-0.3
		c-2.6-1.6-5.8-2.6-9.1-2.6c-4.5,0-8.1,1.6-8.1,4.5c0,3.2,2.3,3.9,9.4,6.1c6.8,2.3,11,4.5,11,9.1
		C1045,449.8,1039.8,453.7,1032.4,453.7z"/>
	<path fill="#FFFFFF" d="M1071.5,453.7c-5.2,0-9.7-2.6-12.3-6.8v17.5c0,1.3-1,1.9-1.9,1.9c-1.3,0-1.9-1-1.9-1.9V424
		c0-1.3,1-1.9,1.9-1.9c1.3,0,1.9,1,1.9,1.9v4.2c2.6-4.2,6.8-6.8,12.3-6.8c8.7,0,15.5,6.8,15.5,15.8
		C1087,446.6,1080.2,453.7,1071.5,453.7z M1070.9,425.3c-6.8,0-12,5.5-12,12.3s5.2,12.3,12,12.3c6.8,0,12-5.2,12-12.3
		S1077.7,425.3,1070.9,425.3z"/>
	<path fill="#FFFFFF" d="M1119.4,453.4c-1.3,0-2.3-1-2.3-1.9v-1.9c-1.6,2.3-5.8,4.2-10.3,4.2c-7.1,0-12.3-4.2-12.3-10
		c0-6.5,5.5-10,12.3-10c4.5,0,8.1,1.3,10.3,3.6v-3.9c0-6.1-3.2-8.1-9.7-8.1c-3.6,0-6.8,1-9.7,2.3c-0.3,0-0.6,0.3-0.6,0.3
		c-0.6,0-1.3-0.3-1.6-1c0-0.3-0.3-0.6-0.3-0.6c0-0.6,0.3-1.3,1-1.6c3.2-1.9,8.1-2.6,11.6-2.6c8.7,0,13.6,3.6,13.6,12v17.5
		C1121.3,452.4,1120.6,453.4,1119.4,453.4z M1107.7,436.6c-4.8,0-9.4,1.9-9.4,6.8s4.8,6.8,9.1,6.8c5.2,0,9.7-2.9,9.7-6.8
		C1117.1,438.5,1112.6,436.6,1107.7,436.6z"/>
	<path fill="#FFFFFF" d="M1157.5,447.6c-2.9,3.6-7.4,6.1-12.6,6.1c-8.7,0-15.8-6.8-15.8-15.8s7.1-15.8,15.8-15.8
		c4.2,0,7.8,1.6,11,4.5c0.3,0.3,0.6,1,0.6,1.3s0,0.6-0.3,1c-0.3,0.3-1,0.6-1.3,0.6s-1,0-1-0.3c-2.9-2.3-5.5-3.6-8.7-3.6
		c-6.8,0-12,5.5-12,12.3s5.2,12.3,12,12.3c4.5,0,7.4-2.3,10-4.8c0.3-0.3,1-0.6,1.3-0.6s1,0,1.3,0.6c0.3,0.3,0.6,0.6,0.6,1.3
		C1157.8,446.6,1157.8,447.2,1157.5,447.6z"/>
	<path fill="#FFFFFF" d="M1169.8,413.9c-1.3,0-2.6-1-2.6-2.6c0-1.3,1.3-2.6,2.6-2.6c1.3,0,2.6,1,2.6,2.6
		C1172.4,412.6,1171.4,413.9,1169.8,413.9z M1169.8,453.4c-1.3,0-2.3-1-2.3-1.9v-27.2c0-1.3,1-1.9,2.3-1.9c1.3,0,1.9,1,1.9,1.9v27.2
		C1172,452.4,1171.1,453.4,1169.8,453.4z"/>
	<path fill="#FFFFFF" d="M1208.2,453.4c-1.3,0-2.3-1-2.3-1.9v-1.9c-1.6,2.3-5.8,4.2-10.3,4.2c-7.1,0-12.3-4.2-12.3-10
		c0-6.5,5.5-10,12.3-10c4.5,0,8.1,1.3,10.3,3.6v-3.9c0-6.1-3.2-8.1-9.7-8.1c-3.6,0-6.8,1-9.7,2.3c-0.3,0-0.6,0.3-0.6,0.3
		c-0.6,0-1.3-0.3-1.6-1c0-0.3-0.3-0.6-0.3-0.6c0-0.6,0.3-1.3,1-1.6c3.2-1.9,8.1-2.6,11.6-2.6c8.7,0,13.6,3.6,13.6,12v17.5
		C1210.2,452.4,1209.2,453.4,1208.2,453.4z M1196.6,436.6c-4.8,0-9.4,1.9-9.4,6.8s4.8,6.8,9.1,6.8c5.2,0,9.7-2.9,9.7-6.8
		C1206,438.5,1201.5,436.6,1196.6,436.6z"/>
	<path fill="#FFFFFF" d="M1247.7,453.4c-1.3,0-1.9-1-1.9-1.9v-4.2c-2.3,4.2-6.8,6.8-12.3,6.8c-8.7,0-15.8-6.8-15.8-15.8
		c0-9.1,6.8-15.8,15.8-15.8c5.5,0,10,2.9,12.3,6.8v-20.7c0-1.3,1-1.9,1.9-1.9c1.3,0,1.9,1,1.9,1.9v43.6
		C1249.9,452.4,1249,453.4,1247.7,453.4z M1233.8,425.3c-6.8,0-11.6,5.2-11.6,12.3s4.8,12.3,11.6,12.3c6.8,0,12-5.5,12-12.3
		C1245.7,430.7,1240.6,425.3,1233.8,425.3z"/>
	<path fill="#FFFFFF" d="M1274.5,453.7c-8.7,0-15.8-7.1-15.8-15.8c0-8.7,7.1-15.8,15.8-15.8s15.8,7.1,15.8,15.8
		C1290.3,446.6,1283.6,453.7,1274.5,453.7z M1274.5,425.3c-6.8,0-12,5.5-12,12.3s5.2,12.3,12,12.3c6.8,0,12-5.5,12-12.3
		S1281.3,425.3,1274.5,425.3z"/>
	<path fill="#FFFFFF" d="M1316.2,425.3c-6.1,0-12,4.2-12,10.7v15.2c0,1-1,1.9-1.9,1.9s-1.9-1-1.9-1.9V424c0-1.3,1-1.9,1.9-1.9
		s1.9,1,1.9,1.9c0,1,0,3.6,0,3.6c2.6-3.9,6.8-5.8,12-5.8c1,0,1.9,1,1.9,1.9C1318.1,424.6,1317.5,425.3,1316.2,425.3z"/>
	<path fill="#FFFFFF" d="M1348.2,453.4c-1.3,0-2.3-1-2.3-1.9v-1.9c-1.6,2.3-5.8,4.2-10.3,4.2c-7.1,0-12.3-4.2-12.3-10
		c0-6.5,5.5-10,12.3-10c4.5,0,8.1,1.3,10.3,3.6v-3.9c0-6.1-3.2-8.1-9.7-8.1c-3.6,0-6.8,1-9.7,2.3c-0.3,0-0.6,0.3-0.6,0.3
		c-0.6,0-1.3-0.3-1.6-1c0-0.3-0.3-0.6-0.3-0.6c0-0.6,0.3-1.3,1-1.6c3.2-1.9,8.1-2.6,11.6-2.6c8.7,0,13.6,3.6,13.6,12v17.5
		C1350.5,452.4,1349.5,453.4,1348.2,453.4z M1336.9,436.6c-4.8,0-9.4,1.9-9.4,6.8s4.8,6.8,9.1,6.8c5.2,0,9.7-2.9,9.7-6.8
		C1346.3,438.5,1341.7,436.6,1336.9,436.6z"/>
	<path fill="#FFFFFF" d="M146.7,537.4c-5.2,0-9.7-2.6-12.3-6.8v17.5c0,1.3-1,1.9-1.9,1.9c-1.3,0-1.9-1-1.9-1.9v-40.4
		c0-1.3,1-1.9,1.9-1.9c1.3,0,1.9,1,1.9,1.9v4.2c2.6-4.2,6.8-6.8,12.3-6.8c8.7,0,15.5,6.8,15.5,15.8
		C162.3,530.6,155.5,537.4,146.7,537.4z M146.4,509c-6.8,0-12,5.5-12,12.3s5.2,12.3,12,12.3s12-5.2,12-12.3
		C158.4,514.1,152.9,509,146.4,509z"/>
	<path fill="#FFFFFF" d="M194.6,537.1c-1.3,0-2.3-1-2.3-1.9v-1.9c-1.6,2.3-5.8,4.2-10.3,4.2c-7.1,0-12.3-4.2-12.3-10
		c0-6.5,5.5-10,12.3-10c4.5,0,8.1,1.3,10.3,3.6v-3.6c0-6.1-3.2-8.1-9.7-8.1c-3.6,0-6.8,1-9.7,2.3c-0.3,0-0.6,0.3-0.6,0.3
		c-0.6,0-1.3-0.3-1.6-1c0-0.3-0.3-0.6-0.3-0.6c0-0.6,0.3-1.3,1-1.6c3.2-1.9,8.1-2.6,11.6-2.6c8.7,0,13.6,3.6,13.6,12v17.5
		C196.5,536.1,195.9,537.1,194.6,537.1z M182.9,520.6c-4.8,0-9.4,1.9-9.4,6.8s4.8,6.8,9.1,6.8c5.2,0,9.7-2.9,9.7-6.8
		C192.3,522.2,187.8,520.6,182.9,520.6z"/>
	<path fill="#FFFFFF" d="M224.3,509c-6.1,0-12,4.2-12,10.7v15.2c0,1-1,1.9-1.9,1.9s-1.9-1-1.9-1.9v-27.2c0-1.3,1-1.9,1.9-1.9
		c1,0,1.9,1,1.9,1.9s0,3.6,0,3.6c2.6-3.9,6.8-5.8,12-5.8c1,0,1.9,1,1.9,1.9S225.3,509,224.3,509z"/>
	<path fill="#FFFFFF" d="M256.3,537.1c-1.3,0-2.3-1-2.3-1.9v-1.9c-1.6,2.3-5.8,4.2-10.3,4.2c-7.1,0-12.3-4.2-12.3-10
		c0-6.5,5.5-10,12.3-10c4.5,0,8.1,1.3,10.3,3.6v-3.6c0-6.1-3.2-8.1-9.7-8.1c-3.6,0-6.8,1-9.7,2.3c-0.3,0-0.6,0.3-0.6,0.3
		c-0.6,0-1.3-0.3-1.6-1c0-0.3-0.3-0.6-0.3-0.6c0-0.6,0.3-1.3,1-1.6c3.2-1.9,8.1-2.6,11.6-2.6c8.7,0,13.6,3.6,13.6,12v17.5
		C258.6,536.1,257.6,537.1,256.3,537.1z M245,520.6c-4.8,0-9.4,1.9-9.4,6.8s4.8,6.8,9.1,6.8c5.2,0,9.7-2.9,9.7-6.8
		C254.4,522.2,249.9,520.6,245,520.6z"/>
	<path fill="#FFFFFF" d="M314.2,531.3c-2.9,3.6-7.4,6.1-12.6,6.1c-8.7,0-15.8-6.8-15.8-15.8c0-9.1,7.1-15.8,15.8-15.8
		c4.2,0,7.8,1.6,11,4.5c0.3,0.3,0.6,1,0.6,1.3c0,0.3,0,0.6-0.3,1c-0.3,0.3-1,0.6-1.3,0.6c-0.3,0-1,0-1-0.3c-2.9-2.3-5.5-3.6-8.7-3.6
		c-6.8,0-12,5.5-12,12.3c0,6.8,5.2,12.3,12,12.3c4.5,0,7.4-2.3,10-4.8c0.3-0.3,1-0.6,1.3-0.6s1,0,1.3,0.6c0.3,0.3,0.6,0.6,0.6,1.3
		C314.5,530.6,314.5,530.9,314.2,531.3z"/>
	<path fill="#FFFFFF" d="M335.8,537.4c-8.7,0-15.8-7.1-15.8-15.8s7.1-15.8,15.8-15.8c8.7,0,15.8,7.1,15.8,15.8
		S344.6,537.4,335.8,537.4z M335.8,509c-6.8,0-12,5.5-12,12.3s5.2,12.3,12,12.3s12-5.5,12-12.3S342.6,509,335.8,509z"/>
	<path fill="#FFFFFF" d="M388.2,537.1c-1.3,0-1.9-1-1.9-1.9v-15.5c0-5.8-3.2-10.3-9.7-10.3c-6.1,0-10.7,4.8-10.7,10.3v15.5
		c0,1.3-1,1.9-1.9,1.9c-1.3,0-1.9-1-1.9-1.9v-27.5c0-1.3,1-1.9,1.9-1.9s1.9,1,1.9,1.9v3.2c2.3-3.6,6.8-5.8,11.6-5.8
		c8.1,0,12.9,6.1,12.9,13.9v15.5C390.1,536.1,389.2,537.1,388.2,537.1z"/>
	<path fill="#FFFFFF" d="M414.4,509.9h-6.1v25.2c0,1.3-1,1.9-1.9,1.9c-1.3,0-2.3-1-2.3-1.9v-25.2h-5.5c-1,0-1.6-0.6-1.6-1.6
		s0.6-1.6,1.6-1.6h5.5v-10.3c0-1.3,1-1.9,2.3-1.9c1.3,0,1.9,1,1.9,1.9v10.3h6.1c1,0,1.6,0.6,1.6,1.6S415.4,509.9,414.4,509.9z"/>
	<path fill="#FFFFFF" d="M428,497.7c-1.3,0-2.6-1-2.6-2.6c0-1.3,1.3-2.6,2.6-2.6s2.6,1,2.6,2.6C430.2,496.4,429.3,497.7,428,497.7z
		 M428,537.1c-1.3,0-2.3-1-2.3-1.9v-27.5c0-1.3,1-1.9,2.3-1.9s1.9,1,1.9,1.9v27.2C429.9,536.1,428.9,537.1,428,537.1z"/>
	<path fill="#FFFFFF" d="M470.9,537.1c-1.3,0-1.9-1-1.9-1.9v-15.5c0-5.8-3.2-10.3-9.7-10.3c-6.1,0-10.7,4.8-10.7,10.3v15.5
		c0,1.3-1,1.9-1.9,1.9c-1.3,0-1.9-1-1.9-1.9v-27.5c0-1.3,1-1.9,1.9-1.9s1.9,1,1.9,1.9v3.2c2.3-3.6,6.8-5.8,11.6-5.8
		c8.1,0,12.9,6.1,12.9,13.9v15.5C472.9,536.1,471.9,537.1,470.9,537.1z"/>
	<path fill="#FFFFFF" d="M510.4,537.1c-1,0-1.9-1-1.9-1.9v-3.2c-2.3,3.6-6.8,5.8-11.3,5.8c-8.1,0-12.9-6.1-12.9-13.9v-16.2
		c0-1.3,1-1.9,1.9-1.9c1.3,0,1.9,1,1.9,1.9v15.5c0,5.8,3.2,10.3,9.7,10.3c6.1,0,10.7-4.8,10.7-10.3v-15.5c0-1.3,1-1.9,1.9-1.9
		c1.3,0,2.3,1,2.3,1.9v27.2C512.3,536.1,511.7,537.1,510.4,537.1z"/>
	<path fill="#FFFFFF" d="M547.2,537.1c-1.3,0-2.3-1-2.3-1.9v-1.9c-1.6,2.3-5.8,4.2-10.3,4.2c-7.1,0-12.3-4.2-12.3-10
		c0-6.5,5.5-10,12.3-10c4.5,0,8.1,1.3,10.3,3.6v-3.6c0-6.1-3.2-8.1-9.7-8.1c-3.6,0-6.8,1-9.7,2.3c-0.3,0-0.6,0.3-0.6,0.3
		c-0.6,0-1.3-0.3-1.6-1c0-0.3-0.3-0.6-0.3-0.6c0-0.6,0.3-1.3,1-1.6c3.2-1.9,8.1-2.6,11.6-2.6c8.7,0,13.6,3.6,13.6,12v17.5
		C549.2,536.1,548.5,537.1,547.2,537.1z M535.6,520.6c-4.8,0-9.4,1.9-9.4,6.8s4.8,6.8,9.1,6.8c5.2,0,9.7-2.9,9.7-6.8
		C545,522.2,540.8,520.6,535.6,520.6z"/>
	<path fill="#FFFFFF" d="M577,509c-6.1,0-12,4.2-12,10.7v15.2c0,1-1,1.9-1.9,1.9s-1.9-1-1.9-1.9v-27.2c0-1.3,1-1.9,1.9-1.9
		s1.9,1,1.9,1.9s0,3.6,0,3.6c2.6-3.9,6.8-5.8,12-5.8c1,0,1.9,1,1.9,1.9S578.3,509,577,509z"/>
</g>
<g>
	<path d="M1254.1,658.6c0-6.5,1.6-11.6,4.8-16.8c2.6-4.2,5.5-8.7,8.7-12.6c1.9-2.3,3.9-4.5,6.5-6.1c0.6-0.3,0.6-0.6,0.3-1.3
		c-1.9-3.2-4.2-6.8-6.1-10.3c-3.6-5.8-7.1-12-10.7-17.8c-2.3-3.9-4.8-7.8-7.1-11.6c-3.2-5.2-6.5-10.7-9.7-15.8
		c-3.6-6.1-7.4-12-11-18.1c-2.6-4.5-4.2-9.4-3.9-14.5c0.3-5.2,2.6-9.1,6.1-12.6c3.6-3.2,7.4-5.2,12-6.1c3.9-1,7.8-0.6,11.3,1
		c6.5,2.6,10.7,7.4,13.9,13.3c2.3,3.9,4.5,7.8,6.8,11.3c2.9,4.8,5.8,9.7,8.7,14.5c0.3,0.6,0.6,0.6,1.3,0.3c3.2-3.2,7.1-5.5,10.7-7.8
		c2.9-1.9,6.1-3.2,9.7-3.6c5.5-0.6,10,1.3,14.2,4.8c0.6,0.6,1,0.6,1.6,0c4.8-5.2,10.7-9.1,18.1-9.7c5.2-0.3,9.7,1.3,13.9,4.2
		c0.6,0.3,1,0.3,1.6,0c4.2-2.9,8.1-5.8,12.9-8.1c7.4-3.2,15.2-1,19.4,5.8c1.6,2.3,3.2,4.5,4.8,6.8c3.9,5.5,7.4,11,11.3,16.5
		c3.2,4.8,6.5,9.7,9.4,14.9c3.6,5.8,6.1,12.3,9.1,18.4c1.9,4.5,4.2,9.4,6.1,13.9c2.9,7.1,5.8,13.9,8.7,21c2.6,6.5,5.2,12.6,7.8,19.1
		c1.6,4.2,3.6,8.4,5.2,12.9c2.6,6.8,5.2,13.6,8.1,20.4c0.3,0.6,0,1-0.6,1.3c-4.2,2.6-8.4,5.2-12.6,7.4c-4.2,2.6-8.4,5.2-12.6,7.8
		c-7.1,4.2-14.2,8.4-21,12.9c-4.2,2.6-8.4,5.2-12.6,7.8c-3.2,1.9-6.5,3.6-9.4,5.8c-3.9,2.6-8.1,4.8-12,7.4
		c-3.9,2.3-7.4,4.5-11.3,6.8c-0.6,0.3-1,0.3-1.6,0c-4.5-3.6-9.1-7.1-13.6-10.7c-6.1-4.5-12.6-9.1-20-12c-4.2-1.6-8.7-3.2-12.9-4.5
		c-6.1-2.3-12-4.5-17.8-7.1c-5.8-2.6-12-5.5-17.5-8.7c-6.5-3.9-12.9-7.8-18.1-13.6c-3.9-4.2-6.5-8.7-8.4-13.9
		C1255.1,666.4,1254.1,662.2,1254.1,658.6z"/>
	<path d="M1311,527.4c0,3.6-0.6,7.8-2.6,11.3c-0.6,1.6-1.9,2.9-3.9,2.6c-1.9,0-3.6,0-4.5-1.9c-1-1.6-1-3.2-0.3-5.2
		c1.3-5.8,1.3-11.6,0-17.8c-1.3-6.5-4.5-12-9.1-16.8c-5.2-5.2-11.3-9.1-18.4-11c-1.9-0.6-3.9-1.3-4.8-3.2c-1.3-2.3-1-4.5,0.6-6.5
		c1.3-1.6,3.6-2.3,5.8-1.6c6.8,2.3,13.3,5.2,18.7,9.7c4.5,3.6,7.8,8.1,11,12.6C1308.8,508.6,1311,517.4,1311,527.4z"/>
	<path d="M1183,545.5c0-4.5,0.6-8.4,2.3-12.3c1.3-2.9,3.2-3.6,6.1-2.9c2.3,0.6,3.2,1.9,3.2,4.5c0,1.9-0.3,3.9-0.6,5.8
		c-1,5.5-0.3,10.7,1.3,16.2c2.6,9.1,8.1,15.8,15.8,21c3.9,2.6,7.8,3.9,12,5.2c2.9,1,4.8,3.6,4.5,6.5c-0.3,2.9-3.9,5.2-6.8,4.5
		c-7.8-2.6-14.9-5.8-21-11.3c-4.2-3.9-7.8-8.4-10.3-13.6c-1.9-3.6-3.6-7.1-4.5-11C1183.7,553.9,1183.4,549.4,1183,545.5z"/>
	<path d="M1205,542.3c0-3.6,0.3-6.1,1.6-8.7c1.3-1.9,3.2-2.9,4.8-2.3c2.3,0.6,3.9,1.9,3.9,4.5c0,1.9-0.3,3.9-0.6,5.8
		c-0.6,8.7,4.5,17.5,12.6,20.7c1.6,0.6,3.6,1,5.2,1.6c1.6,1,2.6,2.9,2.6,4.5c-0.3,1.9-1.6,3.6-3.2,4.2c-2.3,0.6-4.2,0.3-6.5-0.6
		c-4.5-1.9-8.7-4.5-12.3-8.1c-3.2-3.6-5.5-7.4-6.8-12C1205.7,548.7,1205,544.8,1205,542.3z"/>
	<path d="M1289.4,530c0,2.6-0.3,4.8-1.3,7.1c-1,1.9-2.3,2.9-4.2,3.2c-1.9,0-3.6-0.6-4.5-2.6c-0.6-1.3-0.6-2.9-0.6-4.5
		c0.6-4.2,0.6-8.4-1-12.3c-2.3-6.1-6.5-10.3-12.9-12.3c-1-0.3-1.9-0.6-3.2-1c-2.6-1-3.9-3.2-3.2-5.8c0.6-2.3,3.2-3.9,5.8-3.6
		c3.6,0.3,6.5,2.3,9.1,3.9c3.9,2.3,7.1,4.8,9.4,8.7c2.3,3.2,3.6,6.5,4.5,10C1288.7,523.8,1289.4,527.1,1289.4,530z"/>
	<path fill="#FFFFFF" d="M1278.7,628.9c-0.3,0-0.3,0.3-0.3,0.3c-5.2,5.2-9.7,10.7-12.9,17.5c-1.6,3.6-2.6,7.4-2.9,11.3
		c-0.3,5.2,1.3,10,3.6,14.5c3.6,6.5,8.4,11.6,14.5,15.5c5.5,3.9,11.6,6.8,17.8,9.7c5.5,2.6,11.3,4.5,17.1,6.5
		c3.6,1.3,7.4,2.6,11,3.9c6.8,2.3,13.3,4.8,19.1,9.1c6.8,4.5,13.3,9.4,19.4,14.2c1,0.6,1.6,0.6,2.3,0c2.9-1.6,5.5-3.6,8.4-5.2
		c7.8-4.5,15.2-9.4,22.9-13.9c5.2-3.2,10.7-6.1,15.8-9.4c6.1-3.9,12.6-7.8,18.7-11.3c5.2-3.2,10-6.1,15.2-9.4
		c0.6-0.3,0.6-0.6,0.3-1.3c-2.6-6.8-5.5-13.6-8.1-20.4c-3.2-8.1-6.5-15.8-9.7-23.9c-2.6-6.1-4.8-12-7.4-18.1
		c-3.9-9.1-7.4-18.1-11.6-27.2c-2.3-4.8-4.8-9.7-7.8-14.2c-3.2-4.5-6.1-9.4-9.4-13.9c-4.2-6.1-8.4-12.6-12.6-19.1
		c-2.6-3.6-5.8-4.5-10-2.6c-3.6,1.9-7.1,4.2-10.3,6.5c-1,0.6-1,1.3-0.3,1.9c3.6,5.5,6.8,11.3,10.3,16.8c4.2,6.8,8.1,13.6,12.3,20
		c0.3,0.6,0.3,1-0.3,1.3c-1.6,1-3.6,1.9-5.2,2.9c-0.6,0.6-1.3,0.3-1.6-0.3c-3.9-6.1-7.4-12.6-11.3-18.7c-3.6-6.1-7.4-12.3-11-18.1
		c-1.3-2.3-2.9-4.5-5.5-6.1c-3.2-1.9-6.5-2.9-10-1.9c-4.5,1.3-8.4,4.2-11.3,7.8c-1,1-1,1.9,0,2.9c1,1.6,2.3,3.6,3.2,5.2
		c2.9,4.8,6.1,10,9.1,14.9c3.6,6.1,7.4,12,11,18.1c0.3,0.6,0.3,1-0.3,1.6c-1.6,1-3.6,1.9-5.2,2.9c-0.6,0.3-1,0.3-1.3-0.3
		c-1.6-2.9-3.2-5.8-5.2-8.7c-2.9-4.5-5.5-9.1-8.4-13.9c-4.2-7.1-8.4-13.9-12.6-21c-2.6-4.5-8.1-6.1-12.9-4.5c-3.2,1-5.8,2.9-8.4,4.8
		c-2.3,1.6-4.2,2.9-6.1,4.8c-0.3,0.6-0.3,1,0,1.3c1.6,2.6,2.9,5.2,4.5,7.4c3.6,6.1,7.4,12.3,11,18.4c2.3,3.9,4.5,7.8,7.1,11.6
		c2.6,4.5,5.2,8.7,8.1,13.3c0.3,0.6,0.3,1-0.3,1.3c-1.9,1-3.9,2.3-5.5,3.6c-0.3,0.3-0.6,0-1-0.3c-2.3-3.9-4.5-7.4-6.8-11.3
		c-4.5-7.4-9.1-15.2-13.6-22.6c-3.6-5.8-7.1-12-10.7-17.8c-3.2-5.5-6.8-11-10-16.5c-2.6-4.2-4.8-8.1-7.4-12.3
		c-2.3-3.2-3.9-6.8-6.5-10c-2.6-2.9-5.5-5.5-9.7-5.8c-3.2-0.3-6.1,0.6-8.7,1.9c-4.8,2.6-7.8,6.1-7.1,12c0.3,2.6,1,4.8,2.3,7.1
		c2.3,3.9,4.5,7.8,7.1,11.6c3.2,5.2,6.5,10.7,9.7,15.8c4.5,7.4,9.1,15.2,13.6,22.6c3.2,5.2,6.5,10.3,9.4,15.5
		c3.6,5.8,7.1,11.6,10.7,17.5c2.6,4.2,5.2,8.1,7.8,12.3c2.9,4.8,6.1,9.4,9.1,14.2c2.6,3.9,5.2,8.1,7.8,12c0.3,0.6,0.3,1.3-0.3,1.6
		c-1.3,0.6-2.3,1.3-3.2,1.9c-2.6,1.6-2.6,1.6-4.2-1c-6.1-9.4-12-19.1-18.1-28.4C1282.9,635.4,1281,632.1,1278.7,628.9z"/>
</g>
</svg>
