<?xml version="1.0" encoding="utf-8"?>
<!-- Generator: Adobe Illustrator 19.0.0, SVG Export Plug-In . SVG Version: 6.00 Build 0)  -->
<svg version="1.1" id="Capa_1" xmlns="http://www.w3.org/2000/svg" xmlns:xlink="http://www.w3.org/1999/xlink" x="0px" y="0px"
	 viewBox="110 -50 320 192" style="enable-background:new 110 -50 320 192;" xml:space="preserve">
<style type="text/css">
	.st0{fill:#FFFFFF;}
</style>
<g>
	<g>
		<path class="st0" d="M119.6-25c-1.3-2.2-2-4.4-2-6.6c0-2,0.5-3.8,1.5-5.6s2.4-3.4,4.3-4.9l2.3,1.4c0.2,0.1,0.3,0.3,0.4,0.4
			c0.1,0.2,0.1,0.3,0.1,0.5s0,0.3-0.1,0.5s-0.2,0.3-0.3,0.4c-0.3,0.3-0.5,0.6-0.8,1s-0.5,0.8-0.8,1.3c-0.2,0.5-0.4,1-0.6,1.5
			s-0.2,1.1-0.2,1.8s0.1,1.4,0.3,2.1c0.2,0.8,0.6,1.5,1.1,2.4c0.2,0.3,0.3,0.5,0.3,0.8c0,0.6-0.4,1.1-1.1,1.3L119.6-25z M129.4-25
			c-1.3-2.2-2-4.4-2-6.6c0-2,0.5-3.8,1.5-5.6s2.4-3.4,4.3-4.9l2.3,1.4c0.2,0.1,0.3,0.3,0.4,0.4c0.1,0.2,0.1,0.3,0.1,0.5
			s0,0.3-0.1,0.5s-0.2,0.3-0.3,0.4c-0.3,0.3-0.5,0.6-0.8,1s-0.5,0.8-0.8,1.3c-0.2,0.5-0.4,1-0.6,1.5s-0.2,1.1-0.2,1.8
			s0.1,1.4,0.3,2.1c0.2,0.8,0.6,1.5,1.1,2.4c0.2,0.3,0.3,0.5,0.3,0.8c0,0.6-0.4,1.1-1.1,1.3L129.4-25z"/>
		<path class="st0" d="M168.8-38.8v6.3H150v11.8h14.8v6.1H150v12h18.8v6.3H142v-42.5H168.8z"/>
		<path class="st0" d="M183-40V3.6h-7.3V-40H183z"/>
		<path class="st0" d="M226.1,3.7h-3.3c-0.7,0-1.2-0.1-1.6-0.3c-0.4-0.2-0.7-0.6-0.9-1.2l-0.6-2.1c-0.8,0.7-1.5,1.3-2.2,1.8
			s-1.5,1-2.3,1.3s-1.6,0.6-2.5,0.8c-0.9,0.2-1.9,0.3-2.9,0.3c-1.3,0-2.4-0.2-3.5-0.5s-2-0.9-2.8-1.5s-1.4-1.5-1.8-2.6
			c-0.5-1.1-0.7-2.2-0.7-3.6c0-1.1,0.3-2.3,0.9-3.4s1.6-2.1,3-3s3.2-1.6,5.6-2.2c2.3-0.6,5.2-0.9,8.6-0.9v-1.9c0-2-0.4-3.5-1.3-4.5
			s-2.1-1.5-3.7-1.5c-1.2,0-2.2,0.1-2.9,0.4c-0.8,0.3-1.5,0.6-2,0.9c-0.6,0.3-1.1,0.7-1.6,0.9c-0.5,0.3-1,0.4-1.6,0.4
			c-0.5,0-0.9-0.1-1.3-0.4s-0.6-0.6-0.9-0.9l-1.3-2.3c3.5-3.2,7.6-4.8,12.5-4.8c1.8,0,3.3,0.3,4.7,0.9c1.4,0.6,2.5,1.4,3.5,2.4
			s1.7,2.3,2.2,3.7c0.5,1.4,0.7,3,0.7,4.7L226.1,3.7L226.1,3.7z M212-0.8c0.7,0,1.4-0.1,2.1-0.2c0.6-0.1,1.2-0.3,1.8-0.6
			s1.1-0.6,1.6-1s1-0.9,1.6-1.4v-5c-2.1,0-3.9,0.1-5.3,0.4c-1.4,0.3-2.6,0.6-3.4,1c-0.9,0.4-1.5,0.9-1.8,1.4
			c-0.4,0.6-0.5,1.2-0.5,1.8c0,1.3,0.4,2.2,1.1,2.8C209.8-1.1,210.8-0.8,212-0.8z"/>
		<path class="st0" d="M233.2,3.7v-30.1h4.4c0.9,0,1.6,0.4,1.9,1.3l0.5,2.2c0.5-0.6,1.1-1.1,1.7-1.6s1.2-0.9,1.9-1.3
			s1.4-0.6,2.1-0.8c0.8-0.2,1.6-0.3,2.5-0.3c1.9,0,3.5,0.5,4.7,1.5s2.1,2.4,2.7,4.1c0.5-1,1.1-1.9,1.8-2.6s1.5-1.3,2.3-1.7
			c0.8-0.5,1.7-0.8,2.7-1s1.9-0.3,2.9-0.3c1.7,0,3.1,0.3,4.4,0.8s2.4,1.3,3.3,2.2c0.9,1,1.6,2.2,2,3.6c0.5,1.4,0.7,3,0.7,4.8V3.7
			h-7.3v-19.2c0-1.9-0.4-3.4-1.3-4.3c-0.8-1-2.1-1.5-3.7-1.5c-0.7,0-1.4,0.1-2.1,0.4c-0.6,0.3-1.2,0.6-1.7,1.1s-0.9,1.1-1.1,1.8
			c-0.3,0.7-0.4,1.6-0.4,2.5V3.7h-7.4v-19.2c0-2-0.4-3.5-1.2-4.4s-2-1.4-3.6-1.4c-1,0-2,0.3-2.9,0.8s-1.8,1.2-2.5,2.1V3.7H233.2z"/>
		<path class="st0" d="M291.5-35.2c0,0.6-0.1,1.2-0.4,1.8c-0.3,0.5-0.6,1-1,1.4c-0.4,0.4-0.9,0.7-1.5,1c-0.6,0.2-1.2,0.4-1.8,0.4
			s-1.2-0.1-1.8-0.4c-0.6-0.2-1-0.6-1.5-1c-0.5-0.4-0.7-0.9-1-1.4c-0.2-0.5-0.4-1.1-0.4-1.8c0-0.6,0.1-1.3,0.4-1.8
			c0.2-0.6,0.6-1.1,1-1.5s0.9-0.7,1.5-1c0.6-0.2,1.1-0.4,1.8-0.4c0.6,0,1.3,0.1,1.8,0.4c0.6,0.2,1.1,0.6,1.5,1s0.8,0.9,1,1.5
			C291.3-36.5,291.5-35.9,291.5-35.2z M290.5-26.4V3.7h-7.3v-30.1C283.2-26.4,290.5-26.4,290.5-26.4z"/>
		<path class="st0" d="M309-27c1.3,0,2.5,0.1,3.6,0.4s2.2,0.7,3.1,1.2h8.7v2.7c0,0.5-0.1,0.8-0.4,1.1c-0.2,0.3-0.6,0.4-1.2,0.5
			l-2.7,0.5c0.2,0.5,0.3,1,0.5,1.6s0.2,1.2,0.2,1.8c0,1.5-0.3,2.8-0.9,4c-0.6,1.2-1.4,2.2-2.5,3.1c-1,0.8-2.3,1.5-3.7,2
			s-3,0.7-4.7,0.7c-1.1,0-2.2-0.1-3.3-0.3c-0.9,0.6-1.4,1.2-1.4,1.9c0,0.6,0.3,1.1,0.8,1.3c0.6,0.3,1.3,0.5,2.2,0.6s1.9,0.2,3.1,0.2
			s2.3,0,3.6,0.1s2.4,0.3,3.6,0.5s2.2,0.6,3.1,1.2c0.9,0.6,1.6,1.3,2.2,2.2c0.6,0.9,0.8,2.1,0.8,3.5c0,1.3-0.3,2.6-1,3.9
			s-1.6,2.4-2.8,3.4s-2.8,1.8-4.6,2.4c-1.8,0.6-3.9,0.9-6.2,0.9s-4.3-0.2-6-0.7s-3.1-1-4.2-1.8c-1.1-0.7-1.9-1.6-2.5-2.5
			s-0.8-2-0.8-3c0-1.4,0.4-2.6,1.3-3.6c0.9-1,2.1-1.7,3.6-2.3c-0.7-0.4-1.3-1-1.8-1.6S298-2.7,298-3.8c0-0.5,0.1-0.9,0.2-1.4
			c0.2-0.5,0.4-1,0.7-1.4s0.7-0.9,1.2-1.3c0.5-0.4,1.1-0.8,1.7-1.1c-1.5-0.8-2.7-1.9-3.6-3.3c-0.9-1.4-1.3-3-1.3-4.8
			c0-1.5,0.3-2.8,0.9-4c0.6-1.2,1.4-2.2,2.5-3.1s2.3-1.5,3.8-2C305.8-26.7,307.2-27,309-27z M317,5c0-0.6-0.2-1.1-0.5-1.5
			c-0.4-0.4-0.8-0.7-1.4-0.9c-0.6-0.2-1.3-0.4-2.1-0.5s-1.7-0.2-2.6-0.2c-0.9,0-1.8,0-2.8,0s-1.9-0.1-2.8-0.3c-0.8,0.5-1.5,1-2,1.6
			S302,4.5,302,5.3c0,0.5,0.1,1,0.4,1.5s0.7,0.9,1.3,1.2s1.3,0.6,2.2,0.8s2,0.3,3.4,0.3s2.5-0.1,3.5-0.3s1.8-0.5,2.4-0.9
			c0.6-0.4,1.1-0.8,1.4-1.3C316.8,6.1,317,5.6,317,5z M309-12.1c0.9,0,1.7-0.1,2.3-0.4c0.7-0.2,1.2-0.6,1.7-1s0.8-0.9,1-1.6
			c0.2-0.6,0.3-1.3,0.3-2c0-1.5-0.4-2.7-1.3-3.5c-0.9-0.9-2.2-1.3-4-1.3s-3.1,0.4-4,1.3s-1.3,2.1-1.3,3.5c0,0.7,0.1,1.4,0.3,2
			s0.6,1.1,1,1.6c0.4,0.4,1,0.8,1.7,1C307.3-12.2,308.2-12.1,309-12.1z"/>
		<path class="st0" d="M341.8-26.9c2.3,0,4.3,0.4,6.1,1.1s3.4,1.8,4.7,3.1c1.3,1.3,2.3,3,3,4.9s1.1,4.1,1.1,6.4
			c0,2.4-0.4,4.5-1.1,6.5c-0.7,1.9-1.7,3.6-3,4.9c-1.3,1.4-2.9,2.4-4.7,3.1s-3.9,1.1-6.1,1.1c-2.3,0-4.3-0.4-6.1-1.1
			S332.3,1.3,331,0c-1.3-1.4-2.3-3-3-4.9s-1.1-4.1-1.1-6.5s0.4-4.5,1.1-6.4s1.7-3.5,3-4.9c1.3-1.3,2.9-2.4,4.7-3.1
			C337.5-26.6,339.7-26.9,341.8-26.9z M341.8-1.5c2.5,0,4.4-0.8,5.6-2.5s1.8-4.2,1.8-7.4s-0.6-5.7-1.8-7.4s-3.1-2.6-5.6-2.6
			s-4.4,0.9-5.6,2.6c-1.2,1.7-1.8,4.2-1.8,7.4s0.6,5.7,1.8,7.4S339.3-1.5,341.8-1.5z"/>
	</g>
	<g>
		<path class="st0" d="M228,41.9c-0.5,0-0.9-0.3-1-0.8l-0.3-2.6c-0.9,1.1-1.9,2-3.1,2.7s-2.5,1-4,1c-1.2,0-2.3-0.2-3.3-0.7
			s-1.8-1.2-2.5-2.1c-0.7-0.9-1.2-2-1.6-3.4s-0.6-2.9-0.6-4.7c0-1.6,0.2-3,0.6-4.4s1-2.5,1.8-3.5s1.8-1.8,2.9-2.3
			c1.1-0.6,2.4-0.9,3.9-0.9c1.3,0,2.4,0.2,3.3,0.7c0.9,0.4,1.8,1.1,2.5,1.9V11h3.7v30.9C230.2,41.8,228,41.8,228,41.9z M220.6,39.2
			c1.2,0,2.3-0.3,3.2-0.8c0.9-0.6,1.8-1.4,2.5-2.4V25.7c-0.7-0.9-1.4-1.6-2.3-1.9c-0.8-0.4-1.7-0.6-2.7-0.6c-2,0-3.5,0.7-4.6,2.1
			s-1.6,3.4-1.6,6c0,1.4,0.1,2.6,0.4,3.6c0.2,1,0.6,1.8,1,2.4c0.5,0.6,1,1.1,1.7,1.4C219.1,39.1,219.8,39.2,220.6,39.2z"/>
		<path class="st0" d="M244.8,20.2c1.3,0,2.4,0.2,3.5,0.6s2,1,2.8,1.8s1.4,1.8,1.8,3c0.4,1.2,0.7,2.5,0.7,4c0,0.6-0.1,1-0.2,1.2
			c-0.1,0.2-0.4,0.3-0.7,0.3h-14.2c0,1.3,0.2,2.5,0.5,3.5s0.8,1.8,1.4,2.5s1.3,1.2,2.1,1.5s1.7,0.5,2.7,0.5c0.9,0,1.7-0.1,2.4-0.3
			s1.3-0.5,1.8-0.7c0.5-0.3,0.9-0.5,1.2-0.7s0.6-0.3,0.9-0.3s0.5,0.1,0.7,0.4l1.1,1.4c-0.5,0.6-1,1-1.7,1.5s-1.3,0.8-2.1,1
			c-0.7,0.3-1.5,0.5-2.3,0.6s-1.6,0.2-2.3,0.2c-1.5,0-2.8-0.2-4.1-0.7c-1.2-0.5-2.3-1.2-3.2-2.2s-1.6-2.1-2.1-3.6s-0.8-3-0.8-4.9
			c0-1.5,0.2-2.9,0.7-4.2s1.1-2.4,2-3.4c0.9-0.9,1.9-1.7,3.1-2.2C242,20.6,243.2,20.2,244.8,20.2z M245,23.1c-1.8,0-3.2,0.5-4.3,1.6
			c-1,1-1.7,2.5-1.9,4.3h11.6c0-0.9-0.1-1.7-0.4-2.4c-0.2-0.7-0.6-1.3-1-1.9c-0.5-0.5-1-0.9-1.7-1.2C246.5,23.2,245.8,23.1,245,23.1
			z"/>
		<path class="st0" d="M278.8,24.2c-0.2,0.3-0.4,0.5-0.8,0.5c-0.2,0-0.4-0.1-0.7-0.2c-0.3-0.2-0.6-0.3-1-0.5s-0.8-0.4-1.4-0.5
			c-0.5-0.2-1.2-0.2-1.9-0.2c-0.6,0-1.2,0.1-1.7,0.2c-0.5,0.2-0.9,0.4-1.3,0.7c-0.4,0.3-0.6,0.6-0.8,1s-0.3,0.8-0.3,1.2
			c0,0.5,0.2,1,0.5,1.4s0.7,0.7,1.2,0.9c0.5,0.3,1.1,0.5,1.8,0.7s1.3,0.4,2,0.7c0.7,0.2,1.4,0.5,2,0.8c0.7,0.3,1.2,0.6,1.8,1
			c0.5,0.4,0.9,0.9,1.2,1.5s0.5,1.3,0.5,2.2c0,1-0.2,1.9-0.5,2.7c-0.4,0.8-0.9,1.6-1.6,2.2c-0.7,0.6-1.5,1.1-2.5,1.4
			c-1,0.4-2.1,0.5-3.4,0.5c-1.5,0-2.8-0.2-4-0.7s-2.2-1.1-3.1-1.9l0.9-1.4c0.1-0.2,0.2-0.3,0.4-0.4c0.2-0.1,0.4-0.1,0.6-0.1
			c0.3,0,0.5,0.1,0.8,0.3s0.6,0.4,1,0.7s0.9,0.5,1.4,0.7c0.6,0.2,1.3,0.3,2.1,0.3c0.7,0,1.4-0.1,1.9-0.3s1-0.4,1.4-0.8
			c0.4-0.3,0.6-0.7,0.8-1.1c0.2-0.4,0.3-0.9,0.3-1.3c0-0.6-0.2-1.1-0.5-1.5s-0.7-0.7-1.2-1s-1.1-0.5-1.8-0.7s-1.3-0.4-2-0.6
			c-0.7-0.2-1.4-0.5-2-0.8s-1.3-0.6-1.8-1.1c-0.5-0.4-0.9-1-1.2-1.6s-0.5-1.4-0.5-2.3c0-0.8,0.2-1.6,0.5-2.3c0.3-0.7,0.8-1.4,1.5-2
			c0.6-0.6,1.4-1,2.4-1.4c0.9-0.3,2-0.5,3.2-0.5c1.4,0,2.7,0.2,3.8,0.7s2.1,1,2.9,1.8L278.8,24.2z"/>
		<path class="st0" d="M289.8,14c0,0.4-0.1,0.7-0.2,1c-0.1,0.3-0.3,0.6-0.6,0.8s-0.5,0.4-0.9,0.6c-0.3,0.1-0.7,0.2-1,0.2
			s-0.7-0.1-1-0.2s-0.6-0.3-0.8-0.6s-0.4-0.5-0.6-0.8c-0.1-0.3-0.2-0.7-0.2-1c0-0.4,0.1-0.7,0.2-1c0.1-0.3,0.3-0.6,0.6-0.9
			s0.5-0.4,0.8-0.6c0.3-0.1,0.7-0.2,1-0.2s0.7,0.1,1,0.2c0.3,0.1,0.6,0.3,0.9,0.6s0.4,0.5,0.6,0.9C289.7,13.2,289.8,13.6,289.8,14z
			 M289,20.7V42h-3.7V20.7H289z"/>
		<path class="st0" d="M304,20.2c1.3,0,2.5,0.2,3.5,0.6c1.1,0.4,2,1,2.8,1.8s1.4,1.8,1.8,3c0.4,1.2,0.7,2.5,0.7,4
			c0,0.6-0.1,1-0.2,1.2c-0.1,0.2-0.4,0.3-0.7,0.3h-14.2c0,1.3,0.2,2.5,0.5,3.5s0.8,1.8,1.4,2.5c0.6,0.7,1.3,1.2,2.1,1.5
			s1.7,0.5,2.7,0.5c0.9,0,1.7-0.1,2.4-0.3s1.3-0.5,1.8-0.7s0.9-0.5,1.2-0.7s0.6-0.3,0.9-0.3s0.5,0.1,0.7,0.4l1,1.4
			c-0.5,0.6-1,1-1.7,1.5c-0.6,0.4-1.3,0.8-2.1,1c-0.7,0.3-1.5,0.5-2.3,0.6s-1.6,0.2-2.3,0.2c-1.5,0-2.8-0.2-4.1-0.7
			c-1.2-0.5-2.3-1.2-3.2-2.2s-1.6-2.1-2.1-3.6c-0.5-1.4-0.8-3-0.8-4.9c0-1.5,0.2-2.9,0.7-4.2s1.1-2.4,2-3.4c0.9-0.9,1.9-1.7,3.1-2.2
			C301,20.6,302.3,20.2,304,20.2z M304,23.1c-1.8,0-3.2,0.5-4.3,1.6c-1,1-1.7,2.5-1.9,4.3h11.6c0-0.9-0.1-1.7-0.4-2.4
			c-0.2-0.7-0.6-1.3-1-1.9s-1-0.9-1.7-1.2C305.7,23.2,304.8,23.1,304,23.1z"/>
		<path class="st0" d="M317.5,41.9V20.7h2.2c0.5,0,0.9,0.3,1,0.8l0.3,2.2c0.8-1,1.7-1.8,2.6-2.4c1-0.6,2.1-0.9,3.4-0.9
			c1.4,0,2.6,0.4,3.5,1.2c0.9,0.8,1.5,1.9,1.9,3.2c0.3-0.8,0.7-1.4,1.2-2s1-1,1.6-1.4s1.2-0.6,1.9-0.8s1.4-0.3,2.1-0.3
			c1.1,0,2.1,0.2,3,0.5s1.6,0.9,2.2,1.6c0.6,0.7,1.1,1.5,1.4,2.5s0.5,2.1,0.5,3.4v13.5h-3.7V28.4c0-1.7-0.4-2.9-1.1-3.8
			s-1.8-1.3-3.2-1.3c-0.6,0-1.2,0.1-1.8,0.3s-1,0.5-1.5,1c-0.4,0.4-0.8,0.9-1,1.6c-0.2,0.6-0.4,1.4-0.4,2.2v13.5H330V28.4
			c0-1.7-0.3-3-1-3.8s-1.7-1.3-3-1.3c-0.9,0-1.8,0.2-2.6,0.7s-1.5,1.2-2.2,2v15.9H317.5z"/>
		<path class="st0" d="M352,49.1V20.7h2.2c0.5,0,0.9,0.3,1,0.8l0.3,2.5c0.9-1.1,1.9-2,3.1-2.7s2.5-1,4-1c1.2,0,2.3,0.2,3.3,0.7
			s1.8,1.2,2.5,2.1s1.2,2.1,1.6,3.4c0.4,1.4,0.6,2.9,0.6,4.7c0,1.6-0.2,3-0.6,4.4c-0.4,1.4-1,2.5-1.8,3.5s-1.7,1.8-2.9,2.3
			c-1.1,0.6-2.4,0.9-3.9,0.9c-1.3,0-2.4-0.2-3.4-0.7c-0.9-0.4-1.8-1-2.5-1.8v9.4L352,49.1L352,49.1z M361.5,23.2
			c-1.2,0-2.3,0.3-3.2,0.8c-0.9,0.6-1.8,1.4-2.5,2.4v10.3c0.7,0.9,1.4,1.6,2.3,2c0.8,0.4,1.7,0.6,2.7,0.6c2,0,3.5-0.7,4.6-2.1
			c1.1-1.4,1.6-3.4,1.6-6c0-1.4-0.1-2.6-0.4-3.6c-0.2-1-0.6-1.8-1.1-2.4s-1-1.1-1.7-1.4C363,23.5,362.3,23.2,361.5,23.2z"/>
		<path class="st0" d="M375.2,41.9V20.7h2.1c0.4,0,0.7,0.1,0.8,0.2c0.2,0.2,0.3,0.4,0.3,0.8l0.3,3.3c0.7-1.5,1.6-2.6,2.7-3.5
			c1.1-0.8,2.3-1.2,3.8-1.2c0.6,0,1.1,0.1,1.6,0.2s0.9,0.3,1.3,0.6l-0.5,2.8c-0.1,0.4-0.3,0.5-0.7,0.5c-0.2,0-0.5-0.1-0.9-0.2
			s-1-0.2-1.7-0.2c-1.3,0-2.4,0.4-3.3,1.1c-0.9,0.8-1.6,1.9-2.2,3.3v13.5C378.8,41.8,375.2,41.8,375.2,41.9z"/>
		<path class="st0" d="M400.5,20.2c1.3,0,2.5,0.2,3.5,0.6c1.1,0.4,2,1,2.8,1.8s1.4,1.8,1.8,3c0.4,1.2,0.7,2.5,0.7,4
			c0,0.6-0.1,1-0.2,1.2c-0.1,0.2-0.4,0.3-0.7,0.3h-14.2c0,1.3,0.2,2.5,0.5,3.5s0.8,1.8,1.4,2.5c0.6,0.7,1.3,1.2,2.1,1.5
			s1.7,0.5,2.7,0.5c0.9,0,1.7-0.1,2.4-0.3s1.3-0.5,1.8-0.7s0.9-0.5,1.2-0.7s0.6-0.3,0.9-0.3s0.5,0.1,0.7,0.4l1,1.4
			c-0.5,0.6-1,1-1.7,1.5c-0.6,0.4-1.3,0.8-2.1,1c-0.7,0.3-1.5,0.5-2.3,0.6s-1.6,0.2-2.3,0.2c-1.5,0-2.8-0.2-4.1-0.7
			c-1.2-0.5-2.3-1.2-3.2-2.2s-1.6-2.1-2.1-3.6c-0.5-1.4-0.8-3-0.8-4.9c0-1.5,0.2-2.9,0.7-4.2s1.1-2.4,2-3.4c0.9-0.9,1.9-1.7,3.1-2.2
			C397.7,20.6,399,20.2,400.5,20.2z M400.7,23.1c-1.8,0-3.2,0.5-4.3,1.6c-1,1-1.7,2.5-1.9,4.3h11.6c0-0.9-0.1-1.7-0.4-2.4
			c-0.2-0.7-0.6-1.3-1-1.9s-1-0.9-1.7-1.2C402.2,23.2,401.5,23.1,400.7,23.1z"/>
		<path class="st0" d="M414.8,10.3c0.4,0.7,0.7,1.3,0.9,2s0.3,1.3,0.3,2c0,1.3-0.3,2.5-0.9,3.6c-0.6,1.2-1.5,2.2-2.6,3.2l-1.2-0.7
			c-0.1-0.1-0.2-0.1-0.2-0.2S411,20,411,19.9c0-0.2,0.1-0.4,0.2-0.5c0.2-0.3,0.4-0.6,0.7-0.9s0.4-0.6,0.6-1c0.2-0.3,0.3-0.7,0.4-1.1
			c0.1-0.4,0.1-0.8,0.1-1.2s-0.1-0.9-0.2-1.4c-0.1-0.5-0.4-1-0.7-1.5c-0.1-0.2-0.1-0.3-0.1-0.5c0-0.3,0.2-0.6,0.6-0.7L414.8,10.3z
			 M421.2,10.3c0.4,0.7,0.7,1.3,0.9,2s0.3,1.3,0.3,2c0,1.3-0.3,2.5-0.9,3.6c-0.6,1.2-1.5,2.2-2.6,3.2l-1.2-0.7
			c-0.1-0.1-0.2-0.1-0.2-0.2s-0.1-0.2-0.1-0.3c0-0.2,0.1-0.4,0.2-0.5c0.2-0.3,0.4-0.6,0.7-0.9s0.4-0.6,0.6-1
			c0.2-0.3,0.3-0.7,0.4-1.1c0.1-0.4,0.1-0.8,0.1-1.2s-0.1-0.9-0.2-1.4c-0.1-0.5-0.4-1-0.7-1.5c-0.1-0.2-0.1-0.3-0.1-0.5
			c0-0.3,0.2-0.6,0.6-0.7L421.2,10.3z"/>
	</g>
</g>
<g id="XMLID_63_">
	<g id="XMLID_64_">
		<path id="XMLID_65_" class="st0" d="M239.6,110.8l-8.7,19.4h2.2l2.3-5.1h10.5l2.2,5.1h2.3l-8.7-19.4
			C241.7,110.8,239.6,110.8,239.6,110.8z M236.3,123l4.4-9.8l4.4,9.8H236.3z M264.8,110.8h2.5l-8,11.5v7.6h-2.2v-7.6l-8-11.5h2.6
			l6.4,9.6L264.8,110.8z M204.5,110.8h-7.1V130h2.2v-6.7h4.7c4.1,0,7.6-2.2,7.6-6.3C211.6,113.1,208.9,110.8,204.5,110.8
			 M204.2,121.3h-4.8v-8.5h4.8c3.1,0,5.1,1.5,5.1,4.2C209.4,119.5,207.4,121.3,204.2,121.3 M217.7,128h10.8v2h-13v-19.2h2.2V128z
			 M235.2,70.6c-4.4,0-7.9,3.5-7.9,7.9v22.9h-7.1v-23c0-4.4-3.5-7.9-7.9-7.9s-7.8,3.6-7.8,7.9v22.9h-7.1V78.4c0-8.3,6.7-15,15-15
			c4.7,0,8.7,2,11.5,5.2c2.8-3.2,6.8-5.2,11.5-5.2c8.3,0,15,6.7,15,15v22.9h-7.1V78.4C243,74.1,239.5,70.6,235.2,70.6 M422.4,63.4
			v1.7l-9.5,19.1h-2.6l9.6-18.7h-11.5v-2.1H422.4z M398.2,70.7c-6.6-8.3-18.7-9.9-27-3.4s-9.9,18.7-3.4,27s18.7,9.9,27,3.4
			c1.2-1,2.3-2,3.4-3.4c0,1.5,0,3.1,0,4.5c0,10.9-6.8,16.5-16.6,16.5c-5,0-9.6-1.3-14-3.8l-1.9,3.6c4.8,2.8,10.2,4.1,15.7,4.1
			c12.1,0,20.8-7.1,20.8-20V63.4h-4.1C398.2,65.9,398.2,68.4,398.2,70.7 M383.1,97.7c-8.3,0-15-6.7-15-15s6.7-15,15-15s15,6.7,15,15
			S391.4,97.7,383.1,97.7 M336.7,63.4c-10.6,0-19.2,8.6-19.2,19.2s8.6,19.2,19.2,19.2c10.6,0,19.2-8.6,19.2-19.2
			S347.4,63.4,336.7,63.4 M336.7,94.6c-6.7,0-12-5.4-12-12s5.4-12,12-12c6.7,0,12,5.4,12,12S343.4,94.6,336.7,94.6 M274.2,63.4
			c-10.6,0-19.2,8.6-19.2,19.2s8.6,19.2,19.2,19.2c10.6,0,19.2-8.6,19.2-19.2S284.9,63.4,274.2,63.4 M274.2,94.6
			c-6.7,0-12-5.4-12-12s5.4-12,12-12c6.7,0,12,5.4,12,12S280.7,94.6,274.2,94.6 M313.2,94.6h1.6v7.1h-1.6c-8.3,0-15-6.7-15-15V53.8
			h7.1v9.6h9.3v7.1h-9.2v16.2C305.4,91.1,308.9,94.6,313.2,94.6"/>
	</g>
</g>
</svg>
