<?xml version="1.0" encoding="utf-8"?>
<!-- Generator: Adobe Illustrator 19.0.0, SVG Export Plug-In . SVG Version: 6.00 Build 0)  -->
<svg version="1.1" id="Capa_1" xmlns="http://www.w3.org/2000/svg" xmlns:xlink="http://www.w3.org/1999/xlink" x="0px" y="0px"
	 viewBox="258.5 23 320 188" style="enable-background:new 258.5 23 320 188;" xml:space="preserve">
<style type="text/css">
	.st0{fill:#FFFFFF;}
	.st1{enable-background:new    ;}
</style>
<g id="XMLID_18_">
	<g id="XMLID_19_">
		<path id="XMLID_30_" class="st0" d="M406.2,189.8c4.3,0.9,6.2,2.5,6.2,5.5c0,3.3-2.8,5.5-6.5,5.5c-3.1,0-5.5-1-7.8-3.1l1.3-1.6
			c2.1,1.8,3.8,2.7,6.5,2.7c2.5,0,4.3-1.3,4.3-3.3c0-1.8-0.9-2.8-5-3.7c-4.4-0.9-6.5-2.4-6.5-5.6c0-3.1,2.7-5.3,6.4-5.3
			c2.8,0,4.7,0.7,6.8,2.4l-1.3,1.6c-1.8-1.5-3.5-2.1-5.5-2.1c-2.5,0-4.1,1.3-4.1,3.1C401,187.8,401.9,188.7,406.2,189.8
			 M394.6,192.3c0,5.6-3.3,8.4-8,8.4s-8-3-8-8.3v-11.1h2.2v10.9c0,4.1,2.2,6.5,5.9,6.5c3.5,0,5.8-2.1,5.8-6.4v-11h2.2L394.6,192.3
			L394.6,192.3z M363.3,181.2h2.2v17.4h10.9v2.1h-13.2v-19.5H363.3z M351.6,191.7h-4.9v-8.6h4.9c3.1,0,5.2,1.5,5.2,4.3
			C357,190.1,354.9,191.7,351.6,191.7 M351.9,181.2h-7.2v19.5h2.2v-6.8h4.7c4.1,0,7.7-2.2,7.7-6.4
			C359.3,183.4,356.4,181.2,351.9,181.2"/>
		<path id="XMLID_20_" class="st0" d="M570.2,135.4h-11.7v-2.2h14.3v1.8l-9.6,19.4h-2.7L570.2,135.4z M517.9,152.5
			c0,8.4,6.8,15.2,15.2,15.2s15.2-6.8,15.2-15.2s-6.8-15.2-15.2-15.2S517.9,144,517.9,152.5 M545.1,167.9
			c-8.4,6.6-20.7,5.2-27.3-3.4c-6.6-8.4-5.2-20.7,3.4-27.3c8.4-6.6,20.7-5.2,27.3,3.4c0-2.4,0-4.9,0-7.5h4.1v36.3
			c0,13-8.9,20.2-21.1,20.2c-5.6,0-11.1-1.3-16-4.1l1.9-3.7c4.3,2.5,9.2,3.8,14.2,3.8c9.9,0,16.8-5.6,16.8-16.7c0-1.5,0-3.1,0-4.6
			C547.4,165.8,546.4,166.9,545.1,167.9 M422.7,164.6c-6.8,0-12.1-5.5-12.1-12.1c0-6.8,5.5-12.1,12.1-12.1c6.8,0,12.1,5.5,12.1,12.1
			C435,159.2,429.5,164.6,422.7,164.6 M422.7,133.2c-10.8,0-19.5,8.7-19.5,19.5s8.7,19.5,19.5,19.5s19.5-8.7,19.5-19.5
			C442.2,141.7,433.5,133.2,422.7,133.2 M398.3,148.2v23.2h-7.2v-23.2c0-4.4-3.5-8-8-8s-8,3.5-8,8v23.2h-7.2v-23.2c0-4.4-3.5-8-8-8
			c-4.4,0-8,3.5-8,8v23.2h-7.2v-23.2c0-8.4,6.8-15.2,15.2-15.2c4.7,0,8.9,2.1,11.7,5.3c2.8-3.3,6.9-5.3,11.7-5.3
			C391.5,133.2,398.3,139.8,398.3,148.2 M462.3,164.6h1.6v7.2h-1.6c-8.4,0-15.2-6.8-15.2-15.2v-33.4h7.2v9.8h9.5v7.2h-9.5v16.4
			C454.3,161.2,458,164.6,462.3,164.6 M486.1,164.6c-6.8,0-12.1-5.5-12.1-12.1c0-6.8,5.5-12.1,12.1-12.1c6.8,0,12.1,5.5,12.1,12.1
			C498.4,159.2,492.7,164.6,486.1,164.6 M486.1,133.2c-10.8,0-19.5,8.7-19.5,19.5s8.7,19.5,19.5,19.5s19.5-8.7,19.5-19.5
			C505.6,141.7,496.9,133.2,486.1,133.2"/>
	</g>
</g>
<g>
	<g class="st1">
		<path class="st0" d="M333.2,83.8c-0.2,0.3-0.4,0.5-0.6,0.6c-0.2,0.2-0.5,0.2-0.9,0.2c-0.4,0-0.7-0.1-1.1-0.3
			c-0.4-0.2-0.8-0.5-1.2-0.8c-0.5-0.3-1.1-0.5-1.7-0.8c-0.6-0.3-1.5-0.3-2.5-0.3c-1.3,0-2.4,0.2-3.3,0.7c-0.9,0.5-1.7,1.1-2.4,2
			c-0.6,0.8-1.1,1.9-1.4,3.1c-0.3,1.2-0.5,2.6-0.5,4.1c0,1.6,0.2,3,0.5,4.2c0.3,1.2,0.8,2.3,1.5,3.1c0.6,0.8,1.4,1.5,2.3,1.9
			c0.9,0.4,1.9,0.7,3.1,0.7c1.1,0,2.1-0.1,2.8-0.4c0.7-0.3,1.3-0.6,1.8-0.9s0.9-0.6,1.3-0.9c0.4-0.3,0.8-0.4,1.2-0.4
			c0.6,0,1,0.2,1.3,0.7l2.1,2.6c-0.8,0.9-1.6,1.7-2.6,2.3c-0.9,0.6-1.9,1.1-2.9,1.5s-2,0.6-3.1,0.8c-1.1,0.2-2.1,0.2-3.2,0.2
			c-1.8,0-3.6-0.3-5.2-1c-1.6-0.7-3-1.7-4.2-3c-1.2-1.3-2.2-2.9-2.9-4.8c-0.7-1.9-1.1-4.1-1.1-6.5c0-2.2,0.3-4.2,0.9-6.1
			c0.6-1.9,1.5-3.5,2.8-4.8c1.2-1.4,2.7-2.4,4.5-3.2c1.8-0.8,3.9-1.2,6.2-1.2c2.2,0,4.2,0.4,5.8,1.1c1.7,0.7,3.2,1.7,4.5,3.1
			L333.2,83.8z"/>
		<path class="st0" d="M352.6,77.1c2.2,0,4.2,0.4,6,1.1c1.8,0.7,3.3,1.7,4.6,3c1.3,1.3,2.3,2.9,3,4.8c0.7,1.9,1,4,1,6.3
			c0,2.4-0.3,4.5-1,6.4c-0.7,1.9-1.7,3.5-3,4.8c-1.3,1.3-2.8,2.4-4.6,3.1c-1.8,0.7-3.8,1.1-6,1.1c-2.2,0-4.2-0.4-6-1.1
			c-1.8-0.7-3.4-1.7-4.6-3.1c-1.3-1.3-2.3-2.9-3-4.8c-0.7-1.9-1.1-4-1.1-6.4c0-2.3,0.4-4.4,1.1-6.3c0.7-1.9,1.7-3.5,3-4.8
			c1.3-1.3,2.8-2.3,4.6-3C348.4,77.4,350.4,77.1,352.6,77.1z M352.6,102.1c2.5,0,4.3-0.8,5.5-2.5c1.2-1.7,1.8-4.1,1.8-7.3
			c0-3.2-0.6-5.6-1.8-7.3c-1.2-1.7-3-2.5-5.5-2.5s-4.4,0.8-5.6,2.5s-1.8,4.1-1.8,7.3c0,3.2,0.6,5.6,1.8,7.3S350.1,102.1,352.6,102.1
			z"/>
		<path class="st0" d="M372.8,107.2V77.5h4.4c0.9,0,1.5,0.4,1.8,1.3l0.5,2.2c0.5-0.6,1.1-1.1,1.6-1.6c0.6-0.5,1.2-0.9,1.8-1.2
			c0.6-0.3,1.3-0.6,2.1-0.8c0.7-0.2,1.6-0.3,2.4-0.3c1.9,0,3.4,0.5,4.6,1.5c1.2,1,2.1,2.4,2.7,4c0.5-1,1-1.8,1.7-2.5
			c0.7-0.7,1.5-1.3,2.3-1.7c0.8-0.4,1.7-0.8,2.6-1c0.9-0.2,1.9-0.3,2.8-0.3c1.6,0,3.1,0.3,4.4,0.8s2.3,1.2,3.2,2.2s1.5,2.1,2,3.5
			s0.7,3,0.7,4.8v18.9h-7.1v-19c0-1.9-0.4-3.3-1.2-4.3c-0.8-1-2-1.4-3.6-1.4c-0.7,0-1.4,0.1-2,0.4s-1.2,0.6-1.6,1.1
			c-0.5,0.5-0.8,1.1-1.1,1.8c-0.3,0.7-0.4,1.5-0.4,2.5v18.9h-7.2v-19c0-2-0.4-3.4-1.2-4.3c-0.8-0.9-2-1.4-3.5-1.4
			c-1,0-2,0.3-2.9,0.8s-1.7,1.2-2.5,2.1v21.7C380.1,107.2,372.8,107.2,372.8,107.2z"/>
		<path class="st0" d="M421.5,116.9V77.5h4.4c0.5,0,0.9,0.1,1.2,0.3c0.3,0.2,0.5,0.5,0.6,1l0.6,2.7c1.2-1.4,2.6-2.5,4.1-3.3
			c1.6-0.8,3.4-1.3,5.5-1.3c1.6,0,3.1,0.3,4.4,1c1.3,0.7,2.5,1.7,3.5,2.9c1,1.3,1.7,2.9,2.3,4.7c0.5,1.9,0.8,4,0.8,6.5
			c0,2.2-0.3,4.3-0.9,6.2c-0.6,1.9-1.5,3.5-2.6,4.9c-1.1,1.4-2.4,2.5-4,3.3s-3.3,1.2-5.3,1.2c-1.7,0-3.1-0.3-4.3-0.8
			c-1.2-0.5-2.2-1.2-3.1-2.1v12.1L421.5,116.9L421.5,116.9z M435.4,82.6c-1.5,0-2.8,0.3-3.8,0.9c-1.1,0.6-2,1.5-2.9,2.6v13.3
			c0.8,1,1.7,1.7,2.6,2.1c1,0.4,2,0.6,3.1,0.6s2.1-0.2,2.9-0.6c0.9-0.4,1.6-1,2.2-1.9c0.6-0.8,1.1-1.9,1.4-3.1
			c0.3-1.3,0.5-2.8,0.5-4.5c0-1.7-0.1-3.2-0.4-4.4c-0.3-1.2-0.7-2.2-1.2-2.9c-0.5-0.8-1.2-1.3-1.9-1.6
			C437.2,82.8,436.4,82.6,435.4,82.6z"/>
		<path class="st0" d="M461.9,64.2v43h-7.2v-43C454.7,64.2,461.9,64.2,461.9,64.2z"/>
		<path class="st0" d="M482.2,77.1c1.9,0,3.6,0.3,5.2,0.9s2.9,1.5,4.1,2.6c1.1,1.1,2,2.6,2.7,4.2c0.6,1.7,1,3.6,1,5.7
			c0,0.5,0,1-0.1,1.3c-0.1,0.3-0.1,0.6-0.3,0.8c-0.1,0.2-0.3,0.3-0.5,0.4s-0.5,0.1-0.8,0.1h-18.3c0.2,3,1,5.3,2.5,6.7
			c1.4,1.4,3.3,2.1,5.7,2.1c1.2,0,2.2-0.1,3-0.4c0.8-0.3,1.6-0.6,2.2-0.9s1.2-0.6,1.6-0.9c0.5-0.3,0.9-0.4,1.4-0.4
			c0.3,0,0.5,0.1,0.8,0.2c0.2,0.1,0.4,0.3,0.5,0.5l2.1,2.6c-0.8,0.9-1.7,1.7-2.7,2.3c-1,0.6-2,1.1-3.1,1.5c-1.1,0.4-2.2,0.6-3.3,0.8
			c-1.1,0.2-2.2,0.2-3.2,0.2c-2.1,0-4-0.3-5.8-1c-1.8-0.7-3.3-1.7-4.6-3c-1.3-1.3-2.3-3-3.1-5c-0.8-2-1.1-4.3-1.1-6.9
			c0-2,0.3-3.9,1-5.7c0.7-1.8,1.6-3.3,2.8-4.7c1.2-1.3,2.7-2.4,4.5-3.1C478,77.4,480,77.1,482.2,77.1z M482.4,82.2
			c-2.1,0-3.7,0.6-4.9,1.8c-1.2,1.2-1.9,2.8-2.3,5h13.4c0-0.9-0.1-1.8-0.4-2.6c-0.3-0.8-0.6-1.5-1.2-2.2s-1.2-1.1-2-1.5
			C484.3,82.4,483.4,82.2,482.4,82.2z"/>
		<path class="st0" d="M510.6,107.7c-2.6,0-4.5-0.7-5.9-2.2s-2.1-3.5-2.1-6V82.9h-3c-0.4,0-0.7-0.1-1-0.4c-0.3-0.3-0.4-0.6-0.4-1.1
			v-2.8l4.8-0.8l1.5-8.1c0.1-0.4,0.3-0.7,0.5-0.9c0.3-0.2,0.6-0.3,1.1-0.3h3.7v9.3h7.8v5.1h-7.9V99c0,0.9,0.2,1.6,0.7,2.2
			c0.5,0.5,1.1,0.8,1.9,0.8c0.4,0,0.8-0.1,1.1-0.2c0.3-0.1,0.6-0.2,0.8-0.3c0.2-0.1,0.4-0.2,0.6-0.3c0.2-0.1,0.3-0.2,0.5-0.2
			s0.4,0.1,0.5,0.2c0.1,0.1,0.3,0.3,0.4,0.5l2.1,3.5c-1,0.9-2.2,1.5-3.6,2C513.5,107.4,512.1,107.7,510.6,107.7z"/>
		<path class="st0" d="M535.9,77.1c2.2,0,4.2,0.4,6,1.1c1.8,0.7,3.3,1.7,4.6,3c1.3,1.3,2.3,2.9,3,4.8s1,4,1,6.3c0,2.4-0.3,4.5-1,6.4
			c-0.7,1.9-1.7,3.5-3,4.8s-2.8,2.4-4.6,3.1s-3.8,1.1-6,1.1s-4.2-0.4-6-1.1s-3.4-1.7-4.6-3.1c-1.3-1.3-2.3-2.9-3-4.8
			c-0.7-1.9-1.1-4-1.1-6.4c0-2.3,0.4-4.4,1.1-6.3s1.7-3.5,3-4.8c1.3-1.3,2.8-2.3,4.6-3C531.7,77.4,533.7,77.1,535.9,77.1z
			 M535.9,102.1c2.5,0,4.3-0.8,5.5-2.5s1.8-4.1,1.8-7.3c0-3.2-0.6-5.6-1.8-7.3c-1.2-1.7-3-2.5-5.5-2.5s-4.4,0.8-5.6,2.5
			s-1.8,4.1-1.8,7.3c0,3.2,0.6,5.6,1.8,7.3C531.6,101.3,533.4,102.1,535.9,102.1z"/>
		<path class="st0" d="M558.5,62.9c0.7,1.1,1.2,2.2,1.5,3.2s0.5,2.2,0.5,3.2c0,1.9-0.5,3.8-1.5,5.5c-1,1.8-2.4,3.4-4.2,4.9l-2.2-1.4
			c-0.2-0.1-0.3-0.3-0.4-0.4c-0.1-0.1-0.1-0.3-0.1-0.5c0-0.4,0.1-0.7,0.4-0.9c0.2-0.3,0.5-0.6,0.8-1s0.5-0.8,0.8-1.2
			c0.3-0.4,0.4-1,0.6-1.5s0.2-1.1,0.2-1.7c0-0.7-0.1-1.4-0.3-2.1c-0.2-0.7-0.6-1.5-1.1-2.4c-0.2-0.3-0.3-0.5-0.3-0.8
			c0-0.6,0.4-1.1,1.1-1.3L558.5,62.9z M568.1,62.9c0.7,1.1,1.2,2.2,1.5,3.2c0.3,1.1,0.5,2.2,0.5,3.2c0,1.9-0.5,3.8-1.5,5.5
			c-1,1.8-2.4,3.4-4.2,4.9l-2.2-1.4c-0.2-0.1-0.3-0.3-0.4-0.4c-0.1-0.2-0.1-0.3-0.1-0.5c0-0.4,0.1-0.7,0.4-0.9
			c0.3-0.3,0.5-0.6,0.8-1s0.5-0.8,0.8-1.2c0.3-0.4,0.4-1,0.6-1.5s0.2-1.1,0.2-1.7c0-0.7-0.1-1.4-0.3-2.1s-0.6-1.5-1.1-2.4
			c-0.3-0.2-0.4-0.5-0.4-0.7c0-0.6,0.4-1.1,1.1-1.3L568.1,62.9z"/>
	</g>
	<g class="st1">
		<path class="st0" d="M268.1,43.7c-0.4-0.7-0.7-1.4-0.9-2.1c-0.2-0.7-0.3-1.4-0.3-2.1c0-1.3,0.3-2.5,1-3.7c0.6-1.2,1.5-2.3,2.7-3.2
			l1.2,0.7c0.1,0.1,0.2,0.1,0.2,0.2c0,0.1,0.1,0.2,0.1,0.3c0,0.2-0.1,0.4-0.2,0.5c-0.2,0.3-0.4,0.6-0.7,0.9c-0.2,0.3-0.4,0.6-0.6,1
			c-0.2,0.4-0.3,0.7-0.4,1.1c-0.1,0.4-0.1,0.8-0.1,1.2c0,0.5,0.1,0.9,0.2,1.4c0.1,0.5,0.4,1,0.7,1.5c0.1,0.2,0.1,0.3,0.1,0.5
			c0,0.3-0.2,0.6-0.6,0.7L268.1,43.7z M274.5,43.7c-0.4-0.7-0.7-1.4-0.9-2.1c-0.2-0.7-0.3-1.4-0.3-2.1c0-1.3,0.3-2.5,1-3.7
			c0.6-1.2,1.5-2.3,2.7-3.2l1.2,0.7c0.1,0.1,0.2,0.1,0.2,0.2c0,0.1,0.1,0.2,0.1,0.3c0,0.2-0.1,0.4-0.2,0.5c-0.2,0.3-0.4,0.6-0.7,0.9
			c-0.2,0.3-0.4,0.6-0.6,1c-0.2,0.4-0.3,0.7-0.4,1.1c-0.1,0.4-0.1,0.8-0.1,1.2c0,0.5,0.1,0.9,0.2,1.4c0.1,0.5,0.4,1,0.7,1.5
			c0.1,0.2,0.1,0.3,0.1,0.5c0,0.3-0.2,0.6-0.6,0.7L274.5,43.7z"/>
		<path class="st0" d="M303.7,34.7v3.4H289v10.2h11.9v3.2H289v10.4h14.7v3.4h-18.8V34.7H303.7z"/>
		<path class="st0" d="M313.3,33.8v31.5h-3.8V33.9L313.3,33.8L313.3,33.8z"/>
		<path class="st0" d="M328.3,65.3V43.7h2.3c0.5,0,0.9,0.3,1,0.8l0.3,2.2c0.8-1,1.7-1.8,2.7-2.4c1-0.6,2.1-0.9,3.4-0.9
			c1.5,0,2.7,0.4,3.6,1.2c0.9,0.8,1.6,1.9,2,3.3c0.3-0.8,0.7-1.5,1.2-2c0.5-0.6,1-1,1.7-1.4c0.6-0.4,1.3-0.6,2-0.8
			c0.7-0.2,1.4-0.3,2.1-0.3c1.1,0,2.2,0.2,3,0.5c0.9,0.4,1.6,0.9,2.3,1.6c0.7,0.7,1.1,1.6,1.4,2.6s0.5,2.2,0.5,3.5v13.7H354V51.5
			c0-1.7-0.4-3-1.1-3.9s-1.8-1.3-3.2-1.3c-0.6,0-1.2,0.1-1.8,0.3s-1.1,0.5-1.5,1c-0.4,0.4-0.8,1-1,1.6c-0.2,0.6-0.4,1.4-0.4,2.3
			v13.8h-3.8V51.5c0-1.7-0.3-3-1-3.9c-0.7-0.9-1.7-1.3-3.1-1.3c-0.9,0-1.8,0.3-2.6,0.8s-1.5,1.2-2.2,2.1v16.1H328.3z"/>
		<path class="st0" d="M379.2,65.3h-1.7c-0.4,0-0.7-0.1-0.9-0.2c-0.2-0.1-0.4-0.4-0.4-0.7l-0.4-2c-0.6,0.5-1.1,1-1.7,1.4
			c-0.5,0.4-1.1,0.7-1.7,1c-0.6,0.3-1.2,0.5-1.9,0.6c-0.7,0.1-1.4,0.2-2.3,0.2c-0.8,0-1.6-0.1-2.4-0.4c-0.8-0.3-1.4-0.6-1.9-1.1
			s-1-1.1-1.3-1.8c-0.3-0.7-0.5-1.6-0.5-2.6c0-0.9,0.2-1.7,0.7-2.5c0.5-0.8,1.2-1.5,2.3-2.1c1-0.6,2.4-1.1,4.1-1.5
			c1.7-0.4,3.8-0.6,6.2-0.6v-1.7c0-1.7-0.4-3-1.1-3.8c-0.7-0.9-1.8-1.3-3.2-1.3c-0.9,0-1.7,0.1-2.3,0.4c-0.6,0.2-1.2,0.5-1.6,0.8
			c-0.5,0.3-0.9,0.6-1.2,0.8c-0.3,0.2-0.7,0.4-1,0.4c-0.3,0-0.5-0.1-0.7-0.2c-0.2-0.1-0.3-0.3-0.5-0.5l-0.7-1.2
			c1.2-1.2,2.5-2,3.9-2.6s2.9-0.9,4.6-0.9c1.2,0,2.3,0.2,3.2,0.6c0.9,0.4,1.7,1,2.4,1.7c0.6,0.7,1.1,1.6,1.5,2.6
			c0.3,1,0.5,2.1,0.5,3.3L379.2,65.3L379.2,65.3z M369.3,62.9c0.7,0,1.3-0.1,1.8-0.2c0.5-0.1,1.1-0.3,1.6-0.6s1-0.6,1.4-0.9
			c0.4-0.4,0.9-0.8,1.3-1.2v-4.5c-1.8,0-3.2,0.1-4.5,0.3c-1.2,0.2-2.2,0.5-3,0.9c-0.8,0.4-1.3,0.8-1.7,1.3c-0.3,0.5-0.5,1-0.5,1.6
			s0.1,1.1,0.3,1.5c0.2,0.4,0.4,0.8,0.7,1c0.3,0.3,0.7,0.5,1.1,0.6C368.2,62.8,368.8,62.9,369.3,62.9z M377.6,34.3l-5,5.5
			c-0.2,0.2-0.4,0.4-0.6,0.5s-0.4,0.1-0.7,0.1H369l3.2-5.2c0.2-0.3,0.4-0.6,0.7-0.7c0.3-0.1,0.6-0.2,1-0.2H377.6z"/>
		<path class="st0" d="M397.3,47.2c-0.2,0.3-0.4,0.5-0.8,0.5c-0.2,0-0.5-0.1-0.7-0.2c-0.3-0.2-0.6-0.3-1-0.5
			c-0.4-0.2-0.9-0.4-1.4-0.5c-0.5-0.2-1.2-0.2-1.9-0.2c-0.6,0-1.2,0.1-1.7,0.2c-0.5,0.2-1,0.4-1.3,0.7c-0.3,0.3-0.6,0.6-0.8,1
			c-0.2,0.4-0.3,0.8-0.3,1.2c0,0.6,0.2,1,0.5,1.4c0.3,0.4,0.7,0.7,1.3,1c0.5,0.3,1.1,0.5,1.8,0.7c0.7,0.2,1.4,0.4,2.1,0.7
			c0.7,0.2,1.4,0.5,2.1,0.8c0.7,0.3,1.3,0.6,1.8,1.1c0.5,0.4,0.9,0.9,1.3,1.6c0.3,0.6,0.5,1.4,0.5,2.2c0,1-0.2,1.9-0.5,2.8
			c-0.4,0.8-0.9,1.6-1.6,2.2c-0.7,0.6-1.6,1.1-2.6,1.5c-1,0.4-2.2,0.5-3.5,0.5c-1.5,0-2.9-0.2-4.1-0.7s-2.3-1.1-3.1-1.9l0.9-1.5
			c0.1-0.2,0.2-0.3,0.4-0.4c0.2-0.1,0.4-0.1,0.6-0.1c0.3,0,0.5,0.1,0.8,0.3c0.3,0.2,0.6,0.4,1,0.7c0.4,0.2,0.9,0.5,1.5,0.7
			c0.6,0.2,1.3,0.3,2.2,0.3c0.7,0,1.4-0.1,1.9-0.3c0.6-0.2,1-0.5,1.4-0.8c0.4-0.3,0.6-0.7,0.8-1.1c0.2-0.4,0.3-0.9,0.3-1.4
			c0-0.6-0.2-1.1-0.5-1.5c-0.3-0.4-0.7-0.7-1.3-1c-0.6-0.3-1.1-0.5-1.8-0.7c-0.7-0.2-1.4-0.4-2.1-0.7c-0.7-0.2-1.4-0.5-2.1-0.8
			c-0.7-0.3-1.3-0.7-1.8-1.1c-0.5-0.4-0.9-1-1.3-1.6c-0.4-0.6-0.6-1.8-0.6-2.7c0-0.8,0.2-1.6,0.5-2.4c0.3-0.8,0.8-1.4,1.5-2
			c0.7-0.6,1.5-1,2.4-1.4c1-0.3,2-0.5,3.3-0.5c1.4,0,2.7,0.2,3.8,0.7s2.1,1.1,2.9,1.8L397.3,47.2z"/>
	</g>
</g>
</svg>
