<?xml version="1.0" encoding="utf-8"?>
<!-- Generator: Adobe Illustrator 19.0.0, SVG Export Plug-In . SVG Version: 6.00 Build 0)  -->
<svg version="1.1" id="Capa_1" xmlns="http://www.w3.org/2000/svg" xmlns:xlink="http://www.w3.org/1999/xlink" x="0px" y="0px"
	 viewBox="100 3 300 114" style="enable-background:new 100 3 300 114;" xml:space="preserve">
<style type="text/css">
	.st0{fill:#FFFFFF;}
</style>
<g id="XMLID_1_">
	<g id="XMLID_37_">
		<path id="XMLID_38_" class="st0" d="M124.8,29.2c-1.2-1.9-1.8-3.9-1.8-5.8c0-1.7,0.4-3.4,1.3-5c0.9-1.6,2.1-3,3.8-4.3l2,1.2
			c0.2,0.1,0.3,0.2,0.4,0.4c0.1,0.1,0.1,0.3,0.1,0.4c0,0.2,0,0.3-0.1,0.4c-0.1,0.1-0.1,0.3-0.2,0.4c-0.2,0.3-0.5,0.6-0.7,0.9
			c-0.3,0.3-0.5,0.7-0.7,1.1c-0.2,0.4-0.4,0.9-0.5,1.3c-0.1,0.5-0.2,1-0.2,1.6s0.1,1.2,0.3,1.9c0.2,0.7,0.5,1.4,1,2.1
			c0.2,0.2,0.2,0.5,0.2,0.7c0,0.6-0.3,0.9-0.9,1.2L124.8,29.2z M133.4,29.2c-1.2-1.9-1.8-3.9-1.8-5.8c0-1.7,0.4-3.4,1.3-5
			c0.9-1.6,2.1-3,3.8-4.3l2,1.2c0.2,0.1,0.3,0.2,0.4,0.4c0.1,0.1,0.1,0.3,0.1,0.4c0,0.2,0,0.3-0.1,0.4c-0.1,0.1-0.1,0.3-0.2,0.4
			c-0.2,0.3-0.5,0.6-0.7,0.9c-0.3,0.3-0.5,0.7-0.7,1.1c-0.2,0.4-0.4,0.9-0.5,1.3c-0.1,0.5-0.2,1-0.2,1.6s0.1,1.2,0.3,1.9
			c0.2,0.7,0.5,1.4,1,2.1c0.2,0.2,0.2,0.5,0.2,0.7c0,0.6-0.3,0.9-0.9,1.2L133.4,29.2z"/>
		<path id="XMLID_41_" class="st0" d="M164.3,40.7c0.3,0.6,0.5,1.2,0.7,1.8c0.2-0.6,0.5-1.2,0.8-1.8s0.5-1.2,0.8-1.7l11.1-20.8
			c0.1-0.3,0.3-0.5,0.4-0.6s0.3-0.3,0.5-0.3c0.2-0.1,0.4-0.1,0.6-0.1c0.2,0,0.5,0,0.8,0h5.3v37.6h-6.2V30.3c0-0.5,0-0.9,0-1.5
			c0-0.5,0.1-1.1,0.1-1.6L168,48.5c-0.3,0.5-0.6,0.9-1,1.1c-0.4,0.3-0.9,0.4-1.5,0.4h-1c-0.6,0-1-0.1-1.5-0.4
			c-0.4-0.3-0.8-0.6-1-1.1l-11.4-21.4c0.1,0.6,0.1,1.1,0.1,1.7s0,1.1,0,1.5v24.3h-6.2V17h5.3c0.3,0,0.6,0,0.8,0s0.4,0.1,0.6,0.1
			c0.2,0.1,0.4,0.2,0.5,0.3c0.2,0.2,0.3,0.4,0.4,0.6l11.2,20.9C163.7,39.5,164,40.1,164.3,40.7z"/>
		<path id="XMLID_43_" class="st0" d="M225.9,54.6h-5.4c-0.6,0-1.1-0.2-1.5-0.5s-0.7-0.7-0.8-1.1l-2.8-7.7h-15.6L197,53
			c-0.1,0.4-0.4,0.8-0.8,1.1s-0.9,0.5-1.5,0.5h-5.4L204,17h7.1L225.9,54.6z M201.6,40.4h12L209,27.9c-0.2-0.6-0.4-1.2-0.7-2
			s-0.5-1.6-0.7-2.5c-0.2,0.9-0.5,1.7-0.7,2.5s-0.5,1.4-0.7,2L201.6,40.4z M217.5,8l-7.7,5.6c-0.2,0.1-0.4,0.3-0.5,0.3
			c-0.2,0.1-0.3,0.2-0.5,0.2c-0.2,0.1-0.3,0.1-0.5,0.1s-0.4,0-0.6,0h-5l5.1-5.2c0.2-0.2,0.4-0.4,0.6-0.5c0.2-0.1,0.4-0.2,0.6-0.3
			c0.2-0.1,0.4-0.1,0.6-0.2c0.2,0,0.5,0,0.9,0C210.5,8,217.5,8,217.5,8z"/>
		<path id="XMLID_47_" class="st0" d="M249.9,23.8c-0.2,0.4-0.4,0.6-0.7,0.8s-0.5,0.2-0.9,0.2c-0.3,0-0.7-0.1-1.2-0.4
			s-0.9-0.6-1.5-0.9c-0.6-0.3-1.3-0.6-2.1-0.9c-0.8-0.3-1.7-0.4-2.8-0.4c-1,0-1.8,0.1-2.5,0.4c-0.7,0.2-1.3,0.6-1.8,1
			s-0.9,0.9-1.1,1.5c-0.2,0.6-0.4,1.2-0.4,1.9c0,0.9,0.2,1.6,0.7,2.2c0.5,0.6,1.1,1.1,2,1.5s1.7,0.8,2.8,1.1c1,0.3,2.1,0.7,3.2,1.1
			c1.1,0.4,2.1,0.8,3.2,1.3c1,0.5,2,1.1,2.8,1.9c0.8,0.8,1.5,1.7,2,2.8s0.7,2.4,0.7,4c0,1.7-0.3,3.3-0.9,4.8
			c-0.6,1.5-1.4,2.8-2.5,3.9s-2.5,2-4.1,2.6s-3.5,0.9-5.5,0.9c-1.2,0-2.4-0.1-3.5-0.4c-1.2-0.2-2.3-0.6-3.3-1c-1.1-0.4-2.1-1-3-1.6
			s-1.8-1.3-2.5-2l2-3.4c0.2-0.2,0.4-0.4,0.7-0.6s0.6-0.2,0.9-0.2c0.4,0,0.9,0.2,1.4,0.5c0.5,0.4,1.1,0.7,1.8,1.2
			c0.7,0.4,1.5,0.8,2.4,1.2c0.9,0.4,2,0.5,3.3,0.5c2,0,3.5-0.5,4.6-1.4s1.6-2.3,1.6-4.1c0-1-0.2-1.8-0.7-2.4c-0.5-0.6-1.1-1.1-2-1.6
			c-0.8-0.4-1.7-0.8-2.8-1.1c-1-0.3-2.1-0.6-3.2-1c-1.1-0.3-2.1-0.8-3.2-1.2c-1-0.5-2-1.1-2.8-1.9c-0.8-0.8-1.5-1.8-2-2.9
			c-0.5-1.2-0.7-2.6-0.7-4.3c0-1.4,0.3-2.7,0.8-4s1.3-2.4,2.4-3.5c1-1,2.3-1.8,3.9-2.4c1.5-0.6,3.3-0.9,5.2-0.9c2.2,0,4.3,0.3,6.1,1
			c1.9,0.7,3.5,1.7,4.8,2.9L249.9,23.8z"/>
		<path id="XMLID_49_" class="st0" d="M274.9,41.3v13.2h-7V17h12.2c2.5,0,4.7,0.3,6.5,0.9c1.8,0.6,3.3,1.4,4.5,2.5
			c1.2,1.1,2.1,2.3,2.6,3.8s0.9,3.1,0.9,4.8c0,1.8-0.3,3.5-0.9,5c-0.6,1.5-1.5,2.8-2.7,3.9c-1.2,1.1-2.7,1.9-4.5,2.5
			s-3.9,0.9-6.4,0.9C280.1,41.3,274.9,41.3,274.9,41.3z M274.9,35.9h5.2c1.3,0,2.4-0.2,3.4-0.5s1.7-0.8,2.4-1.4
			c0.7-0.6,1.1-1.3,1.4-2.2s0.5-1.8,0.5-2.9c0-1-0.2-1.9-0.5-2.7c-0.3-0.8-0.8-1.5-1.4-2.1c-0.6-0.6-1.4-1-2.4-1.3s-2.1-0.5-3.4-0.5
			h-5.2V35.9z"/>
		<path id="XMLID_52_" class="st0" d="M307.3,39.9v14.7h-7V17h11.5c2.6,0,4.8,0.3,6.6,0.8c1.8,0.5,3.3,1.3,4.5,2.2
			c1.2,1,2,2.1,2.6,3.4c0.5,1.3,0.8,2.8,0.8,4.4c0,1.3-0.2,2.5-0.6,3.6c-0.4,1.1-0.9,2.1-1.6,3.1c-0.7,0.9-1.6,1.7-2.6,2.4
			s-2.2,1.2-3.5,1.7c0.9,0.5,1.6,1.2,2.3,2.2l9.4,13.9h-6.3c-0.6,0-1.1-0.1-1.5-0.4s-0.8-0.6-1.1-1l-7.9-12c-0.3-0.5-0.6-0.8-1-1
			S311,40,310.3,40h-3V39.9z M307.3,34.9h4.4c1.3,0,2.5-0.2,3.4-0.5c1-0.3,1.8-0.8,2.4-1.4c0.6-0.6,1.1-1.3,1.4-2.1
			c0.3-0.8,0.5-1.7,0.5-2.6c0-1.9-0.6-3.4-1.9-4.4c-1.3-1-3.2-1.5-5.8-1.5h-4.5v12.5H307.3z"/>
		<path id="XMLID_55_" class="st0" d="M368.9,35.8c0,2.8-0.5,5.3-1.4,7.6s-2.2,4.4-3.9,6.1s-3.7,3.1-6,4c-2.3,1-4.9,1.4-7.8,1.4
			c-2.9,0-5.4-0.5-7.8-1.4s-4.4-2.3-6-4s-3-3.7-3.9-6.1c-0.9-2.3-1.4-4.9-1.4-7.6s0.5-5.3,1.4-7.6s2.2-4.4,3.9-6.1
			c1.7-1.7,3.7-3.1,6-4c2.3-1,4.9-1.4,7.8-1.4c2.9,0,5.4,0.5,7.8,1.5c2.3,1,4.3,2.3,6,4s3,3.7,3.9,6.1
			C368.5,30.5,368.9,33,368.9,35.8z M361.7,35.8c0-2.1-0.3-3.9-0.8-5.5s-1.3-3-2.4-4.2c-1-1.1-2.3-2-3.7-2.6
			c-1.4-0.6-3.1-0.9-4.9-0.9s-3.5,0.3-5,0.9s-2.7,1.5-3.8,2.6c-1,1.1-1.8,2.5-2.4,4.2c-0.6,1.6-0.8,3.5-0.8,5.5
			c0,2.1,0.3,3.9,0.8,5.5c0.5,1.6,1.3,3,2.4,4.2c1,1.1,2.3,2,3.8,2.6s3.1,0.9,5,0.9c1.8,0,3.5-0.3,4.9-0.9c1.4-0.6,2.7-1.5,3.7-2.6
			s1.8-2.5,2.4-4.2S361.7,37.8,361.7,35.8z"/>
		<path id="XMLID_58_" class="st0" d="M377.6,14.8c0.6,1,1.1,1.9,1.3,2.9s0.4,1.9,0.4,2.9c0,1.7-0.4,3.4-1.3,5s-2.1,3-3.8,4.4
			l-2-1.2c-0.2-0.1-0.3-0.2-0.4-0.4c-0.1-0.1-0.1-0.3-0.1-0.4c0-0.3,0.1-0.6,0.3-0.8c0.2-0.3,0.5-0.6,0.7-0.9
			c0.3-0.3,0.5-0.7,0.7-1.1s0.4-0.9,0.5-1.4s0.2-1,0.2-1.6s-0.1-1.2-0.3-1.9c-0.2-0.7-0.5-1.4-1-2.1c-0.2-0.2-0.2-0.5-0.2-0.7
			c0-0.6,0.3-0.9,1-1.2L377.6,14.8z M386.2,14.8c0.6,1,1.1,1.9,1.3,2.9s0.4,1.9,0.4,2.9c0,1.7-0.4,3.4-1.3,5s-2.1,3-3.8,4.4l-2-1.2
			c-0.2-0.1-0.3-0.2-0.4-0.4c-0.1-0.1-0.1-0.3-0.1-0.4c0-0.3,0.1-0.6,0.3-0.8c0.2-0.3,0.5-0.6,0.7-0.9c0.2-0.3,0.5-0.7,0.7-1.1
			s0.4-0.9,0.5-1.4s0.2-1,0.2-1.6s-0.1-1.2-0.3-1.9c-0.2-0.7-0.5-1.4-1-2.1c-0.2-0.2-0.2-0.5-0.2-0.7c0-0.6,0.3-0.9,1-1.2
			L386.2,14.8z"/>
	</g>
</g>
<g id="XMLID_18_">
	<g id="XMLID_19_">
		<path id="XMLID_30_" class="st0" d="M270.5,101.6c2.9,0.6,4.2,1.7,4.2,3.7c0,2.2-1.9,3.7-4.4,3.7c-2.1,0-3.7-0.7-5.3-2.1l0.9-1.1
			c1.4,1.2,2.6,1.8,4.4,1.8c1.7,0,2.9-0.9,2.9-2.2c0-1.2-0.6-1.9-3.4-2.5c-3-0.6-4.4-1.6-4.4-3.8c0-2.1,1.8-3.6,4.3-3.6
			c1.9,0,3.2,0.5,4.6,1.6l-0.9,1.1c-1.2-1-2.4-1.4-3.7-1.4c-1.7,0-2.8,0.9-2.8,2.1C267,100.3,267.6,101,270.5,101.6 M262.7,103.3
			c0,3.8-2.2,5.7-5.4,5.7c-3.2,0-5.4-2-5.4-5.6v-7.5h1.5v7.4c0,2.8,1.5,4.4,4,4.4c2.4,0,3.9-1.4,3.9-4.3v-7.5h1.5L262.7,103.3
			L262.7,103.3z M241.5,95.8h1.5v11.8h7.4v1.4h-8.9V95.8z M233.6,103h-3.3v-5.8h3.3c2.1,0,3.5,1,3.5,2.9
			C237.2,101.8,235.8,103,233.6,103 M233.8,95.8h-4.9V109h1.5v-4.6h3.2c2.8,0,5.2-1.5,5.2-4.3C238.8,97.4,236.8,95.8,233.8,95.8"/>
		<path id="XMLID_20_" class="st0" d="M381.5,64.8h-7.9v-1.5h9.7v1.2l-6.5,13.1H375L381.5,64.8z M346.1,76.4
			c0,5.7,4.6,10.3,10.3,10.3c5.7,0,10.3-4.6,10.3-10.3c0-5.7-4.6-10.3-10.3-10.3S346.1,70.7,346.1,76.4 M364.5,86.8
			c-5.7,4.5-14,3.5-18.5-2.3c-4.5-5.7-3.5-14,2.3-18.5c5.7-4.5,14-3.5,18.5,2.3c0-1.6,0-3.3,0-5.1h2.8v24.6c0,8.8-6,13.7-14.3,13.7
			c-3.8,0-7.5-0.9-10.8-2.8l1.3-2.5c2.9,1.7,6.2,2.6,9.6,2.6c6.7,0,11.4-3.8,11.4-11.3c0-1,0-2.1,0-3.1
			C366.1,85.4,365.4,86.2,364.5,86.8 M281.7,84.7c-4.6,0-8.2-3.7-8.2-8.2c0-4.6,3.7-8.2,8.2-8.2c4.6,0,8.2,3.7,8.2,8.2
			C290,81,286.3,84.7,281.7,84.7 M281.7,63.3c-7.3,0-13.2,5.9-13.2,13.2c0,7.3,5.9,13.2,13.2,13.2c7.3,0,13.2-5.9,13.2-13.2
			C294.9,69.2,289,63.3,281.7,63.3 M265.2,73.6v15.7h-4.9V73.6c0-3-2.4-5.4-5.4-5.4c-3,0-5.4,2.4-5.4,5.4v15.7h-4.9V73.6
			c0-3-2.4-5.4-5.4-5.4s-5.4,2.4-5.4,5.4v15.7h-4.9V73.6c0-5.7,4.6-10.3,10.3-10.3c3.2,0,6,1.4,7.9,3.6c1.9-2.2,4.7-3.6,7.9-3.6
			C260.6,63.3,265.2,67.9,265.2,73.6 M308.5,84.7h1.1v4.9h-1.1c-5.7,0-10.3-4.6-10.3-10.3V56.7h4.9v6.6h6.4v4.9h-6.4v11.1
			C303.1,82.3,305.6,84.7,308.5,84.7 M324.6,84.7c-4.6,0-8.2-3.7-8.2-8.2c0-4.6,3.7-8.2,8.2-8.2c4.6,0,8.2,3.7,8.2,8.2
			C332.9,81,329.1,84.7,324.6,84.7 M324.6,63.3c-7.3,0-13.2,5.9-13.2,13.2c0,7.3,5.9,13.2,13.2,13.2s13.2-5.9,13.2-13.2
			C337.8,69.2,331.9,63.3,324.6,63.3"/>
	</g>
</g>
</svg>
