<?xml version="1.0" encoding="utf-8"?>
<!-- Generator: Adobe Illustrator 19.0.0, SVG Export Plug-In . SVG Version: 6.00 Build 0)  -->
<svg version="1.1" id="Capa_1" xmlns="http://www.w3.org/2000/svg" xmlns:xlink="http://www.w3.org/1999/xlink" x="0px" y="0px"
	 viewBox="100 3 300 114" style="enable-background:new 100 3 300 114;" xml:space="preserve">
<style type="text/css">
	.st0{fill:#FFFFFF;}
</style>
<g id="XMLID_4_">
	<g id="XMLID_3_">
		<g id="XMLID_20_">
			<path id="XMLID_21_" class="st0" d="M118.4,28.5c-0.9-1.4-1.3-2.8-1.3-4.2c0-1.3,0.3-2.5,1-3.6c0.6-1.1,1.6-2.2,2.8-3.2l1.5,0.9
				c0.1,0.1,0.2,0.2,0.3,0.3c0.1,0.1,0.1,0.2,0.1,0.3s0,0.2-0.1,0.3c0,0.1-0.1,0.2-0.2,0.3c-0.2,0.2-0.3,0.4-0.5,0.7
				c-0.2,0.3-0.3,0.5-0.5,0.8c-0.2,0.3-0.3,0.6-0.4,1s-0.2,0.7-0.2,1.1c0,0.4,0.1,0.9,0.2,1.4s0.4,1,0.7,1.5
				c0.1,0.2,0.2,0.4,0.2,0.5c0,0.4-0.2,0.7-0.7,0.8L118.4,28.5z M124.6,28.5c-0.9-1.4-1.3-2.8-1.3-4.2c0-1.3,0.3-2.5,1-3.6
				c0.6-1.1,1.6-2.2,2.8-3.2l1.5,0.9c0.1,0.1,0.2,0.2,0.3,0.3c0,0.1,0.1,0.2,0.1,0.3s0,0.2-0.1,0.3c-0.1,0.1-0.1,0.2-0.2,0.3
				c-0.2,0.2-0.3,0.4-0.5,0.7s-0.3,0.5-0.5,0.8c-0.2,0.3-0.3,0.6-0.4,1c-0.1,0.4-0.2,0.7-0.2,1.1c0,0.4,0.1,0.9,0.2,1.4
				c0.1,0.5,0.4,1,0.7,1.5c0.1,0.2,0.2,0.4,0.2,0.5c0,0.4-0.2,0.7-0.7,0.8L124.6,28.5z"/>
			<path id="XMLID_24_" class="st0" d="M153.1,46.9h-3.9c-0.4,0-0.8-0.1-1.1-0.3c-0.3-0.2-0.5-0.5-0.6-0.8l-2-5.6h-11.4l-2,5.6
				c-0.1,0.3-0.3,0.6-0.6,0.8c-0.3,0.2-0.7,0.4-1.1,0.4h-3.9l10.7-27.3h5.2L153.1,46.9z M135.4,36.6h8.7l-3.3-9.1
				c-0.2-0.4-0.3-0.9-0.5-1.4s-0.4-1.1-0.5-1.8c-0.2,0.6-0.3,1.2-0.5,1.8s-0.3,1-0.5,1.5L135.4,36.6z"/>
			<path id="XMLID_27_" class="st0" d="M150,19.6h4.1c0.4,0,0.8,0.1,1.1,0.3s0.5,0.5,0.6,0.8l6.4,16.6c0.2,0.5,0.4,1.1,0.6,1.8
				c0.2,0.6,0.4,1.3,0.6,2c0.3-1.4,0.6-2.7,1.1-3.8l6.4-16.6c0.1-0.3,0.3-0.6,0.6-0.8c0.3-0.2,0.6-0.4,1.1-0.4h4.1l-11,27.3h-4.6
				L150,19.6z"/>
			<path id="XMLID_29_" class="st0" d="M196.7,19.6v4h-12.1v7.6h9.5v3.9h-9.5v7.7h12.1v4.1h-17.2V19.6H196.7z"/>
			<path id="XMLID_31_" class="st0" d="M204.3,19.7c0.2,0,0.3,0.1,0.4,0.1c0.1,0,0.2,0.1,0.3,0.2c0.1,0.1,0.2,0.2,0.4,0.4l14.3,18.2
				c-0.1-0.4-0.1-0.9-0.1-1.3s0-0.8,0-1.2V19.6h4.5v27.3h-2.6c-0.4,0-0.7-0.1-1-0.2s-0.5-0.4-0.8-0.7l-14.3-18.2
				c0,0.4,0.1,0.8,0.1,1.2s0,0.8,0,1.1v16.7H201V19.6h2.7C204,19.6,204.2,19.7,204.3,19.7z"/>
			<path id="XMLID_33_" class="st0" d="M248.8,19.6v4.2h-8.2v23.1h-5.1V23.8h-8.2v-4.2H248.8z"/>
			<path id="XMLID_35_" class="st0" d="M263,42.8c1,0,1.9-0.2,2.6-0.5c0.8-0.3,1.4-0.8,2-1.4c0.5-0.6,0.9-1.3,1.2-2.1
				c0.3-0.8,0.4-1.8,0.4-2.8V19.6h5.1V36c0,1.6-0.3,3.1-0.8,4.5s-1.3,2.6-2.3,3.6s-2.2,1.8-3.6,2.3c-1.4,0.5-3,0.8-4.7,0.8
				s-3.3-0.3-4.7-0.8c-1.4-0.5-2.6-1.3-3.6-2.3s-1.7-2.2-2.2-3.6s-0.8-2.9-0.8-4.5V19.6h5.1V36c0,1,0.1,2,0.4,2.8
				c0.3,0.8,0.7,1.6,1.2,2.2s1.2,1.1,2,1.4C261.2,42.7,262,42.8,263,42.8z"/>
			<path id="XMLID_37_" class="st0" d="M284.7,36.3V47h-5.1V19.6h8.3c1.9,0,3.5,0.2,4.8,0.6c1.3,0.4,2.4,0.9,3.3,1.6
				c0.8,0.7,1.5,1.5,1.9,2.5s0.6,2,0.6,3.2c0,0.9-0.1,1.8-0.4,2.6c-0.3,0.8-0.7,1.6-1.2,2.2s-1.1,1.3-1.9,1.8
				c-0.7,0.5-1.6,0.9-2.6,1.2c0.6,0.4,1.2,0.9,1.7,1.6l6.8,10.1h-4.6c-0.4,0-0.8-0.1-1.1-0.3c-0.3-0.2-0.6-0.4-0.8-0.8l-5.7-8.7
				c-0.2-0.3-0.5-0.6-0.7-0.7c-0.3-0.1-0.6-0.2-1.1-0.2C286.9,36.3,284.7,36.3,284.7,36.3z M284.7,32.6h3.2c1,0,1.8-0.1,2.5-0.4
				s1.3-0.6,1.8-1s0.8-0.9,1-1.5c0.2-0.6,0.3-1.2,0.3-1.9c0-1.4-0.5-2.4-1.4-3.2c-0.9-0.7-2.3-1.1-4.2-1.1h-3.2V32.6L284.7,32.6z"/>
			<path id="XMLID_40_" class="st0" d="M321.4,19.6v4h-12.1v7.6h9.5v3.9h-9.5v7.7h12.1v4.1h-17.2V19.6H321.4z"/>
			<path id="XMLID_42_" class="st0" d="M331,36.3V47h-5V19.6h8.3c1.9,0,3.5,0.2,4.8,0.6c1.3,0.4,2.4,0.9,3.3,1.6
				c0.8,0.7,1.5,1.5,1.9,2.5c0.4,1,0.6,2,0.6,3.2c0,0.9-0.1,1.8-0.4,2.6s-0.7,1.6-1.2,2.2s-1.1,1.3-1.9,1.8
				c-0.7,0.5-1.6,0.9-2.6,1.2c0.6,0.4,1.2,0.9,1.7,1.6l6.8,10.1h-4.6c-0.4,0-0.8-0.1-1.1-0.3c-0.3-0.2-0.6-0.4-0.8-0.8l-5.7-8.7
				c-0.2-0.3-0.5-0.6-0.7-0.7c-0.3-0.1-0.6-0.2-1.1-0.2C333.3,36.3,331,36.3,331,36.3z M331,32.6h3.2c1,0,1.8-0.1,2.5-0.4
				c0.7-0.3,1.3-0.6,1.8-1s0.8-0.9,1-1.5s0.3-1.2,0.3-1.9c0-1.4-0.5-2.4-1.4-3.2c-0.9-0.7-2.3-1.1-4.2-1.1H331V32.6z"/>
			<path id="XMLID_45_" class="st0" d="M375.7,33.3c0,2-0.3,3.9-1,5.6c-0.7,1.7-1.6,3.2-2.8,4.4s-2.7,2.2-4.4,2.9
				c-1.7,0.7-3.6,1-5.6,1c-2.1,0-3.9-0.3-5.6-1c-1.7-0.7-3.2-1.7-4.4-2.9c-1.2-1.2-2.2-2.7-2.8-4.4c-0.7-1.7-1-3.6-1-5.6
				s0.3-3.8,1-5.6c0.7-1.7,1.6-3.2,2.8-4.4s2.7-2.2,4.4-2.9c1.7-0.7,3.6-1,5.6-1c2.1,0,3.9,0.4,5.6,1.1c1.7,0.7,3.1,1.7,4.4,2.9
				s2.1,2.7,2.8,4.4C375.4,29.4,375.7,31.3,375.7,33.3z M370.5,33.3c0-1.5-0.2-2.8-0.6-4s-1-2.2-1.7-3s-1.6-1.5-2.7-1.9
				s-2.3-0.7-3.6-0.7c-1.3,0-2.5,0.2-3.6,0.7s-2,1.1-2.7,1.9c-0.7,0.8-1.3,1.8-1.7,3s-0.6,2.5-0.6,4s0.2,2.8,0.6,4
				c0.4,1.2,1,2.2,1.7,3c0.7,0.8,1.7,1.5,2.7,1.9c1.1,0.4,2.3,0.7,3.6,0.7c1.3,0,2.5-0.2,3.6-0.7c1.1-0.4,2-1.1,2.7-1.9
				s1.3-1.8,1.7-3C370.3,36.1,370.5,34.8,370.5,33.3z"/>
			<path id="XMLID_48_" class="st0" d="M382,18c0.4,0.7,0.8,1.4,1,2.1c0.2,0.7,0.3,1.4,0.3,2.1c0,1.3-0.3,2.5-1,3.6
				s-1.5,2.2-2.7,3.2l-1.5-0.9c-0.1-0.1-0.2-0.2-0.3-0.3c-0.1-0.1-0.1-0.2-0.1-0.3c0-0.2,0.1-0.4,0.2-0.6c0.2-0.2,0.3-0.4,0.5-0.6
				c0.2-0.2,0.3-0.5,0.5-0.8s0.3-0.6,0.4-1s0.1-0.7,0.1-1.1c0-0.4-0.1-0.9-0.2-1.4s-0.4-1-0.7-1.5c-0.1-0.2-0.2-0.3-0.2-0.5
				c0-0.4,0.2-0.7,0.7-0.8L382,18z M388.3,18c0.4,0.7,0.8,1.4,1,2.1c0.2,0.7,0.3,1.4,0.3,2.1c0,1.3-0.3,2.5-1,3.6s-1.5,2.2-2.7,3.2
				l-1.5-0.9c-0.1-0.1-0.2-0.2-0.3-0.3c0-0.1-0.1-0.2-0.1-0.3c0-0.2,0.1-0.4,0.2-0.6c0.2-0.2,0.3-0.4,0.5-0.6s0.3-0.5,0.5-0.8
				s0.3-0.6,0.4-1s0.1-0.7,0.1-1.1c0-0.4-0.1-0.9-0.2-1.4s-0.4-1-0.7-1.5c-0.1-0.2-0.2-0.3-0.2-0.5c0-0.4,0.2-0.7,0.7-0.8L388.3,18z
				"/>
		</g>
	</g>
</g>
<g id="XMLID_262_">
	<g id="XMLID_139_">
		<path id="XMLID_140_" class="st0" d="M249.6,105.4L249.6,105.4c0-3.6,2.7-6.7,6.6-6.7c3.9,0,6.5,3.1,6.5,6.6l0,0
			c0,3.5-2.7,6.6-6.6,6.6C252.3,112,249.6,108.9,249.6,105.4 M261.2,105.4L261.2,105.4c0-2.9-2.1-5.3-5.1-5.3c-2.9,0-5,2.3-5,5.3
			l0,0c0,2.9,2.1,5.3,5.1,5.3C259.1,110.7,261.2,108.3,261.2,105.4 M264.1,99h1.6l3.7,10.7l3.5-10.7h1.2l3.5,10.7l3.7-10.7h1.5
			l-4.6,12.9H277l-3.5-10.4l-3.5,10.4h-1.2L264.1,99z M285.4,99h9.3v1.3h-7.8v4.4h7v1.3h-7v4.5h7.9v1.3h-9.4V99z M297.6,99h5.5
			c1.6,0,2.8,0.5,3.6,1.3c0.6,0.6,1,1.5,1,2.5l0,0c0,2.1-1.5,3.4-3.5,3.7l3.9,5.2h-1.8l-3.7-5h-3.7v5h-1.4V99H297.6z M303,105.5
			c1.9,0,3.3-1,3.3-2.6l0,0c0-1.6-1.2-2.5-3.3-2.5h-4v5.2L303,105.5L303,105.5z M242.7,107.4h-3.2v4.6H238V98.8h4.9
			c3,0,4.9,1.6,4.9,4.2C247.8,105.9,245.5,107.4,242.7,107.4 M242.8,100.2h-3.3v5.8h3.3c2.2,0,3.6-1.2,3.6-2.9
			C246.3,101.2,244.9,100.2,242.8,100.2 M333.7,66.3c-7.3,0-13.2,5.9-13.2,13.2c0,7.3,5.9,13.2,13.2,13.2c7.3,0,13.2-5.9,13.2-13.2
			C346.9,72.2,341,66.3,333.7,66.3 M333.7,87.7c-4.6,0-8.2-3.7-8.2-8.2c0-4.6,3.7-8.2,8.2-8.2c4.6,0,8.2,3.7,8.2,8.2
			C342,84,338.2,87.7,333.7,87.7 M317.6,87.7h1.1v4.9h-1.1c-5.7,0-10.3-4.6-10.3-10.3V59.7h4.9v6.6h6.4v4.9h-6.4v11.1
			C312.2,85.3,314.6,87.7,317.6,87.7 M274.3,76.6v15.7h-4.9V76.6c0-3-2.4-5.4-5.4-5.4s-5.4,2.4-5.4,5.4v15.7h-4.9V76.6
			c0-3-2.4-5.4-5.4-5.4s-5.4,2.4-5.4,5.4v15.7H238V76.6c0-5.7,4.6-10.3,10.3-10.3c3.2,0,6,1.4,7.9,3.6c1.9-2.2,4.7-3.6,7.9-3.6
			C269.7,66.3,274.3,70.9,274.3,76.6 M290.8,66.3c-7.3,0-13.2,5.9-13.2,13.2c0,7.3,5.9,13.2,13.2,13.2c7.3,0,13.2-5.9,13.2-13.2
			C304,72.2,298.1,66.3,290.8,66.3 M290.8,87.7c-4.6,0-8.2-3.7-8.2-8.2c0-4.6,3.7-8.2,8.2-8.2c4.6,0,8.2,3.7,8.2,8.2
			C299.1,84,295.3,87.7,290.8,87.7 M373.6,89.8c-5.7,4.5-14,3.5-18.5-2.3c-4.5-5.7-3.5-14,2.3-18.5c5.7-4.5,14-3.5,18.5,2.3
			c0-1.6,0-3.3,0-5.1h2.8v24.6c0,8.8-6,13.7-14.3,13.7c-3.8,0-7.5-0.9-10.8-2.8l1.3-2.5c2.9,1.7,6.2,2.6,9.6,2.6
			c6.7,0,11.4-3.8,11.4-11.3c0-1,0-2.1,0-3.1C375.2,88.4,374.4,89.2,373.6,89.8 M355.1,79.4c0,5.7,4.6,10.3,10.3,10.3
			c5.7,0,10.3-4.6,10.3-10.3s-4.6-10.3-10.3-10.3C359.8,69.1,355.1,73.7,355.1,79.4 M390.6,67.8h-7.9v-1.5h9.7v1.2l-6.5,13.1h-1.8
			L390.6,67.8z"/>
	</g>
</g>
</svg>
