<?xml version="1.0" encoding="utf-8"?>
<!-- Generator: Adobe Illustrator 19.0.0, SVG Export Plug-In . SVG Version: 6.00 Build 0)  -->
<svg version="1.1" id="Capa_1" xmlns="http://www.w3.org/2000/svg" xmlns:xlink="http://www.w3.org/1999/xlink" x="0px" y="0px"
	 viewBox="110 -50 320 132" style="enable-background:new 110 -50 320 132;" xml:space="preserve">
<style type="text/css">
	.st0{enable-background:new    ;}
	.st1{fill:#FFFFFF;}
</style>
<g class="st0">
	<path class="st1" d="M120.4-23.8c-1-1.6-1.5-3.3-1.5-5c0-1.5,0.4-2.9,1.1-4.2c0.7-1.4,1.8-2.6,3.2-3.7l1.7,1
		c0.1,0.1,0.3,0.2,0.3,0.3c0.1,0.1,0.1,0.2,0.1,0.4c0,0.1,0,0.3-0.1,0.4s-0.1,0.2-0.2,0.3c-0.2,0.2-0.4,0.5-0.6,0.8
		c-0.2,0.3-0.4,0.6-0.6,1c-0.2,0.3-0.3,0.7-0.4,1.1c-0.1,0.4-0.2,0.9-0.2,1.3c0,0.5,0.1,1,0.2,1.6c0.2,0.6,0.4,1.2,0.8,1.8
		c0.1,0.2,0.2,0.4,0.2,0.6c0,0.5-0.3,0.8-0.8,1L120.4-23.8z M127.8-23.8c-1-1.6-1.5-3.3-1.5-5c0-1.5,0.4-2.9,1.1-4.2
		c0.7-1.4,1.8-2.6,3.2-3.7l1.7,1c0.1,0.1,0.3,0.2,0.3,0.3c0.1,0.1,0.1,0.2,0.1,0.4c0,0.1,0,0.3-0.1,0.4s-0.1,0.2-0.2,0.3
		c-0.2,0.2-0.4,0.5-0.6,0.8c-0.2,0.3-0.4,0.6-0.6,1c-0.2,0.3-0.3,0.7-0.4,1.1c-0.1,0.4-0.2,0.9-0.2,1.3c0,0.5,0.1,1,0.2,1.6
		c0.2,0.6,0.4,1.2,0.8,1.8c0.1,0.2,0.2,0.4,0.2,0.6c0,0.5-0.3,0.8-0.8,1L127.8-23.8z"/>
	<path class="st1" d="M157.5-34.2v4.7h-14.2v8.9h11.2v4.7h-11.2v9h14.2v4.8h-20.2v-32.1H157.5z"/>
	<path class="st1" d="M168.2-35v32.9h-5.5V-35H168.2z"/>
	<path class="st1" d="M183-2.1V-35h5.5v13c0.9-1,1.9-1.7,3.1-2.3c1.1-0.6,2.5-0.9,4-0.9c1.2,0,2.4,0.3,3.4,0.8s1.9,1.3,2.7,2.2
		c0.7,1,1.3,2.2,1.7,3.6c0.4,1.4,0.6,3.1,0.6,4.9c0,1.7-0.2,3.3-0.7,4.7s-1.1,2.7-2,3.8c-0.9,1.1-1.9,1.9-3.1,2.5s-2.6,0.9-4,0.9
		c-0.7,0-1.3-0.1-1.9-0.2s-1.1-0.3-1.6-0.6c-0.5-0.3-0.9-0.6-1.3-0.9c-0.4-0.4-0.8-0.8-1.2-1.2L188-3.2c-0.1,0.4-0.2,0.7-0.5,0.8
		c-0.2,0.2-0.5,0.2-0.9,0.2H183V-2.1z M193.7-20.9c-1.1,0-2.1,0.2-2.9,0.7s-1.6,1.2-2.3,2V-8c0.6,0.8,1.3,1.3,2,1.6
		c0.7,0.3,1.5,0.5,2.4,0.5c0.8,0,1.6-0.2,2.2-0.5s1.2-0.8,1.7-1.4s0.8-1.4,1.1-2.4c0.3-1,0.4-2.1,0.4-3.4s-0.1-2.5-0.3-3.4
		c-0.2-0.9-0.5-1.7-0.9-2.3c-0.4-0.6-0.9-1-1.5-1.3C195-20.8,194.4-20.9,193.7-20.9z"/>
	<path class="st1" d="M226.1-2.1h-2.5c-0.5,0-0.9-0.1-1.2-0.2c-0.3-0.2-0.5-0.5-0.7-0.9l-0.5-1.7c-0.6,0.5-1.1,1-1.7,1.4
		s-1.1,0.7-1.7,1s-1.2,0.5-1.9,0.6c-0.7,0.1-1.4,0.2-2.2,0.2c-1,0-1.8-0.1-2.7-0.4c-0.8-0.3-1.5-0.6-2.1-1.2s-1-1.2-1.4-1.9
		C207.2-6,207-6.9,207-7.9c0-0.9,0.2-1.7,0.7-2.5c0.5-0.8,1.2-1.6,2.3-2.3c1-0.7,2.4-1.2,4.2-1.7c1.7-0.4,3.9-0.7,6.5-0.7v-1.3
		c0-1.5-0.3-2.7-1-3.4c-0.6-0.8-1.5-1.1-2.7-1.1c-0.9,0-1.6,0.1-2.2,0.3c-0.6,0.2-1.1,0.4-1.5,0.7s-0.8,0.5-1.2,0.7
		c-0.5,0.2-0.9,0.3-1.3,0.3s-0.7-0.1-1-0.3c-0.3-0.2-0.5-0.4-0.6-0.7l-1-1.8c2.6-2.4,5.8-3.6,9.5-3.6c1.3,0,2.5,0.2,3.6,0.7
		c1,0.4,1.9,1,2.6,1.8c0.7,0.8,1.3,1.7,1.7,2.8c0.4,1.1,0.6,2.3,0.6,3.5v14.4H226.1z M215.4-5.5c0.6,0,1.1-0.1,1.6-0.2
		s0.9-0.3,1.3-0.5s0.8-0.5,1.2-0.8c0.4-0.3,0.8-0.7,1.2-1.1v-3.8c-1.6,0-2.9,0.1-4,0.3s-1.9,0.5-2.6,0.8s-1.1,0.7-1.4,1.1
		s-0.4,0.9-0.4,1.4c0,1,0.3,1.7,0.9,2.1C213.8-5.7,214.5-5.5,215.4-5.5z"/>
	<path class="st1" d="M237.3-35v32.9h-5.5V-35H237.3z"/>
	<path class="st1" d="M261.3-2.1h-2.5c-0.5,0-0.9-0.1-1.2-0.2c-0.3-0.2-0.5-0.5-0.7-0.9l-0.5-1.6c-0.6,0.5-1.1,1-1.7,1.4
		c-0.6,0.4-1.1,0.7-1.7,1c-0.6,0.3-1.2,0.5-1.9,0.6s-1.4,0.2-2.2,0.2c-1,0-1.8-0.1-2.7-0.4c-0.8-0.3-1.5-0.6-2.1-1.2s-1-1.2-1.4-1.9
		c-0.3-0.8-0.5-1.7-0.5-2.7c0-0.9,0.2-1.7,0.7-2.5c0.5-0.8,1.2-1.6,2.3-2.3c1-0.7,2.4-1.2,4.2-1.7c1.7-0.4,3.9-0.7,6.5-0.7v-1.4
		c0-1.5-0.3-2.7-1-3.4c-0.6-0.8-1.5-1.1-2.7-1.1c-0.9,0-1.6,0.1-2.2,0.3c-0.6,0.2-1.1,0.4-1.5,0.7s-0.8,0.5-1.2,0.7
		c-0.4,0.2-0.8,0.3-1.2,0.3s-0.7-0.1-1-0.3c-0.3-0.2-0.5-0.4-0.6-0.7l-1-1.8c2.6-2.4,5.8-3.6,9.5-3.6c1.3,0,2.5,0.2,3.6,0.7
		c1,0.4,1.9,1,2.6,1.8c0.7,0.8,1.3,1.7,1.7,2.8s0.6,2.3,0.6,3.5v14.4H261.3z M250.7-5.5c0.6,0,1.1-0.1,1.6-0.2s0.9-0.3,1.3-0.5
		c0.4-0.2,0.8-0.5,1.2-0.8s0.8-0.7,1.2-1.1v-3.8c-1.6,0-2.9,0.1-4,0.3s-1.9,0.5-2.6,0.8c-0.7,0.3-1.1,0.7-1.4,1.1
		c-0.3,0.4-0.4,0.9-0.4,1.4c0,1,0.3,1.7,0.9,2.1C249-5.7,249.7-5.5,250.7-5.5z"/>
	<path class="st1" d="M266.7-2.1v-22.7h3.3c0.7,0,1.2,0.3,1.4,1l0.4,1.8c0.5-0.5,0.9-0.9,1.5-1.3c0.5-0.4,1-0.7,1.6-1
		c0.6-0.3,1.2-0.5,1.8-0.6c0.7-0.1,1.4-0.2,2.1-0.2c1.2,0,2.3,0.2,3.3,0.6s1.8,1,2.4,1.8c0.6,0.8,1.1,1.7,1.5,2.7
		c0.3,1.1,0.5,2.2,0.5,3.5V-2H281v-14.6c0-1.4-0.3-2.5-1-3.2c-0.6-0.8-1.5-1.1-2.8-1.1c-0.9,0-1.8,0.2-2.7,0.6
		c-0.8,0.4-1.6,1-2.3,1.8V-2h-5.5V-2.1z"/>
	<path class="st1" d="M307.9-20c-0.2,0.2-0.3,0.4-0.5,0.5s-0.4,0.2-0.7,0.2s-0.6-0.1-0.8-0.3c-0.3-0.2-0.6-0.4-1-0.6
		c-0.4-0.2-0.8-0.4-1.3-0.6c-0.5-0.2-1.1-0.3-1.9-0.3c-1,0-1.8,0.2-2.5,0.5c-0.7,0.3-1.3,0.8-1.8,1.5c-0.5,0.7-0.8,1.4-1.1,2.4
		c-0.2,0.9-0.4,2-0.4,3.1c0,1.2,0.1,2.3,0.4,3.2c0.3,0.9,0.6,1.7,1.1,2.4s1.1,1.1,1.8,1.5c0.7,0.3,1.5,0.5,2.3,0.5
		c0.9,0,1.6-0.1,2.1-0.3c0.5-0.2,1-0.5,1.4-0.7c0.4-0.3,0.7-0.5,1-0.7s0.6-0.3,0.9-0.3c0.4,0,0.8,0.2,1,0.5l1.6,2
		c-0.6,0.7-1.3,1.3-2,1.8s-1.4,0.9-2.2,1.2c-0.8,0.3-1.5,0.5-2.4,0.6c-0.8,0.1-1.6,0.2-2.4,0.2c-1.4,0-2.7-0.3-4-0.8
		c-1.2-0.5-2.3-1.3-3.2-2.3s-1.7-2.2-2.2-3.7s-0.8-3.1-0.8-5c0-1.7,0.2-3.2,0.7-4.6s1.2-2.7,2.1-3.7c0.9-1,2.1-1.9,3.5-2.5
		c1.4-0.6,3-0.9,4.7-0.9s3.2,0.3,4.5,0.8s2.4,1.3,3.4,2.4L307.9-20z"/>
	<path class="st1" d="M322.4-25.2c1.4,0,2.8,0.2,4,0.7s2.2,1.1,3.1,2c0.9,0.9,1.6,2,2,3.2s0.7,2.7,0.7,4.4c0,0.4,0,0.8-0.1,1
		c0,0.3-0.1,0.5-0.2,0.6c-0.1,0.2-0.2,0.3-0.4,0.3c-0.2,0.1-0.4,0.1-0.6,0.1h-14.1c0.2,2.3,0.8,4,1.9,5.1c1.1,1.1,2.5,1.6,4.3,1.6
		c0.9,0,1.7-0.1,2.3-0.3c0.6-0.2,1.2-0.4,1.7-0.7c0.5-0.3,0.9-0.5,1.3-0.7c0.4-0.2,0.7-0.3,1.1-0.3c0.2,0,0.4,0,0.6,0.1
		c0.2,0.1,0.3,0.2,0.4,0.4l1.6,2c-0.6,0.7-1.3,1.3-2,1.8c-0.8,0.5-1.5,0.9-2.4,1.2c-0.8,0.3-1.7,0.5-2.5,0.6
		c-0.9,0.1-1.7,0.2-2.5,0.2c-1.6,0-3.1-0.3-4.4-0.8c-1.4-0.5-2.5-1.3-3.5-2.3s-1.8-2.3-2.4-3.8s-0.9-3.3-0.9-5.3
		c0-1.6,0.3-3,0.8-4.4s1.2-2.6,2.2-3.6c0.9-1,2.1-1.8,3.4-2.4C319.2-24.9,320.7-25.2,322.4-25.2z M322.6-21.3
		c-1.6,0-2.8,0.5-3.7,1.4s-1.5,2.2-1.7,3.8h10.3c0-0.7-0.1-1.4-0.3-2c-0.2-0.6-0.5-1.2-0.9-1.7s-0.9-0.8-1.5-1.1
		C324.1-21.1,323.4-21.3,322.6-21.3z"/>
	<path class="st1" d="M354.6-2.1h-2.5c-0.5,0-0.9-0.1-1.2-0.2c-0.3-0.2-0.5-0.5-0.7-0.9l-0.5-1.6c-0.6,0.5-1.1,1-1.7,1.4
		c-0.6,0.4-1.1,0.7-1.7,1c-0.6,0.3-1.2,0.5-1.9,0.6s-1.4,0.2-2.2,0.2c-1,0-1.8-0.1-2.7-0.4c-0.8-0.3-1.5-0.6-2.1-1.2s-1-1.2-1.4-1.9
		c-0.3-0.8-0.5-1.7-0.5-2.7c0-0.9,0.2-1.7,0.7-2.5c0.5-0.8,1.2-1.6,2.3-2.3c1-0.7,2.4-1.2,4.2-1.7c1.7-0.4,3.9-0.7,6.5-0.7v-1.4
		c0-1.5-0.3-2.7-1-3.4c-0.6-0.7-1.6-1.1-2.8-1.1c-0.9,0-1.6,0.1-2.2,0.3c-0.6,0.2-1.1,0.4-1.5,0.7s-0.8,0.5-1.2,0.7
		c-0.4,0.2-0.8,0.3-1.2,0.3s-0.7-0.1-1-0.3c-0.3-0.2-0.5-0.4-0.6-0.7l-1-1.8c2.6-2.4,5.8-3.6,9.5-3.6c1.3,0,2.5,0.2,3.6,0.7
		c1,0.4,1.9,1,2.6,1.8c0.7,0.8,1.3,1.7,1.7,2.8s0.6,2.3,0.6,3.5L354.6-2.1L354.6-2.1z M343.9-5.5c0.6,0,1.1-0.1,1.6-0.2
		s0.9-0.3,1.3-0.5c0.4-0.2,0.8-0.5,1.2-0.8s0.8-0.7,1.2-1.1v-3.8c-1.6,0-2.9,0.1-4,0.3s-1.9,0.5-2.6,0.8c-0.7,0.3-1.1,0.7-1.4,1.1
		c-0.3,0.4-0.4,0.9-0.4,1.4c0,1,0.3,1.7,0.9,2.1C342.3-5.7,343-5.5,343.9-5.5z"/>
	<path class="st1" d="M376-2.1c-0.7,0-1.2-0.3-1.4-1l-0.4-2.2c-0.5,0.5-1,1-1.5,1.4s-1.1,0.8-1.7,1.1c-0.6,0.3-1.2,0.6-1.9,0.7
		c-0.7,0.2-1.4,0.3-2.2,0.3c-1.2,0-2.4-0.3-3.4-0.8s-1.9-1.3-2.7-2.3c-0.7-1-1.3-2.2-1.7-3.6s-0.6-3.1-0.6-5c0-1.7,0.2-3.3,0.7-4.7
		c0.5-1.4,1.1-2.7,2-3.8s1.9-1.9,3.1-2.5c1.2-0.6,2.5-0.9,4-0.9c1.3,0,2.4,0.2,3.3,0.6c0.9,0.4,1.7,0.9,2.4,1.6v-12h5.5v32.9H376
		V-2.1z M368.7-6.1c1.1,0,2.1-0.2,2.9-0.7c0.8-0.5,1.6-1.1,2.3-2V-19c-0.6-0.8-1.3-1.3-2-1.6c-0.7-0.3-1.5-0.5-2.4-0.5
		c-0.8,0-1.6,0.2-2.3,0.5c-0.7,0.3-1.2,0.8-1.7,1.4c-0.5,0.6-0.8,1.4-1.1,2.4s-0.4,2.1-0.4,3.4s0.1,2.5,0.3,3.4s0.5,1.7,0.9,2.3
		c0.4,0.6,0.9,1,1.5,1.3C367.3-6.2,368-6.1,368.7-6.1z"/>
	<path class="st1" d="M394.9-25.2c1.7,0,3.2,0.3,4.6,0.8c1.4,0.5,2.6,1.3,3.5,2.3c1,1,1.7,2.2,2.3,3.7c0.5,1.4,0.8,3.1,0.8,4.9
		s-0.3,3.4-0.8,4.9c-0.5,1.4-1.3,2.7-2.3,3.7s-2.2,1.8-3.5,2.4c-1.4,0.5-2.9,0.8-4.6,0.8c-1.7,0-3.2-0.3-4.6-0.8
		c-1.4-0.5-2.6-1.3-3.6-2.4c-1-1-1.7-2.3-2.3-3.7c-0.5-1.4-0.8-3.1-0.8-4.9s0.3-3.4,0.8-4.9c0.5-1.4,1.3-2.7,2.3-3.7
		s2.2-1.8,3.6-2.3S393.2-25.2,394.9-25.2z M394.9-6c1.9,0,3.3-0.6,4.2-1.9s1.4-3.1,1.4-5.6s-0.5-4.3-1.4-5.6s-2.3-1.9-4.2-1.9
		s-3.3,0.6-4.3,1.9c-0.9,1.3-1.4,3.2-1.4,5.6s0.5,4.3,1.4,5.6C391.6-6.6,393-6,394.9-6z"/>
	<path class="st1" d="M412.2-36.1c0.5,0.8,0.9,1.7,1.1,2.5c0.2,0.8,0.4,1.7,0.4,2.5c0,1.5-0.4,2.9-1.1,4.2c-0.7,1.3-1.8,2.6-3.2,3.7
		l-1.7-1c-0.1-0.1-0.3-0.2-0.3-0.3c-0.1-0.1-0.1-0.2-0.1-0.4c0-0.3,0.1-0.5,0.3-0.7c0.2-0.2,0.4-0.5,0.6-0.8s0.4-0.6,0.6-1
		c0.2-0.4,0.3-0.7,0.4-1.2c0.1-0.4,0.2-0.9,0.2-1.3c0-0.5-0.1-1-0.2-1.6c-0.2-0.6-0.4-1.2-0.8-1.8c-0.1-0.2-0.2-0.4-0.2-0.6
		c0-0.5,0.3-0.8,0.8-1L412.2-36.1z M419.6-36.1c0.5,0.8,0.9,1.7,1.1,2.5c0.2,0.8,0.4,1.7,0.4,2.5c0,1.5-0.4,2.9-1.1,4.2
		c-0.7,1.3-1.8,2.6-3.2,3.7l-1.7-1c-0.1-0.1-0.3-0.2-0.3-0.3c-0.1-0.1-0.1-0.2-0.1-0.4c0-0.3,0.1-0.5,0.3-0.7
		c0.2-0.2,0.4-0.5,0.6-0.8c0.2-0.3,0.4-0.6,0.6-1s0.3-0.7,0.4-1.2c0.1-0.4,0.2-0.9,0.2-1.3c0-0.5-0.1-1-0.2-1.6
		c-0.2-0.6-0.4-1.2-0.8-1.8c-0.1-0.2-0.2-0.4-0.2-0.6c0-0.5,0.3-0.8,0.8-1L419.6-36.1z"/>
</g>
<g id="XMLID_262_">
	<g id="XMLID_139_">
		<path id="XMLID_140_" class="st1" d="M334.6,17.1c-10.7,0-19.4,8.7-19.4,19.4s8.7,19.4,19.4,19.4S354,47.2,354,36.5
			C354.1,25.8,345.4,17.1,334.6,17.1 M334.6,48.6c-6.8,0-12.1-5.4-12.1-12.1c0-6.8,5.4-12.1,12.1-12.1c6.8,0,12.1,5.4,12.1,12.1
			C346.9,43.1,341.3,48.6,334.6,48.6 M310.9,48.6h1.6v7.2h-1.6c-8.4,0-15.2-6.8-15.2-15.2V7.4h7.2v9.7h9.4v7.2h-9.4v16.3
			C303,45.1,306.5,48.6,310.9,48.6 M247.2,32.3v23.1H240V32.3c0-4.4-3.5-7.9-7.9-7.9s-7.9,3.5-7.9,7.9v23.1H217V32.3
			c0-4.4-3.5-7.9-7.9-7.9s-7.9,3.5-7.9,7.9v23.1H194V32.3c0-8.4,6.8-15.2,15.2-15.2c4.7,0,8.8,2.1,11.6,5.3
			c2.8-3.2,6.9-5.3,11.6-5.3C240.4,17.1,247.2,23.9,247.2,32.3 M271.5,17.1c-10.7,0-19.4,8.7-19.4,19.4s8.7,19.4,19.4,19.4
			s19.4-8.7,19.4-19.4C290.9,25.8,282.2,17.1,271.5,17.1 M271.5,48.6c-6.8,0-12.1-5.4-12.1-12.1c0-6.8,5.4-12.1,12.1-12.1
			c6.8,0,12.1,5.4,12.1,12.1C283.7,43.1,278.1,48.6,271.5,48.6 M393.4,51.7c-8.4,6.6-20.6,5.2-27.2-3.4c-6.6-8.4-5.2-20.6,3.4-27.2
			c8.4-6.6,20.6-5.2,27.2,3.4c0-2.4,0-4.9,0-7.5h4.1v36.2c0,13-8.8,20.2-21.1,20.2c-5.6,0-11-1.3-15.9-4.1l1.9-3.7
			c4.3,2.5,9.1,3.8,14.1,3.8c9.9,0,16.8-5.6,16.8-16.6c0-1.5,0-3.1,0-4.6C395.7,49.6,394.5,50.8,393.4,51.7 M366.1,36.4
			c0,8.4,6.8,15.2,15.2,15.2s15.2-6.8,15.2-15.2s-6.8-15.2-15.2-15.2C373.1,21.2,366.1,28,366.1,36.4 M418.4,19.3h-11.6v-2.2h14.3
			v1.8l-9.6,19.3h-2.6L418.4,19.3z"/>
	</g>
</g>
</svg>
