<?xml version="1.0" encoding="utf-8"?>
<!-- Generator: Adobe Illustrator 19.0.0, SVG Export Plug-In . SVG Version: 6.00 Build 0)  -->
<svg version="1.1" id="Capa_1" xmlns="http://www.w3.org/2000/svg" xmlns:xlink="http://www.w3.org/1999/xlink" x="0px" y="0px"
	 viewBox="100 3 300 114" style="enable-background:new 100 3 300 114;" xml:space="preserve">
<style type="text/css">
	.st0{fill:#FFFFFF;}
</style>
<g id="XMLID_908_">
	<g id="XMLID_18_">
		<path id="XMLID_19_" class="st0" d="M114.6,22.6c-1.2-1.9-1.8-3.9-1.8-5.8c0-1.7,0.4-3.4,1.3-5s2.1-3,3.8-4.3l2,1.2
			c0.2,0.1,0.3,0.2,0.4,0.4c0.1,0.1,0.1,0.3,0.1,0.4c0,0.2,0,0.3-0.1,0.4c-0.1,0.1-0.1,0.3-0.2,0.4c-0.2,0.3-0.5,0.6-0.7,0.9
			c-0.3,0.3-0.5,0.7-0.7,1.1c-0.2,0.4-0.4,0.9-0.5,1.3c-0.1,0.5-0.2,1-0.2,1.6s0.1,1.2,0.3,1.9c0.2,0.7,0.5,1.4,1,2.1
			c0.2,0.2,0.2,0.5,0.2,0.7c0,0.6-0.3,0.9-0.9,1.2L114.6,22.6z M123.3,22.6c-1.2-1.9-1.8-3.9-1.8-5.8c0-1.7,0.4-3.4,1.3-5
			c0.9-1.6,2.1-3,3.8-4.3l2,1.2c0.2,0.1,0.3,0.2,0.4,0.4c0.1,0.1,0.1,0.3,0.1,0.4c0,0.2,0,0.3-0.1,0.4c-0.1,0.1-0.1,0.3-0.2,0.4
			c-0.2,0.3-0.5,0.6-0.7,0.9c-0.3,0.3-0.5,0.7-0.7,1.1c-0.2,0.4-0.4,0.9-0.5,1.3c-0.1,0.5-0.2,1-0.2,1.6s0.1,1.2,0.3,1.9
			c0.2,0.7,0.5,1.4,1,2.1c0.2,0.2,0.2,0.5,0.2,0.7c0,0.6-0.3,0.9-0.9,1.2L123.3,22.6z"/>
		<path id="XMLID_22_" class="st0" d="M160.9,10.4v5.7h-11.3v31.8h-7V16.1h-11.3v-5.7H160.9z"/>
		<path id="XMLID_24_" class="st0" d="M172.5,33.3V48h-7V10.4H177c2.6,0,4.8,0.3,6.6,0.8c1.8,0.5,3.3,1.3,4.5,2.2
			c1.2,1,2,2.1,2.6,3.4c0.5,1.3,0.8,2.8,0.8,4.4c0,1.3-0.2,2.5-0.6,3.6c-0.4,1.1-0.9,2.1-1.6,3.1c-0.7,0.9-1.6,1.7-2.6,2.4
			s-2.2,1.2-3.5,1.7c0.9,0.5,1.6,1.2,2.3,2.2l9.4,13.9h-6.3c-0.6,0-1.1-0.1-1.5-0.4c-0.4-0.2-0.8-0.6-1.1-1l-7.9-12
			c-0.3-0.5-0.6-0.8-1-1s-0.9-0.3-1.6-0.3h-3V33.3z M172.5,28.3h4.4c1.3,0,2.5-0.2,3.4-0.5c1-0.3,1.8-0.8,2.4-1.4
			c0.6-0.6,1.1-1.3,1.4-2.1s0.5-1.7,0.5-2.6c0-1.9-0.6-3.4-1.9-4.4c-1.3-1-3.2-1.5-5.8-1.5h-4.5v12.5H172.5z"/>
		<path id="XMLID_27_" class="st0" d="M232.4,48H227c-0.6,0-1.1-0.2-1.5-0.5c-0.4-0.3-0.7-0.7-0.8-1.1l-2.8-7.7h-15.6l-2.8,7.7
			c-0.1,0.4-0.4,0.8-0.8,1.1c-0.4,0.3-0.9,0.5-1.5,0.5h-5.4l14.8-37.6h7.1L232.4,48z M208,33.8h12l-4.6-12.5c-0.2-0.6-0.4-1.2-0.7-2
			c-0.3-0.8-0.5-1.6-0.7-2.5c-0.2,0.9-0.5,1.7-0.7,2.5c-0.2,0.8-0.5,1.4-0.7,2L208,33.8z"/>
		<path id="XMLID_30_" class="st0" d="M240.7,10.4c0.2,0,0.4,0.1,0.6,0.2c0.2,0.1,0.3,0.2,0.5,0.3s0.3,0.3,0.5,0.6L262,36.6
			c-0.1-0.6-0.1-1.2-0.1-1.8s0-1.1,0-1.6V10.4h6.2V48h-3.6c-0.6,0-1-0.1-1.4-0.3c-0.4-0.2-0.7-0.5-1.1-0.9l-19.6-25
			c0.1,0.6,0.1,1.1,0.1,1.6s0,1,0,1.5V48h-6.2V10.4h3.7C240.2,10.4,240.5,10.4,240.7,10.4z"/>
		<path id="XMLID_32_" class="st0" d="M311.5,29.2c0,1.7-0.2,3.3-0.5,4.8s-0.8,3-1.5,4.3c-0.6,1.3-1.4,2.6-2.4,3.7
			c-0.9,1.1-2,2.1-3.2,2.9l9.5,10.4h-5.8c-0.8,0-1.6-0.1-2.2-0.3c-0.7-0.2-1.3-0.6-1.8-1.2l-5.5-6.1c-0.9,0.2-1.8,0.4-2.7,0.5
			c-0.9,0.1-1.9,0.2-2.9,0.2c-2.8,0-5.4-0.5-7.8-1.4c-2.3-1-4.4-2.3-6-4s-3-3.7-3.9-6.1c-0.9-2.3-1.4-4.9-1.4-7.6s0.5-5.3,1.4-7.6
			s2.2-4.4,3.9-6.1c1.7-1.7,3.7-3.1,6-4c2.3-1,4.9-1.4,7.8-1.4c2.8,0,5.4,0.5,7.8,1.5c2.3,1,4.3,2.3,6,4s3,3.7,3.9,6.1
			C311,23.9,311.5,26.4,311.5,29.2z M304.3,29.2c0-2.1-0.3-3.9-0.8-5.5s-1.3-3-2.4-4.2c-1-1.1-2.3-2-3.7-2.6
			c-1.4-0.6-3.1-0.9-4.9-0.9s-3.5,0.3-5,0.9c-1.5,0.6-2.7,1.5-3.8,2.6c-1,1.1-1.8,2.5-2.4,4.2c-0.6,1.6-0.8,3.5-0.8,5.5
			c0,2.1,0.3,3.9,0.8,5.5c0.6,1.6,1.3,3,2.4,4.2s2.3,2,3.8,2.6s3.1,0.9,5,0.9c1.9,0,3.5-0.3,4.9-0.9c1.4-0.6,2.7-1.5,3.7-2.6
			s1.8-2.5,2.4-4.2C304.1,33.1,304.3,31.2,304.3,29.2z"/>
		<path id="XMLID_35_" class="st0" d="M332.1,42.3c1.4,0,2.6-0.2,3.6-0.7c1.1-0.5,2-1.1,2.7-1.9c0.7-0.8,1.3-1.8,1.7-3
			c0.4-1.2,0.6-2.5,0.6-3.9V10.4h7v22.5c0,2.2-0.4,4.3-1.1,6.2c-0.7,1.9-1.8,3.5-3.1,4.9c-1.4,1.4-3,2.5-4.9,3.2
			c-1.9,0.8-4.1,1.2-6.5,1.2s-4.6-0.4-6.5-1.2c-1.9-0.8-3.6-1.8-4.9-3.2c-1.3-1.4-2.4-3-3.1-4.9c-0.7-1.9-1.1-4-1.1-6.2V10.4h7v22.5
			c0,1.4,0.2,2.7,0.6,3.9c0.4,1.2,0.9,2.2,1.7,3c0.7,0.8,1.6,1.5,2.7,1.9S330.8,42.3,332.1,42.3z"/>
		<path id="XMLID_37_" class="st0" d="M362.7,48h-7V10.4h7V48z"/>
		<path id="XMLID_39_" class="st0" d="M375.4,8.2c0.6,1,1.1,1.9,1.3,2.9c0.3,1,0.4,1.9,0.4,2.9c0,1.7-0.4,3.4-1.3,5s-2.1,3-3.8,4.4
			l-2-1.2c-0.2-0.1-0.3-0.2-0.4-0.4c-0.1-0.1-0.1-0.3-0.1-0.4c0-0.3,0.1-0.6,0.3-0.8c0.2-0.3,0.5-0.6,0.7-0.9
			c0.3-0.3,0.5-0.7,0.7-1.1c0.2-0.4,0.4-0.9,0.5-1.4s0.2-1,0.2-1.6s-0.1-1.2-0.3-1.9c-0.2-0.7-0.5-1.4-1-2.1
			c-0.2-0.2-0.2-0.5-0.2-0.7c0-0.6,0.3-0.9,1-1.2L375.4,8.2z M384,8.2c0.6,1,1.1,1.9,1.3,2.9c0.3,1,0.4,1.9,0.4,2.9
			c0,1.7-0.4,3.4-1.3,5s-2.1,3-3.8,4.4l-2-1.2c-0.2-0.1-0.3-0.2-0.4-0.4c-0.1-0.1-0.1-0.3-0.1-0.4c0-0.3,0.1-0.6,0.3-0.8
			c0.2-0.3,0.5-0.6,0.7-0.9c0.2-0.3,0.5-0.7,0.7-1.1c0.2-0.4,0.4-0.9,0.5-1.4s0.2-1,0.2-1.6s-0.1-1.2-0.3-1.9
			c-0.2-0.7-0.5-1.4-1-2.1c-0.2-0.2-0.2-0.5-0.2-0.7c0-0.6,0.3-0.9,1-1.2L384,8.2z"/>
	</g>
</g>
<g id="XMLID_63_">
	<g id="XMLID_64_">
		<path id="XMLID_65_" class="st0" d="M267,98.7l-6,13.3h1.5l1.6-3.5h7.2l1.5,3.5h1.6l-6-13.3H267z M264.7,107.1l3-6.7l3,6.7H264.7z
			 M284.3,98.7h1.7l-5.5,7.9v5.2H279v-5.2l-5.5-7.9h1.8l4.4,6.6L284.3,98.7z M242.9,98.7H238v13.2h1.5v-4.6h3.2
			c2.8,0,5.2-1.5,5.2-4.3C247.8,100.3,245.9,98.7,242.9,98.7 M242.7,105.9h-3.3v-5.8h3.3c2.1,0,3.5,1,3.5,2.9
			C246.3,104.7,244.9,105.9,242.7,105.9 M252,110.5h7.4v1.4h-8.9V98.7h1.5V110.5z M264,71.1c-3,0-5.4,2.4-5.4,5.4v15.7h-4.9V76.5
			c0-3-2.4-5.4-5.4-5.4s-5.4,2.4-5.4,5.4v15.7H238V76.5c0-5.7,4.6-10.3,10.3-10.3c3.2,0,6,1.4,7.9,3.6c1.9-2.2,4.7-3.6,7.9-3.6
			c5.7,0,10.3,4.6,10.3,10.3v15.7h-4.9V76.5C269.3,73.5,266.9,71.1,264,71.1 M392.5,66.2v1.2L386,80.5h-1.8l6.5-12.8h-7.9v-1.5
			C382.8,66.2,392.5,66.2,392.5,66.2z M375.9,71.2c-4.5-5.7-12.8-6.8-18.5-2.3c-5.7,4.5-6.8,12.8-2.3,18.5s12.8,6.8,18.5,2.3
			c0.8-0.7,1.6-1.4,2.3-2.3c0,1,0,2.1,0,3.1c0,7.5-4.7,11.3-11.4,11.3c-3.4,0-6.6-0.9-9.6-2.6l-1.3,2.5c3.3,1.9,7,2.8,10.8,2.8
			c8.3,0,14.3-4.9,14.3-13.7V66.2h-2.8C375.9,67.9,375.9,69.6,375.9,71.2 M365.5,89.7c-5.7,0-10.3-4.6-10.3-10.3
			c0-5.7,4.6-10.3,10.3-10.3s10.3,4.6,10.3,10.3C375.8,85.1,371.2,89.7,365.5,89.7 M333.7,66.2c-7.3,0-13.2,5.9-13.2,13.2
			c0,7.3,5.9,13.2,13.2,13.2c7.3,0,13.2-5.9,13.2-13.2C346.9,72.1,341,66.2,333.7,66.2 M333.7,87.6c-4.6,0-8.2-3.7-8.2-8.2
			s3.7-8.2,8.2-8.2c4.6,0,8.2,3.7,8.2,8.2S338.2,87.6,333.7,87.6 M290.8,66.2c-7.3,0-13.2,5.9-13.2,13.2c0,7.3,5.9,13.2,13.2,13.2
			c7.3,0,13.2-5.9,13.2-13.2C304,72.1,298.1,66.2,290.8,66.2 M290.8,87.6c-4.6,0-8.2-3.7-8.2-8.2s3.7-8.2,8.2-8.2
			c4.6,0,8.2,3.7,8.2,8.2S295.3,87.6,290.8,87.6 M317.6,87.6h1.1v4.9h-1.1c-5.7,0-10.3-4.6-10.3-10.3V59.6h4.9v6.6h6.4v4.9h-6.4
			v11.1C312.2,85.2,314.6,87.6,317.6,87.6"/>
	</g>
</g>
</svg>
