<?xml version="1.0" encoding="utf-8"?>
<!-- Generator: Adobe Illustrator 19.0.0, SVG Export Plug-In . SVG Version: 6.00 Build 0)  -->
<svg version="1.1" id="Capa_1" xmlns="http://www.w3.org/2000/svg" xmlns:xlink="http://www.w3.org/1999/xlink" x="0px" y="0px"
	 viewBox="110 -50 320 146" style="enable-background:new 110 -50 320 146;" xml:space="preserve">
<style type="text/css">
	.st0{enable-background:new    ;}
	.st1{fill:#FFFFFF;}
</style>
<g class="st0">
	<path class="st1" d="M113.9-28.8c-1.3-2.1-1.9-4.1-1.9-6.2c0-1.9,0.5-3.6,1.4-5.3s2.3-3.3,4.1-4.7l2.1,1.3c0.2,0.1,0.3,0.2,0.4,0.4
		c0.1,0.2,0.1,0.3,0.1,0.5c0,0.2,0,0.3-0.1,0.5c-0.1,0.1-0.2,0.3-0.3,0.4c-0.2,0.3-0.5,0.6-0.8,1s-0.5,0.8-0.7,1.2s-0.4,0.9-0.6,1.4
		s-0.2,1.1-0.2,1.7c0,0.6,0.1,1.3,0.3,2c0.2,0.7,0.5,1.5,1,2.2c0.2,0.3,0.3,0.5,0.3,0.8c0,0.6-0.3,1-1,1.3L113.9-28.8z M123.1-28.8
		c-1.3-2.1-1.9-4.1-1.9-6.2c0-1.9,0.5-3.6,1.4-5.3s2.3-3.3,4.1-4.7l2.1,1.3c0.2,0.1,0.3,0.2,0.4,0.4c0.1,0.2,0.1,0.3,0.1,0.5
		c0,0.2,0,0.3-0.1,0.5c-0.1,0.1-0.2,0.3-0.3,0.4c-0.2,0.3-0.5,0.6-0.8,1s-0.5,0.8-0.7,1.2s-0.4,0.9-0.6,1.4s-0.2,1.1-0.2,1.7
		c0,0.6,0.1,1.3,0.3,2c0.2,0.7,0.5,1.5,1,2.2c0.2,0.3,0.3,0.5,0.3,0.8c0,0.6-0.3,1-1,1.3L123.1-28.8z"/>
	<path class="st1" d="M160.6-41.9v6h-17.9v11.2h14.1v5.8h-14.1v11.4h17.9v6h-25.4v-40.4C135.2-41.9,160.6-41.9,160.6-41.9z"/>
	<path class="st1" d="M174-43v41.4h-6.9V-43H174z"/>
	<path class="st1" d="M192.6-1.6v-28.6h4c0.7,0,1.2,0.1,1.5,0.4s0.5,0.7,0.6,1.3l0.4,3.5c1-1.8,2.2-3.2,3.6-4.2s2.9-1.5,4.6-1.5
		c1.4,0,2.6,0.3,3.5,1l-0.9,5.2c-0.1,0.3-0.2,0.6-0.4,0.7c-0.2,0.1-0.4,0.2-0.8,0.2c-0.3,0-0.7-0.1-1.1-0.2
		c-0.5-0.1-1.1-0.2-1.9-0.2c-1.4,0-2.7,0.4-3.7,1.2s-1.9,1.9-2.6,3.5v17.8L192.6-1.6L192.6-1.6z"/>
	<path class="st1" d="M227.2-30.6c1.8,0,3.5,0.3,5,0.9c1.5,0.6,2.8,1.4,3.9,2.5c1.1,1.1,2,2.5,2.6,4.1s0.9,3.4,0.9,5.5
		c0,0.5,0,1-0.1,1.3c0,0.3-0.1,0.6-0.3,0.8c-0.1,0.2-0.3,0.3-0.5,0.4c-0.2,0.1-0.5,0.1-0.8,0.1h-17.7c0.2,2.9,1,5.1,2.4,6.5
		s3.2,2.1,5.5,2.1c1.1,0,2.1-0.1,2.9-0.4s1.5-0.5,2.1-0.9c0.6-0.3,1.1-0.6,1.6-0.9c0.5-0.3,0.9-0.4,1.3-0.4c0.3,0,0.5,0.1,0.7,0.2
		c0.2,0.1,0.4,0.3,0.5,0.5l2,2.5c-0.8,0.9-1.6,1.6-2.6,2.2c-0.9,0.6-1.9,1.1-3,1.5c-1,0.4-2.1,0.6-3.2,0.8c-1.1,0.1-2.1,0.2-3.1,0.2
		c-2,0-3.8-0.3-5.5-1s-3.2-1.6-4.5-2.9s-2.3-2.9-3-4.8s-1.1-4.1-1.1-6.6c0-2,0.3-3.8,0.9-5.5c0.6-1.7,1.5-3.2,2.7-4.5s2.6-2.3,4.3-3
		C223.1-30.3,225-30.6,227.2-30.6z M227.3-25.7c-2,0-3.6,0.6-4.7,1.7c-1.1,1.1-1.9,2.7-2.2,4.8h12.9c0-0.9-0.1-1.7-0.4-2.5
		c-0.2-0.8-0.6-1.5-1.1-2.1c-0.5-0.6-1.1-1.1-1.9-1.4C229.2-25.5,228.3-25.7,227.3-25.7z"/>
	<path class="st1" d="M245.2-1.6v-28.6h4.2c0.9,0,1.5,0.4,1.8,1.3l0.5,2.3c0.6-0.6,1.2-1.1,1.8-1.6s1.3-0.9,2-1.3
		c0.7-0.4,1.5-0.6,2.3-0.8s1.7-0.3,2.7-0.3c1.6,0,2.9,0.3,4.2,0.8c1.2,0.5,2.2,1.3,3,2.2c0.8,1,1.4,2.1,1.8,3.4
		c0.4,1.3,0.6,2.8,0.6,4.4v18.2h-6.9v-18.2c0-1.7-0.4-3.1-1.2-4.1s-2-1.4-3.6-1.4c-1.2,0-2.3,0.3-3.3,0.8s-2,1.3-3,2.2v20.7H245.2z"
		/>
	<path class="st1" d="M297-1.6c-0.9,0-1.5-0.4-1.8-1.3l-0.6-2.8c-0.6,0.7-1.2,1.3-1.9,1.8s-1.4,1-2.1,1.4s-1.6,0.7-2.4,0.9
		c-0.9,0.2-1.8,0.3-2.8,0.3c-1.6,0-3-0.3-4.3-1s-2.4-1.6-3.4-2.8s-1.7-2.8-2.2-4.6s-0.8-3.9-0.8-6.2c0-2.1,0.3-4.1,0.9-5.9
		c0.6-1.8,1.4-3.4,2.5-4.7c1.1-1.3,2.4-2.4,3.9-3.1c1.5-0.8,3.2-1.1,5.1-1.1c1.6,0,3,0.3,4.1,0.8s2.1,1.2,3,2V-43h6.9v41.4H297z
		 M287.8-6.6c1.4,0,2.6-0.3,3.7-0.9c1-0.6,2-1.4,2.8-2.5v-12.9c-0.8-0.9-1.6-1.6-2.6-2c-0.9-0.4-1.9-0.6-3-0.6c-1,0-2,0.2-2.8,0.6
		s-1.6,1-2.1,1.8c-0.6,0.8-1,1.8-1.4,3c-0.3,1.2-0.5,2.7-0.5,4.3c0,1.7,0.1,3.1,0.4,4.3s0.7,2.1,1.2,2.8s1.1,1.3,1.8,1.6
		C286.1-6.8,286.9-6.6,287.8-6.6z"/>
	<path class="st1" d="M317-38.5c0,0.6-0.1,1.2-0.4,1.7c-0.2,0.5-0.6,1-1,1.4c-0.4,0.4-0.9,0.7-1.4,0.9s-1.1,0.3-1.7,0.3
		c-0.6,0-1.2-0.1-1.7-0.3s-1-0.5-1.4-0.9c-0.4-0.4-0.7-0.8-0.9-1.4s-0.3-1.1-0.3-1.7s0.1-1.2,0.3-1.7s0.5-1,0.9-1.4
		c0.4-0.4,0.9-0.7,1.4-0.9c0.5-0.2,1.1-0.3,1.7-0.3c0.6,0,1.2,0.1,1.7,0.3c0.5,0.2,1,0.5,1.4,0.9c0.4,0.4,0.7,0.9,1,1.4
		S317-39.1,317-38.5z M316-30.2v28.6h-6.9v-28.6H316z"/>
	<path class="st1" d="M343.9-1.6c-0.9,0-1.5-0.4-1.8-1.3l-0.6-2.8c-0.6,0.7-1.2,1.3-1.9,1.8s-1.4,1-2.1,1.4s-1.6,0.7-2.4,0.9
		c-0.9,0.2-1.8,0.3-2.8,0.3c-1.6,0-3-0.3-4.3-1s-2.4-1.6-3.4-2.8s-1.7-2.8-2.2-4.6s-0.8-3.9-0.8-6.2c0-2.1,0.3-4.1,0.9-5.9
		c0.6-1.8,1.4-3.4,2.5-4.7c1.1-1.3,2.4-2.4,3.9-3.1c1.5-0.8,3.2-1.1,5.1-1.1c1.6,0,3,0.3,4.1,0.8s2.1,1.2,3,2V-43h6.9v41.4H343.9z
		 M334.7-6.6c1.4,0,2.6-0.3,3.7-0.9c1-0.6,2-1.4,2.8-2.5v-12.9c-0.8-0.9-1.6-1.6-2.6-2c-0.9-0.4-1.9-0.6-3-0.6c-1,0-2,0.2-2.8,0.6
		s-1.6,1-2.1,1.8c-0.6,0.8-1,1.8-1.4,3c-0.3,1.2-0.5,2.7-0.5,4.3c0,1.7,0.1,3.1,0.4,4.3s0.7,2.1,1.2,2.8s1.1,1.3,1.8,1.6
		C333-6.8,333.9-6.6,334.7-6.6z"/>
	<path class="st1" d="M367.8-30.6c2.1,0,4.1,0.3,5.8,1c1.7,0.7,3.2,1.7,4.4,2.9c1.2,1.3,2.2,2.8,2.8,4.6c0.7,1.8,1,3.9,1,6.1
		c0,2.3-0.3,4.3-1,6.1s-1.6,3.4-2.8,4.7s-2.7,2.3-4.4,3s-3.7,1-5.8,1s-4.1-0.3-5.8-1s-3.2-1.7-4.5-3c-1.2-1.3-2.2-2.8-2.9-4.7
		c-0.7-1.8-1-3.9-1-6.1s0.3-4.3,1-6.1s1.6-3.4,2.9-4.6c1.3-1.2,2.7-2.2,4.5-2.9C363.7-30.3,365.7-30.6,367.8-30.6z M367.8-6.5
		c2.4,0,4.1-0.8,5.3-2.4c1.1-1.6,1.7-3.9,1.7-7s-0.6-5.4-1.7-7.1c-1.1-1.6-2.9-2.4-5.3-2.4c-2.4,0-4.2,0.8-5.4,2.4
		c-1.2,1.6-1.7,4-1.7,7c0,3.1,0.6,5.4,1.7,7C363.6-7.3,365.4-6.5,367.8-6.5z"/>
	<path class="st1" d="M387.3-1.6v-28.6h4c0.7,0,1.2,0.1,1.5,0.4s0.5,0.7,0.6,1.3l0.4,3.5c1-1.8,2.2-3.2,3.6-4.2
		c1.4-1,2.9-1.5,4.6-1.5c1.4,0,2.6,0.3,3.5,1l-0.9,5.2c-0.1,0.3-0.2,0.6-0.4,0.7s-0.4,0.2-0.8,0.2c-0.3,0-0.7-0.1-1.1-0.2
		c-0.5-0.1-1.1-0.2-1.9-0.2c-1.4,0-2.7,0.4-3.7,1.2s-1.9,1.9-2.6,3.5v17.8L387.3-1.6L387.3-1.6z"/>
	<path class="st1" d="M415-44.3c0.7,1,1.1,2.1,1.4,3.1s0.5,2.1,0.5,3.1c0,1.9-0.5,3.6-1.4,5.3s-2.3,3.3-4.1,4.7l-2.1-1.3
		c-0.2-0.1-0.3-0.2-0.4-0.4c-0.1-0.2-0.1-0.3-0.1-0.5c0-0.4,0.1-0.7,0.4-0.9c0.2-0.3,0.5-0.6,0.8-0.9s0.5-0.8,0.7-1.2
		c0.2-0.4,0.4-0.9,0.5-1.5c0.1-0.5,0.2-1.1,0.2-1.7c0-0.6-0.1-1.3-0.3-2c-0.2-0.7-0.5-1.5-1-2.3c-0.2-0.2-0.3-0.5-0.3-0.8
		c0-0.6,0.3-1,1-1.3L415-44.3z M424.3-44.3c0.7,1,1.1,2.1,1.4,3.1s0.5,2.1,0.5,3.1c0,1.9-0.5,3.6-1.4,5.3s-2.3,3.3-4.1,4.7l-2.1-1.3
		c-0.2-0.1-0.3-0.2-0.4-0.4c-0.1-0.2-0.1-0.3-0.1-0.5c0-0.4,0.1-0.7,0.4-0.9c0.2-0.3,0.5-0.6,0.8-0.9s0.5-0.8,0.7-1.2
		c0.2-0.4,0.4-0.9,0.5-1.5c0.1-0.5,0.2-1.1,0.2-1.7c0-0.6-0.1-1.3-0.3-2c-0.2-0.7-0.5-1.5-1-2.3c-0.2-0.2-0.3-0.5-0.3-0.8
		c0-0.6,0.3-1,1-1.3L424.3-44.3z"/>
</g>
<g id="XMLID_262_">
	<g id="XMLID_139_">
		<path id="XMLID_140_" class="st1" d="M215.9,74.2L215.9,74.2c0-5.3,4-9.9,9.7-9.9s9.6,4.6,9.6,9.7l0,0c0,5.2-4,9.7-9.7,9.7
			C219.9,83.9,215.9,79.3,215.9,74.2 M232.9,74.2L232.9,74.2c0-4.3-3.1-7.8-7.5-7.8c-4.3,0-7.4,3.4-7.4,7.8l0,0
			c0,4.3,3.1,7.8,7.5,7.8S232.9,78.5,232.9,74.2 M237.2,64.8h2.4l5.4,15.8l5.2-15.8h1.8l5.2,15.8l5.4-15.8h2.2l-6.8,19h-1.8
			L251,68.5l-5.2,15.3h-1.7L237.2,64.8z M268.6,64.8h13.7v1.9h-11.5v6.5h10.3v1.9h-10.3v6.6h11.6v1.9h-13.8V64.8z M286.6,64.8h8.1
			c2.4,0,4.1,0.7,5.3,1.9c0.9,0.9,1.5,2.2,1.5,3.7l0,0c0,3.1-2.2,5-5.2,5.4l5.7,7.7h-2.6l-5.4-7.4h-5.4v7.4h-2.1V64.8
			C286.5,64.8,286.6,64.8,286.6,64.8z M294.5,74.3c2.8,0,4.9-1.5,4.9-3.8l0,0c0-2.4-1.8-3.7-4.9-3.7h-5.9v7.7L294.5,74.3L294.5,74.3
			z M205.7,77.1H201v6.8h-2.2V64.5h7.2c4.4,0,7.2,2.4,7.2,6.2C213.2,74.9,209.9,77.1,205.7,77.1 M205.9,66.5H201v8.6h4.9
			c3.2,0,5.3-1.8,5.3-4.3C211.1,68,208.9,66.5,205.9,66.5 M339.7,16.6c-10.7,0-19.4,8.7-19.4,19.4s8.7,19.4,19.4,19.4
			s19.4-8.7,19.4-19.4C359.2,25.3,350.5,16.6,339.7,16.6 M339.7,48.1c-6.8,0-12.1-5.4-12.1-12.1c0-6.8,5.4-12.1,12.1-12.1
			c6.8,0,12.1,5.4,12.1,12.1C351.9,42.7,346.4,48.1,339.7,48.1 M315.9,48.1h1.6v7.2h-1.6c-8.4,0-15.2-6.8-15.2-15.2V6.9h7.2v9.7h9.4
			v7.2h-9.4v16.3C308.1,44.6,311.6,48.1,315.9,48.1 M252.2,31.8v23.1H245V31.8c0-4.4-3.5-7.9-7.9-7.9s-7.9,3.5-7.9,7.9v23.1H222
			V31.8c0-4.4-3.5-7.9-7.9-7.9s-7.9,3.5-7.9,7.9v23.1H199V31.8c0-8.4,6.8-15.2,15.2-15.2c4.7,0,8.8,2.1,11.6,5.3
			c2.8-3.2,6.9-5.3,11.6-5.3C245.5,16.6,252.2,23.4,252.2,31.8 M276.6,16.6c-10.7,0-19.4,8.7-19.4,19.4s8.7,19.4,19.4,19.4
			S296,46.7,296,36C295.9,25.3,287.2,16.6,276.6,16.6 M276.6,48.1c-6.8,0-12.1-5.4-12.1-12.1c0-6.8,5.4-12.1,12.1-12.1
			c6.8,0,12.1,5.4,12.1,12.1S283.2,48.1,276.6,48.1 M398.5,51.2c-8.4,6.6-20.6,5.2-27.2-3.4c-6.6-8.4-5.2-20.6,3.4-27.2
			c8.4-6.6,20.6-5.2,27.2,3.4c0-2.4,0-4.9,0-7.5h4.1v36.2c0,13-8.8,20.2-21.1,20.2c-5.6,0-11-1.3-15.9-4.1l1.9-3.7
			c4.3,2.5,9.1,3.8,14.1,3.8c9.9,0,16.8-5.6,16.8-16.6c0-1.5,0-3.1,0-4.6C400.7,49.2,399.6,50.3,398.5,51.2 M371.2,35.9
			c0,8.4,6.8,15.2,15.2,15.2s15.2-6.8,15.2-15.2s-6.8-15.2-15.2-15.2C378.2,20.7,371.2,27.5,371.2,35.9 M423.5,18.8h-11.6v-2.2h14.3
			v1.8l-9.6,19.3H414L423.5,18.8z"/>
	</g>
</g>
</svg>
