<?xml version="1.0" encoding="utf-8"?>
<!-- Generator: Adobe Illustrator 19.0.0, SVG Export Plug-In . SVG Version: 6.00 Build 0)  -->
<svg version="1.1" id="Capa_1" xmlns="http://www.w3.org/2000/svg" xmlns:xlink="http://www.w3.org/1999/xlink" x="0px" y="0px"
	 viewBox="100 3 300 114" style="enable-background:new 100 3 300 114;" xml:space="preserve">
<style type="text/css">
	.st0{fill:#FFFFFF;}
</style>
<g id="XMLID_2_">
	<g id="XMLID_19_">
		<path id="XMLID_20_" class="st0" d="M116.7,28.7c-1.2-1.9-1.8-3.9-1.8-5.8c0-1.7,0.4-3.4,1.3-5c0.9-1.6,2.1-3,3.8-4.3l2,1.2
			c0.2,0.1,0.3,0.2,0.4,0.4c0.1,0.1,0.1,0.3,0.1,0.4c0,0.2,0,0.3-0.1,0.4c-0.1,0.1-0.1,0.3-0.2,0.4c-0.2,0.3-0.5,0.6-0.7,0.9
			c-0.2,0.3-0.5,0.7-0.7,1.1c-0.2,0.4-0.4,0.9-0.5,1.3c-0.1,0.5-0.2,1-0.2,1.6s0.1,1.2,0.3,1.9c0.2,0.7,0.5,1.4,1,2.1
			c0.2,0.2,0.2,0.5,0.2,0.7c0,0.6-0.3,0.9-0.9,1.2L116.7,28.7z M125.3,28.7c-1.2-1.9-1.8-3.9-1.8-5.8c0-1.7,0.4-3.4,1.3-5
			c0.9-1.6,2.1-3,3.8-4.3l2,1.2c0.2,0.1,0.3,0.2,0.4,0.4c0.1,0.1,0.1,0.3,0.1,0.4c0,0.2,0,0.3-0.1,0.4c-0.1,0.1-0.1,0.3-0.2,0.4
			c-0.2,0.3-0.5,0.6-0.7,0.9c-0.2,0.3-0.5,0.7-0.7,1.1c-0.2,0.4-0.4,0.9-0.5,1.3c-0.1,0.5-0.2,1-0.2,1.6s0.1,1.2,0.3,1.9
			c0.2,0.7,0.5,1.4,1,2.1c0.2,0.2,0.2,0.5,0.2,0.7c0,0.6-0.3,0.9-0.9,1.2L125.3,28.7z"/>
		<path id="XMLID_23_" class="st0" d="M161.2,45.2c0.4,0,0.7,0.1,1,0.4l2.8,3c-1.5,1.9-3.4,3.3-5.6,4.3c-2.2,1-4.9,1.5-8,1.5
			c-2.8,0-5.3-0.5-7.5-1.4c-2.2-1-4.1-2.3-5.7-4c-1.6-1.7-2.8-3.7-3.6-6.1c-0.8-2.4-1.3-4.9-1.3-7.7s0.5-5.4,1.4-7.8
			c0.9-2.3,2.2-4.4,3.9-6.1c1.7-1.7,3.7-3,6.1-4c2.4-1,5-1.4,7.8-1.4c2.8,0,5.2,0.4,7.3,1.3c2.1,0.9,3.9,2.1,5.4,3.5l-2.3,3.2
			c-0.1,0.2-0.3,0.4-0.5,0.5c-0.4,0.5-0.7,0.6-1,0.6c-0.4,0-0.8-0.2-1.2-0.5c-0.4-0.3-0.9-0.6-1.6-1c-0.6-0.4-1.5-0.7-2.4-1
			c-1-0.3-2.2-0.5-3.7-0.5c-1.8,0-3.4,0.3-4.9,0.9c-1.5,0.6-2.8,1.5-3.8,2.6c-1.1,1.1-1.9,2.5-2.5,4.2c-0.6,1.6-0.9,3.5-0.9,5.5
			c0,2.1,0.3,4,0.9,5.6c0.6,1.6,1.4,3,2.4,4.2c1,1.1,2.2,2,3.6,2.6c1.4,0.6,2.9,0.9,4.5,0.9c1,0,1.8-0.1,2.6-0.2
			c0.8-0.1,1.5-0.3,2.1-0.5c0.6-0.2,1.3-0.5,1.8-0.9s1.2-0.8,1.7-1.3c0.2-0.2,0.4-0.3,0.5-0.4C160.7,45.2,160.9,45.2,161.2,45.2z"/>
		<path id="XMLID_25_" class="st0" d="M201.9,54.1h-7V37.6h-17.7V54h-7V16.5h7v16.2h17.6V16.5h7v37.6H201.9z"/>
		<path id="XMLID_27_" class="st0" d="M233.1,16.5v5.6h-16.6v10.4h13.1v5.4h-13.1v10.6h16.6v5.6h-23.7V16.5H233.1z"/>
		<path id="XMLID_29_" class="st0" d="M235.5,16.5h5.6c0.6,0,1.1,0.1,1.5,0.4c0.4,0.3,0.7,0.7,0.9,1.1l8.8,22.9
			c0.3,0.7,0.6,1.6,0.8,2.5s0.5,1.8,0.8,2.8c0.4-2,0.9-3.7,1.5-5.3l8.8-22.9c0.2-0.4,0.4-0.8,0.8-1.1c0.4-0.3,0.9-0.5,1.5-0.5h5.6
			L257,54.1h-6.3L235.5,16.5z"/>
		<path id="XMLID_31_" class="st0" d="M299.7,16.5v5.6h-16.6v10.4h13.1v5.4h-13.1v10.6h16.6v5.6H276V16.5H299.7z"/>
		<path id="XMLID_33_" class="st0" d="M313,39.4v14.7h-7V16.5h11.5c2.6,0,4.8,0.3,6.6,0.8s3.3,1.3,4.5,2.2c1.2,1,2,2.1,2.6,3.4
			s0.8,2.8,0.8,4.4c0,1.3-0.2,2.5-0.6,3.6c-0.4,1.1-0.9,2.1-1.6,3.1c-0.7,0.9-1.6,1.7-2.6,2.4s-2.2,1.2-3.5,1.7
			c0.9,0.5,1.6,1.2,2.3,2.2l9.4,13.9h-6.3c-0.6,0-1.1-0.1-1.5-0.4c-0.4-0.3-0.8-0.6-1.1-1l-7.9-12c-0.3-0.5-0.6-0.8-1-1
			c-0.4-0.2-0.9-0.3-1.6-0.3h-3V39.4z M313,34.4h4.4c1.3,0,2.5-0.2,3.4-0.5c1-0.3,1.8-0.8,2.4-1.4c0.6-0.6,1.1-1.3,1.4-2.1
			s0.5-1.7,0.5-2.6c0-1.9-0.6-3.4-1.9-4.4c-1.3-1-3.2-1.5-5.8-1.5H313V34.4z"/>
		<path id="XMLID_36_" class="st0" d="M363.5,16.5v5.6h-16.6v10.4H360v5.4h-13.1v10.6h16.6v5.6h-23.7V16.5H363.5z"/>
		<path id="XMLID_38_" class="st0" d="M373.8,14.3c0.6,1,1.1,1.9,1.3,2.9s0.4,1.9,0.4,2.9c0,1.7-0.4,3.4-1.3,5s-2.1,3-3.8,4.4
			l-2-1.2c-0.2-0.1-0.3-0.2-0.4-0.4c-0.1-0.1-0.1-0.3-0.1-0.4c0-0.3,0.1-0.6,0.3-0.8c0.2-0.3,0.5-0.6,0.7-0.9
			c0.2-0.3,0.5-0.7,0.7-1.1c0.2-0.4,0.4-0.9,0.5-1.4s0.2-1,0.2-1.6s-0.1-1.2-0.3-1.9c-0.2-0.7-0.5-1.4-1-2.1
			c-0.2-0.2-0.2-0.5-0.2-0.7c0-0.6,0.3-0.9,1-1.2L373.8,14.3z M382.4,14.3c0.6,1,1.1,1.9,1.3,2.9s0.4,1.9,0.4,2.9
			c0,1.7-0.4,3.4-1.3,5s-2.1,3-3.8,4.4l-2-1.2c-0.2-0.1-0.3-0.2-0.4-0.4c-0.1-0.1-0.1-0.3-0.1-0.4c0-0.3,0.1-0.6,0.3-0.8
			c0.2-0.3,0.5-0.6,0.7-0.9c0.3-0.3,0.5-0.7,0.7-1.1c0.2-0.4,0.4-0.9,0.5-1.4s0.2-1,0.2-1.6s-0.1-1.2-0.3-1.9
			c-0.2-0.7-0.5-1.4-1-2.1c-0.2-0.2-0.2-0.5-0.2-0.7c0-0.6,0.3-0.9,1-1.2L382.4,14.3z"/>
	</g>
</g>
<g id="XMLID_295_">
	<g id="XMLID_296_">
		<path id="XMLID_297_" class="st0" d="M381.5,73.8h-7.9v-1.5h9.7v1.2l-6.5,13.1H375L381.5,73.8z M346.1,85.4
			c0,5.7,4.6,10.3,10.3,10.3c5.7,0,10.3-4.6,10.3-10.3c0-5.7-4.6-10.3-10.3-10.3S346.1,79.7,346.1,85.4 M364.5,95.8
			c-5.7,4.5-14,3.5-18.5-2.3c-4.5-5.7-3.5-14,2.3-18.5c5.7-4.5,14-3.5,18.5,2.3c0-1.6,0-3.3,0-5.1h2.8v24.6c0,8.8-6,13.7-14.3,13.7
			c-3.8,0-7.5-0.9-10.8-2.8l1.3-2.5c2.9,1.7,6.2,2.6,9.6,2.6c6.7,0,11.4-3.8,11.4-11.3c0-1,0-2.1,0-3.1
			C366.1,94.4,365.4,95.2,364.5,95.8 M281.7,93.7c-4.6,0-8.2-3.7-8.2-8.2c0-4.6,3.7-8.2,8.2-8.2c4.6,0,8.2,3.7,8.2,8.2
			C290,90,286.3,93.7,281.7,93.7 M281.7,72.3c-7.3,0-13.2,5.9-13.2,13.2c0,7.3,5.9,13.2,13.2,13.2c7.3,0,13.2-5.9,13.2-13.2
			C294.9,78.2,289,72.3,281.7,72.3 M265.2,82.6v15.7h-4.9V82.6c0-3-2.4-5.4-5.4-5.4c-3,0-5.4,2.4-5.4,5.4v15.7h-4.9V82.6
			c0-3-2.4-5.4-5.4-5.4s-5.4,2.4-5.4,5.4v15.7h-4.9V82.6c0-5.7,4.6-10.3,10.3-10.3c3.2,0,6,1.4,7.9,3.6c1.9-2.2,4.7-3.6,7.9-3.6
			C260.6,72.3,265.2,76.9,265.2,82.6 M308.5,93.7h1.1v4.9h-1.1c-5.7,0-10.3-4.6-10.3-10.3V65.7h4.9v6.6h6.4v4.9h-6.4v11.1
			C303.1,91.3,305.6,93.7,308.5,93.7 M324.6,93.7c-4.6,0-8.2-3.7-8.2-8.2c0-4.6,3.7-8.2,8.2-8.2c4.6,0,8.2,3.7,8.2,8.2
			C332.9,90,329.1,93.7,324.6,93.7 M324.6,72.3c-7.3,0-13.2,5.9-13.2,13.2c0,7.3,5.9,13.2,13.2,13.2s13.2-5.9,13.2-13.2
			C337.8,78.2,331.9,72.3,324.6,72.3"/>
	</g>
</g>
</svg>
