<?xml version="1.0" encoding="utf-8"?>
<!-- Generator: Adobe Illustrator 19.0.0, SVG Export Plug-In . SVG Version: 6.00 Build 0)  -->
<svg version="1.1" id="Capa_1" xmlns="http://www.w3.org/2000/svg" xmlns:xlink="http://www.w3.org/1999/xlink" x="0px" y="0px"
	 viewBox="0 0 70 70" style="enable-background:new 0 0 70 70;" xml:space="preserve">
<style type="text/css">
	.st0{fill:#FFFFFF;}
	.st1{fill:#C42E41;}
</style>
<g id="XMLID_2908_">
	<path id="XMLID_2958_" class="st0" d="M63.4,57.3L51.3,45.2l8.6-5c0.7-0.4,1.1-1.1,1-1.9c-0.1-0.8-0.6-1.5-1.3-1.7L21.2,21.2
		c-0.8-0.3-1.6-0.1-2.2,0.5c-0.6,0.6-0.8,1.4-0.5,2.2l15.4,38.5c0.3,0.7,1,1.2,1.7,1.3c0.8,0.1,1.5-0.3,1.9-1l5-8.6l12.1,12.1
		c0.4,0.4,0.9,0.6,1.4,0.6c0.5,0,1.1-0.2,1.4-0.6l5.9-5.9C64.2,59.4,64.2,58.1,63.4,57.3z"/>
	<g id="XMLID_2399_">
		<path id="XMLID_2957_" class="st1" d="M12.1,11.9c-0.8-0.8-2.1-0.8-2.9,0c-0.8,0.8-0.8,2.1,0,2.9l4.5,4.5c0.4,0.4,0.9,0.6,1.4,0.6
			c0.5,0,1-0.2,1.4-0.6c0.8-0.8,0.8-2.1,0-2.9L12.1,11.9z"/>
		<path id="XMLID_2956_" class="st1" d="M13.6,25.9c0-1.1-0.9-2-2-2H5.2c-1.1,0-2,0.9-2,2s0.9,2,2,2h6.4
			C12.7,28,13.6,27.1,13.6,25.9z"/>
		<path id="XMLID_2955_" class="st1" d="M12.8,32.2l-4.5,4.5c-0.8,0.8-0.8,2.1,0,2.9c0.4,0.4,0.9,0.6,1.4,0.6s1-0.2,1.4-0.6l4.5-4.5
			c0.8-0.8,0.8-2.1,0-2.9C14.9,31.4,13.6,31.4,12.8,32.2z"/>
		<path id="XMLID_2954_" class="st1" d="M23.3,16.3c1.1,0,2-0.9,2-2V7.8c0-1.1-0.9-2-2-2c-1.1,0-2,0.9-2,2v6.4
			C21.2,15.4,22.2,16.3,23.3,16.3z"/>
		<path id="XMLID_2953_" class="st1" d="M31,18.9c0.5,0,1-0.2,1.4-0.6l4.5-4.5c0.8-0.8,0.8-2.1,0-2.9c-0.8-0.8-2.1-0.8-2.9,0
			l-4.5,4.5c-0.8,0.8-0.8,2.1,0,2.9C30,18.7,30.5,18.9,31,18.9z"/>
	</g>
</g>
</svg>
