<?xml version="1.0" encoding="utf-8"?>
<!-- Generator: Adobe Illustrator 19.0.0, SVG Export Plug-In . SVG Version: 6.00 Build 0)  -->
<svg version="1.1" id="Capa_1" xmlns="http://www.w3.org/2000/svg" xmlns:xlink="http://www.w3.org/1999/xlink" x="0px" y="0px"
	 viewBox="0 0 35 35" style="enable-background:new 0 0 35 35;" xml:space="preserve">
<style type="text/css">
	.st0{fill:#C42E41;}
</style>
<g id="XMLID_671_">
	<path id="XMLID_679_" class="st0" d="M19.3,1.9c0-1-0.8-1.9-1.8-1.9c-1,0-1.8,0.8-1.8,1.9v5.9c0,0.5,0.2,1,0.5,1.3
		c0.3,0.3,0.8,0.6,1.2,0.6c1,0,1.8-0.8,1.8-1.9L19.3,1.9z"/>
	<path id="XMLID_678_" class="st0" d="M11.7,12.1c0.7-0.7,0.7-1.9,0-2.7L7.8,5.2C7.1,4.5,6,4.5,5.3,5.2s-0.7,1.9,0,2.7l3.9,4.2
		C9.9,12.8,11,12.8,11.7,12.1z"/>
	<path id="XMLID_677_" class="st0" d="M7.3,15.6l-5.5,0c-1,0-1.8,0.8-1.8,1.9c0,0.5,0.2,1,0.5,1.3c0.3,0.3,0.8,0.6,1.2,0.6l5.5,0
		c1,0,1.8-0.8,1.8-1.9C9.1,16.5,8.3,15.6,7.3,15.6z"/>
	<path id="XMLID_676_" class="st0" d="M23.5,12.1c0.7,0.7,1.8,0.7,2.5,0l3.9-4.2c0.7-0.7,0.7-1.9,0-2.7c-0.7-0.7-1.8-0.7-2.5,0
		l-3.9,4.2C22.8,10.1,22.8,11.3,23.5,12.1z"/>
	<path id="XMLID_675_" class="st0" d="M26.6,18.8c0.3,0.3,0.8,0.6,1.2,0.6l5.5,0c1,0,1.8-0.8,1.8-1.9c0-1-0.8-1.9-1.8-1.9l-5.5,0
		c-1,0-1.8,0.8-1.8,1.9C26,18,26.2,18.5,26.6,18.8z"/>
	<path id="XMLID_674_" class="st0" d="M15.8,33.1c0,1,0.8,1.9,1.8,1.9c1,0,1.8-0.8,1.8-1.9v-5.9c0-0.5-0.2-1-0.5-1.3
		c-0.3-0.3-0.8-0.6-1.2-0.6c-1,0-1.8,0.8-1.8,1.9L15.8,33.1z"/>
	<path id="XMLID_673_" class="st0" d="M23.5,22.9c-0.7,0.7-0.7,1.9,0,2.7l3.9,4.2c0.7,0.7,1.8,0.7,2.5,0c0.7-0.7,0.7-1.9,0-2.7
		l-3.9-4.2C25.3,22.2,24.1,22.2,23.5,22.9z"/>
	<path id="XMLID_672_" class="st0" d="M11.7,22.9c-0.7-0.7-1.8-0.7-2.5,0l-3.9,4.2c-0.7,0.7-0.7,1.9,0,2.7c0.7,0.7,1.8,0.7,2.5,0
		l3.9-4.2C12.4,24.9,12.4,23.7,11.7,22.9z"/>
</g>
</svg>
