<?xml version="1.0" encoding="utf-8"?>
<!-- Generator: Adobe Illustrator 19.0.0, SVG Export Plug-In . SVG Version: 6.00 Build 0)  -->
<svg version="1.1" id="Capa_1" xmlns="http://www.w3.org/2000/svg" xmlns:xlink="http://www.w3.org/1999/xlink" x="0px" y="0px"
	 viewBox="0 0 70 70" style="enable-background:new 0 0 70 70;" xml:space="preserve">
<style type="text/css">
	.st0{fill:#FFFFFF;}
	.st1{fill:#C42E41;}
</style>
<g id="XMLID_1180_">
	<path id="XMLID_1187_" class="st0" d="M48.3,31.5c-0.7,0-1.4,0.2-2,0.4c-0.8-1.9-2.6-3.3-4.8-3.3c-0.8,0-1.6,0.2-2.3,0.5
		c-0.9-1.7-2.6-2.8-4.6-2.8c-0.6,0-1.1,0.1-1.7,0.3v-5.7c0-2.9-2.3-5.2-5.2-5.2c-2.9,0-5.2,2.3-5.2,5.2v20.6l-3.7-4.3
		c0,0-0.1-0.1-0.1-0.1c-1-1-2.3-1.5-3.7-1.5c0,0,0,0,0,0c-1.4,0-2.7,0.5-3.6,1.5c-1.7,1.7-1.8,4.2-0.3,7c2,3.5,4.2,6.8,6.1,9.8
		C18.7,56,20,58,21,59.7c0.8,1.4,3.1,6.1,3.1,6.2c0.3,0.6,0.9,1,1.6,1h22.1c0.8,0,1.4-0.5,1.7-1.2c0.4-1.3,4-12.7,4-17V36.7
		C53.4,33.8,51.1,31.5,48.3,31.5z M32.9,37.2v-5.7c0-0.9,0.8-1.7,1.7-1.7c0.9,0,1.7,0.8,1.7,1.7v8c0,1,0.8,1.7,1.7,1.7
		c1,0,1.7-0.8,1.7-1.7v-5.7c0-0.9,0.8-1.7,1.7-1.7c0.9,0,1.7,0.8,1.7,1.7v8c0,1,0.8,1.7,1.7,1.7c1,0,1.7-0.8,1.7-1.7v-5.1h0
		c0-0.9,0.8-1.7,1.7-1.7c0.9,0,1.7,0.8,1.7,1.7v11.9c0,2.9-2.2,10.8-3.5,14.8H26.7c-0.7-1.5-2.1-4.3-2.7-5.4c-1-1.8-2.4-3.8-3.8-6
		c-1.9-2.9-4-6.1-6-9.6c-0.5-0.9-1-2.1-0.3-2.8c0.3-0.3,0.7-0.5,1.2-0.5c0.4,0,0.9,0.2,1.2,0.5l6.7,7.7c0.5,0.5,1.2,0.7,1.9,0.5
		c0.7-0.3,1.1-0.9,1.1-1.6V20.9c0-0.9,0.8-1.7,1.7-1.7c0.9,0,1.7,0.8,1.7,1.7v16.3c0,0,0,2,1.7,2S32.9,37.2,32.9,37.2z"/>
	<g id="XMLID_1181_">
		<path id="XMLID_1186_" class="st1" d="M29.9,3.6c0-0.9-0.8-1.7-1.7-1.7c-0.9,0-1.7,0.8-1.7,1.7V9c0,0.5,0.2,0.9,0.5,1.2
			c0.3,0.3,0.7,0.5,1.2,0.5c0.9,0,1.7-0.8,1.7-1.7L29.9,3.6z"/>
		<path id="XMLID_1185_" class="st1" d="M22.5,12.9c0.7-0.7,0.7-1.8,0-2.4l-3.8-3.8C18,6,16.9,6,16.3,6.7c-0.7,0.7-0.7,1.8,0,2.4
			l3.8,3.8C20.7,13.6,21.8,13.6,22.5,12.9z"/>
		<path id="XMLID_1184_" class="st1" d="M18.3,16.2l-5.4,0c-0.9,0-1.7,0.8-1.7,1.7c0,0.5,0.2,0.9,0.5,1.2c0.3,0.3,0.7,0.5,1.2,0.5
			l5.4,0c0.9,0,1.7-0.8,1.7-1.7C20,16.9,19.2,16.2,18.3,16.2z"/>
		<path id="XMLID_1183_" class="st1" d="M34,12.9c0.7,0.7,1.8,0.7,2.4,0l3.8-3.8c0.7-0.7,0.7-1.8,0-2.4c-0.7-0.7-1.8-0.7-2.4,0
			L34,10.5C33.3,11.2,33.3,12.3,34,12.9z"/>
		<path id="XMLID_1182_" class="st1" d="M37,19.1c0.3,0.3,0.7,0.5,1.2,0.5l5.4,0c0.9,0,1.7-0.8,1.7-1.7c0-0.9-0.8-1.7-1.7-1.7
			l-5.4,0c-0.9,0-1.7,0.8-1.7,1.7C36.5,18.4,36.7,18.8,37,19.1z"/>
	</g>
</g>
</svg>
