<?xml version="1.0" encoding="utf-8"?>
<!-- Generator: Adobe Illustrator 19.0.0, SVG Export Plug-In . SVG Version: 6.00 Build 0)  -->
<svg version="1.1" id="Capa_1" xmlns="http://www.w3.org/2000/svg" xmlns:xlink="http://www.w3.org/1999/xlink" x="0px" y="0px"
	 viewBox="100 -37 300 175" style="enable-background:new 100 -37 300 175;" xml:space="preserve">
<style type="text/css">
	.st0{font-family:'Lato-Bold';}
	.st1{font-size:52.9541px;}
	.st2{font-family:'Lato-Regular';}
	.st3{font-size:39.0688px;}
</style>
<g id="XMLID_1_">
	<g id="XMLID_37_">
		<path id="XMLID_38_" d="M124.8-238c-1.2-1.9-1.8-3.9-1.8-5.8c0-1.7,0.4-3.4,1.3-5c0.9-1.6,2.1-3,3.8-4.3l2,1.2
			c0.2,0.1,0.3,0.2,0.4,0.4c0.1,0.1,0.1,0.3,0.1,0.4c0,0.2,0,0.3-0.1,0.4c-0.1,0.1-0.1,0.3-0.2,0.4c-0.2,0.3-0.5,0.6-0.7,0.9
			c-0.3,0.3-0.5,0.7-0.7,1.1c-0.2,0.4-0.4,0.9-0.5,1.3c-0.1,0.5-0.2,1-0.2,1.6c0,0.6,0.1,1.2,0.3,1.9c0.2,0.7,0.5,1.4,1,2.1
			c0.2,0.2,0.2,0.5,0.2,0.7c0,0.6-0.3,0.9-0.9,1.2L124.8-238z M133.4-238c-1.2-1.9-1.8-3.9-1.8-5.8c0-1.7,0.4-3.4,1.3-5
			c0.9-1.6,2.1-3,3.8-4.3l2,1.2c0.2,0.1,0.3,0.2,0.4,0.4c0.1,0.1,0.1,0.3,0.1,0.4c0,0.2,0,0.3-0.1,0.4c-0.1,0.1-0.1,0.3-0.2,0.4
			c-0.2,0.3-0.5,0.6-0.7,0.9c-0.3,0.3-0.5,0.7-0.7,1.1c-0.2,0.4-0.4,0.9-0.5,1.3c-0.1,0.5-0.2,1-0.2,1.6c0,0.6,0.1,1.2,0.3,1.9
			c0.2,0.7,0.5,1.4,1,2.1c0.2,0.2,0.2,0.5,0.2,0.7c0,0.6-0.3,0.9-0.9,1.2L133.4-238z"/>
		<path id="XMLID_41_" d="M164.3-226.5c0.3,0.6,0.5,1.2,0.7,1.8c0.2-0.6,0.5-1.2,0.8-1.8c0.3-0.6,0.5-1.2,0.8-1.7l11.1-20.8
			c0.1-0.3,0.3-0.5,0.4-0.6c0.1-0.1,0.3-0.3,0.5-0.3c0.2-0.1,0.4-0.1,0.6-0.1c0.2,0,0.5,0,0.8,0h5.3v37.6h-6.2v-24.5
			c0-0.5,0-0.9,0-1.5c0-0.5,0.1-1.1,0.1-1.6L168-218.7c-0.3,0.5-0.6,0.9-1,1.1c-0.4,0.3-0.9,0.4-1.5,0.4h-1c-0.6,0-1-0.1-1.5-0.4
			c-0.4-0.3-0.8-0.6-1-1.1l-11.4-21.4c0.1,0.6,0.1,1.1,0.1,1.7c0,0.6,0,1.1,0,1.5v24.3h-6.2v-37.6h5.3c0.3,0,0.6,0,0.8,0
			s0.4,0.1,0.6,0.1c0.2,0.1,0.4,0.2,0.5,0.3c0.2,0.2,0.3,0.4,0.4,0.6l11.2,20.9C163.7-227.7,164-227.1,164.3-226.5z"/>
		<path id="XMLID_43_" d="M225.9-212.6h-5.4c-0.6,0-1.1-0.2-1.5-0.5c-0.4-0.3-0.7-0.7-0.8-1.1l-2.8-7.7h-15.6l-2.8,7.7
			c-0.1,0.4-0.4,0.8-0.8,1.1c-0.4,0.3-0.9,0.5-1.5,0.5h-5.4l14.7-37.6h7.1L225.9-212.6z M201.6-226.8h12l-4.6-12.5
			c-0.2-0.6-0.4-1.2-0.7-2c-0.3-0.8-0.5-1.6-0.7-2.5c-0.2,0.9-0.5,1.7-0.7,2.5c-0.2,0.8-0.5,1.4-0.7,2L201.6-226.8z M217.5-259.2
			l-7.7,5.6c-0.2,0.1-0.4,0.3-0.5,0.3c-0.2,0.1-0.3,0.2-0.5,0.2c-0.2,0.1-0.3,0.1-0.5,0.1s-0.4,0-0.6,0h-5l5.1-5.2
			c0.2-0.2,0.4-0.4,0.6-0.5c0.2-0.1,0.4-0.2,0.6-0.3c0.2-0.1,0.4-0.1,0.6-0.2c0.2,0,0.5,0,0.9,0
			C210.5-259.2,217.5-259.2,217.5-259.2z"/>
		<path id="XMLID_47_" d="M249.9-243.4c-0.2,0.4-0.4,0.6-0.7,0.8c-0.3,0.2-0.5,0.2-0.9,0.2c-0.3,0-0.7-0.1-1.2-0.4s-0.9-0.6-1.5-0.9
			s-1.3-0.6-2.1-0.9s-1.7-0.4-2.8-0.4c-1,0-1.8,0.1-2.5,0.4c-0.7,0.2-1.3,0.6-1.8,1c-0.5,0.4-0.9,0.9-1.1,1.5
			c-0.2,0.6-0.4,1.2-0.4,1.9c0,0.9,0.2,1.6,0.7,2.2c0.5,0.6,1.1,1.1,2,1.5s1.7,0.8,2.8,1.1c1,0.3,2.1,0.7,3.2,1.1
			c1.1,0.4,2.1,0.8,3.2,1.3c1,0.5,2,1.1,2.8,1.9s1.5,1.7,2,2.8s0.7,2.4,0.7,4c0,1.7-0.3,3.3-0.9,4.8c-0.6,1.5-1.4,2.8-2.5,3.9
			c-1.1,1.1-2.5,2-4.1,2.6s-3.5,0.9-5.5,0.9c-1.2,0-2.4-0.1-3.5-0.4c-1.2-0.2-2.3-0.6-3.3-1c-1.1-0.4-2.1-1-3-1.6
			c-0.9-0.6-1.8-1.3-2.5-2l2-3.4c0.2-0.2,0.4-0.4,0.7-0.6c0.3-0.2,0.6-0.2,0.9-0.2c0.4,0,0.9,0.2,1.4,0.5c0.5,0.4,1.1,0.7,1.8,1.2
			c0.7,0.4,1.5,0.8,2.4,1.2c0.9,0.4,2,0.5,3.3,0.5c2,0,3.5-0.5,4.6-1.4s1.6-2.3,1.6-4.1c0-1-0.2-1.8-0.7-2.4s-1.1-1.1-2-1.6
			c-0.8-0.4-1.7-0.8-2.8-1.1c-1-0.3-2.1-0.6-3.2-1c-1.1-0.3-2.1-0.8-3.2-1.2c-1-0.5-2-1.1-2.8-1.9s-1.5-1.8-2-2.9
			c-0.5-1.2-0.7-2.6-0.7-4.3c0-1.4,0.3-2.7,0.8-4s1.3-2.4,2.4-3.5c1-1,2.3-1.8,3.9-2.4c1.5-0.6,3.3-0.9,5.2-0.9c2.2,0,4.3,0.3,6.1,1
			c1.9,0.7,3.5,1.7,4.8,2.9L249.9-243.4z"/>
		<path id="XMLID_49_" d="M274.9-225.9v13.2h-7v-37.5h12.2c2.5,0,4.7,0.3,6.5,0.9c1.8,0.6,3.3,1.4,4.5,2.5c1.2,1.1,2.1,2.3,2.6,3.8
			s0.9,3.1,0.9,4.8c0,1.8-0.3,3.5-0.9,5c-0.6,1.5-1.5,2.8-2.7,3.9c-1.2,1.1-2.7,1.9-4.5,2.5c-1.8,0.6-3.9,0.9-6.4,0.9
			C280.1-225.9,274.9-225.9,274.9-225.9z M274.9-231.3h5.2c1.3,0,2.4-0.2,3.4-0.5c1-0.3,1.7-0.8,2.4-1.4c0.7-0.6,1.1-1.3,1.4-2.2
			c0.3-0.9,0.5-1.8,0.5-2.9c0-1-0.2-1.9-0.5-2.7c-0.3-0.8-0.8-1.5-1.4-2.1c-0.6-0.6-1.4-1-2.4-1.3s-2.1-0.5-3.4-0.5h-5.2V-231.3z"/>
		<path id="XMLID_52_" d="M307.3-227.3v14.7h-7v-37.6h11.5c2.6,0,4.8,0.3,6.6,0.8c1.8,0.5,3.3,1.3,4.5,2.2c1.2,1,2,2.1,2.6,3.4
			c0.5,1.3,0.8,2.8,0.8,4.4c0,1.3-0.2,2.5-0.6,3.6c-0.4,1.1-0.9,2.1-1.6,3.1c-0.7,0.9-1.6,1.7-2.6,2.4c-1,0.7-2.2,1.2-3.5,1.7
			c0.9,0.5,1.6,1.2,2.3,2.2l9.4,13.9h-6.3c-0.6,0-1.1-0.1-1.5-0.4s-0.8-0.6-1.1-1l-7.9-12c-0.3-0.5-0.6-0.8-1-1s-0.9-0.3-1.6-0.3h-3
			V-227.3z M307.3-232.3h4.4c1.3,0,2.5-0.2,3.4-0.5c1-0.3,1.8-0.8,2.4-1.4c0.6-0.6,1.1-1.3,1.4-2.1c0.3-0.8,0.5-1.7,0.5-2.6
			c0-1.9-0.6-3.4-1.9-4.4c-1.3-1-3.2-1.5-5.8-1.5h-4.5v12.5H307.3z"/>
		<path id="XMLID_55_" d="M368.9-231.4c0,2.8-0.5,5.3-1.4,7.6c-0.9,2.3-2.2,4.4-3.9,6.1s-3.7,3.1-6,4c-2.3,1-4.9,1.4-7.8,1.4
			c-2.9,0-5.4-0.5-7.8-1.4s-4.4-2.3-6-4s-3-3.7-3.9-6.1c-0.9-2.3-1.4-4.9-1.4-7.6s0.5-5.3,1.4-7.6c0.9-2.3,2.2-4.4,3.9-6.1
			s3.7-3.1,6-4c2.3-1,4.9-1.4,7.8-1.4c2.9,0,5.4,0.5,7.8,1.5c2.3,1,4.3,2.3,6,4c1.7,1.7,3,3.7,3.9,6.1
			C368.5-236.7,368.9-234.2,368.9-231.4z M361.7-231.4c0-2.1-0.3-3.9-0.8-5.5c-0.5-1.6-1.3-3-2.4-4.2c-1-1.1-2.3-2-3.7-2.6
			c-1.4-0.6-3.1-0.9-4.9-0.9s-3.5,0.3-5,0.9s-2.7,1.5-3.8,2.6c-1,1.1-1.8,2.5-2.4,4.2c-0.6,1.6-0.8,3.5-0.8,5.5
			c0,2.1,0.3,3.9,0.8,5.5c0.5,1.6,1.3,3,2.4,4.2c1,1.1,2.3,2,3.8,2.6c1.5,0.6,3.1,0.9,5,0.9c1.8,0,3.5-0.3,4.9-0.9
			c1.4-0.6,2.7-1.5,3.7-2.6s1.8-2.5,2.4-4.2S361.7-229.4,361.7-231.4z"/>
		<path id="XMLID_58_" d="M377.6-252.4c0.6,1,1.1,1.9,1.3,2.9s0.4,1.9,0.4,2.9c0,1.7-0.4,3.4-1.3,5c-0.9,1.6-2.1,3-3.8,4.4l-2-1.2
			c-0.2-0.1-0.3-0.2-0.4-0.4c-0.1-0.1-0.1-0.3-0.1-0.4c0-0.3,0.1-0.6,0.3-0.8c0.2-0.3,0.5-0.6,0.7-0.9c0.3-0.3,0.5-0.7,0.7-1.1
			c0.2-0.4,0.4-0.9,0.5-1.4s0.2-1,0.2-1.6c0-0.6-0.1-1.2-0.3-1.9c-0.2-0.7-0.5-1.4-1-2.1c-0.2-0.2-0.2-0.5-0.2-0.7
			c0-0.6,0.3-0.9,1-1.2L377.6-252.4z M386.2-252.4c0.6,1,1.1,1.9,1.3,2.9s0.4,1.9,0.4,2.9c0,1.7-0.4,3.4-1.3,5
			c-0.9,1.6-2.1,3-3.8,4.4l-2-1.2c-0.2-0.1-0.3-0.2-0.4-0.4c-0.1-0.1-0.1-0.3-0.1-0.4c0-0.3,0.1-0.6,0.3-0.8
			c0.2-0.3,0.5-0.6,0.7-0.9s0.5-0.7,0.7-1.1c0.2-0.4,0.4-0.9,0.5-1.4s0.2-1,0.2-1.6c0-0.6-0.1-1.2-0.3-1.9c-0.2-0.7-0.5-1.4-1-2.1
			c-0.2-0.2-0.2-0.5-0.2-0.7c0-0.6,0.3-0.9,1-1.2L386.2-252.4z"/>
	</g>
	<g id="XMLID_2_">
		<path id="XMLID_3_" d="M126-268.1v6.6h-3.5v-18.8h6.1c1.3,0,2.3,0.1,3.3,0.4c0.9,0.3,1.7,0.7,2.3,1.2c0.6,0.5,1,1.2,1.3,1.9
			c0.3,0.7,0.4,1.5,0.4,2.4c0,0.9-0.2,1.7-0.5,2.5c-0.3,0.8-0.8,1.4-1.4,2c-0.6,0.5-1.4,1-2.3,1.3c-0.9,0.3-2,0.5-3.2,0.5
			C128.5-268.1,126-268.1,126-268.1z M126-270.8h2.6c0.6,0,1.2-0.1,1.7-0.2c0.5-0.2,0.9-0.4,1.2-0.7s0.5-0.7,0.7-1.1
			s0.2-0.9,0.2-1.4s-0.1-1-0.2-1.4c-0.2-0.4-0.4-0.8-0.7-1c-0.3-0.2-0.7-0.5-1.2-0.7c-0.5-0.2-1-0.2-1.7-0.2H126V-270.8z"/>
		<path id="XMLID_6_" d="M148.3-261.5h-1.4c-0.3,0-0.5,0-0.7-0.1s-0.3-0.3-0.4-0.6l-0.3-0.9c-0.3,0.3-0.7,0.6-1,0.8
			c-0.3,0.2-0.7,0.4-1,0.6c-0.3,0.2-0.7,0.3-1.1,0.4s-0.8,0.1-1.3,0.1c-0.6,0-1.1-0.1-1.6-0.2c-0.5-0.2-0.9-0.4-1.2-0.7
			c-0.3-0.3-0.6-0.7-0.8-1.1s-0.3-1-0.3-1.6c0-0.5,0.1-1,0.4-1.5c0.3-0.5,0.7-0.9,1.3-1.3c0.6-0.4,1.4-0.7,2.5-1
			c1-0.3,2.3-0.4,3.8-0.4v-0.8c0-0.9-0.2-1.6-0.6-2c-0.4-0.4-0.9-0.6-1.6-0.6c-0.5,0-1,0.1-1.3,0.2c-0.3,0.1-0.6,0.3-0.9,0.4
			c-0.3,0.2-0.5,0.3-0.7,0.4c-0.2,0.1-0.5,0.2-0.7,0.2c-0.2,0-0.4-0.1-0.6-0.2c-0.2-0.1-0.3-0.3-0.4-0.4l-0.6-1
			c1.5-1.4,3.4-2.1,5.6-2.1c0.8,0,1.5,0.1,2.1,0.4c0.6,0.3,1.1,0.6,1.6,1.1c0.4,0.5,0.7,1,1,1.6c0.2,0.6,0.3,1.3,0.3,2.1
			L148.3-261.5L148.3-261.5z M142-263.5c0.3,0,0.6,0,0.9-0.1c0.3-0.1,0.5-0.1,0.8-0.3c0.3-0.2,0.5-0.3,0.7-0.4
			c0.2-0.1,0.5-0.4,0.7-0.6v-2.2c-0.9,0-1.7,0.1-2.3,0.2c-0.6,0.1-1.1,0.3-1.5,0.5c-0.4,0.2-0.7,0.4-0.8,0.6
			c-0.2,0.2-0.2,0.5-0.2,0.8c0,0.6,0.2,1,0.5,1.2C141-263.6,141.5-263.5,142-263.5z"/>
		<path id="XMLID_9_" d="M151.4-261.5v-13.3h1.9c0.3,0,0.6,0.1,0.7,0.2s0.2,0.3,0.3,0.6l0.2,1.6c0.5-0.8,1-1.5,1.7-2
			c0.6-0.5,1.4-0.7,2.2-0.7c0.7,0,1.2,0.2,1.6,0.5l-0.4,2.4c0,0.2-0.1,0.3-0.2,0.3c-0.1,0.1-0.2,0.1-0.4,0.1c-0.1,0-0.3,0-0.5-0.1
			c-0.2-0.1-0.5-0.1-0.9-0.1c-0.7,0-1.2,0.2-1.7,0.6c-0.5,0.4-0.9,0.9-1.2,1.6v8.3H151.4z"/>
		<path id="XMLID_11_" d="M172.1-261.5h-1.4c-0.3,0-0.5,0-0.7-0.1s-0.3-0.3-0.4-0.6l-0.3-0.9c-0.3,0.3-0.7,0.6-1,0.8
			c-0.3,0.2-0.7,0.4-1,0.6c-0.3,0.2-0.7,0.3-1.1,0.4s-0.8,0.1-1.3,0.1c-0.6,0-1.1-0.1-1.6-0.2c-0.5-0.2-0.9-0.4-1.2-0.7
			c-0.3-0.3-0.6-0.7-0.8-1.1c-0.2-0.4-0.3-1-0.3-1.6c0-0.5,0.1-1,0.4-1.5s0.7-0.9,1.3-1.3s1.4-0.7,2.5-1c1-0.3,2.3-0.4,3.8-0.4v-0.8
			c0-0.9-0.2-1.6-0.6-2c-0.4-0.4-0.9-0.6-1.6-0.6c-0.5,0-1,0.1-1.3,0.2s-0.6,0.3-0.9,0.4c-0.3,0.2-0.5,0.3-0.7,0.4
			c-0.2,0.1-0.5,0.2-0.7,0.2s-0.4-0.1-0.6-0.2c-0.2-0.1-0.3-0.3-0.4-0.4l-0.6-1c1.5-1.4,3.4-2.1,5.6-2.1c0.8,0,1.5,0.1,2.1,0.4
			c0.6,0.3,1.1,0.6,1.6,1.1c0.4,0.5,0.7,1,1,1.6c0.2,0.6,0.3,1.3,0.3,2.1L172.1-261.5L172.1-261.5z M165.9-263.5
			c0.3,0,0.6,0,0.9-0.1s0.5-0.1,0.8-0.3c0.3-0.2,0.5-0.3,0.7-0.4s0.5-0.4,0.7-0.6v-2.2c-0.9,0-1.7,0.1-2.3,0.2
			c-0.6,0.1-1.1,0.3-1.5,0.5c-0.4,0.2-0.7,0.4-0.8,0.6c-0.2,0.2-0.2,0.5-0.2,0.8c0,0.6,0.2,1,0.5,1.2
			C164.9-263.6,165.3-263.5,165.9-263.5z"/>
		<path id="XMLID_14_" d="M185.8-275c0.8,0,1.6,0.1,2.3,0.4c0.7,0.3,1.3,0.7,1.8,1.2s0.9,1.1,1.2,1.9c0.3,0.8,0.4,1.6,0.4,2.6
			c0,0.2,0,0.4,0,0.6c0,0.2-0.1,0.3-0.1,0.4c-0.1,0.1-0.1,0.2-0.2,0.2s-0.2,0.1-0.4,0.1h-8.2c0.1,1.4,0.5,2.4,1.1,3s1.5,1,2.5,1
			c0.5,0,1-0.1,1.3-0.2s0.7-0.3,1-0.4s0.5-0.3,0.7-0.4s0.4-0.2,0.6-0.2c0.1,0,0.2,0,0.3,0.1s0.2,0.1,0.2,0.2l0.9,1.2
			c-0.4,0.4-0.8,0.8-1.2,1c-0.4,0.2-0.9,0.5-1.4,0.7c-0.5,0.2-1,0.3-1.5,0.4s-1,0.1-1.4,0.1c-0.9,0-1.8-0.2-2.6-0.5
			c-0.8-0.3-1.5-0.8-2.1-1.4c-0.6-0.6-1.1-1.3-1.4-2.2c-0.3-0.9-0.5-1.9-0.5-3.1c0-0.9,0.1-1.8,0.4-2.6c0.3-0.8,0.7-1.5,1.3-2.1
			c0.6-0.6,1.2-1.1,2-1.4C183.9-274.8,184.8-275,185.8-275z M185.9-272.7c-0.9,0-1.7,0.3-2.2,0.8s-0.9,1.3-1,2.2h6
			c0-0.4-0.1-0.8-0.2-1.2c-0.1-0.4-0.3-0.7-0.5-1c-0.2-0.3-0.5-0.5-0.9-0.7C186.8-272.6,186.3-272.7,185.9-272.7z"/>
		<path id="XMLID_17_" d="M197.6-280.8v19.3h-3.2v-19.3H197.6z"/>
	</g>
</g>
<g id="XMLID_18_">
	<g id="XMLID_19_">
		<path id="XMLID_30_" d="M270.5,125c2.9,0.6,4.2,1.7,4.2,3.7c0,2.2-1.9,3.7-4.4,3.7c-2.1,0-3.7-0.7-5.3-2.1l0.9-1.1
			c1.4,1.2,2.6,1.8,4.4,1.8c1.7,0,2.9-0.9,2.9-2.2c0-1.2-0.6-1.9-3.4-2.5c-3-0.6-4.4-1.6-4.4-3.8c0-2.1,1.8-3.6,4.3-3.6
			c1.9,0,3.2,0.5,4.6,1.6l-0.9,1.1c-1.2-1-2.4-1.4-3.7-1.4c-1.7,0-2.8,0.9-2.8,2.1C267,123.7,267.6,124.3,270.5,125 M262.7,126.7
			c0,3.8-2.2,5.7-5.4,5.7c-3.2,0-5.4-2-5.4-5.6v-7.5h1.5v7.4c0,2.8,1.5,4.4,4,4.4c2.4,0,3.9-1.4,3.9-4.3v-7.5h1.5L262.7,126.7
			L262.7,126.7z M241.5,119.2h1.5V131h7.4v1.4h-8.9V119.2z M233.6,126.3h-3.3v-5.8h3.3c2.1,0,3.5,1,3.5,2.9
			C237.2,125.2,235.8,126.3,233.6,126.3 M233.8,119.2h-4.9v13.2h1.5v-4.6h3.2c2.8,0,5.2-1.5,5.2-4.3
			C238.8,120.7,236.8,119.2,233.8,119.2"/>
		<path id="XMLID_20_" d="M381.5,88.2h-7.9v-1.5h9.7v1.2l-6.5,13.1H375L381.5,88.2z M346.1,99.8c0,5.7,4.6,10.3,10.3,10.3
			c5.7,0,10.3-4.6,10.3-10.3c0-5.7-4.6-10.3-10.3-10.3S346.1,94,346.1,99.8 M364.5,110.2c-5.7,4.5-14,3.5-18.5-2.3
			c-4.5-5.7-3.5-14,2.3-18.5c5.7-4.5,14-3.5,18.5,2.3c0-1.6,0-3.3,0-5.1h2.8v24.6c0,8.8-6,13.7-14.3,13.7c-3.8,0-7.5-0.9-10.8-2.8
			l1.3-2.5c2.9,1.7,6.2,2.6,9.6,2.6c6.7,0,11.4-3.8,11.4-11.3c0-1,0-2.1,0-3.1C366.1,108.8,365.4,109.5,364.5,110.2 M281.7,108
			c-4.6,0-8.2-3.7-8.2-8.2c0-4.6,3.7-8.2,8.2-8.2c4.6,0,8.2,3.7,8.2,8.2C290,104.3,286.3,108,281.7,108 M281.7,86.7
			c-7.3,0-13.2,5.9-13.2,13.2c0,7.3,5.9,13.2,13.2,13.2c7.3,0,13.2-5.9,13.2-13.2C294.9,92.5,289,86.7,281.7,86.7 M265.2,96.9v15.7
			h-4.9V96.9c0-3-2.4-5.4-5.4-5.4c-3,0-5.4,2.4-5.4,5.4v15.7h-4.9V96.9c0-3-2.4-5.4-5.4-5.4s-5.4,2.4-5.4,5.4v15.7h-4.9V96.9
			c0-5.7,4.6-10.3,10.3-10.3c3.2,0,6,1.4,7.9,3.6c1.9-2.2,4.7-3.6,7.9-3.6C260.6,86.7,265.2,91.2,265.2,96.9 M308.5,108h1.1v4.9
			h-1.1c-5.7,0-10.3-4.6-10.3-10.3V80h4.9v6.6h6.4v4.9h-6.4v11.1C303.1,105.7,305.6,108,308.5,108 M324.6,108
			c-4.6,0-8.2-3.7-8.2-8.2c0-4.6,3.7-8.2,8.2-8.2c4.6,0,8.2,3.7,8.2,8.2C332.9,104.3,329.1,108,324.6,108 M324.6,86.7
			c-7.3,0-13.2,5.9-13.2,13.2c0,7.3,5.9,13.2,13.2,13.2s13.2-5.9,13.2-13.2C337.8,92.5,331.9,86.7,324.6,86.7"/>
	</g>
</g>
<text transform="matrix(1 0 0 1 147.9116 44.918)" class="st0 st1">completo”</text>
<text transform="matrix(1 0 0 1 108.6665 6.5448)" class="st2 st3">“El más</text>
<text transform="matrix(1 0 0 1 188.7 -183)" class="st0" style="font-size:12px;">“El más completo”</text>
<g>
	<path d="M111.1-86.4c-0.5,0-0.9-0.3-1-0.8l-0.3-2.6c-0.9,1.1-1.9,2-3.1,2.7s-2.5,1-4,1c-1.2,0-2.3-0.2-3.3-0.7
		c-1-0.5-1.8-1.2-2.5-2.1c-0.7-0.9-1.2-2-1.6-3.4c-0.4-1.4-0.6-2.9-0.6-4.7c0-1.6,0.2-3,0.6-4.4c0.4-1.4,1-2.5,1.8-3.5
		s1.8-1.8,2.9-2.3c1.1-0.6,2.4-0.9,3.9-0.9c1.3,0,2.4,0.2,3.3,0.7c0.9,0.4,1.8,1.1,2.5,1.9v-11.8h3.7v30.9H111.1z M103.8-89.2
		c1.2,0,2.3-0.3,3.2-0.8c0.9-0.6,1.8-1.4,2.5-2.4v-10.3c-0.7-0.9-1.4-1.6-2.3-1.9c-0.8-0.4-1.7-0.6-2.7-0.6c-2,0-3.5,0.7-4.6,2.1
		c-1.1,1.4-1.6,3.4-1.6,6c0,1.4,0.1,2.6,0.4,3.6c0.2,1,0.6,1.8,1,2.4c0.5,0.6,1,1.1,1.7,1.4C102.2-89.3,102.9-89.2,103.8-89.2z"/>
	<path d="M128-108.1c1.3,0,2.4,0.2,3.5,0.6c1.1,0.4,2,1,2.8,1.8c0.8,0.8,1.4,1.8,1.8,3c0.4,1.2,0.7,2.5,0.7,4c0,0.6-0.1,1-0.2,1.2
		c-0.1,0.2-0.4,0.3-0.7,0.3h-14.2c0,1.3,0.2,2.5,0.5,3.5s0.8,1.8,1.4,2.5c0.6,0.7,1.3,1.2,2.1,1.5c0.8,0.3,1.7,0.5,2.7,0.5
		c0.9,0,1.7-0.1,2.4-0.3c0.7-0.2,1.3-0.5,1.8-0.7c0.5-0.3,0.9-0.5,1.2-0.7c0.3-0.2,0.6-0.3,0.9-0.3c0.3,0,0.5,0.1,0.7,0.4l1.1,1.4
		c-0.5,0.6-1,1-1.7,1.5s-1.3,0.8-2.1,1c-0.7,0.3-1.5,0.5-2.3,0.6c-0.8,0.1-1.6,0.2-2.3,0.2c-1.5,0-2.8-0.2-4.1-0.7
		c-1.2-0.5-2.3-1.2-3.2-2.2c-0.9-1-1.6-2.1-2.1-3.6s-0.8-3-0.8-4.9c0-1.5,0.2-2.9,0.7-4.2c0.5-1.3,1.1-2.4,2-3.4
		c0.9-0.9,1.9-1.7,3.1-2.2C125.1-107.8,126.4-108.1,128-108.1z M128.1-105.3c-1.8,0-3.2,0.5-4.3,1.6c-1,1-1.7,2.5-1.9,4.3h11.6
		c0-0.9-0.1-1.7-0.4-2.4c-0.2-0.7-0.6-1.3-1-1.9c-0.5-0.5-1-0.9-1.7-1.2C129.7-105.2,128.9-105.3,128.1-105.3z"/>
	<path d="M161.9-104.2c-0.2,0.3-0.4,0.5-0.8,0.5c-0.2,0-0.4-0.1-0.7-0.2c-0.3-0.2-0.6-0.3-1-0.5c-0.4-0.2-0.8-0.4-1.4-0.5
		c-0.5-0.2-1.2-0.2-1.9-0.2c-0.6,0-1.2,0.1-1.7,0.2c-0.5,0.2-0.9,0.4-1.3,0.7c-0.4,0.3-0.6,0.6-0.8,1c-0.2,0.4-0.3,0.8-0.3,1.2
		c0,0.5,0.2,1,0.5,1.4c0.3,0.4,0.7,0.7,1.2,0.9c0.5,0.3,1.1,0.5,1.8,0.7s1.3,0.4,2,0.7c0.7,0.2,1.4,0.5,2,0.8c0.7,0.3,1.2,0.6,1.8,1
		c0.5,0.4,0.9,0.9,1.2,1.5c0.3,0.6,0.5,1.3,0.5,2.2c0,1-0.2,1.9-0.5,2.7c-0.4,0.8-0.9,1.6-1.6,2.2c-0.7,0.6-1.5,1.1-2.5,1.4
		c-1,0.4-2.1,0.5-3.4,0.5c-1.5,0-2.8-0.2-4-0.7c-1.2-0.5-2.2-1.1-3.1-1.9l0.9-1.4c0.1-0.2,0.2-0.3,0.4-0.4c0.2-0.1,0.4-0.1,0.6-0.1
		c0.3,0,0.5,0.1,0.8,0.3c0.3,0.2,0.6,0.4,1,0.7s0.9,0.5,1.4,0.7c0.6,0.2,1.3,0.3,2.1,0.3c0.7,0,1.4-0.1,1.9-0.3
		c0.5-0.2,1-0.4,1.4-0.8c0.4-0.3,0.6-0.7,0.8-1.1c0.2-0.4,0.3-0.9,0.3-1.3c0-0.6-0.2-1.1-0.5-1.5c-0.3-0.4-0.7-0.7-1.2-1
		c-0.5-0.3-1.1-0.5-1.8-0.7s-1.3-0.4-2-0.6c-0.7-0.2-1.4-0.5-2-0.8s-1.3-0.6-1.8-1.1c-0.5-0.4-0.9-1-1.2-1.6
		c-0.3-0.6-0.5-1.4-0.5-2.3c0-0.8,0.2-1.6,0.5-2.3s0.8-1.4,1.5-2c0.6-0.6,1.4-1,2.4-1.4c0.9-0.3,2-0.5,3.2-0.5
		c1.4,0,2.7,0.2,3.8,0.7s2.1,1,2.9,1.8L161.9-104.2z"/>
	<path d="M172.9-114.4c0,0.4-0.1,0.7-0.2,1c-0.1,0.3-0.3,0.6-0.6,0.8s-0.5,0.4-0.9,0.6c-0.3,0.1-0.7,0.2-1,0.2s-0.7-0.1-1-0.2
		c-0.3-0.1-0.6-0.3-0.8-0.6s-0.4-0.5-0.6-0.8c-0.1-0.3-0.2-0.7-0.2-1c0-0.4,0.1-0.7,0.2-1c0.1-0.3,0.3-0.6,0.6-0.9s0.5-0.4,0.8-0.6
		c0.3-0.1,0.7-0.2,1-0.2s0.7,0.1,1,0.2c0.3,0.1,0.6,0.3,0.9,0.6s0.4,0.5,0.6,0.9C172.8-115.1,172.9-114.8,172.9-114.4z M172.1-107.7
		v21.3h-3.7v-21.3H172.1z"/>
	<path d="M187.1-108.1c1.3,0,2.5,0.2,3.5,0.6c1.1,0.4,2,1,2.8,1.8c0.8,0.8,1.4,1.8,1.8,3c0.4,1.2,0.7,2.5,0.7,4c0,0.6-0.1,1-0.2,1.2
		c-0.1,0.2-0.4,0.3-0.7,0.3h-14.2c0,1.3,0.2,2.5,0.5,3.5c0.3,1,0.8,1.8,1.4,2.5s1.3,1.2,2.1,1.5c0.8,0.3,1.7,0.5,2.7,0.5
		c0.9,0,1.7-0.1,2.4-0.3c0.7-0.2,1.3-0.5,1.8-0.7s0.9-0.5,1.2-0.7c0.3-0.2,0.6-0.3,0.9-0.3c0.3,0,0.5,0.1,0.7,0.4l1,1.4
		c-0.5,0.6-1,1-1.7,1.5c-0.6,0.4-1.3,0.8-2.1,1c-0.7,0.3-1.5,0.5-2.3,0.6s-1.6,0.2-2.3,0.2c-1.5,0-2.8-0.2-4.1-0.7
		c-1.2-0.5-2.3-1.2-3.2-2.2s-1.6-2.1-2.1-3.6c-0.5-1.4-0.8-3-0.8-4.9c0-1.5,0.2-2.9,0.7-4.2s1.1-2.4,2-3.4c0.9-0.9,1.9-1.7,3.1-2.2
		C184.2-107.8,185.5-108.1,187.1-108.1z M187.2-105.3c-1.8,0-3.2,0.5-4.3,1.6c-1,1-1.7,2.5-1.9,4.3h11.6c0-0.9-0.1-1.7-0.4-2.4
		c-0.2-0.7-0.6-1.3-1-1.9s-1-0.9-1.7-1.2C188.8-105.2,188-105.3,187.2-105.3z"/>
	<path d="M200.7-86.4v-21.3h2.2c0.5,0,0.9,0.3,1,0.8l0.3,2.2c0.8-1,1.7-1.8,2.6-2.4c1-0.6,2.1-0.9,3.4-0.9c1.4,0,2.6,0.4,3.5,1.2
		c0.9,0.8,1.5,1.9,1.9,3.2c0.3-0.8,0.7-1.4,1.2-2s1-1,1.6-1.4c0.6-0.4,1.2-0.6,1.9-0.8c0.7-0.2,1.4-0.3,2.1-0.3c1.1,0,2.1,0.2,3,0.5
		s1.6,0.9,2.2,1.6c0.6,0.7,1.1,1.5,1.4,2.5c0.3,1,0.5,2.1,0.5,3.4v13.5h-3.7V-100c0-1.7-0.4-2.9-1.1-3.8s-1.8-1.3-3.2-1.3
		c-0.6,0-1.2,0.1-1.8,0.3c-0.6,0.2-1,0.5-1.5,1c-0.4,0.4-0.8,0.9-1,1.6c-0.2,0.6-0.4,1.4-0.4,2.2v13.5h-3.7V-100c0-1.7-0.3-3-1-3.8
		c-0.7-0.8-1.7-1.3-3-1.3c-0.9,0-1.8,0.2-2.6,0.7s-1.5,1.2-2.2,2v15.9H200.7z"/>
	<path d="M235.1-79.2v-28.5h2.2c0.5,0,0.9,0.3,1,0.8l0.3,2.5c0.9-1.1,1.9-2,3.1-2.7c1.2-0.7,2.5-1,4-1c1.2,0,2.3,0.2,3.3,0.7
		c1,0.5,1.8,1.2,2.5,2.1c0.7,0.9,1.2,2.1,1.6,3.4c0.4,1.4,0.6,2.9,0.6,4.7c0,1.6-0.2,3-0.6,4.4c-0.4,1.4-1,2.5-1.8,3.5
		s-1.7,1.8-2.9,2.3c-1.1,0.6-2.4,0.9-3.9,0.9c-1.3,0-2.4-0.2-3.4-0.7c-0.9-0.4-1.8-1-2.5-1.8v9.4H235.1z M244.6-105.1
		c-1.2,0-2.3,0.3-3.2,0.8c-0.9,0.6-1.8,1.4-2.5,2.4v10.3c0.7,0.9,1.4,1.6,2.3,2c0.8,0.4,1.7,0.6,2.7,0.6c2,0,3.5-0.7,4.6-2.1
		c1.1-1.4,1.6-3.4,1.6-6c0-1.4-0.1-2.6-0.4-3.6c-0.2-1-0.6-1.8-1.1-2.4c-0.5-0.6-1-1.1-1.7-1.4C246.2-104.9,245.5-105.1,244.6-105.1
		z"/>
	<path d="M258.3-86.4v-21.3h2.1c0.4,0,0.7,0.1,0.8,0.2c0.2,0.2,0.3,0.4,0.3,0.8l0.3,3.3c0.7-1.5,1.6-2.6,2.7-3.5
		c1.1-0.8,2.3-1.2,3.8-1.2c0.6,0,1.1,0.1,1.6,0.2c0.5,0.1,0.9,0.3,1.3,0.6l-0.5,2.8c-0.1,0.4-0.3,0.5-0.7,0.5
		c-0.2,0-0.5-0.1-0.9-0.2c-0.4-0.1-1-0.2-1.7-0.2c-1.3,0-2.4,0.4-3.3,1.1c-0.9,0.8-1.6,1.9-2.2,3.3v13.5H258.3z"/>
	<path d="M283.7-108.1c1.3,0,2.5,0.2,3.5,0.6c1.1,0.4,2,1,2.8,1.8c0.8,0.8,1.4,1.8,1.8,3c0.4,1.2,0.7,2.5,0.7,4c0,0.6-0.1,1-0.2,1.2
		c-0.1,0.2-0.4,0.3-0.7,0.3h-14.2c0,1.3,0.2,2.5,0.5,3.5c0.3,1,0.8,1.8,1.4,2.5s1.3,1.2,2.1,1.5c0.8,0.3,1.7,0.5,2.7,0.5
		c0.9,0,1.7-0.1,2.4-0.3c0.7-0.2,1.3-0.5,1.8-0.7s0.9-0.5,1.2-0.7c0.3-0.2,0.6-0.3,0.9-0.3c0.3,0,0.5,0.1,0.7,0.4l1,1.4
		c-0.5,0.6-1,1-1.7,1.5c-0.6,0.4-1.3,0.8-2.1,1c-0.7,0.3-1.5,0.5-2.3,0.6s-1.6,0.2-2.3,0.2c-1.5,0-2.8-0.2-4.1-0.7
		c-1.2-0.5-2.3-1.2-3.2-2.2s-1.6-2.1-2.1-3.6c-0.5-1.4-0.8-3-0.8-4.9c0-1.5,0.2-2.9,0.7-4.2s1.1-2.4,2-3.4c0.9-0.9,1.9-1.7,3.1-2.2
		C280.8-107.8,282.1-108.1,283.7-108.1z M283.8-105.3c-1.8,0-3.2,0.5-4.3,1.6c-1,1-1.7,2.5-1.9,4.3h11.6c0-0.9-0.1-1.7-0.4-2.4
		c-0.2-0.7-0.6-1.3-1-1.9s-1-0.9-1.7-1.2C285.4-105.2,284.6-105.3,283.8-105.3z"/>
	<path d="M298-118.1c0.4,0.7,0.7,1.3,0.9,2c0.2,0.7,0.3,1.3,0.3,2c0,1.3-0.3,2.5-0.9,3.6c-0.6,1.2-1.5,2.2-2.6,3.2l-1.2-0.7
		c-0.1-0.1-0.2-0.1-0.2-0.2s-0.1-0.2-0.1-0.3c0-0.2,0.1-0.4,0.2-0.5c0.2-0.3,0.4-0.6,0.7-0.9s0.4-0.6,0.6-1c0.2-0.3,0.3-0.7,0.4-1.1
		c0.1-0.4,0.1-0.8,0.1-1.2c0-0.4-0.1-0.9-0.2-1.4c-0.1-0.5-0.4-1-0.7-1.5c-0.1-0.2-0.1-0.3-0.1-0.5c0-0.3,0.2-0.6,0.6-0.7L298-118.1
		z M304.3-118.1c0.4,0.7,0.7,1.3,0.9,2c0.2,0.7,0.3,1.3,0.3,2c0,1.3-0.3,2.5-0.9,3.6c-0.6,1.2-1.5,2.2-2.6,3.2l-1.2-0.7
		c-0.1-0.1-0.2-0.1-0.2-0.2c0-0.1-0.1-0.2-0.1-0.3c0-0.2,0.1-0.4,0.2-0.5c0.2-0.3,0.4-0.6,0.7-0.9s0.4-0.6,0.6-1
		c0.2-0.3,0.3-0.7,0.4-1.1c0.1-0.4,0.1-0.8,0.1-1.2c0-0.4-0.1-0.9-0.2-1.4c-0.1-0.5-0.4-1-0.7-1.5c-0.1-0.2-0.1-0.3-0.1-0.5
		c0-0.3,0.2-0.6,0.6-0.7L304.3-118.1z"/>
</g>
</svg>
