<?xml version="1.0" encoding="utf-8"?>
<!-- Generator: Adobe Illustrator 19.0.0, SVG Export Plug-In . SVG Version: 6.00 Build 0)  -->
<svg version="1.1" id="main-tilte-logo" xmlns="http://www.w3.org/2000/svg" xmlns:xlink="http://www.w3.org/1999/xlink" x="0px"
	 y="0px" viewBox="94 -34.1 288.2 168.1" style="enable-background:new 94 -34.1 288.2 168.1;" xml:space="preserve">
<style type="text/css">
	.st0{fill:#FFFFFF;}
	.st1{font-family:'Lato-Bold';}
	.st2{font-size:34px;}
	.st3{font-size:59.0948px;}
	.st4{font-size:54px;}
</style>
<text transform="matrix(1 0 0 1 135.2 10.332)" class="st0 st1 st2">Qué tipo de </text>
<text transform="matrix(1 0 0 1 135.2 65.5601)" class="st0 st1 st3">Usuario</text>
<text transform="matrix(1 0 0 1 237.1936 116.8158)" class="st0 st1 st4">Eres</text>
<path class="st0" d="M346.5,109.2c0-0.9,0.2-1.8,0.5-2.6s0.8-1.5,1.4-2.1c0.6-0.6,1.3-1.1,2.1-1.4s1.7-0.5,2.6-0.5
	c0.9,0,1.8,0.2,2.6,0.5s1.5,0.8,2.1,1.4c0.6,0.6,1.1,1.3,1.4,2.1c0.3,0.8,0.5,1.7,0.5,2.6c0,0.9-0.2,1.8-0.5,2.6
	c-0.3,0.8-0.8,1.5-1.4,2.1c-0.6,0.6-1.3,1.1-2.1,1.4c-0.8,0.3-1.7,0.5-2.6,0.5c-0.9,0-1.8-0.2-2.6-0.5c-0.8-0.3-1.5-0.8-2.1-1.4
	c-0.6-0.6-1-1.3-1.4-2.1C346.7,111,346.5,110.2,346.5,109.2z"/>
<path class="st0" d="M332.2,24.5c1.3-1.5,2.8-2.8,4.5-4.1c1.6-1.3,3.4-2.5,5.3-3.5c1.9-1,4-1.8,6.3-2.4c2.2-0.6,4.7-0.9,7.3-0.9
	c3.4,0,6.6,0.6,9.6,1.7c2.9,1.2,5.5,2.8,7.6,4.9c2.1,2.1,3.8,4.7,5,7.7s1.8,6.4,1.8,10.2s-0.5,7.1-1.5,9.9c-1,2.8-2.2,5.2-3.7,7.3
	s-3.1,3.9-4.9,5.4s-3.4,3-5,4.3c-1.5,1.4-2.9,2.7-4,4.1c-1.1,1.4-1.8,2.9-1.9,4.5l-1.2,11.7h-8l-0.8-12.5V72c0-2.1,0.5-4,1.5-5.6
	c1-1.6,2.2-3.2,3.7-4.6c1.5-1.4,3.1-2.9,4.8-4.3c1.7-1.4,3.3-3,4.8-4.8c1.5-1.7,2.7-3.7,3.7-5.9s1.5-4.8,1.5-7.8
	c0-2.2-0.4-4.1-1.1-5.9c-0.7-1.8-1.7-3.3-3-4.5s-2.7-2.2-4.5-2.8c-1.7-0.7-3.6-1-5.5-1c-2.7,0-4.9,0.4-6.8,1.1
	c-1.9,0.8-3.5,1.6-4.8,2.5s-2.4,1.7-3.2,2.5s-1.5,1.1-2,1.1c-1.1,0-1.9-0.6-2.5-1.7L332.2,24.5z"/>
<path class="st0" d="M131.4-0.4c0,0.9-0.2,1.8-0.5,2.6c-0.3,0.8-0.8,1.5-1.4,2.1s-1.3,1.1-2.1,1.4c-0.8,0.3-1.7,0.5-2.6,0.5
	S123,6,122.2,5.7c-0.8-0.3-1.5-0.8-2.1-1.4S119,3,118.7,2.2c-0.3-0.8-0.5-1.7-0.5-2.6s0.2-1.8,0.5-2.6c0.3-0.8,0.8-1.5,1.4-2.1
	s1.3-1.1,2.1-1.4c0.8-0.3,1.7-0.5,2.6-0.5s1.8,0.2,2.6,0.5c0.8,0.3,1.5,0.8,2.1,1.4s1,1.3,1.4,2.1C131.2-2.2,131.4-1.4,131.4-0.4z"
	/>
<path class="st0" d="M145.6,84.3c-1.3,1.5-2.8,2.8-4.5,4.1c-1.6,1.3-3.4,2.5-5.3,3.5s-4,1.8-6.3,2.4c-2.2,0.6-4.7,0.9-7.3,0.9
	c-3.4,0-6.6-0.6-9.6-1.7c-2.9-1.2-5.5-2.8-7.6-4.9c-2.1-2.1-3.8-4.7-5-7.7s-1.8-6.4-1.8-10.2c0-3.8,0.5-7.1,1.5-9.9
	c1-2.8,2.2-5.2,3.7-7.3s3.1-3.9,4.9-5.4s3.4-3,5-4.3c1.5-1.4,2.9-2.7,4-4.1s1.8-2.9,1.9-4.5l1.2-11.7h8l0.8,12.5v0.8
	c0,2.1-0.5,4-1.5,5.6c-1,1.6-2.2,3.2-3.7,4.6c-1.5,1.4-3.1,2.9-4.8,4.3c-1.7,1.4-3.3,3-4.8,4.8c-1.5,1.7-2.7,3.7-3.7,5.9
	s-1.5,4.8-1.5,7.8c0,2.2,0.4,4.1,1.1,5.9c0.7,1.8,1.7,3.3,3,4.5c1.3,1.2,2.7,2.2,4.5,2.8c1.7,0.7,3.6,1,5.5,1c2.7,0,4.9-0.4,6.8-1.1
	c1.9-0.8,3.5-1.6,4.8-2.5s2.4-1.7,3.2-2.5c0.8-0.8,1.5-1.1,2-1.1c1.1,0,1.9,0.6,2.5,1.7L145.6,84.3z"/>
</svg>
