<?xml version="1.0" encoding="utf-8"?>
<!-- Generator: Adobe Illustrator 19.0.0, SVG Export Plug-In . SVG Version: 6.00 Build 0)  -->
<svg version="1.1" id="Capa_1" xmlns="http://www.w3.org/2000/svg" xmlns:xlink="http://www.w3.org/1999/xlink" x="0px" y="0px"
	 viewBox="250 0 600 100" style="enable-background:new 250 0 600 100;" xml:space="preserve">
<style type="text/css">
	.st0{fill:none;stroke:#000000;stroke-miterlimit:10;}
	.st1{enable-background:new    ;}
</style>
<line class="st0" x1="590.1" y1="15.7" x2="590.1" y2="86.7"/>
<g class="st1">
	<path d="M265.9,46.9c-1.1-1.7-1.6-3.5-1.6-5.2c0-1.6,0.4-3,1.2-4.5c0.8-1.4,1.9-2.7,3.4-3.9l1.8,1.1c0.2,0.1,0.3,0.2,0.3,0.3
		c0.1,0.1,0.1,0.3,0.1,0.4c0,0.1,0,0.3-0.1,0.4c-0.1,0.1-0.1,0.2-0.2,0.3c-0.2,0.2-0.4,0.5-0.6,0.8c-0.2,0.3-0.4,0.6-0.6,1
		c-0.2,0.4-0.3,0.8-0.5,1.2c-0.1,0.4-0.2,0.9-0.2,1.4c0,0.5,0.1,1.1,0.3,1.7c0.2,0.6,0.5,1.2,0.9,1.9c0.1,0.2,0.2,0.4,0.2,0.7
		c0,0.5-0.3,0.8-0.8,1L265.9,46.9z M273.7,46.9c-1.1-1.7-1.6-3.5-1.6-5.2c0-1.6,0.4-3,1.2-4.5c0.8-1.4,1.9-2.7,3.4-3.9l1.8,1.1
		c0.2,0.1,0.3,0.2,0.3,0.3c0.1,0.1,0.1,0.3,0.1,0.4c0,0.1,0,0.3-0.1,0.4c-0.1,0.1-0.1,0.2-0.2,0.3c-0.2,0.2-0.4,0.5-0.6,0.8
		c-0.2,0.3-0.4,0.6-0.6,1c-0.2,0.4-0.3,0.8-0.5,1.2c-0.1,0.4-0.2,0.9-0.2,1.4c0,0.5,0.1,1.1,0.3,1.7c0.2,0.6,0.5,1.2,0.9,1.9
		c0.1,0.2,0.2,0.4,0.2,0.7c0,0.5-0.3,0.8-0.8,1L273.7,46.9z"/>
	<path d="M304.9,36v5H290v9.3h11.8v4.8H290v9.5h14.9v5h-21.3V36H304.9z"/>
	<path d="M316.2,35.1v34.6h-5.8V35.1H316.2z"/>
	<path d="M331.7,69.7V35.1h5.8v13.7c0.9-1,2-1.8,3.2-2.4c1.2-0.6,2.6-0.9,4.2-0.9c1.3,0,2.5,0.3,3.6,0.8s2,1.3,2.8,2.3
		s1.4,2.3,1.8,3.8c0.4,1.5,0.6,3.2,0.6,5.2c0,1.8-0.2,3.4-0.7,5c-0.5,1.5-1.2,2.8-2.1,4c-0.9,1.1-2,2-3.2,2.6
		c-1.3,0.6-2.7,0.9-4.3,0.9c-0.7,0-1.4-0.1-2-0.2s-1.2-0.4-1.7-0.6c-0.5-0.3-1-0.6-1.4-1c-0.4-0.4-0.8-0.8-1.2-1.3l-0.3,1.6
		c-0.1,0.4-0.3,0.7-0.5,0.9c-0.2,0.2-0.5,0.3-0.9,0.3H331.7z M342.9,49.9c-1.2,0-2.2,0.3-3.1,0.8c-0.8,0.5-1.6,1.2-2.4,2.1v10.7
		c0.7,0.8,1.4,1.4,2.1,1.7s1.6,0.5,2.5,0.5c0.9,0,1.7-0.2,2.4-0.5s1.3-0.8,1.8-1.5s0.9-1.5,1.1-2.5c0.3-1,0.4-2.2,0.4-3.6
		c0-1.4-0.1-2.6-0.3-3.6c-0.2-1-0.5-1.8-1-2.4c-0.4-0.6-0.9-1-1.5-1.3C344.4,50,343.7,49.9,342.9,49.9z"/>
	<path d="M377,69.7h-2.6c-0.5,0-1-0.1-1.3-0.2c-0.3-0.2-0.5-0.5-0.7-1l-0.5-1.7c-0.6,0.5-1.2,1-1.8,1.4c-0.6,0.4-1.2,0.8-1.8,1
		c-0.6,0.3-1.3,0.5-2,0.6s-1.5,0.2-2.3,0.2c-1,0-1.9-0.1-2.8-0.4c-0.9-0.3-1.6-0.7-2.2-1.2s-1.1-1.2-1.4-2c-0.3-0.8-0.5-1.8-0.5-2.8
		c0-0.9,0.2-1.8,0.7-2.7c0.5-0.9,1.3-1.7,2.4-2.4c1.1-0.7,2.6-1.3,4.4-1.8s4.1-0.7,6.8-0.7v-1.4c0-1.6-0.3-2.8-1-3.6
		c-0.7-0.8-1.7-1.2-2.9-1.2c-0.9,0-1.7,0.1-2.3,0.3c-0.6,0.2-1.2,0.5-1.6,0.7c-0.5,0.3-0.9,0.5-1.3,0.7c-0.4,0.2-0.8,0.3-1.3,0.3
		c-0.4,0-0.7-0.1-1-0.3c-0.3-0.2-0.5-0.5-0.7-0.7l-1-1.8c2.8-2.5,6.1-3.8,10-3.8c1.4,0,2.6,0.2,3.7,0.7c1.1,0.5,2,1.1,2.8,1.9
		s1.3,1.8,1.7,2.9c0.4,1.1,0.6,2.4,0.6,3.7V69.7z M365.8,66.1c0.6,0,1.1-0.1,1.6-0.2c0.5-0.1,1-0.3,1.4-0.5s0.9-0.5,1.3-0.8
		c0.4-0.3,0.8-0.7,1.2-1.1v-4c-1.7,0-3.1,0.1-4.2,0.3c-1.1,0.2-2,0.5-2.7,0.8c-0.7,0.3-1.2,0.7-1.5,1.2s-0.4,0.9-0.4,1.4
		c0,1,0.3,1.7,0.9,2.2C364,65.9,364.8,66.1,365.8,66.1z"/>
	<path d="M388.8,35.1v34.6H383V35.1H388.8z"/>
	<path d="M414,69.7h-2.6c-0.5,0-1-0.1-1.3-0.2c-0.3-0.2-0.5-0.5-0.7-1l-0.5-1.7c-0.6,0.5-1.2,1-1.8,1.4c-0.6,0.4-1.2,0.8-1.8,1
		c-0.6,0.3-1.3,0.5-2,0.6s-1.5,0.2-2.3,0.2c-1,0-1.9-0.1-2.8-0.4c-0.9-0.3-1.6-0.7-2.2-1.2s-1.1-1.2-1.4-2c-0.3-0.8-0.5-1.8-0.5-2.8
		c0-0.9,0.2-1.8,0.7-2.7c0.5-0.9,1.3-1.7,2.4-2.4c1.1-0.7,2.6-1.3,4.4-1.8s4.1-0.7,6.8-0.7v-1.4c0-1.6-0.3-2.8-1-3.6
		c-0.7-0.8-1.7-1.2-2.9-1.2c-0.9,0-1.7,0.1-2.3,0.3c-0.6,0.2-1.2,0.5-1.6,0.7c-0.5,0.3-0.9,0.5-1.3,0.7c-0.4,0.2-0.8,0.3-1.3,0.3
		c-0.4,0-0.7-0.1-1-0.3c-0.3-0.2-0.5-0.5-0.7-0.7l-1-1.8c2.8-2.5,6.1-3.8,10-3.8c1.4,0,2.6,0.2,3.7,0.7c1.1,0.5,2,1.1,2.8,1.9
		s1.3,1.8,1.7,2.9c0.4,1.1,0.6,2.4,0.6,3.7V69.7z M402.8,66.1c0.6,0,1.1-0.1,1.6-0.2c0.5-0.1,1-0.3,1.4-0.5s0.9-0.5,1.3-0.8
		c0.4-0.3,0.8-0.7,1.2-1.1v-4c-1.7,0-3.1,0.1-4.2,0.3c-1.1,0.2-2,0.5-2.7,0.8c-0.7,0.3-1.2,0.7-1.5,1.2s-0.4,0.9-0.4,1.4
		c0,1,0.3,1.7,0.9,2.2C401.1,65.9,401.9,66.1,402.8,66.1z"/>
	<path d="M419.7,69.7V45.8h3.5c0.7,0,1.2,0.3,1.5,1l0.4,1.9c0.5-0.5,1-0.9,1.5-1.4c0.5-0.4,1.1-0.8,1.7-1c0.6-0.3,1.2-0.5,1.9-0.7
		c0.7-0.2,1.4-0.2,2.2-0.2c1.3,0,2.5,0.2,3.5,0.7c1,0.4,1.9,1.1,2.5,1.9s1.2,1.8,1.5,2.9c0.3,1.1,0.5,2.3,0.5,3.7v15.2h-5.8V54.5
		c0-1.5-0.3-2.6-1-3.4c-0.7-0.8-1.7-1.2-3-1.2c-1,0-1.9,0.2-2.8,0.7s-1.7,1.1-2.5,1.8v17.3H419.7z"/>
	<path d="M463,50.8c-0.2,0.2-0.3,0.4-0.5,0.5c-0.2,0.1-0.4,0.2-0.7,0.2c-0.3,0-0.6-0.1-0.9-0.3c-0.3-0.2-0.6-0.4-1-0.6
		c-0.4-0.2-0.9-0.4-1.4-0.6s-1.2-0.3-2-0.3c-1,0-1.9,0.2-2.7,0.5c-0.8,0.4-1.4,0.9-1.9,1.6s-0.9,1.5-1.1,2.5s-0.4,2.1-0.4,3.3
		c0,1.3,0.1,2.4,0.4,3.4c0.3,1,0.7,1.8,1.2,2.5s1.1,1.2,1.9,1.5c0.7,0.3,1.6,0.5,2.5,0.5s1.7-0.1,2.2-0.3c0.6-0.2,1-0.5,1.4-0.7
		c0.4-0.3,0.7-0.5,1-0.7c0.3-0.2,0.6-0.3,1-0.3c0.5,0,0.8,0.2,1,0.5l1.7,2.1c-0.6,0.7-1.3,1.4-2.1,1.9c-0.7,0.5-1.5,0.9-2.3,1.2
		c-0.8,0.3-1.6,0.5-2.5,0.6c-0.9,0.1-1.7,0.2-2.5,0.2c-1.5,0-2.9-0.3-4.2-0.8c-1.3-0.6-2.4-1.4-3.4-2.4c-1-1.1-1.7-2.4-2.3-3.9
		s-0.9-3.3-0.9-5.2c0-1.8,0.3-3.4,0.8-4.9c0.5-1.5,1.2-2.8,2.2-3.9c1-1.1,2.2-2,3.6-2.6c1.4-0.6,3.1-0.9,5-0.9
		c1.8,0,3.4,0.3,4.7,0.9c1.3,0.6,2.6,1.4,3.6,2.5L463,50.8z"/>
	<path d="M478.3,45.4c1.5,0,2.9,0.2,4.2,0.7s2.4,1.2,3.3,2.1c0.9,0.9,1.6,2.1,2.1,3.4s0.8,2.9,0.8,4.6c0,0.4,0,0.8-0.1,1.1
		c0,0.3-0.1,0.5-0.2,0.7s-0.2,0.3-0.4,0.3c-0.2,0.1-0.4,0.1-0.7,0.1h-14.8c0.2,2.5,0.8,4.3,2,5.4c1.1,1.2,2.7,1.7,4.6,1.7
		c0.9,0,1.7-0.1,2.4-0.3c0.7-0.2,1.3-0.5,1.8-0.7c0.5-0.3,0.9-0.5,1.3-0.7c0.4-0.2,0.7-0.3,1.1-0.3c0.2,0,0.4,0,0.6,0.1
		c0.2,0.1,0.3,0.2,0.4,0.4l1.7,2.1c-0.6,0.7-1.4,1.4-2.1,1.9s-1.6,0.9-2.5,1.2c-0.9,0.3-1.7,0.5-2.6,0.6s-1.8,0.2-2.6,0.2
		c-1.7,0-3.2-0.3-4.6-0.8c-1.4-0.6-2.7-1.4-3.7-2.4s-1.9-2.4-2.5-4s-0.9-3.4-0.9-5.5c0-1.6,0.3-3.2,0.8-4.6c0.5-1.4,1.3-2.7,2.3-3.8
		c1-1.1,2.2-1.9,3.6-2.5C474.9,45.7,476.5,45.4,478.3,45.4z M478.4,49.5c-1.7,0-3,0.5-3.9,1.4s-1.6,2.3-1.8,4h10.8
		c0-0.7-0.1-1.4-0.3-2.1c-0.2-0.7-0.5-1.2-0.9-1.7s-0.9-0.9-1.6-1.2S479.3,49.5,478.4,49.5z"/>
	<path d="M512.1,69.7h-2.6c-0.5,0-1-0.1-1.3-0.2c-0.3-0.2-0.5-0.5-0.7-1l-0.5-1.7c-0.6,0.5-1.2,1-1.8,1.4c-0.6,0.4-1.2,0.8-1.8,1
		c-0.6,0.3-1.3,0.5-2,0.6s-1.5,0.2-2.3,0.2c-1,0-1.9-0.1-2.8-0.4c-0.9-0.3-1.6-0.7-2.2-1.2s-1.1-1.2-1.4-2c-0.3-0.8-0.5-1.8-0.5-2.8
		c0-0.9,0.2-1.8,0.7-2.7c0.5-0.9,1.3-1.7,2.4-2.4c1.1-0.7,2.6-1.3,4.4-1.8s4.1-0.7,6.8-0.7v-1.4c0-1.6-0.3-2.8-1-3.6
		c-0.7-0.8-1.7-1.2-2.9-1.2c-0.9,0-1.7,0.1-2.3,0.3c-0.6,0.2-1.2,0.5-1.6,0.7c-0.5,0.3-0.9,0.5-1.3,0.7c-0.4,0.2-0.8,0.3-1.3,0.3
		c-0.4,0-0.7-0.1-1-0.3c-0.3-0.2-0.5-0.5-0.7-0.7l-1-1.8c2.8-2.5,6.1-3.8,10-3.8c1.4,0,2.6,0.2,3.7,0.7c1.1,0.5,2,1.1,2.8,1.9
		s1.3,1.8,1.7,2.9c0.4,1.1,0.6,2.4,0.6,3.7V69.7z M500.9,66.1c0.6,0,1.1-0.1,1.6-0.2c0.5-0.1,1-0.3,1.4-0.5s0.9-0.5,1.3-0.8
		c0.4-0.3,0.8-0.7,1.2-1.1v-4c-1.7,0-3.1,0.1-4.2,0.3c-1.1,0.2-2,0.5-2.7,0.8c-0.7,0.3-1.2,0.7-1.5,1.2s-0.4,0.9-0.4,1.4
		c0,1,0.3,1.7,0.9,2.2C499.1,65.9,499.9,66.1,500.9,66.1z"/>
	<path d="M534.6,69.7c-0.7,0-1.2-0.3-1.5-1l-0.5-2.3c-0.5,0.6-1,1.1-1.6,1.5c-0.5,0.5-1.1,0.8-1.8,1.2s-1.3,0.6-2,0.8
		c-0.7,0.2-1.5,0.3-2.3,0.3c-1.3,0-2.5-0.3-3.6-0.8c-1.1-0.5-2-1.3-2.8-2.4c-0.8-1-1.4-2.3-1.8-3.8c-0.4-1.5-0.6-3.3-0.6-5.2
		c0-1.8,0.2-3.4,0.7-4.9s1.2-2.8,2.1-4c0.9-1.1,2-2,3.2-2.6c1.3-0.6,2.7-0.9,4.2-0.9c1.3,0,2.5,0.2,3.4,0.6c0.9,0.4,1.8,1,2.5,1.7
		V35.1h5.8v34.6H534.6z M526.9,65.5c1.2,0,2.2-0.2,3.1-0.7c0.8-0.5,1.6-1.2,2.4-2.1V51.9c-0.7-0.8-1.4-1.4-2.1-1.7
		c-0.8-0.3-1.6-0.5-2.5-0.5c-0.9,0-1.7,0.2-2.4,0.5s-1.3,0.8-1.8,1.5c-0.5,0.7-0.9,1.5-1.1,2.5c-0.3,1-0.4,2.2-0.4,3.6
		c0,1.4,0.1,2.6,0.3,3.6c0.2,1,0.5,1.8,1,2.4c0.4,0.6,0.9,1.1,1.5,1.3C525.5,65.3,526.1,65.5,526.9,65.5z"/>
	<path d="M554.5,45.4c1.8,0,3.4,0.3,4.9,0.9c1.5,0.6,2.7,1.4,3.7,2.4s1.8,2.3,2.4,3.9c0.6,1.5,0.8,3.2,0.8,5.1
		c0,1.9-0.3,3.6-0.8,5.1c-0.6,1.5-1.4,2.8-2.4,3.9s-2.3,1.9-3.7,2.5c-1.5,0.6-3.1,0.9-4.9,0.9c-1.8,0-3.4-0.3-4.9-0.9
		c-1.5-0.6-2.7-1.4-3.7-2.5s-1.8-2.4-2.4-3.9c-0.6-1.5-0.9-3.2-0.9-5.1c0-1.9,0.3-3.6,0.9-5.1c0.6-1.5,1.4-2.8,2.4-3.9
		s2.3-1.9,3.7-2.4C551.1,45.7,552.7,45.4,554.5,45.4z M554.5,65.6c2,0,3.5-0.7,4.4-2c1-1.3,1.4-3.3,1.4-5.9s-0.5-4.5-1.4-5.9
		c-1-1.4-2.4-2-4.4-2c-2,0-3.5,0.7-4.5,2c-1,1.4-1.4,3.3-1.4,5.9c0,2.6,0.5,4.5,1.4,5.9S552.5,65.6,554.5,65.6z"/>
	<path d="M572.7,34c0.5,0.9,0.9,1.7,1.2,2.6c0.3,0.9,0.4,1.7,0.4,2.6c0,1.6-0.4,3-1.2,4.5c-0.8,1.4-1.9,2.7-3.4,3.9l-1.8-1.1
		c-0.2-0.1-0.3-0.2-0.3-0.3c-0.1-0.1-0.1-0.3-0.1-0.4c0-0.3,0.1-0.5,0.3-0.7c0.2-0.2,0.4-0.5,0.6-0.8s0.4-0.6,0.6-1
		c0.2-0.4,0.3-0.8,0.5-1.2c0.1-0.4,0.2-0.9,0.2-1.4c0-0.5-0.1-1.1-0.3-1.7s-0.5-1.2-0.9-1.9c-0.1-0.2-0.2-0.4-0.2-0.6
		c0-0.5,0.3-0.8,0.9-1L572.7,34z M580.4,34c0.5,0.9,0.9,1.7,1.2,2.6c0.3,0.9,0.4,1.7,0.4,2.6c0,1.6-0.4,3-1.2,4.5
		c-0.8,1.4-1.9,2.7-3.4,3.9l-1.8-1.1c-0.2-0.1-0.3-0.2-0.3-0.3c-0.1-0.1-0.1-0.3-0.1-0.4c0-0.3,0.1-0.5,0.3-0.7
		c0.2-0.2,0.4-0.5,0.6-0.8c0.2-0.3,0.4-0.6,0.6-1s0.3-0.8,0.5-1.2c0.1-0.4,0.2-0.9,0.2-1.4c0-0.5-0.1-1.1-0.3-1.7s-0.5-1.2-0.9-1.9
		c-0.1-0.2-0.2-0.4-0.2-0.6c0-0.5,0.3-0.8,0.9-1L580.4,34z"/>
</g>
<g id="XMLID_262_">
	<g id="XMLID_139_">
		<path id="XMLID_140_" d="M751.5,20.5c-10.7,0-19.4,8.7-19.4,19.4s8.7,19.4,19.4,19.4c10.7,0,19.4-8.7,19.4-19.4
			C771,29.2,762.3,20.5,751.5,20.5 M751.5,52c-6.8,0-12.1-5.4-12.1-12.1c0-6.8,5.4-12.1,12.1-12.1c6.8,0,12.1,5.4,12.1,12.1
			C763.7,46.6,758.2,52,751.5,52 M727.8,52h1.6v7.2h-1.6c-8.4,0-15.2-6.8-15.2-15.2V10.8h7.2v9.7h9.4v7.2h-9.4v16.3
			C719.9,48.5,723.4,52,727.8,52 M664.1,35.7v23.1h-7.2V35.7c0-4.4-3.5-7.9-7.9-7.9s-7.9,3.5-7.9,7.9v23.1h-7.2V35.7
			c0-4.4-3.5-7.9-7.9-7.9c-4.4,0-7.9,3.5-7.9,7.9v23.1h-7.2V35.7c0-8.4,6.8-15.2,15.2-15.2c4.7,0,8.8,2.1,11.6,5.3
			c2.8-3.2,6.9-5.3,11.6-5.3C657.3,20.5,664.1,27.3,664.1,35.7 M688.4,20.5c-10.7,0-19.4,8.7-19.4,19.4s8.7,19.4,19.4,19.4
			s19.4-8.7,19.4-19.4C707.8,29.2,699.1,20.5,688.4,20.5 M688.4,52c-6.8,0-12.1-5.4-12.1-12.1c0-6.8,5.4-12.1,12.1-12.1
			c6.8,0,12.1,5.4,12.1,12.1C700.6,46.6,695,52,688.4,52 M810.3,55.1c-8.4,6.6-20.6,5.2-27.2-3.4c-6.6-8.4-5.2-20.6,3.4-27.2
			c8.4-6.6,20.6-5.2,27.2,3.4c0-2.4,0-4.9,0-7.5h4.1v36.2c0,13-8.8,20.2-21.1,20.2c-5.6,0-11-1.3-15.9-4.1l1.9-3.7
			c4.3,2.5,9.1,3.8,14.1,3.8c9.9,0,16.8-5.6,16.8-16.6c0-1.5,0-3.1,0-4.6C812.6,53.1,811.4,54.2,810.3,55.1 M783,39.8
			c0,8.4,6.8,15.2,15.2,15.2c8.4,0,15.2-6.8,15.2-15.2s-6.8-15.2-15.2-15.2C790,24.6,783,31.4,783,39.8 M835.3,22.7h-11.6v-2.2h14.3
			v1.8l-9.6,19.3h-2.6L835.3,22.7z"/>
	</g>
</g>
</svg>
