<?xml version="1.0" encoding="utf-8"?>
<!-- Generator: Adobe Illustrator 19.0.0, SVG Export Plug-In . SVG Version: 6.00 Build 0)  -->
<svg version="1.1" id="Capa_1" xmlns="http://www.w3.org/2000/svg" xmlns:xlink="http://www.w3.org/1999/xlink" x="0px" y="0px"
	 viewBox="100 -37 300 175" style="enable-background:new 100 -37 300 175;" xml:space="preserve">
<g id="XMLID_4_">
	<g id="XMLID_3_">
		<g id="XMLID_20_">
			<path id="XMLID_21_" d="M118.4,34.5c-0.9-1.4-1.3-2.8-1.3-4.2c0-1.3,0.3-2.5,1-3.6c0.6-1.1,1.6-2.2,2.8-3.2l1.5,0.9
				c0.1,0.1,0.2,0.2,0.3,0.3c0.1,0.1,0.1,0.2,0.1,0.3s0,0.2-0.1,0.3c0,0.1-0.1,0.2-0.2,0.3c-0.2,0.2-0.3,0.4-0.5,0.7
				c-0.2,0.3-0.3,0.5-0.5,0.8c-0.2,0.3-0.3,0.6-0.4,1s-0.2,0.7-0.2,1.1c0,0.4,0.1,0.9,0.2,1.4s0.4,1,0.7,1.5
				c0.1,0.2,0.2,0.4,0.2,0.5c0,0.4-0.2,0.7-0.7,0.8L118.4,34.5z M124.6,34.5c-0.9-1.4-1.3-2.8-1.3-4.2c0-1.3,0.3-2.5,1-3.6
				c0.6-1.1,1.6-2.2,2.8-3.2l1.5,0.9c0.1,0.1,0.2,0.2,0.3,0.3c0,0.1,0.1,0.2,0.1,0.3s0,0.2-0.1,0.3c-0.1,0.1-0.1,0.2-0.2,0.3
				c-0.2,0.2-0.3,0.4-0.5,0.7s-0.3,0.5-0.5,0.8c-0.2,0.3-0.3,0.6-0.4,1c-0.1,0.4-0.2,0.7-0.2,1.1c0,0.4,0.1,0.9,0.2,1.4
				c0.1,0.5,0.4,1,0.7,1.5c0.1,0.2,0.2,0.4,0.2,0.5c0,0.4-0.2,0.7-0.7,0.8L124.6,34.5z"/>
			<path id="XMLID_24_" d="M153.1,52.9h-3.9c-0.4,0-0.8-0.1-1.1-0.3c-0.3-0.2-0.5-0.5-0.6-0.8l-2-5.6h-11.4l-2,5.6
				c-0.1,0.3-0.3,0.6-0.6,0.8c-0.3,0.2-0.7,0.4-1.1,0.4h-3.9l10.7-27.3h5.2L153.1,52.9z M135.4,42.6h8.7l-3.3-9.1
				c-0.2-0.4-0.3-0.9-0.5-1.4s-0.4-1.1-0.5-1.8c-0.2,0.6-0.3,1.2-0.5,1.8s-0.3,1-0.5,1.5L135.4,42.6z"/>
			<path id="XMLID_27_" d="M150,25.6h4.1c0.4,0,0.8,0.1,1.1,0.3s0.5,0.5,0.6,0.8l6.4,16.6c0.2,0.5,0.4,1.1,0.6,1.8
				c0.2,0.6,0.4,1.3,0.6,2c0.3-1.4,0.6-2.7,1.1-3.8l6.4-16.6c0.1-0.3,0.3-0.6,0.6-0.8c0.3-0.2,0.6-0.4,1.1-0.4h4.1l-11,27.3h-4.6
				L150,25.6z"/>
			<path id="XMLID_29_" d="M196.7,25.6v4h-12.1v7.6h9.5v3.9h-9.5v7.7h12.1v4.1h-17.2V25.6H196.7z"/>
			<path id="XMLID_31_" d="M204.3,25.7c0.2,0,0.3,0.1,0.4,0.1c0.1,0,0.2,0.1,0.3,0.2c0.1,0.1,0.2,0.2,0.4,0.4l14.3,18.2
				c-0.1-0.4-0.1-0.9-0.1-1.3s0-0.8,0-1.2V25.6h4.5v27.3h-2.6c-0.4,0-0.7-0.1-1-0.2s-0.5-0.4-0.8-0.7l-14.3-18.2
				c0,0.4,0.1,0.8,0.1,1.2s0,0.8,0,1.1v16.7H201V25.6h2.7C204,25.6,204.2,25.7,204.3,25.7z"/>
			<path id="XMLID_33_" d="M248.8,25.6v4.2h-8.2v23.1h-5.1V29.8h-8.2v-4.2H248.8z"/>
			<path id="XMLID_35_" d="M263,48.8c1,0,1.9-0.2,2.6-0.5c0.8-0.3,1.4-0.8,2-1.4c0.5-0.6,0.9-1.3,1.2-2.1c0.3-0.8,0.4-1.8,0.4-2.8
				V25.6h5.1V42c0,1.6-0.3,3.1-0.8,4.5s-1.3,2.6-2.3,3.6s-2.2,1.8-3.6,2.3c-1.4,0.5-3,0.8-4.7,0.8s-3.3-0.3-4.7-0.8
				c-1.4-0.5-2.6-1.3-3.6-2.3s-1.7-2.2-2.2-3.6s-0.8-2.9-0.8-4.5V25.6h5.1V42c0,1,0.1,2,0.4,2.8c0.3,0.8,0.7,1.6,1.2,2.2
				s1.2,1.1,2,1.4C261.2,48.7,262,48.8,263,48.8z"/>
			<path id="XMLID_37_" d="M284.7,42.3V53h-5.1V25.6h8.3c1.9,0,3.5,0.2,4.8,0.6c1.3,0.4,2.4,0.9,3.3,1.6c0.8,0.7,1.5,1.5,1.9,2.5
				s0.6,2,0.6,3.2c0,0.9-0.1,1.8-0.4,2.6c-0.3,0.8-0.7,1.6-1.2,2.2s-1.1,1.3-1.9,1.8c-0.7,0.5-1.6,0.9-2.6,1.2
				c0.6,0.4,1.2,0.9,1.7,1.6l6.8,10.1h-4.6c-0.4,0-0.8-0.1-1.1-0.3c-0.3-0.2-0.6-0.4-0.8-0.8l-5.7-8.7c-0.2-0.3-0.5-0.6-0.7-0.7
				c-0.3-0.1-0.6-0.2-1.1-0.2C286.9,42.3,284.7,42.3,284.7,42.3z M284.7,38.6h3.2c1,0,1.8-0.1,2.5-0.4s1.3-0.6,1.8-1s0.8-0.9,1-1.5
				c0.2-0.6,0.3-1.2,0.3-1.9c0-1.4-0.5-2.4-1.4-3.2c-0.9-0.7-2.3-1.1-4.2-1.1h-3.2V38.6L284.7,38.6z"/>
			<path id="XMLID_40_" d="M321.4,25.6v4h-12.1v7.6h9.5v3.9h-9.5v7.7h12.1v4.1h-17.2V25.6H321.4z"/>
			<path id="XMLID_42_" d="M331,42.3V53h-5V25.6h8.3c1.9,0,3.5,0.2,4.8,0.6c1.3,0.4,2.4,0.9,3.3,1.6c0.8,0.7,1.5,1.5,1.9,2.5
				c0.4,1,0.6,2,0.6,3.2c0,0.9-0.1,1.8-0.4,2.6s-0.7,1.6-1.2,2.2s-1.1,1.3-1.9,1.8c-0.7,0.5-1.6,0.9-2.6,1.2
				c0.6,0.4,1.2,0.9,1.7,1.6l6.8,10.1h-4.6c-0.4,0-0.8-0.1-1.1-0.3c-0.3-0.2-0.6-0.4-0.8-0.8l-5.7-8.7c-0.2-0.3-0.5-0.6-0.7-0.7
				c-0.3-0.1-0.6-0.2-1.1-0.2C333.3,42.3,331,42.3,331,42.3z M331,38.6h3.2c1,0,1.8-0.1,2.5-0.4c0.7-0.3,1.3-0.6,1.8-1
				s0.8-0.9,1-1.5s0.3-1.2,0.3-1.9c0-1.4-0.5-2.4-1.4-3.2c-0.9-0.7-2.3-1.1-4.2-1.1H331V38.6z"/>
			<path id="XMLID_45_" d="M375.7,39.3c0,2-0.3,3.9-1,5.6c-0.7,1.7-1.6,3.2-2.8,4.4s-2.7,2.2-4.4,2.9c-1.7,0.7-3.6,1-5.6,1
				c-2.1,0-3.9-0.3-5.6-1c-1.7-0.7-3.2-1.7-4.4-2.9c-1.2-1.2-2.2-2.7-2.8-4.4c-0.7-1.7-1-3.6-1-5.6s0.3-3.8,1-5.6
				c0.7-1.7,1.6-3.2,2.8-4.4s2.7-2.2,4.4-2.9c1.7-0.7,3.6-1,5.6-1c2.1,0,3.9,0.4,5.6,1.1c1.7,0.7,3.1,1.7,4.4,2.9s2.1,2.7,2.8,4.4
				C375.4,35.4,375.7,37.3,375.7,39.3z M370.5,39.3c0-1.5-0.2-2.8-0.6-4s-1-2.2-1.7-3s-1.6-1.5-2.7-1.9s-2.3-0.7-3.6-0.7
				c-1.3,0-2.5,0.2-3.6,0.7s-2,1.1-2.7,1.9c-0.7,0.8-1.3,1.8-1.7,3s-0.6,2.5-0.6,4s0.2,2.8,0.6,4c0.4,1.2,1,2.2,1.7,3
				c0.7,0.8,1.7,1.5,2.7,1.9c1.1,0.4,2.3,0.7,3.6,0.7c1.3,0,2.5-0.2,3.6-0.7c1.1-0.4,2-1.1,2.7-1.9s1.3-1.8,1.7-3
				C370.3,42.1,370.5,40.8,370.5,39.3z"/>
			<path id="XMLID_48_" d="M382,24c0.4,0.7,0.8,1.4,1,2.1c0.2,0.7,0.3,1.4,0.3,2.1c0,1.3-0.3,2.5-1,3.6s-1.5,2.2-2.7,3.2l-1.5-0.9
				c-0.1-0.1-0.2-0.2-0.3-0.3c-0.1-0.1-0.1-0.2-0.1-0.3c0-0.2,0.1-0.4,0.2-0.6c0.2-0.2,0.3-0.4,0.5-0.6c0.2-0.2,0.3-0.5,0.5-0.8
				s0.3-0.6,0.4-1s0.1-0.7,0.1-1.1c0-0.4-0.1-0.9-0.2-1.4s-0.4-1-0.7-1.5c-0.1-0.2-0.2-0.3-0.2-0.5c0-0.4,0.2-0.7,0.7-0.8L382,24z
				 M388.3,24c0.4,0.7,0.8,1.4,1,2.1c0.2,0.7,0.3,1.4,0.3,2.1c0,1.3-0.3,2.5-1,3.6s-1.5,2.2-2.7,3.2l-1.5-0.9
				c-0.1-0.1-0.2-0.2-0.3-0.3c0-0.1-0.1-0.2-0.1-0.3c0-0.2,0.1-0.4,0.2-0.6c0.2-0.2,0.3-0.4,0.5-0.6s0.3-0.5,0.5-0.8s0.3-0.6,0.4-1
				s0.1-0.7,0.1-1.1c0-0.4-0.1-0.9-0.2-1.4s-0.4-1-0.7-1.5c-0.1-0.2-0.2-0.3-0.2-0.5c0-0.4,0.2-0.7,0.7-0.8L388.3,24z"/>
		</g>
	</g>
	<g id="XMLID_1_">
		<path id="XMLID_2_" d="M120.7,2.3v6.6h-3.5V-9.9h6.1c1.3,0,2.3,0.1,3.3,0.4c0.9,0.3,1.7,0.7,2.3,1.2c0.6,0.5,1,1.2,1.3,1.9
			s0.4,1.5,0.4,2.4c0,0.9-0.2,1.7-0.5,2.5c-0.3,0.8-0.8,1.4-1.4,2c-0.6,0.5-1.4,1-2.3,1.3s-2,0.5-3.2,0.5H120.7z M120.7-0.4h2.6
			c0.6,0,1.2-0.1,1.7-0.2c0.5-0.2,0.9-0.4,1.2-0.7c0.3-0.3,0.5-0.7,0.7-1.1c0.2-0.4,0.2-0.9,0.2-1.4s-0.1-1-0.2-1.4
			c-0.2-0.4-0.4-0.8-0.7-1c-0.3-0.2-0.7-0.5-1.2-0.7s-1-0.2-1.7-0.2h-2.6V-0.4z"/>
		<path id="XMLID_7_" d="M143,8.9h-1.4c-0.3,0-0.5,0-0.7-0.1c-0.2-0.1-0.3-0.3-0.4-0.6l-0.3-0.9c-0.3,0.3-0.7,0.6-1,0.8
			c-0.3,0.2-0.7,0.4-1,0.6S137.5,9,137.1,9c-0.4,0-0.8,0.1-1.3,0.1c-0.6,0-1.1-0.1-1.6-0.2c-0.5-0.2-0.9-0.4-1.2-0.7
			c-0.3-0.3-0.6-0.7-0.8-1.1s-0.3-1-0.3-1.6c0-0.5,0.1-1,0.4-1.5s0.7-0.9,1.3-1.3c0.6-0.4,1.4-0.7,2.5-1c1-0.3,2.3-0.4,3.8-0.4V0.5
			c0-0.9-0.2-1.6-0.6-2c-0.4-0.4-0.9-0.6-1.6-0.6c-0.5,0-1,0.1-1.3,0.2s-0.6,0.3-0.9,0.4c-0.3,0.2-0.5,0.3-0.7,0.4s-0.5,0.2-0.7,0.2
			c-0.2,0-0.4-0.1-0.6-0.2s-0.3-0.3-0.4-0.4l-0.6-1c1.5-1.4,3.4-2.1,5.6-2.1c0.8,0,1.5,0.1,2.1,0.4c0.6,0.3,1.1,0.6,1.6,1.1
			c0.4,0.5,0.7,1,1,1.6c0.2,0.6,0.3,1.3,0.3,2.1v8.3H143z M136.8,6.9c0.3,0,0.6,0,0.9-0.1s0.5-0.1,0.8-0.3s0.5-0.3,0.7-0.4
			s0.5-0.4,0.7-0.6V3.3c-0.9,0-1.7,0.1-2.3,0.2c-0.6,0.1-1.1,0.3-1.5,0.5c-0.4,0.2-0.7,0.4-0.8,0.6C135,4.8,135,5.1,135,5.4
			c0,0.6,0.2,1,0.5,1.2C135.8,6.8,136.2,6.9,136.8,6.9z"/>
		<path id="XMLID_10_" d="M146.2,8.9V-4.4h1.8c0.3,0,0.6,0.1,0.7,0.2c0.1,0.1,0.2,0.3,0.3,0.6l0.2,1.6c0.5-0.8,1-1.5,1.7-2
			c0.6-0.5,1.4-0.7,2.2-0.7c0.7,0,1.2,0.2,1.6,0.5l-0.4,2.4c0,0.2-0.1,0.3-0.2,0.3c-0.1,0.1-0.2,0.1-0.4,0.1c-0.1,0-0.3,0-0.5-0.1
			s-0.5-0.1-0.9-0.1c-0.7,0-1.2,0.2-1.7,0.6s-0.9,0.9-1.2,1.6v8.3C149.4,8.9,146.2,8.9,146.2,8.9z"/>
		<path id="XMLID_12_" d="M166.9,8.9h-1.4c-0.3,0-0.5,0-0.7-0.1s-0.3-0.3-0.4-0.6L164,7.3c-0.3,0.3-0.7,0.6-1,0.8
			c-0.3,0.2-0.7,0.4-1,0.6S161.3,9,160.9,9c-0.4,0-0.8,0.1-1.3,0.1c-0.6,0-1.1-0.1-1.6-0.2c-0.5-0.2-0.9-0.4-1.2-0.7
			c-0.3-0.3-0.6-0.7-0.8-1.1c-0.2-0.4-0.3-1-0.3-1.6c0-0.5,0.1-1,0.4-1.5s0.7-0.9,1.3-1.3c0.6-0.4,1.4-0.7,2.5-1
			c1-0.3,2.3-0.4,3.8-0.4V0.5c0-0.9-0.2-1.6-0.6-2s-0.9-0.6-1.6-0.6c-0.5,0-1,0.1-1.3,0.2c-0.3,0.1-0.6,0.3-0.9,0.4
			c-0.3,0.2-0.5,0.3-0.7,0.4s-0.5,0.2-0.7,0.2s-0.4-0.1-0.6-0.2s-0.3-0.3-0.4-0.4l-0.6-1c1.5-1.4,3.4-2.1,5.6-2.1
			c0.8,0,1.5,0.1,2.1,0.4c0.6,0.3,1.1,0.6,1.6,1.1c0.4,0.5,0.7,1,1,1.6c0.2,0.6,0.3,1.3,0.3,2.1C166.9,0.6,166.9,8.9,166.9,8.9z
			 M160.6,6.9c0.3,0,0.6,0,0.9-0.1s0.5-0.1,0.8-0.3s0.5-0.3,0.7-0.4s0.5-0.4,0.7-0.6V3.3c-0.9,0-1.7,0.1-2.3,0.2
			c-0.6,0.1-1.1,0.3-1.5,0.5c-0.4,0.2-0.7,0.4-0.8,0.6c-0.2,0.2-0.2,0.5-0.2,0.8c0,0.6,0.2,1,0.5,1.2C159.6,6.8,160.1,6.9,160.6,6.9
			z"/>
		<path id="XMLID_15_" d="M180.5-4.6c0.8,0,1.6,0.1,2.3,0.4s1.3,0.7,1.8,1.2s0.9,1.1,1.2,1.9s0.4,1.6,0.4,2.6c0,0.2,0,0.4,0,0.6
			s-0.1,0.3-0.1,0.4c-0.1,0.1-0.1,0.2-0.2,0.2s-0.2,0.1-0.4,0.1h-8.2c0.1,1.4,0.5,2.4,1.1,3s1.5,1,2.5,1c0.5,0,1-0.1,1.3-0.2
			s0.7-0.3,1-0.4s0.5-0.3,0.7-0.4s0.4-0.2,0.6-0.2c0.1,0,0.2,0,0.3,0.1c0.1,0.1,0.2,0.1,0.2,0.2l0.9,1.2c-0.4,0.4-0.8,0.8-1.2,1
			s-0.9,0.5-1.4,0.7s-1,0.3-1.5,0.4s-1,0.1-1.4,0.1c-0.9,0-1.8-0.2-2.6-0.5c-0.8-0.3-1.5-0.8-2.1-1.4s-1.1-1.3-1.4-2.2
			c-0.3-0.9-0.5-1.9-0.5-3.1c0-0.9,0.1-1.8,0.4-2.6c0.3-0.8,0.7-1.5,1.3-2.1s1.2-1.1,2-1.4C178.7-4.4,179.5-4.6,180.5-4.6z
			 M180.6-2.3c-0.9,0-1.7,0.3-2.2,0.8s-0.9,1.3-1,2.2h6c0-0.4-0.1-0.8-0.2-1.2c-0.1-0.4-0.3-0.7-0.5-1c-0.2-0.3-0.5-0.5-0.9-0.7
			C181.5-2.2,181.1-2.3,180.6-2.3z"/>
		<path id="XMLID_18_" d="M192.3-10.4V8.9h-3.2v-19.3H192.3z"/>
	</g>
</g>
<g id="XMLID_262_">
	<g id="XMLID_139_">
		<path id="XMLID_140_" d="M249.6,111.4L249.6,111.4c0-3.6,2.7-6.7,6.6-6.7c3.9,0,6.5,3.1,6.5,6.6l0,0c0,3.5-2.7,6.6-6.6,6.6
			C252.3,118,249.6,114.9,249.6,111.4 M261.2,111.4L261.2,111.4c0-2.9-2.1-5.3-5.1-5.3c-2.9,0-5,2.3-5,5.3l0,0
			c0,2.9,2.1,5.3,5.1,5.3C259.1,116.7,261.2,114.3,261.2,111.4 M264.1,105h1.6l3.7,10.7l3.5-10.7h1.2l3.5,10.7l3.7-10.7h1.5
			l-4.6,12.9H277l-3.5-10.4l-3.5,10.4h-1.2L264.1,105z M285.4,105h9.3v1.3h-7.8v4.4h7v1.3h-7v4.5h7.9v1.3h-9.4V105z M297.6,105h5.5
			c1.6,0,2.8,0.5,3.6,1.3c0.6,0.6,1,1.5,1,2.5l0,0c0,2.1-1.5,3.4-3.5,3.7l3.9,5.2h-1.8l-3.7-5h-3.7v5h-1.4V105H297.6z M303,111.5
			c1.9,0,3.3-1,3.3-2.6l0,0c0-1.6-1.2-2.5-3.3-2.5h-4v5.2L303,111.5L303,111.5z M242.7,113.4h-3.2v4.6H238v-13.2h4.9
			c3,0,4.9,1.6,4.9,4.2C247.8,111.9,245.5,113.4,242.7,113.4 M242.8,106.2h-3.3v5.8h3.3c2.2,0,3.6-1.2,3.6-2.9
			C246.3,107.2,244.9,106.2,242.8,106.2 M333.7,72.3c-7.3,0-13.2,5.9-13.2,13.2c0,7.3,5.9,13.2,13.2,13.2c7.3,0,13.2-5.9,13.2-13.2
			C346.9,78.2,341,72.3,333.7,72.3 M333.7,93.7c-4.6,0-8.2-3.7-8.2-8.2c0-4.6,3.7-8.2,8.2-8.2c4.6,0,8.2,3.7,8.2,8.2
			C342,90,338.2,93.7,333.7,93.7 M317.6,93.7h1.1v4.9h-1.1c-5.7,0-10.3-4.6-10.3-10.3V65.7h4.9v6.6h6.4v4.9h-6.4v11.1
			C312.2,91.3,314.6,93.7,317.6,93.7 M274.3,82.6v15.7h-4.9V82.6c0-3-2.4-5.4-5.4-5.4s-5.4,2.4-5.4,5.4v15.7h-4.9V82.6
			c0-3-2.4-5.4-5.4-5.4s-5.4,2.4-5.4,5.4v15.7H238V82.6c0-5.7,4.6-10.3,10.3-10.3c3.2,0,6,1.4,7.9,3.6c1.9-2.2,4.7-3.6,7.9-3.6
			C269.7,72.3,274.3,76.9,274.3,82.6 M290.8,72.3c-7.3,0-13.2,5.9-13.2,13.2c0,7.3,5.9,13.2,13.2,13.2c7.3,0,13.2-5.9,13.2-13.2
			C304,78.2,298.1,72.3,290.8,72.3 M290.8,93.7c-4.6,0-8.2-3.7-8.2-8.2c0-4.6,3.7-8.2,8.2-8.2c4.6,0,8.2,3.7,8.2,8.2
			C299.1,90,295.3,93.7,290.8,93.7 M373.6,95.8c-5.7,4.5-14,3.5-18.5-2.3c-4.5-5.7-3.5-14,2.3-18.5c5.7-4.5,14-3.5,18.5,2.3
			c0-1.6,0-3.3,0-5.1h2.8v24.6c0,8.8-6,13.7-14.3,13.7c-3.8,0-7.5-0.9-10.8-2.8l1.3-2.5c2.9,1.7,6.2,2.6,9.6,2.6
			c6.7,0,11.4-3.8,11.4-11.3c0-1,0-2.1,0-3.1C375.2,94.4,374.4,95.2,373.6,95.8 M355.1,85.4c0,5.7,4.6,10.3,10.3,10.3
			c5.7,0,10.3-4.6,10.3-10.3s-4.6-10.3-10.3-10.3C359.8,75.1,355.1,79.7,355.1,85.4 M390.6,73.8h-7.9v-1.5h9.7v1.2l-6.5,13.1h-1.8
			L390.6,73.8z"/>
	</g>
</g>
</svg>
