<?xml version="1.0" encoding="utf-8"?>
<!-- Generator: Adobe Illustrator 19.0.0, SVG Export Plug-In . SVG Version: 6.00 Build 0)  -->
<svg version="1.1" id="Capa_1" xmlns="http://www.w3.org/2000/svg" xmlns:xlink="http://www.w3.org/1999/xlink" x="0px" y="0px"
	 viewBox="390 -50 320 200" style="enable-background:new 390 -50 320 200;" xml:space="preserve">
<style type="text/css">
	.st0{fill:none;stroke:#000000;stroke-miterlimit:10;}
</style>
<g>
	<g>
		<path d="M399.6-22.5c-1.3-2.2-2-4.4-2-6.6c0-2,0.5-3.8,1.5-5.6s2.4-3.4,4.3-4.9l2.3,1.4c0.2,0.1,0.3,0.3,0.4,0.4
			c0.1,0.2,0.1,0.3,0.1,0.5c0,0.2,0,0.3-0.1,0.5c-0.1,0.2-0.2,0.3-0.3,0.4c-0.3,0.3-0.5,0.6-0.8,1c-0.3,0.4-0.5,0.8-0.8,1.3
			c-0.2,0.5-0.4,1-0.6,1.5c-0.2,0.5-0.2,1.1-0.2,1.8s0.1,1.4,0.3,2.1c0.2,0.8,0.6,1.5,1.1,2.4c0.2,0.3,0.3,0.5,0.3,0.8
			c0,0.6-0.4,1.1-1.1,1.3L399.6-22.5z M409.4-22.5c-1.3-2.2-2-4.4-2-6.6c0-2,0.5-3.8,1.5-5.6s2.4-3.4,4.3-4.9l2.3,1.4
			c0.2,0.1,0.3,0.3,0.4,0.4c0.1,0.2,0.1,0.3,0.1,0.5c0,0.2,0,0.3-0.1,0.5c-0.1,0.2-0.2,0.3-0.3,0.4c-0.3,0.3-0.5,0.6-0.8,1
			c-0.3,0.4-0.5,0.8-0.8,1.3c-0.2,0.5-0.4,1-0.6,1.5c-0.2,0.5-0.2,1.1-0.2,1.8c0,0.7,0.1,1.4,0.3,2.1c0.2,0.8,0.6,1.5,1.1,2.4
			c0.2,0.3,0.3,0.5,0.3,0.8c0,0.6-0.4,1.1-1.1,1.3L409.4-22.5z"/>
		<path d="M448.8-36.3v6.3H430v11.8h14.8v6.1H430v12h18.8v6.3H422v-42.5H448.8z"/>
		<path d="M463-37.5V6.1h-7.3v-43.6H463z"/>
		<path d="M506.1,6.2h-3.3c-0.7,0-1.2-0.1-1.6-0.3c-0.4-0.2-0.7-0.6-0.9-1.2l-0.6-2.1c-0.8,0.7-1.5,1.3-2.2,1.8
			c-0.7,0.5-1.5,1-2.3,1.3c-0.8,0.3-1.6,0.6-2.5,0.8c-0.9,0.2-1.9,0.3-2.9,0.3c-1.3,0-2.4-0.2-3.5-0.5s-2-0.9-2.8-1.5
			c-0.8-0.6-1.4-1.5-1.8-2.6C481.2,1.1,481,0,481-1.4c0-1.1,0.3-2.3,0.9-3.4c0.6-1.1,1.6-2.1,3-3s3.2-1.6,5.6-2.2
			c2.3-0.6,5.2-0.9,8.6-0.9v-1.9c0-2-0.4-3.5-1.3-4.5c-0.9-1-2.1-1.5-3.7-1.5c-1.2,0-2.2,0.1-2.9,0.4c-0.8,0.3-1.5,0.6-2,0.9
			c-0.6,0.3-1.1,0.7-1.6,0.9c-0.5,0.3-1,0.4-1.6,0.4c-0.5,0-0.9-0.1-1.3-0.4c-0.4-0.3-0.6-0.6-0.9-0.9l-1.3-2.3
			c3.5-3.2,7.6-4.8,12.5-4.8c1.8,0,3.3,0.3,4.7,0.9c1.4,0.6,2.5,1.4,3.5,2.4s1.7,2.3,2.2,3.7c0.5,1.4,0.7,3,0.7,4.7L506.1,6.2
			L506.1,6.2z M492,1.7c0.7,0,1.4-0.1,2.1-0.2c0.6-0.1,1.2-0.3,1.8-0.6s1.1-0.6,1.6-1s1-0.9,1.6-1.4v-5c-2.1,0-3.9,0.1-5.3,0.4
			s-2.6,0.6-3.4,1c-0.9,0.4-1.5,0.9-1.8,1.4c-0.4,0.6-0.5,1.2-0.5,1.8c0,1.3,0.4,2.2,1.1,2.8C489.8,1.4,490.8,1.7,492,1.7z"/>
		<path d="M513.2,6.2v-30.1h4.4c0.9,0,1.6,0.4,1.9,1.3l0.5,2.2c0.5-0.6,1.1-1.1,1.7-1.6s1.2-0.9,1.9-1.3c0.7-0.4,1.4-0.6,2.1-0.8
			c0.8-0.2,1.6-0.3,2.5-0.3c1.9,0,3.5,0.5,4.7,1.5c1.2,1,2.1,2.4,2.7,4.1c0.5-1,1.1-1.9,1.8-2.6c0.7-0.7,1.5-1.3,2.3-1.7
			c0.8-0.5,1.7-0.8,2.7-1s1.9-0.3,2.9-0.3c1.7,0,3.1,0.3,4.4,0.8s2.4,1.3,3.3,2.2c0.9,1,1.6,2.2,2,3.6c0.5,1.4,0.7,3,0.7,4.8V6.2
			h-7.3V-13c0-1.9-0.4-3.4-1.3-4.3c-0.8-1-2.1-1.5-3.7-1.5c-0.7,0-1.4,0.1-2.1,0.4c-0.6,0.3-1.2,0.6-1.7,1.1s-0.9,1.1-1.1,1.8
			c-0.3,0.7-0.4,1.6-0.4,2.5V6.2h-7.4V-13c0-2-0.4-3.5-1.2-4.4c-0.8-0.9-2-1.4-3.6-1.4c-1,0-2,0.3-2.9,0.8c-0.9,0.5-1.8,1.2-2.5,2.1
			V6.2H513.2z"/>
		<path d="M571.5-32.7c0,0.6-0.1,1.2-0.4,1.8c-0.3,0.5-0.6,1-1,1.4c-0.4,0.4-0.9,0.7-1.5,1c-0.6,0.2-1.2,0.4-1.8,0.4
			c-0.6,0-1.2-0.1-1.8-0.4c-0.6-0.2-1-0.6-1.5-1s-0.7-0.9-1-1.4c-0.2-0.5-0.4-1.1-0.4-1.8c0-0.6,0.1-1.3,0.4-1.8
			c0.2-0.6,0.6-1.1,1-1.5c0.4-0.4,0.9-0.7,1.5-1c0.6-0.2,1.1-0.4,1.8-0.4c0.6,0,1.3,0.1,1.8,0.4c0.6,0.2,1.1,0.6,1.5,1
			c0.4,0.4,0.8,0.9,1,1.5C571.3-34,571.5-33.4,571.5-32.7z M570.5-23.9V6.2h-7.3v-30.1H570.5z"/>
		<path d="M589-24.5c1.3,0,2.5,0.1,3.6,0.4c1.1,0.3,2.2,0.7,3.1,1.2h8.7v2.7c0,0.5-0.1,0.8-0.4,1.1c-0.2,0.3-0.6,0.4-1.2,0.5
			l-2.7,0.5c0.2,0.5,0.3,1,0.5,1.6c0.2,0.6,0.2,1.2,0.2,1.8c0,1.5-0.3,2.8-0.9,4c-0.6,1.2-1.4,2.2-2.5,3.1c-1,0.8-2.3,1.5-3.7,2
			c-1.4,0.5-3,0.7-4.7,0.7c-1.1,0-2.2-0.1-3.3-0.3c-0.9,0.6-1.4,1.2-1.4,1.9c0,0.6,0.3,1.1,0.8,1.3c0.6,0.3,1.3,0.5,2.2,0.6
			c0.9,0.1,1.9,0.2,3.1,0.2s2.3,0,3.6,0.1c1.3,0.1,2.4,0.3,3.6,0.5s2.2,0.6,3.1,1.2c0.9,0.6,1.6,1.3,2.2,2.2
			c0.6,0.9,0.8,2.1,0.8,3.5c0,1.3-0.3,2.6-1,3.9s-1.6,2.4-2.8,3.4s-2.8,1.8-4.6,2.4s-3.9,0.9-6.2,0.9s-4.3-0.2-6-0.7s-3.1-1-4.2-1.8
			c-1.1-0.7-1.9-1.6-2.5-2.5c-0.6-0.9-0.8-2-0.8-3c0-1.4,0.4-2.6,1.3-3.6c0.9-1,2.1-1.7,3.6-2.3c-0.7-0.4-1.3-1-1.8-1.6
			s-0.7-1.6-0.7-2.7c0-0.5,0.1-0.9,0.2-1.4c0.2-0.5,0.4-1,0.7-1.4c0.3-0.4,0.7-0.9,1.2-1.3c0.5-0.4,1.1-0.8,1.7-1.1
			c-1.5-0.8-2.7-1.9-3.6-3.3c-0.9-1.4-1.3-3-1.3-4.8c0-1.5,0.3-2.8,0.9-4c0.6-1.2,1.4-2.2,2.5-3.1c1.1-0.9,2.3-1.5,3.8-2
			C585.8-24.2,587.2-24.5,589-24.5z M597,7.5c0-0.6-0.2-1.1-0.5-1.5c-0.4-0.4-0.8-0.7-1.4-0.9c-0.6-0.2-1.3-0.4-2.1-0.5
			s-1.7-0.2-2.6-0.2c-0.9,0-1.8,0-2.8,0s-1.9-0.1-2.8-0.3c-0.8,0.5-1.5,1-2,1.6S582,7,582,7.8c0,0.5,0.1,1,0.4,1.5s0.7,0.9,1.3,1.2
			c0.6,0.3,1.3,0.6,2.2,0.8c0.9,0.2,2,0.3,3.4,0.3c1.4,0,2.5-0.1,3.5-0.3c1-0.2,1.8-0.5,2.4-0.9c0.6-0.4,1.1-0.8,1.4-1.3
			C596.8,8.6,597,8.1,597,7.5z M589-9.6c0.9,0,1.7-0.1,2.3-0.4c0.7-0.2,1.2-0.6,1.7-1s0.8-0.9,1-1.6c0.2-0.6,0.3-1.3,0.3-2
			c0-1.5-0.4-2.7-1.3-3.5c-0.9-0.9-2.2-1.3-4-1.3c-1.8,0-3.1,0.4-4,1.3c-0.9,0.9-1.3,2.1-1.3,3.5c0,0.7,0.1,1.4,0.3,2
			c0.2,0.6,0.6,1.1,1,1.6c0.4,0.4,1,0.8,1.7,1C587.3-9.7,588.2-9.6,589-9.6z"/>
		<path d="M621.8-24.4c2.3,0,4.3,0.4,6.1,1.1c1.8,0.7,3.4,1.8,4.7,3.1c1.3,1.3,2.3,3,3,4.9s1.1,4.1,1.1,6.4c0,2.4-0.4,4.5-1.1,6.5
			c-0.7,1.9-1.7,3.6-3,4.9c-1.3,1.4-2.9,2.4-4.7,3.1s-3.9,1.1-6.1,1.1c-2.3,0-4.3-0.4-6.1-1.1s-3.4-1.8-4.7-3.1
			c-1.3-1.4-2.3-3-3-4.9s-1.1-4.1-1.1-6.5s0.4-4.5,1.1-6.4s1.7-3.5,3-4.9c1.3-1.3,2.9-2.4,4.7-3.1C617.5-24.1,619.7-24.4,621.8-24.4
			z M621.8,1c2.5,0,4.4-0.8,5.6-2.5s1.8-4.2,1.8-7.4s-0.6-5.7-1.8-7.4c-1.2-1.7-3.1-2.6-5.6-2.6s-4.4,0.9-5.6,2.6
			c-1.2,1.7-1.8,4.2-1.8,7.4s0.6,5.7,1.8,7.4S619.3,1,621.8,1z"/>
	</g>
	<g>
		<path d="M508,44.4c-0.5,0-0.9-0.3-1-0.8l-0.3-2.6c-0.9,1.1-1.9,2-3.1,2.7s-2.5,1-4,1c-1.2,0-2.3-0.2-3.3-0.7s-1.8-1.2-2.5-2.1
			c-0.7-0.9-1.2-2-1.6-3.4s-0.6-2.9-0.6-4.7c0-1.6,0.2-3,0.6-4.4c0.4-1.4,1-2.5,1.8-3.5c0.8-1,1.8-1.8,2.9-2.3
			c1.1-0.6,2.4-0.9,3.9-0.9c1.3,0,2.4,0.2,3.3,0.7c0.9,0.4,1.8,1.1,2.5,1.9V13.5h3.7v30.9C510.2,44.3,508,44.3,508,44.4z
			 M500.6,41.7c1.2,0,2.3-0.3,3.2-0.8c0.9-0.6,1.8-1.4,2.5-2.4V28.2c-0.7-0.9-1.4-1.6-2.3-1.9c-0.8-0.4-1.7-0.6-2.7-0.6
			c-2,0-3.5,0.7-4.6,2.1c-1.1,1.4-1.6,3.4-1.6,6c0,1.4,0.1,2.6,0.4,3.6c0.2,1,0.6,1.8,1,2.4c0.5,0.6,1,1.1,1.7,1.4
			C499.1,41.6,499.8,41.7,500.6,41.7z"/>
		<path d="M524.8,22.7c1.3,0,2.4,0.2,3.5,0.6c1.1,0.4,2,1,2.8,1.8c0.8,0.8,1.4,1.8,1.8,3c0.4,1.2,0.7,2.5,0.7,4c0,0.6-0.1,1-0.2,1.2
			c-0.1,0.2-0.4,0.3-0.7,0.3h-14.2c0,1.3,0.2,2.5,0.5,3.5c0.3,1,0.8,1.8,1.4,2.5s1.3,1.2,2.1,1.5c0.8,0.3,1.7,0.5,2.7,0.5
			c0.9,0,1.7-0.1,2.4-0.3c0.7-0.2,1.3-0.5,1.8-0.7c0.5-0.3,0.9-0.5,1.2-0.7c0.3-0.2,0.6-0.3,0.9-0.3s0.5,0.1,0.7,0.4l1.1,1.4
			c-0.5,0.6-1,1-1.7,1.5c-0.7,0.5-1.3,0.8-2.1,1c-0.7,0.3-1.5,0.5-2.3,0.6s-1.6,0.2-2.3,0.2c-1.5,0-2.8-0.2-4.1-0.7
			c-1.2-0.5-2.3-1.2-3.2-2.2c-0.9-1-1.6-2.1-2.1-3.6s-0.8-3-0.8-4.9c0-1.5,0.2-2.9,0.7-4.2s1.1-2.4,2-3.4c0.9-0.9,1.9-1.7,3.1-2.2
			C522,23.1,523.2,22.7,524.8,22.7z M525,25.6c-1.8,0-3.2,0.5-4.3,1.6c-1,1-1.7,2.5-1.9,4.3h11.6c0-0.9-0.1-1.7-0.4-2.4
			c-0.2-0.7-0.6-1.3-1-1.9c-0.5-0.5-1-0.9-1.7-1.2C526.5,25.7,525.8,25.6,525,25.6z"/>
		<path d="M558.8,26.7c-0.2,0.3-0.4,0.5-0.8,0.5c-0.2,0-0.4-0.1-0.7-0.2c-0.3-0.2-0.6-0.3-1-0.5c-0.4-0.2-0.8-0.4-1.4-0.5
			c-0.5-0.2-1.2-0.2-1.9-0.2c-0.6,0-1.2,0.1-1.7,0.2c-0.5,0.2-0.9,0.4-1.3,0.7c-0.4,0.3-0.6,0.6-0.8,1s-0.3,0.8-0.3,1.2
			c0,0.5,0.2,1,0.5,1.4c0.3,0.4,0.7,0.7,1.2,0.9c0.5,0.3,1.1,0.5,1.8,0.7c0.7,0.2,1.3,0.4,2,0.7c0.7,0.2,1.4,0.5,2,0.8
			c0.7,0.3,1.2,0.6,1.8,1c0.5,0.4,0.9,0.9,1.2,1.5c0.3,0.6,0.5,1.3,0.5,2.2c0,1-0.2,1.9-0.5,2.7c-0.4,0.8-0.9,1.6-1.6,2.2
			c-0.7,0.6-1.5,1.1-2.5,1.4c-1,0.4-2.1,0.5-3.4,0.5c-1.5,0-2.8-0.2-4-0.7c-1.2-0.5-2.2-1.1-3.1-1.9l0.9-1.4
			c0.1-0.2,0.2-0.3,0.4-0.4c0.2-0.1,0.4-0.1,0.6-0.1c0.3,0,0.5,0.1,0.8,0.3s0.6,0.4,1,0.7c0.4,0.3,0.9,0.5,1.4,0.7
			c0.6,0.2,1.3,0.3,2.1,0.3c0.7,0,1.4-0.1,1.9-0.3s1-0.4,1.4-0.8c0.4-0.3,0.6-0.7,0.8-1.1c0.2-0.4,0.3-0.9,0.3-1.3
			c0-0.6-0.2-1.1-0.5-1.5c-0.3-0.4-0.7-0.7-1.2-1s-1.1-0.5-1.8-0.7c-0.7-0.2-1.3-0.4-2-0.6c-0.7-0.2-1.4-0.5-2-0.8
			c-0.6-0.3-1.3-0.6-1.8-1.1c-0.5-0.4-0.9-1-1.2-1.6c-0.3-0.6-0.5-1.4-0.5-2.3c0-0.8,0.2-1.6,0.5-2.3c0.3-0.7,0.8-1.4,1.5-2
			c0.6-0.6,1.4-1,2.4-1.4c0.9-0.3,2-0.5,3.2-0.5c1.4,0,2.7,0.2,3.8,0.7c1.1,0.5,2.1,1,2.9,1.8L558.8,26.7z"/>
		<path d="M569.8,16.5c0,0.4-0.1,0.7-0.2,1c-0.1,0.3-0.3,0.6-0.6,0.8s-0.5,0.4-0.9,0.6c-0.3,0.1-0.7,0.2-1,0.2c-0.3,0-0.7-0.1-1-0.2
			c-0.3-0.1-0.6-0.3-0.8-0.6s-0.4-0.5-0.6-0.8c-0.1-0.3-0.2-0.7-0.2-1c0-0.4,0.1-0.7,0.2-1c0.1-0.3,0.3-0.6,0.6-0.9s0.5-0.4,0.8-0.6
			c0.3-0.1,0.7-0.2,1-0.2c0.3,0,0.7,0.1,1,0.2c0.3,0.1,0.6,0.3,0.9,0.6s0.4,0.5,0.6,0.9C569.7,15.7,569.8,16.1,569.8,16.5z
			 M569,23.2v21.3h-3.7V23.2H569z"/>
		<path d="M584,22.7c1.3,0,2.5,0.2,3.5,0.6c1.1,0.4,2,1,2.8,1.8s1.4,1.8,1.8,3c0.4,1.2,0.7,2.5,0.7,4c0,0.6-0.1,1-0.2,1.2
			c-0.1,0.2-0.4,0.3-0.7,0.3h-14.2c0,1.3,0.2,2.5,0.5,3.5s0.8,1.8,1.4,2.5c0.6,0.7,1.3,1.2,2.1,1.5s1.7,0.5,2.7,0.5
			c0.9,0,1.7-0.1,2.4-0.3s1.3-0.5,1.8-0.7s0.9-0.5,1.2-0.7s0.6-0.3,0.9-0.3s0.5,0.1,0.7,0.4l1,1.4c-0.5,0.6-1,1-1.7,1.5
			c-0.6,0.4-1.3,0.8-2.1,1c-0.7,0.3-1.5,0.5-2.3,0.6s-1.6,0.2-2.3,0.2c-1.5,0-2.8-0.2-4.1-0.7c-1.2-0.5-2.3-1.2-3.2-2.2
			c-0.9-1-1.6-2.1-2.1-3.6c-0.5-1.4-0.8-3-0.8-4.9c0-1.5,0.2-2.9,0.7-4.2s1.1-2.4,2-3.4c0.9-0.9,1.9-1.7,3.1-2.2
			C581,23.1,582.3,22.7,584,22.7z M584,25.6c-1.8,0-3.2,0.5-4.3,1.6c-1,1-1.7,2.5-1.9,4.3h11.6c0-0.9-0.1-1.7-0.4-2.4
			c-0.2-0.7-0.6-1.3-1-1.9c-0.4-0.6-1-0.9-1.7-1.2C585.7,25.7,584.8,25.6,584,25.6z"/>
		<path d="M597.5,44.4V23.2h2.2c0.5,0,0.9,0.3,1,0.8l0.3,2.2c0.8-1,1.7-1.8,2.6-2.4c1-0.6,2.1-0.9,3.4-0.9c1.4,0,2.6,0.4,3.5,1.2
			c0.9,0.8,1.5,1.9,1.9,3.2c0.3-0.8,0.7-1.4,1.2-2s1-1,1.6-1.4c0.6-0.4,1.2-0.6,1.9-0.8s1.4-0.3,2.1-0.3c1.1,0,2.1,0.2,3,0.5
			c0.9,0.3,1.6,0.9,2.2,1.6c0.6,0.7,1.1,1.5,1.4,2.5s0.5,2.1,0.5,3.4v13.5h-3.7V30.9c0-1.7-0.4-2.9-1.1-3.8s-1.8-1.3-3.2-1.3
			c-0.6,0-1.2,0.1-1.8,0.3s-1,0.5-1.5,1c-0.4,0.4-0.8,0.9-1,1.6c-0.2,0.6-0.4,1.4-0.4,2.2v13.5H610V30.9c0-1.7-0.3-3-1-3.8
			s-1.7-1.3-3-1.3c-0.9,0-1.8,0.2-2.6,0.7c-0.8,0.5-1.5,1.2-2.2,2v15.9C601.2,44.4,597.5,44.4,597.5,44.4z"/>
		<path d="M632,51.6V23.2h2.2c0.5,0,0.9,0.3,1,0.8l0.3,2.5c0.9-1.1,1.9-2,3.1-2.7s2.5-1,4-1c1.2,0,2.3,0.2,3.3,0.7s1.8,1.2,2.5,2.1
			c0.7,0.9,1.2,2.1,1.6,3.4c0.4,1.4,0.6,2.9,0.6,4.7c0,1.6-0.2,3-0.6,4.4c-0.4,1.4-1,2.5-1.8,3.5s-1.7,1.8-2.9,2.3
			c-1.1,0.6-2.4,0.9-3.9,0.9c-1.3,0-2.4-0.2-3.4-0.7c-0.9-0.4-1.8-1-2.5-1.8v9.4L632,51.6L632,51.6z M641.5,25.7
			c-1.2,0-2.3,0.3-3.2,0.8c-0.9,0.6-1.8,1.4-2.5,2.4v10.3c0.7,0.9,1.4,1.6,2.3,2c0.8,0.4,1.7,0.6,2.7,0.6c2,0,3.5-0.7,4.6-2.1
			c1.1-1.4,1.6-3.4,1.6-6c0-1.4-0.1-2.6-0.4-3.6c-0.2-1-0.6-1.8-1.1-2.4c-0.5-0.6-1-1.1-1.7-1.4C643,26,642.3,25.7,641.5,25.7z"/>
		<path d="M655.2,44.4V23.2h2.1c0.4,0,0.7,0.1,0.8,0.2c0.2,0.2,0.3,0.4,0.3,0.8l0.3,3.3c0.7-1.5,1.6-2.6,2.7-3.5
			c1.1-0.8,2.3-1.2,3.8-1.2c0.6,0,1.1,0.1,1.6,0.2c0.5,0.1,0.9,0.3,1.3,0.6l-0.5,2.8c-0.1,0.4-0.3,0.5-0.7,0.5
			c-0.2,0-0.5-0.1-0.9-0.2c-0.4-0.1-1-0.2-1.7-0.2c-1.3,0-2.4,0.4-3.3,1.1c-0.9,0.8-1.6,1.9-2.2,3.3v13.5
			C658.8,44.3,655.2,44.3,655.2,44.4z"/>
		<path d="M680.5,22.7c1.3,0,2.5,0.2,3.5,0.6c1.1,0.4,2,1,2.8,1.8s1.4,1.8,1.8,3c0.4,1.2,0.7,2.5,0.7,4c0,0.6-0.1,1-0.2,1.2
			c-0.1,0.2-0.4,0.3-0.7,0.3h-14.2c0,1.3,0.2,2.5,0.5,3.5s0.8,1.8,1.4,2.5c0.6,0.7,1.3,1.2,2.1,1.5s1.7,0.5,2.7,0.5
			c0.9,0,1.7-0.1,2.4-0.3s1.3-0.5,1.8-0.7s0.9-0.5,1.2-0.7c0.3-0.2,0.6-0.3,0.9-0.3s0.5,0.1,0.7,0.4l1,1.4c-0.5,0.6-1,1-1.7,1.5
			c-0.6,0.4-1.3,0.8-2.1,1c-0.7,0.3-1.5,0.5-2.3,0.6s-1.6,0.2-2.3,0.2c-1.5,0-2.8-0.2-4.1-0.7c-1.2-0.5-2.3-1.2-3.2-2.2
			s-1.6-2.1-2.1-3.6c-0.5-1.4-0.8-3-0.8-4.9c0-1.5,0.2-2.9,0.7-4.2s1.1-2.4,2-3.4c0.9-0.9,1.9-1.7,3.1-2.2
			C677.7,23.1,679,22.7,680.5,22.7z M680.7,25.6c-1.8,0-3.2,0.5-4.3,1.6c-1,1-1.7,2.5-1.9,4.3h11.6c0-0.9-0.1-1.7-0.4-2.4
			c-0.2-0.7-0.6-1.3-1-1.9c-0.4-0.6-1-0.9-1.7-1.2C682.2,25.7,681.5,25.6,680.7,25.6z"/>
		<path d="M694.8,12.8c0.4,0.7,0.7,1.3,0.9,2s0.3,1.3,0.3,2c0,1.3-0.3,2.5-0.9,3.6c-0.6,1.2-1.5,2.2-2.6,3.2l-1.2-0.7
			c-0.1-0.1-0.2-0.1-0.2-0.2s-0.1-0.2-0.1-0.3c0-0.2,0.1-0.4,0.2-0.5c0.2-0.3,0.4-0.6,0.7-0.9c0.3-0.3,0.4-0.6,0.6-1
			c0.2-0.3,0.3-0.7,0.4-1.1c0.1-0.4,0.1-0.8,0.1-1.2s-0.1-0.9-0.2-1.4c-0.1-0.5-0.4-1-0.7-1.5c-0.1-0.2-0.1-0.3-0.1-0.5
			c0-0.3,0.2-0.6,0.6-0.7L694.8,12.8z M701.2,12.8c0.4,0.7,0.7,1.3,0.9,2c0.2,0.7,0.3,1.3,0.3,2c0,1.3-0.3,2.5-0.9,3.6
			c-0.6,1.2-1.5,2.2-2.6,3.2l-1.2-0.7c-0.1-0.1-0.2-0.1-0.2-0.2c0-0.1-0.1-0.2-0.1-0.3c0-0.2,0.1-0.4,0.2-0.5
			c0.2-0.3,0.4-0.6,0.7-0.9c0.3-0.3,0.4-0.6,0.6-1c0.2-0.3,0.3-0.7,0.4-1.1c0.1-0.4,0.1-0.8,0.1-1.2s-0.1-0.9-0.2-1.4
			c-0.1-0.5-0.4-1-0.7-1.5c-0.1-0.2-0.1-0.3-0.1-0.5c0-0.3,0.2-0.6,0.6-0.7L701.2,12.8z"/>
	</g>
</g>
<g id="XMLID_63_">
	<g id="XMLID_64_">
		<path id="XMLID_65_" d="M479.7,125.3l-8.7,19.4h2.2l2.3-5.1H486l2.2,5.1h2.3l-8.7-19.4H479.7z M476.4,137.5l4.4-9.8l4.4,9.8H476.4
			z M504.9,125.3h2.5l-8,11.5v7.6h-2.2v-7.6l-8-11.5h2.6l6.4,9.6L504.9,125.3z M444.6,125.3h-7.1v19.2h2.2v-6.7h4.7
			c4.1,0,7.6-2.2,7.6-6.3C451.7,127.6,449,125.3,444.6,125.3 M444.3,135.8h-4.8v-8.5h4.8c3.1,0,5.1,1.5,5.1,4.2
			C449.5,134,447.5,135.8,444.3,135.8 M457.8,142.5h10.8v2h-13v-19.2h2.2V142.5z M475.3,85.1c-4.4,0-7.9,3.5-7.9,7.9v22.9h-7.1v-23
			c0-4.4-3.5-7.9-7.9-7.9s-7.8,3.6-7.8,7.9v22.9h-7.1V92.9c0-8.3,6.7-15,15-15c4.7,0,8.7,2,11.5,5.2c2.8-3.2,6.8-5.2,11.5-5.2
			c8.3,0,15,6.7,15,15v22.9h-7.1V92.9C483.1,88.6,479.6,85.1,475.3,85.1 M662.5,77.9v1.7L653,98.7h-2.6L660,80h-11.5v-2.1H662.5z
			 M638.3,85.2c-6.6-8.3-18.7-9.9-27-3.4s-9.9,18.7-3.4,27s18.7,9.9,27,3.4c1.2-1,2.3-2,3.4-3.4c0,1.5,0,3.1,0,4.5
			c0,10.9-6.8,16.5-16.6,16.5c-5,0-9.6-1.3-14-3.8l-1.9,3.6c4.8,2.8,10.2,4.1,15.7,4.1c12.1,0,20.8-7.1,20.8-20V77.9h-4.1
			C638.3,80.4,638.3,82.9,638.3,85.2 M623.2,112.2c-8.3,0-15-6.7-15-15s6.7-15,15-15s15,6.7,15,15S631.5,112.2,623.2,112.2
			 M576.8,77.9c-10.6,0-19.2,8.6-19.2,19.2s8.6,19.2,19.2,19.2c10.6,0,19.2-8.6,19.2-19.2S587.5,77.9,576.8,77.9 M576.8,109.1
			c-6.7,0-12-5.4-12-12c0-6.6,5.4-12,12-12c6.7,0,12,5.4,12,12C588.8,103.7,583.5,109.1,576.8,109.1 M514.3,77.9
			c-10.6,0-19.2,8.6-19.2,19.2s8.6,19.2,19.2,19.2c10.6,0,19.2-8.6,19.2-19.2S525,77.9,514.3,77.9 M514.3,109.1c-6.7,0-12-5.4-12-12
			c0-6.6,5.4-12,12-12c6.7,0,12,5.4,12,12C526.3,103.7,520.8,109.1,514.3,109.1 M553.3,109.1h1.6v7.1h-1.6c-8.3,0-15-6.7-15-15V68.3
			h7.1v9.6h9.3V85h-9.2v16.2C545.5,105.6,549,109.1,553.3,109.1"/>
	</g>
</g>
<line class="st0" x1="514.5" y1="54.2" x2="585.5" y2="54.2"/>
</svg>
