<?xml version="1.0" encoding="utf-8"?>
<!-- Generator: Adobe Illustrator 19.0.0, SVG Export Plug-In . SVG Version: 6.00 Build 0)  -->
<svg version="1.1" id="Capa_1" xmlns="http://www.w3.org/2000/svg" xmlns:xlink="http://www.w3.org/1999/xlink" x="0px" y="0px"
	 viewBox="250 0 600 100" style="enable-background:new 250 0 600 100;" xml:space="preserve">
<style type="text/css">
	.st0{fill:none;stroke:#000000;stroke-miterlimit:10;}
	.st1{enable-background:new    ;}
</style>
<line class="st0" x1="590.1" y1="15.7" x2="590.1" y2="86.7"/>
<g class="st1">
	<path d="M266.7,42.6c-1.3-2.1-1.9-4.1-1.9-6.2c0-1.9,0.5-3.6,1.4-5.3s2.3-3.3,4.1-4.7l2.1,1.3c0.2,0.1,0.3,0.2,0.4,0.4
		s0.1,0.3,0.1,0.5c0,0.2,0,0.3-0.1,0.5c-0.1,0.1-0.2,0.3-0.3,0.4c-0.2,0.3-0.5,0.6-0.8,1s-0.5,0.8-0.7,1.2c-0.2,0.4-0.4,0.9-0.6,1.4
		s-0.2,1.1-0.2,1.7c0,0.6,0.1,1.3,0.3,2c0.2,0.7,0.5,1.5,1,2.2c0.2,0.3,0.3,0.5,0.3,0.8c0,0.6-0.3,1-1,1.3L266.7,42.6z M275.9,42.6
		c-1.3-2.1-1.9-4.1-1.9-6.2c0-1.9,0.5-3.6,1.4-5.3s2.3-3.3,4.1-4.7l2.1,1.3c0.2,0.1,0.3,0.2,0.4,0.4s0.1,0.3,0.1,0.5
		c0,0.2,0,0.3-0.1,0.5c-0.1,0.1-0.2,0.3-0.3,0.4c-0.2,0.3-0.5,0.6-0.8,1s-0.5,0.8-0.7,1.2c-0.2,0.4-0.4,0.9-0.6,1.4
		s-0.2,1.1-0.2,1.7c0,0.6,0.1,1.3,0.3,2c0.2,0.7,0.5,1.5,1,2.2c0.2,0.3,0.3,0.5,0.3,0.8c0,0.6-0.3,1-1,1.3L275.9,42.6z"/>
	<path d="M313.4,29.5v6h-17.9v11.2h14.1v5.8h-14.1v11.4h17.9v6h-25.4V29.5H313.4z"/>
	<path d="M326.8,28.4v41.4h-6.9V28.4H326.8z"/>
	<path d="M345.4,69.8V41.2h4c0.7,0,1.2,0.1,1.5,0.4c0.3,0.3,0.5,0.7,0.6,1.3l0.4,3.5c1-1.8,2.2-3.2,3.6-4.2c1.4-1,2.9-1.5,4.6-1.5
		c1.4,0,2.6,0.3,3.5,1l-0.9,5.2c-0.1,0.3-0.2,0.6-0.4,0.7c-0.2,0.1-0.4,0.2-0.8,0.2c-0.3,0-0.7-0.1-1.1-0.2
		c-0.5-0.1-1.1-0.2-1.9-0.2c-1.4,0-2.7,0.4-3.7,1.2c-1,0.8-1.9,1.9-2.6,3.5v17.8H345.4z"/>
	<path d="M380,40.8c1.8,0,3.5,0.3,5,0.9s2.8,1.4,3.9,2.5c1.1,1.1,2,2.5,2.6,4.1c0.6,1.6,0.9,3.4,0.9,5.5c0,0.5,0,1-0.1,1.3
		c0,0.3-0.1,0.6-0.3,0.8c-0.1,0.2-0.3,0.3-0.5,0.4c-0.2,0.1-0.5,0.1-0.8,0.1h-17.7c0.2,2.9,1,5.1,2.4,6.5c1.4,1.4,3.2,2.1,5.5,2.1
		c1.1,0,2.1-0.1,2.9-0.4c0.8-0.3,1.5-0.5,2.1-0.9c0.6-0.3,1.1-0.6,1.6-0.9c0.5-0.3,0.9-0.4,1.3-0.4c0.3,0,0.5,0.1,0.7,0.2
		c0.2,0.1,0.4,0.3,0.5,0.5l2,2.5c-0.8,0.9-1.6,1.6-2.6,2.2c-0.9,0.6-1.9,1.1-3,1.5c-1,0.4-2.1,0.6-3.2,0.8c-1.1,0.1-2.1,0.2-3.1,0.2
		c-2,0-3.8-0.3-5.5-1c-1.7-0.7-3.2-1.6-4.5-2.9s-2.3-2.9-3-4.8c-0.7-1.9-1.1-4.1-1.1-6.6c0-2,0.3-3.8,0.9-5.5
		c0.6-1.7,1.5-3.2,2.7-4.5s2.6-2.3,4.3-3C375.9,41.1,377.8,40.8,380,40.8z M380.1,45.7c-2,0-3.6,0.6-4.7,1.7
		c-1.1,1.1-1.9,2.7-2.2,4.8h12.9c0-0.9-0.1-1.7-0.4-2.5c-0.2-0.8-0.6-1.5-1.1-2.1c-0.5-0.6-1.1-1.1-1.9-1.4
		C382,45.9,381.1,45.7,380.1,45.7z"/>
	<path d="M398,69.8V41.2h4.2c0.9,0,1.5,0.4,1.8,1.3l0.5,2.3c0.6-0.6,1.2-1.1,1.8-1.6c0.6-0.5,1.3-0.9,2-1.3c0.7-0.4,1.5-0.6,2.3-0.8
		c0.8-0.2,1.7-0.3,2.7-0.3c1.6,0,2.9,0.3,4.2,0.8c1.2,0.5,2.2,1.3,3,2.2c0.8,1,1.4,2.1,1.8,3.4c0.4,1.3,0.6,2.8,0.6,4.4v18.2H416
		V51.6c0-1.7-0.4-3.1-1.2-4.1s-2-1.4-3.6-1.4c-1.2,0-2.3,0.3-3.3,0.8c-1,0.5-2,1.3-3,2.2v20.7H398z"/>
	<path d="M449.8,69.8c-0.9,0-1.5-0.4-1.8-1.3l-0.6-2.8c-0.6,0.7-1.2,1.3-1.9,1.8c-0.7,0.5-1.4,1-2.1,1.4s-1.6,0.7-2.4,0.9
		c-0.9,0.2-1.8,0.3-2.8,0.3c-1.6,0-3-0.3-4.3-1c-1.3-0.7-2.4-1.6-3.4-2.8s-1.7-2.8-2.2-4.6c-0.5-1.8-0.8-3.9-0.8-6.2
		c0-2.1,0.3-4.1,0.9-5.9c0.6-1.8,1.4-3.4,2.5-4.7c1.1-1.3,2.4-2.4,3.9-3.1c1.5-0.8,3.2-1.1,5.1-1.1c1.6,0,3,0.3,4.1,0.8
		c1.1,0.5,2.1,1.2,3,2V28.4h6.9v41.4H449.8z M440.6,64.8c1.4,0,2.6-0.3,3.7-0.9c1-0.6,2-1.4,2.8-2.5V48.5c-0.8-0.9-1.6-1.6-2.6-2
		c-0.9-0.4-1.9-0.6-3-0.6c-1,0-2,0.2-2.8,0.6c-0.8,0.4-1.6,1-2.1,1.8c-0.6,0.8-1,1.8-1.4,3c-0.3,1.2-0.5,2.7-0.5,4.3
		c0,1.7,0.1,3.1,0.4,4.3s0.7,2.1,1.2,2.8s1.1,1.3,1.8,1.6C438.9,64.6,439.7,64.8,440.6,64.8z"/>
	<path d="M469.8,32.9c0,0.6-0.1,1.2-0.4,1.7c-0.2,0.5-0.6,1-1,1.4c-0.4,0.4-0.9,0.7-1.4,0.9s-1.1,0.3-1.7,0.3
		c-0.6,0-1.2-0.1-1.7-0.3c-0.5-0.2-1-0.5-1.4-0.9s-0.7-0.8-0.9-1.4s-0.3-1.1-0.3-1.7c0-0.6,0.1-1.2,0.3-1.7c0.2-0.5,0.5-1,0.9-1.4
		s0.9-0.7,1.4-0.9c0.5-0.2,1.1-0.3,1.7-0.3c0.6,0,1.2,0.1,1.7,0.3c0.5,0.2,1,0.5,1.4,0.9c0.4,0.4,0.7,0.9,1,1.4
		C469.7,31.7,469.8,32.3,469.8,32.9z M468.8,41.2v28.6h-6.9V41.2H468.8z"/>
	<path d="M496.7,69.8c-0.9,0-1.5-0.4-1.8-1.3l-0.6-2.8c-0.6,0.7-1.2,1.3-1.9,1.8c-0.7,0.5-1.4,1-2.1,1.4s-1.6,0.7-2.4,0.9
		c-0.9,0.2-1.8,0.3-2.8,0.3c-1.6,0-3-0.3-4.3-1c-1.3-0.7-2.4-1.6-3.4-2.8s-1.7-2.8-2.2-4.6c-0.5-1.8-0.8-3.9-0.8-6.2
		c0-2.1,0.3-4.1,0.9-5.9c0.6-1.8,1.4-3.4,2.5-4.7c1.1-1.3,2.4-2.4,3.9-3.1c1.5-0.8,3.2-1.1,5.1-1.1c1.6,0,3,0.3,4.1,0.8
		c1.1,0.5,2.1,1.2,3,2V28.4h6.9v41.4H496.7z M487.5,64.8c1.4,0,2.6-0.3,3.7-0.9c1-0.6,2-1.4,2.8-2.5V48.5c-0.8-0.9-1.6-1.6-2.6-2
		c-0.9-0.4-1.9-0.6-3-0.6c-1,0-2,0.2-2.8,0.6c-0.8,0.4-1.6,1-2.1,1.8c-0.6,0.8-1,1.8-1.4,3c-0.3,1.2-0.5,2.7-0.5,4.3
		c0,1.7,0.1,3.1,0.4,4.3s0.7,2.1,1.2,2.8s1.1,1.3,1.8,1.6C485.8,64.6,486.7,64.8,487.5,64.8z"/>
	<path d="M520.6,40.8c2.1,0,4.1,0.3,5.8,1c1.7,0.7,3.2,1.7,4.4,2.9c1.2,1.3,2.2,2.8,2.8,4.6c0.7,1.8,1,3.9,1,6.1
		c0,2.3-0.3,4.3-1,6.1c-0.7,1.8-1.6,3.4-2.8,4.7c-1.2,1.3-2.7,2.3-4.4,3c-1.7,0.7-3.7,1-5.8,1s-4.1-0.3-5.8-1
		c-1.7-0.7-3.2-1.7-4.5-3c-1.2-1.3-2.2-2.8-2.9-4.7c-0.7-1.8-1-3.9-1-6.1c0-2.2,0.3-4.3,1-6.1c0.7-1.8,1.6-3.4,2.9-4.6
		s2.7-2.2,4.5-2.9C516.5,41.1,518.5,40.8,520.6,40.8z M520.6,64.9c2.4,0,4.1-0.8,5.3-2.4c1.1-1.6,1.7-3.9,1.7-7
		c0-3.1-0.6-5.4-1.7-7.1c-1.1-1.6-2.9-2.4-5.3-2.4c-2.4,0-4.2,0.8-5.4,2.4c-1.2,1.6-1.7,4-1.7,7c0,3.1,0.6,5.4,1.7,7
		C516.4,64.1,518.2,64.9,520.6,64.9z"/>
	<path d="M540.1,69.8V41.2h4c0.7,0,1.2,0.1,1.5,0.4c0.3,0.3,0.5,0.7,0.6,1.3l0.4,3.5c1-1.8,2.2-3.2,3.6-4.2c1.4-1,2.9-1.5,4.6-1.5
		c1.4,0,2.6,0.3,3.5,1l-0.9,5.2c-0.1,0.3-0.2,0.6-0.4,0.7c-0.2,0.1-0.4,0.2-0.8,0.2c-0.3,0-0.7-0.1-1.1-0.2
		c-0.5-0.1-1.1-0.2-1.9-0.2c-1.4,0-2.7,0.4-3.7,1.2c-1,0.8-1.9,1.9-2.6,3.5v17.8H540.1z"/>
	<path d="M567.8,27.1c0.7,1,1.1,2.1,1.4,3.1s0.5,2.1,0.5,3.1c0,1.9-0.5,3.6-1.4,5.3c-0.9,1.7-2.3,3.3-4.1,4.7l-2.1-1.3
		c-0.2-0.1-0.3-0.2-0.4-0.4s-0.1-0.3-0.1-0.5c0-0.4,0.1-0.7,0.4-0.9c0.2-0.3,0.5-0.6,0.8-0.9s0.5-0.8,0.7-1.2
		c0.2-0.4,0.4-0.9,0.5-1.5c0.1-0.5,0.2-1.1,0.2-1.7c0-0.6-0.1-1.3-0.3-2c-0.2-0.7-0.5-1.5-1-2.3c-0.2-0.2-0.3-0.5-0.3-0.8
		c0-0.6,0.3-1,1-1.3L567.8,27.1z M577.1,27.1c0.7,1,1.1,2.1,1.4,3.1s0.5,2.1,0.5,3.1c0,1.9-0.5,3.6-1.4,5.3
		c-0.9,1.7-2.3,3.3-4.1,4.7l-2.1-1.3c-0.2-0.1-0.3-0.2-0.4-0.4s-0.1-0.3-0.1-0.5c0-0.4,0.1-0.7,0.4-0.9c0.2-0.3,0.5-0.6,0.8-0.9
		s0.5-0.8,0.7-1.2c0.2-0.4,0.4-0.9,0.5-1.5c0.1-0.5,0.2-1.1,0.2-1.7c0-0.6-0.1-1.3-0.3-2c-0.2-0.7-0.5-1.5-1-2.3
		c-0.2-0.2-0.3-0.5-0.3-0.8c0-0.6,0.3-1,1-1.3L577.1,27.1z"/>
</g>
<g id="XMLID_262_">
	<g id="XMLID_139_">
		<path id="XMLID_140_" d="M627.7,78.1L627.7,78.1c0-5.3,4-9.9,9.7-9.9c5.7,0,9.6,4.6,9.6,9.7l0,0c0,5.2-4,9.7-9.7,9.7
			C631.7,87.8,627.7,83.2,627.7,78.1 M644.8,78.1L644.8,78.1c0-4.3-3.1-7.8-7.5-7.8c-4.3,0-7.4,3.4-7.4,7.8l0,0
			c0,4.3,3.1,7.8,7.5,7.8C641.7,85.9,644.8,82.4,644.8,78.1 M649.1,68.7h2.4l5.4,15.8l5.2-15.8h1.8l5.2,15.8l5.4-15.8h2.2l-6.8,19
			h-1.8l-5.2-15.3l-5.2,15.3H656L649.1,68.7z M680.4,68.7h13.7v1.9h-11.5v6.5h10.3V79h-10.3v6.6h11.6v1.9h-13.8V68.7z M698.4,68.7
			h8.1c2.4,0,4.1,0.7,5.3,1.9c0.9,0.9,1.5,2.2,1.5,3.7l0,0c0,3.1-2.2,5-5.2,5.4l5.7,7.7h-2.6l-5.4-7.4h-5.4v7.4h-2.1V68.7H698.4z
			 M706.3,78.2c2.8,0,4.9-1.5,4.9-3.8l0,0c0-2.4-1.8-3.7-4.9-3.7h-5.9v7.7L706.3,78.2L706.3,78.2z M617.6,81h-4.7v6.8h-2.2V68.4h7.2
			c4.4,0,7.2,2.4,7.2,6.2C625.1,78.8,621.7,81,617.6,81 M617.7,70.4h-4.9V79h4.9c3.2,0,5.3-1.8,5.3-4.3
			C622.9,71.9,620.8,70.4,617.7,70.4 M751.5,20.5c-10.7,0-19.4,8.7-19.4,19.4s8.7,19.4,19.4,19.4c10.7,0,19.4-8.7,19.4-19.4
			C771,29.2,762.3,20.5,751.5,20.5 M751.5,52c-6.8,0-12.1-5.4-12.1-12.1c0-6.8,5.4-12.1,12.1-12.1c6.8,0,12.1,5.4,12.1,12.1
			C763.7,46.6,758.2,52,751.5,52 M727.8,52h1.6v7.2h-1.6c-8.4,0-15.2-6.8-15.2-15.2V10.8h7.2v9.7h9.4v7.2h-9.4v16.3
			C719.9,48.5,723.4,52,727.8,52 M664.1,35.7v23.1h-7.2V35.7c0-4.4-3.5-7.9-7.9-7.9s-7.9,3.5-7.9,7.9v23.1h-7.2V35.7
			c0-4.4-3.5-7.9-7.9-7.9c-4.4,0-7.9,3.5-7.9,7.9v23.1h-7.2V35.7c0-8.4,6.8-15.2,15.2-15.2c4.7,0,8.8,2.1,11.6,5.3
			c2.8-3.2,6.9-5.3,11.6-5.3C657.3,20.5,664.1,27.3,664.1,35.7 M688.4,20.5c-10.7,0-19.4,8.7-19.4,19.4s8.7,19.4,19.4,19.4
			s19.4-8.7,19.4-19.4C707.8,29.2,699.1,20.5,688.4,20.5 M688.4,52c-6.8,0-12.1-5.4-12.1-12.1c0-6.8,5.4-12.1,12.1-12.1
			c6.8,0,12.1,5.4,12.1,12.1C700.6,46.6,695,52,688.4,52 M810.3,55.1c-8.4,6.6-20.6,5.2-27.2-3.4c-6.6-8.4-5.2-20.6,3.4-27.2
			c8.4-6.6,20.6-5.2,27.2,3.4c0-2.4,0-4.9,0-7.5h4.1v36.2c0,13-8.8,20.2-21.1,20.2c-5.6,0-11-1.3-15.9-4.1l1.9-3.7
			c4.3,2.5,9.1,3.8,14.1,3.8c9.9,0,16.8-5.6,16.8-16.6c0-1.5,0-3.1,0-4.6C812.6,53.1,811.4,54.2,810.3,55.1 M783,39.8
			c0,8.4,6.8,15.2,15.2,15.2c8.4,0,15.2-6.8,15.2-15.2s-6.8-15.2-15.2-15.2C790,24.6,783,31.4,783,39.8 M835.3,22.7h-11.6v-2.2h14.3
			v1.8l-9.6,19.3h-2.6L835.3,22.7z"/>
	</g>
</g>
</svg>
