<?xml version="1.0" encoding="utf-8"?>
<!-- Generator: Adobe Illustrator 19.0.0, SVG Export Plug-In . SVG Version: 6.00 Build 0)  -->
<svg version="1.1" id="Capa_1" xmlns="http://www.w3.org/2000/svg" xmlns:xlink="http://www.w3.org/1999/xlink" x="0px" y="0px"
	 viewBox="46.2 -33.8 600 100" style="enable-background:new 46.2 -33.8 600 100;" xml:space="preserve">
<style type="text/css">
	.st0{fill:none;stroke:#000000;stroke-miterlimit:10;}
	.st1{enable-background:new    ;}
</style>
<line class="st0" x1="382.9" y1="-17.9" x2="382.9" y2="53.1"/>
<g id="XMLID_18_">
	<g id="XMLID_19_">
		<path id="XMLID_30_" d="M464.1,44.2c4.3,0.9,6.2,2.5,6.2,5.5c0,3.3-2.8,5.5-6.5,5.5c-3.1,0-5.5-1-7.8-3.1l1.3-1.6
			c2.1,1.8,3.8,2.7,6.5,2.7c2.5,0,4.3-1.3,4.3-3.3c0-1.8-0.9-2.8-5-3.7c-4.4-0.9-6.5-2.4-6.5-5.6c0-3.1,2.7-5.3,6.4-5.3
			c2.8,0,4.7,0.7,6.8,2.4l-1.3,1.6c-1.8-1.5-3.5-2.1-5.5-2.1c-2.5,0-4.1,1.3-4.1,3.1C458.9,42.2,459.8,43.1,464.1,44.2 M452.5,46.7
			c0,5.6-3.3,8.4-8,8.4c-4.7,0-8-3-8-8.3V35.7h2.2v10.9c0,4.1,2.2,6.5,5.9,6.5c3.5,0,5.8-2.1,5.8-6.4V35.7h2.2L452.5,46.7
			L452.5,46.7z M421.2,35.6h2.2V53h10.9v2.1h-13.2V35.6z M409.5,46.1h-4.9v-8.6h4.9c3.1,0,5.2,1.5,5.2,4.3
			C414.9,44.5,412.8,46.1,409.5,46.1 M409.8,35.6h-7.2v19.5h2.2v-6.8h4.7c4.1,0,7.7-2.2,7.7-6.4C417.2,37.8,414.3,35.6,409.8,35.6"
			/>
		<path id="XMLID_20_" d="M628.1-10.2h-11.7v-2.2h14.3v1.8l-9.6,19.4h-2.7L628.1-10.2z M575.8,6.9c0,8.4,6.8,15.2,15.2,15.2
			c8.4,0,15.2-6.8,15.2-15.2c0-8.4-6.8-15.2-15.2-15.2C582.6-8.3,575.8-1.6,575.8,6.9 M603,22.3c-8.4,6.6-20.7,5.2-27.3-3.4
			c-6.6-8.4-5.2-20.7,3.4-27.3c8.4-6.6,20.7-5.2,27.3,3.4c0-2.4,0-4.9,0-7.5h4.1v36.3c0,13-8.9,20.2-21.1,20.2
			c-5.6,0-11.1-1.3-16-4.1l1.9-3.7c4.3,2.5,9.2,3.8,14.2,3.8c9.9,0,16.8-5.6,16.8-16.7c0-1.5,0-3.1,0-4.6
			C605.3,20.2,604.3,21.3,603,22.3 M480.6,19c-6.8,0-12.1-5.5-12.1-12.1c0-6.8,5.5-12.1,12.1-12.1c6.8,0,12.1,5.5,12.1,12.1
			C492.9,13.6,487.4,19,480.6,19 M480.6-12.4c-10.8,0-19.5,8.7-19.5,19.5c0,10.8,8.7,19.5,19.5,19.5c10.8,0,19.5-8.7,19.5-19.5
			C500.1-3.9,491.4-12.4,480.6-12.4 M456.2,2.6v23.2H449V2.6c0-4.4-3.5-8-8-8s-8,3.5-8,8v23.2h-7.2V2.6c0-4.4-3.5-8-8-8
			c-4.4,0-8,3.5-8,8v23.2h-7.2V2.6c0-8.4,6.8-15.2,15.2-15.2c4.7,0,8.9,2.1,11.7,5.3c2.8-3.3,6.9-5.3,11.7-5.3
			C449.4-12.4,456.2-5.8,456.2,2.6 M520.2,19h1.6v7.2h-1.6c-8.4,0-15.2-6.8-15.2-15.2v-33.4h7.2v9.8h9.5v7.2h-9.5v16.4
			C512.2,15.6,515.9,19,520.2,19 M544,19c-6.8,0-12.1-5.5-12.1-12.1c0-6.8,5.5-12.1,12.1-12.1c6.8,0,12.1,5.5,12.1,12.1
			C556.3,13.6,550.6,19,544,19 M544-12.4c-10.8,0-19.5,8.7-19.5,19.5c0,10.8,8.7,19.5,19.5,19.5c10.8,0,19.5-8.7,19.5-19.5
			C563.5-3.9,554.8-12.4,544-12.4"/>
	</g>
</g>
<g class="st1">
	<path d="M122.5,26.7c-0.2,0.3-0.4,0.5-0.6,0.6c-0.2,0.2-0.5,0.2-0.9,0.2c-0.4,0-0.7-0.1-1.1-0.3s-0.8-0.5-1.2-0.8
		c-0.5-0.3-1.1-0.5-1.7-0.8s-1.5-0.3-2.5-0.3c-1.3,0-2.4,0.2-3.3,0.7c-0.9,0.5-1.7,1.1-2.4,2c-0.6,0.8-1.1,1.9-1.4,3.1
		c-0.3,1.2-0.5,2.6-0.5,4.1c0,1.6,0.2,3,0.5,4.2c0.3,1.2,0.8,2.3,1.5,3.1c0.6,0.8,1.4,1.5,2.3,1.9c0.9,0.4,1.9,0.7,3.1,0.7
		c1.1,0,2.1-0.1,2.8-0.4c0.7-0.3,1.3-0.6,1.8-0.9c0.5-0.3,0.9-0.6,1.3-0.9s0.8-0.4,1.2-0.4c0.6,0,1,0.2,1.3,0.7l2.1,2.6
		c-0.8,0.9-1.6,1.7-2.6,2.3c-0.9,0.6-1.9,1.1-2.9,1.5c-1,0.4-2,0.6-3.1,0.8c-1.1,0.2-2.1,0.2-3.2,0.2c-1.8,0-3.6-0.3-5.2-1
		c-1.6-0.7-3-1.7-4.2-3c-1.2-1.3-2.2-2.9-2.9-4.8c-0.7-1.9-1.1-4.1-1.1-6.5c0-2.2,0.3-4.2,0.9-6.1c0.6-1.9,1.5-3.5,2.8-4.8
		c1.2-1.4,2.7-2.4,4.5-3.2c1.8-0.8,3.9-1.2,6.2-1.2c2.2,0,4.2,0.4,5.8,1.1c1.7,0.7,3.2,1.7,4.5,3.1L122.5,26.7z"/>
	<path d="M141.9,20c2.2,0,4.2,0.4,6,1.1c1.8,0.7,3.3,1.7,4.6,3s2.3,2.9,3,4.8c0.7,1.9,1,4,1,6.3c0,2.4-0.3,4.5-1,6.4
		c-0.7,1.9-1.7,3.5-3,4.8c-1.3,1.3-2.8,2.4-4.6,3.1c-1.8,0.7-3.8,1.1-6,1.1c-2.2,0-4.2-0.4-6-1.1c-1.8-0.7-3.4-1.7-4.6-3.1
		c-1.3-1.3-2.3-2.9-3-4.8c-0.7-1.9-1.1-4-1.1-6.4c0-2.3,0.4-4.4,1.1-6.3c0.7-1.9,1.7-3.5,3-4.8c1.3-1.3,2.8-2.3,4.6-3
		C137.7,20.3,139.7,20,141.9,20z M141.9,45c2.5,0,4.3-0.8,5.5-2.5c1.2-1.7,1.8-4.1,1.8-7.3s-0.6-5.6-1.8-7.3c-1.2-1.7-3-2.5-5.5-2.5
		c-2.5,0-4.4,0.8-5.6,2.5c-1.2,1.7-1.8,4.1-1.8,7.3c0,3.2,0.6,5.6,1.8,7.3C137.5,44.2,139.4,45,141.9,45z"/>
	<path d="M162.1,50.1V20.4h4.4c0.9,0,1.5,0.4,1.8,1.3l0.5,2.2c0.5-0.6,1.1-1.1,1.6-1.6c0.6-0.5,1.2-0.9,1.8-1.2
		c0.6-0.3,1.3-0.6,2.1-0.8c0.7-0.2,1.6-0.3,2.4-0.3c1.9,0,3.4,0.5,4.6,1.5c1.2,1,2.1,2.4,2.7,4c0.5-1,1-1.8,1.7-2.5s1.5-1.3,2.3-1.7
		c0.8-0.4,1.7-0.8,2.6-1c0.9-0.2,1.9-0.3,2.8-0.3c1.6,0,3.1,0.3,4.4,0.8s2.3,1.2,3.2,2.2c0.9,1,1.5,2.1,2,3.5s0.7,3,0.7,4.8v18.9
		h-7.1V31.2c0-1.9-0.4-3.3-1.2-4.3c-0.8-1-2-1.4-3.6-1.4c-0.7,0-1.4,0.1-2,0.4s-1.2,0.6-1.6,1.1c-0.5,0.5-0.8,1.1-1.1,1.8
		c-0.3,0.7-0.4,1.5-0.4,2.5v18.9h-7.2V31.2c0-2-0.4-3.4-1.2-4.3c-0.8-0.9-2-1.4-3.5-1.4c-1,0-2,0.3-2.9,0.8
		c-0.9,0.5-1.7,1.2-2.5,2.1v21.7H162.1z"/>
	<path d="M210.8,59.8V20.4h4.4c0.5,0,0.9,0.1,1.2,0.3c0.3,0.2,0.5,0.5,0.6,1l0.6,2.7c1.2-1.4,2.6-2.5,4.1-3.3
		c1.6-0.8,3.4-1.3,5.5-1.3c1.6,0,3.1,0.3,4.4,1c1.3,0.7,2.5,1.7,3.5,2.9c1,1.3,1.7,2.9,2.3,4.7c0.5,1.9,0.8,4,0.8,6.5
		c0,2.2-0.3,4.3-0.9,6.2c-0.6,1.9-1.5,3.5-2.6,4.9c-1.1,1.4-2.4,2.5-4,3.3c-1.6,0.8-3.3,1.2-5.3,1.2c-1.7,0-3.1-0.3-4.3-0.8
		c-1.2-0.5-2.2-1.2-3.1-2.1v12.1H210.8z M224.7,25.5c-1.5,0-2.8,0.3-3.8,0.9c-1.1,0.6-2,1.5-2.9,2.6v13.3c0.8,1,1.7,1.7,2.6,2.1
		c1,0.4,2,0.6,3.1,0.6c1.1,0,2.1-0.2,2.9-0.6c0.9-0.4,1.6-1,2.2-1.9c0.6-0.8,1.1-1.9,1.4-3.1c0.3-1.3,0.5-2.8,0.5-4.5
		c0-1.7-0.1-3.2-0.4-4.4c-0.3-1.2-0.7-2.2-1.2-2.9c-0.5-0.8-1.2-1.3-1.9-1.6C226.5,25.7,225.7,25.5,224.7,25.5z"/>
	<path d="M251.2,7.1v43H244v-43H251.2z"/>
	<path d="M271.5,20c1.9,0,3.6,0.3,5.2,0.9c1.6,0.6,2.9,1.5,4.1,2.6c1.1,1.1,2,2.6,2.7,4.2c0.6,1.7,1,3.6,1,5.7c0,0.5,0,1-0.1,1.3
		s-0.1,0.6-0.3,0.8c-0.1,0.2-0.3,0.3-0.5,0.4c-0.2,0.1-0.5,0.1-0.8,0.1h-18.3c0.2,3,1,5.3,2.5,6.7c1.4,1.4,3.3,2.1,5.7,2.1
		c1.2,0,2.2-0.1,3-0.4c0.8-0.3,1.6-0.6,2.2-0.9c0.6-0.3,1.2-0.6,1.6-0.9c0.5-0.3,0.9-0.4,1.4-0.4c0.3,0,0.5,0.1,0.8,0.2
		c0.2,0.1,0.4,0.3,0.5,0.5l2.1,2.6c-0.8,0.9-1.7,1.7-2.7,2.3c-1,0.6-2,1.1-3.1,1.5c-1.1,0.4-2.2,0.6-3.3,0.8
		c-1.1,0.2-2.2,0.2-3.2,0.2c-2.1,0-4-0.3-5.8-1c-1.8-0.7-3.3-1.7-4.6-3c-1.3-1.3-2.3-3-3.1-5c-0.8-2-1.1-4.3-1.1-6.9
		c0-2,0.3-3.9,1-5.7c0.7-1.8,1.6-3.3,2.8-4.7c1.2-1.3,2.7-2.4,4.5-3.1C267.3,20.3,269.3,20,271.5,20z M271.7,25.1
		c-2.1,0-3.7,0.6-4.9,1.8c-1.2,1.2-1.9,2.8-2.3,5h13.4c0-0.9-0.1-1.8-0.4-2.6s-0.6-1.5-1.2-2.2s-1.2-1.1-2-1.5
		C273.6,25.3,272.7,25.1,271.7,25.1z"/>
	<path d="M299.9,50.6c-2.6,0-4.5-0.7-5.9-2.2s-2.1-3.5-2.1-6V25.8h-3c-0.4,0-0.7-0.1-1-0.4c-0.3-0.3-0.4-0.6-0.4-1.1v-2.8l4.8-0.8
		l1.5-8.1c0.1-0.4,0.3-0.7,0.5-0.9c0.3-0.2,0.6-0.3,1.1-0.3h3.7v9.3h7.8v5.1H299v16.1c0,0.9,0.2,1.6,0.7,2.2
		c0.5,0.5,1.1,0.8,1.9,0.8c0.4,0,0.8-0.1,1.1-0.2c0.3-0.1,0.6-0.2,0.8-0.3s0.4-0.2,0.6-0.3s0.3-0.2,0.5-0.2c0.2,0,0.4,0.1,0.5,0.2
		c0.1,0.1,0.3,0.3,0.4,0.5l2.1,3.5c-1,0.9-2.2,1.5-3.6,2C302.8,50.3,301.4,50.6,299.9,50.6z"/>
	<path d="M325.2,20c2.2,0,4.2,0.4,6,1.1c1.8,0.7,3.3,1.7,4.6,3c1.3,1.3,2.3,2.9,3,4.8c0.7,1.9,1,4,1,6.3c0,2.4-0.3,4.5-1,6.4
		c-0.7,1.9-1.7,3.5-3,4.8c-1.3,1.3-2.8,2.4-4.6,3.1c-1.8,0.7-3.8,1.1-6,1.1s-4.2-0.4-6-1.1c-1.8-0.7-3.4-1.7-4.6-3.1
		c-1.3-1.3-2.3-2.9-3-4.8c-0.7-1.9-1.1-4-1.1-6.4c0-2.3,0.4-4.4,1.1-6.3c0.7-1.9,1.7-3.5,3-4.8c1.3-1.3,2.8-2.3,4.6-3
		C321,20.3,323,20,325.2,20z M325.2,45c2.5,0,4.3-0.8,5.5-2.5c1.2-1.7,1.8-4.1,1.8-7.3s-0.6-5.6-1.8-7.3c-1.2-1.7-3-2.5-5.5-2.5
		c-2.5,0-4.4,0.8-5.6,2.5c-1.2,1.7-1.8,4.1-1.8,7.3c0,3.2,0.6,5.6,1.8,7.3C320.9,44.2,322.7,45,325.2,45z"/>
	<path d="M347.8,5.8c0.7,1.1,1.2,2.2,1.5,3.2s0.5,2.2,0.5,3.2c0,1.9-0.5,3.8-1.5,5.5c-1,1.8-2.4,3.4-4.2,4.9l-2.2-1.4
		c-0.2-0.1-0.3-0.3-0.4-0.4s-0.1-0.3-0.1-0.5c0-0.4,0.1-0.7,0.4-0.9c0.2-0.3,0.5-0.6,0.8-1c0.3-0.4,0.5-0.8,0.8-1.2s0.4-1,0.6-1.5
		s0.2-1.1,0.2-1.7c0-0.7-0.1-1.4-0.3-2.1c-0.2-0.7-0.6-1.5-1.1-2.4c-0.2-0.3-0.3-0.5-0.3-0.8c0-0.6,0.4-1.1,1.1-1.3L347.8,5.8z
		 M357.4,5.8c0.7,1.1,1.2,2.2,1.5,3.2c0.3,1.1,0.5,2.2,0.5,3.2c0,1.9-0.5,3.8-1.5,5.5c-1,1.8-2.4,3.4-4.2,4.9l-2.2-1.4
		c-0.2-0.1-0.3-0.3-0.4-0.4c-0.1-0.2-0.1-0.3-0.1-0.5c0-0.4,0.1-0.7,0.4-0.9c0.3-0.3,0.5-0.6,0.8-1c0.3-0.4,0.5-0.8,0.8-1.2
		s0.4-1,0.6-1.5s0.2-1.1,0.2-1.7c0-0.7-0.1-1.4-0.3-2.1c-0.2-0.7-0.6-1.5-1.1-2.4C352.1,9.3,352,9,352,8.8c0-0.6,0.4-1.1,1.1-1.3
		L357.4,5.8z"/>
</g>
<g class="st1">
	<path d="M57.4-13.4c-0.4-0.7-0.7-1.4-0.9-2.1c-0.2-0.7-0.3-1.4-0.3-2.1c0-1.3,0.3-2.5,1-3.7c0.6-1.2,1.5-2.3,2.7-3.2l1.2,0.7
		c0.1,0.1,0.2,0.1,0.2,0.2c0,0.1,0.1,0.2,0.1,0.3c0,0.2-0.1,0.4-0.2,0.5c-0.2,0.3-0.4,0.6-0.7,0.9c-0.2,0.3-0.4,0.6-0.6,1
		s-0.3,0.7-0.4,1.1c-0.1,0.4-0.1,0.8-0.1,1.2c0,0.5,0.1,0.9,0.2,1.4c0.1,0.5,0.4,1,0.7,1.5c0.1,0.2,0.1,0.3,0.1,0.5
		c0,0.3-0.2,0.6-0.6,0.7L57.4-13.4z M63.8-13.4c-0.4-0.7-0.7-1.4-0.9-2.1c-0.2-0.7-0.3-1.4-0.3-2.1c0-1.3,0.3-2.5,1-3.7
		c0.6-1.2,1.5-2.3,2.7-3.2l1.2,0.7c0.1,0.1,0.2,0.1,0.2,0.2c0,0.1,0.1,0.2,0.1,0.3c0,0.2-0.1,0.4-0.2,0.5c-0.2,0.3-0.4,0.6-0.7,0.9
		c-0.2,0.3-0.4,0.6-0.6,1s-0.3,0.7-0.4,1.1c-0.1,0.4-0.1,0.8-0.1,1.2c0,0.5,0.1,0.9,0.2,1.4c0.1,0.5,0.4,1,0.7,1.5
		c0.1,0.2,0.1,0.3,0.1,0.5c0,0.3-0.2,0.6-0.6,0.7L63.8-13.4z"/>
	<path d="M93-22.4v3.4H78.3v10.2h11.9v3.2H78.3V4.8H93v3.4H74.2v-30.6H93z"/>
	<path d="M102.6-23.3V8.2h-3.8v-31.4H102.6z"/>
	<path d="M117.6,8.2v-21.6h2.3c0.5,0,0.9,0.3,1,0.8l0.3,2.2c0.8-1,1.7-1.8,2.7-2.4c1-0.6,2.1-0.9,3.4-0.9c1.5,0,2.7,0.4,3.6,1.2
		c0.9,0.8,1.6,1.9,2,3.3c0.3-0.8,0.7-1.5,1.2-2c0.5-0.6,1-1,1.7-1.4c0.6-0.4,1.3-0.6,2-0.8c0.7-0.2,1.4-0.3,2.1-0.3
		c1.1,0,2.2,0.2,3,0.5c0.9,0.4,1.6,0.9,2.3,1.6s1.1,1.6,1.4,2.6c0.3,1,0.5,2.2,0.5,3.5V8.2h-3.8V-5.6c0-1.7-0.4-3-1.1-3.9
		s-1.8-1.3-3.2-1.3c-0.6,0-1.2,0.1-1.8,0.3c-0.6,0.2-1.1,0.5-1.5,1c-0.4,0.4-0.8,1-1,1.6c-0.2,0.6-0.4,1.4-0.4,2.3V8.2h-3.8V-5.6
		c0-1.7-0.3-3-1-3.9c-0.7-0.9-1.7-1.3-3.1-1.3c-0.9,0-1.8,0.3-2.6,0.8c-0.8,0.5-1.5,1.2-2.2,2.1V8.2H117.6z"/>
	<path d="M168.5,8.2h-1.7c-0.4,0-0.7-0.1-0.9-0.2c-0.2-0.1-0.4-0.4-0.4-0.7l-0.4-2c-0.6,0.5-1.1,1-1.7,1.4c-0.5,0.4-1.1,0.7-1.7,1
		c-0.6,0.3-1.2,0.5-1.9,0.6c-0.7,0.1-1.4,0.2-2.3,0.2c-0.8,0-1.6-0.1-2.4-0.4s-1.4-0.6-1.9-1.1c-0.5-0.5-1-1.1-1.3-1.8
		c-0.3-0.7-0.5-1.6-0.5-2.6c0-0.9,0.2-1.7,0.7-2.5c0.5-0.8,1.2-1.5,2.3-2.1c1-0.6,2.4-1.1,4.1-1.5c1.7-0.4,3.8-0.6,6.2-0.6v-1.7
		c0-1.7-0.4-3-1.1-3.8c-0.7-0.9-1.8-1.3-3.2-1.3c-0.9,0-1.7,0.1-2.3,0.4c-0.6,0.2-1.2,0.5-1.6,0.8c-0.5,0.3-0.9,0.6-1.2,0.8
		c-0.3,0.2-0.7,0.4-1,0.4c-0.3,0-0.5-0.1-0.7-0.2c-0.2-0.1-0.3-0.3-0.5-0.5l-0.7-1.2c1.2-1.2,2.5-2,3.9-2.6c1.4-0.6,2.9-0.9,4.6-0.9
		c1.2,0,2.3,0.2,3.2,0.6c0.9,0.4,1.7,1,2.4,1.7c0.6,0.7,1.1,1.6,1.5,2.6c0.3,1,0.5,2.1,0.5,3.3V8.2z M158.6,5.8
		c0.7,0,1.3-0.1,1.8-0.2s1.1-0.3,1.6-0.6s1-0.6,1.4-0.9c0.4-0.4,0.9-0.8,1.3-1.2v-4.5c-1.8,0-3.2,0.1-4.5,0.3
		c-1.2,0.2-2.2,0.5-3,0.9c-0.8,0.4-1.3,0.8-1.7,1.3c-0.3,0.5-0.5,1-0.5,1.6c0,0.6,0.1,1.1,0.3,1.5c0.2,0.4,0.4,0.8,0.7,1
		c0.3,0.3,0.7,0.5,1.1,0.6S158.1,5.8,158.6,5.8z M166.9-22.8l-5,5.5c-0.2,0.2-0.4,0.4-0.6,0.5c-0.2,0.1-0.4,0.1-0.7,0.1h-2.3
		l3.2-5.2c0.2-0.3,0.4-0.6,0.7-0.7s0.6-0.2,1-0.2H166.9z"/>
	<path d="M186.6-9.9c-0.2,0.3-0.4,0.5-0.8,0.5c-0.2,0-0.5-0.1-0.7-0.2c-0.3-0.2-0.6-0.3-1-0.5c-0.4-0.2-0.9-0.4-1.4-0.5
		c-0.5-0.2-1.2-0.2-1.9-0.2c-0.6,0-1.2,0.1-1.7,0.2c-0.5,0.2-1,0.4-1.3,0.7s-0.6,0.6-0.8,1c-0.2,0.4-0.3,0.8-0.3,1.2
		c0,0.6,0.2,1,0.5,1.4c0.3,0.4,0.7,0.7,1.3,1c0.5,0.3,1.1,0.5,1.8,0.7c0.7,0.2,1.4,0.4,2.1,0.7c0.7,0.2,1.4,0.5,2.1,0.8
		c0.7,0.3,1.3,0.6,1.8,1.1c0.5,0.4,0.9,0.9,1.3,1.6c0.3,0.6,0.5,1.4,0.5,2.2c0,1-0.2,1.9-0.5,2.8c-0.4,0.8-0.9,1.6-1.6,2.2
		s-1.6,1.1-2.6,1.5c-1,0.4-2.2,0.5-3.5,0.5c-1.5,0-2.9-0.2-4.1-0.7c-1.2-0.5-2.3-1.1-3.1-1.9l0.9-1.5c0.1-0.2,0.2-0.3,0.4-0.4
		c0.2-0.1,0.4-0.1,0.6-0.1c0.3,0,0.5,0.1,0.8,0.3c0.3,0.2,0.6,0.4,1,0.7c0.4,0.2,0.9,0.5,1.5,0.7s1.3,0.3,2.2,0.3
		c0.7,0,1.4-0.1,1.9-0.3c0.6-0.2,1-0.5,1.4-0.8c0.4-0.3,0.6-0.7,0.8-1.1c0.2-0.4,0.3-0.9,0.3-1.4c0-0.6-0.2-1.1-0.5-1.5
		c-0.3-0.4-0.7-0.7-1.3-1s-1.1-0.5-1.8-0.7c-0.7-0.2-1.4-0.4-2.1-0.7c-0.7-0.2-1.4-0.5-2.1-0.8c-0.7-0.3-1.3-0.7-1.8-1.1
		s-0.9-1-1.3-1.6S173-6.6,173-7.5c0-0.8,0.2-1.6,0.5-2.4c0.3-0.8,0.8-1.4,1.5-2c0.7-0.6,1.5-1,2.4-1.4c1-0.3,2-0.5,3.3-0.5
		c1.4,0,2.7,0.2,3.8,0.7s2.1,1.1,2.9,1.8L186.6-9.9z"/>
</g>
</svg>
