<?xml version="1.0" encoding="utf-8"?>
<!-- Generator: Adobe Illustrator 19.0.0, SVG Export Plug-In . SVG Version: 6.00 Build 0)  -->
<svg version="1.1" id="Capa_1" xmlns="http://www.w3.org/2000/svg" xmlns:xlink="http://www.w3.org/1999/xlink" x="0px" y="0px"
	 viewBox="49.3 -37 593.7 106.5" style="enable-background:new 49.3 -37 593.7 106.5;" xml:space="preserve">
<style type="text/css">
	.st0{fill:none;stroke:#000000;stroke-miterlimit:10;}
</style>
<g>
	<path d="M58.2-11c-1.3-2.2-2-4.4-2-6.6c0-2,0.5-3.8,1.5-5.6c1-1.8,2.4-3.4,4.3-4.9l2.3,1.4c0.2,0.1,0.3,0.3,0.4,0.4
		c0.1,0.2,0.1,0.3,0.1,0.5s0,0.3-0.1,0.5s-0.2,0.3-0.3,0.4c-0.3,0.3-0.5,0.6-0.8,1s-0.5,0.8-0.8,1.3c-0.2,0.5-0.4,1-0.6,1.5
		S62-20,62-19.3c0,0.7,0.1,1.4,0.3,2.1c0.2,0.8,0.6,1.5,1.1,2.4c0.2,0.3,0.3,0.5,0.3,0.8c0,0.6-0.4,1.1-1.1,1.3L58.2-11z M67.9-11
		c-1.3-2.2-2-4.4-2-6.6c0-2,0.5-3.8,1.5-5.6c1-1.8,2.4-3.4,4.3-4.9l2.3,1.4c0.2,0.1,0.3,0.3,0.4,0.4c0.1,0.2,0.1,0.3,0.1,0.5
		s0,0.3-0.1,0.5s-0.2,0.3-0.3,0.4c-0.3,0.3-0.5,0.6-0.8,1s-0.5,0.8-0.8,1.3c-0.2,0.5-0.4,1-0.6,1.5s-0.2,1.1-0.2,1.8
		c0,0.7,0.1,1.4,0.3,2.1c0.2,0.8,0.6,1.5,1.1,2.4c0.2,0.3,0.3,0.5,0.3,0.8c0,0.6-0.4,1.1-1.1,1.3L67.9-11z"/>
	<path d="M107.3-24.8v6.3H88.5v11.8h14.8v6.1H88.5v12h18.8v6.3H80.5v-42.5C80.5-24.8,107.3-24.8,107.3-24.8z"/>
	<path d="M121.5-26v43.6h-7.3V-26H121.5z"/>
	<path d="M164.6,17.7h-3.3c-0.7,0-1.2-0.1-1.6-0.3c-0.4-0.2-0.7-0.6-0.9-1.2l-0.6-2.1c-0.8,0.7-1.5,1.3-2.2,1.8s-1.5,1-2.3,1.3
		s-1.6,0.6-2.5,0.8c-0.9,0.2-1.9,0.3-2.9,0.3c-1.3,0-2.4-0.2-3.5-0.5s-2-0.9-2.8-1.5s-1.4-1.5-1.8-2.6s-0.6-2.2-0.6-3.6
		c0-1.1,0.3-2.3,0.9-3.4c0.6-1.1,1.6-2.1,3-3s3.2-1.6,5.6-2.2c2.3-0.6,5.2-0.9,8.6-0.9v-1.9c0-2-0.4-3.5-1.3-4.5s-2.1-1.5-3.7-1.5
		c-1.2,0-2.2,0.1-2.9,0.4c-0.8,0.3-1.5,0.6-2,0.9c-0.6,0.3-1.1,0.7-1.6,0.9c-0.5,0.3-1,0.4-1.6,0.4c-0.5,0-0.9-0.1-1.3-0.4
		c-0.4-0.3-0.6-0.6-0.9-0.9l-1.3-2.3c3.5-3.2,7.6-4.8,12.5-4.8c1.8,0,3.3,0.3,4.7,0.9c1.4,0.6,2.5,1.4,3.5,2.4s1.7,2.3,2.2,3.7
		s0.7,3,0.7,4.7L164.6,17.7L164.6,17.7z M150.5,13.2c0.7,0,1.4-0.1,2.1-0.2c0.6-0.1,1.2-0.3,1.8-0.6s1.1-0.6,1.6-1s1-0.9,1.6-1.4V5
		c-2.1,0-3.9,0.1-5.3,0.4c-1.4,0.3-2.6,0.6-3.4,1c-0.9,0.4-1.5,0.9-1.8,1.4c-0.4,0.6-0.5,1.2-0.5,1.8c0,1.3,0.4,2.2,1.1,2.8
		C148.3,12.9,149.3,13.2,150.5,13.2z"/>
	<path d="M171.8,17.7v-30.1h4.4c0.9,0,1.6,0.4,1.9,1.3l0.5,2.2c0.5-0.6,1.1-1.1,1.7-1.6c0.6-0.5,1.2-0.9,1.9-1.3
		c0.7-0.4,1.4-0.6,2.1-0.8c0.8-0.2,1.6-0.3,2.5-0.3c1.9,0,3.5,0.5,4.7,1.5s2.1,2.4,2.7,4.1c0.5-1,1.1-1.9,1.8-2.6s1.5-1.3,2.3-1.7
		c0.8-0.5,1.7-0.8,2.7-1s1.9-0.3,2.9-0.3c1.7,0,3.1,0.3,4.4,0.8s2.4,1.3,3.3,2.2c0.9,1,1.6,2.2,2,3.6c0.5,1.4,0.7,3,0.7,4.8v19.2
		H207V-1.5c0-1.9-0.4-3.4-1.3-4.3c-0.8-1-2.1-1.5-3.7-1.5c-0.7,0-1.4,0.1-2.1,0.4c-0.6,0.3-1.2,0.6-1.7,1.1s-0.9,1.1-1.1,1.8
		c-0.3,0.7-0.4,1.6-0.4,2.5v19.2h-7.4V-1.5c0-2-0.4-3.5-1.2-4.4s-2-1.4-3.6-1.4c-1,0-2,0.3-2.9,0.8s-1.8,1.2-2.5,2.1v22.1H171.8z"/>
	<path d="M230-21.2c0,0.6-0.1,1.2-0.4,1.8c-0.3,0.5-0.6,1-1,1.4s-0.9,0.7-1.5,1c-0.6,0.2-1.2,0.4-1.8,0.4c-0.6,0-1.2-0.1-1.8-0.4
		c-0.6-0.2-1-0.6-1.5-1s-0.7-0.9-1-1.4c-0.2-0.5-0.4-1.1-0.4-1.8c0-0.6,0.1-1.3,0.4-1.8c0.2-0.6,0.6-1.1,1-1.5s0.9-0.7,1.5-1
		c0.6-0.2,1.1-0.4,1.8-0.4c0.6,0,1.3,0.1,1.8,0.4c0.6,0.2,1.1,0.6,1.5,1s0.8,0.9,1,1.5C229.9-22.5,230-21.9,230-21.2z M229-12.4
		v30.1h-7.3v-30.1C221.7-12.4,229-12.4,229-12.4z"/>
	<path d="M247.6-13c1.3,0,2.5,0.1,3.6,0.4c1.1,0.3,2.2,0.7,3.1,1.2h8.7v2.7c0,0.5-0.1,0.8-0.4,1.1c-0.2,0.3-0.6,0.4-1.2,0.5
		l-2.7,0.5c0.2,0.5,0.3,1,0.5,1.6s0.2,1.2,0.2,1.8c0,1.5-0.3,2.8-0.9,4S257.1,3,256,3.9c-1,0.8-2.3,1.5-3.7,2
		c-1.4,0.5-3,0.7-4.7,0.7c-1.1,0-2.2-0.1-3.3-0.3c-0.9,0.6-1.4,1.2-1.4,1.9c0,0.6,0.3,1.1,0.8,1.3c0.6,0.3,1.3,0.5,2.2,0.6
		c0.9,0.1,1.9,0.2,3.1,0.2s2.3,0,3.6,0.1s2.4,0.3,3.6,0.5s2.2,0.6,3.1,1.2s1.6,1.3,2.2,2.2c0.6,0.9,0.8,2.1,0.8,3.5
		c0,1.3-0.3,2.6-1,3.9s-1.6,2.4-2.8,3.4c-1.2,1-2.8,1.8-4.6,2.4c-1.8,0.6-3.9,0.9-6.2,0.9c-2.3,0-4.3-0.2-6-0.7s-3.1-1-4.2-1.8
		c-1.1-0.7-1.9-1.6-2.5-2.5s-0.8-2-0.8-3c0-1.4,0.4-2.6,1.3-3.6s2.1-1.7,3.6-2.3c-0.7-0.4-1.3-1-1.8-1.6s-0.7-1.6-0.7-2.7
		c0-0.5,0.1-0.9,0.2-1.4c0.2-0.5,0.4-1,0.7-1.4s0.7-0.9,1.2-1.3c0.5-0.4,1.1-0.8,1.7-1.1c-1.5-0.8-2.7-1.9-3.6-3.3s-1.3-3-1.3-4.8
		c0-1.5,0.3-2.8,0.9-4s1.4-2.2,2.5-3.1s2.3-1.5,3.8-2C244.3-12.7,245.8-13,247.6-13z M255.5,19c0-0.6-0.2-1.1-0.5-1.5
		c-0.4-0.4-0.8-0.7-1.4-0.9c-0.6-0.2-1.3-0.4-2.1-0.5c-0.8-0.1-1.7-0.2-2.6-0.2s-1.8,0-2.8,0s-1.9-0.1-2.8-0.3c-0.8,0.5-1.5,1-2,1.6
		s-0.7,1.3-0.7,2.1c0,0.5,0.1,1,0.4,1.5s0.7,0.9,1.3,1.2c0.6,0.3,1.3,0.6,2.2,0.8c0.9,0.2,2,0.3,3.4,0.3s2.5-0.1,3.5-0.3
		c1-0.2,1.8-0.5,2.4-0.9s1.1-0.8,1.4-1.3C255.4,20.1,255.5,19.6,255.5,19z M247.6,1.9c0.9,0,1.7-0.1,2.3-0.4c0.7-0.2,1.2-0.6,1.7-1
		s0.8-0.9,1-1.6c0.2-0.6,0.3-1.3,0.3-2c0-1.5-0.4-2.7-1.3-3.5c-0.9-0.9-2.2-1.3-4-1.3s-3.1,0.4-4,1.3s-1.3,2.1-1.3,3.5
		c0,0.7,0.1,1.4,0.3,2c0.2,0.6,0.6,1.1,1,1.6c0.4,0.4,1,0.8,1.7,1C245.9,1.8,246.7,1.9,247.6,1.9z"/>
	<path d="M280.4-12.9c2.3,0,4.3,0.4,6.1,1.1c1.8,0.7,3.4,1.8,4.7,3.1c1.3,1.3,2.3,3,3,4.9s1.1,4.1,1.1,6.4c0,2.4-0.4,4.5-1.1,6.5
		c-0.7,1.9-1.7,3.6-3,4.9c-1.3,1.4-2.9,2.4-4.7,3.1c-1.8,0.7-3.9,1.1-6.1,1.1c-2.3,0-4.3-0.4-6.1-1.1c-1.8-0.7-3.4-1.8-4.7-3.1
		c-1.3-1.4-2.3-3-3-4.9s-1.1-4.1-1.1-6.5s0.4-4.5,1.1-6.4s1.7-3.5,3-4.9c1.3-1.3,2.9-2.4,4.7-3.1C276.1-12.6,278.2-12.9,280.4-12.9z
		 M280.4,12.5c2.5,0,4.4-0.8,5.6-2.5s1.8-4.2,1.8-7.4s-0.6-5.7-1.8-7.4c-1.2-1.7-3.1-2.6-5.6-2.6s-4.4,0.9-5.6,2.6S273-0.6,273,2.6
		s0.6,5.7,1.8,7.4C276,11.7,277.9,12.5,280.4,12.5z"/>
</g>
<g>
	<path d="M166.5,55.9c-0.5,0-0.9-0.3-1-0.8l-0.3-2.6c-0.9,1.1-1.9,2-3.1,2.7s-2.5,1-4,1c-1.2,0-2.3-0.2-3.3-0.7s-1.8-1.2-2.5-2.1
		c-0.7-0.9-1.2-2-1.6-3.4c-0.4-1.4-0.6-2.9-0.6-4.7c0-1.6,0.2-3,0.6-4.4c0.4-1.4,1-2.5,1.8-3.5s1.8-1.8,2.9-2.3
		c1.1-0.6,2.4-0.9,3.9-0.9c1.3,0,2.4,0.2,3.3,0.7c0.9,0.4,1.8,1.1,2.5,1.9V25h3.7v30.9C168.8,55.8,166.5,55.8,166.5,55.9z
		 M159.2,53.2c1.2,0,2.3-0.3,3.2-0.8c0.9-0.6,1.8-1.4,2.5-2.4V39.7c-0.7-0.9-1.4-1.6-2.3-1.9c-0.8-0.4-1.7-0.6-2.7-0.6
		c-2,0-3.5,0.7-4.6,2.1c-1.1,1.4-1.6,3.4-1.6,6c0,1.4,0.1,2.6,0.4,3.6c0.2,1,0.6,1.8,1,2.4c0.5,0.6,1,1.1,1.7,1.4
		C157.6,53.1,158.3,53.2,159.2,53.2z"/>
	<path d="M183.4,34.2c1.3,0,2.4,0.2,3.5,0.6c1.1,0.4,2,1,2.8,1.8s1.4,1.8,1.8,3c0.4,1.2,0.7,2.5,0.7,4c0,0.6-0.1,1-0.2,1.2
		c-0.1,0.2-0.4,0.3-0.7,0.3h-14.2c0,1.3,0.2,2.5,0.5,3.5s0.8,1.8,1.4,2.5c0.6,0.7,1.3,1.2,2.1,1.5s1.7,0.5,2.7,0.5
		c0.9,0,1.7-0.1,2.4-0.3s1.3-0.5,1.8-0.7c0.5-0.3,0.9-0.5,1.2-0.7s0.6-0.3,0.9-0.3c0.3,0,0.5,0.1,0.7,0.4l1.1,1.4
		c-0.5,0.6-1,1-1.7,1.5s-1.3,0.8-2.1,1c-0.7,0.3-1.5,0.5-2.3,0.6s-1.6,0.2-2.3,0.2c-1.5,0-2.8-0.2-4.1-0.7c-1.2-0.5-2.3-1.2-3.2-2.2
		s-1.6-2.1-2.1-3.6s-0.8-3-0.8-4.9c0-1.5,0.2-2.9,0.7-4.2s1.1-2.4,2-3.4c0.9-0.9,1.9-1.7,3.1-2.2C180.5,34.6,181.8,34.2,183.4,34.2z
		 M183.5,37.1c-1.8,0-3.2,0.5-4.3,1.6c-1,1-1.7,2.5-1.9,4.3h11.6c0-0.9-0.1-1.7-0.4-2.4c-0.2-0.7-0.6-1.3-1-1.9
		c-0.5-0.5-1-0.9-1.7-1.2C185.1,37.2,184.3,37.1,183.5,37.1z"/>
	<path d="M217.3,38.2c-0.2,0.3-0.4,0.5-0.8,0.5c-0.2,0-0.4-0.1-0.7-0.2c-0.3-0.2-0.6-0.3-1-0.5s-0.8-0.4-1.4-0.5
		c-0.5-0.2-1.2-0.2-1.9-0.2c-0.6,0-1.2,0.1-1.7,0.2c-0.5,0.2-0.9,0.4-1.3,0.7c-0.4,0.3-0.6,0.6-0.8,1s-0.3,0.8-0.3,1.2
		c0,0.5,0.2,1,0.5,1.4s0.7,0.7,1.2,0.9c0.5,0.3,1.1,0.5,1.8,0.7s1.3,0.4,2,0.7c0.7,0.2,1.4,0.5,2,0.8c0.7,0.3,1.2,0.6,1.8,1
		c0.5,0.4,0.9,0.9,1.2,1.5s0.5,1.3,0.5,2.2c0,1-0.2,1.9-0.5,2.7c-0.4,0.8-0.9,1.6-1.6,2.2c-0.7,0.6-1.5,1.1-2.5,1.4
		c-1,0.4-2.1,0.5-3.4,0.5c-1.5,0-2.8-0.2-4-0.7s-2.2-1.1-3.1-1.9l0.9-1.4c0.1-0.2,0.2-0.3,0.4-0.4c0.2-0.1,0.4-0.1,0.6-0.1
		c0.3,0,0.5,0.1,0.8,0.3s0.6,0.4,1,0.7s0.9,0.5,1.4,0.7c0.6,0.2,1.3,0.3,2.1,0.3c0.7,0,1.4-0.1,1.9-0.3s1-0.4,1.4-0.8
		c0.4-0.3,0.6-0.7,0.8-1.1c0.2-0.4,0.3-0.9,0.3-1.3c0-0.6-0.2-1.1-0.5-1.5s-0.7-0.7-1.2-1s-1.1-0.5-1.8-0.7s-1.3-0.4-2-0.6
		c-0.7-0.2-1.4-0.5-2-0.8s-1.3-0.6-1.8-1.1c-0.5-0.4-0.9-1-1.2-1.6s-0.5-1.4-0.5-2.3c0-0.8,0.2-1.6,0.5-2.3s0.8-1.4,1.5-2
		c0.6-0.6,1.4-1,2.4-1.4c0.9-0.3,2-0.5,3.2-0.5c1.4,0,2.7,0.2,3.8,0.7s2.1,1,2.9,1.8L217.3,38.2z"/>
	<path d="M228.3,28c0,0.4-0.1,0.7-0.2,1s-0.3,0.6-0.6,0.8s-0.5,0.4-0.9,0.6c-0.3,0.1-0.7,0.2-1,0.2s-0.7-0.1-1-0.2
		c-0.3-0.1-0.6-0.3-0.8-0.6s-0.4-0.5-0.6-0.8c-0.1-0.3-0.2-0.7-0.2-1c0-0.4,0.1-0.7,0.2-1c0.1-0.3,0.3-0.6,0.6-0.9s0.5-0.4,0.8-0.6
		c0.3-0.1,0.7-0.2,1-0.2s0.7,0.1,1,0.2s0.6,0.3,0.9,0.6s0.4,0.5,0.6,0.9C228.2,27.2,228.3,27.6,228.3,28z M227.5,34.7V56h-3.7V34.7
		H227.5z"/>
	<path d="M242.5,34.2c1.3,0,2.5,0.2,3.5,0.6c1.1,0.4,2,1,2.8,1.8s1.4,1.8,1.8,3s0.7,2.5,0.7,4c0,0.6-0.1,1-0.2,1.2s-0.4,0.3-0.7,0.3
		h-14.2c0,1.3,0.2,2.5,0.5,3.5s0.8,1.8,1.4,2.5s1.3,1.2,2.1,1.5c0.8,0.3,1.7,0.5,2.7,0.5c0.9,0,1.7-0.1,2.4-0.3
		c0.7-0.2,1.3-0.5,1.8-0.7s0.9-0.5,1.2-0.7c0.3-0.2,0.6-0.3,0.9-0.3s0.5,0.1,0.7,0.4l1,1.4c-0.5,0.6-1,1-1.7,1.5
		c-0.6,0.4-1.3,0.8-2.1,1c-0.7,0.3-1.5,0.5-2.3,0.6s-1.6,0.2-2.3,0.2c-1.5,0-2.8-0.2-4.1-0.7c-1.2-0.5-2.3-1.2-3.2-2.2
		s-1.6-2.1-2.1-3.6c-0.5-1.4-0.8-3-0.8-4.9c0-1.5,0.2-2.9,0.7-4.2s1.1-2.4,2-3.4c0.9-0.9,1.9-1.7,3.1-2.2
		C239.6,34.6,240.9,34.2,242.5,34.2z M242.6,37.1c-1.8,0-3.2,0.5-4.3,1.6c-1,1-1.7,2.5-1.9,4.3h11.6c0-0.9-0.1-1.7-0.4-2.4
		c-0.2-0.7-0.6-1.3-1-1.9s-1-0.9-1.7-1.2C244.2,37.2,243.4,37.1,242.6,37.1z"/>
	<path d="M256.1,55.9V34.7h2.2c0.5,0,0.9,0.3,1,0.8l0.3,2.2c0.8-1,1.7-1.8,2.6-2.4c1-0.6,2.1-0.9,3.4-0.9c1.4,0,2.6,0.4,3.5,1.2
		s1.5,1.9,1.9,3.2c0.3-0.8,0.7-1.4,1.2-2s1-1,1.6-1.4s1.2-0.6,1.9-0.8c0.7-0.2,1.4-0.3,2.1-0.3c1.1,0,2.1,0.2,3,0.5s1.6,0.9,2.2,1.6
		c0.6,0.7,1.1,1.5,1.4,2.5s0.5,2.1,0.5,3.4v13.5h-3.7V42.4c0-1.7-0.4-2.9-1.1-3.8s-1.8-1.3-3.2-1.3c-0.6,0-1.2,0.1-1.8,0.3
		c-0.6,0.2-1,0.5-1.5,1c-0.4,0.4-0.8,0.9-1,1.6c-0.2,0.6-0.4,1.4-0.4,2.2v13.5h-3.7V42.4c0-1.7-0.3-3-1-3.8s-1.7-1.3-3-1.3
		c-0.9,0-1.8,0.2-2.6,0.7s-1.5,1.2-2.2,2v15.9C259.7,55.9,256.1,55.9,256.1,55.9z"/>
	<path d="M290.5,63.1V34.7h2.2c0.5,0,0.9,0.3,1,0.8L294,38c0.9-1.1,1.9-2,3.1-2.7s2.5-1,4-1c1.2,0,2.3,0.2,3.3,0.7s1.8,1.2,2.5,2.1
		c0.7,0.9,1.2,2.1,1.6,3.4c0.4,1.4,0.6,2.9,0.6,4.7c0,1.6-0.2,3-0.6,4.4s-1,2.5-1.8,3.5s-1.7,1.8-2.9,2.3c-1.1,0.6-2.4,0.9-3.9,0.9
		c-1.3,0-2.4-0.2-3.4-0.7c-0.9-0.4-1.8-1-2.5-1.8v9.4L290.5,63.1L290.5,63.1z M300,37.2c-1.2,0-2.3,0.3-3.2,0.8
		c-0.9,0.6-1.8,1.4-2.5,2.4v10.3c0.7,0.9,1.4,1.6,2.3,2c0.8,0.4,1.7,0.6,2.7,0.6c2,0,3.5-0.7,4.6-2.1c1.1-1.4,1.6-3.4,1.6-6
		c0-1.4-0.1-2.6-0.4-3.6c-0.2-1-0.6-1.8-1.1-2.4c-0.5-0.6-1-1.1-1.7-1.4C301.6,37.5,300.9,37.2,300,37.2z"/>
	<path d="M313.7,55.9V34.7h2.1c0.4,0,0.7,0.1,0.8,0.2c0.2,0.2,0.3,0.4,0.3,0.8l0.3,3.3c0.7-1.5,1.6-2.6,2.7-3.5
		c1.1-0.8,2.3-1.2,3.8-1.2c0.6,0,1.1,0.1,1.6,0.2c0.5,0.1,0.9,0.3,1.3,0.6l-0.5,2.8c-0.1,0.4-0.3,0.5-0.7,0.5
		c-0.2,0-0.5-0.1-0.9-0.2c-0.4-0.1-1-0.2-1.7-0.2c-1.3,0-2.4,0.4-3.3,1.1c-0.9,0.8-1.6,1.9-2.2,3.3v13.5
		C317.3,55.8,313.7,55.8,313.7,55.9z"/>
	<path d="M339.1,34.2c1.3,0,2.5,0.2,3.5,0.6c1.1,0.4,2,1,2.8,1.8s1.4,1.8,1.8,3s0.7,2.5,0.7,4c0,0.6-0.1,1-0.2,1.2s-0.4,0.3-0.7,0.3
		h-14.2c0,1.3,0.2,2.5,0.5,3.5s0.8,1.8,1.4,2.5s1.3,1.2,2.1,1.5c0.8,0.3,1.7,0.5,2.7,0.5c0.9,0,1.7-0.1,2.4-0.3
		c0.7-0.2,1.3-0.5,1.8-0.7s0.9-0.5,1.2-0.7c0.3-0.2,0.6-0.3,0.9-0.3s0.5,0.1,0.7,0.4l1,1.4c-0.5,0.6-1,1-1.7,1.5
		c-0.6,0.4-1.3,0.8-2.1,1c-0.7,0.3-1.5,0.5-2.3,0.6s-1.6,0.2-2.3,0.2c-1.5,0-2.8-0.2-4.1-0.7c-1.2-0.5-2.3-1.2-3.2-2.2
		s-1.6-2.1-2.1-3.6c-0.5-1.4-0.8-3-0.8-4.9c0-1.5,0.2-2.9,0.7-4.2s1.1-2.4,2-3.4c0.9-0.9,1.9-1.7,3.1-2.2
		C336.2,34.6,337.5,34.2,339.1,34.2z M339.2,37.1c-1.8,0-3.2,0.5-4.3,1.6c-1,1-1.7,2.5-1.9,4.3h11.6c0-0.9-0.1-1.7-0.4-2.4
		c-0.2-0.7-0.6-1.3-1-1.9s-1-0.9-1.7-1.2C340.8,37.2,340,37.1,339.2,37.1z"/>
	<path d="M353.4,24.3c0.4,0.7,0.7,1.3,0.9,2c0.2,0.7,0.3,1.3,0.3,2c0,1.3-0.3,2.5-0.9,3.6c-0.6,1.2-1.5,2.2-2.6,3.2l-1.2-0.7
		c-0.1-0.1-0.2-0.1-0.2-0.2s-0.1-0.2-0.1-0.3c0-0.2,0.1-0.4,0.2-0.5c0.2-0.3,0.4-0.6,0.7-0.9s0.4-0.6,0.6-1c0.2-0.3,0.3-0.7,0.4-1.1
		c0.1-0.4,0.1-0.8,0.1-1.2s-0.1-0.9-0.2-1.4s-0.4-1-0.7-1.5c-0.1-0.2-0.1-0.3-0.1-0.5c0-0.3,0.2-0.6,0.6-0.7L353.4,24.3z
		 M359.7,24.3c0.4,0.7,0.7,1.3,0.9,2c0.2,0.7,0.3,1.3,0.3,2c0,1.3-0.3,2.5-0.9,3.6c-0.6,1.2-1.5,2.2-2.6,3.2l-1.2-0.7
		c-0.1-0.1-0.2-0.1-0.2-0.2c0-0.1-0.1-0.2-0.1-0.3c0-0.2,0.1-0.4,0.2-0.5c0.2-0.3,0.4-0.6,0.7-0.9s0.4-0.6,0.6-1
		c0.2-0.3,0.3-0.7,0.4-1.1c0.1-0.4,0.1-0.8,0.1-1.2s-0.1-0.9-0.2-1.4s-0.4-1-0.7-1.5c-0.1-0.2-0.1-0.3-0.1-0.5
		c0-0.3,0.2-0.6,0.6-0.7L359.7,24.3z"/>
</g>
<g id="XMLID_63_">
	<g id="XMLID_64_">
		<path id="XMLID_65_" d="M441.1,34.4l-8.7,19.4h2.2l2.3-5.1h10.5l2.2,5.1h2.3l-8.7-19.4H441.1z M437.8,46.6l4.4-9.8l4.4,9.8H437.8z
			 M466.3,34.4h2.5l-8,11.5v7.6h-2.2v-7.6l-8-11.5h2.6l6.4,9.6L466.3,34.4z M406,34.4h-7.1v19.2h2.2v-6.7h4.7c4.1,0,7.6-2.2,7.6-6.3
			C413.1,36.7,410.4,34.4,406,34.4 M405.7,44.9h-4.8v-8.5h4.8c3.1,0,5.1,1.5,5.1,4.2C410.9,43.1,408.9,44.9,405.7,44.9 M419.2,51.6
			H430v2h-13V34.4h2.2V51.6z M436.7-5.8c-4.4,0-7.9,3.5-7.9,7.9v22.9h-7.1V2c0-4.4-3.5-7.9-7.9-7.9S406-2.3,406,2v22.9h-7.1V2
			c0-8.3,6.7-15,15-15c4.7,0,8.7,2,11.5,5.2c2.8-3.2,6.8-5.2,11.5-5.2c8.3,0,15,6.7,15,15v22.9h-7.1V2C444.5-2.3,441-5.8,436.7-5.8
			 M624-13v1.7l-9.5,19.1h-2.6l9.5-18.7h-11.5V-13C609.9-13,624-13,624-13z M599.8-5.7c-6.6-8.3-18.7-9.9-27-3.4
			c-8.3,6.6-9.9,18.7-3.4,27s18.7,9.9,27,3.4c1.2-1,2.3-2,3.4-3.4c0,1.5,0,3.1,0,4.5c0,10.9-6.8,16.5-16.6,16.5c-5,0-9.6-1.3-14-3.8
			l-1.9,3.6c4.8,2.8,10.2,4.1,15.7,4.1c12.1,0,20.8-7.1,20.8-20V-13h-4.1C599.8-10.5,599.8-8,599.8-5.7 M584.7,21.3
			c-8.3,0-15-6.7-15-15c0-8.3,6.7-15,15-15s15,6.7,15,15S593,21.3,584.7,21.3 M538.3-13c-10.6,0-19.2,8.6-19.2,19.2
			s8.6,19.2,19.2,19.2c10.6,0,19.2-8.6,19.2-19.2C557.5-4.4,548.9-13,538.3-13 M538.3,18.2c-6.7,0-12-5.4-12-12s5.4-12,12-12
			c6.7,0,12,5.4,12,12S544.9,18.2,538.3,18.2 M475.8-13c-10.6,0-19.2,8.6-19.2,19.2s8.6,19.2,19.2,19.2c10.6,0,19.2-8.6,19.2-19.2
			S486.4-13,475.8-13 M475.8,18.2c-6.7,0-12-5.4-12-12s5.4-12,12-12c6.7,0,12,5.4,12,12S482.3,18.2,475.8,18.2 M514.8,18.2h1.6v7.1
			h-1.6c-8.3,0-15-6.7-15-15v-32.9h7.1v9.6h9.3v7.1H507v16.2C507,14.7,510.5,18.2,514.8,18.2"/>
	</g>
</g>
<line class="st0" x1="380" y1="-17.9" x2="380" y2="53.1"/>
</svg>
