<?xml version="1.0" encoding="utf-8"?>
<!-- Generator: Adobe Illustrator 19.0.0, SVG Export Plug-In . SVG Version: 6.00 Build 0)  -->
<svg version="1.1" id="Capa_1" xmlns="http://www.w3.org/2000/svg" xmlns:xlink="http://www.w3.org/1999/xlink" x="0px" y="0px"
	 viewBox="110 -50 320 200" style="enable-background:new 110 -50 320 200;" xml:space="preserve">
<style type="text/css">
	.st0{enable-background:new    ;}
	.st1{fill:none;stroke:#000000;stroke-miterlimit:10;}
</style>
<g class="st0">
	<path d="M113.9-12.6c-1.3-2.1-1.9-4.1-1.9-6.2c0-1.9,0.5-3.6,1.4-5.3s2.3-3.3,4.1-4.7l2.1,1.3c0.2,0.1,0.3,0.2,0.4,0.4
		c0.1,0.2,0.1,0.3,0.1,0.5s0,0.3-0.1,0.5c-0.1,0.1-0.2,0.3-0.3,0.4c-0.2,0.3-0.5,0.6-0.8,1s-0.5,0.8-0.7,1.2s-0.4,0.9-0.6,1.4
		s-0.2,1.1-0.2,1.7s0.1,1.3,0.3,2c0.2,0.7,0.5,1.5,1,2.2c0.2,0.3,0.3,0.5,0.3,0.8c0,0.6-0.3,1-1,1.3L113.9-12.6z M123.1-12.6
		c-1.3-2.1-1.9-4.1-1.9-6.2c0-1.9,0.5-3.6,1.4-5.3s2.3-3.3,4.1-4.7l2.1,1.3c0.2,0.1,0.3,0.2,0.4,0.4c0.1,0.2,0.1,0.3,0.1,0.5
		s0,0.3-0.1,0.5c-0.1,0.1-0.2,0.3-0.3,0.4c-0.2,0.3-0.5,0.6-0.8,1s-0.5,0.8-0.7,1.2s-0.4,0.9-0.6,1.4s-0.2,1.1-0.2,1.7
		s0.1,1.3,0.3,2s0.5,1.5,1,2.2c0.2,0.3,0.3,0.5,0.3,0.8c0,0.6-0.3,1-1,1.3L123.1-12.6z"/>
	<path d="M160.6-25.7v6h-17.9v11.2h14.1v5.8h-14.1V8.7h17.9v6h-25.4v-40.4C135.2-25.7,160.6-25.7,160.6-25.7z"/>
	<path d="M174-26.8v41.4h-6.9v-41.4H174z"/>
	<path d="M192.6,14.6V-14h4c0.7,0,1.2,0.1,1.5,0.4c0.3,0.3,0.5,0.7,0.6,1.3l0.4,3.5c1-1.8,2.2-3.2,3.6-4.2s2.9-1.5,4.6-1.5
		c1.4,0,2.6,0.3,3.5,1l-0.9,5.2c-0.1,0.3-0.2,0.6-0.4,0.7c-0.2,0.1-0.4,0.2-0.8,0.2c-0.3,0-0.7-0.1-1.1-0.2
		c-0.5-0.1-1.1-0.2-1.9-0.2c-1.4,0-2.7,0.4-3.7,1.2s-1.9,1.9-2.6,3.5v17.8L192.6,14.6L192.6,14.6z"/>
	<path d="M227.2-14.4c1.8,0,3.5,0.3,5,0.9c1.5,0.6,2.8,1.4,3.9,2.5c1.1,1.1,2,2.5,2.6,4.1s0.9,3.4,0.9,5.5c0,0.5,0,1-0.1,1.3
		c0,0.3-0.1,0.6-0.3,0.8c-0.1,0.2-0.3,0.3-0.5,0.4s-0.5,0.1-0.8,0.1h-17.7c0.2,2.9,1,5.1,2.4,6.5s3.2,2.1,5.5,2.1
		c1.1,0,2.1-0.1,2.9-0.4s1.5-0.5,2.1-0.9c0.6-0.3,1.1-0.6,1.6-0.9c0.5-0.3,0.9-0.4,1.3-0.4c0.3,0,0.5,0.1,0.7,0.2
		c0.2,0.1,0.4,0.3,0.5,0.5l2,2.5c-0.8,0.9-1.6,1.6-2.6,2.2c-0.9,0.6-1.9,1.1-3,1.5c-1,0.4-2.1,0.6-3.2,0.8c-1.1,0.1-2.1,0.2-3.1,0.2
		c-2,0-3.8-0.3-5.5-1s-3.2-1.6-4.5-2.9s-2.3-2.9-3-4.8s-1.1-4.1-1.1-6.6c0-2,0.3-3.8,0.9-5.5s1.5-3.2,2.7-4.5s2.6-2.3,4.3-3
		C223.1-14.1,225-14.4,227.2-14.4z M227.3-9.5c-2,0-3.6,0.6-4.7,1.7s-1.9,2.7-2.2,4.8h12.9c0-0.9-0.1-1.7-0.4-2.5
		c-0.2-0.8-0.6-1.5-1.1-2.1s-1.1-1.1-1.9-1.4C229.2-9.3,228.3-9.5,227.3-9.5z"/>
	<path d="M245.2,14.6V-14h4.2c0.9,0,1.5,0.4,1.8,1.3l0.5,2.3c0.6-0.6,1.2-1.1,1.8-1.6s1.3-0.9,2-1.3c0.7-0.4,1.5-0.6,2.3-0.8
		s1.7-0.3,2.7-0.3c1.6,0,2.9,0.3,4.2,0.8c1.2,0.5,2.2,1.3,3,2.2c0.8,1,1.4,2.1,1.8,3.4c0.4,1.3,0.6,2.8,0.6,4.4v18.2h-6.9V-3.6
		c0-1.7-0.4-3.1-1.2-4.1s-2-1.4-3.6-1.4c-1.2,0-2.3,0.3-3.3,0.8s-2,1.3-3,2.2v20.7H245.2z"/>
	<path d="M297,14.6c-0.9,0-1.5-0.4-1.8-1.3l-0.6-2.8c-0.6,0.7-1.2,1.3-1.9,1.8s-1.4,1-2.1,1.4s-1.6,0.7-2.4,0.9
		c-0.9,0.2-1.8,0.3-2.8,0.3c-1.6,0-3-0.3-4.3-1s-2.4-1.6-3.4-2.8s-1.7-2.8-2.2-4.6s-0.8-3.9-0.8-6.2c0-2.1,0.3-4.1,0.9-5.9
		c0.6-1.8,1.4-3.4,2.5-4.7s2.4-2.4,3.9-3.1c1.5-0.8,3.2-1.1,5.1-1.1c1.6,0,3,0.3,4.1,0.8s2.1,1.2,3,2v-15.1h6.9v41.4H297z
		 M287.8,9.6c1.4,0,2.6-0.3,3.7-0.9c1-0.6,2-1.4,2.8-2.5V-6.7c-0.8-0.9-1.6-1.6-2.6-2c-0.9-0.4-1.9-0.6-3-0.6c-1,0-2,0.2-2.8,0.6
		c-0.8,0.4-1.6,1-2.1,1.8c-0.6,0.8-1,1.8-1.4,3c-0.3,1.2-0.5,2.7-0.5,4.3c0,1.7,0.1,3.1,0.4,4.3s0.7,2.1,1.2,2.8s1.1,1.3,1.8,1.6
		C286.1,9.4,286.9,9.6,287.8,9.6z"/>
	<path d="M317-22.3c0,0.6-0.1,1.2-0.4,1.7c-0.2,0.5-0.6,1-1,1.4s-0.9,0.7-1.4,0.9s-1.1,0.3-1.7,0.3c-0.6,0-1.2-0.1-1.7-0.3
		s-1-0.5-1.4-0.9s-0.7-0.8-0.9-1.4s-0.3-1.1-0.3-1.7s0.1-1.2,0.3-1.7s0.5-1,0.9-1.4s0.9-0.7,1.4-0.9c0.5-0.2,1.1-0.3,1.7-0.3
		c0.6,0,1.2,0.1,1.7,0.3c0.5,0.2,1,0.5,1.4,0.9s0.7,0.9,1,1.4S317-22.9,317-22.3z M316-14v28.6h-6.9V-14H316z"/>
	<path d="M343.9,14.6c-0.9,0-1.5-0.4-1.8-1.3l-0.6-2.8c-0.6,0.7-1.2,1.3-1.9,1.8s-1.4,1-2.1,1.4s-1.6,0.7-2.4,0.9
		c-0.9,0.2-1.8,0.3-2.8,0.3c-1.6,0-3-0.3-4.3-1s-2.4-1.6-3.4-2.8s-1.7-2.8-2.2-4.6s-0.8-3.9-0.8-6.2c0-2.1,0.3-4.1,0.9-5.9
		c0.6-1.8,1.4-3.4,2.5-4.7s2.4-2.4,3.9-3.1c1.5-0.8,3.2-1.1,5.1-1.1c1.6,0,3,0.3,4.1,0.8s2.1,1.2,3,2v-15.1h6.9v41.4H343.9z
		 M334.7,9.6c1.4,0,2.6-0.3,3.7-0.9c1-0.6,2-1.4,2.8-2.5V-6.7c-0.8-0.9-1.6-1.6-2.6-2c-0.9-0.4-1.9-0.6-3-0.6c-1,0-2,0.2-2.8,0.6
		c-0.8,0.4-1.6,1-2.1,1.8c-0.6,0.8-1,1.8-1.4,3c-0.3,1.2-0.5,2.7-0.5,4.3c0,1.7,0.1,3.1,0.4,4.3s0.7,2.1,1.2,2.8s1.1,1.3,1.8,1.6
		C333,9.4,333.9,9.6,334.7,9.6z"/>
	<path d="M367.8-14.4c2.1,0,4.1,0.3,5.8,1s3.2,1.7,4.4,2.9c1.2,1.3,2.2,2.8,2.8,4.6c0.7,1.8,1,3.9,1,6.1c0,2.3-0.3,4.3-1,6.1
		s-1.6,3.4-2.8,4.7s-2.7,2.3-4.4,3s-3.7,1-5.8,1s-4.1-0.3-5.8-1s-3.2-1.7-4.5-3c-1.2-1.3-2.2-2.8-2.9-4.7c-0.7-1.8-1-3.9-1-6.1
		s0.3-4.3,1-6.1s1.6-3.4,2.9-4.6c1.3-1.2,2.7-2.2,4.5-2.9C363.7-14.1,365.7-14.4,367.8-14.4z M367.8,9.7c2.4,0,4.1-0.8,5.3-2.4
		c1.1-1.6,1.7-3.9,1.7-7s-0.6-5.4-1.7-7.1c-1.1-1.6-2.9-2.4-5.3-2.4c-2.4,0-4.2,0.8-5.4,2.4s-1.7,4-1.7,7c0,3.1,0.6,5.4,1.7,7
		C363.6,8.9,365.4,9.7,367.8,9.7z"/>
	<path d="M387.3,14.6V-14h4c0.7,0,1.2,0.1,1.5,0.4c0.3,0.3,0.5,0.7,0.6,1.3l0.4,3.5c1-1.8,2.2-3.2,3.6-4.2c1.4-1,2.9-1.5,4.6-1.5
		c1.4,0,2.6,0.3,3.5,1l-0.9,5.2c-0.1,0.3-0.2,0.6-0.4,0.7s-0.4,0.2-0.8,0.2c-0.3,0-0.7-0.1-1.1-0.2c-0.5-0.1-1.1-0.2-1.9-0.2
		c-1.4,0-2.7,0.4-3.7,1.2s-1.9,1.9-2.6,3.5v17.8L387.3,14.6L387.3,14.6z"/>
	<path d="M415-28.1c0.7,1,1.1,2.1,1.4,3.1s0.5,2.1,0.5,3.1c0,1.9-0.5,3.6-1.4,5.3c-0.9,1.7-2.3,3.3-4.1,4.7l-2.1-1.3
		c-0.2-0.1-0.3-0.2-0.4-0.4s-0.1-0.3-0.1-0.5c0-0.4,0.1-0.7,0.4-0.9c0.2-0.3,0.5-0.6,0.8-0.9c0.3-0.3,0.5-0.8,0.7-1.2
		s0.4-0.9,0.5-1.5c0.1-0.5,0.2-1.1,0.2-1.7s-0.1-1.3-0.3-2s-0.5-1.5-1-2.3c-0.2-0.2-0.3-0.5-0.3-0.8c0-0.6,0.3-1,1-1.3L415-28.1z
		 M424.3-28.1c0.7,1,1.1,2.1,1.4,3.1s0.5,2.1,0.5,3.1c0,1.9-0.5,3.6-1.4,5.3c-0.9,1.7-2.3,3.3-4.1,4.7l-2.1-1.3
		c-0.2-0.1-0.3-0.2-0.4-0.4s-0.1-0.3-0.1-0.5c0-0.4,0.1-0.7,0.4-0.9c0.2-0.3,0.5-0.6,0.8-0.9s0.5-0.8,0.7-1.2
		c0.2-0.4,0.4-0.9,0.5-1.5c0.1-0.5,0.2-1.1,0.2-1.7s-0.1-1.3-0.3-2s-0.5-1.5-1-2.3c-0.2-0.2-0.3-0.5-0.3-0.8c0-0.6,0.3-1,1-1.3
		L424.3-28.1z"/>
</g>
<g id="XMLID_262_">
	<g id="XMLID_139_">
		<path id="XMLID_140_" d="M185.3,128.9L185.3,128.9c0-5.3,4-9.9,9.7-9.9s9.6,4.6,9.6,9.7l0,0c0,5.2-4,9.7-9.7,9.7
			C189.3,138.6,185.3,134,185.3,128.9 M202.3,128.9L202.3,128.9c0-4.3-3.1-7.8-7.5-7.8c-4.3,0-7.4,3.4-7.4,7.8l0,0
			c0,4.3,3.1,7.8,7.5,7.8S202.3,133.2,202.3,128.9 M206.6,119.5h2.4l5.4,15.8l5.2-15.8h1.8l5.2,15.8l5.4-15.8h2.2l-6.8,19h-1.8
			l-5.2-15.3l-5.2,15.3h-1.7L206.6,119.5z M238,119.5h13.7v1.9h-11.5v6.5h10.3v1.9h-10.3v6.6h11.6v1.9H238V119.5z M256,119.5h8.1
			c2.4,0,4.1,0.7,5.3,1.9c0.9,0.9,1.5,2.2,1.5,3.7l0,0c0,3.1-2.2,5-5.2,5.4l5.7,7.7h-2.6l-5.4-7.4H258v7.4h-2.1v-18.7
			C255.9,119.5,256,119.5,256,119.5z M263.9,129c2.8,0,4.9-1.5,4.9-3.8l0,0c0-2.4-1.8-3.7-4.9-3.7H258v7.7L263.9,129L263.9,129z
			 M175.1,131.8h-4.7v6.8h-2.2v-19.4h7.2c4.4,0,7.2,2.4,7.2,6.2C182.6,129.6,179.3,131.8,175.1,131.8 M175.3,121.2h-4.9v8.6h4.9
			c3.2,0,5.3-1.8,5.3-4.3C180.5,122.7,178.3,121.2,175.3,121.2 M309.1,71.3c-10.7,0-19.4,8.7-19.4,19.4s8.7,19.4,19.4,19.4
			s19.4-8.7,19.4-19.4C328.6,80,319.9,71.3,309.1,71.3 M309.1,102.8c-6.8,0-12.1-5.4-12.1-12.1c0-6.8,5.4-12.1,12.1-12.1
			c6.8,0,12.1,5.4,12.1,12.1C321.3,97.4,315.8,102.8,309.1,102.8 M285.3,102.8h1.6v7.2h-1.6c-8.4,0-15.2-6.8-15.2-15.2V61.6h7.2v9.7
			h9.4v7.2h-9.4v16.3C277.5,99.3,281,102.8,285.3,102.8 M221.6,86.5v23.1h-7.2V86.5c0-4.4-3.5-7.9-7.9-7.9s-7.9,3.5-7.9,7.9v23.1
			h-7.2V86.5c0-4.4-3.5-7.9-7.9-7.9s-7.9,3.5-7.9,7.9v23.1h-7.2V86.5c0-8.4,6.8-15.2,15.2-15.2c4.7,0,8.8,2.1,11.6,5.3
			c2.8-3.2,6.9-5.3,11.6-5.3C214.9,71.3,221.6,78.1,221.6,86.5 M246,71.3c-10.7,0-19.4,8.7-19.4,19.4s8.7,19.4,19.4,19.4
			s19.4-8.7,19.4-19.4C265.3,80,256.6,71.3,246,71.3 M246,102.8c-6.8,0-12.1-5.4-12.1-12.1c0-6.8,5.4-12.1,12.1-12.1
			c6.8,0,12.1,5.4,12.1,12.1S252.6,102.8,246,102.8 M367.9,105.9c-8.4,6.6-20.6,5.2-27.2-3.4c-6.6-8.4-5.2-20.6,3.4-27.2
			c8.4-6.6,20.6-5.2,27.2,3.4c0-2.4,0-4.9,0-7.5h4.1v36.2c0,13-8.8,20.2-21.1,20.2c-5.6,0-11-1.3-15.9-4.1l1.9-3.7
			c4.3,2.5,9.1,3.8,14.1,3.8c9.9,0,16.8-5.6,16.8-16.6c0-1.5,0-3.1,0-4.6C370.1,103.9,369,105,367.9,105.9 M340.6,90.6
			c0,8.4,6.8,15.2,15.2,15.2S371,99,371,90.6s-6.8-15.2-15.2-15.2C347.6,75.4,340.6,82.2,340.6,90.6 M392.9,73.5h-11.6v-2.2h14.3
			v1.8L386,92.4h-2.6L392.9,73.5z"/>
	</g>
</g>
<line class="st1" x1="233.6" y1="51.1" x2="304.6" y2="51.1"/>
</svg>
