<?xml version="1.0" encoding="utf-8"?>
<!-- Generator: Adobe Illustrator 24.0.0, SVG Export Plug-In . SVG Version: 6.00 Build 0)  -->
<svg version="1.1" id="Layer_1" xmlns="http://www.w3.org/2000/svg" xmlns:xlink="http://www.w3.org/1999/xlink" x="0px" y="0px"
	 viewBox="0 0 285 285" style="enable-background:new 0 0 285 285;" xml:space="preserve">
<style type="text/css">
	.st0{fill:#FFFFFF;}
	.st1{fill:#C92E40;}
</style>
<g>
	<path class="st0" d="M143,16c66.6,0,120.7,54.2,120.7,120.7c0,66.6-54.2,120.7-120.7,120.7c-15.8,0-31.1-3-45.6-8.9
		c-3.8,1.1-14.1,6.6-20.4,10C62.9,266.2,57.1,269,52.3,269h0c-3.1,0-5.9-1.2-7.9-3.4c-1.9-2.2-2.8-5.1-2.3-8.1
		c1.5-10.8,4.2-20,6.3-27.4c1.5-5.2,3.5-12.2,3.1-14.5c-18.9-21.9-29.3-49.9-29.3-78.8C22.2,70.2,76.4,16,143,16 M143,0
		C67.6,0,6.2,61.4,6.2,136.8c0,30.2,10,59.5,28.3,83.3c-0.5,2-1.2,4.2-1.6,5.5c-2.2,7.5-5.1,17.7-6.8,29.7c-1,7.5,1.2,15.1,6.1,20.8
		c5,5.7,12.2,8.9,20,8.9c8.9,0,16.7-4,32.2-12.3c2.5-1.4,8.8-4.7,13.2-6.9c14.5,5.1,29.7,7.6,45.2,7.6
		c75.4,0,136.7-61.3,136.7-136.7C279.7,61.4,218.4,0,143,0L143,0z"/>
</g>
<g>
	<path class="st0" d="M179.4,160.2c-2.7,3.8-5.8,7-9.6,10c-2.1,1.8-6.7,5.7-9.8,5.7c-1,0-2.2-0.6-2.2-1.7c0-0.7,0.8-1.4,1.2-1.8
		c4.1-3,9.1-11.3,11.1-15.3c2.7-5.5,4.9-13.7,4.9-19.8c0-6-1.9-13.7-4.3-19.2c-1.9-4.5-7.2-13.1-11.6-16.3c-0.4-0.4-1.2-1-1.2-1.8
		c0-1.1,1.2-1.7,2.2-1.7c5.8,0,16.6,11.9,19.7,16.1c2.7,3.8,4.7,7.8,5.8,12.1c0.8,2.9,1.7,7.7,1.7,10.6
		C187.3,145,184.2,153.6,179.4,160.2 M114.5,156.1c1.9,4.5,7.2,13.1,11.6,16.3c0.4,0.4,1.2,1,1.2,1.8c0,1.1-1.2,1.7-2.2,1.7
		c-5.7,0-16.6-11.9-19.7-16.1c-2.7-3.8-4.7-7.8-5.8-12.1c-0.8-2.9-1.7-7.7-1.7-10.6c0-7.8,3.1-16.5,7.9-23c2.7-3.8,5.8-7,9.6-10
		c2.1-1.8,6.7-5.7,9.8-5.7c1,0,2.2,0.6,2.2,1.7c0,0.7-0.8,1.4-1.2,1.8c-4.1,3-9.1,11.3-11.1,15.3c-2.7,5.5-4.9,13.7-4.9,19.8
		C110.2,142.9,112,150.6,114.5,156.1 M143,34.5c-56.4,0-102.3,45.9-102.3,102.3c0,24.6,8.9,48.4,25,67c7.1,8.2,4,19,0.4,31.4
		c-0.9,3.1-1.8,6.4-2.7,9.8c1.7-0.9,3.4-1.8,4.9-2.6c20.2-10.8,28.1-14.3,34.6-11.5c12.7,5.4,26.2,8.1,40.1,8.1
		c56.4,0,102.3-45.9,102.3-102.3C245.3,80.3,199.4,34.5,143,34.5"/>
	<path class="st1" d="M143,239c-13.9,0-27.4-2.7-40.1-8.1c-6.5-2.8-14.4,0.7-34.6,11.5c-1.5,0.8-3.2,1.7-4.9,2.6
		c0.9-3.5,1.8-6.7,2.7-9.8c3.6-12.5,6.7-23.2-0.4-31.4c-16.1-18.6-25-42.4-25-67C40.7,80.3,86.5,34.5,143,34.5
		c56.4,0,102.3,45.9,102.3,102.3C245.3,193.2,199.4,239,143,239 M143,16C76.4,16,22.2,70.2,22.2,136.8c0,28.9,10.4,56.9,29.3,78.8
		c0.4,2.2-1.6,9.3-3.1,14.5c-2.1,7.4-4.8,16.6-6.3,27.4c-0.4,3,0.4,5.9,2.3,8.1c1.9,2.2,4.7,3.4,7.9,3.4h0c4.8,0,10.6-2.8,24.7-10.4
		c6.3-3.4,16.7-8.9,20.4-10c14.5,5.9,29.8,8.9,45.6,8.9c66.6,0,120.7-54.2,120.7-120.7C263.7,70.2,209.5,16,143,16"/>
	<path class="st1" d="M126.1,101.8c0.4-0.4,1.2-1.1,1.2-1.8c0-1.1-1.2-1.7-2.2-1.7c-3.1,0-7.7,3.9-9.8,5.7c-3.7,3-6.8,6.2-9.6,10
		c-4.8,6.6-7.9,15.2-7.9,23c0,2.9,0.9,7.7,1.7,10.6c1.1,4.3,3.1,8.3,5.8,12.1c3.1,4.3,14,16.1,19.7,16.1c1,0,2.2-0.6,2.2-1.7
		c0-0.8-0.8-1.3-1.2-1.8c-4.4-3.2-9.6-11.8-11.6-16.3c-2.5-5.5-4.3-13.2-4.3-19.2c0-6.1,2.1-14.3,4.9-19.8
		C117,113.1,122,104.8,126.1,101.8"/>
	<path class="st1" d="M179.7,114.4c-3.1-4.3-14-16.1-19.7-16.1c-1,0-2.2,0.6-2.2,1.7c0,0.8,0.8,1.3,1.2,1.8
		c4.4,3.2,9.7,11.8,11.6,16.3c2.5,5.5,4.3,13.2,4.3,19.2c0,6.1-2.1,14.3-4.9,19.8c-1.9,4-7,12.3-11.1,15.3c-0.4,0.4-1.2,1.1-1.2,1.8
		c0,1.1,1.2,1.7,2.2,1.7c3.1,0,7.7-3.9,9.8-5.7c3.7-3,6.8-6.2,9.6-10c4.8-6.6,7.9-15.2,7.9-23c0-2.9-0.9-7.7-1.7-10.6
		C184.4,122.2,182.5,118.2,179.7,114.4"/>
</g>
</svg>
