<?xml version="1.0" encoding="utf-8"?>
<!-- Generator: Adobe Illustrator 24.0.0, SVG Export Plug-In . SVG Version: 6.00 Build 0)  -->
<svg version="1.1" id="Capa_1" xmlns="http://www.w3.org/2000/svg" xmlns:xlink="http://www.w3.org/1999/xlink" x="0px" y="0px"
	 viewBox="0 0 520 96" style="enable-background:new 0 0 520 96;" xml:space="preserve">
<style type="text/css">
	.st0{fill:#FFF8F9;}
	.st1{fill:#C92F41;}
</style>
<g>
	<path id="XMLID_81_" class="st0" d="M59.5,39.5c0-4.1-0.1-7.4-0.3-10.3h8.4l0.4,4.2h0.1c2.3-3.2,5.8-5,10.3-5c6.9,0,13,5.9,13,15.8
		c0,11.2-7.2,16.5-14.2,16.5c-3.8,0-6.6-1.5-8.1-3.5H69v15.4h-9.6L59.5,39.5L59.5,39.5z M69.1,46.8c0,0.8,0,1.4,0.1,2
		c0.7,2.6,2.9,4.6,5.7,4.6c4.2,0,6.6-3.5,6.6-8.8c0-5-2.3-8.7-6.5-8.7c-2.7,0-5.1,2-5.8,4.9c-0.1,0.4-0.1,1.2-0.1,1.6
		C69.1,42.3,69.1,46.8,69.1,46.8z"/>
	<path id="XMLID_78_" class="st0" d="M121.7,52.5c0,2.9,0.1,5.8,0.4,7.4h-8.7l-0.7-3h-0.1c-2,2.4-5.1,3.8-8.8,3.8
		c-6.2,0-10-4.6-10-9.6c0-8.1,7.3-11.9,18.3-11.9v-0.4c0-1.6-0.9-4.1-5.7-4.1c-3.2,0-6.5,1.1-8.5,2.3L96,30.8
		c2.2-1.2,6.4-2.7,12-2.7c10.3,0,13.5,6.1,13.5,13.4L121.7,52.5L121.7,52.5z M112.4,45.3c-5,0-8.9,1.2-8.9,4.9
		c0,2.4,1.6,3.7,3.8,3.7c2.3,0,4.5-1.5,5-3.5c0.1-0.4,0.1-1.1,0.1-1.6V45.3L112.4,45.3z"/>
	<path id="XMLID_76_" class="st0" d="M127.8,39.2c0-4.6,0-7.6-0.3-10.2h8.4l0.3,5.8h0.3c1.5-4.6,5.3-6.5,8.4-6.5c0.9,0,1.4,0,2,0.1
		v9.1c-0.8-0.1-1.5-0.3-2.6-0.3c-3.5,0-5.9,2-6.5,4.9c-0.1,0.7-0.3,1.4-0.3,2.2v15.8h-9.6L127.8,39.2L127.8,39.2z"/>
	<path id="XMLID_72_" class="st0" d="M157.3,47.6c0.3,3.9,4.2,5.9,8.8,5.9c3.4,0,5.9-0.4,8.5-1.4l1.2,6.5c-3.2,1.4-7,2-11.2,2
		c-10.5,0-16.5-6.1-16.5-15.8c0-7.9,4.9-16.5,15.7-16.5c10,0,13.8,7.7,13.8,15.5c0,1.6-0.1,3-0.3,3.8h-19.9l0,0H157.3z M168.5,41.1
		c0-2.3-1.1-6.2-5.4-6.2c-4.1,0-5.8,3.8-5.9,6.2H168.5z M173.8,15.5l-7.7,9.6h-6.5l5.4-9.6H173.8z"/>
	<path id="XMLID_70_" class="st0" d="M181.8,38.9c0-3.8-0.1-7.2-0.3-9.9h8.4l0.4,4.2h0.1c1.2-2,4.5-5,9.6-5
		c6.4,0,11.1,4.2,11.1,13.4V60h-9.6V42.9c0-3.9-1.4-6.6-4.9-6.6c-2.7,0-4.2,1.9-5,3.7c-0.3,0.7-0.3,1.5-0.3,2.4v18h-9.6V38.9H181.8z
		"/>
	<path id="XMLID_68_" class="st0" d="M227.6,20.7v8.4h6.9v7.2h-6.9v11.1c0,3.8,0.9,5.4,3.8,5.4c1.4,0,2,0,2.9-0.3v7.3
		c-1.2,0.4-3.5,0.8-6.2,0.8c-3,0-5.8-1.1-7.3-2.7c-1.9-1.9-2.7-4.9-2.7-9.3V35.9H214V29h4.1v-5.8L227.6,20.7z"/>
	<path id="XMLID_65_" class="st0" d="M245.8,47.6c0.3,3.9,4.2,5.9,8.8,5.9c3.4,0,5.9-0.4,8.5-1.4l1.2,6.5c-3.2,1.4-7,2-11.2,2
		c-10.5,0-16.5-6.1-16.5-15.8c0-7.9,4.9-16.5,15.7-16.5c10,0,13.8,7.7,13.8,15.5c0,1.6-0.1,3-0.3,3.8h-19.9l0,0H245.8z M257.1,41.1
		c0-2.3-1.1-6.2-5.4-6.2c-4.1,0-5.8,3.8-5.9,6.2H257.1z"/>
	<path id="XMLID_63_" class="st0" d="M270.2,51.8c1.9,1.1,5.4,2.3,8.4,2.3c2.9,0,4.1-0.9,4.1-2.6c0-1.6-0.9-2.4-4.6-3.7
		c-6.5-2.2-8.9-5.7-8.8-9.3c0-5.8,5-10.2,12.6-10.2c3.7,0,6.9,0.9,8.7,1.9l-1.6,6.6c-1.4-0.8-4.1-1.9-6.6-1.9
		c-2.3,0-3.7,0.9-3.7,2.4s1.2,2.3,5,3.7c5.9,2,8.4,5,8.4,9.6c0,5.8-4.6,10-13.4,10c-4.1,0-7.7-0.9-10-2.3L270.2,51.8z"/>
	<path id="XMLID_60_" class="st0" d="M306.1,20.4c0,2.7-2,4.9-5.1,4.9c-3,0-5-2.2-5-4.9c0-2.7,2-4.9,5.1-4.9
		C304.2,15.5,306.1,17.7,306.1,20.4z M296.2,60V29.1h9.6v31L296.2,60L296.2,60z"/>
	<path id="XMLID_58_" class="st0" d="M311.9,51.8c1.9,1.1,5.4,2.3,8.4,2.3c2.9,0,4.1-0.9,4.1-2.6c0-1.6-0.9-2.4-4.6-3.7
		c-6.5-2.2-8.9-5.7-8.8-9.3c0-5.8,5-10.2,12.6-10.2c3.7,0,6.9,0.9,8.7,1.9l-1.6,6.6c-1.4-0.8-4.1-1.9-6.6-1.9
		c-2.3,0-3.7,0.9-3.7,2.4s1.2,2.3,5,3.7c5.9,2,8.4,5,8.4,9.6c0,5.8-4.6,10-13.4,10c-4.1,0-7.7-0.9-10-2.3L311.9,51.8z"/>
	<path id="XMLID_56_" class="st1" d="M336.5,54.9c0-3.5,2.3-5.9,5.8-5.9c3.4,0,5.7,2.3,5.7,5.9c0,3.4-2.3,5.8-5.8,5.8
		C339,60.7,336.5,58.3,336.5,54.9z"/>
	<path id="XMLID_54_" class="st1" d="M375.5,59.2c-1.6,0.8-5,1.5-8.7,1.5c-10,0-16.4-6.1-16.4-15.8c0-9.1,6.2-16.5,17.7-16.5
		c2.6,0,5.3,0.4,7.3,1.2l-1.5,7.2c-1.2-0.4-2.9-0.9-5.3-0.9c-5,0-8.4,3.7-8.4,8.7c0,5.7,3.8,8.7,8.5,8.7c2.3,0,4.1-0.4,5.4-1.1
		L375.5,59.2z"/>
	<path id="XMLID_51_" class="st1" d="M409.2,44.1c0,11.4-8.1,16.5-16.4,16.5c-9.1,0-16.1-5.9-16.1-16s6.5-16.5,16.5-16.5
		C402.8,28.4,409.2,34.9,409.2,44.1z M386.7,44.5c0,5.3,2.3,9.3,6.4,9.3c3.8,0,6.1-3.8,6.1-9.5c0-4.6-1.9-9.3-6.1-9.3
		C388.5,35.1,386.7,39.9,386.7,44.5z"/>
	<path id="XMLID_49_" class="st1" d="M413.6,38.9c0-3.8-0.1-7.2-0.3-9.9h8.2l0.4,4.2h0.1c1.4-2,4.1-5,9.5-5c4.1,0,7.2,2.2,8.5,5.3
		h0.1c1.2-1.6,2.6-2.9,4.1-3.8c1.6-0.9,3.7-1.5,5.9-1.5c5.9,0,10.5,4.2,10.5,13.5V60H451V43.2c0-4.6-1.5-7.2-4.6-7.2
		c-2.3,0-3.8,1.5-4.6,3.4c-0.1,0.8-0.3,1.6-0.3,2.4V60H432V42.6c0-3.8-1.4-6.5-4.6-6.5c-2.4,0-3.9,2-4.6,3.5
		c-0.3,0.8-0.3,1.6-0.3,2.4v18.1H413V38.9H413.6z"/>
</g>
<g>
	<path id="XMLID_2_" class="st1" d="M43.5,14.6c0.5-0.2,1-1,1-1.4c0-1-1-1.4-1.9-1.4c-2.6,0-6.6,3.1-8.1,4.9c-3.1,2.4-5.5,5-8,8.1
		c-3.8,5.5-6.6,12.7-6.6,19.1c0,2.4,0.7,6.6,1.4,9c1,3.6,2.6,7.1,4.9,10.2c2.6,3.6,11.6,13.5,16.5,13.5c0.7,0,1.9-0.5,1.9-1.4
		c0-0.7-0.7-1.2-1-1.4c-3.6-2.6-8-9.9-9.7-13.5c-2.3-4.7-3.6-10.9-3.6-15.9s1.7-11.8,4.2-16.5C36,24.1,40,17,43.5,14.6z"/>
	<path id="XMLID_1_" class="st1" d="M491.4,25c-2.6-3.6-11.6-13.5-16.5-13.5c-0.7,0-1.9,0.5-1.9,1.4c0,0.7,0.7,1.2,1,1.4
		c3.6,2.6,8,9.9,9.7,13.5c2.3,4.7,3.6,10.9,3.6,15.9s-1.7,11.8-4.2,16.5c-1.7,3.5-5.9,10.2-9.2,12.8c-0.5,0.2-1,1-1,1.4
		c0,1,1,1.4,1.9,1.4c2.6,0,6.6-3.1,8.1-4.9c3.1-2.4,5.9-5,8-8.1c3.8-5.5,6.6-12.7,6.6-19.1c0-2.4-0.7-6.6-1.4-9
		C495.4,31.6,493.8,28.3,491.4,25z"/>
</g>
</svg>
