<?xml version="1.0" encoding="utf-8"?>
<!-- Generator: Adobe Illustrator 19.0.0, SVG Export Plug-In . SVG Version: 6.00 Build 0)  -->
<svg version="1.1" id="Capa_1" xmlns="http://www.w3.org/2000/svg" xmlns:xlink="http://www.w3.org/1999/xlink" x="0px" y="0px"
	 viewBox="-371 501 24 24" style="enable-background:new -371 501 24 24;" xml:space="preserve">
<g>
	<path fill="#fff" d="M-359,505v0.7v1.2l1.2,0.3c2.1,0.5,3.3,2.4,3.3,4.9v5v0.6l0.4,0.4l0.4,0.4h-10.8l0.4-0.4l0.4-0.4V517v-5
		c0-2.5,1.3-4.4,3.3-4.9l1.2-0.3v-1.2V505L-359,505 M-359,503.5c-0.8,0-1.5,0.7-1.5,1.5v0.7c-2.9,0.7-4.5,3.2-4.5,6.3v5l-2,2v1h16
		v-1l-2-2v-5c0-3.1-1.6-5.6-4.5-6.3V505C-357.5,504.2-358.2,503.5-359,503.5L-359,503.5z M-357,521h-4c0,1.1,0.9,2,2,2
		C-357.9,523-357,522.1-357,521L-357,521z"/>
</g>
</svg>
