<svg width="129" height="49" viewBox="0 0 129 49" fill="none" xmlns="http://www.w3.org/2000/svg">
<g id="Group">
<path id="Vector" d="M75.7897 45.1621C76.3056 45.1621 76.6503 45.478 76.6503 45.9494C76.6503 46.4208 76.2958 46.7196 75.7897 46.7196C75.2836 46.7196 74.9291 46.4135 74.9291 45.9737C74.9291 45.495 75.2812 45.1621 75.7897 45.1621ZM75.7897 43.9472C75.423 43.9472 75.1687 43.7382 75.1687 43.4393C75.1687 43.1405 75.4181 42.9412 75.7897 42.9412C76.1613 42.9412 76.4034 43.1453 76.4034 43.4296C76.4034 43.7333 76.1515 43.9447 75.7897 43.9447M77.3667 44.4502C77.6625 44.1513 77.8214 43.7795 77.8214 43.381C77.8214 42.5476 77.1857 41.651 75.7897 41.651C75.1442 41.651 74.5868 41.8599 74.2152 42.2414C73.9071 42.5549 73.7458 42.9728 73.758 43.4102C73.7653 43.7965 73.9194 44.1489 74.2054 44.4404C73.6749 44.8146 73.3741 45.3784 73.3741 46.0077C73.3741 47.0015 74.1296 48.0706 75.7897 48.0706C76.5452 48.0706 77.2028 47.8252 77.6405 47.3781C78.0072 47.0064 78.2004 46.5107 78.1881 45.9882C78.1783 45.3711 77.8825 44.8195 77.3642 44.4502" fill="white"/>
<path id="Vector_2" d="M81.9336 46.6929C81.4079 46.6929 81.0803 46.3964 81.0803 45.9226C81.0803 45.4051 81.3835 45.1183 81.9336 45.1183C82.4837 45.1183 82.7771 45.4051 82.7771 45.9226C82.7771 46.5592 82.3174 46.6929 81.9336 46.6929ZM82.1512 43.8524L83.4739 41.6923H81.7233L79.9434 44.5692C79.6867 44.9726 79.5352 45.4804 79.5352 45.9226C79.5352 47.2469 80.4544 48.0706 81.936 48.0706C83.4176 48.0706 84.3516 47.2469 84.3516 45.9226C84.3516 45.3006 84.1462 44.7782 83.7599 44.404C83.3589 44.02 82.8113 43.8281 82.1536 43.8524" fill="white"/>
<path id="Vector_3" d="M87.8966 43.0263C88.2805 43.0263 88.7401 43.1623 88.7401 43.8038C88.7401 44.3238 88.4394 44.6081 87.8966 44.6081C87.3539 44.6081 87.0434 44.3214 87.0434 43.8038C87.0434 43.2863 87.3465 43.0263 87.8966 43.0263ZM87.8966 41.651C86.4053 41.651 85.4786 42.4771 85.4786 43.8062C85.4786 44.4283 85.6816 44.9507 86.0654 45.32C86.4688 45.7088 87.0409 45.8959 87.7157 45.8765H87.7255L86.3466 47.9856H88.0971L89.8696 45.1961C90.1655 44.732 90.295 44.3165 90.3048 43.8062C90.3048 42.4771 89.3807 41.651 87.8966 41.651Z" fill="white"/>
<path id="Vector_4" d="M11.922 39.5054C12.1763 40.2077 12.2741 40.9245 12.235 41.753C12.2179 42.1175 12.5724 42.3824 12.9146 42.2511C15.0368 41.4371 17.3154 40.6499 19.5672 39.8602C19.8972 39.7435 20.0121 39.328 19.7774 39.0705C19.1955 38.4241 18.885 37.7608 18.6088 37.0197C17.1052 32.8501 16.3497 30.7653 14.829 26.6005C16.9389 25.8035 21.748 24.1925 23.8628 23.4879C25.2931 27.7061 25.782 29.8638 27.1952 34.0869C27.447 34.8668 27.5937 35.6663 27.5057 36.5993C27.4739 36.9614 27.804 37.2432 28.1536 37.1388C29.7134 36.6649 31.3099 36.3102 32.904 35.8436C33.657 35.625 34.4247 35.4209 35.0702 35.2483C35.4296 35.1536 35.5469 34.7211 35.3049 34.4392C34.6912 33.7151 34.3416 32.9448 34.0849 32.1794C31.3784 23.6434 28.9702 14.8741 26.1732 6.36476C25.9067 5.51675 25.7111 4.81452 25.8138 3.84987C25.8505 3.50726 25.5229 3.23755 25.1904 3.3396C23.0169 3.99809 19.9754 4.6906 17.6797 5.43899C17.3325 5.55319 17.2127 5.98814 17.4646 6.25056C18.1442 6.96007 18.489 7.6623 18.7897 8.49088C20.1197 12.3495 20.9241 14.4221 22.2394 18.2832C19.8776 19.0947 14.9219 20.8369 12.9586 21.5124C11.5504 17.7267 10.8414 15.5471 9.42091 11.7663C9.12752 10.9329 8.92704 10.1067 9.00038 9.1032C9.02483 8.73872 8.68256 8.46658 8.33783 8.5905C6.2768 9.34132 3.11311 10.5368 0.949396 11.431C0.616893 11.5695 0.548432 11.9971 0.807589 12.245C1.58751 12.9958 2.11072 14.1087 2.44811 14.9275C5.65579 23.1015 8.81458 31.295 11.9245 39.5079" fill="white"/>
<path id="Vector_5" d="M40.7472 31.4796C40.8645 32.2183 40.8719 33.0104 40.6738 33.8511C40.5907 34.2035 40.8792 34.5291 41.2386 34.4683C46.5929 33.5596 51.5731 33.1222 57.3064 32.5342C57.4848 32.5147 57.6755 32.5001 57.8442 32.4807C57.7538 31.8003 57.5704 28.6294 57.4335 27.0719C57.4017 26.7293 57.035 26.5349 56.7245 26.6831C55.991 27.0306 55.3211 27.1885 54.4605 27.293C53.4288 27.4169 48.3801 28.0754 46.6418 28.3087C46.0795 24.5837 45.7958 22.72 45.2262 18.9951C47.473 18.6889 50.3335 18.3293 51.0303 18.2418C51.8738 18.1349 52.6317 18.113 53.4899 18.2831C53.8248 18.3512 54.1329 18.0814 54.0913 17.7437C53.9275 16.4583 53.6366 14.0357 53.4899 12.7358C53.4508 12.3932 53.0865 12.2036 52.7735 12.3543C51.9643 12.7431 51.2064 12.918 50.3653 13.0249C49.6734 13.1124 46.7274 13.4915 44.4414 13.8049C43.9377 10.6753 43.681 9.11045 43.1749 5.98324C45.0599 5.72811 50.1624 4.99915 51.468 4.83392C52.4386 4.71243 53.3652 4.75131 54.326 4.97242C54.661 5.05018 54.9715 4.77561 54.9299 4.43543C54.7735 3.15733 54.507 0.868415 54.3847 -0.271182C54.3554 -0.538465 54.1207 -0.735283 53.8493 -0.710984C47.8324 -0.169129 40.8132 0.703186 34.9528 1.69213C34.6032 1.75288 34.4321 2.14894 34.6276 2.44295C35.1949 3.29097 35.3904 4.03936 35.564 4.94084C37.1239 13.7976 39.2436 22.6107 40.7472 31.4772" fill="white"/>
<path id="Vector_6" d="M102.449 36.0672C107.959 37.3963 113.949 38.8251 119.531 40.6426C119.783 40.7252 120.052 40.5916 120.135 40.3389C120.624 38.8397 121.208 36.7281 121.631 35.4452C121.739 35.1171 121.47 34.7843 121.125 34.8304C120.352 34.9325 119.646 34.8037 118.834 34.5437C118.037 34.2886 114.057 33.132 111.013 32.3155C117.343 25.8716 122.594 20.4069 128.746 13.8754C128.829 13.7855 128.878 13.6616 128.878 13.5377C128.868 12.0093 129.012 11.7469 129.002 10.272C129.002 10.0703 128.868 9.88806 128.677 9.82246C122.396 7.63074 118.277 6.13881 112.125 4.47437C111.874 4.40633 111.61 4.54969 111.534 4.79511C111.206 5.87396 110.495 8.13614 110.104 9.36565C110.001 9.68396 110.253 9.99498 110.588 9.98283C111.473 9.94638 112.201 10.0849 113.099 10.3522C113.871 10.5806 118.103 11.7615 121.176 12.7091C114.739 19.085 108.598 25.5338 102.273 32.0483C102.187 32.1382 102.138 32.2621 102.136 32.386C102.114 33.7127 102.104 34.3323 102.084 35.5958C102.079 35.8194 102.231 36.0162 102.449 36.0696" fill="white"/>
<path id="Vector_7" d="M77.3568 29.7301C77.2761 30.5052 77.1196 31.1054 76.7602 31.8878C76.6184 32.1964 76.8214 32.5487 77.1612 32.5706C78.9533 32.6824 80.8847 33.0128 82.6964 33.1659C83.0265 33.1951 83.2832 32.8889 83.2001 32.5706C82.98 31.7274 82.8944 30.9523 82.9825 30.1796C83.6964 23.1428 83.5399 19.6001 84.2734 12.5657C87.5128 21.1114 88.7157 25.3564 91.7278 33.8317C91.7914 34.0066 91.9478 34.1378 92.1336 34.1621C93.7717 34.3735 95.3853 34.8109 97.0356 35.0563C97.3559 35.1049 97.6248 34.8328 97.5833 34.512C97.4904 33.7855 97.5882 32.9326 97.7153 32.2158C99.2409 23.4052 101.17 14.6821 102.769 5.88361C102.952 4.96755 103.287 4.3115 103.85 3.34685C104.016 3.06013 103.85 2.69808 103.519 2.63976C101.71 2.32631 99.2042 1.65567 97.5051 1.41755C97.1799 1.37138 96.9085 1.6581 96.9696 1.97884C97.1676 3.01639 97.1261 3.97861 96.9892 4.90438C95.9452 11.2584 95.4807 14.8449 94.4636 21.2013C91.6496 13.0565 90.1313 8.52971 87.1852 0.503928C87.1216 0.32655 86.9529 0.197768 86.7647 0.175899C84.024 -0.108393 81.8432 -0.446141 79.8701 -0.584642C79.5401 -0.608941 79.2931 -0.30278 79.3689 0.0155294C79.6036 0.989897 79.5645 1.7796 79.4692 2.70537C78.6257 11.6812 78.1636 20.7518 77.3568 29.7301Z" fill="white"/>
<path id="Vector_8" d="M62.9784 29.2515C62.9661 30.1019 62.8561 30.9912 62.4747 31.9049C62.3378 32.2305 62.5628 32.5949 62.9099 32.5901C64.526 32.5779 68.2324 32.5512 70.0416 32.5779C70.3839 32.5828 70.6088 32.2232 70.4719 31.9024C70.0881 30.9961 69.9487 30.1287 69.9438 29.2831C70.0269 20.2781 70.1125 11.2755 70.1932 2.27048C70.2128 1.42003 70.2617 0.7008 70.6382 -0.144786C70.78 -0.463096 70.5746 -0.822713 70.2348 -0.830003C68.23 -0.86888 64.7338 -0.830003 63.0126 -0.825143C62.6801 -0.825143 62.4478 -0.477675 62.5798 -0.166655C62.9441 0.676501 62.9784 1.38602 62.9906 2.22917C62.9857 11.2366 62.9808 20.244 62.9759 29.2515" fill="white"/>
<path id="Vector_9" d="M44.9133 45.4683H47.1381V44.0565H44.9133V43.1453H47.2922V41.736H43.3241V47.9832H47.3606V46.5325H44.9133V45.4683Z" fill="white"/>
<path id="Vector_10" d="M54.8907 43.1356H56.4922V47.9832H58.03V43.1356H59.6216V41.736H54.8907V43.1356Z" fill="white"/>
<path id="Vector_11" d="M71.1492 41.736H68.7361V43.0263H69.6261V46.7099H68.6163V47.9832H72.1834V46.7099H71.1492V41.736Z" fill="white"/>
<path id="Vector_12" d="M51.3946 44.1683C50.6783 44.0905 50.38 44.0006 50.38 43.6434C50.38 43.2863 50.8225 43.0506 51.2504 43.0506C51.6465 43.0506 52.1305 43.1988 52.1892 43.6216L52.2088 43.7504H53.6855V43.6021C53.6855 42.1637 52.4288 41.651 51.2528 41.651C50.0769 41.651 48.8275 42.1831 48.8275 43.6702C48.8275 45.269 50.5732 45.4197 51.1575 45.4683C51.8152 45.5169 52.3188 45.5922 52.3188 46.0684C52.3188 46.2167 52.3188 46.6613 51.3213 46.6613C50.847 46.6613 50.2847 46.4937 50.2627 46.0271L50.2553 45.8862H48.7395V46.0344C48.7395 47.434 50.0817 48.0706 51.3311 48.0706C52.952 48.0342 53.8811 47.3052 53.8811 46.0684C53.8811 44.5182 52.5951 44.2752 51.3946 44.1707" fill="white"/>
<path id="Vector_13" d="M62.1766 42.8683H62.5775C63.1129 42.8683 63.3574 43.3081 63.3574 43.7188C63.3574 44.1488 63.1154 44.5813 62.5775 44.5813H62.1766V42.8683ZM62.5408 41.7433H61.0348V45.7064H62.5408C63.1032 45.7064 63.5897 45.5168 63.9442 45.1572C64.306 44.7927 64.509 44.263 64.5016 43.7115C64.5016 42.7322 63.8293 41.7433 62.5433 41.7433" fill="white"/>
<path id="Vector_14" d="M63.2009 46.7196H61.8416V48.0706H63.2009V46.7196Z" fill="white"/>
</g>
</svg>
