<svg width="436" height="201" viewBox="0 0 436 201" fill="none" xmlns="http://www.w3.org/2000/svg">
<g clip-path="url(#clip0_9773_3043)">
<path d="M222.008 0.948242L283.731 0.948242V0.0120295L222.008 0.0120295V0.948242Z" fill="white"/>
<path d="M222.008 0.948242L283.731 0.948242V0.0120295L222.008 0.0120295V0.948242Z" fill="white"/>
<path d="M222.008 25.2168L283.731 25.2168V24.2806L222.008 24.2806V25.2168Z" fill="white"/>
<path d="M230.577 15.8912V18.5783C230.577 20.8702 229.264 22.007 226.617 22.007H225.947C223.328 22.007 222.049 20.8762 222.049 18.633V16.0614H224.427V18.712C224.427 19.6604 224.945 20.1103 226.044 20.1103H226.534C227.633 20.1103 228.151 19.6604 228.151 18.712V15.9399C228.151 15.0158 227.785 14.6206 227.087 14.1708L224.102 12.2983C222.519 11.3257 222.063 10.3712 222.063 8.86962V6.65675C222.063 4.36486 223.376 3.22803 226.023 3.22803H226.631C229.25 3.22803 230.528 4.36486 230.528 6.60204V8.18266H228.151V6.52301C228.151 5.57464 227.633 5.12477 226.534 5.12477H226.106C225.007 5.12477 224.489 5.57464 224.489 6.52301V8.8453C224.489 9.76936 224.883 10.1645 225.588 10.6144L228.545 12.4625C230.1 13.4352 230.584 14.3106 230.584 15.8912H230.577Z" fill="white"/>
<path d="M234.315 21.8491V5.33769H231.116V3.38623H239.954V5.33769H236.755V21.8491H234.315Z" fill="white"/>
<path d="M249.566 18.5784C249.566 20.8703 248.253 22.0071 245.607 22.0071H244.847C242.193 22.0071 240.887 20.8764 240.887 18.5784V3.38623H243.326V18.6818C243.326 19.6301 243.845 20.08 244.943 20.08H245.524C246.623 20.08 247.141 19.6301 247.141 18.6818V3.38623H249.58V18.5784H249.566Z" fill="white"/>
<path d="M251.121 3.38623H255.143C258.343 3.38623 259.863 4.70544 259.863 7.47152V17.7577C259.863 20.5299 258.343 21.843 255.143 21.843H251.121V3.38623ZM253.561 19.9219H255.026C256.67 19.9219 257.43 19.2107 257.43 17.7881V7.44721C257.43 6.02465 256.67 5.31337 255.026 5.31337H253.561V19.9219Z" fill="white"/>
<path d="M263.767 21.8491H261.328V3.38623H263.767V21.8491Z" fill="white"/>
<path d="M270.111 22.007H269.199C266.545 22.007 265.239 20.8762 265.239 18.5783V6.65675C265.239 4.36486 266.552 3.22803 269.199 3.22803H270.111C272.764 3.22803 274.07 4.36486 274.07 6.65675V18.5783C274.07 20.8702 272.757 22.007 270.111 22.007ZM270.021 5.15517H269.288C268.19 5.15517 267.671 5.60503 267.671 6.55341V18.6877C267.671 19.6361 268.19 20.0859 269.288 20.0859H270.021C271.12 20.0859 271.638 19.6361 271.638 18.6877V6.55341C271.638 5.60503 271.12 5.15517 270.021 5.15517Z" fill="white"/>
<path d="M283.676 15.8912V18.5783C283.676 20.8702 282.363 22.007 279.716 22.007H279.046C276.427 22.007 275.148 20.8762 275.148 18.633V16.0614H277.526V18.712C277.526 19.6604 278.044 20.1103 279.143 20.1103H279.633C280.732 20.1103 281.25 19.6604 281.25 18.712V15.9399C281.25 15.0158 280.884 14.6206 280.186 14.1708L277.201 12.2983C275.618 11.3257 275.162 10.3712 275.162 8.86962V6.65675C275.162 4.36486 276.475 3.22803 279.122 3.22803H279.73C282.349 3.22803 283.627 4.36486 283.627 6.60204V8.18266H281.25V6.52301C281.25 5.57464 280.732 5.12477 279.633 5.12477H279.205C278.106 5.12477 277.588 5.57464 277.588 6.52301V8.8453C277.588 9.76936 277.982 10.1645 278.687 10.6144L281.644 12.4625C283.199 13.4352 283.683 14.3106 283.683 15.8912H283.676Z" fill="white"/>
<path d="M222.008 25.2168L283.731 25.2168V24.2806L222.008 24.2806V25.2168Z" fill="white"/>
<path d="M230.577 15.8912V18.5783C230.577 20.8702 229.264 22.007 226.617 22.007H225.947C223.328 22.007 222.049 20.8762 222.049 18.633V16.0614H224.427V18.712C224.427 19.6604 224.945 20.1103 226.044 20.1103H226.534C227.633 20.1103 228.151 19.6604 228.151 18.712V15.9399C228.151 15.0158 227.785 14.6206 227.087 14.1708L224.102 12.2983C222.519 11.3257 222.063 10.3712 222.063 8.86962V6.65675C222.063 4.36486 223.376 3.22803 226.023 3.22803H226.631C229.25 3.22803 230.528 4.36486 230.528 6.60204V8.18266H228.151V6.52301C228.151 5.57464 227.633 5.12477 226.534 5.12477H226.106C225.007 5.12477 224.489 5.57464 224.489 6.52301V8.8453C224.489 9.76936 224.883 10.1645 225.588 10.6144L228.545 12.4625C230.1 13.4352 230.584 14.3106 230.584 15.8912H230.577Z" fill="white"/>
<path d="M234.315 21.8491V5.33769H231.116V3.38623H239.954V5.33769H236.755V21.8491H234.315Z" fill="white"/>
<path d="M249.566 18.5784C249.566 20.8703 248.253 22.0071 245.607 22.0071H244.847C242.193 22.0071 240.887 20.8764 240.887 18.5784V3.38623H243.326V18.6818C243.326 19.6301 243.845 20.08 244.943 20.08H245.524C246.623 20.08 247.141 19.6301 247.141 18.6818V3.38623H249.58V18.5784H249.566Z" fill="white"/>
<path d="M251.121 3.38623H255.143C258.343 3.38623 259.863 4.70544 259.863 7.47152V17.7577C259.863 20.5299 258.343 21.843 255.143 21.843H251.121V3.38623ZM253.561 19.9219H255.026C256.67 19.9219 257.43 19.2107 257.43 17.7881V7.44721C257.43 6.02465 256.67 5.31337 255.026 5.31337H253.561V19.9219Z" fill="white"/>
<path d="M263.767 21.8491H261.328V3.38623H263.767V21.8491Z" fill="white"/>
<path d="M270.111 22.007H269.199C266.545 22.007 265.239 20.8762 265.239 18.5783V6.65675C265.239 4.36486 266.552 3.22803 269.199 3.22803H270.111C272.764 3.22803 274.07 4.36486 274.07 6.65675V18.5783C274.07 20.8702 272.757 22.007 270.111 22.007ZM270.021 5.15517H269.288C268.19 5.15517 267.671 5.60503 267.671 6.55341V18.6877C267.671 19.6361 268.19 20.0859 269.288 20.0859H270.021C271.12 20.0859 271.638 19.6361 271.638 18.6877V6.55341C271.638 5.60503 271.12 5.15517 270.021 5.15517Z" fill="white"/>
<path d="M283.676 15.8912V18.5783C283.676 20.8702 282.363 22.007 279.716 22.007H279.046C276.427 22.007 275.148 20.8762 275.148 18.633V16.0614H277.526V18.712C277.526 19.6604 278.044 20.1103 279.143 20.1103H279.633C280.732 20.1103 281.25 19.6604 281.25 18.712V15.9399C281.25 15.0158 280.884 14.6206 280.186 14.1708L277.201 12.2983C275.618 11.3257 275.162 10.3712 275.162 8.86962V6.65675C275.162 4.36486 276.475 3.22803 279.122 3.22803H279.73C282.349 3.22803 283.627 4.36486 283.627 6.60204V8.18266H281.25V6.52301C281.25 5.57464 280.732 5.12477 279.633 5.12477H279.205C278.106 5.12477 277.588 5.57464 277.588 6.52301V8.8453C277.588 9.76936 277.982 10.1645 278.687 10.6144L281.644 12.4625C283.199 13.4352 283.683 14.3106 283.683 15.8912H283.676Z" fill="white"/>
<path d="M187.595 9.6053C187.595 11.1008 186.828 12.0431 185.929 12.42C185.632 12.5416 185.328 12.6024 185.024 12.6024V6.66292C185.024 6.66292 185.038 6.66292 185.045 6.66292C185.349 6.66292 187.595 6.74195 187.595 9.59922V9.6053ZM174.734 16.0676H176.89L175.792 8.17666L174.734 16.0676ZM218.359 0V25.2291H153.658V0H218.359ZM208.491 3.38617H197.67L195.887 14.6268L194.125 3.38617H190.22L190.656 6.38935C190.207 5.62336 188.61 3.38617 185.093 3.38617C185.072 3.38617 181.189 3.38617 181.189 3.38617L181.175 19.776L178.328 3.38617H173.221L170.277 20.3657V3.38617H165.385L163.623 12.9246L161.902 3.38617H157.009V21.849H160.865V12.9489L162.621 21.849H164.666L166.394 12.9489V21.849H173.822L174.271 19.01H177.264L177.713 21.849H185.003V15.8548L185.895 15.7393L187.747 21.849H191.52L189.094 14.6876C190.324 13.8973 191.713 11.8972 191.34 9.98222L193.634 21.8551L198.119 21.8429L201.187 5.11269V21.8429H208.457V18.5236H205.002V14.2924H208.457V10.9245H205.002V6.75411H208.457V3.38617H208.491ZM216.252 18.5176H212.976V3.38009H209.155V21.8369H216.252V18.5176Z" fill="white"/>
<path d="M25.1536 54.191H20.655V33.7402H66.4842L71.8536 46.7682V88.1257L66.0489 100.977H25.1536V54.191ZM45.0277 77.6632H52.9884V56.6592H45.0277V77.6632Z" fill="white"/>
<path d="M74.5417 88.9221V46.1603L81.2793 33.7402H114.781V55.413H93.939V60.2642H107.324V76.1555H93.939V80.8244H114.781V100.977H79.5586L74.5417 88.9221Z" fill="white"/>
<path d="M158.108 33.7402L171.742 100.977H154.411L151.509 94.7035H137.191L135.318 100.977H116.612L129.23 33.7767L158.108 33.7402ZM141.102 77.8699H147.045L143.935 66.1308L141.102 77.8699Z" fill="white"/>
<path d="M173.974 54.191H169.268V33.7402H216.079L221.863 46.4095V88.9768L215.436 100.977H173.974V54.191ZM193.717 77.8395H201.678V56.6957H193.717V77.8395Z" fill="white"/>
<path d="M224.143 54.191V33.7402H269.758L275.957 46.8351V73.4806L269.392 86.6363H248.191V100.977H228.849V54.191H224.143ZM257.776 64.6109V56.6775H249.401V64.6109H257.776Z" fill="white"/>
<path d="M278.472 91.4693V44.3365L283.842 33.7402H318.497L323.977 45.1268V91.4693L318.352 100.977H284.249L278.465 91.4693H278.472ZM296.971 77.6571H305.208V56.9024H296.971V77.6571Z" fill="white"/>
<path d="M326.54 91.4693V44.3365L331.91 33.7402H366.565L372.045 45.1268V91.4693L366.42 100.977H332.318L326.534 91.4693H326.54ZM345.039 77.6571H353.277V56.9024H345.039V77.6571Z" fill="white"/>
<path d="M374.844 87.463L374.775 33.7402H392.037V80.5205H416.347V100.977H377.608L374.844 87.463Z" fill="white"/>
<path d="M74.6454 132.395L70.4162 106.534H51.3299L47.4394 132.395L43.1619 106.534H35.3878H25.2435H23.2947V124.595H27.6966L35.526 162.846H56.5472L61.0113 141.423L65.4132 162.846H86.4827L96.1503 106.534H78.6534L74.6454 132.395Z" fill="white"/>
<path d="M106.08 106.534L97.1108 116.4V152.931L106.557 162.852H132.125L141.689 152.809V116.394L132.81 106.534H106.08ZM122.389 144.839H116.902V124.352H122.389V144.839Z" fill="white"/>
<path d="M166.007 106.534H144.758V150.779L148.434 162.846H183.621V141.216H166.007V106.534Z" fill="white"/>
<path d="M203.143 134.328L198.589 106.534H180.691L190.221 162.846H215.961L225.387 106.534H207.337L203.143 134.328Z" fill="white"/>
<path d="M226.838 116.96V152.487L231.378 162.846H265.771V144.621H246.643V139.648H261.521V129.55H246.643V124.419H265.744V106.534H231.372L226.838 116.96Z" fill="white"/>
<path d="M397.102 116.96V152.487L401.642 162.846H435.896V144.621H416.907V139.648H431.577V129.55H416.907V124.419H436V106.534H401.082L397.102 116.96Z" fill="white"/>
<path d="M317.315 133.21V117.981L306.701 106.534H268.825V124.419H272.412V162.852H291.858V143.338L300.786 162.852H322.007L310.612 139.204L317.315 133.21ZM298.028 132.887H292.341V124.364H298.028V132.887Z" fill="white"/>
<path d="M342.842 106.534H323.251V162.852H342.842V106.534Z" fill="white"/>
<path d="M345.917 106.534V124.863H349.469V162.846H369.004V124.699H374.56V162.846H394.158V117.671L385.064 106.534H345.917Z" fill="white"/>
<path d="M20.3993 149.782L21.0282 145.332C21.0558 145.125 21.2562 144.967 21.4912 144.967H28.2978C28.5466 144.967 28.7539 145.137 28.7677 145.356C28.8437 146.608 28.8645 150.736 26.3629 155.278L32.7964 160.652L32.5753 162.694C32.5753 162.694 32.4924 163.023 31.9119 163.023H21.7952C21.7952 163.023 21.3806 162.858 21.0834 162.609C20.7863 162.36 19.888 161.606 19.888 161.606C19.888 161.606 17.6421 163.734 11.4366 163.734C5.23116 163.734 2.34955 160.992 0.946757 157.685C-1.08488 152.907 0.255725 149.192 3.95966 146.292C3.33082 145.648 1.56869 143.01 1.56869 140.414C1.56869 136.918 4.69906 133.137 11.0013 133.137C17.9116 133.137 21.3322 136.45 21.3322 140.724C21.3322 143.544 19.4181 146.219 17.8287 147.441L20.4062 149.782H20.3993ZM12.411 140.274C12.411 140.085 12.1829 139.842 11.6647 139.842C11.1464 139.842 10.4761 140.17 10.4761 140.669C10.4761 141.362 11.2708 141.69 11.2708 141.69C11.9825 141.216 12.411 140.699 12.411 140.268V140.274ZM13.6065 155.806L10.0338 152.56C10.0338 152.56 9.12167 153.095 9.12167 153.867C9.12167 154.639 10.6834 156.311 13.6065 155.806Z" fill="white"/>
<path d="M17.9254 196.592L27.6551 188.574L25.4715 188.373C23.3569 188.574 19.9363 189.06 18.112 189.978L17.5591 185.479C18.9274 184.336 21.8228 183.588 23.3224 183.248H29.6384C31.7184 183.68 33.5427 185.193 33.8053 186.598L33.7086 190.063L26.971 196.361L33.8053 196.507V200.945H17.8908L17.9254 196.592Z" fill="white"/>
<path d="M36.5418 197.304L46.8244 196.331L45.85 194.44L36.5418 194.41L36.3138 183.297H52.2283L52.5185 187.595L42.3327 187.85L42.2014 189.856L48.2203 190.142C49.554 190.543 50.9844 191.346 52.097 192.951L52.7189 197.504C51.5165 199.024 49.6576 200.513 47.5776 200.884L42.0424 200.969C40.3149 200.653 38.5942 200.538 37.0946 199.826L36.5418 197.304Z" fill="white"/>
<path d="M64.0172 183.248H73.6502C78.5013 184.166 81.9495 186.282 82.5715 190.58C82.5715 191.923 82.2467 193.443 81.8873 195.279C80.063 198.373 76.905 199.772 72.7381 200.951H63.5612L64.0172 183.254V183.248ZM69.352 196.045C70.0016 196.075 70.6511 196.045 71.9572 196.015C75.1774 195.96 76.905 194.379 76.9395 191.431C75.8339 188.513 74.2031 187.735 70.7894 187.765C70.2711 187.82 69.815 187.966 69.4557 188.136L69.3589 196.039L69.352 196.045Z" fill="white"/>
<path d="M84.6515 183.272L97.8364 183.218L97.4425 187.826L89.9863 188.142L90.083 189.777L97.4701 190.209V193.99L90.4078 194.337L90.5391 196.027L97.5392 196.598L97.5738 200.896H87.9684L84.6515 200.75V183.285V183.272Z" fill="white"/>
<path d="M107.884 196.276C109.183 196.021 110.551 195.334 111.464 194.185V183.248H117.683V197.078C116.771 198.939 115.015 200.489 112.77 200.945H107.884V196.276Z" fill="white"/>
<path d="M120.938 183.272L126.5 183.303L126.763 193.929L126.728 196.337C128.159 196.191 130.177 196.191 132.492 195.905L132.982 183.248L138.22 183.193L138.448 197.881C137.246 199.626 135.387 200.404 133.21 200.915L124.614 200.969C122.14 200.252 120.35 197.82 120.482 196.246L120.938 183.272Z" fill="white"/>
<path d="M142.028 183.218L147.791 183.333L147.625 195.844L153.713 196.075L154.301 201H141.544L142.035 183.218H142.028Z" fill="white"/>
<path d="M156.705 183.272H162.697L162.047 200.969L156.353 200.915L156.712 183.272H156.705Z" fill="white"/>
<path d="M170.865 200.799C166.732 199.31 164.811 196.045 164.224 192.926C164.058 188.002 167.873 184.592 171.583 183.364L177.478 183.218C182.46 184.561 184.022 188.373 184.54 191.808C184.54 195.528 182.716 199.395 178.355 200.854L174.582 201L170.872 200.799H170.865ZM170.83 190.002C168.909 193.638 171.804 196.215 173.954 196.215C176.621 196.215 178.349 194.981 178.867 192.318C179.095 190.027 175.674 185.473 170.83 189.996V190.002Z" fill="white"/>
<path d="M194.104 195.018C193.814 193.097 193.42 191.437 194.298 189.376C195.597 188.774 198.852 189.06 200.42 189.407C201.166 191.097 200.614 194.246 199.93 195.018H194.104Z" fill="white"/>
<path d="M210.412 196.276H216.694L210.412 188.604V185.485C210.903 184.142 212.492 183.625 213.957 183.254H224.143L224.178 188.179H217.344L224.143 195.51V198.258C223.687 200.033 222.485 200.666 220.889 200.951H210.406V196.282L210.412 196.276Z" fill="white"/>
<path d="M232.18 200.829C228.013 199.255 226.355 196.045 225.152 192.957C225.021 188.063 228.863 184.652 232.539 183.364L238.496 183.193C243.637 184.622 245.171 188.379 245.856 191.783C245.662 195.48 243.776 199.346 239.899 200.86L235.573 201.006L232.187 200.835L232.18 200.829ZM231.6 189.947C229.713 193.613 232.443 196.161 234.854 196.191C237.522 196.161 238.959 194.957 239.968 192.27C239.678 190.039 236.775 185.4 231.6 189.947Z" fill="white"/>
<path d="M248.26 183.218L254.024 183.333L253.858 195.844L259.946 196.075L260.533 201H247.777L248.267 183.218H248.26Z" fill="white"/>
<path d="M267.595 200.799C263.657 199.364 261.963 195.99 261.376 192.896C260.789 188.027 264.534 184.537 268.604 183.358L274.139 183.242C279.606 184.586 280.877 188.428 281.271 191.747C281.464 195.583 279.315 199.334 274.955 200.793L271.507 200.994L267.602 200.793L267.595 200.799ZM268.245 189.948C266.455 193.668 269.123 196.221 271.237 196.221C273.711 196.252 275.826 195.218 276.123 192.325C275.667 189.893 272.806 185.54 268.245 189.948Z" fill="white"/>
<path d="M291.415 183.248H304.662V187.771L297.206 188.118L297.04 189.923L304.655 190.209V193.929L297.365 194.385V196.045L304.655 196.562V200.945H294.698L291.768 200.203L291.408 183.248H291.415Z" fill="white"/>
<path d="M307.627 183.273H314.171L320.874 191.923L321.233 183.188L327.059 183.303L326.409 201L321.268 200.915L313.197 191.066L313.003 200.976L307.696 201.006L307.634 183.279L307.627 183.273Z" fill="white"/>
<path d="M343.07 200.854C339.649 200.021 337.279 197.875 337.279 194.325C337.279 193.005 337.445 189.285 337.673 188.227C339.041 186.251 341.094 184.16 343.858 183.303L349.98 183.248C351.998 183.449 353.919 184.883 355.35 186.026L350.823 188.574C349.683 188.203 348.349 187.716 346.753 187.887C344.148 188.373 342.946 190.58 342.648 192.124C342.973 194.872 344.956 196.191 347.306 196.191C349.096 196.191 350.464 195.474 351.86 194.185L356.58 196.531C353.684 199.31 352.185 199.796 349.517 200.939L343.07 200.854Z" fill="white"/>
<path d="M357.291 183.248H363.476L363.573 200.945L357.616 200.914L357.291 183.248Z" fill="white"/>
<path d="M367.056 183.188H372.881L379.715 191.923L380.662 183.218L385.969 183.303L386.031 201L380.399 200.945L372.294 191.066L371.838 200.945H366.171L367.049 183.194L367.056 183.188Z" fill="white"/>
<path d="M388.83 183.303L402.305 183.188L402.368 187.826L394.911 188.112L394.524 189.917L402.368 190.173L402.499 193.924L394.815 194.355L394.877 196.015L402.492 196.556L401.974 200.939L392.175 200.884L389.017 200.915L388.823 183.303H388.83Z" fill="white"/>
<path d="M404.385 196.276H410.667L404.385 188.604V185.485C404.876 184.142 406.465 183.625 407.93 183.254H418.116L418.151 188.179H411.316L418.116 195.51V198.258C417.66 200.033 416.458 200.666 414.861 200.951H404.378V196.282L404.385 196.276Z" fill="white"/>
</g>
<defs>
<clipPath id="clip0_9773_3043">
<rect width="436" height="201" fill="white"/>
</clipPath>
</defs>
</svg>
