<svg xmlns="http://www.w3.org/2000/svg" width="28" height="30" viewBox="0 0 28 30" fill="none">
<path d="M9.68918 12.3214C5.74187 16.9575 2.6558 21.9605 0.463578 27.1112C0.0721103 28.033 0.561445 29.0309 1.95768 29.3934C3.17123 29.7111 4.91327 29.3039 5.28516 28.3686C7.19683 23.5536 9.85881 18.8325 13.3625 14.456C16.8139 10.1331 21.1722 5.83718 26.9138 2.80763C28.9103 1.75601 26.5288 -0.190599 24.4997 0.749143C18.1971 3.66235 13.4929 7.85986 9.6957 12.3169L9.68918 12.3214Z" fill="#F4C238"/>
<path d="M19.5506 13.5458C15.4002 8.99405 10.3978 4.79724 4.78865 1.08121C3.78816 0.416195 2.29066 0.258927 1.1869 0.94192C0.231602 1.53954 -0.0394977 2.79319 0.986806 3.44922C6.28615 6.83723 11.1272 10.6476 15.1485 14.804C19.1182 18.9109 22.6425 23.5571 23.9141 28.4638C24.3594 30.1713 27.9289 29.6097 27.6513 27.9336C26.78 22.7348 23.5397 17.9224 19.5571 13.5458H19.5506Z" fill="#F4C238"/>
</svg>