<svg viewBox="0 0 1919 14" fill="none" xmlns="http://www.w3.org/2000/svg" preserveAspectRatio="none">
<path d="M1704.87 9.90592C1708.08 13.4287 1703.46 13.9586 1683.37 13.2617C1665.49 12.6382 1647.25 12.2228 1629.08 12.0275C1597.72 11.6872 1566.28 11.6341 1534.91 11.3718C1518.76 11.239 1502.69 10.8436 1486.55 10.6985C1444.02 10.3169 1401.43 9.68654 1358.97 9.75689C1316.63 9.83179 1274.47 10.7595 1232.12 11.089C1198.54 11.3487 1164.84 11.3574 1131.19 11.3192C1084.55 11.266 1037.9 11.1019 991.253 10.9131C970.147 10.8266 949.066 10.5183 927.96 10.3989C840.978 9.91013 753.985 9.38848 666.978 9.02285C629.031 8.86267 591.07 8.99608 553.122 9.10079C508.143 9.22594 463.212 9.61 418.233 9.59757C384.772 9.58664 351.276 9.02525 317.791 8.87255C251.891 8.57706 185.966 8.21578 120.114 8.25312C93.1191 8.26905 66.2684 9.24857 39.37 9.79463C36.6777 9.84882 34.0465 10.0059 31.3789 10.017C18.9508 10.0781 4.75121 10.4901 0.692195 7.68106C-3.79597 4.56244 15.0946 5.50163 22.3269 4.31962C14.1155 0.805958 20.3637 -0.196754 44.284 0.176937C81.6027 0.764094 119.07 1.03554 156.512 1.37466C198.737 1.75319 240.973 2.19747 283.21 2.36043C338.563 2.57364 393.918 2.5548 449.272 2.59962C483.986 2.62523 518.701 2.53584 553.416 2.58404C642.747 2.70526 732.089 2.92921 821.408 2.97852C843.535 2.99064 865.566 2.28782 887.718 2.24459C948.26 2.12901 1008.8 2.1469 1069.36 2.19975C1144.35 2.2685 1219.36 2.39479 1294.38 2.55809C1342.53 2.66381 1390.71 3.00578 1438.85 3.00263C1473.35 2.9967 1507.81 2.34991 1542.29 2.43014C1585.6 2.53526 1628.97 3.002 1672.23 3.47456C1700.2 3.78034 1728.05 4.52722 1756.03 4.81046C1801.09 5.26674 1846.22 5.4604 1891.28 5.88588C1898.29 5.95365 1905.97 6.44887 1911.8 7.12442C1915.78 7.58403 1919.71 8.81353 1918.79 9.50234C1917.89 10.2117 1911.59 10.9144 1906.69 11.2196C1870.75 13.4773 1834.3 11.3633 1798.05 11.0736C1786.81 10.9848 1775.6 10.8016 1764.36 10.6593C1744.95 10.4165 1725.54 10.1696 1704.86 9.90793L1704.87 9.90592Z" fill="white"/>
</svg>
