<?xml version="1.0" encoding="utf-8"?>
<!-- Generator: Adobe Illustrator 18.0.0, SVG Export Plug-In . SVG Version: 6.00 Build 0)  -->
<!DOCTYPE svg PUBLIC "-//W3C//DTD SVG 1.1//EN" "http://www.w3.org/Graphics/SVG/1.1/DTD/svg11.dtd">
<svg version="1.1" id="Capa_1" xmlns="http://www.w3.org/2000/svg" xmlns:xlink="http://www.w3.org/1999/xlink" x="0px" y="0px"
	 viewBox="0 0 431.1 139.6" enable-background="new 0 0 431.1 139.6" xml:space="preserve">
<g>
	<path fill="#FFFFFF" d="M102.4,57.5V25.1c0-0.8-0.4-1.2-1.1-1.2h-2.1v-6.2h6.3c1.2,0,2,0.3,2.6,0.9c0.5,0.6,0.8,1.6,0.8,2.9v13.1
		h15.4V21.5c0-2.5,1.1-3.8,3.3-3.8h6.3v6.2h-2.1c-0.7,0-1.1,0.4-1.1,1.2v32.4h-6.4V40.8h-15.4v16.7H102.4z"/>
	<path fill="#FFFFFF" d="M136.6,49.3c0-1.4,0.3-2.7,0.8-3.8c0.5-1.1,1.3-2,2.2-2.7c0.9-0.7,1.9-1.2,2.9-1.7c1-0.5,2.1-0.8,3.4-1
		c1.2-0.2,2.3-0.3,3.1-0.4c0.8-0.1,1.7-0.1,2.5-0.1h0.8v-0.2c0-2-0.4-3.5-1.1-4.3c-0.7-0.9-1.9-1.3-3.5-1.3c-0.8,0-1.5,0.1-2.3,0.4
		c-0.7,0.3-1.1,0.8-1.1,1.5v1.5h-5.8v-3c0-1.2,0.3-2.3,1-3.1c0.7-0.9,1.6-1.5,2.7-1.8c1.1-0.4,2.1-0.6,2.9-0.7
		c0.9-0.1,1.7-0.2,2.6-0.2c7.2,0,10.8,3.8,10.8,11.4v10.7c0,0.8,0.4,1.2,1.1,1.2h2v6H156c-1.1,0-1.9-0.3-2.4-0.9
		c-0.5-0.6-0.8-1.3-0.8-2.3l0-1.2h-0.1c-0.1,0.1-0.1,0.3-0.2,0.6s-0.4,0.6-0.8,1.2c-0.4,0.6-0.9,1.1-1.4,1.5
		c-0.5,0.4-1.2,0.9-2.2,1.2c-0.9,0.4-1.9,0.5-2.9,0.5c-2.4,0-4.4-0.8-6-2.4C137.5,54.2,136.6,52,136.6,49.3z M142.9,48.9
		c0,1,0.3,1.9,1,2.6c0.7,0.7,1.6,1.1,2.8,1.1c1.6,0,3-0.8,4.1-2.4c1.1-1.6,1.6-3.3,1.6-5.1v-0.7h-1.1
		C145.7,44.4,142.9,45.9,142.9,48.9z"/>
	<path fill="#FFFFFF" d="M163.8,57.5v-3.8l11.5-16.1c0.3-0.5,0.7-0.9,1-1.4c0.4-0.4,0.6-0.7,0.8-0.9l0.2-0.3v-0.1
		c-0.5,0.1-1.3,0.1-2.3,0.1h-4.5c-0.7,0-1.1,0.4-1.1,1.2v1.6h-5.6v-5.1c0-1.3,0.3-2.3,0.8-2.9c0.5-0.6,1.4-0.9,2.6-0.9h18.4v3.9
		l-11.5,16.1l-2.1,2.6v0.1c0.5-0.1,1.3-0.2,2.4-0.2h5.5c0.7,0,1.1-0.4,1.1-1.2v-1.6h5.6v5c0,1.3-0.3,2.3-0.8,2.9
		c-0.5,0.6-1.4,0.9-2.5,0.9H163.8z"/>
	<path fill="#FFFFFF" d="M202.2,43.2c0-4.2,1.2-7.7,3.7-10.6c2.5-2.9,5.8-4.3,10-4.3c1.3,0,2.6,0.2,3.8,0.5c1.3,0.4,2.5,1,3.6,2.1
		c1.1,1,1.7,2.3,1.7,3.8V38h-5.5v-1.6c0-0.7-0.4-1.3-1.1-1.7s-1.6-0.6-2.5-0.6c-2.2,0-3.9,0.8-5.3,2.5c-1.4,1.7-2.1,3.8-2.1,6.4
		c0,2.8,0.8,4.9,2.3,6.5c1.5,1.6,3.4,2.3,5.5,2.3c1.3,0,2.5-0.3,3.8-1c1.2-0.7,2.2-1.3,2.8-1.9l0.9-1l2.6,4.9
		c-0.1,0.1-0.2,0.3-0.4,0.6c-0.2,0.2-0.6,0.6-1.3,1.2c-0.7,0.6-1.4,1.1-2.1,1.6s-1.7,0.9-2.9,1.2c-1.2,0.4-2.5,0.6-3.7,0.6
		c-4,0-7.3-1.4-9.8-4.3C203.4,51,202.2,47.5,202.2,43.2z"/>
	<path fill="#FFFFFF" d="M230.8,53.7V25c0-0.8-0.4-1.2-1.1-1.2h-2v-6.1h5.9c2.2,0,3.3,1.3,3.3,3.8v28.8c0,0.8,0.4,1.2,1.1,1.2h1.9v6
		h-5.9c-1.2,0-2-0.3-2.6-0.9C231,56,230.8,55,230.8,53.7z"/>
	<path fill="#FFFFFF" d="M245.4,53.7V36.2c0-0.8-0.4-1.2-1.1-1.2h-2v-6.1h5.9c1.1,0,2,0.3,2.5,0.9c0.5,0.6,0.8,1.6,0.8,2.9v17.6
		c0,0.8,0.4,1.2,1.1,1.2h2v6h-5.9c-1.1,0-2-0.3-2.5-0.9C245.7,56,245.4,55,245.4,53.7z M245.7,24.2v-6.6h5.4v6.6H245.7z"/>
	<path fill="#FFFFFF" d="M257.4,43.2c0-4.2,1.2-7.7,3.7-10.6c2.5-2.9,5.8-4.3,10-4.3c1.3,0,2.6,0.2,3.8,0.5c1.3,0.4,2.5,1,3.6,2.1
		c1.1,1,1.7,2.3,1.7,3.8V38h-5.5v-1.6c0-0.7-0.4-1.3-1.1-1.7s-1.6-0.6-2.5-0.6c-2.2,0-3.9,0.8-5.3,2.5c-1.4,1.7-2.1,3.8-2.1,6.4
		c0,2.8,0.8,4.9,2.3,6.5c1.5,1.6,3.4,2.3,5.5,2.3c1.3,0,2.5-0.3,3.8-1c1.2-0.7,2.2-1.3,2.8-1.9l0.9-1l2.6,4.9
		c-0.1,0.1-0.2,0.3-0.4,0.6c-0.2,0.2-0.6,0.6-1.3,1.2c-0.7,0.6-1.4,1.1-2.1,1.6s-1.7,0.9-2.9,1.2c-1.2,0.4-2.5,0.6-3.7,0.6
		c-4,0-7.3-1.4-9.8-4.3C258.6,51,257.4,47.5,257.4,43.2z"/>
	<path fill="#FFFFFF" d="M299.3,68.7V36.2c0-0.8-0.4-1.2-1.1-1.2h-2v-6.1h5.5c2.1,0,3.1,0.9,3.1,2.7v1.1h0.1
		c0.1-0.1,0.2-0.3,0.3-0.5c0.1-0.2,0.4-0.6,0.9-1.1c0.5-0.5,1-1,1.5-1.4s1.3-0.8,2.3-1.1c1-0.3,2-0.5,3.1-0.5c3.4,0,6.1,1.4,8.1,4.2
		c2,2.8,3,6.4,3,10.8c0,4.5-1.1,8.1-3.2,10.9s-4.9,4.1-8.2,4.1c-1.5,0-2.8-0.3-4-1c-1.2-0.6-2-1.3-2.5-1.9l-0.7-1h-0.1
		c0.1,0.7,0.1,1.5,0.1,2.5v11.8H299.3z M305.4,43.4c0,2.4,0.5,4.5,1.6,6.2s2.6,2.6,4.6,2.6c1.8,0,3.3-0.8,4.5-2.4
		c1.2-1.6,1.8-3.7,1.8-6.5c0-2.7-0.6-4.9-1.7-6.5c-1.1-1.6-2.7-2.5-4.5-2.5c-1.8,0-3.3,0.8-4.5,2.3C306,38.1,305.4,40.4,305.4,43.4z
		"/>
	<path fill="#FFFFFF" d="M327.1,49.3c0-1.4,0.3-2.7,0.8-3.8c0.5-1.1,1.3-2,2.2-2.7c0.9-0.7,1.9-1.2,2.9-1.7c1-0.5,2.1-0.8,3.4-1
		c1.2-0.2,2.3-0.3,3.1-0.4c0.8-0.1,1.7-0.1,2.5-0.1h0.8v-0.2c0-2-0.4-3.5-1.1-4.3c-0.7-0.9-1.9-1.3-3.5-1.3c-0.8,0-1.5,0.1-2.3,0.4
		c-0.7,0.3-1.1,0.8-1.1,1.5v1.5H329v-3c0-1.2,0.3-2.3,1-3.1c0.7-0.9,1.6-1.5,2.7-1.8c1.1-0.4,2.1-0.6,2.9-0.7
		c0.9-0.1,1.7-0.2,2.6-0.2c7.2,0,10.8,3.8,10.8,11.4v10.7c0,0.8,0.4,1.2,1.1,1.2h2v6h-5.6c-1.1,0-1.9-0.3-2.4-0.9
		c-0.5-0.6-0.8-1.3-0.8-2.3l0-1.2h-0.1c-0.1,0.1-0.1,0.3-0.2,0.6s-0.4,0.6-0.8,1.2c-0.4,0.6-0.9,1.1-1.4,1.5
		c-0.5,0.4-1.2,0.9-2.2,1.2c-0.9,0.4-1.9,0.5-2.9,0.5c-2.4,0-4.4-0.8-6-2.4C327.9,54.2,327.1,52,327.1,49.3z M333.4,48.9
		c0,1,0.3,1.9,1,2.6c0.7,0.7,1.6,1.1,2.8,1.1c1.6,0,3-0.8,4.1-2.4c1.1-1.6,1.6-3.3,1.6-5.1v-0.7h-1.1
		C336.2,44.4,333.4,45.9,333.4,48.9z"/>
	<path fill="#FFFFFF" d="M357.1,57.5V36.2c0-0.8-0.4-1.2-1.1-1.2h-2v-6.1h5.7c2.2,0,3.3,1.2,3.3,3.5v1.7l-0.1,1.8h0.1
		c0.6-2.1,1.6-3.9,3-5.3c1.4-1.4,3.1-2.1,4.9-2.1l1.1,0.1v7c-0.4-0.1-0.9-0.1-1.5-0.1c-1.5,0-2.8,0.5-4.1,1.5
		c-1.3,1-2.2,2.5-2.7,4.5c-0.4,1.5-0.5,3-0.5,4.7v11.3H357.1z"/>
	<path fill="#FFFFFF" d="M373.4,49.3c0-1.4,0.3-2.7,0.8-3.8c0.5-1.1,1.3-2,2.2-2.7c0.9-0.7,1.9-1.2,2.9-1.7c1-0.5,2.1-0.8,3.4-1
		c1.2-0.2,2.3-0.3,3.1-0.4c0.8-0.1,1.7-0.1,2.5-0.1h0.8v-0.2c0-2-0.4-3.5-1.1-4.3c-0.7-0.9-1.9-1.3-3.5-1.3c-0.8,0-1.5,0.1-2.3,0.4
		c-0.7,0.3-1.1,0.8-1.1,1.5v1.5h-5.8v-3c0-1.2,0.3-2.3,1-3.1c0.7-0.9,1.6-1.5,2.7-1.8c1.1-0.4,2.1-0.6,2.9-0.7
		c0.9-0.1,1.7-0.2,2.6-0.2c7.2,0,10.8,3.8,10.8,11.4v10.7c0,0.8,0.4,1.2,1.1,1.2h2v6h-5.6c-1.1,0-1.9-0.3-2.4-0.9
		c-0.5-0.6-0.8-1.3-0.8-2.3l0-1.2h-0.1c-0.1,0.1-0.1,0.3-0.2,0.6s-0.4,0.6-0.8,1.2c-0.4,0.6-0.9,1.1-1.4,1.5
		c-0.5,0.4-1.2,0.9-2.2,1.2c-0.9,0.4-1.9,0.5-2.9,0.5c-2.4,0-4.4-0.8-6-2.4C374.2,54.2,373.4,52,373.4,49.3z M379.6,48.9
		c0,1,0.3,1.9,1,2.6c0.7,0.7,1.6,1.1,2.8,1.1c1.6,0,3-0.8,4.1-2.4c1.1-1.6,1.6-3.3,1.6-5.1v-0.7H388
		C382.4,44.4,379.6,45.9,379.6,48.9z"/>
	<path fill="#FFFFFF" d="M16.3,124.8v-21.3c0-0.8-0.4-1.2-1.1-1.2h-2v-6.1H19c2.2,0,3.3,1.1,3.3,3.2v0.8l0,1.2h0.1
		c0.7-1.6,1.7-3,3.2-4.2c1.5-1.2,3.1-1.8,4.9-1.8c3.8,0,6.2,2,7.3,5.9h0.1c0.7-1.6,1.8-3,3.4-4.2c1.5-1.1,3.3-1.7,5.2-1.7
		c5.5,0,8.2,3.6,8.2,10.9v11.2c0,0.8,0.4,1.2,1.1,1.2h1.9v6h-5.9c-1.2,0-2-0.3-2.6-0.9c-0.5-0.6-0.8-1.6-0.8-2.9v-13.2
		c0-1.9-0.2-3.3-0.7-4.3c-0.5-1-1.4-1.5-2.7-1.5c-1.5,0-2.7,0.6-3.8,1.9c-1.1,1.3-1.8,2.8-2.2,4.7c-0.3,1-0.4,2.2-0.4,3.6v12.6h-6.2
		v-17.1c0-1.8-0.2-3.2-0.7-4.2c-0.4-1-1.4-1.5-2.7-1.5c-1.5,0-2.8,0.6-3.8,1.9c-1,1.2-1.8,2.8-2.2,4.8c-0.3,1.2-0.4,2.4-0.4,3.6
		v12.6H16.3z"/>
	<path fill="#FFFFFF" d="M60.1,116.6c0-1.4,0.3-2.7,0.8-3.8c0.5-1.1,1.3-2,2.2-2.7c0.9-0.7,1.9-1.2,2.9-1.7c1-0.5,2.1-0.8,3.4-1
		c1.2-0.2,2.3-0.3,3.1-0.4c0.8-0.1,1.7-0.1,2.5-0.1h0.8v-0.2c0-2-0.4-3.5-1.1-4.3c-0.7-0.9-1.9-1.3-3.5-1.3c-0.8,0-1.5,0.1-2.3,0.4
		c-0.7,0.3-1.1,0.8-1.1,1.5v1.5h-5.8v-3c0-1.2,0.3-2.3,1-3.1c0.7-0.9,1.6-1.5,2.7-1.8c1.1-0.4,2.1-0.6,2.9-0.7
		c0.9-0.1,1.7-0.2,2.6-0.2c7.2,0,10.8,3.8,10.8,11.4v10.7c0,0.8,0.4,1.2,1.1,1.2h2v6h-5.6c-1.1,0-1.9-0.3-2.4-0.9
		c-0.5-0.6-0.8-1.3-0.8-2.3l0-1.2h-0.1c-0.1,0.1-0.1,0.3-0.2,0.6s-0.4,0.6-0.8,1.2c-0.4,0.6-0.9,1.1-1.4,1.5
		c-0.5,0.4-1.2,0.9-2.2,1.2c-0.9,0.4-1.9,0.5-2.9,0.5c-2.4,0-4.4-0.8-6-2.4C61,121.5,60.1,119.3,60.1,116.6z M66.4,116.3
		c0,1,0.3,1.9,1,2.6c0.7,0.7,1.6,1.1,2.8,1.1c1.6,0,3-0.8,4.1-2.4c1.1-1.6,1.6-3.3,1.6-5.1v-0.7h-1.1
		C69.2,111.8,66.4,113.3,66.4,116.3z M69.4,92.7l3.7-7.6h6L74,92.7H69.4z"/>
	<path fill="#FFFFFF" d="M87.2,120.4l2.9-4.7c0.2,0.3,0.6,0.7,1,1.1c0.4,0.5,1.3,1.1,2.6,1.9c1.3,0.8,2.6,1.2,3.9,1.2
		c1,0,1.8-0.2,2.5-0.7c0.6-0.5,0.9-1.2,0.9-2.1c0-0.7-0.5-1.4-1.4-2c-0.9-0.6-2-1.2-3.3-1.8c-1.3-0.6-2.6-1.2-3.9-1.9
		s-2.4-1.7-3.3-3c-0.9-1.3-1.4-2.8-1.4-4.5c0-2.7,0.9-4.8,2.8-6.2c1.8-1.4,4.2-2.1,6.9-2.1c0.9,0,1.9,0.1,2.8,0.3
		c0.9,0.2,1.9,0.5,2.8,0.9c0.9,0.4,1.7,1.1,2.3,1.9c0.6,0.8,0.9,1.8,0.9,2.9v3h-5.5v-1.4c0-0.6-0.3-1.1-1-1.5
		c-0.7-0.4-1.4-0.5-2.2-0.5c-1.1,0-2.1,0.2-2.7,0.7c-0.7,0.4-1,1.1-1,1.9c0,0.8,0.5,1.5,1.4,2.2c0.9,0.6,2,1.2,3.3,1.7
		c1.3,0.5,2.6,1.1,3.9,1.8c1.3,0.7,2.4,1.6,3.3,2.9c0.9,1.3,1.4,2.8,1.4,4.5c0,2.7-0.9,4.8-2.7,6.4c-1.8,1.6-4.1,2.4-6.9,2.4
		c-2,0-3.9-0.4-5.6-1.3c-1.7-0.9-3-1.7-3.7-2.5L87.2,120.4z"/>
	<path fill="#FFFFFF" d="M126.3,121v-17.5c0-0.8-0.4-1.2-1.1-1.2h-2v-6.1h5.9c1.1,0,2,0.3,2.5,0.9c0.5,0.6,0.8,1.6,0.8,2.9v17.6
		c0,0.8,0.4,1.2,1.1,1.2h2v6h-5.9c-1.1,0-2-0.3-2.5-0.9C126.5,123.3,126.3,122.4,126.3,121z M126.6,91.6V85h5.4v6.6H126.6z"/>
	<path fill="#FFFFFF" d="M140.8,124.8v-21.3c0-0.8-0.4-1.2-1.1-1.2h-2v-6.1h5.7c2.2,0,3.3,1.1,3.3,3.2v0.8l-0.1,1.2h0.1
		c0.7-1.6,1.8-3,3.2-4.2c1.5-1.2,3.3-1.8,5.6-1.8c5.8,0,8.7,3.6,8.7,10.9v11.2c0,0.8,0.4,1.2,1.1,1.2h2v6h-5.9c-1.2,0-2-0.3-2.6-0.9
		c-0.5-0.6-0.8-1.6-0.8-2.9v-13.1c0-1.9-0.3-3.4-0.9-4.3c-0.6-1-1.6-1.5-3.1-1.5c-1.6,0-3.1,0.5-4.2,1.6c-1.2,1.1-2,2.5-2.5,4.2
		c-0.3,1.1-0.5,2.4-0.5,3.8v13.1H140.8z"/>
	<path fill="#FFFFFF" d="M172.3,124.8v-22.9h-3.1v-5.7h3.1v-0.8c0-1.8,0.2-3.4,0.7-4.7c0.5-1.3,1.1-2.4,1.8-3.1
		c0.7-0.7,1.6-1.3,2.6-1.8c1-0.4,1.9-0.7,2.7-0.9c0.8-0.1,1.6-0.2,2.4-0.2l2.1,0.2V91c-0.4-0.1-0.8-0.1-1.3-0.1
		c-3.2,0-4.8,1.6-4.8,4.7v0.7h5.4v5.7h-5.4v22.9H172.3z"/>
	<path fill="#FFFFFF" d="M189.6,121.3c-2.6-2.8-4-6.4-4-10.7c0-4.3,1.3-7.9,4-10.7c2.6-2.8,5.9-4.2,9.7-4.2s7.1,1.4,9.8,4.2
		c2.7,2.8,4,6.4,4,10.7c0,4.3-1.3,7.9-4,10.7c-2.6,2.8-5.9,4.2-9.8,4.2C195.5,125.5,192.3,124.1,189.6,121.3z M192,110.5
		c0,2.6,0.7,4.8,2.2,6.4c1.4,1.7,3.2,2.5,5.3,2.5c2.1,0,3.9-0.8,5.3-2.5c1.4-1.7,2.2-3.8,2.2-6.4c0-2.6-0.7-4.7-2.2-6.4
		c-1.5-1.7-3.2-2.5-5.3-2.5c-2.1,0-3.8,0.8-5.3,2.5C192.7,105.8,192,107.9,192,110.5z"/>
	<path fill="#FFFFFF" d="M218.8,124.8v-21.3c0-0.8-0.4-1.2-1.1-1.2h-2v-6.1h5.7c2.2,0,3.3,1.2,3.3,3.5v1.7l-0.1,1.8h0.1
		c0.6-2.1,1.6-3.9,3-5.3c1.4-1.4,3.1-2.1,4.9-2.1l1.1,0.1v7c-0.4-0.1-0.9-0.1-1.5-0.1c-1.5,0-2.8,0.5-4.1,1.5
		c-1.3,1-2.2,2.5-2.7,4.5c-0.4,1.5-0.5,3-0.5,4.7v11.3H218.8z"/>
	<path fill="#FFFFFF" d="M239.3,124.8v-21.3c0-0.8-0.4-1.2-1.1-1.2h-2v-6.1h5.7c2.2,0,3.3,1.1,3.3,3.2v0.8l0,1.2h0.1
		c0.7-1.6,1.7-3,3.2-4.2c1.5-1.2,3.1-1.8,4.9-1.8c3.8,0,6.2,2,7.3,5.9h0.1c0.7-1.6,1.8-3,3.4-4.2c1.5-1.1,3.3-1.7,5.2-1.7
		c5.5,0,8.2,3.6,8.2,10.9v11.2c0,0.8,0.4,1.2,1.1,1.2h1.9v6h-5.9c-1.2,0-2-0.3-2.6-0.9c-0.5-0.6-0.8-1.6-0.8-2.9v-13.2
		c0-1.9-0.2-3.3-0.7-4.3c-0.5-1-1.4-1.5-2.7-1.5c-1.5,0-2.7,0.6-3.8,1.9c-1.1,1.3-1.8,2.8-2.2,4.7c-0.3,1-0.4,2.2-0.4,3.6v12.6h-6.2
		v-17.1c0-1.8-0.2-3.2-0.7-4.2c-0.4-1-1.4-1.5-2.7-1.5c-1.5,0-2.8,0.6-3.8,1.9c-1,1.2-1.8,2.8-2.2,4.8c-0.3,1.2-0.4,2.4-0.4,3.6
		v12.6H239.3z"/>
	<path fill="#FFFFFF" d="M283.1,116.6c0-1.4,0.3-2.7,0.8-3.8c0.5-1.1,1.3-2,2.2-2.7c0.9-0.7,1.9-1.2,2.9-1.7c1-0.5,2.1-0.8,3.4-1
		c1.2-0.2,2.3-0.3,3.1-0.4c0.8-0.1,1.7-0.1,2.5-0.1h0.8v-0.2c0-2-0.4-3.5-1.1-4.3c-0.7-0.9-1.9-1.3-3.5-1.3c-0.8,0-1.5,0.1-2.3,0.4
		c-0.7,0.3-1.1,0.8-1.1,1.5v1.5H285v-3c0-1.2,0.3-2.3,1-3.1c0.7-0.9,1.6-1.5,2.7-1.8c1.1-0.4,2.1-0.6,2.9-0.7
		c0.9-0.1,1.7-0.2,2.6-0.2c7.2,0,10.8,3.8,10.8,11.4v10.7c0,0.8,0.4,1.2,1.1,1.2h2v6h-5.6c-1.1,0-1.9-0.3-2.4-0.9
		c-0.5-0.6-0.8-1.3-0.8-2.3l0-1.2h-0.1c-0.1,0.1-0.1,0.3-0.2,0.6s-0.4,0.6-0.8,1.2c-0.4,0.6-0.9,1.1-1.4,1.5
		c-0.5,0.4-1.2,0.9-2.2,1.2c-0.9,0.4-1.9,0.5-2.9,0.5c-2.4,0-4.4-0.8-6-2.4C284,121.5,283.1,119.3,283.1,116.6z M289.4,116.3
		c0,1,0.3,1.9,1,2.6c0.7,0.7,1.6,1.1,2.8,1.1c1.6,0,3-0.8,4.1-2.4c1.1-1.6,1.6-3.3,1.6-5.1v-0.7h-1.1
		C292.2,111.8,289.4,113.3,289.4,116.3z"/>
	<path fill="#FFFFFF" d="M310.6,110.5c0-4.2,1.2-7.7,3.7-10.6c2.5-2.9,5.8-4.3,10-4.3c1.3,0,2.6,0.2,3.8,0.5c1.3,0.4,2.5,1,3.6,2.1
		c1.1,1,1.7,2.3,1.7,3.8v3.4h-5.5v-1.6c0-0.7-0.4-1.3-1.1-1.7s-1.6-0.6-2.5-0.6c-2.2,0-3.9,0.8-5.3,2.5c-1.4,1.7-2.1,3.8-2.1,6.4
		c0,2.8,0.8,4.9,2.3,6.5c1.5,1.6,3.4,2.3,5.5,2.3c1.3,0,2.5-0.3,3.8-1c1.2-0.7,2.2-1.3,2.8-1.9l0.9-1l2.6,4.9
		c-0.1,0.1-0.2,0.3-0.4,0.6c-0.2,0.2-0.6,0.6-1.3,1.2c-0.7,0.6-1.4,1.1-2.1,1.6s-1.7,0.9-2.9,1.2c-1.2,0.4-2.5,0.6-3.7,0.6
		c-4,0-7.3-1.4-9.8-4.3C311.8,118.4,310.6,114.8,310.6,110.5z"/>
	<path fill="#FFFFFF" d="M339.7,121v-17.5c0-0.8-0.4-1.2-1.1-1.2h-2v-6.1h5.9c1.1,0,2,0.3,2.5,0.9c0.5,0.6,0.8,1.6,0.8,2.9v17.6
		c0,0.8,0.4,1.2,1.1,1.2h2v6H343c-1.1,0-2-0.3-2.5-0.9C339.9,123.3,339.7,122.4,339.7,121z M340,91.6V85h5.4v6.6H340z"/>
	<path fill="#FFFFFF" d="M355.6,121.3c-2.6-2.8-4-6.4-4-10.7c0-4.3,1.3-7.9,4-10.7c2.6-2.8,5.9-4.2,9.7-4.2s7.1,1.4,9.8,4.2
		c2.7,2.8,4,6.4,4,10.7c0,4.3-1.3,7.9-4,10.7c-2.6,2.8-5.9,4.2-9.8,4.2C361.5,125.5,358.2,124.1,355.6,121.3z M357.9,110.5
		c0,2.6,0.7,4.8,2.2,6.4c1.4,1.7,3.2,2.5,5.3,2.5c2.1,0,3.9-0.8,5.3-2.5c1.4-1.7,2.2-3.8,2.2-6.4c0-2.6-0.7-4.7-2.2-6.4
		c-1.5-1.7-3.2-2.5-5.3-2.5c-2.1,0-3.8,0.8-5.3,2.5C358.7,105.8,357.9,107.9,357.9,110.5z M363,92.7l3.7-7.6h6l-5.2,7.6H363z"/>
	<path fill="#FFFFFF" d="M384.7,124.8v-21.3c0-0.8-0.4-1.2-1.1-1.2h-2v-6.1h5.7c2.2,0,3.3,1.1,3.3,3.2v0.8l-0.1,1.2h0.1
		c0.7-1.6,1.8-3,3.2-4.2c1.5-1.2,3.3-1.8,5.6-1.8c5.8,0,8.7,3.6,8.7,10.9v11.2c0,0.8,0.4,1.2,1.1,1.2h2v6h-5.9c-1.2,0-2-0.3-2.6-0.9
		c-0.5-0.6-0.8-1.6-0.8-2.9v-13.1c0-1.9-0.3-3.4-0.9-4.3c-0.6-1-1.6-1.5-3.1-1.5c-1.6,0-3.1,0.5-4.2,1.6c-1.2,1.1-2,2.5-2.5,4.2
		c-0.3,1.1-0.5,2.4-0.5,3.8v13.1H384.7z"/>
</g>
</svg>
