<?xml version="1.0" encoding="utf-8"?>
<!-- Generator: Adobe Illustrator 18.0.0, SVG Export Plug-In . SVG Version: 6.00 Build 0)  -->
<!DOCTYPE svg PUBLIC "-//W3C//DTD SVG 1.1//EN" "http://www.w3.org/Graphics/SVG/1.1/DTD/svg11.dtd">
<svg version="1.1"
	 id="layer1" xmlns:inkscape="http://www.inkscape.org/namespaces/inkscape" xmlns:sodipodi="http://sodipodi.sourceforge.net/DTD/sodipodi-0.dtd" xmlns:svg="http://www.w3.org/2000/svg" xmlns:rdf="http://www.w3.org/1999/02/22-rdf-syntax-ns#" xmlns:cc="http://creativecommons.org/ns#" xmlns:dc="http://purl.org/dc/elements/1.1/" sodipodi:docname="Mute_Icon.svg" inkscape:version="0.48.3.1 r9886"
	 xmlns="http://www.w3.org/2000/svg" xmlns:xlink="http://www.w3.org/1999/xlink" x="0px" y="0px" viewBox="0 0 920 700"
	 enable-background="new 0 0 920 700" xml:space="preserve">
<path fill="#FFFFFF" d="M536,362.8c0,64.9-0.7,130,0.4,195c0.5,32-33.8,56.4-65.1,38.1c-46.9-27.3-94.1-53.9-141-81.4
	c-11.4-6.6-23.8-6.3-35.9-8.1c-26.8-3.9-53.7-6.3-80.3-10.9c-29.2-5.1-51.8-33.1-51.8-62.7c-0.2-46.7-0.2-93.6,0-140.3
	c0.2-32.7,27.1-61.1,59.5-64.4c32.4-3.5,64.6-8.1,97-12.3c3.1-0.3,6.3-2.1,9.1-3.8c47.8-27.5,95.5-55.1,143.5-82.4
	c26.3-14.9,56.7-2.6,63.9,25.9c0.9,3.5,1,7.5,1,11.2C536,231.9,536,297.3,536,362.8z M493,558.8c0-131.3,0-261.4,0-392.5
	c-3.3,1.8-6,3.3-8.6,4.7c-47.3,27.1-94.5,54.4-141.8,81.6c-3.1,1.9-6.6,3.8-10.3,4.4c-35.2,4.7-70.4,9.3-105.5,13.7
	c-10.9,1.4-18.6,7.2-21.2,18c-1.1,4-1.2,8.4-1.2,12.4c-0.2,40.9,0,82.1,0,123c0,2.6,0,5.4,0.4,8.1c1.4,11.7,9.3,20.8,19.6,22.2
	c28.5,3.7,57.2,7,85.7,11c12.3,1.8,24.7,2.1,36.2,8.9c43,25.6,86.6,50.2,130,75.1C481.6,552.5,487,555.5,493,558.8z"/>
<path fill="#FFFFFF" d="M675.3,350l89.6-89.5c4.7-4.7,4.7-12.3,0-17c-4.7-4.7-12.3-4.7-17,0L658.3,333l-89.6-89.5
	c-4.7-4.7-12.3-4.7-17,0c-4.7,4.7-4.7,12.3,0,17l89.6,89.5l-89.6,89.5c-4.7,4.7-4.7,12.3,0,17c2.3,2.3,5.4,3.5,8.5,3.5
	c3.1,0,6.1-1.2,8.5-3.5l89.6-89.5l89.6,89.5c2.3,2.3,5.4,3.5,8.5,3.5c3.1,0,6.1-1.2,8.5-3.5c4.7-4.7,4.7-12.3,0-17L675.3,350z"/>
</svg>
