<?xml version="1.0" encoding="utf-8"?>
<!-- Generator: Adobe Illustrator 18.0.0, SVG Export Plug-In . SVG Version: 6.00 Build 0)  -->
<!DOCTYPE svg PUBLIC "-//W3C//DTD SVG 1.1//EN" "http://www.w3.org/Graphics/SVG/1.1/DTD/svg11.dtd">
<svg version="1.1" id="Capa_1" xmlns="http://www.w3.org/2000/svg" xmlns:xlink="http://www.w3.org/1999/xlink" x="0px" y="0px"
	 viewBox="0 254.6 920 183" enable-background="new 0 254.6 920 183" xml:space="preserve">
<path opacity="0.8" fill="#FFFFFF" enable-background="new    " d="M902.7,314.6H17.3C7.9,314.6,0,307,0,297.3l0,0
	c0-9.4,7.6-17.3,17.3-17.3h885.5c9.4,0,17.3,7.6,17.3,17.3l0,0C920,307,912.4,314.6,902.7,314.6z"/>
<g>
	<g>
		<g>
			<path d="M167.2,290.9l-2.7,2.5c-1-1.2-2-2-3-2c-0.5,0-1,0.2-1.2,0.5s-0.5,0.5-0.5,1c0,0.2,0,0.7,0.2,1c0.2,0.5,1.2,1.2,2.7,2.5
				s2.2,2,2.5,2.2c0.7,0.7,1.2,1.5,1.7,2.2c0.5,0.2,0.7,1.2,0.7,2c0,1.7-0.5,3-1.7,3.9c-1,1-2.5,1.5-4.4,1.5c-1.5,0-2.7-0.2-3.7-1
				c-1-0.7-2-1.7-2.7-3.2l3.2-2c1,1.7,2,2.7,3.2,2.7c0.7,0,1.2-0.2,1.7-0.5c0.5-0.2,0.7-0.7,0.7-1.2c0-0.5-0.2-1-0.5-1.2
				c-0.2-0.5-1-1.2-2.2-2c-2.2-1.7-3.5-3-4.2-3.9s-1-2-1-2.7c0-1.5,0.5-2.5,1.5-3.5c1-1,2.2-1.5,3.9-1.5c1,0,2,0.2,2.7,0.7
				C165.3,289,166.2,289.7,167.2,290.9z"/>
			<path d="M171.2,288.2h10.6v3.7h-6.9v3.5h6.9v3.7h-6.9v5.2h6.9v3.7h-10.6V288.2z"/>
			<path d="M185.5,288.2h4.4c3,0,4.9,0.2,6.4,1c1.5,0.7,2.5,2,3.5,3.5c1,1.5,1.2,3.5,1.2,5.7c0,1.5-0.2,3-0.7,4.2
				c-0.5,1.2-1.2,2.2-2,3.2c-1,0.7-1.7,1.5-3,1.7c-1.2,0.2-3,0.2-5.4,0.2h-4.4V288.2z M189.2,291.9v12.3h1.7c1.7,0,3-0.2,3.7-0.5
				c0.7-0.5,1.5-1,2-2c0.5-1,0.7-2,0.7-3.5c0-2-0.5-3.7-1.7-4.9c-1-1-2.7-1.5-4.9-1.5H189.2z"/>
			<path d="M204.5,288.2h10.6v3.7h-6.9v3.5h6.9v3.7h-6.9v5.2h6.9v3.7h-10.6V288.2z"/>
		</g>
	</g>
</g>
<g>
	<g>
		<g>
			<path d="M344.2,288.2h3.9c2.2,0,3.7,0.2,4.7,0.5c1,0.5,1.7,1,2.2,2c0.5,1,0.7,2,0.7,3.2s-0.2,2.5-1,3.2c-0.5,1-1.5,1.5-2.7,2
				l4.7,8.6h-4.2l-4.4-8.4h-0.2v8.4h-3.7L344.2,288.2L344.2,288.2z M347.9,295.9h1.2c1.2,0,2-0.2,2.5-0.5c0.5-0.2,0.7-0.7,0.7-1.5
				c0-0.5,0-0.7-0.2-1.2c-0.2-0.2-0.5-0.5-1-0.7s-1-0.2-2-0.2h-1v4.2H347.9z"/>
			<path d="M359.7,288.2h10.6v3.7h-6.9v3.5h6.9v3.7h-6.9v5.2h6.9v3.7h-10.6V288.2z"/>
			<path d="M384.2,290.9l-2.7,2.5c-1-1.2-2-2-3-2c-0.5,0-1,0.2-1.2,0.5c-0.2,0.2-0.5,0.5-0.5,1c0,0.2,0,0.7,0.2,1
				c0.2,0.5,1.2,1.2,2.7,2.5c1.5,1.2,2.2,2,2.5,2.2c0.7,0.7,1.2,1.5,1.7,2.2c0.2,0.7,0.5,1.5,0.5,2.2c0,1.7-0.5,3-1.7,3.9
				c-1,1-2.5,1.5-4.4,1.5c-1.5,0-2.7-0.2-3.7-1c-1-0.7-2-1.7-2.7-3.2l3.2-2c1,1.7,2,2.7,3.2,2.7c0.7,0,1.2-0.2,1.7-0.5
				c0.5-0.2,0.7-1,0.7-1.5c0-0.5-0.2-1-0.5-1.2c-0.2-0.5-1-1.2-2.2-2c-2.2-1.7-3.5-3-4.2-3.9c-0.7-1-1-2-1-2.7
				c0-1.5,0.5-2.5,1.5-3.5c1-1,2.2-1.5,3.9-1.5c1,0,2,0.2,2.7,0.7C382.2,289,383.2,289.7,384.2,290.9z"/>
			<path d="M388.1,288.2h3.9c2.2,0,3.7,0.2,4.7,0.5c1,0.5,1.7,1,2.2,2s0.7,2,0.7,3.2c0,1.5-0.2,2.5-1,3.5c-0.7,1-1.7,1.5-3,2
				c-0.7,0.2-2,0.2-3.9,0.2v8.4h-3.7V288.2z M391.8,295.9h1.2c1,0,1.5,0,2-0.2s0.7-0.2,0.7-0.7c0-0.5,0.2-0.7,0.2-1.2
				c0-0.7-0.2-1.2-1-1.7c-0.5-0.2-1.2-0.5-2.5-0.5h-1v4.4H391.8z"/>
			<path d="M412.8,287.7c2.7,0,5.2,1,7.2,3c2,2,3,4.4,3,7.4c0,3-1,5.2-3,7.2s-4.4,3-7.2,3c-3,0-5.4-1-7.4-3c-2-2-3-4.4-3-7.2
				c0-2,0.5-3.7,1.5-5.2c1-1.5,2.2-2.7,3.7-3.7C409.1,288.2,410.8,287.7,412.8,287.7z M412.5,291.4c-1.7,0-3.5,0.7-4.7,2s-2,3-2,4.7
				c0,2.2,0.7,3.9,2.2,5.2c1.2,1,2.7,1.5,4.2,1.5c1.7,0,3.2-0.7,4.4-2s2-3,2-4.7c0-2-0.7-3.5-2-4.7
				C416,291.9,414.5,291.4,412.5,291.4z"/>
			<path d="M426.3,288.2h3.5l8.4,12.8v-12.8h3.7v19.5h-3.7l-8.1-12.8v12.8h-3.7V288.2z"/>
			<path d="M456.4,290.9l-2.7,2.5c-1-1.2-2-2-3-2c-0.5,0-1,0.2-1.2,0.5c-0.2,0.2-0.5,0.5-0.5,1c0,0.2,0,0.7,0.2,1
				c0.2,0.5,1.2,1.2,2.7,2.5c1.5,1.2,2.2,2,2.5,2.2c0.7,0.7,1.2,1.5,1.7,2.2c0.2,0.7,0.5,1.5,0.5,2.2c0,1.7-0.5,3-1.7,3.9
				c-1.2,1-2.5,1.5-4.4,1.5c-1.5,0-2.7-0.2-3.7-1c-1-0.7-2-1.7-2.7-3.2l3.2-2c1,1.7,2,2.7,3.2,2.7c0.7,0,1.2-0.2,1.7-0.5
				c0.5-0.5,0.7-0.7,0.7-1.2c0-0.5-0.2-1-0.5-1.2c-0.2-0.5-1-1.2-2.2-2c-2.2-1.7-3.5-3-4.2-3.9c-0.7-1-1-2-1-2.7
				c0-1.5,0.5-2.5,1.5-3.5c1-1,2.2-1.5,3.9-1.5c1,0,2,0.2,2.7,0.7C454.4,289,455.4,289.7,456.4,290.9z"/>
			<path d="M466.3,288.2h3.7l7.4,19.5h-3.9l-1.5-3.9h-7.9l-1.5,3.9h-3.9L466.3,288.2z M468.3,293.4l-2.7,6.7h5.2L468.3,293.4z"/>
			<path d="M480.3,307.7v-19.5h3c1.7,0,3.2,0,3.9,0.2c1.2,0.2,2.2,1,2.7,1.7c0.7,0.7,1,1.7,1,3c0,0.7-0.2,1.5-0.5,2
				c-0.2,0.5-0.7,1.2-1.5,1.7c1.2,0.5,2,1.2,2.7,2c0.5,0.7,0.7,1.7,0.7,3c0,1-0.2,2.2-0.7,3c-0.5,1-1.2,1.5-2.2,2
				c-1,0.5-2.2,0.7-3.7,0.7h-5.4V307.7z M484,291.7v4.2h0.7c1,0,1.5-0.2,2-0.5c0.5-0.5,0.7-1,0.7-1.5c0-0.5-0.2-1-0.7-1.5
				c-0.5-0.2-1-0.5-2-0.5H484V291.7z M484,299.3v4.9h1c1.5,0,2.5-0.2,3.2-0.5c0.5-0.5,0.7-1,0.7-1.7c0-0.7-0.2-1.5-1-2
				c-0.7-0.5-1.7-0.7-3.2-0.7H484z"/>
			<path d="M496.1,288.2h3.7v16h5.4v3.5h-9.1V288.2z"/>
			<path d="M508,288.2h10.6v3.7h-6.9v3.5h6.9v3.7h-6.9v5.2h6.9v3.7H508L508,288.2L508,288.2z"/>
			<path d="M532.4,290.9l-2.7,2.5c-1-1.2-2-2-3-2c-0.5,0-1,0.2-1.2,0.5c-0.2,0.2-0.5,0.5-0.5,1c0,0.2,0,0.7,0.2,1
				c0.2,0.5,1.2,1.2,2.7,2.5c1.5,1.2,2.2,2,2.5,2.2c0.7,0.7,1.2,1.5,1.7,2.2c0.2,0.7,0.5,1.5,0.5,2.2c0,1.7-0.5,3-1.7,3.9
				c-1.2,1-2.5,1.5-4.4,1.5c-1.5,0-2.7-0.2-3.7-1c-1-0.7-2-1.7-2.7-3.2l3.2-2c1,1.7,2,2.7,3.2,2.7c0.7,0,1.2-0.2,1.7-0.5
				c0.5-0.5,0.7-0.7,0.7-1.2c0-0.5-0.2-1-0.5-1.2c-0.2-0.5-1-1.2-2.2-2c-2.2-1.7-3.5-3-4.2-3.9c-0.2-1.5-0.7-2.5-0.7-3.5
				c0-1.5,0.5-2.5,1.5-3.5c1-1,2.2-1.5,3.9-1.5c1,0,2,0.2,2.7,0.7C530.4,289,531.4,289.7,532.4,290.9z"/>
		</g>
	</g>
</g>
<g>
	<g>
		<g>
			<path d="M698,291.7l-2.7,2.5c-1.7-2-3.7-2.7-5.9-2.7c-2,0-3.5,0.7-4.7,2c-1.2,1.2-2,3-2,4.7c0,1.2,0.2,2.5,0.7,3.5
				c0.5,1,1.5,1.7,2.5,2.5c1,0.5,2.2,1,3.5,1c1,0,2-0.2,3-0.5c1-0.2,2-1.2,3-2.2l2.5,2.7c-1.5,1.5-2.7,2.5-4.2,3
				c-1.2,0.5-2.7,0.7-4.4,0.7c-3,0-5.4-1-7.4-3c-2-2-3-4.4-3-7.4c0-2,0.5-3.7,1.2-5.2c1-1.5,2.2-2.7,3.7-3.7c1.7-1,3.5-1.5,5.4-1.5
				c1.7,0,3.2,0.2,4.7,1C695.8,289.4,697,290.4,698,291.7z"/>
			<path d="M701.5,288.2h10.6v3.7h-6.9v3.5h6.9v3.7h-6.9v5.2h6.9v3.7h-10.6V288.2z"/>
			<path d="M715.5,288.2h3.7v16h5.4v3.5h-9.1V288.2z"/>
			<path d="M727.4,288.2h3.7v12.6c0,1,0,2,0.2,2.2c0.2,0.2,0.5,0.7,1,1s1,0.5,1.5,0.5c0.7,0,1.2-0.2,1.7-0.5c0.5-0.2,0.7-0.7,1-1.2
				c0.2-0.5,0.2-1.2,0.2-2.7v-11.8h3.7v11.6c0,2,0,3.5-0.2,4.2c-0.2,0.7-0.7,1.5-1.2,2.2c-0.7,0.7-1.2,1.2-2.2,1.5
				c-0.7,0.2-1.7,0.5-3,0.5c-1.5,0-2.7-0.2-3.7-1c-1-0.7-1.7-1.5-2.2-2.5c-0.5-1-0.7-2.7-0.7-4.9v-11.6H727.4z"/>
			<path d="M744.9,288.2h3.7v16h5.4v3.5h-9.1V288.2z"/>
			<path d="M762.6,288.2h3.7l7.4,19.5h-3.9l-1.5-3.9h-7.9l-1.5,3.9H755L762.6,288.2z M764.6,293.4l-2.7,6.7h5.2L764.6,293.4z"/>
			<path d="M777.2,288.2h3.9c2.2,0,3.7,0.2,4.7,0.5c1,0.5,1.7,1,2.2,2c0.5,1,0.7,2,0.7,3.2s-0.2,2.5-1,3.2c-0.7,1-1.5,1.5-2.7,2
				l4.7,8.6h-4.2l-4.4-8.4h-0.2v8.4h-3.7V288.2z M780.9,295.9h1.2c1.2,0,2-0.2,2.5-0.5c0.5-0.2,0.7-0.7,0.7-1.5c0-0.5,0-0.7-0.2-1.2
				c-0.2-0.2-0.5-0.5-1-0.7s-1-0.2-2-0.2h-1v4.2H780.9z"/>
		</g>
	</g>
</g>
<g>
	<g>
		<g>
			<path d="M32.3,355.5c3,0,5.4,1,7.4,3c2,2,3,4.4,3,7.4s-1,5.2-3,7.4c-2,2-4.4,3-7.4,3s-5.4-1-7.4-3c-2-2-3-4.4-3-7.2
				c0-2,0.5-3.7,1.5-5.2s2.2-3,3.7-3.7C28.9,356,30.6,355.5,32.3,355.5z M32.6,357.5c-1.5,0-2.7,0.5-4.2,1.2c-1.2,0.7-2.2,1.7-3,3
				c-0.7,1.2-1,2.7-1,4.2c0,2.2,0.7,4.2,2.5,5.9c1.7,1.5,3.5,2.5,5.9,2.5c1.5,0,3-0.2,4.2-1c1.2-0.7,2.2-1.7,3-3s1-2.7,1-4.2
				c0-1.5-0.2-3-1-4.2c-0.7-1.2-1.7-2.2-3-3C35.3,357.8,34,357.5,32.6,357.5z"/>
			<path d="M52.3,355.5v1.7c-0.7-0.2-1.2-0.5-1.7-0.5c-0.2,0-0.7,0-1,0.2c-0.2,0.2-0.2,0.5-0.2,0.5c0,0.2,0,0.7,0,1.5v2h3v1.7h-3
				v12.8h-2v-12.8h-2V361h2v-2.2c0-1,0-1.7,0.2-2.2s0.5-0.7,1-1c0.5-0.2,1-0.5,1.7-0.5C50.8,355.1,51.5,355.3,52.3,355.5z"/>
			<path d="M55.7,355.1c0.5,0,0.7,0.2,1,0.5c0.2,0.2,0.5,0.7,0.5,1c0,0.5-0.2,0.7-0.5,1c-0.2,0.2-0.7,0.5-1,0.5
				c-0.5,0-0.7-0.2-1-0.5c-0.5,0-0.5-0.5-0.5-0.7c0-0.5,0.2-0.7,0.5-1C55,355.5,55.2,355.1,55.7,355.1z M54.8,361.2h2v14.6h-2V361.2
				z"/>
			<path d="M74.5,364.2l-1.5,1c-1.2-1.7-3-2.5-5.2-2.5c-1.7,0-3.2,0.5-4.4,1.7c-1.2,1.2-1.7,2.5-1.7,4.2c0,1,0.2,2,0.7,3
				c0.5,1,1.2,1.7,2.2,2.2c1,0.5,2,0.7,3.2,0.7c2.2,0,3.9-0.7,5.2-2.5l1.5,1c-0.7,1-1.7,1.7-2.7,2.5c-1.2,0.5-2.5,0.7-3.9,0.7
				c-2.2,0-4.2-0.7-5.7-2.2c-1.5-1.5-2.2-3.2-2.2-5.4c0-1.5,0.2-2.7,1-3.9c0.7-1.2,1.7-2.2,3-2.7c1.2-0.7,2.7-1,4.2-1
				c1,0,2,0.2,2.7,0.5c1,0.2,1.7,0.7,2.2,1.2C73.5,362.7,74,363.4,74.5,364.2z"/>
			<path d="M78.4,355.1c0.5,0,0.7,0.2,1,0.5c0.2,0.2,0.5,0.7,0.5,1c0,0.5-0.2,0.7-0.5,1s-0.7,0.5-1,0.5c-0.5,0-0.7-0.2-1-0.5
				c-0.2-0.2-0.5-0.7-0.5-1c0-0.5,0.2-0.7,0.5-1C77.7,355.3,78.2,355.1,78.4,355.1z M77.4,361.2h2v14.6h-2V361.2z"/>
			<path d="M83.4,361.2h2v2.7c0.7-1,1.5-1.7,2.5-2.2c1-0.5,2-0.7,3-0.7c1,0,2,0.2,3,0.7c0.7,0.5,1.5,1.2,2,2.2
				c0.5,1,0.5,2.5,0.5,4.4v7.4h-2v-6.9c0-1.7,0-2.7-0.2-3.5c-0.2-1-0.7-1.7-1.2-2.2c-0.5-0.5-1.5-0.7-2.5-0.7c-1.2,0-2.2,0.5-3,1.2
				c-1,0.7-1.5,1.7-1.7,2.7c-0.2,0.7-0.2,2-0.2,3.9v5.4h-2C83.4,375.8,83.4,361.2,83.4,361.2z"/>
			<path d="M114.4,361.2v14.6h-1.7v-2.5c-0.7,1-1.7,1.7-2.7,2.2c-1,0.5-2,0.7-3.2,0.7c-2,0-3.7-0.7-5.2-2.2s-2.2-3.2-2.2-5.4
				c0-2,0.7-3.9,2.2-5.4c1.5-1.5,3.2-2.2,5.2-2.2c1.2,0,2.2,0.2,3.2,0.7c1,0.5,1.7,1.2,2.5,2.2v-2.7H114.4z M107,362.5
				c-1,0-2,0.2-3,0.7c-1,0.5-1.5,1.2-2,2.2s-0.7,2-0.7,3s0.2,2,0.7,3c0.5,1,1.2,1.7,2.2,2.2c1,0.5,1.7,0.7,2.7,0.7c1,0,2-0.2,3-0.7
				c1-0.5,1.7-1.2,2.2-2c0.5-0.7,0.7-2,0.7-3c0-1.7-0.5-3-1.7-4.2C110,363.2,108.5,362.5,107,362.5z"/>
			<path d="M126,362.7l-1.2,1.2c-1-1-2-1.5-3-1.5c-0.5,0-1.2,0.2-1.5,0.5c-0.5,0.5-0.7,1-0.7,1.5c0,0.5,0.2,1,0.5,1.2
				c0.2,0.5,1,1,2.2,1.5c1.5,0.7,2.2,1.5,2.7,2c0.5,0.7,0.7,1.5,0.7,2.2c0,1.2-0.5,2.2-1.2,3c-0.7,0.7-2,1.2-3.2,1.2
				c-0.7,0-1.7-0.2-2.5-0.5s-1.5-1-2-1.5l1.5-1c1,1,2,1.7,3,1.7c0.7,0,1.5-0.2,2-0.7c0.5-0.5,0.7-1,0.7-1.7c0-0.5-0.2-1-0.5-1.5
				c-0.2-0.5-1.2-1-2.5-1.5c-1.2-0.7-2.2-1.2-2.7-2c-0.5-0.7-0.7-1.5-0.7-2.2c0-1,0.5-2,1.2-2.7c0.7-0.7,1.7-1,3-1
				C123.3,360.7,124.6,361.5,126,362.7z"/>
			<path d="M134.9,371.8l1.7-1c1.2,2.2,2.5,3.2,3.9,3.2c0.7,0,1.2-0.2,1.7-0.5c0.5-0.2,1-0.7,1.2-1.2c0.2-0.5,0.5-1,0.5-1.7
				c0-0.7-0.2-1.2-0.7-2c-0.5-1-1.7-2-3.5-3.2c-1.7-1.2-2.7-2.2-3-2.7c-0.7-1-1-2-1-3c0-0.7,0.2-1.7,0.5-2.2c0.5-0.7,1-1.2,1.7-1.7
				c0.7-0.5,1.5-0.5,2.5-0.5s1.7,0.2,2.5,0.7c0.7,0.5,1.7,1.2,2.5,2.5l-1.5,1.2c-0.7-1-1.5-1.7-2-2c-0.5-0.2-1-0.5-1.7-0.5
				c-0.7,0-1.5,0.2-2,0.7c-0.5,0.5-0.7,1-0.7,1.7c0,0.5,0,0.7,0.2,1.2s0.5,0.7,1,1.2c0.2,0.2,1,1,2.5,2c1.7,1.2,3,2.5,3.5,3.5
				c0.7,1,1,2,1,3c0,1.5-0.5,2.7-1.7,3.7c-1,1-2.5,1.5-3.9,1.5c-1.2,0-2.2-0.2-3.2-1C136.6,374.5,135.9,373.3,134.9,371.8z"/>
			<path d="M158.6,356l9.1,19.5h-2.2l-3-6.4h-8.4l-3,6.4H149l9.1-19.5C158.1,356,158.6,356,158.6,356z M158.3,360.2l-3.5,7.2h6.7
				L158.3,360.2z"/>
			<path d="M170.2,375.5V356h0.5l13.1,15v-15h2v19.5H185l-12.8-14.8v14.8H170.2z"/>
			<path d="M188.4,358v-2H199v2h-4.4v17.8h-2V358H188.4z"/>
			<path d="M201.3,356h2v19.5h-2V356z"/>
			<path d="M208.2,356h2v17.8h7.6v2h-9.4V356H208.2z"/>
			<path d="M220.8,356h2v17.8h7.6v2H221V356H220.8z"/>
			<path d="M241.5,356l9.1,19.5h-2.2l-3-6.4H237l-3,6.4h-2.2L241,356C241,356,241.5,356,241.5,356z M241.2,360.2l-3.5,7.2h6.7
				L241.2,360.2z"/>
			<path d="M253.1,375.5V356h0.5l13.1,15v-15h2v19.5h-0.5l-12.8-14.8v14.8H253.1z"/>
			<path d="M281.4,356l9.1,19.5h-2l-3-6.4h-8.4l-3,6.4h-2.2l9.1-19.5C281.2,356,281.4,356,281.4,356z M281.2,360.2l-3.5,7.2h6.7
				L281.2,360.2z"/>
		</g>
	</g>
</g>
<g>
	<g>
		<g>
			<path d="M347.6,345.9v-19.5h3.9c3,0,4.9,0.2,6.4,0.7c2,0.7,3.5,1.7,4.4,3.5c1,1.7,1.5,3.7,1.5,5.9c0,2-0.5,3.7-1.2,5.2
				s-2,2.5-3.2,3.2c-1.2,0.7-3.2,1-5.7,1C353.8,345.9,347.6,345.9,347.6,345.9z M349.4,344h2.2c2.7,0,4.7-0.2,5.7-0.5
				c1.5-0.5,2.7-1.2,3.5-2.5s1.2-2.7,1.2-4.7c0-2-0.5-3.5-1.5-4.9c-1-1.2-2.2-2.2-3.7-2.7c-1.2-0.5-3.2-0.5-6.2-0.5h-1.5V344H349.4z
				"/>
			<path d="M368.1,325.5c0.5,0,0.7,0.2,1,0.5c0.2,0.2,0.5,0.7,0.5,1c0,0.5-0.2,0.7-0.5,1c-0.2,0.2-0.7,0.5-1,0.5
				c-0.5,0-0.7-0.2-1-0.5s-0.5-0.7-0.5-1c0-0.5,0.2-0.7,0.5-1C367.4,325.7,367.6,325.5,368.1,325.5z M367.1,331.4h2v14.6h-2V331.4z"
				/>
			<path d="M387.4,331.4v14.6h-1.7v-2.5c-0.7,1-1.7,1.7-2.7,2.2c-1,0.5-2,0.7-3.2,0.7c-2,0-3.7-0.7-5.2-2.2
				c-1.5-1.5-2.2-3.2-2.2-5.4c0-2,0.7-3.9,2.2-5.4s3.2-2.2,5.2-2.2c1.2,0,2.2,0.2,3.2,0.7c1,0.5,1.7,1.2,2.5,2.2v-2.7
				C385.4,331.4,387.4,331.4,387.4,331.4z M380,332.9c-1,0-2,0.2-3,0.7c-1,0.5-1.5,1.2-2,2.2s-0.7,2-0.7,3c0,1,0.2,2,0.7,3
				c0.5,1,1.2,1.7,2.2,2.2c1,0.5,1.7,0.7,2.7,0.7c1,0,2-0.2,3-0.7c1-0.5,1.7-1.2,2.2-2c0.5-0.7,0.7-2,0.7-3c0-1.7-0.5-3-1.7-4.2
				C382.9,333.4,381.7,332.9,380,332.9z"/>
			<path d="M391.5,331.4h2v2.7c0.7-1,1.5-1.7,2.5-2.2c1-0.5,2-0.7,3-0.7s2,0.2,3,0.7c0.7,0.5,1.5,1.2,2,2.2s0.5,2.5,0.5,4.4v7.4h-2
				V339c0-1.7,0-2.7-0.2-3.5c-0.2-1-0.7-1.7-1.2-2.2c-0.5-0.5-1.5-0.7-2.5-0.7c-1.2,0-2.2,0.5-3,1.2c-1,0.7-1.5,1.7-1.7,2.7
				c-0.2,0.7-0.2,2-0.2,3.9v5.4h-2L391.5,331.4L391.5,331.4z"/>
			<path d="M422.6,331.4v14.6h-1.7v-2.5c-0.7,1-1.7,1.7-2.7,2.2c-1,0.5-2,0.7-3.2,0.7c-2,0-3.7-0.7-5.2-2.2
				c-1.5-1.5-2.2-3.2-2.2-5.4c0-2,0.7-3.9,2.2-5.4s3.2-2.2,5.2-2.2c1.2,0,2.2,0.2,3.2,0.7c1,0.5,1.7,1.2,2.5,2.2v-2.7
				C420.7,331.4,422.6,331.4,422.6,331.4z M415.2,332.9c-1,0-2,0.2-3,0.7c-1,0.5-1.5,1.2-2,2.2s-0.7,2-0.7,3c0,1,0.2,2,0.7,3
				c0.5,1,1.2,1.7,2.2,2.2c1,0.5,1.7,0.7,2.7,0.7c1,0,2-0.2,3-0.7c1-0.5,1.7-1.2,2.2-2c0.5-0.7,0.7-2,0.7-3c0-1.7-0.5-3-1.7-4.2
				C418.2,333.4,417,332.9,415.2,332.9z"/>
			<path d="M433.7,345.9l2.7-19.5h0.2l7.9,16l7.9-16h0.2l2.7,19.5h-2l-2-14.1l-6.9,14.1h-0.5l-6.9-14.1l-2,14.1H433.7z"/>
			<path d="M471.5,341l1.5,0.7c-0.5,1-1,1.7-1.7,2.5c-0.7,0.7-1.5,1-2.2,1.5c-0.7,0.2-1.7,0.5-3,0.5c-2.5,0-4.2-0.7-5.4-2.2
				c-1.2-1.5-2-3.2-2-5.2c0-1.7,0.5-3.5,1.7-4.9c1.5-1.7,3.5-2.7,5.7-2.7c2.5,0,4.4,1,5.9,2.7c1,1.2,1.5,3,1.5,4.9h-13.1
				c0,1.7,0.5,3,1.7,4.2s2.2,1.7,3.9,1.7c0.7,0,1.5-0.2,2.2-0.5c0.7-0.2,1.2-0.5,1.7-1C470.2,342.7,470.7,342,471.5,341z
				 M471.5,337.1c-0.2-1-0.5-1.7-1-2.5c-0.5-0.7-1-1-2-1.5c-0.7-0.2-1.5-0.5-2.5-0.5c-1.5,0-2.7,0.5-3.7,1.5c-0.7,0.7-1.2,1.7-1.7,3
				H471.5z"/>
			<path d="M476.2,331.4h2v2.2c0.5-0.7,1.2-1.5,1.7-2c0.7-0.5,1.2-0.7,2-0.7c0.5,0,1,0.2,1.7,0.5l-1,1.5c-0.5-0.2-0.7-0.2-1-0.2
				c-0.7,0-1.2,0.2-1.7,0.7c-0.5,0.5-1,1.2-1.2,2.5c-0.2,0.7-0.2,2.5-0.2,4.9v4.9h-2v-14.3H476.2z"/>
			<path d="M499.3,331.4v14.6h-1.7v-2.5c-0.7,1-1.7,1.7-2.7,2.2c-1,0.5-2,0.7-3.2,0.7c-2,0-3.7-0.7-5.2-2.2
				c-1.5-1.5-2.2-3.2-2.2-5.4c0-2,0.7-3.9,2.2-5.4s3.2-2.2,5.2-2.2c1.2,0,2.2,0.2,3.2,0.7c1,0.5,1.7,1.2,2.5,2.2v-2.7
				C497.4,331.4,499.3,331.4,499.3,331.4z M491.9,332.9c-1,0-2,0.2-3,0.7c-1,0.5-1.5,1.2-2,2.2s-0.7,2-0.7,3c0,1,0.2,2,0.7,3
				c0.5,1,1.2,1.7,2.2,2.2c1,0.5,1.7,0.7,2.7,0.7c1,0,2-0.2,3-0.7c1-0.5,1.7-1.2,2.2-2c0.5-0.7,0.7-2,0.7-3c0-1.7-0.5-3-1.7-4.2
				C494.9,333.4,493.4,332.9,491.9,332.9z"/>
			<path d="M502.3,331.4h10.6l-8.1,12.8h7.9v1.7h-11.1l8.1-12.8h-7.4V331.4z"/>
		</g>
	</g>
	<g>
		<g>
			<path d="M354.1,359.7h2v13.3c0,2-0.2,3.5-0.5,4.2c-0.2,0.7-0.7,1.5-1.5,2c-0.7,0.5-1.7,0.7-2.7,0.7c-0.7,0-1.5-0.2-2.2-0.5
				c-0.7-0.2-1.7-0.7-2.5-1.7l1-1.5c1,0.7,2,1.2,2.5,1.5s1,0.2,1.2,0.2c0.5,0,1-0.2,1.5-0.5c0.5-0.2,0.7-0.7,1-1.2
				c0.2-0.5,0.2-1.7,0.2-3.2V359.7z"/>
			<path d="M361,358.8c0.5,0,0.7,0.2,1,0.5c0.2,0.2,0.5,0.7,0.5,1c0,0.5-0.2,0.7-0.5,1c-0.2,0.2-0.7,0.5-1,0.5c-0.5,0-0.7-0.2-1-0.5
				s-0.5-0.7-0.5-1c0-0.5,0.2-0.7,0.5-1C360.2,359,360.5,358.8,361,358.8z M360,364.9h2v14.6h-2V364.9z"/>
			<path d="M365.9,364.9h2v2.5c0.7-1,1.2-1.5,2-2c1-0.5,2-0.7,3-0.7c0.7,0,1.5,0.2,2,0.5c0.5,0.2,1.2,0.7,1.5,1c0.5,0.5,0.7,1.2,1,2
				c0.7-1.2,1.5-2,2.2-2.5c1-0.5,2-1,3-1c1,0,2,0.2,2.7,0.7s1.2,1.2,1.7,2.2s0.5,2.2,0.5,3.9v7.9h-1.7v-7.9c0-1.5,0-2.7-0.2-3.2
				c-0.2-0.5-0.5-1-1.2-1.5c-0.5-0.2-1.2-0.5-2-0.5c-1,0-1.7,0.2-2.5,0.7c-0.7,0.5-1.2,1.2-1.7,2.2s-0.5,2.5-0.5,4.4v5.7h-1.7v-7.4
				c0-1.7,0-3-0.2-3.5c-0.2-0.7-0.5-1.2-1.2-1.5s-1.2-0.5-2-0.5c-0.7,0-1.7,0.2-2.5,0.7c-0.7,0.5-1.2,1.2-1.7,2
				c-0.2,1-0.5,2.2-0.5,3.9v6.2h-1.7V364.9z"/>
			<path d="M403.6,374.5l1.5,0.7c-0.5,1-1,1.7-1.7,2.5c-0.7,0.7-1.5,1-2.2,1.5c-0.7,0.5-1.7,0.5-3,0.5c-2.5,0-4.2-0.7-5.4-2.2
				c-1.2-1.5-2-3.2-2-5.2c0-1.7,0.5-3.5,1.7-4.9c1.5-1.7,3.5-2.7,5.7-2.7c2.5,0,4.4,1,5.9,2.7c1,1.2,1.5,3,1.5,4.9h-13.1
				c0,1.7,0.5,3,1.7,4.2s2.2,1.7,3.9,1.7c0.7,0,1.5-0.2,2.2-0.5c0.7-0.2,1.2-0.5,1.7-1C402.4,376,403.1,375.5,403.6,374.5z
				 M403.6,370.6c-0.2-1-0.5-1.7-1-2.5c-0.5-0.7-1-1-2-1.5c-0.7-0.2-1.5-0.5-2.5-0.5c-1.5,0-2.7,0.5-3.7,1.5c-0.7,0.7-1.2,1.7-1.7,3
				H403.6z"/>
			<path d="M409.1,364.9h2v2.7c0.7-1,1.5-1.7,2.5-2.2c1-0.5,2-0.7,3-0.7s2,0.2,3,0.7c0.7,0.5,1.5,1.2,2,2.2c0.5,1,0.5,2.5,0.5,4.4
				v7.4h-2v-6.9c0-1.7,0-2.7-0.2-3.5c-0.2-1-0.7-1.7-1.2-2.2c-0.5-0.5-1.5-0.7-2.5-0.7c-1.2,0-2.2,0.5-3,1.2c-1,0.7-1.5,1.7-1.7,2.7
				c-0.2,0.7-0.2,2-0.2,3.9v5.4h-2L409.1,364.9L409.1,364.9z"/>
			<path d="M440.1,364.9v14.6h-1.7V377c-0.7,1-1.7,1.7-2.7,2.2c-1,0.5-2,0.7-3.2,0.7c-2,0-3.7-0.7-5.2-2.2c-1.5-1.5-2.2-3.2-2.2-5.4
				c0-2,0.7-3.9,2.2-5.4s3.2-2.2,5.2-2.2c1.2,0,2.2,0.2,3.2,0.7c1,0.5,1.7,1.2,2.5,2.2v-2.7H440.1z M432.7,366.2c-1,0-2,0.2-3,0.7
				c-1,0.5-1.5,1.2-2,2.2s-0.7,2-0.7,3s0.2,2,0.7,3c0.5,1,1.2,1.7,2.2,2.2c1,0.5,1.7,0.7,2.7,0.7c1,0,2-0.2,3-0.7
				c1-0.5,1.7-1.2,2.2-2c0.5-0.7,0.7-2,0.7-3c0-1.7-0.5-3-1.7-4.2S434.2,366.2,432.7,366.2z"/>
			<path d="M461.4,359.2c3,0,5.4,1,7.4,3c2,2,3,4.4,3,7.4s-1,5.2-3,7.4c-2,2-4.4,3-7.4,3s-5.4-1-7.4-3c-2-2-3-4.4-3-7.2
				c0-2,0.5-3.7,1.5-5.2c1-1.5,2.2-3,3.7-3.7C457.9,359.7,459.6,359.2,461.4,359.2z M461.6,361.2c-1.5,0-2.7,0.5-4.2,1.2
				c-1.2,0.7-2.2,1.7-3,3c-0.7,1.2-1,2.7-1,4.2c0,2.2,0.7,4.2,2.5,5.9c1.7,1.5,3.5,2.5,5.9,2.5c1.5,0,3-0.2,4.2-1s2.2-1.7,3-3
				c0.7-1.2,1-2.7,1-4.2c0-1.5-0.2-3-1-4.2s-1.7-2.2-3-3C464.3,361.5,463.1,361.2,461.6,361.2z"/>
			<path d="M474.4,364.9h2v2.2c0.5-0.7,1.2-1.5,1.7-2c0.7-0.5,1.2-0.7,2-0.7c0.5,0,1,0.2,1.7,0.5l-1,1.5c-0.5-0.2-0.7-0.2-1-0.2
				c-0.7,0-1.2,0.2-1.7,0.7c-0.5,0.5-1,1.2-1.2,2.5c-0.2,0.7-0.2,2.5-0.2,4.9v4.9h-2.2V364.9z"/>
			<path d="M485,359.5h2v5.4h3v1.7h-3v12.8h-2v-12.8h-2.5v-1.7h2.5V359.5z"/>
			<path d="M504.8,374.5l1.5,0.7c-0.5,1-1,1.7-1.7,2.5c-0.7,0.7-1.5,1-2.2,1.5c-0.7,0.5-1.7,0.5-3,0.5c-2.5,0-4.2-0.7-5.4-2.2
				c-1.2-1.5-2-3.2-2-5.2c0-1.7,0.5-3.5,1.7-4.9c1.5-1.7,3.5-2.7,5.7-2.7c2.5,0,4.4,1,5.9,2.7c1,1.2,1.5,3,1.5,4.9h-13.1
				c0,1.7,0.5,3,1.7,4.2s2.2,1.7,3.9,1.7c0.7,0,1.5-0.2,2.2-0.5c0.7-0.2,1.2-0.5,1.7-1C503.8,376,504.3,375.5,504.8,374.5z
				 M504.8,370.6c-0.2-1-0.5-1.7-1-2.5c-0.5-0.5-1-1-2-1.5c-0.7-0.2-1.5-0.5-2.5-0.5c-1.5,0-2.7,0.5-3.7,1.5c-0.7,0.7-1.2,1.7-1.7,3
				H504.8z"/>
			<path d="M522.8,364.9h2v11.6c0,2-0.2,3.5-0.5,4.4c-0.5,1.2-1.2,2.5-2.5,3c-1.2,0.7-2.7,1-4.4,1c-1.2,0-2.5-0.2-3.5-0.5
				c-1-0.2-1.7-0.7-2.5-1.5c-0.7-0.5-1.2-1.5-1.7-2.7h2c0.5,1,1.2,1.7,2.2,2.2c1,0.5,2,0.7,3.2,0.7c1.2,0,2.2-0.2,3.2-0.7
				c1-0.5,1.5-1,2-1.7c0.5-0.7,0.5-2,0.5-3.5v-0.7c-0.7,1-1.5,1.5-2.5,2c-1,0.5-2,0.7-3.2,0.7c-1.2,0-2.5-0.2-3.7-1
				c-1.2-0.7-2-1.5-2.7-2.7s-1-2.5-1-3.7s0.2-2.5,1-3.7c0.7-1.2,1.5-2,2.7-2.7c1.2-0.7,2.5-1,3.7-1c1,0,2,0.2,3,0.7
				c1,0.5,1.7,1.2,2.7,2.2V364.9z M517.3,366.2c-1,0-2,0.2-3,0.7c-1,0.5-1.7,1.2-2.2,2.2c-0.5,1-0.7,2-0.7,3c0,1.5,0.5,3,1.5,3.9
				c1,1,2.5,1.5,4.2,1.5s3.2-0.5,4.2-1.5c1-1,1.5-2.5,1.5-3.9c0-1-0.2-2-0.7-3c-0.5-0.7-1.2-1.5-2-2
				C519.3,366.6,518.3,366.2,517.3,366.2z"/>
			<path d="M543,364.9v14.6h-2V377c-0.7,1-1.7,1.7-2.7,2.2c-1,0.5-2,0.7-3.2,0.7c-2,0-3.7-0.7-5.2-2.2c-1.5-1.5-2.2-3.2-2.2-5.4
				c0-2,0.7-3.9,2.2-5.4s3.2-2.2,5.2-2.2c1.2,0,2.2,0.2,3.2,0.7c1,0.5,1.7,1.2,2.5,2.2v-2.7H543z M535.3,366.2c-1,0-2,0.2-3,0.7
				s-1.5,1.2-2,2.2c-0.5,1-0.7,2-0.7,3s0.2,2,0.7,3c0.5,1,1.2,1.7,2.2,2.2c1,0.5,1.7,0.7,2.7,0.7c1,0,2-0.2,3-0.7
				c1-0.5,1.7-1.2,2.2-2c0.5-0.7,0.7-2,0.7-3c0-1.7-0.5-3-1.7-4.2C538.3,366.9,537.1,366.2,535.3,366.2z"/>
		</g>
	</g>
	<g>
		<g>
			<path d="M355.5,392.8l9.1,19.5h-2.2l-3-6.4h-8.4l-3,6.4h-2.2l9.1-19.5H355.5z M355.3,397l-3.5,7.2h6.7L355.3,397z"/>
			<path d="M366.6,392.3h2v20h-2V392.3z"/>
			<path d="M379.2,397.5c2.2,0,4.2,0.7,5.4,2.5c1.2,1.5,2,3.2,2,5.2c0,2-0.7,3.7-2.2,5.2s-3.2,2.2-5.4,2.2c-2.2,0-3.9-0.7-5.4-2.2
				c-1.5-1.5-2.2-3.2-2.2-5.2c0-2,0.7-3.7,2-5.2C375.3,398.5,377,397.5,379.2,397.5z M379.2,399.5c-1.5,0-3,0.5-3.9,1.7
				c-1.2,1.2-1.7,2.5-1.7,4.2c0,1,0.2,2,0.7,3s1.2,1.5,2,2c0.7,0.5,1.7,0.7,3,0.7c1,0,2-0.2,3-0.7c1-0.5,1.5-1.2,2-2
				c0.5-1,0.7-2,0.7-3c0-1.7-0.5-3-1.7-4.2C381.9,399.9,380.9,399.5,379.2,399.5z"/>
			<path d="M390.3,398h2v2.7c0.7-1,1.5-1.7,2.5-2.2c1-0.5,2-0.7,3-0.7s2,0.2,3,0.7c0.7,0.5,1.5,1.2,2,2.2c0.5,1,0.5,2.5,0.5,4.4v7.4
				h-2v-6.9c0-1.7,0-2.7-0.2-3.5c-0.2-1-0.7-1.7-1.2-2.2c-0.5-0.5-1.5-0.7-2.5-0.7c-1.2,0-2.2,0.5-3,1.2c-1,0.7-1.5,1.7-1.7,2.7
				c-0.2,0.7-0.2,2-0.2,3.9v5.4h-2L390.3,398L390.3,398z"/>
			<path d="M421.1,392.3v20h-1.7v-2.5c-0.7,1-1.7,1.7-2.7,2.2c-1,0.5-2,0.7-3.2,0.7c-2,0-3.7-0.7-5.2-2.2c-1.5-1.5-2.2-3.2-2.2-5.4
				c0-2,0.7-3.9,2.2-5.4c1.5-1.5,3.2-2.2,5.2-2.2c1.2,0,2.2,0.2,3.2,0.7c1,0.5,1.7,1.2,2.5,2.2v-8.1H421.1z M413.7,399.5
				c-1,0-2,0.2-3,0.7c-1,0.5-1.5,1.2-2,2.2c-0.5,1-0.7,2-0.7,3c0,1,0.2,2,0.7,3c0.5,1,1.2,1.7,2.2,2.2c1,0.5,1.7,0.7,2.7,0.7
				s2-0.2,3-0.7c1-0.5,1.7-1.2,2.2-2c0.5-0.7,0.7-2,0.7-3c0-1.7-0.5-3-1.7-4.2C416.7,399.9,415.5,399.5,413.7,399.5z"/>
			<path d="M424.8,398h2v2.2c0.5-0.7,1.2-1.5,1.7-2c0.7-0.5,1.2-0.7,2-0.7c0.5,0,1,0.2,1.7,0.5l-1,1.5c-0.5-0.2-0.7-0.2-1-0.2
				c-0.7,0-1.2,0.2-1.7,0.7c-0.5,0.5-1,1.2-1.2,2.5c-0.2,0.7-0.2,2.5-0.2,4.9v4.9h-2V398H424.8z"/>
			<path d="M448.3,398v14.6h-1.7v-2.5c-0.7,1-1.7,1.7-2.7,2.2c-1,0.5-2,0.7-3.2,0.7c-2,0-3.7-0.7-5.2-2.2c-1.5-1.5-2.2-3.2-2.2-5.4
				c0-2,0.7-3.9,2.2-5.4s3.2-2.2,5.2-2.2c1.2,0,2.2,0.2,3.2,0.7c1,0.5,1.7,1.2,2.5,2.2V398H448.3z M440.6,399.5c-1,0-2,0.2-3,0.7
				c-1,0.5-1.5,1.2-2,2.2s-0.7,2-0.7,3c0,1,0.2,2,0.7,3s1.2,1.7,2.2,2.2c1,0.5,1.7,0.7,2.7,0.7s2-0.2,3-0.7c1-0.5,1.7-1.2,2.2-2
				c0.5-0.7,0.7-2,0.7-3c0-1.7-0.5-3-1.7-4.2C443.6,399.9,442.4,399.5,440.6,399.5z"/>
			<path d="M478.9,396.2l-1.5,1.5c-1-1-2.2-2-3.7-2.5c-1.5-0.5-2.5-0.7-3.7-0.7c-1.5,0-3,0.5-4.4,1.2c-1.5,0.7-2.5,1.7-3.2,3
				s-1.2,2.7-1.2,4.2s0.5,3,1.2,4.2c0.7,1.2,2,2.5,3.2,3.2c1.5,0.7,3,1.2,4.7,1.2c2,0,3.7-0.5,5.2-1.7c1.5-1.2,2.2-2.7,2.5-4.4h-6.2
				v-2h8.4c0,3-1,5.4-2.7,7.2c-1.7,1.7-4.2,2.7-7.2,2.7c-3.7,0-6.4-1.2-8.6-3.7c-1.7-2-2.5-4.2-2.5-6.7c0-2,0.5-3.7,1.5-5.2
				c1-1.5,2.2-3,3.9-3.7c1.7-1,3.5-1.2,5.4-1.2c1.7,0,3.2,0.2,4.7,1C476.2,393.8,477.6,394.8,478.9,396.2z"/>
			<path d="M497.9,398v14.6h-1.7v-2.5c-0.7,1-1.7,1.7-2.7,2.2c-1,0.5-2,0.7-3.2,0.7c-2,0-3.7-0.7-5.2-2.2c-1.5-1.5-2.2-3.2-2.2-5.4
				c0-2,0.7-3.9,2.2-5.4c1.5-1.5,3.2-2.2,5.2-2.2c1.2,0,2.2,0.2,3.2,0.7c1,0.5,1.7,1.2,2.5,2.2V398H497.9z M490.5,399.5
				c-1,0-2,0.2-3,0.7c-1,0.5-1.5,1.2-2,2.2s-0.7,2-0.7,3c0,1,0.2,2,0.7,3s1.2,1.7,2.2,2.2c1,0.5,1.7,0.7,2.7,0.7c1,0,2-0.2,3-0.7
				c1-0.5,1.7-1.2,2.2-2c0.5-0.7,0.7-2,0.7-3c0-1.7-0.5-3-1.7-4.2C493.4,399.9,491.9,399.5,490.5,399.5z"/>
			<path d="M501.3,398h2v2.2c0.5-0.7,1.2-1.5,1.7-2c0.7-0.5,1.2-0.7,2-0.7c0.5,0,1,0.2,1.7,0.5l-1,1.5c-0.5-0.2-0.7-0.2-1-0.2
				c-0.7,0-1.2,0.2-1.7,0.7c-0.5,0.5-1,1.2-1.2,2.5c-0.2,0.7-0.2,2.5-0.2,4.9v4.9h-2V398H501.3z"/>
			<path d="M509.2,398h10.6l-8.1,12.8h7.9v1.7h-11.1l8.1-12.8h-7.4V398z"/>
			<path d="M528.7,397.5c2.2,0,4.2,0.7,5.4,2.5c1.2,1.5,2,3.2,2,5.2c0,2-0.7,3.7-2.2,5.2s-3.2,2.2-5.4,2.2c-2.2,0-3.9-0.7-5.4-2.2
				c-1.5-1.5-2.2-3.2-2.2-5.2c0-2,0.7-3.7,2-5.2C524.7,398.5,526.5,397.5,528.7,397.5z M528.7,399.5c-1.5,0-3,0.5-3.9,1.7
				c-1.2,1.2-1.7,2.5-1.7,4.2c0,1,0.2,2,0.7,3c0.5,1,1.2,1.5,2,2c0.7,0.5,1.7,0.7,3,0.7c1.2,0,2-0.2,3-0.7c1-0.5,1.5-1.2,2-2
				c0.5-1,0.7-2,0.7-3c0-1.7-0.5-3-1.7-4.2C531.6,399.9,530.4,399.5,528.7,399.5z M529.7,391.1h3l-3.9,4.2H527L529.7,391.1z"/>
			<path d="M539.8,398h2v2.7c0.7-1,1.5-1.7,2.5-2.2c1-0.5,2-0.7,3-0.7c1,0,2,0.2,3,0.7c1,0.5,1.5,1.2,2,2.2c0.5,1,0.5,2.5,0.5,4.4
				v7.4h-2v-6.9c0-1.7,0-2.7-0.2-3.5c-0.2-1-0.7-1.7-1.2-2.2c-0.5-0.5-1.5-0.7-2.5-0.7c-1.2,0-2.2,0.5-3,1.2c-1,0.7-1.5,1.7-1.7,2.7
				c-0.2,0.7-0.2,2-0.2,3.9v5.4h-2V398z"/>
		</g>
	</g>
</g>
<line fill="none" stroke="#000000" stroke-miterlimit="10" x1="328.2" y1="288.7" x2="328.2" y2="308.4"/>
<line fill="none" stroke="#000000" stroke-miterlimit="10" x1="328.2" y1="325.7" x2="328.2" y2="412"/>
<g>
	<path d="M642.2,325.8v1.9h-6.9l-1,5.3c0.8-0.2,1.6-0.4,2.3-0.4c1.8,0,3.2,0.6,4.4,1.8c1.1,1.2,1.7,2.7,1.7,4.6
		c0,1.3-0.3,2.4-0.9,3.5c-0.6,1.1-1.4,1.9-2.4,2.5s-2.2,0.9-3.5,0.9c-1.6,0-2.9-0.5-4-1.4c-1.1-1-1.7-2.2-1.9-3.7h2
		c0.1,0.7,0.4,1.4,0.8,1.8c0.4,0.5,0.8,0.8,1.4,1.1s1.2,0.4,1.9,0.4c1.3,0,2.4-0.5,3.3-1.5c0.9-1,1.4-2.2,1.4-3.6
		c0-1.3-0.4-2.4-1.2-3.2c-0.8-0.8-1.9-1.2-3.3-1.2c-1.1,0-2.5,0.3-4.2,1l1.8-9.7H642.2z"/>
	<path d="M655.4,325.3h0.4v13.6h2.4v1.9h-2.4v4.5h-1.9v-4.5h-9.3L655.4,325.3z M653.9,338.9v-8.2l-5.8,8.2H653.9z"/>
	<path d="M662,331.9h-1.9c0.1-1.9,0.7-3.5,1.9-4.7c1.2-1.2,2.7-1.8,4.6-1.8c1.8,0,3.2,0.6,4.3,1.7c1.1,1.2,1.7,2.5,1.7,4.1
		c0,1.1-0.3,2.1-0.8,3.1c-0.5,1-1.6,2.3-3.1,3.9l-4.8,5.2h9v1.9h-13.2l7.4-8c1.5-1.6,2.5-2.8,2.9-3.6c0.5-0.8,0.7-1.6,0.7-2.5
		c0-1.1-0.4-2-1.2-2.8c-0.8-0.8-1.8-1.2-3-1.2c-1.2,0-2.3,0.4-3.1,1.2C662.6,329.3,662.1,330.4,662,331.9z"/>
	<path d="M674.8,335.6c0-2.6,0.3-4.5,0.8-5.9s1.3-2.5,2.3-3.2c1-0.7,2.1-1.1,3.4-1.1c1.3,0,2.4,0.4,3.4,1.1c1,0.7,1.8,1.8,2.4,3.3
		s0.9,3.4,0.9,5.9c0,2.4-0.3,4.4-0.9,5.8s-1.4,2.5-2.4,3.3c-1,0.7-2.2,1.1-3.4,1.1c-1.2,0-2.4-0.4-3.4-1.1c-1-0.7-1.8-1.8-2.3-3.2
		S674.8,338.1,674.8,335.6z M676.6,335.6c0,2.2,0.2,3.9,0.6,5c0.4,1.1,1,2,1.7,2.6s1.6,0.9,2.4,0.9c0.9,0,1.7-0.3,2.4-0.9
		c0.7-0.6,1.3-1.4,1.7-2.6c0.5-1.4,0.7-3.1,0.7-5c0-2-0.2-3.6-0.6-4.8s-1-2.2-1.8-2.7s-1.6-0.9-2.4-0.9c-0.9,0-1.7,0.3-2.4,0.9
		s-1.3,1.4-1.7,2.6C676.8,331.7,676.6,333.4,676.6,335.6z"/>
	<path d="M698.3,325.8h12.3l-10.4,19.9l-1.6-0.8l9-17.3h-9.3V325.8z"/>
	<path d="M724.7,325.8v1.9h-6.9l-1,5.3c0.8-0.2,1.6-0.4,2.3-0.4c1.8,0,3.2,0.6,4.4,1.8c1.1,1.2,1.7,2.7,1.7,4.6
		c0,1.3-0.3,2.4-0.9,3.5c-0.6,1.1-1.4,1.9-2.4,2.5s-2.2,0.9-3.5,0.9c-1.6,0-2.9-0.5-4-1.4c-1.1-1-1.7-2.2-1.9-3.7h2
		c0.1,0.7,0.4,1.4,0.8,1.8c0.4,0.5,0.8,0.8,1.4,1.1s1.2,0.4,1.9,0.4c1.3,0,2.4-0.5,3.3-1.5c0.9-1,1.4-2.2,1.4-3.6
		c0-1.3-0.4-2.4-1.2-3.2c-0.8-0.8-1.9-1.2-3.3-1.2c-1.1,0-2.5,0.3-4.2,1l1.8-9.7H724.7z"/>
	<path d="M730,330.3h-2c0.4-1.6,1.1-2.8,2.1-3.7c1-0.9,2.2-1.3,3.6-1.3c1,0,2,0.2,2.8,0.7c0.9,0.5,1.6,1.1,2,1.9
		c0.5,0.8,0.7,1.6,0.7,2.5c0,1.7-0.8,3-2.5,4c0.9,0.4,1.7,0.9,2.3,1.7c0.8,1,1.3,2.2,1.3,3.5c0,1.1-0.3,2.2-0.9,3.2
		c-0.6,1-1.4,1.8-2.4,2.3c-1,0.5-2.1,0.8-3.4,0.8c-1.7,0-3.1-0.5-4.2-1.4c-1.1-1-1.9-2.4-2.2-4.2h1.9c0.3,1.3,0.8,2.2,1.4,2.7
		c0.8,0.7,1.8,1.1,3.1,1.1c1.4,0,2.5-0.4,3.4-1.3c0.9-0.8,1.3-1.8,1.3-3c0-0.8-0.2-1.5-0.6-2.1c-0.4-0.7-1-1.2-1.7-1.5
		c-0.7-0.3-1.8-0.5-3.3-0.6v-1.8c0.9,0,1.7-0.2,2.4-0.5c0.7-0.3,1.3-0.7,1.6-1.2c0.3-0.5,0.5-1,0.5-1.6c0-0.8-0.3-1.6-1-2.2
		c-0.7-0.6-1.5-0.9-2.6-0.9c-0.8,0-1.6,0.2-2.2,0.7C730.9,328.4,730.4,329.2,730,330.3z"/>
	<path d="M742.2,335.6c0-2.6,0.3-4.5,0.8-5.9s1.3-2.5,2.3-3.2c1-0.7,2.1-1.1,3.4-1.1c1.3,0,2.4,0.4,3.4,1.1c1,0.7,1.8,1.8,2.4,3.3
		s0.9,3.4,0.9,5.9c0,2.4-0.3,4.4-0.9,5.8s-1.4,2.5-2.4,3.3c-1,0.7-2.2,1.1-3.4,1.1c-1.2,0-2.4-0.4-3.4-1.1c-1-0.7-1.8-1.8-2.3-3.2
		S742.2,338.1,742.2,335.6z M744.1,335.6c0,2.2,0.2,3.9,0.6,5c0.4,1.1,1,2,1.7,2.6s1.6,0.9,2.4,0.9c0.9,0,1.7-0.3,2.4-0.9
		c0.7-0.6,1.3-1.4,1.7-2.6c0.5-1.4,0.7-3.1,0.7-5c0-2-0.2-3.6-0.6-4.8s-1-2.2-1.8-2.7s-1.6-0.9-2.4-0.9c-0.9,0-1.7,0.3-2.4,0.9
		s-1.3,1.4-1.7,2.6C744.3,331.7,744.1,333.4,744.1,335.6z"/>
	<path d="M783,340.5l1.6,0.8c-0.5,1-1.1,1.8-1.8,2.4c-0.7,0.6-1.4,1.1-2.3,1.4c-0.8,0.3-1.8,0.5-2.8,0.5c-2.3,0-4.2-0.8-5.5-2.3
		c-1.3-1.5-2-3.3-2-5.2c0-1.8,0.6-3.4,1.7-4.9c1.4-1.8,3.3-2.7,5.7-2.7c2.5,0,4.4,0.9,5.9,2.8c1,1.3,1.6,3,1.6,4.9h-12.9
		c0,1.7,0.6,3,1.6,4.1c1,1.1,2.3,1.6,3.8,1.6c0.7,0,1.4-0.1,2.1-0.4c0.7-0.3,1.3-0.6,1.8-1C782,342.1,782.5,341.4,783,340.5z
		 M783,336.6c-0.2-1-0.6-1.8-1.1-2.4c-0.5-0.6-1.1-1.1-1.9-1.4s-1.6-0.5-2.4-0.5c-1.4,0-2.6,0.5-3.6,1.4c-0.7,0.7-1.3,1.7-1.7,3H783
		z"/>
	<path d="M786.9,330.9h2.2l3.8,5.3l3.8-5.3h2.2l-4.9,6.8l5.5,7.6h-2.3l-4.4-6l-4.4,6h-2.2l5.4-7.6L786.9,330.9z"/>
	<path d="M803.1,325.6h1.9v5.3h2.9v1.6H805v12.8h-1.9v-12.8h-2.5v-1.6h2.5V325.6z"/>
	<path d="M812.7,342.4c0.4,0,0.8,0.2,1.1,0.5c0.3,0.3,0.5,0.7,0.5,1.2c0,0.4-0.2,0.8-0.5,1.2c-0.3,0.3-0.7,0.5-1.1,0.5
		s-0.8-0.2-1.1-0.5s-0.5-0.7-0.5-1.2c0-0.5,0.2-0.8,0.5-1.2S812.3,342.4,812.7,342.4z"/>
	<path d="M821.7,331.9h-1.9c0.1-1.9,0.7-3.5,1.9-4.7c1.2-1.2,2.7-1.8,4.6-1.8c1.8,0,3.2,0.6,4.3,1.7c1.1,1.2,1.7,2.5,1.7,4.1
		c0,1.1-0.3,2.1-0.8,3.1c-0.5,1-1.6,2.3-3.1,3.9l-4.8,5.2h9v1.9h-13.2l7.4-8c1.5-1.6,2.5-2.8,2.9-3.6c0.5-0.8,0.7-1.6,0.7-2.5
		c0-1.1-0.4-2-1.2-2.8c-0.8-0.8-1.8-1.2-3-1.2c-1.2,0-2.3,0.4-3.1,1.2C822.3,329.3,821.9,330.4,821.7,331.9z"/>
	<path d="M836.7,331.9h-1.9c0.1-1.9,0.7-3.5,1.9-4.7c1.2-1.2,2.7-1.8,4.6-1.8c1.8,0,3.2,0.6,4.3,1.7c1.1,1.2,1.7,2.5,1.7,4.1
		c0,1.1-0.3,2.1-0.8,3.1c-0.5,1-1.6,2.3-3.1,3.9l-4.8,5.2h9v1.9h-13.2l7.4-8c1.5-1.6,2.5-2.8,2.9-3.6c0.5-0.8,0.7-1.6,0.7-2.5
		c0-1.1-0.4-2-1.2-2.8c-0.8-0.8-1.8-1.2-3-1.2c-1.2,0-2.3,0.4-3.1,1.2C837.3,329.3,836.9,330.4,836.7,331.9z"/>
	<path d="M853.8,345.8l-1.6-1l5.3-8c-0.7,0.2-1.4,0.3-2,0.3c-1.5,0-2.9-0.6-3.9-1.7c-1.1-1.1-1.6-2.5-1.6-4.1c0-1.1,0.3-2.1,0.8-3
		c0.5-0.9,1.3-1.6,2.2-2.2c1-0.5,2-0.8,3.1-0.8c1.1,0,2.1,0.3,3,0.8c0.9,0.5,1.6,1.2,2.1,2.2c0.5,0.9,0.8,1.9,0.8,3
		c0,0.8-0.2,1.6-0.5,2.5c-0.3,0.9-0.9,1.9-1.7,3.2L853.8,345.8z M855.9,335.4c1.1,0,2.1-0.4,2.9-1.2s1.2-1.8,1.2-2.9
		c0-1.1-0.4-2.1-1.2-2.9c-0.8-0.8-1.8-1.2-2.9-1.2c-1.1,0-2.1,0.4-2.9,1.2c-0.8,0.8-1.2,1.8-1.2,2.9c0,1.1,0.4,2.1,1.2,2.9
		C853.8,335,854.8,335.4,855.9,335.4z"/>
	<path d="M868.6,325.8h3.8v19.4h-1.9v-17.5h-3.1L868.6,325.8z"/>
	<path d="M642.2,358.3v1.8h-6.9l-1,5.3c0.8-0.2,1.6-0.4,2.3-0.4c1.8,0,3.2,0.6,4.4,1.8c1.1,1.2,1.7,2.7,1.7,4.6
		c0,1.3-0.3,2.4-0.9,3.5c-0.6,1.1-1.4,1.9-2.4,2.5s-2.2,0.9-3.5,0.9c-1.6,0-2.9-0.5-4-1.4c-1.1-1-1.7-2.2-1.9-3.7h2
		c0.1,0.7,0.4,1.4,0.8,1.8c0.4,0.5,0.8,0.8,1.4,1.1s1.2,0.4,1.9,0.4c1.3,0,2.4-0.5,3.3-1.5c0.9-1,1.4-2.2,1.4-3.6
		c0-1.3-0.4-2.4-1.2-3.2c-0.8-0.8-1.9-1.2-3.3-1.2c-1.1,0-2.5,0.3-4.2,1l1.8-9.7H642.2z"/>
	<path d="M655.4,357.8h0.4v13.6h2.4v1.9h-2.4v4.5h-1.9v-4.5h-9.3L655.4,357.8z M653.9,371.4v-8.2l-5.8,8.2H653.9z"/>
	<path d="M662,364.4h-1.9c0.1-1.9,0.7-3.5,1.9-4.7c1.2-1.2,2.7-1.8,4.6-1.8c1.8,0,3.2,0.6,4.3,1.7c1.1,1.2,1.7,2.5,1.7,4.1
		c0,1.1-0.3,2.1-0.8,3.1c-0.5,1-1.6,2.3-3.1,3.9l-4.8,5.2h9v1.9h-13.2l7.4-8c1.5-1.6,2.5-2.8,2.9-3.6c0.5-0.8,0.7-1.6,0.7-2.5
		c0-1.1-0.4-2-1.2-2.8c-0.8-0.8-1.8-1.2-3-1.2c-1.2,0-2.3,0.4-3.1,1.2C662.6,361.7,662.1,362.9,662,364.4z"/>
	<path d="M674.8,368c0-2.6,0.3-4.5,0.8-5.9c0.6-1.4,1.3-2.5,2.3-3.2c1-0.7,2.1-1.1,3.4-1.1c1.3,0,2.4,0.4,3.4,1.1
		c1,0.7,1.8,1.8,2.4,3.3c0.6,1.5,0.9,3.4,0.9,5.9c0,2.4-0.3,4.4-0.9,5.8c-0.6,1.4-1.4,2.5-2.4,3.3c-1,0.7-2.2,1.1-3.4,1.1
		c-1.2,0-2.4-0.4-3.4-1.1c-1-0.7-1.8-1.8-2.3-3.2S674.8,370.6,674.8,368z M676.6,368.1c0,2.2,0.2,3.9,0.6,5c0.4,1.1,1,2,1.7,2.6
		s1.6,0.9,2.4,0.9c0.9,0,1.7-0.3,2.4-0.9c0.7-0.6,1.3-1.4,1.7-2.6c0.5-1.4,0.7-3.1,0.7-5c0-2-0.2-3.6-0.6-4.8
		c-0.4-1.2-1-2.2-1.8-2.7c-0.8-0.6-1.6-0.9-2.4-0.9c-0.9,0-1.7,0.3-2.4,0.9c-0.8,0.6-1.3,1.4-1.7,2.6S676.6,365.9,676.6,368.1z"/>
	<path d="M698.3,358.3h12.3l-10.4,19.9l-1.6-0.8l9-17.3h-9.3V358.3z"/>
	<path d="M724.7,358.3v1.8h-6.9l-1,5.3c0.8-0.2,1.6-0.4,2.3-0.4c1.8,0,3.2,0.6,4.4,1.8c1.1,1.2,1.7,2.7,1.7,4.6
		c0,1.3-0.3,2.4-0.9,3.5c-0.6,1.1-1.4,1.9-2.4,2.5s-2.2,0.9-3.5,0.9c-1.6,0-2.9-0.5-4-1.4c-1.1-1-1.7-2.2-1.9-3.7h2
		c0.1,0.7,0.4,1.4,0.8,1.8c0.4,0.5,0.8,0.8,1.4,1.1s1.2,0.4,1.9,0.4c1.3,0,2.4-0.5,3.3-1.5c0.9-1,1.4-2.2,1.4-3.6
		c0-1.3-0.4-2.4-1.2-3.2c-0.8-0.8-1.9-1.2-3.3-1.2c-1.1,0-2.5,0.3-4.2,1l1.8-9.7H724.7z"/>
	<path d="M730,362.8h-2c0.4-1.6,1.1-2.8,2.1-3.7s2.2-1.3,3.6-1.3c1,0,2,0.2,2.8,0.7c0.9,0.5,1.6,1.1,2,1.9c0.5,0.8,0.7,1.6,0.7,2.5
		c0,1.7-0.8,3-2.5,4c0.9,0.4,1.7,0.9,2.3,1.7c0.8,1,1.3,2.2,1.3,3.5c0,1.1-0.3,2.2-0.9,3.2c-0.6,1-1.4,1.8-2.4,2.3
		c-1,0.5-2.1,0.8-3.4,0.8c-1.7,0-3.1-0.5-4.2-1.4c-1.1-1-1.9-2.4-2.2-4.2h1.9c0.3,1.3,0.8,2.2,1.4,2.7c0.8,0.7,1.8,1.1,3.1,1.1
		c1.4,0,2.5-0.4,3.4-1.3c0.9-0.8,1.3-1.8,1.3-3c0-0.8-0.2-1.5-0.6-2.1c-0.4-0.7-1-1.2-1.7-1.5c-0.7-0.3-1.8-0.5-3.3-0.6v-1.8
		c0.9,0,1.7-0.2,2.4-0.5c0.7-0.3,1.3-0.7,1.6-1.2c0.3-0.5,0.5-1,0.5-1.6c0-0.8-0.3-1.6-1-2.2c-0.7-0.6-1.5-0.9-2.6-0.9
		c-0.8,0-1.6,0.2-2.2,0.7C730.9,360.9,730.4,361.7,730,362.8z"/>
	<path d="M742.2,368c0-2.6,0.3-4.5,0.8-5.9c0.6-1.4,1.3-2.5,2.3-3.2c1-0.7,2.1-1.1,3.4-1.1c1.3,0,2.4,0.4,3.4,1.1
		c1,0.7,1.8,1.8,2.4,3.3c0.6,1.5,0.9,3.4,0.9,5.9c0,2.4-0.3,4.4-0.9,5.8c-0.6,1.4-1.4,2.5-2.4,3.3c-1,0.7-2.2,1.1-3.4,1.1
		c-1.2,0-2.4-0.4-3.4-1.1c-1-0.7-1.8-1.8-2.3-3.2S742.2,370.6,742.2,368z M744.1,368.1c0,2.2,0.2,3.9,0.6,5c0.4,1.1,1,2,1.7,2.6
		s1.6,0.9,2.4,0.9c0.9,0,1.7-0.3,2.4-0.9c0.7-0.6,1.3-1.4,1.7-2.6c0.5-1.4,0.7-3.1,0.7-5c0-2-0.2-3.6-0.6-4.8
		c-0.4-1.2-1-2.2-1.8-2.7c-0.8-0.6-1.6-0.9-2.4-0.9c-0.9,0-1.7,0.3-2.4,0.9c-0.8,0.6-1.3,1.4-1.7,2.6S744.1,365.9,744.1,368.1z"/>
	<path d="M783,373l1.6,0.8c-0.5,1-1.1,1.8-1.8,2.4c-0.7,0.6-1.4,1.1-2.3,1.4c-0.8,0.3-1.8,0.5-2.8,0.5c-2.3,0-4.2-0.8-5.5-2.3
		c-1.3-1.5-2-3.3-2-5.2c0-1.8,0.6-3.4,1.7-4.9c1.4-1.8,3.3-2.7,5.7-2.7c2.5,0,4.4,0.9,5.9,2.8c1,1.3,1.6,3,1.6,4.9h-12.9
		c0,1.7,0.6,3,1.6,4.1c1,1.1,2.3,1.6,3.8,1.6c0.7,0,1.4-0.1,2.1-0.4c0.7-0.3,1.3-0.6,1.8-1C782,374.6,782.5,373.9,783,373z
		 M783,369.1c-0.2-1-0.6-1.8-1.1-2.4c-0.5-0.6-1.1-1.1-1.9-1.4s-1.6-0.5-2.4-0.5c-1.4,0-2.6,0.5-3.6,1.4c-0.7,0.7-1.3,1.7-1.7,3H783
		z"/>
	<path d="M786.9,363.4h2.2l3.8,5.3l3.8-5.3h2.2l-4.9,6.8l5.5,7.6h-2.3l-4.4-6l-4.4,6h-2.2l5.4-7.6L786.9,363.4z"/>
	<path d="M803.1,358h1.9v5.3h2.9v1.6H805v12.8h-1.9V365h-2.5v-1.6h2.5V358z"/>
	<path d="M812.7,374.8c0.4,0,0.8,0.2,1.1,0.5c0.3,0.3,0.5,0.7,0.5,1.2c0,0.4-0.2,0.8-0.5,1.2c-0.3,0.3-0.7,0.5-1.1,0.5
		s-0.8-0.2-1.1-0.5s-0.5-0.7-0.5-1.2c0-0.5,0.2-0.8,0.5-1.2S812.3,374.8,812.7,374.8z"/>
	<path d="M821.7,364.4h-1.9c0.1-1.9,0.7-3.5,1.9-4.7c1.2-1.2,2.7-1.8,4.6-1.8c1.8,0,3.2,0.6,4.3,1.7c1.1,1.2,1.7,2.5,1.7,4.1
		c0,1.1-0.3,2.1-0.8,3.1c-0.5,1-1.6,2.3-3.1,3.9l-4.8,5.2h9v1.9h-13.2l7.4-8c1.5-1.6,2.5-2.8,2.9-3.6c0.5-0.8,0.7-1.6,0.7-2.5
		c0-1.1-0.4-2-1.2-2.8c-0.8-0.8-1.8-1.2-3-1.2c-1.2,0-2.3,0.4-3.1,1.2C822.3,361.7,821.9,362.9,821.7,364.4z"/>
	<path d="M836.7,364.4h-1.9c0.1-1.9,0.7-3.5,1.9-4.7c1.2-1.2,2.7-1.8,4.6-1.8c1.8,0,3.2,0.6,4.3,1.7c1.1,1.2,1.7,2.5,1.7,4.1
		c0,1.1-0.3,2.1-0.8,3.1c-0.5,1-1.6,2.3-3.1,3.9l-4.8,5.2h9v1.9h-13.2l7.4-8c1.5-1.6,2.5-2.8,2.9-3.6c0.5-0.8,0.7-1.6,0.7-2.5
		c0-1.1-0.4-2-1.2-2.8c-0.8-0.8-1.8-1.2-3-1.2c-1.2,0-2.3,0.4-3.1,1.2C837.3,361.7,836.9,362.9,836.7,364.4z"/>
	<path d="M853.8,378.2l-1.6-1l5.3-8c-0.7,0.2-1.4,0.3-2,0.3c-1.5,0-2.9-0.6-3.9-1.7c-1.1-1.1-1.6-2.5-1.6-4.1c0-1.1,0.3-2.1,0.8-3
		c0.5-0.9,1.3-1.6,2.2-2.2c1-0.5,2-0.8,3.1-0.8c1.1,0,2.1,0.3,3,0.8c0.9,0.5,1.6,1.2,2.1,2.2c0.5,0.9,0.8,1.9,0.8,3
		c0,0.8-0.2,1.6-0.5,2.5c-0.3,0.9-0.9,1.9-1.7,3.2L853.8,378.2z M855.9,367.9c1.1,0,2.1-0.4,2.9-1.2c0.8-0.8,1.2-1.8,1.2-2.9
		s-0.4-2.1-1.2-2.9c-0.8-0.8-1.8-1.2-2.9-1.2c-1.1,0-2.1,0.4-2.9,1.2c-0.8,0.8-1.2,1.8-1.2,2.9s0.4,2.1,1.2,2.9
		C853.8,367.5,854.8,367.9,855.9,367.9z"/>
	<path d="M866.7,364.4h-1.9c0.1-1.9,0.7-3.5,1.9-4.7c1.2-1.2,2.7-1.8,4.6-1.8c1.8,0,3.2,0.6,4.3,1.7c1.1,1.2,1.7,2.5,1.7,4.1
		c0,1.1-0.3,2.1-0.8,3.1c-0.5,1-1.6,2.3-3.1,3.9l-4.8,5.2h9v1.9h-13.2l7.4-8c1.5-1.6,2.5-2.8,2.9-3.6c0.5-0.8,0.7-1.6,0.7-2.5
		c0-1.1-0.4-2-1.2-2.8c-0.8-0.8-1.8-1.2-3-1.2c-1.2,0-2.3,0.4-3.1,1.2C867.3,361.7,866.9,362.9,866.7,364.4z"/>
	<path d="M642.2,390.8v1.8h-6.9l-1,5.3c0.8-0.2,1.6-0.4,2.3-0.4c1.8,0,3.2,0.6,4.4,1.8c1.1,1.2,1.7,2.7,1.7,4.6
		c0,1.3-0.3,2.4-0.9,3.5c-0.6,1.1-1.4,1.9-2.4,2.5s-2.2,0.9-3.5,0.9c-1.6,0-2.9-0.5-4-1.4c-1.1-1-1.7-2.2-1.9-3.7h2
		c0.1,0.7,0.4,1.4,0.8,1.8c0.4,0.5,0.8,0.8,1.4,1.1s1.2,0.4,1.9,0.4c1.3,0,2.4-0.5,3.3-1.5c0.9-1,1.4-2.2,1.4-3.6
		c0-1.3-0.4-2.4-1.2-3.2c-0.8-0.8-1.9-1.2-3.3-1.2c-1.1,0-2.5,0.3-4.2,1l1.8-9.7H642.2z"/>
	<path d="M655.4,390.3h0.4v13.6h2.4v1.9h-2.4v4.5h-1.9v-4.5h-9.3L655.4,390.3z M653.9,403.9v-8.2l-5.8,8.2H653.9z"/>
	<path d="M662,396.9h-1.9c0.1-1.9,0.7-3.5,1.9-4.7c1.2-1.2,2.7-1.8,4.6-1.8c1.8,0,3.2,0.6,4.3,1.7c1.1,1.2,1.7,2.5,1.7,4.1
		c0,1.1-0.3,2.1-0.8,3.1c-0.5,1-1.6,2.3-3.1,3.9l-4.8,5.2h9v1.9h-13.2l7.4-8c1.5-1.6,2.5-2.8,2.9-3.6c0.5-0.8,0.7-1.6,0.7-2.5
		c0-1.1-0.4-2-1.2-2.8c-0.8-0.8-1.8-1.2-3-1.2c-1.2,0-2.3,0.4-3.1,1.2C662.6,394.2,662.1,395.4,662,396.9z"/>
	<path d="M674.8,400.5c0-2.6,0.3-4.5,0.8-5.9c0.6-1.4,1.3-2.5,2.3-3.2c1-0.7,2.1-1.1,3.4-1.1c1.3,0,2.4,0.4,3.4,1.1
		c1,0.7,1.8,1.8,2.4,3.3c0.6,1.5,0.9,3.4,0.9,5.9c0,2.4-0.3,4.4-0.9,5.8c-0.6,1.4-1.4,2.5-2.4,3.3c-1,0.7-2.2,1.1-3.4,1.1
		c-1.2,0-2.4-0.4-3.4-1.1c-1-0.7-1.8-1.8-2.3-3.2S674.8,403.1,674.8,400.5z M676.6,400.5c0,2.2,0.2,3.9,0.6,5c0.4,1.1,1,2,1.7,2.6
		s1.6,0.9,2.4,0.9c0.9,0,1.7-0.3,2.4-0.9c0.7-0.6,1.3-1.4,1.7-2.6c0.5-1.4,0.7-3.1,0.7-5c0-2-0.2-3.6-0.6-4.8
		c-0.4-1.2-1-2.2-1.8-2.7c-0.8-0.6-1.6-0.9-2.4-0.9c-0.9,0-1.7,0.3-2.4,0.9c-0.8,0.6-1.3,1.4-1.7,2.6S676.6,398.3,676.6,400.5z"/>
	<path d="M698.3,390.8h12.3l-10.4,19.9l-1.6-0.8l9-17.3h-9.3V390.8z"/>
	<path d="M724.7,390.8v1.8h-6.9l-1,5.3c0.8-0.2,1.6-0.4,2.3-0.4c1.8,0,3.2,0.6,4.4,1.8c1.1,1.2,1.7,2.7,1.7,4.6
		c0,1.3-0.3,2.4-0.9,3.5c-0.6,1.1-1.4,1.9-2.4,2.5s-2.2,0.9-3.5,0.9c-1.6,0-2.9-0.5-4-1.4c-1.1-1-1.7-2.2-1.9-3.7h2
		c0.1,0.7,0.4,1.4,0.8,1.8c0.4,0.5,0.8,0.8,1.4,1.1s1.2,0.4,1.9,0.4c1.3,0,2.4-0.5,3.3-1.5c0.9-1,1.4-2.2,1.4-3.6
		c0-1.3-0.4-2.4-1.2-3.2c-0.8-0.8-1.9-1.2-3.3-1.2c-1.1,0-2.5,0.3-4.2,1l1.8-9.7H724.7z"/>
	<path d="M730,395.3h-2c0.4-1.6,1.1-2.8,2.1-3.7s2.2-1.3,3.6-1.3c1,0,2,0.2,2.8,0.7c0.9,0.5,1.6,1.1,2,1.9c0.5,0.8,0.7,1.6,0.7,2.5
		c0,1.7-0.8,3-2.5,4c0.9,0.4,1.7,0.9,2.3,1.7c0.8,1,1.3,2.2,1.3,3.5c0,1.1-0.3,2.2-0.9,3.2c-0.6,1-1.4,1.8-2.4,2.3
		c-1,0.5-2.1,0.8-3.4,0.8c-1.7,0-3.1-0.5-4.2-1.4c-1.1-1-1.9-2.4-2.2-4.2h1.9c0.3,1.3,0.8,2.2,1.4,2.7c0.8,0.7,1.8,1.1,3.1,1.1
		c1.4,0,2.5-0.4,3.4-1.3c0.9-0.8,1.3-1.8,1.3-3c0-0.8-0.2-1.5-0.6-2.1c-0.4-0.7-1-1.2-1.7-1.5c-0.7-0.3-1.8-0.5-3.3-0.6v-1.8
		c0.9,0,1.7-0.2,2.4-0.5c0.7-0.3,1.3-0.7,1.6-1.2c0.3-0.5,0.5-1,0.5-1.6c0-0.8-0.3-1.6-1-2.2c-0.7-0.6-1.5-0.9-2.6-0.9
		c-0.8,0-1.6,0.2-2.2,0.7C730.9,393.4,730.4,394.2,730,395.3z"/>
	<path d="M742.2,400.5c0-2.6,0.3-4.5,0.8-5.9c0.6-1.4,1.3-2.5,2.3-3.2c1-0.7,2.1-1.1,3.4-1.1c1.3,0,2.4,0.4,3.4,1.1
		c1,0.7,1.8,1.8,2.4,3.3c0.6,1.5,0.9,3.4,0.9,5.9c0,2.4-0.3,4.4-0.9,5.8c-0.6,1.4-1.4,2.5-2.4,3.3c-1,0.7-2.2,1.1-3.4,1.1
		c-1.2,0-2.4-0.4-3.4-1.1c-1-0.7-1.8-1.8-2.3-3.2S742.2,403.1,742.2,400.5z M744.1,400.5c0,2.2,0.2,3.9,0.6,5c0.4,1.1,1,2,1.7,2.6
		s1.6,0.9,2.4,0.9c0.9,0,1.7-0.3,2.4-0.9c0.7-0.6,1.3-1.4,1.7-2.6c0.5-1.4,0.7-3.1,0.7-5c0-2-0.2-3.6-0.6-4.8
		c-0.4-1.2-1-2.2-1.8-2.7c-0.8-0.6-1.6-0.9-2.4-0.9c-0.9,0-1.7,0.3-2.4,0.9c-0.8,0.6-1.3,1.4-1.7,2.6S744.1,398.3,744.1,400.5z"/>
	<path d="M783,405.5l1.6,0.8c-0.5,1-1.1,1.8-1.8,2.4c-0.7,0.6-1.4,1.1-2.3,1.4c-0.8,0.3-1.8,0.5-2.8,0.5c-2.3,0-4.2-0.8-5.5-2.3
		c-1.3-1.5-2-3.3-2-5.2c0-1.8,0.6-3.4,1.7-4.9c1.4-1.8,3.3-2.7,5.7-2.7c2.5,0,4.4,0.9,5.9,2.8c1,1.3,1.6,3,1.6,4.9h-12.9
		c0,1.7,0.6,3,1.6,4.1c1,1.1,2.3,1.6,3.8,1.6c0.7,0,1.4-0.1,2.1-0.4c0.7-0.3,1.3-0.6,1.8-1C782,407.1,782.5,406.4,783,405.5z
		 M783,401.6c-0.2-1-0.6-1.8-1.1-2.4c-0.5-0.6-1.1-1.1-1.9-1.4s-1.6-0.5-2.4-0.5c-1.4,0-2.6,0.5-3.6,1.4c-0.7,0.7-1.3,1.7-1.7,3H783
		z"/>
	<path d="M786.9,395.9h2.2l3.8,5.3l3.8-5.3h2.2l-4.9,6.8l5.5,7.6h-2.3l-4.4-6l-4.4,6h-2.2l5.4-7.6L786.9,395.9z"/>
	<path d="M803.1,390.5h1.9v5.3h2.9v1.6H805v12.8h-1.9v-12.8h-2.5v-1.6h2.5V390.5z"/>
	<path d="M812.7,407.3c0.4,0,0.8,0.2,1.1,0.5c0.3,0.3,0.5,0.7,0.5,1.2c0,0.4-0.2,0.8-0.5,1.2c-0.3,0.3-0.7,0.5-1.1,0.5
		s-0.8-0.2-1.1-0.5s-0.5-0.7-0.5-1.2c0-0.5,0.2-0.8,0.5-1.2S812.3,407.3,812.7,407.3z"/>
	<path d="M821.7,396.9h-1.9c0.1-1.9,0.7-3.5,1.9-4.7c1.2-1.2,2.7-1.8,4.6-1.8c1.8,0,3.2,0.6,4.3,1.7c1.1,1.2,1.7,2.5,1.7,4.1
		c0,1.1-0.3,2.1-0.8,3.1c-0.5,1-1.6,2.3-3.1,3.9l-4.8,5.2h9v1.9h-13.2l7.4-8c1.5-1.6,2.5-2.8,2.9-3.6c0.5-0.8,0.7-1.6,0.7-2.5
		c0-1.1-0.4-2-1.2-2.8c-0.8-0.8-1.8-1.2-3-1.2c-1.2,0-2.3,0.4-3.1,1.2C822.3,394.2,821.9,395.4,821.7,396.9z"/>
	<path d="M836.7,396.9h-1.9c0.1-1.9,0.7-3.5,1.9-4.7c1.2-1.2,2.7-1.8,4.6-1.8c1.8,0,3.2,0.6,4.3,1.7c1.1,1.2,1.7,2.5,1.7,4.1
		c0,1.1-0.3,2.1-0.8,3.1c-0.5,1-1.6,2.3-3.1,3.9l-4.8,5.2h9v1.9h-13.2l7.4-8c1.5-1.6,2.5-2.8,2.9-3.6c0.5-0.8,0.7-1.6,0.7-2.5
		c0-1.1-0.4-2-1.2-2.8c-0.8-0.8-1.8-1.2-3-1.2c-1.2,0-2.3,0.4-3.1,1.2C837.3,394.2,836.9,395.4,836.7,396.9z"/>
	<path d="M849.5,400.5c0-2.6,0.3-4.5,0.8-5.9c0.6-1.4,1.3-2.5,2.3-3.2c1-0.7,2.1-1.1,3.4-1.1c1.3,0,2.4,0.4,3.4,1.1
		c1,0.7,1.8,1.8,2.4,3.3c0.6,1.5,0.9,3.4,0.9,5.9c0,2.4-0.3,4.4-0.9,5.8c-0.6,1.4-1.4,2.5-2.4,3.3c-1,0.7-2.2,1.1-3.4,1.1
		c-1.2,0-2.4-0.4-3.4-1.1c-1-0.7-1.8-1.8-2.3-3.2S849.5,403.1,849.5,400.5z M851.3,400.5c0,2.2,0.2,3.9,0.6,5c0.4,1.1,1,2,1.7,2.6
		s1.6,0.9,2.4,0.9c0.9,0,1.7-0.3,2.4-0.9c0.7-0.6,1.3-1.4,1.7-2.6c0.5-1.4,0.7-3.1,0.7-5c0-2-0.2-3.6-0.6-4.8
		c-0.4-1.2-1-2.2-1.8-2.7c-0.8-0.6-1.6-0.9-2.4-0.9c-0.9,0-1.7,0.3-2.4,0.9c-0.8,0.6-1.3,1.4-1.7,2.6S851.3,398.3,851.3,400.5z"/>
	<path d="M876.9,390.8v1.8H870l-1,5.3c0.8-0.2,1.6-0.4,2.3-0.4c1.8,0,3.2,0.6,4.4,1.8c1.1,1.2,1.7,2.7,1.7,4.6
		c0,1.3-0.3,2.4-0.9,3.5c-0.6,1.1-1.4,1.9-2.4,2.5s-2.2,0.9-3.5,0.9c-1.6,0-2.9-0.5-4-1.4c-1.1-1-1.7-2.2-1.9-3.7h2
		c0.1,0.7,0.4,1.4,0.8,1.8c0.4,0.5,0.8,0.8,1.4,1.1s1.2,0.4,1.9,0.4c1.3,0,2.4-0.5,3.3-1.5c0.9-1,1.4-2.2,1.4-3.6
		c0-1.3-0.4-2.4-1.2-3.2c-0.8-0.8-1.9-1.2-3.3-1.2c-1.1,0-2.5,0.3-4.2,1l1.8-9.7H876.9z"/>
</g>
</svg>
