<?xml version="1.0" encoding="utf-8"?>
<!-- Generator: Adobe Illustrator 18.0.0, SVG Export Plug-In . SVG Version: 6.00 Build 0)  -->
<!DOCTYPE svg PUBLIC "-//W3C//DTD SVG 1.1//EN" "http://www.w3.org/Graphics/SVG/1.1/DTD/svg11.dtd">
<svg version="1.1" id="Capa_1" xmlns="http://www.w3.org/2000/svg" xmlns:xlink="http://www.w3.org/1999/xlink" x="0px" y="0px"
	 viewBox="0 0 920 177" enable-background="new 0 0 920 177" xml:space="preserve">
<g>
	<path fill="#FFFFFF" d="M840.4,96.4h12.3c4.6,0,6.5-1.9,6.5-6.5V58.7c0-3.9-0.7-9.6-0.7-9.6h0.2c0,0,3,5.8,5.7,9.6l26,37.7h11.3
		V40.9c0-1.3,0.8-2.1,2.1-2.1h4.1V28.1h-12.3c-4.6,0-6.5,2-6.5,6.5v31.3c0,3.9,0.7,9.6,0.7,9.6h-0.2c0,0-3-5.7-5.7-9.6L858,28.1
		h-11.3v55.5c0,1.3-0.8,2.1-2.1,2.1h-4.1V96.4z M794,23.6h8.9l10.1-13.1h-11.7L794,23.6z M776.7,61.8c0-13.1,9.9-23.1,22.2-23.1
		c12.3,0,22.2,10,22.2,23.1c0,13.7-9.9,24-22.2,24C786.6,85.8,776.7,75.4,776.7,61.8 M763.6,61.8c0,20.1,15.2,35.8,35.3,35.8
		s35.3-15.7,35.3-35.8c0-19.5-15.2-34.8-35.3-34.8S763.6,42.2,763.6,61.8 M731.5,96.4h25.6V85.7h-6.8V38.8h6.8V28.1h-25.6v10.7h6.8
		v46.9h-6.8V96.4z M662.6,61.7c0,20.2,14.2,35.9,35.1,35.9c17.6,0,27.5-11.7,27.5-11.7l-6.6-9c0,0-7.8,9-20.7,9
		c-12.4,0-22.2-10.8-22.2-24.1c0-14.2,9.6-23,21.8-23c6,0,14.1,2.3,14.1,7.3v3.8h11.4v-7.6c0-11.6-17.1-15.3-25.9-15.3
		C677.4,26.9,662.6,41.9,662.6,61.7 M619.9,68.5l5.9-17.1c1.2-3.8,2.7-10.2,2.7-10.2h0.2c0,0,1.4,6.4,2.7,10.2l5.9,17.1H619.9z
		 M597.2,96.4h7.6c4.8,0,6.4-1.2,8-5.6l4.2-11.9h23.1l4.2,11.9c1.5,4.3,3.3,5.6,8.1,5.6h7.5V85.7h-1.5c-1.6,0-2.4-0.4-3-2.1
		l-20.2-55.5H622l-20.3,55.5c-0.6,1.7-1.3,2.1-3,2.1h-1.5V96.4z M514.2,96.4h10.9c4.5,0,6.2-1.9,6.5-6.5l2.2-30.4
		c0.4-4.5,0.1-10.7,0.1-10.7h0.2c0,0,2,6.8,3.8,10.7l11.3,25.2h10.2l11.3-25.2c1.7-3.8,3.8-10.6,3.8-10.6h0.2c0,0-0.3,6.1,0.1,10.6
		l2.3,30.4c0.4,4.6,1.9,6.5,6.4,6.5h10.9V85.7h-3c-1.3,0-2-0.8-2.1-2.1l-4.4-55.5h-13.1l-14,32.5c-1.6,3.9-3.4,9.1-3.4,9.1h-0.2
		c0,0-1.7-5.2-3.4-9.1l-14-32.5h-13.1l-4.4,55.5c-0.1,1.3-0.8,2.1-2.1,2.1h-3V96.4z M473.8,60.1V38.8H484c6.2,0,9.9,3.8,9.9,10.6
		c0,6.8-3.8,10.8-10.1,10.8H473.8z M461.2,96.4h12.6V70.9h6.3c3.6,0,5,0.5,6.4,3.2l8.8,17.2c2.2,4.3,4.4,5.1,9.5,5.1h6.6V85.7h-1.3
		c-2.1,0-3.7-0.2-4.8-2.2l-6.6-13.2c-1.2-2.5-3.4-3.5-3.4-3.5v-0.2c2.9-0.6,11.3-5.7,11.3-18c0-12.9-8.8-20.6-21.3-20.6H455v10.7
		h6.3V96.4z M391.3,61.8c0-13.1,9.9-23.1,22.2-23.1c12.3,0,22.2,10,22.2,23.1c0,13.7-9.9,24-22.2,24
		C401.2,85.8,391.3,75.4,391.3,61.8 M378.2,61.8c0,20.1,15.2,35.8,35.3,35.8c20.1,0,35.3-15.7,35.3-35.8c0-19.5-15.2-34.8-35.3-34.8
		C393.4,26.9,378.2,42.2,378.2,61.8 M335.2,96.4h12.6V68.8h21.8V58.1h-21.8V38.8H361c1.3,0,2.1,0.8,2.1,2.1V45h11.3V34.6
		c0-4.5-1.9-6.5-6.5-6.5H329v10.7h6.3V96.4z M276,86.9c0,0,8.4,10.6,23.5,10.6c14.3,0,22.7-9.2,22.7-20.1
		c0-22.4-32.1-20.1-32.1-31.7c0-4.3,4.2-7.3,10-7.3c4.5,0,9,2.1,9,5.3v3.1h11.3v-6.3c0-9.7-12.3-13.5-20.3-13.5
		c-13.2,0-22.8,8.2-22.8,19.2c0,21.3,32.1,20.3,32.1,31.9c0,5.3-4.6,8.1-9.8,8.1c-9.5,0-16.5-8.1-16.5-8.1L276,86.9z M202.2,96.4
		h12.3c4.6,0,6.5-1.9,6.5-6.5V58.7c0-3.9-0.7-9.6-0.7-9.6h0.2c0,0,3,5.8,5.7,9.6l26,37.7h11.3V40.9c0-1.3,0.8-2.1,2.1-2.1h4.1V28.1
		h-12.3c-4.6,0-6.5,2-6.5,6.5v31.3c0,3.9,0.7,9.6,0.7,9.6h-0.2c0,0-3-5.7-5.7-9.6l-25.9-37.8h-11.3v55.5c0,1.3-0.8,2.1-2.1,2.1h-4.1
		V96.4z M157.8,68.5l5.9-17.1c1.2-3.8,2.7-10.2,2.7-10.2h0.2c0,0,1.4,6.4,2.7,10.2l5.9,17.1H157.8z M135.1,96.4h7.6
		c4.8,0,6.4-1.2,8-5.6l4.2-11.9H178l4.2,11.9c1.5,4.3,3.3,5.6,8.1,5.6h7.5V85.7h-1.5c-1.6,0-2.4-0.4-3-2.1l-20.2-55.5H160
		l-20.3,55.5c-0.6,1.7-1.3,2.1-3,2.1h-1.5V96.4z M94.5,60.1V38.8h10.2c6.2,0,9.9,3.8,9.9,10.6c0,6.8-3.8,10.8-10.1,10.8H94.5z
		 M81.9,96.4h12.6V70.9h6.3c3.6,0,5,0.5,6.4,3.2l8.8,17.2c2.2,4.3,4.4,5.1,9.5,5.1h6.6V85.7h-1.2c-2.1,0-3.8-0.2-4.8-2.2l-6.6-13.2
		c-1.3-2.5-3.4-3.5-3.4-3.5v-0.2c2.9-0.6,11.3-5.7,11.3-18c0-12.9-8.8-20.6-21.3-20.6H75.6v10.7h6.3V96.4z M34.7,96.4h12.6V38.8
		h10.5c1.3,0,2.1,0.8,2.1,2.1V45h11.1V34.2c0-4.5-1.5-6.2-6.2-6.2H17.2c-4.6,0-6.2,1.6-6.2,6.2V45h11.1v-4.1c0-1.3,0.8-2.1,2.1-2.1
		h10.5V96.4z"/>
	<path fill="#FFFFFF" d="M880,146.9l7.2-19.3c0.7-2,1.8-5.7,1.8-5.7h0.1c0,0,1.1,3.7,1.8,5.7l7.3,19.3H880z M867.9,166.1h0.8
		c3.4,0,4.4-0.6,5.6-3.9l4.7-12.5h20.2l4.7,12.5c1.2,3.3,2.2,3.9,5.6,3.9h0.8v-2.7h-0.7c-1.3,0-2.1-0.2-2.6-1.5l-16.3-43.4h-3.2
		l-16.3,43.4c-0.5,1.3-1.3,1.5-2.6,1.5h-0.7V166.1z M850.9,166.1h2.9v-44.9h13.7c1,0,1.5,0.4,1.5,1.5v3.3h2.9v-3.9
		c0-2.8-0.9-3.7-3.7-3.7h-31.8c-2.8,0-3.7,0.9-3.7,3.7v3.9h2.9v-3.3c0-1.1,0.5-1.5,1.5-1.5h13.7V166.1z M800.2,160.4
		c0,0,5.2,6.5,14.6,6.5c8.5,0,13.8-5.9,13.8-12.7c0-15.8-24-12.6-24-25c0-4.5,3.9-8.7,11-8.7c5,0,9.3,2.3,9.3,5.4v2.3h2.9v-3
		c0-5.9-8.2-7.6-12.3-7.6c-8.6,0-13.9,5.5-13.9,11.6c0,14.8,24,11.7,24,25c0,5.7-4.7,9.7-10.6,9.7c-7.9,0-12.7-5.9-12.7-5.9
		L800.2,160.4z M782.5,166.1h11.6v-2.7h-4.4v-42.2h4.4v-2.7h-11.6v2.7h4.4v42.2h-4.4V166.1z M738,150.1c0,10.1,7,16.8,17.1,16.8
		c10.1,0,17.1-6.7,17.1-16.8v-27.4c0-1,0.5-1.5,1.5-1.5h2.9v-2.7h-3.4c-2.8,0-3.9,1.2-3.9,3.9v27.3c0,8.8-5.6,14.3-14.2,14.3
		c-8.6,0-14.1-5.5-14.1-14.1v-27.5c0-2.8-1.2-3.9-3.9-3.9h-3.4v2.7h2.9c1,0,1.5,0.5,1.5,1.5V150.1z M683.1,142
		c0-12.2,9.1-21.5,20.9-21.5c12,0,21.2,9.3,21.2,21.5c0,5.6-2,11-5.2,14.9l-6.1-6.3l-1.9,1.8l6.1,6.3c0,0-5.5,5.2-14.1,5.2
		C692.3,164,683.1,154.3,683.1,142 M680.1,142c0,13.8,10.7,24.9,23.9,24.9c6.3,0,11.8-2.2,16.1-6.1l6.1,6.3l1.9-1.8l-6.1-6.3
		c3.9-4.4,6.3-10.5,6.3-16.9c0-13.7-10.7-24.4-24.2-24.4C690.8,117.7,680.1,128.3,680.1,142 M628.9,166.1h3.4c2.8,0,3.9-1.2,3.9-3.9
		v-33.4c0-2.4-0.3-6-0.3-6h0.1c0,0,2.3,3.8,3.9,6l27.1,37.3h2.7v-43.4c0-1,0.5-1.5,1.5-1.5h2.9v-2.7h-3.4c-2.8,0-3.9,1.2-3.9,3.9
		v33.4c0,2.4,0.3,6,0.3,6h-0.1c0,0-2.3-3.8-3.9-6l-27.1-37.3h-2.7v43.4c0,1-0.5,1.5-1.5,1.5h-2.9V166.1z M578,141.9
		c0-12.1,9.4-21.4,21-21.4s21,9.3,21,21.4c0,12.4-9.4,22.1-21,22.1S578,154.4,578,141.9 M574.9,141.9c0,14,10.8,25,24.1,25
		s24.1-11,24.1-25c0-13.7-10.8-24.3-24.1-24.3S574.9,128.3,574.9,141.9 M528.5,141.9c0,13.8,9.9,25,23.5,25c11.6,0,18-7.6,18-7.6
		l-1.8-2.1c0,0-5.9,6.8-16.1,6.8c-11.8,0-20.5-9.8-20.5-22.1c0-12.2,8.8-21.4,20.3-21.4c6.1,0,14.7,2.7,14.7,7.6v2.7h2.9v-3.4
		c0-6.8-10.7-9.8-17.7-9.8C538.5,117.7,528.5,128.1,528.5,141.9 M488.1,166.1h2.9v-20.7l13.4-22.4c0.8-1.4,2-1.8,3.3-1.8h0.9v-2.7
		h-0.6c-3.4,0-4.5,0.5-6.6,3.9l-8.9,14.8c-1.4,2.3-2.9,5.4-2.9,5.4h-0.1c0,0-1.6-3.1-2.9-5.4l-8.9-14.8c-2.1-3.5-3.2-3.9-6.6-3.9
		h-0.6v2.7h0.9c1.4,0,2.5,0.4,3.3,1.8l13.5,22.4V166.1z M400.8,166.1h3.5c2.9,0,4.1-1.2,4.1-4.1v-34.3c0-2.4-0.3-6.2-0.3-6.2h0.1
		c0,0,2.4,3.9,4,6.2l27.9,38.4h2.8v-44.6c0-1,0.6-1.5,1.5-1.5h3v-2.8h-3.5c-2.9,0-4.1,1.2-4.1,4.1v34.3c0,2.4,0.3,6.2,0.3,6.2H440
		c0,0-2.4-3.9-4-6.2l-27.9-38.4h-2.8v44.6c0,1-0.6,1.5-1.5,1.5h-3V166.1z M368.3,113.6h3.1l5.5-7.8H373L368.3,113.6z M348.5,141.3
		c0-12.4,9.6-22,21.6-22s21.6,9.6,21.6,22c0,12.8-9.6,22.7-21.6,22.7S348.5,154.1,348.5,141.3 M345.3,141.3
		c0,14.4,11.1,25.7,24.8,25.7s24.8-11.3,24.8-25.7c0-14.1-11.1-25-24.8-25S345.3,127.2,345.3,141.3 M327,166.1h12v-2.8h-4.5v-43.3
		h4.5v-2.8h-12v2.8h4.5v43.3H327V166.1z M278.3,141.3c0,14.2,10.1,25.7,24.2,25.7c11.9,0,18.5-7.8,18.5-7.8L319,157
		c0,0-6.1,7-16.6,7c-12.1,0-21-10.1-21-22.7c0-12.6,9-22,20.8-22c6.3,0,15.1,2.8,15.1,7.8v2.8h3v-3.5c0-7-11-10.1-18.2-10.1
		C288.6,116.3,278.3,127.1,278.3,141.3 M244.3,146.4l7.4-19.9c0.8-2.1,1.8-5.9,1.8-5.9h0.1c0,0,1.1,3.8,1.9,5.9l7.5,19.9H244.3z
		 M231.8,166.1h0.8c3.5,0,4.5-0.6,5.7-4.1l4.8-12.9H264l4.8,12.9c1.3,3.4,2.2,4.1,5.7,4.1h0.8v-2.8h-0.8c-1.3,0-2.2-0.2-2.7-1.5
		l-16.7-44.6H252l-16.7,44.6c-0.5,1.3-1.3,1.5-2.7,1.5h-0.8V166.1z M209.5,166.1h3.3l16.7-44.6c0.5-1.3,1.3-1.5,2.7-1.5h0.4v-2.8
		H232c-3.5,0-4.4,0.6-5.7,4.1L213,156.7c-0.8,2.3-1.9,5.9-1.9,5.9H211c0,0-1-3.6-1.9-5.9l-13.2-35.5c-1.3-3.4-2.2-4.1-5.7-4.1h-0.5
		v2.8h0.4c1.3,0,2.2,0.2,2.7,1.5L209.5,166.1z M140.2,141.3c0-12.4,9.6-22,21.6-22c12,0,21.6,9.6,21.6,22c0,12.8-9.6,22.7-21.6,22.7
		C149.9,164,140.2,154.1,140.2,141.3 M137.1,141.3c0,14.4,11.1,25.7,24.8,25.7c13.6,0,24.8-11.3,24.8-25.7c0-14.1-11.1-25-24.8-25
		C148.2,116.3,137.1,127.2,137.1,141.3 M84.5,166.1H88c2.9,0,4.1-1.2,4.1-4.1v-34.3c0-2.4-0.3-6.2-0.3-6.2h0.1c0,0,2.4,3.9,4,6.2
		l27.9,38.4h2.8v-44.6c0-1,0.6-1.5,1.5-1.5h3v-2.8h-3.5c-2.9,0-4.1,1.2-4.1,4.1v34.3c0,2.4,0.3,6.2,0.3,6.2h-0.1c0,0-2.4-3.9-4-6.2
		l-27.9-38.4h-2.8v44.6c0,1-0.6,1.5-1.5,1.5h-3V166.1z M31.7,166.1h3.5c2.9,0,4.1-1.2,4.1-4.1v-34.3c0-2.4-0.3-6.2-0.3-6.2H39
		c0,0,2.4,3.9,4,6.2l27.9,38.4h2.8v-44.6c0-1,0.6-1.5,1.5-1.5h3v-2.8h-3.5c-2.9,0-4.1,1.2-4.1,4.1v34.3c0,2.4,0.3,6.2,0.3,6.2h-0.1
		c0,0-2.4-3.9-4-6.2L39,117.1h-2.8v44.6c0,1-0.6,1.5-1.5,1.5h-3V166.1z M13.1,166.1h12v-2.8h-4.5v-43.3H25v-2.8h-12v2.8h4.5v43.3
		h-4.5V166.1z"/>
</g>
</svg>
