<?xml version="1.0" encoding="utf-8"?>
<!-- Generator: Adobe Illustrator 26.3.1, SVG Export Plug-In . SVG Version: 6.00 Build 0)  -->
<svg version="1.1" id="Capa_2_00000073721671978665025180000016845111532469428617_"
	 xmlns="http://www.w3.org/2000/svg" xmlns:xlink="http://www.w3.org/1999/xlink" x="0px" y="0px" viewBox="0 0 542.2 58.1"
	 style="enable-background:new 0 0 542.2 58.1;" xml:space="preserve">
<style type="text/css">
	.st0{fill:#FFFFFF;}
</style>
<g id="Layer_1">
	<g>
		<path class="st0" d="M28,44.9h-7.1L20.1,55h-4.7l0.8-10.1H9.7v-4.2h6.9l0.9-10h-6.6v-4.2h6.9l1-10.3h4.7l-1,10.3h7.1l1-10.3h4.7
			l-1,10.3h6.5v4.2H34l-0.9,10h6.5v4.2h-6.9L31.9,55h-4.7L28,44.9z M21.3,40.6h7.1l0.9-10h-7.1C22.2,30.6,21.3,40.6,21.3,40.6z"/>
		<path class="st0" d="M56.9,55L42.6,12.1h8l10.3,33.4h0.3l10.5-33.4h7.7L65.1,55L56.9,55L56.9,55z"/>
		<path class="st0" d="M87.2,9c2.6,0,4.4,1.9,4.4,4.3s-1.9,4.2-4.4,4.2c-2.7,0-4.4-1.8-4.4-4.2S84.5,9,87.2,9z M83.4,55V22.6H91V55
			C91,55,83.4,55,83.4,55z"/>
		<path class="st0" d="M122.6,22.6c1.2,4.1,2.1,9.3,2.1,14.2c0,11.9-5.2,19.1-15.5,19.1c-7.6,0-11.3-3.5-11.3-11.5V22.6h7.7v20.3
			c0,3.9,0.3,7,4.4,7c5.4,0,7.1-6.4,7.1-12.6c0-5.4-1.2-10.6-2.2-14.7H122.6L122.6,22.6z"/>
		<path class="st0" d="M154.8,30.5c0,9.9-12.3,11.2-18.2,11.3c0.3,4.2,2.6,8.2,8.1,8.2c3.8,0,6.6-1.7,8.1-2.8l2.4,5.1
			c-1,0.9-5.3,3.6-11.3,3.6c-10.6,0-15-6.8-15-16.5s5.5-17.9,15.7-17.9C150.8,21.6,154.8,24.8,154.8,30.5L154.8,30.5z M144.1,27.1
			c-5.2,0-7.6,5-7.8,9.8c3.5,0.1,11.7-1,11.7-6C147.9,28.5,146.4,27.1,144.1,27.1L144.1,27.1z"/>
		<path class="st0" d="M189.5,12.1h11.4l2.3,42.9h-10.6l-1.2-22.6h-0.2l-6.9,18.3h-7.7L169.7,33h-0.3l-1.2,22h-10.5l2.4-42.9h11.5
			l8.8,24.4h0.3L189.5,12.1L189.5,12.1z"/>
		<path class="st0" d="M235.3,48l0.7,7h-9.1l-0.4-3l-0.4-0.1c-1.9,3-5,4.1-8.3,4.1c-9.9,0-12.4-7.9-12.4-16c0-11.3,5.7-19,17.5-19
			c2.3,0,7.3,0.6,12.5,2.6L235.3,48L235.3,48z M224.6,29.1c-0.7-0.3-1.8-0.5-3-0.5c-4.2,0-5.6,5-5.6,10.6c0,5,0.9,9.1,4.6,9.1
			c2.5,0,3.9-1.8,3.9-3.7L224.6,29.1L224.6,29.1z M224.4,2.1c2.2,0.6,5.9,2.1,5.9,5c0,1.1-0.6,2.2-2.1,3.7c-2.5,2.4-6.5,5.5-8.7,7.2
			l-3.1-2.6L224.4,2.1z"/>
		<path class="st0" d="M241.1,44.8c2.4,1.5,6.7,3.3,9.6,3.3c1.9,0,3.1-0.6,3.1-2.5c0-1.9-1.9-2.6-4.2-3.3
			c-5.1-1.6-10.2-3.5-10.2-10.5S245.1,21,252.3,21c5.2,0,9.8,1.9,12.9,4.8l-4.9,6.2c-2.8-2.2-5.5-3.4-7.5-3.4c-1.8,0-3,0.8-3,2.3
			c0,1.9,1.8,2.7,4.4,3.5c4.8,1.5,10.1,3.6,10.1,10.4c0,7.2-5.2,11-13.1,11c-6,0-11-2.2-13-3.6L241.1,44.8L241.1,44.8z"/>
		<path class="st0" d="M269.6,45.2c2.5,1.5,7.5,3.7,11.9,3.7c3.4,0,6.9-1.1,6.9-5.9c0-4.1-3.7-5.3-8.2-6.5
			c-6.4-1.7-12.3-4.2-12.3-12.5s6.1-12.6,14.5-12.6c6,0,11.4,2.6,14.8,6.1l-4.2,5.2c-3.4-2.8-7-4.6-10.6-4.6c-2.9,0-6.3,1.2-6.3,5.2
			s3.7,5.2,8.6,6.7c5.9,1.9,12,4.4,12,12.7s-6.1,13.1-15.3,13.1c-6.3,0-12.5-2.5-14.7-4.1L269.6,45.2L269.6,45.2z"/>
		<path class="st0" d="M328.4,48.8L329,55h-6.6l-0.5-3.4l-0.3-0.1c-2,2.9-5.3,4.3-8.8,4.3c-9.1,0-12.6-6.4-12.6-15.7
			c0-11.3,5.7-18.6,16.8-18.6c2.1,0,6.8,0.5,11.5,2.3L328.4,48.8L328.4,48.8z M320.8,28c-1-0.5-2.8-0.8-4.8-0.8
			c-6.1,0-8.2,5.7-8.2,12.7c0,5.3,1.3,10.4,6.7,10.4c4,0,6.3-2.8,6.3-5.6L320.8,28L320.8,28z"/>
		<path class="st0" d="M343.2,10.2v34.2c0,4,0.8,5.5,3.5,5.5c1.3,0,2.7-0.5,4.1-1l1.7,5.2c-1.7,1.1-4.9,1.9-7.7,1.9
			c-8.7,0-9.2-5.1-9.2-9.9V10.2H343.2z"/>
		<path class="st0" d="M381,22.6v27l0.5,5.4H375l-0.5-3.8h-0.3c-2.2,3.2-5.7,4.7-9.3,4.7c-7.1,0-10.6-3.7-10.6-11.3v-22h7.7v20.6
			c0,3.9,0.7,6.8,5,6.8c3.5,0,6.4-3.1,6.4-6.2V22.6H381L381,22.6z"/>
		<path class="st0" d="M407.1,22.4V10.2h7.6v38.5l0.6,6.3h-6.6l-0.5-3.5l-0.3-0.1c-2,3-5.2,4.5-8.8,4.5c-10,0-12.7-7.9-12.7-15.9
			c0-11,5.7-18.4,15.6-18.4C404.2,21.6,405.7,21.9,407.1,22.4L407.1,22.4z M407.1,28.2c-1.2-0.5-2.8-1-4.8-1
			c-6.1,0-8.2,5.8-8.2,12.1c0,5.9,1.4,11,6.6,11c3.9,0,6.4-2.8,6.4-5.3L407.1,28.2L407.1,28.2z"/>
		<path class="st0" d="M448.4,48.8L449,55h-6.6l-0.5-3.4l-0.3-0.1c-2,2.9-5.3,4.3-8.8,4.3c-9.1,0-12.6-6.4-12.6-15.7
			c0-11.3,5.7-18.6,16.8-18.6c2.1,0,6.8,0.5,11.5,2.3L448.4,48.8L448.4,48.8z M440.8,28c-1-0.5-2.8-0.8-4.8-0.8
			c-6.1,0-8.2,5.7-8.2,12.7c0,5.3,1.3,10.4,6.7,10.4c4,0,6.3-2.8,6.3-5.6L440.8,28L440.8,28z"/>
		<path class="st0" d="M455.5,10.2h7.7v14.1c1.8-1.7,4.6-2.7,7.6-2.7c8,0,12.8,5.5,12.8,15.6c0,12.6-5.5,18.8-15.3,18.8
			c-4.5,0-10.1-1.2-12.8-2.8L455.5,10.2L455.5,10.2z M463.2,49.2c1.2,0.6,3.4,1.3,5.5,1.3c4.5,0,7.4-3.4,7.4-12.2c0-5-1.2-11-7.2-11
			c-3,0-5.6,1.9-5.6,4.8L463.2,49.2L463.2,49.2z"/>
		<path class="st0" d="M496.6,10.2v34.2c0,4,0.8,5.5,3.5,5.5c1.3,0,2.7-0.5,4.1-1l1.7,5.2c-1.7,1.1-4.9,1.9-7.7,1.9
			c-8.7,0-9.2-5.1-9.2-9.9V10.2H496.6z"/>
		<path class="st0" d="M532.1,30.5c0,9.9-12.3,11.2-18.2,11.3c0.3,4.2,2.6,8.2,8.1,8.2c3.8,0,6.6-1.7,8.1-2.8l2.4,5.1
			c-1,0.9-5.3,3.6-11.3,3.6c-10.6,0-15-6.8-15-16.5s5.5-17.9,15.7-17.9C528.2,21.6,532.1,24.8,532.1,30.5L532.1,30.5z M521.4,27.1
			c-5.2,0-7.6,5-7.8,9.8c3.5,0.1,11.7-1,11.7-6C525.3,28.5,523.7,27.1,521.4,27.1L521.4,27.1z"/>
	</g>
</g>
</svg>
