<?xml version="1.0" encoding="utf-8"?>
<!-- Generator: Adobe Illustrator 24.0.0, SVG Export Plug-In . SVG Version: 6.00 Build 0)  -->
<svg version="1.1" id="Layer_1" xmlns="http://www.w3.org/2000/svg" xmlns:xlink="http://www.w3.org/1999/xlink" x="0px" y="0px"
	 viewBox="0 0 30 30" style="enable-background:new 0 0 30 30;" xml:space="preserve">
<style type="text/css">
	.st0{fill:#FFFFFF;}
</style>
<g>
	<path class="st0" d="M12.2,14.6L2.3,0h4C6.6,0,6.8,0,7,0.1c0.1,0.1,0.3,0.2,0.4,0.4l7.8,12c0.1-0.3,0.2-0.6,0.4-1l7.4-11
		c0.1-0.2,0.3-0.4,0.4-0.5C23.6,0.1,23.7,0,23.9,0h3.9l-9.9,14.4L28.1,30h-4c-0.3,0-0.5-0.1-0.7-0.2c-0.2-0.2-0.3-0.3-0.4-0.5
		l-8-12.6c-0.1,0.3-0.2,0.6-0.4,0.8L6.7,29.2c-0.1,0.2-0.3,0.4-0.4,0.5C6.1,29.9,5.9,30,5.6,30H1.9L12.2,14.6z"/>
</g>
</svg>
