<?xml version="1.0" encoding="utf-8"?>
<!-- Generator: Adobe Illustrator 19.2.1, SVG Export Plug-In . SVG Version: 6.00 Build 0)  -->
<svg version="1.1" id="Layer_1" xmlns="http://www.w3.org/2000/svg" xmlns:xlink="http://www.w3.org/1999/xlink" x="0px" y="0px"
	 viewBox="0 0 60 60" style="enable-background:new 0 0 60 60;" xml:space="preserve">
<style type="text/css">
	.st0{clip-path:url(#SVGID_2_);fill:url(#SVGID_3_);}
	.st1{fill:none;stroke:#000000;stroke-width:1.5;stroke-linecap:round;stroke-linejoin:round;stroke-miterlimit:10;}
	.st2{fill:none;stroke:#000000;stroke-width:1.5;stroke-linejoin:round;stroke-miterlimit:10;}
	.st3{fill:none;stroke:#000000;stroke-width:1.5;stroke-linecap:round;stroke-miterlimit:10;}
	.st4{fill:none;stroke:#282828;stroke-width:1.5;stroke-linecap:round;stroke-linejoin:round;stroke-miterlimit:10;}
	.st5{fill:#FFFFFF;stroke:#282828;stroke-width:1.5;stroke-linecap:round;stroke-linejoin:round;stroke-miterlimit:10;}
	.st6{fill:#282828;}
	.st7{fill:none;stroke:#282828;stroke-width:4;stroke-linejoin:round;stroke-miterlimit:10;}
	.st8{fill:#FFFFFF;stroke:#000000;stroke-width:1.5;stroke-linecap:round;stroke-linejoin:round;stroke-miterlimit:10;}
	.st9{fill:none;stroke:#000000;stroke-width:1.5;stroke-miterlimit:10;}
	.st10{fill:none;stroke:#000000;stroke-miterlimit:10;}
	.st11{fill:none;}
	.st12{fill:#FFFFFF;}
	.st13{fill:none;stroke:#000000;stroke-width:1.5;stroke-linecap:round;stroke-linejoin:round;}
	.st14{fill:none;stroke:#000000;stroke-width:1.5;stroke-linecap:round;stroke-linejoin:round;stroke-dasharray:4.6364,4.6364;}
	.st15{fill:none;stroke:#000000;stroke-width:1.5;stroke-linecap:round;stroke-linejoin:round;stroke-dasharray:5.5541,5.5541;}
	.st16{fill:#FFFFFF;stroke:#000000;stroke-width:1.5;stroke-linejoin:round;stroke-miterlimit:10;}
	.st17{stroke:#000000;stroke-width:1.5;stroke-linecap:round;stroke-linejoin:round;stroke-miterlimit:10;}
	.st18{fill:#FFFFFF;stroke:#000000;stroke-width:2;stroke-linecap:round;stroke-linejoin:round;stroke-miterlimit:10;}
	.st19{fill:#D1D1D1;stroke:#000000;stroke-width:1.5;stroke-linecap:round;stroke-linejoin:round;stroke-miterlimit:10;}
</style>
<path d="M49.226,42.783c-2.144,0-3.888-1.744-3.888-3.888c0-2.144,1.744-3.888,3.888-3.888c2.144,0,3.888,1.744,3.888,3.888
	C53.114,41.039,51.369,42.783,49.226,42.783z M49.226,36.423c-1.363,0-2.473,1.11-2.473,2.473c0,1.363,1.11,2.473,2.473,2.473
	c1.363,0,2.473-1.11,2.473-2.473C51.698,37.532,50.589,36.423,49.226,36.423z"/>
<path d="M40.138,54.347c-2.748,0-4.984-2.236-4.984-4.984c0-2.749,2.236-4.985,4.984-4.985s4.984,2.236,4.984,4.985
	C45.122,52.11,42.886,54.347,40.138,54.347z M40.138,45.877c-1.921,0-3.484,1.563-3.484,3.485c0,1.921,1.563,3.484,3.484,3.484
	s3.484-1.563,3.484-3.484C43.622,47.44,42.059,45.877,40.138,45.877z"/>
<path d="M23.975,54.896c-3.264,0-5.919-2.656-5.919-5.92c0-3.264,2.655-5.92,5.919-5.92s5.92,2.656,5.92,5.92
	C29.895,52.24,27.239,54.896,23.975,54.896z M23.975,44.472c-2.484,0-4.504,2.021-4.504,4.505c0,2.484,2.02,4.505,4.504,4.505
	s4.505-2.021,4.505-4.505C28.479,46.493,26.458,44.472,23.975,44.472z"/>
<path d="M29.721,25.155c-5.585,0-10.129-4.544-10.129-10.129c0-5.586,4.544-10.13,10.129-10.13c5.586,0,10.13,4.544,10.13,10.13
	C39.851,20.61,35.307,25.155,29.721,25.155z M29.721,6.312c-4.805,0-8.713,3.909-8.713,8.714s3.908,8.713,8.713,8.713
	s8.714-3.908,8.714-8.713S34.526,6.312,29.721,6.312z"/>
<path d="M13.916,40.913c-4.568,0-8.285-3.717-8.285-8.286s3.717-8.286,8.285-8.286c4.569,0,8.286,3.717,8.286,8.286
	S18.485,40.913,13.916,40.913z M13.916,25.757c-3.788,0-6.869,3.082-6.869,6.87c0,3.788,3.082,6.87,6.869,6.87
	c3.788,0,6.87-3.082,6.87-6.87C20.786,28.838,17.704,25.757,13.916,25.757z"/>
</svg>
