<?xml version="1.0" encoding="utf-8"?>
<!-- Generator: Adobe Illustrator 19.0.0, SVG Export Plug-In . SVG Version: 6.00 Build 0)  -->
<svg version="1.1" id="Layer_1" xmlns="http://www.w3.org/2000/svg" xmlns:xlink="http://www.w3.org/1999/xlink" x="0px" y="0px"
	 viewBox="0 0 628.2 166.9" style="enable-background:new 0 0 628.2 166.9;" xml:space="preserve">
<style type="text/css">
	.st0{fill:#FFFFFF;}
</style>
<path class="st0" d="M62.4,64.3c-0.4-1.6-0.3-3.2-0.1-4.1c0.5-2.5,2.2-5.2,7.1-5.2c4.6,0,7.2,2.8,7.2,7.1c0,1.4,0,4.8,0,4.8h19.4
	v-5.5c0-16.9-15.3-19.6-26.3-19.6C56,41.7,44.7,46.3,42.6,59c-0.6,3.5-0.7,6.6,0.2,10.5c3.4,15.9,31.1,20.5,35.1,30.6
	c0.8,1.9,0.5,4.3,0.2,5.8c-0.6,2.6-2.4,5.3-7.6,5.3c-4.9,0-7.8-2.8-7.8-7.1l0-7.5H41.7v6c0,17.4,13.7,22.6,28.3,22.6
	c14.1,0,25.6-4.8,27.5-17.8c0.9-6.7,0.2-11.1-0.1-12.7C94.2,78.2,64.6,73.4,62.4,64.3z M315.7,64.5c-0.3-1.5-0.2-3.2-0.1-4
	c0.6-2.5,2.2-5.2,7.1-5.2c4.5,0,7.1,2.8,7.1,7c0,1.4,0,4.8,0,4.8H349v-5.4c0-16.8-15-19.4-25.9-19.4c-13.7,0-24.9,4.5-27,17.1
	c-0.5,3.4-0.7,6.5,0.2,10.4C299.6,85.4,327,90,331,100c0.7,1.9,0.5,4.3,0.1,5.7c-0.6,2.6-2.3,5.2-7.5,5.2c-4.8,0-7.8-2.8-7.8-7
	l0-7.5h-20.7v5.9c0,17.2,13.5,22.4,28,22.4c13.9,0,25.4-4.8,27.2-17.6c0.9-6.7,0.2-11-0.1-12.6C347.1,78.3,317.9,73.5,315.7,64.5z
	 M492.5,106.9l-18.3-62.7h-28.9v77.1h19.1l-1.1-64.7l19.7,64.7h27.7V44.2h-19.2L492.5,106.9z M125.1,44.2l-14.4,77.9h21L142.6,50
	l10.6,72.1h20.9l-14.4-77.9H125.1z M242.7,44.2l-9.8,60.9l-9.8-60.9h-31.8l-1.7,77.9h19.5l0.5-72.1l13.4,72.1h19.7L256.2,50
	l0.5,72.1h19.5l-1.7-77.9H242.7z M423.7,44.2H404v57.6c0,1,0,2.1-0.2,3c-0.4,1.9-2,5.7-7.5,5.7c-5.4,0-7-3.7-7.4-5.7
	c-0.2-0.8-0.2-2-0.2-3V44.2H369V100c0,1.4,0.1,4.4,0.2,5.1c1.4,14.5,12.8,19.3,27.1,19.3c14.3,0,25.8-4.7,27.2-19.3
	c0.1-0.8,0.3-3.7,0.2-5.1V44.2z M558.9,78.4v11.4h8V101c0,1,0,2.1-0.2,3c-0.3,2.1-2.3,5.7-8,5.7c-5.6,0-7.6-3.6-7.9-5.7
	c-0.1-0.9-0.2-2-0.2-3V65.4c0-1.3,0.1-2.6,0.4-3.7c0.4-1.9,2.1-5.6,7.7-5.6c6,0,7.4,3.9,7.8,5.6c0.2,1.1,0.2,3,0.2,3v4.3h19.6v-2.6
	c0,0,0.1-2.7-0.1-5.2c-1.5-14.6-13.5-19.2-27.3-19.2c-13.8,0-25.6,4.7-27.3,19.2c-0.2,1.3-0.4,3.7-0.4,5.2v32.7c0,1.4,0,2.5,0.3,5.1
	c1.3,14.2,13.6,19.2,27.4,19.2c13.9,0,26.1-5,27.4-19.2c0.2-2.6,0.3-3.7,0.3-5.1V78.4H558.9z"/>
</svg>
