<?xml version="1.0" encoding="utf-8"?>
<!-- Generator: Adobe Illustrator 19.0.0, SVG Export Plug-In . SVG Version: 6.00 Build 0)  -->
<svg version="1.1" id="Capa_1" xmlns="http://www.w3.org/2000/svg" xmlns:xlink="http://www.w3.org/1999/xlink" x="0px" y="0px"
	 viewBox="0 0 300 145" style="enable-background:new 0 0 300 145;" xml:space="preserve">
<g id="XMLID_1_">
	<g id="XMLID_37_">
		<path id="XMLID_38_" d="M24.8,50.7c-1.2-1.9-1.8-3.9-1.8-5.8c0-1.7,0.4-3.4,1.3-5c0.9-1.6,2.1-3,3.8-4.3l2,1.2
			c0.2,0.1,0.3,0.2,0.4,0.4c0.1,0.1,0.1,0.3,0.1,0.4c0,0.2,0,0.3-0.1,0.4c-0.1,0.1-0.1,0.3-0.2,0.4c-0.2,0.3-0.5,0.6-0.7,0.9
			c-0.3,0.3-0.5,0.7-0.7,1.1c-0.2,0.4-0.4,0.9-0.5,1.3c-0.1,0.5-0.2,1-0.2,1.6c0,0.6,0.1,1.2,0.3,1.9c0.2,0.7,0.5,1.4,1,2.1
			c0.2,0.2,0.2,0.5,0.2,0.7c0,0.6-0.3,0.9-0.9,1.2L24.8,50.7z M33.4,50.7c-1.2-1.9-1.8-3.9-1.8-5.8c0-1.7,0.4-3.4,1.3-5
			c0.9-1.6,2.1-3,3.8-4.3l2,1.2c0.2,0.1,0.3,0.2,0.4,0.4c0.1,0.1,0.1,0.3,0.1,0.4c0,0.2,0,0.3-0.1,0.4c-0.1,0.1-0.1,0.3-0.2,0.4
			c-0.2,0.3-0.5,0.6-0.7,0.9c-0.3,0.3-0.5,0.7-0.7,1.1c-0.2,0.4-0.4,0.9-0.5,1.3c-0.1,0.5-0.2,1-0.2,1.6c0,0.6,0.1,1.2,0.3,1.9
			s0.5,1.4,1,2.1c0.2,0.2,0.2,0.5,0.2,0.7c0,0.6-0.3,0.9-0.9,1.2L33.4,50.7z"/>
		<path id="XMLID_41_" d="M64.3,62.2c0.3,0.6,0.5,1.2,0.7,1.8c0.2-0.6,0.5-1.2,0.8-1.8s0.5-1.2,0.8-1.7l11.1-20.8
			c0.1-0.3,0.3-0.5,0.4-0.6s0.3-0.3,0.5-0.3c0.2-0.1,0.4-0.1,0.6-0.1c0.2,0,0.5,0,0.8,0h5.3v37.6h-6.2V51.8c0-0.5,0-0.9,0-1.5
			c0-0.5,0.1-1.1,0.1-1.6L68,70c-0.3,0.5-0.6,0.9-1,1.1c-0.4,0.3-0.9,0.4-1.5,0.4h-1c-0.6,0-1-0.1-1.5-0.4c-0.4-0.3-0.8-0.6-1-1.1
			L50.6,48.6c0.1,0.6,0.1,1.1,0.1,1.7s0,1.1,0,1.5v24.3h-6.2V38.5h5.3c0.3,0,0.6,0,0.8,0c0.2,0,0.4,0.1,0.6,0.1
			c0.2,0.1,0.4,0.2,0.5,0.3c0.2,0.2,0.3,0.4,0.4,0.6l11.2,20.9C63.7,61,64,61.6,64.3,62.2z"/>
		<path id="XMLID_43_" d="M125.9,76.1h-5.4c-0.6,0-1.1-0.2-1.5-0.5s-0.7-0.7-0.8-1.1l-2.8-7.7H99.8L97,74.5
			c-0.1,0.4-0.4,0.8-0.8,1.1s-0.9,0.5-1.5,0.5h-5.4L104,38.5h7.1L125.9,76.1z M101.6,61.9h12L109,49.4c-0.2-0.6-0.4-1.2-0.7-2
			c-0.3-0.8-0.5-1.6-0.7-2.5c-0.2,0.9-0.5,1.7-0.7,2.5c-0.2,0.8-0.5,1.4-0.7,2L101.6,61.9z M117.5,29.5l-7.7,5.6
			c-0.2,0.1-0.4,0.3-0.5,0.3c-0.2,0.1-0.3,0.2-0.5,0.2c-0.2,0.1-0.3,0.1-0.5,0.1c-0.2,0-0.4,0-0.6,0h-5l5.1-5.2
			c0.2-0.2,0.4-0.4,0.6-0.5c0.2-0.1,0.4-0.2,0.6-0.3c0.2-0.1,0.4-0.1,0.6-0.2c0.2,0,0.5,0,0.9,0H117.5z"/>
		<path id="XMLID_47_" d="M149.9,45.3c-0.2,0.4-0.4,0.6-0.7,0.8c-0.3,0.2-0.5,0.2-0.9,0.2c-0.3,0-0.7-0.1-1.2-0.4s-0.9-0.6-1.5-0.9
			c-0.6-0.3-1.3-0.6-2.1-0.9c-0.8-0.3-1.7-0.4-2.8-0.4c-1,0-1.8,0.1-2.5,0.4c-0.7,0.2-1.3,0.6-1.8,1c-0.5,0.4-0.9,0.9-1.1,1.5
			c-0.2,0.6-0.4,1.2-0.4,1.9c0,0.9,0.2,1.6,0.7,2.2c0.5,0.6,1.1,1.1,2,1.5s1.7,0.8,2.8,1.1c1,0.3,2.1,0.7,3.2,1.1
			c1.1,0.4,2.1,0.8,3.2,1.3c1,0.5,2,1.1,2.8,1.9c0.8,0.8,1.5,1.7,2,2.8c0.5,1.1,0.7,2.4,0.7,4c0,1.7-0.3,3.3-0.9,4.8
			c-0.6,1.5-1.4,2.8-2.5,3.9c-1.1,1.1-2.5,2-4.1,2.6c-1.6,0.6-3.5,0.9-5.5,0.9c-1.2,0-2.4-0.1-3.5-0.4c-1.2-0.2-2.3-0.6-3.3-1
			c-1.1-0.4-2.1-1-3-1.6c-0.9-0.6-1.8-1.3-2.5-2l2-3.4c0.2-0.2,0.4-0.4,0.7-0.6c0.3-0.2,0.6-0.2,0.9-0.2c0.4,0,0.9,0.2,1.4,0.5
			c0.5,0.4,1.1,0.7,1.8,1.2c0.7,0.4,1.5,0.8,2.4,1.2c0.9,0.4,2,0.5,3.3,0.5c2,0,3.5-0.5,4.6-1.4c1.1-0.9,1.6-2.3,1.6-4.1
			c0-1-0.2-1.8-0.7-2.4c-0.5-0.6-1.1-1.1-2-1.6c-0.8-0.4-1.7-0.8-2.8-1.1c-1-0.3-2.1-0.6-3.2-1c-1.1-0.3-2.1-0.8-3.2-1.2
			c-1-0.5-2-1.1-2.8-1.9c-0.8-0.8-1.5-1.8-2-2.9c-0.5-1.2-0.7-2.6-0.7-4.3c0-1.4,0.3-2.7,0.8-4s1.3-2.4,2.4-3.5c1-1,2.3-1.8,3.9-2.4
			c1.5-0.6,3.3-0.9,5.2-0.9c2.2,0,4.3,0.3,6.1,1c1.9,0.7,3.5,1.7,4.8,2.9L149.9,45.3z"/>
		<path id="XMLID_49_" d="M174.9,62.8v13.2h-7V38.5h12.2c2.5,0,4.7,0.3,6.5,0.9c1.8,0.6,3.3,1.4,4.5,2.5c1.2,1.1,2.1,2.3,2.6,3.8
			s0.9,3.1,0.9,4.8c0,1.8-0.3,3.5-0.9,5c-0.6,1.5-1.5,2.8-2.7,3.9c-1.2,1.1-2.7,1.9-4.5,2.5c-1.8,0.6-3.9,0.9-6.4,0.9H174.9z
			 M174.9,57.4h5.2c1.3,0,2.4-0.2,3.4-0.5c1-0.3,1.7-0.8,2.4-1.4s1.1-1.3,1.4-2.2c0.3-0.9,0.5-1.8,0.5-2.9c0-1-0.2-1.9-0.5-2.7
			c-0.3-0.8-0.8-1.5-1.4-2.1s-1.4-1-2.4-1.3c-1-0.3-2.1-0.5-3.4-0.5h-5.2V57.4z"/>
		<path id="XMLID_52_" d="M207.3,61.4v14.7h-7V38.5h11.5c2.6,0,4.8,0.3,6.6,0.8c1.8,0.5,3.3,1.3,4.5,2.2c1.2,1,2,2.1,2.6,3.4
			c0.5,1.3,0.8,2.8,0.8,4.4c0,1.3-0.2,2.5-0.6,3.6c-0.4,1.1-0.9,2.1-1.6,3.1c-0.7,0.9-1.6,1.7-2.6,2.4c-1,0.7-2.2,1.2-3.5,1.7
			c0.9,0.5,1.6,1.2,2.3,2.2l9.4,13.9h-6.3c-0.6,0-1.1-0.1-1.5-0.4s-0.8-0.6-1.1-1l-7.9-12c-0.3-0.5-0.6-0.8-1-1
			c-0.4-0.2-0.9-0.3-1.6-0.3H207.3z M207.3,56.4h4.4c1.3,0,2.5-0.2,3.4-0.5c1-0.3,1.8-0.8,2.4-1.4c0.6-0.6,1.1-1.3,1.4-2.1
			c0.3-0.8,0.5-1.7,0.5-2.6c0-1.9-0.6-3.4-1.9-4.4c-1.3-1-3.2-1.5-5.8-1.5h-4.5V56.4z"/>
		<path id="XMLID_55_" d="M268.9,57.3c0,2.8-0.5,5.3-1.4,7.6c-0.9,2.3-2.2,4.4-3.9,6.1s-3.7,3.1-6,4c-2.3,1-4.9,1.4-7.8,1.4
			s-5.4-0.5-7.8-1.4s-4.4-2.3-6-4s-3-3.7-3.9-6.1c-0.9-2.3-1.4-4.9-1.4-7.6s0.5-5.3,1.4-7.6c0.9-2.3,2.2-4.4,3.9-6.1
			c1.7-1.7,3.7-3.1,6-4c2.3-1,4.9-1.4,7.8-1.4s5.4,0.5,7.8,1.5c2.3,1,4.3,2.3,6,4c1.7,1.7,3,3.7,3.9,6.1
			C268.5,52,268.9,54.5,268.9,57.3z M261.7,57.3c0-2.1-0.3-3.9-0.8-5.5c-0.5-1.6-1.3-3-2.4-4.2c-1-1.1-2.3-2-3.7-2.6
			s-3.1-0.9-4.9-0.9c-1.8,0-3.5,0.3-5,0.9s-2.7,1.5-3.8,2.6c-1,1.1-1.8,2.5-2.4,4.2c-0.6,1.6-0.8,3.5-0.8,5.5c0,2.1,0.3,3.9,0.8,5.5
			s1.3,3,2.4,4.2c1,1.1,2.3,2,3.8,2.6s3.1,0.9,5,0.9c1.8,0,3.5-0.3,4.9-0.9s2.7-1.5,3.7-2.6s1.8-2.5,2.4-4.2S261.7,59.3,261.7,57.3z
			"/>
		<path id="XMLID_58_" d="M277.6,36.3c0.6,1,1.1,1.9,1.3,2.9s0.4,1.9,0.4,2.9c0,1.7-0.4,3.4-1.3,5c-0.9,1.6-2.1,3-3.8,4.4l-2-1.2
			c-0.2-0.1-0.3-0.2-0.4-0.4c-0.1-0.1-0.1-0.3-0.1-0.4c0-0.3,0.1-0.6,0.3-0.8c0.2-0.3,0.5-0.6,0.7-0.9c0.3-0.3,0.5-0.7,0.7-1.1
			s0.4-0.9,0.5-1.4c0.1-0.5,0.2-1,0.2-1.6c0-0.6-0.1-1.2-0.3-1.9c-0.2-0.7-0.5-1.4-1-2.1c-0.2-0.2-0.2-0.5-0.2-0.7
			c0-0.6,0.3-0.9,1-1.2L277.6,36.3z M286.2,36.3c0.6,1,1.1,1.9,1.3,2.9s0.4,1.9,0.4,2.9c0,1.7-0.4,3.4-1.3,5c-0.9,1.6-2.1,3-3.8,4.4
			l-2-1.2c-0.2-0.1-0.3-0.2-0.4-0.4c-0.1-0.1-0.1-0.3-0.1-0.4c0-0.3,0.1-0.6,0.3-0.8c0.2-0.3,0.5-0.6,0.7-0.9
			c0.2-0.3,0.5-0.7,0.7-1.1s0.4-0.9,0.5-1.4c0.1-0.5,0.2-1,0.2-1.6c0-0.6-0.1-1.2-0.3-1.9c-0.2-0.7-0.5-1.4-1-2.1
			c-0.2-0.2-0.2-0.5-0.2-0.7c0-0.6,0.3-0.9,1-1.2L286.2,36.3z"/>
	</g>
	<g id="XMLID_2_">
		<path id="XMLID_3_" d="M26,20.6v6.6h-3.5V8.4h6.1c1.3,0,2.3,0.1,3.3,0.4c0.9,0.3,1.7,0.7,2.3,1.2c0.6,0.5,1,1.2,1.3,1.9
			c0.3,0.7,0.4,1.5,0.4,2.4c0,0.9-0.2,1.7-0.5,2.5c-0.3,0.8-0.8,1.4-1.4,2c-0.6,0.5-1.4,1-2.3,1.3c-0.9,0.3-2,0.5-3.2,0.5H26z
			 M26,17.9h2.6c0.6,0,1.2-0.1,1.7-0.2c0.5-0.2,0.9-0.4,1.2-0.7s0.5-0.7,0.7-1.1c0.2-0.4,0.2-0.9,0.2-1.4c0-0.5-0.1-1-0.2-1.4
			c-0.2-0.4-0.4-0.8-0.7-1s-0.7-0.5-1.2-0.7s-1-0.2-1.7-0.2H26V17.9z"/>
		<path id="XMLID_6_" d="M48.3,27.2h-1.4c-0.3,0-0.5,0-0.7-0.1s-0.3-0.3-0.4-0.6l-0.3-0.9c-0.3,0.3-0.7,0.6-1,0.8
			c-0.3,0.2-0.7,0.4-1,0.6s-0.7,0.3-1.1,0.4s-0.8,0.1-1.3,0.1c-0.6,0-1.1-0.1-1.6-0.2c-0.5-0.2-0.9-0.4-1.2-0.7
			c-0.3-0.3-0.6-0.7-0.8-1.1s-0.3-1-0.3-1.6c0-0.5,0.1-1,0.4-1.5c0.3-0.5,0.7-0.9,1.3-1.3c0.6-0.4,1.4-0.7,2.5-1
			c1-0.3,2.3-0.4,3.8-0.4v-0.8c0-0.9-0.2-1.6-0.6-2c-0.4-0.4-0.9-0.6-1.6-0.6c-0.5,0-1,0.1-1.3,0.2c-0.3,0.1-0.6,0.3-0.9,0.4
			c-0.3,0.2-0.5,0.3-0.7,0.4c-0.2,0.1-0.5,0.2-0.7,0.2c-0.2,0-0.4-0.1-0.6-0.2c-0.2-0.1-0.3-0.3-0.4-0.4l-0.6-1
			c1.5-1.4,3.4-2.1,5.6-2.1c0.8,0,1.5,0.1,2.1,0.4s1.1,0.6,1.6,1.1c0.4,0.5,0.7,1,1,1.6c0.2,0.6,0.3,1.3,0.3,2.1V27.2z M42,25.2
			c0.3,0,0.6,0,0.9-0.1s0.5-0.1,0.8-0.3s0.5-0.3,0.7-0.4s0.5-0.4,0.7-0.6v-2.2c-0.9,0-1.7,0.1-2.3,0.2c-0.6,0.1-1.1,0.3-1.5,0.5
			s-0.7,0.4-0.8,0.6c-0.2,0.2-0.2,0.5-0.2,0.8c0,0.6,0.2,1,0.5,1.2C41,25.1,41.5,25.2,42,25.2z"/>
		<path id="XMLID_9_" d="M51.4,27.2V13.9h1.9c0.3,0,0.6,0.1,0.7,0.2c0.1,0.1,0.2,0.3,0.3,0.6l0.2,1.6c0.5-0.8,1-1.5,1.7-2
			c0.6-0.5,1.4-0.7,2.2-0.7c0.7,0,1.2,0.2,1.6,0.5l-0.4,2.4c0,0.2-0.1,0.3-0.2,0.3c-0.1,0.1-0.2,0.1-0.4,0.1c-0.1,0-0.3,0-0.5-0.1
			c-0.2-0.1-0.5-0.1-0.9-0.1c-0.7,0-1.2,0.2-1.7,0.6c-0.5,0.4-0.9,0.9-1.2,1.6v8.3H51.4z"/>
		<path id="XMLID_11_" d="M72.1,27.2h-1.4c-0.3,0-0.5,0-0.7-0.1s-0.3-0.3-0.4-0.6l-0.3-0.9c-0.3,0.3-0.7,0.6-1,0.8
			c-0.3,0.2-0.7,0.4-1,0.6s-0.7,0.3-1.1,0.4s-0.8,0.1-1.3,0.1c-0.6,0-1.1-0.1-1.6-0.2c-0.5-0.2-0.9-0.4-1.2-0.7
			c-0.3-0.3-0.6-0.7-0.8-1.1s-0.3-1-0.3-1.6c0-0.5,0.1-1,0.4-1.5c0.3-0.5,0.7-0.9,1.3-1.3c0.6-0.4,1.4-0.7,2.5-1
			c1-0.3,2.3-0.4,3.8-0.4v-0.8c0-0.9-0.2-1.6-0.6-2c-0.4-0.4-0.9-0.6-1.6-0.6c-0.5,0-1,0.1-1.3,0.2c-0.3,0.1-0.6,0.3-0.9,0.4
			c-0.3,0.2-0.5,0.3-0.7,0.4c-0.2,0.1-0.5,0.2-0.7,0.2c-0.2,0-0.4-0.1-0.6-0.2c-0.2-0.1-0.3-0.3-0.4-0.4l-0.6-1
			c1.5-1.4,3.4-2.1,5.6-2.1c0.8,0,1.5,0.1,2.1,0.4s1.1,0.6,1.6,1.1c0.4,0.5,0.7,1,1,1.6c0.2,0.6,0.3,1.3,0.3,2.1V27.2z M65.9,25.2
			c0.3,0,0.6,0,0.9-0.1s0.5-0.1,0.8-0.3s0.5-0.3,0.7-0.4s0.5-0.4,0.7-0.6v-2.2c-0.9,0-1.7,0.1-2.3,0.2c-0.6,0.1-1.1,0.3-1.5,0.5
			s-0.7,0.4-0.8,0.6c-0.2,0.2-0.2,0.5-0.2,0.8c0,0.6,0.2,1,0.5,1.2C64.9,25.1,65.3,25.2,65.9,25.2z"/>
		<path id="XMLID_14_" d="M85.8,13.7c0.8,0,1.6,0.1,2.3,0.4s1.3,0.7,1.8,1.2s0.9,1.1,1.2,1.9c0.3,0.8,0.4,1.6,0.4,2.6
			c0,0.2,0,0.4,0,0.6c0,0.2-0.1,0.3-0.1,0.4c-0.1,0.1-0.1,0.2-0.2,0.2c-0.1,0-0.2,0.1-0.4,0.1h-8.2c0.1,1.4,0.5,2.4,1.1,3
			c0.6,0.6,1.5,1,2.5,1c0.5,0,1-0.1,1.3-0.2s0.7-0.3,1-0.4s0.5-0.3,0.7-0.4c0.2-0.1,0.4-0.2,0.6-0.2c0.1,0,0.2,0,0.3,0.1
			c0.1,0.1,0.2,0.1,0.2,0.2l0.9,1.2c-0.4,0.4-0.8,0.8-1.2,1s-0.9,0.5-1.4,0.7c-0.5,0.2-1,0.3-1.5,0.4c-0.5,0.1-1,0.1-1.4,0.1
			c-0.9,0-1.8-0.2-2.6-0.5s-1.5-0.8-2.1-1.4c-0.6-0.6-1.1-1.3-1.4-2.2c-0.3-0.9-0.5-1.9-0.5-3.1c0-0.9,0.1-1.8,0.4-2.6
			c0.3-0.8,0.7-1.5,1.3-2.1s1.2-1.1,2-1.4C83.9,13.9,84.8,13.7,85.8,13.7z M85.9,16c-0.9,0-1.7,0.3-2.2,0.8c-0.5,0.5-0.9,1.3-1,2.2
			h6c0-0.4-0.1-0.8-0.2-1.2c-0.1-0.4-0.3-0.7-0.5-1c-0.2-0.3-0.5-0.5-0.9-0.7C86.8,16.1,86.3,16,85.9,16z"/>
		<path id="XMLID_17_" d="M97.6,7.9v19.3h-3.2V7.9H97.6z"/>
	</g>
</g>
<g id="XMLID_18_">
	<g id="XMLID_19_">
		<path id="XMLID_30_" d="M170.5,132.6c2.9,0.6,4.2,1.7,4.2,3.7c0,2.2-1.9,3.7-4.4,3.7c-2.1,0-3.7-0.7-5.3-2.1l0.9-1.1
			c1.4,1.2,2.6,1.8,4.4,1.8c1.7,0,2.9-0.9,2.9-2.2c0-1.2-0.6-1.9-3.4-2.5c-3-0.6-4.4-1.6-4.4-3.8c0-2.1,1.8-3.6,4.3-3.6
			c1.9,0,3.2,0.5,4.6,1.6l-0.9,1.1c-1.2-1-2.4-1.4-3.7-1.4c-1.7,0-2.8,0.9-2.8,2.1C167,131.3,167.6,132,170.5,132.6 M162.7,134.3
			c0,3.8-2.2,5.7-5.4,5.7c-3.2,0-5.4-2-5.4-5.6v-7.5h1.5v7.4c0,2.8,1.5,4.4,4,4.4c2.4,0,3.9-1.4,3.9-4.3v-7.5h1.5V134.3z
			 M141.5,126.8h1.5v11.8h7.4v1.4h-8.9V126.8z M133.6,134h-3.3v-5.8h3.3c2.1,0,3.5,1,3.5,2.9C137.2,132.8,135.8,134,133.6,134
			 M133.8,126.8h-4.9V140h1.5v-4.6h3.2c2.8,0,5.2-1.5,5.2-4.3C138.8,128.4,136.8,126.8,133.8,126.8"/>
		<path id="XMLID_20_" d="M281.5,95.8h-7.9v-1.5h9.7v1.2l-6.5,13.1h-1.8L281.5,95.8z M246.1,107.4c0,5.7,4.6,10.3,10.3,10.3
			c5.7,0,10.3-4.6,10.3-10.3c0-5.7-4.6-10.3-10.3-10.3C250.7,97.1,246.1,101.7,246.1,107.4 M264.5,117.8c-5.7,4.5-14,3.5-18.5-2.3
			c-4.5-5.7-3.5-14,2.3-18.5c5.7-4.5,14-3.5,18.5,2.3c0-1.6,0-3.3,0-5.1h2.8v24.6c0,8.8-6,13.7-14.3,13.7c-3.8,0-7.5-0.9-10.8-2.8
			l1.3-2.5c2.9,1.7,6.2,2.6,9.6,2.6c6.7,0,11.4-3.8,11.4-11.3c0-1,0-2.1,0-3.1C266.1,116.4,265.4,117.2,264.5,117.8 M181.7,115.7
			c-4.6,0-8.2-3.7-8.2-8.2c0-4.6,3.7-8.2,8.2-8.2c4.6,0,8.2,3.7,8.2,8.2C190,112,186.3,115.7,181.7,115.7 M181.7,94.3
			c-7.3,0-13.2,5.9-13.2,13.2c0,7.3,5.9,13.2,13.2,13.2c7.3,0,13.2-5.9,13.2-13.2C194.9,100.2,189,94.3,181.7,94.3 M165.2,104.6
			v15.7h-4.9v-15.7c0-3-2.4-5.4-5.4-5.4c-3,0-5.4,2.4-5.4,5.4v15.7h-4.9v-15.7c0-3-2.4-5.4-5.4-5.4c-3,0-5.4,2.4-5.4,5.4v15.7h-4.9
			v-15.7c0-5.7,4.6-10.3,10.3-10.3c3.2,0,6,1.4,7.9,3.6c1.9-2.2,4.7-3.6,7.9-3.6C160.6,94.3,165.2,98.9,165.2,104.6 M208.5,115.7
			h1.1v4.9h-1.1c-5.7,0-10.3-4.6-10.3-10.3V87.7h4.9v6.6h6.4v4.9h-6.4v11.1C203.1,113.3,205.6,115.7,208.5,115.7 M224.6,115.7
			c-4.6,0-8.2-3.7-8.2-8.2c0-4.6,3.7-8.2,8.2-8.2c4.6,0,8.2,3.7,8.2,8.2C232.9,112,229.1,115.7,224.6,115.7 M224.6,94.3
			c-7.3,0-13.2,5.9-13.2,13.2c0,7.3,5.9,13.2,13.2,13.2c7.3,0,13.2-5.9,13.2-13.2C237.8,100.2,231.9,94.3,224.6,94.3"/>
	</g>
</g>
</svg>
