<?xml version="1.0" encoding="utf-8"?>
<!-- Generator: Adobe Illustrator 19.0.0, SVG Export Plug-In . SVG Version: 6.00 Build 0)  -->
<svg version="1.1" id="Capa_1" xmlns="http://www.w3.org/2000/svg" xmlns:xlink="http://www.w3.org/1999/xlink" x="0px" y="0px"
	 viewBox="0 0 300 145" style="enable-background:new 0 0 300 145;" xml:space="preserve">
<g id="XMLID_908_">
	<g id="XMLID_18_">
		<path id="XMLID_19_" d="M14.6,50.7c-1.2-1.9-1.8-3.9-1.8-5.8c0-1.7,0.4-3.4,1.3-5c0.9-1.6,2.1-3,3.8-4.3l2,1.2
			c0.2,0.1,0.3,0.2,0.4,0.4c0.1,0.1,0.1,0.3,0.1,0.4c0,0.2,0,0.3-0.1,0.4c-0.1,0.1-0.1,0.3-0.2,0.4c-0.2,0.3-0.5,0.6-0.7,0.9
			c-0.3,0.3-0.5,0.7-0.7,1.1c-0.2,0.4-0.4,0.9-0.5,1.3c-0.1,0.5-0.2,1-0.2,1.6c0,0.6,0.1,1.2,0.3,1.9c0.2,0.7,0.5,1.4,1,2.1
			c0.2,0.2,0.2,0.5,0.2,0.7c0,0.6-0.3,0.9-0.9,1.2L14.6,50.7z M23.3,50.7c-1.2-1.9-1.8-3.9-1.8-5.8c0-1.7,0.4-3.4,1.3-5
			c0.9-1.6,2.1-3,3.8-4.3l2,1.2c0.2,0.1,0.3,0.2,0.4,0.4c0.1,0.1,0.1,0.3,0.1,0.4c0,0.2,0,0.3-0.1,0.4c-0.1,0.1-0.1,0.3-0.2,0.4
			c-0.2,0.3-0.5,0.6-0.7,0.9c-0.3,0.3-0.5,0.7-0.7,1.1c-0.2,0.4-0.4,0.9-0.5,1.3c-0.1,0.5-0.2,1-0.2,1.6c0,0.6,0.1,1.2,0.3,1.9
			s0.5,1.4,1,2.1c0.2,0.2,0.2,0.5,0.2,0.7c0,0.6-0.3,0.9-0.9,1.2L23.3,50.7z"/>
		<path id="XMLID_22_" d="M60.9,38.5v5.7H49.6v31.8h-7V44.2H31.3v-5.7H60.9z"/>
		<path id="XMLID_24_" d="M72.5,61.4v14.7h-7V38.5H77c2.6,0,4.8,0.3,6.6,0.8c1.8,0.5,3.3,1.3,4.5,2.2c1.2,1,2,2.1,2.6,3.4
			c0.5,1.3,0.8,2.8,0.8,4.4c0,1.3-0.2,2.5-0.6,3.6S90,55,89.3,56c-0.7,0.9-1.6,1.7-2.6,2.4s-2.2,1.2-3.5,1.7
			c0.9,0.5,1.6,1.2,2.3,2.2l9.4,13.9h-6.3c-0.6,0-1.1-0.1-1.5-0.4c-0.4-0.2-0.8-0.6-1.1-1l-7.9-12c-0.3-0.5-0.6-0.8-1-1
			c-0.4-0.2-0.9-0.3-1.6-0.3H72.5z M72.5,56.4h4.4c1.3,0,2.5-0.2,3.4-0.5c1-0.3,1.8-0.8,2.4-1.4c0.6-0.6,1.1-1.3,1.4-2.1
			c0.3-0.8,0.5-1.7,0.5-2.6c0-1.9-0.6-3.4-1.9-4.4c-1.3-1-3.2-1.5-5.8-1.5h-4.5V56.4z"/>
		<path id="XMLID_27_" d="M132.4,76.1h-5.4c-0.6,0-1.1-0.2-1.5-0.5c-0.4-0.3-0.7-0.7-0.8-1.1l-2.8-7.7h-15.6l-2.8,7.7
			c-0.1,0.4-0.4,0.8-0.8,1.1c-0.4,0.3-0.9,0.5-1.5,0.5h-5.4l14.8-37.6h7.1L132.4,76.1z M108,61.9h12l-4.6-12.5
			c-0.2-0.6-0.4-1.2-0.7-2c-0.3-0.8-0.5-1.6-0.7-2.5c-0.2,0.9-0.5,1.7-0.7,2.5c-0.2,0.8-0.5,1.4-0.7,2L108,61.9z"/>
		<path id="XMLID_30_" d="M140.7,38.5c0.2,0,0.4,0.1,0.6,0.2c0.2,0.1,0.3,0.2,0.5,0.3c0.2,0.1,0.3,0.3,0.5,0.6l19.7,25.1
			c-0.1-0.6-0.1-1.2-0.1-1.8c0-0.6,0-1.1,0-1.6V38.5h6.2v37.6h-3.6c-0.6,0-1-0.1-1.4-0.3s-0.7-0.5-1.1-0.9l-19.6-25
			c0.1,0.6,0.1,1.1,0.1,1.6s0,1,0,1.5v23.1h-6.2V38.5h3.7C140.2,38.5,140.5,38.5,140.7,38.5z"/>
		<path id="XMLID_32_" d="M211.5,57.3c0,1.7-0.2,3.3-0.5,4.8s-0.8,3-1.5,4.3c-0.6,1.3-1.4,2.6-2.4,3.7c-0.9,1.1-2,2.1-3.2,2.9
			l9.5,10.4h-5.8c-0.8,0-1.6-0.1-2.2-0.3c-0.7-0.2-1.3-0.6-1.8-1.2l-5.5-6.1c-0.9,0.2-1.8,0.4-2.7,0.5s-1.9,0.2-2.9,0.2
			c-2.8,0-5.4-0.5-7.8-1.4c-2.3-1-4.4-2.3-6-4s-3-3.7-3.9-6.1c-0.9-2.3-1.4-4.9-1.4-7.6s0.5-5.3,1.4-7.6c0.9-2.3,2.2-4.4,3.9-6.1
			c1.7-1.7,3.7-3.1,6-4c2.3-1,4.9-1.4,7.8-1.4c2.8,0,5.4,0.5,7.8,1.5c2.3,1,4.3,2.3,6,4c1.7,1.7,3,3.7,3.9,6.1
			C211,52,211.5,54.5,211.5,57.3z M204.3,57.3c0-2.1-0.3-3.9-0.8-5.5c-0.5-1.6-1.3-3-2.4-4.2c-1-1.1-2.3-2-3.7-2.6s-3.1-0.9-4.9-0.9
			s-3.5,0.3-5,0.9c-1.5,0.6-2.7,1.5-3.8,2.6c-1,1.1-1.8,2.5-2.4,4.2c-0.6,1.6-0.8,3.5-0.8,5.5c0,2.1,0.3,3.9,0.8,5.5
			c0.6,1.6,1.3,3,2.4,4.2s2.3,2,3.8,2.6c1.5,0.6,3.1,0.9,5,0.9s3.5-0.3,4.9-0.9s2.7-1.5,3.7-2.6s1.8-2.5,2.4-4.2
			C204.1,61.2,204.3,59.3,204.3,57.3z"/>
		<path id="XMLID_35_" d="M232.1,70.4c1.4,0,2.6-0.2,3.6-0.7c1.1-0.5,2-1.1,2.7-1.9c0.7-0.8,1.3-1.8,1.7-3c0.4-1.2,0.6-2.5,0.6-3.9
			V38.5h7V61c0,2.2-0.4,4.3-1.1,6.2c-0.7,1.9-1.8,3.5-3.1,4.9c-1.4,1.4-3,2.5-4.9,3.2c-1.9,0.8-4.1,1.2-6.5,1.2
			c-2.4,0-4.6-0.4-6.5-1.2c-1.9-0.8-3.6-1.8-4.9-3.2c-1.3-1.4-2.4-3-3.1-4.9c-0.7-1.9-1.1-4-1.1-6.2V38.5h7V61
			c0,1.4,0.2,2.7,0.6,3.9c0.4,1.2,0.9,2.2,1.7,3c0.7,0.8,1.6,1.5,2.7,1.9S230.8,70.4,232.1,70.4z"/>
		<path id="XMLID_37_" d="M262.7,76.1h-7V38.5h7V76.1z"/>
		<path id="XMLID_39_" d="M275.4,36.3c0.6,1,1.1,1.9,1.3,2.9c0.3,1,0.4,1.9,0.4,2.9c0,1.7-0.4,3.4-1.3,5c-0.9,1.6-2.1,3-3.8,4.4
			l-2-1.2c-0.2-0.1-0.3-0.2-0.4-0.4c-0.1-0.1-0.1-0.3-0.1-0.4c0-0.3,0.1-0.6,0.3-0.8c0.2-0.3,0.5-0.6,0.7-0.9
			c0.3-0.3,0.5-0.7,0.7-1.1c0.2-0.4,0.4-0.9,0.5-1.4s0.2-1,0.2-1.6c0-0.6-0.1-1.2-0.3-1.9c-0.2-0.7-0.5-1.4-1-2.1
			c-0.2-0.2-0.2-0.5-0.2-0.7c0-0.6,0.3-0.9,1-1.2L275.4,36.3z M284,36.3c0.6,1,1.1,1.9,1.3,2.9c0.3,1,0.4,1.9,0.4,2.9
			c0,1.7-0.4,3.4-1.3,5c-0.9,1.6-2.1,3-3.8,4.4l-2-1.2c-0.2-0.1-0.3-0.2-0.4-0.4c-0.1-0.1-0.1-0.3-0.1-0.4c0-0.3,0.1-0.6,0.3-0.8
			c0.2-0.3,0.5-0.6,0.7-0.9c0.2-0.3,0.5-0.7,0.7-1.1c0.2-0.4,0.4-0.9,0.5-1.4s0.2-1,0.2-1.6c0-0.6-0.1-1.2-0.3-1.9
			c-0.2-0.7-0.5-1.4-1-2.1c-0.2-0.2-0.2-0.5-0.2-0.7c0-0.6,0.3-0.9,1-1.2L284,36.3z"/>
	</g>
	<g id="XMLID_1_">
		<path id="XMLID_2_" d="M15.8,20.6v6.6h-3.5V8.4h6.1c1.3,0,2.3,0.1,3.3,0.4c0.9,0.3,1.7,0.7,2.3,1.2c0.6,0.5,1,1.2,1.3,1.9
			c0.3,0.7,0.4,1.5,0.4,2.4c0,0.9-0.2,1.7-0.5,2.5c-0.3,0.8-0.8,1.4-1.4,2c-0.6,0.5-1.4,1-2.3,1.3c-0.9,0.3-2,0.5-3.2,0.5H15.8z
			 M15.8,17.9h2.6c0.6,0,1.2-0.1,1.7-0.2c0.5-0.2,0.9-0.4,1.2-0.7s0.5-0.7,0.7-1.1c0.2-0.4,0.2-0.9,0.2-1.4c0-0.5-0.1-1-0.2-1.4
			c-0.2-0.4-0.4-0.8-0.7-1s-0.7-0.5-1.2-0.7s-1-0.2-1.7-0.2h-2.6V17.9z"/>
		<path id="XMLID_5_" d="M38.1,27.2h-1.4c-0.3,0-0.5,0-0.7-0.1s-0.3-0.3-0.4-0.6l-0.3-0.9c-0.3,0.3-0.7,0.6-1,0.8
			c-0.3,0.2-0.7,0.4-1,0.6s-0.7,0.3-1.1,0.4s-0.8,0.1-1.3,0.1c-0.6,0-1.1-0.1-1.6-0.2c-0.5-0.2-0.9-0.4-1.2-0.7
			c-0.3-0.3-0.6-0.7-0.8-1.1s-0.3-1-0.3-1.6c0-0.5,0.1-1,0.4-1.5c0.3-0.5,0.7-0.9,1.3-1.3c0.6-0.4,1.4-0.7,2.5-1
			c1-0.3,2.3-0.4,3.8-0.4v-0.8c0-0.9-0.2-1.6-0.6-2c-0.4-0.4-0.9-0.6-1.6-0.6c-0.5,0-1,0.1-1.3,0.2c-0.3,0.1-0.6,0.3-0.9,0.4
			c-0.3,0.2-0.5,0.3-0.7,0.4c-0.2,0.1-0.5,0.2-0.7,0.2c-0.2,0-0.4-0.1-0.6-0.2c-0.2-0.1-0.3-0.3-0.4-0.4l-0.6-1
			c1.5-1.4,3.4-2.1,5.6-2.1c0.8,0,1.5,0.1,2.1,0.4s1.1,0.6,1.6,1.1c0.4,0.5,0.7,1,1,1.6c0.2,0.6,0.3,1.3,0.3,2.1V27.2z M31.9,25.2
			c0.3,0,0.6,0,0.9-0.1s0.5-0.1,0.8-0.3s0.5-0.3,0.7-0.4s0.5-0.4,0.7-0.6v-2.2c-0.9,0-1.7,0.1-2.3,0.2c-0.6,0.1-1.1,0.3-1.5,0.5
			s-0.7,0.4-0.8,0.6c-0.2,0.2-0.2,0.5-0.2,0.8c0,0.6,0.2,1,0.5,1.2C30.9,25.1,31.3,25.2,31.9,25.2z"/>
		<path id="XMLID_8_" d="M41.2,27.2V13.9h1.9c0.3,0,0.6,0.1,0.7,0.2c0.1,0.1,0.2,0.3,0.3,0.6l0.2,1.6c0.5-0.8,1-1.5,1.7-2
			c0.6-0.5,1.4-0.7,2.2-0.7c0.7,0,1.2,0.2,1.6,0.5l-0.4,2.4c0,0.2-0.1,0.3-0.2,0.3c-0.1,0.1-0.2,0.1-0.4,0.1c-0.1,0-0.3,0-0.5-0.1
			c-0.2-0.1-0.5-0.1-0.9-0.1c-0.7,0-1.2,0.2-1.7,0.6c-0.5,0.4-0.9,0.9-1.2,1.6v8.3H41.2z"/>
		<path id="XMLID_10_" d="M61.9,27.2h-1.4c-0.3,0-0.5,0-0.7-0.1s-0.3-0.3-0.4-0.6l-0.3-0.9c-0.3,0.3-0.7,0.6-1,0.8
			c-0.3,0.2-0.7,0.4-1,0.6s-0.7,0.3-1.1,0.4s-0.8,0.1-1.3,0.1c-0.6,0-1.1-0.1-1.6-0.2c-0.5-0.2-0.9-0.4-1.2-0.7
			c-0.3-0.3-0.6-0.7-0.8-1.1s-0.3-1-0.3-1.6c0-0.5,0.1-1,0.4-1.5c0.3-0.5,0.7-0.9,1.3-1.3c0.6-0.4,1.4-0.7,2.5-1
			c1-0.3,2.3-0.4,3.8-0.4v-0.8c0-0.9-0.2-1.6-0.6-2c-0.4-0.4-0.9-0.6-1.6-0.6c-0.5,0-1,0.1-1.3,0.2c-0.3,0.1-0.6,0.3-0.9,0.4
			c-0.3,0.2-0.5,0.3-0.7,0.4c-0.2,0.1-0.5,0.2-0.7,0.2c-0.2,0-0.4-0.1-0.6-0.2c-0.2-0.1-0.3-0.3-0.4-0.4l-0.6-1
			c1.5-1.4,3.4-2.1,5.6-2.1c0.8,0,1.5,0.1,2.1,0.4s1.1,0.6,1.6,1.1c0.4,0.5,0.7,1,1,1.6c0.2,0.6,0.3,1.3,0.3,2.1V27.2z M55.7,25.2
			c0.3,0,0.6,0,0.9-0.1s0.5-0.1,0.8-0.3s0.5-0.3,0.7-0.4s0.5-0.4,0.7-0.6v-2.2c-0.9,0-1.7,0.1-2.3,0.2c-0.6,0.1-1.1,0.3-1.5,0.5
			s-0.7,0.4-0.8,0.6c-0.2,0.2-0.2,0.5-0.2,0.8c0,0.6,0.2,1,0.5,1.2C54.7,25.1,55.2,25.2,55.7,25.2z"/>
		<path id="XMLID_13_" d="M75.6,13.7c0.8,0,1.6,0.1,2.3,0.4s1.3,0.7,1.8,1.2s0.9,1.1,1.2,1.9c0.3,0.8,0.4,1.6,0.4,2.6
			c0,0.2,0,0.4,0,0.6c0,0.2-0.1,0.3-0.1,0.4c-0.1,0.1-0.1,0.2-0.2,0.2c-0.1,0-0.2,0.1-0.4,0.1h-8.2c0.1,1.4,0.5,2.4,1.1,3
			c0.6,0.6,1.5,1,2.5,1c0.5,0,1-0.1,1.3-0.2s0.7-0.3,1-0.4s0.5-0.3,0.7-0.4c0.2-0.1,0.4-0.2,0.6-0.2c0.1,0,0.2,0,0.3,0.1
			c0.1,0.1,0.2,0.1,0.2,0.2l0.9,1.2c-0.4,0.4-0.8,0.8-1.2,1s-0.9,0.5-1.4,0.7c-0.5,0.2-1,0.3-1.5,0.4c-0.5,0.1-1,0.1-1.4,0.1
			c-0.9,0-1.8-0.2-2.6-0.5s-1.5-0.8-2.1-1.4c-0.6-0.6-1.1-1.3-1.4-2.2c-0.3-0.9-0.5-1.9-0.5-3.1c0-0.9,0.1-1.8,0.4-2.6
			c0.3-0.8,0.7-1.5,1.3-2.1s1.2-1.1,2-1.4C73.7,13.9,74.6,13.7,75.6,13.7z M75.7,16c-0.9,0-1.7,0.3-2.2,0.8c-0.5,0.5-0.9,1.3-1,2.2
			h6c0-0.4-0.1-0.8-0.2-1.2c-0.1-0.4-0.3-0.7-0.5-1c-0.2-0.3-0.5-0.5-0.9-0.7C76.6,16.1,76.2,16,75.7,16z"/>
		<path id="XMLID_16_" d="M87.4,7.9v19.3h-3.2V7.9H87.4z"/>
	</g>
</g>
<g id="XMLID_63_">
	<g id="XMLID_64_">
		<path id="XMLID_65_" d="M167,126.8l-6,13.3h1.5l1.6-3.5h7.2l1.5,3.5h1.6l-6-13.3H167z M164.7,135.2l3-6.7l3,6.7H164.7z
			 M184.3,126.8h1.7l-5.5,7.9v5.2h-1.5v-5.2l-5.5-7.9h1.8l4.4,6.6L184.3,126.8z M142.9,126.8H138V140h1.5v-4.6h3.2
			c2.8,0,5.2-1.5,5.2-4.3C147.8,128.4,145.9,126.8,142.9,126.8 M142.7,134h-3.3v-5.8h3.3c2.1,0,3.5,1,3.5,2.9
			C146.3,132.8,144.9,134,142.7,134 M152,138.6h7.4v1.4h-8.9v-13.2h1.5V138.6z M164,99.2c-3,0-5.4,2.4-5.4,5.4v15.7h-4.9v-15.7
			c0-3-2.4-5.4-5.4-5.4c-3,0-5.4,2.4-5.4,5.4v15.7H138v-15.7c0-5.7,4.6-10.3,10.3-10.3c3.2,0,6,1.4,7.9,3.6c1.9-2.2,4.7-3.6,7.9-3.6
			c5.7,0,10.3,4.6,10.3,10.3v15.7h-4.9v-15.7C169.3,101.6,166.9,99.2,164,99.2 M292.5,94.3v1.2l-6.5,13.1h-1.8l6.5-12.8h-7.9v-1.5
			H292.5z M275.9,99.3c-4.5-5.7-12.8-6.8-18.5-2.3c-5.7,4.5-6.8,12.8-2.3,18.5c4.5,5.7,12.8,6.8,18.5,2.3c0.8-0.7,1.6-1.4,2.3-2.3
			c0,1,0,2.1,0,3.1c0,7.5-4.7,11.3-11.4,11.3c-3.4,0-6.6-0.9-9.6-2.6l-1.3,2.5c3.3,1.9,7,2.8,10.8,2.8c8.3,0,14.3-4.9,14.3-13.7
			V94.3h-2.8C275.9,96,275.9,97.7,275.9,99.3 M265.5,117.8c-5.7,0-10.3-4.6-10.3-10.3c0-5.7,4.6-10.3,10.3-10.3s10.3,4.6,10.3,10.3
			C275.8,113.2,271.2,117.8,265.5,117.8 M233.7,94.3c-7.3,0-13.2,5.9-13.2,13.2c0,7.3,5.9,13.2,13.2,13.2s13.2-5.9,13.2-13.2
			C246.9,100.2,241,94.3,233.7,94.3 M233.7,115.7c-4.6,0-8.2-3.7-8.2-8.2s3.7-8.2,8.2-8.2c4.6,0,8.2,3.7,8.2,8.2
			S238.2,115.7,233.7,115.7 M190.8,94.3c-7.3,0-13.2,5.9-13.2,13.2c0,7.3,5.9,13.2,13.2,13.2s13.2-5.9,13.2-13.2
			C204,100.2,198.1,94.3,190.8,94.3 M190.8,115.7c-4.6,0-8.2-3.7-8.2-8.2s3.7-8.2,8.2-8.2c4.6,0,8.2,3.7,8.2,8.2
			S195.3,115.7,190.8,115.7 M217.6,115.7h1.1v4.9h-1.1c-5.7,0-10.3-4.6-10.3-10.3V87.7h4.9v6.6h6.4v4.9h-6.4v11.1
			C212.2,113.3,214.6,115.7,217.6,115.7"/>
	</g>
</g>
</svg>
