<?xml version="1.0" encoding="utf-8"?>
<!-- Generator: Adobe Illustrator 19.0.0, SVG Export Plug-In . SVG Version: 6.00 Build 0)  -->
<svg version="1.1" id="Capa_1" xmlns="http://www.w3.org/2000/svg" xmlns:xlink="http://www.w3.org/1999/xlink" x="0px" y="0px"
	 viewBox="0 0 300 145" style="enable-background:new 0 0 300 145;" xml:space="preserve">
<g id="XMLID_4_">
	<g id="XMLID_3_">
		<g id="XMLID_20_">
			<path id="XMLID_21_" d="M18.4,56.5c-0.9-1.4-1.3-2.8-1.3-4.2c0-1.3,0.3-2.5,1-3.6c0.6-1.1,1.6-2.2,2.8-3.2l1.5,0.9
				c0.1,0.1,0.2,0.2,0.3,0.3c0.1,0.1,0.1,0.2,0.1,0.3c0,0.1,0,0.2-0.1,0.3c0,0.1-0.1,0.2-0.2,0.3c-0.2,0.2-0.3,0.4-0.5,0.7
				c-0.2,0.3-0.3,0.5-0.5,0.8c-0.2,0.3-0.3,0.6-0.4,1c-0.1,0.4-0.2,0.7-0.2,1.1c0,0.4,0.1,0.9,0.2,1.4c0.1,0.5,0.4,1,0.7,1.5
				c0.1,0.2,0.2,0.4,0.2,0.5c0,0.4-0.2,0.7-0.7,0.8L18.4,56.5z M24.6,56.5c-0.9-1.4-1.3-2.8-1.3-4.2c0-1.3,0.3-2.5,1-3.6
				c0.6-1.1,1.6-2.2,2.8-3.2l1.5,0.9c0.1,0.1,0.2,0.2,0.3,0.3c0,0.1,0.1,0.2,0.1,0.3c0,0.1,0,0.2-0.1,0.3c-0.1,0.1-0.1,0.2-0.2,0.3
				c-0.2,0.2-0.3,0.4-0.5,0.7s-0.3,0.5-0.5,0.8c-0.2,0.3-0.3,0.6-0.4,1s-0.2,0.7-0.2,1.1c0,0.4,0.1,0.9,0.2,1.4s0.4,1,0.7,1.5
				c0.1,0.2,0.2,0.4,0.2,0.5c0,0.4-0.2,0.7-0.7,0.8L24.6,56.5z"/>
			<path id="XMLID_24_" d="M53.1,74.9h-3.9c-0.4,0-0.8-0.1-1.1-0.3c-0.3-0.2-0.5-0.5-0.6-0.8l-2-5.6H34.1l-2,5.6
				c-0.1,0.3-0.3,0.6-0.6,0.8c-0.3,0.2-0.7,0.4-1.1,0.4h-3.9l10.7-27.3h5.2L53.1,74.9z M35.4,64.6h8.7l-3.3-9.1
				c-0.2-0.4-0.3-0.9-0.5-1.4c-0.2-0.5-0.4-1.1-0.5-1.8c-0.2,0.6-0.3,1.2-0.5,1.8c-0.2,0.6-0.3,1-0.5,1.5L35.4,64.6z"/>
			<path id="XMLID_27_" d="M50,47.6h4.1c0.4,0,0.8,0.1,1.1,0.3s0.5,0.5,0.6,0.8l6.4,16.6c0.2,0.5,0.4,1.1,0.6,1.8
				c0.2,0.6,0.4,1.3,0.6,2c0.3-1.4,0.6-2.7,1.1-3.8l6.4-16.6c0.1-0.3,0.3-0.6,0.6-0.8c0.3-0.2,0.6-0.4,1.1-0.4h4.1l-11,27.3h-4.6
				L50,47.6z"/>
			<path id="XMLID_29_" d="M96.7,47.6v4H84.6v7.6h9.5v3.9h-9.5v7.7h12.1v4.1H79.5V47.6H96.7z"/>
			<path id="XMLID_31_" d="M104.3,47.7c0.2,0,0.3,0.1,0.4,0.1s0.2,0.1,0.3,0.2c0.1,0.1,0.2,0.2,0.4,0.4l14.3,18.2
				c-0.1-0.4-0.1-0.9-0.1-1.3c0-0.4,0-0.8,0-1.2V47.6h4.5v27.3h-2.6c-0.4,0-0.7-0.1-1-0.2c-0.3-0.1-0.5-0.4-0.8-0.7l-14.3-18.2
				c0,0.4,0.1,0.8,0.1,1.2c0,0.4,0,0.8,0,1.1v16.7h-4.5V47.6h2.7C104,47.6,104.2,47.7,104.3,47.7z"/>
			<path id="XMLID_33_" d="M148.8,47.6v4.2h-8.2v23.1h-5.1V51.8h-8.2v-4.2H148.8z"/>
			<path id="XMLID_35_" d="M163,70.8c1,0,1.9-0.2,2.6-0.5c0.8-0.3,1.4-0.8,2-1.4c0.5-0.6,0.9-1.3,1.2-2.1c0.3-0.8,0.4-1.8,0.4-2.8
				V47.6h5.1V64c0,1.6-0.3,3.1-0.8,4.5s-1.3,2.6-2.3,3.6s-2.2,1.8-3.6,2.3s-3,0.8-4.7,0.8s-3.3-0.3-4.7-0.8s-2.6-1.3-3.6-2.3
				c-1-1-1.7-2.2-2.2-3.6s-0.8-2.9-0.8-4.5V47.6h5.1V64c0,1,0.1,2,0.4,2.8c0.3,0.8,0.7,1.6,1.2,2.2c0.5,0.6,1.2,1.1,2,1.4
				C161.2,70.7,162,70.8,163,70.8z"/>
			<path id="XMLID_37_" d="M184.7,64.3v10.7h-5.1V47.6h8.3c1.9,0,3.5,0.2,4.8,0.6c1.3,0.4,2.4,0.9,3.3,1.6c0.8,0.7,1.5,1.5,1.9,2.5
				c0.4,1,0.6,2,0.6,3.2c0,0.9-0.1,1.8-0.4,2.6c-0.3,0.8-0.7,1.6-1.2,2.2s-1.1,1.3-1.9,1.8c-0.7,0.5-1.6,0.9-2.6,1.2
				c0.6,0.4,1.2,0.9,1.7,1.6l6.8,10.1h-4.6c-0.4,0-0.8-0.1-1.1-0.3c-0.3-0.2-0.6-0.4-0.8-0.8l-5.7-8.7c-0.2-0.3-0.5-0.6-0.7-0.7
				c-0.3-0.1-0.6-0.2-1.1-0.2H184.7z M184.7,60.6h3.2c1,0,1.8-0.1,2.5-0.4s1.3-0.6,1.8-1c0.5-0.4,0.8-0.9,1-1.5
				c0.2-0.6,0.3-1.2,0.3-1.9c0-1.4-0.5-2.4-1.4-3.2c-0.9-0.7-2.3-1.1-4.2-1.1h-3.2V60.6z"/>
			<path id="XMLID_40_" d="M221.4,47.6v4h-12.1v7.6h9.5v3.9h-9.5v7.7h12.1v4.1h-17.2V47.6H221.4z"/>
			<path id="XMLID_42_" d="M231,64.3v10.7H226V47.6h8.3c1.9,0,3.5,0.2,4.8,0.6c1.3,0.4,2.4,0.9,3.3,1.6c0.8,0.7,1.5,1.5,1.9,2.5
				c0.4,1,0.6,2,0.6,3.2c0,0.9-0.1,1.8-0.4,2.6c-0.3,0.8-0.7,1.6-1.2,2.2s-1.1,1.3-1.9,1.8c-0.7,0.5-1.6,0.9-2.6,1.2
				c0.6,0.4,1.2,0.9,1.7,1.6l6.8,10.1h-4.6c-0.4,0-0.8-0.1-1.1-0.3c-0.3-0.2-0.6-0.4-0.8-0.8l-5.7-8.7c-0.2-0.3-0.5-0.6-0.7-0.7
				c-0.3-0.1-0.6-0.2-1.1-0.2H231z M231,60.6h3.2c1,0,1.8-0.1,2.5-0.4s1.3-0.6,1.8-1c0.5-0.4,0.8-0.9,1-1.5c0.2-0.6,0.3-1.2,0.3-1.9
				c0-1.4-0.5-2.4-1.4-3.2c-0.9-0.7-2.3-1.1-4.2-1.1H231V60.6z"/>
			<path id="XMLID_45_" d="M275.7,61.3c0,2-0.3,3.9-1,5.6c-0.7,1.7-1.6,3.2-2.8,4.4s-2.7,2.2-4.4,2.9c-1.7,0.7-3.6,1-5.6,1
				c-2.1,0-3.9-0.3-5.6-1c-1.7-0.7-3.2-1.7-4.4-2.9c-1.2-1.2-2.2-2.7-2.8-4.4c-0.7-1.7-1-3.6-1-5.6c0-2,0.3-3.8,1-5.6
				c0.7-1.7,1.6-3.2,2.8-4.4c1.2-1.2,2.7-2.2,4.4-2.9c1.7-0.7,3.6-1,5.6-1c2.1,0,3.9,0.4,5.6,1.1c1.7,0.7,3.1,1.7,4.4,2.9
				s2.1,2.7,2.8,4.4C275.4,57.4,275.7,59.3,275.7,61.3z M270.5,61.3c0-1.5-0.2-2.8-0.6-4c-0.4-1.2-1-2.2-1.7-3
				c-0.7-0.8-1.6-1.5-2.7-1.9c-1.1-0.4-2.3-0.7-3.6-0.7c-1.3,0-2.5,0.2-3.6,0.7s-2,1.1-2.7,1.9s-1.3,1.8-1.7,3
				c-0.4,1.2-0.6,2.5-0.6,4c0,1.5,0.2,2.8,0.6,4c0.4,1.2,1,2.2,1.7,3c0.7,0.8,1.7,1.5,2.7,1.9c1.1,0.4,2.3,0.7,3.6,0.7
				c1.3,0,2.5-0.2,3.6-0.7c1.1-0.4,2-1.1,2.7-1.9c0.7-0.8,1.3-1.8,1.7-3C270.3,64.1,270.5,62.8,270.5,61.3z"/>
			<path id="XMLID_48_" d="M282,46c0.4,0.7,0.8,1.4,1,2.1c0.2,0.7,0.3,1.4,0.3,2.1c0,1.3-0.3,2.5-1,3.6s-1.5,2.2-2.7,3.2l-1.5-0.9
				c-0.1-0.1-0.2-0.2-0.3-0.3c-0.1-0.1-0.1-0.2-0.1-0.3c0-0.2,0.1-0.4,0.2-0.6c0.2-0.2,0.3-0.4,0.5-0.6c0.2-0.2,0.3-0.5,0.5-0.8
				c0.2-0.3,0.3-0.6,0.4-1c0.1-0.4,0.1-0.7,0.1-1.1c0-0.4-0.1-0.9-0.2-1.4s-0.4-1-0.7-1.5c-0.1-0.2-0.2-0.3-0.2-0.5
				c0-0.4,0.2-0.7,0.7-0.8L282,46z M288.3,46c0.4,0.7,0.8,1.4,1,2.1c0.2,0.7,0.3,1.4,0.3,2.1c0,1.3-0.3,2.5-1,3.6s-1.5,2.2-2.7,3.2
				l-1.5-0.9c-0.1-0.1-0.2-0.2-0.3-0.3c0-0.1-0.1-0.2-0.1-0.3c0-0.2,0.1-0.4,0.2-0.6c0.2-0.2,0.3-0.4,0.5-0.6s0.3-0.5,0.5-0.8
				c0.2-0.3,0.3-0.6,0.4-1c0.1-0.4,0.1-0.7,0.1-1.1c0-0.4-0.1-0.9-0.2-1.4c-0.1-0.5-0.4-1-0.7-1.5c-0.1-0.2-0.2-0.3-0.2-0.5
				c0-0.4,0.2-0.7,0.7-0.8L288.3,46z"/>
		</g>
	</g>
	<g id="XMLID_1_">
		<path id="XMLID_2_" d="M20.7,24.3v6.6h-3.5V12.1h6.1c1.3,0,2.3,0.1,3.3,0.4c0.9,0.3,1.7,0.7,2.3,1.2c0.6,0.5,1,1.2,1.3,1.9
			c0.3,0.7,0.4,1.5,0.4,2.4c0,0.9-0.2,1.7-0.5,2.5c-0.3,0.8-0.8,1.4-1.4,2c-0.6,0.5-1.4,1-2.3,1.3c-0.9,0.3-2,0.5-3.2,0.5H20.7z
			 M20.7,21.6h2.6c0.6,0,1.2-0.1,1.7-0.2c0.5-0.2,0.9-0.4,1.2-0.7s0.5-0.7,0.7-1.1c0.2-0.4,0.2-0.9,0.2-1.4c0-0.5-0.1-1-0.2-1.4
			c-0.2-0.4-0.4-0.8-0.7-1s-0.7-0.5-1.2-0.7s-1-0.2-1.7-0.2h-2.6V21.6z"/>
		<path id="XMLID_7_" d="M43,30.9h-1.4c-0.3,0-0.5,0-0.7-0.1s-0.3-0.3-0.4-0.6l-0.3-0.9c-0.3,0.3-0.7,0.6-1,0.8
			c-0.3,0.2-0.7,0.4-1,0.6S37.5,31,37.1,31s-0.8,0.1-1.3,0.1c-0.6,0-1.1-0.1-1.6-0.2c-0.5-0.2-0.9-0.4-1.2-0.7
			c-0.3-0.3-0.6-0.7-0.8-1.1s-0.3-1-0.3-1.6c0-0.5,0.1-1,0.4-1.5c0.3-0.5,0.7-0.9,1.3-1.3c0.6-0.4,1.4-0.7,2.5-1
			c1-0.3,2.3-0.4,3.8-0.4v-0.8c0-0.9-0.2-1.6-0.6-2c-0.4-0.4-0.9-0.6-1.6-0.6c-0.5,0-1,0.1-1.3,0.2c-0.3,0.1-0.6,0.3-0.9,0.4
			c-0.3,0.2-0.5,0.3-0.7,0.4c-0.2,0.1-0.5,0.2-0.7,0.2c-0.2,0-0.4-0.1-0.6-0.2c-0.2-0.1-0.3-0.3-0.4-0.4l-0.6-1
			c1.5-1.4,3.4-2.1,5.6-2.1c0.8,0,1.5,0.1,2.1,0.4s1.1,0.6,1.6,1.1c0.4,0.5,0.7,1,1,1.6c0.2,0.6,0.3,1.3,0.3,2.1V30.9z M36.8,28.9
			c0.3,0,0.6,0,0.9-0.1s0.5-0.1,0.8-0.3s0.5-0.3,0.7-0.4s0.5-0.4,0.7-0.6v-2.2c-0.9,0-1.7,0.1-2.3,0.2c-0.6,0.1-1.1,0.3-1.5,0.5
			s-0.7,0.4-0.8,0.6C35,26.8,35,27.1,35,27.4c0,0.6,0.2,1,0.5,1.2C35.8,28.8,36.2,28.9,36.8,28.9z"/>
		<path id="XMLID_10_" d="M46.2,30.9V17.6H48c0.3,0,0.6,0.1,0.7,0.2c0.1,0.1,0.2,0.3,0.3,0.6l0.2,1.6c0.5-0.8,1-1.5,1.7-2
			c0.6-0.5,1.4-0.7,2.2-0.7c0.7,0,1.2,0.2,1.6,0.5l-0.4,2.4c0,0.2-0.1,0.3-0.2,0.3c-0.1,0.1-0.2,0.1-0.4,0.1c-0.1,0-0.3,0-0.5-0.1
			c-0.2-0.1-0.5-0.1-0.9-0.1c-0.7,0-1.2,0.2-1.7,0.6c-0.5,0.4-0.9,0.9-1.2,1.6v8.3H46.2z"/>
		<path id="XMLID_12_" d="M66.9,30.9h-1.4c-0.3,0-0.5,0-0.7-0.1s-0.3-0.3-0.4-0.6L64,29.3c-0.3,0.3-0.7,0.6-1,0.8
			c-0.3,0.2-0.7,0.4-1,0.6S61.3,31,60.9,31s-0.8,0.1-1.3,0.1c-0.6,0-1.1-0.1-1.6-0.2c-0.5-0.2-0.9-0.4-1.2-0.7
			c-0.3-0.3-0.6-0.7-0.8-1.1s-0.3-1-0.3-1.6c0-0.5,0.1-1,0.4-1.5c0.3-0.5,0.7-0.9,1.3-1.3c0.6-0.4,1.4-0.7,2.5-1
			c1-0.3,2.3-0.4,3.8-0.4v-0.8c0-0.9-0.2-1.6-0.6-2c-0.4-0.4-0.9-0.6-1.6-0.6c-0.5,0-1,0.1-1.3,0.2c-0.3,0.1-0.6,0.3-0.9,0.4
			c-0.3,0.2-0.5,0.3-0.7,0.4c-0.2,0.1-0.5,0.2-0.7,0.2c-0.2,0-0.4-0.1-0.6-0.2c-0.2-0.1-0.3-0.3-0.4-0.4l-0.6-1
			c1.5-1.4,3.4-2.1,5.6-2.1c0.8,0,1.5,0.1,2.1,0.4s1.1,0.6,1.6,1.1c0.4,0.5,0.7,1,1,1.6c0.2,0.6,0.3,1.3,0.3,2.1V30.9z M60.6,28.9
			c0.3,0,0.6,0,0.9-0.1s0.5-0.1,0.8-0.3s0.5-0.3,0.7-0.4s0.5-0.4,0.7-0.6v-2.2c-0.9,0-1.7,0.1-2.3,0.2c-0.6,0.1-1.1,0.3-1.5,0.5
			s-0.7,0.4-0.8,0.6c-0.2,0.2-0.2,0.5-0.2,0.8c0,0.6,0.2,1,0.5,1.2C59.6,28.8,60.1,28.9,60.6,28.9z"/>
		<path id="XMLID_15_" d="M80.5,17.4c0.8,0,1.6,0.1,2.3,0.4s1.3,0.7,1.8,1.2s0.9,1.1,1.2,1.9c0.3,0.8,0.4,1.6,0.4,2.6
			c0,0.2,0,0.4,0,0.6c0,0.2-0.1,0.3-0.1,0.4c-0.1,0.1-0.1,0.2-0.2,0.2c-0.1,0-0.2,0.1-0.4,0.1h-8.2c0.1,1.4,0.5,2.4,1.1,3
			c0.6,0.6,1.5,1,2.5,1c0.5,0,1-0.1,1.3-0.2s0.7-0.3,1-0.4s0.5-0.3,0.7-0.4c0.2-0.1,0.4-0.2,0.6-0.2c0.1,0,0.2,0,0.3,0.1
			c0.1,0.1,0.2,0.1,0.2,0.2l0.9,1.2c-0.4,0.4-0.8,0.8-1.2,1s-0.9,0.5-1.4,0.7c-0.5,0.2-1,0.3-1.5,0.4c-0.5,0.1-1,0.1-1.4,0.1
			c-0.9,0-1.8-0.2-2.6-0.5s-1.5-0.8-2.1-1.4c-0.6-0.6-1.1-1.3-1.4-2.2c-0.3-0.9-0.5-1.9-0.5-3.1c0-0.9,0.1-1.8,0.4-2.6
			c0.3-0.8,0.7-1.5,1.3-2.1s1.2-1.1,2-1.4C78.7,17.6,79.5,17.4,80.5,17.4z M80.6,19.7c-0.9,0-1.7,0.3-2.2,0.8
			c-0.5,0.5-0.9,1.3-1,2.2h6c0-0.4-0.1-0.8-0.2-1.2c-0.1-0.4-0.3-0.7-0.5-1c-0.2-0.3-0.5-0.5-0.9-0.7C81.5,19.8,81.1,19.7,80.6,19.7
			z"/>
		<path id="XMLID_18_" d="M92.3,11.6v19.3h-3.2V11.6H92.3z"/>
	</g>
</g>
<g id="XMLID_262_">
	<g id="XMLID_139_">
		<path id="XMLID_140_" d="M149.6,133.4L149.6,133.4c0-3.6,2.7-6.7,6.6-6.7c3.9,0,6.5,3.1,6.5,6.6v0c0,3.5-2.7,6.6-6.6,6.6
			C152.3,140,149.6,136.9,149.6,133.4 M161.2,133.4L161.2,133.4c0-2.9-2.1-5.3-5.1-5.3c-2.9,0-5,2.3-5,5.3v0c0,2.9,2.1,5.3,5.1,5.3
			C159.1,138.7,161.2,136.3,161.2,133.4 M164.1,127h1.6l3.7,10.7l3.5-10.7h1.2l3.5,10.7l3.7-10.7h1.5l-4.6,12.9h-1.2l-3.5-10.4
			l-3.5,10.4h-1.2L164.1,127z M185.4,127h9.3v1.3h-7.8v4.4h7v1.3h-7v4.5h7.9v1.3h-9.4V127z M197.6,127h5.5c1.6,0,2.8,0.5,3.6,1.3
			c0.6,0.6,1,1.5,1,2.5v0c0,2.1-1.5,3.4-3.5,3.7l3.9,5.2h-1.8l-3.7-5h-3.7v5h-1.4V127z M203,133.5c1.9,0,3.3-1,3.3-2.6v0
			c0-1.6-1.2-2.5-3.3-2.5h-4v5.2H203z M142.7,135.4h-3.2v4.6H138v-13.2h4.9c3,0,4.9,1.6,4.9,4.2
			C147.8,133.9,145.5,135.4,142.7,135.4 M142.8,128.2h-3.3v5.8h3.3c2.2,0,3.6-1.2,3.6-2.9C146.3,129.2,144.9,128.2,142.8,128.2
			 M233.7,94.3c-7.3,0-13.2,5.9-13.2,13.2c0,7.3,5.9,13.2,13.2,13.2c7.3,0,13.2-5.9,13.2-13.2C246.9,100.2,241,94.3,233.7,94.3
			 M233.7,115.7c-4.6,0-8.2-3.7-8.2-8.2c0-4.6,3.7-8.2,8.2-8.2c4.6,0,8.2,3.7,8.2,8.2C242,112,238.2,115.7,233.7,115.7 M217.6,115.7
			h1.1v4.9h-1.1c-5.7,0-10.3-4.6-10.3-10.3V87.7h4.9v6.6h6.4v4.9h-6.4v11.1C212.2,113.3,214.6,115.7,217.6,115.7 M174.3,104.6v15.7
			h-4.9v-15.7c0-3-2.4-5.4-5.4-5.4s-5.4,2.4-5.4,5.4v15.7h-4.9v-15.7c0-3-2.4-5.4-5.4-5.4c-3,0-5.4,2.4-5.4,5.4v15.7H138v-15.7
			c0-5.7,4.6-10.3,10.3-10.3c3.2,0,6,1.4,7.9,3.6c1.9-2.2,4.7-3.6,7.9-3.6C169.7,94.3,174.3,98.9,174.3,104.6 M190.8,94.3
			c-7.3,0-13.2,5.9-13.2,13.2c0,7.3,5.9,13.2,13.2,13.2c7.3,0,13.2-5.9,13.2-13.2C204,100.2,198.1,94.3,190.8,94.3 M190.8,115.7
			c-4.6,0-8.2-3.7-8.2-8.2c0-4.6,3.7-8.2,8.2-8.2c4.6,0,8.2,3.7,8.2,8.2C199.1,112,195.3,115.7,190.8,115.7 M273.6,117.8
			c-5.7,4.5-14,3.5-18.5-2.3c-4.5-5.7-3.5-14,2.3-18.5c5.7-4.5,14-3.5,18.5,2.3c0-1.6,0-3.3,0-5.1h2.8v24.6c0,8.8-6,13.7-14.3,13.7
			c-3.8,0-7.5-0.9-10.8-2.8l1.3-2.5c2.9,1.7,6.2,2.6,9.6,2.6c6.7,0,11.4-3.8,11.4-11.3c0-1,0-2.1,0-3.1
			C275.2,116.4,274.4,117.2,273.6,117.8 M255.1,107.4c0,5.7,4.6,10.3,10.3,10.3c5.7,0,10.3-4.6,10.3-10.3s-4.6-10.3-10.3-10.3
			C259.8,97.1,255.1,101.7,255.1,107.4 M290.6,95.8h-7.9v-1.5h9.7v1.2l-6.5,13.1h-1.8L290.6,95.8z"/>
	</g>
</g>
</svg>
