<svg width="705" height="175" viewBox="0 0 705 175" fill="none" xmlns="http://www.w3.org/2000/svg">
<g filter="url(#filter0_f_2914_836)">
<path d="M62 66.5H643V77V91C643 91 617 138 606 146C595 154 107 152 98 146C89 140 62 91 62 91L62 66.5Z" fill="#0178B0"/>
</g>
<path d="M63.1379 2H644V86C644 86 618 133 607 141C596 149 108 147 99 141C90 135 63 86 63 86H63.1379V2Z" fill="white"/>
<path d="M0 0H704.138V83.839H645.31C645.31 83.839 619.28 130.749 608.27 138.734C597.26 146.718 108.747 144.722 99.737 138.734C90.728 132.745 63.7 83.839 63.7 83.839H0V0Z" fill="url(#paint0_linear_2914_836)"/>
<path d="M75 12H29.051C27.24 12 25.674 13.2164 25.206 14.9656L10.348 70.4656C9.66798 73.0058 11.5819 75.5 14.212 75.5H67.553C69.055 75.5 70.421 76.3225 71.111 77.6564C75.7459 86.6094 93.632 120.765 101 129C109.5 138.5 594.5 135.5 602 129C608.62 123.263 633.16 85.9719 638.83 77.2999C639.57 76.1656 640.82 75.5 642.17 75.5H689.55C692.25 75.5 694.17 72.8758 693.36 70.2983L675.88 14.7984C675.36 13.1328 674.11 12 672.36 12H75Z" fill="url(#paint1_radial_2914_836)"/>
<mask id="mask0_2914_836" style="mask-type:luminance" maskUnits="userSpaceOnUse" x="263" y="38" width="196" height="71">
<path d="M458.6 38H263V108.8H458.6V38Z" fill="white"/>
</mask>
<g mask="url(#mask0_2914_836)">
<path d="M405.78 42.3599C401.49 47.2793 401.73 52.4796 401.73 52.4796V65.0837C401.73 65.0837 401.49 70.2803 405.78 75.2022C409.89 79.8532 418.1 79.5596 418.1 79.5596H453.49C456.32 79.5596 456.12 76.6399 456.12 76.6399V69.2399H425.58C422.47 69.2399 418.1 66.7176 418.1 62.1324V55.4285C418.1 50.8445 422.47 48.3184 425.58 48.3184H456.12V40.9235C456.12 40.9235 456.32 38.005 453.49 38.005H418.1C418.1 38.005 418 38.0012 417.81 38.0012C416.3 38.0012 409.43 38.2328 405.78 42.3599Z" fill="white"/>
<path d="M366.454 38H353.847L353.849 38.0076C348.454 38.1658 346.881 42.2954 346.881 42.2954L329.492 79.5584H341.974C347.437 79.5584 348.976 76.1324 348.976 76.1324L356.82 59.324L356.901 59.1494C357.614 57.6231 359.2 57.6585 359.2 57.6585H361.419C361.419 57.6585 363.006 57.6231 363.719 59.1494L363.802 59.324L371.643 76.1324C371.643 76.1324 373.179 79.5584 378.644 79.5584H391.126L373.735 42.2954C373.735 42.2954 372.163 38.1658 366.771 38.0089L366.773 38.0013H366.454V38Z" fill="white"/>
<path d="M317.034 38H278.139C276.301 38 275.784 39.1618 275.784 40.1452V48.0096H298.233V48.0159C300.167 48.0792 301.785 49.384 302.305 51.1584C302.346 51.3027 302.447 51.9279 302.447 52.8897V62.1286C302.447 66.7139 298.078 69.2362 294.964 69.2362H264.438V76.6361C264.438 76.6361 264.234 79.5559 267.056 79.5559H302.447C302.447 79.5559 310.663 79.8507 314.77 75.1984C319.056 70.2765 318.818 65.08 318.818 65.08V39.849C318.818 38.062 317.27 38 317.057 38H317.033" fill="white"/>
<path d="M375.928 91.493C375.928 91.9638 375.544 92.3472 375.072 92.3472C374.6 92.3472 374.212 91.9638 374.212 91.493C374.212 91.0222 374.598 90.64 375.072 90.64C375.546 90.64 375.928 91.0209 375.928 91.493Z" fill="white"/>
<path d="M375.928 99.2017C375.928 99.6738 375.544 100.057 375.072 100.057C374.6 100.057 374.212 99.6738 374.212 99.2017C374.212 98.7296 374.598 98.3487 375.072 98.3487C375.546 98.3487 375.928 98.7309 375.928 99.2017Z" fill="white"/>
<path d="M373.662 99.2018C373.662 98.4297 374.294 97.8007 375.072 97.8007H375.142L375.151 92.8902C375.124 92.8928 375.097 92.8928 375.071 92.8928C374.293 92.8928 373.661 92.265 373.661 91.4917C373.661 90.7184 374.293 90.0907 375.071 90.0907H375.128L375.092 89.873C375.029 89.6668 374.879 89.6845 374.879 89.6845L374.368 89.6933L374.258 89.6604L373.86 89.6528L373.624 89.8933L373.139 90.0629L372.664 91.6816L372.633 91.9208L372.491 92.2549C371.035 94.3912 371.102 96.0808 371.102 96.0808C370.994 96.625 371.079 99.0107 371.079 99.0107L370.981 99.4701L371.037 99.5118L371.21 99.3827C371.721 99.9269 373.256 100.342 373.256 100.342L373.472 100.547C373.879 100.645 374.173 100.55 374.173 100.55L374.285 100.566C374.432 100.714 374.581 100.536 374.594 100.518C374.052 100.323 373.663 99.8054 373.663 99.1992L373.662 99.2018Z" fill="white"/>
<path d="M378.845 94.1659V94.1697C378.659 94.0241 378.427 93.9355 378.174 93.9355C377.581 93.9355 377.1 94.4152 377.1 95.005C377.1 95.329 377.245 95.6201 377.474 95.8162L377.472 95.8188C378.797 96.9464 379.636 98.6221 379.636 100.493C379.636 103.891 376.869 106.645 373.457 106.645C370.045 106.645 367.278 103.891 367.278 100.493C367.278 98.6461 368.095 96.9907 369.39 95.8631H369.387C369.65 95.6682 369.823 95.3555 369.823 95.005C369.823 94.4152 369.341 93.9355 368.749 93.9355C368.469 93.9355 368.216 94.0431 368.024 94.2152L368.016 94.2064C366.244 95.7289 365.12 97.9804 365.12 100.493C365.12 105.075 368.851 108.789 373.455 108.789C378.059 108.789 381.79 105.074 381.79 100.493C381.79 97.9576 380.644 95.6884 378.844 94.1659H378.845Z" fill="white"/>
<path d="M264.427 98.9208C264.447 97.9412 264.547 97.0806 264.769 96.101C264.99 95.0215 265.251 94.1811 265.654 93.1206C268.346 92.8611 271.018 92.7206 273.611 92.7206C276.204 92.7206 278.917 92.8206 281.57 93.0408L281.328 94.2001C278.977 94.0204 276.565 93.9002 273.992 93.9002C271.601 93.9002 269.309 94.0204 267.019 94.2001C266.798 94.8405 266.657 95.4404 266.517 96.101C266.376 96.7009 266.275 97.3008 266.216 97.9007C270.838 98.3209 275.661 98.2412 280.465 98.941C280.404 100.062 280.303 100.981 280.063 102.061C279.821 103.242 279.54 104.162 279.098 105.361C276.385 105.601 273.631 105.722 270.979 105.722C268.327 105.722 265.633 105.663 263.001 105.441L263.262 104.281C265.633 104.44 268.085 104.54 270.698 104.54C273.129 104.54 275.46 104.44 277.731 104.26C277.972 103.539 278.153 102.8 278.313 102.039C278.475 101.339 278.594 100.639 278.655 99.9396C273.973 99.4992 269.21 99.5207 264.427 98.9195V98.9208Z" fill="white"/>
<path d="M300.763 94.2811C297.186 94.0811 295.016 94.0216 293.087 94.0014L290.635 105.522H288.887L291.339 94.0014C289.389 94.0216 287.179 94.0811 283.54 94.2811L283.801 93.0218C286.715 92.8218 289.63 92.7219 292.502 92.7219C295.374 92.7219 298.19 92.8218 301.023 93.0218L300.761 94.2811H300.763Z" fill="white"/>
<path d="M313.425 93.0016L317.424 105.522H315.656L314.45 101.882H302.051L299.317 105.522H297.55L306.252 93.8407L305.167 93.3003L305.228 93.0801C306.031 93.0206 307.417 92.9206 308.845 92.8801C309.288 92.8801 309.709 92.8599 310.171 92.8599C311.297 92.8599 312.262 92.9004 313.428 93.0003L313.425 93.0016ZM307.818 94.2406L302.974 100.662H314.047L311.938 94.2406C311.314 94.1811 310.591 94.1406 309.888 94.1406C309.185 94.1406 308.481 94.1811 307.818 94.2406Z" fill="white"/>
<path d="M322.231 105.522H320.503L323.014 93.7204L321.95 93.1206L321.989 92.9206H331.274C333.846 92.9206 336.74 92.9408 339.333 93.1206C339.294 94.3203 339.193 95.3202 338.931 96.5212C338.65 97.821 338.288 99.1613 337.765 100.522C335.595 100.623 333.163 100.642 330.892 100.662L336.9 105.522H334.59L327.617 99.9016L327.698 99.5422H330.914C332.762 99.5422 334.571 99.5219 336.34 99.4422C336.661 98.5031 336.922 97.583 337.124 96.6427C337.325 95.7226 337.426 95.043 337.485 94.1419C335.354 94.1014 333.245 94.0824 331.015 94.0824H324.664L322.233 105.523L322.231 105.522Z" fill="white"/>
<path d="M358.667 94.2811C355.09 94.0811 352.919 94.0216 350.991 94.0014L348.539 105.522H346.791L349.242 94.0014C347.293 94.0216 345.082 94.0811 341.445 94.2811L341.706 93.0218C344.62 92.8218 347.533 92.7219 350.408 92.7219C353.283 92.7219 356.095 92.8218 358.929 93.0218L358.668 94.2811H358.667Z" fill="white"/>
<path d="M405.24 105.522H403.49L395.15 94.2811C394.09 94.2216 393.2 94.2014 392.08 94.2014L389.664 105.522H387.916L390.427 93.7204L389.382 93.1206L389.423 92.9206H391.091C392.82 92.9206 394.57 92.9598 396.46 93.0598L403.97 103.342L406.18 92.9206H407.91L405.24 105.522Z" fill="white"/>
<path d="M418.59 105.722C415.67 105.722 412.78 105.582 409.9 105.322C410.19 103.242 410.49 101.301 410.93 99.2207C411.39 97.1414 411.89 95.1999 412.5 93.1206C415.49 92.8611 418.46 92.7206 421.38 92.7206C424.29 92.7206 427.19 92.8611 430.06 93.1206C429.78 95.2012 429.48 97.1414 429.02 99.2207C428.57 101.301 428.07 103.242 427.47 105.322C424.47 105.582 421.5 105.722 418.59 105.722ZM411.93 104.162C414.21 104.362 416.56 104.441 418.87 104.441C421.18 104.441 423.57 104.362 425.92 104.162C426.42 102.501 426.83 100.92 427.19 99.2207C427.57 97.5211 427.81 95.9403 428.03 94.2799C425.76 94.0799 423.41 94.0002 421.1 94.0002C418.79 94.0002 416.4 94.0799 414.04 94.2799C413.54 95.9403 413.14 97.5211 412.76 99.2207C412.4 100.92 412.16 102.501 411.94 104.162H411.93Z" fill="white"/>
<path d="M445.6 94.1811L438.91 105.463C438.34 105.542 437.88 105.583 437.4 105.583C436.8 105.583 436.23 105.542 435.63 105.463L433.82 93.9824L433.72 93.7217L432.68 93.1218L432.72 92.9219H435.49L437.2 104.243C437.3 104.283 437.44 104.283 437.58 104.283C437.7 104.283 437.84 104.283 437.92 104.243L444.55 93.0016C445.12 92.9219 445.64 92.9016 446.14 92.9016C446.64 92.9016 447.15 92.9219 447.71 93.0016L449.52 104.243C449.6 104.283 449.74 104.283 449.86 104.283C450 104.283 450.14 104.283 450.24 104.243L456.77 92.9219H458.6L451.28 105.463C450.64 105.542 450.06 105.583 449.48 105.583C448.99 105.583 448.53 105.542 448.01 105.463L446.14 94.1811C446.06 94.1609 445.98 94.1609 445.86 94.1609C445.76 94.1609 445.68 94.1609 445.6 94.1811Z" fill="white"/>
<path d="M375.909 91.5043C375.909 91.9751 375.525 92.3586 375.053 92.3586C374.581 92.3586 374.194 91.9751 374.194 91.5043C374.194 91.0335 374.579 90.6513 375.053 90.6513C375.527 90.6513 375.909 91.0323 375.909 91.5043Z" fill="white"/>
<path d="M375.909 99.2131C375.909 99.6852 375.525 100.069 375.053 100.069C374.581 100.069 374.194 99.6852 374.194 99.2131C374.194 98.741 374.579 98.3601 375.053 98.3601C375.527 98.3601 375.909 98.7423 375.909 99.2131Z" fill="white"/>
<path d="M373.643 99.2131C373.643 98.4411 374.275 97.8134 375.053 97.8134H375.123L375.134 92.9041C375.107 92.9054 375.08 92.9067 375.053 92.9067C374.275 92.9067 373.643 92.2789 373.643 91.5057C373.643 90.7325 374.275 90.1046 375.053 90.1046H375.111L375.075 89.887C375.011 89.6807 374.861 89.6984 374.861 89.6984L374.35 89.7072L374.241 89.6743L373.844 89.6667L373.608 89.9072L373.122 90.0755L372.646 91.6942L372.615 91.9334L372.472 92.2676C371.016 94.4039 371.084 96.0947 371.084 96.0947C370.976 96.6389 371.061 99.0246 371.061 99.0246L370.963 99.4852L371.019 99.527L371.192 99.3979C371.703 99.9421 373.238 100.359 373.238 100.359L373.454 100.562C373.861 100.661 374.154 100.565 374.154 100.565L374.268 100.581C374.415 100.729 374.563 100.551 374.577 100.533C374.035 100.338 373.646 99.8206 373.646 99.2144L373.643 99.2131Z" fill="white"/>
<path d="M378.826 94.1773V94.1811C378.64 94.0343 378.408 93.9469 378.155 93.9469C377.561 93.9469 377.081 94.4266 377.081 95.0164C377.081 95.3404 377.226 95.6315 377.455 95.8276L377.453 95.8302C378.778 96.9578 379.616 98.6335 379.616 100.504C379.616 103.902 376.85 106.656 373.437 106.656C370.024 106.656 367.257 103.902 367.257 100.504C367.257 98.6588 368.075 97.0021 369.369 95.8745H369.367C369.63 95.6795 369.803 95.3669 369.803 95.0151C369.803 94.4253 369.321 93.9457 368.727 93.9457C368.448 93.9457 368.195 94.0533 368.003 94.2266L367.995 94.2178C366.222 95.7403 365.098 97.9918 365.098 100.504C365.098 105.087 368.829 108.8 373.433 108.8C378.037 108.8 381.768 105.085 381.768 100.504C381.768 97.969 380.623 95.6998 378.822 94.1773H378.826Z" fill="white"/>
</g>
<defs>
<filter id="filter0_f_2914_836" x="39" y="43.5" width="627" height="130.777" filterUnits="userSpaceOnUse" color-interpolation-filters="sRGB">
<feFlood flood-opacity="0" result="BackgroundImageFix"/>
<feBlend mode="normal" in="SourceGraphic" in2="BackgroundImageFix" result="shape"/>
<feGaussianBlur stdDeviation="11.5" result="effect1_foregroundBlur_2914_836"/>
</filter>
<linearGradient id="paint0_linear_2914_836" x1="704" y1="124.134" x2="0" y2="124.134" gradientUnits="userSpaceOnUse">
<stop stop-color="#272727"/>
<stop offset="0.5"/>
<stop offset="1" stop-color="#272727"/>
</linearGradient>
<radialGradient id="paint1_radial_2914_836" cx="0" cy="0" r="1" gradientUnits="userSpaceOnUse" gradientTransform="translate(694.786 176.852) rotate(-179.828) scale(665.003 3593.83)">
<stop stop-color="#D9D9D9"/>
<stop offset="0.2656" stop-color="#5F5F5F"/>
<stop offset="0.5156"/>
<stop offset="0.7321" stop-color="#464646"/>
<stop offset="1" stop-color="#D9D9D9"/>
</radialGradient>
</defs>
</svg>
