<svg width="384" height="91" viewBox="0 0 384 91" fill="none" xmlns="http://www.w3.org/2000/svg">
<path d="M374.558 48.1535C374.418 48.2175 374.275 48.3355 374.135 48.3375C371.484 48.3475 368.832 48.3615 366.181 48.3335C365.56 48.3275 364.927 48.2195 364.323 48.0595C363.267 47.7795 362.6 47.0495 362.442 45.9594C362.183 44.1894 362.194 42.3973 362.416 40.6313C362.598 39.1952 363.453 38.4452 364.899 38.2092C365.431 38.1232 365.973 38.0732 366.512 38.0692C369.03 38.0552 371.549 38.0592 374.068 38.0692C374.232 38.0692 374.394 38.1892 374.558 38.2532V40.1272C374.364 40.1832 374.17 40.2893 373.977 40.2893C371.646 40.3013 369.313 40.2953 366.982 40.2973C366.773 40.2973 366.563 40.3013 366.353 40.3193C365.57 40.3893 365.057 40.7793 365.018 41.5053C364.958 42.6353 364.968 43.7734 365.016 44.9074C365.042 45.5074 365.417 45.9134 366.027 46.0274C366.318 46.0814 366.618 46.1094 366.913 46.1114C369.256 46.1174 371.598 46.1114 373.941 46.1234C374.147 46.1234 374.352 46.2294 374.556 46.2854V48.1595L374.558 48.1535Z" fill="white"/>
<path d="M260.959 43.0493C261.034 39.1572 262.352 36.1531 264.966 33.7351C265.492 33.249 266.085 33.017 266.784 33.319C267.848 33.7771 268.042 35.1531 267.156 35.9351C265.67 37.2452 264.704 38.8652 264.261 40.8053C263.139 45.7014 266.436 50.7276 271.33 51.5836C276.273 52.4476 280.841 49.2935 281.712 44.3114C282.282 41.0513 281.261 38.2672 278.847 36.0211C278.338 35.5491 278.091 35.0031 278.275 34.3211C278.58 33.197 279.9 32.819 280.796 33.605C282.646 35.2271 283.904 37.2352 284.533 39.6292C286.168 45.8554 282.723 52.2616 276.68 54.2477C269.805 56.5058 262.524 52.1756 261.192 45.0214C261.052 44.2694 261.01 43.4994 260.957 43.0493H260.959Z" fill="white"/>
<path d="M200.283 46.7194C200.283 44.9794 200.257 43.2413 200.297 41.5013C200.309 40.9453 200.425 40.3653 200.617 39.8432C200.993 38.8152 201.87 38.3892 202.871 38.2092C203.367 38.1192 203.878 38.0712 204.384 38.0672C206.339 38.0512 208.296 38.0572 210.251 38.0632C211.026 38.0632 211.794 38.1512 212.526 38.4252C213.679 38.8592 214.226 39.7752 214.279 40.9453C214.346 42.4233 214.346 43.9074 214.287 45.3854C214.222 46.9935 213.349 47.9335 211.788 48.1975C211.258 48.2875 210.714 48.3355 210.175 48.3395C207.878 48.3555 205.579 48.3515 203.28 48.3395C202.995 48.3395 202.896 48.4095 202.9 48.7115C202.916 49.8155 202.908 50.9196 202.906 52.0236C202.906 52.4456 202.843 52.5036 202.42 52.5076C201.877 52.5116 201.337 52.5116 200.795 52.5076C200.372 52.5056 200.269 52.4036 200.269 51.9736C200.267 50.2236 200.269 48.4715 200.269 46.7215C200.275 46.7215 200.279 46.7215 200.285 46.7215L200.283 46.7194ZM206.715 46.1114C206.715 46.1114 206.715 46.1014 206.715 46.0954C207.884 46.0954 209.056 46.1174 210.225 46.0874C211.143 46.0654 211.61 45.6514 211.667 44.7294C211.731 43.7214 211.731 42.7053 211.667 41.6973C211.61 40.7673 211.131 40.3333 210.203 40.3193C208.284 40.2913 206.363 40.2913 204.444 40.3193C203.482 40.3333 202.997 40.8253 202.962 41.7973C202.914 43.1433 202.928 44.4914 202.904 45.8374C202.9 46.1034 203.043 46.1134 203.239 46.1114C204.398 46.1074 205.556 46.1094 206.715 46.1094V46.1114Z" fill="white"/>
<path d="M291.306 43.9734C291.329 44.3454 291.314 44.6714 291.375 44.9814C291.513 45.6874 291.919 46.0074 292.714 46.0854C292.922 46.1054 293.134 46.1094 293.344 46.1094C295.85 46.1094 298.357 46.1094 300.866 46.1094C301.446 46.1094 301.481 46.1454 301.481 46.7314C301.481 47.1435 301.477 47.5555 301.481 47.9695C301.485 48.2375 301.371 48.3475 301.101 48.3475C298.185 48.3415 295.269 48.3515 292.354 48.3295C291.864 48.3255 291.365 48.2315 290.886 48.1135C289.703 47.8215 288.902 47.0475 288.829 45.8314C288.724 44.0814 288.696 42.3113 288.842 40.5673C288.959 39.1832 289.887 38.4292 291.296 38.2052C291.85 38.1172 292.414 38.0692 292.974 38.0652C294.895 38.0492 296.818 38.0552 298.739 38.0632C299.101 38.0632 299.467 38.0892 299.827 38.1412C301.02 38.3152 301.669 39.0092 301.74 40.2432C301.794 41.1653 301.796 42.0913 301.79 43.0153C301.786 43.6534 301.511 43.9194 300.882 43.9694C300.771 43.9774 300.66 43.9734 300.551 43.9734C297.635 43.9734 294.719 43.9734 291.804 43.9734H291.308H291.306ZM295.162 42.3293C295.516 42.3293 295.868 42.3293 296.222 42.3293C297.073 42.3293 297.922 42.3253 298.773 42.3293C299.075 42.3293 299.224 42.2033 299.208 41.8873C299.196 41.6533 299.21 41.4193 299.204 41.1853C299.186 40.4072 298.901 40.1172 298.132 40.1152C296.466 40.1112 294.798 40.1052 293.132 40.1152C291.769 40.1232 291.31 40.6173 291.316 41.9893C291.316 42.2513 291.393 42.3353 291.654 42.3313C292.823 42.3193 293.995 42.3273 295.164 42.3273L295.162 42.3293Z" fill="white"/>
<path d="M251.43 43.9734C249.917 43.9734 248.403 43.9794 246.891 43.9674C246.624 43.9674 246.498 44.0314 246.533 44.3194C246.563 44.5514 246.557 44.7874 246.601 45.0154C246.727 45.6654 247.168 46.0134 247.94 46.0834C248.148 46.1034 248.36 46.1074 248.569 46.1074C251.076 46.1074 253.585 46.1074 256.092 46.1074C256.669 46.1074 256.711 46.1514 256.711 46.7334C256.711 47.1455 256.711 47.5575 256.711 47.9715C256.711 48.2295 256.598 48.3475 256.323 48.3455C253.419 48.3375 250.512 48.3495 247.608 48.3255C247.074 48.3215 246.531 48.2095 246.013 48.0755C244.852 47.7755 244.171 46.9775 244.036 45.7934C243.928 44.8354 243.926 43.8614 243.918 42.8933C243.912 42.1833 243.916 41.4633 244.017 40.7613C244.236 39.2432 245.02 38.4612 246.522 38.2032C247.03 38.1152 247.552 38.0672 248.067 38.0632C250.055 38.0472 252.044 38.0492 254.032 38.0632C254.448 38.0652 254.869 38.1152 255.278 38.1932C256.238 38.3752 256.794 38.9612 256.921 39.9472C256.992 40.4972 256.994 41.0573 257.008 41.6133C257.02 42.1373 257.018 42.6613 256.996 43.1853C256.978 43.6233 256.756 43.8554 256.333 43.9314C256.183 43.9594 256.026 43.9714 255.872 43.9714C254.392 43.9734 252.912 43.9714 251.432 43.9714L251.43 43.9734ZM250.405 42.3293C251.587 42.3293 252.77 42.3293 253.951 42.3293C254.355 42.3293 254.432 42.2453 254.436 41.8393C254.438 41.6493 254.436 41.4613 254.436 41.2713C254.428 40.3952 254.149 40.1192 253.274 40.1172C251.674 40.1172 250.071 40.1132 248.47 40.1212C248.207 40.1212 247.94 40.1492 247.681 40.1952C247.052 40.3052 246.696 40.6513 246.597 41.2493C246.557 41.4893 246.563 41.7373 246.533 41.9793C246.502 42.2633 246.626 42.3393 246.893 42.3373C248.065 42.3253 249.234 42.3333 250.405 42.3313V42.3293Z" fill="white"/>
<path d="M315.922 43.9734C314.409 43.9734 312.895 43.9794 311.384 43.9694C311.13 43.9694 311.01 44.0334 311.043 44.3054C311.073 44.5374 311.069 44.7734 311.113 45.0034C311.243 45.6714 311.686 46.0194 312.474 46.0894C312.672 46.1074 312.872 46.1114 313.069 46.1114C315.576 46.1114 318.083 46.1114 320.592 46.1114C321.189 46.1114 321.221 46.1454 321.221 46.7574C321.221 47.1475 321.215 47.5375 321.223 47.9275C321.229 48.2175 321.126 48.3515 320.817 48.3495C317.968 48.3415 315.119 48.3555 312.268 48.3335C311.712 48.3295 311.146 48.2355 310.602 48.1035C309.383 47.8075 308.679 46.9854 308.541 45.7414C308.448 44.9154 308.457 44.0754 308.455 43.2413C308.455 42.4173 308.428 41.5853 308.533 40.7733C308.728 39.2452 309.55 38.4412 311.059 38.2032C311.601 38.1172 312.155 38.0712 312.705 38.0652C314.638 38.0492 316.571 38.0552 318.504 38.0632C318.867 38.0632 319.235 38.0872 319.593 38.1472C320.817 38.3512 321.429 39.0332 321.494 40.3372C321.541 41.2713 321.522 42.2093 321.514 43.1453C321.51 43.6173 321.282 43.8594 320.823 43.9374C320.673 43.9634 320.517 43.9734 320.362 43.9734C318.882 43.9754 317.402 43.9734 315.922 43.9734ZM314.929 42.3293C315.129 42.3293 315.327 42.3293 315.527 42.3293C316.51 42.3293 317.493 42.3313 318.477 42.3293C318.867 42.3293 318.944 42.2473 318.946 41.8613C318.946 41.5933 318.952 41.3253 318.944 41.0593C318.924 40.4872 318.698 40.2272 318.142 40.1352C318.034 40.1172 317.923 40.1172 317.812 40.1172C316.199 40.1172 314.587 40.1132 312.972 40.1192C312.709 40.1192 312.442 40.1492 312.183 40.1972C311.554 40.3152 311.208 40.6613 311.107 41.2613C311.069 41.4913 311.071 41.7273 311.041 41.9593C311.004 42.2573 311.126 42.3393 311.415 42.3373C312.587 42.3233 313.758 42.3313 314.929 42.3313V42.3293Z" fill="white"/>
<path d="M272.489 35.1811C271.482 35.3251 270.544 35.4471 269.609 35.5951C269.308 35.6431 269.053 35.6031 268.863 35.3631C268.671 35.1191 268.7 34.8431 268.825 34.575C269.923 32.231 271.023 29.8889 272.117 27.5448C272.252 27.2568 272.454 27.1108 272.774 27.0668C274.052 26.8928 275.326 26.6928 276.603 26.5148C277.186 26.4328 277.537 26.9608 277.275 27.5348C276.89 28.3849 276.482 29.2229 276.086 30.0689C276.025 30.1989 275.97 30.3289 275.88 30.5309C276.393 30.4609 276.854 30.4089 277.313 30.3329C277.635 30.2789 277.936 30.2669 278.156 30.5589C278.373 30.8489 278.286 31.1409 278.146 31.4369C276.126 35.7031 274.11 39.9712 272.092 44.2373C272.048 44.3273 272.005 44.4173 271.959 44.5054C271.777 44.8474 271.464 44.9854 271.134 44.8694C270.804 44.7554 270.643 44.4513 270.718 44.0673C271.134 41.9753 271.555 39.8812 271.973 37.7891C272.143 36.9411 272.309 36.0931 272.489 35.1811Z" fill="white"/>
<path d="M223.541 48.3455C222.548 48.3455 221.553 48.3675 220.559 48.3375C219.99 48.3195 219.412 48.2635 218.856 48.1435C217.447 47.8375 216.682 46.9455 216.581 45.4914C216.521 44.6374 216.521 43.7774 216.515 42.9213C216.505 41.4833 216.511 40.0452 216.513 38.6072C216.513 38.1552 216.606 38.0632 217.055 38.0612C217.586 38.0612 218.116 38.0612 218.646 38.0612C219.076 38.0612 219.151 38.1332 219.153 38.5652C219.155 40.3592 219.153 42.1533 219.157 43.9494C219.157 44.2374 219.176 44.5294 219.218 44.8154C219.317 45.5194 219.73 45.8994 220.472 45.9554C220.89 45.9874 221.311 45.9794 221.731 45.9774C223.288 45.9754 224.845 45.9914 226.402 45.9554C227.403 45.9334 227.892 45.4414 227.912 44.4354C227.945 42.7533 227.929 41.0693 227.933 39.3872C227.933 39.1192 227.926 38.8512 227.937 38.5852C227.957 38.1432 228.044 38.0632 228.474 38.0612C229.026 38.0612 229.578 38.0672 230.13 38.0592C230.42 38.0552 230.559 38.1792 230.557 38.4752C230.551 40.7373 230.579 43.0013 230.531 45.2634C230.494 47.0715 229.423 48.1415 227.548 48.2675C226.216 48.3575 224.879 48.3475 223.543 48.3815C223.543 48.3695 223.543 48.3595 223.543 48.3475L223.541 48.3455Z" fill="white"/>
<path d="M330.833 48.3455C329.596 48.3455 328.358 48.3755 327.121 48.3335C326.454 48.3115 325.776 48.2235 325.131 48.0575C324.102 47.7915 323.429 47.0815 323.265 46.0194C322.988 44.2174 323.004 42.3933 323.233 40.5933C323.415 39.1812 324.292 38.4252 325.712 38.2072C326.278 38.1212 326.854 38.0712 327.424 38.0672C329.897 38.0532 332.372 38.0612 334.845 38.0612C335.316 38.0612 335.354 38.0992 335.356 38.5772C335.356 38.9672 335.356 39.3572 335.356 39.7472C335.356 40.2332 335.292 40.2952 334.796 40.2952C333.537 40.2952 332.277 40.2952 331.019 40.2952C329.816 40.2952 328.611 40.2752 327.408 40.3112C326.28 40.3452 325.849 40.7253 325.778 41.8533C325.716 42.8273 325.742 43.8134 325.813 44.7894C325.875 45.6334 326.343 46.0314 327.18 46.0854C327.62 46.1134 328.063 46.1074 328.504 46.1074C330.591 46.1094 332.679 46.1074 334.766 46.1074C335.298 46.1074 335.352 46.1634 335.354 46.6974C335.354 47.1095 335.348 47.5215 335.354 47.9355C335.36 48.2315 335.235 48.3495 334.934 48.3455C333.565 48.3355 332.196 48.3415 330.825 48.3415L330.833 48.3455Z" fill="white"/>
<path d="M341.074 38.0592C342.085 38.0592 343.066 38.0592 344.047 38.0592C344.631 38.0592 344.639 38.0692 344.641 38.6572C344.641 39.0352 344.643 39.4152 344.641 39.7932C344.639 40.1712 344.57 40.2452 344.198 40.2472C343.26 40.2492 342.32 40.2552 341.382 40.2432C341.129 40.2392 341.038 40.3052 341.04 40.5773C341.054 41.9473 341.04 43.3193 341.05 44.6894C341.05 44.9194 341.082 45.1594 341.147 45.3794C341.297 45.8854 341.673 46.1314 342.334 46.1514C342.997 46.1714 343.66 46.1694 344.32 46.1574C344.617 46.1514 344.756 46.2714 344.758 46.5614C344.76 47.0294 344.764 47.4975 344.756 47.9655C344.752 48.1635 344.708 48.3495 344.443 48.3455C343.307 48.3235 342.166 48.3635 341.036 48.2695C339.335 48.1275 338.498 47.2135 338.442 45.4854C338.393 43.9154 338.405 42.3453 338.389 40.7753C338.383 40.1712 338.456 40.2572 337.851 40.2492C337.453 40.2452 337.055 40.2452 336.658 40.2492C336.408 40.2512 336.295 40.1392 336.297 39.8852C336.303 39.3952 336.303 38.9052 336.297 38.4152C336.294 38.1612 336.4 38.0512 336.656 38.0572C337.109 38.0672 337.562 38.0372 338.013 38.0672C338.333 38.0872 338.401 37.9632 338.393 37.6692C338.375 37.0131 338.385 36.3551 338.389 35.6971C338.391 35.2551 338.474 35.1731 338.911 35.1711C339.451 35.1711 339.993 35.1691 340.534 35.1711C340.951 35.1711 341.04 35.2591 341.042 35.6751C341.046 36.3891 341.042 37.1011 341.044 37.8152C341.044 37.8792 341.058 37.9452 341.072 38.0592H341.074Z" fill="white"/>
<path d="M232.881 44.7434C232.881 43.5393 232.842 42.3353 232.899 41.1333C232.925 40.6153 233.079 40.0732 233.301 39.6012C233.716 38.7192 234.539 38.3672 235.44 38.2052C235.917 38.1192 236.403 38.0692 236.886 38.0632C238.708 38.0472 240.532 38.0552 242.355 38.0572C242.776 38.0572 242.804 38.0872 242.804 38.5192C242.804 38.9532 242.804 39.3892 242.804 39.8232C242.804 40.2132 242.735 40.2832 242.339 40.2892C241.985 40.2952 241.633 40.2892 241.278 40.2892C239.876 40.2932 238.471 40.2772 237.07 40.3112C236.023 40.3352 235.529 40.8413 235.513 41.8993C235.485 43.8274 235.495 45.7574 235.491 47.6855C235.491 48.2875 235.44 48.3395 234.86 48.3395C234.395 48.3395 233.932 48.3395 233.467 48.3395C232.893 48.3395 232.834 48.2775 232.834 47.6815C232.834 46.6994 232.834 45.7194 232.834 44.7374C232.85 44.7374 232.864 44.7374 232.879 44.7374L232.881 44.7434Z" fill="white"/>
<path d="M348.869 44.8674C348.869 45.8474 348.869 46.8294 348.869 47.8095C348.869 48.2655 348.786 48.3455 348.327 48.3455C347.808 48.3455 347.288 48.3455 346.77 48.3455C346.303 48.3455 346.216 48.2595 346.214 47.7775C346.21 46.8074 346.208 45.8394 346.214 44.8694C346.22 43.7113 346.23 42.5533 346.251 41.3953C346.257 41.0973 346.297 40.7952 346.352 40.5012C346.615 39.1252 347.522 38.4372 348.823 38.2072C349.3 38.1232 349.787 38.0712 350.27 38.0672C352.092 38.0512 353.914 38.0612 355.734 38.0612C356.156 38.0612 356.182 38.0892 356.184 38.5212C356.184 38.9552 356.184 39.3912 356.184 39.8252C356.184 40.2252 356.124 40.2932 355.726 40.2932C354.446 40.2972 353.164 40.2932 351.884 40.2952C351.388 40.2952 350.889 40.2892 350.394 40.3152C349.417 40.3692 348.92 40.8652 348.895 41.8593C348.869 42.8613 348.889 43.8633 348.889 44.8674H348.869Z" fill="white"/>
<path d="M303.83 41.3273C303.83 39.1652 303.83 37.0012 303.83 34.8391C303.83 34.3591 303.915 34.2711 304.384 34.2691C304.858 34.2671 305.333 34.2691 305.808 34.2691C306.396 34.2691 306.457 34.3291 306.457 34.9111C306.457 39.0352 306.457 43.1614 306.457 47.2855C306.457 47.4855 306.461 47.6875 306.457 47.8875C306.449 48.2515 306.36 48.3435 306.004 48.3455C305.44 48.3495 304.876 48.3475 304.314 48.3455C303.923 48.3455 303.832 48.2515 303.832 47.8515C303.832 45.6774 303.832 43.5034 303.832 41.3293L303.83 41.3273Z" fill="white"/>
<path d="M357.727 43.1693C357.727 41.6533 357.727 40.1392 357.727 38.6232C357.727 38.1332 357.8 38.0612 358.279 38.0612C358.809 38.0612 359.34 38.0592 359.87 38.0612C360.244 38.0612 360.355 38.1612 360.355 38.5272C360.357 41.6473 360.357 44.7674 360.355 47.8875C360.355 48.2395 360.246 48.3415 359.898 48.3435C359.334 48.3475 358.772 48.3455 358.208 48.3435C357.81 48.3435 357.729 48.2615 357.729 47.8475C357.727 46.2874 357.729 44.7274 357.729 43.1673L357.727 43.1693Z" fill="white"/>
<path d="M359.041 34.2451C359.338 34.2451 359.636 34.2531 359.933 34.2431C360.212 34.2331 360.349 34.3691 360.351 34.6371C360.357 35.2371 360.359 35.8371 360.351 36.4391C360.347 36.7011 360.21 36.8411 359.931 36.8391C359.336 36.8331 358.742 36.8331 358.147 36.8391C357.86 36.8411 357.715 36.7111 357.715 36.4191C357.715 35.8291 357.715 35.2411 357.715 34.6511C357.715 34.3531 357.864 34.2351 358.151 34.2451C358.447 34.2551 358.746 34.2471 359.043 34.2471L359.041 34.2451Z" fill="white"/>
<g clip-path="url(#clip0_3089_640)">
<path d="M122.615 15.4386C118.931 19.6827 119.136 24.1691 119.136 24.1691V35.0429C119.136 35.0429 118.931 39.5261 122.615 43.7724C126.14 47.7849 133.193 47.5316 133.193 47.5316H163.588C166.012 47.5316 165.839 45.0127 165.839 45.0127V38.6286H139.62C136.946 38.6286 133.193 36.4525 133.193 32.4967V26.7132C133.193 22.7585 136.946 20.5791 139.62 20.5791H165.839V14.1994C165.839 14.1994 166.012 11.6816 163.588 11.6816H133.193C133.193 11.6816 133.104 11.6783 132.94 11.6783C131.651 11.6783 125.744 11.8781 122.615 15.4386Z" fill="white"/>
<path d="M88.8414 11.6772H78.0149L78.017 11.6837C73.3839 11.8202 72.0332 15.383 72.0332 15.383L57.0999 47.5305H67.8194C72.5104 47.5305 73.8316 44.5749 73.8316 44.5749L80.5678 30.0739L80.6377 29.9232C81.2503 28.6064 82.6119 28.637 82.6119 28.637H84.5174C84.5174 28.637 85.8801 28.6064 86.4927 29.9232L86.5637 30.0739L93.2976 44.5749C93.2976 44.5749 94.6167 47.5305 99.3099 47.5305H110.028L95.0939 15.383C95.0939 15.383 93.7442 11.8202 89.1133 11.6848L89.1155 11.6783H88.8414V11.6772Z" fill="white"/>
<path d="M46.402 11.6772H13.0006C11.4217 11.6772 10.9784 12.6795 10.9784 13.5279V20.3127H30.2566V20.3181C31.9174 20.3727 33.3063 21.4984 33.7529 23.0292C33.7879 23.1537 33.8752 23.6931 33.8752 24.5229V32.4935C33.8752 36.4493 30.1233 38.6253 27.4492 38.6253H1.235V45.0094C1.235 45.0094 1.0592 47.5283 3.4833 47.5283H33.8752C33.8752 47.5283 40.9303 47.7827 44.4572 43.7691C48.1382 39.5228 47.934 35.0397 47.934 35.0397V13.2724C47.934 11.7307 46.604 11.6772 46.4216 11.6772C46.4085 11.6772 46.4009 11.6772 46.4009 11.6772" fill="white"/>
<path d="M96.9772 57.8268C96.9772 58.2329 96.6474 58.5638 96.2423 58.5638C95.8372 58.5638 95.5042 58.2329 95.5042 57.8268C95.5042 57.4206 95.835 57.0909 96.2423 57.0909C96.6496 57.0909 96.9772 57.4195 96.9772 57.8268Z" fill="white"/>
<path d="M96.9772 64.4773C96.9772 64.8845 96.6474 65.2154 96.2423 65.2154C95.8372 65.2154 95.5042 64.8845 95.5042 64.4773C95.5042 64.07 95.835 63.7414 96.2423 63.7414C96.6496 63.7414 96.9772 64.0711 96.9772 64.4773Z" fill="white"/>
<path d="M95.0313 64.4773C95.0313 63.8112 95.574 63.2686 96.2423 63.2686H96.3023L96.31 59.0322C96.287 59.0344 96.2641 59.0344 96.2412 59.0344C95.5729 59.0344 95.0302 58.4928 95.0302 57.8257C95.0302 57.1585 95.5729 56.617 96.2412 56.617C96.2576 56.617 96.2728 56.617 96.2903 56.617L96.2597 56.4292C96.2051 56.2512 96.0763 56.2665 96.0763 56.2665L95.6373 56.2741L95.5434 56.2457L95.2016 56.2392L94.9985 56.4466L94.5825 56.593L94.1741 57.9894L94.1479 58.1958L94.0256 58.4841C92.7754 60.3271 92.8332 61.7847 92.8332 61.7847C92.7404 62.2542 92.8136 64.3124 92.8136 64.3124L92.7295 64.7087L92.7775 64.7448L92.926 64.6334C93.365 65.1029 94.683 65.461 94.683 65.461L94.8686 65.6379C95.218 65.722 95.4703 65.6401 95.4703 65.6401L95.5664 65.6543C95.693 65.782 95.8208 65.6281 95.8317 65.6128C95.3665 65.4446 95.0324 64.9981 95.0324 64.4751L95.0313 64.4773Z" fill="white"/>
<path d="M99.4822 60.1328V60.136C99.3228 60.0105 99.1229 59.9341 98.9057 59.9341C98.3968 59.9341 97.9841 60.3479 97.9841 60.8567C97.9841 61.1362 98.1085 61.3873 98.3051 61.5566L98.3029 61.5587C99.4407 62.5316 100.161 63.9772 100.161 65.591C100.161 68.5226 97.7853 70.8985 94.8556 70.8985C91.926 70.8985 89.5488 68.5226 89.5488 65.591C89.5488 63.9979 90.2509 62.5698 91.3625 61.597H91.3603C91.5864 61.4288 91.7349 61.1591 91.7349 60.8567C91.7349 60.3479 91.321 59.9341 90.8122 59.9341C90.572 59.9341 90.3547 60.0269 90.1898 60.1754L90.1832 60.1677C88.6611 61.4812 87.6958 63.4236 87.6958 65.591C87.6958 69.5446 90.8995 72.7481 94.8535 72.7481C98.8074 72.7481 102.011 69.5435 102.011 65.591C102.011 63.404 101.027 61.4463 99.4811 60.1328H99.4822Z" fill="white"/>
<path d="M1.22504 64.2348C1.24251 63.3897 1.32877 62.6473 1.51877 61.8022C1.70877 60.8708 1.93262 60.1458 2.27876 59.2309C4.5904 59.007 6.88565 58.8858 9.11212 58.8858C11.3386 58.8858 13.6688 58.9721 15.9466 59.1621L15.7391 60.1622C13.7201 60.0072 11.6487 59.9034 9.4397 59.9034C7.38576 59.9034 5.41809 60.0072 3.4515 60.1622C3.26151 60.7147 3.1403 61.2322 3.02019 61.8022C2.89898 62.3197 2.81272 62.8373 2.7614 63.3548C6.7306 63.7173 10.8723 63.6485 14.9977 64.2523C14.9453 65.2197 14.859 66.0124 14.6526 66.9437C14.4452 67.9624 14.2038 68.7562 13.8238 69.7913C11.4947 69.9977 9.12959 70.1025 6.8518 70.1025C4.57402 70.1025 2.26129 70.0512 0.000976562 69.8601L0.224824 68.8589C2.26129 68.9964 4.36655 69.0827 6.61049 69.0827C8.69827 69.0827 10.6998 68.9964 12.65 68.8414C12.8575 68.219 13.0125 67.5814 13.1501 66.9252C13.2888 66.3214 13.3914 65.7176 13.4438 65.1138C9.42332 64.7338 5.33292 64.7524 1.22504 64.2338V64.2348Z" fill="white"/>
<path d="M32.4295 60.2321C29.3579 60.0596 27.4939 60.0083 25.8374 59.9908L23.7322 69.93H22.2308L24.336 59.9908C22.6621 60.0083 20.7643 60.0596 17.6392 60.2321L17.863 59.1457C20.3657 58.9732 22.8685 58.8869 25.3351 58.8869C27.8018 58.8869 30.2194 58.9732 32.6522 59.1457L32.4273 60.2321H32.4295Z" fill="white"/>
<path d="M43.303 59.1282L46.7372 69.93H45.2183L44.1831 66.7898H33.5356L31.188 69.93H29.6702L37.1434 59.8521L36.2109 59.3859L36.2633 59.1959C36.9534 59.1446 38.1436 59.0584 39.3699 59.0234C39.7499 59.0234 40.1113 59.006 40.5088 59.006C41.4751 59.006 42.3039 59.0409 43.3052 59.1271L43.303 59.1282ZM38.4876 60.1972L34.3284 65.7373H43.837L42.0255 60.1972C41.4904 60.1459 40.8691 60.1109 40.2653 60.1109C39.6614 60.1109 39.0576 60.1459 38.4876 60.1972Z" fill="white"/>
<path d="M50.8646 69.93H49.3806L51.5372 59.7484L50.6232 59.2309L50.6571 59.0583H58.6304C60.8394 59.0583 63.3247 59.0758 65.5511 59.2309C65.5173 60.2659 65.431 61.1285 65.2061 62.1647C64.9648 63.286 64.6536 64.4423 64.2048 65.616C62.3408 65.7034 60.2531 65.7198 58.3028 65.7372L63.4623 69.93H61.4782L55.49 65.081L55.5599 64.7709H58.3214C59.908 64.7709 61.4618 64.7535 62.9807 64.6847C63.257 63.8745 63.4808 63.0808 63.6544 62.2695C63.827 61.4757 63.9132 60.8894 63.9646 60.112C62.1345 60.0771 60.3229 60.0607 58.4077 60.0607H52.9545L50.8667 69.9311L50.8646 69.93Z" fill="white"/>
<path d="M82.1542 60.2321C79.0826 60.0596 77.2187 60.0083 75.5622 59.9908L73.4569 69.93H71.9555L74.0608 59.9908C72.3868 60.0083 70.4879 60.0596 67.365 60.2321L67.5888 59.1457C70.0916 58.9732 72.5932 58.8869 75.0621 58.8869C77.5309 58.8869 79.9452 58.9732 82.3792 59.1457L82.1553 60.2321H82.1542Z" fill="white"/>
<path d="M122.149 69.93H120.647L113.485 60.2321C112.57 60.1808 111.811 60.1633 110.845 60.1633L108.773 69.93H107.272L109.429 59.7484L108.531 59.2309L108.566 59.0583H109.999C111.482 59.0583 112.984 59.0922 114.607 59.1785L121.061 68.0487L122.96 59.0583H124.444L122.149 69.93Z" fill="white"/>
<path d="M133.609 70.1025C131.107 70.1025 128.621 69.9813 126.155 69.7575C126.396 67.9624 126.655 66.2886 127.035 64.4936C127.431 62.6997 127.863 61.0248 128.38 59.2309C130.952 59.007 133.506 58.8858 136.008 58.8858C138.511 58.8858 140.995 59.007 143.464 59.2309C143.223 61.0259 142.963 62.6997 142.567 64.4936C142.187 66.2886 141.755 67.9624 141.238 69.7575C138.666 69.9813 136.112 70.1025 133.609 70.1025ZM127.898 68.7562C129.848 68.9287 131.867 68.9975 133.852 68.9975C135.837 68.9975 137.89 68.9287 139.909 68.7562C140.34 67.3237 140.685 65.96 140.996 64.4936C141.325 63.0273 141.531 61.6635 141.721 60.231C139.771 60.0585 137.752 59.9897 135.767 59.9897C133.782 59.9897 131.729 60.0585 129.71 60.231C129.279 61.6635 128.934 63.0273 128.606 64.4936C128.296 65.96 128.089 67.3237 127.899 68.7562H127.898Z" fill="white"/>
<path d="M156.807 60.1459L151.06 69.8787C150.577 69.9475 150.18 69.9824 149.766 69.9824C149.248 69.9824 148.765 69.9475 148.247 69.8787L146.694 59.9744L146.608 59.7495L145.71 59.232L145.744 59.0595H148.126L149.592 68.8261C149.679 68.8611 149.8 68.8611 149.92 68.8611C150.024 68.8611 150.144 68.8611 150.213 68.8261L155.908 59.1282C156.392 59.0595 156.839 59.042 157.272 59.042C157.704 59.042 158.136 59.0595 158.618 59.1282L160.171 68.8261C160.24 68.8611 160.361 68.8611 160.465 68.8611C160.586 68.8611 160.707 68.8611 160.792 68.8261L166.402 59.0595H167.972L161.69 69.8787C161.137 69.9475 160.637 69.9824 160.137 69.9824C159.723 69.9824 159.326 69.9475 158.877 69.8787L157.272 60.1459C157.203 60.1284 157.134 60.1284 157.031 60.1284C156.944 60.1284 156.876 60.1284 156.807 60.1459Z" fill="white"/>
<path d="M96.9608 57.8366C96.9608 58.2427 96.6311 58.5736 96.2259 58.5736C95.8208 58.5736 95.4878 58.2427 95.4878 57.8366C95.4878 57.4304 95.8187 57.1006 96.2259 57.1006C96.6332 57.1006 96.9608 57.4293 96.9608 57.8366Z" fill="white"/>
<path d="M96.9608 64.4871C96.9608 64.8943 96.6311 65.2252 96.2259 65.2252C95.8208 65.2252 95.4878 64.8943 95.4878 64.4871C95.4878 64.0798 95.8187 63.7512 96.2259 63.7512C96.6332 63.7512 96.9608 64.0809 96.9608 64.4871Z" fill="white"/>
<path d="M95.0149 64.4871C95.0149 63.821 95.5576 63.2795 96.2259 63.2795H96.286L96.2947 59.0442C96.2718 59.0453 96.2488 59.0463 96.2259 59.0463C95.5576 59.0463 95.0149 58.5048 95.0149 57.8377C95.0149 57.1705 95.5576 56.629 96.2259 56.629C96.2423 56.629 96.2576 56.629 96.275 56.629L96.2445 56.4412C96.1899 56.2632 96.061 56.2785 96.061 56.2785L95.6221 56.2861L95.5282 56.2577L95.1875 56.2512L94.9844 56.4586L94.5672 56.6039L94.1589 58.0003L94.1316 58.2067L94.0093 58.495C92.759 60.338 92.8169 61.7967 92.8169 61.7967C92.7241 62.2662 92.7972 64.3244 92.7972 64.3244L92.7131 64.7218L92.7612 64.7579L92.9097 64.6465C93.3486 65.116 94.6666 65.4752 94.6666 65.4752L94.8522 65.651C95.2017 65.7362 95.4539 65.6532 95.4539 65.6532L95.5511 65.6674C95.6777 65.7951 95.8044 65.6412 95.8164 65.6259C95.3513 65.4577 95.0171 65.0112 95.0171 64.4882L95.0149 64.4871Z" fill="white"/>
<path d="M99.4658 60.1426V60.1458C99.3064 60.0192 99.1066 59.9438 98.8893 59.9438C98.3793 59.9438 97.9677 60.3577 97.9677 60.8665C97.9677 61.146 98.0922 61.3971 98.2887 61.5663L98.2865 61.5685C99.4243 62.5414 100.144 63.987 100.144 65.6008C100.144 68.5324 97.769 70.9083 94.8382 70.9083C91.9074 70.9083 89.5314 68.5324 89.5314 65.6008C89.5314 64.0088 90.2335 62.5796 91.3451 61.6067H91.3429C91.5689 61.4386 91.7174 61.1689 91.7174 60.8654C91.7174 60.3566 91.3036 59.9427 90.7936 59.9427C90.5534 59.9427 90.3361 60.0356 90.1712 60.1851L90.1647 60.1775C88.6425 61.491 87.6772 63.4334 87.6772 65.6008C87.6772 69.5544 90.881 72.7579 94.8349 72.7579C98.7888 72.7579 101.993 69.5533 101.993 65.6008C101.993 63.4138 101.009 61.4561 99.4625 60.1426H99.4658Z" fill="white"/>
</g>
<line x1="184.141" y1="11.6772" x2="184.141" y2="72.7579" stroke="white" stroke-width="0.898246"/>
<defs>
<clipPath id="clip0_3089_640">
<rect width="167.972" height="61.0807" fill="white" transform="translate(0 11.6772)"/>
</clipPath>
</defs>
</svg>
