<svg width="319" height="108" viewBox="0 0 319 108" fill="none" xmlns="http://www.w3.org/2000/svg">
<g filter="url(#filter0_f_2942_1495)">
<path d="M31.2153 36.0001L292.029 36V51.1217V60.1461C292.029 60.1461 280.358 90.4422 275.42 95.599C270.482 100.756 51.4161 99.4666 47.3759 95.599C43.3358 91.7314 31.2153 60.1461 31.2153 60.1461V51.1218V36.0001Z" fill="#0178B0"/>
</g>
<path d="M31.2153 1L292.029 1V55.146C292.029 55.146 280.358 85.442 275.42 90.5988C270.482 95.7555 51.4161 94.4664 47.3759 90.5988C43.3358 86.7312 31.2153 55.146 31.2153 55.146V1Z" fill="white"/>
<path d="M0.5 0L318.5 0V50H292.5L292.029 54.146C292.029 54.146 280.358 84.442 275.42 89.5988C270.482 94.7555 51.4161 93.4664 47.376 89.5988C43.3358 85.7312 31.2153 54.146 31.2153 54.146L31 50H0.5V0Z" fill="url(#paint0_linear_2942_1495)"/>
<g filter="url(#filter1_i_2942_1495)">
<path d="M38.6917 5C31.7956 5 22.9473 5 18.3011 5C16.4389 5 14.8293 6.28497 14.41 8.09927L6.13265 43.9137C5.55328 46.4205 7.45703 48.8144 10.0299 48.8144H33.7746C35.4207 48.8144 36.8974 49.8188 37.5041 51.349C40.2739 58.3344 48.038 77.6917 51.0692 82.9161C54.7887 89.3269 266.022 87.3024 269.304 82.9161C272.023 79.2819 281.651 58.2607 284.873 51.1582C285.524 49.7238 286.946 48.8144 288.521 48.8144H309.122C311.646 48.8144 313.539 46.5058 313.045 44.0309L305.891 8.21649C305.517 6.34634 303.94 5 302.033 5C272.408 5 47.8521 5 38.6917 5Z" fill="url(#paint1_radial_2942_1495)"/>
</g>
<g clip-path="url(#clip0_2942_1495)">
<path d="M191.334 25.6369C188.437 28.9742 188.598 32.5021 188.598 32.5021V41.0527C188.598 41.0527 188.437 44.5781 191.334 47.9171C194.105 51.0724 199.651 50.8732 199.651 50.8732H223.553C225.459 50.8732 225.322 48.8924 225.322 48.8924V43.8723H204.705C202.603 43.8723 199.651 42.1612 199.651 39.0505V34.5026C199.651 31.3929 202.603 29.6791 204.705 29.6791H225.322V24.6625C225.322 24.6625 225.459 22.6826 223.553 22.6826H199.651C199.651 22.6826 199.582 22.68 199.452 22.68C198.439 22.68 193.794 22.8371 191.334 25.6369Z" fill="white"/>
<path d="M164.776 22.6791H156.262L156.264 22.6843C152.621 22.7916 151.559 25.5932 151.559 25.5932L139.816 50.8723H148.245C151.934 50.8723 152.973 48.5481 152.973 48.5481L158.27 37.1453L158.325 37.0269C158.807 35.9914 159.877 36.0155 159.877 36.0155H161.376C161.376 36.0155 162.447 35.9914 162.929 37.0269L162.985 37.1453L168.28 48.5481C168.28 48.5481 169.317 50.8723 173.008 50.8723H181.436L169.692 25.5932C169.692 25.5932 168.631 22.7916 164.99 22.6851L164.991 22.68H164.776V22.6791Z" fill="white"/>
<path d="M131.404 22.6791H105.139C103.897 22.6791 103.549 23.4673 103.549 24.1344V29.4696H118.708V29.4739C120.014 29.5169 121.106 30.4021 121.457 31.6058C121.485 31.7037 121.554 32.1278 121.554 32.7803V39.048C121.554 42.1586 118.603 43.8697 116.5 43.8697H95.887V48.8899C95.887 48.8899 95.7487 50.8706 97.6549 50.8706H121.554C121.554 50.8706 127.101 51.0706 129.875 47.9145C132.769 44.5755 132.609 41.0502 132.609 41.0502V23.9335C132.609 22.7212 131.563 22.6791 131.419 22.6791C131.409 22.6791 131.403 22.6791 131.403 22.6791" fill="white"/>
<path d="M171.173 58.9687C171.173 59.2881 170.914 59.5483 170.596 59.5483C170.277 59.5483 170.015 59.2881 170.015 58.9687C170.015 58.6493 170.275 58.39 170.596 58.39C170.916 58.39 171.173 58.6485 171.173 58.9687Z" fill="white"/>
<path d="M171.173 64.1983C171.173 64.5186 170.914 64.7787 170.596 64.7787C170.277 64.7787 170.015 64.5186 170.015 64.1983C170.015 63.8781 170.275 63.6196 170.596 63.6196C170.916 63.6196 171.173 63.8789 171.173 64.1983Z" fill="white"/>
<path d="M169.644 64.1983C169.644 63.6746 170.07 63.2479 170.596 63.2479H170.643L170.649 59.9166C170.631 59.9183 170.613 59.9183 170.595 59.9183C170.069 59.9183 169.643 59.4924 169.643 58.9679C169.643 58.4433 170.069 58.0174 170.595 58.0174C170.608 58.0174 170.62 58.0174 170.634 58.0174L170.609 57.8697C170.567 57.7298 170.465 57.7418 170.465 57.7418L170.12 57.7478L170.046 57.7255L169.777 57.7203L169.618 57.8835L169.291 57.9985L168.969 59.0966L168.949 59.2589L168.853 59.4856C167.87 60.9349 167.915 62.0811 167.915 62.0811C167.842 62.4503 167.9 64.0687 167.9 64.0687L167.833 64.3803L167.871 64.4087L167.988 64.3211C168.333 64.6903 169.37 64.9719 169.37 64.9719L169.516 65.111C169.79 65.1771 169.989 65.1127 169.989 65.1127L170.064 65.1239C170.164 65.2243 170.264 65.1033 170.273 65.0912C169.907 64.959 169.644 64.6079 169.644 64.1966L169.644 64.1983Z" fill="white"/>
<path d="M173.143 60.782V60.7846C173.018 60.6859 172.861 60.6258 172.69 60.6258C172.29 60.6258 171.965 60.9512 171.965 61.3513C171.965 61.5711 172.063 61.7685 172.218 61.9016L172.216 61.9033C173.111 62.6683 173.677 63.8051 173.677 65.0741C173.677 67.3794 171.809 69.2476 169.505 69.2476C167.201 69.2476 165.332 67.3794 165.332 65.0741C165.332 63.8214 165.884 62.6984 166.758 61.9334H166.757C166.934 61.8012 167.051 61.5891 167.051 61.3513C167.051 60.9512 166.726 60.6258 166.326 60.6258C166.137 60.6258 165.966 60.6987 165.836 60.8155L165.831 60.8095C164.634 61.8424 163.875 63.3698 163.875 65.0741C163.875 68.183 166.394 70.7021 169.503 70.7021C172.613 70.7021 175.132 68.1821 175.132 65.0741C175.132 63.3543 174.358 61.8149 173.142 60.782H173.143Z" fill="white"/>
<path d="M95.8793 64.0077C95.893 63.3432 95.9609 62.7593 96.1103 62.0948C96.2597 61.3624 96.4357 60.7923 96.7079 60.0728C98.5256 59.8968 100.33 59.8015 102.081 59.8015C103.832 59.8015 105.664 59.8694 107.456 60.0188L107.292 60.8052C105.705 60.6833 104.076 60.6017 102.339 60.6017C100.724 60.6017 99.1765 60.6833 97.6301 60.8052C97.4807 61.2397 97.3853 61.6466 97.2909 62.0948C97.1956 62.5018 97.1278 62.9087 97.0874 63.3157C100.209 63.6007 103.465 63.5467 106.709 64.0215C106.668 64.7822 106.6 65.4055 106.438 66.1379C106.275 66.9389 106.085 67.5631 105.786 68.377C103.955 68.5393 102.095 68.6217 100.304 68.6217C98.5127 68.6217 96.6941 68.5814 94.9167 68.4311L95.0928 67.6438C96.6941 67.752 98.3496 67.8198 100.114 67.8198C101.756 67.8198 103.33 67.752 104.863 67.6301C105.026 67.1407 105.148 66.6393 105.257 66.1233C105.366 65.6485 105.446 65.1737 105.488 64.6989C102.326 64.4001 99.1095 64.4147 95.8793 64.0069V64.0077Z" fill="white"/>
<path d="M120.417 60.8602C118.001 60.7245 116.536 60.6842 115.233 60.6704L113.578 68.4861H112.397L114.052 60.6704C112.736 60.6842 111.244 60.7245 108.786 60.8602L108.962 60.0059C110.93 59.8702 112.898 59.8024 114.838 59.8024C116.778 59.8024 118.679 59.8702 120.592 60.0059L120.415 60.8602H120.417Z" fill="white"/>
<path d="M128.967 59.9921L131.667 68.4861H130.473L129.659 66.0168H121.286L119.44 68.4861H118.247L124.123 60.5614L123.39 60.1948L123.431 60.0454C123.974 60.005 124.91 59.9372 125.874 59.9097C126.173 59.9097 126.457 59.896 126.77 59.896C127.53 59.896 128.181 59.9234 128.969 59.9913L128.967 59.9921ZM125.18 60.8327L121.91 65.1891H129.387L127.962 60.8327C127.542 60.7923 127.053 60.7649 126.578 60.7649C126.103 60.7649 125.629 60.7923 125.18 60.8327Z" fill="white"/>
<path d="M134.913 68.4861H133.746L135.442 60.4798L134.723 60.0728L134.75 59.9372H141.02C142.757 59.9372 144.711 59.9509 146.462 60.0728C146.435 60.8868 146.367 61.5651 146.19 62.3798C146.001 63.2616 145.756 64.1708 145.403 65.0938C143.937 65.1625 142.296 65.1754 140.762 65.1891L144.819 68.4861H143.259L138.55 64.6731L138.605 64.4293H140.777C142.024 64.4293 143.246 64.4155 144.441 64.3614C144.658 63.7244 144.834 63.1002 144.97 62.4623C145.106 61.8381 145.174 61.377 145.214 60.7657C143.775 60.7382 142.351 60.7254 140.845 60.7254H136.556L134.915 68.4869L134.913 68.4861Z" fill="white"/>
<path d="M159.517 60.8602C157.102 60.7245 155.636 60.6842 154.334 60.6704L152.678 68.4861H151.498L153.153 60.6704C151.837 60.6842 150.344 60.7245 147.888 60.8602L148.064 60.0059C150.032 59.8702 151.999 59.8024 153.941 59.8024C155.882 59.8024 157.78 59.8702 159.694 60.0059L159.518 60.8602H159.517Z" fill="white"/>
<path d="M190.967 68.4861H189.786L184.154 60.8602C183.435 60.8198 182.838 60.8061 182.078 60.8061L180.449 68.4861H179.269L180.965 60.4798L180.259 60.0728L180.286 59.9372H181.413C182.58 59.9372 183.76 59.9638 185.036 60.0316L190.112 67.0067L191.605 59.9372H192.772L190.967 68.4861Z" fill="white"/>
<path d="M199.979 68.6217C198.011 68.6217 196.057 68.5264 194.117 68.3504C194.307 66.9389 194.511 65.6227 194.81 64.2112C195.121 62.8006 195.46 61.4835 195.867 60.0728C197.889 59.8968 199.898 59.8015 201.866 59.8015C203.834 59.8015 205.787 59.8968 207.729 60.0728C207.539 61.4843 207.335 62.8006 207.023 64.2112C206.724 65.6227 206.385 66.9389 205.978 68.3504C203.956 68.5264 201.947 68.6217 199.979 68.6217ZM195.488 67.5631C197.021 67.6987 198.609 67.7528 200.17 67.7528C201.731 67.7528 203.345 67.6987 204.933 67.5631C205.272 66.4366 205.543 65.3643 205.788 64.2112C206.047 63.0581 206.209 61.9858 206.358 60.8593C204.825 60.7236 203.237 60.6696 201.676 60.6696C200.115 60.6696 198.501 60.7236 196.913 60.8593C196.574 61.9858 196.303 63.0581 196.045 64.2112C195.801 65.3643 195.638 66.4366 195.489 67.5631H195.488Z" fill="white"/>
<path d="M218.22 60.7923L213.701 68.4457C213.322 68.4998 213.009 68.5273 212.684 68.5273C212.277 68.5273 211.896 68.4998 211.49 68.4457L210.269 60.6575L210.201 60.4807L209.495 60.0737L209.521 59.938H211.394L212.547 67.618C212.615 67.6455 212.71 67.6455 212.805 67.6455C212.887 67.6455 212.981 67.6455 213.035 67.618L217.514 59.9921C217.894 59.938 218.246 59.9243 218.586 59.9243C218.926 59.9243 219.265 59.938 219.645 59.9921L220.866 67.618C220.92 67.6455 221.015 67.6455 221.097 67.6455C221.192 67.6455 221.287 67.6455 221.354 67.618L225.765 59.938H227L222.06 68.4457C221.626 68.4998 221.233 68.5273 220.839 68.5273C220.514 68.5273 220.201 68.4998 219.848 68.4457L218.586 60.7923C218.532 60.7786 218.478 60.7786 218.396 60.7786C218.329 60.7786 218.275 60.7786 218.22 60.7923Z" fill="white"/>
<path d="M171.161 58.9764C171.161 59.2958 170.901 59.556 170.583 59.556C170.264 59.556 170.002 59.2958 170.002 58.9764C170.002 58.6571 170.263 58.3978 170.583 58.3978C170.903 58.3978 171.161 58.6562 171.161 58.9764Z" fill="white"/>
<path d="M171.161 64.206C171.161 64.5263 170.901 64.7864 170.583 64.7864C170.264 64.7864 170.002 64.5263 170.002 64.206C170.002 63.8858 170.263 63.6274 170.583 63.6274C170.903 63.6274 171.161 63.8867 171.161 64.206Z" fill="white"/>
<path d="M169.631 64.206C169.631 63.6823 170.058 63.2565 170.583 63.2565H170.63L170.637 59.926C170.619 59.9269 170.601 59.9277 170.583 59.9277C170.058 59.9277 169.631 59.5019 169.631 58.9773C169.631 58.4527 170.058 58.0269 170.583 58.0269C170.596 58.0269 170.608 58.0269 170.622 58.0269L170.598 57.8792C170.555 57.7392 170.453 57.7512 170.453 57.7512L170.108 57.7573L170.034 57.7349L169.766 57.7298L169.607 57.8929L169.279 58.0071L168.958 59.1052L168.936 59.2675L168.84 59.4942C167.857 60.9434 167.902 62.0905 167.902 62.0905C167.829 62.4597 167.887 64.0781 167.887 64.0781L167.821 64.3906L167.859 64.419L167.975 64.3314C168.321 64.7006 169.357 64.9831 169.357 64.9831L169.503 65.1213C169.778 65.1883 169.976 65.123 169.976 65.123L170.052 65.1342C170.152 65.2346 170.252 65.1136 170.261 65.1015C169.895 64.9693 169.633 64.6182 169.633 64.2069L169.631 64.206Z" fill="white"/>
<path d="M173.131 60.7898V60.7923C173.005 60.6927 172.848 60.6335 172.677 60.6335C172.276 60.6335 171.952 60.9589 171.952 61.359C171.952 61.5788 172.05 61.7763 172.205 61.9094L172.203 61.9111C173.098 62.6761 173.664 63.8128 173.664 65.0818C173.664 67.3871 171.796 69.2554 169.492 69.2554C167.187 69.2554 165.319 67.3871 165.319 65.0818C165.319 63.83 165.871 62.7061 166.745 61.9411H166.743C166.921 61.8089 167.038 61.5968 167.038 61.3581C167.038 60.958 166.712 60.6326 166.311 60.6326C166.122 60.6326 165.951 60.7056 165.822 60.8232L165.817 60.8172C164.62 61.8501 163.861 63.3775 163.861 65.0818C163.861 68.1907 166.38 70.7098 169.489 70.7098C172.598 70.7098 175.117 68.1899 175.117 65.0818C175.117 63.3621 174.344 61.8226 173.128 60.7898H173.131Z" fill="white"/>
</g>
<defs>
<filter id="filter0_f_2942_1495" x="22.7153" y="27.5" width="277.814" height="80.0002" filterUnits="userSpaceOnUse" color-interpolation-filters="sRGB">
<feFlood flood-opacity="0" result="BackgroundImageFix"/>
<feBlend mode="normal" in="SourceGraphic" in2="BackgroundImageFix" result="shape"/>
<feGaussianBlur stdDeviation="4.25" result="effect1_foregroundBlur_2942_1495"/>
</filter>
<filter id="filter1_i_2942_1495" x="6.02808" y="5" width="307.095" height="82" filterUnits="userSpaceOnUse" color-interpolation-filters="sRGB">
<feFlood flood-opacity="0" result="BackgroundImageFix"/>
<feBlend mode="normal" in="SourceGraphic" in2="BackgroundImageFix" result="shape"/>
<feColorMatrix in="SourceAlpha" type="matrix" values="0 0 0 0 0 0 0 0 0 0 0 0 0 0 0 0 0 0 127 0" result="hardAlpha"/>
<feOffset/>
<feGaussianBlur stdDeviation="3"/>
<feComposite in2="hardAlpha" operator="arithmetic" k2="-1" k3="1"/>
<feColorMatrix type="matrix" values="0 0 0 0 0 0 0 0 0 0 0 0 0 0 0 0 0 0 0.66 0"/>
<feBlend mode="normal" in2="shape" result="effect1_innerShadow_2942_1495"/>
</filter>
<linearGradient id="paint0_linear_2942_1495" x1="318" y1="92.9998" x2="7.63144e-06" y2="92.9998" gradientUnits="userSpaceOnUse">
<stop stop-color="#272727"/>
<stop offset="0.333333" stop-color="#0C0C0C"/>
<stop offset="0.666667"/>
<stop offset="1" stop-color="#272727"/>
</linearGradient>
<radialGradient id="paint1_radial_2942_1495" cx="0" cy="0" r="1" gradientUnits="userSpaceOnUse" gradientTransform="translate(309.999 116.346) rotate(-179.734) scale(291.003 2425.18)">
<stop stop-color="#D9D9D9"/>
<stop offset="0.265625" stop-color="#5F5F5F"/>
<stop offset="0.515625"/>
<stop offset="0.732143" stop-color="#464646"/>
<stop offset="1" stop-color="#D9D9D9"/>
</radialGradient>
<clipPath id="clip0_2942_1495">
<rect width="132.084" height="48.0306" fill="white" transform="translate(94.9158 22.6791)"/>
</clipPath>
</defs>
</svg>
