<svg width="196" height="56" viewBox="0 0 196 56" fill="none" xmlns="http://www.w3.org/2000/svg">
<g clip-path="url(#clip0_12422_2727)">
<path d="M78.5266 36.6057L78.8428 41.6041H78.9219C79.0856 41.0934 79.267 40.5603 79.5209 40.0602L81.2412 36.6057H84.0353L84.4569 41.6041H84.5375C84.6829 41.1142 84.8471 40.6029 85.0701 40.1262L86.7484 36.6057H90.5403L85.4126 44.9809H82.2334L81.9532 40.4267H81.8336C81.712 40.8608 81.6045 41.2822 81.4064 41.693L79.7722 44.9809H76.6715L74.7474 36.6057H78.5266Z" fill="#FEC12B"/>
<path d="M90.2758 36.6057H93.788L93.2539 39.4271H95.4886L96.0232 36.6057H99.5353L97.9472 44.9809H94.4351L94.9864 42.0707H92.7502L92.1989 44.9809H88.6867L90.2758 36.6057Z" fill="#FEC12B"/>
<path d="M109.824 40.8156C109.314 43.504 106.519 45.1144 103.461 45.1144C100.403 45.1144 98.2169 43.5035 98.7272 40.8156C99.2269 38.1832 102.053 36.4722 105.099 36.4722C108.146 36.4722 110.322 38.1832 109.824 40.8156ZM102.391 40.8598C102.209 41.8148 102.857 42.4708 103.961 42.4708C105.065 42.4708 105.961 41.8148 106.143 40.8598C106.311 39.9703 105.734 39.2275 104.577 39.2275C103.421 39.2275 102.559 39.9708 102.391 40.8598ZM110.622 36.6057H114.268L113.189 42.2926H116.25L115.739 44.9799H109.033L110.622 36.6052V36.6057ZM124.874 41.9813L125.037 42.1047C125.608 42.5261 126.328 42.8714 127.167 42.8714C127.526 42.8714 128.121 42.748 128.193 42.3713C128.264 41.9945 127.792 41.961 127.471 41.9047L126.76 41.7935C125.375 41.5818 124.312 40.8816 124.559 39.5728C124.938 37.5846 127.316 36.4737 129.498 36.4737C130.642 36.4737 131.651 36.7083 132.539 37.2068L131.148 39.3509C130.59 38.996 129.937 38.7173 129.152 38.7173C128.833 38.7173 128.348 38.8163 128.284 39.16C128.224 39.4707 128.668 39.5154 128.937 39.5712L129.733 39.7266C131.22 40.017 132.209 40.7039 131.94 42.126C131.56 44.1259 129.19 45.1139 127.021 45.1139C125.758 45.1139 124.349 44.825 123.309 44.3473L124.874 41.9813H124.874Z" fill="#FEC12B"/>
<path d="M137.399 41.9484L137.254 40.4709C137.214 40.1155 137.217 39.749 137.219 39.393H137.086L135.937 41.9484H137.399H137.399ZM134.225 44.9809H130.367L135.442 36.6057H139.473L141.463 44.9809H137.605L137.471 43.9371H134.717L134.225 44.9809Z" fill="#FEC12B"/>
<path d="M142.748 36.6057H146.393L145.314 42.2926H148.375L147.865 44.9799H141.159L142.748 36.6052V36.6057ZM150.13 36.6057H156.877L156.442 38.8945H153.368L153.215 39.6941H156.022L155.609 41.8717H152.803L152.648 42.6932H155.828L155.393 44.9809H148.541L150.129 36.6057H150.13Z" fill="#FEC12B"/>
<path d="M100.666 21.5538L105.27 21.3807L101.407 34.1334H109.666L113.527 21.3807L118.026 21.5538L119.859 15.4989H102.498L100.666 21.5538ZM83.5657 24.8651C82.4109 30.8439 76.0833 34.4289 69.1507 34.4289C62.2181 34.4289 57.2744 30.8455 58.4293 24.8651C59.5598 19.0072 65.9614 15.2029 72.8636 15.2029C79.7658 15.2029 84.6973 19.0082 83.5657 24.8651ZM66.7285 24.9641C66.3191 27.0894 67.7861 28.5476 70.2868 28.5476C72.7875 28.5476 74.8175 27.0899 75.2285 24.9641C75.6095 22.9876 74.3017 21.3325 71.6793 21.3325C69.0565 21.3309 67.1101 22.9876 66.728 24.9641H66.7285Z" fill="#FEC12B"/>
<path d="M80.9991 32.7234C83.3559 33.7845 86.5473 34.4288 89.4109 34.4288C94.3231 34.4288 99.6909 32.2299 100.55 27.7813C101.16 24.6183 98.9248 23.086 95.552 22.4438L93.7505 22.098C93.1414 21.9731 92.1351 21.8756 92.2683 21.1821C92.4168 20.4165 93.5149 20.1931 94.2385 20.1931C96.0156 20.1931 97.4948 20.811 98.758 21.602L101.909 16.8325C99.8921 15.7206 97.6118 15.2033 95.0194 15.2033C90.0767 15.2033 84.6861 17.6743 83.8327 22.098C83.2693 25.0143 85.6808 26.5709 88.8149 27.0401L90.4253 27.2863C91.155 27.4117 92.2263 27.4843 92.0636 28.3241C91.9009 29.1638 90.553 29.4359 89.7382 29.4359C87.8385 29.4359 86.2088 28.6703 84.9136 27.7316L84.5447 27.4594L80.9976 32.7239L80.9991 32.7234ZM135.936 15.9684C134.284 15.4739 132.407 15.2028 130.537 15.2028C123.876 15.2028 117.823 19.5523 116.773 24.9889C115.746 30.3021 120.014 34.4293 126.494 34.4293C127.97 34.4293 131.087 34.2069 132.515 33.688L134.102 26.7197C132.569 27.7818 130.935 28.4495 129.036 28.4495C126.566 28.4495 124.73 26.8674 125.127 24.8178C125.518 22.791 127.849 21.1851 130.32 21.1851C132.189 21.1851 133.679 22.0498 134.811 23.0647L135.937 15.9689L135.936 15.9684ZM149.16 15.2028C142.259 15.2028 135.857 19.0071 134.725 24.864C133.571 30.8433 138.516 34.4283 145.449 34.4283C152.381 34.4283 158.709 30.8448 159.862 24.864C160.992 19.0081 156.06 15.2028 149.159 15.2028H149.16ZM147.976 21.3309C150.598 21.3309 151.907 22.9855 151.524 24.9625C151.114 27.0878 149.084 28.5459 146.582 28.5459C144.08 28.5459 142.614 27.0883 143.024 24.9625C143.406 22.987 145.354 21.3309 147.976 21.3309ZM60.558 11.7869C58.4966 11.1893 56.1575 10.8608 53.8266 10.8608C45.5187 10.8608 37.9679 16.1177 36.6595 22.6895C35.3805 29.112 40.7022 34.0988 48.7836 34.0988C50.6255 34.0988 54.5147 33.8302 56.2928 33.2042L58.2711 24.7792C56.3618 26.0647 54.3211 26.871 51.9532 26.871C48.8707 26.871 46.5823 24.959 47.0764 22.4783C47.5644 20.0296 50.4705 18.0866 53.5514 18.0866C55.8809 18.0866 57.7406 19.1325 59.1508 20.3571L60.5575 11.7864L60.558 11.7869Z" fill="#FEC12B"/>
<path d="M154.78 33.2271C154.904 32.5757 155.627 32.0522 156.415 32.0522C157.203 32.0522 157.727 32.5767 157.604 33.2271C157.478 33.8815 156.751 34.4055 155.968 34.4055C155.186 34.4055 154.657 33.88 154.78 33.2271ZM157.235 33.2271C157.334 32.7036 156.96 32.3594 156.356 32.3594C155.752 32.3594 155.246 32.7031 155.149 33.2271C155.05 33.7505 155.413 34.0978 156.027 34.0978C156.641 34.0978 157.136 33.751 157.235 33.2271ZM156.733 33.8419H156.368L156.138 33.3205H155.9L155.801 33.8419H155.491L155.725 32.6107H156.44C156.756 32.6107 156.927 32.6981 156.873 32.988C156.831 33.1992 156.667 33.3073 156.476 33.3225L156.734 33.8419H156.733ZM156.281 33.0849C156.436 33.0849 156.569 33.0849 156.595 32.9539C156.616 32.8453 156.482 32.8453 156.327 32.8453H155.991L155.947 33.0849H156.281Z" fill="#FEC12B"/>
<path d="M37.2366 44.9946H75.8896L75.8871 44.9809H75.8547L75.3672 42.8511H37.2366V44.9946ZM37.2366 41.9504H75.1589L74.6654 39.8073H37.2366V41.9504ZM37.2366 38.8929H74.4434L74.2767 38.1121L73.9341 36.622H37.2366V38.8929ZM118.006 36.6057H124.751L124.317 38.8945H121.244L121.091 39.6941H123.898L123.487 41.8717H120.68L120.524 42.6932H123.704L123.27 44.9809H116.417L118.006 36.6057Z" fill="#FEC12B"/>
</g>
<defs>
<clipPath id="clip0_12422_2727">
<rect width="126.731" height="37.2803" fill="white" transform="translate(34.9464 9.3291)"/>
</clipPath>
</defs>
</svg>
