<svg width="187" height="56" viewBox="0 0 187 56" fill="none" xmlns="http://www.w3.org/2000/svg">
<g clip-path="url(#clip0_12422_2601)">
<path d="M158.01 21.8909C158.889 21.8909 159.613 21.436 159.711 20.8487L160.579 11.0855C160.579 10.1206 159.442 9.32837 158.012 9.32837C156.582 9.32837 155.448 10.1206 155.448 11.0855L156.315 20.8487C156.411 21.436 157.135 21.8909 158.012 21.8909H158.009M152.702 24.9409C153.143 24.1845 153.109 23.3345 152.645 22.957L144.572 17.3281C143.733 16.845 142.475 17.4267 141.76 18.6581C141.044 19.8881 141.171 21.2614 142.007 21.7445L150.946 25.882C151.504 26.088 152.266 25.6916 152.704 24.9359L152.701 24.9415M163.322 24.9352C163.763 25.691 164.521 26.0874 165.08 25.8813L174.019 21.7439C174.861 21.2608 174.981 19.8869 174.271 18.6574C173.553 17.4274 172.292 16.8444 171.456 17.3275L163.382 22.9563C162.921 23.3333 162.886 24.1839 163.326 24.9403L163.323 24.9346M158.01 34.0865C158.889 34.0865 159.613 34.5376 159.711 35.1249L160.579 44.8868C160.579 45.8549 159.442 46.6452 158.012 46.6452C156.582 46.6452 155.448 45.8549 155.448 44.8868L156.315 35.1249C156.411 34.5369 157.135 34.0865 158.012 34.0865H158.009M163.322 31.0365C163.763 30.2789 164.521 29.8856 165.08 30.0942L174.019 34.2285C174.861 34.7122 174.981 36.0868 174.271 37.3181C173.553 38.5443 172.292 39.1286 171.456 38.6461L163.382 33.0223C162.921 32.6422 162.886 31.791 163.326 31.0352H163.322M152.702 31.0352C153.143 31.7904 153.109 32.6416 152.645 33.0223L144.572 38.6461C143.733 39.1286 142.475 38.5443 141.76 37.3181C141.044 36.0874 141.171 34.7122 142.007 34.2285L150.946 30.0942C151.504 29.8856 152.266 30.2789 152.704 31.0371H152.701" fill="#FEC12B"/>
<path d="M107.092 33.004C107.092 33.3037 107.065 33.6128 106.982 33.8842C106.64 35.0112 105.466 35.9642 103.997 35.9642C102.772 35.9642 101.8 35.2725 101.8 33.8119C101.8 31.5767 104.274 30.9592 107.092 30.9749V33.0034H107.092V33.004ZM111.51 29.1084C111.51 25.4227 109.926 22.1792 104.573 22.1792C101.825 22.1792 99.6435 22.9462 98.4536 23.6304L99.3257 26.5937C100.414 25.9108 102.147 25.3454 103.788 25.3454C106.504 25.3379 106.949 26.8739 106.949 27.857V28.0895C101.03 28.0807 97.2883 30.118 97.2883 34.2686C97.2883 36.8048 99.1942 39.1801 102.507 39.1801C104.542 39.1801 106.247 38.3722 107.267 37.0774H107.368C107.368 37.0774 108.043 39.8893 111.77 38.8132C111.575 37.6441 111.512 36.3958 111.512 34.895V29.1078M19.2856 17.1597C19.2856 17.1597 23.1538 32.9154 23.7712 35.4723C24.4916 38.457 25.7903 39.5557 29.5327 38.8138L31.948 29.0456C32.5603 26.6182 32.9705 24.8874 33.3648 22.4204H33.4337C33.7105 24.9132 34.1036 26.6251 34.6079 29.0532C34.6079 29.0532 35.5905 33.4878 36.0948 35.8166C36.5998 38.1441 38.004 39.6123 41.6699 38.8132L47.425 17.1584H42.7802L40.8149 26.5214C40.2865 29.2454 39.8075 31.3769 39.4378 33.8685H39.3721C39.0359 31.3989 38.6087 29.3547 38.0716 26.6998L36.0266 17.1584H31.1859L28.9974 26.4592C28.3781 29.2862 27.7974 31.5679 27.4289 33.9771H27.3619C26.984 31.7086 26.481 28.8402 25.9369 26.1049C25.9369 26.1049 24.6376 19.4521 24.1807 17.1591H19.2856M56.2104 33.004C56.2104 33.3037 56.1838 33.6128 56.0998 33.8842C55.7579 35.0112 54.5837 35.9642 53.1145 35.9642C51.8897 35.9642 50.9184 35.2725 50.9184 33.8119C50.9184 31.5767 53.3925 30.9592 56.2104 30.9749V33.0034V33.004ZM60.6283 29.1084C60.6283 25.4227 59.044 22.1792 53.6921 22.1792C50.9437 22.1792 48.761 22.9462 47.571 23.6304L48.4418 26.5937C49.5294 25.9108 51.2635 25.3454 52.9053 25.3454C55.6227 25.3379 56.0676 26.8739 56.0676 27.857V28.0895C50.1462 28.0807 46.4063 30.118 46.4063 34.2686C46.4063 36.8048 48.311 39.1801 51.6212 39.1801C53.6592 39.1801 55.3636 38.3722 56.3848 37.0774H56.484C56.484 37.0774 57.1608 39.8893 60.8874 38.8132C60.6928 37.6441 60.629 36.3958 60.629 34.895V29.1078M68.0025 34.2171V17.1597H63.5783V38.8144H68.0025V34.2171ZM125.88 17.1597V33.1341C125.88 35.3372 126.298 36.8795 127.189 37.8231C127.969 38.648 129.252 39.1826 130.791 39.1826C132.1 39.1826 133.386 38.9344 133.993 38.7108L133.936 35.275C133.484 35.385 132.966 35.4736 132.256 35.4736C130.748 35.4736 130.244 34.5136 130.244 32.536V26.4241H134.097V22.2803H130.244V17.1603H125.881M114.461 22.5467V38.8144H119.025V30.4849C119.025 30.0344 119.052 29.6424 119.124 29.2837C119.461 27.5379 120.804 26.4234 122.732 26.4234C123.26 26.4234 123.639 26.4806 124.048 26.5384V22.2797C123.704 22.2118 123.471 22.1798 123.043 22.1798C121.34 22.1798 119.402 23.2723 118.589 25.6155H118.465V22.5467H114.461ZM71.101 22.5467V38.8144H75.5474V29.2749C75.5474 28.827 75.6004 28.3539 75.7565 27.9437C76.125 26.9832 77.0242 25.8587 78.4594 25.8587C80.2547 25.8587 81.0927 27.3664 81.0927 29.5425V38.8138H85.5359V29.1581C85.5359 28.7309 85.5947 28.2164 85.7217 27.8394C86.0864 26.7463 87.0551 25.8574 88.3892 25.8574C90.2079 25.8574 91.0813 27.3387 91.0813 29.9006V38.8132H95.527V29.2316C95.527 24.1788 92.9462 22.1785 90.0322 22.1785C88.7431 22.1785 87.7244 22.4996 86.803 23.0606C86.0295 23.5342 85.3356 24.2058 84.7302 25.0878H84.6645C83.9618 23.3345 82.3086 22.1792 80.1543 22.1792C77.387 22.1792 76.1427 23.5738 75.3881 24.7568H75.3218V22.5461H71.101" fill="#FEC12B"/>
<path d="M176.26 38.0238H176.327C176.416 38.0238 176.473 37.9873 176.473 37.9327C176.473 37.8711 176.419 37.8372 176.337 37.8372C176.308 37.8372 176.279 37.8428 176.26 37.8428V38.025V38.0231V38.0238ZM176.25 38.4629H176.014V37.6971C176.067 37.6864 176.193 37.6682 176.352 37.6682C176.526 37.6682 176.605 37.6927 176.661 37.731C176.709 37.7643 176.745 37.8215 176.745 37.8987C176.745 37.976 176.672 38.0439 176.565 38.0728V38.0828C176.652 38.1061 176.7 38.1689 176.725 38.2794C176.749 38.39 176.763 38.4352 176.778 38.4635H176.51C176.487 38.4352 176.473 38.3674 176.457 38.2996C176.442 38.2223 176.405 38.1833 176.326 38.1833H176.249V38.4629H176.25ZM176.347 37.4477C176.008 37.4477 175.752 37.7228 175.752 38.0728C175.752 38.4227 176.009 38.6928 176.357 38.6928C176.706 38.6985 176.963 38.4145 176.963 38.0671C176.963 37.7197 176.706 37.4471 176.353 37.4471H176.348L176.347 37.4477ZM176.363 37.2397C176.836 37.2397 177.213 37.6098 177.213 38.0671C177.213 38.5245 176.836 38.9001 176.356 38.9001C175.877 38.9001 175.495 38.5289 175.495 38.0671C175.495 37.6054 175.877 37.2397 176.356 37.2397H176.361" fill="#FEC12B"/>
</g>
<defs>
<clipPath id="clip0_12422_2601">
<rect width="157.821" height="37.3415" fill="white" transform="translate(19.2858 9.3291)"/>
</clipPath>
</defs>
</svg>
