<svg width="24" height="24" viewBox="0 0 24 24" fill="none" xmlns="http://www.w3.org/2000/svg">
<g clip-path="url(#clip0_12076_4771)">
<path d="M20.6834 21.697L7.48796 22.899C3.40827 23.2626 -0.0304779 19.9091 0.274736 15.8485L1.14968 4.03028C1.2616 2.47473 2.5028 1.2222 4.06956 1.09089L16.39 0.0302816C20.4494 -0.323254 23.8576 3.01008 23.5829 7.04038L22.708 19.6363C22.6368 20.7172 21.772 21.5959 20.6834 21.697Z" fill="#FEC12B"/>
<path d="M21.6515 11.1958C23.0385 14.7312 25.3404 23.1109 20.7957 22.9058C17.0675 22.7397 17.7463 18.716 15.3953 16.2939C14.8838 15.7665 11.2244 14.9656 10.5654 15.2098C7.30937 16.3915 6.33552 20.4935 2.81393 19.1359C-1.42576 17.4951 4.10256 10.7563 6.80769 8.09002C9.51283 5.414 10.6834 6.56644 12.5623 7.45519C14.4411 8.35371 14.5591 8.37324 16.6446 8.31465C18.73 8.25605 20.2645 7.67006 21.6515 11.2055V11.1958ZM19.9596 12.6021C20.0383 12.231 19.8022 11.8696 19.4284 11.7915C19.0546 11.7134 18.6906 11.9478 18.6119 12.3189C18.5332 12.69 18.7693 13.0514 19.1431 13.1295C19.5169 13.2077 19.8809 12.9733 19.9596 12.6021ZM19.5464 14.5359C19.6251 14.1648 19.3891 13.8034 19.0152 13.7253C18.6414 13.6471 18.2775 13.8815 18.1988 14.2527C18.1201 14.6238 18.3562 14.9852 18.73 15.0633C19.1038 15.1414 19.4677 14.907 19.5464 14.5359ZM18.0119 12.1919C18.0906 11.8208 17.8545 11.4595 17.4807 11.3813C17.1069 11.3032 16.7429 11.5376 16.6642 11.9087C16.5855 12.2798 16.8216 12.6412 17.1954 12.7193C17.5692 12.7975 17.9332 12.5631 18.0119 12.1919ZM17.5987 14.1257C17.6774 13.7546 17.4413 13.3932 17.0675 13.3151C16.6937 13.237 16.3298 13.4714 16.2511 13.8425C16.1724 14.2136 16.4085 14.575 16.7823 14.6531C17.1561 14.7312 17.52 14.4968 17.5987 14.1257ZM10.772 12.2408L10.9982 11.1665L9.88663 10.9321L10.1227 9.82845L9.04066 9.60382L8.80458 10.7074L7.69301 10.473L7.46676 11.5474L8.57833 11.7817L8.34225 12.8854L9.4243 13.11L9.66039 12.0064L10.772 12.2408Z" fill="#FEC12B"/>
<path d="M20.7159 23C20.6569 23 20.5979 23 20.5389 23C18.0698 22.8926 17.4009 21.1932 16.6926 19.3962C16.2696 18.3121 15.827 17.1987 14.9712 16.31C14.804 16.1439 13.9875 15.8314 12.7382 15.5482C11.5086 15.2747 10.6233 15.2063 10.4167 15.2845C9.18711 15.7337 8.29195 16.6127 7.43614 17.4624C6.06882 18.8102 4.78019 20.0896 2.4882 19.2008C1.57337 18.8492 1.01267 18.2437 0.835604 17.4038C0.265065 14.6692 4.05226 10.0399 6.3836 7.73498C8.90184 5.24453 10.2396 5.93795 11.7939 6.7388C12.0004 6.84623 12.207 6.95366 12.4333 7.06109C14.2728 7.94008 14.3515 7.94984 16.3975 7.89124C16.6434 7.89124 16.8795 7.87171 17.1156 7.85218C18.8567 7.74475 20.3716 7.65685 21.6504 10.9384C22.8407 13.9855 24.4244 19.7478 22.7817 22.0136C22.3095 22.6679 21.6111 23 20.7159 23ZM10.7217 14.7473C11.4201 14.7473 12.4825 14.9719 12.8563 15.0501C13.3383 15.1575 14.9417 15.5384 15.345 15.9486C16.2795 16.9057 16.732 18.0777 17.1845 19.2008C17.8829 20.9783 18.4338 22.3847 20.5782 22.4824C21.3947 22.5214 21.975 22.2675 22.3783 21.7108C23.8932 19.611 22.2603 13.8683 21.1782 11.1142C20.0273 8.17447 18.8863 8.24284 17.1451 8.35027C16.909 8.36004 16.6631 8.37957 16.4172 8.38933C14.2924 8.44793 14.135 8.41863 12.2169 7.51035C11.9906 7.40292 11.7742 7.29549 11.5676 7.18806C10.0232 6.39697 9.01004 5.86958 6.7574 8.09634C4.64247 10.1766 0.806093 14.7766 1.33728 17.3061C1.475 17.9703 1.91766 18.439 2.6751 18.732C4.65231 19.4938 5.72453 18.439 7.07218 17.101C7.92799 16.2514 8.91167 15.2845 10.2396 14.8059C10.3577 14.7669 10.5249 14.7473 10.7118 14.7473H10.7217Z" fill="#4A649F" stroke="#4A649F" stroke-width="0.5" stroke-miterlimit="10"/>
<path d="M9.42454 13.3639C9.42454 13.3639 9.38519 13.3639 9.37535 13.3639L8.2933 13.1393C8.15558 13.11 8.06705 12.9732 8.09656 12.8365L8.28346 11.9771L7.41781 11.7915C7.34896 11.7817 7.28994 11.7427 7.26042 11.6841C7.22108 11.6255 7.21124 11.5571 7.22108 11.4887L7.44733 10.4144C7.45716 10.3461 7.49651 10.2875 7.55553 10.2582C7.61455 10.2191 7.68341 10.2093 7.75227 10.2191L8.61791 10.4047L8.80481 9.5452C8.83432 9.40847 8.97204 9.32057 9.10976 9.34987L10.1918 9.5745C10.2607 9.58427 10.3197 9.62334 10.3492 9.68193C10.3885 9.74053 10.3984 9.8089 10.3885 9.87726L10.2016 10.7367L11.0673 10.9223C11.1362 10.932 11.1952 10.9711 11.2247 11.0297C11.264 11.0883 11.2739 11.1567 11.264 11.225L11.0378 12.2994C11.0279 12.3677 10.9886 12.4263 10.9296 12.4556C10.8706 12.4947 10.8017 12.5044 10.7328 12.4947L9.86719 12.3091L9.68029 13.1686C9.67046 13.2369 9.63111 13.2955 9.57209 13.3248C9.53274 13.3541 9.48356 13.3639 9.43437 13.3639H9.42454ZM8.64742 12.69L9.2278 12.8072L9.4147 11.9478C9.42454 11.8794 9.46388 11.8208 9.5229 11.7915C9.58193 11.7524 9.65078 11.7427 9.71964 11.7524L10.5853 11.938L10.7033 11.3618L9.83768 11.1762C9.76883 11.1664 9.7098 11.1274 9.68029 11.0688C9.64095 11.0102 9.63111 10.9418 9.64095 10.8734L9.82785 10.014L9.24747 9.8968L9.06057 10.7562C9.05073 10.8246 9.01139 10.8832 8.95237 10.9125C8.89334 10.9516 8.82449 10.9613 8.75563 10.9516L7.88998 10.766L7.77194 11.3422L8.63759 11.5278C8.70644 11.5376 8.76547 11.5766 8.79498 11.6352C8.83432 11.6938 8.84416 11.7622 8.83432 11.8306L8.64742 12.69Z" fill="#4A649F"/>
<path d="M17.3335 12.983C17.2646 12.983 17.2056 12.983 17.1368 12.9634C16.8908 12.9146 16.6744 12.7681 16.5367 12.5532C16.399 12.3384 16.3498 12.0942 16.4088 11.8501C16.517 11.3422 17.0187 11.0199 17.5302 11.1273C17.7762 11.1762 17.9926 11.3227 18.1303 11.5375C18.268 11.7524 18.3172 11.9966 18.268 12.2407C18.1696 12.6802 17.7762 12.983 17.3433 12.983H17.3335ZM17.3335 11.6157C17.1368 11.6157 16.9499 11.7524 16.9105 11.9575C16.8908 12.0747 16.9105 12.1821 16.9695 12.2798C17.0286 12.3774 17.1269 12.4458 17.245 12.4653C17.4811 12.5142 17.7073 12.3677 17.7565 12.1333C17.7762 12.0161 17.7565 11.9087 17.6975 11.811C17.6384 11.7133 17.5401 11.645 17.422 11.6254C17.3925 11.6254 17.363 11.6254 17.3335 11.6254V11.6157Z" fill="#4A649F"/>
<path d="M19.2907 13.3932C19.2218 13.3932 19.1628 13.3932 19.0939 13.3737C18.5824 13.2663 18.2578 12.7682 18.366 12.2603C18.4742 11.7525 18.9759 11.4302 19.4874 11.5376C19.9989 11.645 20.3235 12.1431 20.2153 12.651C20.1662 12.8952 20.0186 13.11 19.8022 13.2468C19.6448 13.3444 19.4677 13.403 19.2907 13.403V13.3932ZM19.2907 12.0259C19.0939 12.0259 18.907 12.1627 18.8677 12.3678C18.8185 12.6022 18.9661 12.8268 19.2021 12.8756C19.3202 12.8952 19.4284 12.8756 19.5268 12.817C19.6251 12.7584 19.694 12.6608 19.7137 12.5436C19.7628 12.3092 19.6153 12.0845 19.3792 12.0357C19.3497 12.0357 19.3202 12.0357 19.2907 12.0357V12.0259Z" fill="#4A649F"/>
<path d="M16.9201 14.9266C16.8512 14.9266 16.7922 14.9266 16.7233 14.9071C16.2118 14.7996 15.8872 14.3015 15.9954 13.7937C16.0446 13.5495 16.1921 13.3347 16.4086 13.1979C16.625 13.0612 16.8709 13.0124 17.1168 13.0612C17.6283 13.1686 17.9529 13.6667 17.8447 14.1746C17.7464 14.6141 17.3529 14.9168 16.9201 14.9168V14.9266ZM16.9201 13.5495C16.8414 13.5495 16.7528 13.569 16.684 13.6179C16.5856 13.6765 16.5168 13.7741 16.4971 13.8913C16.4479 14.1257 16.5955 14.3504 16.8315 14.3992C17.0676 14.448 17.2939 14.3015 17.3431 14.0671C17.3922 13.8327 17.2447 13.6081 17.0086 13.5593C16.9791 13.5593 16.9496 13.5593 16.9201 13.5593V13.5495Z" fill="#4A649F"/>
<path d="M18.8776 15.3367C18.8087 15.3367 18.7497 15.3367 18.6809 15.3172C18.1693 15.2098 17.8447 14.7117 17.9529 14.2038C18.0611 13.696 18.5628 13.3737 19.0743 13.4811C19.5858 13.5885 19.9105 14.0866 19.8023 14.5945C19.7039 15.034 19.3104 15.3367 18.8776 15.3367ZM18.8776 13.9597C18.6809 13.9597 18.494 14.0964 18.4546 14.3015C18.4054 14.5359 18.553 14.7605 18.7891 14.8191C19.0251 14.8679 19.2514 14.7214 19.3006 14.487C19.3498 14.2526 19.2022 14.028 18.9661 13.9792C18.9366 13.9792 18.9071 13.9792 18.8776 13.9792V13.9597Z" fill="#4A649F"/>
</g>
<defs>
<clipPath id="clip0_12076_4771">
<rect width="24" height="24" fill="white"/>
</clipPath>
</defs>
</svg>
