<svg width="24" height="24" viewBox="0 0 24 24" fill="none" xmlns="http://www.w3.org/2000/svg">
<g clip-path="url(#clip0_12076_4773)">
<path d="M20.5953 22.3473L7.28983 23.587C3.18539 23.9685 -0.281975 20.5142 0.0208975 16.3288L0.898182 4.15393C1.01306 2.54334 2.26633 1.26122 3.84335 1.12347L16.2715 0.0214836C20.3655 -0.338781 23.8016 3.09433 23.5196 7.24797L22.6423 20.2281C22.5692 21.3513 21.7024 22.2414 20.6058 22.3473H20.5953Z" fill="#FEC12B"/>
<path d="M12.6552 13.8688H11.5377C11.1408 13.8688 10.8171 13.5403 10.8171 13.1377C10.8171 12.8092 10.556 12.5337 10.2218 12.5337C9.88756 12.5337 9.62646 12.7986 9.62646 13.1377C9.62646 14.1973 10.462 15.0556 11.4959 15.0662V15.4582C11.4959 15.7867 11.757 16.0622 12.0912 16.0622C12.4254 16.0622 12.6865 15.7973 12.6865 15.4582V15.0662C13.7205 15.045 14.556 14.1867 14.556 13.1377C14.556 12.0887 13.6996 11.2092 12.6552 11.2092H11.5377C11.1408 11.2092 10.8171 10.8807 10.8171 10.4781C10.8171 10.0754 11.1408 9.74697 11.5377 9.74697H12.6552C13.0521 9.74697 13.3758 10.0754 13.3758 10.4781C13.3758 10.8066 13.6369 11.0821 13.9711 11.0821C14.3053 11.0821 14.5664 10.8172 14.5664 10.4781C14.5664 9.41849 13.7309 8.56021 12.697 8.54962V8.15756C12.697 7.82909 12.4359 7.55359 12.1017 7.55359C11.7675 7.55359 11.5064 7.81849 11.5064 8.15756V8.54962C10.4724 8.57081 9.63691 9.42909 9.63691 10.4781C9.63691 11.5271 10.4933 12.4066 11.5377 12.4066H12.6552C13.0521 12.4066 13.3758 12.735 13.3758 13.1377C13.3758 13.5403 13.0521 13.8688 12.6552 13.8688Z" fill="#4A649F"/>
<path d="M9.29232 18.2344H14.9007C15.2244 18.2344 15.496 17.9695 15.496 17.6305C15.496 17.2914 15.2349 17.0265 14.9007 17.0265H9.29232C8.96856 17.0265 8.69702 17.2914 8.69702 17.6305C8.69702 17.9695 8.95812 18.2344 9.29232 18.2344Z" fill="#4A649F"/>
<path d="M14.9007 19.1986H9.29232C8.96856 19.1986 8.69702 19.4635 8.69702 19.8026C8.69702 20.1417 8.95812 20.4066 9.29232 20.4066H14.9007C15.2244 20.4066 15.496 20.1417 15.496 19.8026C15.496 19.4635 15.2349 19.1986 14.9007 19.1986Z" fill="#4A649F"/>
<path d="M23.3812 14.102H19.2037V5.60397C19.2037 5.2755 18.9426 5 18.6084 5H5.5953C5.27154 5 5 5.2649 5 5.60397V19.9192C5 21.5828 6.33681 22.9391 7.9765 22.9391H20.9896C22.6292 22.9391 23.9661 21.5828 23.9661 19.9192V14.706C23.9661 14.3775 23.705 14.102 23.3708 14.102H23.3812ZM7.9765 21.7311C6.98433 21.7311 6.18016 20.9152 6.18016 19.9086V6.20795H18.0131V19.9192C18.0131 20.5974 18.2324 21.2331 18.6188 21.7417H7.9765V21.7311ZM22.7859 19.9192C22.7859 20.9258 21.9817 21.7417 20.9896 21.7417C19.9974 21.7417 19.1932 20.9258 19.1932 19.9192V15.3099H22.7755V19.9192H22.7859Z" fill="#4A649F"/>
</g>
<defs>
<clipPath id="clip0_12076_4773">
<rect width="24" height="24" fill="white"/>
</clipPath>
</defs>
</svg>
