<svg width="64" height="63" viewBox="0 0 64 63" fill="none" xmlns="http://www.w3.org/2000/svg">
<g id="icon/hamburguer">
<path id="Vector" d="M11.4145 47.25C10.6723 47.25 10.0506 46.998 9.54935 46.494C9.0464 45.9917 8.79492 45.3687 8.79492 44.625C8.79492 43.8813 9.0464 43.2583 9.54935 42.756C10.0506 42.252 10.6723 42 11.4145 42H53.3271C54.0693 42 54.6911 42.252 55.1923 42.756C55.6952 43.2583 55.9467 43.8813 55.9467 44.625C55.9467 45.3687 55.6952 45.9917 55.1923 46.494C54.6911 46.998 54.0693 47.25 53.3271 47.25H11.4145ZM11.4145 34.125C10.6723 34.125 10.0506 33.873 9.54935 33.369C9.0464 32.8667 8.79492 32.2437 8.79492 31.5C8.79492 30.7563 9.0464 30.1324 9.54935 29.6284C10.0506 29.1261 10.6723 28.875 11.4145 28.875H53.3271C54.0693 28.875 54.6911 29.1261 55.1923 29.6284C55.6952 30.1324 55.9467 30.7563 55.9467 31.5C55.9467 32.2437 55.6952 32.8667 55.1923 33.369C54.6911 33.873 54.0693 34.125 53.3271 34.125H11.4145ZM11.4145 21C10.6723 21 10.0506 20.7489 9.54935 20.2466C9.0464 19.7426 8.79492 19.1187 8.79492 18.375C8.79492 17.6313 9.0464 17.0074 9.54935 16.5034C10.0506 16.0011 10.6723 15.75 11.4145 15.75H53.3271C54.0693 15.75 54.6911 16.0011 55.1923 16.5034C55.6952 17.0074 55.9467 17.6313 55.9467 18.375C55.9467 19.1187 55.6952 19.7426 55.1923 20.2466C54.6911 20.7489 54.0693 21 53.3271 21H11.4145Z" fill="white"/>
</g>
</svg>
