<svg width="664" height="196" viewBox="0 0 664 196" fill="none" xmlns="http://www.w3.org/2000/svg">
<path d="M4.13142 112L45.5135 0H653.513C657.513 40.6667 665.113 128.4 663.513 154C661.913 179.6 640.132 196.534 613.132 195.5C439.132 188.833 93.5135 172.4 45.5135 166C-2.48648 159.6 -4.86841 137 4.13142 112Z" fill="#4A649F"/>
<g clip-path="url(#clip0_12194_1020)">
<path d="M396.877 88.9159L380.589 88.6264C380.042 88.6264 379.591 89.0446 379.591 89.5915L378.898 128.692C378.898 129.223 378.463 129.641 377.931 129.657L368.507 129.85C367.927 129.85 367.476 129.384 367.508 128.821L369.49 89.4467C369.522 88.8837 369.087 88.4173 368.523 88.4173L362.917 88.2886C362.369 88.2886 361.934 87.8222 361.95 87.2914L362.031 83.769C362.031 83.2221 362.498 82.7878 363.03 82.8039L368.668 82.9326C369.216 82.9326 369.667 82.5144 369.667 81.9675L369.699 79.7962C369.699 79.2815 370.102 78.8633 370.617 78.8311L378.737 78.2682C379.317 78.2199 379.8 78.6864 379.8 79.2654L379.752 82.1445C379.752 82.6913 380.171 83.1417 380.718 83.1417L397.005 83.4312C397.553 83.4312 397.988 83.8976 397.972 84.4284L397.892 87.9509C397.892 88.4977 397.424 88.932 396.893 88.9159H396.877ZM394.815 100.738C399.438 100.818 403.095 99.6441 403.24 97.4406C403.385 95.237 399.551 93.9181 394.943 93.8377C390.32 93.7573 386.663 94.8832 386.518 97.135C386.325 99.9175 390.207 100.657 394.815 100.738ZM440.47 83.6564L440.293 80.1339C440.277 79.5871 439.81 79.1689 439.262 79.185L421.122 79.8927C420.574 79.9088 420.123 79.4906 420.091 78.9437L419.978 76.0646C419.962 75.4856 419.447 75.0513 418.867 75.1317L410.78 76.1611C410.28 76.2255 409.893 76.6597 409.926 77.1744L410.006 79.3458C410.022 79.8927 409.604 80.343 409.056 80.3752L403.675 80.5843C403.127 80.6004 402.708 81.0668 402.725 81.6137L402.902 85.1361C402.918 85.683 403.385 86.1012 403.933 86.0851L409.265 85.876C409.829 85.8599 410.28 86.2942 410.296 86.8571L410.538 126.28C410.538 126.859 411.037 127.293 411.601 127.261L421.009 126.521C421.541 126.473 421.944 126.022 421.912 125.508L420.413 86.4389C420.397 85.8921 420.816 85.4417 421.364 85.4096L439.504 84.7019C440.051 84.6858 440.47 84.2193 440.454 83.6725L440.47 83.6564ZM498.949 76.708L497.757 99.4993C497.725 100.046 497.258 100.513 496.71 100.545L484.322 101.253C483.79 101.285 483.371 100.883 483.387 100.368L483.661 78.2682C483.661 77.7374 483.258 77.3514 482.727 77.3835L466.391 78.3164C465.827 78.3486 465.36 78.8311 465.344 79.3941L465.263 83.3347C465.263 83.8655 465.666 84.2515 466.198 84.2193L469.758 84.0102C470.29 83.9781 470.709 84.3802 470.693 84.8949L470.145 129.545C470.145 130.075 470.548 130.461 471.079 130.429L481.937 129.802C482.501 129.77 482.968 129.287 482.984 128.724L483.242 108.201C483.242 107.638 483.726 107.155 484.289 107.123L496.291 106.432C496.839 106.399 497.258 106.818 497.226 107.365L496.034 132.536C496.001 133.051 496.388 133.453 496.903 133.469L508.261 133.566C508.825 133.566 509.34 133.099 509.373 132.52L512.385 74.7618C512.417 74.1828 511.934 73.7485 511.354 73.845L499.9 75.6464C499.384 75.7269 498.982 76.1772 498.966 76.6758L498.949 76.708ZM389.289 128.982H386.534C385.922 128.982 385.455 129.545 385.567 130.14L386.131 133.18C386.228 133.662 386.663 134.016 387.162 133.984L399.486 133.212C400.002 133.18 400.405 132.745 400.405 132.231V106.303C400.405 105.756 399.97 105.322 399.422 105.322H390.449C389.885 105.322 389.45 105.788 389.466 106.351L390.288 127.968C390.304 128.531 389.869 128.998 389.305 128.998L389.289 128.982ZM448.058 120.956C442.581 120.956 441.099 117.482 441.099 113.187V103.922C441.099 99.628 442.484 96.1538 447.913 96.1538C453.342 96.1538 454.389 98.1322 454.454 102.218C454.454 102.764 454.937 103.199 455.549 103.199H464.152C464.732 103.199 465.215 102.781 465.247 102.25C465.634 94.9475 461.333 91.3286 455.018 90.7334C451.296 90.3796 447.542 90.3474 442.967 90.6369C435.508 91.1195 428.903 96.4433 428.903 104.035V109.488C428.903 121.052 431.449 128.049 445.271 128.049C445.915 128.049 450.378 128.049 450.99 128.049C459.528 128.049 465.553 123.545 465.988 114.651C466.021 114.088 465.521 113.621 464.893 113.621H455.63C455.001 113.621 454.518 114.104 454.534 114.667C454.711 118.398 453.535 120.972 448.058 120.972V120.956ZM350.158 104.083C346.42 102.732 342.522 101.156 338.929 99.8049C332.823 97.521 332.002 96.3951 331.808 92.6796C331.406 84.7501 332.098 81.4368 338.559 81.5172C343.52 81.5654 345.035 82.8683 345.035 91.9398C345.035 92.4866 345.47 92.9209 346.017 92.9209L357.633 93.0496C358.148 93.0496 358.583 92.6635 358.632 92.1488C359.791 79.6675 354.105 74.5366 342.715 74.408C341.458 74.408 334.144 74.3436 332.984 74.3436C326.025 74.2632 317.567 77.8821 317.471 85.5704C317.374 94.3846 315.312 97.2154 330.052 103.102C332.523 104.089 335.294 105.22 338.365 106.496C342.667 108.281 344.535 109.954 344.535 116.307C344.535 121.036 343.794 125.122 337.64 125.057C331.986 124.993 328.876 122.934 328.731 118.736C328.683 117.369 328.667 113.67 328.683 111.707C328.683 111.16 328.248 110.726 327.7 110.726H314.2C313.685 110.726 313.266 111.096 313.218 111.611C312.122 124.044 316.085 132.52 337.318 132.745C359.373 132.987 359.582 125.363 359.582 118.559C359.582 109.391 356.424 106.351 350.19 104.116L350.158 104.083ZM211.66 114.409L220.086 112.914C220.569 112.833 220.923 112.399 220.923 111.9V76.2576C220.923 75.6947 220.472 75.2283 219.892 75.2283H207.923C207.423 75.2283 206.988 75.5982 206.908 76.0807L205.845 80.1983C205.748 80.8256 206.231 81.3885 206.859 81.3885H209.405C209.969 81.3885 210.436 81.8389 210.436 82.4179V113.38C210.436 114.023 211.016 114.506 211.644 114.393L211.66 114.409ZM223.131 132.649L223.243 120.907C223.243 120.344 222.792 119.878 222.228 119.878L210.468 119.765C209.904 119.765 209.437 120.216 209.437 120.779L209.405 125.926C209.405 126.473 208.954 126.923 208.406 126.939L175.638 127.936C175.042 127.952 174.559 127.47 174.591 126.875L176.895 75.4373C176.911 74.8583 176.46 74.3758 175.88 74.3758L156.274 74.1828C155.565 74.1828 154.969 74.7136 154.905 75.4213L154.132 80.6486C154.051 81.4689 154.728 82.1766 155.549 82.1445L161.478 81.8871C162.074 81.8549 162.573 82.3536 162.541 82.9487L160.833 120.119C160.833 120.425 160.672 120.714 160.414 120.907L155.839 124.269C155.581 124.462 155.42 124.768 155.42 125.089L155.356 132.038C155.356 132.601 155.807 133.067 156.371 133.067L222.083 133.694C222.647 133.694 223.114 133.244 223.114 132.681L223.131 132.649ZM199.578 118.109L198.482 90.3313C198.466 89.7684 197.983 89.3341 197.419 89.3502L189.042 89.688C188.462 89.704 188.011 90.2187 188.059 90.7978L189.718 111.836C189.767 112.415 189.316 112.914 188.736 112.946L186.142 113.026C185.578 113.042 185.127 113.525 185.143 114.088L185.337 118.688C185.353 119.251 185.836 119.685 186.4 119.669L198.595 119.186C199.159 119.17 199.594 118.688 199.578 118.125V118.109ZM193.005 85.7473C197.258 85.5865 200.544 83.9941 200.544 81.4046C200.544 78.815 196.936 77.5122 192.683 77.673C188.43 77.8339 185.143 79.3619 185.143 82.0158C185.143 85.2809 188.752 85.9082 193.005 85.7473ZM240.513 84.0907L253.401 83.7851C260.296 83.6242 266.08 88.932 266.321 95.7195L267.111 117.884C267.369 125.041 261.746 131.057 254.545 131.217L241.093 131.539C233.908 131.716 228.06 125.974 228.06 118.816V96.6363C228.044 89.8327 233.618 84.2515 240.513 84.0907ZM256.72 119.412L256.172 94.9636C256.092 91.7307 253.353 89.1894 250.066 89.2698L247.102 89.3341C243.816 89.4145 241.174 92.0845 241.222 95.3174L241.496 119.765C241.544 123.143 244.315 125.829 247.714 125.749L250.759 125.668C254.142 125.588 256.817 122.773 256.736 119.379L256.72 119.412ZM302.086 126.408C302.408 126.054 302.392 125.508 302.021 125.186C300.974 124.253 298.912 122.387 297.72 121.229C297.381 120.891 297.365 120.361 297.704 120.007C298.719 118.945 299.234 118.334 300.523 116.822C300.7 116.613 300.958 116.5 301.216 116.516L305.598 116.726C306.016 116.742 306.387 116.468 306.484 116.066L307.579 111.353C307.708 110.823 307.305 110.292 306.741 110.292L298.557 110.244C298.284 110.244 298.042 110.356 297.881 110.581C297.253 111.402 295.577 113.509 294.385 114.876C294.031 115.278 293.418 115.278 293.064 114.876C291.743 113.316 291.888 113.605 291.002 112.463C290.696 112.061 290.809 111.482 291.227 111.209C295.69 108.394 297.349 104.55 297.059 101.108C296.689 96.6846 293.08 92.937 288.022 92.937C279.805 92.937 275.891 100.995 281.223 109.102C281.465 109.472 281.384 109.938 281.062 110.228C280.095 111.032 278.13 112.64 276.777 113.67C273.829 115.889 270.349 122.548 274.634 127.341C278.936 132.15 284.864 131.169 289.407 127.55C290.261 126.875 291.227 126.183 292.242 125.347C292.597 125.057 293.096 125.089 293.418 125.411C294.53 126.553 295.706 127.711 296.963 128.853L297.881 129.706C298.235 130.027 298.783 130.011 299.105 129.657L302.102 126.408H302.086ZM288.875 119.46C289.085 119.717 289.053 120.087 288.827 120.312C287.587 121.551 283.736 124.993 281.803 122.693C279.644 120.119 281.561 117.61 284.284 115.551C284.671 115.262 285.202 115.31 285.524 115.648C286.266 116.42 287.619 117.884 288.875 119.444V119.46ZM287.683 106.914C287.409 107.155 286.99 107.091 286.781 106.818C284.075 103.424 284.993 98.8399 287.377 98.8399C289.761 98.8399 290.502 104.485 287.699 106.914H287.683ZM326.347 43.2367C326.106 42.4325 325.767 41.6283 324.865 41.4996C324.35 41.6122 324.043 42.143 323.947 42.5451C323.302 46.2927 323.206 50.2012 323.254 54.174C323.318 55.5412 323.077 57.5195 324.752 57.8573C325.558 58.0825 326.363 57.8573 327.008 57.3426C327.233 52.8551 326.863 48.7375 326.589 44.427C326.524 43.8962 326.412 43.4619 326.363 43.2367H326.347ZM372.551 45.1347C373.34 45.0864 375.547 45.1829 376.594 44.3305C376.707 43.0598 375.547 41.9017 374.403 41.387C370.875 41.1619 367.524 41.9017 364.189 42.3038C363.867 42.3521 363.271 42.4164 363.271 42.8829C363.561 44.3787 365.059 44.6682 366.219 44.9577L366.155 45.1347L365.237 47.9333H365.011L364.56 47.9816C364.463 47.9816 364.367 48.0137 364.254 48.0459C363.867 48.1746 363.416 48.3515 363.545 48.834C364.641 51.0215 362.45 52.5173 362.675 54.7048C362.836 56.1363 363.577 57.616 364.85 58.3237C365.043 58.4042 365.317 58.5167 365.688 58.5489C369.055 58.8384 371.793 57.0692 374.323 55.0908C374.613 54.4635 374.162 53.6432 373.743 53.1285C371.326 52.6138 369.006 53.7076 366.59 53.8845L366.397 53.9006C366.654 53.2894 367.105 51.9383 367.605 50.4103C367.911 50.362 368.523 50.346 369.022 50.3781C369.522 50.3942 370.037 50.4425 370.344 50.4425C371.52 50.4425 372.696 50.539 373.549 49.9117C373.694 49.7991 373.727 49.6383 373.727 49.5578C373.759 49.1557 373.872 48.3676 373.566 47.9172C372.116 47.4025 370.344 47.6277 368.781 47.6277H368.555L369.296 45.2633L372.534 45.1508L372.551 45.1347ZM392.624 49.397C391.834 53.1446 388.387 56.5866 384.746 57.8573C384.746 57.8573 383.328 58.372 381.604 58.0664C380.847 59.9 380.251 61.6049 379.8 63.0686C378.962 65.9477 378.253 68.875 377.851 71.931C376.53 72.1079 375.193 70.7729 374.629 69.5666C374.516 69.3093 374.468 69.0519 374.435 68.7624C374.323 67.8456 374.484 66.8001 374.597 66.2533C374.967 63.8567 375.579 61.5888 376.256 59.337C376.707 57.9538 377.271 56.6349 377.867 55.3964C377.786 55.2838 377.674 55.1069 377.561 54.8817C377.303 54.367 377.077 53.7558 376.981 53.1768C376.417 48.9145 378.415 45.4081 380.928 42.2717C381.105 42.0626 381.282 41.8857 381.443 41.7248C381.894 41.3066 382.329 40.6793 382.99 40.7276C383.393 44.3787 379.832 46.7431 379.43 50.2495C379.381 50.7641 379.381 51.5844 379.736 51.9865C380.992 49.9439 382.249 48.3033 383.151 47.2095C383.183 47.1774 383.199 47.1452 383.231 47.113C384.746 45.3277 386.421 43.7836 388.322 42.706C388.58 42.5612 389.096 42.3199 389.482 42.3199C389.982 42.3199 390.449 42.5129 390.835 42.8185C390.916 42.8829 391.029 42.9955 391.158 43.1241C392.559 44.8773 393.204 47.0648 392.64 49.3648L392.624 49.397ZM390.481 47.306C390.481 46.8235 390.4 46.4214 390.336 46.1962C390.239 45.8906 390.127 45.5368 389.82 45.4724C389.724 45.4403 389.611 45.5046 389.53 45.5689C389.24 45.8585 388.951 46.148 388.677 46.4375C388.644 46.4697 388.612 46.5018 388.596 46.534C388.564 46.5662 388.532 46.6144 388.499 46.6466C387.195 48.1263 386.035 49.7187 385.02 51.3593C384.601 52.067 384.198 52.7747 383.795 53.4824C383.715 53.6432 383.618 53.8041 383.538 53.9649C385.31 53.9649 386.921 53.0964 388.306 52.0026C389.708 50.7481 390.465 49.1557 390.481 47.3221V47.306ZM335.353 31.5918C335.288 31.9456 335.127 32.5086 334.805 33.0715C333.774 34.7925 332.308 36.1114 330.713 37.173C329.73 37.8003 328.812 38.2667 327.717 38.6045C326.154 39.0709 324.43 38.7814 322.98 38.315C322.755 38.6045 322.4 39.8108 321.659 39.7465C321.256 39.7465 321.015 39.5695 320.773 39.0387C320.693 38.8457 320.628 38.6849 320.596 38.5241C320.531 38.2667 320.499 37.9933 320.499 37.7842C320.499 37.3982 320.499 36.9961 320.499 36.8674C319.436 35.8058 319.098 34.2939 319.388 32.8785C319.388 32.7981 319.436 32.6694 319.5 32.4764C319.533 32.3477 319.581 32.219 319.629 32.0904C319.629 32.0582 319.662 32.0421 319.678 32.0099C320.161 30.9162 321.418 29.0344 324.672 27.4099C325.01 27.249 325.606 26.9917 326.267 26.8147C327.104 26.6056 328.184 26.4287 329.569 26.5735H329.65C330.214 26.6539 330.858 26.7987 331.422 27.1203C331.422 27.1203 332.243 27.5546 332.453 28.2462C332.517 28.2462 332.582 28.2462 332.646 28.2462C332.807 28.2462 333.081 28.2462 333.371 28.3267C333.436 28.3267 333.5 28.3588 333.564 28.3749C334.209 28.5679 334.676 29.0504 334.676 29.0504C334.676 29.0504 334.837 29.2113 334.902 29.2917C335.433 29.919 335.514 30.7071 335.353 31.5918ZM326.557 29.8547C326.444 29.8225 326.315 29.8064 326.218 29.7903C325.671 29.726 325.268 29.8386 325.091 29.9029C325.091 29.9029 325.042 29.919 325.026 29.9351C324.865 29.9994 324.672 30.0798 324.559 30.1442C323.898 30.5141 323.27 30.9484 322.755 31.4631C322.416 31.8008 322.062 32.2351 321.836 32.6372C321.804 32.7016 321.675 32.9267 321.579 33.2323C321.466 33.6505 321.401 34.0687 321.724 34.3422C321.788 34.2617 321.852 34.1974 321.901 34.117C322.465 33.4414 324.285 31.3666 326.573 29.8547H326.557ZM333.194 30.9484C332.936 30.112 332.131 30.1603 331.422 30.2246C331.148 30.2728 330.874 30.3533 330.745 30.3854C328.296 31.3344 326.025 33.5219 324.591 35.7737C326.267 36.0632 327.942 35.7737 329.553 35.1946C330.069 34.9694 330.6 34.7443 331.1 34.3904C332.195 33.5862 333.468 32.4281 333.178 30.9323L333.194 30.9484ZM357.939 40.6311C357.472 39.9716 356.666 38.7331 355.635 38.6688C355.232 38.8457 355.216 39.4087 355.281 39.7625C356.038 43.5584 357.52 47.0004 357.536 51.0697C357.536 51.2306 357.536 51.504 357.488 51.6649C357.439 51.8257 357.343 51.9705 357.182 51.9865C354.91 48.9145 353.364 45.4564 350.544 42.6577C350.415 42.5451 350.335 42.4969 350.287 42.4647C349.836 42.2556 349.417 42.5129 349.094 42.8668C349.014 42.9794 348.837 43.2206 348.643 43.6549C347.757 45.7298 347.338 48.0137 347.016 50.3138C346.839 51.4719 346.324 54.6887 347.129 56.474C347.483 57.1174 348.112 57.7447 348.853 57.6804C349.368 57.616 349.771 56.9887 349.948 56.474L350.512 47.1452L350.754 47.5473C352.655 50.6033 353.637 54.0614 356.634 56.474C357.053 56.7475 357.617 56.6992 358.084 56.5062C358.374 56.3936 358.793 56.2167 359.131 55.9111C360.162 55.0747 360.71 53.6432 360.855 52.5012C361.37 48.1263 360.275 44.0409 357.907 40.6472L357.939 40.6311ZM345.486 42.529C345.486 42.529 345.454 42.3843 345.389 42.3038C345.357 42.2717 345.293 42.2234 345.228 42.2073C340.846 40.4059 334.789 40.9367 330.729 43.1724C329.489 43.8158 328.941 45.006 328.844 46.3571C328.844 46.5822 328.844 47.1613 329.102 47.6438C329.311 47.9977 329.601 48.3033 329.924 48.4802C329.972 48.4963 330.069 48.5284 330.165 48.5606C331.502 48.8501 332.92 48.9466 334.354 49.0271C335.079 49.0753 335.594 49.1075 335.594 49.1075C338.285 49.3327 339.557 49.6865 339.557 49.6865C340.637 49.9921 342.119 50.2334 342.425 51.5523C342.425 51.6166 342.425 51.6488 342.409 51.697C341.507 53.1446 338.784 53.6432 336.964 53.9488C335.771 54.0936 332.743 54.5922 331.277 53.3698C331.083 53.1929 331.035 52.9999 331.019 52.8873C331.019 52.8551 331.019 52.8229 331.019 52.8068C331.019 52.5977 331.1 52.3887 331.228 52.1956C331.245 52.1635 331.309 52.0831 331.422 52.0187C333.323 50.9089 335.755 53.2733 337.705 53.032C339.67 52.839 340.298 52.3726 340.492 51.9544C340.653 51.6327 340.572 51.4236 340.572 51.4236C339.88 50.8446 338.333 50.3942 337.06 50.169C335.256 49.9117 332.695 49.5257 330.906 50.6194C330.874 50.6355 330.536 50.8607 330.31 51.1984C329.956 51.7131 329.714 52.3243 329.682 52.9838C329.682 53.0964 329.682 53.2733 329.762 53.4663C330.681 55.7663 333.097 56.9887 335.288 57.4874C338.269 57.9699 341.491 57.5678 343.698 55.6055C344.116 55.2356 344.342 54.8978 344.455 54.7048C345.003 53.6111 345.18 51.8579 344.825 50.4907C344.729 50.1047 344.551 49.8152 344.423 49.6222C342.135 46.6144 337.914 47.4669 334.354 46.8878C333.903 46.8235 333.291 46.727 332.727 46.5501C332.388 46.4536 332.179 46.3571 332.066 46.3088C332.034 46.3088 332.002 46.2766 331.97 46.2606C331.889 46.1962 331.825 46.1319 331.792 46.0193C331.792 45.955 331.825 45.9228 331.841 45.9067C334.934 44.6682 338.671 44.8291 342.103 44.427C343.198 44.2661 344.342 44.2983 345.099 43.4619C345.131 43.4297 345.164 43.3976 345.212 43.3332C345.292 43.2367 345.373 43.092 345.421 42.915C345.454 42.8185 345.47 42.7381 345.47 42.6738V42.6416C345.47 42.6416 345.47 42.6094 345.47 42.5934L345.486 42.529ZM316.391 57.0531C310.737 61.2028 303.004 61.8301 295.964 60.1734C295.915 60.1734 295.932 60.1734 295.867 60.1573C295.803 60.9294 295.851 62.0392 295.045 62.3609C294.449 62.5217 293.547 62.6504 292.742 62.4252C291.823 61.3797 291.823 59.8356 291.534 58.3881C287.49 56.5062 283.156 53.4502 280.772 49.3809C280.675 49.1879 280.627 49.0271 280.611 48.9627C280.498 48.3354 280.708 47.676 281.03 47.1774C281.126 47.0326 281.239 46.9039 281.336 46.8074C282.689 45.5046 284.252 44.7326 285.831 44.1053C286.684 43.7836 287.538 43.5423 288.408 43.3172C289.439 43.0276 290.438 42.8185 291.356 42.6577C291.517 42.6255 291.695 42.5773 291.856 42.5451C291.985 42.1108 292.017 36.4974 293.402 33.9561C294.739 34.4226 295.416 35.9184 295.593 37.1891L295.722 42.1752C295.722 42.1752 295.899 42.1591 295.915 42.1591H296.109C296.189 42.1591 296.27 42.1591 296.35 42.1591C297.14 42.1269 298.509 42.1108 300.33 42.2717C303.358 42.5129 306.29 43.2206 308.691 45.0382C308.9 45.2151 309.319 45.585 309.593 46.0354C310.028 46.8074 310.35 47.6277 310.076 48.6089C309.818 49.6865 308.675 50.5551 307.708 51.0858C307.354 51.2628 306.999 51.2788 306.902 51.2788C306.242 51.2788 305.549 51.1502 304.953 50.8928C304.905 50.8607 304.889 50.8446 304.889 50.7963C304.889 50.1369 305.646 49.9278 306.161 49.4935C306.21 49.4613 306.355 49.3487 306.58 49.011C306.612 48.9627 306.645 48.8984 306.693 48.8501C306.693 48.8501 306.693 48.8501 306.693 48.834C306.774 48.6893 306.854 48.5284 306.886 48.3515C306.886 48.3354 306.886 48.3193 306.886 48.3033C306.886 48.1907 306.806 48.1263 306.774 48.1102C303.858 46.6627 299.927 46.1641 297.156 46.0354C296.882 46.0354 296.656 46.0032 295.835 46.0354C295.835 46.1962 295.835 46.1158 295.835 46.2927C295.835 46.7592 295.835 47.7725 295.835 48.2068L295.996 56.9405C302.166 58.0986 309.142 57.7447 314.055 53.8362C316.311 51.9865 316.955 48.9949 316.44 46.2766C316.44 46.2445 316.44 46.2123 316.423 46.1641C316.391 46.0032 316.359 45.8585 316.311 45.6976C316.311 45.6494 316.278 45.6011 316.278 45.5529C316.278 45.5207 316.278 45.5046 316.262 45.4724C316.182 45.199 316.085 44.9577 316.005 44.7486C312.67 36.9961 304.389 32.6372 297.269 29.7421C291.066 27.4742 284.139 26.1553 276.97 27.2812C276.97 27.2812 276.922 27.2812 276.857 27.2973C276.793 27.2973 276.728 27.3133 276.664 27.3294C276.664 27.3294 276.551 27.3616 276.535 27.3616C276.213 27.4259 275.842 27.5385 275.633 27.7476C275.633 27.7476 275.569 27.828 275.536 27.8763C275.536 27.8924 275.536 27.9246 275.552 27.9406C276.165 28.2945 277.083 28.005 277.647 28.7288C277.679 28.777 277.695 28.8092 277.695 28.8896C277.695 29.1952 277.453 29.3078 277.163 29.3721C276.712 29.4365 276.052 29.4365 275.746 29.4365C275.005 29.4043 274.231 29.356 273.764 28.8414C273.651 28.6483 273.7 28.3267 273.764 28.1658C274.183 27.0077 274.634 25.7853 275.923 25.335C284.783 22.6328 294.691 24.7238 301.457 27.6994C303.745 28.6966 306.612 30.0798 309.399 31.9134C310.092 32.3638 310.753 32.8302 311.365 33.2806C311.397 33.2967 311.429 33.3288 311.462 33.3449C311.51 33.3932 311.574 33.4414 311.623 33.4736C320.403 40.1003 320.966 46.3249 320.966 46.3249C321.675 50.5872 319.952 54.4957 316.407 57.1496L316.391 57.0531ZM291.711 46.1801C291.131 46.2284 289.729 46.2927 287.216 46.6788C285.766 46.9039 284.332 47.1934 282.995 47.6599C282.512 47.8207 281.771 48.2872 281.868 48.9145C281.868 48.9466 281.9 49.011 281.932 49.0753C284.3 52.3726 287.909 54.2062 291.34 55.4607C291.453 52.2921 291.678 49.2522 291.678 46.148L291.711 46.1801Z" fill="white"/>
</g>
<defs>
<clipPath id="clip0_12194_1020">
<rect width="358.254" height="110" fill="white" transform="translate(154.132 24)"/>
</clipPath>
</defs>
</svg>
