<svg width="24" height="24" viewBox="0 0 24 24" fill="none" xmlns="http://www.w3.org/2000/svg">
<g clip-path="url(#clip0_12076_4774)">
<path d="M20.1225 22.4067L7.12251 23.6497C3.11231 24.0322 -0.275445 20.5687 0.0204738 16.3722L0.877617 4.16498C0.989862 2.55011 2.21435 1.26458 3.75517 1.12647L15.898 0.0215527C19.898 -0.339669 23.2552 3.10256 22.9797 7.26724L22.1225 20.2818C22.0511 21.408 21.2041 22.3004 20.1327 22.4067H20.1225Z" fill="#FEC12B"/>
<path d="M18.7652 2.11148C18.6874 2.04054 18.59 2 18.4927 2H8.40881C8.18494 2 8 2.19255 8 2.42564V22.2583C8 22.4914 8.18494 22.6839 8.40881 22.6839H21.9968C22.2206 22.6839 22.4056 22.4914 22.4056 22.2583V5.65845C22.4056 5.53684 22.3569 5.42536 22.2693 5.34429L18.7652 2.11148ZM18.483 2.42564L21.8897 5.69899L18.483 5.72939V2.42564ZM21.9968 22.2482H8.40881V2.42564H18.0644V5.72939C18.0644 5.84087 18.1034 5.95234 18.1812 6.03342C18.2591 6.11449 18.3564 6.15503 18.4635 6.15503L21.8702 6.12463C21.9092 6.12463 21.9481 6.12462 21.9773 6.10436V22.2482H21.9968Z" fill="#4A649F" stroke="#4A649F" stroke-width="0.5" stroke-miterlimit="10"/>
<path d="M20.1766 7.6853H15.3196V8.11094H20.1766V7.6853Z" fill="#4A649F" stroke="#4A649F" stroke-width="0.5" stroke-miterlimit="10"/>
<path d="M20.1474 9.34729H9.85913V9.77293H20.1474V9.34729Z" fill="#4A649F" stroke="#4A649F" stroke-width="0.5" stroke-miterlimit="10"/>
<path d="M20.1086 11.0094H9.82031V11.435H20.1086V11.0094Z" fill="#4A649F" stroke="#4A649F" stroke-width="0.5" stroke-miterlimit="10"/>
<path d="M20.0696 12.6714H9.78125V13.097H20.0696V12.6714Z" fill="#4A649F" stroke="#4A649F" stroke-width="0.5" stroke-miterlimit="10"/>
<path d="M20.0305 14.3333H9.74219V14.7589H20.0305V14.3333Z" fill="#4A649F" stroke="#4A649F" stroke-width="0.5" stroke-miterlimit="10"/>
<path d="M19.9917 16.0055H9.70337V16.4311H19.9917V16.0055Z" fill="#4A649F" stroke="#4A649F" stroke-width="0.5" stroke-miterlimit="10"/>
<path d="M19.9526 17.6675H9.66431V18.0931H19.9526V17.6675Z" fill="#4A649F" stroke="#4A649F" stroke-width="0.5" stroke-miterlimit="10"/>
<path d="M12.6623 19.3296H9.62549V19.7552H12.6623V19.3296Z" fill="#4A649F" stroke="#4A649F" stroke-width="0.5" stroke-miterlimit="10"/>
</g>
<defs>
<clipPath id="clip0_12076_4774">
<rect width="24" height="24" fill="white"/>
</clipPath>
</defs>
</svg>
