<svg width="196" height="56" viewBox="0 0 196 56" fill="none" xmlns="http://www.w3.org/2000/svg">
<g clip-path="url(#clip0_12422_2596)">
<path d="M56.2645 13.4514C54.2918 13.4514 51.5599 14.2831 49.5693 16.9874C49.1927 17.5139 48.9058 18.1062 48.7324 18.7285C48.1287 20.8644 48.5531 23.1559 49.8802 24.9329C50.9024 26.297 52.2055 27.3261 53.3533 28.2235C53.9212 28.6603 55.1108 29.7791 55.4934 30.2518C56.0672 30.9638 56.5036 31.3826 57.0237 32.9502C57.3345 33.9015 57.3824 35.1459 57.2329 35.8579C60.8316 32.2501 64.765 27.5594 64.765 22.4619C64.765 16.6045 60.5267 13.4514 56.2645 13.4514Z" fill="#FEC12B"/>
<path d="M48.7505 33.0818C47.2561 31.0236 45.5225 29.7791 44.0998 28.4629C43.4781 27.8945 42.7966 27.4637 42.2944 26.9611C39.8734 24.532 38.7436 21.5345 39.3115 17.8549C39.7598 14.9651 41.1885 13.0685 42.8982 11.6685C40.8478 10.1488 38.4208 9.3291 35.671 9.3291C28.8503 9.3291 23.1474 14.8634 23.3267 21.6841C23.6376 34.0032 38.905 44.4974 45.1997 46.6453C48.5712 44.8983 50.3586 41.6435 50.3586 38.311C50.3526 35.8759 49.3184 33.8656 48.7505 33.0818Z" fill="#FEC12B"/>
<path d="M75.4175 32.4478C76.6011 33.2794 78.9385 34.3384 80.5943 34.3384C81.8676 34.3384 82.9616 33.8658 82.9616 32.5016C82.9616 31.1375 81.2459 30.6948 79.5004 30.0127C77.4918 29.2409 75.4773 28.0323 75.4773 24.8314C75.4773 20.5715 78.6396 18.3218 83.2246 18.3218C86.2374 18.3218 88.9274 19.8296 90.3203 21.427L87.3074 24.5622C85.9445 23.4074 84.4381 22.5518 82.9855 22.5518C81.8019 22.5518 80.9171 23.0245 80.9171 24.0895C80.9171 25.5374 82.1904 25.8964 84.3424 26.7819C86.4108 27.6374 88.5449 28.8819 88.5449 31.9333C88.5449 36.0735 85.1734 38.742 80.3851 38.742C77.0136 38.742 74.1741 37.3479 73.0503 36.4624L75.4175 32.4478ZM99.2332 31.0238C99.4126 30.0725 99.4664 29.217 99.4664 28.5648C99.4664 27.1468 99.024 26.2853 97.9899 26.2853C96.603 26.2853 95.6824 27.6434 95.24 30.1024C95.0607 31.0538 94.971 32.0589 94.971 32.8247C94.971 34.1231 95.3297 35.194 96.4237 35.194C97.8703 35.2 98.7311 33.9256 99.2332 31.0238ZM98.8208 22.7373C100.919 22.7373 104.613 23.5391 104.613 28.4451C104.619 29.187 104.571 29.9289 104.464 30.6649C103.549 36.4684 99.8848 38.8018 95.6824 38.8018C92.018 38.8018 89.9437 36.6718 89.9437 32.8846C89.9437 32.1726 89.9736 31.317 90.123 30.4854C91.217 24.2809 95.4134 22.7373 98.8208 22.7373ZM110.388 38.3351H105.45L107.608 26.0519L107.728 23.1801H111.691L111.781 25.2801C112.875 23.4134 114.411 22.7313 115.654 22.7313C116.515 22.7313 117.43 22.9407 118.022 23.3237L116.599 27.44C115.983 27.1049 115.29 26.9255 114.59 26.9135C113.317 26.9135 112.313 27.6793 112.05 29.0734L110.388 38.3351ZM116.958 38.3351L119.618 23.1801H124.555L121.895 38.3351H116.958ZM123.252 16.7244C124.645 16.7244 125.5 17.6697 125.5 18.8244C125.5 20.392 124.137 21.6305 122.397 21.6305C120.981 21.6305 120.18 20.7749 120.18 19.5902C120.18 18.0586 121.483 16.7244 123.252 16.7244ZM135.178 26.4408C134.754 26.2733 134.299 26.1895 133.845 26.2015C131.155 26.2015 130.181 30.258 130.181 32.6871C130.181 34.1051 130.503 35.2598 131.926 35.2598C132.93 35.2598 133.642 34.6077 133.935 33.5726L135.178 26.4408ZM138.49 35.1402L138.281 38.3351H134.108V36.947L133.959 36.9171C132.924 38.1317 131.591 38.7838 129.816 38.7838C126.654 38.7838 125.231 36.4445 125.231 33.2495C125.231 27.1827 128.602 22.7433 134.783 22.7433C136.027 22.7433 138.245 23.0425 140.462 23.9279L138.49 35.1402ZM141.036 38.3351L143.164 26.2314L143.344 23.1861H147.427L147.486 24.8134C148.64 23.539 150.176 22.7433 152.161 22.7433C154.618 22.7433 156.094 23.8681 156.124 26.4109C156.124 26.8836 156.065 27.4759 155.975 28.0383L154.14 38.3351H149.202L150.738 29.4862C150.828 29.0135 150.971 28.3315 150.971 27.7691C150.971 27.1767 150.738 26.5246 149.848 26.5246C148.58 26.5246 147.839 27.4759 147.63 28.7144L145.944 38.3351H141.036ZM167.303 26.4408C166.879 26.2733 166.43 26.1895 165.976 26.2015C163.286 26.2015 162.311 30.258 162.311 32.6871C162.311 34.1051 162.634 35.2598 164.057 35.2598C165.061 35.2598 165.773 34.6077 166.066 33.5726L167.303 26.4408ZM170.615 35.1402L170.405 38.3351H166.233V36.947L166.083 36.9171C165.049 38.1317 163.716 38.7838 161.941 38.7838C158.779 38.7838 157.362 36.4445 157.362 33.2495C157.362 27.1827 160.733 22.7433 166.914 22.7433C168.152 22.7433 170.37 23.0425 172.587 23.9279L170.615 35.1402Z" fill="#FEC12B"/>
</g>
<defs>
<clipPath id="clip0_12422_2596">
<rect width="149.265" height="37.3162" fill="white" transform="translate(23.3226 9.3291)"/>
</clipPath>
</defs>
</svg>
