<svg width="188" height="56" viewBox="0 0 188 56" fill="none" xmlns="http://www.w3.org/2000/svg">
<g clip-path="url(#clip0_12422_2716)">
<path fill-rule="evenodd" clip-rule="evenodd" d="M9.11334 9.37109H11.6911V35.7133C11.6911 35.7133 11.6911 37.614 13.389 37.614H27.2339V40.4717H12.1773C12.1773 40.4717 9.10773 40.4654 9.10773 37.0675L9.11334 9.37109Z" fill="#FEC12B"/>
<path fill-rule="evenodd" clip-rule="evenodd" d="M12.6711 9.37109H15.2419V31.966C15.2419 31.966 15.0615 33.7221 16.7335 33.7179C25.0041 33.7046 27.2219 33.7179 27.2219 33.7179V36.5391H14.1796C14.1796 36.5391 12.6571 36.4234 12.6718 34.8651C12.6803 33.7565 12.6711 9.3718 12.6711 9.3718V9.37109Z" fill="#FEC12B"/>
<path fill-rule="evenodd" clip-rule="evenodd" d="M16.21 9.37109H18.7934L18.7969 28.4832C18.7969 28.4832 18.6474 29.7833 19.876 29.7833H27.2352L27.2226 32.6241H17.3102C17.3102 32.6241 16.21 32.4045 16.21 31.0848V9.37109Z" fill="#FEC12B"/>
<path fill-rule="evenodd" clip-rule="evenodd" d="M19.7589 9.37109H22.343V24.7962C22.343 24.7962 22.1802 25.8907 23.3105 25.8907H27.2346V28.7119H21.2618C20.1946 28.7119 19.7603 28.3905 19.7603 27.3065V9.37109H19.7596H19.7589Z" fill="#FEC12B"/>
<path fill-rule="evenodd" clip-rule="evenodd" d="M41.4045 40.4374L38.8253 40.4353L38.838 14.0931C38.838 14.0931 38.8387 12.1931 37.1415 12.1924L23.2951 12.1861V9.3291L38.3532 9.33612C38.3532 9.33612 41.4227 9.34454 41.4213 12.7411L41.4031 40.4374H41.4045Z" fill="#FEC12B"/>
<path fill-rule="evenodd" clip-rule="evenodd" d="M37.845 40.4361H35.2743L35.2856 17.8405C35.2856 17.8405 35.4666 16.0837 33.7953 16.0879C25.5247 16.0977 23.3069 16.0837 23.3069 16.0837V13.2625L36.3506 13.2688C36.3506 13.2688 37.8731 13.3845 37.8577 14.9428C37.8485 16.0521 37.8457 40.4361 37.8457 40.4361H37.845Z" fill="#FEC12B"/>
<path fill-rule="evenodd" clip-rule="evenodd" d="M34.3074 40.4339H31.7234L31.729 21.3197C31.729 21.3197 31.8784 20.0204 30.6506 20.0197L23.2914 20.0161L23.3047 17.1753L33.2164 17.1795C33.2164 17.1795 34.3173 17.3998 34.3166 18.7189L34.3074 40.4339Z" fill="#FEC12B"/>
<path fill-rule="evenodd" clip-rule="evenodd" d="M30.7567 40.4327H28.1727L28.1797 25.0069C28.1797 25.0069 28.3432 23.9124 27.2136 23.911C25.9057 23.911 24.5979 23.9103 23.2894 23.9089V21.0891L29.2644 21.0919C30.3315 21.0919 30.7658 21.414 30.7651 22.4973L30.7567 40.4327Z" fill="#FEC12B"/>
<path fill-rule="evenodd" clip-rule="evenodd" d="M67.5725 15.7863H70.2105V18.7513H67.5725V15.7863ZM67.5725 22.2538H70.2105V40.4671H67.5725V22.2538ZM161.03 15.7526H163.668V40.4671H161.03V15.7526ZM84.9353 22.2538L79.6164 36.9134L74.2995 22.2538H71.2882L77.8953 40.4671H81.3374L87.9445 22.2538H84.9346H84.9353ZM60.1283 37.5736C59.2394 37.5736 58.5658 36.7857 58.5658 35.8119L58.5679 15.787H55.9299L55.9271 36.2869C55.9271 38.5861 57.5913 40.451 59.6954 40.451H66.6148V37.5736H60.1283ZM110.17 25.1859C109.279 25.1859 108.605 25.9738 108.605 26.9469L108.608 40.5394H105.97V26.4727C105.97 24.172 107.631 22.3078 109.736 22.3078H112.507V25.1852H110.169V25.1859H110.17ZM104.575 31.5657V31.0051C104.575 25.7535 100.666 21.4806 95.8644 21.4806C91.0625 21.4806 87.1524 25.7528 87.1524 31.0051C87.1524 36.2574 91.0611 40.5296 95.8644 40.5296C99.9148 40.5296 103.375 37.5491 104.327 33.2622H101.772C100.892 36.0104 98.5291 37.8543 95.8644 37.8543C92.6257 37.8543 89.9329 35.1881 89.6165 31.5664H104.575V31.5657ZM89.9056 28.8855C90.784 26.0019 93.206 24.1552 95.8651 24.1552C98.5242 24.1552 100.937 26.0019 101.818 28.8855H89.9063H89.9056ZM150.922 21.3782C147.756 21.3782 144.981 23.2073 143.43 25.9521C141.878 23.2066 139.103 21.3782 135.935 21.3782C132.766 21.3782 129.994 23.2073 128.442 25.9521C126.891 23.2073 124.115 21.3782 120.948 21.3782C116.085 21.3782 112.145 25.6875 112.145 31.0037V46.6456H114.805V37.8964C116.39 39.5859 118.557 40.6299 120.948 40.6299C124.114 40.6299 126.891 38.8008 128.442 36.056C129.994 38.8015 132.769 40.6299 135.935 40.6299C139.101 40.6299 141.878 38.8008 143.43 36.0575C144.981 38.8022 147.756 40.6299 150.922 40.6299C155.785 40.6299 159.727 36.3206 159.727 31.0044C159.727 25.6882 155.784 21.3789 150.922 21.3789V21.3782ZM120.946 37.7505C117.544 37.7505 114.775 34.7237 114.775 31.0037C114.775 27.2837 117.544 24.2569 120.946 24.2569C124.347 24.2569 127.118 27.2837 127.118 31.0037C127.118 34.7237 124.349 37.7505 120.946 37.7505ZM135.934 37.7505C132.533 37.7505 129.764 34.7237 129.764 31.0037C129.764 27.2837 132.533 24.2569 135.934 24.2569C139.336 24.2569 142.105 27.2837 142.105 31.0037C142.105 34.7237 139.338 37.7505 135.934 37.7505ZM150.922 37.7505C147.521 37.7505 144.751 34.7237 144.751 31.0037C144.751 27.2837 147.521 24.2569 150.922 24.2569C154.324 24.2569 157.093 27.2837 157.093 31.0037C157.093 34.7237 154.326 37.7505 150.922 37.7505ZM166.925 20.0851C165.76 20.0851 164.821 19.0544 164.821 17.7782C164.821 16.502 165.759 15.479 166.925 15.479C168.091 15.479 169.034 16.5034 169.034 17.7782C169.034 19.053 168.091 20.0851 166.925 20.0851ZM166.925 15.8593C165.954 15.8593 165.171 16.7167 165.171 17.7782C165.171 18.8398 165.952 19.7027 166.925 19.7027C167.898 19.7027 168.687 18.8398 168.687 17.7782C168.687 16.7167 167.897 15.8593 166.925 15.8593ZM166.004 16.5784H167.005C167.565 16.5784 167.753 16.9608 167.753 17.2288C167.753 17.6295 167.492 17.9171 167.108 17.9417V17.9543C167.301 18.0287 167.445 18.242 167.634 18.5731L167.91 19.0544H167.463L167.262 18.6665C166.976 18.1108 166.867 18.0034 166.587 18.0034H166.37V19.0537H166.005V16.5784H166.004ZM166.896 17.6596C167.177 17.6596 167.365 17.5411 167.365 17.285C167.365 17.0604 167.2 16.9166 166.96 16.9166H166.371V17.6603H166.896V17.6596Z" fill="#FEC12B"/>
</g>
<defs>
<clipPath id="clip0_12422_2716">
<rect width="159.927" height="37.3162" fill="white" transform="translate(9.1076 9.3291)"/>
</clipPath>
</defs>
</svg>
