<svg width="1920" height="135" viewBox="0 0 1920 135" fill="none" xmlns="http://www.w3.org/2000/svg" preserveAspectRatio="none">
<path fill-rule="evenodd" clip-rule="evenodd" d="M0 77.3981L80 71.0719C160 64.7457 320 51.7603 480 55.0899C640 58.4194 800 77.3981 960 64.7457C1120 51.7603 1280 7.14377 1440 0.817549C1600 -5.50867 1760 26.4554 1840 42.4374L1920 58.4194V135H1840C1760 135 1600 135 1440 135C1280 135 1120 135 960 135C800 135 640 135 480 135C320 135 160 135 80 135H0V77.3981Z" fill="#4A649F"/>
</svg>
