<?xml version="1.0" encoding="utf-8"?>
<!-- Generator: Adobe Illustrator 24.0.0, SVG Export Plug-In . SVG Version: 6.00 Build 0)  -->
<svg version="1.1" id="Capa_1" xmlns="http://www.w3.org/2000/svg" xmlns:xlink="http://www.w3.org/1999/xlink" x="0px" y="0px"
	 viewBox="0 0 491.4 491.4" style="enable-background:new 0 0 491.4 491.4;" xml:space="preserve">
<style type="text/css">
	.st0{fill:#FFFFFF;}
</style>
<g>
	<g id="Icons_19_">
		<path class="st0" d="M481.8,220.4L276.5,15.1c-17-16.9-44.6-16.9-61.6,0L9.6,220.4c-12.8,12.8-12.8,33.6,0,46.5
			c12.8,12.8,33.6,12.8,46.5,0l27.8-27.8v214.9c0,19.3,15.7,35,35,35h74.8v-97.6c0-7.6,6.1-13.7,13.7-13.7h76.4
			c7.6,0,13.7,6.2,13.7,13.7V489h74.8c19.3,0,35-15.7,35-35V239.1l27.8,27.8c6.4,6.4,14.8,9.6,23.2,9.6c8.4,0,16.8-3.2,23.2-9.6
			C494.6,254.1,494.6,233.3,481.8,220.4z"/>
	</g>
</g>
</svg>
