<?xml version="1.0" encoding="utf-8"?>
<!-- Generator: Adobe Illustrator 24.0.0, SVG Export Plug-In . SVG Version: 6.00 Build 0)  -->
<svg version="1.1" id="Capa_1" xmlns="http://www.w3.org/2000/svg" xmlns:xlink="http://www.w3.org/1999/xlink" x="0px" y="0px"
	 viewBox="0 0 512 512" style="enable-background:new 0 0 512 512;" xml:space="preserve">
<style type="text/css">
	.st0{fill:#FFFFFF;}
</style>
<g>
	<path class="st0" d="M102.2,472c-5.4,0-10.9-1.2-16-3.6C72.5,462.2,64,448.9,64,433.8V392H46c-25.4,0-46-20.6-46-46V86
		c0-25.4,20.6-46,46-46h420c25.4,0,46,20.6,46,46v260c0,25.4-20.6,46-46,46H198.6l-70.8,70c-0.3,0.3-0.5,0.5-0.8,0.8
		C119.8,468.9,111.1,472,102.2,472L102.2,472z M46,72c-7.7,0-14,6.3-14,14v260c0,7.7,6.3,14,14,14h34c8.8,0,16,7.2,16,16v57.9
		c0,3.4,2.2,4.9,3.6,5.5c1.3,0.6,3.7,1.2,6.2-0.7l75-74.1c3-3,7-4.6,11.2-4.6h274c7.7,0,14-6.3,14-14V86c0-7.7-6.3-14-14-14L46,72
		L46,72z"/>
</g>
<g>
	<path class="st0" d="M229.9,140.6h-76.6c-18,0-32.8,14.4-33.3,32.4l0,48.5c0,15.9,11.2,29.2,26.1,32.5l-11.6,69.8
		c-1.5,8.7,5.3,16.6,14.1,16.6h57.1c6.9,0,12.8-5,14.1-11.8l12.9-72.5l109.5,54.3c9.5,4.7,20.6-2.2,20.6-12.8V97.8
		c0-10.6-11.1-17.5-20.6-12.8L229.9,140.6z M153.3,226.3c-2.6,0-4.8-2.1-4.8-4.8v-47.6c0-2.6,2.1-4.8,4.8-4.8H219v57.1H153.3z
		 M165.4,311.9l9.5-57.1h28.9l-10.2,57.1H165.4z M334.1,274.6l-86.6-42.9v-67.9l86.6-42.9V274.6z"/>
	<path class="st0" d="M411.2,153.7l15.2-6.7c7.2-3.2,10.5-11.6,7.4-18.8c-3.2-7.2-11.6-10.5-18.8-7.4l-15.2,6.7
		c-7.2,3.2-10.5,11.6-7.4,18.8C395.6,153.6,404,156.9,411.2,153.7L411.2,153.7z"/>
	<path class="st0" d="M426.4,248.4l-15.2-6.7c-7.2-3.2-15.6,0.1-18.8,7.4c-3.2,7.2,0.1,15.6,7.4,18.8l15.2,6.7
		c7.2,3.2,15.6-0.1,18.8-7.4C437,260,433.7,251.6,426.4,248.4z"/>
	<path class="st0" d="M420.7,183.4h-15.2c-7.9,0-14.3,6.4-14.3,14.3s6.4,14.3,14.3,14.3h15.2c7.9,0,14.3-6.4,14.3-14.3
		S428.6,183.4,420.7,183.4z"/>
</g>
</svg>
