<?xml version="1.0" encoding="utf-8"?>
<!-- Generator: Adobe Illustrator 24.0.0, SVG Export Plug-In . SVG Version: 6.00 Build 0)  -->
<svg version="1.1" id="Layer_1" xmlns="http://www.w3.org/2000/svg" xmlns:xlink="http://www.w3.org/1999/xlink" x="0px" y="0px"
	 viewBox="0 0 512 512" style="enable-background:new 0 0 512 512;" xml:space="preserve">
<style type="text/css">
	.st0{fill:#FFFFFF;}
</style>
<g>
	<path class="st0" d="M102.2,472c-5.4,0-10.9-1.2-16-3.6C72.5,462.2,64,448.9,64,433.8V392H46c-25.4,0-46-20.6-46-46V86
		c0-25.4,20.6-46,46-46h420c25.4,0,46,20.6,46,46v260c0,25.4-20.6,46-46,46H198.6l-70.8,70c-0.3,0.3-0.5,0.5-0.8,0.8
		C119.8,468.9,111.1,472,102.2,472L102.2,472z M46,72c-7.7,0-14,6.3-14,14v260c0,7.7,6.3,14,14,14h34c8.8,0,16,7.2,16,16v57.9
		c0,3.4,2.2,4.9,3.6,5.5c1.3,0.6,3.7,1.2,6.2-0.7l75-74.1c3-3,7-4.6,11.2-4.6h274c7.7,0,14-6.3,14-14V86c0-7.7-6.3-14-14-14L46,72
		L46,72z"/>
	<path class="st0" d="M320.3,328c-2.6,0-5.1-0.6-7.5-1.9L256,295.9l-56.8,30.2c-5.4,2.9-11.9,2.4-16.9-1.2s-7.4-9.6-6.4-15.6
		l10.9-64.1l-46.1-45.4c-4.3-4.3-5.9-10.6-4-16.4s6.9-10,12.9-10.9l63.5-9.3l28.4-58.3c2.7-5.5,8.3-9,14.4-9s11.7,3.5,14.4,9
		l28.4,58.3l63.5,9.3c6,0.9,11,5.1,12.9,10.9c1.9,5.8,0.3,12.1-4,16.4l-46.1,45.4l10.9,64.1c1,6-1.5,12.1-6.4,15.6
		C326.9,327,323.6,328,320.3,328z M256,261.8c2.6,0,5.2,0.6,7.5,1.9l35.5,18.9l-6.8-40.3c-0.9-5.2,0.8-10.4,4.5-14.1l29.1-28.7
		l-40.1-5.9c-5.2-0.8-9.7-4.1-12.1-8.8L256,148.5l-17.8,36.4c-2.3,4.7-6.8,8-12.1,8.8l-40.1,5.9l29.1,28.7c3.7,3.7,5.4,8.9,4.5,14.1
		l-6.8,40.3l35.6-18.9C250.8,262.4,253.4,261.8,256,261.8L256,261.8z"/>
</g>
</svg>
