<svg width="24" height="24" viewBox="0 0 24 24" fill="none" xmlns="http://www.w3.org/2000/svg">
<path d="M4.19997 17.8199C4.19997 17.8199 4.10297 18.5435 4.19997 18.8875C4.26747 19.1262 4.33197 19.5282 4.58997 19.5282H6.03847C6.29647 19.5282 6.36097 19.1262 6.42847 18.8875C6.52547 18.544 6.42847 17.8199 6.42847 17.8199" stroke="#B7BABA" stroke-linecap="round" stroke-linejoin="round"/>
<path d="M19.5215 10.8788H4.4785C3.24773 10.8788 2.25 11.8349 2.25 13.0144V15.6843C2.25 16.8638 3.24773 17.82 4.4785 17.82H19.5215C20.7523 17.82 21.75 16.8638 21.75 15.6843V13.0144C21.75 11.8349 20.7523 10.8788 19.5215 10.8788Z" stroke="#B7BABA" stroke-linecap="round" stroke-linejoin="round"/>
<path d="M17.5715 17.8199C17.5715 17.8199 17.4745 18.5435 17.5715 18.8875C17.639 19.1262 17.7035 19.5282 17.9615 19.5282H19.41C19.668 19.5282 19.7325 19.1262 19.8 18.8875C19.897 18.544 19.8 17.8199 19.8 17.8199" stroke="#B7BABA" stroke-linecap="round" stroke-linejoin="round"/>
<path d="M5.31451 15.6843C5.93003 15.6843 6.42901 15.2062 6.42901 14.6163C6.42901 14.0264 5.93003 13.5482 5.31451 13.5482C4.69899 13.5482 4.20001 14.0264 4.20001 14.6163C4.20001 15.2062 4.69899 15.6843 5.31451 15.6843Z" stroke="#B7BABA" stroke-linecap="round" stroke-linejoin="round"/>
<path d="M4.47852 10.8787L5.76002 6.07317C5.97902 5.25235 6.93652 4.47131 7.82152 4.47131H16.1785C17.0635 4.47131 18.021 5.25235 18.24 6.07317L19.5215 10.8787" stroke="#B7BABA" stroke-linecap="round" stroke-linejoin="round"/>
<path d="M18.6855 15.6843C19.301 15.6843 19.8 15.2062 19.8 14.6163C19.8 14.0264 19.301 13.5482 18.6855 13.5482C18.07 13.5482 17.571 14.0264 17.571 14.6163C17.571 15.2062 18.07 15.6843 18.6855 15.6843Z" stroke="#B7BABA" stroke-linecap="round" stroke-linejoin="round"/>
</svg>
