<svg width="24" height="23" viewBox="0 0 24 23" fill="none" xmlns="http://www.w3.org/2000/svg">
<g clip-path="url(#clip0_6428_174)">
<g clip-path="url(#clip1_6428_174)">
<mask id="path-1-inside-1_6428_174" fill="white">
<path d="M21.1937 21.0278H4.08746V11.6228L10.2948 4.93037C11.5424 3.58522 13.7284 3.58522 14.9864 4.93037L21.1937 11.6228V21.0166V21.0278ZM4.8608 20.194H20.4204V11.9785L14.4399 5.51957C13.45 4.45234 11.8312 4.45234 10.8413 5.51957L4.8608 11.9674V20.1829V20.194Z"/>
</mask>
<path d="M21.1937 21.0278H4.08746V11.6228L10.2948 4.93037C11.5424 3.58522 13.7284 3.58522 14.9864 4.93037L21.1937 11.6228V21.0166V21.0278ZM4.8608 20.194H20.4204V11.9785L14.4399 5.51957C13.45 4.45234 11.8312 4.45234 10.8413 5.51957L4.8608 11.9674V20.1829V20.194Z" fill="white"/>
<path d="M21.1937 21.0278V22.034H22.2V21.0278H21.1937ZM4.08746 21.0278H3.08121V22.034H4.08746V21.0278ZM4.08746 11.6228L3.3497 10.9385L3.08121 11.228V11.6228H4.08746ZM10.2948 4.93037L11.0326 5.61466L10.2948 4.93037ZM14.9864 4.93037L15.7242 4.24608L15.7213 4.24307L14.9864 4.93037ZM21.1937 11.6228H22.2V11.228L21.9315 10.9385L21.1937 11.6228ZM4.8608 20.194H3.85455V21.2002H4.8608V20.194ZM20.4204 20.194V21.2002H21.4266V20.194H20.4204ZM20.4204 11.9785H21.4266V11.5842L21.1587 11.2949L20.4204 11.9785ZM14.4399 5.51957L15.1782 4.83592L15.1777 4.83529L14.4399 5.51957ZM10.8413 5.51957L11.579 6.20386L10.8413 5.51957ZM4.8608 11.9674L4.12304 11.2831L3.85455 11.5726V11.9674H4.8608ZM21.1937 20.0215H4.08746V22.034H21.1937V20.0215ZM5.09371 21.0278V11.6228H3.08121V21.0278H5.09371ZM4.82522 12.3071L11.0326 5.61466L9.55703 4.24609L3.3497 10.9385L4.82522 12.3071ZM11.0326 5.61466C11.8804 4.70055 13.3895 4.69603 14.2514 5.61768L15.7213 4.24307C14.0673 2.47441 11.2045 2.46989 9.55703 4.24609L11.0326 5.61466ZM14.2486 5.61466L20.456 12.3071L21.9315 10.9385L15.7241 4.24609L14.2486 5.61466ZM20.1875 11.6228V21.0166H22.2V11.6228H20.1875ZM20.1875 21.0166V21.0278H22.2V21.0166H20.1875ZM4.8608 21.2002H20.4204V19.1877H4.8608V21.2002ZM21.4266 20.194V11.9785H19.4141V20.194H21.4266ZM21.1587 11.2949L15.1782 4.83592L13.7015 6.20323L19.682 12.6622L21.1587 11.2949ZM15.1777 4.83529C13.7896 3.33877 11.4916 3.33877 10.1035 4.83529L11.579 6.20386C12.1708 5.56592 13.1104 5.56592 13.7021 6.20386L15.1777 4.83529ZM10.1035 4.83529L4.12304 11.2831L5.59856 12.6517L11.579 6.20386L10.1035 4.83529ZM3.85455 11.9674V20.1829H5.86705V11.9674H3.85455ZM3.85455 20.1829V20.194H5.86705V20.1829H3.85455Z" fill="#B7BABA" mask="url(#path-1-inside-1_6428_174)"/>
</g>
</g>
<defs>
<clipPath id="clip0_6428_174">
<rect width="22" height="20" fill="white" transform="translate(1.06873 1.90906)"/>
</clipPath>
<clipPath id="clip1_6428_174">
<rect width="20.125" height="18.1125" fill="white" transform="translate(3.08124 3.92151)"/>
</clipPath>
</defs>
</svg>
