<svg width="24" height="23" viewBox="0 0 24 23" fill="none" xmlns="http://www.w3.org/2000/svg">
<g id="icon / rocket">
<path id="Vector" d="M21.5829 2.42442C21.158 1.99952 20.5208 1.87812 19.9746 2.13104L15.4733 4.20494C13.7437 5.00415 12.105 5.99557 10.5979 7.14886C9.84933 7.30061 5.79317 8.30215 2.39449 12.3184L2 12.7737L5.50995 13.6943L7.64424 15.8289L6.66307 16.8102L7.19917 17.3464L8.18034 16.3651L10.3146 18.4997L11.225 22L11.6802 21.6055C15.6756 18.2164 16.6872 14.1799 16.849 13.411C18.0021 11.8935 19.0035 10.2648 19.7925 8.52471L21.8661 4.02284C22.119 3.47654 22.0077 2.8392 21.5829 2.4143V2.42442ZM9.06035 8.43367C8.25114 9.20253 7.52285 10.113 6.8856 11.1449L5.74259 12.976L3.37566 12.3589C5.36833 10.1838 7.56332 9.02043 9.06035 8.43367ZM11.6498 20.6343L11.0328 18.2771L12.8636 17.1339C13.8954 16.4966 14.7956 15.7581 15.5644 14.9589C14.9676 16.4561 13.8145 18.6413 11.6397 20.6343H11.6498ZM21.1884 3.71934L19.1148 8.22122C18.1842 10.2445 16.9906 12.1363 15.5644 13.846C14.7349 14.8375 13.6931 15.7277 12.4691 16.4966L10.5574 17.6802L6.33939 13.4616L7.52286 11.5496C8.28149 10.3255 9.17162 9.28346 10.173 8.4539C11.8825 7.02746 13.774 5.8337 15.797 4.90298L20.2983 2.82908C20.6118 2.67733 20.895 2.80885 21.0569 2.9606C21.2187 3.12246 21.3401 3.40573 21.1884 3.71934Z" fill="#B7BABA"/>
</g>
</svg>
