<?xml version="1.0" encoding="utf-8"?>
<!-- Generator: Adobe Illustrator 26.1.0, SVG Export Plug-In . SVG Version: 6.00 Build 0)  -->
<svg version="1.1" id="Layer_1" xmlns="http://www.w3.org/2000/svg" xmlns:xlink="http://www.w3.org/1999/xlink" x="0px" y="0px"
	 viewBox="0 0 83 83" style="enable-background:new 0 0 83 83;" xml:space="preserve">
<style type="text/css">
	.st0{fill:none;stroke:#FFFFFF;stroke-width:7;stroke-linecap:round;stroke-linejoin:round;}
</style>
<g id="Group">
	<path id="Vector" class="st0" d="M9.5,41.5c0,4.2,0.8,8.3,2.4,12.2s4,7.4,6.9,10.4c3,3,6.5,5.3,10.4,6.9c3.9,1.6,8.1,2.4,12.2,2.4
		s8.3-0.8,12.2-2.4s7.4-4,10.4-6.9c3-3,5.3-6.5,6.9-10.4c1.6-3.9,2.4-8.1,2.4-12.2c0-8.4-3.3-16.6-9.4-22.6S49.9,9.5,41.5,9.5
		s-16.6,3.3-22.6,9.4S9.5,33.1,9.5,41.5z"/>
	<path id="Vector_2" class="st0" d="M41.5,23.7v17.8l10.7,10.7"/>
</g>
</svg>
