<svg width="106" height="106" viewBox="0 0 106 106" fill="none" xmlns="http://www.w3.org/2000/svg">
<g id="icons8:buy">
<path id="Vector" d="M13.25 23.1875C12.3715 23.1875 11.5289 23.5365 10.9077 24.1577C10.2865 24.7789 9.9375 25.6215 9.9375 26.5C9.9375 27.3785 10.2865 28.2211 10.9077 28.8423C11.5289 29.4635 12.3715 29.8125 13.25 29.8125H20.6037L29.2957 64.5938C30.0344 67.5419 32.6745 69.5625 35.7121 69.5625H77.0189C80.0101 69.5625 82.5508 67.575 83.3359 64.6931L91.9219 33.125H84.9855L77.0156 62.9375H35.7087L27.0201 28.1563C26.6611 26.7293 25.8338 25.4641 24.6704 24.5632C23.5071 23.6624 22.0751 23.1779 20.6037 23.1875H13.25ZM72.875 69.5625C67.4259 69.5625 62.9375 74.051 62.9375 79.5C62.9375 84.9491 67.4259 89.4375 72.875 89.4375C78.3241 89.4375 82.8125 84.9491 82.8125 79.5C82.8125 74.051 78.3241 69.5625 72.875 69.5625ZM43.0625 69.5625C37.6134 69.5625 33.125 74.051 33.125 79.5C33.125 84.9491 37.6134 89.4375 43.0625 89.4375C48.5116 89.4375 53 84.9491 53 79.5C53 74.051 48.5116 69.5625 43.0625 69.5625ZM53 23.1875V39.75H43.0625L56.3125 53L69.5625 39.75H59.625V23.1875H53ZM43.0625 76.1875C44.9308 76.1875 46.375 77.6318 46.375 79.5C46.375 81.3683 44.9308 82.8125 43.0625 82.8125C41.1942 82.8125 39.75 81.3683 39.75 79.5C39.75 77.6318 41.1942 76.1875 43.0625 76.1875ZM72.875 76.1875C74.7433 76.1875 76.1875 77.6318 76.1875 79.5C76.1875 81.3683 74.7433 82.8125 72.875 82.8125C71.0067 82.8125 69.5625 81.3683 69.5625 79.5C69.5625 77.6318 71.0067 76.1875 72.875 76.1875Z" fill="white"/>
</g>
</svg>
