<svg width="24" height="23" viewBox="0 0 24 23" fill="none" xmlns="http://www.w3.org/2000/svg">
<path d="M18.719 21H3.81413C2.25764 21 1 19.7678 1 18.2697V11.5045C1 9.9944 2.27009 8.77425 3.81413 8.77425H7.03917L12.3686 3.59159C13.0783 2.90298 14.1243 2.80634 14.9337 3.34997C15.3321 3.61575 15.631 4.0869 15.7181 4.61845C15.8178 5.21041 15.6683 5.81445 15.2948 6.33393L13.7507 8.77425H22.1184L22.0935 12.483L18.719 21ZM13.8005 3.90569C13.5391 3.90569 13.2651 4.00233 13.0285 4.23187L7.42518 9.66822H3.81413C2.78062 9.66822 1.93389 10.4897 1.93389 11.5045V18.2697C1.93389 19.2724 2.78062 20.0939 3.81413 20.0939H18.0716L21.1845 12.2293V9.66822H12.0697L14.5103 5.82653C14.8341 5.39162 14.8341 5.01712 14.7967 4.76342C14.7344 4.42516 14.5477 4.18355 14.3982 4.0869C14.2239 3.97817 14.0122 3.90569 13.7881 3.90569H13.8005Z" fill="#B7BABA"/>
<path d="M7.71179 9.20923H6.77789V20.541H7.71179V9.20923Z" fill="#B7BABA"/>
</svg>
