<svg width="24" height="23" viewBox="0 0 24 23" fill="none" xmlns="http://www.w3.org/2000/svg">
<g id="icon / start-light">
<path id="Vector" d="M12 22C11.7886 22 11.6037 21.8678 11.5376 21.6695L9.05416 14.94L2.31704 12.4412C2.11889 12.3751 2 12.1901 2 11.9785C2 11.767 2.1321 11.5819 2.31704 11.5158L9.04095 9.01702L11.5376 2.28756C11.683 1.90415 12.317 1.90415 12.4623 2.28756L14.959 9.01702L21.683 11.5158C21.8811 11.5819 22 11.767 22 11.9785C22 12.1901 21.8679 12.3751 21.683 12.4412L14.959 14.94L12.4623 21.6695C12.3963 21.8678 12.2114 21.9868 12 21.9868V22ZM3.91546 11.9785L9.60898 14.0806C9.74108 14.1335 9.84676 14.2393 9.8996 14.3715L12 20.0565L14.1004 14.3583C14.1532 14.2261 14.2589 14.1203 14.391 14.0674L20.0845 11.9653L14.391 9.86316C14.2589 9.81028 14.1532 9.70451 14.1004 9.5723L12 3.87407L9.8996 9.55908C9.84676 9.69129 9.74108 9.79706 9.60898 9.84994L3.91546 11.9521V11.9785Z" fill="#B7BABA"/>
</g>
</svg>
