<?xml version="1.0" encoding="utf-8"?>
<!-- Generator: Adobe Illustrator 26.1.0, SVG Export Plug-In . SVG Version: 6.00 Build 0)  -->
<svg version="1.1" id="Layer_1" xmlns="http://www.w3.org/2000/svg" xmlns:xlink="http://www.w3.org/1999/xlink" x="0px" y="0px"
	 viewBox="0 0 393 38" style="enable-background:new 0 0 393 38;" xml:space="preserve">
<style type="text/css">
	.st0{fill:#FFFFFF;}
</style>
<g>
	<path class="st0" d="M151.6,9.2v5.1c0,0.1,0.1,0.2,0.2,0.2h1.6c0.1,0,0.2-0.1,0.2-0.2V9.2c0-0.1-0.1-0.2-0.2-0.2h-1.6
		C151.7,9,151.6,9.1,151.6,9.2L151.6,9.2z"/>
	<path class="st0" d="M98.9,9.2v4.1c0,0-6.5-4.1-6.6-4.2c-0.1,0-0.2-0.1-0.4-0.1h-2.1c-0.1,0-0.2,0.1-0.2,0.2v5.1
		c0,0.1,0.1,0.2,0.2,0.2h1.4c0.1,0,0.2-0.1,0.2-0.2v-4.1c0,0,6.5,4.1,6.6,4.2c0.1,0.1,0.3,0.1,0.4,0.1h2.1c0.1,0,0.2-0.1,0.2-0.2
		V9.2c0-0.1-0.1-0.2-0.2-0.2h-1.4C99,9,98.9,9.1,98.9,9.2z"/>
	<path class="st0" d="M143.5,9.2c-0.1,0.1-3.4,4.2-3.4,4.2h-1.8c0,0-3.3-4.1-3.4-4.2c-0.1-0.1-0.2-0.1-0.3-0.1h-1.7
		c-0.1,0-0.2,0.1-0.1,0.2c0.4,0.4,3.8,4.3,4.4,5.1c0.1,0.1,0.2,0.1,0.3,0.1h3.4c0.1,0,0.2,0,0.3-0.1c0.7-0.8,4.1-4.7,4.4-5.1
		c0.1-0.1,0-0.2-0.1-0.2h-1.7C143.7,9,143.6,9.1,143.5,9.2L143.5,9.2z"/>
	<path class="st0" d="M170.7,9h-11.3c-0.1,0-0.2,0.1-0.2,0.2v0.7c0,0.1,0.1,0.2,0.2,0.2h4.7v4.2c0,0.1,0.1,0.2,0.2,0.2h1.6
		c0.1,0,0.2-0.1,0.2-0.2v-4.2h4.7c0.1,0,0.2-0.1,0.2-0.2V9.2C170.9,9.1,170.8,9,170.7,9z"/>
	<path class="st0" d="M83.6,14.2c-0.4-0.4-3.8-4.3-4.4-5.1C79.1,9.1,79,9,78.8,9h-3.4c-0.1,0-0.2,0.1-0.3,0.1
		c-0.7,0.8-4.1,4.7-4.4,5.1c-0.1,0.1,0,0.2,0.1,0.2h1.7c0.1,0,0.3-0.1,0.3-0.1c0.1-0.1,0.8-1,0.8-1h7.1c0,0,0.7,0.9,0.8,1
		c0.1,0.1,0.2,0.1,0.3,0.1h1.7C83.6,14.5,83.7,14.3,83.6,14.2L83.6,14.2z M74.4,12.4l1.8-2.3H78l1.8,2.3H74.4L74.4,12.4z"/>
	<path class="st0" d="M64.8,14.2c-0.3-0.2-2.6-1.9-2.6-1.9h0.3c0.9,0,1.3-0.1,1.6-0.3s0.5-0.4,0.5-1c0-0.2,0-0.3,0-0.5
		c0-0.1,0-0.2,0-0.3c0-0.7-0.2-0.9-0.5-1.1c-0.3,0-0.6-0.1-1.4-0.1h-9c-0.1,0-0.2,0.1-0.2,0.2v5.1c0,0.1,0.1,0.2,0.2,0.2h1.4
		c0.1,0,0.2-0.1,0.2-0.2v-1.9H60c0,0,2.5,1.8,2.6,1.9c0.1,0.1,0.3,0.1,0.4,0.1h1.8C64.9,14.5,64.9,14.3,64.8,14.2L64.8,14.2z
		 M55.3,10.1H62c0.4,0,0.6,0,0.7,0.1c0.2,0.1,0.2,0.2,0.2,0.5c0,0,0,0,0,0.1c0,0.2-0.1,0.3-0.2,0.4c-0.2,0.1-0.3,0.1-0.7,0.1h-6.7
		V10.1L55.3,10.1z"/>
	<path class="st0" d="M119.9,10.9c0-0.1,0-0.2,0-0.3c0-0.6-0.2-1-0.8-1.3C118.6,9.1,118.2,9,117,9h-8.8c-0.1,0-0.2,0.1-0.2,0.2v5.1
		c0,0.1,0.1,0.2,0.2,0.2h9.1c1.2,0,1.6-0.1,2.1-0.5c0.4-0.3,0.5-0.5,0.6-1.3c0-0.1,0-0.2,0-0.3C120,11.9,119.9,11.5,119.9,10.9
		L119.9,10.9z M109.8,10.1h6.8c0.7,0,0.9,0,1.1,0.2c0.3,0.2,0.4,0.3,0.4,0.8c0,0.1,0,0.3,0,0.5c0,0.3,0,0.6,0,0.8
		c0,0.4-0.1,0.5-0.4,0.7s-0.5,0.2-1,0.2h-6.9V10.1z"/>
	<path class="st0" d="M45.7,11.2h-7.9c-0.1,0-0.2,0.1-0.2,0.2V12c0,0.1,0.1,0.2,0.2,0.2H44c0,0.2,0,0.3,0,0.5c0,0.3-0.1,0.4-0.3,0.5
		s-0.3,0.1-0.8,0.1h-6.4c-0.5,0-0.8,0-1.1-0.2s-0.3-0.3-0.3-0.7c0-0.1,0-0.1,0-0.2c0-0.4,0-0.7,0-1.1c0-0.1,0-0.1,0-0.2
		c0-0.3,0.2-0.5,0.5-0.7c0.2-0.1,0.6-0.1,1-0.1h8.8c0.1,0,0.2-0.1,0.2-0.2V9.2c0-0.1-0.1-0.2-0.2-0.2h-8.6c-1.7,0-2,0-2.5,0.2
		c-0.7,0.3-1,0.7-1,1.4v0.1c0,0.7,0,1.3,0,1.9v0.1c0,0.6,0.3,1,0.7,1.2c0.6,0.3,0.9,0.4,2.3,0.4h7.6c0.8,0,1.2-0.1,1.6-0.3
		c0.3-0.2,0.4-0.4,0.5-0.8c0-0.4,0.1-1.3,0.1-1.9C45.8,11.3,45.8,11.2,45.7,11.2L45.7,11.2z"/>
	<path class="st0" d="M205.1,14.2c-0.3-0.2-2.6-1.8-2.6-1.8h0.3c0.9,0,1.3-0.1,1.6-0.3s0.5-0.4,0.5-1c0-0.2,0-0.3,0-0.5
		c0-0.1,0-0.2,0-0.3c0-0.7-0.2-0.9-0.5-1.1C204,9.1,203.7,9,202.9,9h-9c-0.1,0-0.2,0.1-0.2,0.2v5.1c0,0.1,0.1,0.2,0.2,0.2h1.4
		c0.1,0,0.2-0.1,0.2-0.2v-1.9h4.7c0,0,2.5,1.8,2.6,1.9c0.1,0.1,0.3,0.1,0.4,0.1h1.8C205.1,14.5,205.1,14.3,205.1,14.2z M195.5,10.1
		h6.7c0.4,0,0.6,0,0.7,0.1c0.2,0.1,0.2,0.2,0.2,0.5v0.1c0,0.2-0.1,0.3-0.2,0.4c-0.2,0.1-0.3,0.1-0.7,0.1h-6.7V10.1L195.5,10.1z"/>
	<path class="st0" d="M151.9,14.3C151.9,14.3,151.8,14.3,151.9,14.3l-0.1-5c0-0.1,0-0.1,0.1-0.1h1.5c0,0,0.1,0,0.1,0.1v4.9
		c0,0,0,0.1-0.1,0.1L151.9,14.3L151.9,14.3z"/>
	<path class="st0" d="M98.4,14.3c-0.1,0-0.2,0-0.3-0.1c-0.1-0.1-6.9-4.3-6.9-4.3v4.3c0,0.1,0,0.1-0.1,0.1h-1.3c-0.1,0-0.1,0-0.1-0.1
		V9.3c0-0.1,0-0.1,0.1-0.1h2.1c0.1,0,0.2,0,0.3,0.1c0.1,0.1,6.9,4.3,6.9,4.3V9.3c0-0.1,0-0.1,0.1-0.1h1.3c0.1,0,0.1,0,0.1,0.1v5l0,0
		H98.4L98.4,14.3z"/>
	<path class="st0" d="M137.5,14.3c-0.1,0-0.1,0-0.2-0.1c-0.7-0.8-3.6-4.1-4.3-4.9V9.2c0.1,0,1.5,0,1.5,0c0.1,0,0.2,0,0.2,0.1
		c0.1,0.1,3.5,4.2,3.5,4.2h2c0,0,3.4-4.1,3.5-4.2c0,0,0.1-0.1,0.2-0.1h1.5c0.1,0,0.1,0.1,0.1,0.1c-0.7,0.8-3.6,4.1-4.3,4.9
		c0,0-0.1,0.1-0.2,0.1L137.5,14.3L137.5,14.3z"/>
	<path class="st0" d="M164.3,14.3C164.2,14.3,164.2,14.2,164.3,14.3l-0.1-4.3h-4.8c0,0-0.1,0-0.1-0.1V9.3c0,0,0-0.1,0.1-0.1h11.2
		c0.1,0,0.1,0,0.1,0.1v0.6c0,0,0,0.1-0.1,0.1h-4.8v4.2c0,0.1,0,0.1-0.1,0.1L164.3,14.3L164.3,14.3z"/>
	<path class="st0" d="M78.1,10h-1.9l-2.1,2.6h6.1L78.1,10L78.1,10z M76.3,10.1H78l1.8,2.3h-5.5L76.3,10.1L76.3,10.1z"/>
	<path class="st0" d="M83.3,14.2L79,9.3c0,0-0.1-0.1-0.2-0.1h-3.4c-0.1,0-0.1,0-0.2,0.1l-4.3,4.9v0.1h1.5c0.1,0,0.2,0,0.2-0.1
		c0.2-0.2,0.8-1,0.8-1h7.2c0,0,0.8,0.9,0.8,1c0,0,0.1,0.1,0.2,0.1h1.5C83.3,14.3,83.4,14.2,83.3,14.2L83.3,14.2z M74.4,12.4l1.8-2.3
		H78l1.8,2.3H74.4L74.4,12.4z"/>
	<path class="st0" d="M187.7,14.2c-0.4-0.4-3.8-4.3-4.4-5.1c-0.1,0-0.3-0.1-0.4-0.1h-3.4c-0.1,0-0.2,0.1-0.3,0.1
		c-0.7,0.8-4.1,4.7-4.4,5.1c-0.1,0.1,0,0.2,0.1,0.2h1.7c0.1,0,0.3-0.1,0.3-0.1c0.1-0.1,0.8-1,0.8-1h7.1c0,0,0.7,0.9,0.8,1
		s0.2,0.1,0.3,0.1h1.7C187.7,14.5,187.7,14.3,187.7,14.2L187.7,14.2z M178.5,12.4l1.8-2.3h1.8l1.8,2.3H178.5z"/>
	<path class="st0" d="M182.2,10h-1.9l-2.1,2.6h6.1L182.2,10L182.2,10z M180.4,10.1h1.8l1.8,2.3h-5.5L180.4,10.1z"/>
	<path class="st0" d="M187.4,14.2l-4.3-4.9c0,0-0.1-0.1-0.2-0.1h-3.4c-0.1,0-0.1,0-0.2,0.1l-4.3,4.9v0.1h1.5c0.1,0,0.2,0,0.2-0.1
		c0.2-0.2,0.8-1,0.8-1h7.2c0,0,0.8,0.9,0.8,1c0,0,0.1,0.1,0.2,0.1h1.5C187.4,14.3,187.5,14.2,187.4,14.2L187.4,14.2z M178.5,12.4
		l1.8-2.3h1.8l1.8,2.3H178.5z"/>
	<path class="st0" d="M223.8,14.2c-0.4-0.4-3.8-4.3-4.4-5.1c-0.1,0-0.2-0.1-0.4-0.1h-3.4c-0.1,0-0.2,0.1-0.3,0.1
		c-0.7,0.8-4.1,4.7-4.4,5.1c-0.1,0.1,0,0.2,0.1,0.2h1.7c0.1,0,0.3-0.1,0.3-0.1c0.1-0.1,0.8-1,0.8-1h7.1c0,0,0.7,0.9,0.8,1
		s0.2,0.1,0.3,0.1h1.7C223.8,14.5,223.9,14.3,223.8,14.2z M214.6,12.4l1.8-2.3h1.8l1.8,2.3H214.6z"/>
	<path class="st0" d="M218.3,10h-1.9l-2.1,2.6h6.1L218.3,10z M216.5,10.1h1.8l1.8,2.3h-5.5L216.5,10.1z"/>
	<path class="st0" d="M223.5,14.2l-4.3-4.9c0,0-0.1-0.1-0.2-0.1h-3.4c-0.1,0-0.1,0-0.2,0.1l-4.3,4.9v0.1h1.5c0.1,0,0.1,0,0.2-0.1
		c0.2-0.2,0.8-1,0.8-1h7.2c0,0,0.8,0.9,0.8,1c0,0,0.1,0.1,0.2,0.1h1.5C223.5,14.3,223.6,14.2,223.5,14.2z M214.6,12.4l1.8-2.3h1.8
		l1.8,2.3H214.6z"/>
	<path class="st0" d="M62.8,10.1C62.6,10,62.4,10,62,10h-6.8v1.6H62c0.5,0,0.6,0,0.8-0.2c0.2-0.1,0.3-0.3,0.3-0.5l0,0l0,0
		C63.1,10.4,63,10.3,62.8,10.1z M62.9,10.8c0,0.2-0.1,0.3-0.2,0.4c-0.2,0.1-0.3,0.1-0.7,0.1h-6.7v-1.2H62c0.4,0,0.6,0,0.7,0.1
		C62.9,10.4,62.9,10.4,62.9,10.8L62.9,10.8L62.9,10.8z"/>
	<path class="st0" d="M64.5,10.4c0-0.6-0.2-0.8-0.4-0.9c-0.3-0.2-0.6-0.3-1.4-0.3h-8.9c-0.1,0-0.1,0-0.1,0.1v4.9
		c0,0.1,0.1,0.1,0.1,0.1H55c0.1,0,0.1,0,0.1-0.1v-2H60c0,0,2.5,1.9,2.6,2s0.2,0.1,0.3,0.1h1.5c0.1,0,0.1-0.1,0-0.1s-2.7-1.9-2.7-1.9
		h0.6h0.2c0.9,0,1.2-0.1,1.5-0.3c0.3-0.2,0.4-0.3,0.4-0.9c0-0.2,0-0.3,0-0.5l0,0C64.5,10.5,64.5,10.5,64.5,10.4L64.5,10.4z
		 M62.9,10.8c0,0.2-0.1,0.3-0.2,0.4c-0.2,0.1-0.3,0.1-0.7,0.1h-6.7v-1.2H62c0.4,0,0.6,0,0.7,0.1C62.9,10.4,62.9,10.4,62.9,10.8
		L62.9,10.8L62.9,10.8z"/>
	<path class="st0" d="M118.2,11.3v-0.2c0-0.5-0.1-0.7-0.4-1c-0.3-0.2-0.5-0.2-1.2-0.2h-7v3.5h7.1c0.5,0,0.8,0,1.1-0.2
		c0.4-0.2,0.5-0.4,0.5-0.8c0-0.2,0-0.5,0-0.8v-0.1C118.2,11.5,118.2,11.4,118.2,11.3L118.2,11.3z M118.1,12.4c0,0.4-0.1,0.5-0.4,0.7
		s-0.5,0.2-1,0.2h-6.9v-3.2h6.8c0.7,0,0.9,0,1.1,0.2c0.3,0.2,0.4,0.3,0.4,0.8c0,0.1,0,0.3,0,0.5C118.1,11.9,118.1,12.2,118.1,12.4
		L118.1,12.4z"/>
	<path class="st0" d="M119.8,11c0-0.1,0-0.2,0-0.3c0-0.6-0.2-0.9-0.7-1.2c-0.5-0.2-0.8-0.3-2.1-0.3h-8.7c0,0-0.1,0-0.1,0.1v4.9
		c0,0.1,0,0.1,0.1,0.1h9c1.1,0,1.5-0.1,2-0.4c0.4-0.3,0.5-0.5,0.5-1.2c0-0.1,0-0.2,0-0.3C119.8,11.9,119.8,11.5,119.8,11L119.8,11z
		 M118.1,12.4c0,0.4-0.1,0.5-0.4,0.7s-0.5,0.2-1,0.2h-6.9v-3.2h6.8c0.7,0,0.9,0,1.1,0.2c0.3,0.2,0.4,0.3,0.4,0.8c0,0.1,0,0.3,0,0.5
		C118.1,11.9,118.1,12.2,118.1,12.4L118.1,12.4z"/>
	<path class="st0" d="M36.2,14.3c-1.4,0-1.7-0.1-2.2-0.4c-0.4-0.2-0.6-0.6-0.6-1.1v-0.1c0-0.6,0-1.2,0-1.9l0,0v-0.1
		c0.1-0.7,0.3-1,0.9-1.3c0.4-0.2,0.8-0.2,2.4-0.2h8.5c0.1,0,0.1,0,0.1,0.1v0.6c0,0,0,0.1-0.1,0.1h-8.7c-0.5,0-0.8,0-1.1,0.2
		c-0.4,0.2-0.6,0.4-0.6,0.8v0.1l0,0c0,0.4,0,0.7,0,1.1l0,0v0.1c0,0.5,0.1,0.6,0.4,0.9c0.3,0.2,0.7,0.2,1.2,0.2h6.4
		c0.5,0,0.7,0,0.9-0.1s0.3-0.3,0.4-0.7c0-0.1,0-0.3,0-0.4V12h-6.3c-0.1,0-0.1,0-0.1-0.1v-0.5c0-0.1,0-0.1,0.1-0.1h7.8
		c0.1,0,0.1,0,0.1,0.1c0,0.6,0,1.5-0.1,1.9c0,0.4-0.1,0.6-0.4,0.7c-0.3,0.2-0.7,0.3-1.5,0.3C43.7,14.3,36.2,14.3,36.2,14.3z"/>
	<path class="st0" d="M203,10.1c-0.2-0.1-0.3-0.1-0.8-0.1h-6.8v1.6h6.8c0.5,0,0.6,0,0.8-0.2c0.2-0.1,0.3-0.3,0.3-0.5l0,0l0,0
		C203.3,10.4,203.2,10.3,203,10.1L203,10.1z M203.1,10.8c0,0.2-0.1,0.3-0.2,0.4c-0.2,0.1-0.3,0.1-0.7,0.1h-6.7v-1.2h6.7
		c0.4,0,0.6,0,0.7,0.1C203.1,10.4,203.1,10.4,203.1,10.8L203.1,10.8L203.1,10.8z"/>
	<path class="st0" d="M202.7,12.2h0.2c0.9,0,1.2-0.1,1.5-0.3s0.4-0.3,0.4-0.9c0-0.2,0-0.3,0-0.5l0,0c0-0.1,0-0.1,0-0.2
		c0-0.6-0.2-0.8-0.4-0.9c-0.3-0.2-0.6-0.3-1.4-0.3h-8.9c-0.1,0-0.1,0-0.1,0.1v4.9c0,0,0,0.1,0.1,0.1h1.3c0.1,0,0.1,0,0.1-0.1v-2h4.9
		c0,0,2.5,1.9,2.6,2s0.2,0.1,0.3,0.1h1.5c0.1,0,0.1-0.1,0-0.1s-2.7-1.9-2.7-1.9L202.7,12.2L202.7,12.2z M195.5,10.1h6.7
		c0.4,0,0.6,0,0.7,0.1c0.2,0.1,0.2,0.2,0.2,0.5v0.1c0,0.2-0.1,0.3-0.2,0.4c-0.2,0.1-0.3,0.1-0.7,0.1h-6.7V10.1L195.5,10.1z"/>
	<path class="st0" d="M133,25l1.2-6.1h6.3l-0.3,1.7c-0.1,0.6-0.3,1-0.7,1.3c0.3,0.2,0.4,0.6,0.3,1.2l-0.1,0.5
		c-0.1,0.4-0.3,0.7-0.5,0.9c-0.3,0.3-0.6,0.4-1,0.4L133,25L133,25z M134.7,23.6h2.9c0.4,0,0.6-0.2,0.7-0.5c0.1-0.3-0.1-0.5-0.5-0.5
		h-2.9L134.7,23.6z M135.1,21.2h2.8c0.4,0,0.6-0.2,0.7-0.6l0.1-0.4h-3.4L135.1,21.2L135.1,21.2z"/>
	<path class="st0" d="M141.1,20.7c0.1-0.5,0.4-0.9,0.8-1.3c0.4-0.4,0.9-0.5,1.4-0.5h4.9l-0.8,4.3c-0.1,0.5-0.4,0.9-0.8,1.3
		c-0.4,0.4-0.9,0.5-1.4,0.5H142c-0.5,0-0.9-0.2-1.1-0.5c-0.3-0.3-0.4-0.8-0.3-1.3L141.1,20.7L141.1,20.7z M142,23.3
		c0,0.1,0,0.2,0.1,0.2c0.1,0.1,0.1,0.1,0.2,0.1h0.4l0,0h2.3l0,0h0.4c0.1,0,0.2,0,0.3-0.1s0.1-0.2,0.2-0.2l0.6-3h-3.1l0,0H143
		c-0.1,0-0.2,0-0.3,0.1s-0.1,0.2-0.2,0.2L142,23.3z"/>
	<path class="st0" d="M148.6,20.7c0.1-0.5,0.4-0.9,0.8-1.3c0.4-0.4,0.9-0.5,1.4-0.5h4.9l-0.8,4.3c-0.1,0.5-0.4,0.9-0.8,1.3
		c-0.4,0.4-0.9,0.5-1.4,0.5h-3.2c-0.5,0-0.9-0.2-1.1-0.5c-0.3-0.3-0.4-0.8-0.3-1.3L148.6,20.7L148.6,20.7z M149.5,23.3
		c0,0.1,0,0.2,0.1,0.2c0.1,0.1,0.1,0.1,0.2,0.1h0.4l0,0h2.3l0,0h0.4c0.1,0,0.2,0,0.3-0.1s0.1-0.2,0.2-0.2l0.6-3h-3.1l0,0h-0.4
		c-0.1,0-0.2,0-0.3,0.1s-0.1,0.2-0.2,0.2L149.5,23.3z"/>
	<path class="st0" d="M162.1,23.2c-0.1,0.5-0.3,0.9-0.8,1.3c-0.4,0.3-0.9,0.5-1.3,0.5h-4.7l0.3-1.4h4.5c0.1,0,0.2,0,0.3-0.1
		s0.2-0.2,0.2-0.2l0.1-0.6h-5l0.4-1.9c0.1-0.5,0.3-0.9,0.8-1.3c0.4-0.3,0.9-0.5,1.3-0.5h4.7l-0.3,1.4H158c-0.1,0-0.2,0-0.3,0.1
		s-0.2,0.2-0.2,0.3l-0.1,0.6h5.1L162.1,23.2z"/>
	<path class="st0" d="M170.4,18.9l-0.3,1.4h-2.5l-0.9,4.7h-1.4l0.9-4.7h-2.6l0.3-1.4H170.4z"/>
	<path class="st0" d="M177.1,20.3h-4.8l-0.2,1h4.8l-0.3,1.4h-4.8l-0.1,0.6c0,0.1,0,0.2,0.1,0.2c0,0.1,0.1,0.1,0.2,0.1h4.4l-0.3,1.4
		h-4.4c-0.5,0-0.9-0.2-1.1-0.5c-0.3-0.3-0.4-0.8-0.3-1.3l0.8-4.3h6.2L177.1,20.3L177.1,20.3z"/>
	<path class="st0" d="M178.6,19.4c0.4-0.3,0.9-0.5,1.4-0.5h5l-0.5,2.4c-0.1,0.5-0.3,0.9-0.7,1.2c-0.2,0.2-0.4,0.3-0.7,0.4l0.6,2
		h-1.4l-0.6-1.9h-2.9l-0.4,1.9H177l0.8-4.3C178,20.2,178.2,19.8,178.6,19.4L178.6,19.4z M179.7,20.3c-0.1,0-0.2,0-0.3,0.1
		s-0.1,0.2-0.2,0.3l-0.2,1h3.7c0.1,0,0.2,0,0.3-0.1s0.1-0.1,0.1-0.3l0.2-1H179.7z"/>
	<path class="st0" d="M189.4,20.4c0.1-0.1,0.2-0.1,0.3-0.1h4.4l0.3-1.4H190c-0.5,0-0.9,0.2-1.4,0.5c-0.4,0.3-0.7,0.8-0.8,1.3L187,25
		h6.5l0.6-3h-1.4l-0.3,1.7h-3.7l0.6-2.9C189.2,20.6,189.3,20.5,189.4,20.4L189.4,20.4z M197.2,18.9c-0.5,0-0.9,0.2-1.4,0.5
		c-0.4,0.4-0.7,0.8-0.8,1.2l-0.8,4.3h1.4L196,23h2.9l0.6,1.9h1.4l-0.6-2c0.2-0.1,0.5-0.2,0.7-0.4c0.4-0.3,0.7-0.8,0.7-1.2l0.5-2.4
		L197.2,18.9L197.2,18.9z M200.4,21.3c0,0.1-0.1,0.2-0.1,0.3c-0.1,0.1-0.2,0.1-0.3,0.1h-3.7l0.2-1c0-0.1,0.1-0.2,0.2-0.3
		c0.1-0.1,0.2-0.1,0.3-0.1h3.6L200.4,21.3z M209,20.3l0.3-1.4h-6.2l-0.8,4.3c-0.1,0.5,0,0.9,0.3,1.3s0.7,0.5,1.1,0.5h4.4l0.3-1.4
		H204c-0.1,0-0.2,0-0.2-0.1c-0.1-0.1-0.1-0.1-0.1-0.2l0.1-0.6h4.8l0.3-1.4H204l0.2-1H209L209,20.3z M211.2,20.3h4.8l0.3-1.4h-6.2
		l-0.8,4.3c-0.1,0.5,0,0.9,0.3,1.3s0.7,0.5,1.1,0.5h4.4l0.3-1.4H211c-0.1,0-0.2,0-0.2-0.1c-0.1-0.1-0.1-0.1-0.1-0.2l0.1-0.6h4.8
		l0.3-1.4h-4.8L211.2,20.3L211.2,20.3z M218.9,18.9c-0.5,0-0.9,0.2-1.4,0.5c-0.4,0.3-0.7,0.8-0.8,1.2L216,25h1.4l0.8-4.3
		c0-0.1,0.1-0.2,0.2-0.3c0.1-0.1,0.2-0.1,0.3-0.1h3.5l-0.9,4.7h1.4l1.2-6.1H218.9L218.9,18.9z"/>
	<path class="st0" d="M189.4,20.4c0.1-0.1,0.2-0.1,0.3-0.1h4.4l0.3-1.4H190c-0.5,0-0.9,0.2-1.4,0.5c-0.4,0.3-0.7,0.8-0.8,1.3L187,25
		h6.5l0.6-3h-1.4l-0.3,1.7h-3.7l0.6-2.9C189.2,20.6,189.3,20.5,189.4,20.4L189.4,20.4z"/>
	<path class="st0" d="M209,20.3l0.3-1.4h-6.2l-0.8,4.3c-0.1,0.5,0,0.9,0.3,1.3s0.7,0.5,1.1,0.5h4.4l0.3-1.4H204
		c-0.1,0-0.2,0-0.2-0.1c-0.1-0.1-0.1-0.1-0.1-0.2l0.1-0.6h4.8l0.3-1.4H204l0.2-1H209L209,20.3z"/>
	<path class="st0" d="M211.2,20.3h4.8l0.3-1.4h-6.2l-0.8,4.3c-0.1,0.5,0,0.9,0.3,1.3s0.7,0.5,1.1,0.5h4.4l0.3-1.4H211
		c-0.1,0-0.2,0-0.2-0.1c-0.1-0.1-0.1-0.1-0.1-0.2l0.1-0.6h4.8l0.3-1.4h-4.8L211.2,20.3L211.2,20.3z"/>
	<path class="st0" d="M218.9,18.9c-0.5,0-0.9,0.2-1.4,0.5c-0.4,0.3-0.7,0.8-0.8,1.2L216,25h1.4l0.8-4.3c0-0.1,0.1-0.2,0.2-0.3
		c0.1-0.1,0.2-0.1,0.3-0.1h3.5l-0.9,4.7h1.4l1.2-6.1H218.9L218.9,18.9z"/>
</g>
<g>
	<path class="st0" d="M350.9,8.2h-14.3l-1.1,2.7h4.7c0,0.1-3.5,7.8-3.5,7.8h4.3c0,0,3.2-7.7,3.3-7.8c0.1,0,3.9,0,3.9,0
		c0.2,0,1.6,0.2,1.6,0.2L350.9,8.2z"/>
	<path class="st0" d="M334.6,8.2h-13.5c0,0-1.6,3.6-2.8,6.3c-1,2.2-1.8,4.2-1.8,4.2h4.3c0,0,1.3-3.2,1.4-3.3c0.1,0,8.6,0,8.6,0
		l1.1-2.5c0,0-8.4,0-8.7,0c0.1-0.2,0.8-1.9,0.9-2c0.1,0,7.8,0,7.8,0c0.2,0,1.6,0.2,1.6,0.2L334.6,8.2L334.6,8.2z"/>
	<path class="st0" d="M314.3,8.1c0,0-1.1,2.5-2,4.5c-1.1,2.5-2.6,5.9-2.6,5.9h4.3l3.8-9c0.3-0.8,0.8-1.5,0.8-1.5L314.3,8.1z"/>
	<path class="st0" d="M303.4,15.1c0-0.6,0.2-6.4,0.2-6.4h-2.9c0,0-3.6,5.8-4,6.4c0.1-0.7,0.6-7,0.6-7h-3.8l-1,10.5h5.1
		c0,0,2.7-4.3,3-4.8c0,0.6-0.2,4.8-0.2,4.8h5.2c0,0,5.5-8.7,5.8-9.1c0.4-0.6,1.1-1.3,1.1-1.3h-4.8C307.8,8.1,303.8,14.6,303.4,15.1z
		"/>
	<path class="st0" d="M281.2,8.2c2.7-0.5,6.1-0.4,8-0.1c1,0.1,2.1,0.3,2.5,0.4c0.1,0,0.2,0.1,0.2,0.1c-0.1,0.1-1.6,2.6-1.6,2.6
		s-0.1,0-0.2-0.1c-0.3-0.1-0.7-0.3-1.1-0.3c-2.6-0.4-5.2-0.3-6.2-0.1c-0.6,0.1-0.9,0.2-1,0.3c-0.5,0.2-0.3,0.6,0.2,0.7
		c0.6,0.2,1.2,0.3,2.2,0.5c1.5,0.3,3.5,0.8,4.2,1.1s1,0.4,1.3,0.8c0.3,0.3,0.4,0.7,0.4,1.1c0,0.9-0.6,1.8-0.9,2.1
		c-0.5,0.5-1.1,1-2.3,1.3c-0.9,0.3-2.2,0.4-3.4,0.5c-0.8,0-2.1,0.1-3.6,0c-1.6-0.1-3.6-0.3-4.4-0.4c-0.2,0-1-0.2-1.4-0.3
		c-0.1,0-0.2-0.1-0.2-0.1l1.1-2.9h0.1c0.7,0.2,0.8,0.2,1.7,0.3c2.5,0.4,5,0.6,6.8,0.5c0.8-0.1,1.1-0.1,1.3-0.2
		c0.8-0.2,1.2-0.8,0.3-1.2c-0.3-0.1-1.5-0.4-2.1-0.5c-3.2-0.7-3.4-0.8-4.5-1.1c-0.5-0.2-1-0.5-1.3-0.9c-0.7-1.1,0.1-2.3,0.6-2.7
		C278.7,9,279,8.6,281.2,8.2"/>
	<path class="st0" d="M273.9,26.5l1-5.3h5.4l-0.3,1.5c-0.1,0.5-0.3,0.9-0.6,1.2c0.2,0.2,0.3,0.6,0.2,1.1l-0.1,0.5
		c-0.1,0.3-0.2,0.6-0.5,0.8c-0.3,0.2-0.5,0.3-0.9,0.3L273.9,26.5L273.9,26.5z M275.3,25.3h2.4c0.3,0,0.5-0.1,0.6-0.4
		s-0.1-0.4-0.4-0.4h-2.4L275.3,25.3L275.3,25.3z M275.7,23.2h2.4c0.3,0,0.5-0.2,0.6-0.5l0.1-0.3h-2.9L275.7,23.2z"/>
	<path class="st0" d="M280.7,22.8c0.1-0.4,0.3-0.8,0.6-1.1c0.4-0.3,0.7-0.5,1.2-0.5h4.2l-0.7,3.7c-0.1,0.4-0.3,0.8-0.6,1.1
		c-0.4,0.3-0.7,0.5-1.2,0.5h-2.7c-0.4,0-0.7-0.2-1-0.5c-0.2-0.3-0.3-0.7-0.2-1.1L280.7,22.8L280.7,22.8z M281.5,25
		c0,0.1,0,0.1,0.1,0.2c0,0.1,0.1,0.1,0.2,0.1h0.4l0,0h2l0,0h0.4c0.1,0,0.2,0,0.2-0.1c0.1-0.1,0.1-0.1,0.1-0.2l0.5-2.6h-2.6l0,0h-0.4
		c-0.1,0-0.2,0-0.2,0.1c-0.1,0.1-0.1,0.1-0.1,0.2L281.5,25z"/>
	<path class="st0" d="M287.1,22.8c0.1-0.4,0.3-0.8,0.6-1.1c0.4-0.3,0.7-0.5,1.2-0.5h4.2l-0.7,3.7c-0.1,0.4-0.3,0.8-0.6,1.1
		c-0.4,0.3-0.7,0.5-1.2,0.5h-2.7c-0.4,0-0.7-0.2-1-0.5c-0.2-0.3-0.3-0.7-0.2-1.1L287.1,22.8L287.1,22.8z M287.9,25
		c0,0.1,0,0.1,0.1,0.2c0,0.1,0.1,0.1,0.2,0.1h0.4l0,0h2l0,0h0.4c0.1,0,0.2,0,0.2-0.1c0.1-0.1,0.1-0.1,0.1-0.2l0.5-2.6H289l0,0h-0.4
		c-0.1,0-0.2,0-0.2,0.1c-0.1,0.1-0.1,0.1-0.1,0.2L287.9,25z"/>
	<path class="st0" d="M298.6,24.9c-0.1,0.4-0.3,0.8-0.6,1.1c-0.4,0.3-0.7,0.5-1.1,0.5h-4l0.2-1.2h3.9c0.1,0,0.2,0,0.3-0.1
		c0.1-0.1,0.1-0.1,0.2-0.2l0.1-0.6h-4.2l0.3-1.7c0.1-0.4,0.3-0.8,0.6-1.1c0.4-0.3,0.7-0.5,1.1-0.5h4l-0.2,1.2h-4
		c-0.1,0-0.2,0-0.3,0.1c-0.1,0.1-0.1,0.2-0.2,0.2l-0.1,0.5h4.4L298.6,24.9L298.6,24.9z"/>
	<path class="st0" d="M305.6,21.2l-0.2,1.2h-2.1l-0.8,4.1h-1.2l0.8-4.1h-2.2l0.2-1.2H305.6L305.6,21.2z"/>
	<path class="st0" d="M311.3,22.4h-4.1l-0.2,0.8h4.1l-0.2,1.2h-4.1l-0.1,0.5c0,0.1,0,0.1,0.1,0.2c0,0.1,0.1,0.1,0.2,0.1h3.8
		l-0.2,1.2h-3.8c-0.4,0-0.7-0.2-1-0.5c-0.2-0.3-0.3-0.7-0.2-1.1l0.7-3.7h5.3L311.3,22.4L311.3,22.4z"/>
	<path class="st0" d="M312.6,21.7c0.4-0.3,0.7-0.5,1.1-0.5h4.3l-0.4,2.1c-0.1,0.4-0.3,0.8-0.6,1.1c-0.2,0.2-0.4,0.3-0.6,0.3l0.5,1.8
		h-1.2l-0.5-1.7h-2.5l-0.3,1.7h-1.2l0.7-3.8C312,22.3,312.2,22,312.6,21.7L312.6,21.7z M313.5,22.4c-0.1,0-0.2,0-0.2,0.1
		c-0.1,0.1-0.1,0.1-0.1,0.2l-0.2,0.9h3.1c0.1,0,0.2,0,0.2-0.1c0.1-0.1,0.1-0.1,0.1-0.2l0.2-0.9H313.5L313.5,22.4z"/>
	<path class="st0" d="M321.7,22.5c0.1-0.1,0.2-0.1,0.3-0.1h3.7l0.2-1.2h-3.7c-0.4,0-0.8,0.2-1.2,0.5c-0.4,0.3-0.6,0.7-0.7,1.1
		l-0.7,3.7h5.5l0.5-2.6h-1.2l-0.3,1.4H321l0.5-2.5C321.6,22.7,321.6,22.6,321.7,22.5z M328.4,21.2c-0.4,0-0.8,0.2-1.1,0.5
		c-0.4,0.3-0.6,0.7-0.6,1.1l-0.7,3.8h1.2l0.3-1.7h2.5l0.6,1.7h1.2l-0.5-1.8c0.2-0.1,0.4-0.2,0.6-0.3c0.3-0.3,0.6-0.7,0.6-1.1
		l0.4-2.1L328.4,21.2L328.4,21.2z M331,23.3c0,0.1-0.1,0.2-0.1,0.2c-0.1,0.1-0.1,0.1-0.2,0.1h-3.1l0.2-0.9c0-0.1,0.1-0.2,0.1-0.2
		c0.1-0.1,0.2-0.1,0.2-0.1h3.1L331,23.3L331,23.3z M338.4,22.4l0.2-1.2h-5.3l-0.7,3.7c-0.1,0.4,0,0.8,0.2,1.1c0.2,0.3,0.6,0.5,1,0.5
		h3.8l0.2-1.2H334c-0.1,0-0.2,0-0.2-0.1c-0.1-0.1-0.1-0.1-0.1-0.2l0.1-0.5h4.1l0.2-1.2H334l0.2-0.8L338.4,22.4L338.4,22.4z
		 M340.3,22.4h4.1l0.2-1.2h-5.3l-0.7,3.7c-0.1,0.4,0,0.8,0.2,1.1c0.2,0.3,0.6,0.5,1,0.5h3.8l0.2-1.2H340c-0.1,0-0.2,0-0.2-0.1
		c-0.1-0.1-0.1-0.1-0.1-0.2l0.1-0.5h4.1l0.2-1.2H340L340.3,22.4L340.3,22.4z M346.8,21.2c-0.4,0-0.8,0.2-1.1,0.5
		c-0.4,0.3-0.6,0.7-0.6,1.1l-0.7,3.8h1.2l0.7-3.8c0-0.1,0.1-0.2,0.1-0.2c0.1-0.1,0.2-0.1,0.2-0.1h3l-0.8,4.1h1.2l1-5.3L346.8,21.2
		L346.8,21.2z"/>
	<path class="st0" d="M321.7,22.5c0.1-0.1,0.2-0.1,0.3-0.1h3.7l0.2-1.2h-3.7c-0.4,0-0.8,0.2-1.2,0.5c-0.4,0.3-0.6,0.7-0.7,1.1
		l-0.7,3.7h5.5l0.5-2.6h-1.2l-0.3,1.4H321l0.5-2.5C321.6,22.7,321.6,22.6,321.7,22.5z"/>
	<path class="st0" d="M338.4,22.4l0.2-1.2h-5.3l-0.7,3.7c-0.1,0.4,0,0.8,0.2,1.1c0.2,0.3,0.6,0.5,1,0.5h3.8l0.2-1.2H334
		c-0.1,0-0.2,0-0.2-0.1c-0.1-0.1-0.1-0.1-0.1-0.2l0.1-0.5h4.1l0.2-1.2H334l0.2-0.8L338.4,22.4L338.4,22.4z"/>
	<path class="st0" d="M340.3,22.4h4.1l0.2-1.2h-5.3l-0.7,3.7c-0.1,0.4,0,0.8,0.2,1.1c0.2,0.3,0.6,0.5,1,0.5h3.8l0.2-1.2H340
		c-0.1,0-0.2,0-0.2-0.1s-0.1-0.1-0.1-0.2l0.1-0.5h4.1l0.2-1.2H340L340.3,22.4L340.3,22.4z"/>
	<path class="st0" d="M346.8,21.2c-0.4,0-0.8,0.2-1.1,0.5c-0.4,0.3-0.6,0.7-0.6,1.1l-0.7,3.8h1.2l0.7-3.8c0-0.1,0.1-0.2,0.1-0.2
		c0.1-0.1,0.2-0.1,0.2-0.1h3l-0.8,4.1h1.2l1-5.3L346.8,21.2L346.8,21.2z"/>
</g>
</svg>
