<svg width="262" height="51" viewBox="0 0 262 51" fill="none" xmlns="http://www.w3.org/2000/svg">
<g clip-path="url(#clip0_6299_21362)">
<path fill-rule="evenodd" clip-rule="evenodd" d="M25.8267 0L51.627 18.1086C51.627 18.1086 45.3003 22.1955 38.2961 22.1955C35.1322 22.1955 33.0172 20.9303 28.3192 17.7192C23.6222 14.5081 21.379 12.7916 20.9039 12.4352C19.9039 11.6854 18.557 12.7885 19.5997 13.6705C20.6425 14.5525 51.3595 35.4394 51.3595 35.4394C51.3595 35.4394 39.82 39.4354 25.784 51L0 32.8914C0 32.8914 6.32672 28.8045 13.331 28.8045C16.4949 28.8045 18.6099 30.0697 23.3079 33.2808C28.0048 36.4919 30.248 38.2084 30.7231 38.5648C31.7231 39.3146 33.0701 38.2115 32.0273 37.3295C30.9846 36.4475 0.267556 15.5606 0.267556 15.5606C0.267556 15.5606 11.7918 11.5646 25.8267 0Z" fill="white"/>
<path fill-rule="evenodd" clip-rule="evenodd" d="M76.5281 31.2988C76.4722 31.7501 77.1436 34.5068 81.7622 34.5068C85.2028 34.5068 86.0655 33.3996 86.0655 32.4876C86.0655 27.1189 63.1402 32.4876 63.1402 20.2413C63.1402 12.7399 71.4171 10.1052 80.1091 10.1052C99.366 10.1052 98.073 19.6795 98.073 19.6795H84.4022C84.4022 17.9216 81.8233 16.4281 80.0379 16.4281C78.5902 16.4281 75.112 16.4281 75.112 18.5537C75.112 22.8048 99.1188 19.6795 99.1188 31.1211C99.1188 35.0862 97.0251 41.1117 80.5445 41.1117C60.4636 41.1117 62.485 31.2998 62.485 31.2998H76.5271L76.5281 31.2988Z" fill="white"/>
<path d="M262 10.5534H251.578V39.9343H262V10.5534Z" fill="white"/>
<path fill-rule="evenodd" clip-rule="evenodd" d="M211.716 39.9343V10.5534H221.969V21.5685L234.435 10.5534H249.119L232.86 24.2167L249.009 39.9343H234.263L221.969 28.5618V39.9343H211.716Z" fill="white"/>
<path fill-rule="evenodd" clip-rule="evenodd" d="M154.805 32.69H171.891V39.9343H137.608V33.8426L154.703 18.1437H138.24V10.5534H171.823V16.9952L154.805 32.69Z" fill="white"/>
<path fill-rule="evenodd" clip-rule="evenodd" d="M100.223 10.5534H111.609C111.609 10.5534 111.605 22.8864 111.605 28.7663C111.605 32.4349 114.863 34.0058 118.094 33.9976C121.316 33.9903 124.552 32.4266 124.552 28.7663C124.552 22.749 124.543 10.5534 124.543 10.5534H135.482V30.7627C135.482 39.4519 125.663 40.4269 117.847 40.4248C110.036 40.4228 100.223 39.4499 100.223 30.7627V10.5534Z" fill="white"/>
<path fill-rule="evenodd" clip-rule="evenodd" d="M173.857 10.5534H185.243C185.243 10.5534 185.239 22.8864 185.239 28.7663C185.239 32.4349 188.496 34.0058 191.727 33.9976C194.949 33.9903 198.185 32.4266 198.185 28.7663C198.185 22.749 198.177 10.5534 198.177 10.5534H209.116V30.7627C209.116 39.4519 199.296 40.4269 191.481 40.4248C183.67 40.4228 173.857 39.4499 173.857 30.7627V10.5534Z" fill="white"/>
</g>
<defs>
<clipPath id="clip0_6299_21362">
<rect width="262" height="51" fill="white"/>
</clipPath>
</defs>
</svg>
