<svg width="49" height="49" viewBox="0 0 49 49" fill="none" xmlns="http://www.w3.org/2000/svg">
<g id="icon / next">
<path id="Vector" d="M17.8172 42.9752L34.8484 25.9946C35.0505 25.7924 35.1934 25.5735 35.2769 25.3376C35.3618 25.1018 35.4043 24.8491 35.4043 24.5795C35.4043 24.31 35.3618 24.0573 35.2769 23.8215C35.1934 23.5856 35.0505 23.3666 34.8484 23.1645L17.8172 6.13331C17.3455 5.66162 16.7559 5.42578 16.0484 5.42578C15.3409 5.42578 14.7344 5.67847 14.229 6.18385C13.7237 6.68922 13.471 7.27883 13.471 7.95266C13.471 8.6265 13.7237 9.2161 14.229 9.72148L29.0871 24.5795L14.229 39.4376C13.7573 39.9093 13.5215 40.4901 13.5215 41.1802C13.5215 41.8715 13.7742 42.4699 14.2796 42.9752C14.7849 43.4806 15.3745 43.7333 16.0484 43.7333C16.7222 43.7333 17.3118 43.4806 17.8172 42.9752Z" fill="white"/>
</g>
</svg>
