<svg xmlns="http://www.w3.org/2000/svg" width="34" height="31" viewBox="0 0 34 31" fill="none"> <path d="M15.8973 0.753583C16.1022 0.332381 16.5316 0.0656738 16.9999 0.0656738C17.4699 0.0656738 17.8976 0.332381 18.1025 0.753583C19.6865 4.00286 22.4121 9.60045 22.4121 9.60045C22.4121 9.60045 28.6098 10.4526 32.2055 10.9486C32.8609 11.0381 33.2626 11.5926 33.2626 12.1634C33.2626 12.4724 33.1455 12.7863 32.8869 13.0351C30.2686 15.5363 25.7606 19.8508 25.7606 19.8508C25.7606 19.8508 26.8616 25.9769 27.4991 29.5303C27.6341 30.2816 27.0519 30.9647 26.2924 30.9647C26.094 30.9647 25.8956 30.9175 25.7151 30.8199C22.5146 29.1156 16.9999 26.1835 16.9999 26.1835C16.9999 26.1835 11.4853 29.1156 8.28479 30.8199C8.10427 30.9175 7.90424 30.9647 7.70584 30.9647C6.94963 30.9647 6.36417 30.28 6.50078 29.5303C7.1399 25.9769 8.24088 19.8508 8.24088 19.8508C8.24088 19.8508 3.73125 15.5363 1.1146 13.0351C0.854396 12.7863 0.737305 12.4724 0.737305 12.1651C0.737305 11.5926 1.14224 11.0364 1.796 10.9486C5.39167 10.4526 11.5877 9.60045 11.5877 9.60045C11.5877 9.60045 14.315 4.00286 15.8973 0.753583ZM16.9999 4.05977L13.1603 11.8528L4.62895 13.0221L10.8868 18.9466L9.34511 27.4926L16.9999 23.4188L24.6548 27.4926L23.1082 18.9775L29.3709 13.0221L20.729 11.7927L16.9999 4.05977Z" fill="white" /></svg>