<?xml version="1.0" encoding="utf-8"?>
<!-- Generator: Adobe Illustrator 28.2.0, SVG Export Plug-In . SVG Version: 6.00 Build 0)  -->
<svg version="1.1" id="Capa_1" xmlns="http://www.w3.org/2000/svg" xmlns:xlink="http://www.w3.org/1999/xlink" x="0px" y="0px"
	 viewBox="0 0 24 24" style="enable-background:new 0 0 24 24;" xml:space="preserve">
<style type="text/css">
	.st0{fill:#FFFFFF;}
</style>
<g>
	<path class="st0" d="M12.7,16.3c-0.7-0.2-1.2-0.6-1.7-1.2c-0.6-0.8-1-2.1-0.2-3.6c-0.7-0.6-0.9-1.4-0.6-2.2
		c0.3-0.8,1.2-1.3,2.1-1.1c0.8,0.2,1.3,0.8,1.4,1.9c0.3,0,0.7,0.1,0.9,0.2c0.2-0.5,0.7-0.8,1.2-1c0.4-0.1,0.8-0.1,1.2,0.2
		c0.7,0.3,1.2,1.2,1,2c-0.2,0.7-0.7,1.4-1.7,1.6c0,1.6-0.8,2.6-2.2,3.1C13.7,16.4,13.2,16.4,12.7,16.3L12.7,16.3z M12.3,8.8
		C12.3,8.7,12.3,8.7,12.3,8.8c-0.7-0.2-1.3,0.2-1.6,0.7c-0.2,0.5-0.1,1.3,0.6,1.7l0.2,0.2l-0.2,0.2c-0.8,1.2-0.6,2.5,0,3.1
		c0.7,0.8,1.7,1.2,2.7,0.9c1.3-0.4,1.9-1.4,1.9-2.9v-0.2h0.2c0.8,0,1.2-0.6,1.4-1.2c0.1-0.6-0.2-1.2-0.7-1.4
		c-0.2-0.2-0.6-0.2-0.8-0.1c-0.5,0.1-0.8,0.4-1,0.9l-0.1,0.3L14.8,11c-0.3-0.2-0.7-0.3-1.2-0.3h-0.2v-0.2C13.3,9.4,13,8.9,12.3,8.8
		L12.3,8.8z"/>
	<path class="st0" d="M6,16.5c-0.2,0.7-0.1,1.3,0.2,1.9c0.3,0.6,0.9,1,1.6,1.2l6.9,1.9c0.3,0.1,0.7,0.1,1,0.1
		c0.3-0.1,0.7-0.2,0.9-0.3c0.2-0.2,0.6-0.4,0.7-0.7c0.2-0.2,0.3-0.6,0.4-0.9L21,7.5c0.2-0.7,0.1-1.3-0.2-1.9c-0.3-0.6-0.9-1-1.6-1.2
		l-6.9-1.9c-0.3-0.1-0.7-0.1-1-0.1c-0.3,0.1-0.7,0.2-0.9,0.3C10.1,3,9.9,3.2,9.7,3.5C9.4,3.7,9.3,4.1,9.2,4.4L6,16.5z M8.1,18.4
		c-0.3-0.1-0.6-0.3-0.7-0.6c-0.2-0.3-0.2-0.7-0.2-1l3.2-12.1c0.1-0.2,0.1-0.3,0.2-0.4C10.8,4.2,10.9,4.1,11,4
		c0.2-0.1,0.3-0.2,0.5-0.2s0.3,0,0.5,0l6.9,1.9c0.7,0.2,1.1,0.9,0.9,1.6l-3.2,12.1c-0.1,0.2-0.1,0.3-0.2,0.4
		c-0.1,0.2-0.2,0.2-0.3,0.3c-0.2,0.1-0.3,0.2-0.5,0.2c-0.2,0-0.3,0-0.5,0L8.1,18.4z M4.6,13.2L3,7C2.8,6.3,2.9,5.6,3.2,5
		c0.3-0.6,0.9-1,1.6-1.2h0.1C4.7,4.2,4.7,4.6,4.7,5.1v0.2C4.5,5.4,4.3,5.6,4.2,5.9c-0.1,0.2-0.1,0.5,0,0.7l0.5,1.7L4.6,13.2z
		 M5.9,11.8V5.1c0-0.7,0.3-1.3,0.7-1.8c0.5-0.5,1.2-0.7,1.8-0.7h0.2C8.4,2.7,8.3,3.1,8.2,3.4L8,3.8C7.8,3.9,7.6,4.1,7.5,4.3
		C7.3,4.5,7.2,4.7,7.2,5.1v2.1L5.9,11.8z"/>
</g>
</svg>
