<svg xmlns="http://www.w3.org/2000/svg" width="24" height="24" viewBox="0 0 24 24" fill="none">
  <g clip-path="url(#clip0_6618_5724)">
    <path d="M0.010101 3.00004C-0.257794 3.00004 -0.514718 3.10013 -0.704148 3.27829C-0.893579 3.45645 -1 3.69808 -1 3.95004C-1 4.20199 -0.893579 4.44363 -0.704148 4.62179C-0.514718 4.79995 -0.257794 4.90004 0.010101 4.90004H2.25252L4.90303 14.875C5.12828 15.7205 5.93333 16.3 6.8596 16.3H19.4556C20.3677 16.3 21.1424 15.73 21.3818 14.9035L24 5.85003H21.8848L19.4545 14.4H6.85859L4.20909 4.42504C4.09964 4.01581 3.84735 3.65295 3.4926 3.39459C3.13786 3.13622 2.70119 2.99729 2.25252 3.00004H0.010101ZM18.1919 16.3C16.5303 16.3 15.1616 17.5873 15.1616 19.15C15.1616 20.7128 16.5303 22 18.1919 22C19.8535 22 21.2222 20.7128 21.2222 19.15C21.2222 17.5873 19.8535 16.3 18.1919 16.3ZM9.10101 16.3C7.43939 16.3 6.07071 17.5873 6.07071 19.15C6.07071 20.7128 7.43939 22 9.10101 22C10.7626 22 12.1313 20.7128 12.1313 19.15C12.1313 17.5873 10.7626 16.3 9.10101 16.3ZM12.1313 3.00004V7.75003H9.10101L13.1414 11.55L17.1818 7.75003H14.1515V3.00004H12.1313ZM9.10101 18.2C9.67071 18.2 10.1111 18.6142 10.1111 19.15C10.1111 19.6858 9.67071 20.1 9.10101 20.1C8.53131 20.1 8.09091 19.6858 8.09091 19.15C8.09091 18.6142 8.53131 18.2 9.10101 18.2ZM18.1919 18.2C18.7616 18.2 19.202 18.6142 19.202 19.15C19.202 19.6858 18.7616 20.1 18.1919 20.1C17.6222 20.1 17.1818 19.6858 17.1818 19.15C17.1818 18.6142 17.6222 18.2 18.1919 18.2Z" fill="#123076"/>
  </g>
  <defs>
    <clipPath id="clip0_6618_5724">
      <rect width="24" height="24" fill="white"/>
    </clipPath>
  </defs>
</svg>