<svg xmlns="http://www.w3.org/2000/svg" width="24" height="24" viewBox="0 0 24 24" fill="none">
<path d="M12 23C5.9247 23 1 18.0753 1 12C1 5.9247 5.9247 1 12 1C18.0753 1 23 5.9247 23 12C23 18.0753 18.0753 23 12 23ZM12 20.8C14.3339 20.8 16.5722 19.8729 18.2225 18.2225C19.8729 16.5722 20.8 14.3339 20.8 12C20.8 9.66609 19.8729 7.42778 18.2225 5.77746C16.5722 4.12714 14.3339 3.2 12 3.2C9.66609 3.2 7.42778 4.12714 5.77746 5.77746C4.12714 7.42778 3.2 9.66609 3.2 12C3.2 14.3339 4.12714 16.5722 5.77746 18.2225C7.42778 19.8729 9.66609 20.8 12 20.8ZM6.5 13.1H16.4V15.3H12V18.6L6.5 13.1ZM12 8.7V5.4L17.5 10.9H7.6V8.7H12Z" fill="#123076"/>
</svg>