<svg xmlns="http://www.w3.org/2000/svg" width="20" height="25" viewBox="0 0 20 25" fill="none">
  <g clip-path="url(#clip0_6668_3028)">
    <path d="M5.13356 10.0899C3.85137 8.70971 4.71771 7.0997 6.06172 7.01695C5.99148 6.86882 5.93716 6.73704 5.86972 6.61241C5.14293 5.28435 4.41051 3.95936 3.68559 2.62926C3.33999 1.99384 3.51419 1.68532 4.18667 1.5658C4.54257 1.50246 4.90972 1.3482 5.21317 1.13571C6.40545 0.30108 7.58181 0.274519 8.7563 1.13776C9.59081 1.7507 10.4019 1.74764 11.2355 1.13571C12.3931 0.284735 13.5545 0.303123 14.7402 1.11017C15.0717 1.33594 15.4679 1.49122 15.8538 1.56784C16.4523 1.68737 16.6377 2.01427 16.3249 2.59044C15.6178 3.89194 14.9003 5.1873 14.1876 6.48573C14.1014 6.64305 14.02 6.80446 13.9104 7.01491C14.6503 7.09357 15.1944 7.43376 15.4183 8.19688C15.6393 8.95183 15.3602 9.55456 14.8751 10.0347C15.6384 10.7968 16.4186 11.5037 17.1219 12.2924C18.4809 13.8166 19.4981 15.5635 19.8774 17.6955C20.3794 20.5151 19.3604 22.5225 16.8925 23.539C15.4754 24.1223 13.9909 24.3338 12.4933 24.4073C10.0769 24.5268 7.65112 24.6116 5.26094 24.1243C4.23256 23.9149 3.19388 23.5778 2.25354 23.0864C0.564861 22.2058 -0.107612 20.6091 0.0141449 18.5986C0.141522 16.4921 0.947928 14.6849 2.19641 13.1332C2.99438 12.1412 3.93566 11.2882 4.81512 10.3749C4.91346 10.2727 5.02585 10.1859 5.13356 10.0899ZM9.9823 10.3279C8.99888 10.3279 8.01546 10.3095 7.03297 10.3402C6.77166 10.3483 6.46633 10.4362 6.26309 10.6047C5.47073 11.2647 4.66807 11.9216 3.94877 12.6714C2.61038 14.0659 1.55671 15.6738 1.13806 17.6925C0.626677 20.1596 1.4284 21.7768 3.62096 22.5818C4.29625 22.83 5.00525 23.0037 5.71144 23.1079C8.35169 23.4991 11.0069 23.5185 13.6491 23.1855C14.7664 23.0445 15.8931 22.7411 16.9449 22.307C18.421 21.6981 19.0382 20.5008 18.9773 18.7794C18.9324 17.5106 18.5493 16.3471 17.9527 15.2683C16.8513 13.2741 15.3068 11.755 13.5526 10.473C13.4112 10.3698 13.2023 10.3371 13.0244 10.334C12.01 10.3218 10.9957 10.3279 9.98137 10.3279H9.9823ZM15.1345 2.63335C14.7561 2.39328 14.404 2.18079 14.0612 1.95195C13.3559 1.47998 12.6254 1.43504 11.9482 1.9448C10.6323 2.93472 9.35385 2.95106 8.04636 1.9448C7.51251 1.53413 6.89904 1.46875 6.30805 1.74968C5.8051 1.98873 5.34148 2.3279 4.85071 2.62926C5.56627 3.92871 6.26403 5.19752 6.96179 6.46632C7.33455 7.14363 7.41042 7.17734 8.28426 6.95259C7.98549 6.20888 7.71013 5.4805 7.39918 4.76947C7.25026 4.42929 7.14443 4.10136 7.48909 3.87661C7.85155 3.64063 8.11848 3.86538 8.27677 4.23212C8.52777 4.81545 8.79845 5.39366 8.99139 5.99946C9.32762 7.05986 9.30515 7.05271 10.342 7.06292C10.6726 7.06599 10.7587 6.94136 10.8599 6.60015C11.1081 5.76552 11.4406 4.95949 11.76 4.15244C11.8995 3.79897 12.1861 3.67638 12.4933 3.87048C12.8136 4.07378 12.7808 4.3966 12.6113 4.71533C12.5326 4.86244 12.4446 5.00546 12.3875 5.16278C12.1664 5.76245 11.9557 6.36621 11.7412 6.96894C11.7881 7.02206 11.8349 7.0762 11.8826 7.12933C12.1908 7.04147 12.6516 7.0619 12.7818 6.84635C13.6069 5.4713 14.359 4.04415 15.1354 2.63437L15.1345 2.63335ZM9.98886 9.22663C11.2514 9.22663 12.513 9.22255 13.7755 9.2297C14.1398 9.23174 14.4676 9.15206 14.4723 8.68724C14.4779 8.21731 14.1455 8.13252 13.7839 8.13354C11.2598 8.13558 8.73476 8.13456 6.21064 8.13354C5.8538 8.13354 5.51475 8.20709 5.51382 8.68009C5.51288 9.14695 5.83601 9.23276 6.20221 9.23072C7.46474 9.22357 8.72633 9.22765 9.98886 9.22765V9.22663Z" fill="white"/>
    <path d="M9.44562 14.1068C9.62545 13.6205 9.21803 12.8176 9.99166 12.8135C10.769 12.8094 10.3597 13.6165 10.5574 14.1313C10.7391 14.1313 10.9648 14.1293 11.1905 14.1313C11.5286 14.1354 11.7356 14.3336 11.7337 14.6901C11.7318 15.0242 11.5164 15.2163 11.2111 15.2244C10.681 15.2397 10.1499 15.2377 9.61983 15.2316C9.2761 15.2275 9.01385 15.3593 9.01011 15.7618C9.00636 16.1633 9.26392 16.3083 9.60953 16.3012C9.90549 16.295 10.2033 16.2889 10.4984 16.3073C11.2982 16.3574 11.8948 16.9417 11.9707 17.7344C12.0559 18.6273 11.6185 19.3271 10.7887 19.5355C10.5161 19.6039 10.4852 19.7398 10.4824 19.9881C10.4749 20.6889 10.3185 20.9872 9.97292 20.9371C9.44656 20.8615 9.49807 20.4059 9.49807 19.9942C9.49807 19.8787 9.48121 19.7633 9.46904 19.6029C9.20866 19.5896 8.93986 19.6417 8.72726 19.5467C8.53525 19.4609 8.28144 19.2137 8.28144 19.037C8.28144 18.8602 8.54649 18.5538 8.7207 18.5303C9.24332 18.4598 9.77905 18.4945 10.3092 18.4976C10.6585 18.4996 10.9676 18.3934 10.976 17.9653C10.9854 17.5066 10.6772 17.382 10.2998 17.4004C10.0666 17.4116 9.8315 17.4045 9.59735 17.4014C8.74411 17.3912 8.10349 16.8201 8.01638 15.9957C7.92085 15.0906 8.37884 14.3918 9.22271 14.1548C9.29764 14.1334 9.37444 14.1211 9.44375 14.1058L9.44562 14.1068Z" fill="white"/>
  </g>
  <defs>
    <clipPath id="clip0_6668_3028">
      <rect width="20" height="24" fill="white" transform="translate(0 0.5)"/>
    </clipPath>
  </defs>
</svg>