<?xml version="1.0" encoding="UTF-8"?>
<svg enable-background="new 0 0 502.7 493" version="1.1" viewBox="0 0 502.7 493" xml:space="preserve" xmlns="http://www.w3.org/2000/svg" xmlns:xlink="http://www.w3.org/1999/xlink">
<style type="text/css">
	.st0{fill:none;}
	.st1{clip-path:url(#SVGID_00000042722045188314832830000002061916436512854660_);}
	polygon, path{opacity: .25; fill:#D9E3E9;}
</style>
<rect class="st0" width="1920" height="493"/>
	<defs>
		<rect id="a" width="502.7" height="493"/>
	</defs>
	<clipPath id="b">
		<use xlink:href="#a"/>
	</clipPath>
	<g clip-path="url(#b)">
						<polygon points="13.1 9 11.2 12.3 14.9 12.3"/>
						<polygon points="39.5 9 37.7 12.3 41.4 12.3"/>
						<polygon points="66 9 64.1 12.3 67.9 12.3"/>
						<polygon points="92.5 9 90.6 12.3 94.3 12.3"/>
						<polygon points="118.9 9 117.1 12.3 120.8 12.3"/>
						<polygon points="145.4 9 143.5 12.3 147.3 12.3"/>
						<polygon points="171.9 9 170 12.3 173.7 12.3"/>
						<polygon points="198.3 9 196.4 12.3 200.2 12.3"/>
						<polygon points="224.8 9 222.9 12.3 226.7 12.3"/>
						<polygon points="251.3 9 249.4 12.3 253.1 12.3"/>
						<polygon points="277.7 9 275.9 12.3 279.6 12.3"/>
						<polygon points="304.2 9 302.3 12.3 306.1 12.3"/>
						<polygon points="330.7 9 328.8 12.3 332.5 12.3"/>
						<polygon points="357.1 9 355.3 12.3 359 12.3"/>
						<polygon points="383.6 9 381.7 12.3 385.5 12.3"/>
						<polygon points="410.1 9 408.2 12.3 412 12.3"/>
						<polygon points="436.5 9 434.7 12.3 438.4 12.3"/>
						<polygon points="463 9 461.1 12.3 464.9 12.3"/>
						<polygon points="489.5 9 487.6 12.3 491.4 12.3"/>
						<polygon points="515.9 9 514.1 12.3 517.8 12.3"/>
						<polygon points="-0.2 34.2 -3.6 40.1 3.2 40.1"/>
						<polygon points="26.3 34.2 22.9 40.1 29.7 40.1"/>
						<polygon points="52.8 34.2 49.4 40.1 56.2 40.1"/>
						<polygon points="79.2 34.2 75.8 40.1 82.6 40.1"/>
						<polygon points="105.7 34.2 102.3 40.1 109.1 40.1"/>
						<polygon points="132.2 34.2 128.8 40.1 135.6 40.1"/>
						<polygon points="158.6 34.2 155.2 40.1 162 40.1"/>
						<polygon points="185.1 34.2 181.7 40.1 188.5 40.1"/>
						<polygon points="211.6 34.2 208.2 40.1 215 40.1"/>
						<polygon points="238 34.2 234.6 40.1 241.4 40.1"/>
						<polygon points="264.5 34.2 261.1 40.1 267.9 40.1"/>
						<polygon points="291 34.2 287.6 40.1 294.4 40.1"/>
						<polygon points="317.4 34.2 314 40.1 320.8 40.1"/>
						<polygon points="343.9 34.2 340.5 40.1 347.3 40.1"/>
						<polygon points="370.4 34.2 367 40.1 373.8 40.1"/>
						<polygon points="396.8 34.2 393.4 40.1 400.2 40.1"/>
						<polygon points="423.3 34.2 419.9 40.1 426.7 40.1"/>
						<polygon points="449.8 34.2 446.4 40.1 453.2 40.1"/>
						<polygon points="476.2 34.2 472.8 40.1 479.6 40.1"/>
						<polygon points="502.7 34.2 499.3 40.1 506.1 40.1"/>
						<polygon points="13.1 59.4 8.2 67.8 17.9 67.8"/>
						<polygon points="39.5 59.4 34.7 67.8 44.3 67.8"/>
						<polygon points="66 59.4 61.2 67.8 70.8 67.8"/>
						<polygon points="92.5 59.4 87.7 67.8 97.3 67.8"/>
						<polygon points="118.9 59.4 114.1 67.8 123.7 67.8"/>
						<polygon points="145.4 59.4 140.6 67.8 150.2 67.8"/>
						<polygon points="171.9 59.4 167.1 67.8 176.7 67.8"/>
						<polygon points="198.3 59.4 193.5 67.8 203.1 67.8"/>
						<polygon points="224.8 59.4 220 67.8 229.6 67.8"/>
						<polygon points="251.3 59.4 246.5 67.8 256.1 67.8"/>
						<polygon points="277.7 59.4 272.9 67.8 282.5 67.8"/>
						<polygon points="304.2 59.4 299.4 67.8 309 67.8"/>
						<polygon points="330.7 59.4 325.9 67.8 335.5 67.8"/>
						<polygon points="357.1 59.4 352.3 67.8 361.9 67.8"/>
						<polygon points="383.6 59.4 378.8 67.8 388.4 67.8"/>
						<polygon points="410.1 59.4 405.3 67.8 414.9 67.8"/>
						<polygon points="436.5 59.4 431.7 67.8 441.3 67.8"/>
						<polygon points="463 59.4 458.2 67.8 467.8 67.8"/>
						<polygon points="489.5 59.4 484.7 67.8 494.3 67.8"/>
						<polygon points="515.9 59.4 511.1 67.8 520.8 67.8"/>
						<polygon points="-0.2 84.6 -6.5 95.5 6.2 95.5"/>
						<polygon points="26.3 84.6 20 95.5 32.6 95.5"/>
						<polygon points="52.8 84.6 46.4 95.5 59.1 95.5"/>
						<polygon points="79.2 84.6 72.9 95.5 85.6 95.5"/>
						<polygon points="105.7 84.6 99.4 95.5 112 95.5"/>
						<polygon points="132.2 84.6 125.8 95.5 138.5 95.5"/>
						<polygon points="158.6 84.6 152.3 95.5 165 95.5"/>
						<polygon points="185.1 84.6 178.8 95.5 191.4 95.5"/>
						<polygon points="211.6 84.6 205.2 95.5 217.9 95.5"/>
						<polygon points="238 84.6 231.7 95.5 244.4 95.5"/>
						<polygon points="264.5 84.6 258.2 95.5 270.8 95.5"/>
						<polygon points="291 84.6 284.6 95.5 297.3 95.5"/>
						<polygon points="317.4 84.6 311.1 95.5 323.8 95.5"/>
						<polygon points="343.9 84.6 337.6 95.5 350.2 95.5"/>
						<polygon points="370.4 84.6 364 95.5 376.7 95.5"/>
						<polygon points="396.8 84.6 390.5 95.5 403.2 95.5"/>
						<polygon points="423.3 84.6 417 95.5 429.6 95.5"/>
						<polygon points="449.8 84.6 443.4 95.5 456.1 95.5"/>
						<polygon points="476.2 84.6 469.9 95.5 482.6 95.5"/>
						<polygon points="502.7 84.6 496.4 95.5 509 95.5"/>
						<polygon points="5.2 123.3 20.9 123.3 13.1 109.7"/>
						<polygon points="31.7 123.3 47.4 123.3 39.5 109.7"/>
						<polygon points="58.1 123.3 73.8 123.3 66 109.7"/>
						<polygon points="84.6 123.3 100.3 123.3 92.5 109.7"/>
						<polygon points="111.1 123.3 126.8 123.3 118.9 109.7"/>
						<polygon points="137.5 123.3 153.2 123.3 145.4 109.7"/>
						<polygon points="164 123.3 179.7 123.3 171.9 109.7"/>
						<polygon points="190.5 123.3 206.2 123.3 198.3 109.7"/>
						<polygon points="216.9 123.3 232.7 123.3 224.8 109.7"/>
						<polygon points="243.4 123.3 259.1 123.3 251.3 109.7"/>
						<polygon points="269.9 123.3 285.6 123.3 277.7 109.7"/>
						<polygon points="296.3 123.3 312.1 123.3 304.2 109.7"/>
						<polygon points="322.8 123.3 338.5 123.3 330.7 109.7"/>
						<polygon points="349.3 123.3 365 123.3 357.1 109.7"/>
						<polygon points="375.7 123.3 391.5 123.3 383.6 109.7"/>
						<polygon points="402.2 123.3 417.9 123.3 410.1 109.7"/>
						<polygon points="428.7 123.3 444.4 123.3 436.5 109.7"/>
						<polygon points="455.1 123.3 470.9 123.3 463 109.7"/>
						<polygon points="481.6 123.3 497.3 123.3 489.5 109.7"/>
						<polygon points="508.1 123.3 523.8 123.3 515.9 109.7"/>
						<polygon points="-0.2 135 -9.4 151 9.1 151"/>
						<polygon points="17 151 35.6 151 26.3 135"/>
						<polygon points="43.5 151 62 151 52.8 135"/>
						<polygon points="70 151 88.5 151 79.2 135"/>
						<polygon points="96.4 151 115 151 105.7 135"/>
						<polygon points="122.9 151 141.4 151 132.2 135"/>
						<polygon points="149.4 151 167.9 151 158.6 135"/>
						<polygon points="175.8 151 194.4 151 185.1 135"/>
						<polygon points="202.3 151 220.8 151 211.6 135"/>
						<polygon points="228.8 151 247.3 151 238 135"/>
						<polygon points="255.2 151 273.8 151 264.5 135"/>
						<polygon points="281.7 151 300.2 151 291 135"/>
						<polygon points="308.2 151 326.7 151 317.4 135"/>
						<polygon points="334.6 151 353.2 151 343.9 135"/>
						<polygon points="361.1 151 379.6 151 370.4 135"/>
						<polygon points="387.6 151 406.1 151 396.8 135"/>
						<polygon points="414 151 432.6 151 423.3 135"/>
						<polygon points="440.5 151 459 151 449.8 135"/>
						<polygon points="467 151 485.5 151 476.2 135"/>
						<polygon points="502.7 135 493.4 151 512 151"/>
						<polygon points="23.9 178.8 13.1 160.1 2.3 178.8"/>
						<polygon points="39.5 160.1 28.7 178.8 50.3 178.8"/>
						<polygon points="66 160.1 55.2 178.8 76.8 178.8"/>
						<polygon points="92.5 160.1 81.7 178.8 103.2 178.8"/>
						<polygon points="118.9 160.1 108.1 178.8 129.7 178.8"/>
						<polygon points="145.4 160.1 134.6 178.8 156.2 178.8"/>
						<polygon points="171.9 160.1 161.1 178.8 182.6 178.8"/>
						<polygon points="198.3 160.1 187.5 178.8 209.1 178.8"/>
						<polygon points="224.8 160.1 214 178.8 235.6 178.8"/>
						<polygon points="251.3 160.1 240.5 178.8 262.1 178.8"/>
						<polygon points="277.7 160.1 266.9 178.8 288.5 178.8"/>
						<polygon points="304.2 160.1 293.4 178.8 315 178.8"/>
						<polygon points="330.7 160.1 319.9 178.8 341.5 178.8"/>
						<polygon points="357.1 160.1 346.3 178.8 367.9 178.8"/>
						<polygon points="383.6 160.1 372.8 178.8 394.4 178.8"/>
						<polygon points="410.1 160.1 399.3 178.8 420.9 178.8"/>
						<polygon points="436.5 160.1 425.8 178.8 447.3 178.8"/>
						<polygon points="463 160.1 452.2 178.8 473.8 178.8"/>
						<polygon points="489.5 160.1 478.7 178.8 500.3 178.8"/>
						<polygon points="505.1 178.8 526.7 178.8 515.9 160.1"/>
						<polygon points="-0.2 185.3 -12.5 206.6 12.1 206.6"/>
						<polygon points="14 206.6 38.6 206.6 26.3 185.3"/>
						<polygon points="52.8 185.3 40.5 206.6 65.1 206.6"/>
						<polygon points="79.2 185.3 66.9 206.6 91.5 206.6"/>
						<polygon points="105.7 185.3 93.4 206.6 118 206.6"/>
						<polygon points="132.2 185.3 119.8 206.6 144.5 206.6"/>
						<polygon points="158.6 185.3 146.3 206.6 170.9 206.6"/>
						<polygon points="185.1 185.3 172.8 206.6 197.4 206.6"/>
						<polygon points="211.6 185.3 199.2 206.6 223.9 206.6"/>
						<polygon points="238 185.3 225.7 206.6 250.4 206.6"/>
						<polygon points="264.5 185.3 252.2 206.6 276.8 206.6"/>
						<polygon points="291 185.3 278.6 206.6 303.3 206.6"/>
						<polygon points="317.4 185.3 305.1 206.6 329.8 206.6"/>
						<polygon points="343.9 185.3 331.6 206.6 356.2 206.6"/>
						<polygon points="370.4 185.3 358 206.6 382.7 206.6"/>
						<polygon points="396.8 185.3 384.5 206.6 409.1 206.6"/>
						<polygon points="423.3 185.3 411 206.6 435.6 206.6"/>
						<polygon points="449.8 185.3 437.5 206.6 462.1 206.6"/>
						<polygon points="476.2 185.3 463.9 206.6 488.5 206.6"/>
						<polygon points="502.7 185.3 490.4 206.6 515 206.6"/>
						<polygon points="25.8 234.3 26.8 234.3 52.3 234.3 53.2 234.3 78.7 234.3 79.7 234.3 105.2 234.3 106.2 234.3 131.7 234.3 132.6 234.3 158.1 234.3 159.1 234.3 184.6 234.3 185.6 234.3 211.1 234.3 212.1 234.3 237.5 234.3 238.5 234.3 264 234.3 265 234.3 290.5 234.3 291.5 234.3 316.9 234.3 317.9 234.3 343.4 234.3 344.4 234.3 369.9 234.3 370.9 234.3 396.4 234.3 397.3 234.3 422.8 234.3 423.8 234.3 449.3 234.3 450.3 234.3 475.8 234.3 476.7 234.3 502.2 234.3 503.2 234.3 529.7 234.3 515.9 210.5 502.7 233.4 489.5 210.5 476.2 233.4 463 210.5 449.8 233.4 436.5 210.5 423.3 233.4 410.1 210.5 396.8 233.4 383.6 210.5 370.4 233.4 357.1 210.5 343.9 233.4 330.7 210.5 317.4 233.4 304.2 210.5 291 233.4 277.7 210.5 264.5 233.4 251.3 210.5 238 233.4 224.8 210.5 211.6 233.4 198.3 210.5 185.1 233.4 171.9 210.5 158.6 233.4 145.4 210.5 132.2 233.4 118.9 210.5 105.7 233.4 92.5 210.5 79.2 233.4 66 210.5 52.8 233.4 39.5 210.5 26.3 233.4 13.1 210.5 -0.7 234.3"/>
						<path d="m518.1 511.9h26.5l-16-27.7h1.3l-16-27.8h27.8l-16-27.8h1.3l-16-27.7h27.8l-16-27.8h1.3l-16-27.8h27.8l-16-27.8h1.3l-16-27.7h27.8l-16-27.8h1.3l-15.2-26.4-13.2 22.9-13.2-22.9-13.3 23-13.2-22.9-13.2 22.9-13.2-22.9-13.2 22.9-13.2-22.9-13.2 22.9-13.2-22.9-13.2 22.9-13.2-22.9-13.2 22.9-13.2-22.9-13.2 22.9-14-22.9-13.2 22.9-13.2-22.9-13.2 22.9-13.2-22.9-13.2 22.9-13.2-22.9-13.2 22.9-13.2-22.9-13.2 22.9-13.2-22.9-13.2 22.9-13.2-22.9-13.6 22.9-13.3-22.9-13.2 22.9-13.2-22.9-13.3 22.9-13.2-22.9-13.2 22.9-13.2-22.9-13.3 22.9-13.2-22.9-15.2 26.4h27.8l-16 27.8h1.3l-16 27.7h27.6l-16 27.8h1.3l-16 27.8h27.7l-16 27.8h1.3l-16 27.7h27.7l-16 27.8h1.3l-16 27.8h27.8l-16 27.7h1.4l-15.9 27.6h562.9l-15.9-27.6 1.1-0.1zm-32.3-194.4-9.6 16.6-9.6-16.6h19.2zm-3 55.6-6.5 11.3-6.5-11.3h13zm-3 55.5-3.6 6.2-3.6-6.2h7.2zm-20.5-111.1-9.6 16.6-9.6-16.6h19.2zm-14.7 27.8-8 13.9-8-13.9h16zm11.7 27.8-6.5 11.3-6.5-11.3h13zm-2.9 55.5-3.6 6.2-3.6-6.2h7.2zm-14.8 27.8-2.1 3.6-2.1-3.6h4.2zm-386.4 27.8h1.2l-0.6 1-0.6-1zm39.5-27.8h2.9l-2.1 3.6-2.1-3.6h1.3zm-2.9-55.5h8.7l-5.1 8.8-5.1-8.8h1.5zm-3.1-55.6h14.8l-8.1 13.9-8.1-13.9h1.4zm332.4 0-8 13.9-8-13.9h16zm-6 111.1-2.1 3.6-2.1-3.6h4.2zm-293.9 0h2.9l-2.1 3.6-2.1-3.6h1.3zm-3-55.5h8.7l-5.1 8.8-5.1-8.8h1.5zm270.5 55.5-2.1 3.6-2.1-3.6h4.2zm-236.6-55.5h1.3l-5.1 8.8-5.1-8.8h8.9zm26.5 0h1.3l-5.1 8.8-5.1-8.8h8.9zm26.4 0h1.3l-5.1 8.8-5.1-8.8h8.9zm26.5 0h1.3l-5.1 8.8-5.1-8.8h8.9zm26.5 0h1.3l-5.1 8.8-5.1-8.8h8.9zm26.5 0h1.3l-5.1 8.8-5.1-8.8h8.9zm26.4 0h1.3l-5.1 8.8-5.1-8.8h8.9zm26.5 0h1.3l-5.1 8.8-5.1-8.8h8.9zm26.5 0h1.3l-5.1 8.8-5.1-8.8h8.9zm13.1 27.7-3.6 6.2-3.6-6.2h7.2zm-191.2 0h5.9l-3.6 6.2-3.6-6.2h1.3zm31.1 0h1.3l-3.6 6.2-3.6-6.2h5.9zm26.4 0h1.3l-3.6 6.2-3.6-6.2h5.9zm26.5 0h1.3l-3.6 6.2-3.6-6.2h5.9zm21.9 0h5.9l-3.6 6.2-3.6-6.2h1.3zm26.4 0h5.9l-3.6 6.2-3.6-6.2h1.3zm31.1 0h1.3l-3.6 6.2-3.6-6.2h5.9zm-189.9 0h5.9l-3.6 6.2-3.6-6.2h1.3zm-10.1 27.8h1.3l-2.1 3.6-2.1-3.6h2.9zm24.9 0h2.9l-2.1 3.6-2.1-3.6h1.3zm26.5 0h2.9l-2.1 3.6-2.1-3.6h1.3zm26.4 0h2.9l-2.1 3.6-2.1-3.6h1.3zm26.5 0h2.9l-2.1 3.6-2.1-3.6h1.3zm26.5 0h2.9l-2.1 3.6-2.1-3.6h1.3zm26.4 0h2.9l-2.1 3.6-2.1-3.6h1.3zm26.5 0h2.9l-2.1 3.6-2.1-3.6h1.3zm26.5 0h2.9l-2.1 3.6-2.1-3.6h1.3zm36.8-27.8h7.2l-3.6 6.2-3.6-6.2zm-4.5-27.7-5.1 8.8-5.1-8.8h10.2zm1.6-27.8h13.1l-6.5 11.3-6.6-11.3zm-13.4 0-6.5 11.3-6.5-11.3h13zm-26.5 0-6.5 11.3-6.5-11.3h13zm-26.4 0-6.5 11.3-6.5-11.3h13zm-33 11.3-6.5-11.3h13.1l-6.6 11.3zm-26.5 0-6.5-11.3h13.1l-6.6 11.3zm-19.9-11.3-6.5 11.3-6.5-11.3h13zm-26.5 0-6.5 11.3-6.5-11.3h13zm-26.5 0-6.5 11.3-6.5-11.3h13zm-33 11.3-6.5-11.3h13.1l-6.6 11.3zm-26.4 0-6.5-11.3h13.1l-6.6 11.3zm-2.3 44.2h5.9l-3.6 6.2-3.6-6.2h1.3zm289.8 0h7.2l-3.6 6.2-3.6-6.2zm-4.6-27.7-5.1 8.8-5.1-8.8h10.2zm1.7-27.8h13.1l-6.5 11.3-6.6-11.3zm-25.2-27.8-8 13.9-8-13.9h16zm-34.5 14-8-13.9h16.1l-8.1 13.9zm-26.4 0-8-13.9h16.1l-8.1 13.9zm-18.5-14-8 13.9-8-13.9h16zm-26.4 0-8 13.9-8-13.9h16zm-26.5 0-8.1 13.9-8.1-13.9h16.2zm-34.5 14-8.1-13.9h16.1l-8 13.9zm-26.5 0-8.1-13.9h16.1l-8 13.9zm-18.4-14-8.1 13.9-8.1-13.9h16.2zm-26.5 0-8.1 13.9-8.1-13.9h16.2zm-26.4 0-8.1 13.9-8.1-13.9h16.2zm-26.5 27.8h11.8l-6.5 11.3-6.5-11.3h1.2zm2.9 55.5h5.9l-3.6 6.2-3.6-6.2h1.3zm-24.8 55.6h1.2l-0.6 1-0.6-1zm26.5 0h1.2l-0.6 1-0.6-1zm26.5 0h1.2l-0.6 1-0.6-1zm26.4 0h1.2l-0.6 1-0.6-1zm26.5 0h1.2l-0.6 1-0.6-1zm26.5 0h1.2l-0.6 1-0.6-1zm26.4 0h1.2l-0.6 1-0.6-1zm26.5 0h1.2l-0.6 1-0.6-1zm26.5 0h1.2l-0.6 1-0.6-1zm26.4 0h1.2l-0.6 1-0.6-1zm26.5 0h1.2l-0.6 1-0.6-1zm26.5 0h1.2l-0.6 1-0.6-1zm26.4 0h1.2l-0.6 1-0.6-1zm26.5 0h1.2l-0.6 1-0.6-1zm26.5 0h1.2l-0.6 1-0.6-1zm-7.6-83.3-5.1 8.8-5.1-8.8h10.2zm-18.3-66.8-9.6-16.6h19.2l-9.6 16.6zm-26.5 0-9.6-16.6h19.2l-9.6 16.6zm-16.9-16.6-9.6 16.6-9.6-16.6h19.2zm-26.4 0-9.6 16.6-9.6-16.6h19.2zm-26.5 0-9.6 16.6-9.6-16.6h19.2zm-36 16.6-9.6-16.6h19.2l-9.6 16.6zm-26.5 0-9.6-16.6h19.2l-9.6 16.6zm-16.9-16.6-9.6 16.6-9.6-16.6h19.2zm-26.5 0-9.6 16.6-9.6-16.6h19.2zm-26.4 0-9.6 16.6-9.6-16.6h19.2zm-36.1 16.6-9.6-16.6h19.2l-9.6 16.6zm-26.4 0-9.6-16.6h19.2l-9.6 16.6zm-16.9-16.6-9.6 16.6-9.6-16.6h19.2zm-26.5 0-9.6 16.6-9.6-16.6h19.2zm-14.8 27.8-8 13.9-8.1-13.9h16.1zm0 27.8h11.8l-6.5 11.3-6.5-11.3h1.2zm-4.3 27.8h1.3l-5.1 8.8-5.1-8.8h8.9zm7.2 27.7h5.9l-3.6 6.2-3.6-6.2h1.3zm-10.1 27.8h1.3l-2.1 3.6-2.1-3.6h2.9zm408.8 27.8h1.2l-0.6 1-0.6-1zm-14.7-27.8h4.2l-2.1 3.6-2.1-3.6zm2.1-46.7-5.1-8.8h10l-4.9 8.8zm0-50.4-8-13.9h16.1l-8.1 13.9zm0-50.3-11-19.1h22l-11 19.1zm-15.4-19.1-11 19.1-11-19.1h22zm-26.5 0-11 19.1-11-19.1h22zm-26.5 0-11 19.1-11-19.1h22zm-37.5 19.1-11-19.1h22l-11 19.1zm-26.4 0-11-19.1h22l-11 19.1zm-15.5-19.1-11 19.1-11-19.1h22zm-26.4 0-11 19.1-11-19.1h22zm-26.5 0-11 19.1-11-19.1h22zm-37.5 19.1-11-19.1h22l-11 19.1zm-26.5 0-11-19.1h22l-11 19.1zm-15.4-19.1-11 19.1-11-19.1h22zm-26.5 0-11 19.1-11-19.1h22zm-26.4 0-11 19.1-11-19.1h22zm-37.5 19.1-11-19.1h22l-11 19.1zm-26.5 0-11-19.1h22l-11 19.1zm-15.4-19.1-11 19.1-11-19.1h22zm-6.1 27.6h17.9l-9.6 16.6-9.6-16.6h1.3zm3.1 27.8-8 13.9-8-13.9h16zm-0.1 27.8h11.8l-6.5 11.3-6.5-11.3h1.2zm-4.3 27.8h1.3l-5.1 8.8-5.1-8.8h8.9zm7.3 27.7h5.9l-3.6 6.2-3.6-6.2h1.3zm-10.2 27.8h1.3l-2.1 3.6-2.1-3.6h2.9zm-13.4 27.8-0.6 1-0.6-1h1.2zm475.2 0h1.2l-0.6 1-0.6-1zm-12.6-24.2-2.1-3.6h4.2l-2.1 3.6zm13.2-25.2-3.6-6.2h7.2l-3.6 6.2zm-13.2-25.1-5.1-8.8h10l-4.9 8.8zm13.2-25.3-6.5-11.3h13.1l-6.6 11.3zm-13.2-25.1-8-13.9h16.1l-8.1 13.9zm13.2-25.2-9.6-16.6h19.2l-9.6 16.6zm-13.2-25.1-11-19.1h22l-11 19.1zm25.7-46.9-12.5 21.7-12.5-21.7h25zm-27.7 0h1.3l-12.5 21.7-12.5-21.7h23.7zm-26.5 0h1.3l-12.5 21.7-12.5-21.7h23.7zm-26.5 0h1.3l-12.5 21.7-12.5-21.7h23.7zm-26.5 0h1.3l-12.5 21.7-12.5-21.7h23.7zm-26.4 0h1.3l-12.5 21.7-12.5-21.7h23.7zm-26.5 0h1.3l-12.5 21.7-12.5-21.7h23.7zm-26.5 0h1.3l-12.5 21.7-12.5-21.7h23.7zm-26.4 0h1.3l-12.5 21.6-12.5-21.7h23.7zm-26.5 0h1.3l-12.5 21.7-12.5-21.7h23.7zm-26.5 0h1.3l-12.5 21.6-12.5-21.7h23.7zm-26.4 0h1.3l-12.5 21.7-12.5-21.7h23.7zm-26.5 0h1.3l-12.5 21.7-12.5-21.7h23.7zm-26.4 0h1.3l-12.5 21.7-12.5-21.7h23.7zm-26.5 0h1.3l-12.5 21.7-12.5-21.7h23.7zm-26.5 0h1.3l-12.5 21.7-12.5-21.7h23.7zm-26.5 0h1.3l-12.5 21.7-12.5-21.7h23.7zm-26.4 0h1.3l-12.5 21.7-12.5-21.7h23.7zm-48.9 0h23.7l-12.5 21.7-12.5-21.7h1.3zm-13.1 27.8h22l-11 19.1-11-19.1zm16 27.6h17.9l-9.6 16.6-9.6-16.6h1.3zm-13 27.8h16.1l-8.1 13.9-8-13.9zm16 27.8h11.8l-6.5 11.3-6.5-11.3h1.2zm-13 27.8h10.1l-5.1 8.8-5-8.8zm16 27.7h5.9l-3.6 6.2-3.6-6.2h1.3zm-13 27.8h4.2l-2.1 3.6-2.1-3.6z"/>
	</g>
</svg>
