<?xml version="1.0" encoding="utf-8"?>
<!-- Generator: Adobe Illustrator 24.0.0, SVG Export Plug-In . SVG Version: 6.00 Build 0)  -->
<svg version="1.1" id="Capa_1" xmlns="http://www.w3.org/2000/svg" xmlns:xlink="http://www.w3.org/1999/xlink" x="0px" y="0px"
	 viewBox="0 0 180 100" style="enable-background:new 0 0 180 100;" xml:space="preserve">
<style type="text/css">
	.st0{fill-rule:evenodd;clip-rule:evenodd;fill:#0058A0;}
	.st1{fill-rule:evenodd;clip-rule:evenodd;fill:#009BDB;stroke:#009BDB;stroke-width:0.1156;stroke-miterlimit:2.6131;}
	.st2{fill-rule:evenodd;clip-rule:evenodd;fill:#FFFFFF;stroke:#FFFFFF;stroke-width:0.1156;stroke-miterlimit:2.6131;}
</style>
<path class="st0" d="M50.2,81c-1.1-0.1-1.7-0.1-3.1-0.1c-1.7,0.1-3.7,1.4-3.5,3.6c0.1,1.4,2.8,2.6,4.7,1.1C50,84.5,50,82.8,50.2,81
	L50.2,81z M50.4,87c-1.8,1.5-2.5,2.6-5.3,2.9c-2.3,0.3-7.3-1-7.6-4.4c-0.4-4.1,1.1-6.3,9.1-6.6l3.7-0.1c0-1.6,0-3.1-1.8-3.4
	c-2.6-0.5-5.4,0.2-8.2,1.7l-1.2-3.6c7.8-2.4,12.2-1.3,14.9-0.5c1.6,0.5,2.8,3,2.7,5.6l-0.1,8.4c0.1,1,0.4,1.9,0.8,2.9l-6.7-0.1
	L50.4,87L50.4,87z M66.2,89.6l-7.6,0.2c0.8-6.3,1.2-19.4-1-22.5c2.6,0,5.3-0.4,7.9-0.9C65,74.2,64.8,82.8,66.2,89.6L66.2,89.6z
	 M74.6,75.8c3-3.2,7.4-5.5,12.5-0.8c2.1,2,1.6,7.8-0.1,11c-1.5,2.8-8.2,5.1-12.2,3.6C74.6,92.3,75,95,76,97.5h-8.5
	c1.2-4.2,1.9-22.4-1.2-24.8h8.5L74.6,75.8L74.6,75.8z M74.3,86.5c4.9,2.2,8.4-0.6,7.8-5.3c-1.1-8.5-7.5-4.3-7.5-2.1L74.3,86.5
	L74.3,86.5z M103.1,86.7c-1.5,1.7-3.7,3.4-6.1,3.4c-4.6,0-6.9-1-7.1-5.3c-0.2-4.1,0.6-10-1.1-12.1h7.8L96,83.5
	c-0.2,4.4,7.3,2.9,6.9,0.2c-0.3-3.9,0.2-7.2-0.9-10.9h7.6c-0.7,5.7-0.7,13.1,0.6,17h-7L103.1,86.7L103.1,86.7z M126,77.6
	c-2-1.7-6.2-0.4-6.7,1.1c-0.7,1.9-1.6,9.4,0.6,11.2h-8.1c1-3.9,1.3-13.3-0.5-17h8l-0.2,3.6c1.1-1.7,3.7-4,7.1-4.1L126,77.6L126,77.6
	z M134.9,81c-1.9-0.5-8.6,0.7-6.4,4.3c0.9,1.6,2.6,1.5,3.9,0.8C134.6,84.8,134.4,83.9,134.9,81L134.9,81z M134.4,87.5
	c-3.2,2.7-6,2.9-9.9,1.7c-1.6-0.5-3.1-2.9-3.1-4.4c0-6.4,9.1-5.7,13.3-5.7c0-1.2,0-1.9-0.4-2.5c-0.6-0.9-4.6-1.5-6.3-0.6l0.1-3.4
	c5.7-0.7,12.6-0.8,12.8,4.5c0,3.8-0.5,9.2,0.3,12.6l-6.5-0.1L134.4,87.5L134.4,87.5z"/>
<path class="st1" d="M88.8,63.9c8.7-17.6,20.1-25.9,32.4-28.1c0.5,2-1.3,10.2-3.3,12.8c-9.8,0.4-19.5,5.2-28.9,17.2L88.8,63.9
	L88.8,63.9z"/>
<path class="st1" d="M61.2,49c-2-3.8-3.3-8.2-3.4-13.6c4.1,1.1,7.9,2.6,11.5,4.5c2.4,0.6,3.4,2.6,3.4,3.9c-0.2,1.3,0.5,2.2,1.9,2.6
	c1,0.2,1.8,0.2,2.8,0.2c1.1,0,2.2,0.7,3.6,2.9l1.4,2.2c-1,1.3-1.9,3.1-2,5C74.8,52.2,68.4,49.9,61.2,49L61.2,49z"/>
<path class="st0" d="M57.7,35.3c0-0.2,0-0.3,0-0.5c0-0.2,0-0.5,0-0.7C58.3,17.3,72.4,3.7,89.5,3.7c14.4,0,26.6,9.5,30.5,22.5
	c0.3,1.3,0.6,2.6,0.8,3.9c-5.3,0.4-10.5-0.5-15.1-3.2c-0.5-0.3-0.4-1.6,1.6-0.7c1,0.4,2.1-0.2,3.1-2.1c0.9-1.7,1.6-3.5,2.2-5.3
	c-1.2-1-2.4-1.8-3.6-2.4c-2.6-1-4.7-0.7-6,1.5c-0.7,1.2-2.1,0.9-1.2-0.2c2.1-2.5,2.2-5.9,0.5-7.3c-2-1.7-2.6-1.2-1.6,0.2
	c0.6,0.8,0.4,2.3-0.5,3.4c-1.5,1.3-3.4,1.3-6-0.2c-4.1-2.2-9.2-2.3-13.5,0.4c-1.6,1.1-2.9,0.8-4.3,0.1c-1-0.7-1.1-2.1-0.7-2.9
	c0.7-1,0.4-3.1-1.3-0.3c-1.2,2.2-0.4,4.8,1,6.3c1.2,1.5,0,2.1-1.1,0.9c-1.6-2.1-3.6-2.6-5.2-1.7c-1.7,1-3,2.1-4,3.5l5.4,6.4
	c0.6,0.7,2.2,0.7,2.7,0c1.5-1.4,2.6-1,3.5,1.1c0.5,1.4-0.6,1.7-1.3,1.1c-0.6,0-1.3,0.3-0.7,1.7c0.9,1.2,1.3,2.6,1.5,3.8l-1.8,1.5
	c-1.3,1.6-2,3.2-1.6,4.5c0.3,1.4,0.6,2.9,1.2,4.3l3.6,0.6c3.2,0.5,6.4,0.7,9.6,0.4c1.2-0.4,2.1-1.5,2.8-3.1c0.6-1.7,2-0.9,1.6,0.6
	c-1,2.9-2.6,4.6-5.4,4.2l0.7,2.4c-1.9,0.1-3.4,0.8-4.6,2.1l-2.5-3.6c-1-1.1-2.1-1.7-3.4-1.5c-2.6-0.1-3.9-0.8-4-2.2
	c0-2.2-1-3.8-3.6-4.6C65.2,37.9,61.5,36.5,57.7,35.3L57.7,35.3z"/>
<path class="st0" d="M111.2,57.7c-5.7,5.2-13.3,8.3-21.6,8.3c-10.6,0-20-5.1-25.8-12.9c-0.6-0.9-1.2-1.7-1.7-2.6
	c-0.3-0.6-0.6-1.1-0.9-1.7C71.2,50.3,80.9,54,89,65.7c10.5-13.5,20-16.5,29-17.3C116.2,52,113.9,55.1,111.2,57.7L111.2,57.7z"/>
<path class="st2" d="M84.1,57.4c-1.1-0.9-2.1-1.1-3-1.1c-0.7,0-1,0.6-0.6,1.1c1.3,2.1,3.6,3.2,6.2,3.6c0.5,0.1,0.9-0.5,0.6-1
	c-0.2-0.4-0.4-0.7-0.7-1.1c-0.6,0.9-1.4,1.2-2.4,0.8C83.2,59.1,83.2,58.3,84.1,57.4L84.1,57.4z"/>
<path class="st0" d="M89.4,60.7c2.5-3.2,3.4-6.2,2.2-9c-0.3-0.6-1.1-0.6-1,0.1c0.5,1.3,0.5,2.7-0.3,4c-0.7,0.4-1.4,0.4-2.1,0.1
	c-1.6-0.9-3.2-1.3-4.8-1.5c-0.7,0-0.9,0.7-0.1,0.8C87,56.3,88.9,58.1,89.4,60.7L89.4,60.7z"/>
<path class="st0" d="M84.9,56.8c-1.1-0.9-2.1-1.1-3-1.1c-0.7,0-1,0.6-0.6,1.1c1.4,2.1,3.6,3.1,6.2,3.6c0.5,0.1,0.9-0.5,0.6-1
	c-0.2-0.4-0.4-0.7-0.7-1c-0.6,0.9-1.4,1.2-2.4,0.8C84,58.5,84,57.6,84.9,56.8L84.9,56.8z"/>
<path class="st0" d="M77.3,38.6c1.1-0.6,2.1,0,1.8,1.2c-0.1,0.6-0.4,0.5-1.1,0.7c-0.2,0.3,0.2,0.6,0.6,0.8c0.4,0.2-0.1,0.7-0.7,0.3
	C76.7,41.2,76.1,39.8,77.3,38.6L77.3,38.6z"/>
<path class="st0" d="M84.8,38.9c-1.1-0.6-2.1,0-1.8,1.2c0.1,0.6,0.4,0.5,1.1,0.7c0.2,0.3-0.3,0.6-0.6,0.8c-0.4,0.2,0.1,0.7,0.7,0.3
	C85.3,41.5,85.9,40.2,84.8,38.9L84.8,38.9z"/>
<path class="st0" d="M89.9,29.4c0.6-1.7,1.5-2.9,2.6-3.6c1.7-1.1,3.4-0.9,5.1,0.2c0.7,0.5,0.1,1.4-0.5,1.2c-0.3-0.2-1.1-0.2-1,0.1
	c-0.1,2-1.2,2.8-3,2.8c-0.4,0-0.7-0.2-1-0.4c-0.3-0.3-0.8-0.2-0.8,0.1C90.7,31,89.4,30.6,89.9,29.4L89.9,29.4z M94.9,27
	c0.4,0,0.7,0.3,0.7,0.7c0,0.4-0.3,0.7-0.7,0.7c-0.4,0-0.7-0.3-0.7-0.7C94.1,27.3,94.5,27,94.9,27L94.9,27z"/>
</svg>
