<?xml version="1.0" encoding="utf-8"?>
<!-- Generator: Adobe Illustrator 24.0.0, SVG Export Plug-In . SVG Version: 6.00 Build 0)  -->
<svg version="1.1" id="Capa_1" xmlns="http://www.w3.org/2000/svg" xmlns:xlink="http://www.w3.org/1999/xlink" x="0px" y="0px"
	 viewBox="0 0 800 800" style="enable-background:new 0 0 800 800;" xml:space="preserve">
<style type="text/css">
	.st0{fill-rule:evenodd;clip-rule:evenodd;fill:#0058A0;}
	.st1{fill-rule:evenodd;clip-rule:evenodd;fill:#009BDB;stroke:#009BDB;stroke-width:0.1156;stroke-miterlimit:2.6131;}
	.st2{fill-rule:evenodd;clip-rule:evenodd;fill:#FFFFFF;stroke:#FFFFFF;stroke-width:0.1156;stroke-miterlimit:2.6131;}
	.st3{fill:#5FDDF2;}
</style>
<path class="st0" d="M179.6,465.8c-5.9-0.7-9.8-0.5-17.2-0.4c-9.6,0.4-20.7,7.8-19.5,20.4c0.7,8.1,15.5,14.7,26.4,6.4
	C178.2,485.5,178.1,476,179.6,465.8L179.6,465.8z M180.4,499.6c-10,8.3-14.1,14.6-29.9,16.6c-12.8,1.5-41.2-5.6-43-24.8
	c-2.1-22.8,6.4-35.4,50.9-37l20.7-0.6c0-9,0.3-17.2-10.4-19.2c-14.4-2.7-30.1,1-46.2,9.5l-7-20.4c43.8-13.6,68.6-7.5,83.9-2.8
	c9,2.7,15.5,16.7,15.3,31.2l-0.7,47.4c0.5,5.4,2.1,10.7,4.5,16.1l-37.7-0.4L180.4,499.6L180.4,499.6z M269.2,514.5l-42.7,1.2
	c4.7-35.1,6.6-109.1-5.6-126.2c14.5-0.1,29.8-2.1,44.2-5.1C262.6,427.8,261.6,475.9,269.2,514.5L269.2,514.5z M316.3,436.6
	c16.7-17.8,41.4-31.1,70.1-4.5c11.8,11,9.2,43.6-0.4,61.9c-8.5,15.9-46.1,28.6-68.5,20.4c-0.7,15.4,1.4,30.2,6.6,44.6h-47.5
	c6.6-23.5,10.7-125.8-6.6-139.2h47.5L316.3,436.6L316.3,436.6z M314.9,497.2c27.7,12.5,47.2-3.5,43.8-29.6
	c-6.3-47.7-42.3-23.9-42-11.6L314.9,497.2L314.9,497.2z M476.7,497.9c-8.2,9.8-20.7,19.2-34.2,19.2c-25.8,0-39-5.6-40.1-29.6
	c-0.9-22.8,3.5-56.2-6.3-68.3h43.8l-2.9,60.9c-1.3,24.9,41.2,16.3,39,1.3c-1.6-21.9,0.9-40.2-5.3-61.5h42.5
	c-3.7,31.8-4.2,73.5,3.1,95.3h-39.6L476.7,497.9L476.7,497.9z M605.3,447c-11.1-9.8-34.7-2.3-37.4,6.3c-3.8,10.6-9.2,52.8,3.4,62.8
	h-45.6c5.6-21.8,7.3-74.5-2.9-95.3H568l-1.4,20.4c5.9-9.6,21-22.7,40-22.9L605.3,447L605.3,447z M655.1,466.2
	c-10.9-2.9-48.4,3.8-36.2,24.3c5.1,8.7,14.5,8.6,21.9,4.4C653.9,487.3,652.5,482.6,655.1,466.2L655.1,466.2z M652.6,502.6
	c-18.2,15-33.9,16.1-55.5,9.7c-9-2.7-17.3-16.1-17.3-24.5c0-36,50.9-32.3,74.9-32.3c0-7-0.3-10.5-2.5-13.8
	c-3.1-4.8-25.8-8.4-35.6-3.4l0.6-19.2c32-4.2,70.7-4.5,72.2,25.5c-0.3,21.5-2.5,51.9,1.9,70.6l-36.7-0.4L652.6,502.6L652.6,502.6z"
	/>
<path class="st1" d="M396,370.1c49.1-98.9,113-145.4,181.9-157.7c2.8,11-7.6,57.5-18.5,71.9c-54.8,2.5-109.8,29.3-162.5,96.8
	L396,370.1L396,370.1z"/>
<path class="st1" d="M241.4,286.1c-11-21.4-18.6-46.2-19.4-76.4c22.9,5.9,44.6,14.5,64.3,25.1c13.5,3.1,19.4,14.7,19.2,21.7
	c-1,7.6,2.5,12.5,10.9,14.5c5.4,1.2,10.4,1,15.7,1.2c5.9,0.3,12.5,3.8,20.5,16.3l7.8,12.3c-5.7,7.5-10.7,17.7-11.4,28
	C317.6,304.4,281.6,291.3,241.4,286.1L241.4,286.1z"/>
<path class="st0" d="M221.7,209.4c0-0.9,0-1.8,0-2.7c0-1.3,0-2.5,0-3.8c3.1-94.8,82.3-171.2,178.8-171.2
	c81,0,149.6,53.5,171.5,126.7c1.9,7.2,3.5,14.5,4.7,22c-29.9,2.5-59.1-2.9-84.6-18.2c-2.5-1.5-2.1-9.2,9-4c5.6,2.2,12-1.4,17.6-11.8
	c5.1-9.5,9.2-19.5,12.2-29.8c-6.8-5.6-13.6-10.3-20.4-13.6c-14.8-5.6-26.7-4.1-33.9,8.3c-3.7,6.6-12,4.8-6.8-1
	c11.8-14.2,12.6-33,2.7-41.2c-11.1-9.4-14.5-7-9.1,1.4c3.4,4.6,2.1,12.8-2.7,19.2c-8.2,7.5-19.4,7.2-33.7-1
	c-22.8-12.3-51.9-12.9-76,2.1c-9,6.3-16.6,4.5-24.1,0.5c-5.6-3.8-6.4-11.6-3.7-16c3.7-5.4,2.5-17.7-7.2-1.9
	c-6.9,12.5-2.5,27.1,5.6,35.6c7,8.5,0,11.6-6.2,4.8c-9.2-11.6-20-14.8-28.9-9.7c-9.4,5.6-17,11.8-22.4,19.6l30.5,36.1
	c3.2,4.2,12.3,4,15.1,0.1c8.3-8.1,14.4-5.6,19.5,6c2.9,7.9-3.5,9.7-7.6,6.2c-3.5,0-7.5,1.8-4,9.7c5,6.9,7.5,14.4,8.6,21.1l-10.3,8.3
	c-7.5,9.1-11.3,17.8-8.7,25.4c1.6,8.1,3.5,16,6.6,24.1l20.4,3.1c18,2.9,36,3.8,54,2.1c7-2.3,11.6-8.2,15.5-17.6
	c3.2-9.8,11.1-5.3,9,3.1c-5.6,16-14.8,25.7-30.5,23.6l4.1,13.6c-10.5,0.4-19.1,4.4-25.7,11.9l-14.1-20.1c-5.7-5.9-12-9.5-19.4-8.4
	c-14.5-0.5-21.9-4.7-22.4-12.3c0.1-12.3-5.7-21.4-20.4-25.8C263.9,223.6,242.9,216.1,221.7,209.4L221.7,209.4z"/>
<path class="st0" d="M522.2,335.2c-32,29.1-74.8,46.9-121.6,46.9c-59.4,0-112.2-28.6-144.8-72.5c-3.5-4.8-6.8-9.8-9.8-14.7
	c-1.9-3.1-3.5-6.3-5.3-9.5c56.9,8.4,111.2,29.3,156.7,95c59.1-75.6,112.2-92.5,163.1-97.1C550.5,303,537.5,320.5,522.2,335.2
	L522.2,335.2z"/>
<path class="st2" d="M370,333.6c-6.3-4.8-11.8-6.2-17-5.9c-3.8-0.3-5.4,3.1-3.5,6.3c7.6,12,20.2,17.8,34.9,20.5
	c2.7,0.5,5-2.5,3.4-5.6c-0.9-2.3-2.2-4.2-4.1-5.9c-3.2,5.1-7.8,6.6-13.7,4.5C365.1,342.9,365.1,338.3,370,333.6L370,333.6z"/>
<path class="st0" d="M399.8,352c14.1-17.9,18.8-34.9,12.2-50.7c-1.6-3.4-6.3-3.2-5.6,0.6c2.9,7.6,2.9,15.1-1.8,22.6
	c-4,2.1-7.8,2.3-11.8,0.7c-9-5-17.9-7.3-26.9-8.2c-3.7,0-5.1,3.8-0.4,4.6C386.1,327.2,396.8,337.7,399.8,352L399.8,352z"/>
<path class="st0" d="M374.4,330.1c-6.3-4.8-11.8-6.3-17-6c-3.8-0.1-5.4,3.1-3.5,6.4c7.6,12,20.2,17.7,34.9,20.5
	c2.7,0.5,5-2.5,3.4-5.6c-0.9-2.2-2.2-4.1-4.1-5.7c-3.2,5.1-7.8,6.6-13.7,4.5C369.5,339.5,369.5,334.8,374.4,330.1L374.4,330.1z"/>
<path class="st0" d="M331.6,281.7c5.9-3.5,11.8,0.3,10.4,6.9c-0.7,3.5-2.3,2.5-6.3,4c-1.2,1.6,1.4,3.1,3.4,4.6
	c2.1,1-0.5,4.1-4.1,1.9C328.5,296.2,324.9,288.5,331.6,281.7L331.6,281.7z"/>
<path class="st0" d="M373.5,229.6c-5.9-3.5-11.8,0.3-10.4,6.9c0.7,3.5,2.3,2.5,6.3,4c1.2,1.6-1.5,3.1-3.4,4.6
	c-2.1,1,0.5,4.1,4.1,1.9C376.6,244.3,380.2,236.6,373.5,229.6L373.5,229.6z"/>
<path class="st0" d="M402.7,176c3.5-9.4,8.6-16.1,14.7-20.4c9.7-6,19.2-4.8,28.6,1.2c3.7,2.9,0.7,7.9-2.8,6.8
	c-1.9-1.2-6-1.2-5.6,0.5c-0.7,11.3-6.8,15.9-16.7,15.9c-2.2-0.1-4.1-1-5.7-2.5c-1.5-1.6-4.4-1.2-4.7,0.4
	C407.2,185,399.8,182.7,402.7,176L402.7,176z M430.3,162.9c2.2,0,4,1.6,4,3.8c0,2.1-1.8,3.8-4,3.8s-4-1.8-4-3.8
	C426.3,164.6,428.2,162.9,430.3,162.9L430.3,162.9z"/>
<g>
	<path class="st3" d="M293.8,615.9h14.7v53.2h27.3v13.6h-42V615.9z"/>
	<path class="st3" d="M341.1,622.4c0-2.3,0.8-4.2,2.4-5.8s3.5-2.4,5.8-2.4s4.2,0.8,5.8,2.4s2.4,3.5,2.4,5.8s-0.8,4.2-2.4,5.8
		s-3.5,2.4-5.8,2.4s-4.2-0.8-5.8-2.4S341.1,624.7,341.1,622.4z M342.3,636.8h14.2v45.8h-14.2V636.8z"/>
	<path class="st3" d="M414.7,678.8c0,8.7-2.2,15.3-6.6,19.8s-11,6.7-20,6.7c-4.1,0-8.1-0.5-12.1-1.4s-7.6-2.7-10.9-5.3l7.8-11.7
		c2.2,1.8,4.5,3.3,6.9,4.3c2.4,1.1,5.1,1.6,8,1.6c4.3,0,7.5-1.1,9.6-3.2c2-2.1,3.1-4.8,3.1-8.1v-4.4h-0.2c-1.6,2.2-3.7,3.8-6.1,4.7
		s-4.7,1.4-6.8,1.4c-3.4,0-6.5-0.6-9.2-1.7c-2.8-1.2-5.1-2.8-7.1-4.9c-2-2.1-3.5-4.6-4.6-7.5s-1.6-6.1-1.6-9.5c0-3,0.5-6,1.5-8.9
		s2.4-5.4,4.2-7.6c1.8-2.2,4-4,6.6-5.3c2.6-1.4,5.5-2,8.8-2c2,0,3.9,0.2,5.5,0.7c1.7,0.4,3.2,1,4.5,1.7s2.5,1.5,3.4,2.3
		s1.7,1.7,2.3,2.5h0.2v-6h13v41.8L414.7,678.8L414.7,678.8z M379.1,659.5c0,1.5,0.3,2.9,0.8,4.3c0.6,1.4,1.4,2.5,2.4,3.6
		c1,1,2.2,1.9,3.6,2.5s2.8,0.9,4.5,0.9c1.6,0,3-0.3,4.4-0.9c1.4-0.6,2.6-1.5,3.6-2.5s1.8-2.2,2.4-3.6c0.6-1.4,0.8-2.8,0.8-4.3
		s-0.3-2.9-0.8-4.3c-0.6-1.4-1.4-2.5-2.4-3.6c-1-1-2.3-1.9-3.6-2.5c-1.4-0.6-2.9-0.9-4.4-0.9c-1.6,0-3.1,0.3-4.5,0.9
		c-1.4,0.6-2.5,1.5-3.6,2.5c-1,1-1.8,2.2-2.4,3.6C379.3,656.5,379.1,658,379.1,659.5z"/>
	<path class="st3" d="M440.2,611.4v31.7h0.2c0.3-0.9,0.8-1.8,1.6-2.6c0.8-0.9,1.7-1.7,2.7-2.4c1.1-0.7,2.3-1.3,3.8-1.7
		c1.4-0.4,3-0.7,4.7-0.7c3.6,0,6.5,0.6,8.7,1.7c2.2,1.1,3.9,2.6,5.1,4.6s2.1,4.2,2.5,6.9c0.4,2.6,0.7,5.5,0.7,8.6v25.3H456v-22.5
		c0-1.3,0-2.7-0.1-4.1c-0.1-1.4-0.4-2.7-0.8-3.9c-0.5-1.2-1.2-2.2-2.2-2.9c-1-0.8-2.4-1.1-4.2-1.1c-1.8,0-3.3,0.3-4.4,1
		s-2,1.5-2.6,2.6s-1,2.3-1.2,3.7s-0.3,2.8-0.3,4.3v22.8H426v-71.3L440.2,611.4L440.2,611.4z"/>
	<path class="st3" d="M511.4,648.2H499v15.3c0,1.3,0.1,2.4,0.2,3.4s0.4,1.9,0.8,2.7s1.1,1.3,2,1.7s2.1,0.6,3.6,0.6
		c0.8,0,1.7-0.1,3-0.2c1.2-0.2,2.2-0.5,2.8-1.1v11.8c-1.6,0.6-3.2,0.9-4.9,1.1c-1.7,0.2-3.4,0.3-5,0.3c-2.4,0-4.6-0.3-6.6-0.8
		s-3.8-1.3-5.3-2.4c-1.5-1.1-2.7-2.5-3.5-4.3s-1.3-3.9-1.3-6.4v-21.8h-9.1v-11.3h9.1v-13.6H499v13.6h12.5v11.4H511.4z"/>
</g>
</svg>
