<?xml version="1.0" encoding="utf-8"?>
<!-- Generator: Adobe Illustrator 19.0.0, SVG Export Plug-In . SVG Version: 6.00 Build 0)  -->
<svg version="1.1" id="Capa_1" xmlns="http://www.w3.org/2000/svg" xmlns:xlink="http://www.w3.org/1999/xlink" x="0px" y="0px"
	 viewBox="0 0 200 51.5" style="enable-background:new 0 0 200 51.5;" xml:space="preserve">
<style type="text/css">
	.st0{fill:#ED8A19;}
</style>
<path id="XMLID_2_" class="st0" d="M62.3,9.8l4,8.1c0.3,0.6,0.8,1,1.4,1l8.9,1.3c1.6,0.2,2.2,2.2,1.1,3.3l-6.5,6.3
	c-0.4,0.4-0.7,1.1-0.5,1.7l1.5,8.9c0.3,1.6-1.4,2.8-2.8,2l-8-4.2c-0.6-0.3-1.2-0.3-1.8,0l-8,4.2c-1.4,0.7-3-0.5-2.8-2l1.5-8.9
	c0.1-0.6-0.1-1.3-0.5-1.7l-6.5-6.3c-1.1-1.1-0.5-3,1.1-3.3l8.9-1.3c0.6-0.1,1.2-0.5,1.4-1l4-8.1C59.6,8.4,61.6,8.4,62.3,9.8z"/>
<path id="XMLID_42_" class="st0" d="M107.5,9.8l4,8.1c0.3,0.6,0.8,1,1.4,1l8.9,1.3c1.6,0.2,2.2,2.2,1.1,3.3l-6.5,6.3
	c-0.4,0.4-0.7,1.1-0.5,1.7l1.5,8.9c0.3,1.6-1.4,2.8-2.8,2l-8-4.2c-0.6-0.3-1.2-0.3-1.8,0l-8,4.2c-1.4,0.7-3-0.5-2.8-2l1.5-8.9
	c0.1-0.6-0.1-1.3-0.5-1.7l-6.5-6.3c-1.1-1.1-0.5-3,1.1-3.3l8.9-1.3c0.6-0.1,1.2-0.5,1.4-1l4-8.1C104.8,8.4,106.8,8.4,107.5,9.8z"/>
<path id="XMLID_43_" class="st0" d="M152.8,9.8l4,8.1c0.3,0.6,0.8,1,1.4,1l8.9,1.3c1.6,0.2,2.2,2.2,1.1,3.3l-6.5,6.3
	c-0.4,0.4-0.7,1.1-0.5,1.7l1.5,8.9c0.3,1.6-1.4,2.8-2.8,2l-8-4.2c-0.6-0.3-1.2-0.3-1.8,0l-8,4.2c-1.4,0.7-3-0.5-2.8-2l1.5-8.9
	c0.1-0.6-0.1-1.3-0.5-1.7l-6.5-6.3c-1.1-1.1-0.5-3,1.1-3.3l8.9-1.3c0.6-0.1,1.2-0.5,1.4-1l4-8.1C150,8.4,152.1,8.4,152.8,9.8z"/>
</svg>
