<?xml version="1.0" encoding="utf-8"?>
<!-- Generator: Adobe Illustrator 19.0.0, SVG Export Plug-In . SVG Version: 6.00 Build 0)  -->
<svg version="1.1" id="Capa_1" xmlns="http://www.w3.org/2000/svg" xmlns:xlink="http://www.w3.org/1999/xlink" x="0px" y="0px"
	 viewBox="100 119 800 564" style="enable-background:new 100 119 800 564;" xml:space="preserve">
<style type="text/css">
	.st0{opacity:0.5;}
	.st1{fill:#FFFFFF;}
</style>
<g>
	<g class="st0">
		<path class="st1" d="M638.2,460.1c1.5-2.4,2.9-4.9,4.4-7.3c0.6,0.1,1.2,0.2,1.8,0.3c3.2,0.7,6.5,2.2,9.5,1.8
			c3.8-0.4,3.1-5.1,4.9-7.6c2.5-3.5,5.6-5.1,9.6-6.8c8.5-3.5,17.3-3.9,26.6-3.7c1.1,1.4-0.6,3.8,0.8,6.2c2.3-1.2,4.6-2.6,7-3.4
			c2.4-0.8,5.7-5,7,1.4c0.4,1.9,2.8,0.5,4.2,0.2c6.5-1.7,13.2-2.4,19.9-1.9c1.2,0.1,3-0.6,3.7,2c-6.8-0.8-13.1,0.3-20.7,4.2
			c10.2,4.4,20.2-2.2,29.5,3.2c-6.8,0-12.8-0.1-18.8,1.5c-1.2,0.3-2.7,0.3-2.7,1.9c0.1,1.2,1.5,1.9,2.7,1.9c4.1,0.1,8.1,0,13.9,0
			c-7.6,3.5-14.3,2.8-20.5,4.3c-3.6,0.8-7.9-0.2-8.4,6.2c-0.2,3.6-5.6,3.6-8.9,3.3c-3.8-0.3-6.4,0.1-8.4,3.8c-1.8,3.3-4.7,5-8.4,1.7
			c-2.3-2.2-5.3-1.7-8.1-1.2c-6.8,1-12.7-0.6-18-5.2C654.7,461.1,645.8,462.6,638.2,460.1z M677.1,442.6c-9.8,0.4-13.6,3-14.6,9.6
			c-0.3,2.4,0.2,3.6,2.7,2.7C671.1,452.7,675.7,449.3,677.1,442.6z M693.3,459.6c5.5,6.5,9.7,8.3,14.3,5.7c1.5-0.8,3.6-1.6,1.5-4
			C705.7,457.4,697.8,456.4,693.3,459.6z M691.9,470c-2.1-8-5.6-11.4-11.4-11.1c-3.3,0.1-4.6,1-2.3,4.1
			C681.6,467.6,685.9,470.2,691.9,470z M690.2,441.3c-6.3,1.1-9.5,5.7-13,9.8c-0.8,1-1.6,2.1-0.9,3.2c0.7,1.2,2.2,0.7,3.3,0.6
			C685.1,454.1,688.7,449.6,690.2,441.3z M706,441c-5.6,2.9-11.2,4.6-13.4,11.1C704,451.3,704.9,450.7,706,441z M715.2,456.9
			c2.3-0.8,5.7-1.2,5.5-4.4c-0.2-2.9-3.6-3.9-6.1-4c-2.4-0.1-5.3,2.2-5.3,4.1C709.3,455.4,712.4,456.4,715.2,456.9z M667,461.4
			c-0.9,0.3-2.7-0.7-3.3,1.2c-0.5,1.6,0.7,2.7,1.7,3.6c2.4,2.2,4.9,4.3,8.6,3.2c1-0.3,2.1-0.8,1.3-2.1
			C673.5,464.1,671,461.9,667,461.4z"/>
		<path class="st1" d="M539.6,460.1c-9,0.5-16.8-3.3-24.9-6.3c-2.2-0.8-3.9-2.6-2.9-5.2c1-2.7,3.6-2.3,5.7-1.8
			c6,1.6,11.7,4.2,18.1,4.6C536.9,454.2,538.2,457.2,539.6,460.1z"/>
	</g>
	<g>
		<path class="st1" d="M638.2,460.1c-7.4,9-17.2,14.8-27.2,20.1c-3.1,1.7-4.1,3.2-2.5,6.5c2,4.1,3.4,8.7,5.5,12.8
			c1.3,2.8,1.1,4-2.2,4.2c-5.1,0.4-10,0.2-12.2,7.1c-1.2,3.6-5.8,2.3-8.9,0c-1.3-1.1-1.9-3.5-4.1-3c-6.9,1.5-7.6-2.2-7-7.7
			c0.2-1.7,0.7-4.3-1.6-4.6c-2.6-0.4-2.9,2.3-3.3,4.2c-2,8.3-6,15.7-11.8,21.6c-12.8,13.3-18.5,29.7-21.1,47.5
			c-0.5,3.6-1.2,7.2-1.9,10.8c-2.4,11.9-8.2,17.5-19.6,18.9c-11.6,1.5-22.4-3.7-26.9-13.7c-4.2-9.5-8-19.1-11.6-28.7
			c-2.4-6.4-6.5-9-13.4-8.7c-13.2,0.5-26.4,0.2-39.4-2.5c-2.8-0.6-5.2,0.2-7.5,1.6c-5.8,3.7-11.5,7.5-16.4,12.5
			c-2.9,3.1-5.7,7-9.9,7.8c-7.4,1.4-5.6,4.3-2.6,8.6c2.2,3.3,4.1,7,5.5,10.8c2.2,6.3-1.4,10.9-8,10.9c-6.5,0-11.7-2.5-15.8-7.5
			c-6.5-8-12-16.8-17.4-25.6c-1.2-2-2-4.3-4.8-6c-1,3.9-0.2,7.2,0.2,10.4c0.4,3.8,1.2,7.6,1.3,11.4c0.3,8-2.2,10.1-10.2,8.9
			c-5.1-0.8-9-3.5-12-7.5c-12.6-16.8-21.2-35.8-28.8-55.4c-2.1-5.4-1.3-10.6,1.8-15.7c4.3-6.9,8.8-13.6,12-21.1
			c2.2-5.2,2.1-9.9-2.6-13.7c-23.5-19.2-27.6-45.4-25.9-73.6c0.2-3.2-0.2-5.7-2-8.5c-3-4.6-3.4-9.7-1.2-15.1
			c8.5-22,25.6-32.5,47.8-36.5c17.1-3.1,33.4,1,49.7,5.4c22.7,6.1,44.3,15.6,66.9,21.9c14.3,4,28.7,5.1,43.4,4.7
			c3.2-0.1,4.6-0.9,5.3-4.1c2.3-10,7.5-17.6,18.7-18.7c3.2-0.3,2.7-2.3,2.6-4.3c-0.2-8.4-4-15.5-8.2-22.8c16.6-3,30.7,0.5,41,14
			c3.1,4.1,6.3,5.1,10.9,3.5c7.5-2.5,15.4-3.6,23.4-2.6c4.6,0.6,6.6-2.4,8.2-5.8c2.1-4.5,2.7-9.4,2.7-14.3c0-3.2,0.8-4.2,4.3-3.4
			c13.3,3.3,18.5,9.2,19.1,22.8c0.2,3.5,1.2,3.2,3.9,2.7c11.1-2.1,17.4,1.3,21.8,11.5c4.7,10.8,2.7,19-6.2,25.9
			c-8,6.2-9.8,11.9-3.6,19.8c13.3,17.2,13.4,35.3,6.6,54.6C641.2,455.2,639.7,457.7,638.2,460.1z M535.6,451.3
			c-2.4-9.2-0.7-18.2,1.9-26.9c1.6-5.2,2.5-9.9-1.7-14.6c-2-2.2-2.4-5.6-2.4-8.6c0-3.3-1.7-4.3-4.7-3.7c-11.3,2.2-20.3-2.1-27.9-9.9
			c-2.6-2.6-5.1-3.2-8.6-3c-12.6,1-25.1,1.2-37.6-1.1c-11.3-2.1-21.6-6.8-32.2-10.6c-4.1-1.4-7.3-1.2-10.5,1.8
			c-4,3.7-8,7.5-12.4,10.8c-24.8,18.3-55.5,6.9-61.8-23c-0.5-2.2-0.7-4.4-0.7-6.6c0-2.6-0.9-3.1-3.3-2.5
			c-11.8,2.7-21.8,8.4-30.4,16.8c-6.8,6.7-5.6,18-2.6,24.5c1.7,3.6,2.7,7,2.7,10.9c0,28.1,10.4,52.2,28.8,73
			c9.2,10.4,20.7,17.4,34.1,21.4c1.2,0.4,3.2,1.3,3.9-0.2c0.9-2-1.2-2.5-2.6-3.3c-43.8-24.9-50.3-59.5-49.7-95.6
			c0.1-2.6,0.3-5.9,4-5.7c3.5,0.2,3.3,3.5,3.5,6.1c0.4,6.5,0.9,12.9,1.2,19.4c0.7,23.8,9.3,43.8,28.4,58.7c5.2,4.1,10.4,8.5,15.3,13
			c4.8,4.5,10,5.6,16.6,5.1c15.3-1.2,29.8,2.2,43.4,9c-0.2,0.7-0.2,1.2-0.4,1.4c-12.2,16.1-44.3,19.6-59.4,6.4c-1-0.9-2.3-1.6-3.6-2
			c-9.7-3.2-19-7.1-27.1-13.3c-3.2-2.5-5.8-2.2-8,1.6c-2.9,5.1-6,10.2-9.2,15c-4.2,6.2-5.6,13-4.7,20.2c1.6,14.2,8.7,25.9,16.6,37.3
			c1.8,2.7,4.3,5.3,8.1,3.8c3.7-1.4,3.9-5,3.6-8.2c-0.5-6.5-1.7-12.8-2-19.3c-0.2-5.5-0.5-11.1,3.1-16.7c2,3,3.5,5.3,5.1,7.5
			c1.7,2.3,3.2,4.6,5.1,6.8c5.3,6.2,7.5,6.8,14.4,2.3c6.2-4.1,11.9-4.4,18-0.2c3.2,2.2,6.1,2.1,9.5-0.1c6-3.7,12.4-6.9,18.6-10.4
			c2.3-1.3,4.6-2,7.5-1.1c11.9,3.7,21.1-0.2,26.5-11.1c1.6-3.1,3.3-6.1,4.8-9.1c1.8-4,4.4-6.1,9-5.2c3.1,0.6,5.4-1,7.6-2.9
			c5.1-4.3,10.2-8.7,16.2-11.7c6.1-3,16.5-2.3,20.2,1.6c5.4,5.6,5.5,12.4,2.7,19.2c-1.4,3.6-3,7.2-5.1,10.3
			c-11.1,15.8-8.7,32.1-2,48.6c2.1,5.1,4.9,9,11.3,7.8c6.3-1.2,7.1-6.1,7-11.2c-0.8-27.1,12.6-47,31.6-64.3c3-2.7,6.2-5.3,8.7-8.5
			c7.9-9.9,5.6-21.3-5.7-26.8c-7.4-3.6-13.2-8.5-18.2-14.8C538.2,457.2,536.9,454.2,535.6,451.3z M547.9,374.2
			c0.5,4.9,0.7,9,1.5,13.1c0.7,3.5-0.7,8.2,2.7,10.2c7.5,4.6,6.2,10.3,3.5,16.7c-1.5,3.5-2.2,7.4-3.6,10.9c-3.6,8.9-2.2,17,3,24.8
			c7,10.4,17.1,16.2,29.3,17.2c31.8,2.5,46.9-16.4,50.4-45.1c0.7-6.1-1.2-11.5-4.5-16.7c-3-4.6-6.1-9.1-8.6-13.9
			c-5.5-10.6-4-13.4,7.6-15.2c3.7-0.6,6.8-2.3,4.5-6.4c-2-3.4-1.4-5.6,0.8-8c1.7-2,2.5-4.3,1.1-6.7c-1.6-2.6-4.3-3-7-2.6
			c-4.5,0.6-8.3,3.2-12.4,5c-2.1,0.9-4,1.5-6.2,0.1c-21.3-13.3-41.6-9.8-61.2,4c-2.5,1.7-4.9,2.5-7.9,2.3
			c-6.3-0.4-12.5-0.6-18.8-0.9c-4.6-0.2-7.1,2.7-8.9,6.2c-1.2,2.7-1.2,5.9,0.9,8c3.1,3.2,6,0.2,8.7-1.1c2.7-1.2,4.3-0.8,4.2,2.4
			c-0.2,6.5,3.8,5.4,7.7,4.3C539.7,381.7,543,377.5,547.9,374.2z M605.1,327.6c0.2,5.7-0.4,10.7-2.6,15.3c-0.8,1.9-0.6,2.8,1.2,3.8
			c4.6,2.8,7.5,1.7,9-3.5C614.7,336.4,612.3,331.4,605.1,327.6z M528.1,335.5c1.8,6.4,3.6,12.3,4.4,18.7c3.4-1.2,6.4-2.4,9.5-3.3
			c3-0.9,2.8-2.2,1-4.2C539,342,534.8,337.7,528.1,335.5z"/>
		<path class="st1" d="M221,297.3c-3-0.1-7.3-1-9.5-5.8c-2.2-4.7,0.2-8.3,3.3-11.4c3.4-3.4,4.6-7.4,4.6-12.1
			c-0.3-20.9,1.3-41.8,2-62.6c0.2-5.7,0.2-11.4-1.6-16.8c-1.6-4.8,0.9-7,5.2-7.5c7.1-0.8,13.7,1.3,19.6,5.2c3.2,2.1,3.5,4.8,0.7,7.5
			c-1.4,1.4-3.1,2.7-4.1,4.5c-6,10-2.2,18.3,9.3,20.1c10.9,1.6,21.6,3.6,32.1,6.7c6.9,2,13.3,4.9,19,9.4c8.7,6.8,9.9,14.3,3.2,23.1
			c-7.3,9.8-17.3,15.8-28.5,19.8c-9,3.2-18,6.1-27.4,7.6c-5,0.7-9.3,2.7-12.5,6.7C232.7,296,227.9,297.5,221,297.3z M257.5,272.6
			c10.4,0.7,20.5-3.7,28.9-12.1c3.5-3.5,6.6-7.5,4.6-12.8c-2-5.1-6.7-6-11.4-6.7c-8.8-1.3-17.7-1-26.4-3.3
			c-4.6-1.2-8.3,0.8-10.3,5.4c-1.2,2.6-2.3,5.1-3.2,7.9C234.6,268,238.1,272.7,257.5,272.6z"/>
		<path class="st1" d="M407.6,288.9c-9.8-0.2-19.5-0.9-28.4-5.3c-11.9-5.8-15.9-15.9-11.6-28.3c4.1-11.7,11.8-20.2,23-25.5
			c26.2-12.2,52.4-11,77.8,2.1c15.5,8,17.2,22.6,4.6,34.8c-12.6,12.2-28.7,17-45.3,20.3C421,288.4,414.3,288.9,407.6,288.9z
			 M420.8,276.1c11.8-0.7,23.1-2.7,32-11.2c9.2-8.9,7-22.1-5-26.5c-17.1-6.4-33.5-3.8-48.7,6c-3.2,2.1-5.7,5.1-7.8,8.5
			c-5.1,8.3-3.1,14.7,5.7,18.7C404.7,274.8,412.8,275.4,420.8,276.1z"/>
		<path class="st1" d="M746.6,257.2c-9-0.9-18.2-1.9-27.2-2.8c-2-0.2-4.1-0.3-6.1-0.3c-8.4-0.2-11.9,1.7-12.6,6.5
			c-0.7,5.3,2.5,8.8,10.4,10.1c10.9,1.8,22.1,3.4,33.2,3.6c4.5,0.1,8.9-0.4,12.8-2.8c3.7-2.3,7.1-2.7,9.8,1.7
			c2.8,4.7,2.2,9.4-2,12.4c-5.7,4.1-12.5,4.9-19.2,4.6c-19.5-0.8-37.3-6.8-53.4-17.9c-1.3-0.9-2.6-2-3.7-3.2
			c-12.3-11.5-11.5-21.2,2.6-30.3c15.1-9.7,32-13.3,49.7-13.3c9.3,0,17.2,4,23.9,10.5c7.4,7.3,5.4,15.8-4.6,19.3
			C756,257,751.3,256.9,746.6,257.2z M741.2,247.9c2.5,0,3.6,0.1,4.6,0c3.7-0.5,7.5-1.3,7.9-6c0.3-4.3-2.7-6.1-6.2-7.1
			c-9-2.7-18-2.8-26.7,1.1c-2.7,1.2-5.1,3-4.3,6.5c0.7,3.2,3.2,4.6,6.3,4.6C729.3,246.8,736,247.2,741.2,247.9z"/>
		<path class="st1" d="M546.1,223.3c12.4,0.4,21.6,4.9,25.4,17.7c1.4,4.8,4,9.3,7,13.4c4.6,6.4,10.3,6.8,15.7,0.9
			c3.5-3.7,6-8.2,8.5-12.5c2.1-3.5,4-7,6.1-10.4c1.9-3.2,4.4-5.9,7.4-8c5.1-3.6,13.2-5.1,15.3-2c3.8,5.6-0.3,10.3-3.6,14
			c-12.3,13.7-23,28.3-31.4,44.6c-0.7,1.2-1.4,2.5-2.4,3.5c-11.4,11.8-15.8,9.1-22.7-0.5c-7.3-10-12.3-21.4-18.5-32.1
			c-3.6-6.1-6.6-12.5-11.9-17.5c-1.8-1.7-4.6-3.6-3-6.6C539.3,224.4,542.4,222.9,546.1,223.3z"/>
		<path class="st1" d="M718,214.3c-4.8,0-8.1,0.1-11.4-0.1c-1.5-0.1-3.6,0.4-4-1.7c-0.3-1.9,1.3-2.8,2.7-3.7
			c5.9-3.8,12.4-6.7,19.1-7.5c12.7-1.6,25-5.3,37.9-5.3c2.7,0,6.1-1.1,7.3,2.5c1,3.2-1.4,5.3-3.4,7.3c-4.4,4.1-9.4,6.9-15.8,6.3
			C738.9,210.9,727.8,214.8,718,214.3z"/>
		<path class="st1" d="M500.7,449c-0.1,2.9-0.2,7.5-1.3,12.2c-3.9,15.9-17.4,24.2-33.2,19.9c-10.5-2.9-20.6-7.4-31.9-6.1
			c-8.5,0.9-16.7,3.6-25,5.4c-11.2,2.5-19.8-1.7-26-10.2c-6-8.1-4.6-17-0.2-25.9c4-8,10.2-12.3,18.9-13.3c3.4-0.4,6.9-1.2,10.3-1.1
			c15.8,0.8,30.5-2.7,44.3-10.5c5.7-3.2,12.1-4.5,18.7-4.7c12.9-0.4,21.1,5.7,24.3,18.3C500.4,437.6,500.7,442.4,500.7,449z"/>
		<path class="st1" d="M601.4,382.5c-0.6,3.2-1,7-5.1,7c-3.8,0-4.6-3.3-4.7-6.5c-0.1-3.5,0.7-7,4.8-7.1
			C600.1,375.7,600.6,379.3,601.4,382.5z"/>
		<path class="st1" d="M568.8,383c-0.3,3.2-1,6.5-4.9,6.5c-4.1-0.1-5-3.7-4.9-7c0.1-3.1,1-6.5,4.9-6.5
			C568.1,376.1,568.6,379.7,568.8,383z"/>
		<path class="st1" d="M612.4,441c-0.2,2.8-1.1,5.1-3.6,5.4c-2.7,0.3-4-1.9-4.2-4.2c-0.2-2.8,1.3-6,3.7-6.2
			C610.7,435.7,611.5,439.2,612.4,441z"/>
		<path class="st1" d="M587.1,447.9c-0.1,2.7-0.7,4.8-3.6,5.1c-2.8,0.2-4-1.9-4.1-4.3c-0.2-2.9,1.5-5.9,3.9-6.1
			C585.6,442.5,586.7,445.6,587.1,447.9z"/>
		<g>
			<path class="st1" d="M767.8,305.4c0-1,0.2-2,0.4-2.9c0.2-0.9,0.6-1.7,1.1-2.6c0.5-0.8,1-1.5,1.7-2.2c0.7-0.7,1.4-1.2,2.2-1.7
				c0.8-0.5,1.7-0.8,2.6-1.1s1.9-0.4,2.9-0.4c1,0,2,0.2,2.9,0.4s1.7,0.6,2.6,1.1s1.5,1,2.2,1.7s1.2,1.4,1.7,2.2
				c0.5,0.8,0.8,1.7,1.1,2.6c0.2,0.9,0.4,1.9,0.4,2.9s-0.2,1.9-0.4,2.8c-0.2,0.9-0.6,1.7-1.1,2.6c-0.5,0.8-1,1.5-1.7,2.2
				c-0.7,0.7-1.4,1.2-2.2,1.7c-0.8,0.5-1.7,0.8-2.6,1.1c-0.9,0.2-1.9,0.4-2.9,0.4c-1,0-1.9-0.2-2.9-0.4c-0.9-0.2-1.7-0.6-2.6-1.1
				s-1.5-1-2.2-1.7s-1.2-1.4-1.7-2.2c-0.5-0.8-0.8-1.7-1.1-2.6C767.9,307.3,767.8,306.4,767.8,305.4z M769.3,305.4
				c0,0.9,0.1,1.7,0.3,2.5c0.2,0.8,0.5,1.6,0.9,2.2c0.4,0.7,0.9,1.3,1.4,1.9c0.6,0.6,1.2,1.1,1.9,1.5c0.7,0.4,1.4,0.7,2.2,0.9
				c0.8,0.2,1.7,0.3,2.5,0.3c1.3,0,2.5-0.2,3.6-0.7c1.2-0.5,2.2-1.2,3-2c0.8-0.8,1.5-1.8,2-3c0.5-1.2,0.7-2.4,0.7-3.7
				c0-0.9-0.1-1.7-0.3-2.6c-0.2-0.8-0.5-1.6-0.9-2.2c-0.4-0.7-0.9-1.3-1.5-1.9c-0.6-0.6-1.2-1.1-1.9-1.5c-0.7-0.4-1.4-0.7-2.2-0.9
				c-0.8-0.2-1.7-0.3-2.5-0.3c-1.3,0-2.5,0.2-3.6,0.7c-1.2,0.5-2.2,1.2-3,2.1c-0.8,0.8-1.5,1.9-2,3
				C769.5,302.8,769.3,304,769.3,305.4z M776.4,306.7v5.2h-2.3v-13.2h4.2c1.7,0,3,0.3,3.7,0.9c0.8,0.6,1.2,1.5,1.2,2.7
				c0,0.9-0.2,1.7-0.8,2.3c-0.5,0.7-1.3,1.1-2.3,1.3c0.2,0.1,0.3,0.2,0.4,0.3c0.1,0.2,0.2,0.3,0.3,0.5l3.4,4.9h-2.2
				c-0.3,0-0.6-0.1-0.7-0.3l-3-4.5c-0.1-0.2-0.2-0.2-0.3-0.3c-0.1-0.1-0.3-0.1-0.6-0.1h-1.1V306.7z M776.4,305h1.7
				c0.6,0,1-0.1,1.4-0.2c0.4-0.1,0.7-0.2,0.9-0.4c0.2-0.2,0.4-0.4,0.5-0.7c0.1-0.2,0.2-0.6,0.2-1c0-0.3-0.1-0.7-0.2-1
				c-0.1-0.2-0.2-0.5-0.5-0.7c-0.2-0.2-0.5-0.3-0.8-0.4c-0.3-0.1-0.7-0.2-1.2-0.2h-1.9L776.4,305L776.4,305z"/>
		</g>
	</g>
</g>
</svg>
