<?xml version="1.0" encoding="utf-8"?>
<!-- Generator: Adobe Illustrator 19.0.0, SVG Export Plug-In . SVG Version: 6.00 Build 0)  -->
<svg version="1.1" id="Capa_1" xmlns="http://www.w3.org/2000/svg" xmlns:xlink="http://www.w3.org/1999/xlink" x="0px" y="0px"
	 viewBox="0 0 800 800" style="enable-background:new 0 0 800 800;" xml:space="preserve">
<style type="text/css">
	.st0{fill:#FFFFFF;}
	.st1{opacity:0.35;}
	.st2{opacity:0.75;}
</style>
<g>
	<g>
		<path class="st0" d="M717.8,276.7v-10c0-0.5,0-2.6,0-4.2l0,0l-4.8,14.2h-2.3l-4.8-14.2l0,0c0,1.6,0,3.7,0,4.2v10h-2.2v-16.9h3.3
			l4.8,14.3l0,0l4.8-14.3h3.2v16.9H717.8L717.8,276.7z"/>
		<path class="st0" d="M726,276.7h-2.3v-16.9h7.8c2.8,0,5.6,1,5.6,4.5c0,2.5-1.3,3.4-2.4,4.1c1,0.4,1.9,0.8,2,3.2l0.1,3.1
			c0,0.9,0.1,1.3,0.9,1.7v0.4H735c-0.3-1-0.4-3.6-0.4-4.2c0-1.4-0.3-3-3-3H726V276.7L726,276.7L726,276.7z M726,267.5h5.3
			c1.7,0,3.4-0.4,3.4-2.9c0-2.6-1.9-2.8-3-2.8H726V267.5L726,267.5z"/>
	</g>
	<g>
		<path class="st0" d="M370.3,377.9l-4,0.4h0v31.1l3.8-0.3c16-1.4,27.3-5.7,27.3-18.3C397.4,378,385.7,376.5,370.3,377.9z"/>
		<path class="st0" d="M581.8,366c-17.2,0-29.4,14.9-29.3,29.7c0,13.8,12.7,31.4,29.3,31.4s29.3-17.6,29.3-31.4
			C611.1,380.9,598.9,366,581.8,366z"/>
		<polygon class="st0" points="272.5,403.9 259.7,445 289.9,444.2 272.8,403.9 		"/>
		<path class="st0" d="M722.2,386.7c1.1-1,13.6-11.9,13.6-11.9c10.6-9.8,3.9-21.4,0.7-24.5c-11.3-11-32.3-18.2-47.3-19.7
			c-17.7-1.8-41,2.7-54.5,21.2c-13.2-14.9-32.2-23.5-52.9-23.5c-17.1,0-33.1,5.9-45.7,16.5c-1.6-2.4-3.8-4.3-6.3-5.6V235.1
			c0-14.3-13.5-17.8-20.1-16.4l-20.6,4.2c-11.3,1.9-13.1,14-13.1,14s-5.7-10.5-18-7.9l-23.2,5.1c-7.7,1.6-13.2,8.5-13.2,16.3v16.9
			l-6.7-15.2c-3.1-7.1-10.6-11.1-18.3-9.7l-21.6,3.9c-6.2,1.1-11.1,5.5-13,11.4l-3,9.4c0,0-7.3-15.6-47.8-14.2
			c-41.5,1.4-61.9,46.9-32.5,68.9c-12.5,8.7-18.9,19.2-9.1,30.7c-22.4-0.1-25.2,1-29.1,11.3l-17.6,50.7v-42.8c0,0-0.1-14.6-15-16.6
			l-35.1-3.6c-12.4-1-16.8,9.5-16.8,9.5l-15.7,32.7l-17.6-38.9c0,0-4.6-9.4-13.6-9.8l-34.4-3.5c-18.4-0.4-18.4,16.6-18.4,16.6v120.6
			c0,0-0.3,11.2,10.7,15.6l28.8,11.2c6.9,3,23.9,0.7,22.8-17.9c3.4,3.6,9.6,4.5,9.6,4.5l17.6,1.8c0,0,7.7,1,13.3-4.8v17.5
			c0,0,0.7,16.4,15.2,16.7l61.5,2.8c0,0,11,0.4,15.6-10.6l11.2-28.4l26.3-0.7l9.3,21.8c0,0,5.8,13,18.7,9.8l53.6-12.7
			c12.5-3,12.5-16.2,12.5-16.2v-24.3l58.6,61.7c0,0,5.5,6,13.6,5.1l35.3-3.1c17.3-1.9,17.9-21.4,12.2-26.6l-32.3-32.4
			c31.4,8.4,69.7-2.9,72.8-16c16,10.3,48.2,21.9,83.8-4.7c34.4,36.5,109.1,25.9,113.1-23.8C740.1,425,744.2,402.2,722.2,386.7z
			 M438.2,250.4l23.4-5l30.6,53l0.3-0.1v-58.9l20.5-4.3v100l-22,1.9l-31.9-54.9h-0.4v58.1l-20.5,2V250.4z M377.9,262.6l21.6-3.9
			l36.8,84.3l-19,1.1l-8.8-18.3l-31.8,1.9l-7.8,22.1l-18.8,1.1L377.9,262.6z M330.1,326.8c-0.8-8.2-11.8-9.5-21-11.1
			c-15-2.8-26.2-7-27.3-19.3c-1.2-13.1,11.8-25.1,30.9-26.9c10.1-0.9,24.4,1.2,31.9,5.9l-9.4,11.8c-4.6-3.6-10.3-5.6-17.6-4.9
			c-7.1,0.7-13.5,5.1-13,10.2c1.3,13.4,45.8,3.6,48.3,30.2c1.5,15.9-11.6,28.5-34.8,30.7c-15.7,1.5-27.7-3.8-36.4-12.2L295,330
			c3.6,5.8,12.1,10.5,21.6,9.6C325.6,338.8,330.7,332.9,330.1,326.8z M206,509.4l-30.2-2.7c0,0,0-61.1,0-86.2
			c-10.8,17.1-28.3,56.9-28.3,56.9l-17.6-1.8c0,0-17.3-43.2-28-62.5c0,25.2,0,76.9,0,76.9L73,478.8V358.1l34.4,3.5
			c0,0,25.2,56.7,32.4,69.5c7-11.4,31.3-63,31.3-63l35,3.5L206,509.4z M489.1,511.8l-35.3,3.1l-83.3-87.4l-4.2,0.3V490l-25.4,5.6
			l0,0l-27.4,6.1l-13.8-32.2l-48.7,1.2l-15.2,38.7h-28.4l48.8-140.1l33.8-0.2l46.8,116.4l0.4-121.2l39.4-3.5
			c29.5-2.6,49.9,4.7,49.9,26.8c0,13.2-10.5,27.3-30.5,31.4L489.1,511.8z M498,455.6c-37,2.1-65.8-20.8-67.3-48.5
			c-1.6-28.5,23.4-55.1,61.9-57.3c10.3-0.6,20.5,1,29.7,4.2l1.6,28.7l-1.7-1.4c-6.5-5.4-16-8.3-25.4-7.8
			c-21.2,1.2-32.5,16.8-31.7,31.7c0.8,14.6,14.2,28.4,34.8,27.3c9.5-0.5,18.7-4.8,24.6-10.6l1.4-1.9l1.6,27.9
			C518.1,451.9,508.6,455,498,455.6z M581.8,448.1c-31.3,0-53-23.6-52.9-51.7c0-27.4,21.7-51.4,52.9-51.4s52.9,24,52.9,51.4
			C634.7,424.5,613,448.1,581.8,448.1z M723.4,423.4c-2,20.2-20.9,32.9-49.6,30c-19.4-1.9-32.8-11.4-41.3-24l18.9-10.7
			c3,8.2,12.1,16.1,23.9,17.3c11.2,1.1,18.7-5.1,19.5-12.8c1-10.5-12.1-14.7-22.8-18.9c-17.5-7.2-30.1-15-28.6-30.7
			c1.7-16.8,20.3-28.6,44-26.2c12.5,1.2,29.4,7.4,37.3,15.1l-14.2,12.2c-4.7-5.6-11.1-9.5-20.2-10.4c-8.8-0.9-17.6,3.1-18.3,9.7
			C670.3,391,726.7,389.5,723.4,423.4z"/>
		<polygon class="st0" points="389.7,283.7 389.5,283.7 381.9,310.8 401.6,309.6 		"/>
		<polygon class="st0" points="336.8,496.5 340.9,495.6 336.8,485.5 		"/>
	</g>
	<g class="st1">
		<path class="st0" d="M681.6,180v-1.8l3.1-0.2v-2.1l-3.1,0.2v-1.5l0,0c-8.2-5-0.2-13.4-0.2-13.4c0-0.9-2.5-2.5-5.8-2.8
			c0.1-1.8-0.8-3-1.8-2.9s-1.9,1.5-1.8,3.1c-3.3,0.8-5.8,2.8-5.8,3.6c0,0,8.3,8.2-0.3,13.3l0,0v1.7l-48.3,3.6
			c-6.5-10-0.1-19.3-0.1-19.3c-0.1-2.7-2.6-4.7-5.9-5.1v-4.9l-3.6,0.3v4.9c-3.3,0.8-5.8,3.3-5.9,6c0,0,6.1,8-0.1,19.3l-48.4,3.6V184
			c-8.2-5.1-0.2-13.4-0.2-13.4c0-0.9-2.5-2.5-5.8-2.8c0.1-1.8-0.8-3-1.8-2.9s-1.9,1.5-1.8,3.1c-3.3,0.8-5.8,2.8-5.8,3.6
			c0,0,8.3,8.2-0.3,13.3l0,0l0,0l0,0v1.9l-3.3,0.2v2.1l3.3-0.2v1.5l2.9,1.8V211l-2.9,2.2v1.9l-3,0.2v2.1l149.8-11.2v-2.1l-3.1,0.2
			v-1.6l-2.9-1.8v-18.8L681.6,180L681.6,180L681.6,180z M553.6,213.9v-1.7l-2.9-1.8v-18.7l2.9-2.2v-1.7l112.3-8.4v1.6l2.9,1.8v18.7
			l-2.9,2.2v1.7L553.6,213.9L553.6,213.9z"/>
		<path class="st0" d="M679.8,321.7v-106c0,0,4.9-1.8,4.9-7.5l-13.2,1c0,0,0.7,5.7-4.8,9.7V323C666.6,323,669.2,322.2,679.8,321.7
			L679.8,321.7z"/>
		<path class="st0" d="M663.1,323.9V217c0,0,5-1.9,4.9-7.5l-17.8,1.3v117.9C650.1,328.7,658.3,325,663.1,323.9L663.1,323.9z"/>
		<path class="st0" d="M540,331.8V226.2c-4.9-2-5-6.8-5-6.8l13.2-1.1c0,0,0,5.2,4.8,8.7v98.2C553,325.2,545.6,328.5,540,331.8
			L540,331.8z"/>
		<path class="st0" d="M569.5,321.1V216.8l-17.9,1.3c0,0,0,4.7,4.9,6.8V324C556.5,324,559.2,322.7,569.5,321.1L569.5,321.1z"/>
		<path class="st0" d="M573,230.8c9.7-7.4,22.6-12.4,36.7-13.5c14.3-1.1,27.3,1.8,36.9,7.8v-14.4l-73.6,5.7L573,230.8L573,230.8z"/>
		<path class="st0" d="M573,233.5v9.9c9.7-7.4,22.7-13.1,36.9-14.2c14.2-1.1,27.2,2.6,36.7,8.4v-9.9c-9.5-5.8-22.5-8.8-36.7-7.8
			C595.7,221.1,582.7,226.1,573,233.5L573,233.5z"/>
		<polygon class="st0" points="565.9,188.6 559.6,189.1 559.6,212.1 565.9,211.6 		"/>
		<polygon class="st0" points="576.1,187.8 569.9,188.3 569.9,211.3 576.1,210.8 		"/>
		<polygon class="st0" points="586.4,187.1 580.1,187.5 580.1,210.5 586.4,210.1 		"/>
		<polygon class="st0" points="596.6,186.3 590.4,186.8 590.4,209.8 596.6,209.3 		"/>
		<polygon class="st0" points="629.6,183.9 623.4,184.4 623.4,207.4 629.6,206.9 		"/>
		<polygon class="st0" points="639.7,183.1 633.5,183.6 633.5,206.6 639.7,206.1 		"/>
		<polygon class="st0" points="649.8,182.3 643.5,182.8 643.5,205.8 649.8,205.3 		"/>
		<polygon class="st0" points="659.8,181.6 653.6,182 653.6,205 659.8,204.6 		"/>
		<polygon class="st0" points="602.9,185.8 605.6,188.2 605.6,205.9 602.3,208.9 617.5,207.7 614.7,205.2 614.7,187.5 617.3,184.7 
					"/>
		<path class="st0" d="M90.2,285.2c48.1,32.1,160.5,43.8,160.5,43.8l-4.3,20.5c-119.3-7.8-162.7-20.5-169.2-23L90.2,285.2
			L90.2,285.2z"/>
		<path class="st0" d="M729.4,294.6c-8.5,0.1-24.9-0.2-41.6-1.1l0.3,27.6c14.6,1.5,33.9,4.7,42.9,6.6L729.4,294.6L729.4,294.6z"/>
	</g>
	<g class="st2">
		<path class="st0" d="M436.2,603.7h0.9c3.6,0,9.7,0.9,13.8,4.7l0.2-0.1c-1.2-6-2.9-11.9-5.5-17.3
			C442,595.2,438.8,599.4,436.2,603.7z"/>
		<path class="st0" d="M645.3,563.1H152c-30,0-54.3,13.9-54.3,43.9s24.3,43.9,54.3,43.9h493.3c30,0,54.3-13.9,54.3-43.9
			S675.3,563.1,645.3,563.1z M157.7,625.6c-0.6,3.7-2.8,5.6-5.3,5.6c-3.6,0-4.1-2-4.2-5.8c-0.1-10.1-9.7-14.8-17.8-14.8h-2.1
			c-2.8,5.1-5.1,11.8-6.4,16.5c-0.7,2.6-2.5,4.1-5.1,4.1c-3.9,0-4.3-2.2-3.7-5.6c0.3-2.1,3.8-14.7,16.3-31.9
			c5.5-7.5,8.4-11.1,13.5-11.1c4.2,0,6.1,3.6,8.9,11.1C158.3,610.9,158.1,623.4,157.7,625.6z M203.1,587.7l-1.7,21.6
			c-0.2,1.8-0.5,3.9-0.9,5.9c-1.7,9.7-10.8,16.2-21.2,16.2c-10.4,0-17.2-6.6-15.6-16.2c0.3-2,0.7-4.1,1.2-5.9l5.8-21.6
			c0.6-2.4,2.2-4.9,5.2-4.9c3.2,0,4,2.4,3.7,4c-1.6,9.2-5.4,18.3-7,27.5c-0.9,5.4,2.5,9.1,8.1,9.1c5.6,0,10.3-3.7,11.3-9.1
			c1.6-9.2,0.9-18.3,2.5-27.5c0.3-1.7,1.9-4,5.1-4C202.6,582.8,203.3,585.3,203.1,587.7z M229.7,591.4l-6.1,35.1
			c-0.5,2.6-2.3,4.7-5.4,4.7s-4.2-2.1-3.8-4.7l6.1-35.1h-8.4c-2.6,0-4.5-1.3-4-4.2c0.5-2.8,2.8-4.2,5.5-4.2h26c2.6,0,4.5,1.3,4,4.2
			s-2.8,4.2-5.5,4.2H229.7z M273.9,597c2.5,0,4.2,1.3,3.7,4s-2.7,4-5.1,4h-17.4l-3.2,18.1h18.2c2.5,0,4.2,1.2,3.7,4
			c-0.5,2.7-2.7,4-5.1,4h-21.4c-4.8,0-5.9-2.4-5.3-6l6.5-37.2c0.5-2.6,2.4-4.7,4.8-4.7h23.8c2.5,0,4.2,1.3,3.7,4s-2.7,4-5.1,4h-18.2
			l-1,5.8H273.9z M321.8,587.6l-6.8,38.8c-0.5,2.7-2.3,4.8-5.4,4.8c-3.1,0-4.2-2.1-3.8-4.8l3.9-22.1c-5.8-0.6-11.3-4.6-15.1-10
			l-5.6,32.1c-0.5,2.7-2.3,4.8-5.4,4.8c-3.1,0-4.2-2.1-3.7-4.8l6.8-38.8c0.6-2.7,2.7-4.8,6.7-4.8c7.1,0,6.1,10.2,17.8,13.5l1.5-8.7
			c0.5-2.7,2.3-4.8,5.4-4.8C321.2,582.8,322.3,584.9,321.8,587.6z M355.4,591.4H347l-6,35.1c-0.5,2.6-2.3,4.7-5.4,4.7
			c-3.1,0-4.2-2.1-3.8-4.7l6.1-35.1h-8.4c-2.6,0-4.5-1.3-4-4.2c0.5-2.8,2.8-4.2,5.4-4.2h26c2.6,0,4.5,1.3,4,4.2
			S358.1,591.4,355.4,591.4z M376.1,587.6l-6.8,38.9c-0.5,2.6-2.3,4.7-5.4,4.7c-3.1,0-4.2-2.1-3.8-4.7l6.8-38.9
			c0.5-2.7,2.3-4.7,5.4-4.7C375.4,582.9,376.5,585,376.1,587.6z M390,603.4c-1.6,8.9,4.7,19.2,20.1,19.2c4.1,0,5.6,1.8,5.2,4.2
			c-0.6,3.3-3.5,4.6-8.5,4.6c-14.2,0-30.3-9.2-26.9-28.6c2.1-12,11.2-19.8,21.7-19.8h16.1c2.6,0,4.5,1.3,4,4.2s-2.9,4.2-5.5,4.2
			h-13.6v0C394.8,591.4,391.2,596.2,390,603.4z M462,625.6c-0.6,3.7-2.8,5.6-5.3,5.6c-3.6,0-4.1-2-4.2-5.8
			c-0.1-10.1-9.7-14.8-17.8-14.8h-2c-2.8,5.1-5.1,11.8-6.4,16.5c-0.8,2.6-2.6,4.1-5.2,4.1c-3.9,0-4.3-2.2-3.7-5.6
			c0.3-2.1,3.8-14.7,16.3-31.9c5.5-7.5,8.4-11.1,13.5-11.1c4.2,0,6.1,3.6,8.9,11.1C462.6,610.9,462.4,623.4,462,625.6z M518.1,626.9
			c-0.5,2.9-2.8,4.2-5.5,4.2h-16.9c-4.8,0-5.9-2.4-5.3-6l6.6-37.5c0.5-2.7,2.3-4.7,5.4-4.7c3.1,0,4.2,2.1,3.8,4.7l-6.1,35.1h14
			C516.7,622.7,518.6,624,518.1,626.9z M560.5,587.2c-0.5,2.7-2.6,4-5.1,4h-18.2l-0.9,5.8h17.4c2.5,0,4.2,1.3,3.7,4s-2.7,4-5.1,4
			h-17.4l-3.2,18.1h18.2c2.5,0,4.2,1.2,3.7,4c-0.5,2.7-2.6,4-5.1,4H527c-4.8,0-5.9-2.4-5.3-6l6.5-37.2c0.5-2.6,2.3-4.7,4.8-4.7h23.8
			C559.3,583.2,561,584.5,560.5,587.2z M598.5,591.4H585v0c-7.9,0-11.4,4.8-12.6,12c-1.6,8.9,4.7,19.2,20.1,19.2
			c4.1,0,5.6,1.8,5.2,4.2c-0.6,3.3-3.5,4.6-8.5,4.6c-14.2,0-30.3-9.2-26.9-28.6c2.1-12,11.2-19.8,21.7-19.8h16c2.6,0,4.5,1.3,4,4.2
			S601.2,591.4,598.5,591.4z M645,587.6l-6.8,38.9c-0.5,2.6-2.3,4.7-5.4,4.7c-3.1,0-4.2-2.1-3.7-4.7l3.7-21.3h-16.9l-3.7,21.3
			c-0.5,2.6-2.3,4.7-5.4,4.7c-3.1,0-4.2-2.1-3.8-4.7l6.8-38.9c0.5-2.7,2.3-4.7,5.4-4.7c3.1,0,4.2,2.1,3.7,4.7l-1.8,10.1h17.1
			l1.7-10.1c0.5-2.7,2.3-4.7,5.4-4.7C644.4,582.9,645.5,585,645,587.6z M684.3,587.2c-0.5,2.7-2.7,4-5.1,4H661l-1.1,5.8h17.5
			c2.5,0,4.2,1.3,3.7,4s-2.7,4-5.1,4h-17.4l-3.2,18.1h18.2c2.5,0,4.2,1.2,3.7,4c-0.5,2.7-2.7,4-5.1,4h-21.4c-4.8,0-5.9-2.4-5.3-6
			l6.5-37.2c0.5-2.6,2.4-4.7,4.8-4.7h23.8C683.1,583.2,684.8,584.5,684.3,587.2z"/>
		<path class="st0" d="M131.9,603.7h0.9c3.6,0,9.7,0.9,13.8,4.7l0.2-0.1c-1.2-6-2.9-11.9-5.5-17.3
			C137.7,595.2,134.5,599.4,131.9,603.7z"/>
	</g>
</g>
</svg>
