<?xml version="1.0" encoding="utf-8"?>
<!-- Generator: Adobe Illustrator 24.0.0, SVG Export Plug-In . SVG Version: 6.00 Build 0)  -->
<svg version="1.1" id="Capa_1" xmlns="http://www.w3.org/2000/svg" xmlns:xlink="http://www.w3.org/1999/xlink" x="0px" y="0px"
	 viewBox="0 0 800 800" style="enable-background:new 0 0 800 800;" xml:space="preserve">
<style type="text/css">
	.st0{fill-rule:evenodd;clip-rule:evenodd;fill:#0058A0;}
	.st1{fill-rule:evenodd;clip-rule:evenodd;fill:#009BDB;stroke:#009BDB;stroke-width:0.1156;stroke-miterlimit:2.6131;}
	.st2{fill-rule:evenodd;clip-rule:evenodd;fill:#FFFFFF;stroke:#FFFFFF;stroke-width:0.1156;stroke-miterlimit:2.6131;}
	.st3{fill:#AA83C7;}
</style>
<path class="st0" d="M179.6,465.8c-5.9-0.7-9.8-0.5-17.2-0.4c-9.6,0.4-20.7,7.8-19.5,20.4c0.7,8.1,15.5,14.7,26.4,6.4
	C178.2,485.5,178.1,476,179.6,465.8L179.6,465.8z M180.4,499.6c-10,8.3-14.1,14.6-29.9,16.6c-12.8,1.5-41.2-5.6-43-24.8
	c-2.1-22.8,6.4-35.4,50.9-37l20.7-0.6c0-9,0.3-17.2-10.4-19.2c-14.4-2.7-30.1,1-46.2,9.5l-7-20.4c43.8-13.6,68.6-7.5,83.9-2.8
	c9,2.7,15.5,16.7,15.3,31.2l-0.7,47.4c0.5,5.4,2.1,10.7,4.5,16.1l-37.7-0.4L180.4,499.6L180.4,499.6z M269.2,514.5l-42.7,1.2
	c4.7-35.1,6.6-109.1-5.6-126.2c14.5-0.1,29.8-2.1,44.2-5.1C262.6,427.8,261.6,475.9,269.2,514.5L269.2,514.5z M316.3,436.6
	c16.7-17.8,41.4-31.1,70.1-4.5c11.8,11,9.2,43.6-0.4,61.9c-8.5,15.9-46.1,28.6-68.5,20.4c-0.7,15.4,1.4,30.2,6.6,44.6h-47.5
	c6.6-23.5,10.7-125.8-6.6-139.2h47.5L316.3,436.6L316.3,436.6z M314.9,497.2c27.7,12.5,47.2-3.5,43.8-29.6
	c-6.3-47.7-42.3-23.9-42-11.6L314.9,497.2L314.9,497.2z M476.7,497.9c-8.2,9.8-20.7,19.2-34.2,19.2c-25.8,0-39-5.6-40.1-29.6
	c-0.9-22.8,3.5-56.2-6.3-68.3h43.8l-2.9,60.9c-1.3,24.9,41.2,16.3,39,1.3c-1.6-21.9,0.9-40.2-5.3-61.5h42.5
	c-3.7,31.8-4.2,73.5,3.1,95.3h-39.6L476.7,497.9L476.7,497.9z M605.3,447c-11.1-9.8-34.7-2.3-37.4,6.3c-3.8,10.6-9.2,52.8,3.4,62.8
	h-45.6c5.6-21.8,7.3-74.5-2.9-95.3H568l-1.4,20.4c5.9-9.6,21-22.7,40-22.9L605.3,447L605.3,447z M655.1,466.2
	c-10.9-2.9-48.4,3.8-36.2,24.3c5.1,8.7,14.5,8.6,21.9,4.4C653.9,487.3,652.5,482.6,655.1,466.2L655.1,466.2z M652.6,502.6
	c-18.2,15-33.9,16.1-55.5,9.7c-9-2.7-17.3-16.1-17.3-24.5c0-36,50.9-32.3,74.9-32.3c0-7-0.3-10.5-2.5-13.8
	c-3.1-4.8-25.8-8.4-35.6-3.4l0.6-19.2c32-4.2,70.7-4.5,72.2,25.5c-0.3,21.5-2.5,51.9,1.9,70.6l-36.7-0.4L652.6,502.6L652.6,502.6z"
	/>
<path class="st1" d="M396,370.1c49.1-98.9,113-145.4,181.9-157.7c2.8,11-7.6,57.5-18.5,71.9c-54.8,2.5-109.8,29.3-162.5,96.8
	L396,370.1L396,370.1z"/>
<path class="st1" d="M241.4,286.1c-11-21.4-18.6-46.2-19.4-76.4c22.9,5.9,44.6,14.5,64.3,25.1c13.5,3.1,19.4,14.7,19.2,21.7
	c-1,7.6,2.5,12.5,10.9,14.5c5.4,1.2,10.4,1,15.7,1.2c5.9,0.3,12.5,3.8,20.5,16.3l7.8,12.3c-5.7,7.5-10.7,17.7-11.4,28
	C317.6,304.4,281.6,291.3,241.4,286.1L241.4,286.1z"/>
<path class="st0" d="M221.7,209.4c0-0.9,0-1.8,0-2.7c0-1.3,0-2.5,0-3.8c3.1-94.8,82.3-171.2,178.8-171.2
	c81,0,149.6,53.5,171.5,126.7c1.9,7.2,3.5,14.5,4.7,22c-29.9,2.5-59.1-2.9-84.6-18.2c-2.5-1.5-2.1-9.2,9-4c5.6,2.2,12-1.4,17.6-11.8
	c5.1-9.5,9.2-19.5,12.2-29.8c-6.8-5.6-13.6-10.3-20.4-13.6c-14.8-5.6-26.7-4.1-33.9,8.3c-3.7,6.6-12,4.8-6.8-1
	c11.8-14.2,12.6-33,2.7-41.2c-11.1-9.4-14.5-7-9.1,1.4c3.4,4.6,2.1,12.8-2.7,19.2c-8.2,7.5-19.4,7.2-33.7-1
	c-22.8-12.3-51.9-12.9-76,2.1c-9,6.3-16.6,4.5-24.1,0.5c-5.6-3.8-6.4-11.6-3.7-16c3.7-5.4,2.5-17.7-7.2-1.9
	c-6.9,12.5-2.5,27.1,5.6,35.6c7,8.5,0,11.6-6.2,4.8c-9.2-11.6-20-14.8-28.9-9.7c-9.4,5.6-17,11.8-22.4,19.6l30.5,36.1
	c3.2,4.2,12.3,4,15.1,0.1c8.3-8.1,14.4-5.6,19.5,6c2.9,7.9-3.5,9.7-7.6,6.2c-3.5,0-7.5,1.8-4,9.7c5,6.9,7.5,14.4,8.6,21.1l-10.3,8.3
	c-7.5,9.1-11.3,17.8-8.7,25.4c1.6,8.1,3.5,16,6.6,24.1l20.4,3.1c18,2.9,36,3.8,54,2.1c7-2.3,11.6-8.2,15.5-17.6
	c3.2-9.8,11.1-5.3,9,3.1c-5.6,16-14.8,25.7-30.5,23.6l4.1,13.6c-10.5,0.4-19.1,4.4-25.7,11.9l-14.1-20.1c-5.7-5.9-12-9.5-19.4-8.4
	c-14.5-0.5-21.9-4.7-22.4-12.3c0.1-12.3-5.7-21.4-20.4-25.8C263.9,223.6,242.9,216.1,221.7,209.4L221.7,209.4z"/>
<path class="st0" d="M522.2,335.2c-32,29.1-74.8,46.9-121.6,46.9c-59.4,0-112.2-28.6-144.8-72.5c-3.5-4.8-6.8-9.8-9.8-14.7
	c-1.9-3.1-3.5-6.3-5.3-9.5c56.9,8.4,111.2,29.3,156.7,95c59.1-75.6,112.2-92.5,163.1-97.1C550.5,303,537.5,320.5,522.2,335.2
	L522.2,335.2z"/>
<path class="st2" d="M370,333.6c-6.3-4.8-11.8-6.2-17-5.9c-3.8-0.3-5.4,3.1-3.5,6.3c7.6,12,20.2,17.8,34.9,20.5
	c2.7,0.5,5-2.5,3.4-5.6c-0.9-2.3-2.2-4.2-4.1-5.9c-3.2,5.1-7.8,6.6-13.7,4.5C365.1,342.9,365.1,338.3,370,333.6L370,333.6z"/>
<path class="st0" d="M399.8,352c14.1-17.9,18.8-34.9,12.2-50.7c-1.6-3.4-6.3-3.2-5.6,0.6c2.9,7.6,2.9,15.1-1.8,22.6
	c-4,2.1-7.8,2.3-11.8,0.7c-9-5-17.9-7.3-26.9-8.2c-3.7,0-5.1,3.8-0.4,4.6C386.1,327.2,396.8,337.7,399.8,352L399.8,352z"/>
<path class="st0" d="M374.4,330.1c-6.3-4.8-11.8-6.3-17-6c-3.8-0.1-5.4,3.1-3.5,6.4c7.6,12,20.2,17.7,34.9,20.5
	c2.7,0.5,5-2.5,3.4-5.6c-0.9-2.2-2.2-4.1-4.1-5.7c-3.2,5.1-7.8,6.6-13.7,4.5C369.5,339.5,369.5,334.8,374.4,330.1L374.4,330.1z"/>
<path class="st0" d="M331.6,281.7c5.9-3.5,11.8,0.3,10.4,6.9c-0.7,3.5-2.3,2.5-6.3,4c-1.2,1.6,1.4,3.1,3.4,4.6
	c2.1,1-0.5,4.1-4.1,1.9C328.5,296.2,324.9,288.5,331.6,281.7L331.6,281.7z"/>
<path class="st0" d="M373.5,229.6c-5.9-3.5-11.8,0.3-10.4,6.9c0.7,3.5,2.3,2.5,6.3,4c1.2,1.6-1.5,3.1-3.4,4.6
	c-2.1,1,0.5,4.1,4.1,1.9C376.6,244.3,380.2,236.6,373.5,229.6L373.5,229.6z"/>
<path class="st0" d="M402.7,176c3.5-9.4,8.6-16.1,14.7-20.4c9.7-6,19.2-4.8,28.6,1.2c3.7,2.9,0.7,7.9-2.8,6.8
	c-1.9-1.2-6-1.2-5.6,0.5c-0.7,11.3-6.8,15.9-16.7,15.9c-2.2-0.1-4.1-1-5.7-2.5c-1.5-1.6-4.4-1.2-4.7,0.4
	C407.2,185,399.8,182.7,402.7,176L402.7,176z M430.3,162.9c2.2,0,4,1.6,4,3.8c0,2.1-1.8,3.8-4,3.8s-4-1.8-4-3.8
	C426.3,164.6,428.2,162.9,430.3,162.9L430.3,162.9z"/>
<g>
	<path class="st3" d="M111.6,652.9h22.1c5.3,0,10.4,0.6,15.2,1.8s9,3.1,12.6,5.8s6.4,6.1,8.5,10.4c2.1,4.3,3.2,9.5,3.2,15.6
		c0,5.4-1,10.2-3.1,14.3c-2,4.1-4.8,7.6-8.3,10.4c-3.5,2.8-7.5,4.9-12,6.4c-4.5,1.4-9.3,2.2-14.2,2.2h-24.1v-66.9H111.6z
		 M126.3,706.1h7.6c3.4,0,6.6-0.3,9.5-1s5.5-1.8,7.6-3.4c2.1-1.6,3.8-3.7,5-6.3s1.8-5.8,1.8-9.6c0-3.3-0.6-6.1-1.8-8.5s-2.9-4.4-5-6
		s-4.5-2.8-7.3-3.5c-2.8-0.8-5.7-1.2-8.8-1.2h-8.7L126.3,706.1L126.3,706.1z"/>
	<path class="st3" d="M224.8,711.8c-2.3,2.9-5.1,5.1-8.6,6.7s-7,2.4-10.8,2.4c-3.5,0-6.8-0.6-10-1.7c-3.1-1.1-5.8-2.8-8.1-4.9
		c-2.3-2.1-4.1-4.6-5.4-7.6c-1.3-3-2-6.3-2-9.9c0-3.6,0.7-6.9,2-9.9s3.1-5.5,5.4-7.6c2.3-2.1,5-3.7,8.1-4.9c3.1-1.1,6.4-1.7,10-1.7
		c3.3,0,6.2,0.6,8.9,1.7c2.7,1.1,4.9,2.8,6.8,4.9c1.9,2.1,3.3,4.6,4.3,7.6s1.5,6.3,1.5,9.9v4.4h-32.8c0.6,2.7,1.8,4.9,3.7,6.5
		s4.2,2.4,7,2.4c2.3,0,4.3-0.5,5.9-1.6c1.6-1,3-2.4,4.2-4L224.8,711.8z M212.8,691.6c0.1-2.4-0.7-4.4-2.4-6.1
		c-1.6-1.7-3.7-2.5-6.3-2.5c-1.6,0-3,0.3-4.2,0.8s-2.2,1.1-3.1,1.9c-0.8,0.8-1.5,1.7-2,2.7s-0.7,2.1-0.8,3.3h18.8V691.6z"/>
	<path class="st3" d="M261.5,687.3c-2.1-2.6-4.8-3.9-8.2-3.9c-1.2,0-2.4,0.3-3.5,0.8c-1.1,0.6-1.7,1.5-1.7,2.9c0,1.1,0.6,2,1.7,2.5
		c1.2,0.5,2.6,1,4.4,1.4c1.8,0.4,3.7,0.8,5.8,1.3c2,0.5,4,1.2,5.8,2.2s3.3,2.4,4.4,4.1c1.2,1.7,1.7,4,1.7,6.9c0,3-0.6,5.4-1.9,7.3
		c-1.3,1.9-2.9,3.5-5,4.6c-2,1.2-4.3,2-6.8,2.5s-5,0.7-7.5,0.7c-3.2,0-6.4-0.5-9.7-1.4s-6-2.5-8.3-4.9l8.6-9.5
		c1.3,1.6,2.8,2.9,4.4,3.7c1.6,0.8,3.5,1.3,5.6,1.3c1.6,0,3.1-0.2,4.4-0.7s2-1.3,2-2.6c0-1.2-0.6-2.1-1.7-2.7
		c-1.2-0.6-2.6-1.1-4.4-1.5c-1.8-0.4-3.7-0.8-5.8-1.3c-2-0.5-4-1.2-5.8-2.1c-1.8-0.9-3.3-2.3-4.4-4c-1.2-1.7-1.7-4-1.7-6.9
		c0-2.7,0.5-5,1.7-7c1.1-1.9,2.5-3.6,4.3-4.8c1.8-1.3,3.9-2.2,6.2-2.8s4.7-0.9,7.1-0.9c3,0,6.1,0.4,9.2,1.3c3.1,0.9,5.7,2.5,7.8,4.7
		L261.5,687.3z"/>
	<path class="st3" d="M279.4,648.4h14.2v71.3h-14.2V648.4z"/>
	<path class="st3" d="M332.5,713.9h-0.2c-1.6,2.5-3.7,4.2-6.3,5.3c-2.6,1.1-5.4,1.6-8.3,1.6c-2.1,0-4.2-0.3-6.2-0.9
		c-2-0.6-3.7-1.5-5.2-2.7s-2.7-2.7-3.6-4.4c-0.9-1.8-1.3-3.8-1.3-6.1c0-2.6,0.5-4.9,1.5-6.7s2.3-3.3,4-4.5s3.6-2.1,5.7-2.8
		s4.4-1.1,6.7-1.5c2.3-0.3,4.6-0.5,6.9-0.6s4.4-0.1,6.4-0.1c0-2.5-0.9-4.5-2.7-6c-1.8-1.5-3.9-2.2-6.4-2.2c-2.3,0-4.5,0.5-6.4,1.5
		s-3.6,2.3-5.1,4l-7.5-7.7c2.6-2.5,5.7-4.3,9.2-5.5s7.2-1.8,10.9-1.8c4.2,0,7.6,0.5,10.2,1.6c2.7,1,4.8,2.6,6.4,4.6s2.7,4.5,3.3,7.4
		c0.6,2.9,0.9,6.3,0.9,10.1v23.3h-13v-5.9H332.5z M329,699.6c-1.1,0-2.4,0-4,0.1s-3.1,0.4-4.6,0.8c-1.5,0.4-2.7,1.1-3.8,2
		c-1,0.9-1.6,2.1-1.6,3.7c0,1.7,0.7,3,2.2,3.8c1.4,0.8,3,1.2,4.5,1.2c1.4,0,2.7-0.2,4-0.6c1.3-0.4,2.4-0.9,3.4-1.6
		c1-0.7,1.8-1.6,2.4-2.6c0.6-1.1,0.9-2.3,0.9-3.8v-3L329,699.6L329,699.6z"/>
	<path class="st3" d="M385.4,688.6c-0.7-1-1.7-1.8-2.9-2.5c-1.3-0.7-2.6-1-4.1-1c-3.6,0-6.4,1.1-8.3,3.2c-2,2.1-3,4.9-3,8.4
		s1,6.3,3,8.4c2,2.1,4.8,3.2,8.3,3.2c1.6,0,2.9-0.3,4.1-1c1.1-0.7,2.1-1.5,2.9-2.5l9.3,9.8c-2.2,2.3-4.8,3.9-7.8,4.8
		c-3,0.9-5.8,1.4-8.5,1.4c-3.5,0-6.8-0.6-10-1.7c-3.1-1.1-5.8-2.8-8.1-4.9c-2.3-2.1-4.1-4.6-5.4-7.6s-2-6.3-2-9.9
		c0-3.6,0.7-6.9,2-9.9s3.1-5.5,5.4-7.6s5-3.7,8.1-4.9c3.1-1.1,6.4-1.7,10-1.7c2.7,0,5.5,0.5,8.5,1.4s5.6,2.5,7.8,4.8L385.4,688.6z"
		/>
	<path class="st3" d="M431.1,685.2h-12.5v15.3c0,1.3,0.1,2.4,0.2,3.4s0.4,1.9,0.8,2.7s1.1,1.3,2,1.7s2.1,0.6,3.6,0.6
		c0.8,0,1.7-0.1,3-0.2c1.2-0.2,2.2-0.5,2.8-1.1v11.8c-1.6,0.6-3.2,0.9-4.9,1.1c-1.7,0.2-3.4,0.3-5,0.3c-2.4,0-4.6-0.3-6.6-0.8
		s-3.8-1.3-5.3-2.4c-1.5-1.1-2.7-2.5-3.5-4.3s-1.3-3.9-1.3-6.4v-21.8h-9.1v-11.3h9.1v-13.6h14.2v13.6h12.5L431.1,685.2L431.1,685.2z
		"/>
	<path class="st3" d="M436.6,696.8c0-3.6,0.7-6.9,2-9.9s3.1-5.5,5.4-7.6s5-3.7,8.1-4.9c3.1-1.1,6.4-1.7,10-1.7c3.5,0,6.8,0.6,10,1.7
		c3.1,1.1,5.8,2.8,8.1,4.9c2.3,2.1,4.1,4.6,5.4,7.6s2,6.3,2,9.9c0,3.6-0.7,7-2,9.9c-1.3,3-3.1,5.5-5.4,7.6s-5,3.7-8.1,4.9
		c-3.1,1.1-6.4,1.7-10,1.7c-3.5,0-6.8-0.6-10-1.7c-3.1-1.1-5.8-2.8-8.1-4.9c-2.3-2.1-4.1-4.6-5.4-7.6
		C437.2,703.7,436.6,700.4,436.6,696.8z M450.7,696.8c0,3.5,1,6.3,3,8.4c2,2.1,4.8,3.2,8.3,3.2c3.6,0,6.4-1.1,8.3-3.2
		c2-2.1,3-4.9,3-8.4s-1-6.3-3-8.4c-2-2.1-4.8-3.2-8.3-3.2c-3.6,0-6.4,1.1-8.3,3.2C451.7,690.5,450.7,693.3,450.7,696.8z"/>
	<path class="st3" d="M521.7,687.3c-2.1-2.6-4.8-3.9-8.2-3.9c-1.2,0-2.4,0.3-3.5,0.8c-1.1,0.6-1.7,1.5-1.7,2.9c0,1.1,0.6,2,1.7,2.5
		c1.2,0.5,2.6,1,4.4,1.4c1.8,0.4,3.7,0.8,5.8,1.3c2,0.5,4,1.2,5.8,2.2s3.3,2.4,4.4,4.1c1.2,1.7,1.7,4,1.7,6.9c0,3-0.6,5.4-1.9,7.3
		c-1.3,1.9-2.9,3.5-5,4.6c-2,1.2-4.3,2-6.8,2.5s-5,0.7-7.5,0.7c-3.2,0-6.4-0.5-9.7-1.4c-3.3-0.9-6-2.5-8.3-4.9l8.6-9.5
		c1.3,1.6,2.8,2.9,4.4,3.7s3.5,1.3,5.6,1.3c1.6,0,3.1-0.2,4.4-0.7s2-1.3,2-2.6c0-1.2-0.6-2.1-1.7-2.7c-1.2-0.6-2.6-1.1-4.4-1.5
		c-1.8-0.4-3.7-0.8-5.8-1.3c-2-0.5-4-1.2-5.8-2.1s-3.3-2.3-4.4-4c-1.2-1.7-1.7-4-1.7-6.9c0-2.7,0.5-5,1.7-7c1.1-1.9,2.5-3.6,4.3-4.8
		c1.8-1.3,3.9-2.2,6.2-2.8c2.3-0.6,4.7-0.9,7.1-0.9c3,0,6.1,0.4,9.2,1.3c3.1,0.9,5.7,2.5,7.8,4.7L521.7,687.3z"/>
	<path class="st3" d="M568.2,713.9H568c-1.6,2.5-3.7,4.2-6.3,5.3s-5.4,1.6-8.3,1.6c-2.1,0-4.2-0.3-6.2-0.9c-2-0.6-3.7-1.5-5.2-2.7
		s-2.7-2.7-3.6-4.4c-0.9-1.8-1.3-3.8-1.3-6.1c0-2.6,0.5-4.9,1.5-6.7s2.3-3.3,4-4.5s3.6-2.1,5.7-2.8c2.1-0.7,4.4-1.1,6.7-1.5
		c2.3-0.3,4.6-0.5,6.9-0.6c2.3-0.1,4.4-0.1,6.4-0.1c0-2.5-0.9-4.5-2.7-6s-3.9-2.2-6.4-2.2c-2.3,0-4.5,0.5-6.4,1.5s-3.6,2.3-5.1,4
		l-7.5-7.7c2.6-2.5,5.7-4.3,9.2-5.5s7.2-1.8,10.9-1.8c4.2,0,7.6,0.5,10.2,1.6c2.7,1,4.8,2.6,6.4,4.6s2.7,4.5,3.3,7.4
		s0.9,6.3,0.9,10.1v23.3h-13L568.2,713.9L568.2,713.9z M564.8,699.6c-1.1,0-2.4,0-4,0.1s-3.1,0.4-4.6,0.8c-1.5,0.4-2.7,1.1-3.8,2
		s-1.6,2.1-1.6,3.7c0,1.7,0.7,3,2.2,3.8c1.4,0.8,3,1.2,4.5,1.2c1.4,0,2.7-0.2,4-0.6c1.3-0.4,2.4-0.9,3.4-1.6c1-0.7,1.8-1.6,2.4-2.6
		c0.6-1.1,0.9-2.3,0.9-3.8v-3L564.8,699.6L564.8,699.6z"/>
	<path class="st3" d="M638.2,719.7h-13v-6H625c-0.6,0.8-1.3,1.7-2.2,2.5s-2,1.6-3.2,2.3s-2.6,1.3-4.1,1.7s-3,0.7-4.6,0.7
		c-3.4,0-6.5-0.6-9.2-1.7c-2.8-1.2-5.1-2.8-7.1-4.9c-2-2.1-3.5-4.6-4.6-7.5s-1.6-6.1-1.6-9.5c0-3.2,0.5-6.3,1.5-9.2s2.4-5.5,4.2-7.8
		s4-4.1,6.6-5.4c2.6-1.4,5.5-2,8.8-2c3,0,5.7,0.5,8.3,1.4c2.5,0.9,4.6,2.5,6.3,4.7h0.2v-30.4h14.2v71.1H638.2z M625.2,696.8
		c0-3.5-1-6.3-3-8.4c-2-2.1-4.8-3.2-8.3-3.2c-3.6,0-6.4,1.1-8.3,3.2c-2,2.1-3,4.9-3,8.4s1,6.3,3,8.4c2,2.1,4.8,3.2,8.3,3.2
		c3.6,0,6.4-1.1,8.3-3.2C624.2,703,625.2,700.2,625.2,696.8z"/>
	<path class="st3" d="M678.3,713.9h-0.2c-1.6,2.5-3.7,4.2-6.3,5.3s-5.4,1.6-8.3,1.6c-2.1,0-4.2-0.3-6.2-0.9c-2-0.6-3.7-1.5-5.2-2.7
		s-2.7-2.7-3.6-4.4c-0.9-1.8-1.3-3.8-1.3-6.1c0-2.6,0.5-4.9,1.5-6.7s2.3-3.3,4-4.5s3.6-2.1,5.7-2.8c2.1-0.7,4.4-1.1,6.7-1.5
		c2.3-0.3,4.6-0.5,6.9-0.6c2.3-0.1,4.4-0.1,6.4-0.1c0-2.5-0.9-4.5-2.7-6s-3.9-2.2-6.4-2.2c-2.3,0-4.5,0.5-6.4,1.5s-3.6,2.3-5.1,4
		l-7.5-7.7c2.6-2.5,5.7-4.3,9.2-5.5s7.2-1.8,10.9-1.8c4.2,0,7.6,0.5,10.2,1.6c2.7,1,4.8,2.6,6.4,4.6s2.7,4.5,3.3,7.4
		s0.9,6.3,0.9,10.1v23.3h-13L678.3,713.9L678.3,713.9z M674.8,699.6c-1.1,0-2.4,0-4,0.1s-3.1,0.4-4.6,0.8c-1.5,0.4-2.7,1.1-3.8,2
		s-1.6,2.1-1.6,3.7c0,1.7,0.7,3,2.2,3.8c1.4,0.8,3,1.2,4.5,1.2c1.4,0,2.7-0.2,4-0.6c1.3-0.4,2.4-0.9,3.4-1.6c1-0.7,1.8-1.6,2.4-2.6
		c0.6-1.1,0.9-2.3,0.9-3.8v-3L674.8,699.6L674.8,699.6z"/>
</g>
</svg>
