<?xml version="1.0" encoding="utf-8"?>
<!-- Generator: Adobe Illustrator 19.0.0, SVG Export Plug-In . SVG Version: 6.00 Build 0)  -->
<svg version="1.1" id="Capa_1" xmlns="http://www.w3.org/2000/svg" xmlns:xlink="http://www.w3.org/1999/xlink" x="0px" y="0px"
	 viewBox="0 0 800 800" style="enable-background:new 0 0 800 800;" xml:space="preserve">
<style type="text/css">
	.st0{fill-rule:evenodd;clip-rule:evenodd;fill:#BF0411;}
	.st1{fill-rule:evenodd;clip-rule:evenodd;fill:#FFFFFF;}
	.st2{fill-rule:evenodd;clip-rule:evenodd;fill:#00579B;}
	.st3{fill-rule:evenodd;clip-rule:evenodd;fill:#13408F;}
</style>
<path class="st0" d="M395.6,329.4c10.7,36.9-35.5,63-57.7,57.7c-22.8-6-30.9-25.5-28.2-45.6c-47.6,18.8-85.2-24.1-75.8-61
	c8.7-36.2,52.3-55,94.6-38.2c-5.4-46.3,23.5-83.8,60.4-83.8c37.6,0,69.1,47.6,39.6,89.9c20.1,2,36.2,14.8,36.2,38.2
	C464.7,310.6,427.8,348.8,395.6,329.4L395.6,329.4z"/>
<path class="st1" d="M422.4,315.3c12.1-12.7,7.4-26.2,3.4-30.9c-4-4.7-10.1-15.4-24.8-13.4c27.5-18.8,20.1-69.7-21.5-69.7
	c-17.4,0-42.9,12.1-49,43.6c-30.9-2.7-49,20.1-53,36.9c-10.1,40.9,36.2,61,61,38.2c-5.4,14.8,3.4,22.8,6.7,27.5
	c4,5.4,15.4,13.4,30.2,4.7c14.8-8.7,16.8-15.4,16.8-26.8C403.6,328,410.3,327.3,422.4,315.3L422.4,315.3z"/>
<path class="st2" d="M703.4,533.3v-11.8c0-0.8,0-3.3,0-5.3l0,0l-6.1,17.1h-2.4l-6.1-17.1l0,0c0,2,0,4.5,0,5.3v11.8h-2.4v-20.4h3.7
	l6.1,17.5l0,0l5.7-17.5h4.1v20.4H703.4L703.4,533.3z"/>
<path class="st2" d="M712.3,524.8h6.5c3.3,0,3.7,2,3.7,3.7c0,0.8,0,3.7,0.4,5.3h3.7v-0.8c-0.8-0.4-1.2-0.8-1.2-2v-3.7
	c-0.4-2.9-1.2-3.3-2.4-3.7c1.2-0.8,2.9-2,2.9-5.3c0-4.1-3.7-5.3-6.9-5.3h-9.4v20.8h2.9V524.8L712.3,524.8z"/>
<path class="st1" d="M712.3,515.4h6.9c1.2,0,3.7,0,3.7,3.3c0,3.3-2.4,3.7-4.5,3.7h-6.1V515.4L712.3,515.4z"/>
<path class="st3" d="M108.7,459L77.6,617.5c0.7,3.4,2.5,13.7,8.6,17.5c5.9,3.8,16,1.1,21.2-1.1c146.8-63.7,192.5-83.1,218.6-37.1
	c27.4-9.3,51-17.1,53.8-39.8l-41.6-117c-0.5-1.6-3.4-7.3-9.2-10.5c-5.8-3.3-18.6-4.8-21.1-4.5l-39.9,5.9
	c-20.5,1.3-38,18.1-46.2,35.9l-38.9,92.8c55.4-31.9,43.5-28,76.1-40.5l15.2-43.8c1.3-3.4,3.9-13.9,6.9-15.3c3-1.4,8-1.1,11-1.5
	l11.9,66.8c-22.7-0.3-55.7,2.8-127.9,53c-6.1,4.3-17.8,8.3-18.2,3.2L179.1,472c-0.3-18-19-22.9-28.4-21.9L108.7,459L108.7,459z
	 M264.8,542.6c18.5-6.2,56.2-14.6,55.4,9C309,541.9,295.1,540.7,264.8,542.6L264.8,542.6z"/>
<path class="st3" d="M403,407.5L371.8,566c0.7,3.4,2.5,13.7,8.6,17.5c5.9,3.8,16,1.1,21.2-1.1c146.8-63.7,192.5-83.1,218.6-37.1
	c27.4-9.3,51-17.1,53.8-39.8l-41.6-117c-0.5-1.6-3.4-7.3-9.2-10.5c-5.8-3.3-18.6-4.8-21.1-4.5l-39.9,5.9
	c-20.5,1.3-38,18.1-46.2,35.9L477.1,508c55.4-31.9,43.5-28,76.1-40.5l15.2-43.8c1.3-3.4,3.9-13.9,6.9-15.3c3-1.4,8-1.1,11-1.5
	l11.9,66.8c-22.7-0.3-55.7,2.8-127.9,53c-6.1,4.3-17.8,8.3-18.2,3.2l21.4-109.4c-0.3-18-19-22.9-28.4-21.9L403,407.5L403,407.5z
	 M559,491c18.5-6.2,56.2-14.6,55.4,9C603.3,490.4,589.4,489.1,559,491L559,491z"/>
</svg>
