<?xml version="1.0" encoding="utf-8"?>
<!-- Generator: Adobe Illustrator 24.0.0, SVG Export Plug-In . SVG Version: 6.00 Build 0)  -->
<svg version="1.1" id="Capa_1" xmlns="http://www.w3.org/2000/svg" xmlns:xlink="http://www.w3.org/1999/xlink" x="0px" y="0px"
	 viewBox="0 0 180 100" style="enable-background:new 0 0 180 100;" xml:space="preserve">
<style type="text/css">
	.st0{fill-rule:evenodd;clip-rule:evenodd;}
	.st1{fill-rule:evenodd;clip-rule:evenodd;fill:#FFFFFF;}
	.st2{fill-rule:evenodd;clip-rule:evenodd;fill:#4C98D0;}
	.st3{fill-rule:evenodd;clip-rule:evenodd;fill:#2E2D24;}
	.st4{fill-rule:evenodd;clip-rule:evenodd;fill:#C5453E;}
</style>
<g>
	<path class="st0" d="M142.5,27.7V26c0-0.1,0-0.4,0-0.7l0,0l-0.8,2.4h-0.4l-0.8-2.4l0,0c0,0.3,0,0.6,0,0.7v1.7h-0.4v-2.8h0.6
		l0.8,2.4l0,0l0.8-2.4h0.5v2.8H142.5L142.5,27.7z"/>
	<path class="st0" d="M143.9,27.7h-0.4v-2.8h1.3c0.5,0,0.9,0.2,0.9,0.8c0,0.4-0.2,0.6-0.4,0.7c0.2,0.1,0.3,0.1,0.3,0.5l0,0.5
		c0,0.2,0,0.2,0.2,0.3v0.1h-0.5c-0.1-0.2-0.1-0.6-0.1-0.7c0-0.2-0.1-0.5-0.5-0.5h-0.9V27.7L143.9,27.7L143.9,27.7z M143.9,26.2h0.9
		c0.3,0,0.6-0.1,0.6-0.5c0-0.4-0.3-0.5-0.5-0.5h-1V26.2L143.9,26.2z"/>
	<path class="st1" d="M66.7,35.3C62.3,34.9,44.1,33,36.3,27L33,37.4c-1.7,0.5-3,1.9-3,4v20.5c0,1,0.6,2.8,2.7,3.7l4.8,1.9
		c1,0.4,2.7,0.5,4.1-0.5c0.4-0.3,1-0.8,1.4-1.7c0.3,0.1,3.8,0.4,4.3,0.4c0,0.2,0,0.5,0,0.8c0,0,0,1,0.5,2c0.7,1.4,1.9,2.2,3.4,2.2
		L61.4,71c0.4,0,1.1-0.1,1.6-0.3c1.1-0.4,1.9-1.2,2.4-2.3c0,0,1.1-2.8,1.5-3.9c0.8,0,1.7-0.1,2.6-0.1c0.4,1,1.2,2.8,1.2,2.8
		c0.5,1.1,2.2,3.1,4.7,2.4l9-2.1c2.5-0.6,3.2-2.9,3.2-4.1c0,0,0-0.5,0-0.6c2.7,2.9,7.5,7.8,7.5,7.8c0.2,0.3,1.5,1.5,3.4,1.3l5.9-0.5
		c0.9-0.1,1.7-0.4,2.4-1c0.6-0.5,1-1.1,1.2-1.9c0.5-1.5,0.2-3.2-0.8-4c0,0-1.2-1.2-2.5-2.5c0.9,0,1.7-0.1,2.3-0.1
		c4-0.5,5.7-1.8,6.5-2.6c1.3,0.7,3.1,1.3,5.3,1.5c2.8,0.2,5.6-0.6,8.2-2.3c5.2,4.4,11.5,3.3,13.8,2.5c8.5-2.9,7.6-11.9,4.4-14.7
		c5.2-3.8,0.9-7.4,0.9-7.4l-0.5-9.7c0,0-5.6,0.2-8.3-0.2l0-10.8c0.9-0.4,0.8-2.1,0.8-2.1v-1.2l-1-0.3v-2.3l1-0.3V9.3
		c0,0-0.6,0.1-1,0.1c-0.6,0,0.5-1.2,0.5-1.2c-0.1-0.8-0.6-1.3-1.3-1.5c-0.4-0.6-1-0.7-1.4-0.7c0,0-0.8,0-1.3,0.9
		c-1.4,0.8-1.2,1.8-1.2,1.8s1,1.1,0.4,1.1c-1.2,0.1-4.9,0.4-6.2,0.5c-0.1-1.1,0.5-1.9,0.5-1.9s-0.1-1.2-1-1.7c0-0.2,0-1.4,0-1.4
		l-1.5,0.1l-1.9,0.1c0,0,0,1.2,0,1.3c-1.1,0.8-1,2-1,2s0.6,0.7,0.4,1.8c-1.2,0.1-5,0.4-6.3,0.5c-0.7,0.1,0.5-1.2,0.5-1.2
		c-0.1-0.7-0.6-1.2-1.3-1.5c-0.1-0.1-0.1-0.2-0.2-0.2c-0.3-0.3-0.8-0.5-1.2-0.5l0,0c-0.6,0.1-1,0.4-1.3,0.9
		c-0.6,0.3-1.2,0.8-1.2,1.8c0,0,1,1.1,0.3,1.1c-0.4,0-0.9,0.1-0.9,0.1v2.3l1,0.3v2.3l-1,0.3v0.5c-1.1-0.6-2.3-0.6-3.1-0.5l0,0
		l-3.4,0.7c-1,0.2-1.8,0.7-2.4,1.4c-0.9-0.5-1.8-0.6-2.9-0.4l-3.9,0.9c-1.3,0.3-2.3,1.2-2.9,2.3c-0.9-0.8-2.2-1.2-3.5-0.9l-3.6,0.7
		c-1.4,0.3-2.5,1.2-3.1,2.5c-1.7-1-4.4-1.5-7.4-1.3c-2.1,0.1-4.1,0.8-5.7,1.9c-1.5,1.1-2.4,2.5-3.1,4.3
		C64.4,31.3,65.4,33.9,66.7,35.3L66.7,35.3L66.7,35.3L66.7,35.3z M119.7,35c-0.2,0-0.4,0-0.7,0V23.3l0.1,0c1.6-1.2,3.5-1.9,5.5-2.1
		c1.9-0.1,3.8,0.3,5.3,1.2v15c-0.4,0.3-0.9,0.6-1.3,1C127.5,37.4,124.6,35,119.7,35L119.7,35z"/>
	<path class="st2" d="M136.4,11.5v-0.3l0.5,0v-0.4l-0.5,0v-0.3l0,0c-1.4-0.8,0-2.3,0-2.3c0-0.2-0.4-0.4-1-0.5c0-0.3-0.1-0.5-0.3-0.5
		s-0.3,0.3-0.3,0.5c-0.6,0.1-1,0.5-1,0.6c0,0,1.4,1.4-0.1,2.2l0,0V11l-8.1,0.6c-1.1-1.7,0-3.2,0-3.2c0-0.5-0.4-0.8-1-0.9V6.7
		l-0.6,0.1v0.8c-0.6,0.1-1,0.6-1,1c0,0,1,1.3,0,3.2l-8.1,0.6v-0.3c-1.4-0.9,0-2.3,0-2.3c0-0.2-0.4-0.4-1-0.5c0-0.3-0.1-0.5-0.3-0.5
		s-0.3,0.3-0.3,0.5c-0.6,0.1-1,0.5-1,0.6c0,0,1.4,1.4-0.1,2.2l0,0l0,0l0,0v0.3l-0.6,0V13l0.6,0v0.3l0.5,0.3v3.2l-0.5,0.4v0.3l-0.5,0
		v0.4l25.2-1.9v-0.4l-0.5,0v-0.3L136,15v-3.2L136.4,11.5L136.4,11.5L136.4,11.5z M114.9,17.2v-0.3l-0.5-0.3v-3.1l0.5-0.4v-0.3
		l18.9-1.4v0.3l0.5,0.3v3.1l-0.5,0.4v0.3L114.9,17.2L114.9,17.2z"/>
	<path class="st2" d="M136.1,35.3V17.5c0,0,0.8-0.3,0.8-1.3l-2.2,0.2c0,0,0.1,1-0.8,1.6v17.5C133.9,35.5,134.4,35.4,136.1,35.3
		L136.1,35.3z"/>
	<path class="st2" d="M133.3,35.6v-18c0,0,0.8-0.3,0.8-1.3l-3,0.2v19.8C131.2,36.5,132.5,35.8,133.3,35.6L133.3,35.6z"/>
	<path class="st2" d="M112.6,37V19.2c-0.8-0.3-0.8-1.1-0.8-1.1l2.2-0.2c0,0,0,0.9,0.8,1.5v16.5C114.8,35.9,113.6,36.4,112.6,37
		L112.6,37z"/>
	<path class="st2" d="M117.6,35.2V17.7l-3,0.2c0,0,0,0.8,0.8,1.1v16.7C115.4,35.7,115.9,35.4,117.6,35.2L117.6,35.2z"/>
	<path class="st2" d="M118.2,20c1.6-1.2,3.8-2.1,6.2-2.3c2.4-0.2,4.6,0.3,6.2,1.3v-2.4l-12.4,1L118.2,20L118.2,20z"/>
	<path class="st2" d="M118.2,20.5v1.7c1.6-1.2,3.8-2.2,6.2-2.4c2.4-0.2,4.6,0.4,6.2,1.4v-1.7c-1.6-1-3.8-1.5-6.2-1.3
		C122,18.4,119.8,19.2,118.2,20.5L118.2,20.5z"/>
	<polygon class="st2" points="117,12.9 115.9,13 115.9,16.9 117,16.8 	"/>
	<polygon class="st2" points="118.7,12.8 117.7,12.9 117.7,16.7 118.7,16.6 	"/>
	<polygon class="st2" points="120.4,12.7 119.4,12.7 119.4,16.6 120.4,16.5 	"/>
	<polygon class="st2" points="122.2,12.5 121.1,12.6 121.1,16.5 122.2,16.4 	"/>
	<polygon class="st2" points="127.7,12.1 126.7,12.2 126.7,16.1 127.7,16 	"/>
	<polygon class="st2" points="129.4,12 128.4,12.1 128.4,15.9 129.4,15.9 	"/>
	<polygon class="st2" points="131.1,11.9 130,11.9 130,15.8 131.1,15.7 	"/>
	<polygon class="st2" points="132.8,11.7 131.7,11.8 131.7,15.7 132.8,15.6 	"/>
	<polygon class="st2" points="123.2,12.4 123.7,12.8 123.7,15.8 123.1,16.3 125.7,16.1 125.2,15.7 125.2,12.7 125.6,12.3 	"/>
	<path class="st3" d="M104.3,70l-5.9,0.5c-1.4,0.2-2.3-0.9-2.3-0.9l-9.8-10.4v4.1c0,0,0,2.2-2.1,2.7l-9,2.1C73,68.8,72,66.6,72,66.6
		L70.5,63L66,63.1l-1.9,4.8c-0.8,1.8-2.6,1.8-2.6,1.8l-10.3-0.5c-2.4-0.1-2.6-2.8-2.6-2.8v-2.9c-0.9,1-2.2,0.8-2.2,0.8l-3-0.3
		c0,0-1-0.2-1.6-0.8c0.2,3.1-2.7,3.5-3.8,3l-4.8-1.9c-1.8-0.7-1.8-2.6-1.8-2.6V41.4c0,0,0-2.9,3.1-2.8l5.8,0.6
		c1.5,0.1,2.3,1.6,2.3,1.6l3,6.5l2.6-5.5c0,0,0.7-1.8,2.8-1.6l5.9,0.6c2.5,0.3,2.5,2.8,2.5,2.8v7.2l3-8.5c0.7-1.7,1.1-1.9,4.9-1.9
		c-1.6-1.9-0.6-3.7,1.5-5.2c-4.9-3.7-1.5-11.3,5.5-11.6c6.8-0.2,8,2.4,8,2.4l0.5-1.6c0.3-1,1.1-1.7,2.2-1.9l3.6-0.7
		c1.3-0.2,2.6,0.4,3.1,1.6l1.1,2.6v-2.8c0-1.3,0.9-2.5,2.2-2.7l3.9-0.9c2.1-0.4,3,1.3,3,1.3s0.3-2,2.2-2.4l3.5-0.7
		c1.1-0.2,3.4,0.4,3.4,2.8v17.5c0.4,0.2,0.8,0.5,1.1,0.9c2.1-1.8,4.8-2.8,7.7-2.8c3.5,0,6.7,1.4,8.9,3.9c2.3-3.1,6.2-3.9,9.2-3.6
		c2.5,0.3,6.1,1.5,7.9,3.3c0.5,0.5,1.7,2.5-0.1,4.1c0,0-2.1,1.8-2.3,2c3.7,2.6,3,6.4,3,6.4c-0.7,8.4-13.2,10.1-19,4
		c-6,4.5-11.4,2.5-14.1,0.8c-0.5,2.2-7,4.1-12.2,2.7l5.4,5.4C107.3,66.4,107.2,69.7,104.3,70L104.3,70z"/>
	<path class="st1" d="M78.2,29.5c-0.8-0.6-1.7-0.9-3-0.8c-1.2,0.1-2.3,0.9-2.2,1.7c0.2,2.3,7.7,0.6,8.1,5.1c0.3,2.7-1.9,4.8-5.8,5.2
		c-2.6,0.3-4.7-0.6-6.1-2.1l2.2-1.9c0.6,1,2,1.8,3.6,1.6c1.5-0.1,2.4-1.1,2.3-2.2c-0.1-1.4-2-1.6-3.5-1.9c-2.5-0.5-4.4-1.2-4.6-3.2
		c-0.2-2.2,2-4.2,5.2-4.5c1.7-0.2,4.1,0.2,5.4,1L78.2,29.5L78.2,29.5z"/>
	<path class="st1" d="M70.6,55.9L65.5,56l2.2-6.9h0.1L70.6,55.9L70.6,55.9L70.6,55.9z M72.3,60.1l2.3,5.4l4.6-1l-8.6-21.3l-5.7,0
		l-8.2,23.5h4.8l2.6-6.5L72.3,60.1L72.3,60.1z"/>
	<path class="st1" d="M89.4,33.2l-3.3,0.2l1.3-4.6h0L89.4,33.2L89.4,33.2L89.4,33.2z M90.6,36L92,39l3.2-0.2L89,24.7l-3.6,0.7
		l-4.7,14.8l3.2-0.2l1.3-3.7L90.6,36L90.6,36z"/>
	<path class="st1" d="M109.7,45.3c-1.1-0.9-2.7-1.4-4.3-1.3c-3.6,0.2-5.5,2.8-5.3,5.3c0.1,2.5,2.4,4.8,5.8,4.6
		c1.6-0.1,3.1-0.8,4.1-1.8l0.2-0.3l0.3,4.7c-1.6,0.7-3.2,1.2-5,1.3c-6.2,0.4-11.1-3.5-11.3-8.2c-0.3-4.8,3.9-9.3,10.4-9.6
		c1.7-0.1,3.4,0.2,5,0.7l0.3,4.8L109.7,45.3L109.7,45.3z"/>
	<path class="st1" d="M119.7,42.7c2.9,0,4.9,2.5,4.9,5c0,2.3-2.1,5.3-4.9,5.3s-4.9-3-4.9-5.3C114.7,45.2,116.8,42.7,119.7,42.7
		L119.7,42.7L119.7,42.7z M119.7,56.5c5.2,0,8.9-4,8.9-8.7c0-4.6-3.6-8.6-8.9-8.6c-5.2,0-8.9,4-8.9,8.6
		C110.8,52.6,114.4,56.5,119.7,56.5L119.7,56.5z"/>
	<polygon class="st1" points="104.7,21.4 108.1,20.7 108.1,37.5 104.4,37.9 99.1,28.6 99,28.6 99,38.4 95.5,38.7 95.5,23.3 
		99.5,22.5 104.6,31.4 104.7,31.3 	"/>
	<path class="st1" d="M50.7,43.1c0,0-4.1,8.7-5.3,10.6C44.2,51.5,39.9,42,39.9,42l-5.8-0.6v20.3l4.9,1.9c0,0,0-8.7,0-12.9
		c1.8,3.2,4.7,10.5,4.7,10.5l3,0.3c0,0,2.9-6.7,4.8-9.6c0,4.2,0,14.5,0,14.5l5.1,0.5l0-23.2L50.7,43.1L50.7,43.1z"/>
	<path class="st1" d="M98.2,67.7l5.9-0.5L88.4,51.6c3.4-0.7,5.1-3.1,5.1-5.3c0-3.7-3.4-4.9-8.4-4.5l-6.6,0.6l-0.1,22.2l5-1.1V53.1
		l0.7-0.1L98.2,67.7L98.2,67.7L98.2,67.7z M83.5,44.8l0.7-0.1c2.6-0.2,4.6,0,4.6,2.2c0,2.1-1.9,2.8-4.6,3.1L83.5,50V44.8L83.5,44.8z
		"/>
	<path class="st1" d="M141.3,44.2c-0.8-0.9-1.9-1.6-3.4-1.7c-1.5-0.2-3,0.5-3.1,1.6c-0.3,2.9,9.2,2.6,8.6,8.3
		c-0.3,3.4-3.5,5.5-8.3,5c-3.3-0.3-5.5-1.9-6.9-4l3.2-1.8c0.5,1.4,2,2.7,4,2.9c1.9,0.2,3.1-0.9,3.3-2.2c0.2-1.8-2-2.5-3.8-3.2
		c-2.9-1.2-5.1-2.5-4.8-5.2c0.3-2.8,3.4-4.8,7.4-4.4c2.1,0.2,4.9,1.2,6.3,2.5L141.3,44.2L141.3,44.2z"/>
	<path class="st2" d="M37.1,29.1c8.1,5.4,27,7.4,27,7.4L63.3,40c-20-1.3-27.3-3.4-28.4-3.9L37.1,29.1L37.1,29.1z"/>
	<path class="st2" d="M144.5,30.7c-1.4,0-4.2,0-7-0.2l0.1,4.6c2.5,0.3,5.7,0.8,7.2,1.1L144.5,30.7L144.5,30.7z"/>
	<path class="st1" d="M47.4,74.5c-2.9,0-5.4,0.7-7.3,2.1c-2.1,1.6-3.3,3.9-3.3,6.7s1.1,5.1,3.2,6.7c1.8,1.3,4.4,2.1,7.3,2.1h82.9
		c2.9,0,5.4-0.7,7.3-2.1c2.1-1.6,3.2-3.9,3.2-6.7c0-2.8-1.1-5.1-3.2-6.7c-1.8-1.3-4.4-2.1-7.3-2.1H47.4L47.4,74.5z"/>
	<path class="st4" d="M47.4,90.6c-5,0-9.1-2.3-9.1-7.4s4.1-7.4,9.1-7.4h82.9c5,0,9.1,2.3,9.1,7.4s-4.1,7.4-9.1,7.4H47.4L47.4,90.6z"
		/>
	<path class="st1" d="M44.1,82.7c0.4-0.7,1-1.4,1.6-2.1c0.4,0.9,0.7,1.9,0.9,2.9l0,0c-0.7-0.6-1.7-0.8-2.3-0.8L44.1,82.7L44.1,82.7
		L44.1,82.7z M43.8,83.8c1.4,0,3,0.8,3,2.5c0,0.6,0.1,1,0.7,1c0.4,0,0.8-0.3,0.9-0.9c0.1-0.4,0.1-2.5-1-5.4
		c-0.5-1.3-0.8-1.9-1.5-1.9c-0.9,0-1.3,0.6-2.3,1.9c-2.1,2.9-2.7,5-2.7,5.4c-0.1,0.6,0,0.9,0.6,0.9c0.4,0,0.7-0.3,0.9-0.7
		c0.2-0.8,0.6-1.9,1.1-2.8H43.8L43.8,83.8z"/>
	<path class="st1" d="M50.6,80c0.1-0.4,0.4-0.8,0.9-0.8c0.5,0,0.7,0.4,0.6,0.7c-0.3,1.5-0.9,3.1-1.2,4.6c-0.2,0.9,0.4,1.5,1.4,1.5
		s1.7-0.6,1.9-1.5c0.3-1.5,0.2-3.1,0.4-4.6c0.1-0.3,0.3-0.7,0.9-0.7c0.5,0,0.6,0.4,0.6,0.8l-0.3,3.6c0,0.3-0.1,0.7-0.2,1
		c-0.3,1.6-1.8,2.7-3.6,2.7c-1.7,0-2.9-1.1-2.6-2.7c0.1-0.3,0.1-0.7,0.2-1L50.6,80L50.6,80z"/>
	<path class="st1" d="M59.5,86.5c-0.1,0.4-0.4,0.8-0.9,0.8c-0.5,0-0.7-0.4-0.6-0.8l1-5.9h-1.4c-0.4,0-0.8-0.2-0.7-0.7
		c0.1-0.5,0.5-0.7,0.9-0.7h4.4c0.4,0,0.8,0.2,0.7,0.7c-0.1,0.5-0.5,0.7-0.9,0.7h-1.4L59.5,86.5L59.5,86.5z"/>
	<path class="st1" d="M65,81.5h2.9c0.4,0,0.7,0.2,0.6,0.7c-0.1,0.5-0.5,0.7-0.9,0.7h-2.9l-0.5,3h3.1c0.4,0,0.7,0.2,0.6,0.7
		c-0.1,0.5-0.5,0.7-0.9,0.7h-3.6c-0.8,0-1-0.4-0.9-1l1.1-6.3c0.1-0.4,0.4-0.8,0.8-0.8h4c0.4,0,0.7,0.2,0.6,0.7
		c-0.1,0.5-0.5,0.7-0.9,0.7h-3.1L65,81.5L65,81.5z"/>
	<path class="st1" d="M74.8,86.5c-0.1,0.5-0.4,0.8-0.9,0.8s-0.7-0.4-0.6-0.8l0.7-3.7c-1-0.1-1.9-0.8-2.5-1.7l-0.9,5.4
		c-0.1,0.5-0.4,0.8-0.9,0.8s-0.7-0.4-0.6-0.8l1.1-6.5c0.1-0.5,0.5-0.8,1.1-0.8c1.2,0,1,1.7,3,2.3l0.3-1.5c0.1-0.5,0.4-0.8,0.9-0.8
		c0.5,0,0.7,0.4,0.6,0.8L74.8,86.5L74.8,86.5z"/>
	<path class="st1" d="M79.2,86.5c-0.1,0.4-0.4,0.8-0.9,0.8s-0.7-0.4-0.6-0.8l1-5.9h-1.4c-0.4,0-0.8-0.2-0.7-0.7
		c0.1-0.5,0.5-0.7,0.9-0.7h4.4c0.4,0,0.8,0.2,0.7,0.7c-0.1,0.5-0.5,0.7-0.9,0.7h-1.4L79.2,86.5L79.2,86.5z"/>
	<path class="st1" d="M84,86.5c-0.1,0.4-0.4,0.8-0.9,0.8s-0.7-0.4-0.6-0.8l1.1-6.5c0.1-0.5,0.4-0.8,0.9-0.8c0.5,0,0.7,0.4,0.6,0.8
		L84,86.5L84,86.5z"/>
	<path class="st1" d="M89.6,80.6c-1.3,0-1.9,0.8-2.1,2c-0.3,1.5,0.8,3.2,3.4,3.2c0.7,0,0.9,0.3,0.9,0.7c-0.1,0.6-0.6,0.8-1.4,0.8
		c-2.4,0-5.1-1.5-4.5-4.8c0.4-2,1.9-3.3,3.6-3.3h2.7c0.4,0,0.8,0.2,0.7,0.7c-0.1,0.5-0.5,0.7-0.9,0.7L89.6,80.6L89.6,80.6z"/>
	<path class="st1" d="M95.2,82.7c0.4-0.7,1-1.4,1.6-2.1c0.4,0.9,0.7,1.9,0.9,2.9l0,0c-0.7-0.6-1.7-0.8-2.3-0.8L95.2,82.7L95.2,82.7
		L95.2,82.7z M95,83.8c1.4,0,3,0.8,3,2.5c0,0.6,0.1,1,0.7,1c0.4,0,0.8-0.3,0.9-0.9c0.1-0.4,0.1-2.5-1-5.4c-0.5-1.3-0.8-1.9-1.5-1.9
		c-0.9,0-1.3,0.6-2.3,1.9c-2.1,2.9-2.7,5-2.7,5.4c-0.1,0.6,0,0.9,0.6,0.9c0.4,0,0.7-0.3,0.9-0.7c0.2-0.8,0.6-1.9,1.1-2.8H95L95,83.8
		z"/>
	<path class="st1" d="M105.4,80c0.1-0.5,0.4-0.8,0.9-0.8c0.5,0,0.7,0.4,0.6,0.8l-1,5.9h2.4c0.4,0,0.8,0.2,0.7,0.7s-0.5,0.7-0.9,0.7
		h-2.8c-0.8,0-1-0.4-0.9-1L105.4,80L105.4,80z"/>
	<path class="st1" d="M112,81.5h2.9c0.4,0,0.7,0.2,0.6,0.7c-0.1,0.5-0.5,0.7-0.9,0.7h-2.9l-0.5,3h3.1c0.4,0,0.7,0.2,0.6,0.7
		c-0.1,0.5-0.4,0.7-0.9,0.7h-3.6c-0.8,0-1-0.4-0.9-1l1.1-6.3c0.1-0.4,0.4-0.8,0.8-0.8h4c0.4,0,0.7,0.2,0.6,0.7
		c-0.1,0.5-0.4,0.7-0.9,0.7h-3.1L112,81.5L112,81.5z"/>
	<path class="st1" d="M120.2,80.6c-1.3,0-1.9,0.8-2.1,2c-0.3,1.5,0.8,3.2,3.4,3.2c0.7,0,0.9,0.3,0.9,0.7c-0.1,0.6-0.6,0.8-1.4,0.8
		c-2.4,0-5.1-1.5-4.5-4.8c0.4-2,1.9-3.3,3.6-3.3h2.7c0.4,0,0.8,0.2,0.7,0.7c-0.1,0.5-0.5,0.7-0.9,0.7L120.2,80.6L120.2,80.6z"/>
	<path class="st1" d="M128.5,81.7l0.3-1.7c0.1-0.5,0.4-0.8,0.9-0.8c0.5,0,0.7,0.4,0.6,0.8l-1.1,6.5c-0.1,0.4-0.4,0.8-0.9,0.8
		c-0.5,0-0.7-0.4-0.6-0.8l0.6-3.6h-2.8l-0.6,3.6c-0.1,0.4-0.4,0.8-0.9,0.8c-0.5,0-0.7-0.4-0.6-0.8l1.1-6.5c0.1-0.5,0.4-0.8,0.9-0.8
		s0.7,0.4,0.6,0.8l-0.3,1.7H128.5L128.5,81.7z"/>
	<path class="st1" d="M132.8,81.5h2.9c0.4,0,0.7,0.2,0.6,0.7c-0.1,0.5-0.5,0.7-0.9,0.7h-2.9l-0.5,3h3.1c0.4,0,0.7,0.2,0.6,0.7
		c-0.1,0.5-0.5,0.7-0.9,0.7h-3.6c-0.8,0-1-0.4-0.9-1l1.1-6.3c0.1-0.4,0.4-0.8,0.8-0.8h4c0.4,0,0.7,0.2,0.6,0.7
		c-0.1,0.5-0.5,0.7-0.9,0.7H133L132.8,81.5L132.8,81.5z"/>
</g>
</svg>
