<?xml version="1.0" encoding="utf-8"?>
<!-- Generator: Adobe Illustrator 24.0.0, SVG Export Plug-In . SVG Version: 6.00 Build 0)  -->
<svg version="1.1" id="Capa_1" xmlns="http://www.w3.org/2000/svg" xmlns:xlink="http://www.w3.org/1999/xlink" x="0px" y="0px"
	 viewBox="0 0 800 800" style="enable-background:new 0 0 800 800;" xml:space="preserve">
<style type="text/css">
	.st0{fill-rule:evenodd;clip-rule:evenodd;}
	.st1{fill-rule:evenodd;clip-rule:evenodd;fill:#FFFFFF;}
	.st2{fill-rule:evenodd;clip-rule:evenodd;fill:#4C98D0;}
	.st3{fill-rule:evenodd;clip-rule:evenodd;fill:#2E2D24;}
	.st4{fill-rule:evenodd;clip-rule:evenodd;fill:#C5453E;}
	.st5{fill:#88D1C7;}
</style>
<g>
	<path class="st0" d="M717.8,161.7v-10c0-0.5,0-2.6,0-4.2l0,0l-4.8,14.2h-2.3l-4.8-14.2l0,0c0,1.6,0,3.7,0,4.2v10h-2.2v-16.9h3.3
		l4.8,14.3l0,0l4.8-14.3h3.2v16.9H717.8L717.8,161.7z"/>
	<path class="st0" d="M726,161.7h-2.3v-16.9h7.8c2.8,0,5.6,1,5.6,4.5c0,2.5-1.3,3.4-2.4,4.1c1,0.4,1.9,0.8,2,3.2l0.1,3.1
		c0,0.9,0.1,1.3,0.9,1.7v0.4H735c-0.3-1-0.4-3.6-0.4-4.2c0-1.4-0.3-3-3-3H726V161.7L726,161.7L726,161.7z M726,152.5h5.3
		c1.7,0,3.4-0.4,3.4-2.9c0-2.6-1.9-2.8-3-2.8H726V152.5L726,152.5z"/>
	<path class="st1" d="M266.5,206.8c-26-2.4-134.5-13.7-180.8-49.5l-19.7,62c-10.3,2.9-18,11.6-18,23.8v122
		c0.1,5.7,3.6,16.6,15.8,21.9l28.7,11.2c6,2.6,16.2,2.9,24.2-2.7c2.5-1.8,6-5,8.2-10.4c2,0.5,22.9,2.5,25.8,2.1c0,1.4,0,2.9,0,4.5
		c0,0,0.1,6.2,3,12c4.3,8.5,11.2,12.9,20.3,13.1l61.1,2.7c2.6,0.2,6.4-0.4,9.6-1.7c6.5-2.5,11.4-7.3,14.1-13.9
		c0,0,6.5-16.6,9.2-23.5c5-0.1,10.1-0.3,15.3-0.4c2.6,6,7.2,16.8,7.2,16.8c3,6.7,12.8,18.2,28.2,14.4l53.5-12.7
		c14.9-3.6,18.8-17.4,18.8-24.2c0,0,0-2.7,0-3.7c16.3,17.1,44.5,46.7,44.5,46.7c1.4,1.5,9,9,20.5,7.6l35.2-3.1
		c5.5-0.6,10.3-2.6,14.1-5.8c3.4-2.9,5.9-6.7,7.3-11.1c2.9-8.9,0.9-19-4.7-24c0,0-7.4-7.4-15-15.1c5.3,0,10-0.3,13.9-0.8
		c23.9-3,33.7-10.8,38.8-15.3c8,4.1,18.7,7.9,31.4,8.7c16.9,1,33.3-3.6,49-13.8c31.2,26.3,68.3,19.6,82.4,14.7
		c50.7-17.5,45.1-70.8,26.2-87.4c30.9-22.8,5.4-44.1,5.4-44.1l-2.8-57.6c0,0-33.1,0.9-49.1-1l-0.2-64.1c5.6-2.5,4.9-12.3,4.9-12.3
		v-7.2l-5.9-1.9V69.9l6-1.8V52c0,0-3.4,0.3-6,0.5c-3.3,0.2,2.7-6.9,2.7-6.9c-0.4-4.6-3.7-7.5-7.9-9.1c-2.4-3.4-5.9-4.3-8.6-4.2
		c0,0-4.9,0-7.9,5.1c-8.6,4.5-7.4,10.5-7.4,10.5s5.7,6.3,2.1,6.6c-7.1,0.5-29,2.2-37.1,2.8c-0.5-6.4,2.8-11.3,2.8-11.3
		s-0.8-7.2-6-9.9c0-1.1,0-8.2,0-8.2l-8.9,0.7l-11.2,0.8c0,0,0,7.2,0,7.5c-6.4,4.9-6,11.8-6,11.8s3.8,4.2,2.5,10.7
		c-7.1,0.5-29.6,2.2-37.5,2.8c-4.4,0.4,2.8-7.1,2.8-7.1c-0.3-4.4-3.7-7.4-7.8-9.1c-0.4-0.5-0.8-1-1.2-1.4c-2-1.9-4.7-2.9-7.4-2.7
		l0,0c-3.3,0.3-6.1,2.2-7.8,5.1c-3.7,1.9-7.4,5-7.4,10.5c0,0,6,6.3,1.8,6.8c-2.2,0.2-5.4,0.4-5.4,0.4v13.4l6.2,1.8v13.8l-5.8,1.8
		v3.1c-6.4-3.5-13.9-3.8-18.6-2.8l0,0l-20.2,4.2c-5.9,1-10.8,3.9-14.4,8.5c-5.1-2.8-10.9-3.6-17-2.4l-23.5,5.1
		c-7.7,1.7-13.9,6.9-17.2,13.7c-5.5-4.7-13-6.9-20.6-5.5l-21.7,3.9c-8.3,1.5-15.1,7-18.4,14.6c-10.1-5.8-25.9-8.7-44.1-8
		c-12.5,0.4-24.2,4.5-33.7,11.6c-8.8,6.6-14.3,14.6-18.5,25.8c-5.9,15.6,0.5,31.3,7.6,39.4L266.5,206.8L266.5,206.8L266.5,206.8z
		 M581.8,205.1c-1.3,0-2.6,0-4,0.1v-70l0.3-0.2c9.3-7.2,20.8-11.6,32.5-12.5c11.1-0.8,22.5,1.7,31.4,7v89.2
		c-2.6,1.8-5.2,3.8-7.7,6.1C628.3,219.5,611.3,205.1,581.8,205.1L581.8,205.1z"/>
	<path class="st2" d="M681.6,65v-1.8l3.1-0.2v-2.1l-3.1,0.2v-1.5l0,0c-8.2-5-0.2-13.4-0.2-13.4c0-0.9-2.5-2.5-5.8-2.8
		c0.1-1.8-0.8-3-1.8-2.9s-1.9,1.5-1.8,3.1c-3.3,0.8-5.8,2.8-5.8,3.6c0,0,8.3,8.2-0.3,13.3l0,0v1.7l-48.3,3.6
		c-6.5-10-0.1-19.3-0.1-19.3c-0.1-2.7-2.6-4.7-5.9-5.1v-4.9l-3.6,0.3v4.9c-3.3,0.8-5.8,3.3-5.9,6c0,0,6.1,8-0.1,19.3l-48.4,3.6V69
		c-8.2-5.1-0.2-13.4-0.2-13.4c0-0.9-2.5-2.5-5.8-2.8c0.1-1.8-0.8-3-1.8-2.9s-1.9,1.5-1.8,3.1c-3.3,0.8-5.8,2.8-5.8,3.6
		c0,0,8.3,8.2-0.3,13.3l0,0l0,0l0,0v1.9l-3.3,0.2v2.1l3.3-0.2v1.5l2.9,1.8V96l-2.9,2.2v1.9l-3,0.2v2.1l149.8-11.2v-2.1l-3.1,0.2
		v-1.6l-2.9-1.8V67.1L681.6,65L681.6,65L681.6,65z M553.6,98.9v-1.7l-2.9-1.8V76.7l2.9-2.2v-1.7l112.3-8.4V66l2.9,1.8v18.7l-2.9,2.2
		v1.7L553.6,98.9L553.6,98.9z"/>
	<path class="st2" d="M679.8,206.7v-106c0,0,4.9-1.8,4.9-7.5l-13.2,1c0,0,0.7,5.7-4.8,9.7V208C666.6,208,669.2,207.2,679.8,206.7
		L679.8,206.7z"/>
	<path class="st2" d="M663.1,208.9V102c0,0,5-1.9,4.9-7.5l-17.8,1.3v117.9C650.1,213.7,658.3,210,663.1,208.9L663.1,208.9z"/>
	<path class="st2" d="M540,216.8V111.2c-4.9-2-5-6.8-5-6.8l13.2-1.1c0,0,0,5.2,4.8,8.7v98.2C553,210.2,545.6,213.5,540,216.8
		L540,216.8z"/>
	<path class="st2" d="M569.5,206.1V101.8l-17.9,1.3c0,0,0,4.7,4.9,6.8V209C556.5,209,559.2,207.7,569.5,206.1L569.5,206.1z"/>
	<path class="st2" d="M573,115.8c9.7-7.4,22.6-12.4,36.7-13.5c14.3-1.1,27.3,1.8,36.9,7.8V95.7l-73.6,5.7L573,115.8L573,115.8z"/>
	<path class="st2" d="M573,118.5v9.9c9.7-7.4,22.7-13.1,36.9-14.2s27.2,2.6,36.7,8.4v-9.9c-9.5-5.8-22.5-8.8-36.7-7.8
		C595.7,106.1,582.7,111.1,573,118.5L573,118.5z"/>
	<polygon class="st2" points="565.9,73.6 559.6,74.1 559.6,97.1 565.9,96.6 	"/>
	<polygon class="st2" points="576.1,72.8 569.9,73.3 569.9,96.3 576.1,95.8 	"/>
	<polygon class="st2" points="586.4,72.1 580.1,72.5 580.1,95.5 586.4,95.1 	"/>
	<polygon class="st2" points="596.6,71.3 590.4,71.8 590.4,94.8 596.6,94.3 	"/>
	<polygon class="st2" points="629.6,68.9 623.4,69.4 623.4,92.4 629.6,91.9 	"/>
	<polygon class="st2" points="639.7,68.1 633.5,68.6 633.5,91.6 639.7,91.1 	"/>
	<polygon class="st2" points="649.8,67.3 643.5,67.8 643.5,90.8 649.8,90.3 	"/>
	<polygon class="st2" points="659.8,66.6 653.6,67 653.6,90 659.8,89.6 	"/>
	<polygon class="st2" points="602.9,70.8 605.6,73.2 605.6,90.9 602.3,93.9 617.5,92.7 614.7,90.2 614.7,72.5 617.3,69.7 	"/>
	<path class="st3" d="M490.5,413.5l-35.3,3.1c-8.1,0.9-13.6-5.1-13.6-5.1L383,349.8v24.3c0,0,0,13.2-12.5,16.2L316.9,403
		c-12.9,3.2-18.7-9.8-18.7-9.8l-9.3-21.8l-26.3,0.7l-11.2,28.4c-4.6,11-15.6,10.6-15.6,10.6l-61.5-2.8
		c-14.5-0.3-15.2-16.7-15.2-16.7v-17.5c-5.6,5.8-13.3,4.8-13.3,4.8l-17.6-1.8c0,0-6.2-0.9-9.6-4.5c1.1,18.6-15.9,20.9-22.8,17.9
		L67,379.3c-11-4.4-10.7-15.6-10.7-15.6V243.1c0,0,0-17,18.4-16.6l34.4,3.5c9,0.4,13.6,9.8,13.6,9.8l17.6,38.9L156,246
		c0,0,4.4-10.5,16.8-9.5l35.1,3.6c14.9,2,15,16.6,15,16.6v42.8l17.6-50.7c3.9-10.3,6.7-11.4,29.1-11.3c-9.8-11.5-3.4-22,9.1-30.7
		c-29.4-22-9-67.5,32.5-68.9c40.5-1.4,47.8,14.2,47.8,14.2l3-9.4c1.9-5.9,6.8-10.3,13-11.4l21.6-3.9c7.7-1.4,15.2,2.6,18.3,9.7
		l6.7,15.2v-16.9c0-7.8,5.5-14.7,13.2-16.3L458,114c12.3-2.6,18,7.9,18,7.9s1.8-12.1,13.1-14l20.6-4.2c6.6-1.4,20.1,2.1,20.1,16.4
		v104.1c2.5,1.3,4.7,3.2,6.3,5.6c12.6-10.6,28.6-16.5,45.7-16.5c20.7,0,39.7,8.6,52.9,23.5c13.5-18.5,36.8-23,54.5-21.2
		c15,1.5,36,8.7,47.3,19.7c3.2,3.1,9.9,14.7-0.7,24.5c0,0-12.5,10.9-13.6,11.9c22,15.5,17.9,38.3,17.9,38.3
		c-4,49.7-78.7,60.3-113.1,23.8c-35.6,26.6-67.8,15-83.8,4.7c-3.1,13.1-41.4,24.4-72.8,16l32.3,32.4
		C508.4,392.1,507.8,411.6,490.5,413.5L490.5,413.5z"/>
	<path class="st1" d="M335.2,172.2c-4.6-3.6-10.3-5.6-17.6-4.9c-7.1,0.7-13.5,5.1-13,10.2c1.3,13.4,45.8,3.6,48.3,30.2
		c1.5,15.9-11.6,28.5-34.8,30.7c-15.7,1.5-27.7-3.8-36.4-12.2L295,215c3.6,5.8,12.1,10.5,21.6,9.6c9-0.8,14.1-6.7,13.5-12.8
		c-0.8-8.2-11.8-9.5-21-11.1c-15-2.8-26.2-7-27.3-19.3c-1.2-13.1,11.8-25.1,30.9-26.9c10.1-0.9,24.4,1.2,31.9,5.9L335.2,172.2
		L335.2,172.2z"/>
	<path class="st1" d="M289.9,329.2l-30.2,0.8l12.8-41.1h0.3L289.9,329.2L289.9,329.2L289.9,329.2z M299.7,354.5l13.8,32.2l27.4-6.1
		L290,254.1l-33.8,0.2l-48.8,140.1h28.4l15.2-38.7L299.7,354.5L299.7,354.5z"/>
	<path class="st1" d="M401.6,194.6l-19.7,1.2l7.6-27.1h0.2L401.6,194.6L401.6,194.6L401.6,194.6z M408.5,210.8l8.8,18.3l19-1.1
		l-36.8-84.3l-21.6,3.9l-27.8,88.3l18.8-1.1l7.8-22.1L408.5,210.8L408.5,210.8z"/>
	<path class="st1" d="M522.2,266.3c-6.5-5.4-16-8.3-25.4-7.8c-21.2,1.2-32.5,16.8-31.7,31.7c0.8,14.6,14.2,28.4,34.8,27.3
		c9.5-0.5,18.7-4.8,24.6-10.6l1.4-1.9l1.6,27.9c-9.4,4-18.9,7.1-29.5,7.7c-37,2.1-65.8-20.8-67.3-48.5
		c-1.6-28.5,23.4-55.1,61.9-57.3c10.3-0.6,20.5,1,29.7,4.2l1.6,28.7L522.2,266.3L522.2,266.3z"/>
	<path class="st1" d="M581.8,251c17.1,0,29.3,14.9,29.3,29.7c0,13.8-12.7,31.4-29.3,31.4s-29.3-17.6-29.3-31.4
		C552.4,265.9,564.6,251,581.8,251L581.8,251L581.8,251z M581.8,333.1c31.2,0,52.9-23.6,52.9-51.7c0-27.4-21.7-51.4-52.9-51.4
		s-52.9,24-52.9,51.4C528.8,309.5,550.5,333.1,581.8,333.1L581.8,333.1z"/>
	<polygon class="st1" points="492.5,124.4 513,120.1 513,220.1 491,222 459.1,167.1 458.7,167.1 458.7,225.2 438.2,227.2 
		438.2,135.4 461.6,130.4 492.2,183.4 492.5,183.3 	"/>
	<path class="st1" d="M171.1,253.1c0,0-24.3,51.6-31.3,63c-7.2-12.8-32.4-69.5-32.4-69.5L73,243.1v120.7l28.9,11.2
		c0,0,0-51.7,0-76.9c10.7,19.3,28,62.5,28,62.5l17.6,1.8c0,0,17.5-39.8,28.3-56.9c0,25.1,0,86.2,0,86.2l30.2,2.7l0.1-137.8
		L171.1,253.1L171.1,253.1z"/>
	<path class="st1" d="M453.8,399.9l35.3-3.1L396,304c20-4.1,30.5-18.2,30.5-31.4c0-22.1-20.4-29.4-49.9-26.8l-39.4,3.5l-0.4,132.2
		l29.5-6.5v-62.2l4.2-0.3L453.8,399.9L453.8,399.9L453.8,399.9z M366.3,263.3l4-0.4c15.4-1.4,27.1,0.1,27.1,12.9
		c0,12.6-11.3,16.9-27.3,18.3l-3.8,0.3L366.3,263.3L366.3,263.3z"/>
	<path class="st1" d="M710.5,259.7c-4.7-5.6-11.1-9.5-20.2-10.4c-8.8-0.9-17.6,3.1-18.3,9.7c-1.7,17,54.7,15.5,51.4,49.4
		c-2,20.2-20.9,32.9-49.6,30c-19.4-1.9-32.8-11.4-41.3-24l18.9-10.7c3,8.2,12.1,16.1,23.9,17.3c11.2,1.1,18.7-5.1,19.5-12.8
		c1-10.5-12.1-14.7-22.8-18.9c-17.5-7.2-30.1-15-28.6-30.7c1.7-16.8,20.3-28.6,44-26.2c12.5,1.2,29.4,7.4,37.3,15.1L710.5,259.7
		L710.5,259.7z"/>
	<path class="st2" d="M90.2,170.2c48.1,32.1,160.5,43.8,160.5,43.8l-4.3,20.5c-119.3-7.8-162.7-20.5-169.2-23L90.2,170.2L90.2,170.2
		z"/>
	<path class="st2" d="M729.4,179.6c-8.5,0.1-24.9-0.2-41.6-1.1l0.3,27.6c14.6,1.5,33.9,4.7,42.9,6.6L729.4,179.6L729.4,179.6z"/>
	<path class="st1" d="M152,439.8c-17.4,0-32.4,4.3-43.3,12.3C96,461.4,89.3,475.2,89.3,492s6.7,30.6,19.3,39.9
		c11,8,25.9,12.3,43.3,12.3h493.3c17.4,0,32.4-4.3,43.3-12.3c12.6-9.3,19.3-23.1,19.3-39.9s-6.7-30.6-19.3-39.9
		c-11-8-25.9-12.3-43.3-12.3L152,439.8L152,439.8z"/>
	<path class="st4" d="M152,535.9c-30,0-54.3-13.9-54.3-43.9s24.3-43.9,54.3-43.9h493.3c30,0,54.3,13.9,54.3,43.9
		c0,30-24.3,43.9-54.3,43.9H152L152,535.9z"/>
	<path class="st1" d="M131.9,488.7c2.6-4.3,5.8-8.5,9.4-12.7c2.6,5.4,4.3,11.3,5.5,17.3l-0.2,0.1c-4.1-3.8-10.2-4.7-13.8-4.7
		L131.9,488.7L131.9,488.7L131.9,488.7z M130.4,495.6c8.1,0,17.7,4.7,17.8,14.8c0.1,3.8,0.6,5.8,4.2,5.8c2.5,0,4.7-1.9,5.3-5.6
		c0.4-2.2,0.6-14.7-5.9-31.9c-2.8-7.5-4.7-11.1-8.9-11.1c-5.1,0-8,3.6-13.5,11.1c-12.5,17.2-16,29.8-16.3,31.9
		c-0.6,3.4-0.2,5.6,3.7,5.6c2.6,0,4.4-1.5,5.1-4.1c1.3-4.7,3.6-11.4,6.4-16.5L130.4,495.6L130.4,495.6z"/>
	<path class="st1" d="M170.7,472.7c0.6-2.4,2.2-4.9,5.2-4.9c3.2,0,4,2.4,3.7,4c-1.6,9.2-5.4,18.3-7,27.5c-0.9,5.4,2.5,9.1,8.1,9.1
		s10.3-3.7,11.3-9.1c1.6-9.2,0.9-18.3,2.5-27.5c0.3-1.7,1.9-4,5.1-4c3,0,3.7,2.5,3.5,4.9l-1.7,21.6c-0.2,1.8-0.5,3.9-0.9,5.9
		c-1.7,9.7-10.8,16.2-21.2,16.2s-17.2-6.6-15.6-16.2c0.3-2,0.7-4.1,1.2-5.9L170.7,472.7L170.7,472.7z"/>
	<path class="st1" d="M223.6,511.5c-0.5,2.6-2.3,4.7-5.4,4.7c-3.1,0-4.2-2.1-3.8-4.7l6.1-35.1h-8.4c-2.6,0-4.5-1.3-4-4.2
		c0.5-2.8,2.8-4.2,5.5-4.2h26c2.6,0,4.5,1.3,4,4.2s-2.8,4.2-5.5,4.2h-8.4L223.6,511.5L223.6,511.5z"/>
	<path class="st1" d="M256.5,482h17.4c2.5,0,4.2,1.3,3.7,4s-2.7,4-5.1,4h-17.4l-3.2,18.1h18.2c2.5,0,4.2,1.2,3.7,4
		c-0.5,2.7-2.7,4-5.1,4h-21.4c-4.8,0-5.9-2.4-5.3-6l6.5-37.2c0.5-2.6,2.4-4.7,4.8-4.7h23.8c2.5,0,4.2,1.3,3.7,4s-2.7,4-5.1,4h-18.2
		L256.5,482L256.5,482z"/>
	<path class="st1" d="M315,511.4c-0.5,2.7-2.3,4.8-5.4,4.8s-4.2-2.1-3.8-4.8l3.9-22.1c-5.8-0.6-11.3-4.6-15.1-10l-5.6,32.1
		c-0.5,2.7-2.3,4.8-5.4,4.8s-4.2-2.1-3.7-4.8l6.8-38.8c0.6-2.7,2.7-4.8,6.7-4.8c7.1,0,6.1,10.2,17.8,13.5l1.5-8.7
		c0.5-2.7,2.3-4.8,5.4-4.8s4.2,2.1,3.7,4.8L315,511.4L315,511.4z"/>
	<path class="st1" d="M341,511.5c-0.5,2.6-2.3,4.7-5.4,4.7s-4.2-2.1-3.8-4.7l6.1-35.1h-8.4c-2.6,0-4.5-1.3-4-4.2
		c0.5-2.8,2.8-4.2,5.4-4.2h26c2.6,0,4.5,1.3,4,4.2s-2.8,4.2-5.5,4.2H347L341,511.5L341,511.5z"/>
	<path class="st1" d="M369.3,511.5c-0.5,2.6-2.3,4.7-5.4,4.7s-4.2-2.1-3.8-4.7l6.8-38.9c0.5-2.7,2.3-4.7,5.4-4.7s4.2,2.1,3.8,4.7
		L369.3,511.5L369.3,511.5z"/>
	<path class="st1" d="M402.6,476.4c-7.8,0-11.4,4.8-12.6,12c-1.6,8.9,4.7,19.2,20.1,19.2c4.1,0,5.6,1.8,5.2,4.2
		c-0.6,3.3-3.5,4.6-8.5,4.6c-14.2,0-30.3-9.2-26.9-28.6c2.1-12,11.2-19.8,21.7-19.8h16.1c2.6,0,4.5,1.3,4,4.2s-2.9,4.2-5.5,4.2
		L402.6,476.4L402.6,476.4z"/>
	<path class="st1" d="M436.2,488.7c2.6-4.3,5.8-8.5,9.4-12.7c2.6,5.4,4.3,11.3,5.5,17.3l-0.2,0.1c-4.1-3.8-10.2-4.7-13.8-4.7
		L436.2,488.7L436.2,488.7L436.2,488.7z M434.7,495.6c8.1,0,17.7,4.7,17.8,14.8c0.1,3.8,0.6,5.8,4.2,5.8c2.5,0,4.7-1.9,5.3-5.6
		c0.4-2.2,0.6-14.7-5.9-31.9c-2.8-7.5-4.7-11.1-8.9-11.1c-5.1,0-8,3.6-13.5,11.1c-12.5,17.2-16,29.8-16.3,31.9
		c-0.6,3.4-0.2,5.6,3.7,5.6c2.6,0,4.4-1.5,5.2-4.1c1.3-4.7,3.6-11.4,6.4-16.5L434.7,495.6L434.7,495.6z"/>
	<path class="st1" d="M497,472.6c0.5-2.7,2.3-4.7,5.4-4.7s4.2,2.1,3.8,4.7l-6.1,35.1h14c2.6,0,4.5,1.3,4,4.2s-2.8,4.2-5.5,4.2h-16.9
		c-4.8,0-5.9-2.4-5.3-6L497,472.6L497,472.6z"/>
	<path class="st1" d="M536.3,482h17.4c2.5,0,4.2,1.3,3.7,4s-2.7,4-5.1,4h-17.4l-3.2,18.1h18.2c2.5,0,4.2,1.2,3.7,4
		c-0.5,2.7-2.6,4-5.1,4H527c-4.8,0-5.9-2.4-5.3-6l6.5-37.2c0.5-2.6,2.3-4.7,4.8-4.7h23.8c2.5,0,4.2,1.3,3.7,4s-2.6,4-5.1,4h-18.2
		L536.3,482L536.3,482z"/>
	<path class="st1" d="M585,476.4c-7.9,0-11.4,4.8-12.6,12c-1.6,8.9,4.7,19.2,20.1,19.2c4.1,0,5.6,1.8,5.2,4.2
		c-0.6,3.3-3.5,4.6-8.5,4.6c-14.2,0-30.3-9.2-26.9-28.6c2.1-12,11.2-19.8,21.7-19.8h16c2.6,0,4.5,1.3,4,4.2s-2.8,4.2-5.5,4.2
		L585,476.4L585,476.4z"/>
	<path class="st1" d="M634.2,482.7l1.7-10.1c0.5-2.7,2.3-4.7,5.4-4.7c3.1,0,4.2,2.1,3.7,4.7l-6.8,38.9c-0.5,2.6-2.3,4.7-5.4,4.7
		c-3.1,0-4.2-2.1-3.7-4.7l3.7-21.3h-16.9l-3.7,21.3c-0.5,2.6-2.3,4.7-5.4,4.7c-3.1,0-4.2-2.1-3.8-4.7l6.8-38.9
		c0.5-2.7,2.3-4.7,5.4-4.7c3.1,0,4.2,2.1,3.7,4.7l-1.8,10.1H634.2L634.2,482.7z"/>
	<path class="st1" d="M659.9,482h17.5c2.5,0,4.2,1.3,3.7,4s-2.7,4-5.1,4h-17.4l-3.2,18.1h18.2c2.5,0,4.2,1.2,3.7,4
		c-0.5,2.7-2.7,4-5.1,4h-21.4c-4.8,0-5.9-2.4-5.3-6l6.5-37.2c0.5-2.6,2.4-4.7,4.8-4.7h23.8c2.5,0,4.2,1.3,3.7,4s-2.7,4-5.1,4H661
		L659.9,482L659.9,482z"/>
</g>
<g>
	<path class="st5" d="M97.6,585.9h22.1c5.3,0,10.4,0.6,15.2,1.8s9,3.1,12.6,5.8s6.4,6.1,8.5,10.4c2.1,4.3,3.2,9.5,3.2,15.6
		c0,5.4-1,10.2-3.1,14.3c-2,4.1-4.8,7.6-8.3,10.4c-3.5,2.8-7.5,4.9-12,6.4c-4.5,1.4-9.3,2.2-14.2,2.2h-24V585.9z M112.3,639.1h7.6
		c3.4,0,6.6-0.3,9.5-1s5.5-1.8,7.6-3.4c2.1-1.6,3.8-3.7,5-6.3s1.8-5.8,1.8-9.6c0-3.3-0.6-6.1-1.8-8.5s-2.9-4.4-5-6s-4.5-2.8-7.3-3.5
		c-2.8-0.8-5.7-1.2-8.8-1.2h-8.7v39.5H112.3z"/>
	<path class="st5" d="M210.8,644.8c-2.3,2.9-5.1,5.1-8.6,6.7c-3.5,1.6-7,2.4-10.8,2.4c-3.5,0-6.8-0.6-10-1.7
		c-3.1-1.1-5.8-2.8-8.1-4.9c-2.3-2.1-4.1-4.6-5.4-7.6c-1.3-3-2-6.3-2-9.9c0-3.6,0.7-6.9,2-9.9s3.1-5.5,5.4-7.6
		c2.3-2.1,5-3.7,8.1-4.9c3.1-1.1,6.4-1.7,10-1.7c3.3,0,6.2,0.6,8.9,1.7c2.7,1.1,4.9,2.8,6.8,4.9c1.9,2.1,3.3,4.6,4.3,7.6
		s1.5,6.3,1.5,9.9v4.4h-32.8c0.6,2.7,1.8,4.9,3.7,6.5s4.2,2.4,7,2.4c2.3,0,4.3-0.5,5.9-1.6c1.6-1,3-2.4,4.2-4L210.8,644.8z
		 M198.8,624.6c0.1-2.4-0.7-4.4-2.4-6.1c-1.6-1.7-3.7-2.5-6.3-2.5c-1.6,0-3,0.3-4.2,0.8s-2.2,1.1-3.1,1.9c-0.8,0.8-1.5,1.7-2,2.7
		s-0.7,2.1-0.8,3.3h18.8V624.6z"/>
	<path class="st5" d="M247.5,620.3c-2.1-2.6-4.8-3.9-8.2-3.9c-1.2,0-2.4,0.3-3.5,0.8c-1.1,0.6-1.7,1.5-1.7,2.9c0,1.1,0.6,2,1.7,2.5
		c1.2,0.5,2.6,1,4.4,1.4c1.8,0.4,3.7,0.8,5.8,1.3c2,0.5,4,1.2,5.8,2.2s3.3,2.4,4.4,4.1c1.2,1.7,1.7,4,1.7,6.9c0,3-0.6,5.4-1.9,7.3
		c-1.3,1.9-2.9,3.5-5,4.6c-2,1.2-4.3,2-6.8,2.5s-5,0.7-7.5,0.7c-3.2,0-6.4-0.5-9.7-1.4s-6-2.5-8.3-4.9l8.6-9.5
		c1.3,1.6,2.8,2.9,4.4,3.7c1.6,0.8,3.5,1.3,5.6,1.3c1.6,0,3.1-0.2,4.4-0.7c1.3-0.5,2-1.3,2-2.6c0-1.2-0.6-2.1-1.7-2.7
		c-1.2-0.6-2.6-1.1-4.4-1.5c-1.8-0.4-3.7-0.8-5.8-1.3c-2-0.5-4-1.2-5.8-2.1c-1.8-0.9-3.3-2.3-4.4-4c-1.2-1.7-1.7-4-1.7-6.9
		c0-2.7,0.5-5,1.7-7c1.1-1.9,2.5-3.6,4.3-4.8c1.8-1.3,3.9-2.2,6.2-2.8s4.7-0.9,7.1-0.9c3,0,6.1,0.4,9.2,1.3c3.1,0.9,5.7,2.5,7.8,4.7
		L247.5,620.3z"/>
	<path class="st5" d="M265.4,581.4h14.2v71.3h-14.2V581.4z"/>
	<path class="st5" d="M318.5,646.9h-0.2c-1.6,2.5-3.7,4.2-6.3,5.3c-2.6,1.1-5.4,1.6-8.3,1.6c-2.1,0-4.2-0.3-6.2-0.9
		c-2-0.6-3.7-1.5-5.2-2.7s-2.7-2.7-3.6-4.4c-0.9-1.8-1.3-3.8-1.3-6.1c0-2.6,0.5-4.9,1.5-6.7s2.3-3.3,4-4.5s3.6-2.1,5.7-2.8
		s4.4-1.1,6.7-1.5c2.3-0.3,4.6-0.5,6.9-0.6s4.4-0.1,6.4-0.1c0-2.5-0.9-4.5-2.7-6c-1.8-1.5-3.9-2.2-6.4-2.2c-2.3,0-4.5,0.5-6.4,1.5
		s-3.6,2.3-5.1,4l-7.5-7.7c2.6-2.5,5.7-4.3,9.2-5.5s7.2-1.8,10.9-1.8c4.2,0,7.6,0.5,10.2,1.6c2.7,1,4.8,2.6,6.4,4.6s2.7,4.5,3.3,7.4
		c0.6,2.9,0.9,6.3,0.9,10.1v23.3h-13v-5.9H318.5z M315.1,632.6c-1.1,0-2.4,0-4,0.1s-3.1,0.4-4.6,0.8c-1.5,0.4-2.7,1.1-3.8,2
		c-1,0.9-1.6,2.1-1.6,3.7c0,1.7,0.7,3,2.2,3.8c1.4,0.8,3,1.2,4.5,1.2c1.4,0,2.7-0.2,4-0.6c1.3-0.4,2.4-0.9,3.4-1.6
		c1-0.7,1.8-1.6,2.4-2.6c0.6-1.1,0.9-2.3,0.9-3.8v-3L315.1,632.6L315.1,632.6z"/>
	<path class="st5" d="M371.5,621.6c-0.7-1-1.7-1.8-2.9-2.5c-1.3-0.7-2.6-1-4.1-1c-3.6,0-6.4,1.1-8.3,3.2c-2,2.1-3,4.9-3,8.4
		s1,6.3,3,8.4c2,2.1,4.8,3.2,8.3,3.2c1.6,0,2.9-0.3,4.1-1c1.1-0.7,2.1-1.5,2.9-2.5l9.3,9.8c-2.2,2.3-4.8,3.9-7.8,4.8
		c-3,0.9-5.8,1.4-8.5,1.4c-3.5,0-6.8-0.6-10-1.7c-3.1-1.1-5.8-2.8-8.1-4.9c-2.3-2.1-4.1-4.6-5.4-7.6s-2-6.3-2-9.9
		c0-3.6,0.7-6.9,2-9.9s3.1-5.5,5.4-7.6s5-3.7,8.1-4.9c3.1-1.1,6.4-1.7,10-1.7c2.7,0,5.5,0.5,8.5,1.4s5.6,2.5,7.8,4.8L371.5,621.6z"
		/>
	<path class="st5" d="M417.1,618.2h-12.5v15.3c0,1.3,0.1,2.4,0.2,3.4s0.4,1.9,0.8,2.7s1.1,1.3,2,1.7s2.1,0.6,3.6,0.6
		c0.8,0,1.7-0.1,3-0.2c1.2-0.2,2.2-0.5,2.8-1.1v11.8c-1.6,0.6-3.2,0.9-4.9,1.1c-1.7,0.2-3.4,0.3-5,0.3c-2.4,0-4.6-0.3-6.6-0.8
		s-3.8-1.3-5.3-2.4c-1.5-1.1-2.7-2.5-3.5-4.3s-1.3-3.9-1.3-6.4v-21.8h-9.1v-11.3h9.1v-13.6h14.2v13.6h12.5L417.1,618.2L417.1,618.2z
		"/>
	<path class="st5" d="M422.6,629.8c0-3.6,0.7-6.9,2-9.9s3.1-5.5,5.4-7.6s5-3.7,8.1-4.9c3.1-1.1,6.4-1.7,10-1.7s6.8,0.6,10,1.7
		c3.1,1.1,5.8,2.8,8.1,4.9c2.3,2.1,4.1,4.6,5.4,7.6s2,6.3,2,9.9c0,3.6-0.7,7-2,9.9c-1.3,3-3.1,5.5-5.4,7.6s-5,3.7-8.1,4.9
		c-3.1,1.1-6.4,1.7-10,1.7s-6.8-0.6-10-1.7c-3.1-1.1-5.8-2.8-8.1-4.9c-2.3-2.1-4.1-4.6-5.4-7.6C423.3,636.7,422.6,633.4,422.6,629.8
		z M436.7,629.8c0,3.5,1,6.3,3,8.4c2,2.1,4.8,3.2,8.3,3.2c3.6,0,6.4-1.1,8.3-3.2c2-2.1,3-4.9,3-8.4s-1-6.3-3-8.4
		c-2-2.1-4.8-3.2-8.3-3.2c-3.6,0-6.4,1.1-8.3,3.2C437.7,623.5,436.7,626.3,436.7,629.8z"/>
	<path class="st5" d="M507.8,620.3c-2.1-2.6-4.8-3.9-8.2-3.9c-1.2,0-2.4,0.3-3.5,0.8c-1.1,0.6-1.7,1.5-1.7,2.9c0,1.1,0.6,2,1.7,2.5
		c1.2,0.5,2.6,1,4.4,1.4s3.7,0.8,5.8,1.3c2,0.5,4,1.2,5.8,2.2c1.8,1,3.3,2.4,4.4,4.1c1.2,1.7,1.7,4,1.7,6.9c0,3-0.6,5.4-1.9,7.3
		c-1.3,1.9-2.9,3.5-5,4.6c-2,1.2-4.3,2-6.8,2.5s-5,0.7-7.5,0.7c-3.2,0-6.4-0.5-9.7-1.4c-3.3-0.9-6-2.5-8.3-4.9l8.6-9.5
		c1.3,1.6,2.8,2.9,4.4,3.7s3.5,1.3,5.6,1.3c1.6,0,3.1-0.2,4.4-0.7s2-1.3,2-2.6c0-1.2-0.6-2.1-1.7-2.7c-1.2-0.6-2.6-1.1-4.4-1.5
		s-3.7-0.8-5.8-1.3c-2-0.5-4-1.2-5.8-2.1s-3.3-2.3-4.4-4c-1.2-1.7-1.7-4-1.7-6.9c0-2.7,0.5-5,1.7-7c1.1-1.9,2.5-3.6,4.3-4.8
		c1.8-1.3,3.9-2.2,6.2-2.8c2.3-0.6,4.7-0.9,7.1-0.9c3,0,6.1,0.4,9.2,1.3c3.1,0.9,5.7,2.5,7.8,4.7L507.8,620.3z"/>
	<path class="st5" d="M554.3,646.9h-0.2c-1.6,2.5-3.7,4.2-6.3,5.3s-5.4,1.6-8.3,1.6c-2.1,0-4.2-0.3-6.2-0.9c-2-0.6-3.7-1.5-5.2-2.7
		s-2.7-2.7-3.6-4.4c-0.9-1.8-1.3-3.8-1.3-6.1c0-2.6,0.5-4.9,1.5-6.7s2.3-3.3,4-4.5s3.6-2.1,5.7-2.8c2.1-0.7,4.4-1.1,6.7-1.5
		c2.3-0.3,4.6-0.5,6.9-0.6c2.3-0.1,4.4-0.1,6.4-0.1c0-2.5-0.9-4.5-2.7-6s-3.9-2.2-6.4-2.2c-2.3,0-4.5,0.5-6.4,1.5s-3.6,2.3-5.1,4
		l-7.5-7.7c2.6-2.5,5.7-4.3,9.2-5.5s7.2-1.8,10.9-1.8c4.2,0,7.6,0.5,10.2,1.6c2.7,1,4.8,2.6,6.4,4.6s2.7,4.5,3.3,7.4
		s0.9,6.3,0.9,10.1v23.3h-13L554.3,646.9L554.3,646.9z M550.8,632.6c-1.1,0-2.4,0-4,0.1s-3.1,0.4-4.6,0.8c-1.5,0.4-2.7,1.1-3.8,2
		s-1.6,2.1-1.6,3.7c0,1.7,0.7,3,2.2,3.8c1.4,0.8,3,1.2,4.5,1.2c1.4,0,2.7-0.2,4-0.6c1.3-0.4,2.4-0.9,3.4-1.6c1-0.7,1.8-1.6,2.4-2.6
		c0.6-1.1,0.9-2.3,0.9-3.8v-3L550.8,632.6L550.8,632.6z"/>
	<path class="st5" d="M624.3,652.7h-13v-6h-0.2c-0.6,0.8-1.3,1.7-2.2,2.5s-2,1.6-3.2,2.3s-2.6,1.3-4.1,1.7s-3,0.7-4.6,0.7
		c-3.4,0-6.5-0.6-9.2-1.7c-2.8-1.2-5.1-2.8-7.1-4.9c-2-2.1-3.5-4.6-4.6-7.5s-1.6-6.1-1.6-9.5c0-3.2,0.5-6.3,1.5-9.2s2.4-5.5,4.2-7.8
		s4-4.1,6.6-5.4c2.6-1.4,5.5-2,8.8-2c3,0,5.7,0.5,8.3,1.4c2.5,0.9,4.6,2.5,6.3,4.7h0.2v-30.4h14.2v71.1H624.3z M611.3,629.8
		c0-3.5-1-6.3-3-8.4c-2-2.1-4.8-3.2-8.3-3.2c-3.6,0-6.4,1.1-8.3,3.2c-2,2.1-3,4.9-3,8.4s1,6.3,3,8.4c2,2.1,4.8,3.2,8.3,3.2
		c3.6,0,6.4-1.1,8.3-3.2C610.3,636,611.3,633.2,611.3,629.8z"/>
	<path class="st5" d="M664.4,646.9h-0.2c-1.6,2.5-3.7,4.2-6.3,5.3s-5.4,1.6-8.3,1.6c-2.1,0-4.2-0.3-6.2-0.9c-2-0.6-3.7-1.5-5.2-2.7
		s-2.7-2.7-3.6-4.4c-0.9-1.8-1.3-3.8-1.3-6.1c0-2.6,0.5-4.9,1.5-6.7s2.3-3.3,4-4.5s3.6-2.1,5.7-2.8c2.1-0.7,4.4-1.1,6.7-1.5
		c2.3-0.3,4.6-0.5,6.9-0.6c2.3-0.1,4.4-0.1,6.4-0.1c0-2.5-0.9-4.5-2.7-6s-3.9-2.2-6.4-2.2c-2.3,0-4.5,0.5-6.4,1.5s-3.6,2.3-5.1,4
		l-7.5-7.7c2.6-2.5,5.7-4.3,9.2-5.5s7.2-1.8,10.9-1.8c4.2,0,7.6,0.5,10.2,1.6c2.7,1,4.8,2.6,6.4,4.6s2.7,4.5,3.3,7.4
		s0.9,6.3,0.9,10.1v23.3h-13L664.4,646.9L664.4,646.9z M660.9,632.6c-1.1,0-2.4,0-4,0.1s-3.1,0.4-4.6,0.8c-1.5,0.4-2.7,1.1-3.8,2
		s-1.6,2.1-1.6,3.7c0,1.7,0.7,3,2.2,3.8c1.4,0.8,3,1.2,4.5,1.2c1.4,0,2.7-0.2,4-0.6c1.3-0.4,2.4-0.9,3.4-1.6c1-0.7,1.8-1.6,2.4-2.6
		c0.6-1.1,0.9-2.3,0.9-3.8v-3L660.9,632.6L660.9,632.6z"/>
	<path class="st5" d="M304.7,679.4h14.2v71.3h-14.2V679.4z"/>
	<path class="st5" d="M328.1,690.4c0-2.3,0.8-4.2,2.4-5.8s3.5-2.4,5.8-2.4s4.2,0.8,5.8,2.4c1.6,1.6,2.4,3.5,2.4,5.8
		s-0.8,4.2-2.4,5.8s-3.5,2.4-5.8,2.4s-4.2-0.8-5.8-2.4C328.9,694.6,328.1,692.7,328.1,690.4z M329.2,704.8h14.2v45.8h-14.2V704.8z"
		/>
	<path class="st5" d="M401.7,746.8c0,8.7-2.2,15.3-6.6,19.8s-11,6.7-20,6.7c-4.1,0-8.1-0.5-12.1-1.4s-7.6-2.7-10.9-5.3l7.8-11.7
		c2.2,1.8,4.5,3.3,6.9,4.3c2.4,1.1,5.1,1.6,8,1.6c4.3,0,7.5-1.1,9.6-3.2c2-2.1,3.1-4.8,3.1-8.1v-4.4h-0.2c-1.6,2.2-3.7,3.8-6.1,4.7
		s-4.7,1.4-6.8,1.4c-3.4,0-6.5-0.6-9.2-1.7c-2.8-1.2-5.1-2.8-7.1-4.9c-2-2.1-3.5-4.6-4.6-7.5s-1.6-6.1-1.6-9.5c0-3,0.5-6,1.5-8.9
		s2.4-5.4,4.2-7.6c1.8-2.2,4-4,6.6-5.3c2.6-1.4,5.5-2,8.8-2c2,0,3.9,0.2,5.5,0.7c1.7,0.4,3.2,1,4.5,1.7s2.5,1.5,3.4,2.3
		s1.7,1.7,2.3,2.5h0.2v-6h13v41.8H401.7z M366,727.5c0,1.5,0.3,2.9,0.8,4.3c0.6,1.4,1.4,2.5,2.4,3.6c1,1,2.2,1.9,3.6,2.5
		s2.8,0.9,4.5,0.9c1.6,0,3-0.3,4.4-0.9c1.4-0.6,2.6-1.5,3.6-2.5s1.8-2.2,2.4-3.6c0.6-1.4,0.8-2.8,0.8-4.3s-0.3-2.9-0.8-4.3
		c-0.6-1.4-1.4-2.5-2.4-3.6c-1-1-2.3-1.9-3.6-2.5c-1.4-0.6-2.9-0.9-4.4-0.9c-1.6,0-3.1,0.3-4.5,0.9c-1.4,0.6-2.5,1.5-3.6,2.5
		c-1,1-1.8,2.2-2.4,3.6C366.3,724.5,366,726,366,727.5z"/>
	<path class="st5" d="M427.1,679.4v31.7h0.2c0.3-0.9,0.8-1.8,1.6-2.6c0.8-0.9,1.7-1.7,2.7-2.4c1.1-0.7,2.3-1.3,3.8-1.7
		c1.4-0.4,3-0.7,4.7-0.7c3.6,0,6.5,0.6,8.7,1.7c2.2,1.1,3.9,2.6,5.1,4.6s2.1,4.2,2.5,6.9c0.4,2.6,0.7,5.5,0.7,8.6v25.3H443v-22.5
		c0-1.3,0-2.7-0.1-4.1c-0.1-1.4-0.4-2.7-0.8-3.9c-0.5-1.2-1.2-2.2-2.2-2.9c-1-0.8-2.4-1.1-4.2-1.1s-3.3,0.3-4.4,1s-2,1.5-2.6,2.6
		s-1,2.3-1.2,3.7s-0.3,2.8-0.3,4.3v22.8H413v-71.3L427.1,679.4L427.1,679.4z"/>
	<path class="st5" d="M498.3,716.2h-12.5v15.3c0,1.3,0.1,2.4,0.2,3.4s0.4,1.9,0.8,2.7s1.1,1.3,2,1.7s2.1,0.6,3.6,0.6
		c0.8,0,1.7-0.1,3-0.2c1.2-0.2,2.2-0.5,2.8-1.1v11.8c-1.6,0.6-3.2,0.9-4.9,1.1c-1.7,0.2-3.4,0.3-5,0.3c-2.4,0-4.6-0.3-6.6-0.8
		s-3.8-1.3-5.3-2.4c-1.5-1.1-2.7-2.5-3.5-4.3s-1.3-3.9-1.3-6.4v-21.8h-9.1v-11.3h9.1v-13.6h14.2v13.6h12.5L498.3,716.2L498.3,716.2z
		"/>
</g>
</svg>
