<?xml version="1.0" encoding="utf-8"?>
<!-- Generator: Adobe Illustrator 19.0.0, SVG Export Plug-In . SVG Version: 6.00 Build 0)  -->
<svg version="1.1" id="Capa_1" xmlns="http://www.w3.org/2000/svg" xmlns:xlink="http://www.w3.org/1999/xlink" x="0px" y="0px"
	 viewBox="0 0 800 800" style="enable-background:new 0 0 800 800;" xml:space="preserve">
<style type="text/css">
	.st0{fill:#FFFFFF;}
</style>
<path class="st0" d="M428.5,248.4c29.5-42.3-2-89.9-39.6-89.9c-36.9,0-65.8,37.5-60.4,83.8c-42.3-16.8-85.9,2-94.6,38.2
	c-9.4,36.9,28.2,79.8,75.8,61c-2.7,20.1,5.4,39.6,28.2,45.6c22.2,5.3,68.4-20.8,57.7-57.7c32.2,19.4,69.1-18.8,69.1-42.8
	C464.7,263.2,448.6,250.4,428.5,248.4z M422.4,315.3c-12.1,12-18.8,12.7-30.2,10.1c0,11.4-2,18.1-16.8,26.8
	c-14.8,8.7-26.2,0.7-30.2-4.7c-3.3-4.7-12.1-12.7-6.7-27.5c-24.8,22.8-71.1,2.7-61-38.2c4-16.8,22.1-39.6,53-36.9
	c6.1-31.5,31.6-43.6,49-43.6c41.6,0,49,50.9,21.5,69.7c14.7-2,20.8,8.7,24.8,13.4S434.5,302.6,422.4,315.3z"/>
<g>
	<path class="st0" d="M696.2,530.4l-6.1-17.5h-3.7v20.4h2.4v-11.8c0-0.8,0-3.3,0-5.3l6.1,17.1h2.4l6.1-17.1c0,2,0,4.5,0,5.3v11.8
		h2.6v-20.4h-4.1L696.2,530.4z"/>
	<path class="st0" d="M725.4,531v-3.7c-0.4-2.9-1.2-3.3-2.4-3.7c1.2-0.8,2.9-2,2.9-5.3c0-4.1-3.7-5.3-6.9-5.3h-9.4v20.8h2.9v-9h6.3
		c3.3,0,3.7,2,3.7,3.7c0,0.8,0,3.7,0.4,5.3h3.7V533C725.8,532.6,725.4,532.2,725.4,531z M718.4,522.4h-6.1v-7h6.9
		c1.2,0,3.7,0,3.7,3.3S720.5,522.4,718.4,522.4z"/>
</g>
<path class="st0" d="M632.4,388.5c-0.5-1.6-3.4-7.3-9.2-10.5c-5.8-3.3-18.6-4.8-21.1-4.5l-39.9,5.9c-20.5,1.3-38,18.1-46.2,35.9
	L477.1,508c55.4-31.9,43.5-28,76.1-40.5l15.2-43.8c1.3-3.4,3.9-13.9,6.9-15.3c3-1.4,8-1.1,11-1.5l11.9,66.8
	c-22.7-0.3-55.7,2.8-127.9,53c-6.1,4.3-17.8,8.3-18.2,3.2l21.4-109.4c-0.3-18-19-22.9-28.4-21.9l-42.1,8.9l-27.2,138.2L338.2,440
	c-0.5-1.6-3.4-7.3-9.2-10.5c-5.8-3.3-18.6-4.8-21.1-4.5l-39.9,5.9c-20.5,1.3-38,18.1-46.2,35.9l-38.9,92.8
	c55.4-31.9,43.5-28,76.1-40.5l15.2-43.8c1.3-3.4,3.9-13.9,6.9-15.3c3-1.4,8-1.1,11-1.5l11.9,66.8c-22.7-0.3-55.7,2.8-127.9,53
	c-6.1,4.3-17.8,8.3-18.2,3.2L179.1,472c-0.3-18-19-22.9-28.4-21.9l-42,8.9L77.6,617.5c0.7,3.4,2.5,13.7,8.6,17.5
	c5.9,3.8,16,1.1,21.2-1.1c146.8-63.7,192.5-83.1,218.6-37.1c20-6.8,38-12.8,47.3-24.4c1.3,4.1,3.4,8.8,7.1,11.1
	c5.9,3.8,16,1.1,21.2-1.1c146.8-63.7,192.5-83.1,218.6-37.1c27.4-9.3,51-17.1,53.8-39.8L632.4,388.5z M264.8,542.6
	c18.5-6.2,56.2-14.6,55.4,9C309,541.9,295.1,540.7,264.8,542.6z M559,491c18.5-6.2,56.2-14.6,55.4,9
	C603.3,490.4,589.4,489.1,559,491z"/>
</svg>
