<?xml version="1.0" encoding="utf-8"?>
<!-- Generator: Adobe Illustrator 24.0.0, SVG Export Plug-In . SVG Version: 6.00 Build 0)  -->
<svg version="1.1" id="Layer_1" xmlns="http://www.w3.org/2000/svg" xmlns:xlink="http://www.w3.org/1999/xlink" x="0px" y="0px"
	 viewBox="0 0 800 800" style="enable-background:new 0 0 800 800;" xml:space="preserve">
<style type="text/css">
	.st0{fill:#BBA170;}
	.st1{fill:#AA83C7;}
</style>
<g>
	<g>
		<g>
			<path d="M50.4,402.9c-5.1-2.9-9.9-2.9-15.1-2.9h-7c-5.9,0-6.6-2.2-6.6-4c0-2.2,1.5-3.7,4.4-4.8c3.3-1.5,7.3-1.5,8.4-1.5
				c5.5,0,8.8,1.5,14.3,4.8l1.1,0.7l0.7-1.1l4-5.5l0.7-1.1l-1.1-0.7c-5.9-4.4-13.2-7-20.6-7c-2.9,0-5.9,0.4-8.8,1.1
				c-6.2,2.2-12.9,7-12.9,15.1c0,9.2,7.7,13.6,15.4,13.6H35c7.3,0,9.2,0.4,11.4,1.5c1.8,1.1,2.6,2.6,2.6,4.4c0,5.9-8.4,7.3-13.6,7.3
				c-8.4,0-13.6-1.8-19.1-7l-1.1-0.7l-1.1,0.4l-4.8,4.8l-1.1,1.1l1.1,1.1c7,7,14.7,10.3,25,10.3c5.9,0,11.4-1.1,15.4-3.3
				c5.5-2.9,8.4-7.3,8.4-13.2C57.8,410.6,55.2,405.9,50.4,402.9z"/>
			<path d="M109.6,381.6l-0.4-0.7h-0.7h-7.7H100l-0.4,0.7L78,429.4l-0.7,1.8h2.2h7.7h0.7l0.4-0.7l5.9-12.9h21.7l5.5,12.9l0.4,0.7
				h0.7h7.7h2.2l-0.7-1.8L109.6,381.6z M111,408.4H97.8l6.6-14.7L111,408.4z"/>
			<polygon points="189.6,380.9 188.5,380.9 188.5,382 188.5,414.7 162.1,381.3 161.7,380.9 161,380.9 154,380.9 152.9,380.9 
				152.9,382 152.9,430.1 152.9,431.2 154,431.2 161,431.2 162.5,431.2 162.5,430.1 162.5,397.4 188.9,430.8 189.3,431.2 190,431.2 
				197,431.2 198.1,431.2 198.1,430.1 198.1,382 198.1,380.9 197,380.9 			"/>
			<polygon points="266,389 266,382 266,380.9 264.9,380.9 224.2,380.9 222.7,380.9 222.7,382 222.7,389 222.7,390.4 224.2,390.4 
				240,390.4 240,430.1 240,431.2 241.1,431.2 248,431.2 249.1,431.2 249.1,430.1 249.1,390.4 264.9,390.4 266,390.4 			"/>
			<path d="M515.1,415.8l-1.1-1.1l-1.1,1.1c-5.5,5.5-9.9,7.3-16.9,7.3c-9.5,0-19.5-5.5-19.5-16.9c0-9.9,7.7-17.3,18-17.3
				c5.9,0,11,2.2,16.9,7l0.7,0.7l0.7-0.7l5.1-4.4l1.1-1.1l-1.1-1.1c-7-7-15.4-10.3-24.6-10.3c-15.8,0-27.5,11.4-27.5,26.8
				c0,15.8,12.1,27.2,29,27.2c9.9,0,18.4-3.7,23.9-10.3l0.7-1.1l-0.7-0.7L515.1,415.8z"/>
			<polygon points="548.9,422 548.9,381.6 548.9,380.5 547.4,380.5 540.4,380.5 538.9,380.5 538.9,381.6 538.9,430.8 538.9,431.9 
				540.4,431.9 577.1,431.9 578.6,431.9 578.6,430.8 578.6,423.5 578.6,422 577.1,422 			"/>
			<path d="M716.7,396.3c0-9.5-6.6-15.8-16.9-15.8h-29h-1.5v1.5v48.8v1.5h1.5h7h1.5v-1.5v-18.7h16.2l9.5,19.5l0.4,0.7h0.7h8.1h2.2
				l-1.1-1.8l-9.5-19.1C712.7,408.8,716.7,403.3,716.7,396.3z M679.2,390.1h20.6c1.8,0,7,0,7,5.5c0,5.1-3.7,6.2-7,6.2h-20.6V390.1z"
				/>
		</g>
		<g>
			<path class="st0" d="M318.2,508.3v-34.9h5.5v34.9H318.2z"/>
			<path class="st0" d="M360.1,509.1c-2.6,0-4.8-0.4-7.3-1.1c-3.7-1.1-5.9-2.2-8.8-4.4l2.9-5.1c4,2.6,8.1,4.4,12.9,4.4
				c7.3,0,15.1-4,15.8-12.1c-6.2,2.9-9.5,4-16.5,4c-2.2,0-4.4-0.4-6.6-0.7c-5.1-1.1-10.3-4.4-10.3-10.3s5.5-9.5,10.7-10.7
				c2.6-0.7,5.1-1.1,7.7-1.1c10.7,0,21.3,6.2,21.3,18C381.7,502.1,371.1,509.1,360.1,509.1z M360.8,478.2c-1.8,0-3.3,0-4.8,0.4
				c-2.2,0.4-7.3,2.2-7.3,5.1c0,2.6,4,4,6.2,4.8c1.5,0.4,3.3,0.4,4.8,0.4c5.5,0,10.3-1.5,15.4-4
				C371.8,480.1,366.3,478.2,360.8,478.2z"/>
			<path class="st0" d="M395.7,508.3c0-0.7,0-1.5,0-2.2c0-8.4,4.8-16.9,13.6-18c2.6-0.4,5.5-0.7,8.1-1.1c2.2-0.4,4.4-1.5,4.4-4
				c0-3.7-6.6-4.4-9.2-4.4c-5.5,0-8.8,1.1-13.6,3.7l-2.6-5.1c5.9-3.3,9.2-4.4,16.2-4.4c5.9,0,15.1,2.6,15.1,9.9
				c0,6.2-5.5,9.5-11,10.3c-3.3,0.4-6.2,0.7-8.4,1.5c-2.9,0.7-4.8,2.9-6.2,8.1h25.7v5.9h-32.1V508.3z"/>
			<path class="st0" d="M472.5,499.9v8.4h-5.9v-8.4h-24.2l-2.6-5.5l25.3-20.9h7.3V494h8.1v5.9H472.5z M466.6,479.7L449.3,494h17.3
				L466.6,479.7L466.6,479.7z"/>
		</g>
		<path d="M386.9,278.8c1.8-0.7,3.3-1.1,5.1-1.5c-2.6-3.3-7-4-11.4-2.6c-4,1.5-6.6,4.4-6.6,8.1s2.6,6.6,7,7.7
			c7.7,1.8,17.3,1.1,23.1-6.6c1.5-1.8,2.6-3.7,4-5.5c4.8-5.9,9.9-6.2,15.1,0c1.5,1.8,2.9,4,4.4,6.2c2.2,2.6,4.4,5.1,8.8,5.5
			c-1.8-4-3.3-7.7-5.1-12.5c2.2-2.2,4-4,7-6.2c-1.8-9.2-11-14.3-16.9-22.4c2.9,0,4.8,0,7.7,0c1.5-1.5,3.3-3.7,4.8-5.5
			c3.7-4.4,8.1-7.3,14-7.7c6.6-0.4,13.6-0.7,20.2,0c8.4,1.1,11.8,7.7,7.7,15.4c-4.4,8.1-10.3,15.1-18,20.2
			c-4.8,2.9-9.9,4.4-15.4,2.2c-2.2,7.3,0,13.6,3.7,19.1c5.1,8.1,13.2,12.9,22,16.9c2.6,1.1,4.8,2.6,7.3,3.7c0,0.4-0.4,0.7-0.4,1.1
			c-1.8,0.4-3.3,0.7-5.1,0.7c-7.3,0.4-12.9,4.4-16.2,10.7c-1.8,3.3-3.3,6.6-4.8,9.9c-6.6,13.2-16.9,18-30.9,14
			c-16.9-5.1-33.1-12.9-46.6-24.2c-11-9.2-16.5-20.9-17.3-34.9c-0.7-16.9,12.1-29,29-27.2c7,0.7,13.2,2.6,17.3,9.5
			c1.8,3.3,1.5,6.2-0.7,9.2c-2.2,2.9-5.5,3.7-8.8,3.3C388,283.9,386.1,282.5,386.9,278.8z"/>
		<path d="M328.8,293.5c-2.2,1.1-3.3,1.8-4.8,2.6c-4.8,2.6-9.9,2.6-14.3-0.4c-10.7-7-16.2-16.9-19.1-29c-0.7-3.3,0.7-5.9,2.9-8.4
			c9.2-9.2,27.2-13.2,38.6-0.7c0.4,0.7,1.1,1.1,2.2,1.8c1.5-1.8,2.9-3.7,4-5.5c8.1-11,18-19.5,31.2-23.1c8.4-2.2,16.5-1.8,24.2,2.9
			c1.8,1.1,3.3,2.9,6.2,5.1c-2.2,0.4-2.9,0.7-3.3,0.4c-14.7-5.9-27.5-1.8-38.9,8.1c-9.9,8.8-15.1,20.2-16.5,33.1
			c-3.3,32.3,16.2,55.5,41.9,66.5c5.9,2.6,12.1,4,18,7c5.5,2.6,11,5.9,15.8,9.5c6.6,4.8,9.9,11.8,11,19.8c0.4,2.2-0.4,4.4-0.4,7.3
			c-1.5-1.1-1.8-1.1-2.2-1.8c-4.4-12.1-14-19.1-25-23.9c-8.8-4-18-6.2-26.4-10.3s-16.5-8.4-23.9-14c-13.2-9.9-19.1-24.6-20.6-40.8
			C329.2,297.5,329.2,296,328.8,293.5z"/>
		<path d="M392.4,422.8c-2.6,1.8-4.4,3.3-6.6,4.8c6.2,7.7,21.3,5.5,26.8-2.9c0-3.7-2.9-5.1-5.5-6.2c-9.9-4.4-20.2-4.8-30.9-1.8
			c-5.1,1.5-9.2,4-8.4,11.8c-3.7-2.6-5.1-5.5-5.5-8.8c-0.4-3.7-0.7-7.7,0-11.4c2.9-14.3,11.4-25.3,24.2-32.7
			c4.8-2.9,9.9-2.9,15.1-0.4c15.1,7.3,26.8,32,22.4,48.1c-2.2,8.1-7,13.2-15.1,15.8c-7.7,2.6-15.8,2.9-23.5,0
			c-2.9-1.1-5.5-2.9-7.3-5.1c-3.7-4.4-2.2-9.2,3.3-11C384.7,420.6,388,420.6,392.4,422.8z"/>
		<path d="M490.8,317c2.9,0.7,2.9,3.7,2.6,6.2c-1.5,8.1-2.2,16.2-10.3,21.3c-5.5,3.7-11,8.1-16.9,10.7c-4.8,2.2-10.3,2.2-16.5-2.6
			c2.9-1.1,4.8-1.8,6.6-2.2c7.3-1.5,13.2-4.8,17.3-11c1.1-1.8,1.5-4,2.2-5.9c-0.4-0.4-0.7-0.4-1.1-0.7c-2.6,1.8-5.1,3.7-7.7,5.1
			c-4.4-3.3-4.8-7.3-1.5-11c0.7-1.1,2.2-1.8,3.3-2.2C476.5,322.1,483.5,319.6,490.8,317z"/>
	</g>
	<path d="M305,381.6l-0.4-0.7h-0.7h-7.7h-0.7l-0.4,0.7l-21.7,47.7l-0.7,1.8h2.2h7.7h0.7l0.4-0.7l5.9-12.9h21.7l5.5,12.9l0.4,0.7h0.7
		h7.7h2.2l-0.7-1.8L305,381.6z M306.4,408.4h-13.2l6.6-14.7L306.4,408.4z"/>
	<path d="M626.7,381.6l-0.4-0.7h-0.7h-7.7h-0.7l-0.4,0.7l-21.7,47.7l-0.7,1.8h2.2h7.7h0.7l0.4-0.7l5.9-12.9H633l5.5,12.9l0.4,0.7
		h0.7h7.7h2.2l-0.7-1.8L626.7,381.6z M628.2,408.4H615l6.6-14.7L628.2,408.4z"/>
	<path d="M769.2,381.6l-0.4-0.7h-0.7h-7.7h-0.7l-0.4,0.7l-21.7,47.7l-0.7,1.8h2.2h7.7h0.7l0.4-0.7l5.9-12.9h21.7l5.5,12.9l0.4,0.7
		h0.7h7.7h2.2l-0.7-1.8L769.2,381.6z M770.3,408.4h-13.2l6.6-14.7L770.3,408.4z"/>
</g>
<g>
	<path class="st1" d="M111.6,652.9h22.1c5.3,0,10.4,0.6,15.2,1.8s9,3.1,12.6,5.8s6.4,6.1,8.5,10.4c2.1,4.3,3.2,9.5,3.2,15.6
		c0,5.4-1,10.2-3.1,14.3c-2,4.1-4.8,7.6-8.3,10.4c-3.5,2.8-7.5,4.9-12,6.4c-4.5,1.4-9.3,2.2-14.2,2.2h-24.1v-66.9H111.6z
		 M126.3,706.1h7.6c3.4,0,6.6-0.3,9.5-1s5.5-1.8,7.6-3.4c2.1-1.6,3.8-3.7,5-6.3s1.8-5.8,1.8-9.6c0-3.3-0.6-6.1-1.8-8.5s-2.9-4.4-5-6
		s-4.5-2.8-7.3-3.5c-2.8-0.8-5.7-1.2-8.8-1.2h-8.7L126.3,706.1L126.3,706.1z"/>
	<path class="st1" d="M224.8,711.8c-2.3,2.9-5.1,5.1-8.6,6.7s-7,2.4-10.8,2.4c-3.5,0-6.8-0.6-10-1.7c-3.1-1.1-5.8-2.8-8.1-4.9
		c-2.3-2.1-4.1-4.6-5.4-7.6c-1.3-3-2-6.3-2-9.9c0-3.6,0.7-6.9,2-9.9s3.1-5.5,5.4-7.6c2.3-2.1,5-3.7,8.1-4.9c3.1-1.1,6.4-1.7,10-1.7
		c3.3,0,6.2,0.6,8.9,1.7c2.7,1.1,4.9,2.8,6.8,4.9c1.9,2.1,3.3,4.6,4.3,7.6s1.5,6.3,1.5,9.9v4.4h-32.8c0.6,2.7,1.8,4.9,3.7,6.5
		s4.2,2.4,7,2.4c2.3,0,4.3-0.5,5.9-1.6c1.6-1,3-2.4,4.2-4L224.8,711.8z M212.8,691.6c0.1-2.4-0.7-4.4-2.4-6.1
		c-1.6-1.7-3.7-2.5-6.3-2.5c-1.6,0-3,0.3-4.2,0.8s-2.2,1.1-3.1,1.9c-0.8,0.8-1.5,1.7-2,2.7s-0.7,2.1-0.8,3.3h18.8V691.6z"/>
	<path class="st1" d="M261.5,687.3c-2.1-2.6-4.8-3.9-8.2-3.9c-1.2,0-2.4,0.3-3.5,0.8c-1.1,0.6-1.7,1.5-1.7,2.9c0,1.1,0.6,2,1.7,2.5
		c1.2,0.5,2.6,1,4.4,1.4c1.8,0.4,3.7,0.8,5.8,1.3c2,0.5,4,1.2,5.8,2.2s3.3,2.4,4.4,4.1c1.2,1.7,1.7,4,1.7,6.9c0,3-0.6,5.4-1.9,7.3
		c-1.3,1.9-2.9,3.5-5,4.6c-2,1.2-4.3,2-6.8,2.5s-5,0.7-7.5,0.7c-3.2,0-6.4-0.5-9.7-1.4s-6-2.5-8.3-4.9l8.6-9.5
		c1.3,1.6,2.8,2.9,4.4,3.7c1.6,0.8,3.5,1.3,5.6,1.3c1.6,0,3.1-0.2,4.4-0.7s2-1.3,2-2.6c0-1.2-0.6-2.1-1.7-2.7
		c-1.2-0.6-2.6-1.1-4.4-1.5c-1.8-0.4-3.7-0.8-5.8-1.3c-2-0.5-4-1.2-5.8-2.1c-1.8-0.9-3.3-2.3-4.4-4c-1.2-1.7-1.7-4-1.7-6.9
		c0-2.7,0.5-5,1.7-7c1.1-1.9,2.5-3.6,4.3-4.8c1.8-1.3,3.9-2.2,6.2-2.8s4.7-0.9,7.1-0.9c3,0,6.1,0.4,9.2,1.3c3.1,0.9,5.7,2.5,7.8,4.7
		L261.5,687.3z"/>
	<path class="st1" d="M279.4,648.4h14.2v71.3h-14.2V648.4z"/>
	<path class="st1" d="M332.5,713.9h-0.2c-1.6,2.5-3.7,4.2-6.3,5.3c-2.6,1.1-5.4,1.6-8.3,1.6c-2.1,0-4.2-0.3-6.2-0.9
		c-2-0.6-3.7-1.5-5.2-2.7s-2.7-2.7-3.6-4.4c-0.9-1.8-1.3-3.8-1.3-6.1c0-2.6,0.5-4.9,1.5-6.7s2.3-3.3,4-4.5s3.6-2.1,5.7-2.8
		s4.4-1.1,6.7-1.5c2.3-0.3,4.6-0.5,6.9-0.6s4.4-0.1,6.4-0.1c0-2.5-0.9-4.5-2.7-6c-1.8-1.5-3.9-2.2-6.4-2.2c-2.3,0-4.5,0.5-6.4,1.5
		s-3.6,2.3-5.1,4l-7.5-7.7c2.6-2.5,5.7-4.3,9.2-5.5s7.2-1.8,10.9-1.8c4.2,0,7.6,0.5,10.2,1.6c2.7,1,4.8,2.6,6.4,4.6s2.7,4.5,3.3,7.4
		c0.6,2.9,0.9,6.3,0.9,10.1v23.3h-13v-5.9H332.5z M329,699.6c-1.1,0-2.4,0-4,0.1s-3.1,0.4-4.6,0.8c-1.5,0.4-2.7,1.1-3.8,2
		c-1,0.9-1.6,2.1-1.6,3.7c0,1.7,0.7,3,2.2,3.8c1.4,0.8,3,1.2,4.5,1.2c1.4,0,2.7-0.2,4-0.6c1.3-0.4,2.4-0.9,3.4-1.6
		c1-0.7,1.8-1.6,2.4-2.6c0.6-1.1,0.9-2.3,0.9-3.8v-3L329,699.6L329,699.6z"/>
	<path class="st1" d="M385.4,688.6c-0.7-1-1.7-1.8-2.9-2.5c-1.3-0.7-2.6-1-4.1-1c-3.6,0-6.4,1.1-8.3,3.2c-2,2.1-3,4.9-3,8.4
		s1,6.3,3,8.4c2,2.1,4.8,3.2,8.3,3.2c1.6,0,2.9-0.3,4.1-1c1.1-0.7,2.1-1.5,2.9-2.5l9.3,9.8c-2.2,2.3-4.8,3.9-7.8,4.8
		c-3,0.9-5.8,1.4-8.5,1.4c-3.5,0-6.8-0.6-10-1.7c-3.1-1.1-5.8-2.8-8.1-4.9c-2.3-2.1-4.1-4.6-5.4-7.6s-2-6.3-2-9.9
		c0-3.6,0.7-6.9,2-9.9s3.1-5.5,5.4-7.6s5-3.7,8.1-4.9c3.1-1.1,6.4-1.7,10-1.7c2.7,0,5.5,0.5,8.5,1.4s5.6,2.5,7.8,4.8L385.4,688.6z"
		/>
	<path class="st1" d="M431.1,685.2h-12.5v15.3c0,1.3,0.1,2.4,0.2,3.4s0.4,1.9,0.8,2.7s1.1,1.3,2,1.7s2.1,0.6,3.6,0.6
		c0.8,0,1.7-0.1,3-0.2c1.2-0.2,2.2-0.5,2.8-1.1v11.8c-1.6,0.6-3.2,0.9-4.9,1.1c-1.7,0.2-3.4,0.3-5,0.3c-2.4,0-4.6-0.3-6.6-0.8
		s-3.8-1.3-5.3-2.4c-1.5-1.1-2.7-2.5-3.5-4.3s-1.3-3.9-1.3-6.4v-21.8h-9.1v-11.3h9.1v-13.6h14.2v13.6h12.5L431.1,685.2L431.1,685.2z
		"/>
	<path class="st1" d="M436.6,696.8c0-3.6,0.7-6.9,2-9.9s3.1-5.5,5.4-7.6s5-3.7,8.1-4.9c3.1-1.1,6.4-1.7,10-1.7c3.5,0,6.8,0.6,10,1.7
		c3.1,1.1,5.8,2.8,8.1,4.9c2.3,2.1,4.1,4.6,5.4,7.6s2,6.3,2,9.9c0,3.6-0.7,7-2,9.9c-1.3,3-3.1,5.5-5.4,7.6s-5,3.7-8.1,4.9
		c-3.1,1.1-6.4,1.7-10,1.7c-3.5,0-6.8-0.6-10-1.7c-3.1-1.1-5.8-2.8-8.1-4.9c-2.3-2.1-4.1-4.6-5.4-7.6
		C437.2,703.7,436.6,700.4,436.6,696.8z M450.7,696.8c0,3.5,1,6.3,3,8.4c2,2.1,4.8,3.2,8.3,3.2c3.6,0,6.4-1.1,8.3-3.2
		c2-2.1,3-4.9,3-8.4s-1-6.3-3-8.4c-2-2.1-4.8-3.2-8.3-3.2c-3.6,0-6.4,1.1-8.3,3.2C451.7,690.5,450.7,693.3,450.7,696.8z"/>
	<path class="st1" d="M521.7,687.3c-2.1-2.6-4.8-3.9-8.2-3.9c-1.2,0-2.4,0.3-3.5,0.8c-1.1,0.6-1.7,1.5-1.7,2.9c0,1.1,0.6,2,1.7,2.5
		c1.2,0.5,2.6,1,4.4,1.4c1.8,0.4,3.7,0.8,5.8,1.3c2,0.5,4,1.2,5.8,2.2s3.3,2.4,4.4,4.1c1.2,1.7,1.7,4,1.7,6.9c0,3-0.6,5.4-1.9,7.3
		c-1.3,1.9-2.9,3.5-5,4.6c-2,1.2-4.3,2-6.8,2.5s-5,0.7-7.5,0.7c-3.2,0-6.4-0.5-9.7-1.4c-3.3-0.9-6-2.5-8.3-4.9l8.6-9.5
		c1.3,1.6,2.8,2.9,4.4,3.7s3.5,1.3,5.6,1.3c1.6,0,3.1-0.2,4.4-0.7s2-1.3,2-2.6c0-1.2-0.6-2.1-1.7-2.7c-1.2-0.6-2.6-1.1-4.4-1.5
		c-1.8-0.4-3.7-0.8-5.8-1.3c-2-0.5-4-1.2-5.8-2.1s-3.3-2.3-4.4-4c-1.2-1.7-1.7-4-1.7-6.9c0-2.7,0.5-5,1.7-7c1.1-1.9,2.5-3.6,4.3-4.8
		c1.8-1.3,3.9-2.2,6.2-2.8c2.3-0.6,4.7-0.9,7.1-0.9c3,0,6.1,0.4,9.2,1.3c3.1,0.9,5.7,2.5,7.8,4.7L521.7,687.3z"/>
	<path class="st1" d="M568.2,713.9H568c-1.6,2.5-3.7,4.2-6.3,5.3s-5.4,1.6-8.3,1.6c-2.1,0-4.2-0.3-6.2-0.9c-2-0.6-3.7-1.5-5.2-2.7
		s-2.7-2.7-3.6-4.4c-0.9-1.8-1.3-3.8-1.3-6.1c0-2.6,0.5-4.9,1.5-6.7s2.3-3.3,4-4.5s3.6-2.1,5.7-2.8c2.1-0.7,4.4-1.1,6.7-1.5
		c2.3-0.3,4.6-0.5,6.9-0.6c2.3-0.1,4.4-0.1,6.4-0.1c0-2.5-0.9-4.5-2.7-6s-3.9-2.2-6.4-2.2c-2.3,0-4.5,0.5-6.4,1.5s-3.6,2.3-5.1,4
		l-7.5-7.7c2.6-2.5,5.7-4.3,9.2-5.5s7.2-1.8,10.9-1.8c4.2,0,7.6,0.5,10.2,1.6c2.7,1,4.8,2.6,6.4,4.6s2.7,4.5,3.3,7.4
		s0.9,6.3,0.9,10.1v23.3h-13L568.2,713.9L568.2,713.9z M564.8,699.6c-1.1,0-2.4,0-4,0.1s-3.1,0.4-4.6,0.8c-1.5,0.4-2.7,1.1-3.8,2
		s-1.6,2.1-1.6,3.7c0,1.7,0.7,3,2.2,3.8c1.4,0.8,3,1.2,4.5,1.2c1.4,0,2.7-0.2,4-0.6c1.3-0.4,2.4-0.9,3.4-1.6c1-0.7,1.8-1.6,2.4-2.6
		c0.6-1.1,0.9-2.3,0.9-3.8v-3L564.8,699.6L564.8,699.6z"/>
	<path class="st1" d="M638.2,719.7h-13v-6H625c-0.6,0.8-1.3,1.7-2.2,2.5s-2,1.6-3.2,2.3s-2.6,1.3-4.1,1.7s-3,0.7-4.6,0.7
		c-3.4,0-6.5-0.6-9.2-1.7c-2.8-1.2-5.1-2.8-7.1-4.9c-2-2.1-3.5-4.6-4.6-7.5s-1.6-6.1-1.6-9.5c0-3.2,0.5-6.3,1.5-9.2s2.4-5.5,4.2-7.8
		s4-4.1,6.6-5.4c2.6-1.4,5.5-2,8.8-2c3,0,5.7,0.5,8.3,1.4c2.5,0.9,4.6,2.5,6.3,4.7h0.2v-30.4h14.2v71.1H638.2z M625.2,696.8
		c0-3.5-1-6.3-3-8.4c-2-2.1-4.8-3.2-8.3-3.2c-3.6,0-6.4,1.1-8.3,3.2c-2,2.1-3,4.9-3,8.4s1,6.3,3,8.4c2,2.1,4.8,3.2,8.3,3.2
		c3.6,0,6.4-1.1,8.3-3.2C624.2,703,625.2,700.2,625.2,696.8z"/>
	<path class="st1" d="M678.3,713.9h-0.2c-1.6,2.5-3.7,4.2-6.3,5.3s-5.4,1.6-8.3,1.6c-2.1,0-4.2-0.3-6.2-0.9c-2-0.6-3.7-1.5-5.2-2.7
		s-2.7-2.7-3.6-4.4c-0.9-1.8-1.3-3.8-1.3-6.1c0-2.6,0.5-4.9,1.5-6.7s2.3-3.3,4-4.5s3.6-2.1,5.7-2.8c2.1-0.7,4.4-1.1,6.7-1.5
		c2.3-0.3,4.6-0.5,6.9-0.6c2.3-0.1,4.4-0.1,6.4-0.1c0-2.5-0.9-4.5-2.7-6s-3.9-2.2-6.4-2.2c-2.3,0-4.5,0.5-6.4,1.5s-3.6,2.3-5.1,4
		l-7.5-7.7c2.6-2.5,5.7-4.3,9.2-5.5s7.2-1.8,10.9-1.8c4.2,0,7.6,0.5,10.2,1.6c2.7,1,4.8,2.6,6.4,4.6s2.7,4.5,3.3,7.4
		s0.9,6.3,0.9,10.1v23.3h-13L678.3,713.9L678.3,713.9z M674.8,699.6c-1.1,0-2.4,0-4,0.1s-3.1,0.4-4.6,0.8c-1.5,0.4-2.7,1.1-3.8,2
		s-1.6,2.1-1.6,3.7c0,1.7,0.7,3,2.2,3.8c1.4,0.8,3,1.2,4.5,1.2c1.4,0,2.7-0.2,4-0.6c1.3-0.4,2.4-0.9,3.4-1.6c1-0.7,1.8-1.6,2.4-2.6
		c0.6-1.1,0.9-2.3,0.9-3.8v-3L674.8,699.6L674.8,699.6z"/>
</g>
</svg>
