<?xml version="1.0" encoding="utf-8"?>
<!-- Generator: Adobe Illustrator 19.0.0, SVG Export Plug-In . SVG Version: 6.00 Build 0)  -->
<svg version="1.1" id="Capa_1" xmlns="http://www.w3.org/2000/svg" xmlns:xlink="http://www.w3.org/1999/xlink" x="0px" y="0px"
	 viewBox="0 0 800 800" style="enable-background:new 0 0 800 800;" xml:space="preserve">
<style type="text/css">
	.st0{fill-rule:evenodd;clip-rule:evenodd;}
	.st1{fill-rule:evenodd;clip-rule:evenodd;fill:#FFFFFF;}
	.st2{fill-rule:evenodd;clip-rule:evenodd;fill:#4C98D0;}
	.st3{fill-rule:evenodd;clip-rule:evenodd;fill:#2E2D24;}
	.st4{fill-rule:evenodd;clip-rule:evenodd;fill:#C5453E;}
</style>
<g>
	<path class="st0" d="M717.8,276.7v-10c0-0.5,0-2.6,0-4.2h0l-4.8,14.2h-2.3l-4.8-14.2h0c0,1.6,0,3.7,0,4.2v10h-2.2v-16.9h3.3
		l4.8,14.3h0l4.8-14.3h3.2v16.9H717.8L717.8,276.7z"/>
	<path class="st0" d="M726,276.7h-2.3v-16.9h7.8c2.8,0,5.6,1,5.6,4.5c0,2.5-1.3,3.4-2.4,4.1c1,0.4,1.9,0.8,2,3.2l0.1,3.1
		c0,0.9,0.1,1.3,0.9,1.7v0.4H735c-0.3-1-0.4-3.6-0.4-4.2c0-1.4-0.3-3-3-3H726V276.7L726,276.7L726,276.7z M726,267.5h5.3
		c1.7,0,3.4-0.4,3.4-2.9c0-2.6-1.9-2.8-3-2.8H726V267.5L726,267.5z"/>
	<path class="st1" d="M266.5,321.8c-26-2.4-134.5-13.7-180.8-49.5l-19.7,62c-10.3,2.9-18,11.6-18,23.8c0,0,0,122,0,122
		c0.1,5.7,3.6,16.6,15.8,21.9l28.7,11.2c6,2.6,16.2,2.9,24.2-2.7c2.5-1.8,6-5,8.2-10.4c2,0.5,22.9,2.5,25.8,2.1c0,1.4,0,2.9,0,4.5
		c0,0,0.1,6.2,3,12c4.3,8.5,11.2,12.9,20.3,13.1c0,0,61.1,2.7,61.1,2.7c2.6,0.2,6.4-0.4,9.6-1.7c6.5-2.5,11.4-7.3,14.1-13.9
		c0,0,6.5-16.6,9.2-23.5c5-0.1,10.1-0.3,15.3-0.4c2.6,6,7.2,16.8,7.2,16.8c3,6.7,12.8,18.2,28.2,14.4l53.5-12.7
		c14.9-3.6,18.8-17.4,18.8-24.2c0,0,0-2.7,0-3.7c16.3,17.1,44.5,46.7,44.5,46.7c1.4,1.5,9,9,20.5,7.6l35.2-3.1
		c5.5-0.6,10.3-2.6,14.1-5.8c3.4-2.9,5.9-6.7,7.3-11.1c2.9-8.9,0.9-19-4.7-24c0,0-7.4-7.4-15-15.1c5.3,0,10-0.3,13.9-0.8
		c23.9-3,33.7-10.8,38.8-15.3c8,4.1,18.7,7.9,31.4,8.7c16.9,1,33.3-3.6,49-13.8c31.2,26.3,68.3,19.6,82.4,14.7
		c50.7-17.5,45.1-70.8,26.2-87.4c30.9-22.8,5.4-44.1,5.4-44.1l-2.8-57.6c0,0-33.1,0.9-49.1-1l-0.2-64.1c5.6-2.5,4.9-12.3,4.9-12.3
		v-7.2l-5.9-1.9v-13.8l6-1.8V167c0,0-3.4,0.3-6,0.5c-3.3,0.2,2.7-6.9,2.7-6.9c-0.4-4.6-3.7-7.5-7.9-9.1c-2.4-3.4-5.9-4.3-8.6-4.2
		c0,0-4.9,0-7.9,5.1c-8.6,4.5-7.4,10.5-7.4,10.5s5.7,6.3,2.1,6.6c-7.1,0.5-29,2.2-37.1,2.8c-0.5-6.4,2.8-11.3,2.8-11.3
		s-0.8-7.2-6-9.9c0-1.1,0-8.2,0-8.2l-8.9,0.7l-11.2,0.8c0,0,0,7.2,0,7.5c-6.4,4.9-6,11.8-6,11.8s3.8,4.2,2.5,10.7
		c-7.1,0.5-29.6,2.2-37.5,2.8c-4.4,0.4,2.8-7.1,2.8-7.1c-0.3-4.4-3.7-7.4-7.8-9.1c-0.4-0.5-0.8-1-1.2-1.4c-2-1.9-4.7-2.9-7.4-2.7
		l0,0c-3.3,0.3-6.1,2.2-7.8,5.1c-3.7,1.9-7.4,5-7.4,10.5c0,0,6,6.3,1.8,6.8c-2.2,0.2-5.4,0.4-5.4,0.4v13.4l6.2,1.8v13.8l-5.8,1.8
		v3.1c-6.4-3.5-13.9-3.8-18.6-2.8l0,0l-20.2,4.2c-5.9,1-10.8,3.9-14.4,8.5c-5.1-2.8-10.9-3.6-17-2.4l-23.5,5.1
		c-7.7,1.7-13.9,6.9-17.2,13.7c-5.5-4.7-13-6.9-20.6-5.5c0,0-21.7,3.9-21.7,3.9c-8.3,1.5-15.1,7-18.4,14.6
		c-10.1-5.8-25.9-8.7-44.1-8c-12.5,0.4-24.2,4.5-33.7,11.6c-8.8,6.6-14.3,14.6-18.5,25.8c-5.9,15.6,0.5,31.3,7.6,39.4L266.5,321.8
		L266.5,321.8L266.5,321.8z M581.8,320.1c-1.3,0-2.6,0-4,0.1v-70l0.3-0.2c9.3-7.2,20.8-11.6,32.5-12.5c11.1-0.8,22.5,1.7,31.4,7
		v89.2c-2.6,1.8-5.2,3.8-7.7,6.1C628.3,334.5,611.3,320.1,581.8,320.1L581.8,320.1z"/>
	<path class="st2" d="M681.6,180v-1.8l3.1-0.2v-2.1l-3.1,0.2v-1.5v0c-8.2-5-0.2-13.4-0.2-13.4c0-0.9-2.5-2.5-5.8-2.8
		c0.1-1.8-0.8-3-1.8-2.9c-1,0.1-1.9,1.5-1.8,3.1c-3.3,0.8-5.8,2.8-5.8,3.6c0,0,8.3,8.2-0.3,13.3l0,0v1.7l-48.3,3.6
		c-6.5-10-0.1-19.3-0.1-19.3c-0.1-2.7-2.6-4.7-5.9-5.1v-4.9l-3.6,0.3v4.9c-3.3,0.8-5.8,3.3-5.9,6c0,0,6.1,8-0.1,19.3l-48.4,3.6V184
		c-8.2-5.1-0.2-13.4-0.2-13.4c0-0.9-2.5-2.5-5.8-2.8c0.1-1.8-0.8-3-1.8-2.9c-1,0.1-1.9,1.5-1.8,3.1c-3.3,0.8-5.8,2.8-5.8,3.6
		c0,0,8.3,8.2-0.3,13.3l0,0l0,0l0,0v1.9l-3.3,0.2v2.1l3.3-0.2v1.5l2.9,1.8V211l-2.9,2.2v1.9l-3,0.2v2.1l149.8-11.2v-2.1l-3.1,0.2
		v-1.6l-2.9-1.8v-18.8L681.6,180L681.6,180L681.6,180z M553.6,213.9v-1.7l-2.9-1.8v-18.7l2.9-2.2v-1.7l112.3-8.4v1.6l2.9,1.8v18.7
		l-2.9,2.2v1.7L553.6,213.9L553.6,213.9z"/>
	<path class="st2" d="M679.8,321.7v-106c0,0,4.9-1.8,4.9-7.5l-13.2,1c0,0,0.7,5.7-4.8,9.7l0,104.1
		C666.6,323,669.2,322.2,679.8,321.7L679.8,321.7z"/>
	<path class="st2" d="M663.1,323.9V217c0,0,5-1.9,4.9-7.5l-17.8,1.3v117.9C650.1,328.7,658.3,325,663.1,323.9L663.1,323.9z"/>
	<path class="st2" d="M540,331.8V226.2c-4.9-2-5-6.8-5-6.8l13.2-1.1c0,0,0,5.2,4.8,8.7v98.2C553,325.2,545.6,328.5,540,331.8
		L540,331.8z"/>
	<path class="st2" d="M569.5,321.1V216.8l-17.9,1.3c0,0,0,4.7,4.9,6.8V324C556.5,324,559.2,322.7,569.5,321.1L569.5,321.1z"/>
	<path class="st2" d="M573,230.8c9.7-7.4,22.6-12.4,36.7-13.5c14.3-1.1,27.3,1.8,36.9,7.8v-14.4l-73.6,5.7V230.8L573,230.8z"/>
	<path class="st2" d="M573,233.5v9.9c9.7-7.4,22.7-13.1,36.9-14.2c14.2-1.1,27.2,2.6,36.7,8.4v-9.9c-9.5-5.8-22.5-8.8-36.7-7.8
		C595.7,221.1,582.7,226.1,573,233.5L573,233.5z"/>
	<polygon class="st2" points="565.9,188.6 559.6,189.1 559.6,212.1 565.9,211.6 565.9,188.6 	"/>
	<polygon class="st2" points="576.1,187.8 569.9,188.3 569.9,211.3 576.1,210.8 576.1,187.8 	"/>
	<polygon class="st2" points="586.4,187.1 580.1,187.5 580.1,210.5 586.4,210.1 586.4,187.1 	"/>
	<polygon class="st2" points="596.6,186.3 590.4,186.8 590.4,209.8 596.6,209.3 596.6,186.3 	"/>
	<polygon class="st2" points="629.6,183.9 623.4,184.4 623.4,207.4 629.6,206.9 629.6,183.9 	"/>
	<polygon class="st2" points="639.7,183.1 633.5,183.6 633.5,206.6 639.7,206.1 639.7,183.1 	"/>
	<polygon class="st2" points="649.8,182.3 643.5,182.8 643.5,205.8 649.8,205.3 649.8,182.3 	"/>
	<polygon class="st2" points="659.8,181.6 653.6,182 653.6,205 659.8,204.6 659.8,181.6 	"/>
	<polygon class="st2" points="602.9,185.8 605.6,188.2 605.6,205.9 602.3,208.9 617.5,207.7 614.7,205.2 614.7,187.5 617.3,184.7 
		602.9,185.8 	"/>
	<path class="st3" d="M490.5,528.5l-35.3,3.1c-8.1,0.9-13.6-5.1-13.6-5.1L383,464.8v24.3c0,0,0,13.2-12.5,16.2L316.9,518
		c-12.9,3.2-18.7-9.8-18.7-9.8l-9.3-21.8l-26.3,0.7l-11.2,28.4c-4.6,11-15.6,10.6-15.6,10.6l-61.5-2.8
		c-14.5-0.3-15.2-16.7-15.2-16.7s0-17.5,0-17.5c-5.6,5.8-13.3,4.8-13.3,4.8l-17.6-1.8c0,0-6.2-0.9-9.6-4.5
		c1.1,18.6-15.9,20.9-22.8,17.9L67,494.3c-11-4.4-10.7-15.6-10.7-15.6V358.1c0,0,0-17,18.4-16.6l34.4,3.5c9,0.4,13.6,9.8,13.6,9.8
		l17.6,38.9l15.7-32.7c0,0,4.4-10.5,16.8-9.5l35.1,3.6c14.9,2,15,16.6,15,16.6l0,42.8l17.6-50.7c3.9-10.3,6.7-11.4,29.1-11.3
		c-9.8-11.5-3.4-22,9.1-30.7c-29.4-22-9-67.5,32.5-68.9c40.5-1.4,47.8,14.2,47.8,14.2l3-9.4c1.9-5.9,6.8-10.3,13-11.4l21.6-3.9
		c7.7-1.4,15.2,2.6,18.3,9.7l6.7,15.2v-16.9c0-7.8,5.5-14.7,13.2-16.3L458,229c12.3-2.6,18,7.9,18,7.9s1.8-12.1,13.1-14l20.6-4.2
		c6.6-1.4,20.1,2.1,20.1,16.4c0,0,0,104.1,0,104.1c2.5,1.3,4.7,3.2,6.3,5.6c12.6-10.6,28.6-16.5,45.7-16.5
		c20.7,0,39.7,8.6,52.9,23.5c13.5-18.5,36.8-23,54.5-21.2c15,1.5,36,8.7,47.3,19.7c3.2,3.1,9.9,14.7-0.7,24.5
		c0,0-12.5,10.9-13.6,11.9c22,15.5,17.9,38.3,17.9,38.3c-4,49.7-78.7,60.3-113.1,23.8c-35.6,26.6-67.8,15-83.8,4.7
		c-3.1,13.1-41.4,24.4-72.8,16l32.3,32.4C508.4,507.1,507.8,526.6,490.5,528.5L490.5,528.5z"/>
	<path class="st1" d="M335.2,287.2c-4.6-3.6-10.3-5.6-17.6-4.9c-7.1,0.7-13.5,5.1-13,10.2c1.3,13.4,45.8,3.6,48.3,30.2
		c1.5,15.9-11.6,28.5-34.8,30.7c-15.7,1.5-27.7-3.8-36.4-12.2L295,330c3.6,5.8,12.1,10.5,21.6,9.6c9-0.8,14.1-6.7,13.5-12.8
		c-0.8-8.2-11.8-9.5-21-11.1c-15-2.8-26.2-7-27.3-19.3c-1.2-13.1,11.8-25.1,30.9-26.9c10.1-0.9,24.4,1.2,31.9,5.9L335.2,287.2
		L335.2,287.2z"/>
	<path class="st1" d="M289.9,444.2l-30.2,0.8l12.8-41.1l0.3,0L289.9,444.2L289.9,444.2L289.9,444.2z M299.7,469.5l13.8,32.2
		l27.4-6.1L290,369.1l-33.8,0.2l-48.8,140.1h28.4l15.2-38.7L299.7,469.5L299.7,469.5z"/>
	<path class="st1" d="M401.6,309.6l-19.7,1.2l7.6-27.1l0.2,0L401.6,309.6L401.6,309.6L401.6,309.6z M408.5,325.8l8.8,18.3l19-1.1
		l-36.8-84.3l-21.6,3.9l-27.8,88.3l18.8-1.1l7.8-22.1L408.5,325.8L408.5,325.8z"/>
	<path class="st1" d="M522.2,381.3c-6.5-5.4-16-8.3-25.4-7.8c-21.2,1.2-32.5,16.8-31.7,31.7c0.8,14.6,14.2,28.4,34.8,27.3
		c9.5-0.5,18.7-4.8,24.6-10.6l1.4-1.9l1.6,27.9c-9.4,4-18.9,7.1-29.5,7.7c-37,2.1-65.8-20.8-67.3-48.5
		c-1.6-28.5,23.4-55.1,61.9-57.3c10.3-0.6,20.5,1,29.7,4.2l1.6,28.7L522.2,381.3L522.2,381.3z"/>
	<path class="st1" d="M581.8,366c17.1,0,29.3,14.9,29.3,29.7c0,13.8-12.7,31.4-29.3,31.4c-16.6,0-29.3-17.6-29.3-31.4
		C552.4,380.9,564.6,366,581.8,366L581.8,366L581.8,366z M581.8,448.1c31.2,0,52.9-23.6,52.9-51.7c0-27.4-21.7-51.4-52.9-51.4
		c-31.2,0-52.9,24-52.9,51.4C528.8,424.5,550.5,448.1,581.8,448.1L581.8,448.1z"/>
	<polygon class="st1" points="492.5,239.4 513,235.1 513,335.1 491,337 459.1,282.1 458.7,282.1 458.7,340.2 438.2,342.2 
		438.2,250.4 461.6,245.4 492.2,298.4 492.5,298.3 492.5,239.4 	"/>
	<path class="st1" d="M171.1,368.1c0,0-24.3,51.6-31.3,63c-7.2-12.8-32.4-69.5-32.4-69.5L73,358.1v120.7l28.9,11.2
		c0,0,0-51.7,0-76.9c10.7,19.3,28,62.5,28,62.5l17.6,1.8c0,0,17.5-39.8,28.3-56.9c0,25.1,0,86.2,0,86.2l30.2,2.7l0.1-137.8
		L171.1,368.1L171.1,368.1z"/>
	<path class="st1" d="M453.8,514.9l35.3-3.1L396,419c20-4.1,30.5-18.2,30.5-31.4c0-22.1-20.4-29.4-49.9-26.8l-39.4,3.5l-0.4,132.2
		l29.5-6.5v-62.2l4.2-0.3L453.8,514.9L453.8,514.9L453.8,514.9z M366.3,378.3l4-0.4c15.4-1.4,27.1,0.1,27.1,12.9
		c0,12.6-11.3,16.9-27.3,18.3l-3.8,0.3V378.3L366.3,378.3z"/>
	<path class="st1" d="M710.5,374.7c-4.7-5.6-11.1-9.5-20.2-10.4c-8.8-0.9-17.6,3.1-18.3,9.7c-1.7,17,54.7,15.5,51.4,49.4
		c-2,20.2-20.9,32.9-49.6,30c-19.4-1.9-32.8-11.4-41.3-24l18.9-10.7c3,8.2,12.1,16.1,23.9,17.3c11.2,1.1,18.7-5.1,19.5-12.8
		c1-10.5-12.1-14.7-22.8-18.9c-17.5-7.2-30.1-15-28.6-30.7c1.7-16.8,20.3-28.6,44-26.2c12.5,1.2,29.4,7.4,37.3,15.1L710.5,374.7
		L710.5,374.7z"/>
	<path class="st2" d="M90.2,285.2c48.1,32.1,160.5,43.8,160.5,43.8l-4.3,20.5c-119.3-7.8-162.7-20.5-169.2-23L90.2,285.2L90.2,285.2
		z"/>
	<path class="st2" d="M729.4,294.6c-8.5,0.1-24.9-0.2-41.6-1.1l0.3,27.6c14.6,1.5,33.9,4.7,42.9,6.6L729.4,294.6L729.4,294.6z"/>
	<path class="st1" d="M152,554.8c-17.4,0-32.4,4.3-43.3,12.3C96,576.4,89.3,590.2,89.3,607c0,16.8,6.7,30.6,19.3,39.9
		c11,8,25.9,12.3,43.3,12.3h493.3c17.4,0,32.4-4.3,43.3-12.3c12.6-9.3,19.3-23.1,19.3-39.9c0-16.8-6.7-30.6-19.3-39.9
		c-11-8-25.9-12.3-43.3-12.3H152L152,554.8z"/>
	<path class="st4" d="M152,650.9c-30,0-54.3-13.9-54.3-43.9c0-30,24.3-43.9,54.3-43.9h493.3c30,0,54.3,13.9,54.3,43.9
		c0,30-24.3,43.9-54.3,43.9H152L152,650.9z"/>
	<path class="st1" d="M131.9,603.7c2.6-4.3,5.8-8.5,9.4-12.7c2.6,5.4,4.3,11.3,5.5,17.3l-0.2,0.1c-4.1-3.8-10.2-4.7-13.8-4.7H131.9
		L131.9,603.7L131.9,603.7z M130.4,610.6c8.1,0,17.7,4.7,17.8,14.8c0.1,3.8,0.6,5.8,4.2,5.8c2.5,0,4.7-1.9,5.3-5.6
		c0.4-2.2,0.6-14.7-5.9-31.9c-2.8-7.5-4.7-11.1-8.9-11.1c-5.1,0-8,3.6-13.5,11.1c-12.5,17.2-16,29.8-16.3,31.9
		c-0.6,3.4-0.2,5.6,3.7,5.6c2.6,0,4.4-1.5,5.1-4.1c1.3-4.7,3.6-11.4,6.4-16.5H130.4L130.4,610.6z"/>
	<path class="st1" d="M170.7,587.7c0.6-2.4,2.2-4.9,5.2-4.9c3.2,0,4,2.4,3.7,4c-1.6,9.2-5.4,18.3-7,27.5c-0.9,5.4,2.5,9.1,8.1,9.1
		c5.6,0,10.3-3.7,11.3-9.1c1.6-9.2,0.9-18.3,2.5-27.5c0.3-1.7,1.9-4,5.1-4c3,0,3.7,2.5,3.5,4.9l-1.7,21.6c-0.2,1.8-0.5,3.9-0.9,5.9
		c-1.7,9.7-10.8,16.2-21.2,16.2c-10.4,0-17.2-6.6-15.6-16.2c0.3-2,0.7-4.1,1.2-5.9L170.7,587.7L170.7,587.7z"/>
	<path class="st1" d="M223.6,626.5c-0.5,2.6-2.3,4.7-5.4,4.7c-3.1,0-4.2-2.1-3.8-4.7l6.1-35.1h-8.4c-2.6,0-4.5-1.3-4-4.2
		c0.5-2.8,2.8-4.2,5.5-4.2h26c2.6,0,4.5,1.3,4,4.2c-0.5,2.9-2.8,4.2-5.5,4.2h-8.4L223.6,626.5L223.6,626.5z"/>
	<path class="st1" d="M256.5,597h17.4c2.5,0,4.2,1.3,3.7,4c-0.5,2.7-2.7,4-5.1,4h-17.4l-3.2,18.1h18.2c2.5,0,4.2,1.2,3.7,4
		c-0.5,2.7-2.7,4-5.1,4h-21.4c-4.8,0-5.9-2.4-5.3-6l6.5-37.2c0.5-2.6,2.4-4.7,4.8-4.7h23.8c2.5,0,4.2,1.3,3.7,4
		c-0.5,2.7-2.7,4-5.1,4h-18.2L256.5,597L256.5,597z"/>
	<path class="st1" d="M315,626.4c-0.5,2.7-2.3,4.8-5.4,4.8c-3.1,0-4.2-2.1-3.8-4.8l3.9-22.1c-5.8-0.6-11.3-4.6-15.1-10l-5.6,32.1
		c-0.5,2.7-2.3,4.8-5.4,4.8c-3.1,0-4.2-2.1-3.7-4.8l6.8-38.8c0.6-2.7,2.7-4.8,6.7-4.8c7.1,0,6.1,10.2,17.8,13.5l1.5-8.7
		c0.5-2.7,2.3-4.8,5.4-4.8c3.1,0,4.2,2.1,3.7,4.8L315,626.4L315,626.4z"/>
	<path class="st1" d="M341,626.5c-0.5,2.6-2.3,4.7-5.4,4.7c-3.1,0-4.2-2.1-3.8-4.7l6.1-35.1h-8.4c-2.6,0-4.5-1.3-4-4.2
		c0.5-2.8,2.8-4.2,5.4-4.2h26c2.6,0,4.5,1.3,4,4.2c-0.5,2.9-2.8,4.2-5.5,4.2h-8.4L341,626.5L341,626.5z"/>
	<path class="st1" d="M369.3,626.5c-0.5,2.6-2.3,4.7-5.4,4.7c-3.1,0-4.2-2.1-3.8-4.7l6.8-38.9c0.5-2.7,2.3-4.7,5.4-4.7
		c3.1,0,4.2,2.1,3.8,4.7L369.3,626.5L369.3,626.5z"/>
	<path class="st1" d="M402.6,591.4c-7.8,0-11.4,4.8-12.6,12c-1.6,8.9,4.7,19.2,20.1,19.2c4.1,0,5.6,1.8,5.2,4.2
		c-0.6,3.3-3.5,4.6-8.5,4.6c-14.2,0-30.3-9.2-26.9-28.6c2.1-12,11.2-19.8,21.7-19.8h16.1c2.6,0,4.5,1.3,4,4.2
		c-0.5,2.9-2.9,4.2-5.5,4.2H402.6L402.6,591.4z"/>
	<path class="st1" d="M436.2,603.7c2.6-4.3,5.8-8.5,9.4-12.7c2.6,5.4,4.3,11.3,5.5,17.3l-0.2,0.1c-4.1-3.8-10.2-4.7-13.8-4.7H436.2
		L436.2,603.7L436.2,603.7z M434.7,610.6c8.1,0,17.7,4.7,17.8,14.8c0.1,3.8,0.6,5.8,4.2,5.8c2.5,0,4.7-1.9,5.3-5.6
		c0.4-2.2,0.6-14.7-5.9-31.9c-2.8-7.5-4.7-11.1-8.9-11.1c-5.1,0-8,3.6-13.5,11.1c-12.5,17.2-16,29.8-16.3,31.9
		c-0.6,3.4-0.2,5.6,3.7,5.6c2.6,0,4.4-1.5,5.2-4.1c1.3-4.7,3.6-11.4,6.4-16.5H434.7L434.7,610.6z"/>
	<path class="st1" d="M497,587.6c0.5-2.7,2.3-4.7,5.4-4.7c3.1,0,4.2,2.1,3.8,4.7l-6.1,35.1h14c2.6,0,4.5,1.3,4,4.2
		c-0.5,2.9-2.8,4.2-5.5,4.2h-16.9c-4.8,0-5.9-2.4-5.3-6L497,587.6L497,587.6z"/>
	<path class="st1" d="M536.3,597h17.4c2.5,0,4.2,1.3,3.7,4c-0.5,2.7-2.7,4-5.1,4h-17.4l-3.2,18.1h18.2c2.5,0,4.2,1.2,3.7,4
		c-0.5,2.7-2.6,4-5.1,4h-21.5c-4.8,0-5.9-2.4-5.3-6l6.5-37.2c0.5-2.6,2.3-4.7,4.8-4.7h23.8c2.5,0,4.2,1.3,3.7,4
		c-0.5,2.7-2.6,4-5.1,4h-18.2L536.3,597L536.3,597z"/>
	<path class="st1" d="M585,591.4c-7.9,0-11.4,4.8-12.6,12c-1.6,8.9,4.7,19.2,20.1,19.2c4.1,0,5.6,1.8,5.2,4.2
		c-0.6,3.3-3.5,4.6-8.5,4.6c-14.2,0-30.3-9.2-26.9-28.6c2.1-12,11.2-19.8,21.7-19.8H600c2.6,0,4.5,1.3,4,4.2
		c-0.5,2.9-2.8,4.2-5.5,4.2H585L585,591.4z"/>
	<path class="st1" d="M634.2,597.7l1.7-10.1c0.5-2.7,2.3-4.7,5.4-4.7c3.1,0,4.2,2.1,3.7,4.7l-6.8,38.9c-0.5,2.6-2.3,4.7-5.4,4.7
		c-3.1,0-4.2-2.1-3.7-4.7l3.7-21.3h-16.9l-3.7,21.3c-0.5,2.6-2.3,4.7-5.4,4.7c-3.1,0-4.2-2.1-3.8-4.7l6.8-38.9
		c0.5-2.7,2.3-4.7,5.4-4.7c3.1,0,4.2,2.1,3.7,4.7l-1.8,10.1H634.2L634.2,597.7z"/>
	<path class="st1" d="M659.9,597h17.5c2.5,0,4.2,1.3,3.7,4c-0.5,2.7-2.7,4-5.1,4h-17.4l-3.2,18.1h18.2c2.5,0,4.2,1.2,3.7,4
		c-0.5,2.7-2.7,4-5.1,4h-21.4c-4.8,0-5.9-2.4-5.3-6l6.5-37.2c0.5-2.6,2.4-4.7,4.8-4.7h23.8c2.5,0,4.2,1.3,3.7,4
		c-0.5,2.7-2.7,4-5.1,4h-18.2L659.9,597L659.9,597z"/>
</g>
</svg>
