<?xml version="1.0" encoding="utf-8"?>
<!-- Generator: Adobe Illustrator 24.0.0, SVG Export Plug-In . SVG Version: 6.00 Build 0)  -->
<svg version="1.1" id="Capa_1" xmlns="http://www.w3.org/2000/svg" xmlns:xlink="http://www.w3.org/1999/xlink" x="0px" y="0px"
	 viewBox="0 0 180 100" style="enable-background:new 0 0 180 100;" xml:space="preserve">
<style type="text/css">
	.st0{fill:#E1A340;}
	.st1{fill:#060606;}
	.st2{fill:#050505;}
	.st3{fill:#020202;}
</style>
<g>
	<g>
		<path class="st0" d="M118.8,65.1c0.3-0.5,0.6-1,0.9-1.5c0.1,0,0.2,0,0.4,0.1c0.7,0.1,1.3,0.4,2,0.4c0.8-0.1,0.6-1.1,1-1.6
			c0.5-0.7,1.2-1.1,2-1.4c1.8-0.7,3.6-0.8,5.5-0.8c0.2,0.3-0.1,0.8,0.2,1.3c0.5-0.2,0.9-0.5,1.5-0.7c0.5-0.2,1.2-1,1.5,0.3
			c0.1,0.4,0.6,0.1,0.9,0c1.4-0.4,2.7-0.5,4.1-0.4c0.3,0,0.6-0.1,0.8,0.4c-1.4-0.2-2.7,0.1-4.3,0.9c2.1,0.9,4.2-0.5,6.1,0.7
			c-1.4,0-2.7,0-3.9,0.3c-0.2,0.1-0.6,0.1-0.6,0.4c0,0.2,0.3,0.4,0.6,0.4c0.8,0,1.7,0,2.9,0c-1.6,0.7-3,0.6-4.3,0.9
			c-0.7,0.2-1.7-0.1-1.7,1.3c-0.1,0.7-1.2,0.7-1.8,0.7c-0.8-0.1-1.3,0-1.7,0.8c-0.4,0.7-1,1-1.7,0.3c-0.5-0.4-1.1-0.4-1.7-0.3
			c-1.4,0.2-2.6-0.1-3.7-1.1C122.2,65.3,120.4,65.6,118.8,65.1z M126.9,61.4c-2,0.1-2.8,0.6-3,2c-0.1,0.5,0,0.8,0.6,0.6
			C125.7,63.5,126.6,62.8,126.9,61.4z M130.3,65c1.1,1.4,2,1.7,3,1.2c0.3-0.2,0.7-0.3,0.3-0.8C132.8,64.5,131.2,64.3,130.3,65z
			 M130,67.1c-0.4-1.7-1.2-2.4-2.4-2.3c-0.7,0-1,0.2-0.5,0.9C127.8,66.7,128.7,67.2,130,67.1z M129.6,61.2c-1.3,0.2-2,1.2-2.7,2
			c-0.2,0.2-0.3,0.4-0.2,0.7c0.2,0.2,0.4,0.2,0.7,0.1C128.6,63.8,129.3,62.9,129.6,61.2z M132.9,61.1c-1.2,0.6-2.3,1-2.8,2.3
			C132.5,63.3,132.7,63.1,132.9,61.1z M134.8,64.4c0.5-0.2,1.2-0.2,1.2-0.9c0-0.6-0.7-0.8-1.3-0.8c-0.5,0-1.1,0.4-1.1,0.8
			C133.6,64.1,134.2,64.3,134.8,64.4z M124.8,65.3c-0.2,0.1-0.6-0.1-0.7,0.2c-0.1,0.3,0.1,0.6,0.4,0.8c0.5,0.5,1,0.9,1.8,0.7
			c0.2-0.1,0.4-0.2,0.3-0.4C126.2,65.9,125.6,65.5,124.8,65.3z"/>
		<path class="st0" d="M98.3,65.1c-1.9,0.1-3.5-0.7-5.2-1.3c-0.4-0.2-0.8-0.5-0.6-1.1c0.2-0.6,0.7-0.5,1.2-0.4
			c1.2,0.3,2.4,0.9,3.7,0.9C97.7,63.9,98,64.5,98.3,65.1z"/>
	</g>
	<g>
		<path class="st1" d="M118.8,65.1c-1.5,1.9-3.6,3.1-5.6,4.2c-0.6,0.4-0.9,0.7-0.5,1.4c0.4,0.9,0.7,1.8,1.1,2.7
			c0.3,0.6,0.2,0.8-0.5,0.9c-1.1,0.1-2.1,0-2.5,1.5c-0.2,0.8-1.2,0.5-1.8,0c-0.3-0.2-0.4-0.7-0.9-0.6c-1.4,0.3-1.6-0.5-1.5-1.6
			c0-0.3,0.2-0.9-0.3-1c-0.5-0.1-0.6,0.5-0.7,0.9c-0.4,1.7-1.2,3.2-2.5,4.5c-2.7,2.8-3.8,6.2-4.4,9.9c-0.1,0.7-0.2,1.5-0.4,2.2
			c-0.5,2.5-1.7,3.6-4.1,3.9c-2.4,0.3-4.7-0.8-5.6-2.8c-0.9-2-1.7-4-2.4-6c-0.5-1.3-1.3-1.9-2.8-1.8c-2.7,0.1-5.5,0-8.2-0.5
			c-0.6-0.1-1.1,0-1.6,0.3c-1.2,0.8-2.4,1.6-3.4,2.6c-0.6,0.6-1.2,1.5-2.1,1.6c-1.5,0.3-1.2,0.9-0.5,1.8c0.5,0.7,0.9,1.5,1.1,2.2
			c0.5,1.3-0.3,2.3-1.7,2.3c-1.3,0-2.4-0.5-3.3-1.6c-1.4-1.7-2.5-3.5-3.6-5.3c-0.2-0.4-0.4-0.9-1-1.2c-0.2,0.8,0,1.5,0,2.2
			c0.1,0.8,0.2,1.6,0.3,2.4c0.1,1.7-0.5,2.1-2.1,1.8c-1-0.2-1.9-0.7-2.5-1.6c-2.6-3.5-4.4-7.5-6-11.5c-0.4-1.1-0.3-2.2,0.4-3.3
			c0.9-1.4,1.8-2.8,2.5-4.4c0.5-1.1,0.4-2.1-0.5-2.9c-4.9-4-5.8-9.5-5.4-15.3c0-0.7-0.1-1.2-0.4-1.8c-0.6-1-0.7-2-0.3-3.1
			c1.8-4.6,5.3-6.8,10-7.6c3.6-0.6,7,0.2,10.4,1.1c4.7,1.3,9.2,3.2,13.9,4.5c3,0.8,6,1,9,1c0.7,0,0.9-0.2,1.1-0.9
			c0.5-2.1,1.6-3.7,3.9-3.9c0.7-0.1,0.6-0.5,0.5-0.9c0-1.7-0.8-3.2-1.7-4.7c3.5-0.6,6.4,0.1,8.5,2.9c0.6,0.9,1.3,1,2.3,0.7
			c1.6-0.5,3.2-0.7,4.9-0.5c1,0.1,1.4-0.5,1.7-1.2c0.4-0.9,0.6-2,0.6-3c0-0.7,0.2-0.9,0.9-0.7c2.8,0.7,3.9,1.9,4,4.7
			c0,0.7,0.2,0.7,0.8,0.6c2.3-0.4,3.6,0.3,4.5,2.4c1,2.2,0.6,4-1.3,5.4c-1.7,1.3-2,2.5-0.8,4.1c2.8,3.6,2.8,7.4,1.4,11.4
			C119.4,64.1,119.1,64.6,118.8,65.1z M97.4,63.3c-0.5-1.9-0.2-3.8,0.4-5.6c0.3-1.1,0.5-2.1-0.3-3c-0.4-0.5-0.5-1.2-0.5-1.8
			c0-0.7-0.4-0.9-1-0.8c-2.3,0.5-4.2-0.4-5.8-2.1c-0.5-0.5-1.1-0.7-1.8-0.6c-2.6,0.2-5.2,0.2-7.8-0.2c-2.3-0.4-4.5-1.4-6.7-2.2
			c-0.9-0.3-1.5-0.2-2.2,0.4c-0.8,0.8-1.7,1.6-2.6,2.2C64,53.4,57.6,51,56.3,44.8c-0.1-0.4-0.1-0.9-0.1-1.4c0-0.5-0.2-0.6-0.7-0.5
			c-2.5,0.6-4.5,1.7-6.3,3.5c-1.4,1.4-1.2,3.7-0.5,5.1c0.4,0.8,0.6,1.5,0.6,2.3c0,5.8,2.1,10.9,6,15.2c1.9,2.2,4.3,3.6,7.1,4.5
			c0.3,0.1,0.7,0.3,0.8,0c0.2-0.4-0.2-0.5-0.5-0.7C53.4,67.5,52,60.3,52.1,52.8c0-0.5,0.1-1.2,0.8-1.2c0.7,0.1,0.7,0.7,0.7,1.3
			c0.1,1.3,0.2,2.7,0.2,4c0.1,5,1.9,9.1,5.9,12.2c1.1,0.9,2.2,1.8,3.2,2.7c1,0.9,2.1,1.2,3.4,1c3.2-0.3,6.2,0.5,9,1.9
			c0,0.1,0,0.2-0.1,0.3c-2.5,3.4-9.2,4.1-12.4,1.3c-0.2-0.2-0.5-0.3-0.8-0.4c-2-0.7-3.9-1.5-5.6-2.8c-0.7-0.5-1.2-0.4-1.7,0.3
			c-0.6,1.1-1.2,2.1-1.9,3.1c-0.9,1.3-1.2,2.7-1,4.2c0.3,2.9,1.8,5.4,3.5,7.8c0.4,0.6,0.9,1.1,1.7,0.8s0.8-1,0.7-1.7
			c-0.1-1.3-0.3-2.7-0.4-4c-0.1-1.1-0.1-2.3,0.6-3.5c0.4,0.6,0.7,1.1,1.1,1.6c0.3,0.5,0.7,1,1.1,1.4c1.1,1.3,1.6,1.4,3,0.5
			c1.3-0.8,2.5-0.9,3.7,0c0.7,0.5,1.3,0.4,2,0c1.2-0.8,2.6-1.4,3.9-2.1c0.5-0.3,0.9-0.4,1.5-0.2c2.5,0.8,4.4-0.1,5.5-2.3
			c0.3-0.6,0.7-1.3,1-1.9c0.4-0.8,0.9-1.3,1.9-1.1c0.6,0.1,1.1-0.2,1.6-0.6c1.1-0.9,2.1-1.8,3.4-2.4s3.4-0.5,4.2,0.3
			c1.1,1.2,1.1,2.6,0.6,4c-0.3,0.7-0.6,1.5-1.1,2.1c-2.3,3.3-1.8,6.7-0.4,10.1c0.4,1,1,1.9,2.3,1.6c1.3-0.2,1.5-1.3,1.5-2.3
			c-0.2-5.6,2.6-9.8,6.6-13.4c0.6-0.6,1.3-1.1,1.8-1.8c1.6-2.1,1.2-4.4-1.2-5.6c-1.5-0.7-2.7-1.8-3.8-3.1
			C98,64.5,97.7,63.9,97.4,63.3z M100,47.2c0.1,1,0.1,1.9,0.3,2.7c0.1,0.7-0.1,1.7,0.6,2.1c1.6,1,1.3,2.1,0.7,3.5
			c-0.3,0.7-0.5,1.5-0.8,2.3c-0.7,1.8-0.5,3.6,0.6,5.1c1.5,2.2,3.6,3.4,6.1,3.6c6.6,0.5,9.8-3.4,10.5-9.4c0.2-1.3-0.2-2.4-0.9-3.5
			c-0.6-0.9-1.3-1.9-1.8-2.9c-1.1-2.2-0.8-2.8,1.6-3.1c0.8-0.1,1.4-0.5,0.9-1.3c-0.4-0.7-0.3-1.2,0.2-1.7c0.4-0.4,0.5-0.9,0.2-1.4
			c-0.3-0.6-0.9-0.6-1.5-0.5c-0.9,0.1-1.7,0.7-2.6,1c-0.4,0.2-0.8,0.3-1.3,0c-4.4-2.8-8.7-2-12.7,0.8c-0.5,0.4-1,0.5-1.6,0.5
			c-1.3-0.1-2.6-0.1-3.9-0.2c-1-0.1-1.5,0.6-1.8,1.3c-0.3,0.6-0.2,1.2,0.2,1.7c0.6,0.7,1.2,0,1.8-0.2c0.6-0.2,0.9-0.2,0.9,0.5
			c0,1.3,0.8,1.1,1.6,0.9C98.3,48.8,99,47.9,100,47.2z M111.9,37.5c0,1.2-0.1,2.2-0.5,3.2c-0.2,0.4-0.1,0.6,0.2,0.8
			c1,0.6,1.5,0.4,1.9-0.7C113.9,39.4,113.4,38.3,111.9,37.5z M95.9,39.2c0.4,1.3,0.8,2.5,0.9,3.9c0.7-0.2,1.3-0.5,2-0.7
			c0.6-0.2,0.6-0.4,0.2-0.9C98.2,40.5,97.3,39.6,95.9,39.2z"/>
		<path class="st2" d="M32,31.2c-0.6,0-1.5-0.2-2-1.2c-0.5-1,0.1-1.7,0.7-2.4c0.7-0.7,1-1.5,0.9-2.5c-0.1-4.4,0.3-8.7,0.4-13
			c0-1.2,0.1-2.4-0.3-3.5c-0.3-1,0.2-1.4,1.1-1.5c1.5-0.2,2.8,0.3,4.1,1.1c0.7,0.4,0.7,1,0.1,1.6c-0.3,0.3-0.6,0.6-0.9,0.9
			c-1.2,2.1-0.4,3.8,1.9,4.2c2.3,0.3,4.5,0.8,6.7,1.4c1.4,0.4,2.8,1,3.9,1.9c1.8,1.4,2,3,0.7,4.8c-1.5,2-3.6,3.3-5.9,4.1
			c-1.9,0.7-3.7,1.3-5.7,1.6c-1,0.2-1.9,0.6-2.6,1.4C34.4,30.9,33.4,31.2,32,31.2z M39.6,26.1c2.2,0.2,4.3-0.8,6-2.5
			c0.7-0.7,1.4-1.5,1-2.7c-0.4-1.1-1.4-1.2-2.4-1.4c-1.8-0.3-3.7-0.2-5.5-0.7c-1-0.2-1.7,0.2-2.1,1.1c-0.2,0.5-0.5,1.1-0.7,1.6
			C34.8,25.1,35.6,26.1,39.6,26.1z"/>
		<path class="st1" d="M70.8,29.5c-2,0-4-0.2-5.9-1.1c-2.5-1.2-3.3-3.3-2.4-5.9c0.9-2.4,2.5-4.2,4.8-5.3c5.5-2.5,10.9-2.3,16.2,0.4
			c3.2,1.7,3.6,4.7,0.9,7.2c-2.6,2.5-6,3.5-9.4,4.2C73.6,29.4,72.2,29.4,70.8,29.5z M73.6,26.8c2.5-0.1,4.8-0.6,6.7-2.3
			c1.9-1.8,1.5-4.6-1-5.5c-3.6-1.3-7-0.8-10.1,1.2c-0.7,0.4-1.2,1.1-1.6,1.8c-1,1.7-0.6,3.1,1.2,3.9C70.2,26.5,71.9,26.7,73.6,26.8z
			"/>
		<path class="st1" d="M141.4,22.9c-1.9-0.2-3.8-0.4-5.7-0.6c-0.4,0-0.8-0.1-1.3-0.1c-1.7,0-2.5,0.4-2.6,1.3
			c-0.1,1.1,0.5,1.8,2.2,2.1c2.3,0.4,4.6,0.7,6.9,0.8c0.9,0,1.8-0.1,2.7-0.6c0.8-0.5,1.5-0.6,2,0.4c0.6,1,0.5,1.9-0.4,2.6
			c-1.2,0.9-2.6,1-4,1c-4-0.2-7.8-1.4-11.1-3.7c-0.3-0.2-0.5-0.4-0.8-0.7c-2.6-2.4-2.4-4.4,0.5-6.3c3.1-2,6.7-2.8,10.4-2.8
			c1.9,0,3.6,0.8,5,2.2c1.5,1.5,1.1,3.3-1,4C143.3,22.8,142.3,22.8,141.4,22.9z M140.2,20.9c0.5,0,0.7,0,0.9,0
			c0.8-0.1,1.6-0.3,1.7-1.2c0.1-0.9-0.6-1.3-1.3-1.5c-1.9-0.6-3.7-0.6-5.6,0.2c-0.6,0.2-1,0.6-0.9,1.3c0.1,0.7,0.7,1,1.3,1
			C137.8,20.7,139.2,20.8,140.2,20.9z"/>
		<path class="st2" d="M99.6,15.8c2.6,0.1,4.5,1,5.3,3.7c0.3,1,0.8,1.9,1.5,2.8c1,1.3,2.1,1.4,3.3,0.2c0.7-0.8,1.2-1.7,1.8-2.6
			c0.4-0.7,0.8-1.5,1.3-2.2c0.4-0.7,0.9-1.2,1.5-1.7c1.1-0.8,2.7-1,3.2-0.4c0.8,1.2-0.1,2.1-0.8,2.9c-2.6,2.8-4.8,5.9-6.6,9.3
			c-0.1,0.3-0.3,0.5-0.5,0.7c-2.4,2.5-3.3,1.9-4.7-0.1c-1.5-2.1-2.6-4.5-3.9-6.7c-0.7-1.3-1.4-2.6-2.5-3.6c-0.4-0.4-0.9-0.8-0.6-1.4
			C98.2,16,98.9,15.7,99.6,15.8z"/>
		<path class="st1" d="M135.4,13.9c-1,0-1.7,0-2.4,0c-0.3,0-0.7,0.1-0.8-0.4c-0.1-0.4,0.3-0.6,0.6-0.8c1.2-0.8,2.6-1.4,4-1.6
			c2.6-0.3,5.2-1.1,7.9-1.1c0.6,0,1.3-0.2,1.5,0.5c0.2,0.7-0.3,1.1-0.7,1.5c-0.9,0.9-2,1.4-3.3,1.3
			C139.8,13.2,137.4,14.1,135.4,13.9z"/>
		<path class="st3" d="M90.2,62.8c0,0.6,0,1.6-0.3,2.5c-0.8,3.3-3.6,5-6.9,4.1c-2.2-0.6-4.3-1.5-6.6-1.3c-1.8,0.2-3.5,0.7-5.2,1.1
			c-2.3,0.5-4.1-0.4-5.4-2.1c-1.2-1.7-1-3.5-0.1-5.4c0.8-1.7,2.1-2.6,3.9-2.8c0.7-0.1,1.4-0.3,2.1-0.2c3.3,0.2,6.3-0.6,9.2-2.2
			c1.2-0.7,2.5-0.9,3.9-1c2.7-0.1,4.4,1.2,5,3.8C90.1,60.4,90.2,61.4,90.2,62.8z"/>
		<path class="st1" d="M111.1,48.9c-0.1,0.7-0.2,1.5-1.1,1.5c-0.8,0-1-0.7-1-1.4c0-0.7,0.1-1.5,1-1.5
			C110.9,47.5,111,48.3,111.1,48.9z"/>
		<path class="st1" d="M104.4,49.1c-0.1,0.7-0.2,1.4-1,1.3c-0.9,0-1-0.8-1-1.5c0-0.6,0.2-1.4,1-1.3
			C104.2,47.6,104.3,48.4,104.4,49.1z"/>
		<path class="st1" d="M113.4,61.1c0,0.6-0.2,1-0.7,1.1c-0.6,0.1-0.8-0.4-0.9-0.9c-0.1-0.6,0.3-1.2,0.8-1.3
			C113.1,60,113.2,60.7,113.4,61.1z"/>
		<path class="st1" d="M108.2,62.6c0,0.6-0.2,1-0.7,1c-0.6,0.1-0.8-0.4-0.9-0.9c0-0.6,0.3-1.2,0.8-1.3
			C107.9,61.4,108.1,62.1,108.2,62.6z"/>
		<g>
			<path d="M145.8,32.9c0-0.2,0-0.4,0.1-0.6c0.1-0.2,0.1-0.4,0.2-0.5c0.1-0.2,0.2-0.3,0.4-0.5c0.1-0.1,0.3-0.2,0.5-0.4
				c0.2-0.1,0.3-0.2,0.5-0.2c0.2-0.1,0.4-0.1,0.6-0.1c0.2,0,0.4,0,0.6,0.1c0.2,0.1,0.4,0.1,0.5,0.2c0.2,0.1,0.3,0.2,0.5,0.4
				s0.2,0.3,0.4,0.5c0.1,0.2,0.2,0.3,0.2,0.5s0.1,0.4,0.1,0.6c0,0.2,0,0.4-0.1,0.6c-0.1,0.2-0.1,0.4-0.2,0.5
				c-0.1,0.2-0.2,0.3-0.4,0.4c-0.1,0.1-0.3,0.2-0.5,0.4c-0.2,0.1-0.3,0.2-0.5,0.2c-0.2,0.1-0.4,0.1-0.6,0.1c-0.2,0-0.4,0-0.6-0.1
				c-0.2-0.1-0.4-0.1-0.5-0.2c-0.2-0.1-0.3-0.2-0.5-0.4c-0.1-0.1-0.2-0.3-0.4-0.4c-0.1-0.2-0.2-0.3-0.2-0.5
				C145.8,33.3,145.8,33.1,145.8,32.9z M146.1,32.9c0,0.2,0,0.4,0.1,0.5c0.1,0.2,0.1,0.3,0.2,0.5c0.1,0.1,0.2,0.3,0.3,0.4
				c0.1,0.1,0.2,0.2,0.4,0.3s0.3,0.1,0.5,0.2c0.2,0.1,0.3,0.1,0.5,0.1c0.3,0,0.5-0.1,0.8-0.2c0.2-0.1,0.4-0.2,0.6-0.4
				c0.2-0.2,0.3-0.4,0.4-0.6c0.1-0.2,0.2-0.5,0.2-0.8c0-0.2,0-0.4-0.1-0.5c-0.1-0.2-0.1-0.3-0.2-0.5c-0.1-0.1-0.2-0.3-0.3-0.4
				c-0.1-0.1-0.2-0.2-0.4-0.3c-0.1-0.1-0.3-0.1-0.5-0.2c-0.2-0.1-0.3-0.1-0.5-0.1c-0.3,0-0.5,0.1-0.8,0.2c-0.2,0.1-0.4,0.2-0.6,0.4
				c-0.2,0.2-0.3,0.4-0.4,0.6C146.1,32.4,146.1,32.6,146.1,32.9z M147.6,33.2v1.1h-0.5v-2.7h0.9c0.4,0,0.6,0.1,0.8,0.2
				c0.2,0.1,0.2,0.3,0.2,0.6c0,0.2-0.1,0.4-0.2,0.5s-0.3,0.2-0.5,0.3c0,0,0.1,0.1,0.1,0.1c0,0,0.1,0.1,0.1,0.1l0.7,1h-0.5
				c-0.1,0-0.1,0-0.1-0.1l-0.6-0.9c0,0,0-0.1-0.1-0.1c0,0-0.1,0-0.1,0L147.6,33.2L147.6,33.2z M147.6,32.8h0.4c0.1,0,0.2,0,0.3,0
				c0.1,0,0.1-0.1,0.2-0.1c0.1,0,0.1-0.1,0.1-0.1c0-0.1,0-0.1,0-0.2c0-0.1,0-0.1,0-0.2c0-0.1-0.1-0.1-0.1-0.1c0,0-0.1-0.1-0.2-0.1
				c-0.1,0-0.2,0-0.3,0h-0.4V32.8z"/>
		</g>
	</g>
</g>
</svg>
