<?xml version="1.0" encoding="utf-8"?>
<!-- Generator: Adobe Illustrator 24.0.0, SVG Export Plug-In . SVG Version: 6.00 Build 0)  -->
<svg version="1.1" id="Capa_1" xmlns="http://www.w3.org/2000/svg" xmlns:xlink="http://www.w3.org/1999/xlink" x="0px" y="0px"
	 viewBox="0 0 800 800" style="enable-background:new 0 0 800 800;" xml:space="preserve">
<style type="text/css">
	.st0{fill:#E1A340;}
	.st1{fill:#060606;}
	.st2{fill:#050505;}
	.st3{fill:#020202;}
	.st4{fill:#5FDDF2;}
</style>
<g>
	<g>
		<path class="st0" d="M562,391.2c1.7-2.9,3.4-5.7,5.2-8.6c0.7,0.1,1.4,0.2,2.1,0.4c3.7,0.8,7.5,2.5,11.1,2.1c4.5-0.5,3.5-6,5.7-9
			c3-4,6.6-6,11.2-7.9c10-4.1,20.3-4.6,31.2-4.3c1.3,1.6-0.7,4.5,1,7.3c2.7-1.3,5.3-3,8.2-4s6.7-5.9,8.3,1.7c0.5,2.3,3.3,0.6,5,0.2
			c7.7-2,15.4-2.8,23.3-2.2c1.5,0.1,3.5-0.6,4.3,2.3c-8-0.9-15.4,0.4-24.2,4.9c12,5.2,23.7-2.6,34.6,3.8c-8,0-15.1-0.1-22,1.8
			c-1.3,0.4-3.3,0.4-3.1,2.2c0.1,1.4,1.7,2.2,3.2,2.3c4.7,0.1,9.5,0,16.3,0c-8.9,4.1-16.8,3.3-24,5c-4.1,1-9.3-0.3-9.8,7.3
			c-0.3,4.1-6.6,4.2-10.4,3.9c-4.5-0.4-7.4,0.1-9.8,4.4c-2.1,3.9-5.6,5.8-9.8,1.9c-2.7-2.5-6.2-2-9.5-1.5c-8,1.1-14.9-0.7-21.1-6.1
			C581.3,392.4,570.9,394.1,562,391.2z M607.5,370.6c-11.5,0.4-15.9,3.5-17.1,11.2c-0.4,2.8,0.2,4.3,3.2,3.1
			C600.6,382.4,605.9,378.4,607.5,370.6z M626.6,390.5c6.4,7.7,11.4,9.8,16.7,6.7c1.7-1,4.2-1.8,1.7-4.7
			C641,387.9,631.8,386.8,626.6,390.5z M624.9,402.7c-2.4-9.4-6.6-13.3-13.4-13.1c-3.9,0.1-5.5,1.2-2.8,4.9
			C612.8,400,617.9,403.1,624.9,402.7z M622.9,369.1c-7.4,1.2-11,6.7-15.3,11.5c-1,1.1-1.9,2.4-1,3.8s2.5,0.9,3.9,0.7
			C616.9,384.1,621.1,378.9,622.9,369.1z M641.5,368.8c-6.6,3.4-13.1,5.4-15.7,13.1C639.1,380.9,640,380.2,641.5,368.8z
			 M652.3,387.4c2.7-0.9,6.7-1.4,6.5-5.1c-0.2-3.4-4.2-4.6-7.1-4.6c-2.8-0.1-6.2,2.5-6.2,4.7C645.3,385.7,648.9,386.8,652.3,387.4z
			 M595.7,392.6c-1.1,0.4-3.2-0.8-3.9,1.4c-0.6,1.8,0.8,3.1,2,4.3c2.8,2.6,5.8,5.1,10.1,3.7c1.2-0.4,2.4-1,1.6-2.5
			C603.4,395.9,600.5,393.2,595.7,392.6z"/>
		<path class="st0" d="M446.4,391.1c-10.5,0.6-19.7-3.8-29.2-7.4c-2.5-0.9-4.5-3-3.4-6.1c1.2-3.2,4.2-2.8,6.7-2.1
			c7,1.8,13.7,4.9,21.1,5.3C443.2,384.3,444.8,387.7,446.4,391.1z"/>
	</g>
	<g>
		<path class="st1" d="M562,391.2c-8.6,10.5-20.1,17.3-31.8,23.6c-3.6,2-4.9,3.7-3,7.7c2.4,4.9,4,10.2,6.4,15.1
			c1.6,3.3,1.3,4.7-2.6,5c-6,0.5-11.8,0.2-14.3,8.3c-1.3,4.3-6.8,2.7-10.4,0c-1.6-1.3-2.2-4.1-4.9-3.5c-8.1,1.8-9-2.6-8.2-9
			c0.2-1.9,0.9-5.1-1.8-5.5c-3-0.5-3.4,2.7-3.9,5c-2.4,9.7-7,18.3-13.8,25.4C458.6,479,452.1,498.1,449,519
			c-0.6,4.2-1.4,8.4-2.2,12.6c-2.8,13.9-9.6,20.5-23.1,22.1c-13.6,1.7-26.2-4.4-31.4-16c-4.9-11-9.3-22.3-13.6-33.6
			c-2.8-7.5-7.6-10.5-15.7-10.2c-15.4,0.6-30.9,0.2-46.2-2.9c-3.3-0.7-6.1,0.2-8.8,1.9c-6.8,4.4-13.5,8.8-19.2,14.7
			c-3.4,3.6-6.7,8.2-11.6,9.1c-8.6,1.6-6.5,5.1-3,10.1c2.7,3.9,4.9,8.2,6.4,12.6c2.6,7.4-1.7,12.8-9.4,12.8c-7.6,0-13.7-3-18.6-8.9
			c-7.7-9.4-14.1-19.7-20.4-30.1c-1.4-2.3-2.3-5.1-5.7-7c-1.2,4.6-0.2,8.4,0.2,12.3c0.5,4.5,1.3,8.9,1.5,13.4
			c0.4,9.4-2.6,11.9-12,10.4c-5.9-0.9-10.6-4.1-14.1-8.8c-14.8-19.8-24.9-42-33.7-64.9c-2.4-6.3-1.6-12.5,2.1-18.4
			c5.1-8,10.3-16,14.1-24.7c2.6-6.1,2.5-11.6-3-16.1c-27.6-22.7-32.4-53.3-30.5-86.4c0.2-3.7-0.3-6.7-2.4-10
			c-3.5-5.4-4-11.3-1.5-17.7c10-25.7,30-38.1,56.1-42.8c20-3.6,39.2,1.2,58.3,6.3c26.6,7.1,51.9,18.3,78.4,25.6
			c16.7,4.6,33.6,5.9,50.8,5.5c3.7-0.1,5.3-1.1,6.2-4.8c2.8-11.7,8.8-20.6,21.9-22c3.8-0.4,3.1-2.8,3-5c-0.2-9.8-4.6-18.2-9.7-26.7
			c19.5-3.5,35.9,0.6,48,16.4c3.6,4.8,7.3,5.9,12.8,4.1c8.9-2.9,18-4.2,27.4-3c5.4,0.7,7.8-2.8,9.6-6.8c2.4-5.3,3.1-11,3.1-16.7
			c0-3.8,1-4.9,5-3.9c15.5,3.9,21.7,10.8,22.4,26.7c0.2,4.1,1.4,3.8,4.6,3.2c13-2.5,20.4,1.6,25.6,13.5c5.5,12.6,3.2,22.3-7.3,30.4
			c-9.4,7.3-11.5,13.9-4.3,23.2c15.7,20.1,15.8,41.4,7.7,64C565.4,385.5,563.7,388.3,562,391.2z M441.6,380.9
			c-2.8-10.8-0.9-21.3,2.3-31.6c1.9-6.1,2.9-11.6-1.9-17.1c-2.3-2.6-2.8-6.5-2.8-10.1c0-3.9-2-5-5.5-4.3
			c-13.2,2.7-23.8-2.4-32.7-11.6c-3-3-6.1-3.8-10.1-3.5c-14.7,1.2-29.4,1.3-44.1-1.3c-13.2-2.4-25.3-8-37.8-12.4
			c-4.8-1.7-8.5-1.3-12.3,2.2c-4.7,4.4-9.4,8.8-14.6,12.6c-29,21.5-65,8-72.4-26.9c-0.5-2.5-0.8-5.2-0.8-7.8c0-3-1.1-3.6-3.9-2.9
			c-13.8,3.2-25.5,9.8-35.6,19.7c-8,7.9-6.7,21.1-3,28.7c2,4.3,3.2,8.3,3.2,12.8c0,32.9,12.1,61.2,33.7,85.6
			c10.8,12.2,24.3,20.4,39.9,25.1c1.5,0.4,3.7,1.6,4.5-0.2c1.1-2.3-1.4-3-3-3.9c-51.3-29.1-59-69.8-58.3-112c0-3,0.4-6.9,4.6-6.7
			c4.1,0.3,3.9,4.1,4.1,7.2c0.5,7.6,1.1,15.2,1.3,22.8c0.8,27.9,10.9,51.3,33.2,68.8c6.2,4.8,12.2,9.9,17.9,15.2
			c5.6,5.2,11.8,6.5,19.4,5.9c17.9-1.5,34.8,2.6,50.9,10.6c-0.2,0.8-0.2,1.3-0.5,1.7c-14.3,18.9-51.8,22.9-69.6,7.5
			c-1.2-1-2.8-1.8-4.3-2.3c-11.3-3.7-22.2-8.4-31.8-15.7c-3.8-2.9-6.8-2.5-9.3,1.9c-3.4,6-7,11.9-10.8,17.6
			c-5,7.3-6.5,15.2-5.5,23.7c1.9,16.6,10.2,30.4,19.5,43.7c2.1,3.1,5.1,6.2,9.5,4.5s4.5-5.8,4.2-9.7c-0.6-7.6-1.9-15.1-2.3-22.7
			c-0.3-6.4-0.5-13.1,3.5-19.6c2.3,3.5,4.1,6.2,6,8.9s3.8,5.5,6,8c6.2,7.3,8.8,8,16.9,2.7c7.3-4.7,14-5.2,21.1-0.2
			c3.7,2.6,7.2,2.4,11.2-0.1c7-4.4,14.5-8.1,21.8-12.1c2.8-1.5,5.3-2.3,8.7-1.2c13.9,4.4,24.7-0.3,31.1-13c1.8-3.6,3.9-7.1,5.6-10.7
			c2.1-4.6,5.2-7.1,10.6-6.1c3.6,0.7,6.3-1.2,9-3.4c6-5,12-10.2,19.1-13.7s19.4-2.7,23.7,1.8c6.3,6.6,6.4,14.5,3.2,22.6
			c-1.7,4.2-3.5,8.4-6,12.1c-13,18.6-10.2,37.6-2.3,57c2.4,5.9,5.8,10.6,13.2,9.2c7.3-1.4,8.4-7.2,8.2-13.1
			c-1-31.7,14.7-55.1,37-75.4c3.5-3.2,7.3-6.2,10.2-9.9c9.2-11.6,6.6-25-6.7-31.4c-8.6-4.2-15.4-10-21.4-17.3
			C444.8,387.7,443.2,384.3,441.6,380.9z M456.2,290.6c0.6,5.7,0.8,10.6,1.8,15.4c0.8,4.1-0.8,9.6,3.1,12c8.8,5.4,7.3,12,4.1,19.6
			c-1.8,4.1-2.6,8.6-4.3,12.8c-4.2,10.4-2.6,20,3.5,29c8.2,12.2,20,19,34.4,20.2c37.2,2.9,55-19.3,59.1-52.9
			c0.9-7.2-1.3-13.6-5.3-19.5c-3.5-5.3-7.2-10.7-10.1-16.3c-6.4-12.4-4.6-15.7,8.9-17.7c4.4-0.7,8-2.7,5.2-7.4c-2.3-4-1.7-6.5,1-9.4
			c2.1-2.3,2.9-5.1,1.3-7.9c-1.8-3.1-5-3.5-8.2-3c-5.3,0.7-9.7,3.7-14.5,5.8c-2.5,1.1-4.6,1.8-7.3,0.1c-25-15.7-48.8-11.5-71.7,4.7
			c-2.9,2.1-5.7,3-9.2,2.7c-7.3-0.5-14.7-0.7-22.1-1.1c-5.4-0.3-8.4,3.1-10.4,7.3c-1.5,3.1-1.3,6.9,1.1,9.4c3.6,3.7,7,0.2,10.2-1.2
			c3.2-1.4,5.1-1,4.9,2.8c-0.2,7.6,4.4,6.3,9.1,5.1C446.6,299.2,450.4,294.4,456.2,290.6z M523.2,235.8c0.2,6.7-0.5,12.5-3,18
			c-1,2.2-0.6,3.3,1.4,4.5c5.5,3.3,8.7,2.1,10.5-4.1C534.4,246.3,531.7,240.3,523.2,235.8z M433,245.2c2.2,7.4,4.3,14.3,5.1,21.9
			c4-1.4,7.5-2.8,11.1-3.9c3.5-1.1,3.3-2.5,1.2-5C445.7,252.8,440.8,247.7,433,245.2z"/>
		<path class="st2" d="M73,200.4c-3.5-0.1-8.6-1.2-11.1-6.8c-2.6-5.6,0.3-9.7,3.9-13.4c4-4,5.4-8.7,5.3-14.2
			c-0.3-24.5,1.5-48.9,2.3-73.4c0.2-6.7,0.3-13.3-1.8-19.7c-1.9-5.6,1-8.1,6.1-8.7c8.4-1,16,1.6,22.9,6.2c3.7,2.5,4,5.6,0.7,8.9
			c-1.7,1.7-3.6,3.2-4.8,5.2c-7,11.7-2.4,21.5,10.9,23.4c12.7,1.9,25.3,4.3,37.6,7.9c8,2.3,15.6,5.8,22.2,10.9
			c10.2,7.9,11.5,16.7,3.8,27.1c-8.5,11.4-20.3,18.4-33.5,23.2c-10.5,3.8-21.1,7.2-32.2,8.9c-5.8,0.9-10.9,3.1-14.7,7.8
			C86.7,198.8,81.2,200.5,73,200.4z M115.9,171.4c12.2,0.9,24-4.4,33.9-14.2c4.1-4.1,7.8-8.7,5.4-15.1c-2.3-6.1-7.9-7-13.3-7.8
			c-10.3-1.5-20.8-1.2-31-3.9c-5.5-1.4-9.8,1-12.1,6.3c-1.3,3-2.8,6-3.7,9.2C89,166,93.1,171.5,115.9,171.4z"/>
		<path class="st1" d="M291.7,190.6c-11.5-0.2-22.8-1-33.3-6.2c-13.9-6.8-18.6-18.7-13.6-33.2c4.8-13.7,13.8-23.7,26.9-29.8
			c30.7-14.3,61.4-12.9,91.2,2.4c18.2,9.3,20.2,26.5,5.3,40.8c-14.8,14.3-33.6,19.9-53.1,23.8C307.4,190,299.6,190.4,291.7,190.6z
			 M307.2,175.5c13.8-0.8,27.1-3.1,37.5-13.1c10.8-10.4,8.2-25.9-5.8-31.1c-20-7.5-39.2-4.5-57.1,7c-3.8,2.4-6.8,6-9.1,9.9
			c-5.9,9.7-3.6,17.2,6.7,21.9C288.3,174,297.8,174.7,307.2,175.5z"/>
		<path class="st1" d="M689,153.4c-10.6-1.1-21.2-2.2-31.9-3.3c-2.4-0.2-4.7-0.4-7.1-0.4c-9.8-0.2-14,2-14.7,7.6
			c-0.8,6.2,2.9,10.3,12.3,11.9c12.9,2.1,25.8,4,38.9,4.3c5.2,0.1,10.4-0.4,15.1-3.3c4.4-2.7,8.4-3.2,11.5,2
			c3.3,5.5,2.7,10.9-2.3,14.5c-6.7,4.8-14.6,5.8-22.5,5.4c-22.8-0.9-43.7-7.9-62.5-21c-1.6-1.1-3-2.4-4.4-3.7
			c-14.4-13.5-13.5-24.8,3-35.5c17.7-11.4,37.5-15.6,58.3-15.7c10.9,0,20.2,4.6,28,12.3c8.7,8.6,6.4,18.5-5.4,22.7
			C700,153.1,694.5,153.1,689,153.4z M682.6,142.5c2.9,0,4.1,0.1,5.3,0c4.4-0.6,8.8-1.5,9.3-7c0.4-5-3.2-7.1-7.3-8.3
			c-10.5-3.2-21.1-3.3-31.3,1.3c-3.1,1.4-5.9,3.5-5.1,7.6c0.8,3.8,3.7,5.4,7.4,5.4C668.8,141.2,676.6,141.7,682.6,142.5z"/>
		<path class="st2" d="M454,113.6c14.5,0.5,25.3,5.8,29.7,20.7c1.7,5.6,4.7,10.9,8.2,15.7c5.4,7.5,12.1,7.9,18.4,1.1
			c4.1-4.4,7-9.6,10-14.7c2.4-4.1,4.7-8.2,7.2-12.3c2.3-3.7,5.1-6.9,8.6-9.4c6-4.3,15.4-5.9,17.8-2.4c4.5,6.7-0.4,12.1-4.3,16.4
			c-14.4,16-26.9,33.2-36.9,52.3c-0.8,1.5-1.7,2.9-2.8,4.1c-13.3,13.8-18.5,10.6-26.7-0.5c-8.5-11.7-14.4-25.1-21.7-37.6
			c-4.2-7.2-7.8-14.7-14-20.5c-2.1-2-5.3-4.3-3.5-7.8C446,114.9,449.8,113.2,454,113.6z"/>
		<path class="st1" d="M655.5,103.1c-5.7,0-9.5,0.1-13.3-0.1c-1.7-0.1-4.2,0.5-4.7-2.1c-0.4-2.2,1.5-3.3,3.1-4.3
			c6.9-4.4,14.5-7.9,22.3-8.9c14.8-1.8,29.3-6.3,44.4-6.2c3.2,0,7.2-1.3,8.6,2.9c1.2,3.7-1.6,6.2-4,8.5c-5.2,4.9-11,8.1-18.5,7.4
			C680,99.1,667,103.7,655.5,103.1z"/>
		<path class="st3" d="M400.8,378.2c-0.1,3.4-0.2,8.9-1.6,14.2c-4.6,18.7-20.4,28.4-39,23.3c-12.3-3.4-24.2-8.6-37.4-7.2
			c-10,1.1-19.5,4.1-29.2,6.3c-13.2,2.9-23.2-2-30.5-12c-7-9.5-5.4-19.9-0.3-30.3c4.7-9.5,12-14.4,22.1-15.6c4-0.5,8-1.5,12-1.3
			c18.5,1,35.7-3.1,51.8-12.4c6.7-3.8,14.2-5.3,21.9-5.6c15.1-0.5,24.7,6.7,28.4,21.5C400.5,364.8,400.8,370.4,400.8,378.2z"/>
		<path class="st1" d="M518.8,300.1c-0.7,3.7-1.1,8.2-6,8.2c-4.4,0-5.4-3.9-5.5-7.7c-0.1-4.1,0.8-8.2,5.6-8.3
			C517.4,292.2,518,296.5,518.8,300.1z"/>
		<path class="st1" d="M480.7,300.9c-0.4,3.7-1.2,7.7-5.7,7.6c-4.8-0.1-5.8-4.4-5.7-8.3c0.1-3.6,1.2-7.7,5.7-7.6
			C479.9,292.7,480.3,297,480.7,300.9z"/>
		<path class="st1" d="M531.7,368.7c-0.2,3.3-1.3,5.9-4.2,6.3c-3.2,0.4-4.7-2.2-4.9-4.9c-0.3-3.3,1.6-7,4.4-7.3
			C529.7,362.5,530.7,366.6,531.7,368.7z"/>
		<path class="st1" d="M502.1,376.9c-0.1,3.1-0.9,5.6-4.1,5.9c-3.3,0.3-4.6-2.2-4.8-5c-0.2-3.4,1.7-6.9,4.5-7.1
			C500.3,370.5,501.6,374.2,502.1,376.9z"/>
		<g>
			<path d="M713.8,209.8c0-1.2,0.1-2.3,0.4-3.4c0.3-1.1,0.7-2.1,1.3-3c0.5-0.9,1.2-1.8,2-2.6s1.6-1.4,2.6-2c0.9-0.6,1.9-1,3-1.3
				s2.2-0.4,3.4-0.4s2.3,0.1,3.4,0.4c1.1,0.3,2.1,0.7,3,1.3s1.8,1.2,2.6,2s1.4,1.6,2,2.6c0.5,0.9,1,1.9,1.3,3s0.4,2.2,0.4,3.4
				s-0.1,2.3-0.4,3.3c-0.3,1.1-0.7,2.1-1.3,3c-0.5,0.9-1.2,1.8-2,2.5c-0.8,0.8-1.6,1.4-2.6,2c-0.9,0.6-1.9,1-3,1.3s-2.2,0.4-3.4,0.4
				s-2.3-0.1-3.4-0.4c-1.1-0.3-2.1-0.7-3-1.3s-1.8-1.2-2.6-2s-1.4-1.6-2-2.5c-0.5-0.9-1-1.9-1.3-3C714,212.1,713.8,211,713.8,209.8z
				 M715.6,209.8c0,1,0.1,2,0.4,3c0.3,0.9,0.6,1.8,1.1,2.7c0.5,0.8,1,1.6,1.7,2.2c0.7,0.7,1.4,1.2,2.2,1.7s1.7,0.8,2.6,1.1
				c0.9,0.3,1.9,0.4,2.9,0.4c1.5,0,2.9-0.3,4.3-0.9c1.3-0.6,2.5-1.4,3.5-2.4s1.8-2.2,2.3-3.5c0.6-1.3,0.9-2.8,0.9-4.3
				c0-1-0.1-2-0.4-3c-0.3-1-0.6-1.8-1.1-2.7c-0.5-0.8-1-1.6-1.7-2.3s-1.4-1.3-2.2-1.7c-0.8-0.5-1.7-0.8-2.6-1.1
				c-0.9-0.3-1.9-0.4-2.9-0.4c-1.5,0-2.9,0.3-4.3,0.9c-1.3,0.6-2.5,1.4-3.5,2.4s-1.8,2.2-2.3,3.5
				C715.8,206.8,715.6,208.3,715.6,209.8z M724,211.4v6.1h-2.7v-15.4h5c2,0,3.5,0.4,4.4,1.1c1,0.7,1.4,1.8,1.4,3.2
				c0,1.1-0.3,2-0.9,2.8c-0.6,0.8-1.5,1.3-2.8,1.6c0.2,0.1,0.4,0.3,0.5,0.4c0.1,0.2,0.3,0.4,0.4,0.6l3.9,5.8h-2.6
				c-0.4,0-0.7-0.1-0.8-0.4l-3.5-5.2c-0.1-0.1-0.2-0.3-0.4-0.3c-0.1-0.1-0.4-0.1-0.7-0.1H724V211.4z M724,209.4h2
				c0.6,0,1.2-0.1,1.6-0.2c0.4-0.1,0.8-0.3,1.1-0.5s0.5-0.5,0.6-0.8s0.2-0.7,0.2-1.2c0-0.4-0.1-0.8-0.2-1.1
				c-0.1-0.3-0.3-0.6-0.5-0.8s-0.6-0.4-1-0.5s-0.9-0.2-1.5-0.2H724V209.4z"/>
		</g>
	</g>
</g>
<g>
	<path class="st4" d="M293.8,615.9h14.7v53.2h27.3v13.6h-42V615.9z"/>
	<path class="st4" d="M341.1,622.4c0-2.3,0.8-4.2,2.4-5.8s3.5-2.4,5.8-2.4s4.2,0.8,5.8,2.4s2.4,3.5,2.4,5.8s-0.8,4.2-2.4,5.8
		s-3.5,2.4-5.8,2.4s-4.2-0.8-5.8-2.4S341.1,624.7,341.1,622.4z M342.3,636.8h14.2v45.8h-14.2V636.8z"/>
	<path class="st4" d="M414.7,678.8c0,8.7-2.2,15.3-6.6,19.8s-11,6.7-20,6.7c-4.1,0-8.1-0.5-12.1-1.4s-7.6-2.7-10.9-5.3l7.8-11.7
		c2.2,1.8,4.5,3.3,6.9,4.3c2.4,1.1,5.1,1.6,8,1.6c4.3,0,7.5-1.1,9.6-3.2c2-2.1,3.1-4.8,3.1-8.1v-4.4h-0.2c-1.6,2.2-3.7,3.8-6.1,4.7
		s-4.7,1.4-6.8,1.4c-3.4,0-6.5-0.6-9.2-1.7c-2.8-1.2-5.1-2.8-7.1-4.9c-2-2.1-3.5-4.6-4.6-7.5s-1.6-6.1-1.6-9.5c0-3,0.5-6,1.5-8.9
		s2.4-5.4,4.2-7.6c1.8-2.2,4-4,6.6-5.3c2.6-1.4,5.5-2,8.8-2c2,0,3.9,0.2,5.5,0.7c1.7,0.4,3.2,1,4.5,1.7s2.5,1.5,3.4,2.3
		s1.7,1.7,2.3,2.5h0.2v-6h13v41.8L414.7,678.8L414.7,678.8z M379.1,659.5c0,1.5,0.3,2.9,0.8,4.3c0.6,1.4,1.4,2.5,2.4,3.6
		c1,1,2.2,1.9,3.6,2.5s2.8,0.9,4.5,0.9c1.6,0,3-0.3,4.4-0.9c1.4-0.6,2.6-1.5,3.6-2.5s1.8-2.2,2.4-3.6c0.6-1.4,0.8-2.8,0.8-4.3
		s-0.3-2.9-0.8-4.3c-0.6-1.4-1.4-2.5-2.4-3.6c-1-1-2.3-1.9-3.6-2.5c-1.4-0.6-2.9-0.9-4.4-0.9c-1.6,0-3.1,0.3-4.5,0.9
		c-1.4,0.6-2.5,1.5-3.6,2.5c-1,1-1.8,2.2-2.4,3.6C379.3,656.5,379.1,658,379.1,659.5z"/>
	<path class="st4" d="M440.2,611.4v31.7h0.2c0.3-0.9,0.8-1.8,1.6-2.6c0.8-0.9,1.7-1.7,2.7-2.4c1.1-0.7,2.3-1.3,3.8-1.7
		c1.4-0.4,3-0.7,4.7-0.7c3.6,0,6.5,0.6,8.7,1.7c2.2,1.1,3.9,2.6,5.1,4.6s2.1,4.2,2.5,6.9c0.4,2.6,0.7,5.5,0.7,8.6v25.3H456v-22.5
		c0-1.3,0-2.7-0.1-4.1c-0.1-1.4-0.4-2.7-0.8-3.9c-0.5-1.2-1.2-2.2-2.2-2.9c-1-0.8-2.4-1.1-4.2-1.1c-1.8,0-3.3,0.3-4.4,1
		s-2,1.5-2.6,2.6s-1,2.3-1.2,3.7s-0.3,2.8-0.3,4.3v22.8H426v-71.3L440.2,611.4L440.2,611.4z"/>
	<path class="st4" d="M511.4,648.2H499v15.3c0,1.3,0.1,2.4,0.2,3.4s0.4,1.9,0.8,2.7s1.1,1.3,2,1.7s2.1,0.6,3.6,0.6
		c0.8,0,1.7-0.1,3-0.2c1.2-0.2,2.2-0.5,2.8-1.1v11.8c-1.6,0.6-3.2,0.9-4.9,1.1c-1.7,0.2-3.4,0.3-5,0.3c-2.4,0-4.6-0.3-6.6-0.8
		s-3.8-1.3-5.3-2.4c-1.5-1.1-2.7-2.5-3.5-4.3s-1.3-3.9-1.3-6.4v-21.8h-9.1v-11.3h9.1v-13.6H499v13.6h12.5v11.4H511.4z"/>
</g>
</svg>
