<?xml version="1.0" encoding="utf-8"?>
<!-- Generator: Adobe Illustrator 24.0.0, SVG Export Plug-In . SVG Version: 6.00 Build 0)  -->
<svg version="1.1" id="Layer_1" xmlns="http://www.w3.org/2000/svg" xmlns:xlink="http://www.w3.org/1999/xlink" x="0px" y="0px"
	 viewBox="0 0 800 800" style="enable-background:new 0 0 800 800;" xml:space="preserve">
<style type="text/css">
	.st0{fill:#BBA170;}
</style>
<g>
	<g>
		<g>
			<path d="M50.4,432.9c-5.1-2.9-9.9-2.9-15.1-2.9h-7c-5.9,0-6.6-2.2-6.6-4c0-2.2,1.5-3.7,4.4-4.8c3.3-1.5,7.3-1.5,8.4-1.5
				c5.5,0,8.8,1.5,14.3,4.8l1.1,0.7l0.7-1.1l4-5.5l0.7-1.1l-1.1-0.7c-5.9-4.4-13.2-7-20.6-7c-2.9,0-5.9,0.4-8.8,1.1
				c-6.2,2.2-12.9,7-12.9,15.1c0,9.2,7.7,13.6,15.4,13.6H35c7.3,0,9.2,0.4,11.4,1.5c1.8,1.1,2.6,2.6,2.6,4.4c0,5.9-8.4,7.3-13.6,7.3
				c-8.4,0-13.6-1.8-19.1-7l-1.1-0.7l-1.1,0.4l-4.8,4.8l-1.1,1.1l1.1,1.1c7,7,14.7,10.3,25,10.3c5.9,0,11.4-1.1,15.4-3.3
				c5.5-2.9,8.4-7.3,8.4-13.2C57.8,440.6,55.2,435.9,50.4,432.9z"/>
			<path d="M109.6,411.6l-0.4-0.7h-0.7h-7.7H100l-0.4,0.7L78,459.4l-0.7,1.8h2.2h7.7h0.7l0.4-0.7l5.9-12.9h21.7l5.5,12.9l0.4,0.7
				h0.7h7.7h2.2l-0.7-1.8L109.6,411.6z M111,438.4H97.8l6.6-14.7L111,438.4z"/>
			<polygon points="189.6,410.9 188.5,410.9 188.5,412 188.5,444.7 162.1,411.3 161.7,410.9 161,410.9 154,410.9 152.9,410.9 
				152.9,412 152.9,460.1 152.9,461.2 154,461.2 161,461.2 162.5,461.2 162.5,460.1 162.5,427.4 188.9,460.8 189.3,461.2 190,461.2 
				197,461.2 198.1,461.2 198.1,460.1 198.1,412 198.1,410.9 197,410.9 			"/>
			<polygon points="266,419 266,412 266,410.9 264.9,410.9 224.2,410.9 222.7,410.9 222.7,412 222.7,419 222.7,420.4 224.2,420.4 
				240,420.4 240,460.1 240,461.2 241.1,461.2 248,461.2 249.1,461.2 249.1,460.1 249.1,420.4 264.9,420.4 266,420.4 			"/>
			<path d="M515.1,445.8l-1.1-1.1l-1.1,1.1c-5.5,5.5-9.9,7.3-16.9,7.3c-9.5,0-19.5-5.5-19.5-16.9c0-9.9,7.7-17.3,18-17.3
				c5.9,0,11,2.2,16.9,7l0.7,0.7l0.7-0.7l5.1-4.4l1.1-1.1l-1.1-1.1c-7-7-15.4-10.3-24.6-10.3c-15.8,0-27.5,11.4-27.5,26.8
				c0,15.8,12.1,27.2,29,27.2c9.9,0,18.4-3.7,23.9-10.3l0.7-1.1l-0.7-0.7L515.1,445.8z"/>
			<polygon points="548.9,452 548.9,411.6 548.9,410.5 547.4,410.5 540.4,410.5 538.9,410.5 538.9,411.6 538.9,460.8 538.9,461.9 
				540.4,461.9 577.1,461.9 578.6,461.9 578.6,460.8 578.6,453.5 578.6,452 577.1,452 			"/>
			<path d="M716.7,426.3c0-9.5-6.6-15.8-16.9-15.8h-29h-1.5v1.5v48.8v1.5h1.5h7h1.5v-1.5v-18.7h16.2l9.5,19.5l0.4,0.7h0.7h8.1h2.2
				l-1.1-1.8l-9.5-19.1C712.7,438.8,716.7,433.3,716.7,426.3z M679.2,420.1h20.6c1.8,0,7,0,7,5.5c0,5.1-3.7,6.2-7,6.2h-20.6V420.1z"
				/>
		</g>
		<g>
			<path class="st0" d="M318.2,538.3v-34.9h5.5v34.9H318.2z"/>
			<path class="st0" d="M360.1,539.1c-2.6,0-4.8-0.4-7.3-1.1c-3.7-1.1-5.9-2.2-8.8-4.4l2.9-5.1c4,2.6,8.1,4.4,12.9,4.4
				c7.3,0,15.1-4,15.8-12.1c-6.2,2.9-9.5,4-16.5,4c-2.2,0-4.4-0.4-6.6-0.7c-5.1-1.1-10.3-4.4-10.3-10.3c0-5.9,5.5-9.5,10.7-10.7
				c2.6-0.7,5.1-1.1,7.7-1.1c10.7,0,21.3,6.2,21.3,18C381.7,532.1,371.1,539.1,360.1,539.1z M360.8,508.2c-1.8,0-3.3,0-4.8,0.4
				c-2.2,0.4-7.3,2.2-7.3,5.1c0,2.6,4,4,6.2,4.8c1.5,0.4,3.3,0.4,4.8,0.4c5.5,0,10.3-1.5,15.4-4
				C371.8,510.1,366.3,508.2,360.8,508.2z"/>
			<path class="st0" d="M395.7,538.3c0-0.7,0-1.5,0-2.2c0-8.4,4.8-16.9,13.6-18c2.6-0.4,5.5-0.7,8.1-1.1c2.2-0.4,4.4-1.5,4.4-4
				c0-3.7-6.6-4.4-9.2-4.4c-5.5,0-8.8,1.1-13.6,3.7l-2.6-5.1c5.9-3.3,9.2-4.4,16.2-4.4c5.9,0,15.1,2.6,15.1,9.9
				c0,6.2-5.5,9.5-11,10.3c-3.3,0.4-6.2,0.7-8.4,1.5c-2.9,0.7-4.8,2.9-6.2,8.1h25.7v5.9H395.7z"/>
			<path class="st0" d="M472.5,529.9v8.4h-5.9v-8.4h-24.2l-2.6-5.5l25.3-20.9h7.3V524h8.1v5.9H472.5z M466.6,509.7L449.3,524h17.3
				V509.7z"/>
		</g>
		<path d="M386.9,308.8c1.8-0.7,3.3-1.1,5.1-1.5c-2.6-3.3-7-4-11.4-2.6c-4,1.5-6.6,4.4-6.6,8.1s2.6,6.6,7,7.7
			c7.7,1.8,17.3,1.1,23.1-6.6c1.5-1.8,2.6-3.7,4-5.5c4.8-5.9,9.9-6.2,15.1,0c1.5,1.8,2.9,4,4.4,6.2c2.2,2.6,4.4,5.1,8.8,5.5
			c-1.8-4-3.3-7.7-5.1-12.5c2.2-2.2,4-4,7-6.2c-1.8-9.2-11-14.3-16.9-22.4c2.9,0,4.8,0,7.7,0c1.5-1.5,3.3-3.7,4.8-5.5
			c3.7-4.4,8.1-7.3,14-7.7c6.6-0.4,13.6-0.7,20.2,0c8.4,1.1,11.8,7.7,7.7,15.4c-4.4,8.1-10.3,15.1-18,20.2
			c-4.8,2.9-9.9,4.4-15.4,2.2c-2.2,7.3,0,13.6,3.7,19.1c5.1,8.1,13.2,12.9,22,16.9c2.6,1.1,4.8,2.6,7.3,3.7c0,0.4-0.4,0.7-0.4,1.1
			c-1.8,0.4-3.3,0.7-5.1,0.7c-7.3,0.4-12.9,4.4-16.2,10.7c-1.8,3.3-3.3,6.6-4.8,9.9c-6.6,13.2-16.9,18-30.9,14
			c-16.9-5.1-33.1-12.9-46.6-24.2c-11-9.2-16.5-20.9-17.3-34.9c-0.7-16.9,12.1-29,29-27.2c7,0.7,13.2,2.6,17.3,9.5
			c1.8,3.3,1.5,6.2-0.7,9.2c-2.2,2.9-5.5,3.7-8.8,3.3C388,313.9,386.1,312.5,386.9,308.8z"/>
		<path d="M328.8,323.5c-2.2,1.1-3.3,1.8-4.8,2.6c-4.8,2.6-9.9,2.6-14.3-0.4c-10.7-7-16.2-16.9-19.1-29c-0.7-3.3,0.7-5.9,2.9-8.4
			c9.2-9.2,27.2-13.2,38.6-0.7c0.4,0.7,1.1,1.1,2.2,1.8c1.5-1.8,2.9-3.7,4-5.5c8.1-11,18-19.5,31.2-23.1c8.4-2.2,16.5-1.8,24.2,2.9
			c1.8,1.1,3.3,2.9,6.2,5.1c-2.2,0.4-2.9,0.7-3.3,0.4c-14.7-5.9-27.5-1.8-38.9,8.1c-9.9,8.8-15.1,20.2-16.5,33.1
			c-3.3,32.3,16.2,55.5,41.9,66.5c5.9,2.6,12.1,4,18,7c5.5,2.6,11,5.9,15.8,9.5c6.6,4.8,9.9,11.8,11,19.8c0.4,2.2-0.4,4.4-0.4,7.3
			c-1.5-1.1-1.8-1.1-2.2-1.8c-4.4-12.1-14-19.1-25-23.9c-8.8-4-18-6.2-26.4-10.3s-16.5-8.4-23.9-14c-13.2-9.9-19.1-24.6-20.6-40.8
			C329.2,327.5,329.2,326,328.8,323.5z"/>
		<path d="M392.4,452.8c-2.6,1.8-4.4,3.3-6.6,4.8c6.2,7.7,21.3,5.5,26.8-2.9c0-3.7-2.9-5.1-5.5-6.2c-9.9-4.4-20.2-4.8-30.9-1.8
			c-5.1,1.5-9.2,4-8.4,11.8c-3.7-2.6-5.1-5.5-5.5-8.8c-0.4-3.7-0.7-7.7,0-11.4c2.9-14.3,11.4-25.3,24.2-32.7
			c4.8-2.9,9.9-2.9,15.1-0.4c15.1,7.3,26.8,32,22.4,48.1c-2.2,8.1-7,13.2-15.1,15.8c-7.7,2.6-15.8,2.9-23.5,0
			c-2.9-1.1-5.5-2.9-7.3-5.1c-3.7-4.4-2.2-9.2,3.3-11C384.7,450.6,388,450.6,392.4,452.8z"/>
		<path d="M490.8,347c2.9,0.7,2.9,3.7,2.6,6.2c-1.5,8.1-2.2,16.2-10.3,21.3c-5.5,3.7-11,8.1-16.9,10.7c-4.8,2.2-10.3,2.2-16.5-2.6
			c2.9-1.1,4.8-1.8,6.6-2.2c7.3-1.5,13.2-4.8,17.3-11c1.1-1.8,1.5-4,2.2-5.9c-0.4-0.4-0.7-0.4-1.1-0.7c-2.6,1.8-5.1,3.7-7.7,5.1
			c-4.4-3.3-4.8-7.3-1.5-11c0.7-1.1,2.2-1.8,3.3-2.2C476.5,352.1,483.5,349.6,490.8,347z"/>
	</g>
	<path d="M305,411.6l-0.4-0.7h-0.7h-7.7h-0.7l-0.4,0.7l-21.7,47.7l-0.7,1.8h2.2h7.7h0.7l0.4-0.7l5.9-12.9h21.7l5.5,12.9l0.4,0.7h0.7
		h7.7h2.2l-0.7-1.8L305,411.6z M306.4,438.4h-13.2l6.6-14.7L306.4,438.4z"/>
	<path d="M626.7,411.6l-0.4-0.7h-0.7h-7.7h-0.7l-0.4,0.7l-21.7,47.7l-0.7,1.8h2.2h7.7h0.7l0.4-0.7l5.9-12.9H633l5.5,12.9l0.4,0.7
		h0.7h7.7h2.2l-0.7-1.8L626.7,411.6z M628.2,438.4H615l6.6-14.7L628.2,438.4z"/>
	<path d="M769.2,411.6l-0.4-0.7h-0.7h-7.7h-0.7l-0.4,0.7l-21.7,47.7l-0.7,1.8h2.2h7.7h0.7l0.4-0.7l5.9-12.9h21.7l5.5,12.9l0.4,0.7
		h0.7h7.7h2.2l-0.7-1.8L769.2,411.6z M770.3,438.4h-13.2l6.6-14.7L770.3,438.4z"/>
</g>
</svg>
