<?xml version="1.0" encoding="utf-8"?>
<!-- Generator: Adobe Illustrator 19.0.0, SVG Export Plug-In . SVG Version: 6.00 Build 0)  -->
<svg version="1.1" id="Layer_1" xmlns="http://www.w3.org/2000/svg" xmlns:xlink="http://www.w3.org/1999/xlink" x="0px" y="0px"
	 viewBox="-259 346 280 110" style="enable-background:new -259 346 280 110;" xml:space="preserve">
<style type="text/css">
	.st0{opacity:0.5;}
	.st1{fill:#FFFFFF;}
	.st2{opacity:0.9;}
</style>
<g>
	<g class="st0">
		<path class="st1" d="M-141.2,438.1v-9.5h1.5v9.5H-141.2z"/>
		<path class="st1" d="M-129.8,438.3c-0.7,0-1.3-0.1-2-0.3c-1-0.3-1.6-0.6-2.4-1.2l0.8-1.4c1.1,0.7,2.2,1.2,3.5,1.2
			c2,0,4.1-1.1,4.3-3.3c-1.7,0.8-2.6,1.1-4.5,1.1c-0.6,0-1.2-0.1-1.8-0.2c-1.4-0.3-2.8-1.2-2.8-2.8s1.5-2.6,2.9-2.9
			c0.7-0.2,1.4-0.3,2.1-0.3c2.9,0,5.8,1.7,5.8,4.9C-123.9,436.4-126.8,438.3-129.8,438.3z M-129.6,429.9c-0.5,0-0.9,0-1.3,0.1
			c-0.6,0.1-2,0.6-2,1.4c0,0.7,1.1,1.1,1.7,1.3c0.4,0.1,0.9,0.1,1.3,0.1c1.5,0,2.8-0.4,4.2-1.1
			C-126.6,430.4-128.1,429.9-129.6,429.9z"/>
		<path class="st1" d="M-120.1,438.1c0-0.2,0-0.4,0-0.6c0-2.3,1.3-4.6,3.7-4.9c0.7-0.1,1.5-0.2,2.2-0.3c0.6-0.1,1.2-0.4,1.2-1.1
			c0-1-1.8-1.2-2.5-1.2c-1.5,0-2.4,0.3-3.7,1l-0.7-1.4c1.6-0.9,2.5-1.2,4.4-1.2c1.6,0,4.1,0.7,4.1,2.7c0,1.7-1.5,2.6-3,2.8
			c-0.9,0.1-1.7,0.2-2.3,0.4c-0.8,0.2-1.3,0.8-1.7,2.2h7v1.6H-120.1z"/>
		<path class="st1" d="M-99.2,435.8v2.3h-1.6v-2.3h-6.6l-0.7-1.5l6.9-5.7h2v5.6h2.2v1.6H-99.2z M-100.8,430.3l-4.7,3.9h4.7V430.3z"
			/>
	</g>
	<g class="st2">
		<path class="st1" d="M-214.1,409.4c-1.4-0.8-2.7-0.8-4.1-0.8h-1.9c-1.6,0-1.8-0.6-1.8-1.1c0-0.6,0.4-1,1.2-1.3
			c0.9-0.4,2-0.4,2.3-0.4c1.5,0,2.4,0.4,3.9,1.3l0.3,0.2l0.2-0.3l1.1-1.5l0.2-0.3l-0.3-0.2c-1.6-1.2-3.6-1.9-5.6-1.9
			c-0.8,0-1.6,0.1-2.4,0.3c-1.7,0.6-3.5,1.9-3.5,4.1c0,2.5,2.1,3.7,4.2,3.7h2c2,0,2.5,0.1,3.1,0.4c0.5,0.3,0.7,0.7,0.7,1.2
			c0,1.6-2.3,2-3.7,2c-2.3,0-3.7-0.5-5.2-1.9l-0.3-0.2l-0.3,0.1l-1.3,1.3l-0.3,0.3l0.3,0.3c1.9,1.9,4,2.8,6.8,2.8
			c1.6,0,3.1-0.3,4.2-0.9c1.5-0.8,2.3-2,2.3-3.6C-212.1,411.5-212.8,410.2-214.1,409.4z"/>
		<path class="st1" d="M-198,403.6l-0.1-0.2h-0.2h-2.1h-0.2l-0.1,0.2l-5.9,13l-0.2,0.5h0.6h2.1h0.2l0.1-0.2l1.6-3.5h5.9l1.5,3.5
			l0.1,0.2h0.2h2.1h0.6l-0.2-0.5L-198,403.6z M-197.6,410.9h-3.6l1.8-4L-197.6,410.9z"/>
		<polygon class="st1" points="-176.2,403.4 -176.5,403.4 -176.5,403.7 -176.5,412.6 -183.7,403.5 -183.8,403.4 -184,403.4 
			-185.9,403.4 -186.2,403.4 -186.2,403.7 -186.2,416.8 -186.2,417.1 -185.9,417.1 -184,417.1 -183.6,417.1 -183.6,416.8 
			-183.6,407.9 -176.4,417 -176.3,417.1 -176.1,417.1 -174.2,417.1 -173.9,417.1 -173.9,416.8 -173.9,403.7 -173.9,403.4 
			-174.2,403.4 		"/>
		<polygon class="st1" points="-155.4,405.6 -155.4,403.7 -155.4,403.4 -155.7,403.4 -166.8,403.4 -167.2,403.4 -167.2,403.7 
			-167.2,405.6 -167.2,406 -166.8,406 -162.5,406 -162.5,416.8 -162.5,417.1 -162.2,417.1 -160.3,417.1 -160,417.1 -160,416.8 
			-160,406 -155.7,406 -155.4,406 		"/>
		<path class="st1" d="M-87.6,412.9l-0.3-0.3l-0.3,0.3c-1.5,1.5-2.7,2-4.6,2c-2.6,0-5.3-1.5-5.3-4.6c0-2.7,2.1-4.7,4.9-4.7
			c1.6,0,3,0.6,4.6,1.9l0.2,0.2l0.2-0.2l1.4-1.2l0.3-0.3l-0.3-0.3c-1.9-1.9-4.2-2.8-6.7-2.8c-4.3,0-7.5,3.1-7.5,7.3
			c0,4.3,3.3,7.4,7.9,7.4c2.7,0,5-1,6.5-2.8l0.2-0.3l-0.2-0.2L-87.6,412.9z"/>
		<polygon class="st1" points="-78.4,414.6 -78.4,403.6 -78.4,403.3 -78.8,403.3 -80.7,403.3 -81.1,403.3 -81.1,403.6 -81.1,417 
			-81.1,417.3 -80.7,417.3 -70.7,417.3 -70.3,417.3 -70.3,417 -70.3,415 -70.3,414.6 -70.7,414.6 		"/>
		<path class="st1" d="M-32.7,407.6c0-2.6-1.8-4.3-4.6-4.3h-7.9h-0.4v0.4V417v0.4h0.4h1.9h0.4V417v-5.1h4.4l2.6,5.3l0.1,0.2h0.2h2.2
			h0.6l-0.3-0.5l-2.6-5.2C-33.8,411-32.7,409.5-32.7,407.6z M-42.9,405.9h5.6c0.5,0,1.9,0,1.9,1.5c0,1.4-1,1.7-1.9,1.7h-5.6V405.9z"
			/>
		<path class="st1" d="M-122.5,375.6c0.5-0.2,0.9-0.3,1.4-0.4c-0.7-0.9-1.9-1.1-3.1-0.7c-1.1,0.4-1.8,1.2-1.8,2.2s0.7,1.8,1.9,2.1
			c2.1,0.5,4.7,0.3,6.3-1.8c0.4-0.5,0.7-1,1.1-1.5c1.3-1.6,2.7-1.7,4.1,0c0.4,0.5,0.8,1.1,1.2,1.7c0.6,0.7,1.2,1.4,2.4,1.5
			c-0.5-1.1-0.9-2.1-1.4-3.4c0.6-0.6,1.1-1.1,1.9-1.7c-0.5-2.5-3-3.9-4.6-6.1c0.8,0,1.3,0,2.1,0c0.4-0.4,0.9-1,1.3-1.5
			c1-1.2,2.2-2,3.8-2.1c1.8-0.1,3.7-0.2,5.5,0c2.3,0.3,3.2,2.1,2.1,4.2c-1.2,2.2-2.8,4.1-4.9,5.5c-1.3,0.8-2.7,1.2-4.2,0.6
			c-0.6,2,0,3.7,1,5.2c1.4,2.2,3.6,3.5,6,4.6c0.7,0.3,1.3,0.7,2,1c0,0.1-0.1,0.2-0.1,0.3c-0.5,0.1-0.9,0.2-1.4,0.2
			c-2,0.1-3.5,1.2-4.4,2.9c-0.5,0.9-0.9,1.8-1.3,2.7c-1.8,3.6-4.6,4.9-8.4,3.8c-4.6-1.4-9-3.5-12.7-6.6c-3-2.5-4.5-5.7-4.7-9.5
			c-0.2-4.6,3.3-7.9,7.9-7.4c1.9,0.2,3.6,0.7,4.7,2.6c0.5,0.9,0.4,1.7-0.2,2.5c-0.6,0.8-1.5,1-2.4,0.9
			C-122.2,377-122.7,376.6-122.5,375.6z"/>
		<path class="st1" d="M-138.3,379.6c-0.6,0.3-0.9,0.5-1.3,0.7c-1.3,0.7-2.7,0.7-3.9-0.1c-2.9-1.9-4.4-4.6-5.2-7.9
			c-0.2-0.9,0.2-1.6,0.8-2.3c2.5-2.5,7.4-3.6,10.5-0.2c0.1,0.2,0.3,0.3,0.6,0.5c0.4-0.5,0.8-1,1.1-1.5c2.2-3,4.9-5.3,8.5-6.3
			c2.3-0.6,4.5-0.5,6.6,0.8c0.5,0.3,0.9,0.8,1.7,1.4c-0.6,0.1-0.8,0.2-0.9,0.1c-4-1.6-7.5-0.5-10.6,2.2c-2.7,2.4-4.1,5.5-4.5,9
			c-0.9,8.8,4.4,15.1,11.4,18.1c1.6,0.7,3.3,1.1,4.9,1.9c1.5,0.7,3,1.6,4.3,2.6c1.8,1.3,2.7,3.2,3,5.4c0.1,0.6-0.1,1.2-0.1,2
			c-0.4-0.3-0.5-0.3-0.6-0.5c-1.2-3.3-3.8-5.2-6.8-6.5c-2.4-1.1-4.9-1.7-7.2-2.8c-2.3-1.1-4.5-2.3-6.5-3.8
			c-3.6-2.7-5.2-6.7-5.6-11.1C-138.2,380.7-138.2,380.3-138.3,379.6z"/>
		<path class="st1" d="M-121,414.8c-0.7,0.5-1.2,0.9-1.8,1.3c1.7,2.1,5.8,1.5,7.3-0.8c0-1-0.8-1.4-1.5-1.7c-2.7-1.2-5.5-1.3-8.4-0.5
			c-1.4,0.4-2.5,1.1-2.3,3.2c-1-0.7-1.4-1.5-1.5-2.4c-0.1-1-0.2-2.1,0-3.1c0.8-3.9,3.1-6.9,6.6-8.9c1.3-0.8,2.7-0.8,4.1-0.1
			c4.1,2,7.3,8.7,6.1,13.1c-0.6,2.2-1.9,3.6-4.1,4.3c-2.1,0.7-4.3,0.8-6.4,0c-0.8-0.3-1.5-0.8-2-1.4c-1-1.2-0.6-2.5,0.9-3
			C-123.1,414.2-122.2,414.2-121,414.8z"/>
		<path class="st1" d="M-94.2,386c0.8,0.2,0.8,1,0.7,1.7c-0.4,2.2-0.6,4.4-2.8,5.8c-1.5,1-3,2.2-4.6,2.9c-1.3,0.6-2.8,0.6-4.5-0.7
			c0.8-0.3,1.3-0.5,1.8-0.6c2-0.4,3.6-1.3,4.7-3c0.3-0.5,0.4-1.1,0.6-1.6c-0.1-0.1-0.2-0.1-0.3-0.2c-0.7,0.5-1.4,1-2.1,1.4
			c-1.2-0.9-1.3-2-0.4-3c0.2-0.3,0.6-0.5,0.9-0.6C-98.1,387.4-96.2,386.7-94.2,386z"/>
		<path class="st1" d="M-144.8,403.6l-0.1-0.2h-0.2h-2.1h-0.2l-0.1,0.2l-5.9,13l-0.2,0.5h0.6h2.1h0.2l0.1-0.2l1.6-3.5h5.9l1.5,3.5
			l0.1,0.2h0.2h2.1h0.6l-0.2-0.5L-144.8,403.6z M-144.4,410.9h-3.6l1.8-4L-144.4,410.9z"/>
		<path class="st1" d="M-57.2,403.6l-0.1-0.2h-0.2h-2.1h-0.2l-0.1,0.2l-5.9,13l-0.2,0.5h0.6h2.1h0.2l0.1-0.2l1.6-3.5h5.9l1.5,3.5
			l0.1,0.2h0.2h2.1h0.6l-0.2-0.5L-57.2,403.6z M-56.8,410.9h-3.6l1.8-4L-56.8,410.9z"/>
		<path class="st1" d="M-18.4,403.6l-0.1-0.2h-0.2h-2.1H-21l-0.1,0.2l-5.9,13l-0.2,0.5h0.6h2.1h0.2l0.1-0.2l1.6-3.5h5.9l1.5,3.5
			l0.1,0.2h0.2h2.1h0.6l-0.2-0.5L-18.4,403.6z M-18.1,410.9h-3.6l1.8-4L-18.1,410.9z"/>
	</g>
</g>
</svg>
