<?xml version="1.0" encoding="utf-8"?>
<!-- Generator: Adobe Illustrator 19.0.0, SVG Export Plug-In . SVG Version: 6.00 Build 0)  -->
<svg version="1.1" id="Capa_1" xmlns="http://www.w3.org/2000/svg" xmlns:xlink="http://www.w3.org/1999/xlink" x="0px" y="0px"
	 viewBox="0 0 800 800" style="enable-background:new 0 0 800 800;" xml:space="preserve">
<style type="text/css">
	.st0{fill-rule:evenodd;clip-rule:evenodd;fill:#0058A0;}
	.st1{fill-rule:evenodd;clip-rule:evenodd;fill:#009BDB;stroke:#009BDB;stroke-width:0.1156;stroke-miterlimit:2.6131;}
	.st2{fill-rule:evenodd;clip-rule:evenodd;fill:#FFFFFF;stroke:#FFFFFF;stroke-width:0.1156;stroke-miterlimit:2.6131;}
</style>
<path class="st0" d="M157.9,587.7c-6.5-0.8-10.8-0.6-18.9-0.4c-10.6,0.4-22.7,8.6-21.4,22.4c0.8,8.9,17,16.2,29,7
	C156.4,609.3,156.2,598.9,157.9,587.7L157.9,587.7z M158.8,624.8c-11,9.1-15.5,16-32.8,18.2c-14.1,1.7-45.3-6.1-47.2-27.2
	c-2.3-25.1,7-38.9,55.9-40.7l22.8-0.7c0-9.9,0.3-18.9-11.4-21.1c-15.8-3-33.1,1.1-50.8,10.4l-7.7-22.4c48.1-14.9,75.4-8.2,92.2-3.1
	c9.9,3,17,18.3,16.8,34.3l-0.8,52.1c0.6,5.9,2.3,11.8,4.9,17.7l-41.4-0.4L158.8,624.8L158.8,624.8z M256.3,641.2l-46.9,1.3
	c5.2-38.6,7.3-119.9-6.2-138.7c15.9-0.1,32.7-2.3,48.6-5.6C249.1,545.9,248,598.8,256.3,641.2L256.3,641.2z M308.1,555.6
	c18.3-19.6,45.5-34.2,77-4.9c13,12.1,10.1,47.9-0.4,68c-9.3,17.5-50.7,31.4-75.3,22.4c-0.8,16.9,1.5,33.2,7.3,49h-52.2
	c7.2-25.8,11.8-138.2-7.3-153h52.2L308.1,555.6L308.1,555.6z M306.6,622.2c30.4,13.7,51.9-3.8,48.1-32.5
	c-6.9-52.4-46.5-26.3-46.2-12.8L306.6,622.2L306.6,622.2z M484.3,623c-9,10.8-22.8,21.1-37.6,21.1c-28.3,0-42.8-6.1-44.1-32.5
	c-1-25.1,3.9-61.8-6.9-75h48.1l-3.2,66.9c-1.4,27.4,45.3,17.9,42.8,1.4c-1.8-24.1,1-44.2-5.8-67.6h46.7
	c-4.1,34.9-4.6,80.8,3.4,104.7h-43.5V623L484.3,623z M625.7,567c-12.2-10.8-38.1-2.5-41.1,6.9c-4.2,11.7-10.1,58,3.7,69h-50.1
	c6.1-23.9,8-81.9-3.2-104.7h49.7l-1.5,22.4c6.5-10.6,23.1-24.9,43.9-25.2L625.7,567L625.7,567z M680.4,588.1
	c-12-3.2-53.2,4.2-39.8,26.7c5.6,9.6,15.9,9.4,24.1,4.8C679,611.3,677.5,606.2,680.4,588.1L680.4,588.1z M677.6,628.1
	c-20,16.5-37.3,17.7-61,10.7c-9.9-3-19-17.7-19-26.9c0-39.6,55.9-35.5,82.3-35.5c0-7.7-0.3-11.5-2.7-15.2
	c-3.4-5.3-28.4-9.2-39.1-3.7l0.7-21.1c35.2-4.6,77.7-4.9,79.3,28c-0.3,23.6-2.8,57,2.1,77.6l-40.3-0.4L677.6,628.1L677.6,628.1z"/>
<path class="st1" d="M395.7,482.5c53.9-108.7,124.2-159.8,199.9-173.3c3.1,12.1-8.3,63.2-20.3,79c-60.2,2.7-120.6,32.2-178.6,106.4
	L395.7,482.5L395.7,482.5z"/>
<path class="st1" d="M225.8,390.2c-12.1-23.5-20.4-50.8-21.3-83.9c25.2,6.5,49,15.9,70.7,27.6c14.8,3.4,21.3,16.2,21.1,23.8
	c-1.1,8.3,2.8,13.7,12,15.9c5.9,1.3,11.4,1.1,17.2,1.3c6.5,0.3,13.7,4.2,22.5,17.9l8.6,13.5c-6.3,8.2-11.8,19.4-12.5,30.8
	C309.5,410.3,270,395.9,225.8,390.2L225.8,390.2z"/>
<path class="st0" d="M204.1,306c0-1,0-2,0-3c0-1.4,0-2.8,0-4.2c3.4-104.2,90.4-188.1,196.5-188.1c89,0,164.4,58.8,188.5,139.2
	c2.1,7.9,3.9,15.9,5.2,24.2c-32.8,2.7-64.9-3.2-93-20c-2.8-1.7-2.3-10.1,9.9-4.4c6.1,2.4,13.2-1.5,19.3-13
	c5.6-10.4,10.1-21.4,13.4-32.7c-7.5-6.2-14.9-11.3-22.4-14.9c-16.3-6.2-29.3-4.5-37.3,9.1c-4.1,7.3-13.2,5.3-7.5-1.1
	c13-15.6,13.8-36.3,3-45.3c-12.2-10.3-15.9-7.7-10,1.5c3.7,5.1,2.3,14.1-3,21.1c-9,8.2-21.3,7.9-37-1.1c-25.1-13.5-57-14.2-83.5,2.3
	c-9.9,6.9-18.2,4.9-26.5,0.6c-6.2-4.2-7-12.7-4.1-17.6c4.1-5.9,2.7-19.4-7.9-2.1c-7.6,13.7-2.7,29.8,6.2,39.1
	c7.7,9.3,0,12.8-6.8,5.3c-10.1-12.7-22-16.3-31.8-10.7c-10.3,6.1-18.7,13-24.6,21.5l33.5,39.7c3.5,4.6,13.5,4.4,16.6,0.1
	c9.1-8.9,15.8-6.1,21.4,6.6c3.2,8.7-3.8,10.7-8.3,6.8c-3.9,0-8.2,2-4.4,10.7c5.5,7.6,8.2,15.8,9.4,23.2l-11.3,9.1
	c-8.2,10-12.4,19.6-9.6,27.9c1.8,8.9,3.8,17.6,7.3,26.5l22.4,3.4c19.8,3.2,39.6,4.2,59.3,2.3c7.7-2.5,12.7-9,17-19.3
	c3.5-10.8,12.2-5.8,9.9,3.4c-6.1,17.6-16.3,28.2-33.5,25.9l4.5,14.9c-11.5,0.4-21,4.8-28.2,13.1l-15.5-22.1
	c-6.3-6.5-13.2-10.4-21.3-9.2c-15.9-0.6-24.1-5.2-24.6-13.5c0.1-13.5-6.3-23.5-22.4-28.3C250.5,321.6,227.4,313.3,204.1,306
	L204.1,306z"/>
<path class="st0" d="M534.3,444.2c-35.2,32-82.2,51.5-133.6,51.5c-65.3,0-123.3-31.4-159.1-79.7c-3.8-5.3-7.5-10.8-10.8-16.2
	c-2.1-3.4-3.9-6.9-5.8-10.4c62.5,9.2,122.2,32.2,172.2,104.4c64.9-83.1,123.3-101.6,179.2-106.7C565.4,408.8,551.2,428,534.3,444.2
	L534.3,444.2z"/>
<path class="st2" d="M367.1,442.4c-6.9-5.3-13-6.8-18.7-6.5c-4.2-0.3-5.9,3.4-3.8,6.9c8.3,13.2,22.2,19.6,38.4,22.5
	c3,0.6,5.5-2.8,3.7-6.1c-1-2.5-2.4-4.6-4.5-6.5c-3.5,5.6-8.6,7.3-15.1,4.9C361.7,452.7,361.7,447.6,367.1,442.4L367.1,442.4z"/>
<path class="st0" d="M399.9,462.7c15.5-19.7,20.7-38.3,13.4-55.7c-1.8-3.7-6.9-3.5-6.1,0.7c3.2,8.3,3.2,16.6-2,24.8
	c-4.4,2.3-8.6,2.5-13,0.8c-9.9-5.5-19.7-8-29.6-9c-4.1,0-5.6,4.2-0.4,5.1C384.8,435.4,396.6,446.9,399.9,462.7L399.9,462.7z"/>
<path class="st0" d="M371.9,438.6c-6.9-5.3-13-6.9-18.7-6.6c-4.2-0.1-5.9,3.4-3.8,7c8.4,13.2,22.2,19.4,38.4,22.5
	c3,0.6,5.5-2.8,3.7-6.2c-1-2.4-2.4-4.5-4.5-6.3c-3.5,5.6-8.6,7.2-15.1,4.9C366.5,448.9,366.5,443.7,371.9,438.6L371.9,438.6z"/>
<path class="st0" d="M324.9,326.4c6.5-3.9,13,0.3,11.4,7.6c-0.8,3.9-2.5,2.8-6.9,4.4c-1.3,1.8,1.5,3.4,3.7,5.1
	c2.3,1.1-0.6,4.5-4.5,2.1C321.5,342.3,317.5,333.9,324.9,326.4L324.9,326.4z"/>
<path class="st0" d="M371,328.2c-6.5-3.9-13,0.3-11.4,7.6c0.8,3.9,2.5,2.8,6.9,4.4c1.3,1.8-1.7,3.4-3.7,5.1
	c-2.3,1.1,0.6,4.5,4.5,2.1C374.4,344.3,378.3,335.8,371,328.2L371,328.2z"/>
<path class="st0" d="M403,269.3c3.9-10.3,9.4-17.7,16.2-22.4c10.7-6.6,21.1-5.3,31.4,1.3c4.1,3.2,0.8,8.7-3.1,7.5
	c-2.1-1.3-6.6-1.3-6.2,0.6c-0.8,12.4-7.5,17.5-18.3,17.5c-2.4-0.1-4.5-1.1-6.3-2.7c-1.7-1.8-4.8-1.3-5.2,0.4
	C408,279.1,399.9,276.6,403,269.3L403,269.3z M433.4,254.9c2.4,0,4.4,1.8,4.4,4.2c0,2.3-2,4.2-4.4,4.2c-2.4,0-4.4-2-4.4-4.2
	C429,256.7,431,254.9,433.4,254.9L433.4,254.9z"/>
</svg>
