<?xml version="1.0" encoding="utf-8"?>
<!-- Generator: Adobe Illustrator 24.0.0, SVG Export Plug-In . SVG Version: 6.00 Build 0)  -->
<svg version="1.1" id="Capa_1" xmlns="http://www.w3.org/2000/svg" xmlns:xlink="http://www.w3.org/1999/xlink" x="0px" y="0px"
	 viewBox="0 0 180 100" style="enable-background:new 0 0 180 100;" xml:space="preserve">
<style type="text/css">
	.st0{fill-rule:evenodd;clip-rule:evenodd;fill:#BF0411;}
	.st1{fill-rule:evenodd;clip-rule:evenodd;fill:#00579B;}
	.st2{fill-rule:evenodd;clip-rule:evenodd;fill:#13408F;}
</style>
<path class="st0" d="M96.8,22.1c5.2-7.5-0.4-16-7-16C83.2,6.2,78.1,12.8,79,21c-7.5-3-15.2,0.4-16.8,6.8c-1.7,6.6,5,14.2,13.5,10.8
	c-0.5,3.6,1,7,5,8.1c3.9,0.9,12.1-3.7,10.2-10.2c5.7,3.4,12.3-3.3,12.3-7.6C103.2,24.7,100.4,22.5,96.8,22.1z M95.7,34
	c-2.1,2.1-3.3,2.3-5.4,1.8c0,2-0.4,3.2-3,4.8c-2.6,1.5-4.7,0.1-5.4-0.8c-0.6-0.8-2.1-2.3-1.2-4.9c-4.4,4-12.6,0.5-10.8-6.8
	c0.7-3,3.9-7,9.4-6.6c1.1-5.6,5.6-7.7,8.7-7.7c7.4,0,8.7,9,3.8,12.4c2.6-0.4,3.7,1.5,4.4,2.4C97,29.3,97.9,31.7,95.7,34z"/>
<path class="st1" d="M145.6,72.7v-2.1c0-0.1,0-0.6,0-0.9l0,0l-1.1,3h-0.4l-1.1-3l0,0c0,0.4,0,0.8,0,0.9v2.1h-0.4v-3.6h0.7l1.1,3.1
	l0,0l1-3.1h0.7v3.6H145.6L145.6,72.7z"/>
<path class="st1" d="M149.5,72.3v-0.7c-0.1-0.5-0.2-0.6-0.4-0.7c0.2-0.1,0.5-0.4,0.5-0.9c0-0.7-0.7-0.9-1.2-0.9h-1.7v3.7h0.5v-1.6
	h1.1c0.6,0,0.7,0.4,0.7,0.7c0,0.1,0,0.7,0.1,0.9h0.7v-0.1C149.6,72.6,149.5,72.5,149.5,72.3z M148.2,70.8h-1.1v-1.2h1.2
	c0.2,0,0.7,0,0.7,0.6S148.6,70.8,148.2,70.8z"/>
<path class="st2" d="M40,59.5l-5.5,28.1c0.1,0.6,0.4,2.4,1.5,3.1c1,0.7,2.8,0.2,3.8-0.2C65.8,79.2,74,75.8,78.6,84
	c4.9-1.7,9.1-3,9.6-7.1l-7.4-20.8c-0.1-0.3-0.6-1.3-1.6-1.9c-1-0.6-3.3-0.9-3.7-0.8l-7.1,1c-3.6,0.2-6.7,3.2-8.2,6.4l-6.9,16.5
	c9.8-5.7,7.7-5,13.5-7.2l2.7-7.8c0.2-0.6,0.7-2.5,1.2-2.7c0.5-0.2,1.4-0.2,2-0.3l2.1,11.9c-4-0.1-9.9,0.5-22.7,9.4
	c-1.1,0.8-3.2,1.5-3.2,0.6l3.8-19.4c-0.1-3.2-3.4-4.1-5-3.9L40,59.5L40,59.5z M67.7,74.3c3.3-1.1,10-2.6,9.8,1.6
	C75.6,74.2,73.1,74,67.7,74.3L67.7,74.3z"/>
<path class="st2" d="M92.3,50.4l-5.5,28.1c0.1,0.6,0.4,2.4,1.5,3.1c1,0.7,2.8,0.2,3.8-0.2c26.1-11.3,34.2-14.8,38.8-6.6
	c4.9-1.7,9.1-3,9.6-7.1L133,47c-0.1-0.3-0.6-1.3-1.6-1.9c-1-0.6-3.3-0.9-3.7-0.8l-7.1,1c-3.6,0.2-6.7,3.2-8.2,6.4l-6.9,16.5
	c9.8-5.7,7.7-5,13.5-7.2l2.7-7.8c0.2-0.6,0.7-2.5,1.2-2.7c0.5-0.2,1.4-0.2,2-0.3l2.1,11.9c-4-0.1-9.9,0.5-22.7,9.4
	c-1.1,0.8-3.2,1.5-3.2,0.6l3.8-19.4c-0.1-3.2-3.4-4.1-5-3.9L92.3,50.4L92.3,50.4z M120,65.2c3.3-1.1,10-2.6,9.8,1.6
	C127.8,65.1,125.3,64.8,120,65.2L120,65.2z"/>
</svg>
