<?xml version="1.0" encoding="utf-8"?>
<!-- Generator: Adobe Illustrator 24.0.0, SVG Export Plug-In . SVG Version: 6.00 Build 0)  -->
<svg version="1.1" id="Layer_1" xmlns="http://www.w3.org/2000/svg" xmlns:xlink="http://www.w3.org/1999/xlink" x="0px" y="0px"
	 viewBox="0 0 180 110" style="enable-background:new 0 0 180 110;" xml:space="preserve">
<style type="text/css">
	.st0{fill:#BBA170;}
</style>
<g>
	<g>
		<g>
			<path d="M14.4,61.5c-1.1-0.6-2.1-0.6-3.3-0.6H9.6c-1.3,0-1.4-0.5-1.4-0.9c0-0.5,0.3-0.8,1-1c0.7-0.3,1.6-0.3,1.8-0.3
				c1.2,0,1.9,0.3,3.1,1l0.2,0.2l0.2-0.2l0.9-1.2l0.2-0.2L15.3,58c-1.3-1-2.9-1.5-4.5-1.5c-0.6,0-1.3,0.1-1.9,0.2
				c-1.4,0.5-2.8,1.5-2.8,3.3c0,2,1.7,2.9,3.3,2.9h1.6c1.6,0,2,0.1,2.5,0.3c0.4,0.2,0.6,0.6,0.6,1c0,1.3-1.8,1.6-2.9,1.6
				c-1.8,0-2.9-0.4-4.1-1.5l-0.2-0.2l-0.2,0.1l-1,1l-0.2,0.2l0.2,0.2C7,67.2,8.7,68,10.9,68c1.3,0,2.5-0.2,3.3-0.7
				c1.2-0.6,1.8-1.6,1.8-2.9C16,63.2,15.5,62.2,14.4,61.5z"/>
			<path d="M27.2,56.9l-0.1-0.2H27h-1.7h-0.2l-0.1,0.2l-4.7,10.3l-0.2,0.4h0.5h1.7h0.2l0.1-0.2l1.3-2.8h4.7l1.2,2.8l0.1,0.2H30h1.7
				h0.5L32,67.2L27.2,56.9z M27.5,62.7h-2.9l1.4-3.2L27.5,62.7z"/>
			<polygon points="44.5,56.7 44.3,56.7 44.3,57 44.3,64.1 38.6,56.8 38.5,56.7 38.3,56.7 36.8,56.7 36.6,56.7 36.6,57 36.6,67.4 
				36.6,67.6 36.8,67.6 38.3,67.6 38.7,67.6 38.7,67.4 38.7,60.3 44.4,67.6 44.5,67.6 44.6,67.6 46.1,67.6 46.4,67.6 46.4,67.4 
				46.4,57 46.4,56.7 46.1,56.7 			"/>
			<polygon points="61.1,58.5 61.1,57 61.1,56.7 60.8,56.7 52,56.7 51.7,56.7 51.7,57 51.7,58.5 51.7,58.8 52,58.8 55.4,58.8 
				55.4,67.4 55.4,67.6 55.7,67.6 57.2,67.6 57.4,67.6 57.4,67.4 57.4,58.8 60.8,58.8 61.1,58.8 			"/>
			<path d="M115,64.3l-0.2-0.2l-0.2,0.2c-1.2,1.2-2.1,1.6-3.7,1.6c-2.1,0-4.2-1.2-4.2-3.7c0-2.1,1.7-3.7,3.9-3.7
				c1.3,0,2.4,0.5,3.7,1.5l0.2,0.2l0.2-0.2l1.1-1l0.2-0.2l-0.2-0.2c-1.5-1.5-3.3-2.2-5.3-2.2c-3.4,0-6,2.5-6,5.8
				c0,3.4,2.6,5.9,6.3,5.9c2.1,0,4-0.8,5.2-2.2l0.2-0.2l-0.2-0.2L115,64.3z"/>
			<polygon points="122.3,65.7 122.3,56.9 122.3,56.7 122,56.7 120.5,56.7 120.1,56.7 120.1,56.9 120.1,67.6 120.1,67.8 120.5,67.8 
				128.4,67.8 128.7,67.8 128.7,67.6 128.7,66 128.7,65.7 128.4,65.7 			"/>
			<path d="M158.6,60.1c0-2.1-1.4-3.4-3.7-3.4h-6.3h-0.3V57v10.6v0.3h0.3h1.5h0.3v-0.3v-4.1h3.5l2.1,4.2l0.1,0.2h0.2h1.7h0.5
				l-0.2-0.4l-2.1-4.1C157.8,62.8,158.6,61.6,158.6,60.1z M150.5,58.7h4.5c0.4,0,1.5,0,1.5,1.2c0,1.1-0.8,1.4-1.5,1.4h-4.5V58.7z"/>
		</g>
		<g>
			<path class="st0" d="M72.4,84.3v-7.6h1.2v7.6H72.4z"/>
			<path class="st0" d="M81.4,84.5c-0.6,0-1-0.1-1.6-0.2c-0.8-0.2-1.3-0.5-1.9-1l0.6-1.1c0.9,0.6,1.7,1,2.8,1c1.6,0,3.3-0.9,3.4-2.6
				c-1.4,0.6-2.1,0.9-3.6,0.9c-0.5,0-1-0.1-1.4-0.2c-1.1-0.2-2.2-1-2.2-2.2c0-1.3,1.2-2.1,2.3-2.3c0.6-0.2,1.1-0.2,1.7-0.2
				c2.3,0,4.6,1.4,4.6,3.9C86.1,83,83.8,84.5,81.4,84.5z M81.6,77.8c-0.4,0-0.7,0-1,0.1C80.1,78,79,78.4,79,79c0,0.6,0.9,0.9,1.4,1
				c0.3,0.1,0.7,0.1,1,0.1c1.2,0,2.2-0.3,3.3-0.9C84,78.2,82.8,77.8,81.6,77.8z"/>
			<path class="st0" d="M89.1,84.3c0-0.2,0-0.3,0-0.5c0-1.8,1-3.7,2.9-3.9c0.6-0.1,1.2-0.2,1.7-0.2c0.5-0.1,1-0.3,1-0.9
				c0-0.8-1.4-1-2-1c-1.2,0-1.9,0.2-2.9,0.8l-0.6-1.1c1.3-0.7,2-1,3.5-1c1.3,0,3.3,0.6,3.3,2.1c0,1.4-1.2,2.1-2.4,2.2
				c-0.7,0.1-1.4,0.2-1.8,0.3c-0.6,0.2-1,0.6-1.4,1.7h5.6v1.3H89.1z"/>
			<path class="st0" d="M105.8,82.5v1.8h-1.3v-1.8h-5.2l-0.6-1.2l5.5-4.5h1.6v4.5h1.7v1.3H105.8z M104.5,78.1l-3.7,3.1h3.7V78.1z"/>
		</g>
		<path d="M87.2,34.6c0.4-0.2,0.7-0.2,1.1-0.3c-0.6-0.7-1.5-0.9-2.5-0.6c-0.9,0.3-1.4,1-1.4,1.7S85,37,86,37.2
			c1.7,0.4,3.7,0.2,5-1.4c0.3-0.4,0.6-0.8,0.9-1.2c1-1.3,2.1-1.4,3.3,0c0.3,0.4,0.6,0.9,1,1.4c0.5,0.6,1,1.1,1.9,1.2
			c-0.4-0.9-0.7-1.7-1.1-2.7c0.5-0.5,0.9-0.9,1.5-1.4c-0.4-2-2.4-3.1-3.7-4.8c0.6,0,1,0,1.7,0c0.3-0.3,0.7-0.8,1-1.2
			c0.8-1,1.7-1.6,3-1.7c1.4-0.1,2.9-0.2,4.4,0c1.8,0.2,2.5,1.7,1.7,3.3c-1,1.7-2.2,3.3-3.9,4.4c-1,0.6-2.1,1-3.3,0.5
			c-0.5,1.6,0,2.9,0.8,4.1c1.1,1.7,2.9,2.8,4.8,3.7c0.6,0.2,1,0.6,1.6,0.8c0,0.1-0.1,0.2-0.1,0.2c-0.4,0.1-0.7,0.2-1.1,0.2
			c-1.6,0.1-2.8,1-3.5,2.3c-0.4,0.7-0.7,1.4-1,2.1c-1.4,2.9-3.7,3.9-6.7,3c-3.7-1.1-7.2-2.8-10.1-5.2c-2.4-2-3.6-4.5-3.7-7.6
			c-0.2-3.7,2.6-6.3,6.3-5.9c1.5,0.2,2.9,0.6,3.7,2.1c0.4,0.7,0.3,1.4-0.2,2c-0.5,0.6-1.2,0.8-1.9,0.7
			C87.5,35.8,87.1,35.4,87.2,34.6z"/>
		<path d="M74.7,37.8c-0.5,0.2-0.7,0.4-1,0.6c-1,0.6-2.1,0.6-3.1-0.1c-2.3-1.5-3.5-3.7-4.1-6.3c-0.2-0.7,0.2-1.3,0.6-1.8
			c2-2,5.9-2.9,8.3-0.2c0.1,0.2,0.2,0.2,0.5,0.4c0.3-0.4,0.6-0.8,0.9-1.2c1.7-2.4,3.9-4.2,6.8-5c1.8-0.5,3.6-0.4,5.2,0.6
			c0.4,0.2,0.7,0.6,1.4,1.1c-0.5,0.1-0.6,0.2-0.7,0.1c-3.2-1.3-6-0.4-8.4,1.7c-2.1,1.9-3.3,4.4-3.6,7.2c-0.7,7,3.5,12,9.1,14.4
			c1.3,0.6,2.6,0.9,3.9,1.5c1.2,0.6,2.4,1.3,3.4,2.1c1.4,1,2.1,2.5,2.4,4.3c0.1,0.5-0.1,1-0.1,1.6c-0.3-0.2-0.4-0.2-0.5-0.4
			c-1-2.6-3-4.1-5.4-5.2c-1.9-0.9-3.9-1.4-5.7-2.2c-1.8-0.9-3.6-1.8-5.2-3c-2.9-2.1-4.1-5.3-4.5-8.8C74.8,38.7,74.8,38.4,74.7,37.8z
			"/>
		<path d="M88.4,65.8c-0.6,0.4-1,0.7-1.4,1c1.4,1.7,4.6,1.2,5.8-0.6c0-0.8-0.6-1.1-1.2-1.4c-2.1-1-4.4-1-6.7-0.4
			c-1.1,0.3-2,0.9-1.8,2.5c-0.8-0.6-1.1-1.2-1.2-1.9c-0.1-0.8-0.2-1.7,0-2.5c0.6-3.1,2.5-5.5,5.2-7.1c1-0.6,2.1-0.6,3.3-0.1
			c3.3,1.6,5.8,6.9,4.8,10.4c-0.5,1.7-1.5,2.9-3.3,3.4c-1.7,0.6-3.4,0.6-5.1,0c-0.6-0.2-1.2-0.6-1.6-1.1c-0.8-1-0.5-2,0.7-2.4
			C86.8,65.3,87.5,65.3,88.4,65.8z"/>
		<path d="M109.7,42.9c0.6,0.2,0.6,0.8,0.6,1.4c-0.3,1.7-0.5,3.5-2.2,4.6c-1.2,0.8-2.4,1.7-3.7,2.3c-1,0.5-2.2,0.5-3.6-0.6
			c0.6-0.2,1-0.4,1.4-0.5c1.6-0.3,2.9-1,3.7-2.4c0.2-0.4,0.3-0.9,0.5-1.3c-0.1-0.1-0.2-0.1-0.2-0.2c-0.6,0.4-1.1,0.8-1.7,1.1
			c-1-0.7-1-1.6-0.3-2.4c0.2-0.2,0.5-0.4,0.7-0.5C106.6,44,108.1,43.5,109.7,42.9z"/>
	</g>
	<path d="M69.5,56.9l-0.1-0.2h-0.2h-1.7h-0.2l-0.1,0.2l-4.7,10.3l-0.2,0.4H63h1.7h0.2l0.1-0.2l1.3-2.8h4.7l1.2,2.8l0.1,0.2h0.2H74
		h0.5l-0.2-0.4L69.5,56.9z M69.8,62.7H67l1.4-3.2L69.8,62.7z"/>
	<path d="M139.1,56.9l-0.1-0.2h-0.2h-1.7h-0.2l-0.1,0.2l-4.7,10.3l-0.2,0.4h0.5h1.7h0.2l0.1-0.2l1.3-2.8h4.7l1.2,2.8l0.1,0.2h0.2
		h1.7h0.5l-0.2-0.4L139.1,56.9z M139.5,62.7h-2.9l1.4-3.2L139.5,62.7z"/>
	<path d="M170,56.9l-0.1-0.2h-0.2h-1.7h-0.2l-0.1,0.2l-4.7,10.3l-0.2,0.4h0.5h1.7h0.2l0.1-0.2l1.3-2.8h4.7l1.2,2.8l0.1,0.2h0.2h1.7
		h0.5l-0.2-0.4L170,56.9z M170.2,62.7h-2.9l1.4-3.2L170.2,62.7z"/>
</g>
</svg>
