<?xml version="1.0" encoding="utf-8"?>
<!-- Generator: Adobe Illustrator 24.0.0, SVG Export Plug-In . SVG Version: 6.00 Build 0)  -->
<svg version="1.1" id="Capa_1" xmlns="http://www.w3.org/2000/svg" xmlns:xlink="http://www.w3.org/1999/xlink" x="0px" y="0px"
	 viewBox="0 0 800 800" style="enable-background:new 0 0 800 800;" xml:space="preserve">
<style type="text/css">
	.st0{fill-rule:evenodd;clip-rule:evenodd;fill:#BF0411;}
	.st1{fill-rule:evenodd;clip-rule:evenodd;fill:#FFFFFF;}
	.st2{fill-rule:evenodd;clip-rule:evenodd;fill:#00579B;}
	.st3{fill-rule:evenodd;clip-rule:evenodd;fill:#13408F;}
	.st4{fill:#AA83C7;}
</style>
<path class="st0" d="M395.6,248.4c10.7,36.9-35.5,63-57.7,57.7c-22.8-6-30.9-25.5-28.2-45.6c-47.6,18.8-85.2-24.1-75.8-61
	c8.7-36.2,52.3-55,94.6-38.2c-5.4-46.3,23.5-83.8,60.4-83.8c37.6,0,69.1,47.6,39.6,89.9c20.1,2,36.2,14.8,36.2,38.2
	C464.7,229.6,427.8,267.8,395.6,248.4L395.6,248.4z"/>
<path class="st1" d="M422.4,234.3c12.1-12.7,7.4-26.2,3.4-30.9S415.7,188,401,190c27.5-18.8,20.1-69.7-21.5-69.7
	c-17.4,0-42.9,12.1-49,43.6c-30.9-2.7-49,20.1-53,36.9c-10.1,40.9,36.2,61,61,38.2c-5.4,14.8,3.4,22.8,6.7,27.5
	c4,5.4,15.4,13.4,30.2,4.7c14.8-8.7,16.8-15.4,16.8-26.8C403.6,247,410.3,246.3,422.4,234.3L422.4,234.3z"/>
<path class="st2" d="M703.4,452.3v-11.8c0-0.8,0-3.3,0-5.3l0,0l-6.1,17.1h-2.4l-6.1-17.1l0,0c0,2,0,4.5,0,5.3v11.8h-2.4v-20.4h3.7
	l6.1,17.5l0,0l5.7-17.5h4.1v20.4H703.4L703.4,452.3z"/>
<path class="st2" d="M712.3,443.8h6.5c3.3,0,3.7,2,3.7,3.7c0,0.8,0,3.7,0.4,5.3h3.7V452c-0.8-0.4-1.2-0.8-1.2-2v-3.7
	c-0.4-2.9-1.2-3.3-2.4-3.7c1.2-0.8,2.9-2,2.9-5.3c0-4.1-3.7-5.3-6.9-5.3h-9.4v20.8h2.9v-9H712.3z"/>
<path class="st1" d="M712.3,434.4h6.9c1.2,0,3.7,0,3.7,3.3s-2.4,3.7-4.5,3.7h-6.1L712.3,434.4L712.3,434.4z"/>
<path class="st3" d="M108.7,378L77.6,536.5c0.7,3.4,2.5,13.7,8.6,17.5c5.9,3.8,16,1.1,21.2-1.1c146.8-63.7,192.5-83.1,218.6-37.1
	c27.4-9.3,51-17.1,53.8-39.8l-41.6-117c-0.5-1.6-3.4-7.3-9.2-10.5c-5.8-3.3-18.6-4.8-21.1-4.5l-39.9,5.9
	c-20.5,1.3-38,18.1-46.2,35.9l-38.9,92.8c55.4-31.9,43.5-28,76.1-40.5l15.2-43.8c1.3-3.4,3.9-13.9,6.9-15.3s8-1.1,11-1.5l11.9,66.8
	c-22.7-0.3-55.7,2.8-127.9,53c-6.1,4.3-17.8,8.3-18.2,3.2L179.1,391c-0.3-18-19-22.9-28.4-21.9L108.7,378L108.7,378z M264.8,461.6
	c18.5-6.2,56.2-14.6,55.4,9C309,460.9,295.1,459.7,264.8,461.6L264.8,461.6z"/>
<path class="st3" d="M403,326.5L371.8,485c0.7,3.4,2.5,13.7,8.6,17.5c5.9,3.8,16,1.1,21.2-1.1c146.8-63.7,192.5-83.1,218.6-37.1
	c27.4-9.3,51-17.1,53.8-39.8l-41.6-117c-0.5-1.6-3.4-7.3-9.2-10.5c-5.8-3.3-18.6-4.8-21.1-4.5l-39.9,5.9
	c-20.5,1.3-38,18.1-46.2,35.9L477.1,427c55.4-31.9,43.5-28,76.1-40.5l15.2-43.8c1.3-3.4,3.9-13.9,6.9-15.3s8-1.1,11-1.5l11.9,66.8
	c-22.7-0.3-55.7,2.8-127.9,53c-6.1,4.3-17.8,8.3-18.2,3.2l21.4-109.4c-0.3-18-19-22.9-28.4-21.9L403,326.5L403,326.5z M559,410
	c18.5-6.2,56.2-14.6,55.4,9C603.3,409.4,589.4,408.1,559,410L559,410z"/>
<g>
	<path class="st4" d="M111.6,659.9h22.1c5.3,0,10.4,0.6,15.2,1.8s9,3.1,12.6,5.8s6.4,6.1,8.5,10.4c2.1,4.3,3.2,9.5,3.2,15.6
		c0,5.4-1,10.2-3.1,14.3c-2,4.1-4.8,7.6-8.3,10.4c-3.5,2.8-7.5,4.9-12,6.4c-4.5,1.4-9.3,2.2-14.2,2.2h-24.1v-66.9H111.6z
		 M126.3,713.1h7.6c3.4,0,6.6-0.3,9.5-1s5.5-1.8,7.6-3.4c2.1-1.6,3.8-3.7,5-6.3s1.8-5.8,1.8-9.6c0-3.3-0.6-6.1-1.8-8.5s-2.9-4.4-5-6
		s-4.5-2.8-7.3-3.5c-2.8-0.8-5.7-1.2-8.8-1.2h-8.7L126.3,713.1L126.3,713.1z"/>
	<path class="st4" d="M224.8,718.8c-2.3,2.9-5.1,5.1-8.6,6.7s-7,2.4-10.8,2.4c-3.5,0-6.8-0.6-10-1.7c-3.1-1.1-5.8-2.8-8.1-4.9
		c-2.3-2.1-4.1-4.6-5.4-7.6c-1.3-3-2-6.3-2-9.9c0-3.6,0.7-6.9,2-9.9s3.1-5.5,5.4-7.6c2.3-2.1,5-3.7,8.1-4.9c3.1-1.1,6.4-1.7,10-1.7
		c3.3,0,6.2,0.6,8.9,1.7c2.7,1.1,4.9,2.8,6.8,4.9c1.9,2.1,3.3,4.6,4.3,7.6s1.5,6.3,1.5,9.9v4.4h-32.8c0.6,2.7,1.8,4.9,3.7,6.5
		s4.2,2.4,7,2.4c2.3,0,4.3-0.5,5.9-1.6c1.6-1,3-2.4,4.2-4L224.8,718.8z M212.8,698.6c0.1-2.4-0.7-4.4-2.4-6.1
		c-1.6-1.7-3.7-2.5-6.3-2.5c-1.6,0-3,0.3-4.2,0.8s-2.2,1.1-3.1,1.9c-0.8,0.8-1.5,1.7-2,2.7s-0.7,2.1-0.8,3.3h18.8V698.6z"/>
	<path class="st4" d="M261.5,694.3c-2.1-2.6-4.8-3.9-8.2-3.9c-1.2,0-2.4,0.3-3.5,0.8c-1.1,0.6-1.7,1.5-1.7,2.9c0,1.1,0.6,2,1.7,2.5
		c1.2,0.5,2.6,1,4.4,1.4c1.8,0.4,3.7,0.8,5.8,1.3c2,0.5,4,1.2,5.8,2.2s3.3,2.4,4.4,4.1c1.2,1.7,1.7,4,1.7,6.9c0,3-0.6,5.4-1.9,7.3
		c-1.3,1.9-2.9,3.5-5,4.6c-2,1.2-4.3,2-6.8,2.5s-5,0.7-7.5,0.7c-3.2,0-6.4-0.5-9.7-1.4s-6-2.5-8.3-4.9l8.6-9.5
		c1.3,1.6,2.8,2.9,4.4,3.7c1.6,0.8,3.5,1.3,5.6,1.3c1.6,0,3.1-0.2,4.4-0.7s2-1.3,2-2.6c0-1.2-0.6-2.1-1.7-2.7
		c-1.2-0.6-2.6-1.1-4.4-1.5c-1.8-0.4-3.7-0.8-5.8-1.3c-2-0.5-4-1.2-5.8-2.1c-1.8-0.9-3.3-2.3-4.4-4c-1.2-1.7-1.7-4-1.7-6.9
		c0-2.7,0.5-5,1.7-7c1.1-1.9,2.5-3.6,4.3-4.8c1.8-1.3,3.9-2.2,6.2-2.8s4.7-0.9,7.1-0.9c3,0,6.1,0.4,9.2,1.3c3.1,0.9,5.7,2.5,7.8,4.7
		L261.5,694.3z"/>
	<path class="st4" d="M279.4,655.4h14.2v71.3h-14.2V655.4z"/>
	<path class="st4" d="M332.5,720.9h-0.2c-1.6,2.5-3.7,4.2-6.3,5.3c-2.6,1.1-5.4,1.6-8.3,1.6c-2.1,0-4.2-0.3-6.2-0.9
		c-2-0.6-3.7-1.5-5.2-2.7s-2.7-2.7-3.6-4.4c-0.9-1.8-1.3-3.8-1.3-6.1c0-2.6,0.5-4.9,1.5-6.7s2.3-3.3,4-4.5s3.6-2.1,5.7-2.8
		s4.4-1.1,6.7-1.5c2.3-0.3,4.6-0.5,6.9-0.6s4.4-0.1,6.4-0.1c0-2.5-0.9-4.5-2.7-6c-1.8-1.5-3.9-2.2-6.4-2.2c-2.3,0-4.5,0.5-6.4,1.5
		s-3.6,2.3-5.1,4l-7.5-7.7c2.6-2.5,5.7-4.3,9.2-5.5s7.2-1.8,10.9-1.8c4.2,0,7.6,0.5,10.2,1.6c2.7,1,4.8,2.6,6.4,4.6s2.7,4.5,3.3,7.4
		c0.6,2.9,0.9,6.3,0.9,10.1v23.3h-13v-5.9H332.5z M329,706.6c-1.1,0-2.4,0-4,0.1s-3.1,0.4-4.6,0.8c-1.5,0.4-2.7,1.1-3.8,2
		c-1,0.9-1.6,2.1-1.6,3.7c0,1.7,0.7,3,2.2,3.8c1.4,0.8,3,1.2,4.5,1.2c1.4,0,2.7-0.2,4-0.6c1.3-0.4,2.4-0.9,3.4-1.6
		c1-0.7,1.8-1.6,2.4-2.6c0.6-1.1,0.9-2.3,0.9-3.8v-3L329,706.6L329,706.6z"/>
	<path class="st4" d="M385.4,695.6c-0.7-1-1.7-1.8-2.9-2.5c-1.3-0.7-2.6-1-4.1-1c-3.6,0-6.4,1.1-8.3,3.2c-2,2.1-3,4.9-3,8.4
		s1,6.3,3,8.4c2,2.1,4.8,3.2,8.3,3.2c1.6,0,2.9-0.3,4.1-1c1.1-0.7,2.1-1.5,2.9-2.5l9.3,9.8c-2.2,2.3-4.8,3.9-7.8,4.8
		c-3,0.9-5.8,1.4-8.5,1.4c-3.5,0-6.8-0.6-10-1.7c-3.1-1.1-5.8-2.8-8.1-4.9c-2.3-2.1-4.1-4.6-5.4-7.6s-2-6.3-2-9.9
		c0-3.6,0.7-6.9,2-9.9s3.1-5.5,5.4-7.6s5-3.7,8.1-4.9c3.1-1.1,6.4-1.7,10-1.7c2.7,0,5.5,0.5,8.5,1.4s5.6,2.5,7.8,4.8L385.4,695.6z"
		/>
	<path class="st4" d="M431.1,692.2h-12.5v15.3c0,1.3,0.1,2.4,0.2,3.4s0.4,1.9,0.8,2.7s1.1,1.3,2,1.7s2.1,0.6,3.6,0.6
		c0.8,0,1.7-0.1,3-0.2c1.2-0.2,2.2-0.5,2.8-1.1v11.8c-1.6,0.6-3.2,0.9-4.9,1.1c-1.7,0.2-3.4,0.3-5,0.3c-2.4,0-4.6-0.3-6.6-0.8
		s-3.8-1.3-5.3-2.4c-1.5-1.1-2.7-2.5-3.5-4.3s-1.3-3.9-1.3-6.4v-21.8h-9.1v-11.3h9.1v-13.6h14.2v13.6h12.5L431.1,692.2L431.1,692.2z
		"/>
	<path class="st4" d="M436.6,703.8c0-3.6,0.7-6.9,2-9.9s3.1-5.5,5.4-7.6s5-3.7,8.1-4.9c3.1-1.1,6.4-1.7,10-1.7c3.5,0,6.8,0.6,10,1.7
		c3.1,1.1,5.8,2.8,8.1,4.9c2.3,2.1,4.1,4.6,5.4,7.6s2,6.3,2,9.9c0,3.6-0.7,7-2,9.9c-1.3,3-3.1,5.5-5.4,7.6s-5,3.7-8.1,4.9
		c-3.1,1.1-6.4,1.7-10,1.7c-3.5,0-6.8-0.6-10-1.7c-3.1-1.1-5.8-2.8-8.1-4.9c-2.3-2.1-4.1-4.6-5.4-7.6
		C437.2,710.7,436.6,707.4,436.6,703.8z M450.7,703.8c0,3.5,1,6.3,3,8.4c2,2.1,4.8,3.2,8.3,3.2c3.6,0,6.4-1.1,8.3-3.2
		c2-2.1,3-4.9,3-8.4s-1-6.3-3-8.4c-2-2.1-4.8-3.2-8.3-3.2c-3.6,0-6.4,1.1-8.3,3.2C451.7,697.5,450.7,700.3,450.7,703.8z"/>
	<path class="st4" d="M521.7,694.3c-2.1-2.6-4.8-3.9-8.2-3.9c-1.2,0-2.4,0.3-3.5,0.8c-1.1,0.6-1.7,1.5-1.7,2.9c0,1.1,0.6,2,1.7,2.5
		c1.2,0.5,2.6,1,4.4,1.4c1.8,0.4,3.7,0.8,5.8,1.3c2,0.5,4,1.2,5.8,2.2s3.3,2.4,4.4,4.1c1.2,1.7,1.7,4,1.7,6.9c0,3-0.6,5.4-1.9,7.3
		c-1.3,1.9-2.9,3.5-5,4.6c-2,1.2-4.3,2-6.8,2.5s-5,0.7-7.5,0.7c-3.2,0-6.4-0.5-9.7-1.4c-3.3-0.9-6-2.5-8.3-4.9l8.6-9.5
		c1.3,1.6,2.8,2.9,4.4,3.7s3.5,1.3,5.6,1.3c1.6,0,3.1-0.2,4.4-0.7s2-1.3,2-2.6c0-1.2-0.6-2.1-1.7-2.7c-1.2-0.6-2.6-1.1-4.4-1.5
		c-1.8-0.4-3.7-0.8-5.8-1.3c-2-0.5-4-1.2-5.8-2.1s-3.3-2.3-4.4-4c-1.2-1.7-1.7-4-1.7-6.9c0-2.7,0.5-5,1.7-7c1.1-1.9,2.5-3.6,4.3-4.8
		c1.8-1.3,3.9-2.2,6.2-2.8c2.3-0.6,4.7-0.9,7.1-0.9c3,0,6.1,0.4,9.2,1.3c3.1,0.9,5.7,2.5,7.8,4.7L521.7,694.3z"/>
	<path class="st4" d="M568.2,720.9H568c-1.6,2.5-3.7,4.2-6.3,5.3s-5.4,1.6-8.3,1.6c-2.1,0-4.2-0.3-6.2-0.9c-2-0.6-3.7-1.5-5.2-2.7
		s-2.7-2.7-3.6-4.4c-0.9-1.8-1.3-3.8-1.3-6.1c0-2.6,0.5-4.9,1.5-6.7s2.3-3.3,4-4.5s3.6-2.1,5.7-2.8c2.1-0.7,4.4-1.1,6.7-1.5
		c2.3-0.3,4.6-0.5,6.9-0.6c2.3-0.1,4.4-0.1,6.4-0.1c0-2.5-0.9-4.5-2.7-6s-3.9-2.2-6.4-2.2c-2.3,0-4.5,0.5-6.4,1.5s-3.6,2.3-5.1,4
		l-7.5-7.7c2.6-2.5,5.7-4.3,9.2-5.5s7.2-1.8,10.9-1.8c4.2,0,7.6,0.5,10.2,1.6c2.7,1,4.8,2.6,6.4,4.6s2.7,4.5,3.3,7.4
		s0.9,6.3,0.9,10.1v23.3h-13L568.2,720.9L568.2,720.9z M564.8,706.6c-1.1,0-2.4,0-4,0.1s-3.1,0.4-4.6,0.8c-1.5,0.4-2.7,1.1-3.8,2
		s-1.6,2.1-1.6,3.7c0,1.7,0.7,3,2.2,3.8c1.4,0.8,3,1.2,4.5,1.2c1.4,0,2.7-0.2,4-0.6c1.3-0.4,2.4-0.9,3.4-1.6c1-0.7,1.8-1.6,2.4-2.6
		c0.6-1.1,0.9-2.3,0.9-3.8v-3L564.8,706.6L564.8,706.6z"/>
	<path class="st4" d="M638.2,726.7h-13v-6H625c-0.6,0.8-1.3,1.7-2.2,2.5s-2,1.6-3.2,2.3s-2.6,1.3-4.1,1.7s-3,0.7-4.6,0.7
		c-3.4,0-6.5-0.6-9.2-1.7c-2.8-1.2-5.1-2.8-7.1-4.9c-2-2.1-3.5-4.6-4.6-7.5s-1.6-6.1-1.6-9.5c0-3.2,0.5-6.3,1.5-9.2s2.4-5.5,4.2-7.8
		s4-4.1,6.6-5.4c2.6-1.4,5.5-2,8.8-2c3,0,5.7,0.5,8.3,1.4c2.5,0.9,4.6,2.5,6.3,4.7h0.2v-30.4h14.2v71.1H638.2z M625.2,703.8
		c0-3.5-1-6.3-3-8.4c-2-2.1-4.8-3.2-8.3-3.2c-3.6,0-6.4,1.1-8.3,3.2c-2,2.1-3,4.9-3,8.4s1,6.3,3,8.4c2,2.1,4.8,3.2,8.3,3.2
		c3.6,0,6.4-1.1,8.3-3.2C624.2,710,625.2,707.2,625.2,703.8z"/>
	<path class="st4" d="M678.3,720.9h-0.2c-1.6,2.5-3.7,4.2-6.3,5.3s-5.4,1.6-8.3,1.6c-2.1,0-4.2-0.3-6.2-0.9c-2-0.6-3.7-1.5-5.2-2.7
		s-2.7-2.7-3.6-4.4c-0.9-1.8-1.3-3.8-1.3-6.1c0-2.6,0.5-4.9,1.5-6.7s2.3-3.3,4-4.5s3.6-2.1,5.7-2.8c2.1-0.7,4.4-1.1,6.7-1.5
		c2.3-0.3,4.6-0.5,6.9-0.6c2.3-0.1,4.4-0.1,6.4-0.1c0-2.5-0.9-4.5-2.7-6s-3.9-2.2-6.4-2.2c-2.3,0-4.5,0.5-6.4,1.5s-3.6,2.3-5.1,4
		l-7.5-7.7c2.6-2.5,5.7-4.3,9.2-5.5s7.2-1.8,10.9-1.8c4.2,0,7.6,0.5,10.2,1.6c2.7,1,4.8,2.6,6.4,4.6s2.7,4.5,3.3,7.4
		s0.9,6.3,0.9,10.1v23.3h-13L678.3,720.9L678.3,720.9z M674.8,706.6c-1.1,0-2.4,0-4,0.1s-3.1,0.4-4.6,0.8c-1.5,0.4-2.7,1.1-3.8,2
		s-1.6,2.1-1.6,3.7c0,1.7,0.7,3,2.2,3.8c1.4,0.8,3,1.2,4.5,1.2c1.4,0,2.7-0.2,4-0.6c1.3-0.4,2.4-0.9,3.4-1.6c1-0.7,1.8-1.6,2.4-2.6
		c0.6-1.1,0.9-2.3,0.9-3.8v-3L674.8,706.6L674.8,706.6z"/>
</g>
</svg>
