<?xml version="1.0" encoding="utf-8"?>
<!-- Generator: Adobe Illustrator 24.0.0, SVG Export Plug-In . SVG Version: 6.00 Build 0)  -->
<svg version="1.1" id="Capa_1" xmlns="http://www.w3.org/2000/svg" xmlns:xlink="http://www.w3.org/1999/xlink" x="0px" y="0px"
	 viewBox="0 0 800 800" style="enable-background:new 0 0 800 800;" xml:space="preserve">
<style type="text/css">
	.st0{fill-rule:evenodd;clip-rule:evenodd;fill:#BF0411;}
	.st1{fill-rule:evenodd;clip-rule:evenodd;fill:#FFFFFF;}
	.st2{fill-rule:evenodd;clip-rule:evenodd;fill:#00579B;}
	.st3{fill-rule:evenodd;clip-rule:evenodd;fill:#13408F;}
	.st4{fill:#5FDDF2;}
</style>
<path class="st0" d="M395.6,228.4c10.7,36.9-35.5,63-57.7,57.7c-22.8-6-30.9-25.5-28.2-45.6c-47.6,18.8-85.2-24.1-75.8-61
	c8.7-36.2,52.3-55,94.6-38.2C323.1,95,352,57.5,388.9,57.5c37.6,0,69.1,47.6,39.6,89.9c20.1,2,36.2,14.8,36.2,38.2
	C464.7,209.6,427.8,247.8,395.6,228.4L395.6,228.4z"/>
<path class="st1" d="M422.4,214.3c12.1-12.7,7.4-26.2,3.4-30.9S415.7,168,401,170c27.5-18.8,20.1-69.7-21.5-69.7
	c-17.4,0-42.9,12.1-49,43.6c-30.9-2.7-49,20.1-53,36.9c-10.1,40.9,36.2,61,61,38.2c-5.4,14.8,3.4,22.8,6.7,27.5
	c4,5.4,15.4,13.4,30.2,4.7c14.8-8.7,16.8-15.4,16.8-26.8C403.6,227,410.3,226.3,422.4,214.3L422.4,214.3z"/>
<path class="st2" d="M703.4,432.3v-11.8c0-0.8,0-3.3,0-5.3l0,0l-6.1,17.1h-2.4l-6.1-17.1l0,0c0,2,0,4.5,0,5.3v11.8h-2.4v-20.4h3.7
	l6.1,17.5l0,0l5.7-17.5h4.1v20.4H703.4L703.4,432.3z"/>
<path class="st2" d="M712.3,423.8h6.5c3.3,0,3.7,2,3.7,3.7c0,0.8,0,3.7,0.4,5.3h3.7V432c-0.8-0.4-1.2-0.8-1.2-2v-3.7
	c-0.4-2.9-1.2-3.3-2.4-3.7c1.2-0.8,2.9-2,2.9-5.3c0-4.1-3.7-5.3-6.9-5.3h-9.4v20.8h2.9v-9H712.3z"/>
<path class="st1" d="M712.3,414.4h6.9c1.2,0,3.7,0,3.7,3.3s-2.4,3.7-4.5,3.7h-6.1L712.3,414.4L712.3,414.4z"/>
<path class="st3" d="M108.7,358L77.6,516.5c0.7,3.4,2.5,13.7,8.6,17.5c5.9,3.8,16,1.1,21.2-1.1c146.8-63.7,192.5-83.1,218.6-37.1
	c27.4-9.3,51-17.1,53.8-39.8l-41.6-117c-0.5-1.6-3.4-7.3-9.2-10.5c-5.8-3.3-18.6-4.8-21.1-4.5l-39.9,5.9
	c-20.5,1.3-38,18.1-46.2,35.9l-38.9,92.8c55.4-31.9,43.5-28,76.1-40.5l15.2-43.8c1.3-3.4,3.9-13.9,6.9-15.3s8-1.1,11-1.5l11.9,66.8
	c-22.7-0.3-55.7,2.8-127.9,53c-6.1,4.3-17.8,8.3-18.2,3.2L179.1,371c-0.3-18-19-22.9-28.4-21.9L108.7,358L108.7,358z M264.8,441.6
	c18.5-6.2,56.2-14.6,55.4,9C309,440.9,295.1,439.7,264.8,441.6L264.8,441.6z"/>
<path class="st3" d="M403,306.5L371.8,465c0.7,3.4,2.5,13.7,8.6,17.5c5.9,3.8,16,1.1,21.2-1.1c146.8-63.7,192.5-83.1,218.6-37.1
	c27.4-9.3,51-17.1,53.8-39.8l-41.6-117c-0.5-1.6-3.4-7.3-9.2-10.5c-5.8-3.3-18.6-4.8-21.1-4.5l-39.9,5.9
	c-20.5,1.3-38,18.1-46.2,35.9L477.1,407c55.4-31.9,43.5-28,76.1-40.5l15.2-43.8c1.3-3.4,3.9-13.9,6.9-15.3s8-1.1,11-1.5l11.9,66.8
	c-22.7-0.3-55.7,2.8-127.9,53c-6.1,4.3-17.8,8.3-18.2,3.2l21.4-109.4c-0.3-18-19-22.9-28.4-21.9L403,306.5L403,306.5z M559,390
	c18.5-6.2,56.2-14.6,55.4,9C603.3,389.4,589.4,388.1,559,390L559,390z"/>
<g>
	<path class="st4" d="M293.8,615.9h14.7v53.2h27.3v13.6h-42V615.9z"/>
	<path class="st4" d="M341.1,622.4c0-2.3,0.8-4.2,2.4-5.8s3.5-2.4,5.8-2.4s4.2,0.8,5.8,2.4s2.4,3.5,2.4,5.8s-0.8,4.2-2.4,5.8
		s-3.5,2.4-5.8,2.4s-4.2-0.8-5.8-2.4S341.1,624.7,341.1,622.4z M342.3,636.8h14.2v45.8h-14.2V636.8z"/>
	<path class="st4" d="M414.7,678.8c0,8.7-2.2,15.3-6.6,19.8s-11,6.7-20,6.7c-4.1,0-8.1-0.5-12.1-1.4s-7.6-2.7-10.9-5.3l7.8-11.7
		c2.2,1.8,4.5,3.3,6.9,4.3c2.4,1.1,5.1,1.6,8,1.6c4.3,0,7.5-1.1,9.6-3.2c2-2.1,3.1-4.8,3.1-8.1v-4.4h-0.2c-1.6,2.2-3.7,3.8-6.1,4.7
		s-4.7,1.4-6.8,1.4c-3.4,0-6.5-0.6-9.2-1.7c-2.8-1.2-5.1-2.8-7.1-4.9c-2-2.1-3.5-4.6-4.6-7.5s-1.6-6.1-1.6-9.5c0-3,0.5-6,1.5-8.9
		s2.4-5.4,4.2-7.6c1.8-2.2,4-4,6.6-5.3c2.6-1.4,5.5-2,8.8-2c2,0,3.9,0.2,5.5,0.7c1.7,0.4,3.2,1,4.5,1.7s2.5,1.5,3.4,2.3
		s1.7,1.7,2.3,2.5h0.2v-6h13v41.8L414.7,678.8L414.7,678.8z M379.1,659.5c0,1.5,0.3,2.9,0.8,4.3c0.6,1.4,1.4,2.5,2.4,3.6
		c1,1,2.2,1.9,3.6,2.5s2.8,0.9,4.5,0.9c1.6,0,3-0.3,4.4-0.9c1.4-0.6,2.6-1.5,3.6-2.5s1.8-2.2,2.4-3.6c0.6-1.4,0.8-2.8,0.8-4.3
		s-0.3-2.9-0.8-4.3c-0.6-1.4-1.4-2.5-2.4-3.6c-1-1-2.3-1.9-3.6-2.5c-1.4-0.6-2.9-0.9-4.4-0.9c-1.6,0-3.1,0.3-4.5,0.9
		c-1.4,0.6-2.5,1.5-3.6,2.5c-1,1-1.8,2.2-2.4,3.6C379.3,656.5,379.1,658,379.1,659.5z"/>
	<path class="st4" d="M440.2,611.4v31.7h0.2c0.3-0.9,0.8-1.8,1.6-2.6c0.8-0.9,1.7-1.7,2.7-2.4c1.1-0.7,2.3-1.3,3.8-1.7
		c1.4-0.4,3-0.7,4.7-0.7c3.6,0,6.5,0.6,8.7,1.7c2.2,1.1,3.9,2.6,5.1,4.6s2.1,4.2,2.5,6.9c0.4,2.6,0.7,5.5,0.7,8.6v25.3H456v-22.5
		c0-1.3,0-2.7-0.1-4.1c-0.1-1.4-0.4-2.7-0.8-3.9c-0.5-1.2-1.2-2.2-2.2-2.9c-1-0.8-2.4-1.1-4.2-1.1c-1.8,0-3.3,0.3-4.4,1
		s-2,1.5-2.6,2.6s-1,2.3-1.2,3.7s-0.3,2.8-0.3,4.3v22.8H426v-71.3L440.2,611.4L440.2,611.4z"/>
	<path class="st4" d="M511.4,648.2H499v15.3c0,1.3,0.1,2.4,0.2,3.4s0.4,1.9,0.8,2.7s1.1,1.3,2,1.7s2.1,0.6,3.6,0.6
		c0.8,0,1.7-0.1,3-0.2c1.2-0.2,2.2-0.5,2.8-1.1v11.8c-1.6,0.6-3.2,0.9-4.9,1.1c-1.7,0.2-3.4,0.3-5,0.3c-2.4,0-4.6-0.3-6.6-0.8
		s-3.8-1.3-5.3-2.4c-1.5-1.1-2.7-2.5-3.5-4.3s-1.3-3.9-1.3-6.4v-21.8h-9.1v-11.3h9.1v-13.6H499v13.6h12.5v11.4H511.4z"/>
</g>
</svg>
