<?xml version="1.0" encoding="utf-8"?>
<!-- Generator: Adobe Illustrator 19.0.0, SVG Export Plug-In . SVG Version: 6.00 Build 0)  -->
<svg version="1.1" id="Capa_3" xmlns="http://www.w3.org/2000/svg" xmlns:xlink="http://www.w3.org/1999/xlink" x="0px" y="0px"
	 viewBox="101 -54 241.3 148" style="enable-background:new 101 -54 241.3 148;" xml:space="preserve">
<style type="text/css">
	.st0{display:none;fill:#76A6B7;}
	.st1{fill:#5DA8BA;}
	.st2{fill:#65BAD1;}
	.st3{fill:none;stroke:#71C7DB;stroke-width:0.8;stroke-linecap:round;stroke-linejoin:round;stroke-miterlimit:10;}
	.st4{fill:none;stroke:#7EBFCE;stroke-width:0.8;stroke-linecap:round;stroke-linejoin:round;stroke-miterlimit:10;}
	.st5{fill:none;stroke:#87CCD8;stroke-width:0.8;stroke-linecap:round;stroke-linejoin:round;stroke-miterlimit:10;}
	.st6{fill:none;stroke:#518189;stroke-width:0.8;stroke-linecap:round;stroke-linejoin:round;stroke-miterlimit:10;}
</style>
<rect id="XMLID_151_" x="-257" y="151" class="st0" width="241.3" height="152.7"/>
<path id="XMLID_394_" class="st1" d="M291.4-9.1c-2.4-6.1-5.9-11.8-10.6-16.4c-12.3-12.1-28.7-17.9-45.9-15.2
	c-14.6,2.2-28,11.2-39.4,20.1c-0.5,0.4-1.1,0.9-1.6,1.3c-13.6,5.8-26,13.4-35.1,26.1c-5.6,7.7-8.8,17.3-9.6,26.7
	c-1,11.8,3.2,22.7,9.9,32.1c12.1,16.9,33.6,22.4,53.3,19.8c18.1-2.4,35.6-14,47.8-27.1c0.8-0.9,1.6-1.7,2.4-2.6
	c3.6-2.1,6.9-4.6,9.8-7.8c6.4-7.1,12-14.6,15.5-23.3c0.2-0.2,0.4-0.5,0.6-0.7c4.9-5.8,6.4-14.7,5.6-22.5
	C293.8-2.3,292.9-5.8,291.4-9.1z M235.7,15.4c0.5,0,1.1,0,1.6,0C236.9,15.5,236.4,15.5,235.7,15.4C235.7,15.4,235.7,15.4,235.7,15.4
	z"/>
<path id="XMLID_1_" class="st2" d="M299.3,5.8c-1.5-6.4-4.1-12.6-8-17.8c-10.4-13.8-25.8-21.9-43.1-21.8c-14.7,0.1-29.3,7-41.9,14.1
	c-0.6,0.3-1.2,0.7-1.8,1.1c-14.3,3.7-27.7,9.5-38.6,20.6c-6.6,6.8-11.2,15.8-13.4,25c-2.8,11.5-0.2,22.9,5.1,33.2
	c9.5,18.5,29.9,27.1,49.8,27.5c18.3,0.3,37.2-8.6,51.3-19.8c0.9-0.7,1.8-1.5,2.7-2.2c3.9-1.5,7.5-3.5,10.8-6.2
	c7.3-6,14-12.7,18.7-20.7c0.2-0.2,0.5-0.4,0.7-0.6c5.7-5.1,8.5-13.6,8.8-21.5C300.7,12.9,300.4,9.3,299.3,5.8z M240.7,21.9
	c0.5,0.1,1.1,0.2,1.6,0.3C241.9,22.1,241.3,22,240.7,21.9C240.6,21.9,240.6,21.9,240.7,21.9z"/>
<path id="XMLID_474_" class="st3" d="M291.8-28c-0.6-0.6-1.2-1.2-1.8-1.8l-0.8-0.8c-1.4-1.4-3.1-2.1-4.8-2.1c-0.4,0-0.8,0-1.3,0.1
	c1.7-1.2,2.9-3.2,2.9-5.4c0-1.3,0-2.6,0-4.1c0-1.3-0.5-1.8-1.8-1.9c-1.3,0-2.7,0-4,0c-2.3,0-4.3,1.1-5.5,2.9c0.4-2-0.1-4.1-1.6-5.7
	c-0.9-1-1.9-1.9-2.8-2.8l-0.2-0.2c-0.9-0.9-1.7-0.9-2.6,0c-0.9,0.9-1.8,1.7-2.7,2.7c-1.6,1.7-2.3,3.9-1.8,6c-1.1-1.7-3-2.8-5.1-2.9
	c-1.5,0-2.9,0-4.4,0c-1.2,0-1.8,0.6-1.8,1.8c0,1.5,0,2.9,0,4.3c0,1.8,0.8,3.3,2.1,4.6c0.2,0.2,0.5,0.4,0.8,0.6
	c-0.4-0.1-0.8-0.1-1.3-0.1c-1.7,0-3.3,0.7-4.6,1.8c-1,1-2,1.9-2.9,2.9c-0.9,0.9-0.9,1.7,0,2.6c0.5,0.5,0.9,0.9,1.4,1.4
	c0.3,0.3,0.7,0.7,1,1c1.5,1.5,3.3,2.4,5.1,2.4c0.4,0,0.8,0,1.2-0.1c-1.7,1.2-2.8,3.1-2.9,5.2c0,1.5,0,3,0,4.3c0,1.2,0.6,1.8,1.8,1.8
	c1.4,0,2.8,0,4.2,0c1.5,0,2.9-0.5,4.1-1.5c0.5-0.4,0.9-0.9,1.2-1.3c-0.4,2,0.2,4.2,1.7,5.7c1,1,2,2,3,3c0.3,0.3,0.8,0.7,1.3,0.7
	c0.6,0,1.1-0.4,1.4-0.7c0.8-0.8,1.6-1.6,2.6-2.6c1.7-1.8,2.4-4,2-6.1c1.2,1.7,3.2,2.9,5.4,2.9c1.4,0,2.7,0,4.1,0
	c1.3,0,1.8-0.6,1.9-1.8c0-1.3,0-2.7,0-4c0-2.3-1.1-4.3-2.9-5.5c0.4,0.1,0.8,0.1,1.3,0.1c1.7,0,3.4-0.7,4.6-1.9
	c0.9-0.8,1.8-1.7,2.6-2.6l0.2-0.2C292.7-26.2,292.7-27.1,291.8-28z M273.6-23.1c0,0.2,0,0.3,0,0.5c0,0.2,0,0.3,0,0.5
	c0,0.1,0,0.1,0,0.2c-0.1,0-0.1,0-0.2,0c-0.4,0-0.9,0-1.3,0c-0.9-0.1-1.7,0.2-2.3,0.9c-0.3,0.3-0.6,0.6-0.9,1
	c-0.1,0.1-0.1,0.1-0.2,0.2l-0.2-0.2c-0.4-0.4-0.7-0.7-1-1.1c-0.5-0.6-1.1-0.9-1.9-0.9c-0.1,0-0.1,0-0.2,0c-0.4,0-0.8,0-1.3,0
	c-0.1,0-0.2,0-0.3,0c0-0.1,0-0.2,0-0.2c0-0.2,0-0.4,0-0.6c0-0.2,0-0.5,0-0.7c0-0.1,0-0.1,0-0.2c0-0.8-0.3-1.4-0.9-1.9
	c-0.3-0.3-0.7-0.6-1-0.9c0,0-0.1-0.1-0.2-0.1c0-0.1,0.1-0.1,0.1-0.2c0.3-0.3,0.5-0.6,0.8-0.8c0.8-0.6,1.1-1.4,1.1-2.3
	c0-0.1,0-0.3,0-0.4c0-0.2,0-0.3,0-0.5c0-0.2,0-0.3,0-0.5c0-0.1,0-0.1,0-0.2c0.1,0,0.1,0,0.2,0c0.4,0,0.9,0,1.3,0
	c0.9,0.1,1.7-0.2,2.3-0.9c0.3-0.3,0.6-0.6,0.9-1c0.1-0.1,0.1-0.1,0.2-0.2c0.1,0.1,0.1,0.1,0.2,0.2c0.3,0.4,0.6,0.7,0.9,1
	c0.6,0.6,1.2,0.9,2.1,0.9c0.4,0,0.8,0,1.3,0c0.1,0,0.2,0,0.3,0c0,0.1,0,0.2,0,0.3c0,0.2,0,0.4,0,0.6c0,0.3,0,0.5,0,0.8l0,0.1
	c0,0.7,0.3,1.3,0.8,1.7c0.4,0.3,0.7,0.7,1.1,1l0.2,0.2c0,0.1-0.1,0.1-0.1,0.2c-0.3,0.3-0.5,0.6-0.8,0.8c-0.8,0.6-1.1,1.4-1.1,2.3
	C273.5-23.3,273.5-23.2,273.6-23.1z M266.7-13c0.5-0.6,1-1.1,1.6-1.7c0.2-0.2,0.3-0.3,0.5-0.5c0.2,0.2,0.3,0.3,0.5,0.5
	c0.6,0.5,1.1,1.1,1.6,1.6c0.5,0.6,0.7,1.3,0.7,2c0,0.8-0.3,1.6-0.8,2.2c-0.5,0.5-1,1-1.5,1.6c-0.1,0.1-0.3,0.3-0.4,0.4
	c-0.2-0.2-0.4-0.3-0.5-0.5c-0.6-0.6-1.2-1.1-1.6-1.7c-0.4-0.5-0.7-1.2-0.7-1.9C266-11.8,266.2-12.5,266.7-13z M249.5-26.2
	c-0.1-0.2-0.3-0.3-0.5-0.5c0.1-0.1,0.3-0.2,0.4-0.4c0.5-0.5,1-1,1.5-1.4c0.6-0.6,1.5-0.9,2.3-0.9c0.8,0,1.6,0.3,2.3,0.9
	c0.5,0.4,1,0.9,1.5,1.4c0.1,0.1,0.3,0.3,0.5,0.4c-0.2,0.2-0.4,0.4-0.6,0.6c-0.7,0.6-1.3,1.3-2,1.7c-0.5,0.3-1,0.5-1.6,0.5
	c-0.8,0-1.5-0.3-2.1-0.8C250.6-25.1,250.1-25.6,249.5-26.2z M254.8-38.8c0-0.3,0-0.7,0-1.1c0-0.2,0-0.5,0-0.7c0.2,0,0.4,0,0.7,0
	c0.3,0,0.7,0,1,0c0.5,0,0.9,0,1.2,0c1.4,0.1,2.7,1.2,2.8,2.6c0,0.4,0.1,0.8,0.1,1.3c0,0.4,0,0.7,0,1.1c0,0.3,0,0.5,0,0.8
	c-0.2,0-0.5,0-0.7,0c-0.3,0-0.6,0-1,0c-0.6,0-1,0-1.5-0.1c-0.1,0-0.2-0.1-0.4-0.1c-0.9-0.3-2.1-1-2.2-2.6
	C254.9-37.9,254.8-38.3,254.8-38.8C254.8-38.8,254.8-38.8,254.8-38.8z M259.7-24.3c1.1,1,1.2,1.2,1,2.4c-0.1,0-0.2,0-0.3,0
	c-0.5,0-1,0-1.4,0l-0.3,0c-0.6,0-1.3,0-1.9,0.2c0,0,0,0,0,0c0.5-0.3,1-0.7,1.5-1.2C258.7-23.4,259.2-23.8,259.7-24.3z M254.9-12.7
	c0-0.2,0-0.5,0-0.7c0-0.3,0-0.7,0-1c0-0.5,0-0.9,0-1.2c0.1-1.4,1.2-2.6,2.6-2.8c0.4-0.1,0.8-0.1,1.3-0.1c0.4,0,0.7,0,1.1,0
	c0.3,0,0.5,0,0.8,0c0,0.3,0,0.5,0,0.8c0,0.3,0,0.6,0,0.8c0,0.5,0,1.2-0.2,1.8c-0.4,1.3-1.3,2.1-2.6,2.2c-0.4,0-0.8,0.1-1.3,0.1
	c-0.3,0-0.7,0-1.1,0C255.3-12.7,255.1-12.7,254.9-12.7z M270.8-40.1c-0.5,0.5-1,1-1.5,1.5c-0.2,0.2-0.3,0.3-0.5,0.5
	c-0.2-0.2-0.3-0.3-0.4-0.4c-0.5-0.5-1-1-1.5-1.6c-0.5-0.6-0.8-1.4-0.8-2.2c0-0.7,0.2-1.4,0.7-2c0.5-0.6,1-1.1,1.6-1.7
	c0.2-0.2,0.3-0.3,0.5-0.5c0.2,0.2,0.3,0.3,0.5,0.5c0.6,0.6,1.1,1.1,1.6,1.6c0.5,0.6,0.7,1.3,0.7,2C271.6-41.4,271.3-40.7,270.8-40.1
	z M282.7-40.6c0,0.2,0,0.5,0,0.7c0,0.3,0,0.7,0,1c0,0.5,0,0.9,0,1.2c-0.1,1.4-1.2,2.6-2.6,2.8c-0.4,0.1-0.8,0.1-1.3,0.1
	c-0.4,0-0.7,0-1.1,0c-0.3,0-0.5,0-0.8,0c0-0.3,0-0.5,0-0.8c0-0.3,0-0.6,0-0.9c0-0.7,0.1-1.3,0.2-1.8c0.4-1.3,1.3-2.1,2.6-2.2
	c0.4,0,0.8-0.1,1.3-0.1c0.3,0,0.7,0,1.1,0C282.2-40.6,282.5-40.6,282.7-40.6z M277.7-18.6c0.9,0,1.8,0,2.6,0.2
	c1.3,0.3,2.1,1.2,2.3,2.5c0.1,0.4,0.1,0.8,0.1,1.3c0,0.4,0,0.7,0,1.1c0,0.2,0,0.5,0,0.7c-0.2,0-0.5,0-0.7,0c-0.4,0-0.7,0-1.1,0
	c-0.5,0-0.9,0-1.3-0.1c-1.3-0.2-2.2-1-2.5-2.3c-0.2-0.8-0.2-1.7-0.2-2.6c0-0.3,0-0.6,0-0.9C277.1-18.6,277.4-18.6,277.7-18.6z
	 M280.8-26.2c-0.1-0.2-0.3-0.3-0.4-0.5c0.1-0.1,0.3-0.3,0.4-0.5c0.5-0.6,1.1-1.1,1.6-1.6c0.6-0.5,1.2-0.7,2-0.7
	c0.8,0,1.6,0.3,2.2,0.9c0.5,0.5,1,1,1.5,1.5c0.1,0.2,0.3,0.3,0.5,0.5c-0.2,0.2-0.3,0.3-0.5,0.5c-0.5,0.5-1,1-1.6,1.5
	c-0.6,0.5-1.4,0.8-2.2,0.8c-0.7,0-1.5-0.3-2-0.7C281.8-25.1,281.3-25.6,280.8-26.2z M279.5-30.6l-1.6,1.6c-0.9-0.7-1.3-1.4-1-2.4
	c0.1,0,0.1,0,0.2,0c0.4,0,0.8,0,1.3,0c0.2,0,0.3,0,0.5,0c0.6,0,1.3,0,1.9-0.2c0,0,0,0,0.1,0C280.3-31.3,279.9-31,279.5-30.6z
	 M273.7-38.2c-0.1,0.7-0.1,1.3-0.1,1.9c0,0.3,0,0.6,0,0.9c0,0.2,0,0.4,0,0.6c-1,0.2-1.7-0.1-2.5-1.1c0.1-0.1,0.3-0.3,0.4-0.4
	c0.5-0.5,1.1-1,1.6-1.5c0.3-0.3,0.5-0.6,0.7-0.9C273.7-38.5,273.7-38.3,273.7-38.2z M264.7-37.5c0.5,0.5,1,0.9,1.4,1.4
	c0.1,0.1,0.2,0.2,0.3,0.3c-0.7,0.9-1.1,1.2-1.7,1.2c-0.2,0-0.4,0-0.7-0.1c0-0.3,0-0.6,0-0.9c0-0.9,0-1.8-0.2-2.7c0-0.1,0-0.2,0-0.3
	C264.1-38.2,264.4-37.9,264.7-37.5z M258.5-31.4l0.9,0l1.3,0c0.2,1-0.1,1.8-1.1,2.5c-0.1-0.1-0.2-0.3-0.3-0.4
	c-0.5-0.5-0.9-1-1.4-1.5c-0.3-0.3-0.6-0.5-0.9-0.8C257.4-31.5,257.9-31.4,258.5-31.4z M264-16.3c0-0.6,0-1.2,0-1.8l0-0.5
	c1-0.2,1.7,0.1,2.5,1.1c-0.1,0.1-0.3,0.3-0.4,0.4c-0.5,0.5-1.1,1-1.6,1.5c-0.2,0.2-0.4,0.5-0.6,0.8C264-15.2,264-15.7,264-16.3z
	 M272.8-15.9c-0.4-0.4-0.8-0.9-1.3-1.3l-0.4-0.4c0.8-0.9,1.1-1.1,1.6-1.1c0.2,0,0.5,0,0.8,0.1c0,0.2,0,0.5,0,0.8c0,0.3,0,0.5,0,0.8
	c0,0.6,0,1.3,0.1,2c0,0.1,0,0.2,0.1,0.4C273.5-15.1,273.2-15.5,272.8-15.9z M280.4-21.7c-0.7-0.1-1.4-0.1-2-0.1c-0.3,0-0.6,0-0.9,0
	c-0.2,0-0.4,0-0.6,0c-0.2-1,0.1-1.7,1.1-2.4c0.1,0.1,0.3,0.3,0.4,0.4c0.5,0.5,0.9,1,1.4,1.4c0.3,0.3,0.7,0.6,1,0.8
	C280.6-21.7,280.5-21.7,280.4-21.7z"/>
<g id="XMLID_53_">
	<path id="XMLID_61_" class="st4" d="M170,59.3c0,0,7.5,15-14.9,24.8C155,84,147.8,66,170,59.3z"/>
	<path id="XMLID_60_" class="st4" d="M170,59.3c0,0-5.2,14.6-14.9,24.8"/>
	<path id="XMLID_59_" class="st4" d="M171.1,66.5c0,0-2.7-1.9-2.2-4.5c0,0-2.8,1.8-5.1-0.3"/>
	<path id="XMLID_58_" class="st4" d="M170.1,70.9c0,0-3-3-2.6-5.7c0,0-4.1,1.9-7.8-0.6"/>
	<path id="XMLID_57_" class="st4" d="M168.3,74.2c0,0-2.8-2.6-2.7-5.3c0,0-5.3,2.4-8.7-1.3"/>
	<path id="XMLID_56_" class="st4" d="M165.9,77c0,0-2.8-2.2-2.3-4.6c0,0-5,2.1-8.7-1.1"/>
	<path id="XMLID_55_" class="st4" d="M162.9,79.6c0,0-2.6-1.8-1.2-4c0,0-4.7,3-7.6-0.4"/>
	<path id="XMLID_54_" class="st4" d="M159.8,81.7c0,0-1.4-1.6-0.6-2.7c0,0-2.7,1.3-5.3-0.3"/>
</g>
<g id="XMLID_13_">
	<path id="XMLID_21_" class="st5" d="M300.8,65.3c0,0,12.4-4.4,17.8,14.1C318.6,79.4,303.8,83.3,300.8,65.3z"/>
	<path id="XMLID_20_" class="st5" d="M300.8,65.3c0,0,10.9,5.5,17.8,14.1"/>
	<path id="XMLID_19_" class="st5" d="M306.5,65.2c0,0-1.8,1.9-3.7,1.3c0,0,1.1,2.4-0.7,3.9"/>
	<path id="XMLID_18_" class="st5" d="M309.8,66.4c0,0-2.6,2.1-4.7,1.5c0,0,1.1,3.4-1.2,6"/>
	<path id="XMLID_17_" class="st5" d="M312.3,68.1c0,0-2.3,1.9-4.4,1.5c0,0,1.3,4.3-1.9,6.6"/>
	<path id="XMLID_16_" class="st5" d="M314.2,70.2c0,0-2,2-3.8,1.3c0,0,1.1,4.1-1.7,6.7"/>
	<path id="XMLID_15_" class="st5" d="M315.9,72.8c0,0-1.7,1.9-3.2,0.6c0,0,1.9,3.9-1.1,5.9"/>
	<path id="XMLID_14_" class="st5" d="M317.3,75.4c0,0-1.4,0.9-2.2,0.2c0,0,0.8,2.2-0.8,4.1"/>
</g>
<g id="XMLID_4_">
	<path id="XMLID_12_" class="st4" d="M160.2,57.6c0,0-1.2,11-17.1,8.4C143.1,66,145.5,53.4,160.2,57.6z"/>
	<path id="XMLID_11_" class="st4" d="M160.2,57.6c0,0-8.1,6.2-17.1,8.4"/>
	<path id="XMLID_10_" class="st4" d="M158.2,62c0,0-0.8-2.1,0.4-3.3c0,0-2.2,0-2.7-2"/>
	<path id="XMLID_9_" class="st4" d="M156.1,64.1c0,0-0.6-2.7,0.6-4.1c0,0-3-0.4-4.1-3.1"/>
	<path id="XMLID_8_" class="st4" d="M153.9,65.3c0,0-0.6-2.4,0.4-3.9c0,0-3.8-0.6-4.4-3.8"/>
	<path id="XMLID_7_" class="st4" d="M151.6,66c0,0-0.8-2.2,0.4-3.4c0,0-3.5-0.6-4.4-3.7"/>
	<path id="XMLID_6_" class="st4" d="M149,66.3c0,0-0.8-1.9,0.7-2.7c0,0-3.7,0-4.1-2.9"/>
	<path id="XMLID_5_" class="st4" d="M146.6,66.4c0,0-0.2-1.4,0.6-1.7c0,0-1.9-0.2-2.8-2.1"/>
</g>
<g id="XMLID_22_">
	<path id="XMLID_30_" class="st6" d="M147.1-11.3c0,0-9.3,6-17.2-8C129.8-19.3,141.2-25.3,147.1-11.3z"/>
	<path id="XMLID_29_" class="st6" d="M147.1-11.3c0,0-9.9-2.4-17.2-8"/>
	<path id="XMLID_28_" class="st6" d="M142.4-10c0,0,1.1-1.9,2.8-1.7c0,0-1.4-1.7-0.2-3.3"/>
	<path id="XMLID_27_" class="st6" d="M139.5-10.4c0,0,1.8-2.2,3.6-2.1c0,0-1.6-2.6-0.2-5.1"/>
	<path id="XMLID_26_" class="st6" d="M137.2-11.3c0,0,1.5-2,3.3-2.1c0,0-1.9-3.3,0.2-5.8"/>
	<path id="XMLID_25_" class="st6" d="M135.2-12.7c0,0,1.2-2,2.8-1.8c0,0-1.7-3.1,0.1-5.8"/>
	<path id="XMLID_24_" class="st6" d="M133.3-14.5c0,0,1-1.8,2.5-1.1c0,0-2.3-2.8-0.3-5"/>
	<path id="XMLID_23_" class="st6" d="M131.7-16.3c0,0,0.9-1,1.7-0.6c0,0-1-1.6-0.1-3.5"/>
</g>
</svg>
