<?xml version="1.0" encoding="utf-8"?>
<!-- Generator: Adobe Illustrator 19.0.0, SVG Export Plug-In . SVG Version: 6.00 Build 0)  -->
<svg version="1.1" id="Capa_1" xmlns="http://www.w3.org/2000/svg" xmlns:xlink="http://www.w3.org/1999/xlink" x="0px" y="0px"
	 viewBox="-2 3 35 35" style="enable-background:new -2 3 35 35;" xml:space="preserve">
<style type="text/css">
	.st0{fill:#FFFFFF;}
</style>
<g>
	<path class="st0" d="M22.7,5h-14C3.9,5,0,8.9,0,13.6v14c0,4.8,3.9,8.6,8.6,8.6h14c4.8,0,8.6-3.9,8.6-8.6v-14
		C31.3,8.9,27.5,5,22.7,5z M28.6,27.7c0,3.2-2.6,5.9-5.9,5.9h-14c-3.2,0-5.9-2.6-5.9-5.9v-14c0-3.2,2.6-5.9,5.9-5.9h14
		c3.2,0,5.9,2.6,5.9,5.9L28.6,27.7L28.6,27.7z"/>
	<path class="st0" d="M15.7,12.6c-4.5,0-8.1,3.6-8.1,8.1c0,4.5,3.6,8.1,8.1,8.1s8.1-3.6,8.1-8.1C23.7,16.2,20.1,12.6,15.7,12.6z
		 M15.7,26c-2.9,0-5.3-2.4-5.3-5.3c0-2.9,2.4-5.3,5.3-5.3s5.3,2.4,5.3,5.3C21,23.6,18.6,26,15.7,26z"/>
	<path class="st0" d="M24.1,10.2c-0.5,0-1.1,0.2-1.4,0.6c-0.4,0.4-0.6,0.9-0.6,1.4c0,0.5,0.2,1.1,0.6,1.4c0.4,0.4,0.9,0.6,1.4,0.6
		c0.5,0,1.1-0.2,1.4-0.6c0.4-0.4,0.6-0.9,0.6-1.4c0-0.5-0.2-1.1-0.6-1.4C25.1,10.5,24.6,10.2,24.1,10.2z"/>
</g>
</svg>
