<?xml version="1.0" encoding="utf-8"?>
<!-- Generator: Adobe Illustrator 19.0.0, SVG Export Plug-In . SVG Version: 6.00 Build 0)  -->
<svg version="1.1" id="Capa_1" xmlns="http://www.w3.org/2000/svg" xmlns:xlink="http://www.w3.org/1999/xlink" x="0px" y="0px"
	 viewBox="-282 283 35 35" style="enable-background:new -282 283 35 35;" xml:space="preserve">
<style type="text/css">
	.st0{fill:#FFFFFF;}
</style>
<g>
	<path class="st0" d="M-255.8,283h-4.5c-5.1,0-8.4,3.4-8.4,8.6v4h-4.6c-0.4,0-0.7,0.3-0.7,0.7v5.8c0,0.4,0.3,0.7,0.7,0.7h4.6v14.5
		c0,0.4,0.3,0.7,0.7,0.7h6c0.4,0,0.7-0.3,0.7-0.7v-14.5h5.3c0.4,0,0.7-0.3,0.7-0.7v-5.8c0-0.2-0.1-0.4-0.2-0.5s-0.3-0.2-0.5-0.2
		h-5.3v-3.4c0-1.6,0.4-2.4,2.5-2.4h3.1c0.4,0,0.7-0.3,0.7-0.7v-5.3C-255.1,283.4-255.5,283-255.8,283z"/>
</g>
</svg>
