<?xml version="1.0" encoding="utf-8"?>
<!-- Generator: Adobe Illustrator 19.0.0, SVG Export Plug-In . SVG Version: 6.00 Build 0)  -->
<svg version="1.1" id="Layer_1" xmlns="http://www.w3.org/2000/svg" xmlns:xlink="http://www.w3.org/1999/xlink" x="0px" y="0px"
	 viewBox="-49 1245 512 512" style="enable-background:new -49 1245 512 512;" xml:space="preserve">
<style type="text/css">
	.st0{fill:#AFB9D2;}
	.st1{fill:#8F96AC;}
	.st2{fill:#FFFFFF;}
	.st3{fill:#5B5D6E;}
	.st4{fill:#C7CFE2;}
</style>
<circle class="st0" cx="207" cy="1501" r="256"/>
<circle class="st1" cx="207" cy="1501" r="229.5"/>
<circle class="st2" cx="207" cy="1501" r="211.9"/>
<path class="st0" d="M109.9,1606.9c-2.3,0-4.5-0.9-6.2-2.6c-3.4-3.4-3.4-9,0-12.5l119.2-119.2c3.4-3.4,9-3.4,12.5,0
	c3.4,3.4,3.4,9,0,12.5l-119.2,119.2C114.4,1606.1,112.2,1606.9,109.9,1606.9z"/>
<g>
	<path class="st3" d="M207,1350.9L207,1350.9c-4.9,0-8.8-4-8.8-8.8v-26.5c0-4.9,4-8.8,8.8-8.8l0,0c4.9,0,8.8,4,8.8,8.8v26.5
		C215.8,1347,211.9,1350.9,207,1350.9z"/>
	<path class="st3" d="M207,1695.2L207,1695.2c-4.9,0-8.8-4-8.8-8.8v-26.5c0-4.9,4-8.8,8.8-8.8l0,0c4.9,0,8.8,4,8.8,8.8v26.5
		C215.8,1691.3,211.9,1695.2,207,1695.2z"/>
	<path class="st3" d="M357.1,1501L357.1,1501c0-4.9,4-8.8,8.8-8.8h26.5c4.9,0,8.8,4,8.8,8.8l0,0c0,4.9-4,8.8-8.8,8.8h-26.5
		C361,1509.8,357.1,1505.9,357.1,1501z"/>
	<path class="st3" d="M12.8,1501L12.8,1501c0-4.9,4-8.8,8.8-8.8h26.5c4.9,0,8.8,4,8.8,8.8l0,0c0,4.9-4,8.8-8.8,8.8H21.6
		C16.7,1509.8,12.8,1505.9,12.8,1501z"/>
</g>
<g>
	<path class="st1" d="M375.2,1598.1L375.2,1598.1c-2.4,4.2-7.8,5.7-12.1,3.2l-7.6-4.4c-4.2-2.4-5.7-7.8-3.2-12.1l0,0
		c2.4-4.2,7.8-5.7,12.1-3.2l7.6,4.4C376.2,1588.5,377.6,1593.9,375.2,1598.1z"/>
	<path class="st1" d="M61.7,1417.1L61.7,1417.1c-2.4,4.2-7.8,5.7-12.1,3.2L42,1416c-4.2-2.4-5.7-7.8-3.2-12.1l0,0
		c2.4-4.2,7.8-5.7,12.1-3.2l7.6,4.4C62.7,1407.5,64.2,1412.9,61.7,1417.1z"/>
	<path class="st1" d="M38.8,1598.1L38.8,1598.1c2.4,4.2,7.8,5.7,12.1,3.2l7.6-4.4c4.2-2.4,5.7-7.8,3.2-12.1l0,0
		c-2.4-4.2-7.8-5.7-12.1-3.2L42,1586C37.8,1588.5,36.4,1593.9,38.8,1598.1z"/>
	<path class="st1" d="M352.3,1417.1L352.3,1417.1c2.4,4.2,7.8,5.7,12.1,3.2l7.6-4.4c4.2-2.4,5.7-7.8,3.2-12.1l0,0
		c-2.4-4.2-7.8-5.7-12.1-3.2l-7.6,4.4C351.3,1407.5,349.8,1412.9,352.3,1417.1z"/>
	<path class="st1" d="M109.9,1669.2L109.9,1669.2c-4.2-2.4-5.7-7.8-3.2-12.1l4.4-7.6c2.4-4.2,7.8-5.7,12.1-3.2l0,0
		c4.2,2.4,5.7,7.8,3.2,12.1l-4.4,7.6C119.5,1670.2,114.1,1671.6,109.9,1669.2z"/>
	<path class="st1" d="M290.9,1355.7L290.9,1355.7c-4.2-2.4-5.7-7.8-3.2-12.1l4.4-7.6c2.4-4.2,7.8-5.7,12.1-3.2l0,0
		c4.2,2.4,5.7,7.8,3.2,12.1l-4.4,7.6C300.5,1356.7,295.1,1358.2,290.9,1355.7z"/>
	<path class="st1" d="M109.9,1332.8L109.9,1332.8c-4.2,2.4-5.7,7.8-3.2,12.1l4.4,7.6c2.4,4.2,7.8,5.7,12.1,3.2l0,0
		c4.2-2.4,5.7-7.8,3.2-12.1l-4.4-7.6C119.5,1331.8,114.1,1330.4,109.9,1332.8z"/>
	<path class="st1" d="M290.9,1646.3L290.9,1646.3c-4.2,2.4-5.7,7.8-3.2,12.1l4.4,7.6c2.4,4.2,7.8,5.7,12.1,3.2l0,0
		c4.2-2.4,5.7-7.8,3.2-12.1l-4.4-7.6C300.5,1645.3,295.1,1643.8,290.9,1646.3z"/>
</g>
<path class="st3" d="M330.6,1492.2H215.8v-97.1c0-4.9-4-8.8-8.8-8.8s-8.8,4-8.8,8.8v97.1h-17.7c-4.9,0-8.8,4-8.8,8.8s4,8.8,8.8,8.8
	h17.7v17.7c0,4.9,4,8.8,8.8,8.8s8.8-4,8.8-8.8v-17.7h114.8c4.9,0,8.8-4,8.8-8.8S335.5,1492.2,330.6,1492.2z"/>
<circle class="st4" cx="207" cy="1501" r="17.7"/>
</svg>
