<?xml version="1.0" encoding="utf-8"?>
<!-- Generator: Adobe Illustrator 19.0.0, SVG Export Plug-In . SVG Version: 6.00 Build 0)  -->
<svg version="1.1" xmlns="http://www.w3.org/2000/svg" xmlns:xlink="http://www.w3.org/1999/xlink" x="0px" y="0px"
	 viewBox="0 0 650 160" style="enable-background:new 0 0 650 160;" xml:space="preserve">
<style type="text/css">
	.st0{fill:#F3FCFF;}
	.st1{fill:#D7EEF4;}
</style>
<g id="Capa_1">
	<rect id="XMLID_1_" class="st0" width="650" height="160"/>
</g>
<g id="Capa_2">
	<g id="XMLID_2_">
		<g id="XMLID_3_">
			<g id="XMLID_543_">
				<path id="XMLID_511_" class="st1" d="M627.6,150c-6.7-1-10.5-6.2-13-12.1c-1.1-2.5-2.2-5.3-2.6-8c-0.3-2.6,0.5-5,0.8-7.6
					c0.1-0.8-1.1-0.8-1.2,0c-0.4,3.5-1.4,6.1-0.5,9.5c0.8,3.1,2,6.2,3.5,9.1c2.6,5.2,6.7,9.4,12.7,10.3
					C628,151.3,628.3,150.1,627.6,150L627.6,150z"/>
			</g>
		</g>
		<g id="XMLID_4_">
			<g id="XMLID_537_">
				<path id="XMLID_505_" class="st1" d="M627.9,151.2c9.4-13.8,0.7-32.3-16.6-31.9c-0.4,0-0.6,0.4-0.6,0.8c0.2,1.2,0.4,2.5,0.6,3.7
					c0.1,0.8,1.3,0.4,1.2-0.3c-1-4.9,4.3-2.6,7.1-1.4c3.5,1.5,6.5,3.9,8.5,7.1c4.3,6.9,3.1,15-1.3,21.4
					C626.5,151.3,627.5,151.9,627.9,151.2L627.9,151.2z"/>
			</g>
		</g>
		<g id="XMLID_5_">
			<g id="XMLID_531_">
				<path id="XMLID_499_" class="st1" d="M627.8,150.5c-1.5-6-3.6-11.9-6.4-17.4c-2.1-4.2-4.9-10.5-9.1-13c-0.7-0.4-1.3,0.6-0.6,1
					c4.2,2.5,7.3,9.7,9.4,14c2.4,5,4.2,10.2,5.5,15.6C626.8,151.5,628,151.2,627.8,150.5L627.8,150.5z"/>
			</g>
		</g>
		<g id="XMLID_6_">
			<g id="XMLID_525_">
				<path id="XMLID_493_" class="st1" d="M625.7,147.1c0.8,0,0.8-1.2,0-1.2C624.9,145.9,624.9,147.1,625.7,147.1L625.7,147.1z"/>
			</g>
		</g>
		<g id="XMLID_7_">
			<g id="XMLID_519_">
				<path id="XMLID_487_" class="st1" d="M625.9,145.7c-2.6-0.7-5.3-1-8-1.1c-0.8,0-0.8,1.2,0,1.2c2.6,0,5.1,0.4,7.7,1
					C626.3,147.1,626.6,145.9,625.9,145.7L625.9,145.7z"/>
			</g>
		</g>
		<g id="XMLID_8_">
			<g id="XMLID_513_">
				<path id="XMLID_481_" class="st1" d="M627,146.5c1-1.6,2.2-3,3.7-4.2c0.6-0.5,0-1.5-0.6-1c-1.7,1.2-3.1,2.8-4.2,4.6
					C625.5,146.6,626.6,147.2,627,146.5L627,146.5z"/>
			</g>
		</g>
		<g id="XMLID_10_">
			<g id="XMLID_507_">
				<path id="XMLID_475_" class="st1" d="M624.8,140.6c-3.2-1.9-6.8-2.7-10.4-2.3c-0.8,0.1-0.8,1.3,0,1.2c3.5-0.4,6.8,0.3,9.8,2.1
					C624.9,142.1,625.5,141,624.8,140.6L624.8,140.6z"/>
			</g>
		</g>
		<g id="XMLID_12_">
			<g id="XMLID_501_">
				<path id="XMLID_469_" class="st1" d="M624.7,140.6c1.3-2.2,3.3-3.8,5.6-4.8c0.7-0.3,0.4-1.4-0.3-1.2c-2.7,1.1-4.9,2.9-6.4,5.3
					C623.2,140.6,624.3,141.2,624.7,140.6L624.7,140.6z"/>
			</g>
		</g>
		<g id="XMLID_19_">
			<g id="XMLID_495_">
				<path id="XMLID_463_" class="st1" d="M620.9,133.5c-2.8-1-5.7-1.1-8.6-0.2c-0.7,0.2-0.4,1.4,0.3,1.2c2.7-0.8,5.3-0.7,8,0.2
					C621.3,134.9,621.6,133.8,620.9,133.5L620.9,133.5z"/>
			</g>
		</g>
		<g id="XMLID_26_">
			<g id="XMLID_489_">
				<path id="XMLID_457_" class="st1" d="M621.6,133.8c1.4-2.3,3.2-5.1,6.3-4.7c0.8,0.1,0.8-1.1,0-1.2c-3.5-0.5-5.8,2.6-7.4,5.3
					C620.2,133.9,621.2,134.5,621.6,133.8L621.6,133.8z"/>
			</g>
		</g>
		<g id="XMLID_33_">
			<g id="XMLID_483_">
				<path id="XMLID_451_" class="st1" d="M618.6,128.7c-2.1-1.4-4.7-1.8-7-0.8c-0.7,0.3-0.4,1.4,0.3,1.2c2.1-0.8,4.2-0.6,6.1,0.7
					C618.6,130.2,619.2,129.1,618.6,128.7L618.6,128.7z"/>
			</g>
		</g>
		<g id="XMLID_40_">
			<g id="XMLID_477_">
				<path id="XMLID_445_" class="st1" d="M620,129.6c0.2-2.1,1.7-3.9,3.7-4.6c0.7-0.2,0.4-1.4-0.3-1.2c-2.6,0.8-4.3,3.1-4.6,5.8
					C618.7,130.3,619.9,130.3,620,129.6L620,129.6z"/>
			</g>
		</g>
		<g id="XMLID_47_">
			<g id="XMLID_471_">
				<path id="XMLID_439_" class="st1" d="M617,125.2c0.4-1.4,1.2-2.6,2.5-3.4c0.6-0.4,0-1.5-0.6-1c-1.5,1-2.5,2.4-3,4.1
					C615.7,125.6,616.8,125.9,617,125.2L617,125.2z"/>
			</g>
		</g>
		<g id="XMLID_54_">
			<g id="XMLID_465_">
				<path id="XMLID_433_" class="st1" d="M616.3,124.4c-1.4-0.6-3-0.4-4.1,0.6c-0.6,0.5,0.3,1.4,0.8,0.8c0.7-0.7,1.7-0.9,2.6-0.4
					C616.4,125.8,617,124.7,616.3,124.4L616.3,124.4z"/>
			</g>
		</g>
	</g>
	<g id="XMLID_523_">
		<g id="XMLID_631_">
			<g id="XMLID_642_">
				<path id="XMLID_646_" class="st1" d="M290.8,137.3c-2-5.1,0.3-9.7,3.5-13.7c1.2-1.5,2.6-3.4,4.3-4.4c1.3-0.7,2.9-1,4.3-1.6
					c0.7-0.3,0.1-1.3-0.6-1c-2.2,1-4.1,1.2-5.9,2.9c-1.7,1.6-3.3,3.6-4.6,5.6c-2.6,3.8-3.9,8.2-2.2,12.7
					C289.9,138.4,291.1,138,290.8,137.3L290.8,137.3z"/>
			</g>
		</g>
		<g id="XMLID_624_">
			<g id="XMLID_636_">
				<path id="XMLID_640_" class="st1" d="M290,138.2c12.5,0.8,21-11.8,14.2-22.9c-0.2-0.4-0.6-0.4-0.9-0.1c-0.7,0.6-1.5,1.2-2.1,1.8
					c-0.6,0.5,0.3,1.4,0.8,0.8c2.7-2.4,3.2,2.1,3.4,4.3c0.3,3.1-0.3,6.1-2,8.8c-2.9,4.6-8.2,6.4-13.4,6.1
					C289.2,137,289.2,138.2,290,138.2L290,138.2z"/>
			</g>
		</g>
		<g id="XMLID_617_">
			<g id="XMLID_629_">
				<path id="XMLID_634_" class="st1" d="M290.5,137.8c3.4-3.3,6.3-6.9,8.8-10.9c1.8-2.9,4.7-7.1,4.8-10.6c0-0.8-1.2-0.8-1.2,0
					c0,3.6-3.4,8.3-5.3,11.2c-2.3,3.5-4.9,6.6-7.9,9.5C289.1,137.5,290,138.3,290.5,137.8L290.5,137.8z"/>
			</g>
		</g>
		<g id="XMLID_610_">
			<g id="XMLID_622_">
				<path id="XMLID_627_" class="st1" d="M292.2,135.4c0.8,0,0.8-1.2,0-1.2C291.4,134.2,291.4,135.4,292.2,135.4L292.2,135.4z"/>
			</g>
		</g>
		<g id="XMLID_603_">
			<g id="XMLID_615_">
				<path id="XMLID_620_" class="st1" d="M292.9,134.6c-0.6-1.9-1.3-3.8-2.4-5.5c-0.4-0.7-1.4-0.1-1,0.6c1,1.7,1.7,3.4,2.2,5.2
					C291.9,135.7,293.1,135.4,292.9,134.6L292.9,134.6z"/>
			</g>
		</g>
		<g id="XMLID_596_">
			<g id="XMLID_608_">
				<path id="XMLID_613_" class="st1" d="M292.6,135.8c1.4,0,2.8,0.3,4.1,0.9c0.7,0.3,1-0.9,0.3-1.2c-1.4-0.6-2.9-0.9-4.5-0.9
					C291.9,134.6,291.9,135.8,292.6,135.8L292.6,135.8z"/>
			</g>
		</g>
		<g id="XMLID_589_">
			<g id="XMLID_601_">
				<path id="XMLID_606_" class="st1" d="M295.8,132c0-2.8-0.8-5.4-2.5-7.6c-0.5-0.6-1.5,0-1,0.6c1.6,2.1,2.4,4.4,2.3,7
					C294.6,132.8,295.8,132.8,295.8,132L295.8,132z"/>
			</g>
		</g>
		<g id="XMLID_582_">
			<g id="XMLID_594_">
				<path id="XMLID_599_" class="st1" d="M295.6,132.1c1.9,0,3.7,0.7,5.2,1.8c0.6,0.5,1.2-0.6,0.6-1c-1.7-1.3-3.7-2-5.8-2
					C294.8,130.9,294.8,132.1,295.6,132.1L295.6,132.1z"/>
			</g>
		</g>
		<g id="XMLID_575_">
			<g id="XMLID_587_">
				<path id="XMLID_592_" class="st1" d="M298.8,126.8c-0.4-2.2-1.5-4.2-3.1-5.7c-0.6-0.5-1.4,0.3-0.8,0.8c1.5,1.4,2.5,3.1,2.8,5.1
					C297.8,127.9,299,127.6,298.8,126.8L298.8,126.8z"/>
			</g>
		</g>
		<g id="XMLID_568_">
			<g id="XMLID_580_">
				<path id="XMLID_585_" class="st1" d="M298.8,127.6c2,0,4.4,0.1,5.3,2.2c0.3,0.7,1.3,0.1,1-0.6c-1.1-2.5-3.9-2.8-6.3-2.8
					C298,126.4,298,127.6,298.8,127.6L298.8,127.6z"/>
			</g>
		</g>
		<g id="XMLID_561_">
			<g id="XMLID_573_">
				<path id="XMLID_578_" class="st1" d="M301,123.6c0.2-2-0.7-3.8-2.3-5c-0.6-0.5-1.2,0.6-0.6,1c1.2,0.9,1.8,2.4,1.7,3.9
					C299.8,124.4,301,124.3,301,123.6L301,123.6z"/>
			</g>
		</g>
		<g id="XMLID_554_">
			<g id="XMLID_566_">
				<path id="XMLID_571_" class="st1" d="M300.9,124.9c1.4-0.6,3-0.4,4.2,0.6c0.6,0.5,1.4-0.3,0.8-0.8c-1.6-1.4-3.7-1.7-5.6-0.8
					C299.6,124.2,300.2,125.2,300.9,124.9L300.9,124.9z"/>
			</g>
		</g>
		<g id="XMLID_547_">
			<g id="XMLID_563_">
				<path id="XMLID_607_" class="st1" d="M302.6,121.4c1-0.3,2-0.2,3,0.3c0.7,0.3,1.3-0.7,0.6-1c-1.3-0.6-2.6-0.7-3.9-0.4
					C301.5,120.4,301.8,121.6,302.6,121.4L302.6,121.4z"/>
			</g>
		</g>
		<g id="XMLID_524_">
			<g id="XMLID_614_">
				<path id="XMLID_641_" class="st1" d="M302.9,120.4c-0.1-1.2-0.9-2.2-2.1-2.5c-0.7-0.2-1.1,0.9-0.3,1.2c0.6,0.2,1.1,0.7,1.2,1.4
					C301.8,121.2,303,121.2,302.9,120.4L302.9,120.4z"/>
			</g>
		</g>
	</g>
	<g id="XMLID_154_">
		<g id="XMLID_25_">
			<g id="XMLID_459_">
				<path id="XMLID_427_" class="st1" d="M614.6,51.1c-1.9,0.8-3.2,3-2.3,5c0.8,2,3.3,3.1,5.2,2c2-1.1,2.2-4.1,1.2-5.9
					c-1.1-1.9-3.6-2.5-5.3-0.9c-0.6,0.5,0.3,1.4,0.8,0.8c2.7-2.5,5.6,3.3,2.6,4.9c-1.3,0.7-2.9,0-3.5-1.3c-0.6-1.4,0.2-2.9,1.5-3.5
					C615.6,52,615.3,50.8,614.6,51.1L614.6,51.1z"/>
			</g>
		</g>
		<g id="XMLID_28_">
			<g id="XMLID_453_">
				<path id="XMLID_421_" class="st1" d="M614.5,51c-1.5-1.3-5.8-5.4-7.8-2.9c-2,2.5,4,4.9,5.5,5.6c0.7,0.3,1.3-0.7,0.6-1
					c-0.8-0.4-1.7-0.8-2.5-1.3c-0.4-0.3-2.3-1.1-2.4-1.6c0.3-0.4,0.5-0.8,0.8-1.2c0.3,0.1,0.7,0.3,1,0.4c0.4,0.2,0.7,0.5,1.1,0.7
					c1,0.7,1.9,1.4,2.8,2.1C614.2,52.3,615.1,51.5,614.5,51L614.5,51z"/>
			</g>
		</g>
		<g id="XMLID_119_">
			<g id="XMLID_447_">
				<path id="XMLID_405_" class="st1" d="M612.2,52.9c-2.6-1-6.6-1.1-7.6,2.1c-0.4,1.1-0.1,2,1.1,2.2c2.1,0.4,4.5,0,6.6-0.3
					c0.8-0.1,0.8-1.3,0-1.2c-1.2,0.1-2.3,0.2-3.5,0.3c-0.6,0-3.2,0.4-3.1-0.6c0-1,1.5-1.8,2.4-2c1.3-0.3,2.6,0.1,3.9,0.6
					C612.6,54.3,612.9,53.1,612.2,52.9L612.2,52.9z"/>
			</g>
		</g>
		<g id="XMLID_124_">
			<g id="XMLID_441_">
				<path id="XMLID_399_" class="st1" d="M611.2,56c-1.6,0.9-2.9,2.2-3.8,3.8c-0.6,1-1.5,2.8-0.7,3.9c0.9,1.3,2.9,0.6,3.9-0.1
					c1.7-1.2,3.1-2.9,4.2-4.6c0.4-0.6-0.6-1.2-1-0.6c-0.7,1-1.5,2-2.4,2.9c-0.6,0.6-3.9,3.3-3.6,0.7c0.2-2,2.5-4.1,4.1-5
					C612.5,56.7,611.9,55.6,611.2,56L611.2,56z"/>
			</g>
		</g>
		<g id="XMLID_131_">
			<g id="XMLID_435_">
				<path id="XMLID_393_" class="st1" d="M613.9,58.5c-0.2,2.7,0.2,5.3,1.4,7.8c0.1,0.2,0.3,0.3,0.5,0.3c4.7,0.4,2.6-6.5,1.8-8.7
					c-0.3-0.7-1.4-0.4-1.2,0.3c0.4,1.1,0.9,2.2,1.1,3.4c0.1,0.7,0.2,4.7-1.3,3.5c-0.7-0.5-0.8-2.1-1-2.9c-0.2-1.2-0.2-2.4-0.1-3.7
					C615.2,57.7,614,57.7,613.9,58.5L613.9,58.5z"/>
			</g>
		</g>
		<g id="XMLID_138_">
			<g id="XMLID_429_">
				<path id="XMLID_387_" class="st1" d="M616.7,58.8c1.3,1.5,4.9,6.2,7,2.9c2-3.1-2.5-5.1-4.2-6.7c-0.6-0.5-1.4,0.3-0.8,0.8
					c1.3,1.2,4.2,2.2,4.3,4.2c0,0.7-0.4,1.3-1.2,1.5c-0.7,0.1-1.6-0.8-2-1.2c-0.8-0.8-1.4-1.6-2.2-2.4
					C617,57.4,616.1,58.3,616.7,58.8L616.7,58.8z"/>
			</g>
		</g>
		<g id="XMLID_139_">
			<g id="XMLID_423_">
				<path id="XMLID_381_" class="st1" d="M614.7,50.9c-0.4-0.9-0.7-1.9-1-2.9c-0.1-0.5-0.2-0.9-0.3-1.4c-0.1-0.4-0.1-0.8,0-1.2
					c0.2-0.9,0.6-1.1,1.3-0.8c0.8,0.2,0.8,0.5,1,1.2c0.2,0.6,0.3,1.3,0.4,2c0.1,1.1,0.1,2.1,0,3.2c-0.1,0.8,1.1,0.8,1.2,0
					c0.2-1.9,0.4-8.4-3-7.9c-3.8,0.6-1.6,6.1-0.8,8.1C613.9,51.9,615,51.6,614.7,50.9L614.7,50.9z"/>
			</g>
		</g>
		<g id="XMLID_141_">
			<g id="XMLID_407_">
				<path id="XMLID_375_" class="st1" d="M617.2,51.4c0.3-1.1,0.9-2,1.7-2.9c0.3-0.3,2.1-2.2,2.5-2.1c0.3,0.2,0,1.5-0.1,1.8
					c-0.2,0.8-0.7,1.4-1.2,2c-0.7,0.8-1.5,1.4-2.3,2c-0.6,0.5,0.2,1.3,0.8,0.8c1.4-1.1,2.9-2.3,3.6-4c0.4-0.9,0.8-3-0.1-3.7
					c-1.1-0.9-2.6,0.9-3.3,1.5c-1.3,1.2-2.3,2.5-2.7,4.1C615.9,51.8,617,52.1,617.2,51.4L617.2,51.4z"/>
			</g>
		</g>
		<g id="XMLID_147_">
			<g id="XMLID_401_">
				<path id="XMLID_369_" class="st1" d="M619.6,52.8c0.9-0.6,1.9-1,3-1.3c0.3-0.1,1.7-0.5,1.9-0.3c0,0.5,0,1.1,0,1.6
					c-0.2,0.2-0.5,0.3-0.8,0.4c-1.9,1.1-4,1.7-6.2,2.1c-0.8,0.1-0.4,1.3,0.3,1.2c2.1-0.3,4.1-1,6-1.9c1.1-0.6,2.9-1.4,2.8-2.9
					c-0.2-3.4-6.3-0.8-7.7,0C618.3,52.1,618.9,53.2,619.6,52.8L619.6,52.8z"/>
			</g>
		</g>
	</g>
	<g id="XMLID_535_">
		<g id="XMLID_717_">
			<g id="XMLID_728_">
				<path id="XMLID_732_" class="st1" d="M332.8,34.6c-1.3,0.5-2.2,2-1.6,3.4c0.5,1.4,2.3,2.1,3.6,1.4c1.3-0.8,1.5-2.7,0.8-4
					c-0.8-1.3-2.5-1.7-3.6-0.6c-0.6,0.5,0.3,1.4,0.8,0.8c1.4-1.3,2.9,1.8,1.4,2.7c-1.6,0.8-2.7-1.8-1-2.6
					C333.8,35.5,333.5,34.3,332.8,34.6L332.8,34.6z"/>
			</g>
		</g>
		<g id="XMLID_710_">
			<g id="XMLID_722_">
				<path id="XMLID_726_" class="st1" d="M333,34.6c-1.1-0.9-3.8-3.5-5.1-1.7c-1.3,1.8,2.4,3.3,3.5,3.8c0.7,0.3,1.3-0.7,0.6-1
					c-0.5-0.2-1-0.5-1.5-0.8c-0.2-0.1-1.4-0.7-1.4-1c0.1-0.1,0.2-0.2,0.3-0.4c0.2,0.1,0.4,0.1,0.5,0.2c0.2,0.1,0.5,0.3,0.7,0.4
					c0.6,0.4,1.2,0.8,1.7,1.3C332.7,35.9,333.6,35.1,333,34.6L333,34.6z"/>
			</g>
		</g>
		<g id="XMLID_703_">
			<g id="XMLID_715_">
				<path id="XMLID_720_" class="st1" d="M331.5,35.7c-1.7-0.7-4.3-0.7-5,1.5c-0.3,0.8,0,1.5,0.9,1.7c1.3,0.2,2.8,0,4.1-0.2
					c0.8-0.1,0.8-1.3,0-1.2c-0.7,0.1-1.4,0.2-2.1,0.2c-0.4,0-0.8,0-1.2,0c-0.1,0-0.2,0-0.3,0c-0.4,0-0.4,0-0.2-0.1
					c0-0.5,0.9-1,1.3-1.1c0.8-0.2,1.5,0.1,2.3,0.4C331.9,37.1,332.2,36,331.5,35.7L331.5,35.7z"/>
			</g>
		</g>
		<g id="XMLID_696_">
			<g id="XMLID_708_">
				<path id="XMLID_713_" class="st1" d="M330.7,37.7c-1,0.6-1.9,1.4-2.4,2.4c-0.4,0.7-1,1.9-0.4,2.7c0.7,0.9,1.9,0.5,2.7,0
					c1.1-0.7,2-1.8,2.7-2.9c0.4-0.6-0.6-1.2-1-0.6c-0.4,0.6-0.9,1.2-1.5,1.8c-0.3,0.3-1.8,1.7-1.9,0.6c0-0.5,0.6-1.3,0.9-1.7
					c0.4-0.5,0.9-0.9,1.5-1.3C332,38.3,331.4,37.3,330.7,37.7L330.7,37.7z"/>
			</g>
		</g>
		<g id="XMLID_689_">
			<g id="XMLID_701_">
				<path id="XMLID_706_" class="st1" d="M332.3,39.4c-0.2,1.7,0.2,3.4,0.9,4.9c0.1,0.2,0.3,0.3,0.5,0.3c3.1,0.3,1.9-4.2,1.3-5.7
					c-0.3-0.7-1.4-0.4-1.2,0.3c0.3,0.8,1.7,4.3-0.1,4.2c0.2,0.1,0.3,0.2,0.5,0.3c-0.6-1.4-0.8-2.8-0.7-4.3
					C333.5,38.6,332.3,38.6,332.3,39.4L332.3,39.4z"/>
			</g>
		</g>
		<g id="XMLID_682_">
			<g id="XMLID_694_">
				<path id="XMLID_699_" class="st1" d="M334,39.8c0.9,1,3.3,4,4.7,1.8c1.3-2.1-1.5-3.3-2.6-4.4c-0.6-0.5-1.4,0.3-0.8,0.8
					c0.7,0.7,2.5,1.3,2.6,2.4c0,1.2-1.1,0.4-1.6,0c-0.5-0.5-0.9-1-1.3-1.5C334.3,38.3,333.5,39.2,334,39.8L334,39.8z"/>
			</g>
		</g>
		<g id="XMLID_675_">
			<g id="XMLID_687_">
				<path id="XMLID_692_" class="st1" d="M333.2,34.6c-0.2-0.5-1.5-3.9-0.3-3.6c0.5,0.1,0.6,1.3,0.7,1.8c0.1,0.7,0.1,1.3,0,2
					c-0.1,0.8,1.1,0.8,1.2,0c0.1-1.4,0.2-5.4-2.1-5.1c-2.5,0.4-1.2,3.9-0.7,5.3C332.3,35.7,333.5,35.4,333.2,34.6L333.2,34.6z"/>
			</g>
		</g>
		<g id="XMLID_662_">
			<g id="XMLID_680_">
				<path id="XMLID_685_" class="st1" d="M334.7,35.1c0.2-0.7,0.5-1.2,1-1.7c0.2-0.2,1.1-1.3,1.4-1.2c-0.1-0.1-0.2-0.2-0.4-0.3
					c0.4,0.6-0.1,1.6-0.5,2.1c-0.4,0.5-1,1-1.5,1.4c-0.6,0.5,0.2,1.3,0.8,0.8c0.9-0.7,1.8-1.4,2.2-2.5c0.3-0.7,0.6-2-0.2-2.6
					c-0.8-0.6-1.8,0.5-2.3,1c-0.8,0.7-1.5,1.6-1.7,2.7C333.4,35.5,334.5,35.8,334.7,35.1L334.7,35.1z"/>
			</g>
		</g>
		<g id="XMLID_536_">
			<g id="XMLID_678_">
				<path id="XMLID_727_" class="st1" d="M336.1,36.1c0.6-0.3,1.2-0.6,1.8-0.8c0.1,0,1-0.3,1.1-0.1c0.3,0.3-0.4,0.8-0.6,0.8
					c-1.2,0.7-2.4,1.1-3.8,1.3c-0.8,0.1-0.4,1.3,0.3,1.2c1.3-0.2,2.6-0.6,3.7-1.2c0.8-0.4,1.9-1,1.8-2.1c-0.2-2.3-4.1-0.7-5.1-0.1
					C334.8,35.4,335.4,36.5,336.1,36.1L336.1,36.1z"/>
			</g>
		</g>
	</g>
	<g id="XMLID_140_">
		<g id="XMLID_395_">
			<path id="XMLID_363_" class="st1" d="M628.8,24.1c-0.2,0-0.3,0-0.5,0c-0.8,0-0.8,1.2,0,1.2c0.2,0,0.3,0,0.5,0
				C629.5,25.4,629.5,24.1,628.8,24.1L628.8,24.1z"/>
		</g>
	</g>
	<g id="XMLID_142_">
		<g id="XMLID_389_">
			<path id="XMLID_356_" class="st1" d="M517,141.9c0.8,0,0.8-1.2,0-1.2C516.2,140.6,516.2,141.9,517,141.9L517,141.9z"/>
		</g>
	</g>
	<g id="XMLID_143_">
		<g id="XMLID_383_">
			<path id="XMLID_349_" class="st1" d="M519,106.1c0.8,0,0.8-1.2,0-1.2C518.2,104.9,518.2,106.1,519,106.1L519,106.1z"/>
		</g>
	</g>
	<g id="XMLID_149_">
		<g id="XMLID_377_">
			<path id="XMLID_342_" class="st1" d="M571.6,107c0-0.1,0-0.2,0-0.2c0-0.8-1.2-0.8-1.2,0c0,0.1,0,0.2,0,0.2
				C570.4,107.8,571.6,107.8,571.6,107L571.6,107z"/>
		</g>
	</g>
	<g id="XMLID_151_">
		<g id="XMLID_371_">
			<path id="XMLID_336_" class="st1" d="M549.2,63.6c0.8,0,0.8-1.2,0-1.2C548.5,62.4,548.5,63.6,549.2,63.6L549.2,63.6z"/>
		</g>
	</g>
	<g id="XMLID_204_">
		<g id="XMLID_365_">
			<path id="XMLID_330_" class="st1" d="M577,39.3c0.8,0,0.8-1.2,0-1.2C576.2,38.2,576.2,39.3,577,39.3L577,39.3z"/>
		</g>
	</g>
	<g id="XMLID_211_">
		<g id="XMLID_359_">
			<path id="XMLID_324_" class="st1" d="M592.8,64.4c-0.1,0-0.2,0-0.2,0c-0.8,0-0.8,1.2,0,1.2c0.1,0,0.2,0,0.2,0
				C593.5,65.6,593.5,64.4,592.8,64.4L592.8,64.4z"/>
		</g>
	</g>
	<g id="XMLID_232_">
		<g id="XMLID_352_">
			<path id="XMLID_318_" class="st1" d="M480.2,67.6c0.8,0,0.8-1.2,0-1.2C479.5,66.4,479.5,67.6,480.2,67.6L480.2,67.6z"/>
		</g>
	</g>
	<g id="XMLID_239_">
		<g id="XMLID_345_">
			<path id="XMLID_312_" class="st1" d="M509.4,73.2c0-0.1,0-0.2,0-0.2c0-0.8-1.2-0.8-1.2,0c0,0.1,0,0.2,0,0.2
				C508.1,74,509.4,74,509.4,73.2L509.4,73.2z"/>
		</g>
	</g>
	<g id="XMLID_253_">
		<g id="XMLID_338_">
			<path id="XMLID_306_" class="st1" d="M616.3,94.3c-0.1,0.1-0.2,0.2-0.2,0.2c-0.5,0.5,0.3,1.4,0.8,0.8c0.1-0.1,0.2-0.2,0.2-0.2
				C617.7,94.6,616.9,93.8,616.3,94.3L616.3,94.3z"/>
		</g>
	</g>
	<g id="XMLID_260_">
		<g id="XMLID_332_">
			<path id="XMLID_299_" class="st1" d="M632.5,111.6c0.1,0,0.2,0,0.2,0c0.8,0,0.8-1.2,0-1.2c-0.1,0-0.2,0-0.2,0
				C631.7,110.4,631.7,111.6,632.5,111.6L632.5,111.6z"/>
		</g>
	</g>
	<g id="XMLID_267_">
		<g id="XMLID_326_">
			<path id="XMLID_292_" class="st1" d="M638.4,144.2c0,0.2,0,0.3,0,0.5c0,0.8,1.2,0.8,1.2,0c0-0.2,0-0.3,0-0.5
				C639.6,143.5,638.4,143.5,638.4,144.2L638.4,144.2z"/>
		</g>
	</g>
	<g id="XMLID_274_">
		<g id="XMLID_320_">
			<path id="XMLID_286_" class="st1" d="M594.8,154.9c0.8,0,0.8-1.2,0-1.2C594,153.6,594,154.9,594.8,154.9L594.8,154.9z"/>
		</g>
	</g>
	<g id="XMLID_295_">
		<g id="XMLID_314_">
			<path id="XMLID_279_" class="st1" d="M474.8,131.1c-2.9,2.2-3.7,6.4-1.5,9.4c1.8,2.5,6,4,8.5,1.6c2.2-2,3.3-6.9,1.5-9.4
				c-1.6-2.3-6.9-3.3-9-1.4c-0.6,0.5,0.3,1.4,0.8,0.8c1.4-1.2,5.3-0.4,6.6,0.6c2.2,1.7,1.2,6.4-0.6,8.2c-2.3,2.2-6,0.6-7.3-1.9
				c-1.4-2.5-0.3-5.5,1.8-7.1C476.3,131.4,475.4,130.6,474.8,131.1L474.8,131.1z"/>
		</g>
	</g>
	<g id="XMLID_150_">
		<g id="XMLID_11_">
			<g id="XMLID_308_">
				<path id="XMLID_272_" class="st1" d="M544.3,81.8c3.9-3,7.7-6.1,11.6-9.1c0.6-0.5-0.2-1.3-0.8-0.8c-3.9,3-7.7,6.1-11.6,9.1
					C542.8,81.4,543.7,82.3,544.3,81.8L544.3,81.8z"/>
			</g>
		</g>
		<g id="XMLID_117_">
			<g id="XMLID_301_">
				<path id="XMLID_264_" class="st1" d="M543.6,82.5c4.3,1.7,8.6,3.2,12.9,4.8c0.7,0.3,1-0.9,0.3-1.2c-4.3-1.5-8.6-3.1-12.9-4.8
					C543.2,81.1,542.9,82.2,543.6,82.5L543.6,82.5z"/>
			</g>
		</g>
		<g id="XMLID_118_">
			<g id="XMLID_294_">
				<path id="XMLID_257_" class="st1" d="M555.1,72c-0.6,2,0.2,4.2,0.6,6.1c0.6,3.1,1.2,6.3,1.8,9.4c0.1,0.8,1.3,0.4,1.2-0.3
					c-0.5-2.4-0.9-4.7-1.4-7.1c-0.4-2.2-1.7-5.7-1-7.9C556.5,71.6,555.3,71.3,555.1,72L555.1,72z"/>
			</g>
		</g>
	</g>
	<g id="XMLID_529_">
		<g id="XMLID_653_">
			<g id="XMLID_664_">
				<path id="XMLID_668_" class="st1" d="M214.3,138.8c3.9-3,7.7-6.1,11.6-9.1c0.6-0.5-0.2-1.3-0.8-0.8c-3.9,3-7.7,6.1-11.6,9.1
					C212.8,138.4,213.7,139.3,214.3,138.8L214.3,138.8z"/>
			</g>
		</g>
		<g id="XMLID_586_">
			<g id="XMLID_658_">
				<path id="XMLID_663_" class="st1" d="M213.6,139.5c4.3,1.7,8.6,3.2,12.9,4.8c0.7,0.3,1-0.9,0.3-1.2c-4.3-1.5-8.6-3.1-12.9-4.8
					C213.2,138.1,212.9,139.2,213.6,139.5L213.6,139.5z"/>
			</g>
		</g>
		<g id="XMLID_530_">
			<g id="XMLID_651_">
				<path id="XMLID_656_" class="st1" d="M225.1,129c-0.6,2,0.2,4.2,0.6,6.1c0.6,3.1,1.2,6.3,1.8,9.4c0.1,0.8,1.3,0.4,1.2-0.3
					c-0.5-2.4-0.9-4.7-1.4-7.1c-0.4-2.2-1.7-5.7-1-7.9C226.5,128.6,225.3,128.3,225.1,129L225.1,129z"/>
			</g>
		</g>
	</g>
	<g id="XMLID_358_">
		<g id="XMLID_13_">
			<g id="XMLID_288_">
				<path id="XMLID_250_" class="st1" d="M536.3,133.8c1.8-10.5,13.7-14.8,21.7-7.6c0.6,0.5,1.4-0.3,0.8-0.8
					c-8.6-7.7-21.7-3.4-23.7,8.1C535,134.2,536.1,134.5,536.3,133.8L536.3,133.8z"/>
			</g>
		</g>
		<g id="XMLID_14_">
			<g id="XMLID_281_">
				<path id="XMLID_244_" class="st1" d="M535,134.4c4.5,2,9.6,4.2,14.5,2.3c4.8-1.9,7.4-6.6,9.1-11.2c0.3-0.7-0.9-1-1.2-0.3
					c-1.6,4.3-3.9,8.6-8.4,10.3c-4.6,1.8-9.2-0.2-13.4-2.1C535,133.1,534.3,134.1,535,134.4L535,134.4z"/>
			</g>
		</g>
		<g id="XMLID_15_">
			<g id="XMLID_275_">
				<path id="XMLID_237_" class="st1" d="M536.3,134.3c5.2-6.1,12.6-9.2,20.6-8.6c0.8,0.1,0.8-1.1,0-1.2c-8.3-0.6-16.1,2.6-21.5,9
					C535,134.1,535.8,134.9,536.3,134.3L536.3,134.3z"/>
			</g>
		</g>
		<g id="XMLID_16_">
			<g id="XMLID_266_">
				<path id="XMLID_230_" class="st1" d="M544.6,126.8c-2,2.1-2.3,5.4-0.3,7.5c1.8,1.9,5.1,2.6,7,0.4c1.7-2,1.8-5.4,0.2-7.5
					c-1.7-2.1-4.8-2.4-6.8-0.7c-0.6,0.5,0.3,1.3,0.8,0.8c3.9-3.1,7.7,3.1,5,6.4c-1.5,1.8-4,1.4-5.4-0.2c-1.5-1.7-1.2-4.2,0.3-5.8
					C546,127.1,545.2,126.3,544.6,126.8L544.6,126.8z"/>
			</g>
		</g>
		<g id="XMLID_109_">
			<g id="XMLID_259_">
				<path id="XMLID_224_" class="st1" d="M537.5,134.6c-0.5,0.6-1.1,1.2-1.6,1.9c-0.5,0.6,0.3,1.4,0.8,0.8c0.5-0.6,1.1-1.2,1.6-1.9
					C538.9,134.9,538,134,537.5,134.6L537.5,134.6z"/>
			</g>
		</g>
		<g id="XMLID_110_">
			<g id="XMLID_252_">
				<path id="XMLID_218_" class="st1" d="M540.9,136.6c-0.3,1.1-0.5,2.1-0.8,3.2c-0.2,0.7,1,1.1,1.2,0.3c0.3-1.1,0.5-2.1,0.8-3.2
					C542.2,136.2,541.1,135.8,540.9,136.6L540.9,136.6z"/>
			</g>
		</g>
		<g id="XMLID_112_">
			<g id="XMLID_246_">
				<path id="XMLID_206_" class="st1" d="M545.6,137.1c0.1,0.9,0.2,1.7,0.3,2.6c0.1,0.8,1.3,0.8,1.2,0c-0.1-0.9-0.2-1.7-0.3-2.6
					C546.7,136.3,545.5,136.3,545.6,137.1L545.6,137.1z"/>
			</g>
		</g>
		<g id="XMLID_114_">
			<g id="XMLID_240_">
				<path id="XMLID_199_" class="st1" d="M550.5,136.2c0.8,0.4,1.4,0.9,2,1.6c0.5,0.6,1.4-0.3,0.8-0.8c-0.6-0.7-1.4-1.3-2.3-1.8
					C550.5,134.8,549.8,135.9,550.5,136.2L550.5,136.2z"/>
			</g>
		</g>
		<g id="XMLID_125_">
			<g id="XMLID_233_">
				<path id="XMLID_193_" class="st1" d="M554,132.8c0.9,0.5,1.8,1.1,2.7,1.6c0.7,0.4,1.3-0.6,0.6-1c-0.9-0.5-1.8-1.1-2.7-1.6
					C553.9,131.3,553.3,132.4,554,132.8L554,132.8z"/>
			</g>
		</g>
		<g id="XMLID_133_">
			<g id="XMLID_226_">
				<path id="XMLID_187_" class="st1" d="M557.4,128.9c0.8-0.3,1.6-0.6,2.4-0.9c0.7-0.3,0.4-1.4-0.3-1.2c-0.8,0.3-1.6,0.6-2.4,0.9
					C556.4,128,556.7,129.2,557.4,128.9L557.4,128.9z"/>
			</g>
		</g>
		<g id="XMLID_207_">
			<g id="XMLID_220_">
				<path id="XMLID_181_" class="st1" d="M535.2,130.3c-0.6-0.1-1.1-0.4-1.5-0.9c-0.5-0.6-1.4,0.3-0.8,0.8c0.5,0.6,1.2,1,2,1.2
					C535.6,131.6,535.9,130.5,535.2,130.3L535.2,130.3z"/>
			</g>
		</g>
		<g id="XMLID_268_">
			<g id="XMLID_209_">
				<path id="XMLID_175_" class="st1" d="M537.5,126.7c-0.6-0.5-1.2-1.1-1.9-1.6c-0.6-0.5-1.4,0.3-0.8,0.8c0.6,0.5,1.2,1.1,1.9,1.6
					C537.3,128,538.1,127.2,537.5,126.7L537.5,126.7z"/>
			</g>
		</g>
		<g id="XMLID_284_">
			<g id="XMLID_201_">
				<path id="XMLID_169_" class="st1" d="M542.5,122.8c-0.8-1-1.6-2-2.4-3.1c-0.5-0.6-1.3,0.3-0.8,0.8c0.8,1,1.6,2,2.4,3.1
					C542.2,124.2,543,123.4,542.5,122.8L542.5,122.8z"/>
			</g>
		</g>
		<g id="XMLID_305_">
			<g id="XMLID_195_">
				<path id="XMLID_163_" class="st1" d="M547.6,121.8c0.3-1.1,0.3-2.1,0.2-3.2c-0.1-0.8-1.3-0.8-1.2,0c0.1,1,0.1,1.9-0.2,2.9
					C546.2,122.3,547.4,122.6,547.6,121.8L547.6,121.8z"/>
			</g>
		</g>
		<g id="XMLID_344_">
			<g id="XMLID_189_">
				<path id="XMLID_157_" class="st1" d="M552.1,121.7c0-0.5,0.2-1,0.5-1.4c0.5-0.6-0.4-1.5-0.8-0.8c-0.5,0.7-0.8,1.4-0.9,2.2
					C550.9,122.4,552.1,122.4,552.1,121.7L552.1,121.7z"/>
			</g>
		</g>
		<g id="XMLID_351_">
			<g id="XMLID_183_">
				<path id="XMLID_146_" class="st1" d="M555.1,123.9c0.7-0.4,1.3-0.9,1.7-1.6c0.4-0.7-0.6-1.3-1-0.6c-0.3,0.5-0.7,0.9-1.2,1.1
					C553.8,123.2,554.4,124.2,555.1,123.9L555.1,123.9z"/>
			</g>
		</g>
	</g>
	<g id="XMLID_126_">
		<g id="XMLID_177_">
			<path id="XMLID_134_" class="st1" d="M37.4,107c0,0.2,0,0.4,0,0.7c0,0.8,1.2,0.8,1.2,0c0-0.2,0-0.4,0-0.7
				C38.6,106.2,37.4,106.2,37.4,107L37.4,107z"/>
		</g>
	</g>
	<g id="XMLID_129_">
		<g id="XMLID_171_">
			<path id="XMLID_120_" class="st1" d="M18,104.9c0.8,0,0.8-1.2,0-1.2C17.2,103.7,17.2,104.9,18,104.9L18,104.9z"/>
		</g>
	</g>
	<g id="XMLID_113_">
		<g id="XMLID_165_">
			<path id="XMLID_105_" class="st1" d="M361.2,157.3c6-13,11.5-26.1,16.6-39.5c-0.4,0-0.7,0.1-1.1,0.1
				c6.3,13.3,12.4,26.8,18.4,40.2c0.3,0.7,1.3,0.1,1-0.6c-6-13.5-12.1-26.9-18.4-40.2c-0.2-0.5-0.9-0.3-1.1,0.1
				c-5,13.3-10.5,26.3-16.4,39.2C359.9,157.4,360.9,158,361.2,157.3L361.2,157.3z"/>
		</g>
	</g>
	<g id="XMLID_115_">
		<g id="XMLID_159_">
			<path id="XMLID_99_" class="st1" d="M393.5,153.6c2.2-3.1,4.5-6.3,6.7-9.4c2.1-3,4.5-8,7.3-10.2c4.2-3.3,7.1,3.7,9.1,6.6
				c2.2,3.4,4.4,6.9,6.6,10.3c0.2,0.3,0.7,0.4,0.9,0.1c2.4-2.7,4.7-5.5,7.1-8.2c2.5-2.9,3.9-6,7.2-2.3c4.7,5.4,8.9,11.2,12.6,17.3
				c0.4,0.7,1.4,0.1,1-0.6c-2.4-4-5-7.8-7.8-11.5c-1.6-2.1-4.9-7.8-7.5-8.7c-2-0.7-2.7,0.7-4,2.1c-1.8,2-3.5,4.1-5.3,6.2
				c-0.7,0.8-1.5,2.2-2.4,2.7c-1.7,1.1-1.4,0.8-2.8-1c-3.3-4.1-5.8-9-8.8-13.4c-0.8-1.2-2.1-4.1-4.1-3.7c-0.7,0.1-1.3,1.3-1.7,1.8
				c-1.8,2.2-3.4,4.7-5,7.1c-3.4,4.7-6.7,9.4-10.1,14.2C392,153.7,393.1,154.3,393.5,153.6L393.5,153.6z"/>
		</g>
	</g>
	<g id="XMLID_127_">
		<g id="XMLID_152_">
			<path id="XMLID_93_" class="st1" d="M425.7,147.8c0.9,2.4,3.4,4,6,3.7c0.8-0.1,0.8-1.3,0-1.2c-2.1,0.2-4.1-0.9-4.8-2.8
				C426.6,146.8,425.4,147.1,425.7,147.8L425.7,147.8z"/>
		</g>
	</g>
	<g id="XMLID_128_">
		<g id="XMLID_136_">
			<path id="XMLID_87_" class="st1" d="M430.3,152c2.7-0.3,4.8-1.6,6.1-3.9c-0.3,0-0.6,0.1-0.9,0.1c2.2,2.6,6.1,2.8,8.5,0.5
				c0.6-0.5-0.3-1.4-0.8-0.8c-2,1.9-5.1,1.7-6.8-0.5c-0.2-0.3-0.8-0.2-0.9,0.1c-1.1,2-2.9,3.1-5.1,3.3
				C429.6,150.9,429.6,152.1,430.3,152L430.3,152z"/>
		</g>
	</g>
	<g id="XMLID_213_">
		<g id="XMLID_122_">
			<path id="XMLID_81_" class="st1" d="M366.2,144.5c3.7,3.2,8.4,3.2,11.9-0.3c0.6-0.6,0.7-1.2,1.4-1.3c0.4,0,2.3,1.3,3,1.4
				c2,0.5,3.8,0.1,5.6-0.8c0.7-0.3,0.1-1.4-0.6-1c-2.9,1.4-5.7,0.9-8-1.3c-0.3-0.3-0.8-0.2-0.9,0.1c-2.4,4.6-7.6,5.6-11.4,2.2
				C366.5,143.1,365.6,144,366.2,144.5L366.2,144.5z"/>
		</g>
	</g>
	<g id="XMLID_214_">
		<g id="XMLID_107_">
			<path id="XMLID_75_" class="st1" d="M398.4,144.4c3,6.7,11.8,6.7,14.9,0.1c-0.4,0-0.7-0.1-1.1-0.1c1.1,3.1,5.1,5.4,6.9,1.6
				c0.3-0.7-0.7-1.3-1-0.6c-1.6-0.4-3.2-0.8-4.7-1.3c-0.2-0.4-0.9-0.6-1.1-0.1c-2.8,5.9-10.2,5.7-12.8-0.1
				C399.1,143.1,398.1,143.7,398.4,144.4L398.4,144.4z"/>
		</g>
	</g>
	<g id="XMLID_215_">
		<g id="XMLID_101_">
			<path id="XMLID_69_" class="st1" d="M64.3,94.3c0.1,0,0.2,0,0.3,0c0.8,0,0.8-1.2,0-1.2c-0.1,0-0.2,0-0.3,0
				C63.6,93.1,63.6,94.3,64.3,94.3L64.3,94.3z"/>
		</g>
	</g>
	<g id="XMLID_408_">
		<g id="XMLID_95_">
			<path id="XMLID_63_" class="st1" d="M441.3,120.6c0.8,0,0.8-1.2,0-1.2C440.6,119.4,440.6,120.6,441.3,120.6L441.3,120.6z"/>
		</g>
	</g>
	<g id="XMLID_411_">
		<g id="XMLID_89_">
			<path id="XMLID_57_" class="st1" d="M67.4,72.6c-0.1-0.1-0.2-0.2-0.3-0.3c-0.5-0.5-1.4,0.3-0.8,0.8c0.1,0.1,0.2,0.2,0.3,0.3
				C67.1,74,68,73.1,67.4,72.6L67.4,72.6z"/>
		</g>
	</g>
	<g id="XMLID_418_">
		<g id="XMLID_83_">
			<path id="XMLID_50_" class="st1" d="M23.7,68.7c-0.1,0-0.2,0-0.3,0c-0.8,0-0.8,1.2,0,1.2c0.1,0,0.2,0,0.3,0
				C24.4,69.9,24.4,68.7,23.7,68.7L23.7,68.7z"/>
		</g>
	</g>
	<g id="XMLID_216_">
		<g id="XMLID_77_">
			<path id="XMLID_43_" class="st1" d="M418.1,78c0-0.2,0-0.3,0-0.5c0-0.8-1.2-0.8-1.2,0c0,0.2,0,0.3,0,0.5
				C416.9,78.8,418.1,78.8,418.1,78L418.1,78z"/>
		</g>
	</g>
	<g id="XMLID_410_">
		<g id="XMLID_71_">
			<path id="XMLID_36_" class="st1" d="M431.6,57c0-0.2,0-0.3,0-0.5c0-0.8-1.2-0.8-1.2,0c0,0.2,0,0.3,0,0.5
				C430.4,57.8,431.6,57.8,431.6,57L431.6,57z"/>
		</g>
	</g>
	<g id="XMLID_412_">
		<g id="XMLID_65_">
			<path id="XMLID_22_" class="st1" d="M0.8,143.6c1.2,3.1,3.6,5.6,7,6c2,0.3,3.9-0.3,5.7-1c1.4-0.6,2.6-1.3,4-1.9
				c2-1.5,4-1.2,5.8,0.8c2.2,0.2,3.4,1.2,3.5,3c1.8,3.2,2.4,5.3,6.5,6c7.5,1.3,18.6-7.3,23,3c0.3,0.7,1.3,0.1,1-0.6
				c-1.7-4-5.4-5.7-9.6-5.7c-2.8,0-5.3,0.9-8,1.4c-2.4,0.5-5.2,1.2-7.6,0.4c-3.8-1.3-3.6-3.2-4.6-6.1c-4.7-13.1-20.4,8.4-25.7-5.5
				C1.6,142.5,0.5,142.8,0.8,143.6L0.8,143.6z"/>
		</g>
	</g>
	<g id="XMLID_413_">
		<g id="XMLID_59_">
			<path id="XMLID_21_" class="st1" d="M14.6,139c0-0.2,0-0.3,0-0.5c0-0.8-1.2-0.8-1.2,0c0,0.2,0,0.3,0,0.5
				C13.4,139.8,14.6,139.8,14.6,139L14.6,139z"/>
		</g>
	</g>
	<g id="XMLID_414_">
		<g id="XMLID_52_">
			<path id="XMLID_20_" class="st1" d="M13.5,126.6c0.8,0,0.8-1.2,0-1.2C12.7,125.4,12.7,126.6,13.5,126.6L13.5,126.6z"/>
		</g>
	</g>
	<g id="XMLID_415_">
		<g id="XMLID_45_">
			<path id="XMLID_18_" class="st1" d="M45.4,137c0,0.2,0,0.3,0,0.5c0,0.8,1.2,0.8,1.2,0c0-0.2,0-0.3,0-0.5
				C46.6,136.2,45.4,136.2,45.4,137L45.4,137z"/>
		</g>
	</g>
	<g id="XMLID_417_">
		<g id="XMLID_38_">
			<path id="XMLID_17_" class="st1" d="M40.1,149.5c0-0.3,0-0.7,0-1c0-0.8-1.2-0.8-1.2,0c0,0.3,0,0.7,0,1
				C38.9,150.3,40.1,150.3,40.1,149.5L40.1,149.5z"/>
		</g>
	</g>
	<g id="XMLID_420_">
		<g id="XMLID_31_">
			<path id="XMLID_9_" class="st1" d="M30.1,133.5c0-0.2,0-0.3,0-0.5c0-0.8-1.2-0.8-1.2,0c0,0.2,0,0.3,0,0.5
				C28.9,134.3,30.1,134.3,30.1,133.5L30.1,133.5z"/>
		</g>
	</g>
	<g id="XMLID_517_">
		<g id="XMLID_735_">
			<path id="XMLID_739_" class="st1" d="M348,97.8c1.9,0,1.9-3,0-3C346.1,94.8,346.1,97.8,348,97.8L348,97.8z"/>
		</g>
	</g>
	<g id="XMLID_541_">
		<g id="XMLID_742_">
			<path id="XMLID_746_" class="st1" d="M157.1,138.7c0.2-0.2,0.4-0.4,0.7-0.7c0.6-0.6,0.6-1.5,0-2.1c-0.6-0.6-1.5-0.6-2.1,0
				c-0.2,0.2-0.4,0.4-0.7,0.7c-0.6,0.6-0.6,1.5,0,2.1C155.5,139.3,156.5,139.3,157.1,138.7L157.1,138.7z"/>
		</g>
	</g>
	<g id="XMLID_565_">
		<g id="XMLID_749_">
			<path id="XMLID_753_" class="st1" d="M14.7,100.5c1.9,0,1.9-3,0-3C12.7,97.5,12.7,100.5,14.7,100.5L14.7,100.5z"/>
		</g>
	</g>
	<g id="XMLID_572_">
		<g id="XMLID_756_">
			<path id="XMLID_760_" class="st1" d="M18.7,18.5c1.9,0,1.9-3,0-3C16.7,15.5,16.7,18.5,18.7,18.5L18.7,18.5z"/>
		</g>
	</g>
	<g id="XMLID_649_">
		<g id="XMLID_763_">
			<path id="XMLID_767_" class="st1" d="M281.5,56.3c0-0.2,0-0.4,0-0.7c0-0.8-0.7-1.5-1.5-1.5c-0.8,0-1.5,0.7-1.5,1.5
				c0,0.2,0,0.4,0,0.7c0,0.8,0.7,1.5,1.5,1.5C280.8,57.8,281.5,57.2,281.5,56.3L281.5,56.3z"/>
		</g>
	</g>
	<g id="XMLID_650_">
		<g id="XMLID_770_">
			<path id="XMLID_774_" class="st1" d="M267.5,92.3c0-0.2,0-0.4,0-0.7c0-0.8-0.7-1.5-1.5-1.5c-0.8,0-1.5,0.7-1.5,1.5
				c0,0.2,0,0.4,0,0.7c0,0.8,0.7,1.5,1.5,1.5C266.8,93.8,267.5,93.2,267.5,92.3L267.5,92.3z"/>
		</g>
	</g>
</g>
</svg>
