<?xml version="1.0" encoding="utf-8"?>
<!-- Generator: Adobe Illustrator 19.0.0, SVG Export Plug-In . SVG Version: 6.00 Build 0)  -->
<svg version="1.1" id="Capa_1" xmlns="http://www.w3.org/2000/svg" xmlns:xlink="http://www.w3.org/1999/xlink" x="0px" y="0px"
	 viewBox="0 0 150 150" style="enable-background:new 0 0 150 150;" xml:space="preserve">
<style type="text/css">
	.st0{opacity:0.8;}
	.st1{fill:#FFFFFF;}
	.st2{fill:none;}
	.st3{opacity:0.5;}
	.st4{opacity:0.75;fill:#FFFFFF;}
</style>
<g class="st0">
	<path class="st1" d="M109.7,90.2c0,1.5,1.1,2.7,2.6,2.7h7.8c1.4,0,2.7-1,2.7-2.4v-6.1h-1.1v6.1c0,0.8-0.6,1.5-1.4,1.5h-7.9
		c-0.8,0-1.5-0.7-1.5-1.6v-6h-1.1V90.2L109.7,90.2z"/>
	<polygon class="st1" points="60.3,92.9 60.3,92 48.8,92 48.8,85.3 60.3,85.3 60.3,84.4 47.8,84.4 47.8,92.9 60.3,92.9 	"/>
	<path class="st1" d="M18.3,90.5c0-0.4,0-3.8,0-3.9c0.1-0.8,0.3-1.3,1.5-1.3h9.9v-0.9h-9.9c-1.3,0-2.5,0.9-2.5,2.2v3.9
		c0,1.3,1.1,2.4,2.4,2.4h10V92h-10C18.9,91.9,18.3,91.3,18.3,90.5L18.3,90.5z"/>
	<polygon class="st1" points="105.2,92.9 106.4,92.9 104.7,90.6 96.1,90.6 94.5,92.9 95.7,92.9 96.6,91.5 104.2,91.5 105.2,92.9 	
		"/>
	<polygon class="st1" points="49.3,88.4 60.3,88.4 60.3,87.4 50.3,87.4 50.3,86.7 60.3,86.7 60.3,85.8 49.3,85.8 49.3,88.4 	"/>
	<polygon class="st1" points="49.3,88.9 49.3,91.4 60.3,91.5 60.3,90.5 50.3,90.5 50.3,89.8 60.3,89.8 60.3,88.9 49.3,88.9 	"/>
	<path class="st1" d="M18.9,90.5c0,0.5,0.3,1,0.8,1h10v-0.9h-10v-3.9h10v-0.9h-10c-0.5,0-0.8,0.3-0.8,0.9V90.5L18.9,90.5z"/>
	<path class="st1" d="M120,90.6h-7.9v-6.2h-0.9v6.1c0,0.5,0.4,1,0.9,1h7.9c0.6,0,1-0.4,1-1v-6.1h-1V90.6L120,90.6z"/>
	<path class="st1" d="M80.2,92.9h1.1v-2.6h7.6v2.6H90v-2.7c0-0.6-0.6-0.9-1.1-0.9h-8.7V92.9L80.2,92.9z"/>
	<polygon class="st1" points="34.1,88.4 43.6,88.4 43.6,84.4 42.7,84.4 42.7,87.3 35,87.3 35,84.4 34.1,84.4 34.1,88.4 	"/>
	<polygon class="st1" points="34.1,88.9 34.1,92.9 35,92.9 35,89.7 42.7,89.7 42.7,92.9 43.6,92.9 43.6,88.9 34.1,88.9 	"/>
	<g>
		<polygon class="st1" points="102.1,84.4 98.9,84.4 92.9,92.9 93.9,92.9 99.1,85.3 101.8,85.3 106.9,92.9 108.1,92.9 		"/>
		<path class="st1" d="M91.5,88v-1.4c0-1.2-1-2.2-2.2-2.2H78.7v8.5l1.1,0v-7.6H89c0.8,0,1.5,0.6,1.5,1.4v1.4c0,0.4-0.2,0.9-0.4,1
			l-0.2,0.1l0.1,0.1c0.2,0.2,0.4,0.4,0.4,1v2.6h1.1v-2.6c0-0.7-0.2-0.9-0.4-1L91,89.2l0.2-0.1C91.6,88.7,91.5,88.1,91.5,88z"/>
		<path class="st1" d="M73.3,84.4H63.2l0,8.5h10.1c1.3,0,2.5-0.9,2.5-2.2v-4C75.8,85.2,74.6,84.4,73.3,84.4z M74.8,90.5
			c0,0.8-0.7,1.5-1.5,1.5h-9.1v-6.7h9.1c0.8,0,1.5,0.5,1.5,1.3V90.5z"/>
		<path class="st1" d="M90,86.9c0-0.6-0.5-1.1-1-1.1h-8.7V89h8.7c0.6,0,1.1-0.4,1.1-0.9V86.9z M88.9,88.1h-7.6v-1.4h7.6L88.9,88.1z"
			/>
		<path class="st1" d="M73.3,85.8h-8.6v5.7h8.6c0.5,0,1-0.4,1-0.9v-3.9C74.3,86.1,73.8,85.8,73.3,85.8z M73.3,90.6h-7.5v-3.9h7.5
			V90.6z"/>
		<path class="st1" d="M99.4,85.8L96.5,90h7.9l-2.8-4.2H99.4z M98.4,89l1.4-2.3h1.4l1.5,2.3H98.4z"/>
	</g>
	<polygon class="st1" points="126.8,84.4 126.8,92.9 127.8,92.9 127.8,84.4 126.8,84.4 	"/>
	<polygon class="st1" points="126.1,92.9 126.1,84.4 125.1,84.4 125.1,92.9 126.1,92.9 	"/>
	<polygon class="st1" points="33.6,92.9 33.6,84.4 32.7,84.4 32.7,92.9 33.6,92.9 	"/>
	<polygon class="st1" points="44.1,84.4 44.1,92.9 45,92.9 45,84.4 44.1,84.4 	"/>
</g>
<polygon class="st1" points="284.6,32 284.6,32 284.6,32 284.6,32 284.6,32 284.6,32 284.6,32 284.6,32 284.6,32 284.6,32 284.6,32 
	284.6,32 284.6,32 "/>
<polygon class="st1" points="284.6,32 284.6,32 284.6,32 284.6,32 284.6,32 284.6,32 284.7,32 284.7,32 284.6,32 284.6,32 284.6,32 
	"/>
<polygon class="st1" points="284.6,32.1 284.6,32.1 284.6,32 284.6,32 284.6,32.1 "/>
<polygon class="st1" points="284.6,32.1 284.6,32 284.6,32 284.6,32.1 284.6,32.1 284.6,32 284.6,32 284.6,32.1 284.6,32.1 
	284.6,32.1 284.6,32.1 284.6,32.1 284.6,32.1 "/>
<path class="st2" d="M106.7,112.7c0-0.8,0.1-1.3,0.3-1.6c0.2-0.3,0.5-0.5,0.9-0.5c0.3,0,0.6,0.1,0.8,0.3c0.2,0.2,0.3,0.6,0.3,1.2
	v4.8h3v-5.5c0-1.1-0.2-2-0.7-2.5c-0.5-0.5-1.1-0.8-1.9-0.8c-0.6,0-1.1,0.1-1.5,0.4c-0.4,0.2-0.8,0.7-1.2,1.2v-1.4h-2.7v8.7h2.9
	V112.7z"/>
<path class="st2" d="M117.7,117c1.4,0,2.5-0.4,3.2-1.3c0.8-0.9,1.2-2,1.2-3.3c0-1.2-0.3-2.2-0.9-3c-0.8-1-1.9-1.5-3.5-1.5
	c-1.3,0-2.4,0.4-3.2,1.3c-0.8,0.9-1.2,2-1.2,3.3c0,1.4,0.5,2.6,1.4,3.5C115.4,116.7,116.4,117,117.7,117z M116.6,110.8
	c0.3-0.4,0.6-0.6,1.1-0.6c0.4,0,0.7,0.2,1,0.6c0.3,0.4,0.4,0.9,0.4,1.7c0,0.8-0.1,1.4-0.4,1.8c-0.3,0.4-0.6,0.6-1,0.6
	c-0.4,0-0.8-0.2-1-0.6c-0.3-0.4-0.4-0.9-0.4-1.7C116.2,111.7,116.4,111.2,116.6,110.8z"/>
<path class="st2" d="M95.6,116.6c0.6,0.3,1.4,0.5,2.4,0.5c1.2,0,2.1-0.2,2.7-0.6c0.6-0.4,1.2-1,1.6-1.9l-2.9-0.3
	c-0.2,0.3-0.4,0.4-0.5,0.5c-0.3,0.2-0.5,0.2-0.8,0.2c-0.5,0-0.8-0.2-1.1-0.6c-0.2-0.3-0.3-0.7-0.4-1.2h5.9v-0.4
	c0-1.1-0.2-2.1-0.5-2.8c-0.3-0.7-0.8-1.3-1.5-1.6c-0.6-0.4-1.5-0.6-2.6-0.6c-1.4,0-2.4,0.4-3.2,1.3s-1.2,1.9-1.2,3.3
	c0,1,0.2,1.8,0.6,2.5S95,116.2,95.6,116.6z M96.9,110.5c0.3-0.4,0.7-0.6,1.1-0.6c0.4,0,0.7,0.1,1,0.4c0.2,0.3,0.4,0.7,0.5,1.4h-2.9
	C96.6,111.2,96.7,110.8,96.9,110.5z"/>
<path class="st2" d="M82.1,112.4c0-0.7,0.1-1.1,0.3-1.4c0.2-0.3,0.5-0.4,0.8-0.4c0.2,0,0.4,0.1,0.5,0.2c0.2,0.1,0.3,0.3,0.3,0.5
	c0,0.1,0.1,0.4,0.1,0.8v4.8h2.9v-4.5c0-0.6,0.1-1.1,0.3-1.4c0.2-0.3,0.5-0.4,0.8-0.4c0.3,0,0.5,0.1,0.7,0.5c0.1,0.2,0.2,0.5,0.2,0.9
	v5h2.9v-5.5c0-1.2-0.2-2.1-0.7-2.6c-0.5-0.6-1.1-0.8-1.9-0.8c-0.6,0-1,0.1-1.4,0.3c-0.4,0.2-0.8,0.6-1.3,1.2
	c-0.2-0.5-0.5-0.9-0.9-1.1c-0.4-0.2-0.8-0.4-1.5-0.4c-0.6,0-1.1,0.1-1.5,0.3c-0.4,0.2-0.8,0.6-1.2,1.1v-1.3h-2.7v8.7h2.9V112.4z"/>
<path class="st2" d="M66.3,112c-0.9,0.2-1.6,0.5-1.9,1c-0.3,0.4-0.5,1-0.5,1.6c0,0.7,0.2,1.3,0.7,1.8c0.5,0.5,1.2,0.7,2.1,0.7
	c0.7,0,1.3-0.1,1.8-0.4c0.4-0.2,0.8-0.5,1.1-0.9c0,0.3,0.1,0.4,0.1,0.6c0,0.1,0.1,0.3,0.2,0.5h2.8c-0.2-0.4-0.3-0.7-0.3-0.9
	c0-0.2-0.1-0.6-0.1-1v-3.9c0-0.4-0.1-0.8-0.2-1.3c-0.1-0.5-0.3-0.8-0.6-1c-0.4-0.4-0.8-0.6-1.3-0.7c-0.5-0.1-1.2-0.2-2.1-0.2
	c-0.5,0-1.1,0-1.5,0.1c-0.5,0.1-0.8,0.2-1.1,0.4c-0.4,0.2-0.7,0.5-0.9,0.8c-0.2,0.3-0.4,0.8-0.5,1.3L67,111c0.1-0.4,0.3-0.6,0.5-0.8
	c0.2-0.2,0.6-0.3,1.1-0.3c0.4,0,0.6,0.1,0.8,0.2s0.2,0.5,0.2,0.9c-0.4,0.2-0.7,0.3-1,0.4C68.2,111.5,67.4,111.7,66.3,112z
	 M69.5,113.2c0,0.4-0.1,0.8-0.2,1c-0.1,0.3-0.3,0.5-0.6,0.7c-0.3,0.2-0.6,0.3-0.9,0.3c-0.3,0-0.5-0.1-0.7-0.3
	c-0.2-0.2-0.2-0.4-0.2-0.6c0-0.2,0.1-0.4,0.2-0.6c0.2-0.2,0.5-0.4,1.1-0.5c0.4-0.1,0.9-0.3,1.3-0.4V113.2z"/>
<path class="st2" d="M127.3,115.2c-0.4,0-0.6-0.1-0.9-0.3c-0.2-0.2-0.4-0.5-0.5-0.8l-2.9,0.3c0.2,0.8,0.5,1.5,1.1,1.9
	c0.6,0.5,1.6,0.7,3,0.7c1,0,1.8-0.1,2.4-0.4c0.6-0.3,1-0.7,1.3-1.1c0.3-0.5,0.4-1,0.4-1.5c0-0.5-0.1-1-0.4-1.4
	c-0.3-0.4-0.6-0.7-1.1-1s-1.2-0.4-2.2-0.5c-0.6-0.1-1.1-0.2-1.3-0.3c-0.2-0.1-0.3-0.3-0.3-0.5c0-0.2,0.1-0.4,0.2-0.5
	c0.2-0.1,0.4-0.2,0.7-0.2c0.3,0,0.6,0.1,0.8,0.3c0.2,0.1,0.3,0.3,0.4,0.6l2.8-0.3c-0.2-0.6-0.4-1-0.7-1.4s-0.7-0.6-1.1-0.7
	c-0.4-0.2-1.1-0.2-2-0.2c-0.9,0-1.6,0.1-2.1,0.3c-0.5,0.2-0.9,0.5-1.2,0.9c-0.3,0.4-0.4,0.9-0.4,1.5c0,0.5,0.1,1,0.4,1.4
	c0.3,0.4,0.6,0.7,1,0.9s1.1,0.4,2.1,0.6c0.7,0.1,1.1,0.3,1.3,0.3c0.2,0.1,0.3,0.3,0.3,0.6c0,0.2-0.1,0.4-0.3,0.5
	C128,115.1,127.7,115.2,127.3,115.2z"/>
<path class="st2" d="M140.5,38.6c0-7.4-6-13.4-13.4-13.4H21.9c-7.4,0-13.4,6-13.4,13.4v59.9h131.9V38.6z"/>
<path class="st2" d="M40.5,116.6c0.6,0.3,1.4,0.5,2.4,0.5c1.2,0,2.1-0.2,2.7-0.6c0.6-0.4,1.2-1,1.6-1.9l-2.9-0.3
	c-0.2,0.3-0.4,0.4-0.5,0.5c-0.3,0.2-0.5,0.2-0.8,0.2c-0.5,0-0.8-0.2-1.1-0.6c-0.2-0.3-0.3-0.7-0.4-1.2h5.9v-0.4
	c0-1.1-0.2-2.1-0.5-2.8c-0.3-0.7-0.8-1.3-1.5-1.6c-0.6-0.4-1.5-0.6-2.6-0.6c-1.4,0-2.4,0.4-3.2,1.3c-0.8,0.8-1.2,1.9-1.2,3.3
	c0,1,0.2,1.8,0.6,2.5C39.4,115.7,39.9,116.2,40.5,116.6z M41.8,110.5c0.3-0.4,0.7-0.6,1.1-0.6c0.4,0,0.7,0.1,1,0.4
	c0.2,0.3,0.4,0.7,0.5,1.4h-2.9C41.5,111.2,41.6,110.8,41.8,110.5z"/>
<path class="st2" d="M58.3,113.6c0,1,0.1,1.7,0.2,2.1c0.2,0.4,0.4,0.8,0.8,1c0.3,0.2,0.9,0.3,1.6,0.3c0.6,0,1.3-0.1,2-0.3l-0.2-2.3
	c-0.4,0.1-0.7,0.2-0.9,0.2c-0.2,0-0.4-0.1-0.5-0.3c-0.1-0.1-0.1-0.4-0.1-0.7v-3.1h1.6v-2.4h-1.6v-3.3l-2.9,1.7v1.6h-1.1v2.4h1.1
	V113.6z"/>
<path class="st2" d="M279.5,107.6c0.3,0.3,0.7,0.5,1.1,0.7c0.4,0.1,1,0.2,1.6,0.2c0.7,0,1.2-0.1,1.7-0.3c0.4-0.2,0.8-0.5,1.1-0.9
	s0.5-0.8,0.6-1.4l-2.2-0.3c-0.1,0.4-0.3,0.6-0.5,0.8c-0.2,0.2-0.5,0.3-0.8,0.3c-0.4,0-0.7-0.1-0.9-0.4s-0.4-0.7-0.4-1.3
	c0-0.6,0.1-1.1,0.4-1.4s0.6-0.5,0.9-0.5c0.3,0,0.6,0.1,0.7,0.2c0.2,0.2,0.3,0.4,0.4,0.7l2.2-0.3c-0.2-0.8-0.6-1.4-1.1-1.8
	c-0.5-0.4-1.3-0.6-2.3-0.6c-0.7,0-1.3,0.1-1.8,0.3c-0.3,0.1-0.6,0.3-0.8,0.6s-0.5,0.6-0.6,0.9c-0.2,0.5-0.3,1.1-0.3,1.8
	c0,0.7,0.1,1.2,0.3,1.7C279,106.9,279.2,107.3,279.5,107.6z"/>
<path class="st2" d="M288.8,108.5c0.5,0,0.9-0.1,1.2-0.3c0.3-0.2,0.7-0.5,1-1v1.1h2.2v-7h-2.4v3.4c0,0.6-0.1,1.1-0.3,1.3
	c-0.2,0.2-0.4,0.4-0.7,0.4c-0.3,0-0.5-0.1-0.6-0.3c-0.1-0.2-0.2-0.5-0.2-0.9v-3.8h-2.4v4.4c0,0.9,0.2,1.6,0.6,2
	C287.6,108.2,288.1,108.5,288.8,108.5z"/>
<path class="st2" d="M52.5,115.2c-0.4,0-0.7-0.1-0.9-0.3c-0.2-0.2-0.4-0.5-0.5-0.8l-2.9,0.3c0.2,0.8,0.6,1.5,1.1,1.9
	c0.6,0.5,1.6,0.7,3,0.7c1,0,1.8-0.1,2.4-0.4c0.6-0.3,1-0.7,1.3-1.1c0.3-0.5,0.4-1,0.4-1.5c0-0.5-0.1-1-0.4-1.4
	c-0.3-0.4-0.6-0.7-1.1-1c-0.5-0.2-1.2-0.4-2.2-0.5c-0.6-0.1-1.1-0.2-1.3-0.3s-0.3-0.3-0.3-0.5c0-0.2,0.1-0.4,0.2-0.5
	c0.2-0.1,0.4-0.2,0.7-0.2c0.3,0,0.6,0.1,0.8,0.3c0.2,0.1,0.3,0.3,0.4,0.6l2.8-0.3c-0.2-0.6-0.4-1-0.7-1.4c-0.3-0.3-0.7-0.6-1.1-0.7
	c-0.4-0.2-1.1-0.2-2-0.2c-0.9,0-1.6,0.1-2.1,0.3c-0.5,0.2-0.9,0.5-1.2,0.9c-0.3,0.4-0.4,0.9-0.4,1.5c0,0.5,0.1,1,0.4,1.4
	c0.3,0.4,0.6,0.7,1,0.9c0.4,0.2,1.1,0.4,2.1,0.6c0.7,0.1,1.1,0.3,1.3,0.3c0.2,0.1,0.3,0.3,0.3,0.6c0,0.2-0.1,0.4-0.3,0.5
	C53.2,115.1,52.9,115.2,52.5,115.2z"/>
<g class="st3">
	<polygon class="st1" points="73,69.2 62.3,82 69.2,82 78.9,70.4 89,82 95.8,82 84.7,69.2 73,69.2 	"/>
	<polygon class="st1" points="61.2,64.7 46.9,82 55.6,82 70.1,64.7 61.2,64.7 	"/>
	<polygon class="st1" points="94,62 101.1,76.3 112.8,76.3 112.8,67.7 99.6,67.7 96.6,62 94,62 	"/>
	<polygon class="st1" points="76.2,49.4 85.6,60.6 93,60.6 83.6,49.4 76.2,49.4 	"/>
	<polygon class="st1" points="76.2,51.2 76.2,62.8 70.3,67.8 84.7,67.8 84.7,61.4 76.2,51.2 	"/>
	<polygon class="st1" points="45.3,73 37.7,82 44.5,82 52.3,73 45.3,73 	"/>
	<polygon class="st1" points="45.3,58.1 54.7,69.6 58.5,65.2 52.7,58.1 45.3,58.1 	"/>
	<polygon class="st1" points="62.3,45.9 72.3,58.1 74.5,58.1 74.5,51.5 69.9,45.9 62.3,45.9 	"/>
	<path class="st1" d="M66.4,34.1c-2.9,0-5.2,2.3-5.2,5.2c0,2.9,2.3,5.2,5.2,5.2c2.9,0,5.2-2.3,5.2-5.2
		C71.6,36.4,69.3,34.1,66.4,34.1L66.4,34.1z"/>
	<polygon class="st1" points="62,47.4 62,63.2 70.9,63.2 70.9,58.2 62,47.4 	"/>
	<path class="st1" d="M80.3,39.5c-2.4,0-4.4,2-4.4,4.4c0,2.4,2,4.4,4.4,4.4c2.4,0,4.4-2,4.4-4.4C84.6,41.4,82.7,39.5,80.3,39.5
		L80.3,39.5z"/>
	<polygon class="st1" points="45.4,60.2 45.5,71.5 53.3,71.5 54,70.7 45.4,60.2 	"/>
	<path class="st1" d="M49.7,49.1c-2.2,0-3.9,1.8-3.9,3.9s1.8,3.9,3.9,3.9c2.2,0,3.9-1.8,3.9-3.9S51.8,49.1,49.7,49.1L49.7,49.1z"/>
	<path class="st1" d="M102,58c-1.9,0-3.4,1.5-3.4,3.4c0,1.9,1.5,3.4,3.4,3.4c1.9,0,3.4-1.5,3.4-3.4C105.4,59.5,103.9,58,102,58
		L102,58z"/>
	<path class="st1" d="M110.9,77.2c-1,0-1.9,0.8-1.9,1.9c0,1,0.8,1.9,1.9,1.9c1,0,1.9-0.8,1.9-1.9C112.8,78.1,112,77.2,110.9,77.2
		L110.9,77.2z"/>
	<path class="st1" d="M103.5,77.2c-1,0-1.9,0.8-1.9,1.9c0,1,0.8,1.9,1.9,1.9c1,0,1.9-0.8,1.9-1.9C105.3,78.1,104.5,77.2,103.5,77.2
		L103.5,77.2z"/>
	<path class="st1" d="M91.7,62c-0.8,0-1.5,0.7-1.5,1.5c0,0.8,0.7,1.5,1.5,1.5c0.8,0,1.5-0.7,1.5-1.5C93.2,62.7,92.5,62,91.7,62
		L91.7,62z"/>
	<path class="st1" d="M67.1,113.7c-0.2,0.2-0.2,0.4-0.2,0.6c0,0.3,0.1,0.5,0.2,0.6c0.2,0.2,0.4,0.3,0.7,0.3c0.3,0,0.6-0.1,0.9-0.3
		c0.3-0.2,0.5-0.4,0.6-0.7c0.1-0.3,0.2-0.6,0.2-1v-0.5c-0.4,0.2-0.8,0.3-1.3,0.4C67.7,113.3,67.3,113.5,67.1,113.7z"/>
	<path class="st1" d="M117.7,114.8c0.4,0,0.8-0.2,1-0.6c0.3-0.4,0.4-1,0.4-1.8c0-0.8-0.1-1.3-0.4-1.7c-0.3-0.4-0.6-0.6-1-0.6
		c-0.4,0-0.8,0.2-1.1,0.6c-0.3,0.4-0.4,0.9-0.4,1.7c0,0.8,0.1,1.4,0.4,1.7C116.9,114.6,117.3,114.8,117.7,114.8z"/>
	<path class="st1" d="M99,110.3c-0.2-0.3-0.6-0.4-1-0.4c-0.5,0-0.8,0.2-1.1,0.6c-0.2,0.3-0.3,0.7-0.3,1.2h2.9
		C99.4,111.1,99.2,110.6,99,110.3z"/>
	<path class="st1" d="M43.9,110.3c-0.2-0.3-0.6-0.4-1-0.4c-0.5,0-0.8,0.2-1.1,0.6c-0.2,0.3-0.3,0.7-0.3,1.2h2.9
		C44.3,111.1,44.2,110.6,43.9,110.3z"/>
	<path class="st1" d="M8.5,109.2c0,7.4,6,13.4,13.4,13.4h105.2c7.4,0,13.4-6,13.4-13.4V102H8.5V109.2z M128.1,113.8
		c-0.2-0.1-0.6-0.2-1.3-0.3c-1-0.2-1.7-0.4-2.1-0.6s-0.7-0.5-1-0.9c-0.3-0.4-0.4-0.9-0.4-1.4c0-0.6,0.1-1.1,0.4-1.5
		c0.3-0.4,0.7-0.7,1.2-0.9c0.5-0.2,1.2-0.3,2.1-0.3c0.9,0,1.6,0.1,2,0.2c0.4,0.2,0.8,0.4,1.1,0.7s0.5,0.8,0.7,1.4l-2.8,0.3
		c-0.1-0.3-0.2-0.5-0.4-0.6c-0.2-0.2-0.5-0.3-0.8-0.3c-0.3,0-0.6,0.1-0.7,0.2c-0.2,0.1-0.2,0.3-0.2,0.5c0,0.2,0.1,0.4,0.3,0.5
		c0.2,0.1,0.6,0.2,1.3,0.3c1,0.1,1.7,0.3,2.2,0.5s0.8,0.5,1.1,1c0.3,0.4,0.4,0.9,0.4,1.4c0,0.5-0.1,1-0.4,1.5
		c-0.3,0.5-0.7,0.9-1.3,1.1c-0.6,0.3-1.4,0.4-2.4,0.4c-1.4,0-2.4-0.2-3-0.7c-0.6-0.5-1-1.1-1.1-1.9l2.9-0.3c0.1,0.4,0.3,0.7,0.5,0.8
		c0.2,0.2,0.5,0.3,0.9,0.3c0.4,0,0.7-0.1,0.9-0.3c0.2-0.1,0.3-0.3,0.3-0.5C128.4,114.2,128.3,114,128.1,113.8z M114.4,109.2
		c0.8-0.9,1.9-1.3,3.2-1.3c1.5,0,2.7,0.5,3.5,1.5c0.6,0.8,0.9,1.8,0.9,3c0,1.3-0.4,2.4-1.2,3.3c-0.8,0.9-1.9,1.3-3.2,1.3
		c-1.2,0-2.2-0.4-3-1.1c-0.9-0.9-1.4-2-1.4-3.5C113.3,111.2,113.7,110.1,114.4,109.2z M103.8,108.1h2.7v1.4c0.4-0.6,0.8-1,1.2-1.2
		c0.4-0.2,0.9-0.4,1.5-0.4c0.8,0,1.5,0.3,1.9,0.8c0.5,0.6,0.7,1.4,0.7,2.5v5.5h-3v-4.8c0-0.5-0.1-0.9-0.3-1.2
		c-0.2-0.2-0.4-0.3-0.8-0.3c-0.4,0-0.6,0.2-0.9,0.5c-0.2,0.3-0.3,0.9-0.3,1.6v4.2h-2.9V108.1z M94.7,109.2c0.8-0.8,1.8-1.3,3.2-1.3
		c1.1,0,2,0.2,2.6,0.6c0.6,0.4,1.1,0.9,1.5,1.6c0.3,0.7,0.5,1.6,0.5,2.8v0.4h-5.9c0.1,0.5,0.2,0.9,0.4,1.2c0.3,0.4,0.7,0.6,1.1,0.6
		c0.3,0,0.6-0.1,0.8-0.2c0.2-0.1,0.3-0.3,0.5-0.5l2.9,0.3c-0.4,0.9-1,1.5-1.6,1.9c-0.6,0.4-1.5,0.6-2.7,0.6c-1,0-1.8-0.2-2.4-0.5
		c-0.6-0.3-1.1-0.8-1.4-1.6s-0.6-1.5-0.6-2.5C93.5,111.1,93.9,110,94.7,109.2z M79.1,108.1h2.7v1.3c0.4-0.5,0.8-0.9,1.2-1.1
		c0.4-0.2,0.9-0.3,1.5-0.3c0.6,0,1.1,0.1,1.5,0.4c0.4,0.2,0.6,0.6,0.9,1.1c0.5-0.6,0.9-1,1.3-1.2c0.4-0.2,0.8-0.3,1.4-0.3
		c0.8,0,1.5,0.3,1.9,0.8c0.5,0.6,0.7,1.4,0.7,2.6v5.5h-2.9v-5c0-0.4-0.1-0.7-0.2-0.9c-0.2-0.3-0.4-0.5-0.7-0.5
		c-0.3,0-0.6,0.1-0.8,0.4c-0.2,0.3-0.3,0.7-0.3,1.4v4.5h-2.9V112c0-0.4,0-0.6-0.1-0.8c-0.1-0.2-0.2-0.4-0.3-0.5
		c-0.2-0.1-0.3-0.2-0.5-0.2c-0.3,0-0.6,0.1-0.8,0.4c-0.2,0.3-0.3,0.8-0.3,1.4v4.5h-2.9V108.1z M69.3,110.2c-0.1-0.2-0.4-0.2-0.8-0.2
		c-0.5,0-0.8,0.1-1.1,0.3c-0.2,0.1-0.3,0.4-0.5,0.8l-2.8-0.3c0.1-0.6,0.3-1,0.5-1.3c0.2-0.3,0.5-0.6,0.9-0.8
		c0.3-0.2,0.6-0.3,1.1-0.4c0.5-0.1,1-0.1,1.5-0.1c0.9,0,1.6,0.1,2.1,0.2c0.5,0.1,1,0.3,1.3,0.7c0.2,0.2,0.4,0.6,0.6,1
		c0.1,0.5,0.2,0.9,0.2,1.3v3.9c0,0.4,0,0.7,0.1,1c0,0.2,0.1,0.5,0.3,0.9H70c-0.1-0.2-0.2-0.4-0.2-0.5c0-0.1-0.1-0.3-0.1-0.6
		c-0.4,0.4-0.8,0.7-1.1,0.9c-0.5,0.2-1.1,0.4-1.8,0.4c-0.9,0-1.6-0.2-2.1-0.7c-0.5-0.5-0.7-1.1-0.7-1.8c0-0.7,0.2-1.2,0.5-1.6
		c0.3-0.4,1-0.7,1.9-1c1.1-0.3,1.8-0.4,2.1-0.5c0.3-0.1,0.7-0.2,1-0.4C69.5,110.6,69.5,110.3,69.3,110.2z M57.3,108.1h1.1v-1.6
		l2.9-1.7v3.3h1.6v2.4h-1.6v3.1c0,0.4,0,0.6,0.1,0.7c0.1,0.2,0.3,0.3,0.5,0.3c0.2,0,0.5-0.1,0.9-0.2l0.2,2.3c-0.7,0.2-1.4,0.3-2,0.3
		c-0.7,0-1.3-0.1-1.6-0.3c-0.3-0.2-0.6-0.5-0.8-1c-0.2-0.4-0.2-1.1-0.2-2.1v-3.1h-1.1V108.1z M53.3,113.8c-0.2-0.1-0.6-0.2-1.3-0.3
		c-1-0.2-1.7-0.4-2.1-0.6c-0.4-0.2-0.7-0.5-1-0.9c-0.3-0.4-0.4-0.9-0.4-1.4c0-0.6,0.1-1.1,0.4-1.5c0.3-0.4,0.7-0.7,1.2-0.9
		c0.5-0.2,1.2-0.3,2.1-0.3c0.9,0,1.6,0.1,2,0.2c0.4,0.2,0.8,0.4,1.1,0.7c0.3,0.3,0.5,0.8,0.7,1.4l-2.8,0.3c-0.1-0.3-0.2-0.5-0.4-0.6
		c-0.2-0.2-0.5-0.3-0.8-0.3c-0.3,0-0.6,0.1-0.7,0.2c-0.2,0.1-0.2,0.3-0.2,0.5c0,0.2,0.1,0.4,0.3,0.5s0.6,0.2,1.3,0.3
		c1,0.1,1.7,0.3,2.2,0.5c0.5,0.2,0.8,0.5,1.1,1c0.3,0.4,0.4,0.9,0.4,1.4c0,0.5-0.1,1-0.4,1.5c-0.3,0.5-0.7,0.9-1.3,1.1
		c-0.6,0.3-1.4,0.4-2.4,0.4c-1.4,0-2.4-0.2-3-0.7c-0.6-0.5-1-1.1-1.1-1.9l2.9-0.3c0.1,0.4,0.3,0.7,0.5,0.8c0.2,0.2,0.5,0.3,0.9,0.3
		c0.4,0,0.7-0.1,0.9-0.3c0.2-0.1,0.3-0.3,0.3-0.5C53.6,114.2,53.5,114,53.3,113.8z M39.6,109.2c0.8-0.8,1.8-1.3,3.2-1.3
		c1.1,0,2,0.2,2.6,0.6c0.6,0.4,1.1,0.9,1.5,1.6c0.3,0.7,0.5,1.6,0.5,2.8v0.4h-5.9c0.1,0.5,0.2,0.9,0.4,1.2c0.3,0.4,0.7,0.6,1.1,0.6
		c0.3,0,0.6-0.1,0.8-0.2c0.2-0.1,0.3-0.3,0.5-0.5l2.9,0.3c-0.4,0.9-1,1.5-1.6,1.9c-0.6,0.4-1.5,0.6-2.7,0.6c-1,0-1.8-0.2-2.4-0.5
		c-0.6-0.3-1.1-0.8-1.4-1.6c-0.4-0.7-0.6-1.5-0.6-2.5C38.5,111.1,38.9,110,39.6,109.2z M29,108.1h3v4.8c0,0.5,0.1,0.9,0.3,1.2
		c0.2,0.2,0.4,0.3,0.8,0.3c0.4,0,0.6-0.2,0.9-0.5c0.2-0.3,0.3-0.9,0.3-1.7v-4.2h2.9v8.7h-2.7v-1.4c-0.4,0.6-0.8,1-1.2,1.2
		c-0.4,0.2-0.9,0.4-1.5,0.4c-0.8,0-1.4-0.3-1.9-0.8c-0.5-0.6-0.7-1.4-0.7-2.5V108.1z M19.2,110.3c0.2-0.4,0.5-0.8,0.8-1.2
		c0.3-0.3,0.7-0.6,1.1-0.8c0.6-0.3,1.3-0.4,2.2-0.4c1.3,0,2.2,0.3,2.9,0.8c0.7,0.5,1.1,1.3,1.4,2.2l-2.8,0.4
		c-0.1-0.4-0.2-0.7-0.5-0.8c-0.2-0.2-0.5-0.3-0.9-0.3c-0.5,0-0.9,0.2-1.2,0.6s-0.5,1-0.5,1.8c0,0.7,0.1,1.3,0.4,1.6
		c0.3,0.4,0.7,0.6,1.1,0.6c0.4,0,0.7-0.1,1-0.3c0.3-0.2,0.5-0.6,0.6-1l2.8,0.4c-0.2,0.7-0.4,1.2-0.8,1.7c-0.4,0.5-0.8,0.9-1.3,1.1
		c-0.5,0.3-1.2,0.4-2.1,0.4c-0.8,0-1.5-0.1-2-0.3c-0.5-0.2-1-0.5-1.4-0.8c-0.4-0.4-0.7-0.8-0.9-1.4c-0.2-0.5-0.3-1.2-0.3-2.1
		C18.8,111.6,18.9,110.9,19.2,110.3z"/>
</g>
<path class="st4" d="M144,38.6c0-9.3-7.6-16.9-16.9-16.9H21.9C12.6,21.7,5,29.2,5,38.6v70.6c0,9.3,7.6,16.9,16.9,16.9h105.2
	c3.4,0,6.5-1,9.2-2.7c1.8-1.2,3.4-2.7,4.6-4.4c2-2.8,3.1-6.1,3.1-9.8V38.6z M8.5,38.6c0-7.4,6-13.4,13.4-13.4h105.2
	c7.4,0,13.4,6,13.4,13.4v59.9H8.5V38.6z M140.5,109.2c0,7.4-6,13.4-13.4,13.4H21.9c-7.4,0-13.4-6-13.4-13.4V102h131.9V109.2z"/>
</svg>
