<?xml version="1.0" encoding="utf-8"?>
<!-- Generator: Adobe Illustrator 19.0.0, SVG Export Plug-In . SVG Version: 6.00 Build 0)  -->
<svg version="1.1" id="Layer_1" xmlns="http://www.w3.org/2000/svg" xmlns:xlink="http://www.w3.org/1999/xlink" x="0px" y="0px"
	 viewBox="0 0 900 900" style="enable-background:new 0 0 900 900;" xml:space="preserve">
<style type="text/css">
	.st0{opacity:0.5;fill:#FFFFFF;}
</style>
<path class="st0" d="M450,35.5C221.1,35.5,35.5,221.1,35.5,450S221.1,864.5,450,864.5S864.5,678.9,864.5,450S678.9,35.5,450,35.5z
	 M655.9,549.5C578.2,575.7,480.1,539.1,450,470c-30.1,69.1-128.2,105.7-205.9,79.4c-33.2-11.2-59.7-31.7-79.9-60.3
	c-15.8-22.4-26.5-47.1-31.5-74.6c2.8,2.4,5.5,4.8,8.3,7.2c33.4,29.2,63,31.1,98.6,4.9c16.4-12,31-26.4,47.4-38.3
	c12.7-9.3,26.1-18.4,40.6-24.2c25.1-9.9,50.5-6.5,73.3,7.4c15.5,9.4,29.7,21.2,44.1,32.4c2,1.6,3.5,2.4,5.1,2.3
	c1.5,0.1,3-0.8,5.1-2.3c14.4-11.2,28.6-23,44.1-32.4c22.9-13.9,48.3-17.3,73.3-7.4c14.5,5.7,27.9,14.9,40.6,24.2
	c16.4,12,31,26.3,47.4,38.3c35.6,26.2,65.2,24.3,98.6-4.9c2.8-2.4,5.5-4.8,8.3-7.2c-5,27.5-15.7,52.2-31.5,74.6
	C715.6,517.8,689.1,538.2,655.9,549.5z"/>
</svg>
