<?xml version="1.0" encoding="utf-8"?>
<!-- Generator: Adobe Illustrator 19.0.0, SVG Export Plug-In . SVG Version: 6.00 Build 0)  -->
<svg version="1.1" id="Capa_1" xmlns="http://www.w3.org/2000/svg" xmlns:xlink="http://www.w3.org/1999/xlink" x="0px" y="0px"
	 viewBox="0 0 150 150" style="enable-background:new 0 0 150 150;" xml:space="preserve">
<style type="text/css">
	.st0{opacity:0.5;}
	.st1{fill-rule:evenodd;clip-rule:evenodd;fill:#FFFFFF;}
</style>
<g class="st0">
	<path class="st1" d="M58.7,81.6c0,0-11,4.5-15.2,11.3c-5.1,6.5-6.5,18.4-18.4,18.4C13.2,111.4,6.6,97.7,6.6,87
		c0-11.6,10.1-17.6,25-17.6C46.5,69.4,56.6,74.2,58.7,81.6L58.7,81.6z"/>
	<path class="st1" d="M59.3,72.4C49.5,63.8,39.4,67,34.6,67c-4.2,0-11-2.1-11-6c0-9.2,15.8-19.3,38.7-19.3
		c12.2,0,18.7,2.7,18.7,10.1C81,59.3,70,70.6,59.3,72.4L59.3,72.4z"/>
	<path class="st1" d="M81.9,72.4c0-19.3,7.4-28.9,22.9-28.9c14.9,0,26.8,11.9,26.8,20.5c0,4.5-1.5,6.5-6.8,6.5
		c-5.1,0-14.9-3.9-21.4-3.9C96.5,66.7,89.3,67.9,81.9,72.4L81.9,72.4z"/>
	<path class="st1" d="M81,82.8c5.7-7.4,11.9-10.7,28.6-10.7c16.1,0,29.8,6.5,29.8,19c0,12.8-19.6,23.2-27.1,23.2
		c-7.4,0-11-8.3-14-14C95.6,94.4,88.4,84.6,81,82.8L81,82.8z"/>
	<path class="st1" d="M70.6,86.1c14.6,0,28.9,15.8,28.9,28.3c0,10.1-18.7,12.5-26.8,12.5c-8.3,0-35.4-4.2-35.4-14.3
		C37.3,98.6,61.1,86.1,70.6,86.1L70.6,86.1z"/>
</g>
<path class="st1" d="M71.8,71.5c6.2,0,8,2.1,8,5.4c0,3.6-3.9,6-9.8,6c-5.7,0-7.4-2.4-7.4-4.8C62.6,76.3,64.9,71.5,71.8,71.5
	L71.8,71.5z"/>
</svg>
