<?xml version="1.0" encoding="utf-8"?>
<!-- Generator: Adobe Illustrator 19.0.0, SVG Export Plug-In . SVG Version: 6.00 Build 0)  -->
<svg version="1.1" id="Layer_1" xmlns="http://www.w3.org/2000/svg" xmlns:xlink="http://www.w3.org/1999/xlink" x="0px" y="0px"
	 viewBox="0 0 150 150" style="enable-background:new 0 0 150 150;" xml:space="preserve">
<style type="text/css">
	.Arched_x0020_Green{fill:url(#SVGID_1_);stroke:#FFFFFF;stroke-width:0.25;stroke-miterlimit:1;}
	.st0{opacity:0.5;}
	.st1{fill-rule:evenodd;clip-rule:evenodd;fill:#FFFFFF;}
</style>
<linearGradient id="SVGID_1_" gradientUnits="userSpaceOnUse" x1="-321" y1="612" x2="-320.2929" y2="611.2929">
	<stop  offset="0" style="stop-color:#64A13C"/>
	<stop  offset="0.9831" style="stop-color:#283918"/>
</linearGradient>
<g class="st0">
	<path class="st1" d="M75,53.4c3.1,0,5.6-1.6,6-3.7L84,15.2c0-3.4-4-6.2-9-6.2c-5,0-9,2.8-9,6.2L69,49.7
		C69.4,51.8,71.9,53.4,75,53.4L75,53.4L75,53.4z"/>
	<path class="st1" d="M56.3,64.2c1.5-2.7,1.4-5.7-0.2-7L27.7,37.3c-2.9-1.7-7.4,0.3-9.9,4.7c-2.5,4.3-2.1,9.2,0.9,10.9l31.4,14.6
		C52.1,68.3,54.8,66.9,56.3,64.2L56.3,64.2L56.3,64.2z"/>
	<path class="st1" d="M93.7,64.2c1.6,2.7,4.2,4.1,6.2,3.3l31.4-14.6c3-1.7,3.4-6.6,0.9-10.9c-2.5-4.4-6.9-6.4-9.9-4.7L93.9,57.2
		C92.3,58.5,92.1,61.5,93.7,64.2L93.7,64.2L93.7,64.2z"/>
	<path class="st1" d="M75,96.6c3.1,0,5.6,1.6,6,3.7l3.1,34.5c0,3.4-4,6.2-9,6.2c-5,0-9-2.8-9-6.2l3.1-34.5
		C69.4,98.2,71.9,96.6,75,96.6L75,96.6L75,96.6z"/>
	<path class="st1" d="M93.7,85.8c1.6-2.7,4.2-4.1,6.2-3.3l31.4,14.6c3,1.7,3.4,6.6,0.9,10.9c-2.5,4.3-6.9,6.4-9.9,4.7L93.9,92.8
		C92.3,91.5,92.1,88.5,93.7,85.8L93.7,85.8L93.7,85.8z"/>
	<path class="st1" d="M56.3,85.8c1.5,2.7,1.4,5.7-0.2,7l-28.4,19.9c-2.9,1.7-7.4-0.3-9.9-4.7c-2.5-4.4-2.1-9.2,0.9-10.9l31.4-14.6
		C52.1,81.7,54.8,83.1,56.3,85.8L56.3,85.8L56.3,85.8z"/>
</g>
</svg>
