<?xml version="1.0" encoding="utf-8"?>
<!-- Generator: Adobe Illustrator 19.0.0, SVG Export Plug-In . SVG Version: 6.00 Build 0)  -->
<svg version="1.1" id="Capa_1" xmlns="http://www.w3.org/2000/svg" xmlns:xlink="http://www.w3.org/1999/xlink" x="0px" y="0px"
	 viewBox="-379 392.1 39.2 17.9" style="enable-background:new -379 392.1 39.2 17.9;" xml:space="preserve">
<style type="text/css">
	.st0{fill:#8CC63F;}
	.st1{fill:none;stroke:#211915;stroke-linecap:round;stroke-linejoin:round;stroke-miterlimit:10;}
	.st2{fill:#ED1C24;}
</style>
<path id="XMLID_550_" class="st0" d="M-348.9,392.4c-4.8,0-8.7,3.9-8.7,8.7c0,4.8,3.9,8.7,8.7,8.7c4.8,0,8.7-3.9,8.7-8.7
	C-340.1,396.2-344,392.4-348.9,392.4z M-351.5,407.2l-3-3c-0.4-0.4-0.4-1,0-1.3c0.4-0.4,1-0.4,1.3,0l1.6,1.6l7.5-7.5
	c0.4-0.4,1-0.4,1.3,0c0.4,0.4,0.4,1,0,1.3L-351.5,407.2z"/>
<line class="st1" x1="-361.5" y1="408.6" x2="-357.7" y2="393.5"/>
<path id="XMLID_482_" class="st2" d="M-378.7,401.1c0,4.7,3.8,8.5,8.5,8.5s8.5-3.8,8.5-8.5s-3.8-8.5-8.5-8.5
	C-374.9,392.6-378.7,396.4-378.7,401.1z M-371.4,401.1l-3.4-3.4c-0.4-0.3-0.4-0.9,0-1.3c0.3-0.4,0.9-0.4,1.3,0l3.4,3.4l3.4-3.4
	c0.3-0.4,0.9-0.4,1.3,0c0.4,0.3,0.4,0.9,0,1.3l-3.3,3.4l3.4,3.4c0.4,0.3,0.4,0.9,0,1.3c-0.2,0.2-0.4,0.3-0.7,0.3
	c-0.3,0-0.5-0.1-0.7-0.3l-3.4-3.4l-3.4,3.4c-0.2,0.2-0.4,0.3-0.7,0.3c-0.3,0-0.5-0.1-0.7-0.3c-0.4-0.3-0.4-0.9,0-1.3L-371.4,401.1z"
	/>
</svg>
