<?xml version="1.0" encoding="utf-8"?>
<!-- Generator: Adobe Illustrator 19.0.0, SVG Export Plug-In . SVG Version: 6.00 Build 0)  -->
<svg version="1.1" id="Capa_1" xmlns="http://www.w3.org/2000/svg" xmlns:xlink="http://www.w3.org/1999/xlink" x="0px" y="0px"
	 viewBox="-390 392.1 39.2 17.9" style="enable-background:new -390 392.1 39.2 17.9;" xml:space="preserve">
<style type="text/css">
	.st0{fill:#8CC63F;}
	.st1{fill:none;stroke:#211915;stroke-linecap:round;stroke-linejoin:round;stroke-miterlimit:10;}
	.st2{fill:#ED1C24;}
</style>
<path id="XMLID_550_" class="st0" d="M-381.1,392.4c-4.8,0-8.7,3.9-8.7,8.7c0,4.8,3.9,8.7,8.7,8.7c4.8,0,8.7-3.9,8.7-8.7
	C-372.4,396.2-376.3,392.4-381.1,392.4z M-383.7,407.2l-3-3c-0.4-0.4-0.4-1,0-1.3c0.4-0.4,1-0.4,1.3,0l1.6,1.6l7.5-7.5
	c0.4-0.4,1-0.4,1.3,0c0.4,0.4,0.4,1,0,1.3L-383.7,407.2z"/>
<line class="st1" x1="-372.3" y1="408.6" x2="-368.5" y2="393.5"/>
<path id="XMLID_482_" class="st2" d="M-359.8,392.6c-4.7,0-8.5,3.8-8.5,8.5c0,4.7,3.8,8.5,8.5,8.5c4.7,0,8.5-3.8,8.5-8.5
	C-351.3,396.4-355.1,392.6-359.8,392.6z M-355,404.5c0.4,0.4,0.4,1,0,1.3c-0.2,0.2-0.4,0.3-0.7,0.3c-0.3,0-0.5-0.1-0.7-0.3l-3.4-3.4
	l-3.4,3.4c-0.2,0.2-0.4,0.3-0.7,0.3c-0.3,0-0.5-0.1-0.7-0.3c-0.4-0.4-0.4-1,0-1.3l3.4-3.4l-3.3-3.4c-0.4-0.4-0.4-1,0-1.3
	c0.4-0.4,1-0.4,1.3,0l3.4,3.4l3.4-3.4c0.4-0.4,1-0.4,1.3,0c0.4,0.4,0.4,1,0,1.3l-3.4,3.4L-355,404.5z"/>
</svg>
