<?xml version="1.0" encoding="utf-8"?>
<!-- Generator: Adobe Illustrator 19.0.0, SVG Export Plug-In . SVG Version: 6.00 Build 0)  -->
<svg version="1.1" id="Capa_1" xmlns="http://www.w3.org/2000/svg" xmlns:xlink="http://www.w3.org/1999/xlink" x="0px" y="0px"
	 viewBox="-390 392.1 39.2 17.9" style="enable-background:new -390 392.1 39.2 17.9;" xml:space="preserve">
<style type="text/css">
	.st0{fill:#8CC63F;}
	.st1{fill:none;stroke:#211915;stroke-linecap:round;stroke-linejoin:round;stroke-miterlimit:10;}
</style>
<path id="XMLID_550_" class="st0" d="M-381.1,392.4c-4.8,0-8.7,3.9-8.7,8.7c0,4.8,3.9,8.7,8.7,8.7c4.8,0,8.7-3.9,8.7-8.7
	C-372.4,396.2-376.3,392.4-381.1,392.4z M-383.7,407.2l-3-3c-0.4-0.4-0.4-1,0-1.3c0.4-0.4,1-0.4,1.3,0l1.6,1.6l7.5-7.5
	c0.4-0.4,1-0.4,1.3,0c0.4,0.4,0.4,1,0,1.3L-383.7,407.2z"/>
<path id="XMLID_1_" class="st0" d="M-359.9,392.4c-4.8,0-8.7,3.9-8.7,8.7c0,4.8,3.9,8.7,8.7,8.7c4.8,0,8.7-3.9,8.7-8.7
	C-351.1,396.2-355,392.4-359.9,392.4z M-362.5,407.2l-3-3c-0.4-0.4-0.4-1,0-1.3c0.4-0.4,1-0.4,1.3,0l1.6,1.6l7.5-7.5
	c0.4-0.4,1-0.4,1.3,0c0.4,0.4,0.4,1,0,1.3L-362.5,407.2z"/>
<line class="st1" x1="-372.3" y1="408.6" x2="-368.5" y2="393.5"/>
</svg>
