<?xml version="1.0" encoding="utf-8"?>
<!-- Generator: Adobe Illustrator 19.0.0, SVG Export Plug-In . SVG Version: 6.00 Build 0)  -->
<svg version="1.1" id="Capa_1" xmlns="http://www.w3.org/2000/svg" xmlns:xlink="http://www.w3.org/1999/xlink" x="0px" y="0px"
	 viewBox="-333 111 132 132" style="enable-background:new -333 111 132 132;" xml:space="preserve">
<style type="text/css">
	.st0{fill:#FFFFFF;}
</style>
<g>
	<path class="st0" d="M-234.1,111h-17.2c-19.2,0-31.7,12.8-31.7,32.5v15h-17c-1.5,0-2.7,1.2-2.7,2.7v21.7c0,1.5,1.2,2.7,2.7,2.7
		h17.2v54.6c0,1.5,1.2,2.7,2.7,2.7h22.5c1.5,0,2.7-1.2,2.7-2.7v-54.7h20.2c1.5,0,2.7-1.2,2.7-2.7v-21.7c0-0.7-0.3-1.4-0.8-1.9
		c-0.5-0.5-1.2-0.8-1.9-0.8h-20.2v-12.6c0-6,1.5-9.2,9.3-9.2h11.5c1.5,0,2.7-1.2,2.7-2.7v-20.2C-231.4,112.2-232.6,111-234.1,111z"
		/>
</g>
</svg>
