<?xml version="1.0" encoding="utf-8"?>
<!-- Generator: Adobe Illustrator 24.0.0, SVG Export Plug-In . SVG Version: 6.00 Build 0)  -->
<svg version="1.1" id="Capa_1" xmlns="http://www.w3.org/2000/svg" xmlns:xlink="http://www.w3.org/1999/xlink" x="0px" y="0px"
	 viewBox="0 0 512 512" style="enable-background:new 0 0 512 512;" xml:space="preserve">
<style type="text/css">
	.st0{fill:#FFFFFF;}
</style>
<g>
	<path class="st0" d="M102.2,472c-5.4,0-10.9-1.2-16-3.6C72.5,462.2,64,448.9,64,433.8V392H46c-25.4,0-46-20.6-46-46V86
		c0-25.4,20.6-46,46-46h420c25.4,0,46,20.6,46,46v260c0,25.4-20.6,46-46,46H198.6l-70.8,70c-0.3,0.3-0.5,0.5-0.8,0.8
		C119.8,468.9,111.1,472,102.2,472L102.2,472z M46,72c-7.7,0-14,6.3-14,14v260c0,7.7,6.3,14,14,14h34c8.8,0,16,7.2,16,16v57.9
		c0,3.4,2.2,4.9,3.6,5.5c1.3,0.6,3.7,1.2,6.2-0.7l75-74.1c3-3,7-4.6,11.2-4.6h274c7.7,0,14-6.3,14-14V86c0-7.7-6.3-14-14-14L46,72
		L46,72z"/>
</g>
<g>
	<path class="st0" d="M246.9,257.2c-1.2,0-2.5-0.3-3.6-0.8L98.2,188.2c-3-1.4-4.9-4.4-4.9-7.7c0-3.3,1.9-6.3,4.9-7.7l145.1-68.3
		c2.3-1.1,5-1.1,7.3,0l145.1,68.3c3,1.4,4.9,4.4,4.9,7.7c0,3.3-1.9,6.3-4.9,7.7l-145.1,68.3C249.4,257,248.1,257.2,246.9,257.2
		L246.9,257.2z M121.9,180.4l125,58.8l125-58.8l-125-58.8L121.9,180.4z"/>
	<path class="st0" d="M243.1,324.6l-102.4-51.2c-2.9-1.5-4.7-4.4-4.7-7.6v-65.3c0-2.9,1.5-5.6,4-7.2c2.5-1.6,5.6-1.7,8.2-0.5
		l98.8,46.5l98.8-46.5c2.6-1.2,5.7-1,8.2,0.5c2.5,1.6,4,4.3,4,7.2v65.3c0,3.2-1.8,6.2-4.7,7.6l-102.4,51.2"/>
	<path class="st0" d="M153,260.5l93.9,46.9l93.9-46.9V214l-90.2,42.5c-2.3,1.1-5,1.1-7.3,0L153,214V260.5z"/>
	<path class="st0" d="M391.9,189H246.9c-4.7,0-8.5-3.8-8.5-8.5c0-4.7,3.8-8.5,8.5-8.5h145.1c4.7,0,8.5,3.8,8.5,8.5
		C400.5,185.1,396.7,189,391.9,189z"/>
	<path class="st0" d="M391.9,265.8c-4.7,0-8.5-3.8-8.5-8.5v-76.8c0-4.7,3.8-8.5,8.5-8.5s8.5,3.8,8.5,8.5v76.8
		C400.5,261.9,396.7,265.8,391.9,265.8z"/>
	<path class="st0" d="M246.9,206c-4.7,0-8.5-3.8-8.5-8.5v-34.1c0-4.7,3.8-8.5,8.5-8.5s8.5,3.8,8.5,8.5v34.1
		C255.4,202.2,251.6,206,246.9,206z"/>
	<path class="st0" d="M374.9,291.4c-1.6,0-3.3-0.5-4.7-1.4c-3.9-2.6-5-7.9-2.4-11.8l17.1-25.6c2.6-3.9,7.9-5,11.8-2.4
		c3.9,2.6,5,7.9,2.4,11.8L382,287.6C380.3,290,377.6,291.4,374.9,291.4z"/>
	<path class="st0" d="M409,291.4c-2.8,0-5.5-1.3-7.1-3.8L384.8,262c-2.6-3.9-1.6-9.2,2.4-11.8c3.9-2.6,9.2-1.6,11.8,2.4l17.1,25.6
		c2.6,3.9,1.6,9.2-2.4,11.8C412.3,290.9,410.6,291.4,409,291.4z"/>
	<path class="st0" d="M246.9,282.8c-4.7,0-8.5-3.8-8.5-8.5v-25.6c0-4.7,3.8-8.5,8.5-8.5s8.5,3.8,8.5,8.5v25.6
		C255.4,279,251.6,282.8,246.9,282.8z"/>
</g>
</svg>
