<?xml version="1.0" encoding="utf-8"?>
<!-- Generator: Adobe Illustrator 19.0.0, SVG Export Plug-In . SVG Version: 6.00 Build 0)  -->
<svg version="1.1" id="Capa_1" xmlns="http://www.w3.org/2000/svg" xmlns:xlink="http://www.w3.org/1999/xlink" x="0px" y="0px"
	 viewBox="0 0 17.8 17.9" style="enable-background:new 0 0 17.8 17.9;" xml:space="preserve">
<style type="text/css">
	.st0{fill:#ED1C24;}
</style>
<path id="XMLID_482_" class="st0" d="M8.8,0.4c-4.7,0-8.5,3.8-8.5,8.5c0,4.7,3.8,8.5,8.5,8.5s8.5-3.8,8.5-8.5
	C17.3,4.2,13.5,0.4,8.8,0.4z M13.6,12.3c0.4,0.4,0.4,1,0,1.3c-0.2,0.2-0.4,0.3-0.7,0.3s-0.5-0.1-0.7-0.3l-3.4-3.4l-3.4,3.4
	c-0.2,0.2-0.4,0.3-0.7,0.3s-0.5-0.1-0.7-0.3c-0.4-0.4-0.4-1,0-1.3l3.4-3.4L4.1,5.5c-0.4-0.4-0.4-1,0-1.3c0.4-0.4,1-0.4,1.3,0
	l3.4,3.4l3.4-3.4c0.4-0.4,1-0.4,1.3,0c0.4,0.4,0.4,1,0,1.3l-3.4,3.4L13.6,12.3z"/>
</svg>
