<?xml version="1.0" encoding="utf-8"?>
<!-- Generator: Adobe Illustrator 24.0.0, SVG Export Plug-In . SVG Version: 6.00 Build 0)  -->
<svg version="1.1" id="Layer_1" xmlns="http://www.w3.org/2000/svg" xmlns:xlink="http://www.w3.org/1999/xlink" x="0px" y="0px"
	 viewBox="0 0 50.7 52.5" style="enable-background:new 0 0 50.7 52.5;" xml:space="preserve">
<g>
	<path class="hfill" d="M43.3,18c-0.1-0.6-0.3-1.9-0.5-2.6c0.6,0.9,1.4,2.2,2,3.8C45.5,21.3,46,24,46,27c0,5.8-2,12.3-8.2,16.7
		c-4.4,3.1-8.9,4-12.8,4c-5.9,0-10.4-2.1-11.4-2.6L12,47.5L8.3,36.7l11.6,2l-2.6,1.6c2.1,1.5,5.6,2.8,9.5,2.8c2.9,0,6-0.8,9-2.6
		c6.7-4.3,8.3-10.9,8.3-16.1c0-1.3-0.1-2.5-0.3-3.5C43.7,20.2,43.5,18.6,43.3,18"/>
	<path class="hfill" d="M7.4,34.6c0.1,0.6,0.3,1.9,0.5,2.6c-0.6-0.8-1.4-2.2-2-3.8c-0.7-2.1-1.2-4.9-1.2-7.9c0-5.8,2-12.3,8.2-16.7
		c4.4-3,8.9-4,12.8-4c5.9,0,10.4,2.1,11.4,2.6L38.7,5l3.7,10.8l-11.6-2l2.6-1.6c-2.1-1.5-5.6-2.8-9.4-2.8c-2.9,0-6,0.8-9,2.6
		c-6.7,4.3-8.3,10.9-8.3,16.1c0,1.3,0.1,2.5,0.3,3.5C7,32.3,7.2,33.9,7.4,34.6"/>
</g>
<g>
	<path d="M36.4,29.8v-0.3c0-0.2-0.2-0.3-0.3-0.4l0,0l0,0c-0.2,0-0.4,0-0.6,0c-0.2-2-1.1-9.8-8.5-9.8l0,0c-2.5,0-4.4,0.9-6,2.5
		c0,0,0,0-0.1,0.1c0,0,0,0-0.1,0.1c-0.1,0.1-0.1,0.1-0.2,0.2c0,0,0,0,0,0.1c0,0,0,0-0.1,0.1h0.4c0,0,0,0,0.1-0.1c0,0,0,0,0.1-0.1
		s0.1-0.1,0.2-0.2c0,0,0,0,0.1-0.1c0,0,0,0,0.1-0.1c1.4-1.4,3.2-2.1,5.4-2.1l0,0c3.1,0,5.4,1.4,6.7,4.1c1,2,1.4,4.2,1.4,5.2
		c-0.9,0-1.9,0-2.8,0c0-1.1-0.1-5-1.4-6.3c0,0-0.5-0.2-0.5,0.3c0,0,0.8,1,0.9,2.4c0.1,1.1,0.3,2.9,0.3,3.6c-0.2,0-0.3,0-0.4,0
		c-1.5,0-3,0-4.3,0v-7.4c0,0-0.3-0.6-0.7,0V29c-0.4,0-0.8,0-1.2,0h-0.1c-0.1,0-0.1,0-0.2,0h-0.1c0,0.2,0,0.3,0.1,0.3h11.1
		c0.1,0,0.2,0.1,0.2,0.1v0.3c0,0.1-0.1,0.1-0.2,0.1h-11c0,0.2,0,0.3,0.1,0.3v0.1h11C36.2,30.3,36.4,30.1,36.4,29.8"/>
	<path d="M25,31.2c0-0.1-0.2-0.3-0.3-0.4c0-0.1,0-0.1,0-0.2c0,0,0-0.2,0-0.3c0-0.1,0-0.3-0.1-0.4c0-0.1,0-0.3-0.1-0.3
		c-0.2-1.2-0.4-3.1-0.6-4.3l0,0c-0.1-0.6-0.2-1-0.2-1.1c-0.1-0.4-0.2-0.5-0.4-0.7l0,0c-0.2-0.1-0.9-0.5-1.4-0.8l-0.3-0.3
		c-0.2-0.1-0.3-0.2-0.5-0.2h-0.1h-0.5h-1.9c-0.3,0-0.4,0.1-0.5,0.2l-0.3,0.2c-0.4,0.3-1.2,0.7-1.4,0.8l0,0c-0.3,0.2-0.3,0.3-0.4,0.7
		c0,0.1-0.1,0.4-0.2,0.9c-0.3,1.5-0.7,5.2-0.8,5.5c-0.1,0.3-0.2,0.5-0.3,0.6h-0.6c-0.1,0-0.3,0-0.3,0.1c-0.1,0.1-0.1,0.2-0.1,0.3
		v0.2c0,0.3,0.2,0.4,0.4,0.4h11.2c0.1,0,0.1,0,0.2,0c0.2-0.1,0.3-0.3,0.3-0.4v-0.2c0-0.3-0.2-0.4-0.4-0.4H25z M18.8,22.7h1.5h0.4
		h0.4c0.1,0,0.3,0.1,0.3,0.2l0.3,0.2c0.4,0.3,1.2,0.7,1.4,0.8l0,0c0.1,0.1,0.2,0.1,0.2,0.2h-3.6h-0.4h-3c0-0.1,0.1-0.1,0.2-0.2l0,0
		c0.2-0.1,0.9-0.5,1.4-0.8l0.3-0.2C18.5,22.8,18.7,22.7,18.8,22.7 M15.4,31.2c0.1-0.2,0.2-0.3,0.2-0.5c0.1-0.3,0.5-3.7,0.8-5.4v-0.1
		c0.1-0.3,0.1-0.6,0.1-0.8h2.8h0.4h3.8l0.2,1.1c0.2,1.2,0.4,2.9,0.5,4.1c0,0.2,0,0.3,0.1,0.3c0,0.2,0.1,0.3,0.1,0.4
		c0,0.2,0,0.3,0.1,0.3v0.1c0,0.2,0.1,0.3,0.2,0.4H15.4z M14.3,31.6C14.3,31.6,14.3,31.6,14.3,31.6C14.3,31.6,14.3,31.6,14.3,31.6
		h11.3c0,0,0.1,0,0.1,0.1v0.2c0,0,0,0,0,0.1l0,0H14.4c0,0-0.1,0-0.1-0.1L14.3,31.6z"/>
</g>
</svg>
