<?xml version="1.0" encoding="utf-8"?>
<!-- Generator: Adobe Illustrator 19.0.0, SVG Export Plug-In . SVG Version: 6.00 Build 0)  -->
<svg version="1.1" id="camera-flash-icon" xmlns="http://www.w3.org/2000/svg" xmlns:xlink="http://www.w3.org/1999/xlink" x="0px" y="0px"
	 viewBox="0 0 100 100" style="enable-background:new 0 0 100 100;" xml:space="preserve">
<style type="text/css">
	.fill-white{fill:#ffffff;}
	.clip-path{clip-path:url(#clip-path-path);fill:#ffffff;}
</style>
<path id="XMLID_39_" class="fill-white" d="M50.5,36.9c-8.3,0-15,6.7-15,15s6.7,15,15,15s15-6.7,15-15S58.7,36.9,50.5,36.9z"/>
<path id="XMLID_31_" class="fill-white" d="M82,30.6H71.3l-5-12.5H34.6l-5,12.5H28v-6.3h-7.5v6.3H19c-3.3,0-6,2.7-6,6v36.7
	c0,3.3,2.7,6,6,6h62.9c3.3,0,6-2.7,6-6V36.6C88,33.3,85.3,30.6,82,30.6z M25.5,30.6H23v-3.8h2.5V30.6z M50.5,74.4
	C38.1,74.4,28,64.3,28,51.9s10.1-22.5,22.5-22.5S73,39.4,73,51.9S62.9,74.4,50.5,74.4z M78,45.6c-2.8,0-5-2.2-5-5s2.2-5,5-5
	s5,2.2,5,5S80.7,45.6,78,45.6z"/>
<defs>
	<rect id="clip-path-mask" width="100" height="100"/>
</defs>
<clipPath id="clip-path-path">
	<use xlink:href="#clip-path-mask"  style="overflow:visible;"/>
</clipPath>
<path id="flash" class="clip-path" d="M79,35.7l11.5-8.2c0.8-0.5,1.7,0.4,1.1,1.1l-8.2,11.5c-0.2,0.3-0.2,0.7,0,1l8.2,11.5
	c0.5,0.8-0.4,1.7-1.1,1.1L79,45.5c-0.3-0.2-0.7-0.2-1,0l-11.5,8.2c-0.8,0.5-1.7-0.4-1.1-1.1l8.2-11.5c0.2-0.3,0.2-0.7,0-1
	l-8.2-11.5c-0.5-0.8,0.4-1.7,1.1-1.1l11.5,8.2C78.3,35.9,78.7,35.9,79,35.7z">
	<animate
		id="op"
		attributeType="CSS" attributeName="opacity"
		from="0"
		to="0"
		dur="1s"
		begin="0s;op.end+3s"
		fill="freeze"
		values="0;1;1;0"
		keyTimes="0; 0.50; 0.75; 1"
		repeatCount="1"
	/>

</path>
</svg>
