<?xml version="1.0" encoding="utf-8"?>
<!-- Generator: Adobe Illustrator 19.0.0, SVG Export Plug-In . SVG Version: 6.00 Build 0)  -->
<svg version="1.1" id="fingerprint-icon" xmlns="http://www.w3.org/2000/svg" xmlns:xlink="http://www.w3.org/1999/xlink" x="0px" y="0px"
	 viewBox="0 0 100 100" style="enable-background:new 0 0 100 100;" xml:space="preserve">
<style type="text/css">
	.fill-white{fill:#ffffff;}
	.fingerprint-lines{
		fill:none;
		stroke:#ffffff;
		stroke-width:4;
		stroke-linecap:round;
		stroke-linejoin:round;
		stroke-miterlimit:10;
		stroke-dasharray: 60;
		animation: dashoffset 5s linear infinite;
		animation-fill-mode: both;
	}
	@keyframes dashoffset{
		0%{ stroke-dashoffset: 60; }
		40%{ stroke-dashoffset: 0; }
		100%{ stroke-dashoffset: 0; }
	}
</style>
<animate
     xlink:href=".fingerprint-lines"
     attributeName="stroke-dashoffset"
     from="60"
     to="0"
     dur="3s"
     id="fingerprint-animation"/>
<g id="frame">
	<path id="XMLID_64_" class="fill-white" d="M17.6,0H2C0.9,0,0,0.9,0,2v15.6c0,1.1,0.9,2,2,2s2-0.9,2-2V3.9h13.7c1.1,0,2-0.9,2-2
		S18.7,0,17.6,0z"/>
	<path id="XMLID_63_" class="fill-white" d="M98,0H82.4c-1.1,0-2,0.9-2,2s0.9,2,2,2h13.7v13.7c0,1.1,0.9,2,2,2c1.1,0,2-0.9,2-2V2
		C100,0.9,99.1,0,98,0z"/>
	<path id="XMLID_62_" class="fill-white" d="M17.6,96.1H3.9V82.4c0-1.1-0.9-2-2-2s-2,0.9-2,2V98c0,1.1,0.9,2,2,2h15.6c1.1,0,2-0.9,2-2
		S18.7,96.1,17.6,96.1z"/>
	<path id="XMLID_61_" class="fill-white" d="M98,80.5c-1.1,0-2,0.9-2,2v13.7H82.4c-1.1,0-2,0.9-2,2s0.9,2,2,2H98c1.1,0,2-0.9,2-2V82.4
		C100,81.3,99.1,80.5,98,80.5z"/>
</g>
<g id="fingerprint">
	<path class="fingerprint-lines" d="M53.4,7.2c-2.2-0.2-4.6-0.2-6.8,0"/>
	<path class="fingerprint-lines" d="M62.2,90.5C58.3,92.1,54.2,93,50,93c-12.9,0-24.2-7.8-29-19.5"/>
	<path class="fingerprint-lines" d="M18.7,61.7v-7.8"/>
	<path class="fingerprint-lines" d="M18.7,46.1v-7.8c0-12.6,7.5-23.9,19.1-28.8"/>
	<path class="fingerprint-lines" d="M81.2,58.8v2.9c0,9.4-4.1,18.2-11.4,24.1"/>
	<path class="fingerprint-lines" d="M62.2,9.5C76.8,15.7,81,29,81.2,38.8c0,0.2,0,0.4,0,0.5c0,0.1,0,0.7,0,0.8v8.4"/>
	<path class="fingerprint-lines" d="M63.1,18.9c-9.3-6.3-21.7-5.1-29.7,2.9c-6.9,6.9-6.7,13.1-6.9,18.8c0,1.8,0,1.5,0,5.6"/>
	<path class="fingerprint-lines" d="M73.4,41.2v20.5c0,4.7-1.4,9.2-4,13.1"/>
	<path class="fingerprint-lines" d="M50,77.4c-8.6,0-15.6-7-15.6-15.6V38.3c0-2.1,0.4-4.2,1.2-6.1"/>
	<path class="fingerprint-lines" d="M60.7,74c2.4-2.4,4.1-5.5,4.8-8.9"/>
	<path class="fingerprint-lines" d="M65.6,55.9L65.6,55.9V38.3c0-8.6-7-15.6-15.6-15.6c-2.1,0-4.1,0.4-6.1,1.2"/>
	<path class="fingerprint-lines" d="M42.2,55.9V38.3c0-4.3,3.5-7.8,7.8-7.8s7.8,3.5,7.8,7.8"/>
	<path class="fingerprint-lines" d="M42.8,64.8c1.2,2.9,4.1,4.8,7.2,4.8c3.1,0,6-1.9,7.2-4.8c0.7-1.6,0.7-2.8,0.6-5 c0-1.3,0,0.2,0-9.8"/>
	<path class="fingerprint-lines" d="M73.4,34c-0.7-3.3-2-6.3-3.8-9.1"/>
	<path class="fingerprint-lines" d="M50,61.7V38.3"/>
	<path class="fingerprint-lines" d="M26.6,61.7c0,13.8,11.4,23.5,23.6,23.4c4.6,0,9-1.4,12.9-4"/>
</g>
</svg>
