<?xml version="1.0" encoding="utf-8"?>
<!-- Generator: Adobe Illustrator 19.0.0, SVG Export Plug-In . SVG Version: 6.00 Build 0)  -->
<svg version="1.1" id="processor-icon" xmlns="http://www.w3.org/2000/svg" xmlns:xlink="http://www.w3.org/1999/xlink" x="0px" y="0px"
	 viewBox="0 0 100 100" style="enable-background:new 0 0 100 100;" xml:space="preserve">
<style type="text/css">
	.fill-white{fill:#ffffff;}
	.procesor-circles{
		fill:#ffffff;
	}
	.procesor-circles:nth-child(1){
		animation-delay: 0.1s;
	}
	.procesor-circles:nth-child(2){
		animation-delay: 0.2s;

	}
	.procesor-circles:nth-child(3){
	animation-delay: 0.3s;

	}
	.procesor-circles:nth-child(4){
	animation-delay: 0.4s;

	}
	.procesor-circles:nth-child(5){
	animation-delay: 0.5s;

	}
	.procesor-circles:nth-child(6){
	animation-delay: 0.6s;

	}
	.procesor-circles:nth-child(7){
	animation-delay: 0.7s;

	}
	.procesor-circles:nth-child(8){
	animation-delay: 0.8s;

	}
	.procesor-circles:nth-child(9){
	animation-delay: 0.9s;

	}
	.procesor-circles:nth-child(10){
	animation-delay: 1s;

	}
	.procesor-circles-wrapper{
		clip-path:url(#XMLID_2_);

	}
	.vertical-move{
		animation: vertical-dot 2s linear infinite;
	}
	@keyframes vertical-dot{
		0%   { transform: translateY(0%);opacity:0; }
		10%   { transform: translateY(0%); opacity:1; }
		40%  { transform: translateY(90%); opacity:1;}
		50%  { transform: translateY(90%); opacity:0;}
		60%  { transform: translateY(90%); opacity:1;}
		90% { ransform: translateY(0%); opacity:1; }
		100% { ransform: translateY(0%); opacity:0; }
	}
	.horizontal-move{
		animation: horizontal-dot 2s linear infinite;
	}
	@keyframes horizontal-dot{
		0%   { transform: translateX(0%); opacity:0; }
		10%   { transform: translateX(0%); opacity:1;}
		40%  { transform: translateX(90%); opacity:1;}
		50%  { transform: translateX(90%); opacity:0;}
		60%  { transform: translateX(90%); opacity:1;}
		90% { ransform: translateX(0%); opacity:1;}
		100% { ransform: translateX(0%); opacity:0; }
	}
</style>

<g id="XMLID_18_">
	<path id="XMLID_23_" class="fill-white" d="M61,35.6H39c-1.9,0-3.4,1.5-3.4,3.4v22c0,1.9,1.5,3.4,3.4,3.4h22c1.9,0,3.4-1.5,3.4-3.4V39
		C64.4,37.2,62.8,35.6,61,35.6z M59.7,59.7H40.3V40.3h19.4V59.7z"/>
	<path id="XMLID_20_" class="fill-white" d="M87.5,41.6c1.3,0,2.3-1,2.3-2.3s-1-2.3-2.3-2.3h-5.4V31h5.4c1.3,0,2.3-1,2.3-2.3
		c0-1.3-1-2.3-2.3-2.3h-5.4v-2.2c0-3.4-2.8-6.3-6.3-6.3h-2.2v-5.4c0-1.3-1-2.3-2.3-2.3c-1.3,0-2.3,1-2.3,2.3v5.4h-5.9v-5.4
		c0-1.3-1-2.3-2.3-2.3s-2.3,1-2.3,2.3v5.4h-6.1v-5.4c0-1.3-1-2.3-2.3-2.3s-2.3,1-2.3,2.3v5.4h-6.1v-5.4c0-1.3-1-2.3-2.3-2.3
		c-1.3,0-2.3,1-2.3,2.3v5.4H31v-5.4c0-1.3-1-2.3-2.3-2.3c-1.3,0-2.3,1-2.3,2.3v5.4h-2.2c-3.4,0-6.3,2.8-6.3,6.3v2.2h-5.4
		c-1.3,0-2.3,1-2.3,2.3c0,1.3,1,2.3,2.3,2.3h5.4v5.9h-5.4c-1.3,0-2.3,1-2.3,2.3s1,2.3,2.3,2.3h5.4v6.1h-5.4c-1.3,0-2.3,1-2.3,2.3
		s1,2.3,2.3,2.3h5.4v6.1h-5.4c-1.3,0-2.3,1-2.3,2.3s1,2.3,2.3,2.3h5.4V69h-5.4c-1.3,0-2.3,1-2.3,2.3c0,1.3,1,2.3,2.3,2.3h5.4v2.2
		c0,3.4,2.8,6.3,6.3,6.3h2.2v5.4c0,1.3,1,2.3,2.3,2.3c1.3,0,2.3-1,2.3-2.3v-5.4h5.9v5.4c0,1.3,1,2.3,2.3,2.3c1.3,0,2.3-1,2.3-2.3
		v-5.4h6.1v5.4c0,1.3,1,2.3,2.3,2.3s2.3-1,2.3-2.3v-5.4h6.1v5.4c0,1.3,1,2.3,2.3,2.3s2.3-1,2.3-2.3v-5.4H69v5.4c0,1.3,1,2.3,2.3,2.3
		c1.3,0,2.3-1,2.3-2.3v-5.4h2.2c3.4,0,6.3-2.8,6.3-6.3v-2.2h5.4c1.3,0,2.3-1,2.3-2.3c0-1.3-1-2.3-2.3-2.3h-5.4v-5.9h5.4
		c1.3,0,2.3-1,2.3-2.3c0-1.3-1-2.3-2.3-2.3h-5.4v-6.1h5.4c1.3,0,2.3-1,2.3-2.3s-1-2.3-2.3-2.3h-5.4v-6.1H87.5z M77.5,75.9
		c0,0.9-0.7,1.6-1.6,1.6H24.1c-0.9,0-1.6-0.7-1.6-1.6V24.1c0-0.9,0.7-1.6,1.6-1.6h51.8c0.9,0,1.6,0.7,1.6,1.6V75.9z"/>
</g>
<defs>
	<path id="XMLID_35_" d="M0,0v100h100V0H0z M87.5,37c1.3,0,2.3,1.2,2.3,2.5c0,1.3-1,2.5-2.3,2.5H82v6h5.5c1.3,0,2.3,0.7,2.3,2
		c0,1.3-1,2-2.3,2H82v7h5.5c1.3,0,2.3,0.7,2.3,2c0,1.3-1,2-2.3,2H82v6h5.5c1.3,0,2.3,1.2,2.3,2.5c0,1.3-1,2.5-2.3,2.5H82v2.2
		c0,3.4-2.7,5.8-6.2,5.8H74v5.8c0,1.3-1.2,2.3-2.5,2.3c-1.3,0-2.5-1-2.5-2.3V82h-6v5.8c0,1.3-1.2,2.3-2.5,2.3s-2.5-1-2.5-2.3V82h-6
		v5.8c0,1.3-0.7,2.3-2,2.3s-2-1-2-2.3V82h-6v5.8c0,1.3-1.2,2.3-2.5,2.3s-2.5-1-2.5-2.3V82h-6v5.8c0,1.3-1.2,2.3-2.5,2.3
		c-1.3,0-2.5-1-2.5-2.3V82h-1.9c-3.4,0-6.1-2.4-6.1-5.8V74h-5.6c-1.3,0-2.3-1.2-2.3-2.5c0-1.3,1-2.5,2.3-2.5H18v-6h-5.6
		c-1.3,0-2.3-0.7-2.3-2c0-1.3,1-2,2.3-2H18v-7h-5.6c-1.3,0-2.3-0.7-2.3-2c0-1.3,1-2,2.3-2H18v-6h-5.6c-1.3,0-2.3-1.2-2.3-2.5
		c0-1.3,1-2.5,2.3-2.5H18v-6h-5.6c-1.3,0-2.3-0.7-2.3-2c0-1.3,1-2,2.3-2H18v-2.6c0-3.4,2.6-6.4,6.1-6.4H26v-5.2
		c0-1.3,1.2-2.3,2.5-2.3c1.3,0,2.5,1,2.5,2.3V18h6v-5.2c0-1.3,1.2-2.3,2.5-2.3s2.5,1,2.5,2.3V18h6v-5.2c0-1.3,0.7-2.3,2-2.3
		s2,1,2,2.3V18h6v-5.2c0-1.3,1.2-2.3,2.5-2.3s2.5,1,2.5,2.3V18h6v-5.2c0-1.3,1.2-2.3,2.5-2.3c1.3,0,2.5,1,2.5,2.3V18h1.8
		c3.4,0,6.2,2.9,6.2,6.4V27h5.5c1.3,0,2.3,0.7,2.3,2c0,1.3-1,2-2.3,2H82v6H87.5z"/>
	</defs>
	<clipPath id="XMLID_2_">
		<use xlink:href="#XMLID_35_"  style="overflow:hidden;"/>
	</clipPath>
<g class="procesor-circles-wrapper">
	<circle class="procesor-circles horizontal-move" cx="4" cy="29" r="2.5"/>
	<circle class="procesor-circles horizontal-move" cx="4" cy="40" r="2.5"/>
	<circle class="procesor-circles horizontal-move" cx="4" cy="50" r="2.5"/>
	<circle class="procesor-circles horizontal-move" cx="4" cy="61" r="2.5"/>
	<circle class="procesor-circles horizontal-move" cx="4" cy="71" r="2.5"/>
	<circle class="procesor-circles vertical-move" cx="29.1" cy="5.2" r="2.5"/>
	<circle class="procesor-circles vertical-move" cx="40" cy="4" r="2.5"/>
	<circle class="procesor-circles vertical-move" cx="50"   cy="4" r="2.5"/>
	<circle class="procesor-circles vertical-move" cx="61" cy="4" r="2.5"/>
	<circle class="procesor-circles vertical-move" cx="71" cy="4" r="2.5"/>
</g>
</svg>
