<?xml version="1.0" encoding="utf-8"?>
<!-- Generator: Adobe Illustrator 24.0.0, SVG Export Plug-In . SVG Version: 6.00 Build 0)  -->
<svg version="1.1" id="Layer_1" xmlns="http://www.w3.org/2000/svg" xmlns:xlink="http://www.w3.org/1999/xlink" x="0px" y="0px"
	 viewBox="0 0 6.3 4.8" style="enable-background:new 0 0 6.3 4.8;" xml:space="preserve">
<style type="text/css">
	.st0{clip-path:url(#SVGID_2_);fill:#010101;}
</style>
<g>
	<defs>
		<rect id="SVGID_1_" y="0" width="6.3" height="4.8"/>
	</defs>
	<clipPath id="SVGID_2_">
		<use xlink:href="#SVGID_1_"  style="overflow:visible;"/>
	</clipPath>
	<path class="st0" d="M5.4,0.7H5l0.1-0.4L4.9,0H3.5H0.2L0,0.2l0.7,3.3l0.3,1.1l0.2,0.1h2.8l0.2-0.2l0.3-1.2L4,3.4l-0.2,1H1.3L1,3.4
		L0.7,1.9h3.6L4,3.4l0.4,0.1l0.2-1h0.9c0.2,0,0.5-0.1,0.6-0.3c0.2-0.2,0.3-0.4,0.3-0.6C6.3,1.1,5.9,0.7,5.4,0.7 M0.7,1.5L0.5,0.8
		L0.4,0.4h3h1.1L4.4,1.5H0.7z M5.8,2C5.7,2.1,5.6,2.1,5.4,2.1H4.6l0.2-1h0.6C5.7,1.1,6,1.3,6,1.6C6,1.7,5.9,1.9,5.8,2"/>
</g>
</svg>
