<svg width="348" height="174" viewBox="0 0 348 174" fill="none" xmlns="http://www.w3.org/2000/svg">
<g clip-path="url(#clip0_8696_2006)">
<path d="M347 0C347 95.5453 269.545 173 174 173C78.4547 173 1 95.5453 1 0C1 -95.5453 78.4547 -173 174 -173C269.545 -173 347 -95.5453 347 0Z" fill="#952BBF"/>
<path d="M347 0C347 95.5453 269.545 173 174 173C78.4547 173 1 95.5453 1 0C1 -95.5453 78.4547 -173 174 -173C269.545 -173 347 -95.5453 347 0Z" fill="url(#paint0_linear_8696_2006)" fill-opacity="0.53"/>
<path d="M347 0C347 95.5453 269.545 173 174 173C78.4547 173 1 95.5453 1 0C1 -95.5453 78.4547 -173 174 -173C269.545 -173 347 -95.5453 347 0Z" stroke="url(#paint1_linear_8696_2006)" stroke-width="2"/>
<path d="M130.912 87.4674C130.344 86.0657 129.122 83.1136 128.144 80.3171C127.092 77.3041 125.983 74.7307 125.183 72.5718C124.316 70.2259 122.943 66.6271 121.609 63.2604C120.949 63.5646 119.962 63.8801 119.311 64.1122C118.317 64.4637 116.649 65.0226 115.888 65.4327C116.965 67.826 118.907 72.9865 119.759 74.9876C120.609 76.9887 121.686 79.33 122.294 81.1396C120.108 79.1858 118.184 77.0585 116.505 75.1746C115.189 73.6963 112.958 71.0214 110.964 68.9369C110.294 69.1758 109.677 69.4214 109.078 69.6287C108.269 69.9127 107.913 70.0434 106.887 70.4918C107.178 71.5059 109.197 76.5042 110.578 79.9926C111.958 83.4832 112.701 86.3609 113.467 88.3237C114.234 90.2843 115.469 93.7569 116.406 96.0059C116.841 95.8526 117.274 95.6994 117.645 95.5664C118.017 95.4335 118.982 95.0053 119.815 94.5524C119.617 93.9935 118.93 92.1096 118.11 89.6082C117.292 87.1068 115.209 81.4145 114.202 78.7712C114.202 78.7712 116.872 81.7277 117.979 82.9131C118.923 83.9249 121.258 86.6742 123.277 88.8195C125.05 90.7057 126.592 91.8527 128.377 93.7298C130.173 93.0921 131.791 92.727 132.778 92.1659C132.196 90.922 131.482 88.8691 130.914 87.4651L130.912 87.4674Z" fill="#F0F0F0"/>
<path d="M170.738 49.3766C170.298 50.8481 170.026 52.2836 171.504 56.6441C172.985 61.0046 175.844 63.0102 178.465 62.4784C180.437 62.0796 181.802 61.852 182.925 61.8722C184.049 61.8903 186.032 62.1652 186.877 64.937C187.722 67.7088 186.075 68.5741 184.709 69.0586C183.346 69.5431 181.546 70.0592 180.583 67.6615C179.781 65.6716 179.684 65.3291 179.684 65.3291C178.361 65.8339 177.805 66.0322 175.851 66.7263C176.552 68.502 177.631 71.1927 178.945 72.2946C180.437 73.5431 182.823 73.7774 186.668 72.4118C190.51 71.0462 192.457 68.3645 191.936 66.2125C191.578 64.7297 189.895 59.7224 188.653 58.2509C187.294 56.6374 184.468 56.7884 181.931 56.9213C179.396 57.0543 177.494 57.5027 176.525 56.0492C175.7 54.8165 174.695 51.8825 174.799 50.7986C174.902 49.7146 176.628 49.1716 177 49.0386C177.372 48.9056 179.204 48.4121 179.88 49.4803C180.428 50.3434 180.326 50.438 182.116 54.6904C183.357 54.1112 185.669 53.3923 187.256 52.6554C186.731 51.3755 185.451 47.9209 184.791 46.7941C183.966 45.3902 182.659 44.2341 181.284 44.0944C179.91 43.9547 178.386 43.797 175.702 44.8899C173.018 45.9829 171.186 47.8555 170.733 49.3766H170.738Z" fill="#F0F0F0"/>
<path d="M111.031 88.3508C110.531 87.1339 108.776 82.5886 107.917 80.1706C107.058 77.7526 105.495 73.9442 102.966 67.0237C101.963 64.2767 101.465 62.4942 100.69 60.3782C100.01 60.6306 99.1307 60.9438 98.3216 61.1827C97.3639 61.4644 96.7127 61.6672 95 62.3748C96.307 65.7843 98.9909 72.8445 100.92 77.7729C103.198 83.5982 105.558 90.0882 106.759 93.1733C107.958 96.2538 109.634 100.276 109.634 100.276C110.653 99.7557 113.229 98.8949 114.545 98.3225C114.312 97.723 113.231 94.7822 112.787 93.3332C112.343 91.8865 111.538 89.5722 111.036 88.353L111.031 88.3508Z" fill="#F0F0F0"/>
<path d="M125.001 66.404C125.14 66.9358 125.686 68.3285 125.686 68.3285C127.351 67.8958 130.136 66.7263 130.136 66.7263C130.136 66.7263 132.545 72.5403 134.064 76.3892C135.583 80.2404 136.505 83.6117 137.636 86.8071C137.825 87.3412 138.021 87.8685 138.229 88.4251C138.837 88.1705 140.077 87.6972 140.852 87.4426C141.568 87.206 142.091 87.028 143.168 86.5525C142.008 83.3953 141.219 81.0607 140.611 79.6207C139.673 77.4146 135.337 65.1466 134.866 63.6773C135.955 63.1838 136.928 62.6857 139.216 61.8722C138.97 61.3246 138.359 59.3889 137.972 58.0841C136.167 58.8323 136.91 58.6159 134.042 59.7923C131.175 60.9708 128.87 61.737 127.092 62.4221C125.312 63.1094 123.908 63.6209 123.908 63.6209C123.908 63.6209 124.859 65.8744 124.996 66.4063L125.001 66.404Z" fill="#F0F0F0"/>
<path d="M152.73 52.8267C155.101 60.8289 161.742 78.2551 163.089 82.2055C163.689 82.0343 165.985 81.2343 166.512 81.0517C165.424 78.0546 161.275 66.4852 160.121 63.2672C163.565 66.7668 168.921 73.5791 171.337 75.9115C172.437 75.5667 174.974 74.5684 175.93 74.12C173.5 67.1837 168.712 52.9732 166.954 48.0291C166.228 48.2431 164.153 48.9643 163.283 49.2685C164.998 54.9969 168.18 63.0373 169.061 65.7708C166.503 62.812 160.009 54.7287 156.752 51.3868C155.669 51.7653 153.602 52.5225 152.732 52.8245L152.73 52.8267Z" fill="#F0F0F0"/>
<path d="M197.255 66.7014C196.993 64.1955 196.899 59.1139 196.899 59.1139L202.237 57.453L207.56 65.8518L212.831 63.9792C210.839 60.9031 204.049 50.0751 202.631 48.2723C201.043 45.9129 197.66 40.4595 195.628 37.451L191.308 39.3417C191.889 45.4487 191.923 60.2767 192.874 67.9746C193.681 67.7921 196.319 66.9245 197.255 66.6991V66.7014ZM195.709 45.6019C196.509 46.794 197.259 48.0222 198.025 49.2368C199.12 50.9743 200.117 52.8063 201.124 54.5934L196.18 55.8914C196.141 54.5753 195.67 47.4453 195.564 45.3946C195.614 45.4622 195.659 45.5343 195.706 45.6042L195.709 45.6019Z" fill="#F0F0F0"/>
<path d="M180.128 102.135C181.723 103.832 183.202 105.126 184.806 106.818C186.424 106.244 187.878 105.914 188.765 105.412C188.243 104.294 187.508 102.183 186.997 100.921C186.485 99.6588 185.388 97.0042 184.506 94.487C183.56 91.7761 182.523 89.4753 181.843 87.517C181.401 86.2505 179.995 83.0663 179.256 80.9458C178.476 81.205 177.773 81.5047 177.187 81.712C176.292 82.0297 174.792 82.53 174.107 82.9018C175.076 85.0539 176.193 87.8888 176.959 89.6916C177.723 91.4921 178.692 93.5992 179.24 95.2262C177.273 93.4707 175.542 91.5552 174.032 89.8584C172.847 88.5288 169.913 84.957 168.117 83.0821C167.515 83.2962 167.416 83.3255 166.877 83.5148C166.147 83.7694 165.8 83.8055 164.876 84.2089L165.289 85.3942C165.55 86.3069 167.456 91.0572 168.698 94.1963C169.938 97.3377 170.607 99.927 171.299 101.691C171.988 103.456 173.099 106.579 173.944 108.603C174.336 108.465 174.726 108.328 175.06 108.209C175.396 108.089 176.263 107.702 177.014 107.294C176.836 106.793 176.216 105.096 175.481 102.845C174.744 100.594 172.872 95.4741 171.966 93.0944C171.966 93.0944 174.368 95.7535 175.362 96.8217C176.211 97.7343 178.312 100.206 180.13 102.135H180.128Z" fill="#F0F0F0"/>
<path d="M191.024 78.6246C192.004 78.1807 193.836 77.5677 195.896 76.8353C195.675 76.3441 195.125 74.5999 194.778 73.4258C193.153 74.0996 192.867 74.068 190.284 75.1272C187.704 76.1863 185.631 76.8781 184.031 77.4933C182.431 78.1108 180.971 78.4871 180.385 78.886C180.7 79.7739 181.241 80.9141 181.365 81.3919C181.489 81.8719 181.98 83.1248 181.98 83.1248C183.479 82.735 185.784 81.7682 186.87 81.6217C188.155 85.1146 189.329 88.1704 190.697 91.634C192.062 95.0976 195.889 105.096 196.907 107.97C197.076 108.45 197.252 108.925 197.441 109.428C197.987 109.198 199.105 108.772 199.801 108.542C200.448 108.33 200.916 108.17 201.885 107.74C200.84 104.898 199.988 103.174 199.44 101.878C198.597 99.893 191.452 79.9496 191.026 78.6268L191.024 78.6246Z" fill="#F0F0F0"/>
<path d="M155.186 116.244C156.027 115.951 158.497 114.798 159.461 114.358C156.169 104.993 153.293 97.1145 150.952 90.8701C150.215 91.0572 147.15 91.8729 146.569 92.1095C146.226 92.229 146.648 102.056 146.882 105.637C144.741 102.895 139.346 95.821 137.136 93.0357C136.016 93.4256 132.428 94.683 131.238 95.1675C133.088 101.171 138.866 118.433 140.892 124.508C141.618 124.292 144.225 123.106 144.994 122.804C143.513 118.02 138.729 105.509 137.897 102.415C140.345 105.434 145.054 112.073 146.941 114.593C147.982 114.207 149.027 113.872 150.168 113.437C150.055 112.01 149.782 104.788 149.613 100.695C150.92 104.148 153.176 110.534 155.186 116.247V116.244Z" fill="#F0F0F0"/>
<path d="M161.602 111.632L171.382 107.985C171.073 106.742 170.397 105.288 169.92 103.785C169.53 103.92 165.18 105.755 163.288 106.277C163.114 105.957 161.764 101.61 161.577 100.952C162.021 100.77 163.529 100.083 164.982 99.6363C166.474 99.1789 166.904 98.7282 167.091 98.6628C166.427 96.9885 166.282 96.8014 165.618 95.0482C165.142 95.2127 162.132 96.7158 161.016 96.8465C160.665 96.1389 159.238 91.4742 159.026 90.9581C160.329 90.3632 164.464 89.0607 164.464 89.0607C164.464 89.0607 163.777 87.1835 163.294 85.9982C161.365 86.566 155.056 88.8353 153.602 89.3401C155.801 95.2488 159.867 106.189 161.602 111.627V111.632Z" fill="#F0F0F0"/>
<path d="M208.644 70.0636C206.575 70.6044 205.11 71.3841 202.721 72.2968C200.335 73.2095 198.345 73.8833 196.761 74.6089C198.192 77.9103 199.974 82.3789 201.094 85.5316C202.214 88.6865 203.332 91.8729 204.033 93.7072C204.682 95.4131 205.133 96.8035 205.414 97.6892C207.537 96.9365 210.561 96.1816 213.311 95.012C216.06 93.8402 219.082 92.2402 221.123 91.4492C221.482 91.3095 221.869 91.163 222.271 91.0121C222.16 90.5704 222.052 90.1039 221.964 89.6622C221.82 88.9231 221.703 88.371 221.392 87.3051C221.065 87.4155 220.704 87.5372 220.301 87.6724C216.84 88.8374 215.231 89.8718 212.745 90.6898C210.259 91.5078 207.409 92.3912 207.409 92.3912C206.76 90.7484 205.68 87.7107 205.568 86.8476C206.789 86.2842 208.979 85.1823 210.796 84.4747C212.61 83.7671 212.975 83.7017 213.698 83.3795C213.498 82.9986 212.822 80.9142 212.599 80.2832C211.492 80.8037 209.957 81.0268 208.984 81.3739C208.008 81.7209 206.48 82.3271 205.468 82.7508C205.065 81.7953 204.315 79.8685 203.645 78.1672C205.784 77.2793 209.353 75.6883 210.597 75.3751C210.138 74.4399 208.894 70.9447 208.646 70.0636H208.644Z" fill="#F0F0F0"/>
<path d="M148.39 84.8602L160.394 80.245C160.047 78.8479 159.288 77.2163 158.751 75.5262C158.312 75.6794 153.212 77.809 151.085 78.3949C150.891 78.0366 149.149 72.9324 148.98 72.4457C150.328 72.022 151.813 71.5736 152.811 71.2153C153.965 70.8006 155.319 70.1088 155.596 70.0119C154.853 68.1325 154.853 67.461 154.107 65.4937C153.573 65.6807 148.329 67.5443 148.329 67.5443L146.233 61.6154C146.233 61.6154 151.896 59.247 152.581 59.0374C152.595 59.0329 151.948 56.9912 151.405 55.6594C149.237 56.2972 141.498 59.1073 139.867 59.6751C142.337 66.3139 146.438 78.7532 148.387 84.8602H148.39Z" fill="#F0F0F0"/>
<path d="M213.162 45.762C213.491 46.7062 213.811 47.6189 214.086 48.4752C215.785 48.0583 217.457 47.4837 219.088 46.9226C220.337 46.4944 221.54 46.0798 222.701 45.7553C222.521 45.1964 222.347 44.6849 222.174 44.1823C221.662 42.686 220.679 40.3334 220.107 37.8004L220.089 37.708C219.591 34.7965 222.221 32.4687 226.144 30.8101C229.849 29.2439 233.096 28.6355 235.471 31.7521C237.639 34.1363 239.906 40.7908 240.141 44.4618C240.474 49.638 237.806 51.3146 232.145 55.3258C227.864 58.3613 222.525 61.2007 221.137 64.7522L221.132 64.7409C220.878 65.3516 220.747 66.0232 220.682 66.6294C220.441 68.0874 220.416 73.471 227.17 89.1237L243.086 83.01C247.239 81.5497 250.477 80.4297 254.148 79.1205C257.486 77.9306 260.442 76.8287 263 75.9566L260.019 68.5516C259.183 68.8491 258.063 69.1578 257.089 69.5409C255.113 70.3206 247.512 73.0225 247.512 73.0225L232.33 78.5233L231.71 76.9887C230.09 72.7521 229.982 69.6986 230.836 67.2896C231.654 64.9821 232.639 64.617 233.894 63.8283L244.456 58.0481C249.736 54.945 251.217 47.7045 248.278 39.4072C244.877 29.8073 243.476 27.707 240.88 25.8321C238.834 24.3516 234.759 22.044 227.604 23.4231C219.713 24.942 214.586 28.827 213.387 29.9876C211.614 31.7025 210.424 34.6636 210.78 38.2196C210.951 39.9255 212.339 43.4026 213.164 45.7598L213.162 45.762Z" fill="#F0F0F0"/>
<path d="M147.013 43.8645C147.171 44.2386 147.597 45.4442 147.676 45.6696L147.784 45.976C148.016 46.6386 148.521 48.1011 148.658 48.5788C148.406 48.714 148.144 48.8312 147.89 48.9597L147.95 49.3743C148.448 49.1602 148.967 48.9754 149.476 48.7974C150.01 48.6104 150.56 48.4278 151.103 48.2746L150.875 47.9163C150.544 47.9952 150.213 48.0808 149.877 48.1506C149.708 47.7405 149.167 46.2036 148.96 45.6087L148.847 45.2842C148.645 44.7006 148.325 43.7744 148.228 43.4161C148.536 43.3192 148.881 43.2516 149.12 43.2809C149.528 43.3327 149.857 43.6008 150.008 44.029C150.308 44.8853 149.938 45.4442 149.305 45.8588L149.399 46.2938C150.488 45.7372 151.588 44.6667 151.123 43.3304C151.044 43.1051 150.779 42.6183 149.934 42.5687C149.478 42.5462 148.726 42.731 147.887 43.024L145.983 43.6955L146.17 44.0583C146.45 43.9862 146.731 43.9028 147.018 43.8668L147.013 43.8645Z" fill="#F0F0F0"/>
<path d="M152.509 41.9559C152.671 42.3458 153.106 43.5672 153.187 43.8015L153.345 44.2522C153.589 44.9486 154.023 46.2218 154.15 46.6657C153.902 46.8009 153.643 46.9339 153.383 47.042L153.447 47.4589C153.877 47.2764 154.321 47.1097 154.769 46.9542C155.312 46.7649 155.885 46.5598 156.448 46.4178L156.216 46.055C155.941 46.1204 155.664 46.1925 155.385 46.2376C155.254 45.9311 154.857 44.8179 154.539 43.9074L154.375 43.432C154.082 42.5891 153.816 41.8094 153.744 41.5345C153.996 41.4083 154.249 41.2709 154.503 41.1492L154.461 40.7188C154.041 40.9216 153.584 41.0816 153.145 41.2325C152.601 41.4218 152.016 41.6382 151.45 41.7689L151.68 42.1317C151.955 42.0663 152.23 42.0055 152.509 41.9537V41.9559Z" fill="#F0F0F0"/>
<path d="M156.18 40.6803C156.421 40.8065 156.886 41.1017 157.39 41.4262C157.879 41.744 158.404 42.0888 158.79 42.3389C158.598 42.9045 157.888 45.1107 157.636 45.4442C157.498 45.5614 157.318 45.6448 157.156 45.7282L157.163 46.1631C157.489 46.0189 157.809 45.8904 158.145 45.7732C158.585 45.62 159.249 45.4217 159.373 45.3789L159.502 45.3338L159.317 44.9755C159.119 45.0206 158.92 45.0566 158.718 45.0882C158.819 44.3986 159.123 43.1119 159.265 42.6476C159.547 42.8166 160.052 43.1389 160.631 43.4792C161.323 43.8803 162.089 44.2904 162.857 44.5383L163.436 44.198C162.163 43.3597 160.919 42.4651 159.662 41.5975C159.756 41.3429 159.973 40.793 160.187 40.2679C160.336 39.9096 160.48 39.5423 160.658 39.1975L160.701 39.1142C160.87 39.006 161.039 38.9091 161.203 38.7987L161.109 38.4088C160.809 38.5418 160.507 38.6657 160.198 38.7739C159.793 38.9158 159.387 39.0466 158.972 39.1525L159.184 39.513C159.299 39.4927 159.421 39.468 159.54 39.4499L159.684 39.4296C159.596 39.9029 159.333 40.8381 159.195 41.282C158.835 41.0409 157.985 40.4077 157.654 40.1417C157.827 40.0403 158.01 39.9502 158.193 39.8646L158.168 39.4387C157.695 39.628 157.217 39.8127 156.735 39.9818C156.318 40.1282 155.853 40.3063 155.407 40.3829L155.601 40.7592C155.79 40.7322 155.984 40.6916 156.178 40.6848L156.18 40.6803Z" fill="#F0F0F0"/>
<path d="M163.499 43.513L163.583 43.9254C163.91 43.7767 164.25 43.6437 164.59 43.5265C165.045 43.3688 165.509 43.2178 165.974 43.0871L165.764 42.7243C165.546 42.7761 165.327 42.8302 165.104 42.8572C165 42.2533 164.924 41.0297 164.915 40.7209C165.244 40.5632 166.168 40.1914 166.503 40.0674C167.022 40.6263 167.477 41.2663 167.946 41.8635C167.725 41.9919 167.493 42.0956 167.258 42.1992L167.301 42.6274C167.767 42.4223 168.254 42.2466 168.732 42.0798C169.189 41.9198 169.744 41.7012 170.231 41.6178L170.035 41.237C169.791 41.2866 169.545 41.3384 169.298 41.3744C168.709 40.8111 167.824 39.7339 167.414 39.2291C166.895 38.5936 166.156 37.6629 165.866 37.2708C166.03 37.1694 166.204 37.0838 166.377 37.0027L166.296 36.597C165.807 36.8066 165.298 36.9914 164.793 37.1672C164.399 37.3046 163.995 37.4308 163.592 37.5413L163.741 37.9221C163.939 37.8793 164.135 37.8342 164.333 37.8049C164.317 38.6297 164.239 42.4742 164.146 43.1727C163.934 43.2989 163.72 43.4094 163.495 43.513H163.499ZM164.919 38.028C165.271 38.4832 165.872 39.2359 166.199 39.6573L164.894 40.0832C164.894 39.6686 164.912 38.7176 164.919 38.028Z" fill="#F0F0F0"/>
<path d="M169.786 35.9299C169.924 36.2522 170.354 37.4601 170.445 37.7192L170.607 38.1879C170.864 38.9271 171.319 40.2521 171.427 40.642C171.184 40.784 170.915 40.9034 170.654 41.0161L170.719 41.4352C171.199 41.2211 171.718 41.0386 172.216 40.8651C172.696 40.6961 173.194 40.5271 173.69 40.3986L173.478 40.0313C173.207 40.1012 172.928 40.1688 172.653 40.2161C172.482 39.7947 172.101 38.7468 171.941 38.2826L171.909 38.1925C172.051 38.1384 172.263 38.046 172.47 37.9558C173.164 38.375 175.528 39.7068 176.171 39.7676L176.802 39.4476C175.851 38.9541 174.312 37.8792 173.453 37.1513C173.899 36.6015 174.226 35.788 174.043 35.2674C173.877 34.7874 173.471 34.5621 172.971 34.5418C172.346 34.517 171.335 34.8618 170.611 35.1142L168.754 35.7699L168.941 36.1328C169.221 36.0606 169.507 35.984 169.789 35.9299H169.786ZM172.89 35.9119C173.131 36.6037 172.752 37.0995 172.484 37.3226C172.247 37.5164 171.988 37.6426 171.747 37.7327L171.704 37.611C171.531 37.1153 171.132 35.9277 170.997 35.477C172.218 35.0871 172.754 35.5221 172.89 35.9119Z" fill="#F0F0F0"/>
<path d="M144.807 48.2138C145.052 48.1282 145.183 47.8577 145.097 47.6099C145.012 47.362 144.739 47.2313 144.493 47.3169C144.248 47.4025 144.115 47.6752 144.2 47.9231C144.286 48.171 144.561 48.2994 144.807 48.2138Z" fill="#F0F0F0"/>
<path d="M123.008 51.5422C123.056 51.9096 123.265 52.2476 123.612 52.4143C123.624 52.4459 123.653 52.545 123.687 52.6374C123.707 52.687 123.736 52.7501 123.775 52.8087C123.797 52.8425 123.826 52.8763 123.86 52.9169C123.966 53.025 124.036 53.0498 124.135 53.0138C124.322 52.9664 124.302 52.6419 124.336 52.5541C124.723 52.5428 125.167 52.4684 125.505 52.2228C125.742 52.047 125.927 51.8577 126.109 51.6211C126.409 51.229 126.652 50.7851 126.754 50.2803C126.783 50.1135 126.774 49.967 126.76 49.8747C126.727 49.647 126.641 49.4645 126.458 49.3563C126.434 49.3406 126.409 49.3293 126.382 49.318C126.382 49.318 126.226 49.2414 126.055 49.2482C126.037 49.2482 126.019 49.2482 126.003 49.2527C125.924 49.2617 125.859 49.2797 125.818 49.2933C125.803 49.2978 125.789 49.3045 125.773 49.3113C125.665 49.1625 125.429 49.1265 125.429 49.1265C125.264 49.0995 125.1 49.1152 124.955 49.1468H124.935C124.588 49.2324 124.342 49.3654 124.158 49.4893C124.009 49.5907 123.89 49.7011 123.82 49.7687C123.168 50.438 123.022 50.9991 122.999 51.3079C122.999 51.3169 122.997 51.3236 122.995 51.3304C122.995 51.3665 122.995 51.4003 122.995 51.4363C122.995 51.4882 123.002 51.5242 123.004 51.5445L123.008 51.5422ZM125.546 49.9761C125.575 49.9558 125.631 49.913 125.695 49.8792C125.861 49.8025 126.053 49.7214 126.184 49.9039C126.38 50.2442 126.17 50.6296 125.972 50.9203C125.877 51.0465 125.769 51.1456 125.663 51.2448C125.32 51.522 124.94 51.7338 124.511 51.8036C124.667 51.1366 125.032 50.4132 125.546 49.9761ZM123.574 51.2741C123.597 51.1569 123.644 51.0239 123.698 50.9113C123.781 50.74 123.894 50.5845 124.025 50.438C124.047 50.411 124.086 50.3772 124.119 50.3479C124.124 50.3434 124.128 50.3411 124.133 50.3366C124.171 50.3051 124.257 50.2465 124.397 50.2149C124.424 50.2082 124.455 50.2014 124.484 50.2014C124.056 50.7625 123.793 51.4205 123.714 51.6324C123.705 51.6549 123.696 51.6797 123.689 51.7022C123.592 51.6639 123.57 51.5535 123.56 51.4453C123.556 51.362 123.57 51.2966 123.572 51.2786L123.574 51.2741Z" fill="#F0F0F0"/>
<path d="M112.138 54.3658C112.212 54.341 112.375 54.2824 112.478 54.2283C112.541 54.19 112.591 54.1405 112.564 54.0683C112.557 54.0526 112.548 54.0436 112.539 54.0345C112.341 53.9083 112.142 54.0548 111.964 54.021C111.958 54.0188 111.955 54.012 111.955 54.0052C111.958 53.9917 111.962 53.9782 111.969 53.9669C112.005 53.9016 112.086 53.843 112.158 53.8002C112.158 53.8002 112.185 53.7844 112.185 53.7821C112.199 53.7754 112.215 53.7664 112.228 53.7596C112.244 53.7506 112.255 53.7461 112.255 53.7461C113.893 52.8695 115.685 52.6036 117.377 52.6306C119.345 52.732 121.72 53.0903 123.182 54.6903C123.221 54.7331 123.261 54.785 123.304 54.8435C123.309 54.8481 123.311 54.8548 123.315 54.8593C123.322 54.8706 123.331 54.8819 123.338 54.8931C123.36 54.9269 123.383 54.963 123.403 54.9968C123.408 55.0035 123.412 55.0126 123.417 55.0193C123.77 55.6345 123.87 56.4142 123.478 57.0565C122.621 58.4221 120.96 59.0936 119.369 59.3348L118.59 57.23C118.554 57.1218 118.468 56.8762 118.425 56.7658C118.409 56.7252 118.416 56.7455 118.405 56.7049C118.601 56.6306 118.66 56.617 118.725 56.5968C119.408 56.3917 120.404 56.1844 121.231 56.288C121.244 56.2903 121.267 56.2993 121.276 56.3241C121.276 56.3286 121.276 56.3331 121.278 56.3376C121.285 56.3827 121.28 56.43 121.274 56.4706C121.274 56.4706 121.274 56.4728 121.274 56.4751C121.269 56.4931 121.267 56.5089 121.262 56.5246C121.235 56.6261 121.211 56.6666 121.202 56.6779C121.114 56.8266 120.947 56.9415 121.003 57.1015C121.01 57.1128 121.014 57.1151 121.028 57.1196C121.195 57.1308 121.373 57.1015 121.533 57.0497C121.555 57.043 121.639 57.0092 121.711 56.9348C121.902 56.723 122.105 56.4187 122.076 56.1348C122.06 55.8734 121.911 55.6999 121.74 55.5511C121.634 55.4633 121.503 55.4092 121.436 55.3844C120.699 55.1433 119.931 55.2199 119.178 55.4182C118.727 55.5331 118.394 55.6525 118.207 55.7269C118.189 55.7337 118.168 55.7404 118.15 55.7472L118.103 55.7675C118.103 55.7675 118.06 55.7878 118.058 55.7878L117.607 54.5889C117.456 54.2959 117.163 53.9917 116.803 53.9917C116.681 54.7241 117.147 56.0875 117.154 56.2069C117.118 56.2294 117.08 56.252 117.044 56.2745C116.836 56.3917 116.616 56.5269 116.388 56.6824C116.197 56.8063 116.009 56.9393 115.831 57.088C115.502 57.372 115.189 57.692 114.971 58.1224C114.957 58.1539 114.939 58.1967 114.928 58.2396C114.894 58.3883 114.898 58.5663 114.977 58.706C114.986 58.7196 115.011 58.7556 115.052 58.7939C115.973 59.5804 117.283 59.959 118.421 60.0716C118.612 60.3961 118.745 60.7747 119.056 60.9483C119.27 60.9347 119.478 60.8288 119.611 60.7387C119.777 60.5922 119.671 60.3263 119.624 60.1325C119.64 60.1302 119.64 60.1302 119.649 60.1302C121.492 59.9409 123.313 59.1342 124.332 57.6491C124.963 56.7094 125.053 55.6165 124.521 54.6407C124.521 54.6407 123.856 53.1805 121.17 52.3151C121.152 52.3084 121.134 52.3039 121.118 52.2971C121.109 52.2948 121.098 52.2926 121.089 52.2903C120.902 52.2317 120.703 52.1754 120.496 52.1236C119.667 51.9117 118.856 51.8216 118.216 51.772C116.325 51.6256 113.747 51.9523 111.831 53.3562C111.561 53.5748 111.552 53.9129 111.55 54.2261C111.554 54.2712 111.566 54.3523 111.611 54.3906C111.766 54.474 111.958 54.4221 112.14 54.3658H112.138ZM115.311 58.6339C115.295 58.6226 115.286 58.6091 115.279 58.6001C115.279 58.6001 115.279 58.6001 115.279 58.5979C115.279 58.5979 115.279 58.5979 115.279 58.5956C115.203 58.4536 115.342 58.2779 115.446 58.1967C115.728 57.9736 116.055 57.7798 116.384 57.6018C116.963 57.2953 117.294 57.1601 117.431 57.1015C117.695 57.8565 117.896 58.6136 118.135 59.3911C117.195 59.3776 116.165 59.2379 115.313 58.6362L115.311 58.6339Z" fill="#F0F0F0"/>
<path d="M126.432 54.0053C126.45 54.0594 126.499 54.2014 126.601 54.2938C126.679 54.3614 126.776 54.4132 126.871 54.4267C126.885 54.4267 126.909 54.4267 126.936 54.4267C127.286 54.3816 127.637 54.287 127.991 54.1878C128.169 54.1405 128.297 54.1045 128.297 54.1045C128.969 53.9332 129.305 53.9084 129.305 53.9084H129.309C129.595 53.8881 129.976 53.8205 130.161 54.118C130.168 54.1315 130.17 54.1405 130.17 54.1563C130.073 54.5845 129.458 54.9337 129.041 55.1614C128.764 55.2966 128.074 55.6729 127.615 55.5039C127.552 55.4791 127.525 55.434 127.513 55.407C127.511 55.4002 127.509 55.3935 127.506 55.3844C127.493 55.3326 127.491 55.2763 127.506 55.2177C127.509 55.2087 127.518 55.1839 127.538 55.1568C127.905 54.7287 128.694 55.096 129.145 54.8752C129.605 54.6611 129.717 54.4966 129.728 54.3771C129.742 54.287 129.706 54.2397 129.706 54.2397C129.49 54.1585 129.075 54.1788 128.748 54.2307C128.291 54.3185 127.639 54.4447 127.295 54.8571C127.288 54.8639 127.225 54.945 127.198 55.0464C127.157 55.1997 127.148 55.3709 127.198 55.5332C127.209 55.5602 127.225 55.6008 127.259 55.6459C127.676 56.1258 128.361 56.2182 128.935 56.1551C129.697 56.0199 130.443 55.6504 130.81 54.9901C130.88 54.8639 130.907 54.7625 130.918 54.7084C130.959 54.3952 130.851 53.9557 130.65 53.6538C130.592 53.5704 130.528 53.5118 130.479 53.4757C129.67 52.9372 128.721 53.5005 127.808 53.6628C127.696 53.6853 127.536 53.7124 127.387 53.7169C127.297 53.7236 127.238 53.7169 127.209 53.7124C127.2 53.7124 127.191 53.7078 127.182 53.7056H127.18C127.155 53.6988 127.135 53.6853 127.119 53.6628C127.112 53.6493 127.119 53.638 127.119 53.6312C127.766 53.0679 128.681 52.7952 129.481 52.4076C129.731 52.2746 130.012 52.189 130.125 51.9231C130.13 51.9141 130.134 51.9028 130.141 51.8825C130.141 51.8825 130.141 51.8825 130.141 51.8803C130.15 51.851 130.159 51.8082 130.157 51.7608C130.157 51.736 130.152 51.7135 130.15 51.6977C130.15 51.6955 130.148 51.691 130.145 51.6887C130.145 51.6842 130.145 51.6797 130.143 51.6775V51.6752C130.136 51.6572 130.123 51.6414 130.1 51.6301C130.087 51.6256 130.069 51.6211 130.053 51.6189C128.841 51.5535 127.416 52.1912 126.621 53.0769C126.375 53.336 126.341 53.6718 126.432 54.0076V54.0053Z" fill="#F0F0F0"/>
<path d="M126.42 57.1422C126.637 57.1309 126.81 57.0047 126.921 56.8267C126.594 55.718 126.159 54.749 125.726 53.7281C125.666 53.6042 125.602 53.5073 125.571 53.46C125.442 53.2842 125.294 53.1197 125.066 53.1625C124.951 53.2346 124.924 53.3901 124.931 53.4938C125.093 54.456 125.397 55.4137 125.747 56.3737C125.877 56.6982 125.988 57.2008 126.423 57.1422H126.42Z" fill="#F0F0F0"/>
<path d="M138.956 51.9637C138.999 52.0087 139.042 52.0403 139.074 52.0628C139.033 52.4121 139.013 52.7794 139.017 53.1535C139.044 53.7552 139.085 54.3591 139.2 54.9698C139.22 55.1118 139.267 55.3777 139.373 55.5918C139.403 55.6571 139.439 55.718 139.486 55.7698C139.727 56.0155 140.162 56.225 140.469 56.0695C140.309 55.2966 140.234 54.5236 140.194 53.7575C140.18 53.3676 140.178 52.9011 140.207 52.3918C140.653 52.3175 140.951 52.0741 140.951 52.0741C141.724 51.4589 142.267 50.3321 142.143 49.3564C142.084 48.7524 141.744 48.277 141.255 47.9682C141.217 47.9457 141.178 47.9299 141.154 47.9187C141.032 47.8781 140.906 47.8713 140.782 47.9119C140.689 47.9457 140.586 48.0471 140.534 48.1034C140.164 48.5294 139.894 49.0431 139.675 49.6043C139.671 49.6133 139.669 49.6245 139.664 49.6336C139.538 49.9738 139.373 50.4786 139.243 51.0803C139.125 51.0127 139.053 50.8121 139.022 50.6837C138.821 49.7958 139.484 48.926 139.078 48.0719C138.914 48.117 138.862 48.3018 138.787 48.4437C138.763 48.4956 138.738 48.5586 138.711 48.6217C138.368 49.593 138.181 50.6138 138.677 51.6009C138.747 51.7316 138.853 51.8623 138.959 51.9637H138.956ZM140.345 51.0916C140.383 50.8865 140.421 50.6792 140.462 50.4719C140.57 49.9874 140.716 49.5029 140.908 49.0364C140.915 49.0229 140.917 49.0116 140.924 49.0003C140.928 48.9913 140.933 48.9801 140.937 48.971C140.978 48.8786 141.023 48.784 141.07 48.6916C141.084 48.6713 141.104 48.6465 141.133 48.6465C141.21 48.633 141.269 48.7119 141.318 48.7772C141.352 48.8268 141.406 48.9192 141.447 49.0364C141.595 49.4826 141.55 49.9333 141.316 50.3569C141.075 50.7378 140.757 51.0826 140.327 51.2358C140.333 51.1907 140.34 51.1434 140.347 51.0961L140.345 51.0916Z" fill="#F0F0F0"/>
<path d="M135.367 50.5102V50.5575L135.38 51.3124L135.324 51.3327L135.22 51.38C135.198 51.3913 135.175 51.4048 135.153 51.4206C135.072 51.4837 134.975 51.5671 135.049 51.6707C135.5 52.1101 135.094 52.6555 135.337 53.1693C135.495 53.5028 135.802 53.798 136.171 53.8656C136.223 53.8701 136.3 53.8724 136.392 53.8498C137.23 53.638 137.746 52.9777 138.193 52.2837C138.211 52.1056 138.03 51.9479 137.886 51.8578C137.255 51.9366 136.789 52.3963 136.219 52.6442L136.174 52.6645C136.183 52.4932 136.178 52.1304 136.174 51.7135C136.243 51.6775 136.39 51.6189 136.514 51.5851C136.636 51.5468 136.766 51.5152 136.838 51.4882C137.122 51.389 137.415 51.3124 137.568 51.0893C137.593 51.0487 137.589 51.0104 137.582 50.9857C137.555 50.8842 137.519 50.6859 137.404 50.6003C137.01 50.5958 136.597 50.8031 136.219 50.9338L136.165 50.9541L136.144 50.3164L136.917 50.0166C137.104 49.9378 137.647 49.7755 137.828 49.4803C137.749 49.1626 137.37 48.98 137.05 48.953C136.176 49.1941 135.428 49.6583 134.652 50.0392C134.58 50.0775 134.438 50.1451 134.477 50.2578C134.673 50.5958 135.06 50.5395 135.365 50.5124L135.367 50.5102Z" fill="#F0F0F0"/>
<path d="M131.727 54.9157C131.865 55.0419 132.072 55.141 132.25 55.0644C132.37 55.0058 132.415 54.8188 132.413 54.6768L131.761 52.367L131.854 52.4436C132.575 53.0228 133.102 53.7799 134.033 54.1112C134.161 54.1428 134.287 54.0819 134.384 53.9963C134.447 53.9444 134.531 53.8656 134.589 53.7642C134.77 53.4757 134.779 53.0814 134.718 52.7907C134.472 51.6864 133.862 50.785 133.001 50.1631C132.832 50.0414 132.532 49.8093 132.275 49.8837C132.192 49.9603 132.237 50.1 132.282 50.1789C132.784 51.0329 133.436 51.745 133.783 52.7298C133.796 52.7681 133.819 52.8357 133.823 52.8785C133.823 52.9236 133.814 52.9642 133.778 52.9822C132.967 52.4301 132.3 51.7225 131.383 51.2808C131.344 51.265 131.317 51.2583 131.304 51.256C131.178 51.2448 131.096 51.3394 131.051 51.4521C131.04 51.4859 131.018 51.5625 131.009 51.6819C130.968 52.2588 131.063 52.8515 131.178 53.4374C131.234 53.7349 131.38 54.5574 131.725 54.9225L131.727 54.9157Z" fill="#F0F0F0"/>
<path d="M176.86 130.636C176.692 130.412 176.502 130.199 176.292 129.994C176.082 129.79 175.854 129.602 175.61 129.426C175.366 129.253 175.119 129.079 174.872 128.912C174.494 128.656 174.141 128.409 173.818 128.168C173.494 127.926 173.278 127.653 173.17 127.347C173.068 127.06 173.196 126.807 173.553 126.583C173.911 126.361 174.471 126.102 175.229 125.813C175.056 125.48 174.931 125.185 174.857 124.926C174.781 124.668 174.698 124.375 174.605 124.049C173.781 124.364 173.11 124.679 172.596 124.997C172.079 125.316 171.693 125.648 171.437 125.992C171.182 126.335 171.037 126.693 171.008 127.063C170.977 127.432 171.034 127.818 171.179 128.224C171.27 128.483 171.395 128.719 171.557 128.935C171.716 129.15 171.9 129.352 172.108 129.542C172.315 129.73 172.539 129.906 172.781 130.071C173.022 130.236 173.267 130.397 173.511 130.554C173.917 130.821 174.298 131.082 174.65 131.335C175.002 131.588 175.244 131.897 175.371 132.264C175.474 132.551 175.366 132.838 175.05 133.122C174.735 133.406 174.19 133.687 173.42 133.96C173.5 134.153 173.568 134.323 173.627 134.471C173.684 134.619 173.738 134.761 173.786 134.9C173.835 135.039 173.886 135.184 173.934 135.34C173.982 135.496 174.048 135.681 174.124 135.9C174.957 135.513 175.616 135.15 176.107 134.803C176.596 134.457 176.954 134.104 177.175 133.746C177.4 133.389 177.508 133.016 177.505 132.627C177.499 132.238 177.417 131.818 177.255 131.363C177.164 131.105 177.033 130.866 176.866 130.642L176.86 130.636Z" fill="#F0F0F0"/>
<path d="M182.32 124.185C181.897 123.64 181.456 123.242 180.993 122.995C180.533 122.748 180.07 122.62 179.604 122.611C179.138 122.603 178.701 122.674 178.283 122.821C177.741 123.015 177.292 123.259 176.943 123.557C176.59 123.855 176.346 124.236 176.207 124.705C176.068 125.173 176.042 125.742 176.13 126.412C176.218 127.082 176.429 127.883 176.758 128.812C177.073 129.701 177.445 130.437 177.866 131.017C178.289 131.596 178.729 132.045 179.19 132.366C179.65 132.687 180.107 132.883 180.562 132.957C181.016 133.031 181.431 132.999 181.806 132.866C182.141 132.747 182.476 132.514 182.809 132.167C183.141 131.82 183.411 131.372 183.615 130.821C183.82 130.27 183.925 129.622 183.928 128.88C183.931 128.139 183.771 127.312 183.448 126.403C183.118 125.475 182.74 124.736 182.32 124.191V124.185ZM181.706 130.542C181.63 130.781 181.513 130.929 181.354 130.983C180.959 131.125 180.542 130.931 180.107 130.409C179.67 129.886 179.258 129.076 178.869 127.983C178.664 127.412 178.514 126.926 178.417 126.528C178.32 126.131 178.272 125.798 178.275 125.537C178.275 125.276 178.32 125.074 178.403 124.932C178.485 124.79 178.607 124.693 178.766 124.637C178.954 124.571 179.15 124.543 179.357 124.56C179.562 124.577 179.775 124.674 179.993 124.85C180.212 125.026 180.434 125.301 180.661 125.671C180.888 126.04 181.116 126.551 181.348 127.202C181.502 127.636 181.618 128.065 181.698 128.494C181.777 128.92 181.817 129.309 181.82 129.659C181.82 130.008 181.783 130.301 181.706 130.539V130.542Z" fill="#F0F0F0"/>
<path d="M190.157 128.858C190.137 128.71 190.12 128.551 190.106 128.383C190.092 128.216 190.072 128.02 190.046 127.795C189.501 128.045 189.021 128.244 188.603 128.392C188.188 128.54 187.796 128.679 187.433 128.81C187.333 128.534 187.206 128.162 187.044 127.696C186.885 127.23 186.706 126.725 186.512 126.182C186.319 125.639 186.12 125.074 185.919 124.489C185.717 123.904 185.521 123.356 185.334 122.844C185.146 122.333 184.979 121.873 184.837 121.467C184.692 121.06 184.581 120.762 184.501 120.566C184.124 120.756 183.777 120.935 183.465 121.103C183.152 121.271 182.783 121.43 182.357 121.58C182.553 121.978 182.729 122.39 182.879 122.813C183.027 123.228 183.18 123.631 183.342 124.017C183.604 124.659 183.859 125.333 184.109 126.034C184.359 126.736 184.592 127.415 184.808 128.065C185.024 128.716 185.214 129.318 185.382 129.866C185.55 130.415 185.675 130.855 185.763 131.193C186.155 131.076 186.595 130.94 187.078 130.784C187.561 130.628 188.046 130.48 188.532 130.341C188.796 130.27 189.078 130.187 189.373 130.099C189.668 130.011 189.981 129.937 190.305 129.878C190.273 129.667 190.248 129.48 190.225 129.321C190.202 129.162 190.18 129.008 190.163 128.861L190.157 128.858Z" fill="#F0F0F0"/>
<path d="M194.489 119.859C194.066 119.313 193.625 118.916 193.162 118.669C192.702 118.421 192.239 118.294 191.773 118.285C191.307 118.277 190.87 118.348 190.452 118.495C189.91 118.688 189.461 118.933 189.112 119.231C188.759 119.529 188.515 119.91 188.376 120.379C188.237 120.847 188.211 121.415 188.296 122.086C188.384 122.756 188.595 123.557 188.924 124.486C189.239 125.375 189.612 126.111 190.032 126.688C190.455 127.267 190.895 127.716 191.356 128.037C191.816 128.358 192.273 128.554 192.725 128.628C193.179 128.702 193.594 128.67 193.969 128.537C194.304 128.418 194.639 128.185 194.972 127.838C195.304 127.491 195.574 127.043 195.778 126.492C195.983 125.941 196.088 125.293 196.091 124.551C196.094 123.81 195.935 122.983 195.611 122.074C195.281 121.146 194.904 120.407 194.483 119.862L194.489 119.859ZM193.875 126.216C193.799 126.455 193.682 126.602 193.523 126.656C193.128 126.798 192.711 126.605 192.276 126.083C191.839 125.56 191.427 124.75 191.037 123.657C190.833 123.086 190.682 122.6 190.586 122.202C190.489 121.805 190.441 121.472 190.444 121.211C190.444 120.95 190.489 120.748 190.572 120.606C190.654 120.464 190.776 120.367 190.935 120.31C191.123 120.245 191.319 120.217 191.526 120.234C191.733 120.251 191.944 120.347 192.162 120.523C192.381 120.7 192.603 120.975 192.83 121.344C193.057 121.714 193.284 122.225 193.517 122.876C193.671 123.31 193.787 123.739 193.867 124.168C193.946 124.594 193.986 124.983 193.989 125.333C193.989 125.682 193.952 125.975 193.875 126.213V126.216Z" fill="#F0F0F0"/>
<path d="M204.857 122.546C204.633 122.637 204.383 122.731 204.107 122.83C203.831 122.929 203.567 123.02 203.317 123.103C203.067 123.185 202.851 123.256 202.664 123.31C202.476 123.364 202.369 123.398 202.34 123.41L201.852 123.583C201.775 123.364 201.687 123.134 201.59 122.893C201.494 122.648 201.4 122.41 201.318 122.171C201.229 121.924 201.144 121.685 201.065 121.458C200.98 121.222 200.908 121.001 200.849 120.799C200.974 120.776 201.113 120.742 201.264 120.694C201.414 120.646 201.57 120.606 201.738 120.569C201.894 120.535 202.033 120.504 202.161 120.47C202.289 120.435 202.414 120.404 202.539 120.379C202.664 120.35 202.789 120.322 202.917 120.288C203.045 120.254 203.187 120.208 203.346 120.151C203.224 119.805 203.116 119.492 203.028 119.211C202.94 118.93 202.84 118.637 202.732 118.331C202.357 118.464 202.025 118.592 201.735 118.72C201.445 118.848 201.272 118.924 201.218 118.953C201.116 119.012 200.974 119.072 200.789 119.132C200.605 119.191 200.445 119.24 200.315 119.276C200.181 118.902 200.059 118.569 199.951 118.279C199.843 117.99 199.721 117.657 199.588 117.282C199.647 117.262 199.715 117.237 199.795 117.209C199.875 117.18 199.946 117.16 200.008 117.149C200.139 117.112 200.298 117.066 200.482 117.004C200.667 116.944 200.863 116.885 201.07 116.828C201.278 116.771 201.488 116.711 201.701 116.655C201.914 116.595 202.119 116.547 202.317 116.51C202.246 116.189 202.184 115.879 202.127 115.575C202.07 115.274 202.028 114.925 201.999 114.536C201.772 114.615 201.508 114.706 201.21 114.808C200.911 114.908 200.616 115.007 200.32 115.101C200.025 115.195 199.752 115.283 199.505 115.365C199.255 115.447 199.073 115.51 198.954 115.552C198.866 115.584 198.741 115.629 198.585 115.692C198.429 115.754 198.258 115.822 198.074 115.899C197.889 115.976 197.699 116.055 197.5 116.138C197.301 116.22 197.113 116.297 196.94 116.371C197.034 116.638 197.159 116.973 197.312 117.373C197.466 117.774 197.63 118.211 197.804 118.686C197.977 119.157 198.156 119.651 198.338 120.166C198.517 120.671 198.687 121.165 198.849 121.654C198.977 122.043 199.108 122.449 199.241 122.876C199.375 123.302 199.502 123.713 199.622 124.108C199.741 124.506 199.855 124.881 199.963 125.23C200.071 125.583 200.167 125.875 200.252 126.114C200.721 125.958 201.215 125.796 201.732 125.628C202.252 125.46 202.766 125.296 203.278 125.137C203.567 125.046 203.885 124.941 204.235 124.821C204.581 124.702 204.917 124.608 205.238 124.54C205.167 124.154 205.104 123.807 205.053 123.503C204.999 123.199 204.936 122.881 204.865 122.552L204.857 122.546Z" fill="#F0F0F0"/>
<path d="M208.092 112.368C207.942 112.451 207.791 112.527 207.641 112.604C207.49 112.681 207.334 112.755 207.178 112.828C207.019 112.902 206.842 112.979 206.649 113.058C206.811 113.357 206.95 113.627 207.064 113.871C207.178 114.115 207.28 114.342 207.365 114.555C207.442 114.74 207.536 114.982 207.649 115.283C207.76 115.584 207.876 115.896 207.99 116.22C208.107 116.547 208.22 116.868 208.334 117.183C208.442 117.49 208.533 117.743 208.604 117.939C208.263 117.603 207.874 117.217 207.439 116.774C207.004 116.334 206.584 115.902 206.175 115.479C205.769 115.055 205.405 114.661 205.087 114.297C204.769 113.931 204.559 113.655 204.459 113.468C204.141 113.638 203.848 113.786 203.581 113.913C203.314 114.041 203.025 114.161 202.707 114.274C202.795 114.521 202.908 114.817 203.045 115.155C203.184 115.496 203.329 115.865 203.488 116.26C203.644 116.655 203.8 117.064 203.956 117.487C204.113 117.91 204.258 118.314 204.397 118.7C204.556 119.146 204.709 119.62 204.86 120.123C205.01 120.626 205.155 121.109 205.291 121.572C205.428 122.035 205.553 122.467 205.661 122.867C205.769 123.268 205.857 123.591 205.922 123.836C206.337 123.722 206.715 123.628 207.053 123.56C207.391 123.492 207.743 123.429 208.115 123.376C208.081 123.276 207.999 123.063 207.871 122.736C207.743 122.41 207.601 122.032 207.445 121.609C207.288 121.185 207.132 120.751 206.973 120.308C206.811 119.853 206.672 119.458 206.553 119.12L206.2 118.126C206.519 118.424 206.882 118.782 207.291 119.2C207.7 119.617 208.104 120.029 208.501 120.441C208.899 120.85 209.26 121.234 209.586 121.592C209.913 121.95 210.152 122.225 210.297 122.415C210.589 122.333 210.865 122.256 211.115 122.182C211.368 122.109 211.691 122.021 212.086 121.913L208.592 112.081C208.408 112.192 208.243 112.286 208.092 112.368Z" fill="#F0F0F0"/>
<path d="M219.381 117.532C218.816 117.601 218.327 117.606 217.918 117.552C217.509 117.498 217.154 117.373 216.85 117.18C216.549 116.987 216.285 116.711 216.066 116.356C215.844 116.001 215.637 115.55 215.444 115.007C215.217 114.365 215.097 113.817 215.092 113.362C215.086 112.908 215.16 112.522 215.313 112.198C215.467 111.874 215.68 111.613 215.952 111.411C216.225 111.209 216.529 111.03 216.864 110.877C216.753 110.627 216.651 110.383 216.56 110.141C216.469 109.9 216.381 109.633 216.302 109.34C216.063 109.391 215.847 109.451 215.648 109.522C215.035 109.741 214.524 110.064 214.114 110.493C213.705 110.922 213.401 111.419 213.208 111.985C213.012 112.55 212.924 113.155 212.944 113.8C212.961 114.445 213.086 115.095 213.319 115.746C213.589 116.507 213.899 117.146 214.242 117.663C214.589 118.18 215.009 118.589 215.504 118.884C215.998 119.183 216.589 119.376 217.273 119.467C217.958 119.558 218.773 119.563 219.725 119.481C219.642 119.12 219.574 118.802 219.526 118.524C219.478 118.245 219.429 117.916 219.381 117.532Z" fill="#F0F0F0"/>
<path d="M221.188 114.544C220.955 113.874 220.733 113.226 220.52 112.593C220.307 111.962 220.114 111.383 219.943 110.851C219.773 110.323 219.62 109.857 219.489 109.459C219.358 109.062 219.262 108.755 219.196 108.545C218.986 108.61 218.787 108.664 218.605 108.712C218.421 108.761 218.242 108.806 218.06 108.849C217.881 108.891 217.696 108.928 217.506 108.962C217.319 108.996 217.108 109.031 216.875 109.07C217.052 109.53 217.248 110.056 217.469 110.647C217.691 111.238 217.918 111.854 218.154 112.499C218.39 113.144 218.625 113.794 218.861 114.445C219.097 115.095 219.321 115.712 219.534 116.294C219.747 116.876 219.935 117.405 220.1 117.879C220.264 118.356 220.395 118.731 220.492 119.01C220.671 118.947 220.83 118.893 220.977 118.845C221.122 118.799 221.273 118.76 221.429 118.725C221.585 118.691 221.753 118.66 221.937 118.629C222.122 118.598 222.338 118.558 222.591 118.512C222.361 117.893 222.125 117.246 221.889 116.567C221.653 115.888 221.42 115.215 221.188 114.544Z" fill="#F0F0F0"/>
<path d="M225.363 106.227C225.213 106.309 225.065 106.386 224.912 106.463C224.761 106.539 224.605 106.613 224.449 106.687C224.29 106.761 224.113 106.837 223.92 106.917C224.082 107.215 224.221 107.488 224.335 107.729C224.449 107.974 224.551 108.201 224.636 108.414C224.713 108.599 224.807 108.84 224.92 109.141C225.031 109.442 225.147 109.755 225.261 110.079C225.378 110.405 225.491 110.726 225.605 111.042C225.713 111.348 225.804 111.601 225.875 111.797C225.534 111.462 225.145 111.076 224.71 110.633C224.275 110.192 223.855 109.76 223.446 109.334C223.04 108.911 222.676 108.516 222.358 108.153C222.04 107.786 221.83 107.511 221.73 107.323C221.412 107.494 221.119 107.641 220.852 107.769C220.585 107.897 220.296 108.016 219.978 108.13C220.066 108.377 220.179 108.673 220.316 109.011C220.455 109.351 220.6 109.721 220.759 110.116C220.915 110.51 221.071 110.919 221.227 111.343C221.384 111.766 221.529 112.169 221.668 112.556C221.827 113.002 221.98 113.473 222.131 113.979C222.281 114.482 222.426 114.964 222.562 115.427C222.699 115.89 222.824 116.322 222.932 116.723C223.04 117.123 223.128 117.447 223.193 117.691C223.608 117.578 223.986 117.484 224.324 117.416C224.662 117.348 225.014 117.285 225.386 117.231C225.352 117.132 225.27 116.919 225.142 116.592C225.014 116.265 224.872 115.888 224.716 115.464C224.559 115.041 224.403 114.607 224.244 114.163C224.082 113.709 223.943 113.314 223.824 112.976L223.471 111.982C223.79 112.28 224.153 112.638 224.562 113.056C224.971 113.473 225.375 113.885 225.772 114.297C226.167 114.706 226.531 115.089 226.857 115.447C227.184 115.805 227.423 116.081 227.568 116.271C227.86 116.189 228.136 116.112 228.386 116.038C228.639 115.964 228.962 115.876 229.357 115.768L225.863 105.937C225.679 106.048 225.514 106.142 225.363 106.224V106.227Z" fill="#F0F0F0"/>
<path d="M234.848 111.882C234.624 111.973 234.374 112.067 234.098 112.166C233.823 112.266 233.559 112.357 233.309 112.439C233.059 112.522 232.843 112.593 232.655 112.647C232.468 112.701 232.36 112.735 232.332 112.746L231.843 112.919C231.766 112.701 231.678 112.47 231.582 112.229C231.485 111.985 231.391 111.746 231.309 111.507C231.221 111.26 231.136 111.022 231.056 110.794C230.971 110.559 230.9 110.337 230.84 110.135C230.965 110.113 231.104 110.079 231.255 110.03C231.405 109.982 231.562 109.942 231.729 109.905C231.886 109.874 232.025 109.84 232.153 109.806C232.28 109.772 232.405 109.741 232.53 109.715C232.655 109.689 232.78 109.658 232.908 109.624C233.036 109.59 233.178 109.545 233.337 109.488C233.215 109.141 233.107 108.829 233.019 108.548C232.931 108.266 232.831 107.974 232.724 107.667C232.349 107.8 232.016 107.928 231.726 108.056C231.437 108.184 231.263 108.261 231.209 108.289C231.107 108.349 230.965 108.408 230.781 108.468C230.596 108.528 230.437 108.576 230.306 108.613C230.173 108.238 230.051 107.906 229.943 107.616C229.835 107.326 229.712 106.994 229.579 106.619C229.639 106.599 229.707 106.573 229.786 106.545C229.866 106.517 229.937 106.497 229.999 106.485C230.13 106.448 230.289 106.403 230.474 106.34C230.658 106.281 230.854 106.221 231.062 106.164C231.269 106.107 231.479 106.048 231.692 105.991C231.905 105.931 232.11 105.883 232.309 105.846C232.238 105.525 232.175 105.216 232.118 104.912C232.062 104.61 232.019 104.261 231.991 103.872C231.763 103.951 231.499 104.042 231.201 104.145C230.903 104.244 230.604 104.343 230.312 104.437C230.016 104.531 229.744 104.619 229.497 104.701C229.247 104.784 229.065 104.846 228.946 104.889C228.857 104.92 228.732 104.966 228.576 105.028C228.42 105.091 228.25 105.159 228.065 105.235C227.88 105.312 227.69 105.392 227.488 105.474C227.289 105.556 227.102 105.633 226.929 105.707C227.022 105.974 227.147 106.309 227.301 106.71C227.454 107.11 227.619 107.548 227.792 108.022C227.966 108.494 228.144 108.988 228.326 109.502C228.505 110.008 228.676 110.502 228.838 110.99C228.965 111.38 229.096 111.786 229.23 112.212C229.363 112.638 229.491 113.05 229.61 113.448C229.73 113.845 229.843 114.22 229.951 114.57C230.059 114.922 230.156 115.214 230.241 115.453C230.71 115.297 231.204 115.135 231.721 114.967C232.241 114.8 232.755 114.635 233.266 114.476C233.556 114.385 233.874 114.28 234.223 114.161C234.57 114.041 234.905 113.948 235.226 113.879C235.155 113.493 235.093 113.146 235.041 112.843C234.987 112.539 234.925 112.22 234.854 111.891L234.848 111.882Z" fill="#F0F0F0"/>
<path d="M238.876 108.587C238.709 108.363 238.518 108.15 238.308 107.945C238.098 107.741 237.871 107.553 237.626 107.377C237.382 107.204 237.135 107.031 236.888 106.863C236.51 106.607 236.158 106.36 235.834 106.119C235.51 105.877 235.294 105.605 235.186 105.298C235.084 105.011 235.212 104.758 235.57 104.534C235.928 104.312 236.487 104.054 237.246 103.764C237.073 103.432 236.948 103.136 236.874 102.878C236.797 102.619 236.715 102.327 236.621 102C235.797 102.315 235.127 102.633 234.613 102.949C234.096 103.267 233.709 103.599 233.454 103.943C233.198 104.287 233.053 104.645 233.025 105.014C232.993 105.383 233.05 105.769 233.195 106.176C233.286 106.434 233.411 106.67 233.573 106.886C233.732 107.102 233.917 107.303 234.124 107.494C234.331 107.681 234.556 107.857 234.797 108.022C235.039 108.187 235.283 108.349 235.527 108.505C235.933 108.772 236.314 109.033 236.666 109.286C237.019 109.539 237.26 109.849 237.388 110.215C237.49 110.502 237.382 110.789 237.067 111.073C236.752 111.357 236.206 111.638 235.436 111.911C235.516 112.104 235.584 112.274 235.644 112.422C235.701 112.57 235.754 112.712 235.803 112.851C235.851 112.99 235.902 113.135 235.95 113.291C235.999 113.448 236.064 113.632 236.141 113.851C236.973 113.465 237.632 113.101 238.124 112.755C238.612 112.408 238.97 112.056 239.192 111.698C239.416 111.34 239.524 110.968 239.521 110.579C239.515 110.189 239.433 109.769 239.271 109.315C239.18 109.056 239.05 108.817 238.882 108.593L238.876 108.587Z" fill="#F0F0F0"/>
<path opacity="0.5" d="M196.059 146.042C195.672 144.97 196.168 143.872 197.285 143.468C198.402 143.064 199.488 143.596 199.874 144.663C200.259 145.729 199.767 146.839 198.65 147.243C197.533 147.647 196.445 147.109 196.059 146.042ZM196.471 145.893C196.794 146.785 197.637 147.194 198.516 146.87C199.39 146.554 199.782 145.697 199.462 144.812C199.146 143.937 198.294 143.524 197.42 143.84C196.545 144.157 196.155 145.019 196.471 145.893ZM197.059 145.7C197.265 146.27 197.815 146.575 198.396 146.365C198.667 146.267 198.88 146.062 198.959 145.874L198.81 145.462C198.747 145.727 198.594 145.923 198.329 146.019C197.979 146.145 197.584 145.969 197.437 145.563L197.418 145.512C197.275 145.117 197.458 144.739 197.807 144.612C198.078 144.514 198.326 144.565 198.545 144.729L198.396 144.317C198.215 144.223 197.92 144.202 197.65 144.299C197.068 144.51 196.834 145.079 197.04 145.649L197.059 145.7ZM203.752 145.583L201.094 146.544L200.963 146.183L201.855 144.061C202.079 143.533 202.158 143.205 202.001 142.77C201.839 142.325 201.397 142.07 200.917 142.244C200.443 142.415 200.199 142.816 200.104 143.278L199.874 142.64C199.986 142.37 200.277 141.99 200.79 141.805C201.614 141.507 202.288 141.888 202.535 142.571C202.767 143.214 202.573 143.718 202.31 144.33L201.661 145.854L203.596 145.154L203.752 145.583ZM203.599 143.315L203.558 143.203C203.115 141.978 203.338 140.883 204.427 140.489C205.516 140.095 206.38 140.791 206.825 142.021L206.866 142.134C207.311 143.364 207.087 144.44 205.998 144.834C204.909 145.228 204.044 144.545 203.599 143.315ZM204.105 143.005L204.146 143.117C204.507 144.116 205.118 144.674 205.845 144.411C206.568 144.149 206.68 143.33 206.319 142.332L206.278 142.219C205.915 141.215 205.308 140.649 204.58 140.912C203.847 141.178 203.742 142 204.105 143.005ZM210.821 143.026L208.163 143.987L208.033 143.626L208.924 141.504C209.148 140.977 209.227 140.648 209.07 140.214C208.909 139.768 208.466 139.513 207.986 139.687C207.512 139.858 207.268 140.259 207.174 140.721L206.943 140.083C207.056 139.813 207.346 139.434 207.859 139.248C208.683 138.95 209.357 139.331 209.604 140.014C209.837 140.657 209.643 141.161 209.379 141.774L208.731 143.297L210.666 142.597L210.821 143.026ZM212.363 137.683L213.4 140.549L213.964 140.345L214.119 140.774L213.555 140.978L213.894 141.914L213.375 142.102L213.036 141.166L210.931 141.927L210.807 141.583L211.698 137.924L212.363 137.683ZM212.05 138.44L211.371 141.289L212.889 140.74L212.05 138.44ZM219.639 139.836L218.325 140.312L216.774 136.024L218.088 135.548C219.352 135.091 220.49 135.713 220.912 136.881L220.951 136.989C221.377 138.168 220.903 139.379 219.639 139.836ZM217.454 136.263L218.694 139.693L219.473 139.412C220.359 139.091 220.765 138.185 220.404 137.187L220.365 137.079C220.006 136.086 219.118 135.661 218.232 135.981L217.454 136.263ZM221.644 135.053L221.148 135.233L220.921 134.607L221.418 134.427L221.644 135.053ZM222.942 138.642L222.446 138.822L221.331 135.741L221.828 135.561L222.942 138.642ZM223.653 138.104L223.461 137.574C223.828 137.792 224.221 137.822 224.605 137.683C225.017 137.534 225.203 137.256 225.099 136.969C225.028 136.771 224.896 136.653 224.468 136.635L223.99 136.617C223.425 136.591 223.075 136.418 222.926 136.006C222.769 135.572 222.982 135.048 223.67 134.799C224.06 134.658 224.471 134.701 224.739 134.808L224.929 135.333C224.53 135.113 224.137 135.084 223.815 135.2C223.415 135.345 223.34 135.614 223.411 135.812C223.483 136.009 223.672 136.075 224.054 136.09L224.519 136.106C225.108 136.129 225.43 136.332 225.584 136.755C225.788 137.319 225.427 137.839 224.75 138.084C224.293 138.249 223.901 138.206 223.653 138.104ZM227.091 137.141L226.595 137.321L225.48 134.24L225.932 134.077L226.196 134.683C226.269 134.268 226.522 133.768 227.041 133.58C227.69 133.345 228.196 133.615 228.463 134.355L229.196 136.38L228.694 136.562L227.975 134.576C227.8 134.091 227.547 133.85 227.107 134.009C226.678 134.164 226.379 134.783 226.434 135.325L227.091 137.141ZM229.296 134.66L229.251 134.535C228.925 133.633 229.249 132.782 230.072 132.484C230.885 132.19 231.594 132.546 231.972 133.59L232.045 133.793L229.833 134.593C230.088 135.19 230.589 135.519 231.167 135.316C231.658 135.139 231.934 134.809 232.087 134.454L232.268 134.956C232.101 135.253 231.835 135.522 231.31 135.711C230.39 136.044 229.631 135.585 229.296 134.66ZM229.698 134.201L231.408 133.583C231.146 132.893 230.681 132.704 230.21 132.881C229.747 133.048 229.51 133.574 229.698 134.201ZM234.11 134.59L231.781 131.962L232.323 131.766L234.157 133.891L234.207 131.084L234.721 130.898L234.563 135.843L234.038 136.033L234.11 134.59ZM236.471 134.419L235.98 134.596L235.683 128.834L236.174 128.656L236.471 134.419ZM238.967 132.846L238.442 133.036L236.891 128.748L238.437 128.189C239.295 127.879 240.046 128.175 240.303 128.886L240.336 128.976C240.593 129.687 240.205 130.395 239.347 130.705L238.326 131.075L238.967 132.846ZM237.569 128.981L238.171 130.646L239.136 130.297C239.728 130.083 239.964 129.64 239.792 129.166L239.762 129.082C239.592 128.613 239.126 128.418 238.534 128.632L237.569 128.981ZM241.332 127.933L240.835 128.113L240.609 127.486L241.105 127.307L241.332 127.933ZM242.63 131.522L242.133 131.701L241.019 128.62L241.515 128.441L242.63 131.522ZM243.741 131.12L243.194 131.318L243.774 129.27L242.209 128.19L242.79 127.98L243.954 128.797L244.331 127.423L244.872 127.227L244.346 129.07L246.088 130.271L245.501 130.483L244.176 129.552L243.741 131.12ZM246.143 129.332C246.067 129.123 246.061 128.928 246.118 128.735C246.216 128.406 246.529 128.159 247.071 127.842L247.79 127.429C247.587 126.902 247.238 126.716 246.68 126.918C246.273 127.065 245.988 127.404 245.861 127.775L245.683 127.285C245.822 126.998 246.121 126.679 246.59 126.51C247.34 126.239 247.986 126.42 248.28 127.232L248.998 129.218L248.609 129.359L248.347 128.918C248.195 129.362 247.878 129.719 247.41 129.889C246.845 130.093 246.351 129.908 246.143 129.332ZM246.637 129.128C246.761 129.472 247.043 129.562 247.359 129.448C247.731 129.313 248.074 128.902 248.146 128.397L247.932 127.805L247.453 128.086C247.01 128.342 246.707 128.528 246.622 128.77C246.581 128.886 246.592 129.004 246.637 129.128ZM250.382 128.718L249.886 128.897L248.772 125.817L249.223 125.653L249.451 126.177C249.485 125.744 249.706 125.383 250.146 125.224C250.253 125.185 250.389 125.155 250.448 125.159L250.607 125.599C250.518 125.6 250.41 125.62 250.275 125.668C249.891 125.807 249.63 126.214 249.658 126.715L250.382 128.718Z" fill="white"/>
</g>
<defs>
<linearGradient id="paint0_linear_8696_2006" x1="174" y1="224" x2="142" y2="59" gradientUnits="userSpaceOnUse">
<stop stop-opacity="0"/>
<stop offset="1"/>
</linearGradient>
<linearGradient id="paint1_linear_8696_2006" x1="241" y1="28" x2="174" y2="174" gradientUnits="userSpaceOnUse">
<stop stop-color="#952BBF"/>
<stop offset="1" stop-color="#451459"/>
</linearGradient>
<clipPath id="clip0_8696_2006">
<rect width="348" height="174" fill="white"/>
</clipPath>
</defs>
</svg>
