<svg width="223" height="90" viewBox="0 0 223 90" fill="none" xmlns="http://www.w3.org/2000/svg">
<g clip-path="url(#clip0_8337_3699)">
<path d="M129.386 46.3643C129.386 46.7731 129.513 47.0124 129.759 47.0124C129.933 47.0124 130.092 46.9327 130.299 46.8031L199.8 1.76484C201.019 0.96717 202.138 0.551719 203.803 0.551719H219.08C221.428 0.551719 222.997 2.11714 222.997 4.46028V33.5651C222.997 37.0848 222.214 39.1155 219.083 40.9934L200.556 52.1042C200.306 52.2604 200.109 52.3335 199.933 52.3335C199.707 52.3335 199.503 52.1607 199.503 51.5292V17.552C199.503 17.1797 199.38 16.8972 199.127 16.8972C198.954 16.8972 198.794 16.977 198.591 17.1L147.777 50.0336C146.352 50.9542 145.183 51.2334 143.877 51.2334H110.193C107.841 51.2334 106.276 49.668 106.276 47.3249V5.38092C106.276 5.07515 106.14 4.79264 105.903 4.79264C105.73 4.79264 105.57 4.86576 105.357 4.99538L71.8455 25.0833C71.5091 25.286 71.4192 25.4489 71.4192 25.6117C71.4192 25.758 71.4758 25.8909 71.7156 26.1269L95.6485 50.0137C95.9682 50.3294 96.188 50.5754 96.188 50.8246C96.188 51.1071 95.8383 51.2368 95.4287 51.2368H73.7672C72.0719 51.2368 70.763 50.9775 69.8505 50.0635L55.3362 35.5792C55.193 35.4363 55.0697 35.3499 54.9165 35.3499C54.7867 35.3499 54.6201 35.4131 54.4669 35.5061L30.1876 50.0635C28.7189 50.9443 27.7031 51.2334 26.2676 51.2334H3.91666C1.56533 51.2334 0 49.668 0 47.3249V18.7518C0 15.2354 0.789327 13.2147 3.91666 11.3402L22.5574 0.162857C22.7473 0.0498541 22.9105 0 23.0637 0C23.3468 0 23.5033 0.295801 23.5033 0.940581V39.1355C23.5033 39.5376 23.6099 39.7238 23.873 39.7238C24.0462 39.7238 24.216 39.6207 24.4259 39.4911L87.4189 1.72163C88.9176 0.817608 89.8434 0.548395 91.5753 0.548395H125.473C127.824 0.548395 129.39 2.11382 129.39 4.45696V46.361L129.386 46.3643Z" fill="white"/>
<path d="M1.07227 69.1078H2.84409L8.6558 82.5784L14.4642 69.1078H16.2194V85.3071H14.7007V71.986L8.95555 85.3071H8.33608L2.58764 71.986V85.3071H1.07227V69.1078Z" fill="white"/>
<path d="M18.6572 79.318C18.6572 75.6753 20.8154 73.3488 23.9361 73.3488C27.0567 73.3488 29.2116 75.6753 29.2116 79.318V79.6802C29.2116 83.3262 27.0567 85.6295 23.9361 85.6295C20.8154 85.6295 18.6572 83.3262 18.6572 79.6802V79.318ZM23.9361 84.4363C26.2441 84.4363 27.7162 82.6682 27.7162 79.6836V79.3213C27.7162 76.3599 26.2441 74.5453 23.9361 74.5453C21.628 74.5453 20.1526 76.3566 20.1526 79.3213V79.6836C20.1526 82.6682 21.628 84.4363 23.9361 84.4363Z" fill="white"/>
<path d="M31.3302 73.6677L35.1103 83.7516L38.9337 73.6677H40.4091L35.9429 85.307H34.2343L29.7715 73.6677H31.3302Z" fill="white"/>
<path d="M40.9652 79.1917C40.9652 75.7816 43.0368 73.3488 46.0709 73.3488C49.105 73.3488 50.9401 75.2665 50.9401 79.318V79.9361H42.4373C42.5239 82.4521 43.9094 84.4363 46.2174 84.4363C48.2457 84.4363 49.5712 83.4126 50.3406 82.6682V84.2469C49.4647 85.0346 47.9893 85.6328 46.2174 85.6328C42.9269 85.6328 40.9619 83.2033 40.9619 79.6836V79.195L40.9652 79.1917ZM49.488 78.7862C49.4247 75.7816 47.9493 74.5453 46.0709 74.5453C44.1925 74.5453 42.5905 76.1871 42.4606 78.7862H49.488Z" fill="white"/>
<path d="M53.1449 73.6678H54.4272L54.577 76.0575C55.3231 74.6283 56.6686 73.3488 58.5703 73.3488C60.3654 73.3488 61.5178 74.3093 61.8608 76.1406C62.6535 74.6715 64.019 73.3488 65.9407 73.3488C68.1188 73.3488 69.3578 74.7546 69.3578 77.4202V85.3071H67.9024V77.6329C67.9024 75.6088 67.3262 74.5419 65.7242 74.5419C64.2721 74.5419 62.457 76.2071 61.9641 78.0583V85.3071H60.512V77.6329C60.512 75.6088 59.9591 74.5419 58.3538 74.5419C56.9017 74.5419 55.0866 76.2071 54.5937 78.0583V85.3071H53.1416V73.6678H53.1449Z" fill="white"/>
<path d="M71.4691 79.1917C71.4691 75.7816 73.5407 73.3488 76.5748 73.3488C79.6089 73.3488 81.444 75.2665 81.444 79.318V79.9361H72.9412C73.0245 82.4521 74.4133 84.4363 76.7213 84.4363C78.7496 84.4363 80.0752 83.4126 80.8445 82.6682V84.2469C79.9686 85.0346 78.4932 85.6328 76.7213 85.6328C73.4308 85.6328 71.4658 83.2033 71.4658 79.6836V79.195L71.4691 79.1917ZM79.9919 78.7862C79.9286 75.7816 78.4532 74.5453 76.5748 74.5453C74.6964 74.5453 73.0944 76.1871 72.9645 78.7862H79.9919Z" fill="white"/>
<path d="M83.6455 73.6677H84.9278L85.0776 76.3532C85.8237 74.8808 87.3623 73.3453 89.4572 73.3453C91.8718 73.3453 93.1308 74.8609 93.1308 77.6295V85.3037H91.6787V77.8422C91.6787 75.7118 91.0592 74.5385 89.2441 74.5385C87.429 74.5385 85.5705 76.4994 85.1009 78.5468V85.3037H83.6488V73.6644L83.6455 73.6677Z" fill="white"/>
<path d="M94.4561 73.6678H97.0405V70.1282H98.4926V73.6678H101.077V74.8843H98.4926V85.3071H97.0405V74.8843H94.4561V73.6678Z" fill="white"/>
<path d="M107.678 73.6678H110.263V70.1282H111.715V73.6678H114.299V74.8843H111.715V85.3071H110.263V74.8843H107.678V73.6678Z" fill="white"/>
<path d="M115.965 68.9781H117.417V76.2901C118.163 74.841 119.705 73.3487 121.753 73.3487C124.168 73.3487 125.427 74.8609 125.427 77.6328V85.307H123.974V77.8455C123.974 75.7151 123.355 74.5419 121.54 74.5419C119.725 74.5419 117.93 76.4397 117.417 78.4637V85.307H115.965V68.9781Z" fill="white"/>
<path d="M127.948 80.4048C128.591 79.4443 129.869 78.9989 132.241 78.5502L135.381 77.9519C135.381 75.6919 134.399 74.5419 132.217 74.5419C130.509 74.5419 129.183 75.3329 128.264 76.2702V74.8012C129.097 74.0334 130.486 73.3488 132.217 73.3488C134.995 73.3488 136.81 74.7347 136.81 77.6129V85.3071H135.741L135.378 83.303C134.352 84.7088 132.664 85.6262 130.849 85.6262C128.817 85.6262 127.388 84.4961 127.388 82.3225C127.388 81.6212 127.538 81.003 127.941 80.4048M131.145 84.433C132.534 84.433 134.372 83.4957 135.375 81.6844V79.1252L133.153 79.5506C131.551 79.8497 129.926 80.0624 129.243 80.9598C128.944 81.342 128.86 81.7708 128.86 82.2793C128.86 83.7516 129.803 84.433 131.148 84.433" fill="white"/>
<path d="M138.109 73.6678H140.693V70.1282H142.145V73.6678H144.73V74.8843H142.145V85.3071H140.693V74.8843H138.109V73.6678Z" fill="white"/>
<path d="M152.826 69.4036H154.279V71.4708H152.826V69.4036ZM152.826 73.6677H154.279V85.307H152.826V73.6677Z" fill="white"/>
<path d="M157.119 73.6677H158.402L158.551 76.3532C159.298 74.8808 160.836 73.3453 162.931 73.3453C165.346 73.3453 166.605 74.8609 166.605 77.6295V85.3037H165.153V77.8422C165.153 75.7118 164.533 74.5385 162.718 74.5385C160.903 74.5385 159.044 76.4994 158.575 78.5468V85.3037H157.123V73.6644L157.119 73.6677Z" fill="white"/>
<path d="M168.8 82.6415C169.869 83.8546 170.934 84.4329 172.433 84.4329C174.122 84.4329 175.274 83.6651 175.274 82.4088C175.274 81.5547 174.994 80.9132 173.479 80.2751L171.707 79.5306C169.849 78.7396 168.953 77.7824 168.953 76.3532C168.953 74.7944 170.318 73.3453 172.776 73.3453C174.248 73.3453 175.53 73.9835 176.343 74.6648V76.3299C175.211 75.1368 173.909 74.5385 172.776 74.5385C171.131 74.5385 170.448 75.4126 170.448 76.3499C170.448 77.1808 171.091 77.6494 172.413 78.2045L174.122 78.929C176.023 79.74 176.769 80.7836 176.769 82.339C176.769 84.3199 174.998 85.6227 172.433 85.6227C170.595 85.6227 169.549 85.0046 168.8 84.3V82.6348V82.6415Z" fill="white"/>
<path d="M178.914 73.6677H180.197L180.326 75.755C181.159 74.3723 182.614 73.3453 184.256 73.3453C187.224 73.3453 189.319 75.7749 189.319 79.4641C189.319 83.1533 187.224 85.6261 184.256 85.6261C182.631 85.6261 181.222 84.6223 180.366 83.3029V89.9966H178.914V73.6677ZM184.127 84.4329C186.328 84.4329 187.823 82.452 187.823 79.4641C187.823 76.4762 186.328 74.5418 184.127 74.5418C182.481 74.5418 180.923 76.0142 180.366 77.8023V81.1691C180.919 82.9605 182.481 84.4296 184.127 84.4296" fill="white"/>
<path d="M191.54 69.4036H192.992V71.4708H191.54V69.4036ZM191.54 73.6677H192.992V85.307H191.54V73.6677Z" fill="white"/>
<path d="M195.833 73.6677H197.115L197.242 75.735C197.948 74.3059 199.057 73.3453 200.722 73.3453C201.192 73.3453 201.705 73.4318 201.898 73.5182V74.7944C201.598 74.6881 201.172 74.6017 200.616 74.6017C199.187 74.6017 197.861 75.7117 197.282 77.4799V85.3037H195.83V73.6644L195.833 73.6677Z" fill="white"/>
<path d="M202.471 79.1917C202.471 75.7816 204.542 73.3488 207.576 73.3488C210.61 73.3488 212.446 75.2665 212.446 79.318V79.9361H203.946C204.029 82.4521 205.418 84.4363 207.726 84.4363C209.755 84.4363 211.08 83.4126 211.849 82.6682V84.2469C210.973 85.0346 209.498 85.6328 207.726 85.6328C204.436 85.6328 202.471 83.2033 202.471 79.6836V79.195V79.1917ZM210.993 78.7862C210.93 75.7816 209.455 74.5453 207.576 74.5453C205.698 74.5453 204.096 76.1871 203.966 78.7862H210.993Z" fill="white"/>
<path d="M213.994 82.6415C215.063 83.8546 216.133 84.4329 217.628 84.4329C219.317 84.4329 220.469 83.6651 220.469 82.4088C220.469 81.5547 220.189 80.9132 218.674 80.2751L216.902 79.5306C215.043 78.7396 214.148 77.7824 214.148 76.3532C214.148 74.7944 215.513 73.3453 217.971 73.3453C219.443 73.3453 220.725 73.9835 221.538 74.6648V76.3299C220.406 75.1368 219.103 74.5385 217.971 74.5385C216.326 74.5385 215.643 75.4126 215.643 76.3499C215.643 77.1808 216.286 77.6494 217.608 78.2045L219.317 78.929C221.218 79.74 221.964 80.7836 221.964 82.339C221.964 84.3199 220.192 85.6227 217.628 85.6227C215.79 85.6227 214.744 85.0046 213.994 84.3V82.6348V82.6415Z" fill="white"/>
</g>
<defs>
<clipPath id="clip0_8337_3699">
<rect width="223" height="90" fill="white"/>
</clipPath>
</defs>
</svg>
