<?xml version="1.0" encoding="utf-8"?>
<!-- Generator: Adobe Illustrator 19.0.0, SVG Export Plug-In . SVG Version: 6.00 Build 0)  -->
<svg version="1.1" id="Capa_1" xmlns="http://www.w3.org/2000/svg" xmlns:xlink="http://www.w3.org/1999/xlink" x="0px" y="0px"
	 viewBox="0 0 300 80" style="enable-background:new 0 0 300 80;" xml:space="preserve">
<style type="text/css">
	.st0{fill:#316D82;}
</style>
<path id="XMLID_887_" d="M81.6,64.9V50.7c0-4.9-1-8.2-5.9-8.2c-3.7,0-6.2,3.5-6.6,5.3v17.1h-2.1V31H69v14c1.1-2.1,3.8-4.2,7-4.2
	c6,0,7.7,4.3,7.7,8.8v15.3H81.6z"/>
<path id="XMLID_884_" d="M105.8,64.9c-0.1-0.6-0.7-2.2-0.8-3c-1.2,2-3.6,3.5-6.9,3.5c-4.1,0-8.2-2-8.2-6.7c0-4.8,2.5-7.9,12.5-7.9
	h2.4v-2.2c0-3.9-1.5-6.1-5.4-6.1c-3.2,0-5.5,0.9-7.7,2l-0.8-1.9c2.5-1,4.9-1.9,8.4-1.9c4.6,0,7.6,2.4,7.6,7.6v9.3
	c0,1.9,0.3,4.2,0.6,7.2H105.8z M104.9,52.5h-1.8c-8.3,0-10.9,1.8-10.9,6.1c0,3,2.1,5,6,5c3,0,5.6-1.5,6.7-3.8V52.5z"/>
<path id="XMLID_882_" d="M126,43.8c-1.4-1-2.7-1.3-3.8-1.3c-3,0-4.6,4.3-5.4,5.9v16.5h-2.1V46.6c0-2.3-0.3-4.1-0.4-5.3h1.7l0.7,4.4
	c1-1.9,2.7-4.9,5.9-4.9c1.4,0,2.7,0.3,4.2,1.1L126,43.8z"/>
<path id="XMLID_880_" d="M160.2,64.9V49.9c0-3.5-0.7-7.4-6.1-7.4c-3.1,0-5.6,3.1-6.5,5.5v16.8h-2.1V49.9c0-4.5-2-7.4-5.9-7.4
	c-3.1,0-5.6,2.9-6.4,5.3v17.1h-2.1V46.7c0-2-0.3-3.7-0.4-5.4h1.7l0.7,3.7c1.1-1.6,3.1-4.2,6.9-4.2c4.2,0,6.2,2.5,7.1,5.2
	c1.3-2.2,3.5-5.2,7.3-5.2c5.2,0,8,2.7,8,9v15H160.2z"/>
<path id="XMLID_877_" d="M178.4,65.4c-7.5,0-9.8-5.6-9.8-12.4c0-6.5,2.3-12.2,9.8-12.2c7.5,0,9.7,5.4,9.7,12.2
	C188.1,59.8,185.9,65.4,178.4,65.4z M178.4,42.5c-5.6,0-7.5,4.7-7.5,10.5c0,5.8,1.5,10.7,7.5,10.7c6.2,0,7.5-4.9,7.5-10.7
	C185.9,47.2,184.4,42.5,178.4,42.5z"/>
<path id="XMLID_875_" d="M209,64V49.5c0-4.3-0.8-7.9-6-7.9c-3.4,0-5.8,3.1-6.5,5.3V64h-2.1V45.4c0-2-0.3-3-0.4-5h1.7l0.7,3.7
	c0.9-1.1,2.8-4.2,7-4.2c5.9,0,7.8,3.8,7.8,9.2V64H209z"/>
<path id="XMLID_873_" d="M218.5,64V40.4h2.1V64H218.5z"/>
<path id="XMLID_871_" class="st0" d="M216.2,30.7l3.4,3.8l3.5-3.8h2.1l-4.3,5.5h-2.5l-4.2-5.5H216.2z"/>
<path id="XMLID_868_" d="M242.9,64c-0.1-0.6-0.7-2.2-0.8-3c-1.2,2-3.6,3.5-6.9,3.5c-4.1,0-8.2-2-8.2-6.7c0-4.8,2.5-7.9,12.5-7.9h2.4
	v-2.2c0-3.9-1.5-6.1-5.4-6.1c-3.2,0-5.5,0.9-7.7,2l-0.8-1.9c2.5-1,4.9-1.9,8.4-1.9c4.6,0,7.6,2.4,7.6,7.6v9.3c0,1.9,0.3,4.2,0.6,7.2
	H242.9z M242,51.7h-1.8c-8.3,0-10.9,1.8-10.9,6.1c0,3,2.1,5,6,5c3,0,5.6-1.5,6.7-3.8V51.7z"/>
<path id="XMLID_866_" class="st0" d="M254.6,63.7v-3.6h2.9v3.6H254.6z"/>
<path id="XMLID_864_" d="M263.6,64V30.1h2.1V64H263.6z"/>
<path id="XMLID_861_" d="M287.9,64c-0.1-0.6-0.7-2.2-0.8-3c-1.2,2-3.6,3.5-6.9,3.5c-4.1,0-8.2-2-8.2-6.7c0-4.8,2.5-7.9,12.5-7.9h2.4
	v-2.2c0-3.9-1.5-6.1-5.4-6.1c-3.2,0-5.5,0.9-7.7,2l-0.8-1.9c2.5-1,4.9-1.9,8.4-1.9c4.6,0,7.6,2.4,7.6,7.6v9.3c0,1.9,0.3,4.2,0.6,7.2
	H287.9z M286.9,51.7h-1.8c-8.3,0-10.9,1.8-10.9,6.1c0,3,2.1,5,6,5c3,0,5.6-1.5,6.7-3.8V51.7z"/>
<path id="XMLID_842_" class="st0" d="M58.9,40.1c-0.6-0.6-1.3-1.3-1.9-1.9l-0.8-0.8c-1.4-1.4-3.2-2.2-5-2.2c-0.4,0-0.9,0-1.3,0.1
	c1.8-1.2,3-3.3,3-5.5c0-1.3,0-2.7,0-4.2c0-1.3-0.6-1.9-1.9-1.9c-1.4,0-2.7,0-4.1,0c-2.4,0-4.4,1.2-5.6,3c0.4-2.1-0.2-4.3-1.7-5.9
	c-0.9-1-1.9-2-2.9-2.9l-0.2-0.2c-0.9-0.9-1.8-0.9-2.7,0c-0.9,0.9-1.8,1.8-2.8,2.8c-1.7,1.7-2.3,4-1.9,6.2c-1.2-1.7-3.1-2.9-5.3-3
	c-1.5,0-3,0-4.5,0c-1.3,0-1.8,0.6-1.9,1.9c0,1.6,0,3,0,4.4c0,1.8,0.8,3.4,2.2,4.7c0.3,0.2,0.5,0.5,0.8,0.6c-0.4-0.1-0.9-0.1-1.3-0.1
	c-1.8,0-3.4,0.7-4.7,1.9c-1,1-2,2-3,3c-0.9,0.9-0.9,1.8,0,2.7c0.5,0.5,1,1,1.4,1.4c0.3,0.3,0.7,0.7,1,1c1.6,1.6,3.4,2.4,5.3,2.4
	c0.4,0,0.8,0,1.3-0.1c-1.7,1.2-2.9,3.2-3,5.4c0,1.5,0,3,0,4.4c0,1.3,0.6,1.8,1.8,1.9c1.4,0,2.9,0,4.3,0c1.6,0,3-0.5,4.2-1.6
	c0.5-0.4,0.9-0.9,1.3-1.4c-0.4,2.1,0.2,4.3,1.7,5.9c1,1.1,2,2.1,3,3.1c0.3,0.3,0.8,0.7,1.4,0.7c0.6,0,1.1-0.4,1.4-0.7
	c0.8-0.8,1.7-1.6,2.7-2.7c1.8-1.8,2.5-4.1,2-6.3c1.2,1.8,3.3,3,5.5,3c1.4,0,2.8,0,4.2,0c1.3,0,1.9-0.6,1.9-1.9c0-1.4,0-2.7,0-4.1
	c0-2.4-1.2-4.4-3-5.6c0.4,0.1,0.9,0.1,1.3,0.1c1.8,0,3.5-0.7,4.8-1.9c0.9-0.9,1.8-1.8,2.7-2.7l0.2-0.2C59.9,41.9,59.9,41,58.9,40.1z
	 M40.1,45.1c0,0.2,0,0.3,0,0.6c0,0.2,0,0.3,0,0.5c0,0.1,0,0.1,0,0.2c-0.1,0-0.1,0-0.2,0c-0.5,0-0.9,0-1.3,0c-1-0.1-1.7,0.3-2.3,1
	c-0.3,0.3-0.6,0.7-0.9,1c-0.1,0.1-0.1,0.1-0.2,0.2L35,48.4c-0.4-0.4-0.7-0.7-1-1.1c-0.5-0.6-1.2-0.9-2-0.9c-0.1,0-0.1,0-0.2,0
	c-0.4,0-0.9,0-1.3,0c-0.1,0-0.2,0-0.3,0c0-0.1,0-0.2,0-0.2c0-0.2,0-0.4,0-0.6c0-0.2,0-0.5,0-0.7c0-0.1,0-0.2,0-0.2
	c0-0.8-0.3-1.5-1-2c-0.3-0.3-0.7-0.6-1-0.9c-0.1,0-0.1-0.1-0.2-0.1c0-0.1,0.1-0.1,0.1-0.2c0.3-0.3,0.5-0.6,0.8-0.8
	c0.8-0.7,1.2-1.4,1.2-2.4c0-0.1,0-0.3,0-0.4c0-0.2,0-0.3,0-0.6c0-0.2,0-0.3,0-0.5c0-0.1,0-0.1,0-0.2c0.1,0,0.1,0,0.2,0
	c0.5,0,0.9,0,1.3,0c1,0.1,1.7-0.3,2.3-1c0.3-0.3,0.6-0.7,0.9-1c0.1-0.1,0.1-0.1,0.2-0.2c0.1,0.1,0.1,0.1,0.2,0.2
	c0.4,0.4,0.7,0.7,1,1.1c0.6,0.7,1.3,0.9,2.1,0.9c0.4,0,0.9,0,1.4,0c0.1,0,0.2,0,0.3,0c0,0.1,0,0.2,0,0.3c0,0.2,0,0.4,0,0.7
	c0,0.3,0,0.5,0,0.8l0,0.1c0,0.7,0.3,1.3,0.8,1.8c0.4,0.3,0.8,0.7,1.1,1l0.2,0.2c0,0.1-0.1,0.1-0.1,0.2c-0.3,0.3-0.5,0.6-0.8,0.8
	C40.4,43,40,43.8,40,44.7C40,44.9,40.1,45,40.1,45.1z M33,55.5c0.5-0.6,1.1-1.2,1.7-1.7c0.2-0.2,0.3-0.3,0.5-0.5
	c0.2,0.2,0.3,0.3,0.5,0.5c0.6,0.6,1.1,1.1,1.6,1.7c0.5,0.6,0.7,1.3,0.7,2.1c0,0.8-0.3,1.6-0.8,2.2c-0.5,0.5-1,1.1-1.5,1.6
	c-0.1,0.1-0.3,0.3-0.4,0.4c-0.2-0.2-0.4-0.4-0.6-0.5c-0.6-0.6-1.2-1.1-1.7-1.8c-0.4-0.6-0.7-1.3-0.7-2C32.3,56.8,32.5,56.1,33,55.5z
	 M15.3,41.9c-0.2-0.2-0.3-0.3-0.5-0.5c0.1-0.1,0.3-0.3,0.4-0.4c0.5-0.5,1-1,1.5-1.5c0.7-0.6,1.5-0.9,2.4-0.9c0.9,0,1.7,0.3,2.3,0.9
	c0.5,0.5,1,0.9,1.5,1.5c0.2,0.1,0.3,0.3,0.5,0.5c-0.2,0.2-0.4,0.4-0.6,0.6c-0.7,0.7-1.3,1.3-2,1.8c-0.5,0.3-1.1,0.5-1.7,0.5
	c-0.8,0-1.6-0.3-2.2-0.8C16.3,43,15.8,42.5,15.3,41.9z M20.8,28.9c0-0.4,0-0.7,0-1.1c0-0.3,0-0.5,0-0.8c0.2,0,0.5,0,0.7,0
	c0.4,0,0.7,0,1,0c0.5,0,0.9,0,1.3,0c1.5,0.1,2.7,1.3,2.9,2.7c0.1,0.4,0.1,0.8,0.1,1.4c0,0.4,0,0.8,0,1.2c0,0.3,0,0.5,0,0.8
	c-0.2,0-0.5,0-0.7,0c-0.3,0-0.7,0-1,0c-0.6,0-1.1,0-1.5-0.1c-0.1,0-0.3-0.1-0.4-0.1c-0.9-0.3-2.1-1-2.3-2.7
	C20.8,29.9,20.8,29.5,20.8,28.9C20.8,28.9,20.8,28.9,20.8,28.9z M25.7,43.9c1.2,1,1.2,1.2,1,2.5c-0.1,0-0.2,0-0.3,0
	c-0.5,0-1,0-1.5,0l-0.3,0c-0.6,0-1.3,0-2,0.2c0,0,0,0,0,0c0.5-0.3,1-0.7,1.5-1.2C24.7,44.9,25.2,44.4,25.7,43.9z M20.8,55.8
	c0-0.2,0-0.5,0-0.7c0-0.4,0-0.7,0-1c0-0.5,0-0.9,0-1.3c0.1-1.5,1.3-2.7,2.7-2.9c0.4-0.1,0.8-0.1,1.4-0.1c0.4,0,0.8,0,1.2,0
	c0.3,0,0.5,0,0.8,0c0,0.3,0,0.6,0,0.8c0,0.3,0,0.6,0,0.9c0,0.5,0,1.2-0.2,1.9c-0.4,1.3-1.4,2.1-2.7,2.3c-0.4,0-0.8,0.1-1.3,0.1
	c-0.4,0-0.7,0-1.1,0C21.3,55.8,21,55.8,20.8,55.8z M37.2,27.6c-0.5,0.5-1,1.1-1.6,1.6c-0.2,0.2-0.3,0.3-0.5,0.5
	c-0.2-0.2-0.3-0.3-0.5-0.5c-0.6-0.6-1.1-1.1-1.6-1.6c-0.5-0.6-0.8-1.4-0.8-2.2c0-0.7,0.3-1.5,0.7-2c0.5-0.6,1.1-1.2,1.7-1.7
	c0.2-0.2,0.3-0.3,0.5-0.5c0.2,0.2,0.3,0.3,0.5,0.5c0.6,0.6,1.1,1.1,1.6,1.7c0.5,0.6,0.8,1.3,0.8,2.1C38,26.2,37.7,27,37.2,27.6z
	 M49.5,27.1c0,0.2,0,0.5,0,0.7c0,0.4,0,0.7,0,1c0,0.5,0,0.9,0,1.2c-0.1,1.5-1.3,2.7-2.7,2.9c-0.4,0.1-0.8,0.1-1.4,0.1
	c-0.4,0-0.8,0-1.2,0c-0.3,0-0.5,0-0.8,0c0-0.3,0-0.5,0-0.8c0-0.3,0-0.6,0-0.9c0-0.8,0.1-1.3,0.2-1.9c0.4-1.4,1.4-2.2,2.7-2.3
	c0.4,0,0.8-0.1,1.3-0.1c0.4,0,0.7,0,1.1,0C49,27.1,49.3,27.1,49.5,27.1z M44.3,49.7c1,0,1.9,0,2.7,0.2c1.3,0.3,2.2,1.2,2.4,2.6
	c0.1,0.4,0.1,0.8,0.1,1.4c0,0.4,0,0.8,0,1.1c0,0.3,0,0.5,0,0.8c-0.3,0-0.5,0-0.7,0c-0.4,0-0.8,0-1.1,0c-0.5,0-1,0-1.4-0.1
	c-1.3-0.2-2.3-1.1-2.6-2.4c-0.2-0.9-0.2-1.8-0.2-2.7c0-0.3,0-0.6,0-0.9C43.7,49.7,44,49.7,44.3,49.7z M47.5,41.9
	c-0.1-0.2-0.3-0.3-0.4-0.5c0.1-0.2,0.3-0.3,0.4-0.5c0.5-0.6,1.1-1.2,1.7-1.7c0.6-0.5,1.3-0.7,2-0.7c0.8,0,1.7,0.3,2.3,0.9
	c0.5,0.5,1,1,1.5,1.5c0.2,0.2,0.3,0.3,0.5,0.5c-0.2,0.2-0.3,0.3-0.5,0.5c-0.5,0.5-1.1,1.1-1.6,1.5c-0.6,0.5-1.4,0.8-2.3,0.8
	c-0.8,0-1.5-0.3-2.1-0.8C48.5,43.1,48,42.5,47.5,41.9z M46.2,37.4L44.5,39c-1-0.7-1.3-1.5-1-2.5c0.1,0,0.1,0,0.2,0
	c0.4,0,0.9,0,1.3,0c0.2,0,0.3,0,0.5,0c0.6,0,1.3,0,2-0.2c0,0,0,0,0.1,0C47.1,36.6,46.6,37,46.2,37.4z M40.2,29.6
	c-0.1,0.7-0.1,1.4-0.1,2c0,0.3,0,0.6,0,0.9c0,0.2,0,0.4,0,0.6c-1,0.2-1.7-0.1-2.5-1.1c0.1-0.1,0.3-0.3,0.4-0.4
	c0.5-0.5,1.1-1,1.6-1.5c0.3-0.3,0.5-0.6,0.7-0.9C40.2,29.3,40.2,29.4,40.2,29.6z M30.9,30.2c0.5,0.5,1,1,1.5,1.4
	c0.1,0.1,0.2,0.2,0.4,0.3c-0.7,0.9-1.2,1.2-1.7,1.2c-0.2,0-0.4,0-0.7-0.1c0-0.3,0-0.6,0-0.9c0-0.9,0-1.9-0.2-2.8c0-0.1,0-0.2,0-0.3
	C30.3,29.5,30.6,29.9,30.9,30.2z M24.5,36.5l0.9,0l1.4,0c0.2,1-0.1,1.8-1.1,2.6c-0.1-0.1-0.2-0.3-0.4-0.4c-0.5-0.5-1-1.1-1.5-1.6
	c-0.3-0.3-0.6-0.5-1-0.8C23.4,36.5,24,36.5,24.5,36.5z M30.2,52.2c0-0.6,0-1.3,0-1.9l0-0.5c1.1-0.2,1.8,0.1,2.6,1.1
	c-0.1,0.1-0.3,0.3-0.4,0.4c-0.5,0.5-1.1,1-1.6,1.6c-0.2,0.3-0.5,0.5-0.7,0.8C30.2,53.2,30.2,52.7,30.2,52.2z M39.3,52.6
	c-0.4-0.4-0.9-0.9-1.3-1.3l-0.4-0.4c0.8-0.9,1.1-1.1,1.7-1.1c0.2,0,0.5,0,0.8,0.1c0,0.3,0,0.5,0,0.8c0,0.3,0,0.5,0,0.8
	c0,0.7,0,1.4,0.1,2c0,0.1,0,0.3,0.1,0.4C40,53.4,39.7,53,39.3,52.6z M47.2,46.5c-0.7-0.1-1.4-0.1-2.1-0.1c-0.3,0-0.6,0-0.9,0
	c-0.2,0-0.4,0-0.6,0c-0.2-1,0.1-1.8,1.1-2.5c0.1,0.1,0.3,0.3,0.4,0.4c0.5,0.5,1,1,1.5,1.5c0.3,0.3,0.7,0.6,1,0.8
	C47.4,46.6,47.3,46.5,47.2,46.5z"/>
</svg>
