<?xml version="1.0" encoding="utf-8"?>
<!-- Generator: Adobe Illustrator 19.0.0, SVG Export Plug-In . SVG Version: 6.00 Build 0)  -->
<svg version="1.1" id="Capa_3" xmlns="http://www.w3.org/2000/svg" xmlns:xlink="http://www.w3.org/1999/xlink" x="0px" y="0px"
	 viewBox="-28 207 241.3 263.7" style="enable-background:new -28 207 241.3 263.7;" xml:space="preserve">
<style type="text/css">
	.st0{display:none;fill:#76A6B7;}
	.st1{fill:#90B5BF;}
	.st2{fill:#91BBC6;}
	.st3{fill:#527A84;}
	.st4{fill:none;stroke:#A9DEEA;stroke-linecap:round;stroke-linejoin:round;stroke-miterlimit:10;stroke-dasharray:0,4;}
</style>
<rect id="XMLID_151_" x="-28" y="206.1" class="st0" width="241.3" height="264.6"/>
<g id="XMLID_10_">
	<path id="XMLID_11_" class="st1" d="M196.2,430.7c0-0.1,0-0.1-0.1-0.1H196c-0.9-0.1-1.6-0.3-2.5-0.4c-0.6,0-1.4-0.1-2-0.1
		c-1.3,0-2.7,0-3.9,0.1c-0.8,0.1-1.6,0.3-2.4,0.5c-0.4,0.1-0.8,0.3-1.1,0.4c-0.6,0.3-1.3,0.3-1.9,0.1c-0.4-0.1-0.8-0.1-1.1-0.3
		c-0.6-0.3-1.4-0.4-2-0.5c-1.4-0.3-2.7-0.4-4.1-0.4c-1,0-2,0-2.9,0.1c-0.8,0.1-1.5,0.3-2.3,0.3c-0.1,0-0.4,0.1-0.5,0.1
		s-0.1,0.1-0.1,0.1c0,0.5,0,0.9,0,1.4c0,0.1,0,0.1,0,0.3c0,0,0,0.1,0.1,0.1c0,0,0.1,0,0.1,0.1c0.3,0.1,0.4,0.4,0.5,0.8
		c0.1,0.3,0.1,0.4,0.1,0.6c0,0.1,0.1,0.3,0.1,0.4c0.1,0.6,0.3,1.1,0.4,1.8c0.1,0.5,0.3,1.1,0.5,1.6c0.3,0.6,0.8,1,1.3,1.3
		c0.4,0.1,0.8,0.3,1.1,0.3c0.8,0.1,1.4,0.1,2.2,0.1s1.4-0.1,2.2-0.4c0.5-0.1,1-0.4,1.4-0.8c0.6-0.5,1.1-1.1,1.5-1.9s0.6-1.5,0.9-2.3
		c0.1-0.3,0.1-0.5,0.3-0.6c0.1-0.4,0.4-0.5,0.8-0.6c0.1,0,0.3,0,0.4,0c0.3,0,0.5,0.1,0.6,0.3c0.1,0.1,0.1,0.3,0.3,0.3
		c0.1,0.3,0.1,0.4,0.3,0.6c0.3,1,0.8,1.9,1.3,2.8c0.4,0.8,1,1.3,1.8,1.8c0.5,0.3,1.1,0.5,1.6,0.6c0.9,0.1,1.8,0.3,2.7,0.1
		c0.5,0,1-0.1,1.6-0.3c0.5-0.1,1-0.4,1.4-0.9c0.3-0.3,0.4-0.6,0.5-0.9c0.3-0.8,0.5-1.4,0.6-2.2c0.1-0.4,0.1-0.8,0.3-1.1
		c0-0.1,0.1-0.4,0.1-0.5s0.1-0.4,0.3-0.5c0.1-0.1,0.3-0.3,0.4-0.4c0.1,0,0.1-0.1,0.1-0.1v-0.1c0-0.3,0-0.5,0-0.8
		C196.2,431.1,196.2,430.9,196.2,430.7 M169.9,431.6c-0.3,0-0.5,0-0.5-0.1s0.3-0.1,0.5-0.1s0.5,0,0.5,0.1
		C170.4,431.5,170.2,431.6,169.9,431.6 M180.1,434.4c-0.1,0.8-0.5,1.5-0.9,2.2c-0.3,0.4-0.5,0.8-0.8,1c-0.4,0.4-0.9,0.6-1.5,0.8
		c-1.1,0.3-2.3,0.4-3.4,0.3c-0.3,0-0.5-0.1-0.6-0.1c-0.5-0.1-0.8-0.4-1-0.8c-0.3-0.4-0.5-0.9-0.6-1.4c-0.1-0.6-0.3-1.3-0.3-2
		c0-0.4,0-0.8,0-1.1c0-0.3,0-0.4,0.1-0.6c0.1-0.6,0.6-1.1,1.3-1.3c0.6-0.1,1.3-0.3,1.9-0.3c0.5,0,0.9,0,1.3-0.1c1.1,0,2,0.1,2.9,0.3
		c0.4,0.1,0.8,0.1,1,0.4c0.1,0.1,0.4,0.3,0.5,0.3c0.3,0.3,0.4,0.5,0.4,0.8C180.2,433.2,180.2,433.7,180.1,434.4 M194.2,434.1
		c0,0.9-0.1,1.9-0.5,2.8c-0.1,0.4-0.4,0.6-0.6,1c-0.3,0.3-0.8,0.5-1.1,0.6c-0.5,0.1-1,0.1-1.5,0.1c-0.8,0-1.6-0.1-2.4-0.3
		c-0.8-0.1-1.4-0.6-1.9-1.1c-0.6-0.8-1-1.6-1.3-2.7c-0.1-0.5-0.3-0.9-0.1-1.4c0-0.3,0-0.4,0-0.6c0.1-0.5,0.4-0.8,0.9-1
		c0.5-0.1,0.9-0.3,1.4-0.4s1.1-0.1,1.6-0.3c0.4,0,0.9,0,1.1,0c1.1,0,2.2,0.1,3.2,0.4c0.1,0,0.4,0.1,0.5,0.3c0.1,0.1,0.3,0.3,0.4,0.4
		c0.1,0.1,0.1,0.4,0.3,0.5c0.1,0.3,0.1,0.5,0.1,0.6C194.2,433.4,194.2,433.7,194.2,434.1 M195.1,431.6c-0.3,0-0.5,0-0.5-0.1
		s0.3-0.1,0.5-0.1s0.5,0,0.5,0.1C195.6,431.5,195.3,431.6,195.1,431.6"/>
</g>
<g id="XMLID_19_">
	<path id="Facebook_Places" class="st1" d="M78.5,407.4c0-0.2-0.1-0.3-0.2-0.6c-0.9-1.9-2.5-2.7-4-2.7c-1.9,0-4,1.3-4.3,3.9v0.6
		c0,0,0,0.2,0,0.3c0.1,1.3,1.2,2.5,1.9,3.9c0.7,1.4,1.6,2.7,2.4,4c0.6-0.9,0.9-1.7,1.5-2.5c0.1-0.2,0.3-0.6,0.4-0.7
		c0.1-0.1,0.2-0.3,0.3-0.4c0.7-1.5,2.1-3,2.1-4.3v-0.6C78.7,408,78.5,407.4,78.5,407.4z M74.4,410.1c-0.6,0-1.2-0.3-1.5-1
		c0-0.1,0-0.3,0-0.4v-0.3c0-0.9,0.9-1.4,1.6-1.4c0.9,0,1.6,0.7,1.6,1.6C76,409.4,75.2,410.1,74.4,410.1z"/>
</g>
<g id="Search">
	<path id="XMLID_24_" class="st1" d="M5.8,227.7l-2.5-2.5l0,0c0.5-0.8,0.8-1.6,0.8-2.5c0-2.6-2.1-4.6-4.6-4.6
		c-2.6,0-4.6,2.1-4.6,4.6c0,2.6,2.1,4.6,4.6,4.6c0.9,0,1.8-0.3,2.5-0.8l0,0l2.5,2.5c0.4,0.4,0.9,0.4,1.3,0
		C6.2,228.7,6.2,228.1,5.8,227.7z M-0.7,225.8c-1.7,0-3-1.3-3-3c0-1.7,1.3-3,3-3s3,1.3,3,3C2.3,224.5,1,225.8-0.7,225.8z"/>
</g>
<circle id="XMLID_144_" class="st2" cx="177.9" cy="251.6" r="1"/>
<circle id="XMLID_44_" class="st2" cx="96.1" cy="284.8" r="1"/>
<circle id="XMLID_143_" class="st2" cx="168.1" cy="373" r="1"/>
<circle id="XMLID_2_" class="st2" cx="129.9" cy="434.7" r="1"/>
<circle id="XMLID_145_" class="st2" cx="20.1" cy="320.8" r="1"/>
<circle id="XMLID_146_" class="st2" cx="-18.9" cy="281.8" r="1"/>
<circle id="XMLID_1_" class="st2" cx="-2.2" cy="394.5" r="1"/>
<circle id="XMLID_152_" class="st3" cx="21.1" cy="279.8" r="1"/>
<circle id="XMLID_23_" class="st3" cx="145.1" cy="286.8" r="1"/>
<circle id="XMLID_25_" class="st3" cx="108.1" cy="249.8" r="1"/>
<circle id="XMLID_26_" class="st3" cx="95.1" cy="343.8" r="1"/>
<circle id="XMLID_5_" class="st3" cx="117.5" cy="387.5" r="1"/>
<circle id="XMLID_3_" class="st3" cx="75.5" cy="421.7" r="1"/>
<circle id="XMLID_27_" class="st3" cx="184.1" cy="344.8" r="1"/>
<circle id="XMLID_28_" class="st2" cx="183.9" cy="284.6" r="1"/>
<circle id="XMLID_4_" class="st2" cx="137.5" cy="337.4" r="1"/>
<circle id="XMLID_29_" class="st2" cx="67.1" cy="229.8" r="1"/>
<g>
	<g>
		<path class="st1" d="M176.1,229.9l-1.7-2.2l-6.9,3.9c0.2,0.2,0.4,0.4,0.8,0.5l14.3,2.7c0.3,0.1,0.6,0,0.9-0.2l-4.9-6.2
			L176.1,229.9z"/>
		<path class="st1" d="M185.6,223.4c-0.2-0.2-0.4-0.4-0.8-0.5l-14.3-2.7c-0.3-0.1-0.6,0-0.9,0.2l6.6,8.3L185.6,223.4z"/>
		<polygon class="st1" points="169.2,221 167.3,230.9 174,227.1 		"/>
		<polygon class="st1" points="179.1,228.1 183.9,234.1 185.8,224.2 		"/>
	</g>
</g>
<g>
	<path class="st1" d="M6.9,442.4H5.6c-1.4,0-2.5-1.1-2.5-2.5v-0.8c0.6-0.7,1-1.4,1.2-2.3c0-0.1,0.2-0.2,0.3-0.3
		c0.5-0.5,0.6-1.3,0.2-1.9c0-0.1-0.1-0.2-0.1-0.3c0-0.7,0-1.5,0-2.2c0-0.9-0.3-1.8-0.9-2.5c-0.5-0.5-1.2-0.9-1.9-1
		c-0.9-0.2-1.9-0.2-2.7,0.1c-0.8,0.2-1.5,0.7-2,1.3c-0.4,0.6-0.6,1.3-0.6,2c0,0.8,0,1.5,0,2.3c0,0.2-0.1,0.3-0.2,0.4
		c-0.3,0.6-0.2,1.5,0.4,1.9c0.1,0.1,0.2,0.3,0.2,0.4c0.2,0.7,0.6,1.4,1.1,2v0.8c0,1.4-1.1,2.5-2.5,2.5h-1.3c0,0-2.3,0.6-3.8,3.8v1.3
		c0,0.7,0.6,1.3,1.3,1.3H9.4c0.7,0,1.3-0.6,1.3-1.3v-1.3C9.2,443,6.9,442.4,6.9,442.4z"/>
</g>
<path class="st4" d="M-18.9,215.7c-8,32.7,6.1,79.1,44,84.1c11.7,1.6,23.7,0.4,35.3,3.3c19,4.8,35.6,17,46.7,33.1
	c5.6,8.1,9.8,17.1,12.3,26.6c2.5,9.6,2.1,19.5,3.6,29.2c3,19.1,13.1,36.6,29.8,46.8c14.3,8.8,33.1,18.5,50.2,19.5"/>
</svg>
