<?xml version="1.0" encoding="utf-8"?>
<!-- Generator: Adobe Illustrator 19.0.0, SVG Export Plug-In . SVG Version: 6.00 Build 0)  -->
<svg version="1.1" id="Capa_1" xmlns="http://www.w3.org/2000/svg" xmlns:xlink="http://www.w3.org/1999/xlink" x="0px" y="0px"
	 viewBox="-142 523 35 35" style="enable-background:new -142 523 35 35;" xml:space="preserve">
<style type="text/css">
	.st0{fill:#FFFFFF;}
</style>
<g>
	<path id="YouTube" class="st0" d="M-115.6,547.7h-1.7v-0.9c0-0.5,0.4-0.8,0.8-0.8h0.1c0.5,0,0.8,0.4,0.8,0.8L-115.6,547.7
		L-115.6,547.7z M-121.9,545.5c-0.5,0-0.8,0.3-0.8,0.7v4.8c0,0.4,0.4,0.7,0.8,0.7c0.5,0,0.8-0.3,0.8-0.7v-4.8
		C-121.1,545.8-121.5,545.5-121.9,545.5z M-111.7,542.8v9c0,2.2-1.9,4-4.2,4h-17.2c-2.4,0-4.2-1.8-4.2-4v-9c0-2.2,1.9-4,4.2-4h17.3
		C-113.6,538.9-111.7,540.8-111.7,542.8z M-131.9,552.9v-9.5h2.2v-1.5h-5.8v1.4h1.8v9.6H-131.9z M-125.5,544.8h-1.8v5.1
		c0,0.8,0,1.1,0,1.2c-0.2,0.4-0.8,0.8-1,0c0-0.1,0-0.6,0-1.2v-5.2h-1.8v5.1c0,0.8,0,1.3,0,1.6c0,0.5,0,1,0.5,1.3
		c0.8,0.6,2.4-0.1,2.7-0.9v1h1.4L-125.5,544.8L-125.5,544.8z M-119.8,550.7v-4.2c0-1.6-1.2-2.5-2.8-1.3v-3.2l-1.9,0.1v10.9h1.5
		l0.1-0.7C-121,553.9-119.8,552.7-119.8,550.7z M-114.2,550h-1.3c0,0.1,0,0.1,0,0.2v0.8c0,0.4-0.4,0.8-0.8,0.8h-0.3
		c-0.4,0-0.8-0.3-0.8-0.8v-0.1v-0.8v-1h3V548c0-0.8,0-1.7-0.1-2.2c-0.2-1.5-2.4-1.8-3.4-0.9c-0.4,0.3-0.6,0.6-0.8,1
		c-0.2,0.4-0.2,1-0.2,1.8v2.5C-118.7,554.2-113.6,553.8-114.2,550z M-121.1,536.2c0.1,0.2,0.2,0.4,0.5,0.6c0.2,0.1,0.5,0.2,0.8,0.2
		s0.5-0.1,0.7-0.2c0.2-0.2,0.4-0.4,0.5-0.7v0.7h2v-8.5h-1.6v6.6c0,0.4-0.3,0.7-0.7,0.7s-0.7-0.3-0.7-0.7v-6.6h-1.6v5.8
		c0,0.8,0,1.2,0,1.4C-121.3,535.9-121.2,536-121.1,536.2z M-127.1,531.5c0-0.8,0.1-1.4,0.2-1.9s0.4-0.8,0.8-1.1s0.8-0.4,1.3-0.4
		s0.8,0.1,1.2,0.3c0.4,0.2,0.6,0.4,0.8,0.7c0.2,0.3,0.3,0.6,0.4,0.8c0.1,0.2,0.1,0.8,0.1,1.4v2.1c0,0.8,0,1.3-0.1,1.7
		s-0.2,0.8-0.4,1c-0.2,0.3-0.5,0.6-0.8,0.7c-0.3,0.2-0.7,0.2-1,0.2c-0.5,0-0.8-0.1-1.1-0.2c-0.3-0.1-0.6-0.3-0.8-0.6
		c-0.2-0.3-0.3-0.6-0.4-0.9c-0.1-0.4-0.1-0.9-0.1-1.7L-127.1,531.5L-127.1,531.5z M-125.5,534.8c0,0.5,0.4,0.8,0.8,0.8
		c0.5,0,0.8-0.4,0.8-0.8v-4.4c0-0.5-0.4-0.8-0.8-0.8c-0.5,0-0.8,0.4-0.8,0.8C-125.5,530.4-125.5,534.8-125.5,534.8z M-131.1,537.2
		h1.9v-6.5l2.3-5.6h-2.1l-1.2,4.1l-1.2-4.1h-2l2.4,5.6L-131.1,537.2L-131.1,537.2z"/>
</g>
</svg>
