<?xml version="1.0" encoding="utf-8"?>
<!-- Generator: Adobe Illustrator 19.0.0, SVG Export Plug-In . SVG Version: 6.00 Build 0)  -->
<svg version="1.1" id="Capa_1" xmlns="http://www.w3.org/2000/svg" xmlns:xlink="http://www.w3.org/1999/xlink" x="0px" y="0px"
	 viewBox="-132 133 35 35" style="enable-background:new -132 133 35 35;" xml:space="preserve">
<style type="text/css">
	.st0{fill:#FFFFFF;}
</style>
<g>
	<g>
		<path class="st0" d="M-97,140.2c-1.3,0.5-2.7,0.9-4.1,1.1c1.5-0.9,2.7-2.3,3.2-4c-1.3,0.8-2.9,1.5-4.5,1.7
			c-1.3-1.3-3.2-2.3-5.2-2.3c-4,0-7.2,3.2-7.2,7.2c0,0.5,0,1.1,0.1,1.6c-6-0.3-11.3-3.2-14.8-7.5c-0.7,1.1-0.9,2.3-0.9,3.6
			c0,2.5,1.3,4.7,3.2,6c-1.2,0-2.3-0.4-3.2-0.9v0.1c0,3.5,2.5,6.4,5.7,7.1c-0.7,0.1-1.2,0.3-1.9,0.3c-0.4,0-0.9,0-1.3-0.1
			c0.9,2.8,3.6,4.9,6.7,4.9c-2.4,1.9-5.6,3.1-8.9,3.1c-0.5,0-1.2,0-1.7-0.1c3.2,2,6.9,3.2,11.1,3.2c13.2,0,20.4-10.9,20.4-20.4v-1
			C-99.1,142.8-97.9,141.6-97,140.2z"/>
	</g>
</g>
</svg>
