<svg width="126" height="113" viewBox="0 0 126 113" fill="none" xmlns="http://www.w3.org/2000/svg">
<path fill-rule="evenodd" clip-rule="evenodd" d="M123.158 30.9672C115.536 36.8953 107.183 43.8694 95.025 44.8139C87.2517 45.3114 89.8479 42.065 94.2569 40.8876C101.935 38.7688 109.618 36.3845 116.44 31.7462C120.122 29.2181 122.097 25.3832 122.801 20.8911C123.225 17.9688 122.74 17.6803 120.984 19.5316C116.355 24.3375 110.473 28.3865 103.681 31.9915C100.131 33.8318 99.6453 33.2152 102.543 30.498C106.494 26.6879 110.506 22.8949 115.063 19.5608C118.04 17.4059 119.506 14.6577 118.645 11.3461C117.779 8.12043 116.18 5.3648 116.016 2.74496C115.913 1.08869 115.96 1.11428 114.515 1.80017C111.773 3.05176 108.318 3.36694 105.446 4.52322C103.422 5.35075 102.392 7.07243 102.182 9.68835C101.903 12.8446 100.373 15.2913 98.9382 17.1858C96.9387 19.7471 96.3138 18.4402 96.72 16.1201C97.4301 11.8749 98.9679 7.54393 99.9581 3.25151C100.722 -0.144903 98.9183 1.27927 98.0595 2.15532C93.9717 6.27901 90.8482 11.3675 88.9359 17.9792C88.0248 21.2264 88.2228 25.4243 86.0621 27.9509C83.6488 30.6873 81.5975 30.099 82.2652 26.2873C83.8922 16.3557 88.2535 10.0659 89.665 2.83627C90.0784 0.657137 89.1141 0.24227 86.9961 1.3466C80.6611 4.54388 75.8785 8.57816 74.9407 16.2209C74.3409 20.8093 75.2009 26.0775 73.8336 31.1653C72.7826 34.8434 68.9201 34.063 68.8192 29.5136C68.5002 20.0415 71.4561 12.6461 73.0417 5.90271C73.4898 4.02709 72.5223 3.42262 70.2976 4.59532C66.2589 6.70818 62.4831 9.20628 59.3759 12.5828C53.4155 19.0887 52.3379 26.4589 54.9914 36.1116C56.0077 39.9192 53.3433 39.9672 51.9509 35.7491C49.106 27.296 49.8551 19.7204 52.0431 13.0203C52.9403 10.2418 51.1475 9.73314 48.8545 11.1393C44.1245 13.9921 39.1926 17.0529 35.6613 21.9026C34.0087 24.2205 31.6402 25.4336 37.0965 33.0162C40.4744 37.6271 40.7542 42.5294 39.4276 45.746C38.3609 48.4548 37.352 48.5955 36.1888 45.7175C32.7135 37.1221 31.4895 30.9011 30.2145 25.1209C29.6386 22.6387 28.4657 22.095 26.5333 23.6035C21.4079 27.8326 12.6352 34.7611 16.4924 42.692C18.3844 46.4443 21.5649 48.5546 24.7583 50.0378C26.9347 51.0555 26.3718 52.4145 23.3841 52.6314C15.3755 53.1494 11.9031 48.4611 11.5172 42.3315C11.1083 37.3127 9.83274 37.4709 5.91094 42.8601C-4.78197 56.6084 -0.212669 76.8714 22.5192 69.4997C68.8971 53.3272 98.05 29.7289 113.765 6.64211C98.7599 32.1941 66.924 55.496 20.6516 73.6415C3.50344 80.0354 7.9697 100.91 22.2075 106.993C34.1138 111.874 46.8172 112.885 59.1286 112.426C68.6687 111.973 64.2746 109.694 62.4212 107.45C57.9749 101.931 53.3144 97.6021 48.9409 87.9306C44.9277 78.9538 52.9465 75.6413 55.2023 84.4605C57.6634 94.34 60.9356 103.688 74.0308 102.097C85.5038 100.622 95.691 94.7279 103.297 86.7308C106.939 82.8641 106.523 82.13 102.4 82.0955C92.7654 82.0324 82.5769 81.5175 73.8407 75.1591C64.159 68.027 71.7369 66.8633 76.5696 68.7657C82.4279 71.0839 87.8612 73.9024 94.7715 75.4506C104.614 77.6417 114.778 73.5408 122.403 60.8962C124.974 56.4872 124.379 55.2631 120.695 55.8669C117.703 56.3331 113.092 57.0102 107.184 59.1247C100.128 61.6785 92.4426 63.5664 84.3642 62.441C82.4545 62.1989 82.2432 60.7382 82.6901 59.4075C83.8982 55.9661 88.7772 56.0223 91.5523 56.4073C95.7274 57.0161 100.109 57.9658 104.141 56.944C113.534 54.5172 122.038 49.6215 125.137 32.8739C125.626 29.7667 125.307 29.2735 123.158 30.9672Z" fill="#55B2D3"/>
</svg>
