<svg xmlns="http://www.w3.org/2000/svg" width="49" height="49" viewBox="0 0 49 49" fill="none">
<path fill-rule="evenodd" clip-rule="evenodd" d="M7 13C7 12.4477 7.44772 12 8 12H41.6364C42.1887 12 42.6364 12.4477 42.6364 13C42.6364 13.5523 42.1887 14 41.6364 14H8C7.44772 14 7 13.5523 7 13ZM7 24.8788C7 24.3265 7.44772 23.8788 8 23.8788H41.6364C42.1887 23.8788 42.6364 24.3265 42.6364 24.8788C42.6364 25.4311 42.1887 25.8788 41.6364 25.8788H8C7.44772 25.8788 7 25.4311 7 24.8788ZM8 35.7576C7.44772 35.7576 7 36.2053 7 36.7576C7 37.3098 7.44772 37.7576 8 37.7576H41.6364C42.1887 37.7576 42.6364 37.3098 42.6364 36.7576C42.6364 36.2053 42.1887 35.7576 41.6364 35.7576H8Z" fill="#406EAA"/>
</svg>