<?xml version="1.0" encoding="utf-8"?>
<!-- Generator: Adobe Illustrator 19.0.0, SVG Export Plug-In . SVG Version: 6.00 Build 0)  -->
<svg version="1.1" id="Capa_1" xmlns="http://www.w3.org/2000/svg" xmlns:xlink="http://www.w3.org/1999/xlink" x="0px" y="0px"
	 viewBox="0 0 200 51.5" style="enable-background:new 0 0 200 51.5;" xml:space="preserve">
<style type="text/css">
	.st0{fill:#ED8A19;}
</style>
<path id="XMLID_2_" class="st0" d="M25.5,9.8l4,8.1c0.3,0.6,0.8,1,1.4,1l8.9,1.3c1.6,0.2,2.2,2.2,1.1,3.3l-6.5,6.3
	c-0.4,0.4-0.7,1.1-0.5,1.7l1.5,8.9c0.3,1.6-1.4,2.8-2.8,2l-8-4.2c-0.6-0.3-1.2-0.3-1.8,0l-8,4.2c-1.4,0.7-3-0.5-2.8-2l1.5-8.9
	c0.1-0.6-0.1-1.3-0.5-1.7l-6.5-6.3c-1.1-1.1-0.5-3,1.1-3.3l8.9-1.3c0.6-0.1,1.2-0.5,1.4-1l4-8.1C22.8,8.4,24.8,8.4,25.5,9.8z"/>
<path id="XMLID_42_" class="st0" d="M63.6,9.8l4,8.1c0.3,0.6,0.8,1,1.4,1l8.9,1.3c1.6,0.2,2.2,2.2,1.1,3.3l-6.5,6.3
	c-0.4,0.4-0.7,1.1-0.5,1.7l1.5,8.9c0.3,1.6-1.4,2.8-2.8,2l-8-4.2c-0.6-0.3-1.2-0.3-1.8,0l-8,4.2c-1.4,0.7-3-0.5-2.8-2l1.5-8.9
	c0.1-0.6-0.1-1.3-0.5-1.7l-6.5-6.3c-1.1-1.1-0.5-3,1.1-3.3l8.9-1.3c0.6-0.1,1.2-0.5,1.4-1l4-8.1C60.9,8.4,62.9,8.4,63.6,9.8z"/>
<path id="XMLID_43_" class="st0" d="M101.7,9.8l4,8.1c0.3,0.6,0.8,1,1.4,1l8.9,1.3c1.6,0.2,2.2,2.2,1.1,3.3l-6.5,6.3
	c-0.4,0.4-0.7,1.1-0.5,1.7l1.5,8.9c0.3,1.6-1.4,2.8-2.8,2l-8-4.2c-0.6-0.3-1.2-0.3-1.8,0l-8,4.2c-1.4,0.7-3-0.5-2.8-2l1.5-8.9
	c0.1-0.6-0.1-1.3-0.5-1.7l-6.5-6.3c-1.1-1.1-0.5-3,1.1-3.3l8.9-1.3c0.6-0.1,1.2-0.5,1.4-1l4-8.1C99,8.4,101,8.4,101.7,9.8z"/>
<path id="XMLID_44_" class="st0" d="M139.8,9.8l4,8.1c0.3,0.6,0.8,1,1.4,1l8.9,1.3c1.6,0.2,2.2,2.2,1.1,3.3l-6.5,6.3
	c-0.4,0.4-0.7,1.1-0.5,1.7l1.5,8.9c0.3,1.6-1.4,2.8-2.8,2l-8-4.2c-0.6-0.3-1.2-0.3-1.8,0l-8,4.2c-1.4,0.7-3-0.5-2.8-2l1.5-8.9
	c0.1-0.6-0.1-1.3-0.5-1.7l-6.5-6.3c-1.1-1.1-0.5-3,1.1-3.3L131,19c0.6-0.1,1.2-0.5,1.4-1l4-8.1C137.1,8.4,139.1,8.4,139.8,9.8z"/>
<path id="XMLID_45_" class="st0" d="M177.9,9.8l4,8.1c0.3,0.6,0.8,1,1.4,1l8.9,1.3c1.6,0.2,2.2,2.2,1.1,3.3l-6.5,6.3
	c-0.4,0.4-0.7,1.1-0.5,1.7l1.5,8.9c0.3,1.6-1.4,2.8-2.8,2l-8-4.2c-0.6-0.3-1.2-0.3-1.8,0l-8,4.2c-1.4,0.7-3-0.5-2.8-2l1.5-8.9
	c0.1-0.6-0.1-1.3-0.5-1.7l-6.5-6.3c-1.1-1.1-0.5-3,1.1-3.3l8.9-1.3c0.6-0.1,1.2-0.5,1.4-1l4-8.1C175.2,8.4,177.2,8.4,177.9,9.8z"/>
</svg>
