<?xml version="1.0" encoding="utf-8"?>
<!-- Generator: Adobe Illustrator 19.0.0, SVG Export Plug-In . SVG Version: 6.00 Build 0)  -->
<svg version="1.1" id="Capa_1" xmlns="http://www.w3.org/2000/svg" xmlns:xlink="http://www.w3.org/1999/xlink" x="0px" y="0px"
	 viewBox="93 -93.5 486.5 486.5" style="enable-background:new 93 -93.5 486.5 486.5;" xml:space="preserve">
<style type="text/css">
	.st0{fill:#FFD900;}
</style>
<path d="M567.6,328.5c15.7-27.1,15.8-59.4,0.2-86.4L411.2-29.1c-15.5-27.3-43.5-43.5-74.9-43.5s-59.4,16.3-74.9,43.4L104.6,242.3
	c-15.6,27.3-15.5,59.8,0.3,86.9c15.6,26.8,43.5,42.9,74.7,42.9h312.8C523.7,372.1,551.8,355.8,567.6,328.5z"/>
<path class="st0" d="M533.6,308.9c-8.7,15-24.1,23.9-41.3,23.9H179.5c-17,0-32.3-8.7-40.8-23.4c-8.6-14.9-8.7-32.7-0.1-47.7
	L295.4-9.7c8.5-14.9,23.7-23.7,40.9-23.7c17.1,0,32.4,8.9,40.9,23.8l156.7,271.4C542.3,276.4,542.2,294,533.6,308.9z"/>
<g>
	<path d="M336.2,239.9c-13.6,0-25,11.4-25,25s11.4,25,25,25c13.1,0,25-11.4,24.4-24.4C361.2,251.2,349.9,239.9,336.2,239.9z"/>
	<path d="M330,64.4c-11.9,3.4-19.3,14.2-19.3,27.3c0.6,7.9,1.1,15.9,1.7,23.8c1.7,30.1,3.4,59.6,5.1,89.7
		c0.6,10.2,8.5,17.6,18.7,17.6c10.2,0,18.2-7.9,18.7-18.2c0-6.2,0-11.9,0.6-18.2c1.1-19.3,2.3-38.6,3.4-57.9
		c0.6-12.5,1.7-25,2.3-37.5c0-4.5-0.6-8.5-2.3-12.5C353.8,67.3,341.9,61.6,330,64.4z"/>
</g>
</svg>
